{
    "format": 1, 
    "instruments": [
        0, 
        2, 
        36, 
        25, 
        26, 
        28
    ], 
    "resolution": 120, 
    "channels": [
        0, 
        1, 
        7, 
        9, 
        10, 
        12, 
        13
    ], 
    "tracks": [
        {
            "trackName": "Track1", 
            "seq": [
                [
                    0, 
                    [
                        {
                            "bpm": 140.00014000014, 
                            "type": "tempo", 
                            "mpqn": 428571, 
                            "t0": 0
                        }
                    ]
                ]
            ], 
            "instruments": [], 
            "tMax": 0, 
            "channels": [], 
            "numNotes": 0, 
            "type": "TrackObj"
        }, 
        {
            "trackName": "ch1 bass", 
            "seq": [
                [
                    0, 
                    [
                        {
                            "instrument": 36, 
                            "type": "programChange", 
                            "t0": 0, 
                            "channel": 0
                        }
                    ]
                ], 
                [
                    478, 
                    [
                        {
                            "pitch": 31, 
                            "t0": 478, 
                            "v": 78, 
                            "dur": 77, 
                            "type": "note", 
                            "channel": 0
                        }
                    ]
                ], 
                [
                    557, 
                    [
                        {
                            "pitch": 43, 
                            "t0": 557, 
                            "v": 64, 
                            "dur": 24, 
                            "type": "note", 
                            "channel": 0
                        }
                    ]
                ], 
                [
                    593, 
                    [
                        {
                            "pitch": 33, 
                            "t0": 593, 
                            "v": 81, 
                            "dur": 75, 
                            "type": "note", 
                            "channel": 0
                        }
                    ]
                ], 
                [
                    672, 
                    [
                        {
                            "pitch": 45, 
                            "t0": 672, 
                            "v": 64, 
                            "dur": 27, 
                            "type": "note", 
                            "channel": 0
                        }
                    ]
                ], 
                [
                    707, 
                    [
                        {
                            "pitch": 34, 
                            "t0": 707, 
                            "v": 67, 
                            "dur": 89, 
                            "type": "note", 
                            "channel": 0
                        }
                    ]
                ], 
                [
                    793, 
                    [
                        {
                            "pitch": 46, 
                            "t0": 793, 
                            "v": 64, 
                            "dur": 29, 
                            "type": "note", 
                            "channel": 0
                        }
                    ]
                ], 
                [
                    833, 
                    [
                        {
                            "pitch": 35, 
                            "t0": 833, 
                            "v": 80, 
                            "dur": 77, 
                            "type": "note", 
                            "channel": 0
                        }
                    ]
                ], 
                [
                    924, 
                    [
                        {
                            "pitch": 47, 
                            "t0": 924, 
                            "v": 60, 
                            "dur": 25, 
                            "type": "note", 
                            "channel": 0
                        }
                    ]
                ], 
                [
                    960, 
                    [
                        {
                            "pitch": 36, 
                            "t0": 960, 
                            "v": 69, 
                            "dur": 107, 
                            "type": "note", 
                            "channel": 0
                        }
                    ]
                ], 
                [
                    1079, 
                    [
                        {
                            "pitch": 40, 
                            "t0": 1079, 
                            "v": 66, 
                            "dur": 109, 
                            "type": "note", 
                            "channel": 0
                        }
                    ]
                ], 
                [
                    1202, 
                    [
                        {
                            "pitch": 41, 
                            "t0": 1202, 
                            "v": 76, 
                            "dur": 110, 
                            "type": "note", 
                            "channel": 0
                        }
                    ]
                ], 
                [
                    1325, 
                    [
                        {
                            "pitch": 42, 
                            "t0": 1325, 
                            "v": 71, 
                            "dur": 101, 
                            "type": "note", 
                            "channel": 0
                        }
                    ]
                ], 
                [
                    1439, 
                    [
                        {
                            "pitch": 43, 
                            "t0": 1439, 
                            "v": 71, 
                            "dur": 114, 
                            "type": "note", 
                            "channel": 0
                        }
                    ]
                ], 
                [
                    1553, 
                    [
                        {
                            "pitch": 40, 
                            "t0": 1553, 
                            "v": 80, 
                            "dur": 112, 
                            "type": "note", 
                            "channel": 0
                        }
                    ]
                ], 
                [
                    1676, 
                    [
                        {
                            "pitch": 38, 
                            "t0": 1676, 
                            "v": 84, 
                            "dur": 112, 
                            "type": "note", 
                            "channel": 0
                        }
                    ]
                ], 
                [
                    1794, 
                    [
                        {
                            "pitch": 35, 
                            "t0": 1794, 
                            "v": 91, 
                            "dur": 118, 
                            "type": "note", 
                            "channel": 0
                        }
                    ]
                ], 
                [
                    1923, 
                    [
                        {
                            "pitch": 31, 
                            "t0": 1923, 
                            "v": 88, 
                            "dur": 99, 
                            "type": "note", 
                            "channel": 0
                        }
                    ]
                ], 
                [
                    2040, 
                    [
                        {
                            "pitch": 28, 
                            "t0": 2040, 
                            "v": 92, 
                            "dur": 75, 
                            "type": "note", 
                            "channel": 0
                        }
                    ]
                ], 
                [
                    2124, 
                    [
                        {
                            "pitch": 40, 
                            "t0": 2124, 
                            "v": 62, 
                            "dur": 23, 
                            "type": "note", 
                            "channel": 0
                        }
                    ]
                ], 
                [
                    2158, 
                    [
                        {
                            "pitch": 29, 
                            "t0": 2158, 
                            "v": 97, 
                            "dur": 76, 
                            "type": "note", 
                            "channel": 0
                        }
                    ]
                ], 
                [
                    2241, 
                    [
                        {
                            "pitch": 41, 
                            "t0": 2241, 
                            "v": 73, 
                            "dur": 26, 
                            "type": "note", 
                            "channel": 0
                        }
                    ]
                ], 
                [
                    2277, 
                    [
                        {
                            "pitch": 30, 
                            "t0": 2277, 
                            "v": 95, 
                            "dur": 76, 
                            "type": "note", 
                            "channel": 0
                        }
                    ]
                ], 
                [
                    2358, 
                    [
                        {
                            "pitch": 42, 
                            "t0": 2358, 
                            "v": 61, 
                            "dur": 28, 
                            "type": "note", 
                            "channel": 0
                        }
                    ]
                ], 
                [
                    2397, 
                    [
                        {
                            "pitch": 31, 
                            "t0": 2397, 
                            "v": 78, 
                            "dur": 69, 
                            "type": "note", 
                            "channel": 0
                        }
                    ]
                ], 
                [
                    2477, 
                    [
                        {
                            "pitch": 43, 
                            "t0": 2477, 
                            "v": 62, 
                            "dur": 27, 
                            "type": "note", 
                            "channel": 0
                        }
                    ]
                ], 
                [
                    2515, 
                    [
                        {
                            "pitch": 40, 
                            "t0": 2515, 
                            "v": 80, 
                            "dur": 109, 
                            "type": "note", 
                            "channel": 0
                        }
                    ]
                ], 
                [
                    2635, 
                    [
                        {
                            "pitch": 38, 
                            "t0": 2635, 
                            "v": 80, 
                            "dur": 75, 
                            "type": "note", 
                            "channel": 0
                        }
                    ]
                ], 
                [
                    2718, 
                    [
                        {
                            "pitch": 38, 
                            "t0": 2718, 
                            "v": 60, 
                            "dur": 29, 
                            "type": "note", 
                            "channel": 0
                        }
                    ]
                ], 
                [
                    2756, 
                    [
                        {
                            "pitch": 35, 
                            "t0": 2756, 
                            "v": 83, 
                            "dur": 66, 
                            "type": "note", 
                            "channel": 0
                        }
                    ]
                ], 
                [
                    2831, 
                    [
                        {
                            "pitch": 35, 
                            "t0": 2831, 
                            "v": 57, 
                            "dur": 32, 
                            "type": "note", 
                            "channel": 0
                        }
                    ]
                ], 
                [
                    2875, 
                    [
                        {
                            "pitch": 31, 
                            "t0": 2875, 
                            "v": 90, 
                            "dur": 68, 
                            "type": "note", 
                            "channel": 0
                        }
                    ]
                ], 
                [
                    2955, 
                    [
                        {
                            "pitch": 31, 
                            "t0": 2955, 
                            "v": 73, 
                            "dur": 30, 
                            "type": "note", 
                            "channel": 0
                        }
                    ]
                ], 
                [
                    2996, 
                    [
                        {
                            "pitch": 35, 
                            "t0": 2996, 
                            "v": 90, 
                            "dur": 67, 
                            "type": "note", 
                            "channel": 0
                        }
                    ]
                ], 
                [
                    3079, 
                    [
                        {
                            "pitch": 35, 
                            "t0": 3079, 
                            "v": 78, 
                            "dur": 29, 
                            "type": "note", 
                            "channel": 0
                        }
                    ]
                ], 
                [
                    3117, 
                    [
                        {
                            "pitch": 36, 
                            "t0": 3117, 
                            "v": 88, 
                            "dur": 62, 
                            "type": "note", 
                            "channel": 0
                        }
                    ]
                ], 
                [
                    3197, 
                    [
                        {
                            "pitch": 36, 
                            "t0": 3197, 
                            "v": 70, 
                            "dur": 32, 
                            "type": "note", 
                            "channel": 0
                        }
                    ]
                ], 
                [
                    3235, 
                    [
                        {
                            "pitch": 37, 
                            "t0": 3235, 
                            "v": 67, 
                            "dur": 54, 
                            "type": "note", 
                            "channel": 0
                        }
                    ]
                ], 
                [
                    3304, 
                    [
                        {
                            "pitch": 37, 
                            "t0": 3304, 
                            "v": 65, 
                            "dur": 36, 
                            "type": "note", 
                            "channel": 0
                        }
                    ]
                ], 
                [
                    3355, 
                    [
                        {
                            "pitch": 38, 
                            "t0": 3355, 
                            "v": 68, 
                            "dur": 46, 
                            "type": "note", 
                            "channel": 0
                        }
                    ]
                ], 
                [
                    3424, 
                    [
                        {
                            "pitch": 38, 
                            "t0": 3424, 
                            "v": 18, 
                            "dur": 56, 
                            "type": "note", 
                            "channel": 0
                        }
                    ]
                ], 
                [
                    3475, 
                    [
                        {
                            "pitch": 50, 
                            "t0": 3475, 
                            "v": 65, 
                            "dur": 118, 
                            "type": "note", 
                            "channel": 0
                        }
                    ]
                ], 
                [
                    3599, 
                    [
                        {
                            "pitch": 47, 
                            "t0": 3599, 
                            "v": 71, 
                            "dur": 59, 
                            "type": "note", 
                            "channel": 0
                        }
                    ]
                ], 
                [
                    3673, 
                    [
                        {
                            "pitch": 45, 
                            "t0": 3673, 
                            "v": 83, 
                            "dur": 30, 
                            "type": "note", 
                            "channel": 0
                        }
                    ]
                ], 
                [
                    3714, 
                    [
                        {
                            "pitch": 42, 
                            "t0": 3714, 
                            "v": 75, 
                            "dur": 113, 
                            "type": "note", 
                            "channel": 0
                        }
                    ]
                ], 
                [
                    3836, 
                    [
                        {
                            "pitch": 38, 
                            "t0": 3836, 
                            "v": 73, 
                            "dur": 63, 
                            "type": "note", 
                            "channel": 0
                        }
                    ]
                ], 
                [
                    3913, 
                    [
                        {
                            "pitch": 38, 
                            "t0": 3913, 
                            "v": 74, 
                            "dur": 28, 
                            "type": "note", 
                            "channel": 0
                        }
                    ]
                ], 
                [
                    3951, 
                    [
                        {
                            "pitch": 40, 
                            "t0": 3951, 
                            "v": 88, 
                            "dur": 78, 
                            "type": "note", 
                            "channel": 0
                        }
                    ]
                ], 
                [
                    4039, 
                    [
                        {
                            "pitch": 40, 
                            "t0": 4039, 
                            "v": 57, 
                            "dur": 30, 
                            "type": "note", 
                            "channel": 0
                        }
                    ]
                ], 
                [
                    4079, 
                    [
                        {
                            "pitch": 41, 
                            "t0": 4079, 
                            "v": 91, 
                            "dur": 64, 
                            "type": "note", 
                            "channel": 0
                        }
                    ]
                ], 
                [
                    4156, 
                    [
                        {
                            "pitch": 41, 
                            "t0": 4156, 
                            "v": 75, 
                            "dur": 29, 
                            "type": "note", 
                            "channel": 0
                        }
                    ]
                ], 
                [
                    4195, 
                    [
                        {
                            "pitch": 42, 
                            "t0": 4195, 
                            "v": 89, 
                            "dur": 59, 
                            "type": "note", 
                            "channel": 0
                        }
                    ]
                ], 
                [
                    4276, 
                    [
                        {
                            "pitch": 43, 
                            "t0": 4276, 
                            "v": 62, 
                            "dur": 31, 
                            "type": "note", 
                            "channel": 0
                        }
                    ]
                ], 
                [
                    4313, 
                    [
                        {
                            "pitch": 31, 
                            "t0": 4313, 
                            "v": 87, 
                            "dur": 123, 
                            "type": "note", 
                            "channel": 0
                        }
                    ]
                ], 
                [
                    4449, 
                    [
                        {
                            "pitch": 35, 
                            "t0": 4449, 
                            "v": 83, 
                            "dur": 100, 
                            "type": "note", 
                            "channel": 0
                        }
                    ]
                ], 
                [
                    4560, 
                    [
                        {
                            "pitch": 38, 
                            "t0": 4560, 
                            "v": 83, 
                            "dur": 112, 
                            "type": "note", 
                            "channel": 0
                        }
                    ]
                ], 
                [
                    4683, 
                    [
                        {
                            "pitch": 35, 
                            "t0": 4683, 
                            "v": 95, 
                            "dur": 101, 
                            "type": "note", 
                            "channel": 0
                        }
                    ]
                ], 
                [
                    4799, 
                    [
                        {
                            "pitch": 36, 
                            "t0": 4799, 
                            "v": 88, 
                            "dur": 110, 
                            "type": "note", 
                            "channel": 0
                        }
                    ]
                ], 
                [
                    4918, 
                    [
                        {
                            "pitch": 40, 
                            "t0": 4918, 
                            "v": 74, 
                            "dur": 112, 
                            "type": "note", 
                            "channel": 0
                        }
                    ]
                ], 
                [
                    5040, 
                    [
                        {
                            "pitch": 43, 
                            "t0": 5040, 
                            "v": 80, 
                            "dur": 118, 
                            "type": "note", 
                            "channel": 0
                        }
                    ]
                ], 
                [
                    5161, 
                    [
                        {
                            "pitch": 40, 
                            "t0": 5161, 
                            "v": 80, 
                            "dur": 66, 
                            "type": "note", 
                            "channel": 0
                        }
                    ]
                ], 
                [
                    5244, 
                    [
                        {
                            "pitch": 43, 
                            "t0": 5244, 
                            "v": 70, 
                            "dur": 27, 
                            "type": "note", 
                            "channel": 0
                        }
                    ]
                ], 
                [
                    5276, 
                    [
                        {
                            "pitch": 31, 
                            "t0": 5276, 
                            "v": 106, 
                            "dur": 108, 
                            "type": "note", 
                            "channel": 0
                        }
                    ]
                ], 
                [
                    5397, 
                    [
                        {
                            "pitch": 33, 
                            "t0": 5397, 
                            "v": 100, 
                            "dur": 107, 
                            "type": "note", 
                            "channel": 0
                        }
                    ]
                ], 
                [
                    5518, 
                    [
                        {
                            "pitch": 34, 
                            "t0": 5518, 
                            "v": 93, 
                            "dur": 103, 
                            "type": "note", 
                            "channel": 0
                        }
                    ]
                ], 
                [
                    5633, 
                    [
                        {
                            "pitch": 35, 
                            "t0": 5633, 
                            "v": 92, 
                            "dur": 109, 
                            "type": "note", 
                            "channel": 0
                        }
                    ]
                ], 
                [
                    5756, 
                    [
                        {
                            "pitch": 36, 
                            "t0": 5756, 
                            "v": 94, 
                            "dur": 113, 
                            "type": "note", 
                            "channel": 0
                        }
                    ]
                ], 
                [
                    5884, 
                    [
                        {
                            "pitch": 45, 
                            "t0": 5884, 
                            "v": 68, 
                            "dur": 91, 
                            "type": "note", 
                            "channel": 0
                        }
                    ]
                ], 
                [
                    5999, 
                    [
                        {
                            "pitch": 43, 
                            "t0": 5999, 
                            "v": 100, 
                            "dur": 109, 
                            "type": "note", 
                            "channel": 0
                        }
                    ]
                ], 
                [
                    6124, 
                    [
                        {
                            "pitch": 40, 
                            "t0": 6124, 
                            "v": 80, 
                            "dur": 37, 
                            "type": "note", 
                            "channel": 0
                        }
                    ]
                ], 
                [
                    6173, 
                    [
                        {
                            "pitch": 38, 
                            "t0": 6173, 
                            "v": 80, 
                            "dur": 34, 
                            "type": "note", 
                            "channel": 0
                        }
                    ]
                ], 
                [
                    6210, 
                    [
                        {
                            "pitch": 35, 
                            "t0": 6210, 
                            "v": 66, 
                            "dur": 19, 
                            "type": "note", 
                            "channel": 0
                        }
                    ]
                ], 
                [
                    6236, 
                    [
                        {
                            "pitch": 31, 
                            "t0": 6236, 
                            "v": 97, 
                            "dur": 114, 
                            "type": "note", 
                            "channel": 0
                        }
                    ]
                ], 
                [
                    6361, 
                    [
                        {
                            "pitch": 35, 
                            "t0": 6361, 
                            "v": 90, 
                            "dur": 107, 
                            "type": "note", 
                            "channel": 0
                        }
                    ]
                ], 
                [
                    6477, 
                    [
                        {
                            "pitch": 36, 
                            "t0": 6477, 
                            "v": 92, 
                            "dur": 65, 
                            "type": "note", 
                            "channel": 0
                        }
                    ]
                ], 
                [
                    6559, 
                    [
                        {
                            "pitch": 36, 
                            "t0": 6559, 
                            "v": 73, 
                            "dur": 31, 
                            "type": "note", 
                            "channel": 0
                        }
                    ]
                ], 
                [
                    6600, 
                    [
                        {
                            "pitch": 37, 
                            "t0": 6600, 
                            "v": 81, 
                            "dur": 59, 
                            "type": "note", 
                            "channel": 0
                        }
                    ]
                ], 
                [
                    6675, 
                    [
                        {
                            "pitch": 37, 
                            "t0": 6675, 
                            "v": 70, 
                            "dur": 34, 
                            "type": "note", 
                            "channel": 0
                        }
                    ]
                ], 
                [
                    6715, 
                    [
                        {
                            "pitch": 38, 
                            "t0": 6715, 
                            "v": 94, 
                            "dur": 66, 
                            "type": "note", 
                            "channel": 0
                        }
                    ]
                ], 
                [
                    6795, 
                    [
                        {
                            "pitch": 38, 
                            "t0": 6795, 
                            "v": 76, 
                            "dur": 27, 
                            "type": "note", 
                            "channel": 0
                        }
                    ]
                ], 
                [
                    6833, 
                    [
                        {
                            "pitch": 36, 
                            "t0": 6833, 
                            "v": 90, 
                            "dur": 71, 
                            "type": "note", 
                            "channel": 0
                        }
                    ]
                ], 
                [
                    6914, 
                    [
                        {
                            "pitch": 36, 
                            "t0": 6914, 
                            "v": 76, 
                            "dur": 25, 
                            "type": "note", 
                            "channel": 0
                        }
                    ]
                ], 
                [
                    6950, 
                    [
                        {
                            "pitch": 35, 
                            "t0": 6950, 
                            "v": 91, 
                            "dur": 72, 
                            "type": "note", 
                            "channel": 0
                        }
                    ]
                ], 
                [
                    7036, 
                    [
                        {
                            "pitch": 35, 
                            "t0": 7036, 
                            "v": 73, 
                            "dur": 27, 
                            "type": "note", 
                            "channel": 0
                        }
                    ]
                ], 
                [
                    7074, 
                    [
                        {
                            "pitch": 35, 
                            "t0": 7074, 
                            "v": 54, 
                            "dur": 11, 
                            "type": "note", 
                            "channel": 0
                        }, 
                        {
                            "pitch": 33, 
                            "t0": 7074, 
                            "v": 98, 
                            "dur": 63, 
                            "type": "note", 
                            "channel": 0
                        }
                    ]
                ], 
                [
                    7150, 
                    [
                        {
                            "pitch": 33, 
                            "t0": 7150, 
                            "v": 72, 
                            "dur": 29, 
                            "type": "note", 
                            "channel": 0
                        }
                    ]
                ], 
                [
                    7191, 
                    [
                        {
                            "pitch": 31, 
                            "t0": 7191, 
                            "v": 95, 
                            "dur": 117, 
                            "type": "note", 
                            "channel": 0
                        }
                    ]
                ], 
                [
                    7315, 
                    [
                        {
                            "pitch": 43, 
                            "t0": 7315, 
                            "v": 85, 
                            "dur": 112, 
                            "type": "note", 
                            "channel": 0
                        }
                    ]
                ], 
                [
                    7433, 
                    [
                        {
                            "pitch": 40, 
                            "t0": 7433, 
                            "v": 73, 
                            "dur": 61, 
                            "type": "note", 
                            "channel": 0
                        }
                    ]
                ], 
                [
                    7506, 
                    [
                        {
                            "pitch": 38, 
                            "t0": 7506, 
                            "v": 78, 
                            "dur": 37, 
                            "type": "note", 
                            "channel": 0
                        }
                    ]
                ], 
                [
                    7552, 
                    [
                        {
                            "pitch": 35, 
                            "t0": 7552, 
                            "v": 98, 
                            "dur": 115, 
                            "type": "note", 
                            "channel": 0
                        }
                    ]
                ], 
                [
                    7681, 
                    [
                        {
                            "pitch": 31, 
                            "t0": 7681, 
                            "v": 125, 
                            "dur": 45, 
                            "type": "note", 
                            "channel": 0
                        }
                    ]
                ], 
                [
                    8157, 
                    [
                        {
                            "pitch": 36, 
                            "t0": 8157, 
                            "v": 92, 
                            "dur": 188, 
                            "type": "note", 
                            "channel": 0
                        }
                    ]
                ], 
                [
                    8366, 
                    [
                        {
                            "pitch": 36, 
                            "t0": 8366, 
                            "v": 66, 
                            "dur": 21, 
                            "type": "note", 
                            "channel": 0
                        }
                    ]
                ], 
                [
                    8405, 
                    [
                        {
                            "pitch": 31, 
                            "t0": 8405, 
                            "v": 78, 
                            "dur": 171, 
                            "type": "note", 
                            "channel": 0
                        }
                    ]
                ], 
                [
                    8594, 
                    [
                        {
                            "pitch": 31, 
                            "t0": 8594, 
                            "v": 73, 
                            "dur": 30, 
                            "type": "note", 
                            "channel": 0
                        }
                    ]
                ], 
                [
                    8636, 
                    [
                        {
                            "pitch": 36, 
                            "t0": 8636, 
                            "v": 63, 
                            "dur": 113, 
                            "type": "note", 
                            "channel": 0
                        }
                    ]
                ], 
                [
                    8760, 
                    [
                        {
                            "pitch": 28, 
                            "t0": 8760, 
                            "v": 81, 
                            "dur": 116, 
                            "type": "note", 
                            "channel": 0
                        }
                    ]
                ], 
                [
                    8889, 
                    [
                        {
                            "pitch": 29, 
                            "t0": 8889, 
                            "v": 69, 
                            "dur": 104, 
                            "type": "note", 
                            "channel": 0
                        }
                    ]
                ], 
                [
                    9003, 
                    [
                        {
                            "pitch": 30, 
                            "t0": 9003, 
                            "v": 73, 
                            "dur": 101, 
                            "type": "note", 
                            "channel": 0
                        }
                    ]
                ], 
                [
                    9122, 
                    [
                        {
                            "pitch": 31, 
                            "t0": 9122, 
                            "v": 85, 
                            "dur": 176, 
                            "type": "note", 
                            "channel": 0
                        }
                    ]
                ], 
                [
                    9320, 
                    [
                        {
                            "pitch": 31, 
                            "t0": 9320, 
                            "v": 70, 
                            "dur": 25, 
                            "type": "note", 
                            "channel": 0
                        }
                    ]
                ], 
                [
                    9355, 
                    [
                        {
                            "pitch": 38, 
                            "t0": 9355, 
                            "v": 80, 
                            "dur": 231, 
                            "type": "note", 
                            "channel": 0
                        }
                    ]
                ], 
                [
                    9600, 
                    [
                        {
                            "pitch": 31, 
                            "t0": 9600, 
                            "v": 87, 
                            "dur": 224, 
                            "type": "note", 
                            "channel": 0
                        }
                    ]
                ], 
                [
                    9847, 
                    [
                        {
                            "pitch": 31, 
                            "t0": 9847, 
                            "v": 88, 
                            "dur": 67, 
                            "type": "note", 
                            "channel": 0
                        }
                    ]
                ], 
                [
                    9918, 
                    [
                        {
                            "pitch": 43, 
                            "t0": 9918, 
                            "v": 62, 
                            "dur": 26, 
                            "type": "note", 
                            "channel": 0
                        }
                    ]
                ], 
                [
                    9955, 
                    [
                        {
                            "pitch": 32, 
                            "t0": 9955, 
                            "v": 84, 
                            "dur": 80, 
                            "type": "note", 
                            "channel": 0
                        }
                    ]
                ], 
                [
                    10039, 
                    [
                        {
                            "pitch": 44, 
                            "t0": 10039, 
                            "v": 58, 
                            "dur": 28, 
                            "type": "note", 
                            "channel": 0
                        }
                    ]
                ], 
                [
                    10079, 
                    [
                        {
                            "pitch": 33, 
                            "t0": 10079, 
                            "v": 95, 
                            "dur": 227, 
                            "type": "note", 
                            "channel": 0
                        }
                    ]
                ], 
                [
                    10319, 
                    [
                        {
                            "pitch": 40, 
                            "t0": 10319, 
                            "v": 80, 
                            "dur": 234, 
                            "type": "note", 
                            "channel": 0
                        }
                    ]
                ], 
                [
                    10559, 
                    [
                        {
                            "pitch": 45, 
                            "t0": 10559, 
                            "v": 81, 
                            "dur": 229, 
                            "type": "note", 
                            "channel": 0
                        }
                    ]
                ], 
                [
                    10797, 
                    [
                        {
                            "pitch": 40, 
                            "t0": 10797, 
                            "v": 78, 
                            "dur": 218, 
                            "type": "note", 
                            "channel": 0
                        }
                    ]
                ], 
                [
                    11049, 
                    [
                        {
                            "pitch": 38, 
                            "t0": 11049, 
                            "v": 92, 
                            "dur": 110, 
                            "type": "note", 
                            "channel": 0
                        }
                    ]
                ], 
                [
                    11163, 
                    [
                        {
                            "pitch": 50, 
                            "t0": 11163, 
                            "v": 64, 
                            "dur": 114, 
                            "type": "note", 
                            "channel": 0
                        }
                    ]
                ], 
                [
                    11282, 
                    [
                        {
                            "pitch": 47, 
                            "t0": 11282, 
                            "v": 81, 
                            "dur": 69, 
                            "type": "note", 
                            "channel": 0
                        }
                    ]
                ], 
                [
                    11365, 
                    [
                        {
                            "pitch": 45, 
                            "t0": 11365, 
                            "v": 73, 
                            "dur": 33, 
                            "type": "note", 
                            "channel": 0
                        }
                    ]
                ], 
                [
                    11406, 
                    [
                        {
                            "pitch": 42, 
                            "t0": 11406, 
                            "v": 75, 
                            "dur": 99, 
                            "type": "note", 
                            "channel": 0
                        }
                    ]
                ], 
                [
                    11522, 
                    [
                        {
                            "pitch": 38, 
                            "t0": 11522, 
                            "v": 80, 
                            "dur": 194, 
                            "type": "note", 
                            "channel": 0
                        }
                    ]
                ], 
                [
                    11716, 
                    [
                        {
                            "pitch": 50, 
                            "t0": 11716, 
                            "v": 73, 
                            "dur": 22, 
                            "type": "note", 
                            "channel": 0
                        }
                    ]
                ], 
                [
                    11752, 
                    [
                        {
                            "pitch": 38, 
                            "t0": 11752, 
                            "v": 97, 
                            "dur": 51, 
                            "type": "note", 
                            "channel": 0
                        }
                    ]
                ], 
                [
                    11874, 
                    [
                        {
                            "pitch": 37, 
                            "t0": 11874, 
                            "v": 77, 
                            "dur": 53, 
                            "type": "note", 
                            "channel": 0
                        }
                    ]
                ], 
                [
                    11998, 
                    [
                        {
                            "pitch": 36, 
                            "t0": 11998, 
                            "v": 75, 
                            "dur": 234, 
                            "type": "note", 
                            "channel": 0
                        }
                    ]
                ], 
                [
                    12248, 
                    [
                        {
                            "pitch": 31, 
                            "t0": 12248, 
                            "v": 88, 
                            "dur": 229, 
                            "type": "note", 
                            "channel": 0
                        }
                    ]
                ], 
                [
                    12476, 
                    [
                        {
                            "pitch": 36, 
                            "t0": 12476, 
                            "v": 65, 
                            "dur": 61, 
                            "type": "note", 
                            "channel": 0
                        }
                    ]
                ], 
                [
                    12547, 
                    [
                        {
                            "pitch": 28, 
                            "t0": 12547, 
                            "v": 91, 
                            "dur": 159, 
                            "type": "note", 
                            "channel": 0
                        }
                    ]
                ], 
                [
                    12719, 
                    [
                        {
                            "pitch": 29, 
                            "t0": 12719, 
                            "v": 83, 
                            "dur": 110, 
                            "type": "note", 
                            "channel": 0
                        }
                    ]
                ], 
                [
                    12840, 
                    [
                        {
                            "pitch": 30, 
                            "t0": 12840, 
                            "v": 78, 
                            "dur": 104, 
                            "type": "note", 
                            "channel": 0
                        }
                    ]
                ], 
                [
                    12960, 
                    [
                        {
                            "pitch": 31, 
                            "t0": 12960, 
                            "v": 90, 
                            "dur": 225, 
                            "type": "note", 
                            "channel": 0
                        }
                    ]
                ], 
                [
                    13200, 
                    [
                        {
                            "pitch": 38, 
                            "t0": 13200, 
                            "v": 77, 
                            "dur": 109, 
                            "type": "note", 
                            "channel": 0
                        }
                    ]
                ], 
                [
                    13323, 
                    [
                        {
                            "pitch": 37, 
                            "t0": 13323, 
                            "v": 54, 
                            "dur": 97, 
                            "type": "note", 
                            "channel": 0
                        }
                    ]
                ], 
                [
                    13441, 
                    [
                        {
                            "pitch": 36, 
                            "t0": 13441, 
                            "v": 84, 
                            "dur": 219, 
                            "type": "note", 
                            "channel": 0
                        }
                    ]
                ], 
                [
                    13671, 
                    [
                        {
                            "pitch": 40, 
                            "t0": 13671, 
                            "v": 72, 
                            "dur": 234, 
                            "type": "note", 
                            "channel": 0
                        }
                    ]
                ], 
                [
                    13915, 
                    [
                        {
                            "pitch": 43, 
                            "t0": 13915, 
                            "v": 81, 
                            "dur": 240, 
                            "type": "note", 
                            "channel": 0
                        }
                    ]
                ], 
                [
                    14158, 
                    [
                        {
                            "pitch": 35, 
                            "t0": 14158, 
                            "v": 78, 
                            "dur": 107, 
                            "type": "note", 
                            "channel": 0
                        }
                    ]
                ], 
                [
                    14282, 
                    [
                        {
                            "pitch": 36, 
                            "t0": 14282, 
                            "v": 74, 
                            "dur": 111, 
                            "type": "note", 
                            "channel": 0
                        }
                    ]
                ], 
                [
                    14400, 
                    [
                        {
                            "pitch": 38, 
                            "t0": 14400, 
                            "v": 83, 
                            "dur": 232, 
                            "type": "note", 
                            "channel": 0
                        }
                    ]
                ], 
                [
                    14639, 
                    [
                        {
                            "pitch": 33, 
                            "t0": 14639, 
                            "v": 94, 
                            "dur": 221, 
                            "type": "note", 
                            "channel": 0
                        }
                    ]
                ], 
                [
                    14885, 
                    [
                        {
                            "pitch": 31, 
                            "t0": 14885, 
                            "v": 92, 
                            "dur": 111, 
                            "type": "note", 
                            "channel": 0
                        }
                    ]
                ], 
                [
                    15003, 
                    [
                        {
                            "pitch": 43, 
                            "t0": 15003, 
                            "v": 87, 
                            "dur": 121, 
                            "type": "note", 
                            "channel": 0
                        }
                    ]
                ], 
                [
                    15127, 
                    [
                        {
                            "pitch": 40, 
                            "t0": 15127, 
                            "v": 85, 
                            "dur": 65, 
                            "type": "note", 
                            "channel": 0
                        }
                    ]
                ], 
                [
                    15203, 
                    [
                        {
                            "pitch": 38, 
                            "t0": 15203, 
                            "v": 84, 
                            "dur": 30, 
                            "type": "note", 
                            "channel": 0
                        }
                    ]
                ], 
                [
                    15240, 
                    [
                        {
                            "pitch": 35, 
                            "t0": 15240, 
                            "v": 104, 
                            "dur": 108, 
                            "type": "note", 
                            "channel": 0
                        }
                    ]
                ], 
                [
                    15366, 
                    [
                        {
                            "pitch": 31, 
                            "t0": 15366, 
                            "v": 122, 
                            "dur": 45, 
                            "type": "note", 
                            "channel": 0
                        }
                    ]
                ], 
                [
                    15844, 
                    [
                        {
                            "pitch": 31, 
                            "t0": 15844, 
                            "v": 91, 
                            "dur": 66, 
                            "type": "note", 
                            "channel": 0
                        }
                    ]
                ], 
                [
                    15918, 
                    [
                        {
                            "pitch": 43, 
                            "t0": 15918, 
                            "v": 59, 
                            "dur": 22, 
                            "type": "note", 
                            "channel": 0
                        }
                    ]
                ], 
                [
                    15953, 
                    [
                        {
                            "pitch": 33, 
                            "t0": 15953, 
                            "v": 84, 
                            "dur": 82, 
                            "type": "note", 
                            "channel": 0
                        }
                    ]
                ], 
                [
                    16035, 
                    [
                        {
                            "pitch": 45, 
                            "t0": 16035, 
                            "v": 55, 
                            "dur": 29, 
                            "type": "note", 
                            "channel": 0
                        }
                    ]
                ], 
                [
                    16073, 
                    [
                        {
                            "pitch": 34, 
                            "t0": 16073, 
                            "v": 97, 
                            "dur": 85, 
                            "type": "note", 
                            "channel": 0
                        }
                    ]
                ], 
                [
                    16157, 
                    [
                        {
                            "pitch": 46, 
                            "t0": 16157, 
                            "v": 58, 
                            "dur": 30, 
                            "type": "note", 
                            "channel": 0
                        }
                    ]
                ], 
                [
                    16193, 
                    [
                        {
                            "pitch": 35, 
                            "t0": 16193, 
                            "v": 95, 
                            "dur": 80, 
                            "type": "note", 
                            "channel": 0
                        }
                    ]
                ], 
                [
                    16283, 
                    [
                        {
                            "pitch": 47, 
                            "t0": 16283, 
                            "v": 61, 
                            "dur": 34, 
                            "type": "note", 
                            "channel": 0
                        }
                    ]
                ], 
                [
                    16321, 
                    [
                        {
                            "pitch": 36, 
                            "t0": 16321, 
                            "v": 84, 
                            "dur": 79, 
                            "type": "note", 
                            "channel": 0
                        }
                    ]
                ], 
                [
                    16402, 
                    [
                        {
                            "pitch": 48, 
                            "t0": 16402, 
                            "v": 68, 
                            "dur": 27, 
                            "type": "note", 
                            "channel": 0
                        }
                    ]
                ], 
                [
                    16438, 
                    [
                        {
                            "pitch": 40, 
                            "t0": 16438, 
                            "v": 91, 
                            "dur": 74, 
                            "type": "note", 
                            "channel": 0
                        }
                    ]
                ], 
                [
                    16517, 
                    [
                        {
                            "pitch": 40, 
                            "t0": 16517, 
                            "v": 51, 
                            "dur": 26, 
                            "type": "note", 
                            "channel": 0
                        }
                    ]
                ], 
                [
                    16554, 
                    [
                        {
                            "pitch": 41, 
                            "t0": 16554, 
                            "v": 88, 
                            "dur": 140, 
                            "type": "note", 
                            "channel": 0
                        }
                    ]
                ], 
                [
                    16675, 
                    [
                        {
                            "pitch": 42, 
                            "t0": 16675, 
                            "v": 77, 
                            "dur": 118, 
                            "type": "note", 
                            "channel": 0
                        }
                    ]
                ], 
                [
                    16796, 
                    [
                        {
                            "pitch": 43, 
                            "t0": 16796, 
                            "v": 95, 
                            "dur": 66, 
                            "type": "note", 
                            "channel": 0
                        }
                    ]
                ], 
                [
                    16877, 
                    [
                        {
                            "pitch": 43, 
                            "t0": 16877, 
                            "v": 80, 
                            "dur": 28, 
                            "type": "note", 
                            "channel": 0
                        }
                    ]
                ], 
                [
                    16911, 
                    [
                        {
                            "pitch": 40, 
                            "t0": 16911, 
                            "v": 85, 
                            "dur": 66, 
                            "type": "note", 
                            "channel": 0
                        }
                    ]
                ], 
                [
                    16989, 
                    [
                        {
                            "pitch": 40, 
                            "t0": 16989, 
                            "v": 81, 
                            "dur": 25, 
                            "type": "note", 
                            "channel": 0
                        }
                    ]
                ], 
                [
                    17025, 
                    [
                        {
                            "pitch": 38, 
                            "t0": 17025, 
                            "v": 92, 
                            "dur": 61, 
                            "type": "note", 
                            "channel": 0
                        }
                    ]
                ], 
                [
                    17102, 
                    [
                        {
                            "pitch": 38, 
                            "t0": 17102, 
                            "v": 51, 
                            "dur": 38, 
                            "type": "note", 
                            "channel": 0
                        }
                    ]
                ], 
                [
                    17148, 
                    [
                        {
                            "pitch": 35, 
                            "t0": 17148, 
                            "v": 92, 
                            "dur": 111, 
                            "type": "note", 
                            "channel": 0
                        }
                    ]
                ], 
                [
                    17234, 
                    [
                        {
                            "pitch": 38, 
                            "t0": 17234, 
                            "v": 70, 
                            "dur": 24, 
                            "type": "note", 
                            "channel": 0
                        }
                    ]
                ], 
                [
                    17272, 
                    [
                        {
                            "pitch": 31, 
                            "t0": 17272, 
                            "v": 97, 
                            "dur": 111, 
                            "type": "note", 
                            "channel": 0
                        }
                    ]
                ], 
                [
                    17397, 
                    [
                        {
                            "pitch": 28, 
                            "t0": 17397, 
                            "v": 110, 
                            "dur": 74, 
                            "type": "note", 
                            "channel": 0
                        }
                    ]
                ], 
                [
                    17472, 
                    [
                        {
                            "pitch": 40, 
                            "t0": 17472, 
                            "v": 59, 
                            "dur": 26, 
                            "type": "note", 
                            "channel": 0
                        }
                    ]
                ], 
                [
                    17512, 
                    [
                        {
                            "pitch": 29, 
                            "t0": 17512, 
                            "v": 114, 
                            "dur": 77, 
                            "type": "note", 
                            "channel": 0
                        }
                    ]
                ], 
                [
                    17596, 
                    [
                        {
                            "pitch": 41, 
                            "t0": 17596, 
                            "v": 79, 
                            "dur": 35, 
                            "type": "note", 
                            "channel": 0
                        }
                    ]
                ], 
                [
                    17638, 
                    [
                        {
                            "pitch": 30, 
                            "t0": 17638, 
                            "v": 104, 
                            "dur": 80, 
                            "type": "note", 
                            "channel": 0
                        }
                    ]
                ], 
                [
                    17719, 
                    [
                        {
                            "pitch": 42, 
                            "t0": 17719, 
                            "v": 87, 
                            "dur": 29, 
                            "type": "note", 
                            "channel": 0
                        }
                    ]
                ], 
                [
                    17758, 
                    [
                        {
                            "pitch": 31, 
                            "t0": 17758, 
                            "v": 98, 
                            "dur": 102, 
                            "type": "note", 
                            "channel": 0
                        }
                    ]
                ], 
                [
                    17877, 
                    [
                        {
                            "pitch": 43, 
                            "t0": 17877, 
                            "v": 80, 
                            "dur": 115, 
                            "type": "note", 
                            "channel": 0
                        }
                    ]
                ], 
                [
                    18002, 
                    [
                        {
                            "pitch": 40, 
                            "t0": 18002, 
                            "v": 87, 
                            "dur": 69, 
                            "type": "note", 
                            "channel": 0
                        }
                    ]
                ], 
                [
                    18083, 
                    [
                        {
                            "pitch": 38, 
                            "t0": 18083, 
                            "v": 84, 
                            "dur": 31, 
                            "type": "note", 
                            "channel": 0
                        }
                    ]
                ], 
                [
                    18123, 
                    [
                        {
                            "pitch": 35, 
                            "t0": 18123, 
                            "v": 104, 
                            "dur": 107, 
                            "type": "note", 
                            "channel": 0
                        }
                    ]
                ], 
                [
                    18245, 
                    [
                        {
                            "pitch": 31, 
                            "t0": 18245, 
                            "v": 97, 
                            "dur": 116, 
                            "type": "note", 
                            "channel": 0
                        }
                    ]
                ], 
                [
                    18362, 
                    [
                        {
                            "pitch": 43, 
                            "t0": 18362, 
                            "v": 80, 
                            "dur": 81, 
                            "type": "note", 
                            "channel": 0
                        }
                    ]
                ], 
                [
                    18443, 
                    [
                        {
                            "pitch": 35, 
                            "t0": 18443, 
                            "v": 85, 
                            "dur": 19, 
                            "type": "note", 
                            "channel": 0
                        }
                    ]
                ], 
                [
                    18480, 
                    [
                        {
                            "pitch": 35, 
                            "t0": 18480, 
                            "v": 102, 
                            "dur": 112, 
                            "type": "note", 
                            "channel": 0
                        }
                    ]
                ], 
                [
                    18604, 
                    [
                        {
                            "pitch": 36, 
                            "t0": 18604, 
                            "v": 92, 
                            "dur": 107, 
                            "type": "note", 
                            "channel": 0
                        }
                    ]
                ], 
                [
                    18722, 
                    [
                        {
                            "pitch": 38, 
                            "t0": 18722, 
                            "v": 86, 
                            "dur": 154, 
                            "type": "note", 
                            "channel": 0
                        }
                    ]
                ], 
                [
                    18861, 
                    [
                        {
                            "pitch": 42, 
                            "t0": 18861, 
                            "v": 75, 
                            "dur": 87, 
                            "type": "note", 
                            "channel": 0
                        }
                    ]
                ], 
                [
                    18960, 
                    [
                        {
                            "pitch": 45, 
                            "t0": 18960, 
                            "v": 84, 
                            "dur": 108, 
                            "type": "note", 
                            "channel": 0
                        }
                    ]
                ], 
                [
                    19083, 
                    [
                        {
                            "pitch": 42, 
                            "t0": 19083, 
                            "v": 82, 
                            "dur": 103, 
                            "type": "note", 
                            "channel": 0
                        }
                    ]
                ], 
                [
                    19199, 
                    [
                        {
                            "pitch": 38, 
                            "t0": 19199, 
                            "v": 95, 
                            "dur": 71, 
                            "type": "note", 
                            "channel": 0
                        }
                    ]
                ], 
                [
                    19279, 
                    [
                        {
                            "pitch": 38, 
                            "t0": 19279, 
                            "v": 66, 
                            "dur": 45, 
                            "type": "note", 
                            "channel": 0
                        }
                    ]
                ], 
                [
                    19317, 
                    [
                        {
                            "pitch": 40, 
                            "t0": 19317, 
                            "v": 94, 
                            "dur": 108, 
                            "type": "note", 
                            "channel": 0
                        }
                    ]
                ], 
                [
                    19439, 
                    [
                        {
                            "pitch": 41, 
                            "t0": 19439, 
                            "v": 94, 
                            "dur": 114, 
                            "type": "note", 
                            "channel": 0
                        }
                    ]
                ], 
                [
                    19558, 
                    [
                        {
                            "pitch": 42, 
                            "t0": 19558, 
                            "v": 87, 
                            "dur": 77, 
                            "type": "note", 
                            "channel": 0
                        }
                    ]
                ], 
                [
                    19646, 
                    [
                        {
                            "pitch": 43, 
                            "t0": 19646, 
                            "v": 61, 
                            "dur": 36, 
                            "type": "note", 
                            "channel": 0
                        }
                    ]
                ], 
                [
                    19682, 
                    [
                        {
                            "pitch": 31, 
                            "t0": 19682, 
                            "v": 98, 
                            "dur": 108, 
                            "type": "note", 
                            "channel": 0
                        }
                    ]
                ], 
                [
                    19804, 
                    [
                        {
                            "pitch": 35, 
                            "t0": 19804, 
                            "v": 97, 
                            "dur": 107, 
                            "type": "note", 
                            "channel": 0
                        }
                    ]
                ], 
                [
                    19922, 
                    [
                        {
                            "pitch": 38, 
                            "t0": 19922, 
                            "v": 92, 
                            "dur": 68, 
                            "type": "note", 
                            "channel": 0
                        }
                    ]
                ], 
                [
                    20005, 
                    [
                        {
                            "pitch": 38, 
                            "t0": 20005, 
                            "v": 80, 
                            "dur": 27, 
                            "type": "note", 
                            "channel": 0
                        }
                    ]
                ], 
                [
                    20038, 
                    [
                        {
                            "pitch": 35, 
                            "t0": 20038, 
                            "v": 95, 
                            "dur": 107, 
                            "type": "note", 
                            "channel": 0
                        }
                    ]
                ], 
                [
                    20159, 
                    [
                        {
                            "pitch": 36, 
                            "t0": 20159, 
                            "v": 94, 
                            "dur": 112, 
                            "type": "note", 
                            "channel": 0
                        }
                    ]
                ], 
                [
                    20284, 
                    [
                        {
                            "pitch": 40, 
                            "t0": 20284, 
                            "v": 98, 
                            "dur": 111, 
                            "type": "note", 
                            "channel": 0
                        }
                    ]
                ], 
                [
                    20406, 
                    [
                        {
                            "pitch": 43, 
                            "t0": 20406, 
                            "v": 94, 
                            "dur": 110, 
                            "type": "note", 
                            "channel": 0
                        }
                    ]
                ], 
                [
                    20519, 
                    [
                        {
                            "pitch": 40, 
                            "t0": 20519, 
                            "v": 81, 
                            "dur": 71, 
                            "type": "note", 
                            "channel": 0
                        }
                    ]
                ], 
                [
                    20605, 
                    [
                        {
                            "pitch": 43, 
                            "t0": 20605, 
                            "v": 72, 
                            "dur": 20, 
                            "type": "note", 
                            "channel": 0
                        }
                    ]
                ], 
                [
                    20636, 
                    [
                        {
                            "pitch": 31, 
                            "t0": 20636, 
                            "v": 110, 
                            "dur": 109, 
                            "type": "note", 
                            "channel": 0
                        }
                    ]
                ], 
                [
                    20759, 
                    [
                        {
                            "pitch": 33, 
                            "t0": 20759, 
                            "v": 94, 
                            "dur": 112, 
                            "type": "note", 
                            "channel": 0
                        }
                    ]
                ], 
                [
                    20881, 
                    [
                        {
                            "pitch": 34, 
                            "t0": 20881, 
                            "v": 97, 
                            "dur": 109, 
                            "type": "note", 
                            "channel": 0
                        }
                    ]
                ], 
                [
                    21002, 
                    [
                        {
                            "pitch": 35, 
                            "t0": 21002, 
                            "v": 104, 
                            "dur": 106, 
                            "type": "note", 
                            "channel": 0
                        }
                    ]
                ], 
                [
                    21121, 
                    [
                        {
                            "pitch": 36, 
                            "t0": 21121, 
                            "v": 92, 
                            "dur": 112, 
                            "type": "note", 
                            "channel": 0
                        }
                    ]
                ], 
                [
                    21244, 
                    [
                        {
                            "pitch": 47, 
                            "t0": 21244, 
                            "v": 88, 
                            "dur": 57, 
                            "type": "note", 
                            "channel": 0
                        }, 
                        {
                            "pitch": 45, 
                            "t0": 21244, 
                            "v": 73, 
                            "dur": 93, 
                            "type": "note", 
                            "channel": 0
                        }
                    ]
                ], 
                [
                    21364, 
                    [
                        {
                            "pitch": 43, 
                            "t0": 21364, 
                            "v": 106, 
                            "dur": 97, 
                            "type": "note", 
                            "channel": 0
                        }
                    ]
                ], 
                [
                    21472, 
                    [
                        {
                            "pitch": 40, 
                            "t0": 21472, 
                            "v": 84, 
                            "dur": 26, 
                            "type": "note", 
                            "channel": 0
                        }
                    ]
                ], 
                [
                    21516, 
                    [
                        {
                            "pitch": 38, 
                            "t0": 21516, 
                            "v": 88, 
                            "dur": 34, 
                            "type": "note", 
                            "channel": 0
                        }
                    ]
                ], 
                [
                    21547, 
                    [
                        {
                            "pitch": 35, 
                            "t0": 21547, 
                            "v": 81, 
                            "dur": 23, 
                            "type": "note", 
                            "channel": 0
                        }
                    ]
                ], 
                [
                    21585, 
                    [
                        {
                            "pitch": 31, 
                            "t0": 21585, 
                            "v": 97, 
                            "dur": 118, 
                            "type": "note", 
                            "channel": 0
                        }
                    ]
                ], 
                [
                    21716, 
                    [
                        {
                            "pitch": 35, 
                            "t0": 21716, 
                            "v": 92, 
                            "dur": 111, 
                            "type": "note", 
                            "channel": 0
                        }
                    ]
                ], 
                [
                    21838, 
                    [
                        {
                            "pitch": 36, 
                            "t0": 21838, 
                            "v": 95, 
                            "dur": 61, 
                            "type": "note", 
                            "channel": 0
                        }
                    ]
                ], 
                [
                    21915, 
                    [
                        {
                            "pitch": 36, 
                            "t0": 21915, 
                            "v": 65, 
                            "dur": 31, 
                            "type": "note", 
                            "channel": 0
                        }
                    ]
                ], 
                [
                    21957, 
                    [
                        {
                            "pitch": 37, 
                            "t0": 21957, 
                            "v": 79, 
                            "dur": 62, 
                            "type": "note", 
                            "channel": 0
                        }
                    ]
                ], 
                [
                    22032, 
                    [
                        {
                            "pitch": 37, 
                            "t0": 22032, 
                            "v": 66, 
                            "dur": 31, 
                            "type": "note", 
                            "channel": 0
                        }
                    ]
                ], 
                [
                    22075, 
                    [
                        {
                            "pitch": 38, 
                            "t0": 22075, 
                            "v": 84, 
                            "dur": 67, 
                            "type": "note", 
                            "channel": 0
                        }
                    ]
                ], 
                [
                    22156, 
                    [
                        {
                            "pitch": 38, 
                            "t0": 22156, 
                            "v": 73, 
                            "dur": 27, 
                            "type": "note", 
                            "channel": 0
                        }
                    ]
                ], 
                [
                    22194, 
                    [
                        {
                            "pitch": 36, 
                            "t0": 22194, 
                            "v": 86, 
                            "dur": 66, 
                            "type": "note", 
                            "channel": 0
                        }
                    ]
                ], 
                [
                    22274, 
                    [
                        {
                            "pitch": 36, 
                            "t0": 22274, 
                            "v": 68, 
                            "dur": 27, 
                            "type": "note", 
                            "channel": 0
                        }
                    ]
                ], 
                [
                    22312, 
                    [
                        {
                            "pitch": 35, 
                            "t0": 22312, 
                            "v": 88, 
                            "dur": 68, 
                            "type": "note", 
                            "channel": 0
                        }
                    ]
                ], 
                [
                    22395, 
                    [
                        {
                            "pitch": 35, 
                            "t0": 22395, 
                            "v": 78, 
                            "dur": 26, 
                            "type": "note", 
                            "channel": 0
                        }
                    ]
                ], 
                [
                    22433, 
                    [
                        {
                            "pitch": 33, 
                            "t0": 22433, 
                            "v": 97, 
                            "dur": 64, 
                            "type": "note", 
                            "channel": 0
                        }
                    ]
                ], 
                [
                    22512, 
                    [
                        {
                            "pitch": 33, 
                            "t0": 22512, 
                            "v": 80, 
                            "dur": 32, 
                            "type": "note", 
                            "channel": 0
                        }
                    ]
                ], 
                [
                    22555, 
                    [
                        {
                            "pitch": 31, 
                            "t0": 22555, 
                            "v": 97, 
                            "dur": 114, 
                            "type": "note", 
                            "channel": 0
                        }
                    ]
                ], 
                [
                    22681, 
                    [
                        {
                            "pitch": 43, 
                            "t0": 22681, 
                            "v": 86, 
                            "dur": 107, 
                            "type": "note", 
                            "channel": 0
                        }
                    ]
                ], 
                [
                    22802, 
                    [
                        {
                            "pitch": 40, 
                            "t0": 22802, 
                            "v": 83, 
                            "dur": 66, 
                            "type": "note", 
                            "channel": 0
                        }
                    ]
                ], 
                [
                    22889, 
                    [
                        {
                            "pitch": 38, 
                            "t0": 22889, 
                            "v": 76, 
                            "dur": 31, 
                            "type": "note", 
                            "channel": 0
                        }
                    ]
                ], 
                [
                    22920, 
                    [
                        {
                            "pitch": 35, 
                            "t0": 22920, 
                            "v": 97, 
                            "dur": 99, 
                            "type": "note", 
                            "channel": 0
                        }
                    ]
                ], 
                [
                    23038, 
                    [
                        {
                            "pitch": 31, 
                            "t0": 23038, 
                            "v": 125, 
                            "dur": 39, 
                            "type": "note", 
                            "channel": 0
                        }
                    ]
                ], 
                [
                    23518, 
                    [
                        {
                            "pitch": 36, 
                            "t0": 23518, 
                            "v": 102, 
                            "dur": 176, 
                            "type": "note", 
                            "channel": 0
                        }
                    ]
                ], 
                [
                    23715, 
                    [
                        {
                            "pitch": 36, 
                            "t0": 23715, 
                            "v": 68, 
                            "dur": 30, 
                            "type": "note", 
                            "channel": 0
                        }
                    ]
                ], 
                [
                    23759, 
                    [
                        {
                            "pitch": 31, 
                            "t0": 23759, 
                            "v": 98, 
                            "dur": 186, 
                            "type": "note", 
                            "channel": 0
                        }
                    ]
                ], 
                [
                    23964, 
                    [
                        {
                            "pitch": 31, 
                            "t0": 23964, 
                            "v": 84, 
                            "dur": 29, 
                            "type": "note", 
                            "channel": 0
                        }
                    ]
                ], 
                [
                    24008, 
                    [
                        {
                            "pitch": 36, 
                            "t0": 24008, 
                            "v": 81, 
                            "dur": 106, 
                            "type": "note", 
                            "channel": 0
                        }
                    ]
                ], 
                [
                    24121, 
                    [
                        {
                            "pitch": 28, 
                            "t0": 24121, 
                            "v": 94, 
                            "dur": 107, 
                            "type": "note", 
                            "channel": 0
                        }
                    ]
                ], 
                [
                    24241, 
                    [
                        {
                            "pitch": 29, 
                            "t0": 24241, 
                            "v": 83, 
                            "dur": 109, 
                            "type": "note", 
                            "channel": 0
                        }
                    ]
                ], 
                [
                    24364, 
                    [
                        {
                            "pitch": 30, 
                            "t0": 24364, 
                            "v": 85, 
                            "dur": 103, 
                            "type": "note", 
                            "channel": 0
                        }
                    ]
                ], 
                [
                    24484, 
                    [
                        {
                            "pitch": 31, 
                            "t0": 24484, 
                            "v": 88, 
                            "dur": 173, 
                            "type": "note", 
                            "channel": 0
                        }
                    ]
                ], 
                [
                    24677, 
                    [
                        {
                            "pitch": 31, 
                            "t0": 24677, 
                            "v": 70, 
                            "dur": 35, 
                            "type": "note", 
                            "channel": 0
                        }
                    ]
                ], 
                [
                    24718, 
                    [
                        {
                            "pitch": 38, 
                            "t0": 24718, 
                            "v": 75, 
                            "dur": 178, 
                            "type": "note", 
                            "channel": 0
                        }
                    ]
                ], 
                [
                    24920, 
                    [
                        {
                            "pitch": 38, 
                            "t0": 24920, 
                            "v": 70, 
                            "dur": 36, 
                            "type": "note", 
                            "channel": 0
                        }
                    ]
                ], 
                [
                    24963, 
                    [
                        {
                            "pitch": 31, 
                            "t0": 24963, 
                            "v": 87, 
                            "dur": 217, 
                            "type": "note", 
                            "channel": 0
                        }
                    ]
                ], 
                [
                    25202, 
                    [
                        {
                            "pitch": 31, 
                            "t0": 25202, 
                            "v": 102, 
                            "dur": 57, 
                            "type": "note", 
                            "channel": 0
                        }
                    ]
                ], 
                [
                    25322, 
                    [
                        {
                            "pitch": 32, 
                            "t0": 25322, 
                            "v": 79, 
                            "dur": 62, 
                            "type": "note", 
                            "channel": 0
                        }
                    ]
                ], 
                [
                    25436, 
                    [
                        {
                            "pitch": 33, 
                            "t0": 25436, 
                            "v": 83, 
                            "dur": 229, 
                            "type": "note", 
                            "channel": 0
                        }
                    ]
                ], 
                [
                    25674, 
                    [
                        {
                            "pitch": 40, 
                            "t0": 25674, 
                            "v": 81, 
                            "dur": 225, 
                            "type": "note", 
                            "channel": 0
                        }
                    ]
                ], 
                [
                    25914, 
                    [
                        {
                            "pitch": 33, 
                            "t0": 25914, 
                            "v": 77, 
                            "dur": 182, 
                            "type": "note", 
                            "channel": 0
                        }
                    ]
                ], 
                [
                    26112, 
                    [
                        {
                            "pitch": 33, 
                            "t0": 26112, 
                            "v": 80, 
                            "dur": 24, 
                            "type": "note", 
                            "channel": 0
                        }
                    ]
                ], 
                [
                    26149, 
                    [
                        {
                            "pitch": 40, 
                            "t0": 26149, 
                            "v": 88, 
                            "dur": 117, 
                            "type": "note", 
                            "channel": 0
                        }
                    ]
                ], 
                [
                    26278, 
                    [
                        {
                            "pitch": 39, 
                            "t0": 26278, 
                            "v": 73, 
                            "dur": 104, 
                            "type": "note", 
                            "channel": 0
                        }
                    ]
                ], 
                [
                    26398, 
                    [
                        {
                            "pitch": 38, 
                            "t0": 26398, 
                            "v": 88, 
                            "dur": 111, 
                            "type": "note", 
                            "channel": 0
                        }
                    ]
                ], 
                [
                    26523, 
                    [
                        {
                            "pitch": 50, 
                            "t0": 26523, 
                            "v": 75, 
                            "dur": 112, 
                            "type": "note", 
                            "channel": 0
                        }
                    ]
                ], 
                [
                    26644, 
                    [
                        {
                            "pitch": 47, 
                            "t0": 26644, 
                            "v": 85, 
                            "dur": 59, 
                            "type": "note", 
                            "channel": 0
                        }
                    ]
                ], 
                [
                    26720, 
                    [
                        {
                            "pitch": 45, 
                            "t0": 26720, 
                            "v": 79, 
                            "dur": 31, 
                            "type": "note", 
                            "channel": 0
                        }
                    ]
                ], 
                [
                    26758, 
                    [
                        {
                            "pitch": 42, 
                            "t0": 26758, 
                            "v": 78, 
                            "dur": 85, 
                            "type": "note", 
                            "channel": 0
                        }
                    ]
                ], 
                [
                    26880, 
                    [
                        {
                            "pitch": 38, 
                            "t0": 26880, 
                            "v": 92, 
                            "dur": 119, 
                            "type": "note", 
                            "channel": 0
                        }
                    ]
                ], 
                [
                    27004, 
                    [
                        {
                            "pitch": 38, 
                            "t0": 27004, 
                            "v": 66, 
                            "dur": 79, 
                            "type": "note", 
                            "channel": 0
                        }
                    ]
                ], 
                [
                    27083, 
                    [
                        {
                            "pitch": 33, 
                            "t0": 27083, 
                            "v": 104, 
                            "dur": 26, 
                            "type": "note", 
                            "channel": 0
                        }
                    ]
                ], 
                [
                    27120, 
                    [
                        {
                            "pitch": 38, 
                            "t0": 27120, 
                            "v": 108, 
                            "dur": 52, 
                            "type": "note", 
                            "channel": 0
                        }
                    ]
                ], 
                [
                    27244, 
                    [
                        {
                            "pitch": 37, 
                            "t0": 27244, 
                            "v": 93, 
                            "dur": 52, 
                            "type": "note", 
                            "channel": 0
                        }
                    ]
                ], 
                [
                    27358, 
                    [
                        {
                            "pitch": 36, 
                            "t0": 27358, 
                            "v": 100, 
                            "dur": 241, 
                            "type": "note", 
                            "channel": 0
                        }
                    ]
                ], 
                [
                    27608, 
                    [
                        {
                            "pitch": 31, 
                            "t0": 27608, 
                            "v": 86, 
                            "dur": 188, 
                            "type": "note", 
                            "channel": 0
                        }
                    ]
                ], 
                [
                    27810, 
                    [
                        {
                            "pitch": 31, 
                            "t0": 27810, 
                            "v": 73, 
                            "dur": 26, 
                            "type": "note", 
                            "channel": 0
                        }
                    ]
                ], 
                [
                    27848, 
                    [
                        {
                            "pitch": 36, 
                            "t0": 27848, 
                            "v": 84, 
                            "dur": 57, 
                            "type": "note", 
                            "channel": 0
                        }
                    ]
                ], 
                [
                    27915, 
                    [
                        {
                            "pitch": 28, 
                            "t0": 27915, 
                            "v": 98, 
                            "dur": 153, 
                            "type": "note", 
                            "channel": 0
                        }
                    ]
                ], 
                [
                    28081, 
                    [
                        {
                            "pitch": 29, 
                            "t0": 28081, 
                            "v": 97, 
                            "dur": 108, 
                            "type": "note", 
                            "channel": 0
                        }
                    ]
                ], 
                [
                    28201, 
                    [
                        {
                            "pitch": 30, 
                            "t0": 28201, 
                            "v": 97, 
                            "dur": 102, 
                            "type": "note", 
                            "channel": 0
                        }
                    ]
                ], 
                [
                    28321, 
                    [
                        {
                            "pitch": 31, 
                            "t0": 28321, 
                            "v": 102, 
                            "dur": 229, 
                            "type": "note", 
                            "channel": 0
                        }
                    ]
                ], 
                [
                    28561, 
                    [
                        {
                            "pitch": 33, 
                            "t0": 28561, 
                            "v": 97, 
                            "dur": 103, 
                            "type": "note", 
                            "channel": 0
                        }
                    ]
                ], 
                [
                    28681, 
                    [
                        {
                            "pitch": 35, 
                            "t0": 28681, 
                            "v": 91, 
                            "dur": 109, 
                            "type": "note", 
                            "channel": 0
                        }
                    ]
                ], 
                [
                    28801, 
                    [
                        {
                            "pitch": 36, 
                            "t0": 28801, 
                            "v": 91, 
                            "dur": 102, 
                            "type": "note", 
                            "channel": 0
                        }
                    ]
                ], 
                [
                    28920, 
                    [
                        {
                            "pitch": 28, 
                            "t0": 28920, 
                            "v": 108, 
                            "dur": 101, 
                            "type": "note", 
                            "channel": 0
                        }
                    ]
                ], 
                [
                    29044, 
                    [
                        {
                            "pitch": 29, 
                            "t0": 29044, 
                            "v": 91, 
                            "dur": 110, 
                            "type": "note", 
                            "channel": 0
                        }
                    ]
                ], 
                [
                    29166, 
                    [
                        {
                            "pitch": 30, 
                            "t0": 29166, 
                            "v": 87, 
                            "dur": 102, 
                            "type": "note", 
                            "channel": 0
                        }
                    ]
                ], 
                [
                    29283, 
                    [
                        {
                            "pitch": 31, 
                            "t0": 29283, 
                            "v": 97, 
                            "dur": 184, 
                            "type": "note", 
                            "channel": 0
                        }
                    ]
                ], 
                [
                    29479, 
                    [
                        {
                            "pitch": 31, 
                            "t0": 29479, 
                            "v": 92, 
                            "dur": 25, 
                            "type": "note", 
                            "channel": 0
                        }
                    ]
                ], 
                [
                    29518, 
                    [
                        {
                            "pitch": 35, 
                            "t0": 29518, 
                            "v": 90, 
                            "dur": 112, 
                            "type": "note", 
                            "channel": 0
                        }
                    ]
                ], 
                [
                    29642, 
                    [
                        {
                            "pitch": 36, 
                            "t0": 29642, 
                            "v": 90, 
                            "dur": 107, 
                            "type": "note", 
                            "channel": 0
                        }
                    ]
                ], 
                [
                    29763, 
                    [
                        {
                            "pitch": 38, 
                            "t0": 29763, 
                            "v": 88, 
                            "dur": 181, 
                            "type": "note", 
                            "channel": 0
                        }
                    ]
                ], 
                [
                    29958, 
                    [
                        {
                            "pitch": 38, 
                            "t0": 29958, 
                            "v": 70, 
                            "dur": 27, 
                            "type": "note", 
                            "channel": 0
                        }
                    ]
                ], 
                [
                    29998, 
                    [
                        {
                            "pitch": 33, 
                            "t0": 29998, 
                            "v": 92, 
                            "dur": 230, 
                            "type": "note", 
                            "channel": 0
                        }
                    ]
                ], 
                [
                    30241, 
                    [
                        {
                            "pitch": 31, 
                            "t0": 30241, 
                            "v": 100, 
                            "dur": 109, 
                            "type": "note", 
                            "channel": 0
                        }
                    ]
                ], 
                [
                    30368, 
                    [
                        {
                            "pitch": 43, 
                            "t0": 30368, 
                            "v": 90, 
                            "dur": 107, 
                            "type": "note", 
                            "channel": 0
                        }
                    ]
                ], 
                [
                    30483, 
                    [
                        {
                            "pitch": 40, 
                            "t0": 30483, 
                            "v": 84, 
                            "dur": 63, 
                            "type": "note", 
                            "channel": 0
                        }
                    ]
                ], 
                [
                    30558, 
                    [
                        {
                            "pitch": 38, 
                            "t0": 30558, 
                            "v": 80, 
                            "dur": 30, 
                            "type": "note", 
                            "channel": 0
                        }
                    ]
                ], 
                [
                    30599, 
                    [
                        {
                            "pitch": 35, 
                            "t0": 30599, 
                            "v": 112, 
                            "dur": 102, 
                            "type": "note", 
                            "channel": 0
                        }
                    ]
                ], 
                [
                    30722, 
                    [
                        {
                            "pitch": 31, 
                            "t0": 30722, 
                            "v": 108, 
                            "dur": 50, 
                            "type": "note", 
                            "channel": 0
                        }
                    ]
                ], 
                [
                    31172, 
                    [
                        {
                            "pitch": 43, 
                            "t0": 31172, 
                            "v": 64, 
                            "dur": 14, 
                            "type": "note", 
                            "channel": 0
                        }
                    ]
                ], 
                [
                    31202, 
                    [
                        {
                            "pitch": 31, 
                            "t0": 31202, 
                            "v": 104, 
                            "dur": 74, 
                            "type": "note", 
                            "channel": 0
                        }
                    ]
                ], 
                [
                    31281, 
                    [
                        {
                            "pitch": 43, 
                            "t0": 31281, 
                            "v": 73, 
                            "dur": 22, 
                            "type": "note", 
                            "channel": 0
                        }
                    ]
                ], 
                [
                    31320, 
                    [
                        {
                            "pitch": 33, 
                            "t0": 31320, 
                            "v": 100, 
                            "dur": 75, 
                            "type": "note", 
                            "channel": 0
                        }
                    ]
                ], 
                [
                    31401, 
                    [
                        {
                            "pitch": 45, 
                            "t0": 31401, 
                            "v": 73, 
                            "dur": 24, 
                            "type": "note", 
                            "channel": 0
                        }
                    ]
                ], 
                [
                    31438, 
                    [
                        {
                            "pitch": 34, 
                            "t0": 31438, 
                            "v": 97, 
                            "dur": 76, 
                            "type": "note", 
                            "channel": 0
                        }
                    ]
                ], 
                [
                    31519, 
                    [
                        {
                            "pitch": 46, 
                            "t0": 31519, 
                            "v": 74, 
                            "dur": 20, 
                            "type": "note", 
                            "channel": 0
                        }
                    ]
                ], 
                [
                    31551, 
                    [
                        {
                            "pitch": 35, 
                            "t0": 31551, 
                            "v": 112, 
                            "dur": 77, 
                            "type": "note", 
                            "channel": 0
                        }
                    ]
                ], 
                [
                    31640, 
                    [
                        {
                            "pitch": 47, 
                            "t0": 31640, 
                            "v": 74, 
                            "dur": 25, 
                            "type": "note", 
                            "channel": 0
                        }
                    ]
                ], 
                [
                    31672, 
                    [
                        {
                            "pitch": 36, 
                            "t0": 31672, 
                            "v": 84, 
                            "dur": 72, 
                            "type": "note", 
                            "channel": 0
                        }
                    ]
                ], 
                [
                    31750, 
                    [
                        {
                            "pitch": 48, 
                            "t0": 31750, 
                            "v": 73, 
                            "dur": 30, 
                            "type": "note", 
                            "channel": 0
                        }
                    ]
                ], 
                [
                    31789, 
                    [
                        {
                            "pitch": 40, 
                            "t0": 31789, 
                            "v": 81, 
                            "dur": 70, 
                            "type": "note", 
                            "channel": 0
                        }
                    ]
                ], 
                [
                    31872, 
                    [
                        {
                            "pitch": 40, 
                            "t0": 31872, 
                            "v": 70, 
                            "dur": 27, 
                            "type": "note", 
                            "channel": 0
                        }
                    ]
                ], 
                [
                    31911, 
                    [
                        {
                            "pitch": 41, 
                            "t0": 31911, 
                            "v": 94, 
                            "dur": 64, 
                            "type": "note", 
                            "channel": 0
                        }
                    ]
                ], 
                [
                    31991, 
                    [
                        {
                            "pitch": 41, 
                            "t0": 31991, 
                            "v": 64, 
                            "dur": 33, 
                            "type": "note", 
                            "channel": 0
                        }
                    ]
                ], 
                [
                    32032, 
                    [
                        {
                            "pitch": 42, 
                            "t0": 32032, 
                            "v": 84, 
                            "dur": 121, 
                            "type": "note", 
                            "channel": 0
                        }
                    ]
                ], 
                [
                    32160, 
                    [
                        {
                            "pitch": 43, 
                            "t0": 32160, 
                            "v": 97, 
                            "dur": 54, 
                            "type": "note", 
                            "channel": 0
                        }
                    ]
                ], 
                [
                    32231, 
                    [
                        {
                            "pitch": 43, 
                            "t0": 32231, 
                            "v": 83, 
                            "dur": 32, 
                            "type": "note", 
                            "channel": 0
                        }
                    ]
                ], 
                [
                    32269, 
                    [
                        {
                            "pitch": 40, 
                            "t0": 32269, 
                            "v": 88, 
                            "dur": 68, 
                            "type": "note", 
                            "channel": 0
                        }
                    ]
                ], 
                [
                    32353, 
                    [
                        {
                            "pitch": 40, 
                            "t0": 32353, 
                            "v": 68, 
                            "dur": 26, 
                            "type": "note", 
                            "channel": 0
                        }
                    ]
                ], 
                [
                    32387, 
                    [
                        {
                            "pitch": 38, 
                            "t0": 32387, 
                            "v": 94, 
                            "dur": 60, 
                            "type": "note", 
                            "channel": 0
                        }
                    ]
                ], 
                [
                    32462, 
                    [
                        {
                            "pitch": 38, 
                            "t0": 32462, 
                            "v": 60, 
                            "dur": 35, 
                            "type": "note", 
                            "channel": 0
                        }
                    ]
                ], 
                [
                    32510, 
                    [
                        {
                            "pitch": 35, 
                            "t0": 32510, 
                            "v": 102, 
                            "dur": 71, 
                            "type": "note", 
                            "channel": 0
                        }
                    ]
                ], 
                [
                    32596, 
                    [
                        {
                            "pitch": 35, 
                            "t0": 32596, 
                            "v": 75, 
                            "dur": 27, 
                            "type": "note", 
                            "channel": 0
                        }
                    ]
                ], 
                [
                    32632, 
                    [
                        {
                            "pitch": 31, 
                            "t0": 32632, 
                            "v": 95, 
                            "dur": 119, 
                            "type": "note", 
                            "channel": 0
                        }
                    ]
                ], 
                [
                    32764, 
                    [
                        {
                            "pitch": 28, 
                            "t0": 32764, 
                            "v": 108, 
                            "dur": 70, 
                            "type": "note", 
                            "channel": 0
                        }
                    ]
                ], 
                [
                    32842, 
                    [
                        {
                            "pitch": 40, 
                            "t0": 32842, 
                            "v": 85, 
                            "dur": 28, 
                            "type": "note", 
                            "channel": 0
                        }
                    ]
                ], 
                [
                    32883, 
                    [
                        {
                            "pitch": 29, 
                            "t0": 32883, 
                            "v": 100, 
                            "dur": 73, 
                            "type": "note", 
                            "channel": 0
                        }
                    ]
                ], 
                [
                    32960, 
                    [
                        {
                            "pitch": 41, 
                            "t0": 32960, 
                            "v": 61, 
                            "dur": 31, 
                            "type": "note", 
                            "channel": 0
                        }
                    ]
                ], 
                [
                    33004, 
                    [
                        {
                            "pitch": 30, 
                            "t0": 33004, 
                            "v": 95, 
                            "dur": 72, 
                            "type": "note", 
                            "channel": 0
                        }
                    ]
                ], 
                [
                    33082, 
                    [
                        {
                            "pitch": 42, 
                            "t0": 33082, 
                            "v": 97, 
                            "dur": 23, 
                            "type": "note", 
                            "channel": 0
                        }
                    ]
                ], 
                [
                    33115, 
                    [
                        {
                            "pitch": 31, 
                            "t0": 33115, 
                            "v": 92, 
                            "dur": 72, 
                            "type": "note", 
                            "channel": 0
                        }
                    ]
                ], 
                [
                    33195, 
                    [
                        {
                            "pitch": 43, 
                            "t0": 33195, 
                            "v": 78, 
                            "dur": 28, 
                            "type": "note", 
                            "channel": 0
                        }
                    ]
                ], 
                [
                    33231, 
                    [
                        {
                            "pitch": 40, 
                            "t0": 33231, 
                            "v": 87, 
                            "dur": 106, 
                            "type": "note", 
                            "channel": 0
                        }
                    ]
                ], 
                [
                    33353, 
                    [
                        {
                            "pitch": 38, 
                            "t0": 33353, 
                            "v": 83, 
                            "dur": 110, 
                            "type": "note", 
                            "channel": 0
                        }
                    ]
                ], 
                [
                    33477, 
                    [
                        {
                            "pitch": 35, 
                            "t0": 33477, 
                            "v": 95, 
                            "dur": 106, 
                            "type": "note", 
                            "channel": 0
                        }
                    ]
                ], 
                [
                    33597, 
                    [
                        {
                            "pitch": 31, 
                            "t0": 33597, 
                            "v": 100, 
                            "dur": 60, 
                            "type": "note", 
                            "channel": 0
                        }
                    ]
                ], 
                [
                    33677, 
                    [
                        {
                            "pitch": 31, 
                            "t0": 33677, 
                            "v": 87, 
                            "dur": 27, 
                            "type": "note", 
                            "channel": 0
                        }
                    ]
                ], 
                [
                    33714, 
                    [
                        {
                            "pitch": 35, 
                            "t0": 33714, 
                            "v": 95, 
                            "dur": 72, 
                            "type": "note", 
                            "channel": 0
                        }
                    ]
                ], 
                [
                    33799, 
                    [
                        {
                            "pitch": 35, 
                            "t0": 33799, 
                            "v": 92, 
                            "dur": 37, 
                            "type": "note", 
                            "channel": 0
                        }
                    ]
                ], 
                [
                    33837, 
                    [
                        {
                            "pitch": 36, 
                            "t0": 33837, 
                            "v": 97, 
                            "dur": 65, 
                            "type": "note", 
                            "channel": 0
                        }
                    ]
                ], 
                [
                    33916, 
                    [
                        {
                            "pitch": 36, 
                            "t0": 33916, 
                            "v": 85, 
                            "dur": 34, 
                            "type": "note", 
                            "channel": 0
                        }
                    ]
                ], 
                [
                    33957, 
                    [
                        {
                            "pitch": 37, 
                            "t0": 33957, 
                            "v": 79, 
                            "dur": 64, 
                            "type": "note", 
                            "channel": 0
                        }
                    ]
                ], 
                [
                    34037, 
                    [
                        {
                            "pitch": 37, 
                            "t0": 34037, 
                            "v": 50, 
                            "dur": 49, 
                            "type": "note", 
                            "channel": 0
                        }
                    ]
                ], 
                [
                    34080, 
                    [
                        {
                            "pitch": 38, 
                            "t0": 34080, 
                            "v": 102, 
                            "dur": 119, 
                            "type": "note", 
                            "channel": 0
                        }
                    ]
                ], 
                [
                    34203, 
                    [
                        {
                            "pitch": 50, 
                            "t0": 34203, 
                            "v": 83, 
                            "dur": 102, 
                            "type": "note", 
                            "channel": 0
                        }
                    ]
                ], 
                [
                    34316, 
                    [
                        {
                            "pitch": 47, 
                            "t0": 34316, 
                            "v": 95, 
                            "dur": 69, 
                            "type": "note", 
                            "channel": 0
                        }
                    ]
                ], 
                [
                    34400, 
                    [
                        {
                            "pitch": 45, 
                            "t0": 34400, 
                            "v": 79, 
                            "dur": 52, 
                            "type": "note", 
                            "channel": 0
                        }
                    ]
                ], 
                [
                    34442, 
                    [
                        {
                            "pitch": 42, 
                            "t0": 34442, 
                            "v": 91, 
                            "dur": 103, 
                            "type": "note", 
                            "channel": 0
                        }
                    ]
                ], 
                [
                    34559, 
                    [
                        {
                            "pitch": 38, 
                            "t0": 34559, 
                            "v": 88, 
                            "dur": 70, 
                            "type": "note", 
                            "channel": 0
                        }
                    ]
                ], 
                [
                    34640, 
                    [
                        {
                            "pitch": 38, 
                            "t0": 34640, 
                            "v": 70, 
                            "dur": 29, 
                            "type": "note", 
                            "channel": 0
                        }
                    ]
                ], 
                [
                    34680, 
                    [
                        {
                            "pitch": 40, 
                            "t0": 34680, 
                            "v": 94, 
                            "dur": 68, 
                            "type": "note", 
                            "channel": 0
                        }
                    ]
                ], 
                [
                    34761, 
                    [
                        {
                            "pitch": 40, 
                            "t0": 34761, 
                            "v": 73, 
                            "dur": 37, 
                            "type": "note", 
                            "channel": 0
                        }
                    ]
                ], 
                [
                    34800, 
                    [
                        {
                            "pitch": 41, 
                            "t0": 34800, 
                            "v": 100, 
                            "dur": 59, 
                            "type": "note", 
                            "channel": 0
                        }
                    ]
                ], 
                [
                    34873, 
                    [
                        {
                            "pitch": 41, 
                            "t0": 34873, 
                            "v": 80, 
                            "dur": 37, 
                            "type": "note", 
                            "channel": 0
                        }
                    ]
                ], 
                [
                    34917, 
                    [
                        {
                            "pitch": 42, 
                            "t0": 34917, 
                            "v": 99, 
                            "dur": 63, 
                            "type": "note", 
                            "channel": 0
                        }
                    ]
                ], 
                [
                    34997, 
                    [
                        {
                            "pitch": 43, 
                            "t0": 34997, 
                            "v": 78, 
                            "dur": 28, 
                            "type": "note", 
                            "channel": 0
                        }
                    ]
                ], 
                [
                    35040, 
                    [
                        {
                            "pitch": 31, 
                            "t0": 35040, 
                            "v": 106, 
                            "dur": 62, 
                            "type": "note", 
                            "channel": 0
                        }
                    ]
                ], 
                [
                    35115, 
                    [
                        {
                            "pitch": 31, 
                            "t0": 35115, 
                            "v": 80, 
                            "dur": 29, 
                            "type": "note", 
                            "channel": 0
                        }
                    ]
                ], 
                [
                    35153, 
                    [
                        {
                            "pitch": 33, 
                            "t0": 35153, 
                            "v": 100, 
                            "dur": 112, 
                            "type": "note", 
                            "channel": 0
                        }
                    ]
                ], 
                [
                    35280, 
                    [
                        {
                            "pitch": 34, 
                            "t0": 35280, 
                            "v": 91, 
                            "dur": 103, 
                            "type": "note", 
                            "channel": 0
                        }
                    ]
                ], 
                [
                    35398, 
                    [
                        {
                            "pitch": 35, 
                            "t0": 35398, 
                            "v": 98, 
                            "dur": 104, 
                            "type": "note", 
                            "channel": 0
                        }
                    ]
                ], 
                [
                    35520, 
                    [
                        {
                            "pitch": 36, 
                            "t0": 35520, 
                            "v": 94, 
                            "dur": 107, 
                            "type": "note", 
                            "channel": 0
                        }
                    ]
                ], 
                [
                    35636, 
                    [
                        {
                            "pitch": 40, 
                            "t0": 35636, 
                            "v": 94, 
                            "dur": 66, 
                            "type": "note", 
                            "channel": 0
                        }
                    ]
                ], 
                [
                    35714, 
                    [
                        {
                            "pitch": 40, 
                            "t0": 35714, 
                            "v": 80, 
                            "dur": 30, 
                            "type": "note", 
                            "channel": 0
                        }
                    ]
                ], 
                [
                    35754, 
                    [
                        {
                            "pitch": 41, 
                            "t0": 35754, 
                            "v": 97, 
                            "dur": 64, 
                            "type": "note", 
                            "channel": 0
                        }
                    ]
                ], 
                [
                    35835, 
                    [
                        {
                            "pitch": 41, 
                            "t0": 35835, 
                            "v": 68, 
                            "dur": 42, 
                            "type": "note", 
                            "channel": 0
                        }
                    ]
                ], 
                [
                    35876, 
                    [
                        {
                            "pitch": 42, 
                            "t0": 35876, 
                            "v": 84, 
                            "dur": 75, 
                            "type": "note", 
                            "channel": 0
                        }
                    ]
                ], 
                [
                    35961, 
                    [
                        {
                            "pitch": 43, 
                            "t0": 35961, 
                            "v": 80, 
                            "dur": 32, 
                            "type": "note", 
                            "channel": 0
                        }
                    ]
                ], 
                [
                    36003, 
                    [
                        {
                            "pitch": 31, 
                            "t0": 36003, 
                            "v": 112, 
                            "dur": 63, 
                            "type": "note", 
                            "channel": 0
                        }
                    ]
                ], 
                [
                    36081, 
                    [
                        {
                            "pitch": 31, 
                            "t0": 36081, 
                            "v": 97, 
                            "dur": 31, 
                            "type": "note", 
                            "channel": 0
                        }
                    ]
                ], 
                [
                    36118, 
                    [
                        {
                            "pitch": 33, 
                            "t0": 36118, 
                            "v": 102, 
                            "dur": 68, 
                            "type": "note", 
                            "channel": 0
                        }
                    ]
                ], 
                [
                    36200, 
                    [
                        {
                            "pitch": 33, 
                            "t0": 36200, 
                            "v": 85, 
                            "dur": 29, 
                            "type": "note", 
                            "channel": 0
                        }
                    ]
                ], 
                [
                    36237, 
                    [
                        {
                            "pitch": 34, 
                            "t0": 36237, 
                            "v": 93, 
                            "dur": 61, 
                            "type": "note", 
                            "channel": 0
                        }
                    ]
                ], 
                [
                    36312, 
                    [
                        {
                            "pitch": 34, 
                            "t0": 36312, 
                            "v": 87, 
                            "dur": 34, 
                            "type": "note", 
                            "channel": 0
                        }
                    ]
                ], 
                [
                    36352, 
                    [
                        {
                            "pitch": 35, 
                            "t0": 36352, 
                            "v": 91, 
                            "dur": 65, 
                            "type": "note", 
                            "channel": 0
                        }
                    ]
                ], 
                [
                    36430, 
                    [
                        {
                            "pitch": 35, 
                            "t0": 36430, 
                            "v": 86, 
                            "dur": 31, 
                            "type": "note", 
                            "channel": 0
                        }
                    ]
                ], 
                [
                    36472, 
                    [
                        {
                            "pitch": 36, 
                            "t0": 36472, 
                            "v": 83, 
                            "dur": 60, 
                            "type": "note", 
                            "channel": 0
                        }
                    ]
                ], 
                [
                    36556, 
                    [
                        {
                            "pitch": 36, 
                            "t0": 36556, 
                            "v": 53, 
                            "dur": 38, 
                            "type": "note", 
                            "channel": 0
                        }
                    ]
                ], 
                [
                    36601, 
                    [
                        {
                            "pitch": 45, 
                            "t0": 36601, 
                            "v": 91, 
                            "dur": 100, 
                            "type": "note", 
                            "channel": 0
                        }
                    ]
                ], 
                [
                    36723, 
                    [
                        {
                            "pitch": 43, 
                            "t0": 36723, 
                            "v": 102, 
                            "dur": 101, 
                            "type": "note", 
                            "channel": 0
                        }
                    ]
                ], 
                [
                    36835, 
                    [
                        {
                            "pitch": 40, 
                            "t0": 36835, 
                            "v": 91, 
                            "dur": 31, 
                            "type": "note", 
                            "channel": 0
                        }
                    ]
                ], 
                [
                    36878, 
                    [
                        {
                            "pitch": 38, 
                            "t0": 36878, 
                            "v": 90, 
                            "dur": 37, 
                            "type": "note", 
                            "channel": 0
                        }
                    ]
                ], 
                [
                    36913, 
                    [
                        {
                            "pitch": 35, 
                            "t0": 36913, 
                            "v": 100, 
                            "dur": 22, 
                            "type": "note", 
                            "channel": 0
                        }
                    ]
                ], 
                [
                    36951, 
                    [
                        {
                            "pitch": 31, 
                            "t0": 36951, 
                            "v": 106, 
                            "dur": 74, 
                            "type": "note", 
                            "channel": 0
                        }
                    ]
                ], 
                [
                    37037, 
                    [
                        {
                            "pitch": 31, 
                            "t0": 37037, 
                            "v": 90, 
                            "dur": 27, 
                            "type": "note", 
                            "channel": 0
                        }
                    ]
                ], 
                [
                    37074, 
                    [
                        {
                            "pitch": 35, 
                            "t0": 37074, 
                            "v": 117, 
                            "dur": 110, 
                            "type": "note", 
                            "channel": 0
                        }
                    ]
                ], 
                [
                    37195, 
                    [
                        {
                            "pitch": 36, 
                            "t0": 37195, 
                            "v": 102, 
                            "dur": 109, 
                            "type": "note", 
                            "channel": 0
                        }
                    ]
                ], 
                [
                    37316, 
                    [
                        {
                            "pitch": 37, 
                            "t0": 37316, 
                            "v": 89, 
                            "dur": 112, 
                            "type": "note", 
                            "channel": 0
                        }
                    ]
                ], 
                [
                    37442, 
                    [
                        {
                            "pitch": 38, 
                            "t0": 37442, 
                            "v": 95, 
                            "dur": 61, 
                            "type": "note", 
                            "channel": 0
                        }
                    ]
                ], 
                [
                    37518, 
                    [
                        {
                            "pitch": 38, 
                            "t0": 37518, 
                            "v": 81, 
                            "dur": 26, 
                            "type": "note", 
                            "channel": 0
                        }
                    ]
                ], 
                [
                    37553, 
                    [
                        {
                            "pitch": 36, 
                            "t0": 37553, 
                            "v": 94, 
                            "dur": 73, 
                            "type": "note", 
                            "channel": 0
                        }
                    ]
                ], 
                [
                    37638, 
                    [
                        {
                            "pitch": 36, 
                            "t0": 37638, 
                            "v": 87, 
                            "dur": 23, 
                            "type": "note", 
                            "channel": 0
                        }
                    ]
                ], 
                [
                    37673, 
                    [
                        {
                            "pitch": 35, 
                            "t0": 37673, 
                            "v": 98, 
                            "dur": 73, 
                            "type": "note", 
                            "channel": 0
                        }
                    ]
                ], 
                [
                    37759, 
                    [
                        {
                            "pitch": 35, 
                            "t0": 37759, 
                            "v": 83, 
                            "dur": 26, 
                            "type": "note", 
                            "channel": 0
                        }
                    ]
                ], 
                [
                    37797, 
                    [
                        {
                            "pitch": 33, 
                            "t0": 37797, 
                            "v": 100, 
                            "dur": 65, 
                            "type": "note", 
                            "channel": 0
                        }
                    ]
                ], 
                [
                    37879, 
                    [
                        {
                            "pitch": 33, 
                            "t0": 37879, 
                            "v": 80, 
                            "dur": 30, 
                            "type": "note", 
                            "channel": 0
                        }
                    ]
                ], 
                [
                    37918, 
                    [
                        {
                            "pitch": 31, 
                            "t0": 37918, 
                            "v": 100, 
                            "dur": 114, 
                            "type": "note", 
                            "channel": 0
                        }
                    ]
                ], 
                [
                    38042, 
                    [
                        {
                            "pitch": 43, 
                            "t0": 38042, 
                            "v": 92, 
                            "dur": 108, 
                            "type": "note", 
                            "channel": 0
                        }
                    ]
                ], 
                [
                    38160, 
                    [
                        {
                            "pitch": 40, 
                            "t0": 38160, 
                            "v": 86, 
                            "dur": 70, 
                            "type": "note", 
                            "channel": 0
                        }
                    ]
                ], 
                [
                    38243, 
                    [
                        {
                            "pitch": 38, 
                            "t0": 38243, 
                            "v": 74, 
                            "dur": 31, 
                            "type": "note", 
                            "channel": 0
                        }
                    ]
                ], 
                [
                    38282, 
                    [
                        {
                            "pitch": 35, 
                            "t0": 38282, 
                            "v": 97, 
                            "dur": 95, 
                            "type": "note", 
                            "channel": 0
                        }
                    ]
                ], 
                [
                    38394, 
                    [
                        {
                            "pitch": 31, 
                            "t0": 38394, 
                            "v": 117, 
                            "dur": 49, 
                            "type": "note", 
                            "channel": 0
                        }
                    ]
                ], 
                [
                    38880, 
                    [
                        {
                            "pitch": 36, 
                            "t0": 38880, 
                            "v": 80, 
                            "dur": 175, 
                            "type": "note", 
                            "channel": 0
                        }
                    ]
                ], 
                [
                    39073, 
                    [
                        {
                            "pitch": 36, 
                            "t0": 39073, 
                            "v": 60, 
                            "dur": 26, 
                            "type": "note", 
                            "channel": 0
                        }
                    ]
                ], 
                [
                    39117, 
                    [
                        {
                            "pitch": 31, 
                            "t0": 39117, 
                            "v": 84, 
                            "dur": 181, 
                            "type": "note", 
                            "channel": 0
                        }
                    ]
                ], 
                [
                    39318, 
                    [
                        {
                            "pitch": 31, 
                            "t0": 39318, 
                            "v": 80, 
                            "dur": 30, 
                            "type": "note", 
                            "channel": 0
                        }
                    ]
                ], 
                [
                    39357, 
                    [
                        {
                            "pitch": 36, 
                            "t0": 39357, 
                            "v": 57, 
                            "dur": 114, 
                            "type": "note", 
                            "channel": 0
                        }
                    ]
                ], 
                [
                    39478, 
                    [
                        {
                            "pitch": 28, 
                            "t0": 39478, 
                            "v": 70, 
                            "dur": 101, 
                            "type": "note", 
                            "channel": 0
                        }
                    ]
                ], 
                [
                    39480, 
                    [
                        {
                            "pitch": 29, 
                            "t0": 39480, 
                            "v": 73, 
                            "dur": 27, 
                            "type": "note", 
                            "channel": 0
                        }
                    ]
                ], 
                [
                    39601, 
                    [
                        {
                            "pitch": 29, 
                            "t0": 39601, 
                            "v": 94, 
                            "dur": 103, 
                            "type": "note", 
                            "channel": 0
                        }
                    ]
                ], 
                [
                    39719, 
                    [
                        {
                            "pitch": 30, 
                            "t0": 39719, 
                            "v": 89, 
                            "dur": 102, 
                            "type": "note", 
                            "channel": 0
                        }
                    ]
                ], 
                [
                    39840, 
                    [
                        {
                            "pitch": 31, 
                            "t0": 39840, 
                            "v": 92, 
                            "dur": 173, 
                            "type": "note", 
                            "channel": 0
                        }
                    ]
                ], 
                [
                    40033, 
                    [
                        {
                            "pitch": 31, 
                            "t0": 40033, 
                            "v": 74, 
                            "dur": 23, 
                            "type": "note", 
                            "channel": 0
                        }
                    ]
                ], 
                [
                    40075, 
                    [
                        {
                            "pitch": 38, 
                            "t0": 40075, 
                            "v": 91, 
                            "dur": 184, 
                            "type": "note", 
                            "channel": 0
                        }
                    ]
                ], 
                [
                    40283, 
                    [
                        {
                            "pitch": 38, 
                            "t0": 40283, 
                            "v": 80, 
                            "dur": 32, 
                            "type": "note", 
                            "channel": 0
                        }
                    ]
                ], 
                [
                    40320, 
                    [
                        {
                            "pitch": 31, 
                            "t0": 40320, 
                            "v": 86, 
                            "dur": 177, 
                            "type": "note", 
                            "channel": 0
                        }
                    ]
                ], 
                [
                    40517, 
                    [
                        {
                            "pitch": 38, 
                            "t0": 40517, 
                            "v": 80, 
                            "dur": 22, 
                            "type": "note", 
                            "channel": 0
                        }
                    ]
                ], 
                [
                    40555, 
                    [
                        {
                            "pitch": 31, 
                            "t0": 40555, 
                            "v": 95, 
                            "dur": 74, 
                            "type": "note", 
                            "channel": 0
                        }
                    ]
                ], 
                [
                    40636, 
                    [
                        {
                            "pitch": 43, 
                            "t0": 40636, 
                            "v": 65, 
                            "dur": 25, 
                            "type": "note", 
                            "channel": 0
                        }
                    ]
                ], 
                [
                    40677, 
                    [
                        {
                            "pitch": 32, 
                            "t0": 40677, 
                            "v": 91, 
                            "dur": 80, 
                            "type": "note", 
                            "channel": 0
                        }
                    ]
                ], 
                [
                    40766, 
                    [
                        {
                            "pitch": 44, 
                            "t0": 40766, 
                            "v": 56, 
                            "dur": 7, 
                            "type": "note", 
                            "channel": 0
                        }
                    ]
                ], 
                [
                    40802, 
                    [
                        {
                            "pitch": 33, 
                            "t0": 40802, 
                            "v": 91, 
                            "dur": 177, 
                            "type": "note", 
                            "channel": 0
                        }
                    ]
                ], 
                [
                    40999, 
                    [
                        {
                            "pitch": 33, 
                            "t0": 40999, 
                            "v": 86, 
                            "dur": 24, 
                            "type": "note", 
                            "channel": 0
                        }
                    ]
                ], 
                [
                    41038, 
                    [
                        {
                            "pitch": 40, 
                            "t0": 41038, 
                            "v": 81, 
                            "dur": 199, 
                            "type": "note", 
                            "channel": 0
                        }
                    ]
                ], 
                [
                    41249, 
                    [
                        {
                            "pitch": 40, 
                            "t0": 41249, 
                            "v": 59, 
                            "dur": 26, 
                            "type": "note", 
                            "channel": 0
                        }
                    ]
                ], 
                [
                    41289, 
                    [
                        {
                            "pitch": 33, 
                            "t0": 41289, 
                            "v": 86, 
                            "dur": 159, 
                            "type": "note", 
                            "channel": 0
                        }
                    ]
                ], 
                [
                    41468, 
                    [
                        {
                            "pitch": 33, 
                            "t0": 41468, 
                            "v": 79, 
                            "dur": 29, 
                            "type": "note", 
                            "channel": 0
                        }
                    ]
                ], 
                [
                    41510, 
                    [
                        {
                            "pitch": 40, 
                            "t0": 41510, 
                            "v": 80, 
                            "dur": 189, 
                            "type": "note", 
                            "channel": 0
                        }
                    ]
                ], 
                [
                    41712, 
                    [
                        {
                            "pitch": 40, 
                            "t0": 41712, 
                            "v": 49, 
                            "dur": 31, 
                            "type": "note", 
                            "channel": 0
                        }
                    ]
                ], 
                [
                    41754, 
                    [
                        {
                            "pitch": 38, 
                            "t0": 41754, 
                            "v": 81, 
                            "dur": 189, 
                            "type": "note", 
                            "channel": 0
                        }
                    ]
                ], 
                [
                    41960, 
                    [
                        {
                            "pitch": 38, 
                            "t0": 41960, 
                            "v": 70, 
                            "dur": 26, 
                            "type": "note", 
                            "channel": 0
                        }
                    ]
                ], 
                [
                    41999, 
                    [
                        {
                            "pitch": 33, 
                            "t0": 41999, 
                            "v": 98, 
                            "dur": 177, 
                            "type": "note", 
                            "channel": 0
                        }
                    ]
                ], 
                [
                    42192, 
                    [
                        {
                            "pitch": 33, 
                            "t0": 42192, 
                            "v": 66, 
                            "dur": 27, 
                            "type": "note", 
                            "channel": 0
                        }
                    ]
                ], 
                [
                    42235, 
                    [
                        {
                            "pitch": 38, 
                            "t0": 42235, 
                            "v": 90, 
                            "dur": 194, 
                            "type": "note", 
                            "channel": 0
                        }
                    ]
                ], 
                [
                    42439, 
                    [
                        {
                            "pitch": 33, 
                            "t0": 42439, 
                            "v": 97, 
                            "dur": 23, 
                            "type": "note", 
                            "channel": 0
                        }
                    ]
                ], 
                [
                    42475, 
                    [
                        {
                            "pitch": 38, 
                            "t0": 42475, 
                            "v": 112, 
                            "dur": 55, 
                            "type": "note", 
                            "channel": 0
                        }
                    ]
                ], 
                [
                    42603, 
                    [
                        {
                            "pitch": 37, 
                            "t0": 42603, 
                            "v": 99, 
                            "dur": 52, 
                            "type": "note", 
                            "channel": 0
                        }
                    ]
                ], 
                [
                    42718, 
                    [
                        {
                            "pitch": 36, 
                            "t0": 42718, 
                            "v": 91, 
                            "dur": 173, 
                            "type": "note", 
                            "channel": 0
                        }
                    ]
                ], 
                [
                    42907, 
                    [
                        {
                            "pitch": 36, 
                            "t0": 42907, 
                            "v": 68, 
                            "dur": 38, 
                            "type": "note", 
                            "channel": 0
                        }
                    ]
                ], 
                [
                    42953, 
                    [
                        {
                            "pitch": 31, 
                            "t0": 42953, 
                            "v": 88, 
                            "dur": 203, 
                            "type": "note", 
                            "channel": 0
                        }
                    ]
                ], 
                [
                    43165, 
                    [
                        {
                            "pitch": 31, 
                            "t0": 43165, 
                            "v": 55, 
                            "dur": 28, 
                            "type": "note", 
                            "channel": 0
                        }
                    ]
                ], 
                [
                    43203, 
                    [
                        {
                            "pitch": 36, 
                            "t0": 43203, 
                            "v": 69, 
                            "dur": 106, 
                            "type": "note", 
                            "channel": 0
                        }
                    ]
                ], 
                [
                    43205, 
                    [
                        {
                            "pitch": 38, 
                            "t0": 43205, 
                            "v": 81, 
                            "dur": 20, 
                            "type": "note", 
                            "channel": 0
                        }
                    ]
                ], 
                [
                    43318, 
                    [
                        {
                            "pitch": 28, 
                            "t0": 43318, 
                            "v": 104, 
                            "dur": 105, 
                            "type": "note", 
                            "channel": 0
                        }
                    ]
                ], 
                [
                    43441, 
                    [
                        {
                            "pitch": 29, 
                            "t0": 43441, 
                            "v": 95, 
                            "dur": 105, 
                            "type": "note", 
                            "channel": 0
                        }
                    ]
                ], 
                [
                    43561, 
                    [
                        {
                            "pitch": 30, 
                            "t0": 43561, 
                            "v": 91, 
                            "dur": 100, 
                            "type": "note", 
                            "channel": 0
                        }
                    ]
                ], 
                [
                    43681, 
                    [
                        {
                            "pitch": 31, 
                            "t0": 43681, 
                            "v": 95, 
                            "dur": 187, 
                            "type": "note", 
                            "channel": 0
                        }
                    ]
                ], 
                [
                    43881, 
                    [
                        {
                            "pitch": 31, 
                            "t0": 43881, 
                            "v": 81, 
                            "dur": 25, 
                            "type": "note", 
                            "channel": 0
                        }
                    ]
                ], 
                [
                    43921, 
                    [
                        {
                            "pitch": 38, 
                            "t0": 43921, 
                            "v": 92, 
                            "dur": 167, 
                            "type": "note", 
                            "channel": 0
                        }
                    ]
                ], 
                [
                    44106, 
                    [
                        {
                            "pitch": 38, 
                            "t0": 44106, 
                            "v": 65, 
                            "dur": 33, 
                            "type": "note", 
                            "channel": 0
                        }
                    ]
                ], 
                [
                    44152, 
                    [
                        {
                            "pitch": 36, 
                            "t0": 44152, 
                            "v": 94, 
                            "dur": 187, 
                            "type": "note", 
                            "channel": 0
                        }
                    ]
                ], 
                [
                    44358, 
                    [
                        {
                            "pitch": 36, 
                            "t0": 44358, 
                            "v": 63, 
                            "dur": 27, 
                            "type": "note", 
                            "channel": 0
                        }
                    ]
                ], 
                [
                    44393, 
                    [
                        {
                            "pitch": 40, 
                            "t0": 44393, 
                            "v": 79, 
                            "dur": 112, 
                            "type": "note", 
                            "channel": 0
                        }
                    ]
                ], 
                [
                    44518, 
                    [
                        {
                            "pitch": 42, 
                            "t0": 44518, 
                            "v": 85, 
                            "dur": 103, 
                            "type": "note", 
                            "channel": 0
                        }
                    ]
                ], 
                [
                    44639, 
                    [
                        {
                            "pitch": 43, 
                            "t0": 44639, 
                            "v": 94, 
                            "dur": 225, 
                            "type": "note", 
                            "channel": 0
                        }
                    ]
                ], 
                [
                    44877, 
                    [
                        {
                            "pitch": 35, 
                            "t0": 44877, 
                            "v": 100, 
                            "dur": 108, 
                            "type": "note", 
                            "channel": 0
                        }
                    ]
                ], 
                [
                    45000, 
                    [
                        {
                            "pitch": 36, 
                            "t0": 45000, 
                            "v": 91, 
                            "dur": 108, 
                            "type": "note", 
                            "channel": 0
                        }
                    ]
                ], 
                [
                    45123, 
                    [
                        {
                            "pitch": 38, 
                            "t0": 45123, 
                            "v": 91, 
                            "dur": 220, 
                            "type": "note", 
                            "channel": 0
                        }
                    ]
                ], 
                [
                    45357, 
                    [
                        {
                            "pitch": 33, 
                            "t0": 45357, 
                            "v": 95, 
                            "dur": 216, 
                            "type": "note", 
                            "channel": 0
                        }
                    ]
                ], 
                [
                    45599, 
                    [
                        {
                            "pitch": 31, 
                            "t0": 45599, 
                            "v": 95, 
                            "dur": 109, 
                            "type": "note", 
                            "channel": 0
                        }
                    ]
                ], 
                [
                    45720, 
                    [
                        {
                            "pitch": 43, 
                            "t0": 45720, 
                            "v": 87, 
                            "dur": 113, 
                            "type": "note", 
                            "channel": 0
                        }
                    ]
                ], 
                [
                    45843, 
                    [
                        {
                            "pitch": 40, 
                            "t0": 45843, 
                            "v": 85, 
                            "dur": 72, 
                            "type": "note", 
                            "channel": 0
                        }
                    ]
                ], 
                [
                    45928, 
                    [
                        {
                            "pitch": 38, 
                            "t0": 45928, 
                            "v": 85, 
                            "dur": 26, 
                            "type": "note", 
                            "channel": 0
                        }
                    ]
                ], 
                [
                    45964, 
                    [
                        {
                            "pitch": 35, 
                            "t0": 45964, 
                            "v": 98, 
                            "dur": 35, 
                            "type": "note", 
                            "channel": 0
                        }
                    ]
                ], 
                [
                    46005, 
                    [
                        {
                            "pitch": 35, 
                            "t0": 46005, 
                            "v": 53, 
                            "dur": 50, 
                            "type": "note", 
                            "channel": 0
                        }
                    ]
                ], 
                [
                    46078, 
                    [
                        {
                            "pitch": 31, 
                            "t0": 46078, 
                            "v": 108, 
                            "dur": 41, 
                            "type": "note", 
                            "channel": 0
                        }
                    ]
                ], 
                [
                    46524, 
                    [
                        {
                            "pitch": 43, 
                            "t0": 46524, 
                            "v": 70, 
                            "dur": 20, 
                            "type": "note", 
                            "channel": 0
                        }
                    ]
                ], 
                [
                    46561, 
                    [
                        {
                            "pitch": 31, 
                            "t0": 46561, 
                            "v": 98, 
                            "dur": 77, 
                            "type": "note", 
                            "channel": 0
                        }
                    ]
                ], 
                [
                    46644, 
                    [
                        {
                            "pitch": 43, 
                            "t0": 46644, 
                            "v": 57, 
                            "dur": 19, 
                            "type": "note", 
                            "channel": 0
                        }
                    ]
                ], 
                [
                    46682, 
                    [
                        {
                            "pitch": 33, 
                            "t0": 46682, 
                            "v": 100, 
                            "dur": 80, 
                            "type": "note", 
                            "channel": 0
                        }
                    ]
                ], 
                [
                    46765, 
                    [
                        {
                            "pitch": 45, 
                            "t0": 46765, 
                            "v": 57, 
                            "dur": 27, 
                            "type": "note", 
                            "channel": 0
                        }
                    ]
                ], 
                [
                    46802, 
                    [
                        {
                            "pitch": 34, 
                            "t0": 46802, 
                            "v": 95, 
                            "dur": 79, 
                            "type": "note", 
                            "channel": 0
                        }
                    ]
                ], 
                [
                    46886, 
                    [
                        {
                            "pitch": 46, 
                            "t0": 46886, 
                            "v": 68, 
                            "dur": 27, 
                            "type": "note", 
                            "channel": 0
                        }
                    ]
                ], 
                [
                    46920, 
                    [
                        {
                            "pitch": 35, 
                            "t0": 46920, 
                            "v": 97, 
                            "dur": 71, 
                            "type": "note", 
                            "channel": 0
                        }
                    ]
                ], 
                [
                    47001, 
                    [
                        {
                            "pitch": 47, 
                            "t0": 47001, 
                            "v": 66, 
                            "dur": 28, 
                            "type": "note", 
                            "channel": 0
                        }
                    ]
                ], 
                [
                    47039, 
                    [
                        {
                            "pitch": 36, 
                            "t0": 47039, 
                            "v": 81, 
                            "dur": 71, 
                            "type": "note", 
                            "channel": 0
                        }
                    ]
                ], 
                [
                    47118, 
                    [
                        {
                            "pitch": 48, 
                            "t0": 47118, 
                            "v": 81, 
                            "dur": 27, 
                            "type": "note", 
                            "channel": 0
                        }
                    ]
                ], 
                [
                    47154, 
                    [
                        {
                            "pitch": 40, 
                            "t0": 47154, 
                            "v": 79, 
                            "dur": 74, 
                            "type": "note", 
                            "channel": 0
                        }
                    ]
                ], 
                [
                    47238, 
                    [
                        {
                            "pitch": 40, 
                            "t0": 47238, 
                            "v": 72, 
                            "dur": 24, 
                            "type": "note", 
                            "channel": 0
                        }
                    ]
                ], 
                [
                    47271, 
                    [
                        {
                            "pitch": 41, 
                            "t0": 47271, 
                            "v": 88, 
                            "dur": 71, 
                            "type": "note", 
                            "channel": 0
                        }
                    ]
                ], 
                [
                    47357, 
                    [
                        {
                            "pitch": 41, 
                            "t0": 47357, 
                            "v": 74, 
                            "dur": 35, 
                            "type": "note", 
                            "channel": 0
                        }
                    ]
                ], 
                [
                    47397, 
                    [
                        {
                            "pitch": 42, 
                            "t0": 47397, 
                            "v": 87, 
                            "dur": 64, 
                            "type": "note", 
                            "channel": 0
                        }
                    ]
                ], 
                [
                    47474, 
                    [
                        {
                            "pitch": 42, 
                            "t0": 47474, 
                            "v": 75, 
                            "dur": 26, 
                            "type": "note", 
                            "channel": 0
                        }
                    ]
                ], 
                [
                    47511, 
                    [
                        {
                            "pitch": 43, 
                            "t0": 47511, 
                            "v": 88, 
                            "dur": 71, 
                            "type": "note", 
                            "channel": 0
                        }
                    ]
                ], 
                [
                    47594, 
                    [
                        {
                            "pitch": 43, 
                            "t0": 47594, 
                            "v": 88, 
                            "dur": 31, 
                            "type": "note", 
                            "channel": 0
                        }
                    ]
                ], 
                [
                    47631, 
                    [
                        {
                            "pitch": 40, 
                            "t0": 47631, 
                            "v": 76, 
                            "dur": 75, 
                            "type": "note", 
                            "channel": 0
                        }
                    ]
                ], 
                [
                    47719, 
                    [
                        {
                            "pitch": 40, 
                            "t0": 47719, 
                            "v": 81, 
                            "dur": 25, 
                            "type": "note", 
                            "channel": 0
                        }
                    ]
                ], 
                [
                    47755, 
                    [
                        {
                            "pitch": 38, 
                            "t0": 47755, 
                            "v": 95, 
                            "dur": 63, 
                            "type": "note", 
                            "channel": 0
                        }
                    ]
                ], 
                [
                    47831, 
                    [
                        {
                            "pitch": 38, 
                            "t0": 47831, 
                            "v": 54, 
                            "dur": 37, 
                            "type": "note", 
                            "channel": 0
                        }
                    ]
                ], 
                [
                    47880, 
                    [
                        {
                            "pitch": 35, 
                            "t0": 47880, 
                            "v": 104, 
                            "dur": 67, 
                            "type": "note", 
                            "channel": 0
                        }
                    ]
                ], 
                [
                    47960, 
                    [
                        {
                            "pitch": 35, 
                            "t0": 47960, 
                            "v": 80, 
                            "dur": 28, 
                            "type": "note", 
                            "channel": 0
                        }
                    ]
                ], 
                [
                    47997, 
                    [
                        {
                            "pitch": 31, 
                            "t0": 47997, 
                            "v": 92, 
                            "dur": 64, 
                            "type": "note", 
                            "channel": 0
                        }
                    ]
                ], 
                [
                    48075, 
                    [
                        {
                            "pitch": 31, 
                            "t0": 48075, 
                            "v": 84, 
                            "dur": 36, 
                            "type": "note", 
                            "channel": 0
                        }
                    ]
                ], 
                [
                    48118, 
                    [
                        {
                            "pitch": 35, 
                            "t0": 48118, 
                            "v": 104, 
                            "dur": 72, 
                            "type": "note", 
                            "channel": 0
                        }
                    ]
                ], 
                [
                    48200, 
                    [
                        {
                            "pitch": 35, 
                            "t0": 48200, 
                            "v": 102, 
                            "dur": 29, 
                            "type": "note", 
                            "channel": 0
                        }
                    ]
                ], 
                [
                    48240, 
                    [
                        {
                            "pitch": 38, 
                            "t0": 48240, 
                            "v": 102, 
                            "dur": 65, 
                            "type": "note", 
                            "channel": 0
                        }
                    ]
                ], 
                [
                    48318, 
                    [
                        {
                            "pitch": 38, 
                            "t0": 48318, 
                            "v": 80, 
                            "dur": 31, 
                            "type": "note", 
                            "channel": 0
                        }
                    ]
                ], 
                [
                    48360, 
                    [
                        {
                            "pitch": 40, 
                            "t0": 48360, 
                            "v": 102, 
                            "dur": 68, 
                            "type": "note", 
                            "channel": 0
                        }
                    ]
                ], 
                [
                    48437, 
                    [
                        {
                            "pitch": 43, 
                            "t0": 48437, 
                            "v": 83, 
                            "dur": 26, 
                            "type": "note", 
                            "channel": 0
                        }
                    ]
                ], 
                [
                    48478, 
                    [
                        {
                            "pitch": 31, 
                            "t0": 48478, 
                            "v": 120, 
                            "dur": 67, 
                            "type": "note", 
                            "channel": 0
                        }
                    ]
                ], 
                [
                    48558, 
                    [
                        {
                            "pitch": 31, 
                            "t0": 48558, 
                            "v": 80, 
                            "dur": 28, 
                            "type": "note", 
                            "channel": 0
                        }
                    ]
                ], 
                [
                    48592, 
                    [
                        {
                            "pitch": 35, 
                            "t0": 48592, 
                            "v": 87, 
                            "dur": 68, 
                            "type": "note", 
                            "channel": 0
                        }
                    ]
                ], 
                [
                    48675, 
                    [
                        {
                            "pitch": 35, 
                            "t0": 48675, 
                            "v": 80, 
                            "dur": 31, 
                            "type": "note", 
                            "channel": 0
                        }
                    ]
                ], 
                [
                    48715, 
                    [
                        {
                            "pitch": 38, 
                            "t0": 48715, 
                            "v": 94, 
                            "dur": 65, 
                            "type": "note", 
                            "channel": 0
                        }
                    ]
                ], 
                [
                    48791, 
                    [
                        {
                            "pitch": 38, 
                            "t0": 48791, 
                            "v": 44, 
                            "dur": 39, 
                            "type": "note", 
                            "channel": 0
                        }
                    ]
                ], 
                [
                    48839, 
                    [
                        {
                            "pitch": 40, 
                            "t0": 48839, 
                            "v": 95, 
                            "dur": 68, 
                            "type": "note", 
                            "channel": 0
                        }
                    ]
                ], 
                [
                    48920, 
                    [
                        {
                            "pitch": 40, 
                            "t0": 48920, 
                            "v": 77, 
                            "dur": 31, 
                            "type": "note", 
                            "channel": 0
                        }
                    ]
                ], 
                [
                    48958, 
                    [
                        {
                            "pitch": 43, 
                            "t0": 48958, 
                            "v": 94, 
                            "dur": 61, 
                            "type": "note", 
                            "channel": 0
                        }
                    ]
                ], 
                [
                    49037, 
                    [
                        {
                            "pitch": 43, 
                            "t0": 49037, 
                            "v": 83, 
                            "dur": 34, 
                            "type": "note", 
                            "channel": 0
                        }
                    ]
                ], 
                [
                    49077, 
                    [
                        {
                            "pitch": 40, 
                            "t0": 49077, 
                            "v": 90, 
                            "dur": 70, 
                            "type": "note", 
                            "channel": 0
                        }
                    ]
                ], 
                [
                    49159, 
                    [
                        {
                            "pitch": 40, 
                            "t0": 49159, 
                            "v": 85, 
                            "dur": 46, 
                            "type": "note", 
                            "channel": 0
                        }
                    ]
                ], 
                [
                    49202, 
                    [
                        {
                            "pitch": 38, 
                            "t0": 49202, 
                            "v": 91, 
                            "dur": 60, 
                            "type": "note", 
                            "channel": 0
                        }
                    ]
                ], 
                [
                    49274, 
                    [
                        {
                            "pitch": 38, 
                            "t0": 49274, 
                            "v": 68, 
                            "dur": 40, 
                            "type": "note", 
                            "channel": 0
                        }
                    ]
                ], 
                [
                    49323, 
                    [
                        {
                            "pitch": 35, 
                            "t0": 49323, 
                            "v": 102, 
                            "dur": 64, 
                            "type": "note", 
                            "channel": 0
                        }
                    ]
                ], 
                [
                    49400, 
                    [
                        {
                            "pitch": 35, 
                            "t0": 49400, 
                            "v": 84, 
                            "dur": 31, 
                            "type": "note", 
                            "channel": 0
                        }
                    ]
                ], 
                [
                    49437, 
                    [
                        {
                            "pitch": 38, 
                            "t0": 49437, 
                            "v": 92, 
                            "dur": 126, 
                            "type": "note", 
                            "channel": 0
                        }
                    ]
                ], 
                [
                    49560, 
                    [
                        {
                            "pitch": 42, 
                            "t0": 49560, 
                            "v": 85, 
                            "dur": 107, 
                            "type": "note", 
                            "channel": 0
                        }
                    ]
                ], 
                [
                    49678, 
                    [
                        {
                            "pitch": 45, 
                            "t0": 49678, 
                            "v": 97, 
                            "dur": 112, 
                            "type": "note", 
                            "channel": 0
                        }
                    ]
                ], 
                [
                    49800, 
                    [
                        {
                            "pitch": 42, 
                            "t0": 49800, 
                            "v": 104, 
                            "dur": 101, 
                            "type": "note", 
                            "channel": 0
                        }
                    ]
                ], 
                [
                    49920, 
                    [
                        {
                            "pitch": 38, 
                            "t0": 49920, 
                            "v": 95, 
                            "dur": 71, 
                            "type": "note", 
                            "channel": 0
                        }
                    ]
                ], 
                [
                    50002, 
                    [
                        {
                            "pitch": 38, 
                            "t0": 50002, 
                            "v": 80, 
                            "dur": 29, 
                            "type": "note", 
                            "channel": 0
                        }
                    ]
                ], 
                [
                    50039, 
                    [
                        {
                            "pitch": 40, 
                            "t0": 50039, 
                            "v": 95, 
                            "dur": 111, 
                            "type": "note", 
                            "channel": 0
                        }
                    ]
                ], 
                [
                    50162, 
                    [
                        {
                            "pitch": 41, 
                            "t0": 50162, 
                            "v": 95, 
                            "dur": 101, 
                            "type": "note", 
                            "channel": 0
                        }
                    ]
                ], 
                [
                    50278, 
                    [
                        {
                            "pitch": 42, 
                            "t0": 50278, 
                            "v": 91, 
                            "dur": 70, 
                            "type": "note", 
                            "channel": 0
                        }
                    ]
                ], 
                [
                    50356, 
                    [
                        {
                            "pitch": 43, 
                            "t0": 50356, 
                            "v": 71, 
                            "dur": 26, 
                            "type": "note", 
                            "channel": 0
                        }
                    ]
                ], 
                [
                    50394, 
                    [
                        {
                            "pitch": 31, 
                            "t0": 50394, 
                            "v": 108, 
                            "dur": 90, 
                            "type": "note", 
                            "channel": 0
                        }
                    ]
                ], 
                [
                    50478, 
                    [
                        {
                            "pitch": 43, 
                            "t0": 50478, 
                            "v": 62, 
                            "dur": 28, 
                            "type": "note", 
                            "channel": 0
                        }
                    ]
                ], 
                [
                    50516, 
                    [
                        {
                            "pitch": 33, 
                            "t0": 50516, 
                            "v": 100, 
                            "dur": 112, 
                            "type": "note", 
                            "channel": 0
                        }
                    ]
                ], 
                [
                    50643, 
                    [
                        {
                            "pitch": 34, 
                            "t0": 50643, 
                            "v": 104, 
                            "dur": 105, 
                            "type": "note", 
                            "channel": 0
                        }
                    ]
                ], 
                [
                    50764, 
                    [
                        {
                            "pitch": 35, 
                            "t0": 50764, 
                            "v": 102, 
                            "dur": 110, 
                            "type": "note", 
                            "channel": 0
                        }
                    ]
                ], 
                [
                    50883, 
                    [
                        {
                            "pitch": 36, 
                            "t0": 50883, 
                            "v": 94, 
                            "dur": 67, 
                            "type": "note", 
                            "channel": 0
                        }
                    ]
                ], 
                [
                    50965, 
                    [
                        {
                            "pitch": 36, 
                            "t0": 50965, 
                            "v": 70, 
                            "dur": 29, 
                            "type": "note", 
                            "channel": 0
                        }
                    ]
                ], 
                [
                    50997, 
                    [
                        {
                            "pitch": 40, 
                            "t0": 50997, 
                            "v": 90, 
                            "dur": 108, 
                            "type": "note", 
                            "channel": 0
                        }
                    ]
                ], 
                [
                    51117, 
                    [
                        {
                            "pitch": 41, 
                            "t0": 51117, 
                            "v": 95, 
                            "dur": 112, 
                            "type": "note", 
                            "channel": 0
                        }
                    ]
                ], 
                [
                    51239, 
                    [
                        {
                            "pitch": 42, 
                            "t0": 51239, 
                            "v": 95, 
                            "dur": 68, 
                            "type": "note", 
                            "channel": 0
                        }
                    ]
                ], 
                [
                    51321, 
                    [
                        {
                            "pitch": 43, 
                            "t0": 51321, 
                            "v": 72, 
                            "dur": 29, 
                            "type": "note", 
                            "channel": 0
                        }
                    ]
                ], 
                [
                    51360, 
                    [
                        {
                            "pitch": 31, 
                            "t0": 51360, 
                            "v": 108, 
                            "dur": 74, 
                            "type": "note", 
                            "channel": 0
                        }
                    ]
                ], 
                [
                    51442, 
                    [
                        {
                            "pitch": 43, 
                            "t0": 51442, 
                            "v": 70, 
                            "dur": 24, 
                            "type": "note", 
                            "channel": 0
                        }
                    ]
                ], 
                [
                    51480, 
                    [
                        {
                            "pitch": 33, 
                            "t0": 51480, 
                            "v": 112, 
                            "dur": 74, 
                            "type": "note", 
                            "channel": 0
                        }
                    ]
                ], 
                [
                    51554, 
                    [
                        {
                            "pitch": 45, 
                            "t0": 51554, 
                            "v": 73, 
                            "dur": 32, 
                            "type": "note", 
                            "channel": 0
                        }
                    ]
                ], 
                [
                    51596, 
                    [
                        {
                            "pitch": 34, 
                            "t0": 51596, 
                            "v": 97, 
                            "dur": 81, 
                            "type": "note", 
                            "channel": 0
                        }
                    ]
                ], 
                [
                    51679, 
                    [
                        {
                            "pitch": 46, 
                            "t0": 51679, 
                            "v": 78, 
                            "dur": 28, 
                            "type": "note", 
                            "channel": 0
                        }
                    ]
                ], 
                [
                    51713, 
                    [
                        {
                            "pitch": 35, 
                            "t0": 51713, 
                            "v": 98, 
                            "dur": 74, 
                            "type": "note", 
                            "channel": 0
                        }
                    ]
                ], 
                [
                    51795, 
                    [
                        {
                            "pitch": 47, 
                            "t0": 51795, 
                            "v": 73, 
                            "dur": 34, 
                            "type": "note", 
                            "channel": 0
                        }
                    ]
                ], 
                [
                    51838, 
                    [
                        {
                            "pitch": 36, 
                            "t0": 51838, 
                            "v": 88, 
                            "dur": 69, 
                            "type": "note", 
                            "channel": 0
                        }
                    ]
                ], 
                [
                    51915, 
                    [
                        {
                            "pitch": 48, 
                            "t0": 51915, 
                            "v": 65, 
                            "dur": 34, 
                            "type": "note", 
                            "channel": 0
                        }
                    ]
                ], 
                [
                    51958, 
                    [
                        {
                            "pitch": 40, 
                            "t0": 51958, 
                            "v": 90, 
                            "dur": 105, 
                            "type": "note", 
                            "channel": 0
                        }
                    ]
                ], 
                [
                    52075, 
                    [
                        {
                            "pitch": 41, 
                            "t0": 52075, 
                            "v": 100, 
                            "dur": 65, 
                            "type": "note", 
                            "channel": 0
                        }
                    ]
                ], 
                [
                    52155, 
                    [
                        {
                            "pitch": 41, 
                            "t0": 52155, 
                            "v": 72, 
                            "dur": 33, 
                            "type": "note", 
                            "channel": 0
                        }
                    ]
                ], 
                [
                    52198, 
                    [
                        {
                            "pitch": 42, 
                            "t0": 52198, 
                            "v": 95, 
                            "dur": 72, 
                            "type": "note", 
                            "channel": 0
                        }
                    ]
                ], 
                [
                    52280, 
                    [
                        {
                            "pitch": 43, 
                            "t0": 52280, 
                            "v": 84, 
                            "dur": 28, 
                            "type": "note", 
                            "channel": 0
                        }
                    ]
                ], 
                [
                    52320, 
                    [
                        {
                            "pitch": 31, 
                            "t0": 52320, 
                            "v": 110, 
                            "dur": 65, 
                            "type": "note", 
                            "channel": 0
                        }
                    ]
                ], 
                [
                    52398, 
                    [
                        {
                            "pitch": 31, 
                            "t0": 52398, 
                            "v": 88, 
                            "dur": 29, 
                            "type": "note", 
                            "channel": 0
                        }
                    ]
                ], 
                [
                    52434, 
                    [
                        {
                            "pitch": 35, 
                            "t0": 52434, 
                            "v": 90, 
                            "dur": 67, 
                            "type": "note", 
                            "channel": 0
                        }
                    ]
                ], 
                [
                    52516, 
                    [
                        {
                            "pitch": 35, 
                            "t0": 52516, 
                            "v": 73, 
                            "dur": 31, 
                            "type": "note", 
                            "channel": 0
                        }
                    ]
                ], 
                [
                    52556, 
                    [
                        {
                            "pitch": 36, 
                            "t0": 52556, 
                            "v": 97, 
                            "dur": 68, 
                            "type": "note", 
                            "channel": 0
                        }
                    ]
                ], 
                [
                    52638, 
                    [
                        {
                            "pitch": 36, 
                            "t0": 52638, 
                            "v": 75, 
                            "dur": 32, 
                            "type": "note", 
                            "channel": 0
                        }
                    ]
                ], 
                [
                    52678, 
                    [
                        {
                            "pitch": 36, 
                            "t0": 52678, 
                            "v": 66, 
                            "dur": 20, 
                            "type": "note", 
                            "channel": 0
                        }
                    ]
                ], 
                [
                    52684, 
                    [
                        {
                            "pitch": 37, 
                            "t0": 52684, 
                            "v": 89, 
                            "dur": 47, 
                            "type": "note", 
                            "channel": 0
                        }
                    ]
                ], 
                [
                    52748, 
                    [
                        {
                            "pitch": 37, 
                            "t0": 52748, 
                            "v": 75, 
                            "dur": 41, 
                            "type": "note", 
                            "channel": 0
                        }
                    ]
                ], 
                [
                    52797, 
                    [
                        {
                            "pitch": 38, 
                            "t0": 52797, 
                            "v": 91, 
                            "dur": 65, 
                            "type": "note", 
                            "channel": 0
                        }
                    ]
                ], 
                [
                    52877, 
                    [
                        {
                            "pitch": 38, 
                            "t0": 52877, 
                            "v": 84, 
                            "dur": 31, 
                            "type": "note", 
                            "channel": 0
                        }
                    ]
                ], 
                [
                    52914, 
                    [
                        {
                            "pitch": 36, 
                            "t0": 52914, 
                            "v": 88, 
                            "dur": 73, 
                            "type": "note", 
                            "channel": 0
                        }
                    ]
                ], 
                [
                    52997, 
                    [
                        {
                            "pitch": 36, 
                            "t0": 52997, 
                            "v": 81, 
                            "dur": 29, 
                            "type": "note", 
                            "channel": 0
                        }
                    ]
                ], 
                [
                    53035, 
                    [
                        {
                            "pitch": 35, 
                            "t0": 53035, 
                            "v": 98, 
                            "dur": 69, 
                            "type": "note", 
                            "channel": 0
                        }
                    ]
                ], 
                [
                    53121, 
                    [
                        {
                            "pitch": 35, 
                            "t0": 53121, 
                            "v": 86, 
                            "dur": 26, 
                            "type": "note", 
                            "channel": 0
                        }
                    ]
                ], 
                [
                    53158, 
                    [
                        {
                            "pitch": 33, 
                            "t0": 53158, 
                            "v": 97, 
                            "dur": 62, 
                            "type": "note", 
                            "channel": 0
                        }
                    ]
                ], 
                [
                    53233, 
                    [
                        {
                            "pitch": 33, 
                            "t0": 53233, 
                            "v": 92, 
                            "dur": 33, 
                            "type": "note", 
                            "channel": 0
                        }
                    ]
                ], 
                [
                    53278, 
                    [
                        {
                            "pitch": 31, 
                            "t0": 53278, 
                            "v": 104, 
                            "dur": 72, 
                            "type": "note", 
                            "channel": 0
                        }
                    ]
                ], 
                [
                    53360, 
                    [
                        {
                            "pitch": 31, 
                            "t0": 53360, 
                            "v": 88, 
                            "dur": 35, 
                            "type": "note", 
                            "channel": 0
                        }
                    ]
                ], 
                [
                    53402, 
                    [
                        {
                            "pitch": 43, 
                            "t0": 53402, 
                            "v": 85, 
                            "dur": 115, 
                            "type": "note", 
                            "channel": 0
                        }
                    ]
                ], 
                [
                    53522, 
                    [
                        {
                            "pitch": 40, 
                            "t0": 53522, 
                            "v": 91, 
                            "dur": 73, 
                            "type": "note", 
                            "channel": 0
                        }
                    ]
                ], 
                [
                    53608, 
                    [
                        {
                            "pitch": 38, 
                            "t0": 53608, 
                            "v": 91, 
                            "dur": 29, 
                            "type": "note", 
                            "channel": 0
                        }
                    ]
                ], 
                [
                    53644, 
                    [
                        {
                            "pitch": 35, 
                            "t0": 53644, 
                            "v": 108, 
                            "dur": 47, 
                            "type": "note", 
                            "channel": 0
                        }
                    ]
                ], 
                [
                    53760, 
                    [
                        {
                            "pitch": 31, 
                            "t0": 53760, 
                            "v": 106, 
                            "dur": 41, 
                            "type": "note", 
                            "channel": 0
                        }
                    ]
                ], 
                [
                    53884, 
                    [
                        {
                            "pitch": 31, 
                            "t0": 53884, 
                            "v": 108, 
                            "dur": 72, 
                            "type": "note", 
                            "channel": 0
                        }
                    ]
                ], 
                [
                    53964, 
                    [
                        {
                            "pitch": 43, 
                            "t0": 53964, 
                            "v": 69, 
                            "dur": 33, 
                            "type": "note", 
                            "channel": 0
                        }
                    ]
                ], 
                [
                    54011, 
                    [
                        {
                            "pitch": 33, 
                            "t0": 54011, 
                            "v": 117, 
                            "dur": 74, 
                            "type": "note", 
                            "channel": 0
                        }
                    ]
                ], 
                [
                    54097, 
                    [
                        {
                            "pitch": 45, 
                            "t0": 54097, 
                            "v": 59, 
                            "dur": 15, 
                            "type": "note", 
                            "channel": 0
                        }
                    ]
                ], 
                [
                    54133, 
                    [
                        {
                            "pitch": 35, 
                            "t0": 54133, 
                            "v": 108, 
                            "dur": 65, 
                            "type": "note", 
                            "channel": 0
                        }
                    ]
                ], 
                [
                    54212, 
                    [
                        {
                            "pitch": 47, 
                            "t0": 54212, 
                            "v": 52, 
                            "dur": 17, 
                            "type": "note", 
                            "channel": 0
                        }
                    ]
                ], 
                [
                    54249, 
                    [
                        {
                            "pitch": 36, 
                            "t0": 54249, 
                            "v": 97, 
                            "dur": 177, 
                            "type": "note", 
                            "channel": 0
                        }
                    ]
                ], 
                [
                    54438, 
                    [
                        {
                            "pitch": 36, 
                            "t0": 54438, 
                            "v": 73, 
                            "dur": 24, 
                            "type": "note", 
                            "channel": 0
                        }
                    ]
                ], 
                [
                    54478, 
                    [
                        {
                            "pitch": 31, 
                            "t0": 54478, 
                            "v": 92, 
                            "dur": 176, 
                            "type": "note", 
                            "channel": 0
                        }
                    ]
                ], 
                [
                    54674, 
                    [
                        {
                            "pitch": 31, 
                            "t0": 54674, 
                            "v": 79, 
                            "dur": 31, 
                            "type": "note", 
                            "channel": 0
                        }
                    ]
                ], 
                [
                    54716, 
                    [
                        {
                            "pitch": 36, 
                            "t0": 54716, 
                            "v": 90, 
                            "dur": 115, 
                            "type": "note", 
                            "channel": 0
                        }
                    ]
                ], 
                [
                    54838, 
                    [
                        {
                            "pitch": 28, 
                            "t0": 54838, 
                            "v": 100, 
                            "dur": 104, 
                            "type": "note", 
                            "channel": 0
                        }
                    ]
                ], 
                [
                    54958, 
                    [
                        {
                            "pitch": 29, 
                            "t0": 54958, 
                            "v": 92, 
                            "dur": 102, 
                            "type": "note", 
                            "channel": 0
                        }
                    ]
                ], 
                [
                    55078, 
                    [
                        {
                            "pitch": 30, 
                            "t0": 55078, 
                            "v": 89, 
                            "dur": 102, 
                            "type": "note", 
                            "channel": 0
                        }
                    ]
                ], 
                [
                    55201, 
                    [
                        {
                            "pitch": 31, 
                            "t0": 55201, 
                            "v": 91, 
                            "dur": 171, 
                            "type": "note", 
                            "channel": 0
                        }
                    ]
                ], 
                [
                    55395, 
                    [
                        {
                            "pitch": 31, 
                            "t0": 55395, 
                            "v": 76, 
                            "dur": 28, 
                            "type": "note", 
                            "channel": 0
                        }
                    ]
                ], 
                [
                    55434, 
                    [
                        {
                            "pitch": 38, 
                            "t0": 55434, 
                            "v": 79, 
                            "dur": 179, 
                            "type": "note", 
                            "channel": 0
                        }
                    ]
                ], 
                [
                    55637, 
                    [
                        {
                            "pitch": 38, 
                            "t0": 55637, 
                            "v": 67, 
                            "dur": 29, 
                            "type": "note", 
                            "channel": 0
                        }
                    ]
                ], 
                [
                    55675, 
                    [
                        {
                            "pitch": 31, 
                            "t0": 55675, 
                            "v": 95, 
                            "dur": 185, 
                            "type": "note", 
                            "channel": 0
                        }
                    ]
                ], 
                [
                    55888, 
                    [
                        {
                            "pitch": 38, 
                            "t0": 55888, 
                            "v": 85, 
                            "dur": 26, 
                            "type": "note", 
                            "channel": 0
                        }
                    ]
                ], 
                [
                    55922, 
                    [
                        {
                            "pitch": 31, 
                            "t0": 55922, 
                            "v": 100, 
                            "dur": 66, 
                            "type": "note", 
                            "channel": 0
                        }
                    ]
                ], 
                [
                    55999, 
                    [
                        {
                            "pitch": 43, 
                            "t0": 55999, 
                            "v": 70, 
                            "dur": 23, 
                            "type": "note", 
                            "channel": 0
                        }
                    ]
                ], 
                [
                    56039, 
                    [
                        {
                            "pitch": 32, 
                            "t0": 56039, 
                            "v": 91, 
                            "dur": 77, 
                            "type": "note", 
                            "channel": 0
                        }
                    ]
                ], 
                [
                    56122, 
                    [
                        {
                            "pitch": 44, 
                            "t0": 56122, 
                            "v": 67, 
                            "dur": 19, 
                            "type": "note", 
                            "channel": 0
                        }
                    ]
                ], 
                [
                    56155, 
                    [
                        {
                            "pitch": 33, 
                            "t0": 56155, 
                            "v": 104, 
                            "dur": 197, 
                            "type": "note", 
                            "channel": 0
                        }
                    ]
                ], 
                [
                    56364, 
                    [
                        {
                            "pitch": 45, 
                            "t0": 56364, 
                            "v": 74, 
                            "dur": 19, 
                            "type": "note", 
                            "channel": 0
                        }
                    ]
                ], 
                [
                    56399, 
                    [
                        {
                            "pitch": 40, 
                            "t0": 56399, 
                            "v": 84, 
                            "dur": 190, 
                            "type": "note", 
                            "channel": 0
                        }
                    ]
                ], 
                [
                    56602, 
                    [
                        {
                            "pitch": 40, 
                            "t0": 56602, 
                            "v": 80, 
                            "dur": 32, 
                            "type": "note", 
                            "channel": 0
                        }
                    ]
                ], 
                [
                    56643, 
                    [
                        {
                            "pitch": 45, 
                            "t0": 56643, 
                            "v": 92, 
                            "dur": 177, 
                            "type": "note", 
                            "channel": 0
                        }
                    ]
                ], 
                [
                    56841, 
                    [
                        {
                            "pitch": 45, 
                            "t0": 56841, 
                            "v": 80, 
                            "dur": 24, 
                            "type": "note", 
                            "channel": 0
                        }
                    ]
                ], 
                [
                    56875, 
                    [
                        {
                            "pitch": 40, 
                            "t0": 56875, 
                            "v": 84, 
                            "dur": 110, 
                            "type": "note", 
                            "channel": 0
                        }
                    ]
                ], 
                [
                    56995, 
                    [
                        {
                            "pitch": 39, 
                            "t0": 56995, 
                            "v": 73, 
                            "dur": 102, 
                            "type": "note", 
                            "channel": 0
                        }
                    ]
                ], 
                [
                    57113, 
                    [
                        {
                            "pitch": 38, 
                            "t0": 57113, 
                            "v": 81, 
                            "dur": 126, 
                            "type": "note", 
                            "channel": 0
                        }
                    ]
                ], 
                [
                    57247, 
                    [
                        {
                            "pitch": 50, 
                            "t0": 57247, 
                            "v": 83, 
                            "dur": 89, 
                            "type": "note", 
                            "channel": 0
                        }
                    ]
                ], 
                [
                    57367, 
                    [
                        {
                            "pitch": 48, 
                            "t0": 57367, 
                            "v": 85, 
                            "dur": 22, 
                            "type": "note", 
                            "channel": 0
                        }, 
                        {
                            "pitch": 47, 
                            "t0": 57367, 
                            "v": 79, 
                            "dur": 70, 
                            "type": "note", 
                            "channel": 0
                        }
                    ]
                ], 
                [
                    57443, 
                    [
                        {
                            "pitch": 45, 
                            "t0": 57443, 
                            "v": 90, 
                            "dur": 53, 
                            "type": "note", 
                            "channel": 0
                        }
                    ]
                ], 
                [
                    57561, 
                    [
                        {
                            "pitch": 42, 
                            "t0": 57561, 
                            "v": 82, 
                            "dur": 52, 
                            "type": "note", 
                            "channel": 0
                        }
                    ]
                ], 
                [
                    57669, 
                    [
                        {
                            "pitch": 40, 
                            "t0": 57669, 
                            "v": 76, 
                            "dur": 27, 
                            "type": "note", 
                            "channel": 0
                        }
                    ]
                ], 
                [
                    57709, 
                    [
                        {
                            "pitch": 38, 
                            "t0": 57709, 
                            "v": 98, 
                            "dur": 120, 
                            "type": "note", 
                            "channel": 0
                        }
                    ]
                ], 
                [
                    57840, 
                    [
                        {
                            "pitch": 38, 
                            "t0": 57840, 
                            "v": 81, 
                            "dur": 55, 
                            "type": "note", 
                            "channel": 0
                        }
                    ]
                ], 
                [
                    57960, 
                    [
                        {
                            "pitch": 37, 
                            "t0": 57960, 
                            "v": 93, 
                            "dur": 63, 
                            "type": "note", 
                            "channel": 0
                        }
                    ]
                ], 
                [
                    58082, 
                    [
                        {
                            "pitch": 36, 
                            "t0": 58082, 
                            "v": 98, 
                            "dur": 234, 
                            "type": "note", 
                            "channel": 0
                        }
                    ]
                ], 
                [
                    58329, 
                    [
                        {
                            "pitch": 31, 
                            "t0": 58329, 
                            "v": 87, 
                            "dur": 173, 
                            "type": "note", 
                            "channel": 0
                        }
                    ]
                ], 
                [
                    58520, 
                    [
                        {
                            "pitch": 31, 
                            "t0": 58520, 
                            "v": 80, 
                            "dur": 27, 
                            "type": "note", 
                            "channel": 0
                        }
                    ]
                ], 
                [
                    58560, 
                    [
                        {
                            "pitch": 36, 
                            "t0": 58560, 
                            "v": 64, 
                            "dur": 61, 
                            "type": "note", 
                            "channel": 0
                        }
                    ]
                ], 
                [
                    58626, 
                    [
                        {
                            "pitch": 28, 
                            "t0": 58626, 
                            "v": 100, 
                            "dur": 174, 
                            "type": "note", 
                            "channel": 0
                        }
                    ]
                ], 
                [
                    58800, 
                    [
                        {
                            "pitch": 29, 
                            "t0": 58800, 
                            "v": 85, 
                            "dur": 107, 
                            "type": "note", 
                            "channel": 0
                        }
                    ]
                ], 
                [
                    58919, 
                    [
                        {
                            "pitch": 30, 
                            "t0": 58919, 
                            "v": 95, 
                            "dur": 97, 
                            "type": "note", 
                            "channel": 0
                        }
                    ]
                ], 
                [
                    59038, 
                    [
                        {
                            "pitch": 31, 
                            "t0": 59038, 
                            "v": 94, 
                            "dur": 186, 
                            "type": "note", 
                            "channel": 0
                        }
                    ]
                ], 
                [
                    59244, 
                    [
                        {
                            "pitch": 31, 
                            "t0": 59244, 
                            "v": 86, 
                            "dur": 28, 
                            "type": "note", 
                            "channel": 0
                        }
                    ]
                ], 
                [
                    59275, 
                    [
                        {
                            "pitch": 33, 
                            "t0": 59275, 
                            "v": 92, 
                            "dur": 114, 
                            "type": "note", 
                            "channel": 0
                        }
                    ]
                ], 
                [
                    59404, 
                    [
                        {
                            "pitch": 35, 
                            "t0": 59404, 
                            "v": 87, 
                            "dur": 103, 
                            "type": "note", 
                            "channel": 0
                        }
                    ]
                ], 
                [
                    59519, 
                    [
                        {
                            "pitch": 36, 
                            "t0": 59519, 
                            "v": 88, 
                            "dur": 174, 
                            "type": "note", 
                            "channel": 0
                        }
                    ]
                ], 
                [
                    59717, 
                    [
                        {
                            "pitch": 36, 
                            "t0": 59717, 
                            "v": 72, 
                            "dur": 26, 
                            "type": "note", 
                            "channel": 0
                        }
                    ]
                ], 
                [
                    59749, 
                    [
                        {
                            "pitch": 28, 
                            "t0": 59749, 
                            "v": 87, 
                            "dur": 108, 
                            "type": "note", 
                            "channel": 0
                        }
                    ]
                ], 
                [
                    59874, 
                    [
                        {
                            "pitch": 30, 
                            "t0": 59874, 
                            "v": 84, 
                            "dur": 108, 
                            "type": "note", 
                            "channel": 0
                        }
                    ]
                ], 
                [
                    59996, 
                    [
                        {
                            "pitch": 31, 
                            "t0": 59996, 
                            "v": 95, 
                            "dur": 178, 
                            "type": "note", 
                            "channel": 0
                        }
                    ]
                ], 
                [
                    60200, 
                    [
                        {
                            "pitch": 31, 
                            "t0": 60200, 
                            "v": 88, 
                            "dur": 26, 
                            "type": "note", 
                            "channel": 0
                        }
                    ]
                ], 
                [
                    60237, 
                    [
                        {
                            "pitch": 35, 
                            "t0": 60237, 
                            "v": 95, 
                            "dur": 110, 
                            "type": "note", 
                            "channel": 0
                        }
                    ]
                ], 
                [
                    60360, 
                    [
                        {
                            "pitch": 36, 
                            "t0": 60360, 
                            "v": 92, 
                            "dur": 108, 
                            "type": "note", 
                            "channel": 0
                        }
                    ]
                ], 
                [
                    60482, 
                    [
                        {
                            "pitch": 38, 
                            "t0": 60482, 
                            "v": 95, 
                            "dur": 225, 
                            "type": "note", 
                            "channel": 0
                        }
                    ]
                ], 
                [
                    60716, 
                    [
                        {
                            "pitch": 33, 
                            "t0": 60716, 
                            "v": 102, 
                            "dur": 214, 
                            "type": "note", 
                            "channel": 0
                        }
                    ]
                ], 
                [
                    60957, 
                    [
                        {
                            "pitch": 31, 
                            "t0": 60957, 
                            "v": 88, 
                            "dur": 107, 
                            "type": "note", 
                            "channel": 0
                        }
                    ]
                ], 
                [
                    61074, 
                    [
                        {
                            "pitch": 43, 
                            "t0": 61074, 
                            "v": 95, 
                            "dur": 116, 
                            "type": "note", 
                            "channel": 0
                        }
                    ]
                ], 
                [
                    61203, 
                    [
                        {
                            "pitch": 40, 
                            "t0": 61203, 
                            "v": 100, 
                            "dur": 63, 
                            "type": "note", 
                            "channel": 0
                        }
                    ]
                ], 
                [
                    61282, 
                    [
                        {
                            "pitch": 38, 
                            "t0": 61282, 
                            "v": 84, 
                            "dur": 26, 
                            "type": "note", 
                            "channel": 0
                        }
                    ]
                ], 
                [
                    61320, 
                    [
                        {
                            "pitch": 35, 
                            "t0": 61320, 
                            "v": 114, 
                            "dur": 75, 
                            "type": "note", 
                            "channel": 0
                        }
                    ]
                ], 
                [
                    61440, 
                    [
                        {
                            "pitch": 31, 
                            "t0": 61440, 
                            "v": 122, 
                            "dur": 40, 
                            "type": "note", 
                            "channel": 0
                        }
                    ]
                ], 
                [
                    61919, 
                    [
                        {
                            "pitch": 31, 
                            "t0": 61919, 
                            "v": 90, 
                            "dur": 68, 
                            "type": "note", 
                            "channel": 0
                        }
                    ]
                ], 
                [
                    61993, 
                    [
                        {
                            "pitch": 43, 
                            "t0": 61993, 
                            "v": 66, 
                            "dur": 19, 
                            "type": "note", 
                            "channel": 0
                        }
                    ]
                ], 
                [
                    62035, 
                    [
                        {
                            "pitch": 33, 
                            "t0": 62035, 
                            "v": 104, 
                            "dur": 85, 
                            "type": "note", 
                            "channel": 0
                        }
                    ]
                ], 
                [
                    62127, 
                    [
                        {
                            "pitch": 45, 
                            "t0": 62127, 
                            "v": 69, 
                            "dur": 25, 
                            "type": "note", 
                            "channel": 0
                        }
                    ]
                ], 
                [
                    62166, 
                    [
                        {
                            "pitch": 34, 
                            "t0": 62166, 
                            "v": 87, 
                            "dur": 73, 
                            "type": "note", 
                            "channel": 0
                        }
                    ]
                ], 
                [
                    62244, 
                    [
                        {
                            "pitch": 46, 
                            "t0": 62244, 
                            "v": 71, 
                            "dur": 19, 
                            "type": "note", 
                            "channel": 0
                        }
                    ]
                ], 
                [
                    62279, 
                    [
                        {
                            "pitch": 35, 
                            "t0": 62279, 
                            "v": 92, 
                            "dur": 74, 
                            "type": "note", 
                            "channel": 0
                        }
                    ]
                ], 
                [
                    62359, 
                    [
                        {
                            "pitch": 47, 
                            "t0": 62359, 
                            "v": 60, 
                            "dur": 21, 
                            "type": "note", 
                            "channel": 0
                        }
                    ]
                ], 
                [
                    62396, 
                    [
                        {
                            "pitch": 36, 
                            "t0": 62396, 
                            "v": 85, 
                            "dur": 67, 
                            "type": "note", 
                            "channel": 0
                        }
                    ]
                ], 
                [
                    62473, 
                    [
                        {
                            "pitch": 48, 
                            "t0": 62473, 
                            "v": 72, 
                            "dur": 28, 
                            "type": "note", 
                            "channel": 0
                        }
                    ]
                ], 
                [
                    62513, 
                    [
                        {
                            "pitch": 40, 
                            "t0": 62513, 
                            "v": 76, 
                            "dur": 76, 
                            "type": "note", 
                            "channel": 0
                        }
                    ]
                ], 
                [
                    62600, 
                    [
                        {
                            "pitch": 40, 
                            "t0": 62600, 
                            "v": 80, 
                            "dur": 27, 
                            "type": "note", 
                            "channel": 0
                        }
                    ]
                ], 
                [
                    62638, 
                    [
                        {
                            "pitch": 41, 
                            "t0": 62638, 
                            "v": 90, 
                            "dur": 73, 
                            "type": "note", 
                            "channel": 0
                        }
                    ]
                ], 
                [
                    62719, 
                    [
                        {
                            "pitch": 41, 
                            "t0": 62719, 
                            "v": 66, 
                            "dur": 49, 
                            "type": "note", 
                            "channel": 0
                        }
                    ]
                ], 
                [
                    62763, 
                    [
                        {
                            "pitch": 42, 
                            "t0": 62763, 
                            "v": 82, 
                            "dur": 59, 
                            "type": "note", 
                            "channel": 0
                        }
                    ]
                ], 
                [
                    62835, 
                    [
                        {
                            "pitch": 42, 
                            "t0": 62835, 
                            "v": 67, 
                            "dur": 35, 
                            "type": "note", 
                            "channel": 0
                        }
                    ]
                ], 
                [
                    62876, 
                    [
                        {
                            "pitch": 43, 
                            "t0": 62876, 
                            "v": 87, 
                            "dur": 65, 
                            "type": "note", 
                            "channel": 0
                        }
                    ]
                ], 
                [
                    62954, 
                    [
                        {
                            "pitch": 43, 
                            "t0": 62954, 
                            "v": 67, 
                            "dur": 43, 
                            "type": "note", 
                            "channel": 0
                        }
                    ]
                ], 
                [
                    62993, 
                    [
                        {
                            "pitch": 40, 
                            "t0": 62993, 
                            "v": 95, 
                            "dur": 74, 
                            "type": "note", 
                            "channel": 0
                        }
                    ]
                ], 
                [
                    63077, 
                    [
                        {
                            "pitch": 40, 
                            "t0": 63077, 
                            "v": 69, 
                            "dur": 24, 
                            "type": "note", 
                            "channel": 0
                        }
                    ]
                ], 
                [
                    63114, 
                    [
                        {
                            "pitch": 38, 
                            "t0": 63114, 
                            "v": 91, 
                            "dur": 65, 
                            "type": "note", 
                            "channel": 0
                        }
                    ]
                ], 
                [
                    63197, 
                    [
                        {
                            "pitch": 38, 
                            "t0": 63197, 
                            "v": 75, 
                            "dur": 32, 
                            "type": "note", 
                            "channel": 0
                        }
                    ]
                ], 
                [
                    63239, 
                    [
                        {
                            "pitch": 35, 
                            "t0": 63239, 
                            "v": 100, 
                            "dur": 62, 
                            "type": "note", 
                            "channel": 0
                        }
                    ]
                ], 
                [
                    63317, 
                    [
                        {
                            "pitch": 35, 
                            "t0": 63317, 
                            "v": 73, 
                            "dur": 27, 
                            "type": "note", 
                            "channel": 0
                        }
                    ]
                ], 
                [
                    63355, 
                    [
                        {
                            "pitch": 31, 
                            "t0": 63355, 
                            "v": 92, 
                            "dur": 69, 
                            "type": "note", 
                            "channel": 0
                        }
                    ]
                ], 
                [
                    63438, 
                    [
                        {
                            "pitch": 31, 
                            "t0": 63438, 
                            "v": 83, 
                            "dur": 33, 
                            "type": "note", 
                            "channel": 0
                        }
                    ]
                ], 
                [
                    63480, 
                    [
                        {
                            "pitch": 38, 
                            "t0": 63480, 
                            "v": 92, 
                            "dur": 61, 
                            "type": "note", 
                            "channel": 0
                        }
                    ]
                ], 
                [
                    63555, 
                    [
                        {
                            "pitch": 38, 
                            "t0": 63555, 
                            "v": 64, 
                            "dur": 52, 
                            "type": "note", 
                            "channel": 0
                        }
                    ]
                ], 
                [
                    63597, 
                    [
                        {
                            "pitch": 40, 
                            "t0": 63597, 
                            "v": 95, 
                            "dur": 71, 
                            "type": "note", 
                            "channel": 0
                        }
                    ]
                ], 
                [
                    63680, 
                    [
                        {
                            "pitch": 40, 
                            "t0": 63680, 
                            "v": 86, 
                            "dur": 35, 
                            "type": "note", 
                            "channel": 0
                        }
                    ]
                ], 
                [
                    63717, 
                    [
                        {
                            "pitch": 42, 
                            "t0": 63717, 
                            "v": 95, 
                            "dur": 70, 
                            "type": "note", 
                            "channel": 0
                        }
                    ]
                ], 
                [
                    63799, 
                    [
                        {
                            "pitch": 42, 
                            "t0": 63799, 
                            "v": 72, 
                            "dur": 30, 
                            "type": "note", 
                            "channel": 0
                        }
                    ]
                ], 
                [
                    63836, 
                    [
                        {
                            "pitch": 43, 
                            "t0": 63836, 
                            "v": 86, 
                            "dur": 69, 
                            "type": "note", 
                            "channel": 0
                        }
                    ]
                ], 
                [
                    63919, 
                    [
                        {
                            "pitch": 43, 
                            "t0": 63919, 
                            "v": 81, 
                            "dur": 29, 
                            "type": "note", 
                            "channel": 0
                        }
                    ]
                ], 
                [
                    63956, 
                    [
                        {
                            "pitch": 40, 
                            "t0": 63956, 
                            "v": 81, 
                            "dur": 74, 
                            "type": "note", 
                            "channel": 0
                        }
                    ]
                ], 
                [
                    64041, 
                    [
                        {
                            "pitch": 40, 
                            "t0": 64041, 
                            "v": 74, 
                            "dur": 25, 
                            "type": "note", 
                            "channel": 0
                        }
                    ]
                ], 
                [
                    64078, 
                    [
                        {
                            "pitch": 38, 
                            "t0": 64078, 
                            "v": 88, 
                            "dur": 66, 
                            "type": "note", 
                            "channel": 0
                        }
                    ]
                ], 
                [
                    64157, 
                    [
                        {
                            "pitch": 38, 
                            "t0": 64157, 
                            "v": 65, 
                            "dur": 39, 
                            "type": "note", 
                            "channel": 0
                        }
                    ]
                ], 
                [
                    64199, 
                    [
                        {
                            "pitch": 35, 
                            "t0": 64199, 
                            "v": 98, 
                            "dur": 70, 
                            "type": "note", 
                            "channel": 0
                        }
                    ]
                ], 
                [
                    64282, 
                    [
                        {
                            "pitch": 35, 
                            "t0": 64282, 
                            "v": 80, 
                            "dur": 30, 
                            "type": "note", 
                            "channel": 0
                        }
                    ]
                ], 
                [
                    64314, 
                    [
                        {
                            "pitch": 31, 
                            "t0": 64314, 
                            "v": 90, 
                            "dur": 70, 
                            "type": "note", 
                            "channel": 0
                        }
                    ]
                ], 
                [
                    64398, 
                    [
                        {
                            "pitch": 31, 
                            "t0": 64398, 
                            "v": 80, 
                            "dur": 33, 
                            "type": "note", 
                            "channel": 0
                        }
                    ]
                ], 
                [
                    64435, 
                    [
                        {
                            "pitch": 35, 
                            "t0": 64435, 
                            "v": 92, 
                            "dur": 115, 
                            "type": "note", 
                            "channel": 0
                        }
                    ]
                ], 
                [
                    64558, 
                    [
                        {
                            "pitch": 36, 
                            "t0": 64558, 
                            "v": 94, 
                            "dur": 64, 
                            "type": "note", 
                            "channel": 0
                        }
                    ]
                ], 
                [
                    64638, 
                    [
                        {
                            "pitch": 36, 
                            "t0": 64638, 
                            "v": 78, 
                            "dur": 30, 
                            "type": "note", 
                            "channel": 0
                        }
                    ]
                ], 
                [
                    64677, 
                    [
                        {
                            "pitch": 37, 
                            "t0": 64677, 
                            "v": 89, 
                            "dur": 65, 
                            "type": "note", 
                            "channel": 0
                        }
                    ]
                ], 
                [
                    64757, 
                    [
                        {
                            "pitch": 37, 
                            "t0": 64757, 
                            "v": 58, 
                            "dur": 42, 
                            "type": "note", 
                            "channel": 0
                        }
                    ]
                ], 
                [
                    64797, 
                    [
                        {
                            "pitch": 38, 
                            "t0": 64797, 
                            "v": 90, 
                            "dur": 127, 
                            "type": "note", 
                            "channel": 0
                        }
                    ]
                ], 
                [
                    64927, 
                    [
                        {
                            "pitch": 42, 
                            "t0": 64927, 
                            "v": 101, 
                            "dur": 103, 
                            "type": "note", 
                            "channel": 0
                        }
                    ]
                ], 
                [
                    65042, 
                    [
                        {
                            "pitch": 45, 
                            "t0": 65042, 
                            "v": 98, 
                            "dur": 110, 
                            "type": "note", 
                            "channel": 0
                        }
                    ]
                ], 
                [
                    65163, 
                    [
                        {
                            "pitch": 42, 
                            "t0": 65163, 
                            "v": 101, 
                            "dur": 105, 
                            "type": "note", 
                            "channel": 0
                        }
                    ]
                ], 
                [
                    65281, 
                    [
                        {
                            "pitch": 38, 
                            "t0": 65281, 
                            "v": 90, 
                            "dur": 66, 
                            "type": "note", 
                            "channel": 0
                        }
                    ]
                ], 
                [
                    65357, 
                    [
                        {
                            "pitch": 38, 
                            "t0": 65357, 
                            "v": 84, 
                            "dur": 31, 
                            "type": "note", 
                            "channel": 0
                        }
                    ]
                ], 
                [
                    65397, 
                    [
                        {
                            "pitch": 40, 
                            "t0": 65397, 
                            "v": 94, 
                            "dur": 77, 
                            "type": "note", 
                            "channel": 0
                        }
                    ]
                ], 
                [
                    65486, 
                    [
                        {
                            "pitch": 40, 
                            "t0": 65486, 
                            "v": 80, 
                            "dur": 30, 
                            "type": "note", 
                            "channel": 0
                        }
                    ]
                ], 
                [
                    65521, 
                    [
                        {
                            "pitch": 41, 
                            "t0": 65521, 
                            "v": 90, 
                            "dur": 71, 
                            "type": "note", 
                            "channel": 0
                        }
                    ]
                ], 
                [
                    65597, 
                    [
                        {
                            "pitch": 41, 
                            "t0": 65597, 
                            "v": 52, 
                            "dur": 35, 
                            "type": "note", 
                            "channel": 0
                        }
                    ]
                ], 
                [
                    65639, 
                    [
                        {
                            "pitch": 42, 
                            "t0": 65639, 
                            "v": 101, 
                            "dur": 67, 
                            "type": "note", 
                            "channel": 0
                        }
                    ]
                ], 
                [
                    65719, 
                    [
                        {
                            "pitch": 43, 
                            "t0": 65719, 
                            "v": 80, 
                            "dur": 20, 
                            "type": "note", 
                            "channel": 0
                        }
                    ]
                ], 
                [
                    65755, 
                    [
                        {
                            "pitch": 31, 
                            "t0": 65755, 
                            "v": 90, 
                            "dur": 77, 
                            "type": "note", 
                            "channel": 0
                        }
                    ]
                ], 
                [
                    65758, 
                    [
                        {
                            "pitch": 33, 
                            "t0": 65758, 
                            "v": 88, 
                            "dur": 7, 
                            "type": "note", 
                            "channel": 0
                        }
                    ]
                ], 
                [
                    65843, 
                    [
                        {
                            "pitch": 31, 
                            "t0": 65843, 
                            "v": 85, 
                            "dur": 27, 
                            "type": "note", 
                            "channel": 0
                        }
                    ]
                ], 
                [
                    65880, 
                    [
                        {
                            "pitch": 33, 
                            "t0": 65880, 
                            "v": 106, 
                            "dur": 109, 
                            "type": "note", 
                            "channel": 0
                        }
                    ]
                ], 
                [
                    66004, 
                    [
                        {
                            "pitch": 34, 
                            "t0": 66004, 
                            "v": 97, 
                            "dur": 99, 
                            "type": "note", 
                            "channel": 0
                        }
                    ]
                ], 
                [
                    66118, 
                    [
                        {
                            "pitch": 35, 
                            "t0": 66118, 
                            "v": 106, 
                            "dur": 104, 
                            "type": "note", 
                            "channel": 0
                        }
                    ]
                ], 
                [
                    66237, 
                    [
                        {
                            "pitch": 36, 
                            "t0": 66237, 
                            "v": 94, 
                            "dur": 106, 
                            "type": "note", 
                            "channel": 0
                        }
                    ]
                ], 
                [
                    66355, 
                    [
                        {
                            "pitch": 40, 
                            "t0": 66355, 
                            "v": 106, 
                            "dur": 71, 
                            "type": "note", 
                            "channel": 0
                        }
                    ]
                ], 
                [
                    66438, 
                    [
                        {
                            "pitch": 40, 
                            "t0": 66438, 
                            "v": 74, 
                            "dur": 26, 
                            "type": "note", 
                            "channel": 0
                        }
                    ]
                ], 
                [
                    66474, 
                    [
                        {
                            "pitch": 41, 
                            "t0": 66474, 
                            "v": 100, 
                            "dur": 68, 
                            "type": "note", 
                            "channel": 0
                        }
                    ]
                ], 
                [
                    66557, 
                    [
                        {
                            "pitch": 41, 
                            "t0": 66557, 
                            "v": 81, 
                            "dur": 31, 
                            "type": "note", 
                            "channel": 0
                        }
                    ]
                ], 
                [
                    66599, 
                    [
                        {
                            "pitch": 42, 
                            "t0": 66599, 
                            "v": 95, 
                            "dur": 69, 
                            "type": "note", 
                            "channel": 0
                        }
                    ]
                ], 
                [
                    66680, 
                    [
                        {
                            "pitch": 43, 
                            "t0": 66680, 
                            "v": 81, 
                            "dur": 28, 
                            "type": "note", 
                            "channel": 0
                        }
                    ]
                ], 
                [
                    66716, 
                    [
                        {
                            "pitch": 31, 
                            "t0": 66716, 
                            "v": 112, 
                            "dur": 69, 
                            "type": "note", 
                            "channel": 0
                        }
                    ]
                ], 
                [
                    66798, 
                    [
                        {
                            "pitch": 31, 
                            "t0": 66798, 
                            "v": 81, 
                            "dur": 42, 
                            "type": "note", 
                            "channel": 0
                        }
                    ]
                ], 
                [
                    66840, 
                    [
                        {
                            "pitch": 33, 
                            "t0": 66840, 
                            "v": 100, 
                            "dur": 109, 
                            "type": "note", 
                            "channel": 0
                        }
                    ]
                ], 
                [
                    66963, 
                    [
                        {
                            "pitch": 34, 
                            "t0": 66963, 
                            "v": 99, 
                            "dur": 104, 
                            "type": "note", 
                            "channel": 0
                        }
                    ]
                ], 
                [
                    67082, 
                    [
                        {
                            "pitch": 35, 
                            "t0": 67082, 
                            "v": 106, 
                            "dur": 54, 
                            "type": "note", 
                            "channel": 0
                        }
                    ]
                ], 
                [
                    67149, 
                    [
                        {
                            "pitch": 36, 
                            "t0": 67149, 
                            "v": 98, 
                            "dur": 116, 
                            "type": "note", 
                            "channel": 0
                        }
                    ]
                ], 
                [
                    67280, 
                    [
                        {
                            "pitch": 36, 
                            "t0": 67280, 
                            "v": 87, 
                            "dur": 33, 
                            "type": "note", 
                            "channel": 0
                        }
                    ]
                ], 
                [
                    67321, 
                    [
                        {
                            "pitch": 45, 
                            "t0": 67321, 
                            "v": 84, 
                            "dur": 101, 
                            "type": "note", 
                            "channel": 0
                        }
                    ]
                ], 
                [
                    67324, 
                    [
                        {
                            "pitch": 43, 
                            "t0": 67324, 
                            "v": 83, 
                            "dur": 7, 
                            "type": "note", 
                            "channel": 0
                        }
                    ]
                ], 
                [
                    67443, 
                    [
                        {
                            "pitch": 43, 
                            "t0": 67443, 
                            "v": 110, 
                            "dur": 105, 
                            "type": "note", 
                            "channel": 0
                        }
                    ]
                ], 
                [
                    67567, 
                    [
                        {
                            "pitch": 40, 
                            "t0": 67567, 
                            "v": 90, 
                            "dur": 32, 
                            "type": "note", 
                            "channel": 0
                        }
                    ]
                ], 
                [
                    67615, 
                    [
                        {
                            "pitch": 38, 
                            "t0": 67615, 
                            "v": 78, 
                            "dur": 28, 
                            "type": "note", 
                            "channel": 0
                        }
                    ]
                ], 
                [
                    67642, 
                    [
                        {
                            "pitch": 35, 
                            "t0": 67642, 
                            "v": 92, 
                            "dur": 20, 
                            "type": "note", 
                            "channel": 0
                        }
                    ]
                ], 
                [
                    67679, 
                    [
                        {
                            "pitch": 33, 
                            "t0": 67679, 
                            "v": 98, 
                            "dur": 48, 
                            "type": "note", 
                            "channel": 0
                        }, 
                        {
                            "pitch": 31, 
                            "t0": 67679, 
                            "v": 92, 
                            "dur": 119, 
                            "type": "note", 
                            "channel": 0
                        }
                    ]
                ], 
                [
                    67799, 
                    [
                        {
                            "pitch": 35, 
                            "t0": 67799, 
                            "v": 95, 
                            "dur": 108, 
                            "type": "note", 
                            "channel": 0
                        }
                    ]
                ], 
                [
                    67919, 
                    [
                        {
                            "pitch": 36, 
                            "t0": 67919, 
                            "v": 92, 
                            "dur": 106, 
                            "type": "note", 
                            "channel": 0
                        }
                    ]
                ], 
                [
                    68037, 
                    [
                        {
                            "pitch": 37, 
                            "t0": 68037, 
                            "v": 85, 
                            "dur": 107, 
                            "type": "note", 
                            "channel": 0
                        }
                    ]
                ], 
                [
                    68156, 
                    [
                        {
                            "pitch": 38, 
                            "t0": 68156, 
                            "v": 92, 
                            "dur": 62, 
                            "type": "note", 
                            "channel": 0
                        }
                    ]
                ], 
                [
                    68233, 
                    [
                        {
                            "pitch": 38, 
                            "t0": 68233, 
                            "v": 81, 
                            "dur": 32, 
                            "type": "note", 
                            "channel": 0
                        }
                    ]
                ], 
                [
                    68273, 
                    [
                        {
                            "pitch": 36, 
                            "t0": 68273, 
                            "v": 83, 
                            "dur": 112, 
                            "type": "note", 
                            "channel": 0
                        }
                    ]
                ], 
                [
                    68398, 
                    [
                        {
                            "pitch": 35, 
                            "t0": 68398, 
                            "v": 97, 
                            "dur": 102, 
                            "type": "note", 
                            "channel": 0
                        }
                    ]
                ], 
                [
                    68516, 
                    [
                        {
                            "pitch": 33, 
                            "t0": 68516, 
                            "v": 97, 
                            "dur": 79, 
                            "type": "note", 
                            "channel": 0
                        }
                    ]
                ], 
                [
                    68599, 
                    [
                        {
                            "pitch": 43, 
                            "t0": 68599, 
                            "v": 54, 
                            "dur": 29, 
                            "type": "note", 
                            "channel": 0
                        }
                    ]
                ], 
                [
                    68637, 
                    [
                        {
                            "pitch": 31, 
                            "t0": 68637, 
                            "v": 104, 
                            "dur": 77, 
                            "type": "note", 
                            "channel": 0
                        }
                    ]
                ], 
                [
                    68719, 
                    [
                        {
                            "pitch": 43, 
                            "t0": 68719, 
                            "v": 84, 
                            "dur": 26, 
                            "type": "note", 
                            "channel": 0
                        }
                    ]
                ], 
                [
                    68760, 
                    [
                        {
                            "pitch": 33, 
                            "t0": 68760, 
                            "v": 106, 
                            "dur": 74, 
                            "type": "note", 
                            "channel": 0
                        }
                    ]
                ], 
                [
                    68839, 
                    [
                        {
                            "pitch": 45, 
                            "t0": 68839, 
                            "v": 70, 
                            "dur": 33, 
                            "type": "note", 
                            "channel": 0
                        }
                    ]
                ], 
                [
                    68882, 
                    [
                        {
                            "pitch": 34, 
                            "t0": 68882, 
                            "v": 104, 
                            "dur": 81, 
                            "type": "note", 
                            "channel": 0
                        }
                    ]
                ], 
                [
                    68960, 
                    [
                        {
                            "pitch": 46, 
                            "t0": 68960, 
                            "v": 75, 
                            "dur": 28, 
                            "type": "note", 
                            "channel": 0
                        }
                    ]
                ], 
                [
                    68999, 
                    [
                        {
                            "pitch": 35, 
                            "t0": 68999, 
                            "v": 98, 
                            "dur": 55, 
                            "type": "note", 
                            "channel": 0
                        }
                    ]
                ], 
                [
                    69071, 
                    [
                        {
                            "pitch": 36, 
                            "t0": 69071, 
                            "v": 104, 
                            "dur": 114, 
                            "type": "note", 
                            "channel": 0
                        }
                    ]
                ], 
                [
                    69199, 
                    [
                        {
                            "pitch": 36, 
                            "t0": 69199, 
                            "v": 85, 
                            "dur": 31, 
                            "type": "note", 
                            "channel": 0
                        }
                    ]
                ], 
                [
                    69238, 
                    [
                        {
                            "pitch": 45, 
                            "t0": 69238, 
                            "v": 104, 
                            "dur": 102, 
                            "type": "note", 
                            "channel": 0
                        }
                    ]
                ], 
                [
                    69359, 
                    [
                        {
                            "pitch": 43, 
                            "t0": 69359, 
                            "v": 114, 
                            "dur": 108, 
                            "type": "note", 
                            "channel": 0
                        }
                    ]
                ], 
                [
                    69486, 
                    [
                        {
                            "pitch": 40, 
                            "t0": 69486, 
                            "v": 98, 
                            "dur": 30, 
                            "type": "note", 
                            "channel": 0
                        }
                    ]
                ], 
                [
                    69530, 
                    [
                        {
                            "pitch": 38, 
                            "t0": 69530, 
                            "v": 90, 
                            "dur": 42, 
                            "type": "note", 
                            "channel": 0
                        }
                    ]
                ], 
                [
                    69564, 
                    [
                        {
                            "pitch": 35, 
                            "t0": 69564, 
                            "v": 95, 
                            "dur": 21, 
                            "type": "note", 
                            "channel": 0
                        }
                    ]
                ], 
                [
                    69592, 
                    [
                        {
                            "pitch": 31, 
                            "t0": 69592, 
                            "v": 112, 
                            "dur": 78, 
                            "type": "note", 
                            "channel": 0
                        }
                    ]
                ], 
                [
                    69679, 
                    [
                        {
                            "pitch": 31, 
                            "t0": 69679, 
                            "v": 84, 
                            "dur": 32, 
                            "type": "note", 
                            "channel": 0
                        }
                    ]
                ], 
                [
                    69719, 
                    [
                        {
                            "pitch": 35, 
                            "t0": 69719, 
                            "v": 95, 
                            "dur": 72, 
                            "type": "note", 
                            "channel": 0
                        }
                    ]
                ], 
                [
                    69798, 
                    [
                        {
                            "pitch": 35, 
                            "t0": 69798, 
                            "v": 73, 
                            "dur": 27, 
                            "type": "note", 
                            "channel": 0
                        }
                    ]
                ], 
                [
                    69837, 
                    [
                        {
                            "pitch": 36, 
                            "t0": 69837, 
                            "v": 102, 
                            "dur": 71, 
                            "type": "note", 
                            "channel": 0
                        }
                    ]
                ], 
                [
                    69916, 
                    [
                        {
                            "pitch": 36, 
                            "t0": 69916, 
                            "v": 62, 
                            "dur": 30, 
                            "type": "note", 
                            "channel": 0
                        }
                    ]
                ], 
                [
                    69954, 
                    [
                        {
                            "pitch": 37, 
                            "t0": 69954, 
                            "v": 97, 
                            "dur": 69, 
                            "type": "note", 
                            "channel": 0
                        }
                    ]
                ], 
                [
                    70035, 
                    [
                        {
                            "pitch": 37, 
                            "t0": 70035, 
                            "v": 73, 
                            "dur": 37, 
                            "type": "note", 
                            "channel": 0
                        }
                    ]
                ], 
                [
                    70073, 
                    [
                        {
                            "pitch": 38, 
                            "t0": 70073, 
                            "v": 85, 
                            "dur": 64, 
                            "type": "note", 
                            "channel": 0
                        }
                    ]
                ], 
                [
                    70152, 
                    [
                        {
                            "pitch": 38, 
                            "t0": 70152, 
                            "v": 85, 
                            "dur": 34, 
                            "type": "note", 
                            "channel": 0
                        }
                    ]
                ], 
                [
                    70190, 
                    [
                        {
                            "pitch": 36, 
                            "t0": 70190, 
                            "v": 91, 
                            "dur": 70, 
                            "type": "note", 
                            "channel": 0
                        }
                    ]
                ], 
                [
                    70273, 
                    [
                        {
                            "pitch": 36, 
                            "t0": 70273, 
                            "v": 75, 
                            "dur": 33, 
                            "type": "note", 
                            "channel": 0
                        }
                    ]
                ], 
                [
                    70311, 
                    [
                        {
                            "pitch": 35, 
                            "t0": 70311, 
                            "v": 97, 
                            "dur": 74, 
                            "type": "note", 
                            "channel": 0
                        }
                    ]
                ], 
                [
                    70397, 
                    [
                        {
                            "pitch": 35, 
                            "t0": 70397, 
                            "v": 94, 
                            "dur": 30, 
                            "type": "note", 
                            "channel": 0
                        }
                    ]
                ], 
                [
                    70437, 
                    [
                        {
                            "pitch": 33, 
                            "t0": 70437, 
                            "v": 97, 
                            "dur": 113, 
                            "type": "note", 
                            "channel": 0
                        }
                    ]
                ], 
                [
                    70559, 
                    [
                        {
                            "pitch": 31, 
                            "t0": 70559, 
                            "v": 106, 
                            "dur": 109, 
                            "type": "note", 
                            "channel": 0
                        }
                    ]
                ], 
                [
                    70677, 
                    [
                        {
                            "pitch": 43, 
                            "t0": 70677, 
                            "v": 95, 
                            "dur": 102, 
                            "type": "note", 
                            "channel": 0
                        }
                    ]
                ], 
                [
                    70792, 
                    [
                        {
                            "pitch": 40, 
                            "t0": 70792, 
                            "v": 95, 
                            "dur": 67, 
                            "type": "note", 
                            "channel": 0
                        }
                    ]
                ], 
                [
                    70875, 
                    [
                        {
                            "pitch": 38, 
                            "t0": 70875, 
                            "v": 64, 
                            "dur": 32, 
                            "type": "note", 
                            "channel": 0
                        }
                    ]
                ], 
                [
                    70919, 
                    [
                        {
                            "pitch": 33, 
                            "t0": 70919, 
                            "v": 80, 
                            "dur": 39, 
                            "type": "note", 
                            "channel": 0
                        }, 
                        {
                            "pitch": 35, 
                            "t0": 70919, 
                            "v": 80, 
                            "dur": 104, 
                            "type": "note", 
                            "channel": 0
                        }
                    ]
                ], 
                [
                    71042, 
                    [
                        {
                            "pitch": 31, 
                            "t0": 71042, 
                            "v": 100, 
                            "dur": 47, 
                            "type": "note", 
                            "channel": 0
                        }
                    ]
                ], 
                [
                    71163, 
                    [
                        {
                            "pitch": 38, 
                            "t0": 71163, 
                            "v": 100, 
                            "dur": 27, 
                            "type": "note", 
                            "channel": 0
                        }
                    ]
                ], 
                [
                    71284, 
                    [
                        {
                            "pitch": 31, 
                            "t0": 71284, 
                            "v": 122, 
                            "dur": 2166, 
                            "type": "note", 
                            "channel": 0
                        }
                    ]
                ]
            ], 
            "instruments": [
                36
            ], 
            "tMax": 73450, 
            "channels": [
                0
            ], 
            "instrument": 36, 
            "numNotes": 770, 
            "type": "TrackObj"
        }, 
        {
            "trackName": "ch14 acguitar", 
            "seq": [
                [
                    0, 
                    [
                        {
                            "instrument": 25, 
                            "type": "programChange", 
                            "t0": 0, 
                            "channel": 13
                        }
                    ]
                ], 
                [
                    384, 
                    [
                        {
                            "pitch": 55, 
                            "t0": 384, 
                            "v": 39, 
                            "dur": 80, 
                            "type": "note", 
                            "channel": 13
                        }
                    ]
                ], 
                [
                    484, 
                    [
                        {
                            "pitch": 43, 
                            "t0": 484, 
                            "v": 92, 
                            "dur": 209, 
                            "type": "note", 
                            "channel": 13
                        }
                    ]
                ], 
                [
                    596, 
                    [
                        {
                            "pitch": 62, 
                            "t0": 596, 
                            "v": 69, 
                            "dur": 218, 
                            "type": "note", 
                            "channel": 13
                        }
                    ]
                ], 
                [
                    600, 
                    [
                        {
                            "pitch": 55, 
                            "t0": 600, 
                            "v": 62, 
                            "dur": 139, 
                            "type": "note", 
                            "channel": 13
                        }
                    ]
                ], 
                [
                    608, 
                    [
                        {
                            "pitch": 67, 
                            "t0": 608, 
                            "v": 67, 
                            "dur": 194, 
                            "type": "note", 
                            "channel": 13
                        }
                    ]
                ], 
                [
                    717, 
                    [
                        {
                            "pitch": 50, 
                            "t0": 717, 
                            "v": 68, 
                            "dur": 200, 
                            "type": "note", 
                            "channel": 13
                        }
                    ]
                ], 
                [
                    798, 
                    [
                        {
                            "pitch": 55, 
                            "t0": 798, 
                            "v": 66, 
                            "dur": 79, 
                            "type": "note", 
                            "channel": 13
                        }
                    ]
                ], 
                [
                    838, 
                    [
                        {
                            "pitch": 62, 
                            "t0": 838, 
                            "v": 75, 
                            "dur": 93, 
                            "type": "note", 
                            "channel": 13
                        }
                    ]
                ], 
                [
                    841, 
                    [
                        {
                            "pitch": 67, 
                            "t0": 841, 
                            "v": 42, 
                            "dur": 80, 
                            "type": "note", 
                            "channel": 13
                        }
                    ]
                ], 
                [
                    921, 
                    [
                        {
                            "pitch": 55, 
                            "t0": 921, 
                            "v": 64, 
                            "dur": 19, 
                            "type": "note", 
                            "channel": 13
                        }
                    ]
                ], 
                [
                    949, 
                    [
                        {
                            "pitch": 48, 
                            "t0": 949, 
                            "v": 83, 
                            "dur": 228, 
                            "type": "note", 
                            "channel": 13
                        }
                    ]
                ], 
                [
                    1039, 
                    [
                        {
                            "pitch": 55, 
                            "t0": 1039, 
                            "v": 60, 
                            "dur": 199, 
                            "type": "note", 
                            "channel": 13
                        }
                    ]
                ], 
                [
                    1078, 
                    [
                        {
                            "pitch": 60, 
                            "t0": 1078, 
                            "v": 69, 
                            "dur": 326, 
                            "type": "note", 
                            "channel": 13
                        }
                    ]
                ], 
                [
                    1081, 
                    [
                        {
                            "pitch": 64, 
                            "t0": 1081, 
                            "v": 66, 
                            "dur": 66, 
                            "type": "note", 
                            "channel": 13
                        }
                    ]
                ], 
                [
                    1166, 
                    [
                        {
                            "pitch": 64, 
                            "t0": 1166, 
                            "v": 62, 
                            "dur": 111, 
                            "type": "note", 
                            "channel": 13
                        }
                    ]
                ], 
                [
                    1197, 
                    [
                        {
                            "pitch": 43, 
                            "t0": 1197, 
                            "v": 72, 
                            "dur": 114, 
                            "type": "note", 
                            "channel": 13
                        }
                    ]
                ], 
                [
                    1288, 
                    [
                        {
                            "pitch": 55, 
                            "t0": 1288, 
                            "v": 63, 
                            "dur": 71, 
                            "type": "note", 
                            "channel": 13
                        }
                    ]
                ], 
                [
                    1404, 
                    [
                        {
                            "pitch": 55, 
                            "t0": 1404, 
                            "v": 63, 
                            "dur": 16, 
                            "type": "note", 
                            "channel": 13
                        }
                    ]
                ], 
                [
                    1435, 
                    [
                        {
                            "pitch": 43, 
                            "t0": 1435, 
                            "v": 68, 
                            "dur": 136, 
                            "type": "note", 
                            "channel": 13
                        }
                    ]
                ], 
                [
                    1536, 
                    [
                        {
                            "pitch": 50, 
                            "t0": 1536, 
                            "v": 25, 
                            "dur": 37, 
                            "type": "note", 
                            "channel": 13
                        }
                    ]
                ], 
                [
                    1560, 
                    [
                        {
                            "pitch": 55, 
                            "t0": 1560, 
                            "v": 70, 
                            "dur": 115, 
                            "type": "note", 
                            "channel": 13
                        }
                    ]
                ], 
                [
                    1676, 
                    [
                        {
                            "pitch": 50, 
                            "t0": 1676, 
                            "v": 80, 
                            "dur": 168, 
                            "type": "note", 
                            "channel": 13
                        }
                    ]
                ], 
                [
                    1758, 
                    [
                        {
                            "pitch": 55, 
                            "t0": 1758, 
                            "v": 50, 
                            "dur": 194, 
                            "type": "note", 
                            "channel": 13
                        }
                    ]
                ], 
                [
                    1806, 
                    [
                        {
                            "pitch": 59, 
                            "t0": 1806, 
                            "v": 18, 
                            "dur": 211, 
                            "type": "note", 
                            "channel": 13
                        }
                    ]
                ], 
                [
                    1874, 
                    [
                        {
                            "pitch": 67, 
                            "t0": 1874, 
                            "v": 80, 
                            "dur": 226, 
                            "type": "note", 
                            "channel": 13
                        }
                    ]
                ], 
                [
                    1919, 
                    [
                        {
                            "pitch": 43, 
                            "t0": 1919, 
                            "v": 71, 
                            "dur": 188, 
                            "type": "note", 
                            "channel": 13
                        }
                    ]
                ], 
                [
                    2001, 
                    [
                        {
                            "pitch": 55, 
                            "t0": 2001, 
                            "v": 53, 
                            "dur": 191, 
                            "type": "note", 
                            "channel": 13
                        }
                    ]
                ], 
                [
                    2040, 
                    [
                        {
                            "pitch": 59, 
                            "t0": 2040, 
                            "v": 73, 
                            "dur": 219, 
                            "type": "note", 
                            "channel": 13
                        }
                    ]
                ], 
                [
                    2114, 
                    [
                        {
                            "pitch": 67, 
                            "t0": 2114, 
                            "v": 45, 
                            "dur": 207, 
                            "type": "note", 
                            "channel": 13
                        }
                    ]
                ], 
                [
                    2156, 
                    [
                        {
                            "pitch": 50, 
                            "t0": 2156, 
                            "v": 57, 
                            "dur": 137, 
                            "type": "note", 
                            "channel": 13
                        }
                    ]
                ], 
                [
                    2241, 
                    [
                        {
                            "pitch": 55, 
                            "t0": 2241, 
                            "v": 60, 
                            "dur": 70, 
                            "type": "note", 
                            "channel": 13
                        }
                    ]
                ], 
                [
                    2277, 
                    [
                        {
                            "pitch": 62, 
                            "t0": 2277, 
                            "v": 62, 
                            "dur": 78, 
                            "type": "note", 
                            "channel": 13
                        }
                    ]
                ], 
                [
                    2358, 
                    [
                        {
                            "pitch": 55, 
                            "t0": 2358, 
                            "v": 66, 
                            "dur": 22, 
                            "type": "note", 
                            "channel": 13
                        }
                    ]
                ], 
                [
                    2390, 
                    [
                        {
                            "pitch": 43, 
                            "t0": 2390, 
                            "v": 75, 
                            "dur": 151, 
                            "type": "note", 
                            "channel": 13
                        }
                    ]
                ], 
                [
                    2476, 
                    [
                        {
                            "pitch": 55, 
                            "t0": 2476, 
                            "v": 49, 
                            "dur": 198, 
                            "type": "note", 
                            "channel": 13
                        }
                    ]
                ], 
                [
                    2516, 
                    [
                        {
                            "pitch": 67, 
                            "t0": 2516, 
                            "v": 78, 
                            "dur": 232, 
                            "type": "note", 
                            "channel": 13
                        }
                    ]
                ], 
                [
                    2518, 
                    [
                        {
                            "pitch": 62, 
                            "t0": 2518, 
                            "v": 63, 
                            "dur": 47, 
                            "type": "note", 
                            "channel": 13
                        }
                    ]
                ], 
                [
                    2611, 
                    [
                        {
                            "pitch": 62, 
                            "t0": 2611, 
                            "v": 11, 
                            "dur": 106, 
                            "type": "note", 
                            "channel": 13
                        }
                    ]
                ], 
                [
                    2639, 
                    [
                        {
                            "pitch": 50, 
                            "t0": 2639, 
                            "v": 65, 
                            "dur": 152, 
                            "type": "note", 
                            "channel": 13
                        }
                    ]
                ], 
                [
                    2718, 
                    [
                        {
                            "pitch": 55, 
                            "t0": 2718, 
                            "v": 61, 
                            "dur": 75, 
                            "type": "note", 
                            "channel": 13
                        }
                    ]
                ], 
                [
                    2769, 
                    [
                        {
                            "pitch": 64, 
                            "t0": 2769, 
                            "v": 55, 
                            "dur": 13, 
                            "type": "note", 
                            "channel": 13
                        }
                    ]
                ], 
                [
                    2828, 
                    [
                        {
                            "pitch": 55, 
                            "t0": 2828, 
                            "v": 59, 
                            "dur": 87, 
                            "type": "note", 
                            "channel": 13
                        }
                    ]
                ], 
                [
                    2833, 
                    [
                        {
                            "pitch": 62, 
                            "t0": 2833, 
                            "v": 78, 
                            "dur": 233, 
                            "type": "note", 
                            "channel": 13
                        }
                    ]
                ], 
                [
                    2874, 
                    [
                        {
                            "pitch": 43, 
                            "t0": 2874, 
                            "v": 67, 
                            "dur": 119, 
                            "type": "note", 
                            "channel": 13
                        }
                    ]
                ], 
                [
                    2961, 
                    [
                        {
                            "pitch": 55, 
                            "t0": 2961, 
                            "v": 55, 
                            "dur": 76, 
                            "type": "note", 
                            "channel": 13
                        }
                    ]
                ], 
                [
                    3000, 
                    [
                        {
                            "pitch": 47, 
                            "t0": 3000, 
                            "v": 81, 
                            "dur": 108, 
                            "type": "note", 
                            "channel": 13
                        }
                    ]
                ], 
                [
                    3078, 
                    [
                        {
                            "pitch": 55, 
                            "t0": 3078, 
                            "v": 54, 
                            "dur": 28, 
                            "type": "note", 
                            "channel": 13
                        }
                    ]
                ], 
                [
                    3119, 
                    [
                        {
                            "pitch": 48, 
                            "t0": 3119, 
                            "v": 84, 
                            "dur": 103, 
                            "type": "note", 
                            "channel": 13
                        }
                    ]
                ], 
                [
                    3206, 
                    [
                        {
                            "pitch": 55, 
                            "t0": 3206, 
                            "v": 37, 
                            "dur": 16, 
                            "type": "note", 
                            "channel": 13
                        }
                    ]
                ], 
                [
                    3241, 
                    [
                        {
                            "pitch": 49, 
                            "t0": 3241, 
                            "v": 78, 
                            "dur": 100, 
                            "type": "note", 
                            "channel": 13
                        }
                    ]
                ], 
                [
                    3356, 
                    [
                        {
                            "pitch": 50, 
                            "t0": 3356, 
                            "v": 88, 
                            "dur": 218, 
                            "type": "note", 
                            "channel": 13
                        }
                    ]
                ], 
                [
                    3444, 
                    [
                        {
                            "pitch": 57, 
                            "t0": 3444, 
                            "v": 56, 
                            "dur": 199, 
                            "type": "note", 
                            "channel": 13
                        }
                    ]
                ], 
                [
                    3492, 
                    [
                        {
                            "pitch": 62, 
                            "t0": 3492, 
                            "v": 63, 
                            "dur": 148, 
                            "type": "note", 
                            "channel": 13
                        }
                    ]
                ], 
                [
                    3554, 
                    [
                        {
                            "pitch": 66, 
                            "t0": 3554, 
                            "v": 67, 
                            "dur": 164, 
                            "type": "note", 
                            "channel": 13
                        }
                    ]
                ], 
                [
                    3594, 
                    [
                        {
                            "pitch": 45, 
                            "t0": 3594, 
                            "v": 64, 
                            "dur": 207, 
                            "type": "note", 
                            "channel": 13
                        }
                    ]
                ], 
                [
                    3668, 
                    [
                        {
                            "pitch": 57, 
                            "t0": 3668, 
                            "v": 54, 
                            "dur": 23, 
                            "type": "note", 
                            "channel": 13
                        }
                    ]
                ], 
                [
                    3681, 
                    [
                        {
                            "pitch": 62, 
                            "t0": 3681, 
                            "v": 71, 
                            "dur": 41, 
                            "type": "note", 
                            "channel": 13
                        }
                    ]
                ], 
                [
                    3723, 
                    [
                        {
                            "pitch": 57, 
                            "t0": 3723, 
                            "v": 80, 
                            "dur": 88, 
                            "type": "note", 
                            "channel": 13
                        }
                    ]
                ], 
                [
                    3794, 
                    [
                        {
                            "pitch": 69, 
                            "t0": 3794, 
                            "v": 90, 
                            "dur": 143, 
                            "type": "note", 
                            "channel": 13
                        }
                    ]
                ], 
                [
                    3833, 
                    [
                        {
                            "pitch": 50, 
                            "t0": 3833, 
                            "v": 68, 
                            "dur": 242, 
                            "type": "note", 
                            "channel": 13
                        }
                    ]
                ], 
                [
                    3914, 
                    [
                        {
                            "pitch": 66, 
                            "t0": 3914, 
                            "v": 72, 
                            "dur": 352, 
                            "type": "note", 
                            "channel": 13
                        }
                    ]
                ], 
                [
                    4028, 
                    [
                        {
                            "pitch": 60, 
                            "t0": 4028, 
                            "v": 83, 
                            "dur": 259, 
                            "type": "note", 
                            "channel": 13
                        }
                    ]
                ], 
                [
                    4072, 
                    [
                        {
                            "pitch": 45, 
                            "t0": 4072, 
                            "v": 70, 
                            "dur": 109, 
                            "type": "note", 
                            "channel": 13
                        }
                    ]
                ], 
                [
                    4169, 
                    [
                        {
                            "pitch": 57, 
                            "t0": 4169, 
                            "v": 51, 
                            "dur": 56, 
                            "type": "note", 
                            "channel": 13
                        }
                    ]
                ], 
                [
                    4197, 
                    [
                        {
                            "pitch": 50, 
                            "t0": 4197, 
                            "v": 66, 
                            "dur": 105, 
                            "type": "note", 
                            "channel": 13
                        }
                    ]
                ], 
                [
                    4283, 
                    [
                        {
                            "pitch": 57, 
                            "t0": 4283, 
                            "v": 52, 
                            "dur": 13, 
                            "type": "note", 
                            "channel": 13
                        }
                    ]
                ], 
                [
                    4312, 
                    [
                        {
                            "pitch": 43, 
                            "t0": 4312, 
                            "v": 85, 
                            "dur": 233, 
                            "type": "note", 
                            "channel": 13
                        }
                    ]
                ], 
                [
                    4400, 
                    [
                        {
                            "pitch": 55, 
                            "t0": 4400, 
                            "v": 65, 
                            "dur": 186, 
                            "type": "note", 
                            "channel": 13
                        }
                    ]
                ], 
                [
                    4443, 
                    [
                        {
                            "pitch": 59, 
                            "t0": 4443, 
                            "v": 72, 
                            "dur": 327, 
                            "type": "note", 
                            "channel": 13
                        }
                    ]
                ], 
                [
                    4513, 
                    [
                        {
                            "pitch": 67, 
                            "t0": 4513, 
                            "v": 84, 
                            "dur": 103, 
                            "type": "note", 
                            "channel": 13
                        }
                    ]
                ], 
                [
                    4561, 
                    [
                        {
                            "pitch": 50, 
                            "t0": 4561, 
                            "v": 65, 
                            "dur": 219, 
                            "type": "note", 
                            "channel": 13
                        }
                    ]
                ], 
                [
                    4626, 
                    [
                        {
                            "pitch": 55, 
                            "t0": 4626, 
                            "v": 64, 
                            "dur": 158, 
                            "type": "note", 
                            "channel": 13
                        }
                    ]
                ], 
                [
                    4697, 
                    [
                        {
                            "pitch": 65, 
                            "t0": 4697, 
                            "v": 67, 
                            "dur": 64, 
                            "type": "note", 
                            "channel": 13
                        }
                    ]
                ], 
                [
                    4794, 
                    [
                        {
                            "pitch": 48, 
                            "t0": 4794, 
                            "v": 87, 
                            "dur": 474, 
                            "type": "note", 
                            "channel": 13
                        }
                    ]
                ], 
                [
                    4872, 
                    [
                        {
                            "pitch": 52, 
                            "t0": 4872, 
                            "v": 58, 
                            "dur": 275, 
                            "type": "note", 
                            "channel": 13
                        }
                    ]
                ], 
                [
                    4920, 
                    [
                        {
                            "pitch": 55, 
                            "t0": 4920, 
                            "v": 73, 
                            "dur": 266, 
                            "type": "note", 
                            "channel": 13
                        }
                    ]
                ], 
                [
                    4994, 
                    [
                        {
                            "pitch": 64, 
                            "t0": 4994, 
                            "v": 66, 
                            "dur": 187, 
                            "type": "note", 
                            "channel": 13
                        }
                    ]
                ], 
                [
                    5127, 
                    [
                        {
                            "pitch": 60, 
                            "t0": 5127, 
                            "v": 70, 
                            "dur": 99, 
                            "type": "note", 
                            "channel": 13
                        }
                    ]
                ], 
                [
                    5169, 
                    [
                        {
                            "pitch": 52, 
                            "t0": 5169, 
                            "v": 66, 
                            "dur": 81, 
                            "type": "note", 
                            "channel": 13
                        }
                    ]
                ], 
                [
                    5231, 
                    [
                        {
                            "pitch": 55, 
                            "t0": 5231, 
                            "v": 63, 
                            "dur": 29, 
                            "type": "note", 
                            "channel": 13
                        }
                    ]
                ], 
                [
                    5276, 
                    [
                        {
                            "pitch": 43, 
                            "t0": 5276, 
                            "v": 91, 
                            "dur": 464, 
                            "type": "note", 
                            "channel": 13
                        }
                    ]
                ], 
                [
                    5355, 
                    [
                        {
                            "pitch": 55, 
                            "t0": 5355, 
                            "v": 66, 
                            "dur": 345, 
                            "type": "note", 
                            "channel": 13
                        }
                    ]
                ], 
                [
                    5403, 
                    [
                        {
                            "pitch": 59, 
                            "t0": 5403, 
                            "v": 62, 
                            "dur": 333, 
                            "type": "note", 
                            "channel": 13
                        }
                    ]
                ], 
                [
                    5475, 
                    [
                        {
                            "pitch": 67, 
                            "t0": 5475, 
                            "v": 85, 
                            "dur": 113, 
                            "type": "note", 
                            "channel": 13
                        }
                    ]
                ], 
                [
                    5616, 
                    [
                        {
                            "pitch": 65, 
                            "t0": 5616, 
                            "v": 73, 
                            "dur": 117, 
                            "type": "note", 
                            "channel": 13
                        }
                    ]
                ], 
                [
                    5721, 
                    [
                        {
                            "pitch": 55, 
                            "t0": 5721, 
                            "v": 66, 
                            "dur": 26, 
                            "type": "note", 
                            "channel": 13
                        }
                    ]
                ], 
                [
                    5755, 
                    [
                        {
                            "pitch": 48, 
                            "t0": 5755, 
                            "v": 97, 
                            "dur": 468, 
                            "type": "note", 
                            "channel": 13
                        }
                    ]
                ], 
                [
                    5842, 
                    [
                        {
                            "pitch": 52, 
                            "t0": 5842, 
                            "v": 65, 
                            "dur": 202, 
                            "type": "note", 
                            "channel": 13
                        }
                    ]
                ], 
                [
                    5844, 
                    [
                        {
                            "pitch": 53, 
                            "t0": 5844, 
                            "v": 66, 
                            "dur": 24, 
                            "type": "note", 
                            "channel": 13
                        }
                    ]
                ], 
                [
                    5887, 
                    [
                        {
                            "pitch": 55, 
                            "t0": 5887, 
                            "v": 68, 
                            "dur": 327, 
                            "type": "note", 
                            "channel": 13
                        }
                    ]
                ], 
                [
                    5957, 
                    [
                        {
                            "pitch": 64, 
                            "t0": 5957, 
                            "v": 73, 
                            "dur": 216, 
                            "type": "note", 
                            "channel": 13
                        }
                    ]
                ], 
                [
                    6088, 
                    [
                        {
                            "pitch": 52, 
                            "t0": 6088, 
                            "v": 55, 
                            "dur": 65, 
                            "type": "note", 
                            "channel": 13
                        }
                    ]
                ], 
                [
                    6127, 
                    [
                        {
                            "pitch": 60, 
                            "t0": 6127, 
                            "v": 70, 
                            "dur": 72, 
                            "type": "note", 
                            "channel": 13
                        }
                    ]
                ], 
                [
                    6194, 
                    [
                        {
                            "pitch": 52, 
                            "t0": 6194, 
                            "v": 64, 
                            "dur": 19, 
                            "type": "note", 
                            "channel": 13
                        }
                    ]
                ], 
                [
                    6236, 
                    [
                        {
                            "pitch": 43, 
                            "t0": 6236, 
                            "v": 100, 
                            "dur": 458, 
                            "type": "note", 
                            "channel": 13
                        }
                    ]
                ], 
                [
                    6320, 
                    [
                        {
                            "pitch": 55, 
                            "t0": 6320, 
                            "v": 64, 
                            "dur": 211, 
                            "type": "note", 
                            "channel": 13
                        }
                    ]
                ], 
                [
                    6360, 
                    [
                        {
                            "pitch": 59, 
                            "t0": 6360, 
                            "v": 77, 
                            "dur": 282, 
                            "type": "note", 
                            "channel": 13
                        }
                    ]
                ], 
                [
                    6433, 
                    [
                        {
                            "pitch": 67, 
                            "t0": 6433, 
                            "v": 90, 
                            "dur": 245, 
                            "type": "note", 
                            "channel": 13
                        }
                    ]
                ], 
                [
                    6566, 
                    [
                        {
                            "pitch": 55, 
                            "t0": 6566, 
                            "v": 68, 
                            "dur": 70, 
                            "type": "note", 
                            "channel": 13
                        }
                    ]
                ], 
                [
                    6603, 
                    [
                        {
                            "pitch": 62, 
                            "t0": 6603, 
                            "v": 59, 
                            "dur": 91, 
                            "type": "note", 
                            "channel": 13
                        }
                    ]
                ], 
                [
                    6681, 
                    [
                        {
                            "pitch": 55, 
                            "t0": 6681, 
                            "v": 59, 
                            "dur": 27, 
                            "type": "note", 
                            "channel": 13
                        }
                    ]
                ], 
                [
                    6715, 
                    [
                        {
                            "pitch": 50, 
                            "t0": 6715, 
                            "v": 92, 
                            "dur": 481, 
                            "type": "note", 
                            "channel": 13
                        }
                    ]
                ], 
                [
                    6796, 
                    [
                        {
                            "pitch": 57, 
                            "t0": 6796, 
                            "v": 67, 
                            "dur": 216, 
                            "type": "note", 
                            "channel": 13
                        }
                    ]
                ], 
                [
                    6843, 
                    [
                        {
                            "pitch": 62, 
                            "t0": 6843, 
                            "v": 74, 
                            "dur": 322, 
                            "type": "note", 
                            "channel": 13
                        }
                    ]
                ], 
                [
                    6910, 
                    [
                        {
                            "pitch": 69, 
                            "t0": 6910, 
                            "v": 71, 
                            "dur": 153, 
                            "type": "note", 
                            "channel": 13
                        }
                    ]
                ], 
                [
                    7041, 
                    [
                        {
                            "pitch": 57, 
                            "t0": 7041, 
                            "v": 68, 
                            "dur": 75, 
                            "type": "note", 
                            "channel": 13
                        }
                    ]
                ], 
                [
                    7077, 
                    [
                        {
                            "pitch": 66, 
                            "t0": 7077, 
                            "v": 81, 
                            "dur": 83, 
                            "type": "note", 
                            "channel": 13
                        }
                    ]
                ], 
                [
                    7163, 
                    [
                        {
                            "pitch": 57, 
                            "t0": 7163, 
                            "v": 56, 
                            "dur": 17, 
                            "type": "note", 
                            "channel": 13
                        }
                    ]
                ], 
                [
                    7197, 
                    [
                        {
                            "pitch": 43, 
                            "t0": 7197, 
                            "v": 88, 
                            "dur": 228, 
                            "type": "note", 
                            "channel": 13
                        }
                    ]
                ], 
                [
                    7277, 
                    [
                        {
                            "pitch": 55, 
                            "t0": 7277, 
                            "v": 56, 
                            "dur": 209, 
                            "type": "note", 
                            "channel": 13
                        }
                    ]
                ], 
                [
                    7320, 
                    [
                        {
                            "pitch": 67, 
                            "t0": 7320, 
                            "v": 87, 
                            "dur": 224, 
                            "type": "note", 
                            "channel": 13
                        }
                    ]
                ], 
                [
                    7520, 
                    [
                        {
                            "pitch": 55, 
                            "t0": 7520, 
                            "v": 54, 
                            "dur": 40, 
                            "type": "note", 
                            "channel": 13
                        }
                    ]
                ], 
                [
                    7553, 
                    [
                        {
                            "pitch": 64, 
                            "t0": 7553, 
                            "v": 51, 
                            "dur": 62, 
                            "type": "note", 
                            "channel": 13
                        }
                    ]
                ], 
                [
                    7676, 
                    [
                        {
                            "pitch": 43, 
                            "t0": 7676, 
                            "v": 81, 
                            "dur": 34, 
                            "type": "note", 
                            "channel": 13
                        }
                    ]
                ], 
                [
                    7677, 
                    [
                        {
                            "pitch": 67, 
                            "t0": 7677, 
                            "v": 92, 
                            "dur": 30, 
                            "type": "note", 
                            "channel": 13
                        }
                    ]
                ], 
                [
                    7681, 
                    [
                        {
                            "pitch": 55, 
                            "t0": 7681, 
                            "v": 68, 
                            "dur": 22, 
                            "type": "note", 
                            "channel": 13
                        }
                    ]
                ], 
                [
                    8156, 
                    [
                        {
                            "pitch": 48, 
                            "t0": 8156, 
                            "v": 75, 
                            "dur": 240, 
                            "type": "note", 
                            "channel": 13
                        }
                    ]
                ], 
                [
                    8237, 
                    [
                        {
                            "pitch": 52, 
                            "t0": 8237, 
                            "v": 64, 
                            "dur": 247, 
                            "type": "note", 
                            "channel": 13
                        }
                    ]
                ], 
                [
                    8281, 
                    [
                        {
                            "pitch": 55, 
                            "t0": 8281, 
                            "v": 66, 
                            "dur": 151, 
                            "type": "note", 
                            "channel": 13
                        }
                    ]
                ], 
                [
                    8351, 
                    [
                        {
                            "pitch": 60, 
                            "t0": 8351, 
                            "v": 70, 
                            "dur": 145, 
                            "type": "note", 
                            "channel": 13
                        }
                    ]
                ], 
                [
                    8400, 
                    [
                        {
                            "pitch": 43, 
                            "t0": 8400, 
                            "v": 66, 
                            "dur": 214, 
                            "type": "note", 
                            "channel": 13
                        }
                    ]
                ], 
                [
                    8474, 
                    [
                        {
                            "pitch": 55, 
                            "t0": 8474, 
                            "v": 64, 
                            "dur": 76, 
                            "type": "note", 
                            "channel": 13
                        }
                    ]
                ], 
                [
                    8522, 
                    [
                        {
                            "pitch": 52, 
                            "t0": 8522, 
                            "v": 72, 
                            "dur": 227, 
                            "type": "note", 
                            "channel": 13
                        }
                    ]
                ], 
                [
                    8594, 
                    [
                        {
                            "pitch": 64, 
                            "t0": 8594, 
                            "v": 77, 
                            "dur": 158, 
                            "type": "note", 
                            "channel": 13
                        }
                    ]
                ], 
                [
                    8640, 
                    [
                        {
                            "pitch": 48, 
                            "t0": 8640, 
                            "v": 73, 
                            "dur": 231, 
                            "type": "note", 
                            "channel": 13
                        }
                    ]
                ], 
                [
                    8715, 
                    [
                        {
                            "pitch": 60, 
                            "t0": 8715, 
                            "v": 64, 
                            "dur": 65, 
                            "type": "note", 
                            "channel": 13
                        }
                    ]
                ], 
                [
                    8766, 
                    [
                        {
                            "pitch": 55, 
                            "t0": 8766, 
                            "v": 68, 
                            "dur": 28, 
                            "type": "note", 
                            "channel": 13
                        }
                    ]
                ], 
                [
                    8826, 
                    [
                        {
                            "pitch": 67, 
                            "t0": 8826, 
                            "v": 95, 
                            "dur": 459, 
                            "type": "note", 
                            "channel": 13
                        }
                    ]
                ], 
                [
                    8880, 
                    [
                        {
                            "pitch": 43, 
                            "t0": 8880, 
                            "v": 73, 
                            "dur": 174, 
                            "type": "note", 
                            "channel": 13
                        }
                    ]
                ], 
                [
                    9083, 
                    [
                        {
                            "pitch": 55, 
                            "t0": 9083, 
                            "v": 5, 
                            "dur": 31, 
                            "type": "note", 
                            "channel": 13
                        }
                    ]
                ], 
                [
                    9119, 
                    [
                        {
                            "pitch": 43, 
                            "t0": 9119, 
                            "v": 70, 
                            "dur": 226, 
                            "type": "note", 
                            "channel": 13
                        }
                    ]
                ], 
                [
                    9208, 
                    [
                        {
                            "pitch": 55, 
                            "t0": 9208, 
                            "v": 45, 
                            "dur": 189, 
                            "type": "note", 
                            "channel": 13
                        }
                    ]
                ], 
                [
                    9238, 
                    [
                        {
                            "pitch": 59, 
                            "t0": 9238, 
                            "v": 66, 
                            "dur": 221, 
                            "type": "note", 
                            "channel": 13
                        }
                    ]
                ], 
                [
                    9323, 
                    [
                        {
                            "pitch": 62, 
                            "t0": 9323, 
                            "v": 57, 
                            "dur": 123, 
                            "type": "note", 
                            "channel": 13
                        }
                    ]
                ], 
                [
                    9324, 
                    [
                        {
                            "pitch": 67, 
                            "t0": 9324, 
                            "v": 40, 
                            "dur": 190, 
                            "type": "note", 
                            "channel": 13
                        }
                    ]
                ], 
                [
                    9360, 
                    [
                        {
                            "pitch": 50, 
                            "t0": 9360, 
                            "v": 68, 
                            "dur": 249, 
                            "type": "note", 
                            "channel": 13
                        }
                    ]
                ], 
                [
                    9451, 
                    [
                        {
                            "pitch": 55, 
                            "t0": 9451, 
                            "v": 59, 
                            "dur": 432, 
                            "type": "note", 
                            "channel": 13
                        }
                    ]
                ], 
                [
                    9482, 
                    [
                        {
                            "pitch": 59, 
                            "t0": 9482, 
                            "v": 52, 
                            "dur": 295, 
                            "type": "note", 
                            "channel": 13
                        }
                    ]
                ], 
                [
                    9557, 
                    [
                        {
                            "pitch": 67, 
                            "t0": 9557, 
                            "v": 67, 
                            "dur": 463, 
                            "type": "note", 
                            "channel": 13
                        }
                    ]
                ], 
                [
                    9602, 
                    [
                        {
                            "pitch": 43, 
                            "t0": 9602, 
                            "v": 55, 
                            "dur": 236, 
                            "type": "note", 
                            "channel": 13
                        }
                    ]
                ], 
                [
                    9792, 
                    [
                        {
                            "pitch": 59, 
                            "t0": 9792, 
                            "v": 41, 
                            "dur": 232, 
                            "type": "note", 
                            "channel": 13
                        }
                    ]
                ], 
                [
                    9840, 
                    [
                        {
                            "pitch": 50, 
                            "t0": 9840, 
                            "v": 65, 
                            "dur": 214, 
                            "type": "note", 
                            "channel": 13
                        }
                    ]
                ], 
                [
                    9920, 
                    [
                        {
                            "pitch": 55, 
                            "t0": 9920, 
                            "v": 47, 
                            "dur": 71, 
                            "type": "note", 
                            "channel": 13
                        }
                    ]
                ], 
                [
                    10075, 
                    [
                        {
                            "pitch": 45, 
                            "t0": 10075, 
                            "v": 86, 
                            "dur": 438, 
                            "type": "note", 
                            "channel": 13
                        }
                    ]
                ], 
                [
                    10145, 
                    [
                        {
                            "pitch": 52, 
                            "t0": 10145, 
                            "v": 60, 
                            "dur": 267, 
                            "type": "note", 
                            "channel": 13
                        }
                    ]
                ], 
                [
                    10196, 
                    [
                        {
                            "pitch": 57, 
                            "t0": 10196, 
                            "v": 73, 
                            "dur": 94, 
                            "type": "note", 
                            "channel": 13
                        }
                    ]
                ], 
                [
                    10278, 
                    [
                        {
                            "pitch": 61, 
                            "t0": 10278, 
                            "v": 73, 
                            "dur": 186, 
                            "type": "note", 
                            "channel": 13
                        }
                    ]
                ], 
                [
                    10401, 
                    [
                        {
                            "pitch": 57, 
                            "t0": 10401, 
                            "v": 65, 
                            "dur": 53, 
                            "type": "note", 
                            "channel": 13
                        }
                    ]
                ], 
                [
                    10447, 
                    [
                        {
                            "pitch": 52, 
                            "t0": 10447, 
                            "v": 75, 
                            "dur": 389, 
                            "type": "note", 
                            "channel": 13
                        }
                    ]
                ], 
                [
                    10518, 
                    [
                        {
                            "pitch": 64, 
                            "t0": 10518, 
                            "v": 94, 
                            "dur": 387, 
                            "type": "note", 
                            "channel": 13
                        }
                    ]
                ], 
                [
                    10561, 
                    [
                        {
                            "pitch": 45, 
                            "t0": 10561, 
                            "v": 70, 
                            "dur": 465, 
                            "type": "note", 
                            "channel": 13
                        }
                    ]
                ], 
                [
                    10690, 
                    [
                        {
                            "pitch": 61, 
                            "t0": 10690, 
                            "v": 61, 
                            "dur": 327, 
                            "type": "note", 
                            "channel": 13
                        }
                    ]
                ], 
                [
                    10752, 
                    [
                        {
                            "pitch": 57, 
                            "t0": 10752, 
                            "v": 69, 
                            "dur": 142, 
                            "type": "note", 
                            "channel": 13
                        }
                    ]
                ], 
                [
                    10877, 
                    [
                        {
                            "pitch": 52, 
                            "t0": 10877, 
                            "v": 64, 
                            "dur": 87, 
                            "type": "note", 
                            "channel": 13
                        }
                    ]
                ], 
                [
                    10923, 
                    [
                        {
                            "pitch": 57, 
                            "t0": 10923, 
                            "v": 69, 
                            "dur": 94, 
                            "type": "note", 
                            "channel": 13
                        }
                    ]
                ], 
                [
                    10998, 
                    [
                        {
                            "pitch": 52, 
                            "t0": 10998, 
                            "v": 70, 
                            "dur": 21, 
                            "type": "note", 
                            "channel": 13
                        }
                    ]
                ], 
                [
                    11043, 
                    [
                        {
                            "pitch": 50, 
                            "t0": 11043, 
                            "v": 81, 
                            "dur": 243, 
                            "type": "note", 
                            "channel": 13
                        }
                    ]
                ], 
                [
                    11165, 
                    [
                        {
                            "pitch": 62, 
                            "t0": 11165, 
                            "v": 56, 
                            "dur": 147, 
                            "type": "note", 
                            "channel": 13
                        }
                    ]
                ], 
                [
                    11226, 
                    [
                        {
                            "pitch": 66, 
                            "t0": 11226, 
                            "v": 84, 
                            "dur": 143, 
                            "type": "note", 
                            "channel": 13
                        }
                    ]
                ], 
                [
                    11275, 
                    [
                        {
                            "pitch": 45, 
                            "t0": 11275, 
                            "v": 69, 
                            "dur": 230, 
                            "type": "note", 
                            "channel": 13
                        }
                    ]
                ], 
                [
                    11353, 
                    [
                        {
                            "pitch": 62, 
                            "t0": 11353, 
                            "v": 68, 
                            "dur": 303, 
                            "type": "note", 
                            "channel": 13
                        }
                    ]
                ], 
                [
                    11400, 
                    [
                        {
                            "pitch": 66, 
                            "t0": 11400, 
                            "v": 67, 
                            "dur": 345, 
                            "type": "note", 
                            "channel": 13
                        }
                    ]
                ], 
                [
                    11478, 
                    [
                        {
                            "pitch": 74, 
                            "t0": 11478, 
                            "v": 80, 
                            "dur": 221, 
                            "type": "note", 
                            "channel": 13
                        }
                    ]
                ], 
                [
                    11518, 
                    [
                        {
                            "pitch": 50, 
                            "t0": 11518, 
                            "v": 55, 
                            "dur": 79, 
                            "type": "note", 
                            "channel": 13
                        }
                    ]
                ], 
                [
                    11722, 
                    [
                        {
                            "pitch": 74, 
                            "t0": 11722, 
                            "v": 31, 
                            "dur": 43, 
                            "type": "note", 
                            "channel": 13
                        }
                    ]
                ], 
                [
                    11765, 
                    [
                        {
                            "pitch": 66, 
                            "t0": 11765, 
                            "v": 99, 
                            "dur": 92, 
                            "type": "note", 
                            "channel": 13
                        }
                    ]
                ], 
                [
                    11845, 
                    [
                        {
                            "pitch": 74, 
                            "t0": 11845, 
                            "v": 77, 
                            "dur": 29, 
                            "type": "note", 
                            "channel": 13
                        }
                    ]
                ], 
                [
                    11879, 
                    [
                        {
                            "pitch": 66, 
                            "t0": 11879, 
                            "v": 41, 
                            "dur": 7, 
                            "type": "note", 
                            "channel": 13
                        }
                    ]
                ], 
                [
                    11880, 
                    [
                        {
                            "pitch": 65, 
                            "t0": 11880, 
                            "v": 94, 
                            "dur": 89, 
                            "type": "note", 
                            "channel": 13
                        }
                    ]
                ], 
                [
                    11961, 
                    [
                        {
                            "pitch": 73, 
                            "t0": 11961, 
                            "v": 65, 
                            "dur": 17, 
                            "type": "note", 
                            "channel": 13
                        }
                    ]
                ], 
                [
                    11993, 
                    [
                        {
                            "pitch": 64, 
                            "t0": 11993, 
                            "v": 83, 
                            "dur": 316, 
                            "type": "note", 
                            "channel": 13
                        }
                    ]
                ], 
                [
                    12024, 
                    [
                        {
                            "pitch": 72, 
                            "t0": 12024, 
                            "v": 75, 
                            "dur": 316, 
                            "type": "note", 
                            "channel": 13
                        }
                    ]
                ], 
                [
                    12355, 
                    [
                        {
                            "pitch": 67, 
                            "t0": 12355, 
                            "v": 90, 
                            "dur": 323, 
                            "type": "note", 
                            "channel": 13
                        }
                    ]
                ], 
                [
                    12433, 
                    [
                        {
                            "pitch": 76, 
                            "t0": 12433, 
                            "v": 73, 
                            "dur": 274, 
                            "type": "note", 
                            "channel": 13
                        }
                    ]
                ], 
                [
                    12723, 
                    [
                        {
                            "pitch": 64, 
                            "t0": 12723, 
                            "v": 76, 
                            "dur": 194, 
                            "type": "note", 
                            "channel": 13
                        }
                    ]
                ], 
                [
                    12803, 
                    [
                        {
                            "pitch": 72, 
                            "t0": 12803, 
                            "v": 72, 
                            "dur": 154, 
                            "type": "note", 
                            "channel": 13
                        }
                    ]
                ], 
                [
                    12955, 
                    [
                        {
                            "pitch": 62, 
                            "t0": 12955, 
                            "v": 68, 
                            "dur": 376, 
                            "type": "note", 
                            "channel": 13
                        }
                    ]
                ], 
                [
                    13038, 
                    [
                        {
                            "pitch": 71, 
                            "t0": 13038, 
                            "v": 63, 
                            "dur": 289, 
                            "type": "note", 
                            "channel": 13
                        }
                    ]
                ], 
                [
                    13548, 
                    [
                        {
                            "pitch": 52, 
                            "t0": 13548, 
                            "v": 66, 
                            "dur": 101, 
                            "type": "note", 
                            "channel": 13
                        }
                    ]
                ], 
                [
                    13629, 
                    [
                        {
                            "pitch": 60, 
                            "t0": 13629, 
                            "v": 80, 
                            "dur": 227, 
                            "type": "note", 
                            "channel": 13
                        }
                    ]
                ], 
                [
                    13674, 
                    [
                        {
                            "pitch": 52, 
                            "t0": 13674, 
                            "v": 35, 
                            "dur": 160, 
                            "type": "note", 
                            "channel": 13
                        }
                    ]
                ], 
                [
                    14032, 
                    [
                        {
                            "pitch": 59, 
                            "t0": 14032, 
                            "v": 70, 
                            "dur": 265, 
                            "type": "note", 
                            "channel": 13
                        }
                    ]
                ], 
                [
                    14114, 
                    [
                        {
                            "pitch": 67, 
                            "t0": 14114, 
                            "v": 80, 
                            "dur": 205, 
                            "type": "note", 
                            "channel": 13
                        }
                    ]
                ], 
                [
                    14393, 
                    [
                        {
                            "pitch": 66, 
                            "t0": 14393, 
                            "v": 67, 
                            "dur": 336, 
                            "type": "note", 
                            "channel": 13
                        }
                    ]
                ], 
                [
                    14471, 
                    [
                        {
                            "pitch": 74, 
                            "t0": 14471, 
                            "v": 70, 
                            "dur": 263, 
                            "type": "note", 
                            "channel": 13
                        }
                    ]
                ], 
                [
                    14855, 
                    [
                        {
                            "pitch": 62, 
                            "t0": 14855, 
                            "v": 80, 
                            "dur": 194, 
                            "type": "note", 
                            "channel": 13
                        }
                    ]
                ], 
                [
                    14947, 
                    [
                        {
                            "pitch": 71, 
                            "t0": 14947, 
                            "v": 79, 
                            "dur": 181, 
                            "type": "note", 
                            "channel": 13
                        }
                    ]
                ], 
                [
                    15073, 
                    [
                        {
                            "pitch": 62, 
                            "t0": 15073, 
                            "v": 61, 
                            "dur": 21, 
                            "type": "note", 
                            "channel": 13
                        }
                    ]
                ], 
                [
                    15116, 
                    [
                        {
                            "pitch": 61, 
                            "t0": 15116, 
                            "v": 85, 
                            "dur": 100, 
                            "type": "note", 
                            "channel": 13
                        }
                    ]
                ], 
                [
                    15197, 
                    [
                        {
                            "pitch": 70, 
                            "t0": 15197, 
                            "v": 81, 
                            "dur": 27, 
                            "type": "note", 
                            "channel": 13
                        }
                    ]
                ], 
                [
                    15231, 
                    [
                        {
                            "pitch": 60, 
                            "t0": 15231, 
                            "v": 80, 
                            "dur": 99, 
                            "type": "note", 
                            "channel": 13
                        }
                    ]
                ], 
                [
                    15315, 
                    [
                        {
                            "pitch": 69, 
                            "t0": 15315, 
                            "v": 75, 
                            "dur": 15, 
                            "type": "note", 
                            "channel": 13
                        }
                    ]
                ], 
                [
                    15353, 
                    [
                        {
                            "pitch": 59, 
                            "t0": 15353, 
                            "v": 100, 
                            "dur": 22, 
                            "type": "note", 
                            "channel": 13
                        }
                    ]
                ], 
                [
                    15354, 
                    [
                        {
                            "pitch": 67, 
                            "t0": 15354, 
                            "v": 117, 
                            "dur": 29, 
                            "type": "note", 
                            "channel": 13
                        }
                    ]
                ], 
                [
                    15845, 
                    [
                        {
                            "pitch": 43, 
                            "t0": 15845, 
                            "v": 73, 
                            "dur": 166, 
                            "type": "note", 
                            "channel": 13
                        }
                    ]
                ], 
                [
                    15960, 
                    [
                        {
                            "pitch": 55, 
                            "t0": 15960, 
                            "v": 59, 
                            "dur": 54, 
                            "type": "note", 
                            "channel": 13
                        }, 
                        {
                            "pitch": 62, 
                            "t0": 15960, 
                            "v": 65, 
                            "dur": 197, 
                            "type": "note", 
                            "channel": 13
                        }, 
                        {
                            "pitch": 67, 
                            "t0": 15960, 
                            "v": 65, 
                            "dur": 335, 
                            "type": "note", 
                            "channel": 13
                        }
                    ]
                ], 
                [
                    16038, 
                    [
                        {
                            "pitch": 55, 
                            "t0": 16038, 
                            "v": 50, 
                            "dur": 58, 
                            "type": "note", 
                            "channel": 13
                        }
                    ]
                ], 
                [
                    16078, 
                    [
                        {
                            "pitch": 50, 
                            "t0": 16078, 
                            "v": 65, 
                            "dur": 147, 
                            "type": "note", 
                            "channel": 13
                        }
                    ]
                ], 
                [
                    16158, 
                    [
                        {
                            "pitch": 55, 
                            "t0": 16158, 
                            "v": 61, 
                            "dur": 73, 
                            "type": "note", 
                            "channel": 13
                        }
                    ]
                ], 
                [
                    16189, 
                    [
                        {
                            "pitch": 62, 
                            "t0": 16189, 
                            "v": 54, 
                            "dur": 96, 
                            "type": "note", 
                            "channel": 13
                        }
                    ]
                ], 
                [
                    16283, 
                    [
                        {
                            "pitch": 55, 
                            "t0": 16283, 
                            "v": 67, 
                            "dur": 22, 
                            "type": "note", 
                            "channel": 13
                        }
                    ]
                ], 
                [
                    16314, 
                    [
                        {
                            "pitch": 48, 
                            "t0": 16314, 
                            "v": 84, 
                            "dur": 226, 
                            "type": "note", 
                            "channel": 13
                        }
                    ]
                ], 
                [
                    16404, 
                    [
                        {
                            "pitch": 55, 
                            "t0": 16404, 
                            "v": 53, 
                            "dur": 187, 
                            "type": "note", 
                            "channel": 13
                        }
                    ]
                ], 
                [
                    16443, 
                    [
                        {
                            "pitch": 60, 
                            "t0": 16443, 
                            "v": 71, 
                            "dur": 320, 
                            "type": "note", 
                            "channel": 13
                        }
                    ]
                ], 
                [
                    16517, 
                    [
                        {
                            "pitch": 67, 
                            "t0": 16517, 
                            "v": 86, 
                            "dur": 194, 
                            "type": "note", 
                            "channel": 13
                        }
                    ]
                ], 
                [
                    16562, 
                    [
                        {
                            "pitch": 43, 
                            "t0": 16562, 
                            "v": 60, 
                            "dur": 38, 
                            "type": "note", 
                            "channel": 13
                        }
                    ]
                ], 
                [
                    16640, 
                    [
                        {
                            "pitch": 55, 
                            "t0": 16640, 
                            "v": 68, 
                            "dur": 72, 
                            "type": "note", 
                            "channel": 13
                        }
                    ]
                ], 
                [
                    16680, 
                    [
                        {
                            "pitch": 64, 
                            "t0": 16680, 
                            "v": 80, 
                            "dur": 84, 
                            "type": "note", 
                            "channel": 13
                        }
                    ]
                ], 
                [
                    16682, 
                    [
                        {
                            "pitch": 48, 
                            "t0": 16682, 
                            "v": 69, 
                            "dur": 29, 
                            "type": "note", 
                            "channel": 13
                        }
                    ]
                ], 
                [
                    16760, 
                    [
                        {
                            "pitch": 55, 
                            "t0": 16760, 
                            "v": 68, 
                            "dur": 23, 
                            "type": "note", 
                            "channel": 13
                        }
                    ]
                ], 
                [
                    16795, 
                    [
                        {
                            "pitch": 43, 
                            "t0": 16795, 
                            "v": 78, 
                            "dur": 143, 
                            "type": "note", 
                            "channel": 13
                        }
                    ]
                ], 
                [
                    16879, 
                    [
                        {
                            "pitch": 55, 
                            "t0": 16879, 
                            "v": 54, 
                            "dur": 101, 
                            "type": "note", 
                            "channel": 13
                        }
                    ]
                ], 
                [
                    16915, 
                    [
                        {
                            "pitch": 67, 
                            "t0": 16915, 
                            "v": 87, 
                            "dur": 218, 
                            "type": "note", 
                            "channel": 13
                        }
                    ]
                ], 
                [
                    17002, 
                    [
                        {
                            "pitch": 55, 
                            "t0": 17002, 
                            "v": 61, 
                            "dur": 73, 
                            "type": "note", 
                            "channel": 13
                        }
                    ]
                ], 
                [
                    17043, 
                    [
                        {
                            "pitch": 50, 
                            "t0": 17043, 
                            "v": 61, 
                            "dur": 18, 
                            "type": "note", 
                            "channel": 13
                        }
                    ]
                ], 
                [
                    17117, 
                    [
                        {
                            "pitch": 55, 
                            "t0": 17117, 
                            "v": 65, 
                            "dur": 87, 
                            "type": "note", 
                            "channel": 13
                        }
                    ]
                ], 
                [
                    17118, 
                    [
                        {
                            "pitch": 62, 
                            "t0": 17118, 
                            "v": 73, 
                            "dur": 42, 
                            "type": "note", 
                            "channel": 13
                        }
                    ]
                ], 
                [
                    17159, 
                    [
                        {
                            "pitch": 67, 
                            "t0": 17159, 
                            "v": 80, 
                            "dur": 229, 
                            "type": "note", 
                            "channel": 13
                        }
                    ]
                ], 
                [
                    17162, 
                    [
                        {
                            "pitch": 64, 
                            "t0": 17162, 
                            "v": 70, 
                            "dur": 22, 
                            "type": "note", 
                            "channel": 13
                        }
                    ]
                ], 
                [
                    17234, 
                    [
                        {
                            "pitch": 55, 
                            "t0": 17234, 
                            "v": 73, 
                            "dur": 86, 
                            "type": "note", 
                            "channel": 13
                        }
                    ]
                ], 
                [
                    17240, 
                    [
                        {
                            "pitch": 64, 
                            "t0": 17240, 
                            "v": 65, 
                            "dur": 10, 
                            "type": "note", 
                            "channel": 13
                        }
                    ]
                ], 
                [
                    17286, 
                    [
                        {
                            "pitch": 43, 
                            "t0": 17286, 
                            "v": 68, 
                            "dur": 86, 
                            "type": "note", 
                            "channel": 13
                        }
                    ]
                ], 
                [
                    17365, 
                    [
                        {
                            "pitch": 55, 
                            "t0": 17365, 
                            "v": 64, 
                            "dur": 84, 
                            "type": "note", 
                            "channel": 13
                        }
                    ]
                ], 
                [
                    17398, 
                    [
                        {
                            "pitch": 64, 
                            "t0": 17398, 
                            "v": 67, 
                            "dur": 51, 
                            "type": "note", 
                            "channel": 13
                        }
                    ]
                ], 
                [
                    17473, 
                    [
                        {
                            "pitch": 55, 
                            "t0": 17473, 
                            "v": 61, 
                            "dur": 76, 
                            "type": "note", 
                            "channel": 13
                        }
                    ]
                ], 
                [
                    17475, 
                    [
                        {
                            "pitch": 67, 
                            "t0": 17475, 
                            "v": 86, 
                            "dur": 183, 
                            "type": "note", 
                            "channel": 13
                        }
                    ]
                ], 
                [
                    17522, 
                    [
                        {
                            "pitch": 50, 
                            "t0": 17522, 
                            "v": 61, 
                            "dur": 23, 
                            "type": "note", 
                            "channel": 13
                        }
                    ]
                ], 
                [
                    17603, 
                    [
                        {
                            "pitch": 55, 
                            "t0": 17603, 
                            "v": 68, 
                            "dur": 83, 
                            "type": "note", 
                            "channel": 13
                        }
                    ]
                ], 
                [
                    17640, 
                    [
                        {
                            "pitch": 64, 
                            "t0": 17640, 
                            "v": 79, 
                            "dur": 77, 
                            "type": "note", 
                            "channel": 13
                        }
                    ]
                ], 
                [
                    17717, 
                    [
                        {
                            "pitch": 55, 
                            "t0": 17717, 
                            "v": 68, 
                            "dur": 26, 
                            "type": "note", 
                            "channel": 13
                        }
                    ]
                ], 
                [
                    17755, 
                    [
                        {
                            "pitch": 43, 
                            "t0": 17755, 
                            "v": 78, 
                            "dur": 124, 
                            "type": "note", 
                            "channel": 13
                        }
                    ]
                ], 
                [
                    17842, 
                    [
                        {
                            "pitch": 55, 
                            "t0": 17842, 
                            "v": 48, 
                            "dur": 192, 
                            "type": "note", 
                            "channel": 13
                        }
                    ]
                ], 
                [
                    17876, 
                    [
                        {
                            "pitch": 67, 
                            "t0": 17876, 
                            "v": 88, 
                            "dur": 214, 
                            "type": "note", 
                            "channel": 13
                        }
                    ]
                ], 
                [
                    18000, 
                    [
                        {
                            "pitch": 50, 
                            "t0": 18000, 
                            "v": 63, 
                            "dur": 23, 
                            "type": "note", 
                            "channel": 13
                        }
                    ]
                ], 
                [
                    18074, 
                    [
                        {
                            "pitch": 62, 
                            "t0": 18074, 
                            "v": 64, 
                            "dur": 35, 
                            "type": "note", 
                            "channel": 13
                        }
                    ]
                ], 
                [
                    18116, 
                    [
                        {
                            "pitch": 55, 
                            "t0": 18116, 
                            "v": 15, 
                            "dur": 150, 
                            "type": "note", 
                            "channel": 13
                        }
                    ]
                ], 
                [
                    18122, 
                    [
                        {
                            "pitch": 64, 
                            "t0": 18122, 
                            "v": 65, 
                            "dur": 26, 
                            "type": "note", 
                            "channel": 13
                        }
                    ]
                ], 
                [
                    18190, 
                    [
                        {
                            "pitch": 67, 
                            "t0": 18190, 
                            "v": 87, 
                            "dur": 163, 
                            "type": "note", 
                            "channel": 13
                        }
                    ]
                ], 
                [
                    18238, 
                    [
                        {
                            "pitch": 43, 
                            "t0": 18238, 
                            "v": 73, 
                            "dur": 159, 
                            "type": "note", 
                            "channel": 13
                        }
                    ]
                ], 
                [
                    18324, 
                    [
                        {
                            "pitch": 55, 
                            "t0": 18324, 
                            "v": 60, 
                            "dur": 78, 
                            "type": "note", 
                            "channel": 13
                        }
                    ]
                ], 
                [
                    18364, 
                    [
                        {
                            "pitch": 62, 
                            "t0": 18364, 
                            "v": 36, 
                            "dur": 38, 
                            "type": "note", 
                            "channel": 13
                        }
                    ]
                ], 
                [
                    18431, 
                    [
                        {
                            "pitch": 55, 
                            "t0": 18431, 
                            "v": 31, 
                            "dur": 75, 
                            "type": "note", 
                            "channel": 13
                        }
                    ]
                ], 
                [
                    18436, 
                    [
                        {
                            "pitch": 67, 
                            "t0": 18436, 
                            "v": 80, 
                            "dur": 180, 
                            "type": "note", 
                            "channel": 13
                        }
                    ]
                ], 
                [
                    18478, 
                    [
                        {
                            "pitch": 50, 
                            "t0": 18478, 
                            "v": 48, 
                            "dur": 27, 
                            "type": "note", 
                            "channel": 13
                        }
                    ]
                ], 
                [
                    18563, 
                    [
                        {
                            "pitch": 55, 
                            "t0": 18563, 
                            "v": 53, 
                            "dur": 65, 
                            "type": "note", 
                            "channel": 13
                        }
                    ]
                ], 
                [
                    18598, 
                    [
                        {
                            "pitch": 64, 
                            "t0": 18598, 
                            "v": 73, 
                            "dur": 69, 
                            "type": "note", 
                            "channel": 13
                        }
                    ]
                ], 
                [
                    18678, 
                    [
                        {
                            "pitch": 55, 
                            "t0": 18678, 
                            "v": 66, 
                            "dur": 12, 
                            "type": "note", 
                            "channel": 13
                        }
                    ]
                ], 
                [
                    18712, 
                    [
                        {
                            "pitch": 45, 
                            "t0": 18712, 
                            "v": 73, 
                            "dur": 84, 
                            "type": "note", 
                            "channel": 13
                        }
                    ]
                ], 
                [
                    18850, 
                    [
                        {
                            "pitch": 57, 
                            "t0": 18850, 
                            "v": 44, 
                            "dur": 34, 
                            "type": "note", 
                            "channel": 13
                        }
                    ]
                ], 
                [
                    18852, 
                    [
                        {
                            "pitch": 69, 
                            "t0": 18852, 
                            "v": 68, 
                            "dur": 214, 
                            "type": "note", 
                            "channel": 13
                        }
                    ]
                ], 
                [
                    18945, 
                    [
                        {
                            "pitch": 57, 
                            "t0": 18945, 
                            "v": 52, 
                            "dur": 60, 
                            "type": "note", 
                            "channel": 13
                        }
                    ]
                ], 
                [
                    19057, 
                    [
                        {
                            "pitch": 57, 
                            "t0": 19057, 
                            "v": 44, 
                            "dur": 77, 
                            "type": "note", 
                            "channel": 13
                        }
                    ]
                ], 
                [
                    19087, 
                    [
                        {
                            "pitch": 64, 
                            "t0": 19087, 
                            "v": 59, 
                            "dur": 32, 
                            "type": "note", 
                            "channel": 13
                        }
                    ]
                ], 
                [
                    19157, 
                    [
                        {
                            "pitch": 69, 
                            "t0": 19157, 
                            "v": 77, 
                            "dur": 169, 
                            "type": "note", 
                            "channel": 13
                        }
                    ]
                ], 
                [
                    19159, 
                    [
                        {
                            "pitch": 57, 
                            "t0": 19159, 
                            "v": 46, 
                            "dur": 75, 
                            "type": "note", 
                            "channel": 13
                        }
                    ]
                ], 
                [
                    19207, 
                    [
                        {
                            "pitch": 50, 
                            "t0": 19207, 
                            "v": 70, 
                            "dur": 197, 
                            "type": "note", 
                            "channel": 13
                        }
                    ]
                ], 
                [
                    19285, 
                    [
                        {
                            "pitch": 57, 
                            "t0": 19285, 
                            "v": 60, 
                            "dur": 184, 
                            "type": "note", 
                            "channel": 13
                        }
                    ]
                ], 
                [
                    19322, 
                    [
                        {
                            "pitch": 62, 
                            "t0": 19322, 
                            "v": 57, 
                            "dur": 60, 
                            "type": "note", 
                            "channel": 13
                        }
                    ]
                ], 
                [
                    19391, 
                    [
                        {
                            "pitch": 62, 
                            "t0": 19391, 
                            "v": 37, 
                            "dur": 138, 
                            "type": "note", 
                            "channel": 13
                        }, 
                        {
                            "pitch": 66, 
                            "t0": 19391, 
                            "v": 82, 
                            "dur": 181, 
                            "type": "note", 
                            "channel": 13
                        }
                    ]
                ], 
                [
                    19441, 
                    [
                        {
                            "pitch": 45, 
                            "t0": 19441, 
                            "v": 62, 
                            "dur": 34, 
                            "type": "note", 
                            "channel": 13
                        }
                    ]
                ], 
                [
                    19516, 
                    [
                        {
                            "pitch": 57, 
                            "t0": 19516, 
                            "v": 54, 
                            "dur": 82, 
                            "type": "note", 
                            "channel": 13
                        }
                    ]
                ], 
                [
                    19556, 
                    [
                        {
                            "pitch": 62, 
                            "t0": 19556, 
                            "v": 68, 
                            "dur": 96, 
                            "type": "note", 
                            "channel": 13
                        }
                    ]
                ], 
                [
                    19561, 
                    [
                        {
                            "pitch": 50, 
                            "t0": 19561, 
                            "v": 76, 
                            "dur": 85, 
                            "type": "note", 
                            "channel": 13
                        }
                    ]
                ], 
                [
                    19657, 
                    [
                        {
                            "pitch": 57, 
                            "t0": 19657, 
                            "v": 51, 
                            "dur": 12, 
                            "type": "note", 
                            "channel": 13
                        }
                    ]
                ], 
                [
                    19680, 
                    [
                        {
                            "pitch": 43, 
                            "t0": 19680, 
                            "v": 91, 
                            "dur": 199, 
                            "type": "note", 
                            "channel": 13
                        }
                    ]
                ], 
                [
                    19764, 
                    [
                        {
                            "pitch": 55, 
                            "t0": 19764, 
                            "v": 66, 
                            "dur": 185, 
                            "type": "note", 
                            "channel": 13
                        }
                    ]
                ], 
                [
                    19799, 
                    [
                        {
                            "pitch": 59, 
                            "t0": 19799, 
                            "v": 64, 
                            "dur": 225, 
                            "type": "note", 
                            "channel": 13
                        }
                    ]
                ], 
                [
                    19875, 
                    [
                        {
                            "pitch": 67, 
                            "t0": 19875, 
                            "v": 87, 
                            "dur": 185, 
                            "type": "note", 
                            "channel": 13
                        }
                    ]
                ], 
                [
                    19920, 
                    [
                        {
                            "pitch": 50, 
                            "t0": 19920, 
                            "v": 65, 
                            "dur": 171, 
                            "type": "note", 
                            "channel": 13
                        }
                    ]
                ], 
                [
                    20001, 
                    [
                        {
                            "pitch": 55, 
                            "t0": 20001, 
                            "v": 65, 
                            "dur": 98, 
                            "type": "note", 
                            "channel": 13
                        }
                    ]
                ], 
                [
                    20047, 
                    [
                        {
                            "pitch": 59, 
                            "t0": 20047, 
                            "v": 74, 
                            "dur": 84, 
                            "type": "note", 
                            "channel": 13
                        }
                    ]
                ], 
                [
                    20120, 
                    [
                        {
                            "pitch": 55, 
                            "t0": 20120, 
                            "v": 54, 
                            "dur": 24, 
                            "type": "note", 
                            "channel": 13
                        }
                    ]
                ], 
                [
                    20155, 
                    [
                        {
                            "pitch": 48, 
                            "t0": 20155, 
                            "v": 98, 
                            "dur": 245, 
                            "type": "note", 
                            "channel": 13
                        }
                    ]
                ], 
                [
                    20236, 
                    [
                        {
                            "pitch": 52, 
                            "t0": 20236, 
                            "v": 55, 
                            "dur": 158, 
                            "type": "note", 
                            "channel": 13
                        }
                    ]
                ], 
                [
                    20282, 
                    [
                        {
                            "pitch": 55, 
                            "t0": 20282, 
                            "v": 80, 
                            "dur": 343, 
                            "type": "note", 
                            "channel": 13
                        }
                    ]
                ], 
                [
                    20361, 
                    [
                        {
                            "pitch": 64, 
                            "t0": 20361, 
                            "v": 84, 
                            "dur": 236, 
                            "type": "note", 
                            "channel": 13
                        }
                    ]
                ], 
                [
                    20411, 
                    [
                        {
                            "pitch": 43, 
                            "t0": 20411, 
                            "v": 64, 
                            "dur": 22, 
                            "type": "note", 
                            "channel": 13
                        }
                    ]
                ], 
                [
                    20485, 
                    [
                        {
                            "pitch": 52, 
                            "t0": 20485, 
                            "v": 73, 
                            "dur": 74, 
                            "type": "note", 
                            "channel": 13
                        }
                    ]
                ], 
                [
                    20525, 
                    [
                        {
                            "pitch": 48, 
                            "t0": 20525, 
                            "v": 74, 
                            "dur": 22, 
                            "type": "note", 
                            "channel": 13
                        }
                    ]
                ], 
                [
                    20528, 
                    [
                        {
                            "pitch": 60, 
                            "t0": 20528, 
                            "v": 66, 
                            "dur": 77, 
                            "type": "note", 
                            "channel": 13
                        }
                    ]
                ], 
                [
                    20603, 
                    [
                        {
                            "pitch": 52, 
                            "t0": 20603, 
                            "v": 70, 
                            "dur": 20, 
                            "type": "note", 
                            "channel": 13
                        }
                    ]
                ], 
                [
                    20636, 
                    [
                        {
                            "pitch": 43, 
                            "t0": 20636, 
                            "v": 98, 
                            "dur": 219, 
                            "type": "note", 
                            "channel": 13
                        }
                    ]
                ], 
                [
                    20714, 
                    [
                        {
                            "pitch": 55, 
                            "t0": 20714, 
                            "v": 72, 
                            "dur": 207, 
                            "type": "note", 
                            "channel": 13
                        }
                    ]
                ], 
                [
                    20759, 
                    [
                        {
                            "pitch": 59, 
                            "t0": 20759, 
                            "v": 94, 
                            "dur": 233, 
                            "type": "note", 
                            "channel": 13
                        }
                    ]
                ], 
                [
                    20834, 
                    [
                        {
                            "pitch": 67, 
                            "t0": 20834, 
                            "v": 98, 
                            "dur": 130, 
                            "type": "note", 
                            "channel": 13
                        }
                    ]
                ], 
                [
                    20885, 
                    [
                        {
                            "pitch": 50, 
                            "t0": 20885, 
                            "v": 83, 
                            "dur": 30, 
                            "type": "note", 
                            "channel": 13
                        }
                    ]
                ], 
                [
                    20947, 
                    [
                        {
                            "pitch": 50, 
                            "t0": 20947, 
                            "v": 50, 
                            "dur": 106, 
                            "type": "note", 
                            "channel": 13
                        }
                    ]
                ], 
                [
                    20968, 
                    [
                        {
                            "pitch": 55, 
                            "t0": 20968, 
                            "v": 68, 
                            "dur": 128, 
                            "type": "note", 
                            "channel": 13
                        }
                    ]
                ], 
                [
                    21003, 
                    [
                        {
                            "pitch": 59, 
                            "t0": 21003, 
                            "v": 59, 
                            "dur": 91, 
                            "type": "note", 
                            "channel": 13
                        }
                    ]
                ], 
                [
                    21077, 
                    [
                        {
                            "pitch": 65, 
                            "t0": 21077, 
                            "v": 73, 
                            "dur": 23, 
                            "type": "note", 
                            "channel": 13
                        }
                    ]
                ], 
                [
                    21120, 
                    [
                        {
                            "pitch": 48, 
                            "t0": 21120, 
                            "v": 102, 
                            "dur": 234, 
                            "type": "note", 
                            "channel": 13
                        }
                    ]
                ], 
                [
                    21200, 
                    [
                        {
                            "pitch": 52, 
                            "t0": 21200, 
                            "v": 70, 
                            "dur": 101, 
                            "type": "note", 
                            "channel": 13
                        }
                    ]
                ], 
                [
                    21247, 
                    [
                        {
                            "pitch": 55, 
                            "t0": 21247, 
                            "v": 56, 
                            "dur": 211, 
                            "type": "note", 
                            "channel": 13
                        }
                    ]
                ], 
                [
                    21317, 
                    [
                        {
                            "pitch": 52, 
                            "t0": 21317, 
                            "v": 30, 
                            "dur": 62, 
                            "type": "note", 
                            "channel": 13
                        }, 
                        {
                            "pitch": 64, 
                            "t0": 21317, 
                            "v": 80, 
                            "dur": 205, 
                            "type": "note", 
                            "channel": 13
                        }
                    ]
                ], 
                [
                    21366, 
                    [
                        {
                            "pitch": 43, 
                            "t0": 21366, 
                            "v": 62, 
                            "dur": 21, 
                            "type": "note", 
                            "channel": 13
                        }
                    ]
                ], 
                [
                    21438, 
                    [
                        {
                            "pitch": 52, 
                            "t0": 21438, 
                            "v": 69, 
                            "dur": 81, 
                            "type": "note", 
                            "channel": 13
                        }
                    ]
                ], 
                [
                    21475, 
                    [
                        {
                            "pitch": 60, 
                            "t0": 21475, 
                            "v": 80, 
                            "dur": 103, 
                            "type": "note", 
                            "channel": 13
                        }
                    ]
                ], 
                [
                    21478, 
                    [
                        {
                            "pitch": 55, 
                            "t0": 21478, 
                            "v": 59, 
                            "dur": 96, 
                            "type": "note", 
                            "channel": 13
                        }
                    ]
                ], 
                [
                    21555, 
                    [
                        {
                            "pitch": 52, 
                            "t0": 21555, 
                            "v": 66, 
                            "dur": 21, 
                            "type": "note", 
                            "channel": 13
                        }
                    ]
                ], 
                [
                    21595, 
                    [
                        {
                            "pitch": 43, 
                            "t0": 21595, 
                            "v": 100, 
                            "dur": 184, 
                            "type": "note", 
                            "channel": 13
                        }
                    ]
                ], 
                [
                    21675, 
                    [
                        {
                            "pitch": 55, 
                            "t0": 21675, 
                            "v": 69, 
                            "dur": 207, 
                            "type": "note", 
                            "channel": 13
                        }
                    ]
                ], 
                [
                    21720, 
                    [
                        {
                            "pitch": 59, 
                            "t0": 21720, 
                            "v": 87, 
                            "dur": 328, 
                            "type": "note", 
                            "channel": 13
                        }
                    ]
                ], 
                [
                    21796, 
                    [
                        {
                            "pitch": 67, 
                            "t0": 21796, 
                            "v": 86, 
                            "dur": 267, 
                            "type": "note", 
                            "channel": 13
                        }
                    ]
                ], 
                [
                    21843, 
                    [
                        {
                            "pitch": 47, 
                            "t0": 21843, 
                            "v": 92, 
                            "dur": 25, 
                            "type": "note", 
                            "channel": 13
                        }
                    ]
                ], 
                [
                    21930, 
                    [
                        {
                            "pitch": 55, 
                            "t0": 21930, 
                            "v": 65, 
                            "dur": 75, 
                            "type": "note", 
                            "channel": 13
                        }
                    ]
                ], 
                [
                    21962, 
                    [
                        {
                            "pitch": 49, 
                            "t0": 21962, 
                            "v": 82, 
                            "dur": 83, 
                            "type": "note", 
                            "channel": 13
                        }
                    ]
                ], 
                [
                    22036, 
                    [
                        {
                            "pitch": 55, 
                            "t0": 22036, 
                            "v": 63, 
                            "dur": 24, 
                            "type": "note", 
                            "channel": 13
                        }
                    ]
                ], 
                [
                    22075, 
                    [
                        {
                            "pitch": 50, 
                            "t0": 22075, 
                            "v": 102, 
                            "dur": 226, 
                            "type": "note", 
                            "channel": 13
                        }
                    ]
                ], 
                [
                    22163, 
                    [
                        {
                            "pitch": 57, 
                            "t0": 22163, 
                            "v": 49, 
                            "dur": 203, 
                            "type": "note", 
                            "channel": 13
                        }
                    ]
                ], 
                [
                    22203, 
                    [
                        {
                            "pitch": 62, 
                            "t0": 22203, 
                            "v": 75, 
                            "dur": 100, 
                            "type": "note", 
                            "channel": 13
                        }
                    ]
                ], 
                [
                    22276, 
                    [
                        {
                            "pitch": 66, 
                            "t0": 22276, 
                            "v": 79, 
                            "dur": 235, 
                            "type": "note", 
                            "channel": 13
                        }
                    ]
                ], 
                [
                    22323, 
                    [
                        {
                            "pitch": 45, 
                            "t0": 22323, 
                            "v": 54, 
                            "dur": 12, 
                            "type": "note", 
                            "channel": 13
                        }
                    ]
                ], 
                [
                    22331, 
                    [
                        {
                            "pitch": 62, 
                            "t0": 22331, 
                            "v": 17, 
                            "dur": 83, 
                            "type": "note", 
                            "channel": 13
                        }
                    ]
                ], 
                [
                    22396, 
                    [
                        {
                            "pitch": 57, 
                            "t0": 22396, 
                            "v": 71, 
                            "dur": 83, 
                            "type": "note", 
                            "channel": 13
                        }
                    ]
                ], 
                [
                    22436, 
                    [
                        {
                            "pitch": 62, 
                            "t0": 22436, 
                            "v": 72, 
                            "dur": 95, 
                            "type": "note", 
                            "channel": 13
                        }
                    ]
                ], 
                [
                    22438, 
                    [
                        {
                            "pitch": 50, 
                            "t0": 22438, 
                            "v": 78, 
                            "dur": 37, 
                            "type": "note", 
                            "channel": 13
                        }
                    ]
                ], 
                [
                    22521, 
                    [
                        {
                            "pitch": 57, 
                            "t0": 22521, 
                            "v": 68, 
                            "dur": 27, 
                            "type": "note", 
                            "channel": 13
                        }
                    ]
                ], 
                [
                    22560, 
                    [
                        {
                            "pitch": 43, 
                            "t0": 22560, 
                            "v": 112, 
                            "dur": 36, 
                            "type": "note", 
                            "channel": 13
                        }
                    ]
                ], 
                [
                    22636, 
                    [
                        {
                            "pitch": 55, 
                            "t0": 22636, 
                            "v": 44, 
                            "dur": 21, 
                            "type": "note", 
                            "channel": 13
                        }
                    ]
                ], 
                [
                    22684, 
                    [
                        {
                            "pitch": 67, 
                            "t0": 22684, 
                            "v": 110, 
                            "dur": 130, 
                            "type": "note", 
                            "channel": 13
                        }
                    ]
                ], 
                [
                    22691, 
                    [
                        {
                            "pitch": 55, 
                            "t0": 22691, 
                            "v": 64, 
                            "dur": 15, 
                            "type": "note", 
                            "channel": 13
                        }
                    ]
                ], 
                [
                    22800, 
                    [
                        {
                            "pitch": 64, 
                            "t0": 22800, 
                            "v": 88, 
                            "dur": 63, 
                            "type": "note", 
                            "channel": 13
                        }
                    ]
                ], 
                [
                    22872, 
                    [
                        {
                            "pitch": 62, 
                            "t0": 22872, 
                            "v": 79, 
                            "dur": 15, 
                            "type": "note", 
                            "channel": 13
                        }
                    ]
                ], 
                [
                    22910, 
                    [
                        {
                            "pitch": 57, 
                            "t0": 22910, 
                            "v": 108, 
                            "dur": 133, 
                            "type": "note", 
                            "channel": 13
                        }
                    ]
                ], 
                [
                    23048, 
                    [
                        {
                            "pitch": 55, 
                            "t0": 23048, 
                            "v": 110, 
                            "dur": 31, 
                            "type": "note", 
                            "channel": 13
                        }
                    ]
                ], 
                [
                    23585, 
                    [
                        {
                            "pitch": 52, 
                            "t0": 23585, 
                            "v": 62, 
                            "dur": 277, 
                            "type": "note", 
                            "channel": 13
                        }
                    ]
                ], 
                [
                    23632, 
                    [
                        {
                            "pitch": 55, 
                            "t0": 23632, 
                            "v": 70, 
                            "dur": 277, 
                            "type": "note", 
                            "channel": 13
                        }
                    ]
                ], 
                [
                    23705, 
                    [
                        {
                            "pitch": 60, 
                            "t0": 23705, 
                            "v": 76, 
                            "dur": 158, 
                            "type": "note", 
                            "channel": 13
                        }
                    ]
                ], 
                [
                    23895, 
                    [
                        {
                            "pitch": 52, 
                            "t0": 23895, 
                            "v": 58, 
                            "dur": 530, 
                            "type": "note", 
                            "channel": 13
                        }
                    ]
                ], 
                [
                    23957, 
                    [
                        {
                            "pitch": 64, 
                            "t0": 23957, 
                            "v": 81, 
                            "dur": 483, 
                            "type": "note", 
                            "channel": 13
                        }
                    ]
                ], 
                [
                    24476, 
                    [
                        {
                            "pitch": 43, 
                            "t0": 24476, 
                            "v": 67, 
                            "dur": 200, 
                            "type": "note", 
                            "channel": 13
                        }
                    ]
                ], 
                [
                    24553, 
                    [
                        {
                            "pitch": 55, 
                            "t0": 24553, 
                            "v": 62, 
                            "dur": 309, 
                            "type": "note", 
                            "channel": 13
                        }
                    ]
                ], 
                [
                    24604, 
                    [
                        {
                            "pitch": 59, 
                            "t0": 24604, 
                            "v": 77, 
                            "dur": 179, 
                            "type": "note", 
                            "channel": 13
                        }
                    ]
                ], 
                [
                    24679, 
                    [
                        {
                            "pitch": 67, 
                            "t0": 24679, 
                            "v": 78, 
                            "dur": 154, 
                            "type": "note", 
                            "channel": 13
                        }
                    ]
                ], 
                [
                    24727, 
                    [
                        {
                            "pitch": 50, 
                            "t0": 24727, 
                            "v": 50, 
                            "dur": 150, 
                            "type": "note", 
                            "channel": 13
                        }
                    ]
                ], 
                [
                    24792, 
                    [
                        {
                            "pitch": 62, 
                            "t0": 24792, 
                            "v": 66, 
                            "dur": 65, 
                            "type": "note", 
                            "channel": 13
                        }
                    ]
                ], 
                [
                    24845, 
                    [
                        {
                            "pitch": 59, 
                            "t0": 24845, 
                            "v": 85, 
                            "dur": 31, 
                            "type": "note", 
                            "channel": 13
                        }
                    ]
                ], 
                [
                    24911, 
                    [
                        {
                            "pitch": 71, 
                            "t0": 24911, 
                            "v": 79, 
                            "dur": 447, 
                            "type": "note", 
                            "channel": 13
                        }
                    ]
                ], 
                [
                    24958, 
                    [
                        {
                            "pitch": 43, 
                            "t0": 24958, 
                            "v": 59, 
                            "dur": 240, 
                            "type": "note", 
                            "channel": 13
                        }
                    ]
                ], 
                [
                    25078, 
                    [
                        {
                            "pitch": 62, 
                            "t0": 25078, 
                            "v": 54, 
                            "dur": 224, 
                            "type": "note", 
                            "channel": 13
                        }
                    ]
                ], 
                [
                    25167, 
                    [
                        {
                            "pitch": 67, 
                            "t0": 25167, 
                            "v": 50, 
                            "dur": 190, 
                            "type": "note", 
                            "channel": 13
                        }
                    ]
                ], 
                [
                    25196, 
                    [
                        {
                            "pitch": 50, 
                            "t0": 25196, 
                            "v": 61, 
                            "dur": 159, 
                            "type": "note", 
                            "channel": 13
                        }
                    ]
                ], 
                [
                    25316, 
                    [
                        {
                            "pitch": 62, 
                            "t0": 25316, 
                            "v": 33, 
                            "dur": 53, 
                            "type": "note", 
                            "channel": 13
                        }
                    ]
                ], 
                [
                    25443, 
                    [
                        {
                            "pitch": 45, 
                            "t0": 25443, 
                            "v": 83, 
                            "dur": 225, 
                            "type": "note", 
                            "channel": 13
                        }
                    ]
                ], 
                [
                    25517, 
                    [
                        {
                            "pitch": 57, 
                            "t0": 25517, 
                            "v": 68, 
                            "dur": 269, 
                            "type": "note", 
                            "channel": 13
                        }
                    ]
                ], 
                [
                    25555, 
                    [
                        {
                            "pitch": 61, 
                            "t0": 25555, 
                            "v": 53, 
                            "dur": 193, 
                            "type": "note", 
                            "channel": 13
                        }
                    ]
                ], 
                [
                    25631, 
                    [
                        {
                            "pitch": 69, 
                            "t0": 25631, 
                            "v": 80, 
                            "dur": 146, 
                            "type": "note", 
                            "channel": 13
                        }
                    ]
                ], 
                [
                    25674, 
                    [
                        {
                            "pitch": 52, 
                            "t0": 25674, 
                            "v": 73, 
                            "dur": 243, 
                            "type": "note", 
                            "channel": 13
                        }
                    ]
                ], 
                [
                    25759, 
                    [
                        {
                            "pitch": 64, 
                            "t0": 25759, 
                            "v": 70, 
                            "dur": 58, 
                            "type": "note", 
                            "channel": 13
                        }
                    ]
                ], 
                [
                    25801, 
                    [
                        {
                            "pitch": 61, 
                            "t0": 25801, 
                            "v": 91, 
                            "dur": 21, 
                            "type": "note", 
                            "channel": 13
                        }
                    ]
                ], 
                [
                    25876, 
                    [
                        {
                            "pitch": 73, 
                            "t0": 25876, 
                            "v": 74, 
                            "dur": 247, 
                            "type": "note", 
                            "channel": 13
                        }
                    ]
                ], 
                [
                    25928, 
                    [
                        {
                            "pitch": 45, 
                            "t0": 25928, 
                            "v": 65, 
                            "dur": 247, 
                            "type": "note", 
                            "channel": 13
                        }
                    ]
                ], 
                [
                    26057, 
                    [
                        {
                            "pitch": 64, 
                            "t0": 26057, 
                            "v": 31, 
                            "dur": 149, 
                            "type": "note", 
                            "channel": 13
                        }
                    ]
                ], 
                [
                    26112, 
                    [
                        {
                            "pitch": 69, 
                            "t0": 26112, 
                            "v": 63, 
                            "dur": 206, 
                            "type": "note", 
                            "channel": 13
                        }
                    ]
                ], 
                [
                    26151, 
                    [
                        {
                            "pitch": 73, 
                            "t0": 26151, 
                            "v": 24, 
                            "dur": 217, 
                            "type": "note", 
                            "channel": 13
                        }
                    ]
                ], 
                [
                    26157, 
                    [
                        {
                            "pitch": 52, 
                            "t0": 26157, 
                            "v": 42, 
                            "dur": 152, 
                            "type": "note", 
                            "channel": 13
                        }
                    ]
                ], 
                [
                    26286, 
                    [
                        {
                            "pitch": 64, 
                            "t0": 26286, 
                            "v": 60, 
                            "dur": 95, 
                            "type": "note", 
                            "channel": 13
                        }
                    ]
                ], 
                [
                    26400, 
                    [
                        {
                            "pitch": 50, 
                            "t0": 26400, 
                            "v": 72, 
                            "dur": 241, 
                            "type": "note", 
                            "channel": 13
                        }
                    ]
                ], 
                [
                    26488, 
                    [
                        {
                            "pitch": 62, 
                            "t0": 26488, 
                            "v": 62, 
                            "dur": 222, 
                            "type": "note", 
                            "channel": 13
                        }
                    ]
                ], 
                [
                    26534, 
                    [
                        {
                            "pitch": 66, 
                            "t0": 26534, 
                            "v": 33, 
                            "dur": 152, 
                            "type": "note", 
                            "channel": 13
                        }
                    ]
                ], 
                [
                    26599, 
                    [
                        {
                            "pitch": 69, 
                            "t0": 26599, 
                            "v": 68, 
                            "dur": 136, 
                            "type": "note", 
                            "channel": 13
                        }
                    ]
                ], 
                [
                    26649, 
                    [
                        {
                            "pitch": 45, 
                            "t0": 26649, 
                            "v": 62, 
                            "dur": 187, 
                            "type": "note", 
                            "channel": 13
                        }
                    ]
                ], 
                [
                    26712, 
                    [
                        {
                            "pitch": 66, 
                            "t0": 26712, 
                            "v": 70, 
                            "dur": 361, 
                            "type": "note", 
                            "channel": 13
                        }
                    ]
                ], 
                [
                    26762, 
                    [
                        {
                            "pitch": 62, 
                            "t0": 26762, 
                            "v": 75, 
                            "dur": 205, 
                            "type": "note", 
                            "channel": 13
                        }
                    ]
                ], 
                [
                    26839, 
                    [
                        {
                            "pitch": 74, 
                            "t0": 26839, 
                            "v": 90, 
                            "dur": 284, 
                            "type": "note", 
                            "channel": 13
                        }
                    ]
                ], 
                [
                    26888, 
                    [
                        {
                            "pitch": 50, 
                            "t0": 26888, 
                            "v": 80, 
                            "dur": 33, 
                            "type": "note", 
                            "channel": 13
                        }
                    ]
                ], 
                [
                    27115, 
                    [
                        {
                            "pitch": 66, 
                            "t0": 27115, 
                            "v": 119, 
                            "dur": 97, 
                            "type": "note", 
                            "channel": 13
                        }
                    ]
                ], 
                [
                    27197, 
                    [
                        {
                            "pitch": 74, 
                            "t0": 27197, 
                            "v": 80, 
                            "dur": 34, 
                            "type": "note", 
                            "channel": 13
                        }
                    ]
                ], 
                [
                    27236, 
                    [
                        {
                            "pitch": 65, 
                            "t0": 27236, 
                            "v": 80, 
                            "dur": 98, 
                            "type": "note", 
                            "channel": 13
                        }
                    ]
                ], 
                [
                    27318, 
                    [
                        {
                            "pitch": 73, 
                            "t0": 27318, 
                            "v": 75, 
                            "dur": 27, 
                            "type": "note", 
                            "channel": 13
                        }
                    ]
                ], 
                [
                    27353, 
                    [
                        {
                            "pitch": 64, 
                            "t0": 27353, 
                            "v": 78, 
                            "dur": 319, 
                            "type": "note", 
                            "channel": 13
                        }
                    ]
                ], 
                [
                    27370, 
                    [
                        {
                            "pitch": 72, 
                            "t0": 27370, 
                            "v": 71, 
                            "dur": 345, 
                            "type": "note", 
                            "channel": 13
                        }
                    ]
                ], 
                [
                    27718, 
                    [
                        {
                            "pitch": 67, 
                            "t0": 27718, 
                            "v": 114, 
                            "dur": 433, 
                            "type": "note", 
                            "channel": 13
                        }
                    ]
                ], 
                [
                    27790, 
                    [
                        {
                            "pitch": 76, 
                            "t0": 27790, 
                            "v": 88, 
                            "dur": 385, 
                            "type": "note", 
                            "channel": 13
                        }
                    ]
                ], 
                [
                    28308, 
                    [
                        {
                            "pitch": 62, 
                            "t0": 28308, 
                            "v": 75, 
                            "dur": 282, 
                            "type": "note", 
                            "channel": 13
                        }
                    ]
                ], 
                [
                    28391, 
                    [
                        {
                            "pitch": 71, 
                            "t0": 28391, 
                            "v": 77, 
                            "dur": 154, 
                            "type": "note", 
                            "channel": 13
                        }
                    ]
                ], 
                [
                    28563, 
                    [
                        {
                            "pitch": 71, 
                            "t0": 28563, 
                            "v": 71, 
                            "dur": 21, 
                            "type": "note", 
                            "channel": 13
                        }
                    ]
                ], 
                [
                    28683, 
                    [
                        {
                            "pitch": 69, 
                            "t0": 28683, 
                            "v": 77, 
                            "dur": 15, 
                            "type": "note", 
                            "channel": 13
                        }, 
                        {
                            "pitch": 62, 
                            "t0": 28683, 
                            "v": 70, 
                            "dur": 20, 
                            "type": "note", 
                            "channel": 13
                        }
                    ]
                ], 
                [
                    28915, 
                    [
                        {
                            "pitch": 55, 
                            "t0": 28915, 
                            "v": 77, 
                            "dur": 313, 
                            "type": "note", 
                            "channel": 13
                        }
                    ]
                ], 
                [
                    28995, 
                    [
                        {
                            "pitch": 64, 
                            "t0": 28995, 
                            "v": 81, 
                            "dur": 244, 
                            "type": "note", 
                            "channel": 13
                        }
                    ]
                ], 
                [
                    29387, 
                    [
                        {
                            "pitch": 59, 
                            "t0": 29387, 
                            "v": 86, 
                            "dur": 297, 
                            "type": "note", 
                            "channel": 13
                        }
                    ]
                ], 
                [
                    29477, 
                    [
                        {
                            "pitch": 67, 
                            "t0": 29477, 
                            "v": 91, 
                            "dur": 275, 
                            "type": "note", 
                            "channel": 13
                        }
                    ]
                ], 
                [
                    29763, 
                    [
                        {
                            "pitch": 66, 
                            "t0": 29763, 
                            "v": 84, 
                            "dur": 43, 
                            "type": "note", 
                            "channel": 13
                        }
                    ]
                ], 
                [
                    29814, 
                    [
                        {
                            "pitch": 66, 
                            "t0": 29814, 
                            "v": 85, 
                            "dur": 288, 
                            "type": "note", 
                            "channel": 13
                        }
                    ]
                ], 
                [
                    29862, 
                    [
                        {
                            "pitch": 74, 
                            "t0": 29862, 
                            "v": 84, 
                            "dur": 236, 
                            "type": "note", 
                            "channel": 13
                        }
                    ]
                ], 
                [
                    30124, 
                    [
                        {
                            "pitch": 64, 
                            "t0": 30124, 
                            "v": 59, 
                            "dur": 19, 
                            "type": "note", 
                            "channel": 13
                        }
                    ]
                ], 
                [
                    30125, 
                    [
                        {
                            "pitch": 72, 
                            "t0": 30125, 
                            "v": 64, 
                            "dur": 21, 
                            "type": "note", 
                            "channel": 13
                        }
                    ]
                ], 
                [
                    30236, 
                    [
                        {
                            "pitch": 62, 
                            "t0": 30236, 
                            "v": 78, 
                            "dur": 175, 
                            "type": "note", 
                            "channel": 13
                        }
                    ]
                ], 
                [
                    30316, 
                    [
                        {
                            "pitch": 71, 
                            "t0": 30316, 
                            "v": 79, 
                            "dur": 183, 
                            "type": "note", 
                            "channel": 13
                        }
                    ]
                ], 
                [
                    30436, 
                    [
                        {
                            "pitch": 62, 
                            "t0": 30436, 
                            "v": 74, 
                            "dur": 23, 
                            "type": "note", 
                            "channel": 13
                        }
                    ]
                ], 
                [
                    30485, 
                    [
                        {
                            "pitch": 61, 
                            "t0": 30485, 
                            "v": 107, 
                            "dur": 90, 
                            "type": "note", 
                            "channel": 13
                        }
                    ]
                ], 
                [
                    30560, 
                    [
                        {
                            "pitch": 70, 
                            "t0": 30560, 
                            "v": 91, 
                            "dur": 33, 
                            "type": "note", 
                            "channel": 13
                        }
                    ]
                ], 
                [
                    30593, 
                    [
                        {
                            "pitch": 60, 
                            "t0": 30593, 
                            "v": 76, 
                            "dur": 100, 
                            "type": "note", 
                            "channel": 13
                        }
                    ]
                ], 
                [
                    30684, 
                    [
                        {
                            "pitch": 69, 
                            "t0": 30684, 
                            "v": 66, 
                            "dur": 9, 
                            "type": "note", 
                            "channel": 13
                        }
                    ]
                ], 
                [
                    30717, 
                    [
                        {
                            "pitch": 59, 
                            "t0": 30717, 
                            "v": 104, 
                            "dur": 26, 
                            "type": "note", 
                            "channel": 13
                        }
                    ]
                ], 
                [
                    30718, 
                    [
                        {
                            "pitch": 67, 
                            "t0": 30718, 
                            "v": 122, 
                            "dur": 31, 
                            "type": "note", 
                            "channel": 13
                        }
                    ]
                ], 
                [
                    32272, 
                    [
                        {
                            "pitch": 65, 
                            "t0": 32272, 
                            "v": 95, 
                            "dur": 70, 
                            "type": "note", 
                            "channel": 13
                        }, 
                        {
                            "pitch": 62, 
                            "t0": 32272, 
                            "v": 94, 
                            "dur": 232, 
                            "type": "note", 
                            "channel": 13
                        }
                    ]
                ], 
                [
                    32358, 
                    [
                        {
                            "pitch": 65, 
                            "t0": 32358, 
                            "v": 92, 
                            "dur": 138, 
                            "type": "note", 
                            "channel": 13
                        }
                    ]
                ], 
                [
                    32512, 
                    [
                        {
                            "pitch": 60, 
                            "t0": 32512, 
                            "v": 87, 
                            "dur": 19, 
                            "type": "note", 
                            "channel": 13
                        }
                    ]
                ], 
                [
                    32513, 
                    [
                        {
                            "pitch": 64, 
                            "t0": 32513, 
                            "v": 67, 
                            "dur": 15, 
                            "type": "note", 
                            "channel": 13
                        }
                    ]
                ], 
                [
                    32630, 
                    [
                        {
                            "pitch": 59, 
                            "t0": 32630, 
                            "v": 85, 
                            "dur": 124, 
                            "type": "note", 
                            "channel": 13
                        }
                    ]
                ], 
                [
                    32758, 
                    [
                        {
                            "pitch": 55, 
                            "t0": 32758, 
                            "v": 70, 
                            "dur": 26, 
                            "type": "note", 
                            "channel": 13
                        }
                    ]
                ], 
                [
                    32834, 
                    [
                        {
                            "pitch": 52, 
                            "t0": 32834, 
                            "v": 68, 
                            "dur": 109, 
                            "type": "note", 
                            "channel": 13
                        }
                    ]
                ], 
                [
                    32960, 
                    [
                        {
                            "pitch": 50, 
                            "t0": 32960, 
                            "v": 67, 
                            "dur": 36, 
                            "type": "note", 
                            "channel": 13
                        }
                    ]
                ], 
                [
                    32995, 
                    [
                        {
                            "pitch": 52, 
                            "t0": 32995, 
                            "v": 74, 
                            "dur": 51, 
                            "type": "note", 
                            "channel": 13
                        }
                    ]
                ], 
                [
                    33117, 
                    [
                        {
                            "pitch": 55, 
                            "t0": 33117, 
                            "v": 71, 
                            "dur": 63, 
                            "type": "note", 
                            "channel": 13
                        }
                    ]
                ], 
                [
                    33196, 
                    [
                        {
                            "pitch": 55, 
                            "t0": 33196, 
                            "v": 66, 
                            "dur": 29, 
                            "type": "note", 
                            "channel": 13
                        }
                    ]
                ], 
                [
                    33229, 
                    [
                        {
                            "pitch": 52, 
                            "t0": 33229, 
                            "v": 70, 
                            "dur": 28, 
                            "type": "note", 
                            "channel": 13
                        }
                    ]
                ], 
                [
                    33358, 
                    [
                        {
                            "pitch": 55, 
                            "t0": 33358, 
                            "v": 78, 
                            "dur": 107, 
                            "type": "note", 
                            "channel": 13
                        }
                    ]
                ], 
                [
                    33475, 
                    [
                        {
                            "pitch": 52, 
                            "t0": 33475, 
                            "v": 71, 
                            "dur": 19, 
                            "type": "note", 
                            "channel": 13
                        }
                    ]
                ], 
                [
                    33558, 
                    [
                        {
                            "pitch": 55, 
                            "t0": 33558, 
                            "v": 76, 
                            "dur": 31, 
                            "type": "note", 
                            "channel": 13
                        }
                    ]
                ], 
                [
                    34292, 
                    [
                        {
                            "pitch": 66, 
                            "t0": 34292, 
                            "v": 54, 
                            "dur": 238, 
                            "type": "note", 
                            "channel": 13
                        }
                    ]
                ], 
                [
                    34552, 
                    [
                        {
                            "pitch": 66, 
                            "t0": 34552, 
                            "v": 82, 
                            "dur": 298, 
                            "type": "note", 
                            "channel": 13
                        }
                    ]
                ], 
                [
                    34640, 
                    [
                        {
                            "pitch": 74, 
                            "t0": 34640, 
                            "v": 86, 
                            "dur": 140, 
                            "type": "note", 
                            "channel": 13
                        }
                    ]
                ], 
                [
                    34799, 
                    [
                        {
                            "pitch": 74, 
                            "t0": 34799, 
                            "v": 67, 
                            "dur": 72, 
                            "type": "note", 
                            "channel": 13
                        }
                    ]
                ], 
                [
                    34931, 
                    [
                        {
                            "pitch": 74, 
                            "t0": 34931, 
                            "v": 66, 
                            "dur": 23, 
                            "type": "note", 
                            "channel": 13
                        }
                    ]
                ], 
                [
                    35275, 
                    [
                        {
                            "pitch": 79, 
                            "t0": 35275, 
                            "v": 85, 
                            "dur": 109, 
                            "type": "note", 
                            "channel": 13
                        }
                    ]
                ], 
                [
                    35399, 
                    [
                        {
                            "pitch": 76, 
                            "t0": 35399, 
                            "v": 72, 
                            "dur": 21, 
                            "type": "note", 
                            "channel": 13
                        }
                    ]
                ], 
                [
                    35651, 
                    [
                        {
                            "pitch": 69, 
                            "t0": 35651, 
                            "v": 98, 
                            "dur": 62, 
                            "type": "note", 
                            "channel": 13
                        }
                    ]
                ], 
                [
                    35719, 
                    [
                        {
                            "pitch": 67, 
                            "t0": 35719, 
                            "v": 78, 
                            "dur": 28, 
                            "type": "note", 
                            "channel": 13
                        }
                    ]
                ], 
                [
                    35761, 
                    [
                        {
                            "pitch": 69, 
                            "t0": 35761, 
                            "v": 64, 
                            "dur": 65, 
                            "type": "note", 
                            "channel": 13
                        }
                    ]
                ], 
                [
                    35839, 
                    [
                        {
                            "pitch": 67, 
                            "t0": 35839, 
                            "v": 62, 
                            "dur": 26, 
                            "type": "note", 
                            "channel": 13
                        }
                    ]
                ], 
                [
                    35882, 
                    [
                        {
                            "pitch": 64, 
                            "t0": 35882, 
                            "v": 45, 
                            "dur": 22, 
                            "type": "note", 
                            "channel": 13
                        }
                    ]
                ], 
                [
                    36081, 
                    [
                        {
                            "pitch": 55, 
                            "t0": 36081, 
                            "v": 60, 
                            "dur": 201, 
                            "type": "note", 
                            "channel": 13
                        }
                    ]
                ], 
                [
                    36123, 
                    [
                        {
                            "pitch": 62, 
                            "t0": 36123, 
                            "v": 75, 
                            "dur": 67, 
                            "type": "note", 
                            "channel": 13
                        }
                    ]
                ], 
                [
                    36199, 
                    [
                        {
                            "pitch": 67, 
                            "t0": 36199, 
                            "v": 87, 
                            "dur": 194, 
                            "type": "note", 
                            "channel": 13
                        }
                    ]
                ], 
                [
                    36205, 
                    [
                        {
                            "pitch": 62, 
                            "t0": 36205, 
                            "v": 59, 
                            "dur": 9, 
                            "type": "note", 
                            "channel": 13
                        }
                    ]
                ], 
                [
                    36320, 
                    [
                        {
                            "pitch": 55, 
                            "t0": 36320, 
                            "v": 59, 
                            "dur": 89, 
                            "type": "note", 
                            "channel": 13
                        }
                    ]
                ], 
                [
                    36364, 
                    [
                        {
                            "pitch": 62, 
                            "t0": 36364, 
                            "v": 72, 
                            "dur": 76, 
                            "type": "note", 
                            "channel": 13
                        }
                    ]
                ], 
                [
                    36443, 
                    [
                        {
                            "pitch": 55, 
                            "t0": 36443, 
                            "v": 66, 
                            "dur": 14, 
                            "type": "note", 
                            "channel": 13
                        }
                    ]
                ], 
                [
                    36485, 
                    [
                        {
                            "pitch": 48, 
                            "t0": 36485, 
                            "v": 72, 
                            "dur": 471, 
                            "type": "note", 
                            "channel": 13
                        }
                    ]
                ], 
                [
                    36552, 
                    [
                        {
                            "pitch": 52, 
                            "t0": 36552, 
                            "v": 71, 
                            "dur": 214, 
                            "type": "note", 
                            "channel": 13
                        }
                    ]
                ], 
                [
                    36594, 
                    [
                        {
                            "pitch": 55, 
                            "t0": 36594, 
                            "v": 79, 
                            "dur": 230, 
                            "type": "note", 
                            "channel": 13
                        }
                    ]
                ], 
                [
                    36670, 
                    [
                        {
                            "pitch": 60, 
                            "t0": 36670, 
                            "v": 83, 
                            "dur": 154, 
                            "type": "note", 
                            "channel": 13
                        }
                    ]
                ], 
                [
                    36806, 
                    [
                        {
                            "pitch": 52, 
                            "t0": 36806, 
                            "v": 66, 
                            "dur": 83, 
                            "type": "note", 
                            "channel": 13
                        }
                    ]
                ], 
                [
                    36849, 
                    [
                        {
                            "pitch": 55, 
                            "t0": 36849, 
                            "v": 66, 
                            "dur": 93, 
                            "type": "note", 
                            "channel": 13
                        }
                    ]
                ], 
                [
                    36925, 
                    [
                        {
                            "pitch": 60, 
                            "t0": 36925, 
                            "v": 69, 
                            "dur": 20, 
                            "type": "note", 
                            "channel": 13
                        }
                    ]
                ], 
                [
                    36969, 
                    [
                        {
                            "pitch": 43, 
                            "t0": 36969, 
                            "v": 87, 
                            "dur": 433, 
                            "type": "note", 
                            "channel": 13
                        }
                    ]
                ], 
                [
                    37046, 
                    [
                        {
                            "pitch": 55, 
                            "t0": 37046, 
                            "v": 68, 
                            "dur": 194, 
                            "type": "note", 
                            "channel": 13
                        }
                    ]
                ], 
                [
                    37084, 
                    [
                        {
                            "pitch": 59, 
                            "t0": 37084, 
                            "v": 65, 
                            "dur": 222, 
                            "type": "note", 
                            "channel": 13
                        }
                    ]
                ], 
                [
                    37156, 
                    [
                        {
                            "pitch": 67, 
                            "t0": 37156, 
                            "v": 97, 
                            "dur": 196, 
                            "type": "note", 
                            "channel": 13
                        }
                    ]
                ], 
                [
                    37278, 
                    [
                        {
                            "pitch": 55, 
                            "t0": 37278, 
                            "v": 70, 
                            "dur": 77, 
                            "type": "note", 
                            "channel": 13
                        }
                    ]
                ], 
                [
                    37323, 
                    [
                        {
                            "pitch": 59, 
                            "t0": 37323, 
                            "v": 53, 
                            "dur": 91, 
                            "type": "note", 
                            "channel": 13
                        }
                    ]
                ], 
                [
                    37395, 
                    [
                        {
                            "pitch": 55, 
                            "t0": 37395, 
                            "v": 73, 
                            "dur": 18, 
                            "type": "note", 
                            "channel": 13
                        }
                    ]
                ], 
                [
                    37433, 
                    [
                        {
                            "pitch": 50, 
                            "t0": 37433, 
                            "v": 97, 
                            "dur": 471, 
                            "type": "note", 
                            "channel": 13
                        }
                    ]
                ], 
                [
                    37518, 
                    [
                        {
                            "pitch": 62, 
                            "t0": 37518, 
                            "v": 69, 
                            "dur": 201, 
                            "type": "note", 
                            "channel": 13
                        }
                    ]
                ], 
                [
                    37560, 
                    [
                        {
                            "pitch": 66, 
                            "t0": 37560, 
                            "v": 93, 
                            "dur": 218, 
                            "type": "note", 
                            "channel": 13
                        }
                    ]
                ], 
                [
                    37632, 
                    [
                        {
                            "pitch": 74, 
                            "t0": 37632, 
                            "v": 91, 
                            "dur": 186, 
                            "type": "note", 
                            "channel": 13
                        }
                    ]
                ], 
                [
                    37757, 
                    [
                        {
                            "pitch": 62, 
                            "t0": 37757, 
                            "v": 71, 
                            "dur": 143, 
                            "type": "note", 
                            "channel": 13
                        }
                    ]
                ], 
                [
                    37800, 
                    [
                        {
                            "pitch": 66, 
                            "t0": 37800, 
                            "v": 78, 
                            "dur": 87, 
                            "type": "note", 
                            "channel": 13
                        }
                    ]
                ], 
                [
                    37922, 
                    [
                        {
                            "pitch": 43, 
                            "t0": 37922, 
                            "v": 87, 
                            "dur": 72, 
                            "type": "note", 
                            "channel": 13
                        }
                    ]
                ], 
                [
                    37997, 
                    [
                        {
                            "pitch": 59, 
                            "t0": 37997, 
                            "v": 70, 
                            "dur": 140, 
                            "type": "note", 
                            "channel": 13
                        }
                    ]
                ], 
                [
                    38041, 
                    [
                        {
                            "pitch": 67, 
                            "t0": 38041, 
                            "v": 104, 
                            "dur": 120, 
                            "type": "note", 
                            "channel": 13
                        }
                    ]
                ], 
                [
                    38159, 
                    [
                        {
                            "pitch": 64, 
                            "t0": 38159, 
                            "v": 87, 
                            "dur": 74, 
                            "type": "note", 
                            "channel": 13
                        }
                    ]
                ], 
                [
                    38234, 
                    [
                        {
                            "pitch": 62, 
                            "t0": 38234, 
                            "v": 80, 
                            "dur": 15, 
                            "type": "note", 
                            "channel": 13
                        }
                    ]
                ], 
                [
                    38273, 
                    [
                        {
                            "pitch": 57, 
                            "t0": 38273, 
                            "v": 110, 
                            "dur": 122, 
                            "type": "note", 
                            "channel": 13
                        }
                    ]
                ], 
                [
                    38396, 
                    [
                        {
                            "pitch": 55, 
                            "t0": 38396, 
                            "v": 114, 
                            "dur": 58, 
                            "type": "note", 
                            "channel": 13
                        }
                    ]
                ], 
                [
                    38950, 
                    [
                        {
                            "pitch": 52, 
                            "t0": 38950, 
                            "v": 57, 
                            "dur": 256, 
                            "type": "note", 
                            "channel": 13
                        }
                    ]
                ], 
                [
                    38993, 
                    [
                        {
                            "pitch": 55, 
                            "t0": 38993, 
                            "v": 50, 
                            "dur": 268, 
                            "type": "note", 
                            "channel": 13
                        }
                    ]
                ], 
                [
                    39070, 
                    [
                        {
                            "pitch": 60, 
                            "t0": 39070, 
                            "v": 66, 
                            "dur": 157, 
                            "type": "note", 
                            "channel": 13
                        }
                    ]
                ], 
                [
                    39243, 
                    [
                        {
                            "pitch": 52, 
                            "t0": 39243, 
                            "v": 68, 
                            "dur": 364, 
                            "type": "note", 
                            "channel": 13
                        }
                    ]
                ], 
                [
                    39312, 
                    [
                        {
                            "pitch": 64, 
                            "t0": 39312, 
                            "v": 80, 
                            "dur": 500, 
                            "type": "note", 
                            "channel": 13
                        }
                    ]
                ], 
                [
                    39550, 
                    [
                        {
                            "pitch": 55, 
                            "t0": 39550, 
                            "v": 61, 
                            "dur": 225, 
                            "type": "note", 
                            "channel": 13
                        }
                    ]
                ], 
                [
                    39724, 
                    [
                        {
                            "pitch": 52, 
                            "t0": 39724, 
                            "v": 60, 
                            "dur": 83, 
                            "type": "note", 
                            "channel": 13
                        }
                    ]
                ], 
                [
                    39791, 
                    [
                        {
                            "pitch": 55, 
                            "t0": 39791, 
                            "v": 36, 
                            "dur": 29, 
                            "type": "note", 
                            "channel": 13
                        }
                    ]
                ], 
                [
                    39836, 
                    [
                        {
                            "pitch": 43, 
                            "t0": 39836, 
                            "v": 83, 
                            "dur": 226, 
                            "type": "note", 
                            "channel": 13
                        }
                    ]
                ], 
                [
                    39916, 
                    [
                        {
                            "pitch": 55, 
                            "t0": 39916, 
                            "v": 71, 
                            "dur": 203, 
                            "type": "note", 
                            "channel": 13
                        }
                    ]
                ], 
                [
                    39962, 
                    [
                        {
                            "pitch": 59, 
                            "t0": 39962, 
                            "v": 70, 
                            "dur": 230, 
                            "type": "note", 
                            "channel": 13
                        }
                    ]
                ], 
                [
                    40031, 
                    [
                        {
                            "pitch": 67, 
                            "t0": 40031, 
                            "v": 78, 
                            "dur": 203, 
                            "type": "note", 
                            "channel": 13
                        }
                    ]
                ], 
                [
                    40081, 
                    [
                        {
                            "pitch": 50, 
                            "t0": 40081, 
                            "v": 56, 
                            "dur": 144, 
                            "type": "note", 
                            "channel": 13
                        }
                    ]
                ], 
                [
                    40160, 
                    [
                        {
                            "pitch": 55, 
                            "t0": 40160, 
                            "v": 66, 
                            "dur": 78, 
                            "type": "note", 
                            "channel": 13
                        }
                    ]
                ], 
                [
                    40200, 
                    [
                        {
                            "pitch": 64, 
                            "t0": 40200, 
                            "v": 81, 
                            "dur": 71, 
                            "type": "note", 
                            "channel": 13
                        }
                    ]
                ], 
                [
                    40274, 
                    [
                        {
                            "pitch": 55, 
                            "t0": 40274, 
                            "v": 70, 
                            "dur": 99, 
                            "type": "note", 
                            "channel": 13
                        }
                    ]
                ], 
                [
                    40313, 
                    [
                        {
                            "pitch": 67, 
                            "t0": 40313, 
                            "v": 92, 
                            "dur": 367, 
                            "type": "note", 
                            "channel": 13
                        }
                    ]
                ], 
                [
                    40315, 
                    [
                        {
                            "pitch": 43, 
                            "t0": 40315, 
                            "v": 66, 
                            "dur": 210, 
                            "type": "note", 
                            "channel": 13
                        }
                    ]
                ], 
                [
                    40431, 
                    [
                        {
                            "pitch": 55, 
                            "t0": 40431, 
                            "v": 65, 
                            "dur": 36, 
                            "type": "note", 
                            "channel": 13
                        }
                    ]
                ], 
                [
                    40442, 
                    [
                        {
                            "pitch": 64, 
                            "t0": 40442, 
                            "v": 70, 
                            "dur": 60, 
                            "type": "note", 
                            "channel": 13
                        }
                    ]
                ], 
                [
                    40513, 
                    [
                        {
                            "pitch": 62, 
                            "t0": 40513, 
                            "v": 70, 
                            "dur": 184, 
                            "type": "note", 
                            "channel": 13
                        }
                    ]
                ], 
                [
                    40522, 
                    [
                        {
                            "pitch": 55, 
                            "t0": 40522, 
                            "v": 33, 
                            "dur": 60, 
                            "type": "note", 
                            "channel": 13
                        }
                    ]
                ], 
                [
                    40644, 
                    [
                        {
                            "pitch": 55, 
                            "t0": 40644, 
                            "v": 45, 
                            "dur": 60, 
                            "type": "note", 
                            "channel": 13
                        }
                    ]
                ], 
                [
                    40680, 
                    [
                        {
                            "pitch": 59, 
                            "t0": 40680, 
                            "v": 73, 
                            "dur": 71, 
                            "type": "note", 
                            "channel": 13
                        }
                    ]
                ], 
                [
                    40763, 
                    [
                        {
                            "pitch": 55, 
                            "t0": 40763, 
                            "v": 60, 
                            "dur": 14, 
                            "type": "note", 
                            "channel": 13
                        }
                    ]
                ], 
                [
                    40794, 
                    [
                        {
                            "pitch": 45, 
                            "t0": 40794, 
                            "v": 77, 
                            "dur": 233, 
                            "type": "note", 
                            "channel": 13
                        }
                    ]
                ], 
                [
                    40888, 
                    [
                        {
                            "pitch": 57, 
                            "t0": 40888, 
                            "v": 68, 
                            "dur": 180, 
                            "type": "note", 
                            "channel": 13
                        }
                    ]
                ], 
                [
                    40928, 
                    [
                        {
                            "pitch": 61, 
                            "t0": 40928, 
                            "v": 70, 
                            "dur": 523, 
                            "type": "note", 
                            "channel": 13
                        }
                    ]
                ], 
                [
                    41000, 
                    [
                        {
                            "pitch": 69, 
                            "t0": 41000, 
                            "v": 86, 
                            "dur": 178, 
                            "type": "note", 
                            "channel": 13
                        }
                    ]
                ], 
                [
                    41055, 
                    [
                        {
                            "pitch": 52, 
                            "t0": 41055, 
                            "v": 37, 
                            "dur": 34, 
                            "type": "note", 
                            "channel": 13
                        }
                    ]
                ], 
                [
                    41123, 
                    [
                        {
                            "pitch": 57, 
                            "t0": 41123, 
                            "v": 66, 
                            "dur": 208, 
                            "type": "note", 
                            "channel": 13
                        }
                    ]
                ], 
                [
                    41237, 
                    [
                        {
                            "pitch": 67, 
                            "t0": 41237, 
                            "v": 86, 
                            "dur": 238, 
                            "type": "note", 
                            "channel": 13
                        }
                    ]
                ], 
                [
                    41282, 
                    [
                        {
                            "pitch": 45, 
                            "t0": 41282, 
                            "v": 61, 
                            "dur": 218, 
                            "type": "note", 
                            "channel": 13
                        }
                    ]
                ], 
                [
                    41403, 
                    [
                        {
                            "pitch": 57, 
                            "t0": 41403, 
                            "v": 64, 
                            "dur": 54, 
                            "type": "note", 
                            "channel": 13
                        }
                    ]
                ], 
                [
                    41467, 
                    [
                        {
                            "pitch": 64, 
                            "t0": 41467, 
                            "v": 66, 
                            "dur": 173, 
                            "type": "note", 
                            "channel": 13
                        }
                    ]
                ], 
                [
                    41521, 
                    [
                        {
                            "pitch": 52, 
                            "t0": 41521, 
                            "v": 64, 
                            "dur": 138, 
                            "type": "note", 
                            "channel": 13
                        }
                    ]
                ], 
                [
                    41596, 
                    [
                        {
                            "pitch": 55, 
                            "t0": 41596, 
                            "v": 68, 
                            "dur": 86, 
                            "type": "note", 
                            "channel": 13
                        }
                    ]
                ], 
                [
                    41632, 
                    [
                        {
                            "pitch": 61, 
                            "t0": 41632, 
                            "v": 62, 
                            "dur": 86, 
                            "type": "note", 
                            "channel": 13
                        }
                    ]
                ], 
                [
                    41712, 
                    [
                        {
                            "pitch": 55, 
                            "t0": 41712, 
                            "v": 71, 
                            "dur": 21, 
                            "type": "note", 
                            "channel": 13
                        }
                    ]
                ], 
                [
                    41751, 
                    [
                        {
                            "pitch": 50, 
                            "t0": 41751, 
                            "v": 90, 
                            "dur": 240, 
                            "type": "note", 
                            "channel": 13
                        }
                    ]
                ], 
                [
                    41835, 
                    [
                        {
                            "pitch": 57, 
                            "t0": 41835, 
                            "v": 68, 
                            "dur": 209, 
                            "type": "note", 
                            "channel": 13
                        }
                    ]
                ], 
                [
                    41877, 
                    [
                        {
                            "pitch": 62, 
                            "t0": 41877, 
                            "v": 76, 
                            "dur": 103, 
                            "type": "note", 
                            "channel": 13
                        }
                    ]
                ], 
                [
                    41953, 
                    [
                        {
                            "pitch": 66, 
                            "t0": 41953, 
                            "v": 93, 
                            "dur": 139, 
                            "type": "note", 
                            "channel": 13
                        }
                    ]
                ], 
                [
                    41998, 
                    [
                        {
                            "pitch": 45, 
                            "t0": 41998, 
                            "v": 94, 
                            "dur": 226, 
                            "type": "note", 
                            "channel": 13
                        }
                    ]
                ], 
                [
                    42080, 
                    [
                        {
                            "pitch": 62, 
                            "t0": 42080, 
                            "v": 80, 
                            "dur": 61, 
                            "type": "note", 
                            "channel": 13
                        }
                    ]
                ], 
                [
                    42119, 
                    [
                        {
                            "pitch": 57, 
                            "t0": 42119, 
                            "v": 79, 
                            "dur": 146, 
                            "type": "note", 
                            "channel": 13
                        }
                    ]
                ], 
                [
                    42186, 
                    [
                        {
                            "pitch": 62, 
                            "t0": 42186, 
                            "v": 72, 
                            "dur": 287, 
                            "type": "note", 
                            "channel": 13
                        }
                    ]
                ], 
                [
                    42193, 
                    [
                        {
                            "pitch": 69, 
                            "t0": 42193, 
                            "v": 98, 
                            "dur": 164, 
                            "type": "note", 
                            "channel": 13
                        }
                    ]
                ], 
                [
                    42238, 
                    [
                        {
                            "pitch": 50, 
                            "t0": 42238, 
                            "v": 88, 
                            "dur": 65, 
                            "type": "note", 
                            "channel": 13
                        }
                    ]
                ], 
                [
                    42476, 
                    [
                        {
                            "pitch": 57, 
                            "t0": 42476, 
                            "v": 114, 
                            "dur": 198, 
                            "type": "note", 
                            "channel": 13
                        }
                    ]
                ], 
                [
                    42559, 
                    [
                        {
                            "pitch": 66, 
                            "t0": 42559, 
                            "v": 79, 
                            "dur": 57, 
                            "type": "note", 
                            "channel": 13
                        }
                    ]
                ], 
                [
                    42713, 
                    [
                        {
                            "pitch": 55, 
                            "t0": 42713, 
                            "v": 66, 
                            "dur": 228, 
                            "type": "note", 
                            "channel": 13
                        }
                    ]
                ], 
                [
                    42725, 
                    [
                        {
                            "pitch": 64, 
                            "t0": 42725, 
                            "v": 91, 
                            "dur": 227, 
                            "type": "note", 
                            "channel": 13
                        }
                    ]
                ], 
                [
                    42953, 
                    [
                        {
                            "pitch": 60, 
                            "t0": 42953, 
                            "v": 70, 
                            "dur": 120, 
                            "type": "note", 
                            "channel": 13
                        }
                    ]
                ], 
                [
                    42958, 
                    [
                        {
                            "pitch": 67, 
                            "t0": 42958, 
                            "v": 94, 
                            "dur": 209, 
                            "type": "note", 
                            "channel": 13
                        }
                    ]
                ], 
                [
                    43189, 
                    [
                        {
                            "pitch": 64, 
                            "t0": 43189, 
                            "v": 73, 
                            "dur": 405, 
                            "type": "note", 
                            "channel": 13
                        }
                    ]
                ], 
                [
                    43263, 
                    [
                        {
                            "pitch": 72, 
                            "t0": 43263, 
                            "v": 70, 
                            "dur": 335, 
                            "type": "note", 
                            "channel": 13
                        }
                    ]
                ], 
                [
                    43673, 
                    [
                        {
                            "pitch": 59, 
                            "t0": 43673, 
                            "v": 120, 
                            "dur": 174, 
                            "type": "note", 
                            "channel": 13
                        }
                    ]
                ], 
                [
                    43755, 
                    [
                        {
                            "pitch": 67, 
                            "t0": 43755, 
                            "v": 114, 
                            "dur": 141, 
                            "type": "note", 
                            "channel": 13
                        }
                    ]
                ], 
                [
                    43883, 
                    [
                        {
                            "pitch": 59, 
                            "t0": 43883, 
                            "v": 95, 
                            "dur": 65, 
                            "type": "note", 
                            "channel": 13
                        }
                    ]
                ], 
                [
                    43918, 
                    [
                        {
                            "pitch": 67, 
                            "t0": 43918, 
                            "v": 122, 
                            "dur": 39, 
                            "type": "note", 
                            "channel": 13
                        }
                    ]
                ], 
                [
                    44039, 
                    [
                        {
                            "pitch": 65, 
                            "t0": 44039, 
                            "v": 90, 
                            "dur": 25, 
                            "type": "note", 
                            "channel": 13
                        }, 
                        {
                            "pitch": 57, 
                            "t0": 44039, 
                            "v": 73, 
                            "dur": 27, 
                            "type": "note", 
                            "channel": 13
                        }
                    ]
                ], 
                [
                    44155, 
                    [
                        {
                            "pitch": 52, 
                            "t0": 44155, 
                            "v": 94, 
                            "dur": 413, 
                            "type": "note", 
                            "channel": 13
                        }
                    ]
                ], 
                [
                    44232, 
                    [
                        {
                            "pitch": 60, 
                            "t0": 44232, 
                            "v": 90, 
                            "dur": 358, 
                            "type": "note", 
                            "channel": 13
                        }
                    ]
                ], 
                [
                    44639, 
                    [
                        {
                            "pitch": 50, 
                            "t0": 44639, 
                            "v": 100, 
                            "dur": 302, 
                            "type": "note", 
                            "channel": 13
                        }
                    ]
                ], 
                [
                    44724, 
                    [
                        {
                            "pitch": 59, 
                            "t0": 44724, 
                            "v": 92, 
                            "dur": 266, 
                            "type": "note", 
                            "channel": 13
                        }
                    ]
                ], 
                [
                    44998, 
                    [
                        {
                            "pitch": 54, 
                            "t0": 44998, 
                            "v": 104, 
                            "dur": 443, 
                            "type": "note", 
                            "channel": 13
                        }
                    ]
                ], 
                [
                    45073, 
                    [
                        {
                            "pitch": 62, 
                            "t0": 45073, 
                            "v": 79, 
                            "dur": 394, 
                            "type": "note", 
                            "channel": 13
                        }
                    ]
                ], 
                [
                    45563, 
                    [
                        {
                            "pitch": 59, 
                            "t0": 45563, 
                            "v": 102, 
                            "dur": 54, 
                            "type": "note", 
                            "channel": 13
                        }
                    ]
                ], 
                [
                    45598, 
                    [
                        {
                            "pitch": 67, 
                            "t0": 45598, 
                            "v": 127, 
                            "dur": 42, 
                            "type": "note", 
                            "channel": 13
                        }
                    ]
                ], 
                [
                    45720, 
                    [
                        {
                            "pitch": 64, 
                            "t0": 45720, 
                            "v": 100, 
                            "dur": 42, 
                            "type": "note", 
                            "channel": 13
                        }
                    ]
                ], 
                [
                    45839, 
                    [
                        {
                            "pitch": 62, 
                            "t0": 45839, 
                            "v": 100, 
                            "dur": 31, 
                            "type": "note", 
                            "channel": 13
                        }
                    ]
                ], 
                [
                    45917, 
                    [
                        {
                            "pitch": 57, 
                            "t0": 45917, 
                            "v": 98, 
                            "dur": 21, 
                            "type": "note", 
                            "channel": 13
                        }
                    ]
                ], 
                [
                    45949, 
                    [
                        {
                            "pitch": 57, 
                            "t0": 45949, 
                            "v": 73, 
                            "dur": 133, 
                            "type": "note", 
                            "channel": 13
                        }
                    ]
                ], 
                [
                    46090, 
                    [
                        {
                            "pitch": 55, 
                            "t0": 46090, 
                            "v": 112, 
                            "dur": 39, 
                            "type": "note", 
                            "channel": 13
                        }
                    ]
                ], 
                [
                    50245, 
                    [
                        {
                            "pitch": 59, 
                            "t0": 50245, 
                            "v": 110, 
                            "dur": 119, 
                            "type": "note", 
                            "channel": 13
                        }
                    ]
                ], 
                [
                    50353, 
                    [
                        {
                            "pitch": 62, 
                            "t0": 50353, 
                            "v": 97, 
                            "dur": 22, 
                            "type": "note", 
                            "channel": 13
                        }
                    ]
                ], 
                [
                    50380, 
                    [
                        {
                            "pitch": 64, 
                            "t0": 50380, 
                            "v": 100, 
                            "dur": 28, 
                            "type": "note", 
                            "channel": 13
                        }
                    ]
                ], 
                [
                    50406, 
                    [
                        {
                            "pitch": 67, 
                            "t0": 50406, 
                            "v": 114, 
                            "dur": 54, 
                            "type": "note", 
                            "channel": 13
                        }
                    ]
                ], 
                [
                    50516, 
                    [
                        {
                            "pitch": 67, 
                            "t0": 50516, 
                            "v": 127, 
                            "dur": 51, 
                            "type": "note", 
                            "channel": 13
                        }
                    ]
                ], 
                [
                    50640, 
                    [
                        {
                            "pitch": 67, 
                            "t0": 50640, 
                            "v": 127, 
                            "dur": 63, 
                            "type": "note", 
                            "channel": 13
                        }
                    ]
                ], 
                [
                    50715, 
                    [
                        {
                            "pitch": 64, 
                            "t0": 50715, 
                            "v": 100, 
                            "dur": 24, 
                            "type": "note", 
                            "channel": 13
                        }
                    ]
                ], 
                [
                    50755, 
                    [
                        {
                            "pitch": 67, 
                            "t0": 50755, 
                            "v": 127, 
                            "dur": 57, 
                            "type": "note", 
                            "channel": 13
                        }
                    ]
                ], 
                [
                    50761, 
                    [
                        {
                            "pitch": 64, 
                            "t0": 50761, 
                            "v": 64, 
                            "dur": 6, 
                            "type": "note", 
                            "channel": 13
                        }
                    ]
                ], 
                [
                    50834, 
                    [
                        {
                            "pitch": 64, 
                            "t0": 50834, 
                            "v": 81, 
                            "dur": 15, 
                            "type": "note", 
                            "channel": 13
                        }
                    ]
                ], 
                [
                    50879, 
                    [
                        {
                            "pitch": 69, 
                            "t0": 50879, 
                            "v": 127, 
                            "dur": 71, 
                            "type": "note", 
                            "channel": 13
                        }
                    ]
                ], 
                [
                    50953, 
                    [
                        {
                            "pitch": 67, 
                            "t0": 50953, 
                            "v": 108, 
                            "dur": 25, 
                            "type": "note", 
                            "channel": 13
                        }
                    ]
                ], 
                [
                    50993, 
                    [
                        {
                            "pitch": 69, 
                            "t0": 50993, 
                            "v": 114, 
                            "dur": 70, 
                            "type": "note", 
                            "channel": 13
                        }
                    ]
                ], 
                [
                    51075, 
                    [
                        {
                            "pitch": 67, 
                            "t0": 51075, 
                            "v": 127, 
                            "dur": 100, 
                            "type": "note", 
                            "channel": 13
                        }
                    ]
                ], 
                [
                    51195, 
                    [
                        {
                            "pitch": 67, 
                            "t0": 51195, 
                            "v": 106, 
                            "dur": 30, 
                            "type": "note", 
                            "channel": 13
                        }
                    ]
                ], 
                [
                    51233, 
                    [
                        {
                            "pitch": 64, 
                            "t0": 51233, 
                            "v": 117, 
                            "dur": 29, 
                            "type": "note", 
                            "channel": 13
                        }
                    ]
                ], 
                [
                    51316, 
                    [
                        {
                            "pitch": 59, 
                            "t0": 51316, 
                            "v": 114, 
                            "dur": 131, 
                            "type": "note", 
                            "channel": 13
                        }
                    ]
                ], 
                [
                    51438, 
                    [
                        {
                            "pitch": 62, 
                            "t0": 51438, 
                            "v": 97, 
                            "dur": 28, 
                            "type": "note", 
                            "channel": 13
                        }
                    ]
                ], 
                [
                    51478, 
                    [
                        {
                            "pitch": 64, 
                            "t0": 51478, 
                            "v": 97, 
                            "dur": 82, 
                            "type": "note", 
                            "channel": 13
                        }
                    ]
                ], 
                [
                    51563, 
                    [
                        {
                            "pitch": 62, 
                            "t0": 51563, 
                            "v": 100, 
                            "dur": 21, 
                            "type": "note", 
                            "channel": 13
                        }
                    ]
                ], 
                [
                    51598, 
                    [
                        {
                            "pitch": 67, 
                            "t0": 51598, 
                            "v": 127, 
                            "dur": 68, 
                            "type": "note", 
                            "channel": 13
                        }
                    ]
                ], 
                [
                    51682, 
                    [
                        {
                            "pitch": 67, 
                            "t0": 51682, 
                            "v": 110, 
                            "dur": 27, 
                            "type": "note", 
                            "channel": 13
                        }
                    ]
                ], 
                [
                    51713, 
                    [
                        {
                            "pitch": 64, 
                            "t0": 51713, 
                            "v": 114, 
                            "dur": 74, 
                            "type": "note", 
                            "channel": 13
                        }
                    ]
                ], 
                [
                    51791, 
                    [
                        {
                            "pitch": 67, 
                            "t0": 51791, 
                            "v": 110, 
                            "dur": 24, 
                            "type": "note", 
                            "channel": 13
                        }
                    ]
                ], 
                [
                    51833, 
                    [
                        {
                            "pitch": 69, 
                            "t0": 51833, 
                            "v": 127, 
                            "dur": 74, 
                            "type": "note", 
                            "channel": 13
                        }
                    ]
                ], 
                [
                    51913, 
                    [
                        {
                            "pitch": 67, 
                            "t0": 51913, 
                            "v": 114, 
                            "dur": 23, 
                            "type": "note", 
                            "channel": 13
                        }
                    ]
                ], 
                [
                    51956, 
                    [
                        {
                            "pitch": 69, 
                            "t0": 51956, 
                            "v": 120, 
                            "dur": 72, 
                            "type": "note", 
                            "channel": 13
                        }
                    ]
                ], 
                [
                    52037, 
                    [
                        {
                            "pitch": 67, 
                            "t0": 52037, 
                            "v": 125, 
                            "dur": 105, 
                            "type": "note", 
                            "channel": 13
                        }
                    ]
                ], 
                [
                    52158, 
                    [
                        {
                            "pitch": 67, 
                            "t0": 52158, 
                            "v": 104, 
                            "dur": 26, 
                            "type": "note", 
                            "channel": 13
                        }
                    ]
                ], 
                [
                    52199, 
                    [
                        {
                            "pitch": 69, 
                            "t0": 52199, 
                            "v": 127, 
                            "dur": 25, 
                            "type": "note", 
                            "channel": 13
                        }
                    ]
                ], 
                [
                    52274, 
                    [
                        {
                            "pitch": 71, 
                            "t0": 52274, 
                            "v": 98, 
                            "dur": 53, 
                            "type": "note", 
                            "channel": 13
                        }
                    ]
                ], 
                [
                    52311, 
                    [
                        {
                            "pitch": 79, 
                            "t0": 52311, 
                            "v": 100, 
                            "dur": 69, 
                            "type": "note", 
                            "channel": 13
                        }
                    ]
                ], 
                [
                    52440, 
                    [
                        {
                            "pitch": 76, 
                            "t0": 52440, 
                            "v": 106, 
                            "dur": 42, 
                            "type": "note", 
                            "channel": 13
                        }
                    ]
                ], 
                [
                    52560, 
                    [
                        {
                            "pitch": 74, 
                            "t0": 52560, 
                            "v": 106, 
                            "dur": 67, 
                            "type": "note", 
                            "channel": 13
                        }
                    ]
                ], 
                [
                    52638, 
                    [
                        {
                            "pitch": 76, 
                            "t0": 52638, 
                            "v": 104, 
                            "dur": 24, 
                            "type": "note", 
                            "channel": 13
                        }
                    ]
                ], 
                [
                    52753, 
                    [
                        {
                            "pitch": 71, 
                            "t0": 52753, 
                            "v": 98, 
                            "dur": 47, 
                            "type": "note", 
                            "channel": 13
                        }
                    ]
                ], 
                [
                    52810, 
                    [
                        {
                            "pitch": 71, 
                            "t0": 52810, 
                            "v": 68, 
                            "dur": 18, 
                            "type": "note", 
                            "channel": 13
                        }
                    ]
                ], 
                [
                    52816, 
                    [
                        {
                            "pitch": 77, 
                            "t0": 52816, 
                            "v": 84, 
                            "dur": 7, 
                            "type": "note", 
                            "channel": 13
                        }, 
                        {
                            "pitch": 76, 
                            "t0": 52816, 
                            "v": 83, 
                            "dur": 33, 
                            "type": "note", 
                            "channel": 13
                        }
                    ]
                ], 
                [
                    52913, 
                    [
                        {
                            "pitch": 74, 
                            "t0": 52913, 
                            "v": 87, 
                            "dur": 62, 
                            "type": "note", 
                            "channel": 13
                        }
                    ]
                ], 
                [
                    53035, 
                    [
                        {
                            "pitch": 69, 
                            "t0": 53035, 
                            "v": 112, 
                            "dur": 82, 
                            "type": "note", 
                            "channel": 13
                        }
                    ]
                ], 
                [
                    53119, 
                    [
                        {
                            "pitch": 67, 
                            "t0": 53119, 
                            "v": 100, 
                            "dur": 26, 
                            "type": "note", 
                            "channel": 13
                        }
                    ]
                ], 
                [
                    53160, 
                    [
                        {
                            "pitch": 69, 
                            "t0": 53160, 
                            "v": 117, 
                            "dur": 108, 
                            "type": "note", 
                            "channel": 13
                        }
                    ]
                ], 
                [
                    53278, 
                    [
                        {
                            "pitch": 67, 
                            "t0": 53278, 
                            "v": 122, 
                            "dur": 37, 
                            "type": "note", 
                            "channel": 13
                        }
                    ]
                ], 
                [
                    53400, 
                    [
                        {
                            "pitch": 64, 
                            "t0": 53400, 
                            "v": 117, 
                            "dur": 120, 
                            "type": "note", 
                            "channel": 13
                        }
                    ]
                ], 
                [
                    53526, 
                    [
                        {
                            "pitch": 62, 
                            "t0": 53526, 
                            "v": 102, 
                            "dur": 20, 
                            "type": "note", 
                            "channel": 13
                        }
                    ]
                ], 
                [
                    53592, 
                    [
                        {
                            "pitch": 57, 
                            "t0": 53592, 
                            "v": 108, 
                            "dur": 164, 
                            "type": "note", 
                            "channel": 13
                        }
                    ]
                ], 
                [
                    53765, 
                    [
                        {
                            "pitch": 55, 
                            "t0": 53765, 
                            "v": 127, 
                            "dur": 48, 
                            "type": "note", 
                            "channel": 13
                        }
                    ]
                ], 
                [
                    54358, 
                    [
                        {
                            "pitch": 60, 
                            "t0": 54358, 
                            "v": 73, 
                            "dur": 238, 
                            "type": "note", 
                            "channel": 13
                        }
                    ]
                ], 
                [
                    54559, 
                    [
                        {
                            "pitch": 52, 
                            "t0": 54559, 
                            "v": 52, 
                            "dur": 431, 
                            "type": "note", 
                            "channel": 13
                        }
                    ]
                ], 
                [
                    54667, 
                    [
                        {
                            "pitch": 64, 
                            "t0": 54667, 
                            "v": 80, 
                            "dur": 501, 
                            "type": "note", 
                            "channel": 13
                        }
                    ]
                ], 
                [
                    54713, 
                    [
                        {
                            "pitch": 48, 
                            "t0": 54713, 
                            "v": 69, 
                            "dur": 246, 
                            "type": "note", 
                            "channel": 13
                        }
                    ]
                ], 
                [
                    54913, 
                    [
                        {
                            "pitch": 55, 
                            "t0": 54913, 
                            "v": 44, 
                            "dur": 177, 
                            "type": "note", 
                            "channel": 13
                        }
                    ]
                ], 
                [
                    54965, 
                    [
                        {
                            "pitch": 43, 
                            "t0": 54965, 
                            "v": 55, 
                            "dur": 78, 
                            "type": "note", 
                            "channel": 13
                        }
                    ]
                ], 
                [
                    55067, 
                    [
                        {
                            "pitch": 52, 
                            "t0": 55067, 
                            "v": 50, 
                            "dur": 92, 
                            "type": "note", 
                            "channel": 13
                        }
                    ]
                ], 
                [
                    55082, 
                    [
                        {
                            "pitch": 48, 
                            "t0": 55082, 
                            "v": 62, 
                            "dur": 26, 
                            "type": "note", 
                            "channel": 13
                        }
                    ]
                ], 
                [
                    55154, 
                    [
                        {
                            "pitch": 55, 
                            "t0": 55154, 
                            "v": 65, 
                            "dur": 13, 
                            "type": "note", 
                            "channel": 13
                        }
                    ]
                ], 
                [
                    55197, 
                    [
                        {
                            "pitch": 43, 
                            "t0": 55197, 
                            "v": 73, 
                            "dur": 202, 
                            "type": "note", 
                            "channel": 13
                        }
                    ]
                ], 
                [
                    55274, 
                    [
                        {
                            "pitch": 55, 
                            "t0": 55274, 
                            "v": 68, 
                            "dur": 208, 
                            "type": "note", 
                            "channel": 13
                        }
                    ]
                ], 
                [
                    55312, 
                    [
                        {
                            "pitch": 59, 
                            "t0": 55312, 
                            "v": 71, 
                            "dur": 234, 
                            "type": "note", 
                            "channel": 13
                        }
                    ]
                ], 
                [
                    55388, 
                    [
                        {
                            "pitch": 67, 
                            "t0": 55388, 
                            "v": 80, 
                            "dur": 213, 
                            "type": "note", 
                            "channel": 13
                        }
                    ]
                ], 
                [
                    55438, 
                    [
                        {
                            "pitch": 50, 
                            "t0": 55438, 
                            "v": 54, 
                            "dur": 39, 
                            "type": "note", 
                            "channel": 13
                        }
                    ]
                ], 
                [
                    55524, 
                    [
                        {
                            "pitch": 55, 
                            "t0": 55524, 
                            "v": 68, 
                            "dur": 215, 
                            "type": "note", 
                            "channel": 13
                        }
                    ]
                ], 
                [
                    55559, 
                    [
                        {
                            "pitch": 64, 
                            "t0": 55559, 
                            "v": 68, 
                            "dur": 63, 
                            "type": "note", 
                            "channel": 13
                        }
                    ]
                ], 
                [
                    55643, 
                    [
                        {
                            "pitch": 67, 
                            "t0": 55643, 
                            "v": 104, 
                            "dur": 193, 
                            "type": "note", 
                            "channel": 13
                        }
                    ]
                ], 
                [
                    55683, 
                    [
                        {
                            "pitch": 43, 
                            "t0": 55683, 
                            "v": 58, 
                            "dur": 164, 
                            "type": "note", 
                            "channel": 13
                        }
                    ]
                ], 
                [
                    55781, 
                    [
                        {
                            "pitch": 55, 
                            "t0": 55781, 
                            "v": 73, 
                            "dur": 59, 
                            "type": "note", 
                            "channel": 13
                        }
                    ]
                ], 
                [
                    55804, 
                    [
                        {
                            "pitch": 64, 
                            "t0": 55804, 
                            "v": 72, 
                            "dur": 56, 
                            "type": "note", 
                            "channel": 13
                        }
                    ]
                ], 
                [
                    55867, 
                    [
                        {
                            "pitch": 62, 
                            "t0": 55867, 
                            "v": 69, 
                            "dur": 148, 
                            "type": "note", 
                            "channel": 13
                        }
                    ]
                ], 
                [
                    55869, 
                    [
                        {
                            "pitch": 55, 
                            "t0": 55869, 
                            "v": 32, 
                            "dur": 86, 
                            "type": "note", 
                            "channel": 13
                        }
                    ]
                ], 
                [
                    55917, 
                    [
                        {
                            "pitch": 43, 
                            "t0": 55917, 
                            "v": 80, 
                            "dur": 105, 
                            "type": "note", 
                            "channel": 13
                        }
                    ]
                ], 
                [
                    56040, 
                    [
                        {
                            "pitch": 44, 
                            "t0": 56040, 
                            "v": 75, 
                            "dur": 44, 
                            "type": "note", 
                            "channel": 13
                        }
                    ]
                ], 
                [
                    56044, 
                    [
                        {
                            "pitch": 60, 
                            "t0": 56044, 
                            "v": 87, 
                            "dur": 42, 
                            "type": "note", 
                            "channel": 13
                        }
                    ]
                ], 
                [
                    56159, 
                    [
                        {
                            "pitch": 45, 
                            "t0": 56159, 
                            "v": 95, 
                            "dur": 151, 
                            "type": "note", 
                            "channel": 13
                        }
                    ]
                ], 
                [
                    56280, 
                    [
                        {
                            "pitch": 61, 
                            "t0": 56280, 
                            "v": 82, 
                            "dur": 209, 
                            "type": "note", 
                            "channel": 13
                        }
                    ]
                ], 
                [
                    56345, 
                    [
                        {
                            "pitch": 52, 
                            "t0": 56345, 
                            "v": 63, 
                            "dur": 29, 
                            "type": "note", 
                            "channel": 13
                        }
                    ]
                ], 
                [
                    56402, 
                    [
                        {
                            "pitch": 52, 
                            "t0": 56402, 
                            "v": 65, 
                            "dur": 23, 
                            "type": "note", 
                            "channel": 13
                        }
                    ]
                ], 
                [
                    56474, 
                    [
                        {
                            "pitch": 52, 
                            "t0": 56474, 
                            "v": 72, 
                            "dur": 217, 
                            "type": "note", 
                            "channel": 13
                        }
                    ]
                ], 
                [
                    56520, 
                    [
                        {
                            "pitch": 57, 
                            "t0": 56520, 
                            "v": 73, 
                            "dur": 229, 
                            "type": "note", 
                            "channel": 13
                        }
                    ]
                ], 
                [
                    56593, 
                    [
                        {
                            "pitch": 64, 
                            "t0": 56593, 
                            "v": 90, 
                            "dur": 204, 
                            "type": "note", 
                            "channel": 13
                        }
                    ]
                ], 
                [
                    56637, 
                    [
                        {
                            "pitch": 45, 
                            "t0": 56637, 
                            "v": 75, 
                            "dur": 176, 
                            "type": "note", 
                            "channel": 13
                        }
                    ]
                ], 
                [
                    56770, 
                    [
                        {
                            "pitch": 52, 
                            "t0": 56770, 
                            "v": 70, 
                            "dur": 171, 
                            "type": "note", 
                            "channel": 13
                        }
                    ]
                ], 
                [
                    56836, 
                    [
                        {
                            "pitch": 53, 
                            "t0": 56836, 
                            "v": 66, 
                            "dur": 47, 
                            "type": "note", 
                            "channel": 13
                        }
                    ]
                ], 
                [
                    56837, 
                    [
                        {
                            "pitch": 55, 
                            "t0": 56837, 
                            "v": 73, 
                            "dur": 144, 
                            "type": "note", 
                            "channel": 13
                        }
                    ]
                ], 
                [
                    56887, 
                    [
                        {
                            "pitch": 45, 
                            "t0": 56887, 
                            "v": 62, 
                            "dur": 129, 
                            "type": "note", 
                            "channel": 13
                        }
                    ]
                ], 
                [
                    56970, 
                    [
                        {
                            "pitch": 52, 
                            "t0": 56970, 
                            "v": 70, 
                            "dur": 54, 
                            "type": "note", 
                            "channel": 13
                        }
                    ]
                ], 
                [
                    57000, 
                    [
                        {
                            "pitch": 55, 
                            "t0": 57000, 
                            "v": 67, 
                            "dur": 69, 
                            "type": "note", 
                            "channel": 13
                        }, 
                        {
                            "pitch": 61, 
                            "t0": 57000, 
                            "v": 82, 
                            "dur": 76, 
                            "type": "note", 
                            "channel": 13
                        }
                    ]
                ], 
                [
                    57080, 
                    [
                        {
                            "pitch": 52, 
                            "t0": 57080, 
                            "v": 68, 
                            "dur": 9, 
                            "type": "note", 
                            "channel": 13
                        }
                    ]
                ], 
                [
                    57113, 
                    [
                        {
                            "pitch": 50, 
                            "t0": 57113, 
                            "v": 98, 
                            "dur": 232, 
                            "type": "note", 
                            "channel": 13
                        }
                    ]
                ], 
                [
                    57200, 
                    [
                        {
                            "pitch": 57, 
                            "t0": 57200, 
                            "v": 56, 
                            "dur": 183, 
                            "type": "note", 
                            "channel": 13
                        }
                    ]
                ], 
                [
                    57231, 
                    [
                        {
                            "pitch": 62, 
                            "t0": 57231, 
                            "v": 73, 
                            "dur": 99, 
                            "type": "note", 
                            "channel": 13
                        }
                    ]
                ], 
                [
                    57312, 
                    [
                        {
                            "pitch": 66, 
                            "t0": 57312, 
                            "v": 93, 
                            "dur": 146, 
                            "type": "note", 
                            "channel": 13
                        }
                    ]
                ], 
                [
                    57355, 
                    [
                        {
                            "pitch": 45, 
                            "t0": 57355, 
                            "v": 90, 
                            "dur": 199, 
                            "type": "note", 
                            "channel": 13
                        }
                    ]
                ], 
                [
                    57439, 
                    [
                        {
                            "pitch": 62, 
                            "t0": 57439, 
                            "v": 66, 
                            "dur": 69, 
                            "type": "note", 
                            "channel": 13
                        }
                    ]
                ], 
                [
                    57480, 
                    [
                        {
                            "pitch": 57, 
                            "t0": 57480, 
                            "v": 67, 
                            "dur": 128, 
                            "type": "note", 
                            "channel": 13
                        }
                    ]
                ], 
                [
                    57544, 
                    [
                        {
                            "pitch": 62, 
                            "t0": 57544, 
                            "v": 24, 
                            "dur": 268, 
                            "type": "note", 
                            "channel": 13
                        }
                    ]
                ], 
                [
                    57554, 
                    [
                        {
                            "pitch": 69, 
                            "t0": 57554, 
                            "v": 90, 
                            "dur": 120, 
                            "type": "note", 
                            "channel": 13
                        }
                    ]
                ], 
                [
                    57815, 
                    [
                        {
                            "pitch": 57, 
                            "t0": 57815, 
                            "v": 108, 
                            "dur": 64, 
                            "type": "note", 
                            "channel": 13
                        }
                    ]
                ], 
                [
                    57834, 
                    [
                        {
                            "pitch": 65, 
                            "t0": 57834, 
                            "v": 106, 
                            "dur": 39, 
                            "type": "note", 
                            "channel": 13
                        }
                    ]
                ], 
                [
                    57836, 
                    [
                        {
                            "pitch": 66, 
                            "t0": 57836, 
                            "v": 65, 
                            "dur": 36, 
                            "type": "note", 
                            "channel": 13
                        }
                    ]
                ], 
                [
                    57951, 
                    [
                        {
                            "pitch": 65, 
                            "t0": 57951, 
                            "v": 87, 
                            "dur": 53, 
                            "type": "note", 
                            "channel": 13
                        }
                    ]
                ], 
                [
                    57952, 
                    [
                        {
                            "pitch": 56, 
                            "t0": 57952, 
                            "v": 95, 
                            "dur": 56, 
                            "type": "note", 
                            "channel": 13
                        }
                    ]
                ], 
                [
                    58080, 
                    [
                        {
                            "pitch": 55, 
                            "t0": 58080, 
                            "v": 90, 
                            "dur": 241, 
                            "type": "note", 
                            "channel": 13
                        }, 
                        {
                            "pitch": 64, 
                            "t0": 58080, 
                            "v": 98, 
                            "dur": 269, 
                            "type": "note", 
                            "channel": 13
                        }
                    ]
                ], 
                [
                    58429, 
                    [
                        {
                            "pitch": 64, 
                            "t0": 58429, 
                            "v": 108, 
                            "dur": 478, 
                            "type": "note", 
                            "channel": 13
                        }
                    ]
                ], 
                [
                    58506, 
                    [
                        {
                            "pitch": 72, 
                            "t0": 58506, 
                            "v": 120, 
                            "dur": 408, 
                            "type": "note", 
                            "channel": 13
                        }
                    ]
                ], 
                [
                    59031, 
                    [
                        {
                            "pitch": 59, 
                            "t0": 59031, 
                            "v": 122, 
                            "dur": 175, 
                            "type": "note", 
                            "channel": 13
                        }
                    ]
                ], 
                [
                    59110, 
                    [
                        {
                            "pitch": 67, 
                            "t0": 59110, 
                            "v": 106, 
                            "dur": 148, 
                            "type": "note", 
                            "channel": 13
                        }
                    ]
                ], 
                [
                    59242, 
                    [
                        {
                            "pitch": 59, 
                            "t0": 59242, 
                            "v": 80, 
                            "dur": 75, 
                            "type": "note", 
                            "channel": 13
                        }
                    ]
                ], 
                [
                    59284, 
                    [
                        {
                            "pitch": 67, 
                            "t0": 59284, 
                            "v": 117, 
                            "dur": 38, 
                            "type": "note", 
                            "channel": 13
                        }
                    ]
                ], 
                [
                    59401, 
                    [
                        {
                            "pitch": 65, 
                            "t0": 59401, 
                            "v": 95, 
                            "dur": 34, 
                            "type": "note", 
                            "channel": 13
                        }, 
                        {
                            "pitch": 57, 
                            "t0": 59401, 
                            "v": 77, 
                            "dur": 34, 
                            "type": "note", 
                            "channel": 13
                        }
                    ]
                ], 
                [
                    59516, 
                    [
                        {
                            "pitch": 52, 
                            "t0": 59516, 
                            "v": 94, 
                            "dur": 362, 
                            "type": "note", 
                            "channel": 13
                        }
                    ]
                ], 
                [
                    59520, 
                    [
                        {
                            "pitch": 53, 
                            "t0": 59520, 
                            "v": 68, 
                            "dur": 6, 
                            "type": "note", 
                            "channel": 13
                        }
                    ]
                ], 
                [
                    59600, 
                    [
                        {
                            "pitch": 60, 
                            "t0": 59600, 
                            "v": 104, 
                            "dur": 297, 
                            "type": "note", 
                            "channel": 13
                        }
                    ]
                ], 
                [
                    59995, 
                    [
                        {
                            "pitch": 62, 
                            "t0": 59995, 
                            "v": 70, 
                            "dur": 306, 
                            "type": "note", 
                            "channel": 13
                        }
                    ]
                ], 
                [
                    60080, 
                    [
                        {
                            "pitch": 71, 
                            "t0": 60080, 
                            "v": 62, 
                            "dur": 277, 
                            "type": "note", 
                            "channel": 13
                        }
                    ]
                ], 
                [
                    60357, 
                    [
                        {
                            "pitch": 66, 
                            "t0": 60357, 
                            "v": 91, 
                            "dur": 421, 
                            "type": "note", 
                            "channel": 13
                        }
                    ]
                ], 
                [
                    60434, 
                    [
                        {
                            "pitch": 74, 
                            "t0": 60434, 
                            "v": 85, 
                            "dur": 399, 
                            "type": "note", 
                            "channel": 13
                        }
                    ]
                ], 
                [
                    60914, 
                    [
                        {
                            "pitch": 71, 
                            "t0": 60914, 
                            "v": 80, 
                            "dur": 68, 
                            "type": "note", 
                            "channel": 13
                        }
                    ]
                ], 
                [
                    60951, 
                    [
                        {
                            "pitch": 79, 
                            "t0": 60951, 
                            "v": 88, 
                            "dur": 62, 
                            "type": "note", 
                            "channel": 13
                        }
                    ]
                ], 
                [
                    61081, 
                    [
                        {
                            "pitch": 76, 
                            "t0": 61081, 
                            "v": 92, 
                            "dur": 38, 
                            "type": "note", 
                            "channel": 13
                        }
                    ]
                ], 
                [
                    61193, 
                    [
                        {
                            "pitch": 74, 
                            "t0": 61193, 
                            "v": 98, 
                            "dur": 19, 
                            "type": "note", 
                            "channel": 13
                        }
                    ]
                ], 
                [
                    61280, 
                    [
                        {
                            "pitch": 69, 
                            "t0": 61280, 
                            "v": 85, 
                            "dur": 160, 
                            "type": "note", 
                            "channel": 13
                        }
                    ]
                ], 
                [
                    61446, 
                    [
                        {
                            "pitch": 67, 
                            "t0": 61446, 
                            "v": 127, 
                            "dur": 44, 
                            "type": "note", 
                            "channel": 13
                        }
                    ]
                ], 
                [
                    62120, 
                    [
                        {
                            "pitch": 59, 
                            "t0": 62120, 
                            "v": 80, 
                            "dur": 73, 
                            "type": "note", 
                            "channel": 13
                        }
                    ]
                ], 
                [
                    62168, 
                    [
                        {
                            "pitch": 67, 
                            "t0": 62168, 
                            "v": 84, 
                            "dur": 34, 
                            "type": "note", 
                            "channel": 13
                        }
                    ]
                ], 
                [
                    62236, 
                    [
                        {
                            "pitch": 65, 
                            "t0": 62236, 
                            "v": 80, 
                            "dur": 25, 
                            "type": "note", 
                            "channel": 13
                        }
                    ]
                ], 
                [
                    62237, 
                    [
                        {
                            "pitch": 57, 
                            "t0": 62237, 
                            "v": 76, 
                            "dur": 19, 
                            "type": "note", 
                            "channel": 13
                        }
                    ]
                ], 
                [
                    62351, 
                    [
                        {
                            "pitch": 64, 
                            "t0": 62351, 
                            "v": 65, 
                            "dur": 268, 
                            "type": "note", 
                            "channel": 13
                        }
                    ]
                ], 
                [
                    62352, 
                    [
                        {
                            "pitch": 55, 
                            "t0": 62352, 
                            "v": 54, 
                            "dur": 238, 
                            "type": "note", 
                            "channel": 13
                        }
                    ]
                ], 
                [
                    62639, 
                    [
                        {
                            "pitch": 52, 
                            "t0": 62639, 
                            "v": 56, 
                            "dur": 104, 
                            "type": "note", 
                            "channel": 13
                        }
                    ]
                ], 
                [
                    62717, 
                    [
                        {
                            "pitch": 60, 
                            "t0": 62717, 
                            "v": 70, 
                            "dur": 35, 
                            "type": "note", 
                            "channel": 13
                        }
                    ]
                ], 
                [
                    62966, 
                    [
                        {
                            "pitch": 62, 
                            "t0": 62966, 
                            "v": 95, 
                            "dur": 128, 
                            "type": "note", 
                            "channel": 13
                        }
                    ]
                ], 
                [
                    63076, 
                    [
                        {
                            "pitch": 71, 
                            "t0": 63076, 
                            "v": 95, 
                            "dur": 45, 
                            "type": "note", 
                            "channel": 13
                        }
                    ]
                ], 
                [
                    63122, 
                    [
                        {
                            "pitch": 61, 
                            "t0": 63122, 
                            "v": 113, 
                            "dur": 91, 
                            "type": "note", 
                            "channel": 13
                        }
                    ]
                ], 
                [
                    63194, 
                    [
                        {
                            "pitch": 70, 
                            "t0": 63194, 
                            "v": 91, 
                            "dur": 29, 
                            "type": "note", 
                            "channel": 13
                        }
                    ]
                ], 
                [
                    63231, 
                    [
                        {
                            "pitch": 60, 
                            "t0": 63231, 
                            "v": 88, 
                            "dur": 97, 
                            "type": "note", 
                            "channel": 13
                        }
                    ]
                ], 
                [
                    63315, 
                    [
                        {
                            "pitch": 69, 
                            "t0": 63315, 
                            "v": 75, 
                            "dur": 17, 
                            "type": "note", 
                            "channel": 13
                        }
                    ]
                ], 
                [
                    63359, 
                    [
                        {
                            "pitch": 67, 
                            "t0": 63359, 
                            "v": 83, 
                            "dur": 80, 
                            "type": "note", 
                            "channel": 13
                        }
                    ]
                ], 
                [
                    63361, 
                    [
                        {
                            "pitch": 59, 
                            "t0": 63361, 
                            "v": 80, 
                            "dur": 28, 
                            "type": "note", 
                            "channel": 13
                        }
                    ]
                ], 
                [
                    63459, 
                    [
                        {
                            "pitch": 62, 
                            "t0": 63459, 
                            "v": 59, 
                            "dur": 27, 
                            "type": "note", 
                            "channel": 13
                        }
                    ]
                ], 
                [
                    63487, 
                    [
                        {
                            "pitch": 64, 
                            "t0": 63487, 
                            "v": 92, 
                            "dur": 34, 
                            "type": "note", 
                            "channel": 13
                        }
                    ]
                ], 
                [
                    63552, 
                    [
                        {
                            "pitch": 67, 
                            "t0": 63552, 
                            "v": 94, 
                            "dur": 133, 
                            "type": "note", 
                            "channel": 13
                        }
                    ]
                ], 
                [
                    63685, 
                    [
                        {
                            "pitch": 55, 
                            "t0": 63685, 
                            "v": 52, 
                            "dur": 56, 
                            "type": "note", 
                            "channel": 13
                        }
                    ]
                ], 
                [
                    63721, 
                    [
                        {
                            "pitch": 64, 
                            "t0": 63721, 
                            "v": 75, 
                            "dur": 68, 
                            "type": "note", 
                            "channel": 13
                        }
                    ]
                ], 
                [
                    63801, 
                    [
                        {
                            "pitch": 55, 
                            "t0": 63801, 
                            "v": 51, 
                            "dur": 16, 
                            "type": "note", 
                            "channel": 13
                        }
                    ]
                ], 
                [
                    63920, 
                    [
                        {
                            "pitch": 55, 
                            "t0": 63920, 
                            "v": 62, 
                            "dur": 81, 
                            "type": "note", 
                            "channel": 13
                        }
                    ]
                ], 
                [
                    63961, 
                    [
                        {
                            "pitch": 62, 
                            "t0": 63961, 
                            "v": 53, 
                            "dur": 44, 
                            "type": "note", 
                            "channel": 13
                        }
                    ]
                ], 
                [
                    64030, 
                    [
                        {
                            "pitch": 67, 
                            "t0": 64030, 
                            "v": 81, 
                            "dur": 190, 
                            "type": "note", 
                            "channel": 13
                        }
                    ]
                ], 
                [
                    64034, 
                    [
                        {
                            "pitch": 62, 
                            "t0": 64034, 
                            "v": 60, 
                            "dur": 41, 
                            "type": "note", 
                            "channel": 13
                        }
                    ]
                ], 
                [
                    64037, 
                    [
                        {
                            "pitch": 55, 
                            "t0": 64037, 
                            "v": 35, 
                            "dur": 65, 
                            "type": "note", 
                            "channel": 13
                        }
                    ]
                ], 
                [
                    64096, 
                    [
                        {
                            "pitch": 50, 
                            "t0": 64096, 
                            "v": 39, 
                            "dur": 36, 
                            "type": "note", 
                            "channel": 13
                        }
                    ]
                ], 
                [
                    64111, 
                    [
                        {
                            "pitch": 62, 
                            "t0": 64111, 
                            "v": 13, 
                            "dur": 57, 
                            "type": "note", 
                            "channel": 13
                        }
                    ]
                ], 
                [
                    64159, 
                    [
                        {
                            "pitch": 55, 
                            "t0": 64159, 
                            "v": 55, 
                            "dur": 195, 
                            "type": "note", 
                            "channel": 13
                        }
                    ]
                ], 
                [
                    64195, 
                    [
                        {
                            "pitch": 62, 
                            "t0": 64195, 
                            "v": 65, 
                            "dur": 234, 
                            "type": "note", 
                            "channel": 13
                        }
                    ]
                ], 
                [
                    64280, 
                    [
                        {
                            "pitch": 67, 
                            "t0": 64280, 
                            "v": 66, 
                            "dur": 179, 
                            "type": "note", 
                            "channel": 13
                        }
                    ]
                ], 
                [
                    64321, 
                    [
                        {
                            "pitch": 43, 
                            "t0": 64321, 
                            "v": 68, 
                            "dur": 108, 
                            "type": "note", 
                            "channel": 13
                        }
                    ]
                ], 
                [
                    64405, 
                    [
                        {
                            "pitch": 55, 
                            "t0": 64405, 
                            "v": 50, 
                            "dur": 74, 
                            "type": "note", 
                            "channel": 13
                        }
                    ]
                ], 
                [
                    64436, 
                    [
                        {
                            "pitch": 47, 
                            "t0": 64436, 
                            "v": 76, 
                            "dur": 111, 
                            "type": "note", 
                            "channel": 13
                        }
                    ]
                ], 
                [
                    64449, 
                    [
                        {
                            "pitch": 62, 
                            "t0": 64449, 
                            "v": 44, 
                            "dur": 75, 
                            "type": "note", 
                            "channel": 13
                        }
                    ]
                ], 
                [
                    64526, 
                    [
                        {
                            "pitch": 55, 
                            "t0": 64526, 
                            "v": 36, 
                            "dur": 21, 
                            "type": "note", 
                            "channel": 13
                        }
                    ]
                ], 
                [
                    64560, 
                    [
                        {
                            "pitch": 48, 
                            "t0": 64560, 
                            "v": 91, 
                            "dur": 111, 
                            "type": "note", 
                            "channel": 13
                        }
                    ]
                ], 
                [
                    64640, 
                    [
                        {
                            "pitch": 55, 
                            "t0": 64640, 
                            "v": 59, 
                            "dur": 24, 
                            "type": "note", 
                            "channel": 13
                        }
                    ]
                ], 
                [
                    64680, 
                    [
                        {
                            "pitch": 49, 
                            "t0": 64680, 
                            "v": 87, 
                            "dur": 108, 
                            "type": "note", 
                            "channel": 13
                        }
                    ]
                ], 
                [
                    64763, 
                    [
                        {
                            "pitch": 55, 
                            "t0": 64763, 
                            "v": 52, 
                            "dur": 12, 
                            "type": "note", 
                            "channel": 13
                        }
                    ]
                ], 
                [
                    64801, 
                    [
                        {
                            "pitch": 50, 
                            "t0": 64801, 
                            "v": 95, 
                            "dur": 229, 
                            "type": "note", 
                            "channel": 13
                        }
                    ]
                ], 
                [
                    64881, 
                    [
                        {
                            "pitch": 62, 
                            "t0": 64881, 
                            "v": 71, 
                            "dur": 188, 
                            "type": "note", 
                            "channel": 13
                        }
                    ]
                ], 
                [
                    64916, 
                    [
                        {
                            "pitch": 66, 
                            "t0": 64916, 
                            "v": 87, 
                            "dur": 183, 
                            "type": "note", 
                            "channel": 13
                        }
                    ]
                ], 
                [
                    64995, 
                    [
                        {
                            "pitch": 74, 
                            "t0": 64995, 
                            "v": 88, 
                            "dur": 154, 
                            "type": "note", 
                            "channel": 13
                        }
                    ]
                ], 
                [
                    65051, 
                    [
                        {
                            "pitch": 47, 
                            "t0": 65051, 
                            "v": 73, 
                            "dur": 36, 
                            "type": "note", 
                            "channel": 13
                        }
                    ]
                ], 
                [
                    65052, 
                    [
                        {
                            "pitch": 45, 
                            "t0": 65052, 
                            "v": 80, 
                            "dur": 34, 
                            "type": "note", 
                            "channel": 13
                        }
                    ]
                ], 
                [
                    65119, 
                    [
                        {
                            "pitch": 66, 
                            "t0": 65119, 
                            "v": 67, 
                            "dur": 69, 
                            "type": "note", 
                            "channel": 13
                        }
                    ]
                ], 
                [
                    65170, 
                    [
                        {
                            "pitch": 62, 
                            "t0": 65170, 
                            "v": 86, 
                            "dur": 154, 
                            "type": "note", 
                            "channel": 13
                        }
                    ]
                ], 
                [
                    65237, 
                    [
                        {
                            "pitch": 66, 
                            "t0": 65237, 
                            "v": 77, 
                            "dur": 135, 
                            "type": "note", 
                            "channel": 13
                        }
                    ]
                ], 
                [
                    65240, 
                    [
                        {
                            "pitch": 72, 
                            "t0": 65240, 
                            "v": 90, 
                            "dur": 183, 
                            "type": "note", 
                            "channel": 13
                        }
                    ]
                ], 
                [
                    65290, 
                    [
                        {
                            "pitch": 50, 
                            "t0": 65290, 
                            "v": 72, 
                            "dur": 220, 
                            "type": "note", 
                            "channel": 13
                        }
                    ]
                ], 
                [
                    65364, 
                    [
                        {
                            "pitch": 62, 
                            "t0": 65364, 
                            "v": 73, 
                            "dur": 84, 
                            "type": "note", 
                            "channel": 13
                        }
                    ]
                ], 
                [
                    65407, 
                    [
                        {
                            "pitch": 66, 
                            "t0": 65407, 
                            "v": 79, 
                            "dur": 60, 
                            "type": "note", 
                            "channel": 13
                        }
                    ]
                ], 
                [
                    65478, 
                    [
                        {
                            "pitch": 60, 
                            "t0": 65478, 
                            "v": 73, 
                            "dur": 83, 
                            "type": "note", 
                            "channel": 13
                        }
                    ]
                ], 
                [
                    65484, 
                    [
                        {
                            "pitch": 69, 
                            "t0": 65484, 
                            "v": 94, 
                            "dur": 144, 
                            "type": "note", 
                            "channel": 13
                        }
                    ]
                ], 
                [
                    65529, 
                    [
                        {
                            "pitch": 45, 
                            "t0": 65529, 
                            "v": 68, 
                            "dur": 104, 
                            "type": "note", 
                            "channel": 13
                        }
                    ]
                ], 
                [
                    65602, 
                    [
                        {
                            "pitch": 60, 
                            "t0": 65602, 
                            "v": 70, 
                            "dur": 80, 
                            "type": "note", 
                            "channel": 13
                        }
                    ]
                ], 
                [
                    65641, 
                    [
                        {
                            "pitch": 66, 
                            "t0": 65641, 
                            "v": 81, 
                            "dur": 79, 
                            "type": "note", 
                            "channel": 13
                        }
                    ]
                ], 
                [
                    65719, 
                    [
                        {
                            "pitch": 60, 
                            "t0": 65719, 
                            "v": 70, 
                            "dur": 23, 
                            "type": "note", 
                            "channel": 13
                        }
                    ]
                ], 
                [
                    65724, 
                    [
                        {
                            "pitch": 50, 
                            "t0": 65724, 
                            "v": 63, 
                            "dur": 23, 
                            "type": "note", 
                            "channel": 13
                        }
                    ]
                ], 
                [
                    65761, 
                    [
                        {
                            "pitch": 43, 
                            "t0": 65761, 
                            "v": 84, 
                            "dur": 213, 
                            "type": "note", 
                            "channel": 13
                        }
                    ]
                ], 
                [
                    65840, 
                    [
                        {
                            "pitch": 59, 
                            "t0": 65840, 
                            "v": 80, 
                            "dur": 180, 
                            "type": "note", 
                            "channel": 13
                        }
                    ]
                ], 
                [
                    65882, 
                    [
                        {
                            "pitch": 62, 
                            "t0": 65882, 
                            "v": 80, 
                            "dur": 92, 
                            "type": "note", 
                            "channel": 13
                        }
                    ]
                ], 
                [
                    65954, 
                    [
                        {
                            "pitch": 67, 
                            "t0": 65954, 
                            "v": 91, 
                            "dur": 109, 
                            "type": "note", 
                            "channel": 13
                        }
                    ]
                ], 
                [
                    65995, 
                    [
                        {
                            "pitch": 50, 
                            "t0": 65995, 
                            "v": 83, 
                            "dur": 145, 
                            "type": "note", 
                            "channel": 13
                        }
                    ]
                ], 
                [
                    66005, 
                    [
                        {
                            "pitch": 62, 
                            "t0": 66005, 
                            "v": 49, 
                            "dur": 63, 
                            "type": "note", 
                            "channel": 13
                        }
                    ]
                ], 
                [
                    66084, 
                    [
                        {
                            "pitch": 55, 
                            "t0": 66084, 
                            "v": 58, 
                            "dur": 76, 
                            "type": "note", 
                            "channel": 13
                        }
                    ]
                ], 
                [
                    66123, 
                    [
                        {
                            "pitch": 65, 
                            "t0": 66123, 
                            "v": 85, 
                            "dur": 78, 
                            "type": "note", 
                            "channel": 13
                        }
                    ]
                ], 
                [
                    66199, 
                    [
                        {
                            "pitch": 55, 
                            "t0": 66199, 
                            "v": 69, 
                            "dur": 22, 
                            "type": "note", 
                            "channel": 13
                        }
                    ]
                ], 
                [
                    66230, 
                    [
                        {
                            "pitch": 48, 
                            "t0": 66230, 
                            "v": 95, 
                            "dur": 470, 
                            "type": "note", 
                            "channel": 13
                        }
                    ]
                ], 
                [
                    66317, 
                    [
                        {
                            "pitch": 52, 
                            "t0": 66317, 
                            "v": 75, 
                            "dur": 192, 
                            "type": "note", 
                            "channel": 13
                        }
                    ]
                ], 
                [
                    66352, 
                    [
                        {
                            "pitch": 55, 
                            "t0": 66352, 
                            "v": 72, 
                            "dur": 352, 
                            "type": "note", 
                            "channel": 13
                        }
                    ]
                ], 
                [
                    66432, 
                    [
                        {
                            "pitch": 64, 
                            "t0": 66432, 
                            "v": 80, 
                            "dur": 197, 
                            "type": "note", 
                            "channel": 13
                        }
                    ]
                ], 
                [
                    66551, 
                    [
                        {
                            "pitch": 52, 
                            "t0": 66551, 
                            "v": 68, 
                            "dur": 89, 
                            "type": "note", 
                            "channel": 13
                        }
                    ]
                ], 
                [
                    66594, 
                    [
                        {
                            "pitch": 60, 
                            "t0": 66594, 
                            "v": 83, 
                            "dur": 104, 
                            "type": "note", 
                            "channel": 13
                        }
                    ]
                ], 
                [
                    66679, 
                    [
                        {
                            "pitch": 52, 
                            "t0": 66679, 
                            "v": 71, 
                            "dur": 24, 
                            "type": "note", 
                            "channel": 13
                        }
                    ]
                ], 
                [
                    66718, 
                    [
                        {
                            "pitch": 43, 
                            "t0": 66718, 
                            "v": 108, 
                            "dur": 207, 
                            "type": "note", 
                            "channel": 13
                        }
                    ]
                ], 
                [
                    66800, 
                    [
                        {
                            "pitch": 55, 
                            "t0": 66800, 
                            "v": 78, 
                            "dur": 176, 
                            "type": "note", 
                            "channel": 13
                        }
                    ]
                ], 
                [
                    66838, 
                    [
                        {
                            "pitch": 59, 
                            "t0": 66838, 
                            "v": 87, 
                            "dur": 222, 
                            "type": "note", 
                            "channel": 13
                        }
                    ]
                ], 
                [
                    66915, 
                    [
                        {
                            "pitch": 67, 
                            "t0": 66915, 
                            "v": 97, 
                            "dur": 135, 
                            "type": "note", 
                            "channel": 13
                        }
                    ]
                ], 
                [
                    67035, 
                    [
                        {
                            "pitch": 55, 
                            "t0": 67035, 
                            "v": 70, 
                            "dur": 75, 
                            "type": "note", 
                            "channel": 13
                        }
                    ]
                ], 
                [
                    67080, 
                    [
                        {
                            "pitch": 59, 
                            "t0": 67080, 
                            "v": 66, 
                            "dur": 71, 
                            "type": "note", 
                            "channel": 13
                        }
                    ]
                ], 
                [
                    67092, 
                    [
                        {
                            "pitch": 65, 
                            "t0": 67092, 
                            "v": 77, 
                            "dur": 65, 
                            "type": "note", 
                            "channel": 13
                        }
                    ]
                ], 
                [
                    67162, 
                    [
                        {
                            "pitch": 55, 
                            "t0": 67162, 
                            "v": 65, 
                            "dur": 14, 
                            "type": "note", 
                            "channel": 13
                        }
                    ]
                ], 
                [
                    67193, 
                    [
                        {
                            "pitch": 48, 
                            "t0": 67193, 
                            "v": 98, 
                            "dur": 466, 
                            "type": "note", 
                            "channel": 13
                        }
                    ]
                ], 
                [
                    67277, 
                    [
                        {
                            "pitch": 55, 
                            "t0": 67277, 
                            "v": 65, 
                            "dur": 175, 
                            "type": "note", 
                            "channel": 13
                        }
                    ]
                ], 
                [
                    67322, 
                    [
                        {
                            "pitch": 60, 
                            "t0": 67322, 
                            "v": 88, 
                            "dur": 223, 
                            "type": "note", 
                            "channel": 13
                        }
                    ]
                ], 
                [
                    67397, 
                    [
                        {
                            "pitch": 67, 
                            "t0": 67397, 
                            "v": 106, 
                            "dur": 143, 
                            "type": "note", 
                            "channel": 13
                        }
                    ]
                ], 
                [
                    67522, 
                    [
                        {
                            "pitch": 55, 
                            "t0": 67522, 
                            "v": 78, 
                            "dur": 77, 
                            "type": "note", 
                            "channel": 13
                        }
                    ]
                ], 
                [
                    67557, 
                    [
                        {
                            "pitch": 64, 
                            "t0": 67557, 
                            "v": 81, 
                            "dur": 99, 
                            "type": "note", 
                            "channel": 13
                        }
                    ]
                ], 
                [
                    67562, 
                    [
                        {
                            "pitch": 60, 
                            "t0": 67562, 
                            "v": 70, 
                            "dur": 91, 
                            "type": "note", 
                            "channel": 13
                        }
                    ]
                ], 
                [
                    67642, 
                    [
                        {
                            "pitch": 55, 
                            "t0": 67642, 
                            "v": 78, 
                            "dur": 30, 
                            "type": "note", 
                            "channel": 13
                        }
                    ]
                ], 
                [
                    67675, 
                    [
                        {
                            "pitch": 43, 
                            "t0": 67675, 
                            "v": 104, 
                            "dur": 108, 
                            "type": "note", 
                            "channel": 13
                        }
                    ]
                ], 
                [
                    67760, 
                    [
                        {
                            "pitch": 55, 
                            "t0": 67760, 
                            "v": 63, 
                            "dur": 60, 
                            "type": "note", 
                            "channel": 13
                        }
                    ]
                ], 
                [
                    67798, 
                    [
                        {
                            "pitch": 47, 
                            "t0": 67798, 
                            "v": 100, 
                            "dur": 104, 
                            "type": "note", 
                            "channel": 13
                        }
                    ]
                ], 
                [
                    67801, 
                    [
                        {
                            "pitch": 59, 
                            "t0": 67801, 
                            "v": 75, 
                            "dur": 82, 
                            "type": "note", 
                            "channel": 13
                        }
                    ]
                ], 
                [
                    67882, 
                    [
                        {
                            "pitch": 55, 
                            "t0": 67882, 
                            "v": 62, 
                            "dur": 31, 
                            "type": "note", 
                            "channel": 13
                        }
                    ]
                ], 
                [
                    67914, 
                    [
                        {
                            "pitch": 48, 
                            "t0": 67914, 
                            "v": 97, 
                            "dur": 110, 
                            "type": "note", 
                            "channel": 13
                        }
                    ]
                ], 
                [
                    67991, 
                    [
                        {
                            "pitch": 55, 
                            "t0": 67991, 
                            "v": 62, 
                            "dur": 63, 
                            "type": "note", 
                            "channel": 13
                        }
                    ]
                ], 
                [
                    68035, 
                    [
                        {
                            "pitch": 49, 
                            "t0": 68035, 
                            "v": 82, 
                            "dur": 106, 
                            "type": "note", 
                            "channel": 13
                        }
                    ]
                ], 
                [
                    68043, 
                    [
                        {
                            "pitch": 59, 
                            "t0": 68043, 
                            "v": 70, 
                            "dur": 65, 
                            "type": "note", 
                            "channel": 13
                        }
                    ]
                ], 
                [
                    68120, 
                    [
                        {
                            "pitch": 55, 
                            "t0": 68120, 
                            "v": 70, 
                            "dur": 19, 
                            "type": "note", 
                            "channel": 13
                        }
                    ]
                ], 
                [
                    68156, 
                    [
                        {
                            "pitch": 50, 
                            "t0": 68156, 
                            "v": 94, 
                            "dur": 117, 
                            "type": "note", 
                            "channel": 13
                        }
                    ]
                ], 
                [
                    68241, 
                    [
                        {
                            "pitch": 57, 
                            "t0": 68241, 
                            "v": 65, 
                            "dur": 176, 
                            "type": "note", 
                            "channel": 13
                        }
                    ]
                ], 
                [
                    68277, 
                    [
                        {
                            "pitch": 48, 
                            "t0": 68277, 
                            "v": 83, 
                            "dur": 105, 
                            "type": "note", 
                            "channel": 13
                        }
                    ]
                ], 
                [
                    68283, 
                    [
                        {
                            "pitch": 62, 
                            "t0": 68283, 
                            "v": 76, 
                            "dur": 217, 
                            "type": "note", 
                            "channel": 13
                        }
                    ]
                ], 
                [
                    68358, 
                    [
                        {
                            "pitch": 66, 
                            "t0": 68358, 
                            "v": 67, 
                            "dur": 144, 
                            "type": "note", 
                            "channel": 13
                        }
                    ]
                ], 
                [
                    68399, 
                    [
                        {
                            "pitch": 47, 
                            "t0": 68399, 
                            "v": 91, 
                            "dur": 102, 
                            "type": "note", 
                            "channel": 13
                        }
                    ]
                ], 
                [
                    68482, 
                    [
                        {
                            "pitch": 57, 
                            "t0": 68482, 
                            "v": 66, 
                            "dur": 41, 
                            "type": "note", 
                            "channel": 13
                        }
                    ]
                ], 
                [
                    68521, 
                    [
                        {
                            "pitch": 45, 
                            "t0": 68521, 
                            "v": 100, 
                            "dur": 82, 
                            "type": "note", 
                            "channel": 13
                        }
                    ]
                ], 
                [
                    68613, 
                    [
                        {
                            "pitch": 55, 
                            "t0": 68613, 
                            "v": 57, 
                            "dur": 14, 
                            "type": "note", 
                            "channel": 13
                        }
                    ]
                ], 
                [
                    68643, 
                    [
                        {
                            "pitch": 59, 
                            "t0": 68643, 
                            "v": 91, 
                            "dur": 71, 
                            "type": "note", 
                            "channel": 13
                        }, 
                        {
                            "pitch": 43, 
                            "t0": 68643, 
                            "v": 102, 
                            "dur": 84, 
                            "type": "note", 
                            "channel": 13
                        }
                    ]
                ], 
                [
                    68760, 
                    [
                        {
                            "pitch": 60, 
                            "t0": 68760, 
                            "v": 92, 
                            "dur": 59, 
                            "type": "note", 
                            "channel": 13
                        }
                    ]
                ], 
                [
                    68762, 
                    [
                        {
                            "pitch": 45, 
                            "t0": 68762, 
                            "v": 91, 
                            "dur": 63, 
                            "type": "note", 
                            "channel": 13
                        }
                    ]
                ], 
                [
                    68886, 
                    [
                        {
                            "pitch": 61, 
                            "t0": 68886, 
                            "v": 91, 
                            "dur": 69, 
                            "type": "note", 
                            "channel": 13
                        }
                    ]
                ], 
                [
                    68887, 
                    [
                        {
                            "pitch": 46, 
                            "t0": 68887, 
                            "v": 89, 
                            "dur": 64, 
                            "type": "note", 
                            "channel": 13
                        }
                    ]
                ], 
                [
                    69002, 
                    [
                        {
                            "pitch": 47, 
                            "t0": 69002, 
                            "v": 80, 
                            "dur": 99, 
                            "type": "note", 
                            "channel": 13
                        }
                    ]
                ], 
                [
                    69004, 
                    [
                        {
                            "pitch": 62, 
                            "t0": 69004, 
                            "v": 79, 
                            "dur": 57, 
                            "type": "note", 
                            "channel": 13
                        }
                    ]
                ], 
                [
                    69079, 
                    [
                        {
                            "pitch": 64, 
                            "t0": 69079, 
                            "v": 88, 
                            "dur": 223, 
                            "type": "note", 
                            "channel": 13
                        }
                    ]
                ], 
                [
                    69124, 
                    [
                        {
                            "pitch": 48, 
                            "t0": 69124, 
                            "v": 73, 
                            "dur": 75, 
                            "type": "note", 
                            "channel": 13
                        }
                    ]
                ], 
                [
                    69323, 
                    [
                        {
                            "pitch": 64, 
                            "t0": 69323, 
                            "v": 38, 
                            "dur": 17, 
                            "type": "note", 
                            "channel": 13
                        }
                    ]
                ], 
                [
                    69353, 
                    [
                        {
                            "pitch": 64, 
                            "t0": 69353, 
                            "v": 45, 
                            "dur": 221, 
                            "type": "note", 
                            "channel": 13
                        }
                    ]
                ], 
                [
                    69432, 
                    [
                        {
                            "pitch": 72, 
                            "t0": 69432, 
                            "v": 95, 
                            "dur": 168, 
                            "type": "note", 
                            "channel": 13
                        }
                    ]
                ], 
                [
                    69600, 
                    [
                        {
                            "pitch": 62, 
                            "t0": 69600, 
                            "v": 104, 
                            "dur": 60, 
                            "type": "note", 
                            "channel": 13
                        }
                    ]
                ], 
                [
                    69645, 
                    [
                        {
                            "pitch": 71, 
                            "t0": 69645, 
                            "v": 95, 
                            "dur": 42, 
                            "type": "note", 
                            "channel": 13
                        }
                    ]
                ], 
                [
                    69683, 
                    [
                        {
                            "pitch": 62, 
                            "t0": 69683, 
                            "v": 87, 
                            "dur": 54, 
                            "type": "note", 
                            "channel": 13
                        }
                    ]
                ], 
                [
                    69724, 
                    [
                        {
                            "pitch": 71, 
                            "t0": 69724, 
                            "v": 106, 
                            "dur": 50, 
                            "type": "note", 
                            "channel": 13
                        }
                    ]
                ], 
                [
                    69763, 
                    [
                        {
                            "pitch": 62, 
                            "t0": 69763, 
                            "v": 84, 
                            "dur": 49, 
                            "type": "note", 
                            "channel": 13
                        }
                    ]
                ], 
                [
                    69804, 
                    [
                        {
                            "pitch": 71, 
                            "t0": 69804, 
                            "v": 102, 
                            "dur": 43, 
                            "type": "note", 
                            "channel": 13
                        }
                    ]
                ], 
                [
                    69835, 
                    [
                        {
                            "pitch": 62, 
                            "t0": 69835, 
                            "v": 83, 
                            "dur": 47, 
                            "type": "note", 
                            "channel": 13
                        }
                    ]
                ], 
                [
                    69877, 
                    [
                        {
                            "pitch": 71, 
                            "t0": 69877, 
                            "v": 94, 
                            "dur": 51, 
                            "type": "note", 
                            "channel": 13
                        }
                    ]
                ], 
                [
                    69915, 
                    [
                        {
                            "pitch": 62, 
                            "t0": 69915, 
                            "v": 83, 
                            "dur": 27, 
                            "type": "note", 
                            "channel": 13
                        }
                    ]
                ], 
                [
                    69951, 
                    [
                        {
                            "pitch": 70, 
                            "t0": 69951, 
                            "v": 101, 
                            "dur": 90, 
                            "type": "note", 
                            "channel": 13
                        }
                    ]
                ], 
                [
                    69978, 
                    [
                        {
                            "pitch": 61, 
                            "t0": 69978, 
                            "v": 27, 
                            "dur": 20, 
                            "type": "note", 
                            "channel": 13
                        }
                    ]
                ], 
                [
                    69982, 
                    [
                        {
                            "pitch": 62, 
                            "t0": 69982, 
                            "v": 39, 
                            "dur": 13, 
                            "type": "note", 
                            "channel": 13
                        }
                    ]
                ], 
                [
                    69985, 
                    [
                        {
                            "pitch": 60, 
                            "t0": 69985, 
                            "v": 37, 
                            "dur": 9, 
                            "type": "note", 
                            "channel": 13
                        }
                    ]
                ], 
                [
                    70040, 
                    [
                        {
                            "pitch": 60, 
                            "t0": 70040, 
                            "v": 81, 
                            "dur": 19, 
                            "type": "note", 
                            "channel": 13
                        }
                    ]
                ], 
                [
                    70045, 
                    [
                        {
                            "pitch": 62, 
                            "t0": 70045, 
                            "v": 55, 
                            "dur": 5, 
                            "type": "note", 
                            "channel": 13
                        }
                    ]
                ], 
                [
                    70073, 
                    [
                        {
                            "pitch": 69, 
                            "t0": 70073, 
                            "v": 90, 
                            "dur": 109, 
                            "type": "note", 
                            "channel": 13
                        }
                    ]
                ], 
                [
                    70077, 
                    [
                        {
                            "pitch": 60, 
                            "t0": 70077, 
                            "v": 66, 
                            "dur": 60, 
                            "type": "note", 
                            "channel": 13
                        }
                    ]
                ], 
                [
                    70160, 
                    [
                        {
                            "pitch": 60, 
                            "t0": 70160, 
                            "v": 66, 
                            "dur": 86, 
                            "type": "note", 
                            "channel": 13
                        }
                    ]
                ], 
                [
                    70199, 
                    [
                        {
                            "pitch": 69, 
                            "t0": 70199, 
                            "v": 70, 
                            "dur": 228, 
                            "type": "note", 
                            "channel": 13
                        }
                    ]
                ], 
                [
                    70288, 
                    [
                        {
                            "pitch": 60, 
                            "t0": 70288, 
                            "v": 62, 
                            "dur": 68, 
                            "type": "note", 
                            "channel": 13
                        }
                    ]
                ], 
                [
                    70397, 
                    [
                        {
                            "pitch": 60, 
                            "t0": 70397, 
                            "v": 63, 
                            "dur": 16, 
                            "type": "note", 
                            "channel": 13
                        }
                    ]
                ], 
                [
                    70516, 
                    [
                        {
                            "pitch": 71, 
                            "t0": 70516, 
                            "v": 112, 
                            "dur": 30, 
                            "type": "note", 
                            "channel": 13
                        }
                    ]
                ], 
                [
                    70557, 
                    [
                        {
                            "pitch": 79, 
                            "t0": 70557, 
                            "v": 114, 
                            "dur": 36, 
                            "type": "note", 
                            "channel": 13
                        }
                    ]
                ], 
                [
                    70559, 
                    [
                        {
                            "pitch": 71, 
                            "t0": 70559, 
                            "v": 80, 
                            "dur": 21, 
                            "type": "note", 
                            "channel": 13
                        }
                    ]
                ], 
                [
                    70680, 
                    [
                        {
                            "pitch": 76, 
                            "t0": 70680, 
                            "v": 100, 
                            "dur": 44, 
                            "type": "note", 
                            "channel": 13
                        }
                    ]
                ], 
                [
                    70800, 
                    [
                        {
                            "pitch": 74, 
                            "t0": 70800, 
                            "v": 97, 
                            "dur": 26, 
                            "type": "note", 
                            "channel": 13
                        }
                    ]
                ], 
                [
                    70876, 
                    [
                        {
                            "pitch": 71, 
                            "t0": 70876, 
                            "v": 73, 
                            "dur": 39, 
                            "type": "note", 
                            "channel": 13
                        }
                    ]
                ], 
                [
                    70915, 
                    [
                        {
                            "pitch": 69, 
                            "t0": 70915, 
                            "v": 79, 
                            "dur": 70, 
                            "type": "note", 
                            "channel": 13
                        }
                    ]
                ], 
                [
                    71002, 
                    [
                        {
                            "pitch": 67, 
                            "t0": 71002, 
                            "v": 60, 
                            "dur": 14, 
                            "type": "note", 
                            "channel": 13
                        }
                    ]
                ], 
                [
                    71036, 
                    [
                        {
                            "pitch": 69, 
                            "t0": 71036, 
                            "v": 94, 
                            "dur": 80, 
                            "type": "note", 
                            "channel": 13
                        }
                    ]
                ], 
                [
                    71123, 
                    [
                        {
                            "pitch": 67, 
                            "t0": 71123, 
                            "v": 95, 
                            "dur": 24, 
                            "type": "note", 
                            "channel": 13
                        }
                    ]
                ], 
                [
                    71170, 
                    [
                        {
                            "pitch": 69, 
                            "t0": 71170, 
                            "v": 117, 
                            "dur": 53, 
                            "type": "note", 
                            "channel": 13
                        }
                    ]
                ], 
                [
                    71289, 
                    [
                        {
                            "pitch": 67, 
                            "t0": 71289, 
                            "v": 125, 
                            "dur": 1420, 
                            "type": "note", 
                            "channel": 13
                        }
                    ]
                ]
            ], 
            "instruments": [
                25
            ], 
            "tMax": 72709, 
            "channels": [
                13
            ], 
            "instrument": 25, 
            "numNotes": 823, 
            "type": "TrackObj"
        }, 
        {
            "trackName": "ch2 ac piano", 
            "seq": [
                [
                    0, 
                    [
                        {
                            "instrument": 2, 
                            "type": "programChange", 
                            "t0": 0, 
                            "channel": 1
                        }
                    ]
                ], 
                [
                    486, 
                    [
                        {
                            "instrument": 0, 
                            "type": "programChange", 
                            "t0": 486, 
                            "channel": 1
                        }, 
                        {
                            "pitch": 31, 
                            "t0": 486, 
                            "v": 98, 
                            "dur": 68, 
                            "type": "note", 
                            "channel": 1
                        }
                    ]
                ], 
                [
                    488, 
                    [
                        {
                            "pitch": 43, 
                            "t0": 488, 
                            "v": 83, 
                            "dur": 76, 
                            "type": "note", 
                            "channel": 1
                        }
                    ]
                ], 
                [
                    557, 
                    [
                        {
                            "pitch": 67, 
                            "t0": 557, 
                            "v": 92, 
                            "dur": 17, 
                            "type": "note", 
                            "channel": 1
                        }
                    ]
                ], 
                [
                    559, 
                    [
                        {
                            "pitch": 71, 
                            "t0": 559, 
                            "v": 80, 
                            "dur": 16, 
                            "type": "note", 
                            "channel": 1
                        }
                    ]
                ], 
                [
                    603, 
                    [
                        {
                            "pitch": 33, 
                            "t0": 603, 
                            "v": 75, 
                            "dur": 19, 
                            "type": "note", 
                            "channel": 1
                        }
                    ]
                ], 
                [
                    960, 
                    [
                        {
                            "pitch": 74, 
                            "t0": 960, 
                            "v": 90, 
                            "dur": 23, 
                            "type": "note", 
                            "channel": 1
                        }, 
                        {
                            "pitch": 79, 
                            "t0": 960, 
                            "v": 91, 
                            "dur": 96, 
                            "type": "note", 
                            "channel": 1
                        }
                    ]
                ], 
                [
                    965, 
                    [
                        {
                            "pitch": 76, 
                            "t0": 965, 
                            "v": 94, 
                            "dur": 63, 
                            "type": "note", 
                            "channel": 1
                        }
                    ]
                ], 
                [
                    1039, 
                    [
                        {
                            "pitch": 72, 
                            "t0": 1039, 
                            "v": 87, 
                            "dur": 19, 
                            "type": "note", 
                            "channel": 1
                        }
                    ]
                ], 
                [
                    1156, 
                    [
                        {
                            "pitch": 72, 
                            "t0": 1156, 
                            "v": 71, 
                            "dur": 20, 
                            "type": "note", 
                            "channel": 1
                        }
                    ]
                ], 
                [
                    1159, 
                    [
                        {
                            "pitch": 79, 
                            "t0": 1159, 
                            "v": 57, 
                            "dur": 17, 
                            "type": "note", 
                            "channel": 1
                        }
                    ]
                ], 
                [
                    1525, 
                    [
                        {
                            "pitch": 86, 
                            "t0": 1525, 
                            "v": 66, 
                            "dur": 20, 
                            "type": "note", 
                            "channel": 1
                        }
                    ]
                ], 
                [
                    1672, 
                    [
                        {
                            "pitch": 85, 
                            "t0": 1672, 
                            "v": 64, 
                            "dur": 21, 
                            "type": "note", 
                            "channel": 1
                        }
                    ]
                ], 
                [
                    1677, 
                    [
                        {
                            "pitch": 89, 
                            "t0": 1677, 
                            "v": 76, 
                            "dur": 46, 
                            "type": "note", 
                            "channel": 1
                        }
                    ]
                ], 
                [
                    1678, 
                    [
                        {
                            "pitch": 86, 
                            "t0": 1678, 
                            "v": 83, 
                            "dur": 34, 
                            "type": "note", 
                            "channel": 1
                        }
                    ]
                ], 
                [
                    1794, 
                    [
                        {
                            "pitch": 88, 
                            "t0": 1794, 
                            "v": 91, 
                            "dur": 22, 
                            "type": "note", 
                            "channel": 1
                        }, 
                        {
                            "pitch": 84, 
                            "t0": 1794, 
                            "v": 97, 
                            "dur": 24, 
                            "type": "note", 
                            "channel": 1
                        }
                    ]
                ], 
                [
                    1876, 
                    [
                        {
                            "pitch": 82, 
                            "t0": 1876, 
                            "v": 84, 
                            "dur": 16, 
                            "type": "note", 
                            "channel": 1
                        }
                    ]
                ], 
                [
                    1880, 
                    [
                        {
                            "pitch": 83, 
                            "t0": 1880, 
                            "v": 97, 
                            "dur": 24, 
                            "type": "note", 
                            "channel": 1
                        }, 
                        {
                            "pitch": 86, 
                            "t0": 1880, 
                            "v": 91, 
                            "dur": 37, 
                            "type": "note", 
                            "channel": 1
                        }
                    ]
                ], 
                [
                    1931, 
                    [
                        {
                            "pitch": 31, 
                            "t0": 1931, 
                            "v": 55, 
                            "dur": 13, 
                            "type": "note", 
                            "channel": 1
                        }
                    ]
                ], 
                [
                    1981, 
                    [
                        {
                            "pitch": 79, 
                            "t0": 1981, 
                            "v": 77, 
                            "dur": 19, 
                            "type": "note", 
                            "channel": 1
                        }
                    ]
                ], 
                [
                    1992, 
                    [
                        {
                            "pitch": 83, 
                            "t0": 1992, 
                            "v": 66, 
                            "dur": 39, 
                            "type": "note", 
                            "channel": 1
                        }
                    ]
                ], 
                [
                    2025, 
                    [
                        {
                            "pitch": 79, 
                            "t0": 2025, 
                            "v": 90, 
                            "dur": 23, 
                            "type": "note", 
                            "channel": 1
                        }
                    ]
                ], 
                [
                    2051, 
                    [
                        {
                            "pitch": 83, 
                            "t0": 2051, 
                            "v": 68, 
                            "dur": 25, 
                            "type": "note", 
                            "channel": 1
                        }
                    ]
                ], 
                [
                    2069, 
                    [
                        {
                            "pitch": 79, 
                            "t0": 2069, 
                            "v": 71, 
                            "dur": 24, 
                            "type": "note", 
                            "channel": 1
                        }
                    ]
                ], 
                [
                    2095, 
                    [
                        {
                            "pitch": 83, 
                            "t0": 2095, 
                            "v": 57, 
                            "dur": 24, 
                            "type": "note", 
                            "channel": 1
                        }
                    ]
                ], 
                [
                    2112, 
                    [
                        {
                            "pitch": 79, 
                            "t0": 2112, 
                            "v": 76, 
                            "dur": 26, 
                            "type": "note", 
                            "channel": 1
                        }
                    ]
                ], 
                [
                    2140, 
                    [
                        {
                            "pitch": 83, 
                            "t0": 2140, 
                            "v": 61, 
                            "dur": 19, 
                            "type": "note", 
                            "channel": 1
                        }
                    ]
                ], 
                [
                    2157, 
                    [
                        {
                            "pitch": 79, 
                            "t0": 2157, 
                            "v": 64, 
                            "dur": 24, 
                            "type": "note", 
                            "channel": 1
                        }
                    ]
                ], 
                [
                    2183, 
                    [
                        {
                            "pitch": 83, 
                            "t0": 2183, 
                            "v": 66, 
                            "dur": 20, 
                            "type": "note", 
                            "channel": 1
                        }
                    ]
                ], 
                [
                    2201, 
                    [
                        {
                            "pitch": 79, 
                            "t0": 2201, 
                            "v": 65, 
                            "dur": 24, 
                            "type": "note", 
                            "channel": 1
                        }
                    ]
                ], 
                [
                    2227, 
                    [
                        {
                            "pitch": 83, 
                            "t0": 2227, 
                            "v": 62, 
                            "dur": 22, 
                            "type": "note", 
                            "channel": 1
                        }
                    ]
                ], 
                [
                    2244, 
                    [
                        {
                            "pitch": 79, 
                            "t0": 2244, 
                            "v": 70, 
                            "dur": 27, 
                            "type": "note", 
                            "channel": 1
                        }
                    ]
                ], 
                [
                    2273, 
                    [
                        {
                            "pitch": 83, 
                            "t0": 2273, 
                            "v": 65, 
                            "dur": 24, 
                            "type": "note", 
                            "channel": 1
                        }
                    ]
                ], 
                [
                    2291, 
                    [
                        {
                            "pitch": 79, 
                            "t0": 2291, 
                            "v": 66, 
                            "dur": 24, 
                            "type": "note", 
                            "channel": 1
                        }
                    ]
                ], 
                [
                    2319, 
                    [
                        {
                            "pitch": 83, 
                            "t0": 2319, 
                            "v": 55, 
                            "dur": 27, 
                            "type": "note", 
                            "channel": 1
                        }
                    ]
                ], 
                [
                    2338, 
                    [
                        {
                            "pitch": 79, 
                            "t0": 2338, 
                            "v": 65, 
                            "dur": 28, 
                            "type": "note", 
                            "channel": 1
                        }
                    ]
                ], 
                [
                    2395, 
                    [
                        {
                            "pitch": 79, 
                            "t0": 2395, 
                            "v": 52, 
                            "dur": 11, 
                            "type": "note", 
                            "channel": 1
                        }
                    ]
                ], 
                [
                    2405, 
                    [
                        {
                            "pitch": 31, 
                            "t0": 2405, 
                            "v": 34, 
                            "dur": 42, 
                            "type": "note", 
                            "channel": 1
                        }
                    ]
                ], 
                [
                    2478, 
                    [
                        {
                            "pitch": 79, 
                            "t0": 2478, 
                            "v": 69, 
                            "dur": 14, 
                            "type": "note", 
                            "channel": 1
                        }
                    ]
                ], 
                [
                    2479, 
                    [
                        {
                            "pitch": 74, 
                            "t0": 2479, 
                            "v": 66, 
                            "dur": 16, 
                            "type": "note", 
                            "channel": 1
                        }
                    ]
                ], 
                [
                    2520, 
                    [
                        {
                            "pitch": 35, 
                            "t0": 2520, 
                            "v": 45, 
                            "dur": 25, 
                            "type": "note", 
                            "channel": 1
                        }
                    ]
                ], 
                [
                    2711, 
                    [
                        {
                            "pitch": 71, 
                            "t0": 2711, 
                            "v": 56, 
                            "dur": 11, 
                            "type": "note", 
                            "channel": 1
                        }
                    ]
                ], 
                [
                    2715, 
                    [
                        {
                            "pitch": 74, 
                            "t0": 2715, 
                            "v": 54, 
                            "dur": 7, 
                            "type": "note", 
                            "channel": 1
                        }
                    ]
                ], 
                [
                    2830, 
                    [
                        {
                            "pitch": 73, 
                            "t0": 2830, 
                            "v": 68, 
                            "dur": 18, 
                            "type": "note", 
                            "channel": 1
                        }
                    ]
                ], 
                [
                    2833, 
                    [
                        {
                            "pitch": 77, 
                            "t0": 2833, 
                            "v": 73, 
                            "dur": 122, 
                            "type": "note", 
                            "channel": 1
                        }
                    ]
                ], 
                [
                    2834, 
                    [
                        {
                            "pitch": 67, 
                            "t0": 2834, 
                            "v": 64, 
                            "dur": 14, 
                            "type": "note", 
                            "channel": 1
                        }, 
                        {
                            "pitch": 74, 
                            "t0": 2834, 
                            "v": 77, 
                            "dur": 122, 
                            "type": "note", 
                            "channel": 1
                        }
                    ]
                ], 
                [
                    2963, 
                    [
                        {
                            "pitch": 67, 
                            "t0": 2963, 
                            "v": 52, 
                            "dur": 11, 
                            "type": "note", 
                            "channel": 1
                        }
                    ]
                ], 
                [
                    2997, 
                    [
                        {
                            "pitch": 76, 
                            "t0": 2997, 
                            "v": 66, 
                            "dur": 17, 
                            "type": "note", 
                            "channel": 1
                        }
                    ]
                ], 
                [
                    2999, 
                    [
                        {
                            "pitch": 72, 
                            "t0": 2999, 
                            "v": 74, 
                            "dur": 15, 
                            "type": "note", 
                            "channel": 1
                        }
                    ]
                ], 
                [
                    3195, 
                    [
                        {
                            "pitch": 70, 
                            "t0": 3195, 
                            "v": 73, 
                            "dur": 17, 
                            "type": "note", 
                            "channel": 1
                        }
                    ]
                ], 
                [
                    3198, 
                    [
                        {
                            "pitch": 74, 
                            "t0": 3198, 
                            "v": 73, 
                            "dur": 80, 
                            "type": "note", 
                            "channel": 1
                        }
                    ]
                ], 
                [
                    3203, 
                    [
                        {
                            "pitch": 71, 
                            "t0": 3203, 
                            "v": 58, 
                            "dur": 99, 
                            "type": "note", 
                            "channel": 1
                        }
                    ]
                ], 
                [
                    3320, 
                    [
                        {
                            "pitch": 67, 
                            "t0": 3320, 
                            "v": 68, 
                            "dur": 12, 
                            "type": "note", 
                            "channel": 1
                        }
                    ]
                ], 
                [
                    3362, 
                    [
                        {
                            "pitch": 38, 
                            "t0": 3362, 
                            "v": 71, 
                            "dur": 100, 
                            "type": "note", 
                            "channel": 1
                        }
                    ]
                ], 
                [
                    3441, 
                    [
                        {
                            "pitch": 66, 
                            "t0": 3441, 
                            "v": 65, 
                            "dur": 21, 
                            "type": "note", 
                            "channel": 1
                        }
                    ]
                ], 
                [
                    3442, 
                    [
                        {
                            "pitch": 74, 
                            "t0": 3442, 
                            "v": 76, 
                            "dur": 40, 
                            "type": "note", 
                            "channel": 1
                        }
                    ]
                ], 
                [
                    3444, 
                    [
                        {
                            "pitch": 69, 
                            "t0": 3444, 
                            "v": 80, 
                            "dur": 22, 
                            "type": "note", 
                            "channel": 1
                        }
                    ]
                ], 
                [
                    3482, 
                    [
                        {
                            "pitch": 42, 
                            "t0": 3482, 
                            "v": 65, 
                            "dur": 78, 
                            "type": "note", 
                            "channel": 1
                        }
                    ]
                ], 
                [
                    3507, 
                    [
                        {
                            "pitch": 74, 
                            "t0": 3507, 
                            "v": 38, 
                            "dur": 20, 
                            "type": "note", 
                            "channel": 1
                        }
                    ]
                ], 
                [
                    3598, 
                    [
                        {
                            "pitch": 45, 
                            "t0": 3598, 
                            "v": 65, 
                            "dur": 45, 
                            "type": "note", 
                            "channel": 1
                        }
                    ]
                ], 
                [
                    3604, 
                    [
                        {
                            "pitch": 80, 
                            "t0": 3604, 
                            "v": 59, 
                            "dur": 33, 
                            "type": "note", 
                            "channel": 1
                        }
                    ]
                ], 
                [
                    3609, 
                    [
                        {
                            "pitch": 81, 
                            "t0": 3609, 
                            "v": 86, 
                            "dur": 34, 
                            "type": "note", 
                            "channel": 1
                        }
                    ]
                ], 
                [
                    3611, 
                    [
                        {
                            "pitch": 84, 
                            "t0": 3611, 
                            "v": 65, 
                            "dur": 32, 
                            "type": "note", 
                            "channel": 1
                        }
                    ]
                ], 
                [
                    3685, 
                    [
                        {
                            "pitch": 79, 
                            "t0": 3685, 
                            "v": 100, 
                            "dur": 28, 
                            "type": "note", 
                            "channel": 1
                        }, 
                        {
                            "pitch": 83, 
                            "t0": 3685, 
                            "v": 95, 
                            "dur": 28, 
                            "type": "note", 
                            "channel": 1
                        }
                    ]
                ], 
                [
                    3716, 
                    [
                        {
                            "pitch": 42, 
                            "t0": 3716, 
                            "v": 48, 
                            "dur": 28, 
                            "type": "note", 
                            "channel": 1
                        }
                    ]
                ], 
                [
                    3790, 
                    [
                        {
                            "pitch": 77, 
                            "t0": 3790, 
                            "v": 98, 
                            "dur": 24, 
                            "type": "note", 
                            "channel": 1
                        }
                    ]
                ], 
                [
                    3793, 
                    [
                        {
                            "pitch": 81, 
                            "t0": 3793, 
                            "v": 92, 
                            "dur": 215, 
                            "type": "note", 
                            "channel": 1
                        }
                    ]
                ], 
                [
                    3795, 
                    [
                        {
                            "pitch": 78, 
                            "t0": 3795, 
                            "v": 93, 
                            "dur": 106, 
                            "type": "note", 
                            "channel": 1
                        }
                    ]
                ], 
                [
                    3836, 
                    [
                        {
                            "pitch": 38, 
                            "t0": 3836, 
                            "v": 61, 
                            "dur": 93, 
                            "type": "note", 
                            "channel": 1
                        }
                    ]
                ], 
                [
                    3912, 
                    [
                        {
                            "pitch": 74, 
                            "t0": 3912, 
                            "v": 80, 
                            "dur": 81, 
                            "type": "note", 
                            "channel": 1
                        }
                    ]
                ], 
                [
                    3913, 
                    [
                        {
                            "pitch": 78, 
                            "t0": 3913, 
                            "v": 51, 
                            "dur": 91, 
                            "type": "note", 
                            "channel": 1
                        }
                    ]
                ], 
                [
                    3951, 
                    [
                        {
                            "pitch": 40, 
                            "t0": 3951, 
                            "v": 64, 
                            "dur": 57, 
                            "type": "note", 
                            "channel": 1
                        }
                    ]
                ], 
                [
                    4033, 
                    [
                        {
                            "pitch": 78, 
                            "t0": 4033, 
                            "v": 71, 
                            "dur": 107, 
                            "type": "note", 
                            "channel": 1
                        }
                    ]
                ], 
                [
                    4035, 
                    [
                        {
                            "pitch": 74, 
                            "t0": 4035, 
                            "v": 73, 
                            "dur": 66, 
                            "type": "note", 
                            "channel": 1
                        }, 
                        {
                            "pitch": 81, 
                            "t0": 4035, 
                            "v": 73, 
                            "dur": 80, 
                            "type": "note", 
                            "channel": 1
                        }
                    ]
                ], 
                [
                    4079, 
                    [
                        {
                            "pitch": 41, 
                            "t0": 4079, 
                            "v": 58, 
                            "dur": 94, 
                            "type": "note", 
                            "channel": 1
                        }
                    ]
                ], 
                [
                    4151, 
                    [
                        {
                            "pitch": 78, 
                            "t0": 4151, 
                            "v": 29, 
                            "dur": 83, 
                            "type": "note", 
                            "channel": 1
                        }
                    ]
                ], 
                [
                    4155, 
                    [
                        {
                            "pitch": 81, 
                            "t0": 4155, 
                            "v": 40, 
                            "dur": 70, 
                            "type": "note", 
                            "channel": 1
                        }
                    ]
                ], 
                [
                    4159, 
                    [
                        {
                            "pitch": 73, 
                            "t0": 4159, 
                            "v": 82, 
                            "dur": 20, 
                            "type": "note", 
                            "channel": 1
                        }
                    ]
                ], 
                [
                    4194, 
                    [
                        {
                            "pitch": 42, 
                            "t0": 4194, 
                            "v": 59, 
                            "dur": 32, 
                            "type": "note", 
                            "channel": 1
                        }
                    ]
                ], 
                [
                    4197, 
                    [
                        {
                            "pitch": 72, 
                            "t0": 4197, 
                            "v": 74, 
                            "dur": 34, 
                            "type": "note", 
                            "channel": 1
                        }
                    ]
                ], 
                [
                    4277, 
                    [
                        {
                            "pitch": 43, 
                            "t0": 4277, 
                            "v": 40, 
                            "dur": 94, 
                            "type": "note", 
                            "channel": 1
                        }
                    ]
                ], 
                [
                    4282, 
                    [
                        {
                            "pitch": 70, 
                            "t0": 4282, 
                            "v": 107, 
                            "dur": 30, 
                            "type": "note", 
                            "channel": 1
                        }
                    ]
                ], 
                [
                    4309, 
                    [
                        {
                            "pitch": 69, 
                            "t0": 4309, 
                            "v": 80, 
                            "dur": 23, 
                            "type": "note", 
                            "channel": 1
                        }
                    ]
                ], 
                [
                    4312, 
                    [
                        {
                            "pitch": 71, 
                            "t0": 4312, 
                            "v": 84, 
                            "dur": 292, 
                            "type": "note", 
                            "channel": 1
                        }
                    ]
                ], 
                [
                    4322, 
                    [
                        {
                            "pitch": 31, 
                            "t0": 4322, 
                            "v": 78, 
                            "dur": 100, 
                            "type": "note", 
                            "channel": 1
                        }
                    ]
                ], 
                [
                    4397, 
                    [
                        {
                            "pitch": 79, 
                            "t0": 4397, 
                            "v": 80, 
                            "dur": 281, 
                            "type": "note", 
                            "channel": 1
                        }
                    ]
                ], 
                [
                    4442, 
                    [
                        {
                            "pitch": 35, 
                            "t0": 4442, 
                            "v": 68, 
                            "dur": 33, 
                            "type": "note", 
                            "channel": 1
                        }
                    ]
                ], 
                [
                    4560, 
                    [
                        {
                            "pitch": 38, 
                            "t0": 4560, 
                            "v": 57, 
                            "dur": 52, 
                            "type": "note", 
                            "channel": 1
                        }
                    ]
                ], 
                [
                    4638, 
                    [
                        {
                            "pitch": 71, 
                            "t0": 4638, 
                            "v": 54, 
                            "dur": 20, 
                            "type": "note", 
                            "channel": 1
                        }
                    ]
                ], 
                [
                    4682, 
                    [
                        {
                            "pitch": 35, 
                            "t0": 4682, 
                            "v": 65, 
                            "dur": 21, 
                            "type": "note", 
                            "channel": 1
                        }
                    ]
                ], 
                [
                    4808, 
                    [
                        {
                            "pitch": 36, 
                            "t0": 4808, 
                            "v": 49, 
                            "dur": 51, 
                            "type": "note", 
                            "channel": 1
                        }
                    ]
                ], 
                [
                    4877, 
                    [
                        {
                            "pitch": 75, 
                            "t0": 4877, 
                            "v": 63, 
                            "dur": 29, 
                            "type": "note", 
                            "channel": 1
                        }
                    ]
                ], 
                [
                    4911, 
                    [
                        {
                            "pitch": 76, 
                            "t0": 4911, 
                            "v": 63, 
                            "dur": 176, 
                            "type": "note", 
                            "channel": 1
                        }
                    ]
                ], 
                [
                    4923, 
                    [
                        {
                            "pitch": 40, 
                            "t0": 4923, 
                            "v": 60, 
                            "dur": 38, 
                            "type": "note", 
                            "channel": 1
                        }
                    ]
                ], 
                [
                    5000, 
                    [
                        {
                            "pitch": 84, 
                            "t0": 5000, 
                            "v": 78, 
                            "dur": 238, 
                            "type": "note", 
                            "channel": 1
                        }
                    ]
                ], 
                [
                    5042, 
                    [
                        {
                            "pitch": 43, 
                            "t0": 5042, 
                            "v": 50, 
                            "dur": 49, 
                            "type": "note", 
                            "channel": 1
                        }
                    ]
                ], 
                [
                    5116, 
                    [
                        {
                            "pitch": 76, 
                            "t0": 5116, 
                            "v": 36, 
                            "dur": 80, 
                            "type": "note", 
                            "channel": 1
                        }
                    ]
                ], 
                [
                    5162, 
                    [
                        {
                            "pitch": 40, 
                            "t0": 5162, 
                            "v": 54, 
                            "dur": 41, 
                            "type": "note", 
                            "channel": 1
                        }
                    ]
                ], 
                [
                    5280, 
                    [
                        {
                            "pitch": 31, 
                            "t0": 5280, 
                            "v": 59, 
                            "dur": 110, 
                            "type": "note", 
                            "channel": 1
                        }
                    ]
                ], 
                [
                    5364, 
                    [
                        {
                            "pitch": 71, 
                            "t0": 5364, 
                            "v": 70, 
                            "dur": 18, 
                            "type": "note", 
                            "channel": 1
                        }
                    ]
                ], 
                [
                    5403, 
                    [
                        {
                            "pitch": 71, 
                            "t0": 5403, 
                            "v": 70, 
                            "dur": 147, 
                            "type": "note", 
                            "channel": 1
                        }
                    ]
                ], 
                [
                    5410, 
                    [
                        {
                            "pitch": 35, 
                            "t0": 5410, 
                            "v": 61, 
                            "dur": 36, 
                            "type": "note", 
                            "channel": 1
                        }
                    ]
                ], 
                [
                    5476, 
                    [
                        {
                            "pitch": 79, 
                            "t0": 5476, 
                            "v": 87, 
                            "dur": 128, 
                            "type": "note", 
                            "channel": 1
                        }
                    ]
                ], 
                [
                    5522, 
                    [
                        {
                            "pitch": 38, 
                            "t0": 5522, 
                            "v": 62, 
                            "dur": 31, 
                            "type": "note", 
                            "channel": 1
                        }
                    ]
                ], 
                [
                    5602, 
                    [
                        {
                            "pitch": 71, 
                            "t0": 5602, 
                            "v": 70, 
                            "dur": 17, 
                            "type": "note", 
                            "channel": 1
                        }
                    ]
                ], 
                [
                    5637, 
                    [
                        {
                            "pitch": 77, 
                            "t0": 5637, 
                            "v": 85, 
                            "dur": 82, 
                            "type": "note", 
                            "channel": 1
                        }
                    ]
                ], 
                [
                    5639, 
                    [
                        {
                            "pitch": 69, 
                            "t0": 5639, 
                            "v": 84, 
                            "dur": 44, 
                            "type": "note", 
                            "channel": 1
                        }
                    ]
                ], 
                [
                    5720, 
                    [
                        {
                            "pitch": 69, 
                            "t0": 5720, 
                            "v": 73, 
                            "dur": 19, 
                            "type": "note", 
                            "channel": 1
                        }
                    ]
                ], 
                [
                    5755, 
                    [
                        {
                            "pitch": 36, 
                            "t0": 5755, 
                            "v": 87, 
                            "dur": 110, 
                            "type": "note", 
                            "channel": 1
                        }
                    ]
                ], 
                [
                    5838, 
                    [
                        {
                            "pitch": 67, 
                            "t0": 5838, 
                            "v": 87, 
                            "dur": 20, 
                            "type": "note", 
                            "channel": 1
                        }, 
                        {
                            "pitch": 72, 
                            "t0": 5838, 
                            "v": 87, 
                            "dur": 24, 
                            "type": "note", 
                            "channel": 1
                        }, 
                        {
                            "pitch": 76, 
                            "t0": 5838, 
                            "v": 78, 
                            "dur": 27, 
                            "type": "note", 
                            "channel": 1
                        }
                    ]
                ], 
                [
                    5871, 
                    [
                        {
                            "pitch": 40, 
                            "t0": 5871, 
                            "v": 65, 
                            "dur": 103, 
                            "type": "note", 
                            "channel": 1
                        }
                    ]
                ], 
                [
                    5955, 
                    [
                        {
                            "pitch": 64, 
                            "t0": 5955, 
                            "v": 64, 
                            "dur": 64, 
                            "type": "note", 
                            "channel": 1
                        }
                    ]
                ], 
                [
                    5956, 
                    [
                        {
                            "pitch": 67, 
                            "t0": 5956, 
                            "v": 83, 
                            "dur": 147, 
                            "type": "note", 
                            "channel": 1
                        }, 
                        {
                            "pitch": 72, 
                            "t0": 5956, 
                            "v": 74, 
                            "dur": 243, 
                            "type": "note", 
                            "channel": 1
                        }
                    ]
                ], 
                [
                    5995, 
                    [
                        {
                            "pitch": 43, 
                            "t0": 5995, 
                            "v": 65, 
                            "dur": 120, 
                            "type": "note", 
                            "channel": 1
                        }
                    ]
                ], 
                [
                    6075, 
                    [
                        {
                            "pitch": 64, 
                            "t0": 6075, 
                            "v": 72, 
                            "dur": 65, 
                            "type": "note", 
                            "channel": 1
                        }
                    ]
                ], 
                [
                    6111, 
                    [
                        {
                            "pitch": 67, 
                            "t0": 6111, 
                            "v": 44, 
                            "dur": 90, 
                            "type": "note", 
                            "channel": 1
                        }
                    ]
                ], 
                [
                    6114, 
                    [
                        {
                            "pitch": 40, 
                            "t0": 6114, 
                            "v": 79, 
                            "dur": 63, 
                            "type": "note", 
                            "channel": 1
                        }
                    ]
                ], 
                [
                    6201, 
                    [
                        {
                            "pitch": 64, 
                            "t0": 6201, 
                            "v": 72, 
                            "dur": 21, 
                            "type": "note", 
                            "channel": 1
                        }
                    ]
                ], 
                [
                    6205, 
                    [
                        {
                            "pitch": 43, 
                            "t0": 6205, 
                            "v": 47, 
                            "dur": 207, 
                            "type": "note", 
                            "channel": 1
                        }
                    ]
                ], 
                [
                    6235, 
                    [
                        {
                            "pitch": 31, 
                            "t0": 6235, 
                            "v": 110, 
                            "dur": 152, 
                            "type": "note", 
                            "channel": 1
                        }
                    ]
                ], 
                [
                    6319, 
                    [
                        {
                            "pitch": 62, 
                            "t0": 6319, 
                            "v": 56, 
                            "dur": 178, 
                            "type": "note", 
                            "channel": 1
                        }
                    ]
                ], 
                [
                    6355, 
                    [
                        {
                            "pitch": 67, 
                            "t0": 6355, 
                            "v": 90, 
                            "dur": 73, 
                            "type": "note", 
                            "channel": 1
                        }
                    ]
                ], 
                [
                    6356, 
                    [
                        {
                            "pitch": 71, 
                            "t0": 6356, 
                            "v": 78, 
                            "dur": 312, 
                            "type": "note", 
                            "channel": 1
                        }
                    ]
                ], 
                [
                    6441, 
                    [
                        {
                            "pitch": 67, 
                            "t0": 6441, 
                            "v": 73, 
                            "dur": 138, 
                            "type": "note", 
                            "channel": 1
                        }
                    ]
                ], 
                [
                    6474, 
                    [
                        {
                            "pitch": 35, 
                            "t0": 6474, 
                            "v": 65, 
                            "dur": 106, 
                            "type": "note", 
                            "channel": 1
                        }
                    ]
                ], 
                [
                    6561, 
                    [
                        {
                            "pitch": 62, 
                            "t0": 6561, 
                            "v": 65, 
                            "dur": 81, 
                            "type": "note", 
                            "channel": 1
                        }
                    ]
                ], 
                [
                    6598, 
                    [
                        {
                            "pitch": 36, 
                            "t0": 6598, 
                            "v": 76, 
                            "dur": 81, 
                            "type": "note", 
                            "channel": 1
                        }, 
                        {
                            "pitch": 67, 
                            "t0": 6598, 
                            "v": 86, 
                            "dur": 93, 
                            "type": "note", 
                            "channel": 1
                        }
                    ]
                ], 
                [
                    6686, 
                    [
                        {
                            "pitch": 62, 
                            "t0": 6686, 
                            "v": 73, 
                            "dur": 20, 
                            "type": "note", 
                            "channel": 1
                        }
                    ]
                ], 
                [
                    6717, 
                    [
                        {
                            "pitch": 38, 
                            "t0": 6717, 
                            "v": 92, 
                            "dur": 109, 
                            "type": "note", 
                            "channel": 1
                        }
                    ]
                ], 
                [
                    6796, 
                    [
                        {
                            "pitch": 57, 
                            "t0": 6796, 
                            "v": 65, 
                            "dur": 28, 
                            "type": "note", 
                            "channel": 1
                        }
                    ]
                ], 
                [
                    6799, 
                    [
                        {
                            "pitch": 66, 
                            "t0": 6799, 
                            "v": 75, 
                            "dur": 27, 
                            "type": "note", 
                            "channel": 1
                        }
                    ]
                ], 
                [
                    6800, 
                    [
                        {
                            "pitch": 62, 
                            "t0": 6800, 
                            "v": 83, 
                            "dur": 28, 
                            "type": "note", 
                            "channel": 1
                        }
                    ]
                ], 
                [
                    6842, 
                    [
                        {
                            "pitch": 36, 
                            "t0": 6842, 
                            "v": 90, 
                            "dur": 96, 
                            "type": "note", 
                            "channel": 1
                        }
                    ]
                ], 
                [
                    6922, 
                    [
                        {
                            "pitch": 66, 
                            "t0": 6922, 
                            "v": 72, 
                            "dur": 139, 
                            "type": "note", 
                            "channel": 1
                        }, 
                        {
                            "pitch": 62, 
                            "t0": 6922, 
                            "v": 75, 
                            "dur": 139, 
                            "type": "note", 
                            "channel": 1
                        }
                    ]
                ], 
                [
                    6923, 
                    [
                        {
                            "pitch": 57, 
                            "t0": 6923, 
                            "v": 61, 
                            "dur": 61, 
                            "type": "note", 
                            "channel": 1
                        }
                    ]
                ], 
                [
                    6958, 
                    [
                        {
                            "pitch": 35, 
                            "t0": 6958, 
                            "v": 85, 
                            "dur": 60, 
                            "type": "note", 
                            "channel": 1
                        }
                    ]
                ], 
                [
                    7042, 
                    [
                        {
                            "pitch": 57, 
                            "t0": 7042, 
                            "v": 73, 
                            "dur": 65, 
                            "type": "note", 
                            "channel": 1
                        }
                    ]
                ], 
                [
                    7072, 
                    [
                        {
                            "pitch": 66, 
                            "t0": 7072, 
                            "v": 56, 
                            "dur": 108, 
                            "type": "note", 
                            "channel": 1
                        }
                    ]
                ], 
                [
                    7074, 
                    [
                        {
                            "pitch": 62, 
                            "t0": 7074, 
                            "v": 73, 
                            "dur": 106, 
                            "type": "note", 
                            "channel": 1
                        }
                    ]
                ], 
                [
                    7082, 
                    [
                        {
                            "pitch": 33, 
                            "t0": 7082, 
                            "v": 91, 
                            "dur": 55, 
                            "type": "note", 
                            "channel": 1
                        }
                    ]
                ], 
                [
                    7165, 
                    [
                        {
                            "pitch": 57, 
                            "t0": 7165, 
                            "v": 62, 
                            "dur": 14, 
                            "type": "note", 
                            "channel": 1
                        }
                    ]
                ], 
                [
                    7199, 
                    [
                        {
                            "pitch": 31, 
                            "t0": 7199, 
                            "v": 87, 
                            "dur": 104, 
                            "type": "note", 
                            "channel": 1
                        }
                    ]
                ], 
                [
                    7207, 
                    [
                        {
                            "pitch": 62, 
                            "t0": 7207, 
                            "v": 64, 
                            "dur": 15, 
                            "type": "note", 
                            "channel": 1
                        }
                    ]
                ], 
                [
                    7281, 
                    [
                        {
                            "pitch": 59, 
                            "t0": 7281, 
                            "v": 60, 
                            "dur": 15, 
                            "type": "note", 
                            "channel": 1
                        }
                    ]
                ], 
                [
                    7316, 
                    [
                        {
                            "pitch": 62, 
                            "t0": 7316, 
                            "v": 86, 
                            "dur": 334, 
                            "type": "note", 
                            "channel": 1
                        }
                    ]
                ], 
                [
                    7317, 
                    [
                        {
                            "pitch": 59, 
                            "t0": 7317, 
                            "v": 73, 
                            "dur": 54, 
                            "type": "note", 
                            "channel": 1
                        }, 
                        {
                            "pitch": 67, 
                            "t0": 7317, 
                            "v": 94, 
                            "dur": 224, 
                            "type": "note", 
                            "channel": 1
                        }
                    ]
                ], 
                [
                    7412, 
                    [
                        {
                            "pitch": 59, 
                            "t0": 7412, 
                            "v": 57, 
                            "dur": 63, 
                            "type": "note", 
                            "channel": 1
                        }
                    ]
                ], 
                [
                    7517, 
                    [
                        {
                            "pitch": 59, 
                            "t0": 7517, 
                            "v": 62, 
                            "dur": 73, 
                            "type": "note", 
                            "channel": 1
                        }
                    ]
                ], 
                [
                    7559, 
                    [
                        {
                            "pitch": 67, 
                            "t0": 7559, 
                            "v": 71, 
                            "dur": 84, 
                            "type": "note", 
                            "channel": 1
                        }
                    ]
                ], 
                [
                    7674, 
                    [
                        {
                            "pitch": 62, 
                            "t0": 7674, 
                            "v": 92, 
                            "dur": 37, 
                            "type": "note", 
                            "channel": 1
                        }, 
                        {
                            "pitch": 31, 
                            "t0": 7674, 
                            "v": 104, 
                            "dur": 42, 
                            "type": "note", 
                            "channel": 1
                        }
                    ]
                ], 
                [
                    7675, 
                    [
                        {
                            "pitch": 43, 
                            "t0": 7675, 
                            "v": 91, 
                            "dur": 45, 
                            "type": "note", 
                            "channel": 1
                        }
                    ]
                ], 
                [
                    7676, 
                    [
                        {
                            "pitch": 59, 
                            "t0": 7676, 
                            "v": 81, 
                            "dur": 29, 
                            "type": "note", 
                            "channel": 1
                        }, 
                        {
                            "pitch": 67, 
                            "t0": 7676, 
                            "v": 106, 
                            "dur": 37, 
                            "type": "note", 
                            "channel": 1
                        }
                    ]
                ], 
                [
                    8283, 
                    [
                        {
                            "pitch": 60, 
                            "t0": 8283, 
                            "v": 64, 
                            "dur": 189, 
                            "type": "note", 
                            "channel": 1
                        }
                    ]
                ], 
                [
                    8286, 
                    [
                        {
                            "pitch": 64, 
                            "t0": 8286, 
                            "v": 59, 
                            "dur": 200, 
                            "type": "note", 
                            "channel": 1
                        }
                    ]
                ], 
                [
                    8287, 
                    [
                        {
                            "pitch": 55, 
                            "t0": 8287, 
                            "v": 56, 
                            "dur": 130, 
                            "type": "note", 
                            "channel": 1
                        }
                    ]
                ], 
                [
                    8395, 
                    [
                        {
                            "pitch": 43, 
                            "t0": 8395, 
                            "v": 71, 
                            "dur": 222, 
                            "type": "note", 
                            "channel": 1
                        }
                    ]
                ], 
                [
                    8481, 
                    [
                        {
                            "pitch": 55, 
                            "t0": 8481, 
                            "v": 58, 
                            "dur": 197, 
                            "type": "note", 
                            "channel": 1
                        }
                    ]
                ], 
                [
                    8515, 
                    [
                        {
                            "pitch": 64, 
                            "t0": 8515, 
                            "v": 72, 
                            "dur": 225, 
                            "type": "note", 
                            "channel": 1
                        }
                    ]
                ], 
                [
                    8516, 
                    [
                        {
                            "pitch": 60, 
                            "t0": 8516, 
                            "v": 73, 
                            "dur": 71, 
                            "type": "note", 
                            "channel": 1
                        }
                    ]
                ], 
                [
                    8600, 
                    [
                        {
                            "pitch": 60, 
                            "t0": 8600, 
                            "v": 65, 
                            "dur": 144, 
                            "type": "note", 
                            "channel": 1
                        }
                    ]
                ], 
                [
                    8640, 
                    [
                        {
                            "pitch": 36, 
                            "t0": 8640, 
                            "v": 83, 
                            "dur": 145, 
                            "type": "note", 
                            "channel": 1
                        }, 
                        {
                            "pitch": 48, 
                            "t0": 8640, 
                            "v": 78, 
                            "dur": 163, 
                            "type": "note", 
                            "channel": 1
                        }
                    ]
                ], 
                [
                    8749, 
                    [
                        {
                            "pitch": 55, 
                            "t0": 8749, 
                            "v": 17, 
                            "dur": 159, 
                            "type": "note", 
                            "channel": 1
                        }
                    ]
                ], 
                [
                    8754, 
                    [
                        {
                            "pitch": 60, 
                            "t0": 8754, 
                            "v": 58, 
                            "dur": 225, 
                            "type": "note", 
                            "channel": 1
                        }, 
                        {
                            "pitch": 64, 
                            "t0": 8754, 
                            "v": 55, 
                            "dur": 308, 
                            "type": "note", 
                            "channel": 1
                        }
                    ]
                ], 
                [
                    8882, 
                    [
                        {
                            "pitch": 43, 
                            "t0": 8882, 
                            "v": 57, 
                            "dur": 38, 
                            "type": "note", 
                            "channel": 1
                        }
                    ]
                ], 
                [
                    8963, 
                    [
                        {
                            "pitch": 55, 
                            "t0": 8963, 
                            "v": 50, 
                            "dur": 56, 
                            "type": "note", 
                            "channel": 1
                        }
                    ]
                ], 
                [
                    8991, 
                    [
                        {
                            "pitch": 60, 
                            "t0": 8991, 
                            "v": 45, 
                            "dur": 61, 
                            "type": "note", 
                            "channel": 1
                        }
                    ]
                ], 
                [
                    9116, 
                    [
                        {
                            "pitch": 31, 
                            "t0": 9116, 
                            "v": 73, 
                            "dur": 114, 
                            "type": "note", 
                            "channel": 1
                        }, 
                        {
                            "pitch": 43, 
                            "t0": 9116, 
                            "v": 66, 
                            "dur": 130, 
                            "type": "note", 
                            "channel": 1
                        }
                    ]
                ], 
                [
                    9208, 
                    [
                        {
                            "pitch": 73, 
                            "t0": 9208, 
                            "v": 64, 
                            "dur": 29, 
                            "type": "note", 
                            "channel": 1
                        }
                    ]
                ], 
                [
                    9245, 
                    [
                        {
                            "pitch": 72, 
                            "t0": 9245, 
                            "v": 40, 
                            "dur": 11, 
                            "type": "note", 
                            "channel": 1
                        }
                    ]
                ], 
                [
                    9247, 
                    [
                        {
                            "pitch": 74, 
                            "t0": 9247, 
                            "v": 49, 
                            "dur": 148, 
                            "type": "note", 
                            "channel": 1
                        }
                    ]
                ], 
                [
                    9310, 
                    [
                        {
                            "pitch": 83, 
                            "t0": 9310, 
                            "v": 62, 
                            "dur": 120, 
                            "type": "note", 
                            "channel": 1
                        }
                    ]
                ], 
                [
                    9362, 
                    [
                        {
                            "pitch": 38, 
                            "t0": 9362, 
                            "v": 52, 
                            "dur": 33, 
                            "type": "note", 
                            "channel": 1
                        }
                    ]
                ], 
                [
                    9437, 
                    [
                        {
                            "pitch": 82, 
                            "t0": 9437, 
                            "v": 37, 
                            "dur": 30, 
                            "type": "note", 
                            "channel": 1
                        }
                    ]
                ], 
                [
                    9450, 
                    [
                        {
                            "pitch": 73, 
                            "t0": 9450, 
                            "v": 46, 
                            "dur": 13, 
                            "type": "note", 
                            "channel": 1
                        }
                    ]
                ], 
                [
                    9478, 
                    [
                        {
                            "pitch": 72, 
                            "t0": 9478, 
                            "v": 62, 
                            "dur": 44, 
                            "type": "note", 
                            "channel": 1
                        }, 
                        {
                            "pitch": 81, 
                            "t0": 9478, 
                            "v": 62, 
                            "dur": 49, 
                            "type": "note", 
                            "channel": 1
                        }
                    ]
                ], 
                [
                    9559, 
                    [
                        {
                            "pitch": 71, 
                            "t0": 9559, 
                            "v": 77, 
                            "dur": 84, 
                            "type": "note", 
                            "channel": 1
                        }, 
                        {
                            "pitch": 79, 
                            "t0": 9559, 
                            "v": 71, 
                            "dur": 201, 
                            "type": "note", 
                            "channel": 1
                        }
                    ]
                ], 
                [
                    9601, 
                    [
                        {
                            "pitch": 31, 
                            "t0": 9601, 
                            "v": 62, 
                            "dur": 77, 
                            "type": "note", 
                            "channel": 1
                        }
                    ]
                ], 
                [
                    9603, 
                    [
                        {
                            "pitch": 43, 
                            "t0": 9603, 
                            "v": 45, 
                            "dur": 89, 
                            "type": "note", 
                            "channel": 1
                        }
                    ]
                ], 
                [
                    9724, 
                    [
                        {
                            "pitch": 71, 
                            "t0": 9724, 
                            "v": 60, 
                            "dur": 15, 
                            "type": "note", 
                            "channel": 1
                        }
                    ]
                ], 
                [
                    9739, 
                    [
                        {
                            "pitch": 43, 
                            "t0": 9739, 
                            "v": 33, 
                            "dur": 14, 
                            "type": "note", 
                            "channel": 1
                        }
                    ]
                ], 
                [
                    9804, 
                    [
                        {
                            "pitch": 73, 
                            "t0": 9804, 
                            "v": 82, 
                            "dur": 35, 
                            "type": "note", 
                            "channel": 1
                        }
                    ]
                ], 
                [
                    9841, 
                    [
                        {
                            "pitch": 74, 
                            "t0": 9841, 
                            "v": 90, 
                            "dur": 92, 
                            "type": "note", 
                            "channel": 1
                        }
                    ]
                ], 
                [
                    9851, 
                    [
                        {
                            "pitch": 31, 
                            "t0": 9851, 
                            "v": 70, 
                            "dur": 38, 
                            "type": "note", 
                            "channel": 1
                        }, 
                        {
                            "pitch": 43, 
                            "t0": 9851, 
                            "v": 58, 
                            "dur": 43, 
                            "type": "note", 
                            "channel": 1
                        }
                    ]
                ], 
                [
                    9923, 
                    [
                        {
                            "pitch": 83, 
                            "t0": 9923, 
                            "v": 71, 
                            "dur": 20, 
                            "type": "note", 
                            "channel": 1
                        }
                    ]
                ], 
                [
                    9963, 
                    [
                        {
                            "pitch": 75, 
                            "t0": 9963, 
                            "v": 107, 
                            "dur": 46, 
                            "type": "note", 
                            "channel": 1
                        }, 
                        {
                            "pitch": 84, 
                            "t0": 9963, 
                            "v": 100, 
                            "dur": 68, 
                            "type": "note", 
                            "channel": 1
                        }
                    ]
                ], 
                [
                    10038, 
                    [
                        {
                            "pitch": 75, 
                            "t0": 10038, 
                            "v": 58, 
                            "dur": 21, 
                            "type": "note", 
                            "channel": 1
                        }
                    ]
                ], 
                [
                    10087, 
                    [
                        {
                            "pitch": 33, 
                            "t0": 10087, 
                            "v": 68, 
                            "dur": 178, 
                            "type": "note", 
                            "channel": 1
                        }
                    ]
                ], 
                [
                    10089, 
                    [
                        {
                            "pitch": 76, 
                            "t0": 10089, 
                            "v": 68, 
                            "dur": 90, 
                            "type": "note", 
                            "channel": 1
                        }, 
                        {
                            "pitch": 85, 
                            "t0": 10089, 
                            "v": 81, 
                            "dur": 157, 
                            "type": "note", 
                            "channel": 1
                        }
                    ]
                ], 
                [
                    10090, 
                    [
                        {
                            "pitch": 45, 
                            "t0": 10090, 
                            "v": 51, 
                            "dur": 194, 
                            "type": "note", 
                            "channel": 1
                        }
                    ]
                ], 
                [
                    10204, 
                    [
                        {
                            "pitch": 76, 
                            "t0": 10204, 
                            "v": 69, 
                            "dur": 158, 
                            "type": "note", 
                            "channel": 1
                        }
                    ]
                ], 
                [
                    10277, 
                    [
                        {
                            "pitch": 85, 
                            "t0": 10277, 
                            "v": 60, 
                            "dur": 111, 
                            "type": "note", 
                            "channel": 1
                        }
                    ]
                ], 
                [
                    10317, 
                    [
                        {
                            "pitch": 40, 
                            "t0": 10317, 
                            "v": 49, 
                            "dur": 71, 
                            "type": "note", 
                            "channel": 1
                        }
                    ]
                ], 
                [
                    10404, 
                    [
                        {
                            "pitch": 75, 
                            "t0": 10404, 
                            "v": 52, 
                            "dur": 22, 
                            "type": "note", 
                            "channel": 1
                        }
                    ]
                ], 
                [
                    10413, 
                    [
                        {
                            "pitch": 84, 
                            "t0": 10413, 
                            "v": 41, 
                            "dur": 15, 
                            "type": "note", 
                            "channel": 1
                        }
                    ]
                ], 
                [
                    10443, 
                    [
                        {
                            "pitch": 74, 
                            "t0": 10443, 
                            "v": 66, 
                            "dur": 37, 
                            "type": "note", 
                            "channel": 1
                        }
                    ]
                ], 
                [
                    10446, 
                    [
                        {
                            "pitch": 83, 
                            "t0": 10446, 
                            "v": 53, 
                            "dur": 30, 
                            "type": "note", 
                            "channel": 1
                        }
                    ]
                ], 
                [
                    10518, 
                    [
                        {
                            "pitch": 73, 
                            "t0": 10518, 
                            "v": 89, 
                            "dur": 130, 
                            "type": "note", 
                            "channel": 1
                        }, 
                        {
                            "pitch": 81, 
                            "t0": 10518, 
                            "v": 75, 
                            "dur": 411, 
                            "type": "note", 
                            "channel": 1
                        }
                    ]
                ], 
                [
                    10565, 
                    [
                        {
                            "pitch": 33, 
                            "t0": 10565, 
                            "v": 66, 
                            "dur": 167, 
                            "type": "note", 
                            "channel": 1
                        }
                    ]
                ], 
                [
                    10566, 
                    [
                        {
                            "pitch": 45, 
                            "t0": 10566, 
                            "v": 61, 
                            "dur": 162, 
                            "type": "note", 
                            "channel": 1
                        }
                    ]
                ], 
                [
                    10687, 
                    [
                        {
                            "pitch": 73, 
                            "t0": 10687, 
                            "v": 59, 
                            "dur": 151, 
                            "type": "note", 
                            "channel": 1
                        }
                    ]
                ], 
                [
                    10802, 
                    [
                        {
                            "pitch": 40, 
                            "t0": 10802, 
                            "v": 51, 
                            "dur": 63, 
                            "type": "note", 
                            "channel": 1
                        }
                    ]
                ], 
                [
                    11049, 
                    [
                        {
                            "pitch": 50, 
                            "t0": 11049, 
                            "v": 58, 
                            "dur": 30, 
                            "type": "note", 
                            "channel": 1
                        }, 
                        {
                            "pitch": 38, 
                            "t0": 11049, 
                            "v": 74, 
                            "dur": 136, 
                            "type": "note", 
                            "channel": 1
                        }
                    ]
                ], 
                [
                    11164, 
                    [
                        {
                            "pitch": 81, 
                            "t0": 11164, 
                            "v": 83, 
                            "dur": 23, 
                            "type": "note", 
                            "channel": 1
                        }, 
                        {
                            "pitch": 86, 
                            "t0": 11164, 
                            "v": 84, 
                            "dur": 70, 
                            "type": "note", 
                            "channel": 1
                        }
                    ]
                ], 
                [
                    11201, 
                    [
                        {
                            "pitch": 83, 
                            "t0": 11201, 
                            "v": 88, 
                            "dur": 29, 
                            "type": "note", 
                            "channel": 1
                        }
                    ]
                ], 
                [
                    11234, 
                    [
                        {
                            "pitch": 81, 
                            "t0": 11234, 
                            "v": 80, 
                            "dur": 12, 
                            "type": "note", 
                            "channel": 1
                        }
                    ]
                ], 
                [
                    11276, 
                    [
                        {
                            "pitch": 76, 
                            "t0": 11276, 
                            "v": 98, 
                            "dur": 24, 
                            "type": "note", 
                            "channel": 1
                        }, 
                        {
                            "pitch": 81, 
                            "t0": 11276, 
                            "v": 90, 
                            "dur": 106, 
                            "type": "note", 
                            "channel": 1
                        }, 
                        {
                            "pitch": 45, 
                            "t0": 11276, 
                            "v": 59, 
                            "dur": 151, 
                            "type": "note", 
                            "channel": 1
                        }
                    ]
                ], 
                [
                    11282, 
                    [
                        {
                            "pitch": 78, 
                            "t0": 11282, 
                            "v": 81, 
                            "dur": 55, 
                            "type": "note", 
                            "channel": 1
                        }
                    ]
                ], 
                [
                    11358, 
                    [
                        {
                            "pitch": 76, 
                            "t0": 11358, 
                            "v": 73, 
                            "dur": 33, 
                            "type": "note", 
                            "channel": 1
                        }
                    ]
                ], 
                [
                    11395, 
                    [
                        {
                            "pitch": 81, 
                            "t0": 11395, 
                            "v": 33, 
                            "dur": 104, 
                            "type": "note", 
                            "channel": 1
                        }
                    ]
                ], 
                [
                    11400, 
                    [
                        {
                            "pitch": 74, 
                            "t0": 11400, 
                            "v": 98, 
                            "dur": 93, 
                            "type": "note", 
                            "channel": 1
                        }
                    ]
                ], 
                [
                    11485, 
                    [
                        {
                            "pitch": 45, 
                            "t0": 11485, 
                            "v": 68, 
                            "dur": 25, 
                            "type": "note", 
                            "channel": 1
                        }
                    ]
                ], 
                [
                    11522, 
                    [
                        {
                            "pitch": 74, 
                            "t0": 11522, 
                            "v": 66, 
                            "dur": 144, 
                            "type": "note", 
                            "channel": 1
                        }
                    ]
                ], 
                [
                    11524, 
                    [
                        {
                            "pitch": 78, 
                            "t0": 11524, 
                            "v": 67, 
                            "dur": 292, 
                            "type": "note", 
                            "channel": 1
                        }
                    ]
                ], 
                [
                    11525, 
                    [
                        {
                            "pitch": 38, 
                            "t0": 11525, 
                            "v": 83, 
                            "dur": 141, 
                            "type": "note", 
                            "channel": 1
                        }
                    ]
                ], 
                [
                    11526, 
                    [
                        {
                            "pitch": 50, 
                            "t0": 11526, 
                            "v": 78, 
                            "dur": 146, 
                            "type": "note", 
                            "channel": 1
                        }
                    ]
                ], 
                [
                    11647, 
                    [
                        {
                            "pitch": 69, 
                            "t0": 11647, 
                            "v": 80, 
                            "dur": 65, 
                            "type": "note", 
                            "channel": 1
                        }
                    ]
                ], 
                [
                    11714, 
                    [
                        {
                            "pitch": 74, 
                            "t0": 11714, 
                            "v": 47, 
                            "dur": 41, 
                            "type": "note", 
                            "channel": 1
                        }
                    ]
                ], 
                [
                    11744, 
                    [
                        {
                            "pitch": 68, 
                            "t0": 11744, 
                            "v": 113, 
                            "dur": 16, 
                            "type": "note", 
                            "channel": 1
                        }
                    ]
                ], 
                [
                    11762, 
                    [
                        {
                            "pitch": 69, 
                            "t0": 11762, 
                            "v": 102, 
                            "dur": 45, 
                            "type": "note", 
                            "channel": 1
                        }
                    ]
                ], 
                [
                    11790, 
                    [
                        {
                            "pitch": 38, 
                            "t0": 11790, 
                            "v": 60, 
                            "dur": 20, 
                            "type": "note", 
                            "channel": 1
                        }
                    ]
                ], 
                [
                    11878, 
                    [
                        {
                            "pitch": 77, 
                            "t0": 11878, 
                            "v": 95, 
                            "dur": 36, 
                            "type": "note", 
                            "channel": 1
                        }, 
                        {
                            "pitch": 79, 
                            "t0": 11878, 
                            "v": 83, 
                            "dur": 36, 
                            "type": "note", 
                            "channel": 1
                        }
                    ]
                ], 
                [
                    11879, 
                    [
                        {
                            "pitch": 70, 
                            "t0": 11879, 
                            "v": 97, 
                            "dur": 25, 
                            "type": "note", 
                            "channel": 1
                        }
                    ]
                ], 
                [
                    11882, 
                    [
                        {
                            "pitch": 69, 
                            "t0": 11882, 
                            "v": 117, 
                            "dur": 20, 
                            "type": "note", 
                            "channel": 1
                        }
                    ]
                ], 
                [
                    11998, 
                    [
                        {
                            "pitch": 76, 
                            "t0": 11998, 
                            "v": 75, 
                            "dur": 375, 
                            "type": "note", 
                            "channel": 1
                        }
                    ]
                ], 
                [
                    12000, 
                    [
                        {
                            "pitch": 36, 
                            "t0": 12000, 
                            "v": 64, 
                            "dur": 156, 
                            "type": "note", 
                            "channel": 1
                        }
                    ]
                ], 
                [
                    12001, 
                    [
                        {
                            "pitch": 48, 
                            "t0": 12001, 
                            "v": 60, 
                            "dur": 182, 
                            "type": "note", 
                            "channel": 1
                        }, 
                        {
                            "pitch": 67, 
                            "t0": 12001, 
                            "v": 98, 
                            "dur": 298, 
                            "type": "note", 
                            "channel": 1
                        }
                    ]
                ], 
                [
                    12245, 
                    [
                        {
                            "pitch": 43, 
                            "t0": 12245, 
                            "v": 56, 
                            "dur": 65, 
                            "type": "note", 
                            "channel": 1
                        }
                    ]
                ], 
                [
                    12362, 
                    [
                        {
                            "pitch": 67, 
                            "t0": 12362, 
                            "v": 73, 
                            "dur": 84, 
                            "type": "note", 
                            "channel": 1
                        }
                    ]
                ], 
                [
                    12437, 
                    [
                        {
                            "pitch": 72, 
                            "t0": 12437, 
                            "v": 83, 
                            "dur": 265, 
                            "type": "note", 
                            "channel": 1
                        }
                    ]
                ], 
                [
                    12440, 
                    [
                        {
                            "pitch": 79, 
                            "t0": 12440, 
                            "v": 83, 
                            "dur": 285, 
                            "type": "note", 
                            "channel": 1
                        }
                    ]
                ], 
                [
                    12481, 
                    [
                        {
                            "pitch": 48, 
                            "t0": 12481, 
                            "v": 53, 
                            "dur": 164, 
                            "type": "note", 
                            "channel": 1
                        }
                    ]
                ], 
                [
                    12486, 
                    [
                        {
                            "pitch": 36, 
                            "t0": 12486, 
                            "v": 60, 
                            "dur": 53, 
                            "type": "note", 
                            "channel": 1
                        }
                    ]
                ], 
                [
                    12599, 
                    [
                        {
                            "pitch": 67, 
                            "t0": 12599, 
                            "v": 74, 
                            "dur": 88, 
                            "type": "note", 
                            "channel": 1
                        }
                    ]
                ], 
                [
                    12715, 
                    [
                        {
                            "pitch": 43, 
                            "t0": 12715, 
                            "v": 64, 
                            "dur": 128, 
                            "type": "note", 
                            "channel": 1
                        }
                    ]
                ], 
                [
                    12798, 
                    [
                        {
                            "pitch": 75, 
                            "t0": 12798, 
                            "v": 48, 
                            "dur": 25, 
                            "type": "note", 
                            "channel": 1
                        }
                    ]
                ], 
                [
                    12825, 
                    [
                        {
                            "pitch": 76, 
                            "t0": 12825, 
                            "v": 81, 
                            "dur": 62, 
                            "type": "note", 
                            "channel": 1
                        }
                    ]
                ], 
                [
                    12867, 
                    [
                        {
                            "pitch": 84, 
                            "t0": 12867, 
                            "v": 48, 
                            "dur": 62, 
                            "type": "note", 
                            "channel": 1
                        }
                    ]
                ], 
                [
                    12914, 
                    [
                        {
                            "pitch": 76, 
                            "t0": 12914, 
                            "v": 44, 
                            "dur": 21, 
                            "type": "note", 
                            "channel": 1
                        }
                    ]
                ], 
                [
                    12964, 
                    [
                        {
                            "pitch": 74, 
                            "t0": 12964, 
                            "v": 71, 
                            "dur": 99, 
                            "type": "note", 
                            "channel": 1
                        }, 
                        {
                            "pitch": 83, 
                            "t0": 12964, 
                            "v": 74, 
                            "dur": 337, 
                            "type": "note", 
                            "channel": 1
                        }
                    ]
                ], 
                [
                    12967, 
                    [
                        {
                            "pitch": 31, 
                            "t0": 12967, 
                            "v": 73, 
                            "dur": 267, 
                            "type": "note", 
                            "channel": 1
                        }
                    ]
                ], 
                [
                    12969, 
                    [
                        {
                            "pitch": 43, 
                            "t0": 12969, 
                            "v": 44, 
                            "dur": 156, 
                            "type": "note", 
                            "channel": 1
                        }
                    ]
                ], 
                [
                    13085, 
                    [
                        {
                            "pitch": 74, 
                            "t0": 13085, 
                            "v": 62, 
                            "dur": 142, 
                            "type": "note", 
                            "channel": 1
                        }
                    ]
                ], 
                [
                    13206, 
                    [
                        {
                            "pitch": 43, 
                            "t0": 13206, 
                            "v": 58, 
                            "dur": 85, 
                            "type": "note", 
                            "channel": 1
                        }
                    ]
                ], 
                [
                    13281, 
                    [
                        {
                            "pitch": 74, 
                            "t0": 13281, 
                            "v": 67, 
                            "dur": 62, 
                            "type": "note", 
                            "channel": 1
                        }
                    ]
                ], 
                [
                    13317, 
                    [
                        {
                            "pitch": 83, 
                            "t0": 13317, 
                            "v": 63, 
                            "dur": 74, 
                            "type": "note", 
                            "channel": 1
                        }
                    ]
                ], 
                [
                    13396, 
                    [
                        {
                            "pitch": 75, 
                            "t0": 13396, 
                            "v": 85, 
                            "dur": 33, 
                            "type": "note", 
                            "channel": 1
                        }
                    ]
                ], 
                [
                    13429, 
                    [
                        {
                            "pitch": 76, 
                            "t0": 13429, 
                            "v": 97, 
                            "dur": 299, 
                            "type": "note", 
                            "channel": 1
                        }
                    ]
                ], 
                [
                    13438, 
                    [
                        {
                            "pitch": 48, 
                            "t0": 13438, 
                            "v": 51, 
                            "dur": 174, 
                            "type": "note", 
                            "channel": 1
                        }
                    ]
                ], 
                [
                    13442, 
                    [
                        {
                            "pitch": 36, 
                            "t0": 13442, 
                            "v": 50, 
                            "dur": 306, 
                            "type": "note", 
                            "channel": 1
                        }
                    ]
                ], 
                [
                    13518, 
                    [
                        {
                            "pitch": 84, 
                            "t0": 13518, 
                            "v": 88, 
                            "dur": 107, 
                            "type": "note", 
                            "channel": 1
                        }
                    ]
                ], 
                [
                    13642, 
                    [
                        {
                            "pitch": 84, 
                            "t0": 13642, 
                            "v": 72, 
                            "dur": 265, 
                            "type": "note", 
                            "channel": 1
                        }
                    ]
                ], 
                [
                    13688, 
                    [
                        {
                            "pitch": 48, 
                            "t0": 13688, 
                            "v": 52, 
                            "dur": 29, 
                            "type": "note", 
                            "channel": 1
                        }
                    ]
                ], 
                [
                    13760, 
                    [
                        {
                            "pitch": 76, 
                            "t0": 13760, 
                            "v": 65, 
                            "dur": 78, 
                            "type": "note", 
                            "channel": 1
                        }
                    ]
                ], 
                [
                    13805, 
                    [
                        {
                            "pitch": 48, 
                            "t0": 13805, 
                            "v": 53, 
                            "dur": 30, 
                            "type": "note", 
                            "channel": 1
                        }
                    ]
                ], 
                [
                    13920, 
                    [
                        {
                            "pitch": 43, 
                            "t0": 13920, 
                            "v": 68, 
                            "dur": 212, 
                            "type": "note", 
                            "channel": 1
                        }
                    ]
                ], 
                [
                    13992, 
                    [
                        {
                            "pitch": 82, 
                            "t0": 13992, 
                            "v": 67, 
                            "dur": 45, 
                            "type": "note", 
                            "channel": 1
                        }
                    ]
                ], 
                [
                    14038, 
                    [
                        {
                            "pitch": 83, 
                            "t0": 14038, 
                            "v": 97, 
                            "dur": 179, 
                            "type": "note", 
                            "channel": 1
                        }
                    ]
                ], 
                [
                    14114, 
                    [
                        {
                            "pitch": 91, 
                            "t0": 14114, 
                            "v": 80, 
                            "dur": 152, 
                            "type": "note", 
                            "channel": 1
                        }
                    ]
                ], 
                [
                    14170, 
                    [
                        {
                            "pitch": 38, 
                            "t0": 14170, 
                            "v": 48, 
                            "dur": 25, 
                            "type": "note", 
                            "channel": 1
                        }
                    ]
                ], 
                [
                    14239, 
                    [
                        {
                            "pitch": 83, 
                            "t0": 14239, 
                            "v": 59, 
                            "dur": 64, 
                            "type": "note", 
                            "channel": 1
                        }
                    ]
                ], 
                [
                    14282, 
                    [
                        {
                            "pitch": 88, 
                            "t0": 14282, 
                            "v": 75, 
                            "dur": 43, 
                            "type": "note", 
                            "channel": 1
                        }
                    ]
                ], 
                [
                    14395, 
                    [
                        {
                            "pitch": 50, 
                            "t0": 14395, 
                            "v": 60, 
                            "dur": 202, 
                            "type": "note", 
                            "channel": 1
                        }
                    ]
                ], 
                [
                    14398, 
                    [
                        {
                            "pitch": 38, 
                            "t0": 14398, 
                            "v": 65, 
                            "dur": 149, 
                            "type": "note", 
                            "channel": 1
                        }
                    ]
                ], 
                [
                    14400, 
                    [
                        {
                            "pitch": 86, 
                            "t0": 14400, 
                            "v": 69, 
                            "dur": 166, 
                            "type": "note", 
                            "channel": 1
                        }
                    ]
                ], 
                [
                    14411, 
                    [
                        {
                            "pitch": 78, 
                            "t0": 14411, 
                            "v": 45, 
                            "dur": 10, 
                            "type": "note", 
                            "channel": 1
                        }
                    ]
                ], 
                [
                    14517, 
                    [
                        {
                            "pitch": 78, 
                            "t0": 14517, 
                            "v": 61, 
                            "dur": 156, 
                            "type": "note", 
                            "channel": 1
                        }
                    ]
                ], 
                [
                    14595, 
                    [
                        {
                            "pitch": 86, 
                            "t0": 14595, 
                            "v": 70, 
                            "dur": 108, 
                            "type": "note", 
                            "channel": 1
                        }
                    ]
                ], 
                [
                    14637, 
                    [
                        {
                            "pitch": 45, 
                            "t0": 14637, 
                            "v": 51, 
                            "dur": 33, 
                            "type": "note", 
                            "channel": 1
                        }
                    ]
                ], 
                [
                    14710, 
                    [
                        {
                            "pitch": 81, 
                            "t0": 14710, 
                            "v": 65, 
                            "dur": 24, 
                            "type": "note", 
                            "channel": 1
                        }
                    ]
                ], 
                [
                    14719, 
                    [
                        {
                            "pitch": 83, 
                            "t0": 14719, 
                            "v": 70, 
                            "dur": 37, 
                            "type": "note", 
                            "channel": 1
                        }
                    ]
                ], 
                [
                    14757, 
                    [
                        {
                            "pitch": 81, 
                            "t0": 14757, 
                            "v": 64, 
                            "dur": 20, 
                            "type": "note", 
                            "channel": 1
                        }
                    ]
                ], 
                [
                    14877, 
                    [
                        {
                            "pitch": 43, 
                            "t0": 14877, 
                            "v": 61, 
                            "dur": 176, 
                            "type": "note", 
                            "channel": 1
                        }
                    ]
                ], 
                [
                    14994, 
                    [
                        {
                            "pitch": 74, 
                            "t0": 14994, 
                            "v": 70, 
                            "dur": 18, 
                            "type": "note", 
                            "channel": 1
                        }, 
                        {
                            "pitch": 79, 
                            "t0": 14994, 
                            "v": 80, 
                            "dur": 128, 
                            "type": "note", 
                            "channel": 1
                        }
                    ]
                ], 
                [
                    15000, 
                    [
                        {
                            "pitch": 76, 
                            "t0": 15000, 
                            "v": 85, 
                            "dur": 30, 
                            "type": "note", 
                            "channel": 1
                        }
                    ]
                ], 
                [
                    15075, 
                    [
                        {
                            "pitch": 74, 
                            "t0": 15075, 
                            "v": 78, 
                            "dur": 50, 
                            "type": "note", 
                            "channel": 1
                        }
                    ]
                ], 
                [
                    15114, 
                    [
                        {
                            "pitch": 38, 
                            "t0": 15114, 
                            "v": 68, 
                            "dur": 159, 
                            "type": "note", 
                            "channel": 1
                        }
                    ]
                ], 
                [
                    15192, 
                    [
                        {
                            "pitch": 69, 
                            "t0": 15192, 
                            "v": 85, 
                            "dur": 18, 
                            "type": "note", 
                            "channel": 1
                        }
                    ]
                ], 
                [
                    15195, 
                    [
                        {
                            "pitch": 74, 
                            "t0": 15195, 
                            "v": 66, 
                            "dur": 135, 
                            "type": "note", 
                            "channel": 1
                        }
                    ]
                ], 
                [
                    15200, 
                    [
                        {
                            "pitch": 71, 
                            "t0": 15200, 
                            "v": 78, 
                            "dur": 21, 
                            "type": "note", 
                            "channel": 1
                        }
                    ]
                ], 
                [
                    15232, 
                    [
                        {
                            "pitch": 69, 
                            "t0": 15232, 
                            "v": 91, 
                            "dur": 111, 
                            "type": "note", 
                            "channel": 1
                        }
                    ]
                ], 
                [
                    15316, 
                    [
                        {
                            "pitch": 38, 
                            "t0": 15316, 
                            "v": 73, 
                            "dur": 26, 
                            "type": "note", 
                            "channel": 1
                        }
                    ]
                ], 
                [
                    15358, 
                    [
                        {
                            "pitch": 67, 
                            "t0": 15358, 
                            "v": 127, 
                            "dur": 25, 
                            "type": "note", 
                            "channel": 1
                        }, 
                        {
                            "pitch": 74, 
                            "t0": 15358, 
                            "v": 108, 
                            "dur": 36, 
                            "type": "note", 
                            "channel": 1
                        }, 
                        {
                            "pitch": 43, 
                            "t0": 15358, 
                            "v": 80, 
                            "dur": 51, 
                            "type": "note", 
                            "channel": 1
                        }
                    ]
                ], 
                [
                    15359, 
                    [
                        {
                            "pitch": 71, 
                            "t0": 15359, 
                            "v": 117, 
                            "dur": 36, 
                            "type": "note", 
                            "channel": 1
                        }
                    ]
                ], 
                [
                    15360, 
                    [
                        {
                            "pitch": 31, 
                            "t0": 15360, 
                            "v": 102, 
                            "dur": 51, 
                            "type": "note", 
                            "channel": 1
                        }
                    ]
                ], 
                [
                    15842, 
                    [
                        {
                            "pitch": 71, 
                            "t0": 15842, 
                            "v": 85, 
                            "dur": 50, 
                            "type": "note", 
                            "channel": 1
                        }
                    ]
                ], 
                [
                    15845, 
                    [
                        {
                            "pitch": 31, 
                            "t0": 15845, 
                            "v": 80, 
                            "dur": 34, 
                            "type": "note", 
                            "channel": 1
                        }, 
                        {
                            "pitch": 43, 
                            "t0": 15845, 
                            "v": 66, 
                            "dur": 36, 
                            "type": "note", 
                            "channel": 1
                        }, 
                        {
                            "pitch": 67, 
                            "t0": 15845, 
                            "v": 74, 
                            "dur": 39, 
                            "type": "note", 
                            "channel": 1
                        }
                    ]
                ], 
                [
                    15962, 
                    [
                        {
                            "pitch": 69, 
                            "t0": 15962, 
                            "v": 88, 
                            "dur": 23, 
                            "type": "note", 
                            "channel": 1
                        }
                    ]
                ], 
                [
                    15963, 
                    [
                        {
                            "pitch": 72, 
                            "t0": 15963, 
                            "v": 81, 
                            "dur": 20, 
                            "type": "note", 
                            "channel": 1
                        }
                    ]
                ], 
                [
                    16078, 
                    [
                        {
                            "pitch": 73, 
                            "t0": 16078, 
                            "v": 84, 
                            "dur": 39, 
                            "type": "note", 
                            "channel": 1
                        }, 
                        {
                            "pitch": 70, 
                            "t0": 16078, 
                            "v": 93, 
                            "dur": 41, 
                            "type": "note", 
                            "channel": 1
                        }
                    ]
                ], 
                [
                    16201, 
                    [
                        {
                            "pitch": 71, 
                            "t0": 16201, 
                            "v": 95, 
                            "dur": 31, 
                            "type": "note", 
                            "channel": 1
                        }
                    ]
                ], 
                [
                    16202, 
                    [
                        {
                            "pitch": 74, 
                            "t0": 16202, 
                            "v": 77, 
                            "dur": 40, 
                            "type": "note", 
                            "channel": 1
                        }
                    ]
                ], 
                [
                    16274, 
                    [
                        {
                            "pitch": 76, 
                            "t0": 16274, 
                            "v": 80, 
                            "dur": 21, 
                            "type": "note", 
                            "channel": 1
                        }
                    ]
                ], 
                [
                    16292, 
                    [
                        {
                            "pitch": 72, 
                            "t0": 16292, 
                            "v": 90, 
                            "dur": 22, 
                            "type": "note", 
                            "channel": 1
                        }
                    ]
                ], 
                [
                    16319, 
                    [
                        {
                            "pitch": 76, 
                            "t0": 16319, 
                            "v": 74, 
                            "dur": 23, 
                            "type": "note", 
                            "channel": 1
                        }
                    ]
                ], 
                [
                    16342, 
                    [
                        {
                            "pitch": 72, 
                            "t0": 16342, 
                            "v": 90, 
                            "dur": 22, 
                            "type": "note", 
                            "channel": 1
                        }
                    ]
                ], 
                [
                    16366, 
                    [
                        {
                            "pitch": 76, 
                            "t0": 16366, 
                            "v": 74, 
                            "dur": 22, 
                            "type": "note", 
                            "channel": 1
                        }
                    ]
                ], 
                [
                    16388, 
                    [
                        {
                            "pitch": 72, 
                            "t0": 16388, 
                            "v": 91, 
                            "dur": 22, 
                            "type": "note", 
                            "channel": 1
                        }
                    ]
                ], 
                [
                    16412, 
                    [
                        {
                            "pitch": 76, 
                            "t0": 16412, 
                            "v": 68, 
                            "dur": 22, 
                            "type": "note", 
                            "channel": 1
                        }
                    ]
                ], 
                [
                    16432, 
                    [
                        {
                            "pitch": 72, 
                            "t0": 16432, 
                            "v": 81, 
                            "dur": 23, 
                            "type": "note", 
                            "channel": 1
                        }, 
                        {
                            "pitch": 40, 
                            "t0": 16432, 
                            "v": 60, 
                            "dur": 46, 
                            "type": "note", 
                            "channel": 1
                        }
                    ]
                ], 
                [
                    16457, 
                    [
                        {
                            "pitch": 76, 
                            "t0": 16457, 
                            "v": 68, 
                            "dur": 24, 
                            "type": "note", 
                            "channel": 1
                        }
                    ]
                ], 
                [
                    16479, 
                    [
                        {
                            "pitch": 72, 
                            "t0": 16479, 
                            "v": 91, 
                            "dur": 22, 
                            "type": "note", 
                            "channel": 1
                        }
                    ]
                ], 
                [
                    16502, 
                    [
                        {
                            "pitch": 76, 
                            "t0": 16502, 
                            "v": 68, 
                            "dur": 25, 
                            "type": "note", 
                            "channel": 1
                        }
                    ]
                ], 
                [
                    16524, 
                    [
                        {
                            "pitch": 72, 
                            "t0": 16524, 
                            "v": 84, 
                            "dur": 23, 
                            "type": "note", 
                            "channel": 1
                        }
                    ]
                ], 
                [
                    16549, 
                    [
                        {
                            "pitch": 76, 
                            "t0": 16549, 
                            "v": 65, 
                            "dur": 29, 
                            "type": "note", 
                            "channel": 1
                        }
                    ]
                ], 
                [
                    16558, 
                    [
                        {
                            "pitch": 43, 
                            "t0": 16558, 
                            "v": 64, 
                            "dur": 69, 
                            "type": "note", 
                            "channel": 1
                        }
                    ]
                ], 
                [
                    16570, 
                    [
                        {
                            "pitch": 72, 
                            "t0": 16570, 
                            "v": 78, 
                            "dur": 24, 
                            "type": "note", 
                            "channel": 1
                        }
                    ]
                ], 
                [
                    16596, 
                    [
                        {
                            "pitch": 76, 
                            "t0": 16596, 
                            "v": 55, 
                            "dur": 23, 
                            "type": "note", 
                            "channel": 1
                        }
                    ]
                ], 
                [
                    16614, 
                    [
                        {
                            "pitch": 72, 
                            "t0": 16614, 
                            "v": 66, 
                            "dur": 26, 
                            "type": "note", 
                            "channel": 1
                        }
                    ]
                ], 
                [
                    16643, 
                    [
                        {
                            "pitch": 76, 
                            "t0": 16643, 
                            "v": 64, 
                            "dur": 29, 
                            "type": "note", 
                            "channel": 1
                        }
                    ]
                ], 
                [
                    16667, 
                    [
                        {
                            "pitch": 72, 
                            "t0": 16667, 
                            "v": 78, 
                            "dur": 24, 
                            "type": "note", 
                            "channel": 1
                        }
                    ]
                ], 
                [
                    16675, 
                    [
                        {
                            "pitch": 40, 
                            "t0": 16675, 
                            "v": 56, 
                            "dur": 30, 
                            "type": "note", 
                            "channel": 1
                        }
                    ]
                ], 
                [
                    16694, 
                    [
                        {
                            "pitch": 76, 
                            "t0": 16694, 
                            "v": 58, 
                            "dur": 26, 
                            "type": "note", 
                            "channel": 1
                        }
                    ]
                ], 
                [
                    16720, 
                    [
                        {
                            "pitch": 72, 
                            "t0": 16720, 
                            "v": 58, 
                            "dur": 16, 
                            "type": "note", 
                            "channel": 1
                        }
                    ]
                ], 
                [
                    16793, 
                    [
                        {
                            "pitch": 31, 
                            "t0": 16793, 
                            "v": 65, 
                            "dur": 107, 
                            "type": "note", 
                            "channel": 1
                        }
                    ]
                ], 
                [
                    16880, 
                    [
                        {
                            "pitch": 71, 
                            "t0": 16880, 
                            "v": 71, 
                            "dur": 21, 
                            "type": "note", 
                            "channel": 1
                        }
                    ]
                ], 
                [
                    16914, 
                    [
                        {
                            "pitch": 79, 
                            "t0": 16914, 
                            "v": 86, 
                            "dur": 78, 
                            "type": "note", 
                            "channel": 1
                        }
                    ]
                ], 
                [
                    16915, 
                    [
                        {
                            "pitch": 74, 
                            "t0": 16915, 
                            "v": 106, 
                            "dur": 29, 
                            "type": "note", 
                            "channel": 1
                        }
                    ]
                ], 
                [
                    16917, 
                    [
                        {
                            "pitch": 35, 
                            "t0": 16917, 
                            "v": 65, 
                            "dur": 48, 
                            "type": "note", 
                            "channel": 1
                        }
                    ]
                ], 
                [
                    16956, 
                    [
                        {
                            "pitch": 76, 
                            "t0": 16956, 
                            "v": 91, 
                            "dur": 31, 
                            "type": "note", 
                            "channel": 1
                        }
                    ]
                ], 
                [
                    16990, 
                    [
                        {
                            "pitch": 74, 
                            "t0": 16990, 
                            "v": 80, 
                            "dur": 11, 
                            "type": "note", 
                            "channel": 1
                        }
                    ]
                ], 
                [
                    17029, 
                    [
                        {
                            "pitch": 69, 
                            "t0": 17029, 
                            "v": 114, 
                            "dur": 26, 
                            "type": "note", 
                            "channel": 1
                        }, 
                        {
                            "pitch": 74, 
                            "t0": 17029, 
                            "v": 97, 
                            "dur": 105, 
                            "type": "note", 
                            "channel": 1
                        }
                    ]
                ], 
                [
                    17036, 
                    [
                        {
                            "pitch": 71, 
                            "t0": 17036, 
                            "v": 74, 
                            "dur": 70, 
                            "type": "note", 
                            "channel": 1
                        }
                    ]
                ], 
                [
                    17037, 
                    [
                        {
                            "pitch": 38, 
                            "t0": 17037, 
                            "v": 45, 
                            "dur": 110, 
                            "type": "note", 
                            "channel": 1
                        }
                    ]
                ], 
                [
                    17116, 
                    [
                        {
                            "pitch": 69, 
                            "t0": 17116, 
                            "v": 98, 
                            "dur": 22, 
                            "type": "note", 
                            "channel": 1
                        }
                    ]
                ], 
                [
                    17155, 
                    [
                        {
                            "pitch": 74, 
                            "t0": 17155, 
                            "v": 68, 
                            "dur": 71, 
                            "type": "note", 
                            "channel": 1
                        }
                    ]
                ], 
                [
                    17159, 
                    [
                        {
                            "pitch": 35, 
                            "t0": 17159, 
                            "v": 73, 
                            "dur": 35, 
                            "type": "note", 
                            "channel": 1
                        }, 
                        {
                            "pitch": 67, 
                            "t0": 17159, 
                            "v": 108, 
                            "dur": 70, 
                            "type": "note", 
                            "channel": 1
                        }
                    ]
                ], 
                [
                    17244, 
                    [
                        {
                            "pitch": 74, 
                            "t0": 17244, 
                            "v": 65, 
                            "dur": 20, 
                            "type": "note", 
                            "channel": 1
                        }
                    ]
                ], 
                [
                    17245, 
                    [
                        {
                            "pitch": 69, 
                            "t0": 17245, 
                            "v": 70, 
                            "dur": 20, 
                            "type": "note", 
                            "channel": 1
                        }
                    ]
                ], 
                [
                    17280, 
                    [
                        {
                            "pitch": 74, 
                            "t0": 17280, 
                            "v": 68, 
                            "dur": 28, 
                            "type": "note", 
                            "channel": 1
                        }
                    ]
                ], 
                [
                    17282, 
                    [
                        {
                            "pitch": 71, 
                            "t0": 17282, 
                            "v": 86, 
                            "dur": 26, 
                            "type": "note", 
                            "channel": 1
                        }
                    ]
                ], 
                [
                    17284, 
                    [
                        {
                            "pitch": 31, 
                            "t0": 17284, 
                            "v": 69, 
                            "dur": 65, 
                            "type": "note", 
                            "channel": 1
                        }
                    ]
                ], 
                [
                    17360, 
                    [
                        {
                            "pitch": 74, 
                            "t0": 17360, 
                            "v": 102, 
                            "dur": 99, 
                            "type": "note", 
                            "channel": 1
                        }
                    ]
                ], 
                [
                    17362, 
                    [
                        {
                            "pitch": 71, 
                            "t0": 17362, 
                            "v": 88, 
                            "dur": 93, 
                            "type": "note", 
                            "channel": 1
                        }
                    ]
                ], 
                [
                    17397, 
                    [
                        {
                            "pitch": 38, 
                            "t0": 17397, 
                            "v": 58, 
                            "dur": 106, 
                            "type": "note", 
                            "channel": 1
                        }
                    ]
                ], 
                [
                    17473, 
                    [
                        {
                            "pitch": 70, 
                            "t0": 17473, 
                            "v": 81, 
                            "dur": 18, 
                            "type": "note", 
                            "channel": 1
                        }
                    ]
                ], 
                [
                    17479, 
                    [
                        {
                            "pitch": 71, 
                            "t0": 17479, 
                            "v": 98, 
                            "dur": 91, 
                            "type": "note", 
                            "channel": 1
                        }, 
                        {
                            "pitch": 74, 
                            "t0": 17479, 
                            "v": 88, 
                            "dur": 113, 
                            "type": "note", 
                            "channel": 1
                        }
                    ]
                ], 
                [
                    17520, 
                    [
                        {
                            "pitch": 40, 
                            "t0": 17520, 
                            "v": 60, 
                            "dur": 97, 
                            "type": "note", 
                            "channel": 1
                        }
                    ]
                ], 
                [
                    17592, 
                    [
                        {
                            "pitch": 70, 
                            "t0": 17592, 
                            "v": 85, 
                            "dur": 27, 
                            "type": "note", 
                            "channel": 1
                        }
                    ]
                ], 
                [
                    17594, 
                    [
                        {
                            "pitch": 73, 
                            "t0": 17594, 
                            "v": 67, 
                            "dur": 20, 
                            "type": "note", 
                            "channel": 1
                        }
                    ]
                ], 
                [
                    17632, 
                    [
                        {
                            "pitch": 72, 
                            "t0": 17632, 
                            "v": 87, 
                            "dur": 44, 
                            "type": "note", 
                            "channel": 1
                        }
                    ]
                ], 
                [
                    17633, 
                    [
                        {
                            "pitch": 42, 
                            "t0": 17633, 
                            "v": 62, 
                            "dur": 29, 
                            "type": "note", 
                            "channel": 1
                        }, 
                        {
                            "pitch": 69, 
                            "t0": 17633, 
                            "v": 95, 
                            "dur": 45, 
                            "type": "note", 
                            "channel": 1
                        }
                    ]
                ], 
                [
                    17700, 
                    [
                        {
                            "pitch": 38, 
                            "t0": 17700, 
                            "v": 56, 
                            "dur": 46, 
                            "type": "note", 
                            "channel": 1
                        }
                    ]
                ], 
                [
                    17706, 
                    [
                        {
                            "pitch": 71, 
                            "t0": 17706, 
                            "v": 85, 
                            "dur": 24, 
                            "type": "note", 
                            "channel": 1
                        }
                    ]
                ], 
                [
                    17728, 
                    [
                        {
                            "pitch": 67, 
                            "t0": 17728, 
                            "v": 95, 
                            "dur": 24, 
                            "type": "note", 
                            "channel": 1
                        }
                    ]
                ], 
                [
                    17752, 
                    [
                        {
                            "pitch": 71, 
                            "t0": 17752, 
                            "v": 70, 
                            "dur": 27, 
                            "type": "note", 
                            "channel": 1
                        }
                    ]
                ], 
                [
                    17753, 
                    [
                        {
                            "pitch": 31, 
                            "t0": 17753, 
                            "v": 50, 
                            "dur": 96, 
                            "type": "note", 
                            "channel": 1
                        }
                    ]
                ], 
                [
                    17774, 
                    [
                        {
                            "pitch": 67, 
                            "t0": 17774, 
                            "v": 84, 
                            "dur": 22, 
                            "type": "note", 
                            "channel": 1
                        }
                    ]
                ], 
                [
                    17803, 
                    [
                        {
                            "pitch": 71, 
                            "t0": 17803, 
                            "v": 68, 
                            "dur": 19, 
                            "type": "note", 
                            "channel": 1
                        }
                    ]
                ], 
                [
                    17823, 
                    [
                        {
                            "pitch": 67, 
                            "t0": 17823, 
                            "v": 80, 
                            "dur": 22, 
                            "type": "note", 
                            "channel": 1
                        }
                    ]
                ], 
                [
                    17848, 
                    [
                        {
                            "pitch": 71, 
                            "t0": 17848, 
                            "v": 66, 
                            "dur": 19, 
                            "type": "note", 
                            "channel": 1
                        }
                    ]
                ], 
                [
                    17868, 
                    [
                        {
                            "pitch": 67, 
                            "t0": 17868, 
                            "v": 73, 
                            "dur": 23, 
                            "type": "note", 
                            "channel": 1
                        }
                    ]
                ], 
                [
                    17869, 
                    [
                        {
                            "pitch": 35, 
                            "t0": 17869, 
                            "v": 68, 
                            "dur": 99, 
                            "type": "note", 
                            "channel": 1
                        }
                    ]
                ], 
                [
                    17891, 
                    [
                        {
                            "pitch": 71, 
                            "t0": 17891, 
                            "v": 72, 
                            "dur": 26, 
                            "type": "note", 
                            "channel": 1
                        }
                    ]
                ], 
                [
                    17916, 
                    [
                        {
                            "pitch": 67, 
                            "t0": 17916, 
                            "v": 88, 
                            "dur": 20, 
                            "type": "note", 
                            "channel": 1
                        }
                    ]
                ], 
                [
                    17941, 
                    [
                        {
                            "pitch": 71, 
                            "t0": 17941, 
                            "v": 62, 
                            "dur": 22, 
                            "type": "note", 
                            "channel": 1
                        }
                    ]
                ], 
                [
                    17959, 
                    [
                        {
                            "pitch": 67, 
                            "t0": 17959, 
                            "v": 80, 
                            "dur": 24, 
                            "type": "note", 
                            "channel": 1
                        }
                    ]
                ], 
                [
                    17987, 
                    [
                        {
                            "pitch": 71, 
                            "t0": 17987, 
                            "v": 65, 
                            "dur": 23, 
                            "type": "note", 
                            "channel": 1
                        }
                    ]
                ], 
                [
                    17991, 
                    [
                        {
                            "pitch": 38, 
                            "t0": 17991, 
                            "v": 68, 
                            "dur": 76, 
                            "type": "note", 
                            "channel": 1
                        }
                    ]
                ], 
                [
                    18006, 
                    [
                        {
                            "pitch": 67, 
                            "t0": 18006, 
                            "v": 80, 
                            "dur": 27, 
                            "type": "note", 
                            "channel": 1
                        }
                    ]
                ], 
                [
                    18033, 
                    [
                        {
                            "pitch": 71, 
                            "t0": 18033, 
                            "v": 67, 
                            "dur": 25, 
                            "type": "note", 
                            "channel": 1
                        }
                    ]
                ], 
                [
                    18055, 
                    [
                        {
                            "pitch": 67, 
                            "t0": 18055, 
                            "v": 80, 
                            "dur": 24, 
                            "type": "note", 
                            "channel": 1
                        }
                    ]
                ], 
                [
                    18082, 
                    [
                        {
                            "pitch": 71, 
                            "t0": 18082, 
                            "v": 68, 
                            "dur": 27, 
                            "type": "note", 
                            "channel": 1
                        }
                    ]
                ], 
                [
                    18104, 
                    [
                        {
                            "pitch": 67, 
                            "t0": 18104, 
                            "v": 90, 
                            "dur": 27, 
                            "type": "note", 
                            "channel": 1
                        }
                    ]
                ], 
                [
                    18116, 
                    [
                        {
                            "pitch": 35, 
                            "t0": 18116, 
                            "v": 65, 
                            "dur": 17, 
                            "type": "note", 
                            "channel": 1
                        }
                    ]
                ], 
                [
                    18130, 
                    [
                        {
                            "pitch": 71, 
                            "t0": 18130, 
                            "v": 65, 
                            "dur": 25, 
                            "type": "note", 
                            "channel": 1
                        }
                    ]
                ], 
                [
                    18152, 
                    [
                        {
                            "pitch": 67, 
                            "t0": 18152, 
                            "v": 77, 
                            "dur": 27, 
                            "type": "note", 
                            "channel": 1
                        }
                    ]
                ], 
                [
                    18179, 
                    [
                        {
                            "pitch": 71, 
                            "t0": 18179, 
                            "v": 67, 
                            "dur": 30, 
                            "type": "note", 
                            "channel": 1
                        }
                    ]
                ], 
                [
                    18201, 
                    [
                        {
                            "pitch": 67, 
                            "t0": 18201, 
                            "v": 65, 
                            "dur": 25, 
                            "type": "note", 
                            "channel": 1
                        }
                    ]
                ], 
                [
                    18226, 
                    [
                        {
                            "pitch": 71, 
                            "t0": 18226, 
                            "v": 60, 
                            "dur": 28, 
                            "type": "note", 
                            "channel": 1
                        }
                    ]
                ], 
                [
                    18244, 
                    [
                        {
                            "pitch": 31, 
                            "t0": 18244, 
                            "v": 50, 
                            "dur": 25, 
                            "type": "note", 
                            "channel": 1
                        }
                    ]
                ], 
                [
                    18246, 
                    [
                        {
                            "pitch": 67, 
                            "t0": 18246, 
                            "v": 69, 
                            "dur": 30, 
                            "type": "note", 
                            "channel": 1
                        }
                    ]
                ], 
                [
                    18276, 
                    [
                        {
                            "pitch": 71, 
                            "t0": 18276, 
                            "v": 65, 
                            "dur": 26, 
                            "type": "note", 
                            "channel": 1
                        }
                    ]
                ], 
                [
                    18297, 
                    [
                        {
                            "pitch": 67, 
                            "t0": 18297, 
                            "v": 77, 
                            "dur": 26, 
                            "type": "note", 
                            "channel": 1
                        }
                    ]
                ], 
                [
                    18325, 
                    [
                        {
                            "pitch": 71, 
                            "t0": 18325, 
                            "v": 59, 
                            "dur": 23, 
                            "type": "note", 
                            "channel": 1
                        }
                    ]
                ], 
                [
                    18348, 
                    [
                        {
                            "pitch": 67, 
                            "t0": 18348, 
                            "v": 75, 
                            "dur": 26, 
                            "type": "note", 
                            "channel": 1
                        }
                    ]
                ], 
                [
                    18355, 
                    [
                        {
                            "pitch": 35, 
                            "t0": 18355, 
                            "v": 58, 
                            "dur": 24, 
                            "type": "note", 
                            "channel": 1
                        }
                    ]
                ], 
                [
                    18374, 
                    [
                        {
                            "pitch": 71, 
                            "t0": 18374, 
                            "v": 66, 
                            "dur": 26, 
                            "type": "note", 
                            "channel": 1
                        }
                    ]
                ], 
                [
                    18397, 
                    [
                        {
                            "pitch": 67, 
                            "t0": 18397, 
                            "v": 73, 
                            "dur": 23, 
                            "type": "note", 
                            "channel": 1
                        }
                    ]
                ], 
                [
                    18426, 
                    [
                        {
                            "pitch": 71, 
                            "t0": 18426, 
                            "v": 61, 
                            "dur": 22, 
                            "type": "note", 
                            "channel": 1
                        }
                    ]
                ], 
                [
                    18447, 
                    [
                        {
                            "pitch": 67, 
                            "t0": 18447, 
                            "v": 77, 
                            "dur": 27, 
                            "type": "note", 
                            "channel": 1
                        }
                    ]
                ], 
                [
                    18475, 
                    [
                        {
                            "pitch": 71, 
                            "t0": 18475, 
                            "v": 68, 
                            "dur": 23, 
                            "type": "note", 
                            "channel": 1
                        }
                    ]
                ], 
                [
                    18480, 
                    [
                        {
                            "pitch": 43, 
                            "t0": 18480, 
                            "v": 52, 
                            "dur": 28, 
                            "type": "note", 
                            "channel": 1
                        }
                    ]
                ], 
                [
                    18499, 
                    [
                        {
                            "pitch": 67, 
                            "t0": 18499, 
                            "v": 70, 
                            "dur": 23, 
                            "type": "note", 
                            "channel": 1
                        }
                    ]
                ], 
                [
                    18525, 
                    [
                        {
                            "pitch": 71, 
                            "t0": 18525, 
                            "v": 65, 
                            "dur": 23, 
                            "type": "note", 
                            "channel": 1
                        }
                    ]
                ], 
                [
                    18551, 
                    [
                        {
                            "pitch": 67, 
                            "t0": 18551, 
                            "v": 70, 
                            "dur": 21, 
                            "type": "note", 
                            "channel": 1
                        }
                    ]
                ], 
                [
                    18604, 
                    [
                        {
                            "pitch": 35, 
                            "t0": 18604, 
                            "v": 56, 
                            "dur": 25, 
                            "type": "note", 
                            "channel": 1
                        }
                    ]
                ], 
                [
                    18723, 
                    [
                        {
                            "pitch": 38, 
                            "t0": 18723, 
                            "v": 56, 
                            "dur": 53, 
                            "type": "note", 
                            "channel": 1
                        }
                    ]
                ], 
                [
                    18806, 
                    [
                        {
                            "pitch": 68, 
                            "t0": 18806, 
                            "v": 99, 
                            "dur": 42, 
                            "type": "note", 
                            "channel": 1
                        }
                    ]
                ], 
                [
                    18847, 
                    [
                        {
                            "pitch": 69, 
                            "t0": 18847, 
                            "v": 125, 
                            "dur": 164, 
                            "type": "note", 
                            "channel": 1
                        }
                    ]
                ], 
                [
                    18924, 
                    [
                        {
                            "pitch": 78, 
                            "t0": 18924, 
                            "v": 95, 
                            "dur": 93, 
                            "type": "note", 
                            "channel": 1
                        }
                    ]
                ], 
                [
                    18971, 
                    [
                        {
                            "pitch": 45, 
                            "t0": 18971, 
                            "v": 66, 
                            "dur": 20, 
                            "type": "note", 
                            "channel": 1
                        }
                    ]
                ], 
                [
                    19048, 
                    [
                        {
                            "pitch": 77, 
                            "t0": 19048, 
                            "v": 85, 
                            "dur": 20, 
                            "type": "note", 
                            "channel": 1
                        }
                    ]
                ], 
                [
                    19049, 
                    [
                        {
                            "pitch": 68, 
                            "t0": 19049, 
                            "v": 99, 
                            "dur": 17, 
                            "type": "note", 
                            "channel": 1
                        }
                    ]
                ], 
                [
                    19090, 
                    [
                        {
                            "pitch": 67, 
                            "t0": 19090, 
                            "v": 120, 
                            "dur": 22, 
                            "type": "note", 
                            "channel": 1
                        }, 
                        {
                            "pitch": 76, 
                            "t0": 19090, 
                            "v": 91, 
                            "dur": 32, 
                            "type": "note", 
                            "channel": 1
                        }
                    ]
                ], 
                [
                    19162, 
                    [
                        {
                            "pitch": 66, 
                            "t0": 19162, 
                            "v": 116, 
                            "dur": 76, 
                            "type": "note", 
                            "channel": 1
                        }, 
                        {
                            "pitch": 74, 
                            "t0": 19162, 
                            "v": 100, 
                            "dur": 106, 
                            "type": "note", 
                            "channel": 1
                        }
                    ]
                ], 
                [
                    19203, 
                    [
                        {
                            "pitch": 50, 
                            "t0": 19203, 
                            "v": 49, 
                            "dur": 38, 
                            "type": "note", 
                            "channel": 1
                        }
                    ]
                ], 
                [
                    19207, 
                    [
                        {
                            "pitch": 38, 
                            "t0": 19207, 
                            "v": 60, 
                            "dur": 32, 
                            "type": "note", 
                            "channel": 1
                        }
                    ]
                ], 
                [
                    19278, 
                    [
                        {
                            "pitch": 66, 
                            "t0": 19278, 
                            "v": 89, 
                            "dur": 86, 
                            "type": "note", 
                            "channel": 1
                        }
                    ]
                ], 
                [
                    19283, 
                    [
                        {
                            "pitch": 74, 
                            "t0": 19283, 
                            "v": 97, 
                            "dur": 142, 
                            "type": "note", 
                            "channel": 1
                        }
                    ]
                ], 
                [
                    19324, 
                    [
                        {
                            "pitch": 38, 
                            "t0": 19324, 
                            "v": 58, 
                            "dur": 37, 
                            "type": "note", 
                            "channel": 1
                        }
                    ]
                ], 
                [
                    19331, 
                    [
                        {
                            "pitch": 50, 
                            "t0": 19331, 
                            "v": 38, 
                            "dur": 15, 
                            "type": "note", 
                            "channel": 1
                        }
                    ]
                ], 
                [
                    19409, 
                    [
                        {
                            "pitch": 66, 
                            "t0": 19409, 
                            "v": 78, 
                            "dur": 24, 
                            "type": "note", 
                            "channel": 1
                        }
                    ]
                ], 
                [
                    19445, 
                    [
                        {
                            "pitch": 66, 
                            "t0": 19445, 
                            "v": 84, 
                            "dur": 44, 
                            "type": "note", 
                            "channel": 1
                        }, 
                        {
                            "pitch": 74, 
                            "t0": 19445, 
                            "v": 90, 
                            "dur": 80, 
                            "type": "note", 
                            "channel": 1
                        }
                    ]
                ], 
                [
                    19448, 
                    [
                        {
                            "pitch": 40, 
                            "t0": 19448, 
                            "v": 42, 
                            "dur": 36, 
                            "type": "note", 
                            "channel": 1
                        }
                    ]
                ], 
                [
                    19452, 
                    [
                        {
                            "pitch": 73, 
                            "t0": 19452, 
                            "v": 58, 
                            "dur": 5, 
                            "type": "note", 
                            "channel": 1
                        }
                    ]
                ], 
                [
                    19520, 
                    [
                        {
                            "pitch": 73, 
                            "t0": 19520, 
                            "v": 82, 
                            "dur": 30, 
                            "type": "note", 
                            "channel": 1
                        }
                    ]
                ], 
                [
                    19525, 
                    [
                        {
                            "pitch": 65, 
                            "t0": 19525, 
                            "v": 84, 
                            "dur": 29, 
                            "type": "note", 
                            "channel": 1
                        }
                    ]
                ], 
                [
                    19562, 
                    [
                        {
                            "pitch": 72, 
                            "t0": 19562, 
                            "v": 68, 
                            "dur": 51, 
                            "type": "note", 
                            "channel": 1
                        }
                    ]
                ], 
                [
                    19572, 
                    [
                        {
                            "pitch": 64, 
                            "t0": 19572, 
                            "v": 76, 
                            "dur": 28, 
                            "type": "note", 
                            "channel": 1
                        }
                    ]
                ], 
                [
                    19689, 
                    [
                        {
                            "pitch": 43, 
                            "t0": 19689, 
                            "v": 73, 
                            "dur": 174, 
                            "type": "note", 
                            "channel": 1
                        }
                    ]
                ], 
                [
                    19762, 
                    [
                        {
                            "pitch": 61, 
                            "t0": 19762, 
                            "v": 107, 
                            "dur": 40, 
                            "type": "note", 
                            "channel": 1
                        }
                    ]
                ], 
                [
                    19804, 
                    [
                        {
                            "pitch": 60, 
                            "t0": 19804, 
                            "v": 65, 
                            "dur": 25, 
                            "type": "note", 
                            "channel": 1
                        }
                    ]
                ], 
                [
                    19805, 
                    [
                        {
                            "pitch": 62, 
                            "t0": 19805, 
                            "v": 85, 
                            "dur": 149, 
                            "type": "note", 
                            "channel": 1
                        }
                    ]
                ], 
                [
                    19881, 
                    [
                        {
                            "pitch": 71, 
                            "t0": 19881, 
                            "v": 88, 
                            "dur": 148, 
                            "type": "note", 
                            "channel": 1
                        }
                    ]
                ], 
                [
                    19929, 
                    [
                        {
                            "pitch": 43, 
                            "t0": 19929, 
                            "v": 49, 
                            "dur": 33, 
                            "type": "note", 
                            "channel": 1
                        }
                    ]
                ], 
                [
                    19995, 
                    [
                        {
                            "pitch": 62, 
                            "t0": 19995, 
                            "v": 64, 
                            "dur": 80, 
                            "type": "note", 
                            "channel": 1
                        }
                    ]
                ], 
                [
                    20042, 
                    [
                        {
                            "pitch": 71, 
                            "t0": 20042, 
                            "v": 68, 
                            "dur": 62, 
                            "type": "note", 
                            "channel": 1
                        }
                    ]
                ], 
                [
                    20046, 
                    [
                        {
                            "pitch": 43, 
                            "t0": 20046, 
                            "v": 59, 
                            "dur": 37, 
                            "type": "note", 
                            "channel": 1
                        }
                    ]
                ], 
                [
                    20120, 
                    [
                        {
                            "pitch": 63, 
                            "t0": 20120, 
                            "v": 99, 
                            "dur": 35, 
                            "type": "note", 
                            "channel": 1
                        }
                    ]
                ], 
                [
                    20156, 
                    [
                        {
                            "pitch": 64, 
                            "t0": 20156, 
                            "v": 100, 
                            "dur": 175, 
                            "type": "note", 
                            "channel": 1
                        }
                    ]
                ], 
                [
                    20166, 
                    [
                        {
                            "pitch": 48, 
                            "t0": 20166, 
                            "v": 62, 
                            "dur": 30, 
                            "type": "note", 
                            "channel": 1
                        }
                    ]
                ], 
                [
                    20241, 
                    [
                        {
                            "pitch": 72, 
                            "t0": 20241, 
                            "v": 110, 
                            "dur": 314, 
                            "type": "note", 
                            "channel": 1
                        }
                    ]
                ], 
                [
                    20292, 
                    [
                        {
                            "pitch": 48, 
                            "t0": 20292, 
                            "v": 60, 
                            "dur": 27, 
                            "type": "note", 
                            "channel": 1
                        }
                    ]
                ], 
                [
                    20368, 
                    [
                        {
                            "pitch": 64, 
                            "t0": 20368, 
                            "v": 62, 
                            "dur": 88, 
                            "type": "note", 
                            "channel": 1
                        }
                    ]
                ], 
                [
                    20412, 
                    [
                        {
                            "pitch": 48, 
                            "t0": 20412, 
                            "v": 61, 
                            "dur": 28, 
                            "type": "note", 
                            "channel": 1
                        }
                    ]
                ], 
                [
                    20496, 
                    [
                        {
                            "pitch": 64, 
                            "t0": 20496, 
                            "v": 72, 
                            "dur": 26, 
                            "type": "note", 
                            "channel": 1
                        }
                    ]
                ], 
                [
                    20529, 
                    [
                        {
                            "pitch": 48, 
                            "t0": 20529, 
                            "v": 62, 
                            "dur": 34, 
                            "type": "note", 
                            "channel": 1
                        }
                    ]
                ], 
                [
                    20605, 
                    [
                        {
                            "pitch": 62, 
                            "t0": 20605, 
                            "v": 68, 
                            "dur": 12, 
                            "type": "note", 
                            "channel": 1
                        }
                    ]
                ], 
                [
                    20607, 
                    [
                        {
                            "pitch": 64, 
                            "t0": 20607, 
                            "v": 65, 
                            "dur": 10, 
                            "type": "note", 
                            "channel": 1
                        }
                    ]
                ], 
                [
                    20634, 
                    [
                        {
                            "pitch": 71, 
                            "t0": 20634, 
                            "v": 100, 
                            "dur": 46, 
                            "type": "note", 
                            "channel": 1
                        }
                    ]
                ], 
                [
                    20636, 
                    [
                        {
                            "pitch": 67, 
                            "t0": 20636, 
                            "v": 114, 
                            "dur": 35, 
                            "type": "note", 
                            "channel": 1
                        }
                    ]
                ], 
                [
                    20639, 
                    [
                        {
                            "pitch": 43, 
                            "t0": 20639, 
                            "v": 72, 
                            "dur": 34, 
                            "type": "note", 
                            "channel": 1
                        }
                    ]
                ], 
                [
                    20757, 
                    [
                        {
                            "pitch": 69, 
                            "t0": 20757, 
                            "v": 114, 
                            "dur": 46, 
                            "type": "note", 
                            "channel": 1
                        }
                    ]
                ], 
                [
                    20758, 
                    [
                        {
                            "pitch": 72, 
                            "t0": 20758, 
                            "v": 106, 
                            "dur": 46, 
                            "type": "note", 
                            "channel": 1
                        }
                    ]
                ], 
                [
                    20880, 
                    [
                        {
                            "pitch": 70, 
                            "t0": 20880, 
                            "v": 97, 
                            "dur": 55, 
                            "type": "note", 
                            "channel": 1
                        }
                    ]
                ], 
                [
                    20884, 
                    [
                        {
                            "pitch": 73, 
                            "t0": 20884, 
                            "v": 85, 
                            "dur": 39, 
                            "type": "note", 
                            "channel": 1
                        }
                    ]
                ], 
                [
                    20886, 
                    [
                        {
                            "pitch": 74, 
                            "t0": 20886, 
                            "v": 100, 
                            "dur": 33, 
                            "type": "note", 
                            "channel": 1
                        }
                    ]
                ], 
                [
                    21000, 
                    [
                        {
                            "pitch": 71, 
                            "t0": 21000, 
                            "v": 108, 
                            "dur": 54, 
                            "type": "note", 
                            "channel": 1
                        }, 
                        {
                            "pitch": 74, 
                            "t0": 21000, 
                            "v": 108, 
                            "dur": 57, 
                            "type": "note", 
                            "channel": 1
                        }
                    ]
                ], 
                [
                    21077, 
                    [
                        {
                            "pitch": 76, 
                            "t0": 21077, 
                            "v": 108, 
                            "dur": 33, 
                            "type": "note", 
                            "channel": 1
                        }
                    ]
                ], 
                [
                    21079, 
                    [
                        {
                            "pitch": 72, 
                            "t0": 21079, 
                            "v": 90, 
                            "dur": 10, 
                            "type": "note", 
                            "channel": 1
                        }
                    ]
                ], 
                [
                    21108, 
                    [
                        {
                            "pitch": 72, 
                            "t0": 21108, 
                            "v": 90, 
                            "dur": 28, 
                            "type": "note", 
                            "channel": 1
                        }
                    ]
                ], 
                [
                    21130, 
                    [
                        {
                            "pitch": 76, 
                            "t0": 21130, 
                            "v": 75, 
                            "dur": 30, 
                            "type": "note", 
                            "channel": 1
                        }
                    ]
                ], 
                [
                    21161, 
                    [
                        {
                            "pitch": 72, 
                            "t0": 21161, 
                            "v": 83, 
                            "dur": 19, 
                            "type": "note", 
                            "channel": 1
                        }
                    ]
                ], 
                [
                    21183, 
                    [
                        {
                            "pitch": 76, 
                            "t0": 21183, 
                            "v": 56, 
                            "dur": 20, 
                            "type": "note", 
                            "channel": 1
                        }
                    ]
                ], 
                [
                    21200, 
                    [
                        {
                            "pitch": 72, 
                            "t0": 21200, 
                            "v": 72, 
                            "dur": 26, 
                            "type": "note", 
                            "channel": 1
                        }
                    ]
                ], 
                [
                    21226, 
                    [
                        {
                            "pitch": 76, 
                            "t0": 21226, 
                            "v": 65, 
                            "dur": 24, 
                            "type": "note", 
                            "channel": 1
                        }
                    ]
                ], 
                [
                    21248, 
                    [
                        {
                            "pitch": 72, 
                            "t0": 21248, 
                            "v": 86, 
                            "dur": 24, 
                            "type": "note", 
                            "channel": 1
                        }
                    ]
                ], 
                [
                    21276, 
                    [
                        {
                            "pitch": 76, 
                            "t0": 21276, 
                            "v": 65, 
                            "dur": 20, 
                            "type": "note", 
                            "channel": 1
                        }
                    ]
                ], 
                [
                    21296, 
                    [
                        {
                            "pitch": 72, 
                            "t0": 21296, 
                            "v": 80, 
                            "dur": 21, 
                            "type": "note", 
                            "channel": 1
                        }
                    ]
                ], 
                [
                    21319, 
                    [
                        {
                            "pitch": 76, 
                            "t0": 21319, 
                            "v": 61, 
                            "dur": 22, 
                            "type": "note", 
                            "channel": 1
                        }
                    ]
                ], 
                [
                    21341, 
                    [
                        {
                            "pitch": 72, 
                            "t0": 21341, 
                            "v": 83, 
                            "dur": 24, 
                            "type": "note", 
                            "channel": 1
                        }
                    ]
                ], 
                [
                    21365, 
                    [
                        {
                            "pitch": 76, 
                            "t0": 21365, 
                            "v": 68, 
                            "dur": 27, 
                            "type": "note", 
                            "channel": 1
                        }
                    ]
                ], 
                [
                    21385, 
                    [
                        {
                            "pitch": 72, 
                            "t0": 21385, 
                            "v": 79, 
                            "dur": 28, 
                            "type": "note", 
                            "channel": 1
                        }
                    ]
                ], 
                [
                    21413, 
                    [
                        {
                            "pitch": 76, 
                            "t0": 21413, 
                            "v": 65, 
                            "dur": 25, 
                            "type": "note", 
                            "channel": 1
                        }
                    ]
                ], 
                [
                    21434, 
                    [
                        {
                            "pitch": 72, 
                            "t0": 21434, 
                            "v": 70, 
                            "dur": 24, 
                            "type": "note", 
                            "channel": 1
                        }
                    ]
                ], 
                [
                    21461, 
                    [
                        {
                            "pitch": 76, 
                            "t0": 21461, 
                            "v": 54, 
                            "dur": 26, 
                            "type": "note", 
                            "channel": 1
                        }
                    ]
                ], 
                [
                    21480, 
                    [
                        {
                            "pitch": 72, 
                            "t0": 21480, 
                            "v": 69, 
                            "dur": 27, 
                            "type": "note", 
                            "channel": 1
                        }
                    ]
                ], 
                [
                    21512, 
                    [
                        {
                            "pitch": 76, 
                            "t0": 21512, 
                            "v": 44, 
                            "dur": 37, 
                            "type": "note", 
                            "channel": 1
                        }
                    ]
                ], 
                [
                    21575, 
                    [
                        {
                            "pitch": 70, 
                            "t0": 21575, 
                            "v": 107, 
                            "dur": 29, 
                            "type": "note", 
                            "channel": 1
                        }
                    ]
                ], 
                [
                    21604, 
                    [
                        {
                            "pitch": 71, 
                            "t0": 21604, 
                            "v": 112, 
                            "dur": 161, 
                            "type": "note", 
                            "channel": 1
                        }
                    ]
                ], 
                [
                    21609, 
                    [
                        {
                            "pitch": 43, 
                            "t0": 21609, 
                            "v": 70, 
                            "dur": 50, 
                            "type": "note", 
                            "channel": 1
                        }
                    ]
                ], 
                [
                    21680, 
                    [
                        {
                            "pitch": 79, 
                            "t0": 21680, 
                            "v": 102, 
                            "dur": 141, 
                            "type": "note", 
                            "channel": 1
                        }
                    ]
                ], 
                [
                    21717, 
                    [
                        {
                            "pitch": 47, 
                            "t0": 21717, 
                            "v": 62, 
                            "dur": 30, 
                            "type": "note", 
                            "channel": 1
                        }
                    ]
                ], 
                [
                    21798, 
                    [
                        {
                            "pitch": 71, 
                            "t0": 21798, 
                            "v": 79, 
                            "dur": 89, 
                            "type": "note", 
                            "channel": 1
                        }
                    ]
                ], 
                [
                    21840, 
                    [
                        {
                            "pitch": 48, 
                            "t0": 21840, 
                            "v": 68, 
                            "dur": 78, 
                            "type": "note", 
                            "channel": 1
                        }, 
                        {
                            "pitch": 79, 
                            "t0": 21840, 
                            "v": 78, 
                            "dur": 113, 
                            "type": "note", 
                            "channel": 1
                        }
                    ]
                ], 
                [
                    21941, 
                    [
                        {
                            "pitch": 71, 
                            "t0": 21941, 
                            "v": 66, 
                            "dur": 46, 
                            "type": "note", 
                            "channel": 1
                        }
                    ]
                ], 
                [
                    21959, 
                    [
                        {
                            "pitch": 49, 
                            "t0": 21959, 
                            "v": 67, 
                            "dur": 39, 
                            "type": "note", 
                            "channel": 1
                        }
                    ]
                ], 
                [
                    21967, 
                    [
                        {
                            "pitch": 77, 
                            "t0": 21967, 
                            "v": 67, 
                            "dur": 90, 
                            "type": "note", 
                            "channel": 1
                        }
                    ]
                ], 
                [
                    21978, 
                    [
                        {
                            "pitch": 78, 
                            "t0": 21978, 
                            "v": 43, 
                            "dur": 13, 
                            "type": "note", 
                            "channel": 1
                        }
                    ]
                ], 
                [
                    22046, 
                    [
                        {
                            "pitch": 78, 
                            "t0": 22046, 
                            "v": 101, 
                            "dur": 64, 
                            "type": "note", 
                            "channel": 1
                        }
                    ]
                ], 
                [
                    22083, 
                    [
                        {
                            "pitch": 38, 
                            "t0": 22083, 
                            "v": 68, 
                            "dur": 37, 
                            "type": "note", 
                            "channel": 1
                        }
                    ]
                ], 
                [
                    22119, 
                    [
                        {
                            "pitch": 78, 
                            "t0": 22119, 
                            "v": 77, 
                            "dur": 109, 
                            "type": "note", 
                            "channel": 1
                        }
                    ]
                ], 
                [
                    22165, 
                    [
                        {
                            "pitch": 86, 
                            "t0": 22165, 
                            "v": 91, 
                            "dur": 127, 
                            "type": "note", 
                            "channel": 1
                        }
                    ]
                ], 
                [
                    22199, 
                    [
                        {
                            "pitch": 40, 
                            "t0": 22199, 
                            "v": 56, 
                            "dur": 95, 
                            "type": "note", 
                            "channel": 1
                        }
                    ]
                ], 
                [
                    22274, 
                    [
                        {
                            "pitch": 78, 
                            "t0": 22274, 
                            "v": 87, 
                            "dur": 95, 
                            "type": "note", 
                            "channel": 1
                        }
                    ]
                ], 
                [
                    22311, 
                    [
                        {
                            "pitch": 86, 
                            "t0": 22311, 
                            "v": 87, 
                            "dur": 81, 
                            "type": "note", 
                            "channel": 1
                        }
                    ]
                ], 
                [
                    22314, 
                    [
                        {
                            "pitch": 41, 
                            "t0": 22314, 
                            "v": 68, 
                            "dur": 99, 
                            "type": "note", 
                            "channel": 1
                        }
                    ]
                ], 
                [
                    22393, 
                    [
                        {
                            "pitch": 85, 
                            "t0": 22393, 
                            "v": 67, 
                            "dur": 24, 
                            "type": "note", 
                            "channel": 1
                        }
                    ]
                ], 
                [
                    22401, 
                    [
                        {
                            "pitch": 77, 
                            "t0": 22401, 
                            "v": 65, 
                            "dur": 17, 
                            "type": "note", 
                            "channel": 1
                        }
                    ]
                ], 
                [
                    22430, 
                    [
                        {
                            "pitch": 77, 
                            "t0": 22430, 
                            "v": 61, 
                            "dur": 22, 
                            "type": "note", 
                            "channel": 1
                        }
                    ]
                ], 
                [
                    22432, 
                    [
                        {
                            "pitch": 84, 
                            "t0": 22432, 
                            "v": 81, 
                            "dur": 45, 
                            "type": "note", 
                            "channel": 1
                        }, 
                        {
                            "pitch": 42, 
                            "t0": 22432, 
                            "v": 52, 
                            "dur": 53, 
                            "type": "note", 
                            "channel": 1
                        }
                    ]
                ], 
                [
                    22528, 
                    [
                        {
                            "pitch": 82, 
                            "t0": 22528, 
                            "v": 73, 
                            "dur": 14, 
                            "type": "note", 
                            "channel": 1
                        }
                    ]
                ], 
                [
                    22543, 
                    [
                        {
                            "pitch": 81, 
                            "t0": 22543, 
                            "v": 76, 
                            "dur": 16, 
                            "type": "note", 
                            "channel": 1
                        }, 
                        {
                            "pitch": 83, 
                            "t0": 22543, 
                            "v": 94, 
                            "dur": 35, 
                            "type": "note", 
                            "channel": 1
                        }
                    ]
                ], 
                [
                    22551, 
                    [
                        {
                            "pitch": 43, 
                            "t0": 22551, 
                            "v": 56, 
                            "dur": 29, 
                            "type": "note", 
                            "channel": 1
                        }
                    ]
                ], 
                [
                    22559, 
                    [
                        {
                            "pitch": 91, 
                            "t0": 22559, 
                            "v": 70, 
                            "dur": 41, 
                            "type": "note", 
                            "channel": 1
                        }
                    ]
                ], 
                [
                    22560, 
                    [
                        {
                            "pitch": 89, 
                            "t0": 22560, 
                            "v": 80, 
                            "dur": 25, 
                            "type": "note", 
                            "channel": 1
                        }
                    ]
                ], 
                [
                    22685, 
                    [
                        {
                            "pitch": 88, 
                            "t0": 22685, 
                            "v": 85, 
                            "dur": 26, 
                            "type": "note", 
                            "channel": 1
                        }
                    ]
                ], 
                [
                    22686, 
                    [
                        {
                            "pitch": 91, 
                            "t0": 22686, 
                            "v": 90, 
                            "dur": 35, 
                            "type": "note", 
                            "channel": 1
                        }
                    ]
                ], 
                [
                    22801, 
                    [
                        {
                            "pitch": 91, 
                            "t0": 22801, 
                            "v": 91, 
                            "dur": 28, 
                            "type": "note", 
                            "channel": 1
                        }
                    ]
                ], 
                [
                    22803, 
                    [
                        {
                            "pitch": 86, 
                            "t0": 22803, 
                            "v": 83, 
                            "dur": 27, 
                            "type": "note", 
                            "channel": 1
                        }
                    ]
                ], 
                [
                    22809, 
                    [
                        {
                            "pitch": 38, 
                            "t0": 22809, 
                            "v": 46, 
                            "dur": 32, 
                            "type": "note", 
                            "channel": 1
                        }
                    ]
                ], 
                [
                    22879, 
                    [
                        {
                            "pitch": 81, 
                            "t0": 22879, 
                            "v": 85, 
                            "dur": 22, 
                            "type": "note", 
                            "channel": 1
                        }
                    ]
                ], 
                [
                    22885, 
                    [
                        {
                            "pitch": 86, 
                            "t0": 22885, 
                            "v": 91, 
                            "dur": 123, 
                            "type": "note", 
                            "channel": 1
                        }
                    ]
                ], 
                [
                    22889, 
                    [
                        {
                            "pitch": 83, 
                            "t0": 22889, 
                            "v": 94, 
                            "dur": 29, 
                            "type": "note", 
                            "channel": 1
                        }
                    ]
                ], 
                [
                    22918, 
                    [
                        {
                            "pitch": 81, 
                            "t0": 22918, 
                            "v": 94, 
                            "dur": 105, 
                            "type": "note", 
                            "channel": 1
                        }
                    ]
                ], 
                [
                    23035, 
                    [
                        {
                            "pitch": 86, 
                            "t0": 23035, 
                            "v": 106, 
                            "dur": 24, 
                            "type": "note", 
                            "channel": 1
                        }
                    ]
                ], 
                [
                    23036, 
                    [
                        {
                            "pitch": 83, 
                            "t0": 23036, 
                            "v": 114, 
                            "dur": 26, 
                            "type": "note", 
                            "channel": 1
                        }, 
                        {
                            "pitch": 79, 
                            "t0": 23036, 
                            "v": 112, 
                            "dur": 26, 
                            "type": "note", 
                            "channel": 1
                        }
                    ]
                ], 
                [
                    23037, 
                    [
                        {
                            "pitch": 43, 
                            "t0": 23037, 
                            "v": 92, 
                            "dur": 33, 
                            "type": "note", 
                            "channel": 1
                        }, 
                        {
                            "pitch": 55, 
                            "t0": 23037, 
                            "v": 70, 
                            "dur": 34, 
                            "type": "note", 
                            "channel": 1
                        }
                    ]
                ], 
                [
                    23522, 
                    [
                        {
                            "pitch": 36, 
                            "t0": 23522, 
                            "v": 73, 
                            "dur": 135, 
                            "type": "note", 
                            "channel": 1
                        }
                    ]
                ], 
                [
                    23523, 
                    [
                        {
                            "pitch": 48, 
                            "t0": 23523, 
                            "v": 55, 
                            "dur": 148, 
                            "type": "note", 
                            "channel": 1
                        }
                    ]
                ], 
                [
                    23640, 
                    [
                        {
                            "pitch": 60, 
                            "t0": 23640, 
                            "v": 72, 
                            "dur": 165, 
                            "type": "note", 
                            "channel": 1
                        }
                    ]
                ], 
                [
                    23642, 
                    [
                        {
                            "pitch": 67, 
                            "t0": 23642, 
                            "v": 79, 
                            "dur": 165, 
                            "type": "note", 
                            "channel": 1
                        }, 
                        {
                            "pitch": 64, 
                            "t0": 23642, 
                            "v": 77, 
                            "dur": 309, 
                            "type": "note", 
                            "channel": 1
                        }
                    ]
                ], 
                [
                    23757, 
                    [
                        {
                            "pitch": 43, 
                            "t0": 23757, 
                            "v": 80, 
                            "dur": 145, 
                            "type": "note", 
                            "channel": 1
                        }
                    ]
                ], 
                [
                    23875, 
                    [
                        {
                            "pitch": 60, 
                            "t0": 23875, 
                            "v": 54, 
                            "dur": 128, 
                            "type": "note", 
                            "channel": 1
                        }
                    ]
                ], 
                [
                    23879, 
                    [
                        {
                            "pitch": 55, 
                            "t0": 23879, 
                            "v": 75, 
                            "dur": 126, 
                            "type": "note", 
                            "channel": 1
                        }
                    ]
                ], 
                [
                    24000, 
                    [
                        {
                            "pitch": 36, 
                            "t0": 24000, 
                            "v": 86, 
                            "dur": 132, 
                            "type": "note", 
                            "channel": 1
                        }, 
                        {
                            "pitch": 48, 
                            "t0": 24000, 
                            "v": 80, 
                            "dur": 138, 
                            "type": "note", 
                            "channel": 1
                        }
                    ]
                ], 
                [
                    24116, 
                    [
                        {
                            "pitch": 52, 
                            "t0": 24116, 
                            "v": 62, 
                            "dur": 158, 
                            "type": "note", 
                            "channel": 1
                        }, 
                        {
                            "pitch": 55, 
                            "t0": 24116, 
                            "v": 66, 
                            "dur": 319, 
                            "type": "note", 
                            "channel": 1
                        }
                    ]
                ], 
                [
                    24120, 
                    [
                        {
                            "pitch": 60, 
                            "t0": 24120, 
                            "v": 69, 
                            "dur": 202, 
                            "type": "note", 
                            "channel": 1
                        }
                    ]
                ], 
                [
                    24239, 
                    [
                        {
                            "pitch": 43, 
                            "t0": 24239, 
                            "v": 61, 
                            "dur": 99, 
                            "type": "note", 
                            "channel": 1
                        }
                    ]
                ], 
                [
                    24322, 
                    [
                        {
                            "pitch": 52, 
                            "t0": 24322, 
                            "v": 50, 
                            "dur": 75, 
                            "type": "note", 
                            "channel": 1
                        }
                    ]
                ], 
                [
                    24360, 
                    [
                        {
                            "pitch": 60, 
                            "t0": 24360, 
                            "v": 65, 
                            "dur": 83, 
                            "type": "note", 
                            "channel": 1
                        }
                    ]
                ], 
                [
                    24446, 
                    [
                        {
                            "pitch": 52, 
                            "t0": 24446, 
                            "v": 49, 
                            "dur": 8, 
                            "type": "note", 
                            "channel": 1
                        }
                    ]
                ], 
                [
                    24478, 
                    [
                        {
                            "pitch": 43, 
                            "t0": 24478, 
                            "v": 73, 
                            "dur": 133, 
                            "type": "note", 
                            "channel": 1
                        }
                    ]
                ], 
                [
                    24600, 
                    [
                        {
                            "pitch": 62, 
                            "t0": 24600, 
                            "v": 68, 
                            "dur": 299, 
                            "type": "note", 
                            "channel": 1
                        }
                    ]
                ], 
                [
                    24605, 
                    [
                        {
                            "pitch": 59, 
                            "t0": 24605, 
                            "v": 60, 
                            "dur": 136, 
                            "type": "note", 
                            "channel": 1
                        }, 
                        {
                            "pitch": 67, 
                            "t0": 24605, 
                            "v": 79, 
                            "dur": 213, 
                            "type": "note", 
                            "channel": 1
                        }
                    ]
                ], 
                [
                    24722, 
                    [
                        {
                            "pitch": 38, 
                            "t0": 24722, 
                            "v": 68, 
                            "dur": 218, 
                            "type": "note", 
                            "channel": 1
                        }
                    ]
                ], 
                [
                    24724, 
                    [
                        {
                            "pitch": 50, 
                            "t0": 24724, 
                            "v": 53, 
                            "dur": 94, 
                            "type": "note", 
                            "channel": 1
                        }
                    ]
                ], 
                [
                    24811, 
                    [
                        {
                            "pitch": 59, 
                            "t0": 24811, 
                            "v": 47, 
                            "dur": 67, 
                            "type": "note", 
                            "channel": 1
                        }
                    ]
                ], 
                [
                    24845, 
                    [
                        {
                            "pitch": 67, 
                            "t0": 24845, 
                            "v": 64, 
                            "dur": 56, 
                            "type": "note", 
                            "channel": 1
                        }
                    ]
                ], 
                [
                    24961, 
                    [
                        {
                            "pitch": 31, 
                            "t0": 24961, 
                            "v": 79, 
                            "dur": 143, 
                            "type": "note", 
                            "channel": 1
                        }, 
                        {
                            "pitch": 43, 
                            "t0": 24961, 
                            "v": 63, 
                            "dur": 158, 
                            "type": "note", 
                            "channel": 1
                        }
                    ]
                ], 
                [
                    25082, 
                    [
                        {
                            "pitch": 62, 
                            "t0": 25082, 
                            "v": 73, 
                            "dur": 174, 
                            "type": "note", 
                            "channel": 1
                        }
                    ]
                ], 
                [
                    25083, 
                    [
                        {
                            "pitch": 59, 
                            "t0": 25083, 
                            "v": 70, 
                            "dur": 109, 
                            "type": "note", 
                            "channel": 1
                        }
                    ]
                ], 
                [
                    25087, 
                    [
                        {
                            "pitch": 67, 
                            "t0": 25087, 
                            "v": 71, 
                            "dur": 179, 
                            "type": "note", 
                            "channel": 1
                        }
                    ]
                ], 
                [
                    25202, 
                    [
                        {
                            "pitch": 43, 
                            "t0": 25202, 
                            "v": 70, 
                            "dur": 52, 
                            "type": "note", 
                            "channel": 1
                        }, 
                        {
                            "pitch": 31, 
                            "t0": 25202, 
                            "v": 91, 
                            "dur": 52, 
                            "type": "note", 
                            "channel": 1
                        }
                    ]
                ], 
                [
                    25275, 
                    [
                        {
                            "pitch": 59, 
                            "t0": 25275, 
                            "v": 62, 
                            "dur": 14, 
                            "type": "note", 
                            "channel": 1
                        }
                    ]
                ], 
                [
                    25320, 
                    [
                        {
                            "pitch": 63, 
                            "t0": 25320, 
                            "v": 48, 
                            "dur": 71, 
                            "type": "note", 
                            "channel": 1
                        }
                    ]
                ], 
                [
                    25322, 
                    [
                        {
                            "pitch": 44, 
                            "t0": 25322, 
                            "v": 72, 
                            "dur": 46, 
                            "type": "note", 
                            "channel": 1
                        }, 
                        {
                            "pitch": 32, 
                            "t0": 25322, 
                            "v": 85, 
                            "dur": 48, 
                            "type": "note", 
                            "channel": 1
                        }
                    ]
                ], 
                [
                    25323, 
                    [
                        {
                            "pitch": 60, 
                            "t0": 25323, 
                            "v": 70, 
                            "dur": 46, 
                            "type": "note", 
                            "channel": 1
                        }
                    ]
                ], 
                [
                    25325, 
                    [
                        {
                            "pitch": 68, 
                            "t0": 25325, 
                            "v": 79, 
                            "dur": 73, 
                            "type": "note", 
                            "channel": 1
                        }
                    ]
                ], 
                [
                    25407, 
                    [
                        {
                            "pitch": 60, 
                            "t0": 25407, 
                            "v": 75, 
                            "dur": 19, 
                            "type": "note", 
                            "channel": 1
                        }
                    ]
                ], 
                [
                    25436, 
                    [
                        {
                            "pitch": 45, 
                            "t0": 25436, 
                            "v": 61, 
                            "dur": 124, 
                            "type": "note", 
                            "channel": 1
                        }
                    ]
                ], 
                [
                    25439, 
                    [
                        {
                            "pitch": 33, 
                            "t0": 25439, 
                            "v": 104, 
                            "dur": 98, 
                            "type": "note", 
                            "channel": 1
                        }
                    ]
                ], 
                [
                    25444, 
                    [
                        {
                            "pitch": 35, 
                            "t0": 25444, 
                            "v": 73, 
                            "dur": 5, 
                            "type": "note", 
                            "channel": 1
                        }
                    ]
                ], 
                [
                    25555, 
                    [
                        {
                            "pitch": 61, 
                            "t0": 25555, 
                            "v": 67, 
                            "dur": 153, 
                            "type": "note", 
                            "channel": 1
                        }
                    ]
                ], 
                [
                    25557, 
                    [
                        {
                            "pitch": 64, 
                            "t0": 25557, 
                            "v": 78, 
                            "dur": 218, 
                            "type": "note", 
                            "channel": 1
                        }
                    ]
                ], 
                [
                    25559, 
                    [
                        {
                            "pitch": 69, 
                            "t0": 25559, 
                            "v": 80, 
                            "dur": 212, 
                            "type": "note", 
                            "channel": 1
                        }
                    ]
                ], 
                [
                    25685, 
                    [
                        {
                            "pitch": 40, 
                            "t0": 25685, 
                            "v": 50, 
                            "dur": 31, 
                            "type": "note", 
                            "channel": 1
                        }
                    ]
                ], 
                [
                    25763, 
                    [
                        {
                            "pitch": 61, 
                            "t0": 25763, 
                            "v": 64, 
                            "dur": 208, 
                            "type": "note", 
                            "channel": 1
                        }
                    ]
                ], 
                [
                    25796, 
                    [
                        {
                            "pitch": 64, 
                            "t0": 25796, 
                            "v": 68, 
                            "dur": 304, 
                            "type": "note", 
                            "channel": 1
                        }
                    ]
                ], 
                [
                    25881, 
                    [
                        {
                            "pitch": 69, 
                            "t0": 25881, 
                            "v": 78, 
                            "dur": 141, 
                            "type": "note", 
                            "channel": 1
                        }
                    ]
                ], 
                [
                    26033, 
                    [
                        {
                            "pitch": 61, 
                            "t0": 26033, 
                            "v": 58, 
                            "dur": 155, 
                            "type": "note", 
                            "channel": 1
                        }
                    ]
                ], 
                [
                    26044, 
                    [
                        {
                            "pitch": 69, 
                            "t0": 26044, 
                            "v": 63, 
                            "dur": 37, 
                            "type": "note", 
                            "channel": 1
                        }
                    ]
                ], 
                [
                    26114, 
                    [
                        {
                            "pitch": 64, 
                            "t0": 26114, 
                            "v": 65, 
                            "dur": 143, 
                            "type": "note", 
                            "channel": 1
                        }
                    ]
                ], 
                [
                    26115, 
                    [
                        {
                            "pitch": 69, 
                            "t0": 26115, 
                            "v": 85, 
                            "dur": 262, 
                            "type": "note", 
                            "channel": 1
                        }
                    ]
                ], 
                [
                    26243, 
                    [
                        {
                            "pitch": 61, 
                            "t0": 26243, 
                            "v": 65, 
                            "dur": 71, 
                            "type": "note", 
                            "channel": 1
                        }
                    ]
                ], 
                [
                    26279, 
                    [
                        {
                            "pitch": 64, 
                            "t0": 26279, 
                            "v": 68, 
                            "dur": 93, 
                            "type": "note", 
                            "channel": 1
                        }
                    ]
                ], 
                [
                    26362, 
                    [
                        {
                            "pitch": 61, 
                            "t0": 26362, 
                            "v": 66, 
                            "dur": 23, 
                            "type": "note", 
                            "channel": 1
                        }
                    ]
                ], 
                [
                    26400, 
                    [
                        {
                            "pitch": 50, 
                            "t0": 26400, 
                            "v": 62, 
                            "dur": 109, 
                            "type": "note", 
                            "channel": 1
                        }
                    ]
                ], 
                [
                    26401, 
                    [
                        {
                            "pitch": 38, 
                            "t0": 26401, 
                            "v": 52, 
                            "dur": 38, 
                            "type": "note", 
                            "channel": 1
                        }
                    ]
                ], 
                [
                    26408, 
                    [
                        {
                            "pitch": 40, 
                            "t0": 26408, 
                            "v": 47, 
                            "dur": 21, 
                            "type": "note", 
                            "channel": 1
                        }
                    ]
                ], 
                [
                    26520, 
                    [
                        {
                            "pitch": 62, 
                            "t0": 26520, 
                            "v": 80, 
                            "dur": 187, 
                            "type": "note", 
                            "channel": 1
                        }, 
                        {
                            "pitch": 66, 
                            "t0": 26520, 
                            "v": 84, 
                            "dur": 197, 
                            "type": "note", 
                            "channel": 1
                        }
                    ]
                ], 
                [
                    26521, 
                    [
                        {
                            "pitch": 57, 
                            "t0": 26521, 
                            "v": 67, 
                            "dur": 144, 
                            "type": "note", 
                            "channel": 1
                        }
                    ]
                ], 
                [
                    26640, 
                    [
                        {
                            "pitch": 45, 
                            "t0": 26640, 
                            "v": 66, 
                            "dur": 132, 
                            "type": "note", 
                            "channel": 1
                        }
                    ]
                ], 
                [
                    26762, 
                    [
                        {
                            "pitch": 66, 
                            "t0": 26762, 
                            "v": 68, 
                            "dur": 210, 
                            "type": "note", 
                            "channel": 1
                        }
                    ]
                ], 
                [
                    26763, 
                    [
                        {
                            "pitch": 62, 
                            "t0": 26763, 
                            "v": 72, 
                            "dur": 202, 
                            "type": "note", 
                            "channel": 1
                        }
                    ]
                ], 
                [
                    26765, 
                    [
                        {
                            "pitch": 57, 
                            "t0": 26765, 
                            "v": 52, 
                            "dur": 110, 
                            "type": "note", 
                            "channel": 1
                        }
                    ]
                ], 
                [
                    26882, 
                    [
                        {
                            "pitch": 38, 
                            "t0": 26882, 
                            "v": 72, 
                            "dur": 47, 
                            "type": "note", 
                            "channel": 1
                        }, 
                        {
                            "pitch": 50, 
                            "t0": 26882, 
                            "v": 59, 
                            "dur": 120, 
                            "type": "note", 
                            "channel": 1
                        }
                    ]
                ], 
                [
                    26967, 
                    [
                        {
                            "pitch": 57, 
                            "t0": 26967, 
                            "v": 58, 
                            "dur": 17, 
                            "type": "note", 
                            "channel": 1
                        }
                    ]
                ], 
                [
                    26998, 
                    [
                        {
                            "pitch": 66, 
                            "t0": 26998, 
                            "v": 71, 
                            "dur": 57, 
                            "type": "note", 
                            "channel": 1
                        }
                    ]
                ], 
                [
                    26999, 
                    [
                        {
                            "pitch": 62, 
                            "t0": 26999, 
                            "v": 79, 
                            "dur": 51, 
                            "type": "note", 
                            "channel": 1
                        }
                    ]
                ], 
                [
                    27001, 
                    [
                        {
                            "pitch": 57, 
                            "t0": 27001, 
                            "v": 44, 
                            "dur": 39, 
                            "type": "note", 
                            "channel": 1
                        }
                    ]
                ], 
                [
                    27120, 
                    [
                        {
                            "pitch": 66, 
                            "t0": 27120, 
                            "v": 107, 
                            "dur": 34, 
                            "type": "note", 
                            "channel": 1
                        }
                    ]
                ], 
                [
                    27121, 
                    [
                        {
                            "pitch": 62, 
                            "t0": 27121, 
                            "v": 98, 
                            "dur": 36, 
                            "type": "note", 
                            "channel": 1
                        }
                    ]
                ], 
                [
                    27122, 
                    [
                        {
                            "pitch": 38, 
                            "t0": 27122, 
                            "v": 83, 
                            "dur": 23, 
                            "type": "note", 
                            "channel": 1
                        }, 
                        {
                            "pitch": 57, 
                            "t0": 27122, 
                            "v": 92, 
                            "dur": 27, 
                            "type": "note", 
                            "channel": 1
                        }
                    ]
                ], 
                [
                    27123, 
                    [
                        {
                            "pitch": 50, 
                            "t0": 27123, 
                            "v": 73, 
                            "dur": 23, 
                            "type": "note", 
                            "channel": 1
                        }
                    ]
                ], 
                [
                    27243, 
                    [
                        {
                            "pitch": 61, 
                            "t0": 27243, 
                            "v": 85, 
                            "dur": 49, 
                            "type": "note", 
                            "channel": 1
                        }
                    ]
                ], 
                [
                    27244, 
                    [
                        {
                            "pitch": 65, 
                            "t0": 27244, 
                            "v": 78, 
                            "dur": 43, 
                            "type": "note", 
                            "channel": 1
                        }
                    ]
                ], 
                [
                    27245, 
                    [
                        {
                            "pitch": 56, 
                            "t0": 27245, 
                            "v": 99, 
                            "dur": 28, 
                            "type": "note", 
                            "channel": 1
                        }
                    ]
                ], 
                [
                    27361, 
                    [
                        {
                            "pitch": 60, 
                            "t0": 27361, 
                            "v": 85, 
                            "dur": 182, 
                            "type": "note", 
                            "channel": 1
                        }, 
                        {
                            "pitch": 64, 
                            "t0": 27361, 
                            "v": 81, 
                            "dur": 350, 
                            "type": "note", 
                            "channel": 1
                        }
                    ]
                ], 
                [
                    27362, 
                    [
                        {
                            "pitch": 55, 
                            "t0": 27362, 
                            "v": 66, 
                            "dur": 96, 
                            "type": "note", 
                            "channel": 1
                        }
                    ]
                ], 
                [
                    27489, 
                    [
                        {
                            "pitch": 55, 
                            "t0": 27489, 
                            "v": 65, 
                            "dur": 157, 
                            "type": "note", 
                            "channel": 1
                        }
                    ]
                ], 
                [
                    27553, 
                    [
                        {
                            "pitch": 60, 
                            "t0": 27553, 
                            "v": 51, 
                            "dur": 153, 
                            "type": "note", 
                            "channel": 1
                        }
                    ]
                ], 
                [
                    27604, 
                    [
                        {
                            "pitch": 43, 
                            "t0": 27604, 
                            "v": 65, 
                            "dur": 99, 
                            "type": "note", 
                            "channel": 1
                        }
                    ]
                ], 
                [
                    27716, 
                    [
                        {
                            "pitch": 60, 
                            "t0": 27716, 
                            "v": 42, 
                            "dur": 223, 
                            "type": "note", 
                            "channel": 1
                        }
                    ]
                ], 
                [
                    27720, 
                    [
                        {
                            "pitch": 64, 
                            "t0": 27720, 
                            "v": 39, 
                            "dur": 216, 
                            "type": "note", 
                            "channel": 1
                        }
                    ]
                ], 
                [
                    27721, 
                    [
                        {
                            "pitch": 55, 
                            "t0": 27721, 
                            "v": 51, 
                            "dur": 135, 
                            "type": "note", 
                            "channel": 1
                        }
                    ]
                ], 
                [
                    27836, 
                    [
                        {
                            "pitch": 48, 
                            "t0": 27836, 
                            "v": 65, 
                            "dur": 43, 
                            "type": "note", 
                            "channel": 1
                        }
                    ]
                ], 
                [
                    27955, 
                    [
                        {
                            "pitch": 60, 
                            "t0": 27955, 
                            "v": 75, 
                            "dur": 219, 
                            "type": "note", 
                            "channel": 1
                        }
                    ]
                ], 
                [
                    27956, 
                    [
                        {
                            "pitch": 55, 
                            "t0": 27956, 
                            "v": 66, 
                            "dur": 160, 
                            "type": "note", 
                            "channel": 1
                        }, 
                        {
                            "pitch": 64, 
                            "t0": 27956, 
                            "v": 71, 
                            "dur": 215, 
                            "type": "note", 
                            "channel": 1
                        }
                    ]
                ], 
                [
                    28155, 
                    [
                        {
                            "pitch": 55, 
                            "t0": 28155, 
                            "v": 62, 
                            "dur": 95, 
                            "type": "note", 
                            "channel": 1
                        }
                    ]
                ], 
                [
                    28195, 
                    [
                        {
                            "pitch": 60, 
                            "t0": 28195, 
                            "v": 87, 
                            "dur": 85, 
                            "type": "note", 
                            "channel": 1
                        }, 
                        {
                            "pitch": 64, 
                            "t0": 28195, 
                            "v": 75, 
                            "dur": 90, 
                            "type": "note", 
                            "channel": 1
                        }
                    ]
                ], 
                [
                    28285, 
                    [
                        {
                            "pitch": 55, 
                            "t0": 28285, 
                            "v": 50, 
                            "dur": 95, 
                            "type": "note", 
                            "channel": 1
                        }
                    ]
                ], 
                [
                    28314, 
                    [
                        {
                            "pitch": 62, 
                            "t0": 28314, 
                            "v": 70, 
                            "dur": 188, 
                            "type": "note", 
                            "channel": 1
                        }
                    ]
                ], 
                [
                    28316, 
                    [
                        {
                            "pitch": 59, 
                            "t0": 28316, 
                            "v": 76, 
                            "dur": 172, 
                            "type": "note", 
                            "channel": 1
                        }
                    ]
                ], 
                [
                    28440, 
                    [
                        {
                            "pitch": 55, 
                            "t0": 28440, 
                            "v": 73, 
                            "dur": 97, 
                            "type": "note", 
                            "channel": 1
                        }
                    ]
                ], 
                [
                    28513, 
                    [
                        {
                            "pitch": 62, 
                            "t0": 28513, 
                            "v": 60, 
                            "dur": 150, 
                            "type": "note", 
                            "channel": 1
                        }
                    ]
                ], 
                [
                    28514, 
                    [
                        {
                            "pitch": 59, 
                            "t0": 28514, 
                            "v": 80, 
                            "dur": 129, 
                            "type": "note", 
                            "channel": 1
                        }
                    ]
                ], 
                [
                    28571, 
                    [
                        {
                            "pitch": 55, 
                            "t0": 28571, 
                            "v": 48, 
                            "dur": 26, 
                            "type": "note", 
                            "channel": 1
                        }
                    ]
                ], 
                [
                    28643, 
                    [
                        {
                            "pitch": 55, 
                            "t0": 28643, 
                            "v": 75, 
                            "dur": 67, 
                            "type": "note", 
                            "channel": 1
                        }
                    ]
                ], 
                [
                    28678, 
                    [
                        {
                            "pitch": 62, 
                            "t0": 28678, 
                            "v": 77, 
                            "dur": 73, 
                            "type": "note", 
                            "channel": 1
                        }
                    ]
                ], 
                [
                    28680, 
                    [
                        {
                            "pitch": 59, 
                            "t0": 28680, 
                            "v": 94, 
                            "dur": 62, 
                            "type": "note", 
                            "channel": 1
                        }
                    ]
                ], 
                [
                    28760, 
                    [
                        {
                            "pitch": 55, 
                            "t0": 28760, 
                            "v": 62, 
                            "dur": 24, 
                            "type": "note", 
                            "channel": 1
                        }
                    ]
                ], 
                [
                    28797, 
                    [
                        {
                            "pitch": 64, 
                            "t0": 28797, 
                            "v": 83, 
                            "dur": 115, 
                            "type": "note", 
                            "channel": 1
                        }
                    ]
                ], 
                [
                    28799, 
                    [
                        {
                            "pitch": 60, 
                            "t0": 28799, 
                            "v": 95, 
                            "dur": 110, 
                            "type": "note", 
                            "channel": 1
                        }
                    ]
                ], 
                [
                    28800, 
                    [
                        {
                            "pitch": 55, 
                            "t0": 28800, 
                            "v": 70, 
                            "dur": 81, 
                            "type": "note", 
                            "channel": 1
                        }
                    ]
                ], 
                [
                    28918, 
                    [
                        {
                            "pitch": 55, 
                            "t0": 28918, 
                            "v": 75, 
                            "dur": 66, 
                            "type": "note", 
                            "channel": 1
                        }
                    ]
                ], 
                [
                    28922, 
                    [
                        {
                            "pitch": 60, 
                            "t0": 28922, 
                            "v": 83, 
                            "dur": 203, 
                            "type": "note", 
                            "channel": 1
                        }
                    ]
                ], 
                [
                    28923, 
                    [
                        {
                            "pitch": 64, 
                            "t0": 28923, 
                            "v": 90, 
                            "dur": 218, 
                            "type": "note", 
                            "channel": 1
                        }
                    ]
                ], 
                [
                    29002, 
                    [
                        {
                            "pitch": 55, 
                            "t0": 29002, 
                            "v": 75, 
                            "dur": 78, 
                            "type": "note", 
                            "channel": 1
                        }
                    ]
                ], 
                [
                    29122, 
                    [
                        {
                            "pitch": 55, 
                            "t0": 29122, 
                            "v": 70, 
                            "dur": 77, 
                            "type": "note", 
                            "channel": 1
                        }
                    ]
                ], 
                [
                    29160, 
                    [
                        {
                            "pitch": 64, 
                            "t0": 29160, 
                            "v": 74, 
                            "dur": 84, 
                            "type": "note", 
                            "channel": 1
                        }, 
                        {
                            "pitch": 60, 
                            "t0": 29160, 
                            "v": 91, 
                            "dur": 102, 
                            "type": "note", 
                            "channel": 1
                        }
                    ]
                ], 
                [
                    29246, 
                    [
                        {
                            "pitch": 55, 
                            "t0": 29246, 
                            "v": 69, 
                            "dur": 25, 
                            "type": "note", 
                            "channel": 1
                        }
                    ]
                ], 
                [
                    29397, 
                    [
                        {
                            "pitch": 62, 
                            "t0": 29397, 
                            "v": 71, 
                            "dur": 226, 
                            "type": "note", 
                            "channel": 1
                        }
                    ]
                ], 
                [
                    29398, 
                    [
                        {
                            "pitch": 55, 
                            "t0": 29398, 
                            "v": 62, 
                            "dur": 116, 
                            "type": "note", 
                            "channel": 1
                        }, 
                        {
                            "pitch": 59, 
                            "t0": 29398, 
                            "v": 78, 
                            "dur": 184, 
                            "type": "note", 
                            "channel": 1
                        }
                    ]
                ], 
                [
                    29597, 
                    [
                        {
                            "pitch": 55, 
                            "t0": 29597, 
                            "v": 69, 
                            "dur": 76, 
                            "type": "note", 
                            "channel": 1
                        }
                    ]
                ], 
                [
                    29638, 
                    [
                        {
                            "pitch": 59, 
                            "t0": 29638, 
                            "v": 78, 
                            "dur": 71, 
                            "type": "note", 
                            "channel": 1
                        }, 
                        {
                            "pitch": 62, 
                            "t0": 29638, 
                            "v": 73, 
                            "dur": 76, 
                            "type": "note", 
                            "channel": 1
                        }
                    ]
                ], 
                [
                    29725, 
                    [
                        {
                            "pitch": 55, 
                            "t0": 29725, 
                            "v": 74, 
                            "dur": 16, 
                            "type": "note", 
                            "channel": 1
                        }
                    ]
                ], 
                [
                    29879, 
                    [
                        {
                            "pitch": 66, 
                            "t0": 29879, 
                            "v": 82, 
                            "dur": 69, 
                            "type": "note", 
                            "channel": 1
                        }
                    ]
                ], 
                [
                    29880, 
                    [
                        {
                            "pitch": 57, 
                            "t0": 29880, 
                            "v": 66, 
                            "dur": 61, 
                            "type": "note", 
                            "channel": 1
                        }, 
                        {
                            "pitch": 62, 
                            "t0": 29880, 
                            "v": 83, 
                            "dur": 66, 
                            "type": "note", 
                            "channel": 1
                        }
                    ]
                ], 
                [
                    29958, 
                    [
                        {
                            "pitch": 66, 
                            "t0": 29958, 
                            "v": 50, 
                            "dur": 148, 
                            "type": "note", 
                            "channel": 1
                        }
                    ]
                ], 
                [
                    29960, 
                    [
                        {
                            "pitch": 57, 
                            "t0": 29960, 
                            "v": 44, 
                            "dur": 26, 
                            "type": "note", 
                            "channel": 1
                        }, 
                        {
                            "pitch": 62, 
                            "t0": 29960, 
                            "v": 73, 
                            "dur": 146, 
                            "type": "note", 
                            "channel": 1
                        }
                    ]
                ], 
                [
                    30087, 
                    [
                        {
                            "pitch": 57, 
                            "t0": 30087, 
                            "v": 65, 
                            "dur": 78, 
                            "type": "note", 
                            "channel": 1
                        }
                    ]
                ], 
                [
                    30122, 
                    [
                        {
                            "pitch": 66, 
                            "t0": 30122, 
                            "v": 73, 
                            "dur": 101, 
                            "type": "note", 
                            "channel": 1
                        }
                    ]
                ], 
                [
                    30123, 
                    [
                        {
                            "pitch": 62, 
                            "t0": 30123, 
                            "v": 73, 
                            "dur": 97, 
                            "type": "note", 
                            "channel": 1
                        }
                    ]
                ], 
                [
                    30355, 
                    [
                        {
                            "pitch": 59, 
                            "t0": 30355, 
                            "v": 66, 
                            "dur": 72, 
                            "type": "note", 
                            "channel": 1
                        }, 
                        {
                            "pitch": 62, 
                            "t0": 30355, 
                            "v": 73, 
                            "dur": 72, 
                            "type": "note", 
                            "channel": 1
                        }
                    ]
                ], 
                [
                    30356, 
                    [
                        {
                            "pitch": 67, 
                            "t0": 30356, 
                            "v": 87, 
                            "dur": 222, 
                            "type": "note", 
                            "channel": 1
                        }
                    ]
                ], 
                [
                    30438, 
                    [
                        {
                            "pitch": 59, 
                            "t0": 30438, 
                            "v": 32, 
                            "dur": 28, 
                            "type": "note", 
                            "channel": 1
                        }, 
                        {
                            "pitch": 62, 
                            "t0": 30438, 
                            "v": 62, 
                            "dur": 143, 
                            "type": "note", 
                            "channel": 1
                        }
                    ]
                ], 
                [
                    30568, 
                    [
                        {
                            "pitch": 59, 
                            "t0": 30568, 
                            "v": 72, 
                            "dur": 97, 
                            "type": "note", 
                            "channel": 1
                        }
                    ]
                ], 
                [
                    30602, 
                    [
                        {
                            "pitch": 62, 
                            "t0": 30602, 
                            "v": 69, 
                            "dur": 99, 
                            "type": "note", 
                            "channel": 1
                        }
                    ]
                ], 
                [
                    30605, 
                    [
                        {
                            "pitch": 67, 
                            "t0": 30605, 
                            "v": 91, 
                            "dur": 95, 
                            "type": "note", 
                            "channel": 1
                        }
                    ]
                ], 
                [
                    30719, 
                    [
                        {
                            "pitch": 59, 
                            "t0": 30719, 
                            "v": 108, 
                            "dur": 19, 
                            "type": "note", 
                            "channel": 1
                        }, 
                        {
                            "pitch": 62, 
                            "t0": 30719, 
                            "v": 117, 
                            "dur": 25, 
                            "type": "note", 
                            "channel": 1
                        }, 
                        {
                            "pitch": 67, 
                            "t0": 30719, 
                            "v": 127, 
                            "dur": 27, 
                            "type": "note", 
                            "channel": 1
                        }
                    ]
                ], 
                [
                    31280, 
                    [
                        {
                            "pitch": 59, 
                            "t0": 31280, 
                            "v": 72, 
                            "dur": 17, 
                            "type": "note", 
                            "channel": 1
                        }
                    ]
                ], 
                [
                    31281, 
                    [
                        {
                            "pitch": 62, 
                            "t0": 31281, 
                            "v": 78, 
                            "dur": 15, 
                            "type": "note", 
                            "channel": 1
                        }
                    ]
                ], 
                [
                    31283, 
                    [
                        {
                            "pitch": 67, 
                            "t0": 31283, 
                            "v": 77, 
                            "dur": 13, 
                            "type": "note", 
                            "channel": 1
                        }
                    ]
                ], 
                [
                    31414, 
                    [
                        {
                            "pitch": 59, 
                            "t0": 31414, 
                            "v": 61, 
                            "dur": 14, 
                            "type": "note", 
                            "channel": 1
                        }
                    ]
                ], 
                [
                    31445, 
                    [
                        {
                            "pitch": 62, 
                            "t0": 31445, 
                            "v": 80, 
                            "dur": 61, 
                            "type": "note", 
                            "channel": 1
                        }
                    ]
                ], 
                [
                    31446, 
                    [
                        {
                            "pitch": 67, 
                            "t0": 31446, 
                            "v": 81, 
                            "dur": 59, 
                            "type": "note", 
                            "channel": 1
                        }
                    ]
                ], 
                [
                    31447, 
                    [
                        {
                            "pitch": 59, 
                            "t0": 31447, 
                            "v": 58, 
                            "dur": 89, 
                            "type": "note", 
                            "channel": 1
                        }
                    ]
                ], 
                [
                    31519, 
                    [
                        {
                            "pitch": 62, 
                            "t0": 31519, 
                            "v": 80, 
                            "dur": 21, 
                            "type": "note", 
                            "channel": 1
                        }
                    ]
                ], 
                [
                    31520, 
                    [
                        {
                            "pitch": 67, 
                            "t0": 31520, 
                            "v": 86, 
                            "dur": 20, 
                            "type": "note", 
                            "channel": 1
                        }
                    ]
                ], 
                [
                    31682, 
                    [
                        {
                            "pitch": 64, 
                            "t0": 31682, 
                            "v": 80, 
                            "dur": 57, 
                            "type": "note", 
                            "channel": 1
                        }
                    ]
                ], 
                [
                    31683, 
                    [
                        {
                            "pitch": 67, 
                            "t0": 31683, 
                            "v": 84, 
                            "dur": 56, 
                            "type": "note", 
                            "channel": 1
                        }
                    ]
                ], 
                [
                    31684, 
                    [
                        {
                            "pitch": 60, 
                            "t0": 31684, 
                            "v": 71, 
                            "dur": 56, 
                            "type": "note", 
                            "channel": 1
                        }
                    ]
                ], 
                [
                    31754, 
                    [
                        {
                            "pitch": 60, 
                            "t0": 31754, 
                            "v": 60, 
                            "dur": 17, 
                            "type": "note", 
                            "channel": 1
                        }, 
                        {
                            "pitch": 64, 
                            "t0": 31754, 
                            "v": 77, 
                            "dur": 18, 
                            "type": "note", 
                            "channel": 1
                        }
                    ]
                ], 
                [
                    31756, 
                    [
                        {
                            "pitch": 67, 
                            "t0": 31756, 
                            "v": 86, 
                            "dur": 19, 
                            "type": "note", 
                            "channel": 1
                        }
                    ]
                ], 
                [
                    31876, 
                    [
                        {
                            "pitch": 60, 
                            "t0": 31876, 
                            "v": 70, 
                            "dur": 85, 
                            "type": "note", 
                            "channel": 1
                        }
                    ]
                ], 
                [
                    31877, 
                    [
                        {
                            "pitch": 64, 
                            "t0": 31877, 
                            "v": 77, 
                            "dur": 138, 
                            "type": "note", 
                            "channel": 1
                        }
                    ]
                ], 
                [
                    31878, 
                    [
                        {
                            "pitch": 67, 
                            "t0": 31878, 
                            "v": 80, 
                            "dur": 135, 
                            "type": "note", 
                            "channel": 1
                        }
                    ]
                ], 
                [
                    31997, 
                    [
                        {
                            "pitch": 60, 
                            "t0": 31997, 
                            "v": 69, 
                            "dur": 53, 
                            "type": "note", 
                            "channel": 1
                        }
                    ]
                ], 
                [
                    32031, 
                    [
                        {
                            "pitch": 64, 
                            "t0": 32031, 
                            "v": 73, 
                            "dur": 52, 
                            "type": "note", 
                            "channel": 1
                        }, 
                        {
                            "pitch": 67, 
                            "t0": 32031, 
                            "v": 83, 
                            "dur": 59, 
                            "type": "note", 
                            "channel": 1
                        }
                    ]
                ], 
                [
                    32274, 
                    [
                        {
                            "pitch": 62, 
                            "t0": 32274, 
                            "v": 76, 
                            "dur": 66, 
                            "type": "note", 
                            "channel": 1
                        }
                    ]
                ], 
                [
                    32275, 
                    [
                        {
                            "pitch": 67, 
                            "t0": 32275, 
                            "v": 86, 
                            "dur": 64, 
                            "type": "note", 
                            "channel": 1
                        }
                    ]
                ], 
                [
                    32279, 
                    [
                        {
                            "pitch": 59, 
                            "t0": 32279, 
                            "v": 66, 
                            "dur": 49, 
                            "type": "note", 
                            "channel": 1
                        }
                    ]
                ], 
                [
                    32356, 
                    [
                        {
                            "pitch": 62, 
                            "t0": 32356, 
                            "v": 60, 
                            "dur": 15, 
                            "type": "note", 
                            "channel": 1
                        }
                    ]
                ], 
                [
                    32357, 
                    [
                        {
                            "pitch": 59, 
                            "t0": 32357, 
                            "v": 49, 
                            "dur": 11, 
                            "type": "note", 
                            "channel": 1
                        }
                    ]
                ], 
                [
                    32359, 
                    [
                        {
                            "pitch": 67, 
                            "t0": 32359, 
                            "v": 65, 
                            "dur": 11, 
                            "type": "note", 
                            "channel": 1
                        }
                    ]
                ], 
                [
                    32481, 
                    [
                        {
                            "pitch": 59, 
                            "t0": 32481, 
                            "v": 61, 
                            "dur": 14, 
                            "type": "note", 
                            "channel": 1
                        }
                    ]
                ], 
                [
                    32516, 
                    [
                        {
                            "pitch": 62, 
                            "t0": 32516, 
                            "v": 76, 
                            "dur": 40, 
                            "type": "note", 
                            "channel": 1
                        }
                    ]
                ], 
                [
                    32517, 
                    [
                        {
                            "pitch": 67, 
                            "t0": 32517, 
                            "v": 80, 
                            "dur": 44, 
                            "type": "note", 
                            "channel": 1
                        }
                    ]
                ], 
                [
                    32520, 
                    [
                        {
                            "pitch": 59, 
                            "t0": 32520, 
                            "v": 54, 
                            "dur": 24, 
                            "type": "note", 
                            "channel": 1
                        }
                    ]
                ], 
                [
                    32710, 
                    [
                        {
                            "pitch": 59, 
                            "t0": 32710, 
                            "v": 72, 
                            "dur": 17, 
                            "type": "note", 
                            "channel": 1
                        }, 
                        {
                            "pitch": 62, 
                            "t0": 32710, 
                            "v": 73, 
                            "dur": 18, 
                            "type": "note", 
                            "channel": 1
                        }
                    ]
                ], 
                [
                    32711, 
                    [
                        {
                            "pitch": 67, 
                            "t0": 32711, 
                            "v": 87, 
                            "dur": 18, 
                            "type": "note", 
                            "channel": 1
                        }
                    ]
                ], 
                [
                    32834, 
                    [
                        {
                            "pitch": 59, 
                            "t0": 32834, 
                            "v": 73, 
                            "dur": 79, 
                            "type": "note", 
                            "channel": 1
                        }, 
                        {
                            "pitch": 62, 
                            "t0": 32834, 
                            "v": 80, 
                            "dur": 150, 
                            "type": "note", 
                            "channel": 1
                        }
                    ]
                ], 
                [
                    32835, 
                    [
                        {
                            "pitch": 67, 
                            "t0": 32835, 
                            "v": 88, 
                            "dur": 148, 
                            "type": "note", 
                            "channel": 1
                        }
                    ]
                ], 
                [
                    32965, 
                    [
                        {
                            "pitch": 59, 
                            "t0": 32965, 
                            "v": 71, 
                            "dur": 57, 
                            "type": "note", 
                            "channel": 1
                        }
                    ]
                ], 
                [
                    33001, 
                    [
                        {
                            "pitch": 67, 
                            "t0": 33001, 
                            "v": 87, 
                            "dur": 89, 
                            "type": "note", 
                            "channel": 1
                        }, 
                        {
                            "pitch": 62, 
                            "t0": 33001, 
                            "v": 78, 
                            "dur": 89, 
                            "type": "note", 
                            "channel": 1
                        }
                    ]
                ], 
                [
                    33084, 
                    [
                        {
                            "pitch": 59, 
                            "t0": 33084, 
                            "v": 80, 
                            "dur": 19, 
                            "type": "note", 
                            "channel": 1
                        }
                    ]
                ], 
                [
                    33195, 
                    [
                        {
                            "pitch": 59, 
                            "t0": 33195, 
                            "v": 80, 
                            "dur": 14, 
                            "type": "note", 
                            "channel": 1
                        }, 
                        {
                            "pitch": 62, 
                            "t0": 33195, 
                            "v": 91, 
                            "dur": 15, 
                            "type": "note", 
                            "channel": 1
                        }
                    ]
                ], 
                [
                    33198, 
                    [
                        {
                            "pitch": 67, 
                            "t0": 33198, 
                            "v": 87, 
                            "dur": 13, 
                            "type": "note", 
                            "channel": 1
                        }
                    ]
                ], 
                [
                    33318, 
                    [
                        {
                            "pitch": 59, 
                            "t0": 33318, 
                            "v": 85, 
                            "dur": 77, 
                            "type": "note", 
                            "channel": 1
                        }, 
                        {
                            "pitch": 62, 
                            "t0": 33318, 
                            "v": 87, 
                            "dur": 146, 
                            "type": "note", 
                            "channel": 1
                        }
                    ]
                ], 
                [
                    33320, 
                    [
                        {
                            "pitch": 67, 
                            "t0": 33320, 
                            "v": 100, 
                            "dur": 141, 
                            "type": "note", 
                            "channel": 1
                        }
                    ]
                ], 
                [
                    33442, 
                    [
                        {
                            "pitch": 59, 
                            "t0": 33442, 
                            "v": 85, 
                            "dur": 48, 
                            "type": "note", 
                            "channel": 1
                        }
                    ]
                ], 
                [
                    33478, 
                    [
                        {
                            "pitch": 62, 
                            "t0": 33478, 
                            "v": 75, 
                            "dur": 27, 
                            "type": "note", 
                            "channel": 1
                        }
                    ]
                ], 
                [
                    33479, 
                    [
                        {
                            "pitch": 67, 
                            "t0": 33479, 
                            "v": 74, 
                            "dur": 22, 
                            "type": "note", 
                            "channel": 1
                        }
                    ]
                ], 
                [
                    33592, 
                    [
                        {
                            "pitch": 61, 
                            "t0": 33592, 
                            "v": 73, 
                            "dur": 25, 
                            "type": "note", 
                            "channel": 1
                        }
                    ]
                ], 
                [
                    33595, 
                    [
                        {
                            "pitch": 62, 
                            "t0": 33595, 
                            "v": 90, 
                            "dur": 57, 
                            "type": "note", 
                            "channel": 1
                        }, 
                        {
                            "pitch": 65, 
                            "t0": 33595, 
                            "v": 83, 
                            "dur": 73, 
                            "type": "note", 
                            "channel": 1
                        }
                    ]
                ], 
                [
                    33680, 
                    [
                        {
                            "pitch": 55, 
                            "t0": 33680, 
                            "v": 50, 
                            "dur": 9, 
                            "type": "note", 
                            "channel": 1
                        }
                    ]
                ], 
                [
                    33717, 
                    [
                        {
                            "pitch": 64, 
                            "t0": 33717, 
                            "v": 80, 
                            "dur": 46, 
                            "type": "note", 
                            "channel": 1
                        }
                    ]
                ], 
                [
                    33718, 
                    [
                        {
                            "pitch": 60, 
                            "t0": 33718, 
                            "v": 87, 
                            "dur": 42, 
                            "type": "note", 
                            "channel": 1
                        }
                    ]
                ], 
                [
                    33796, 
                    [
                        {
                            "pitch": 58, 
                            "t0": 33796, 
                            "v": 91, 
                            "dur": 18, 
                            "type": "note", 
                            "channel": 1
                        }
                    ]
                ], 
                [
                    33797, 
                    [
                        {
                            "pitch": 62, 
                            "t0": 33797, 
                            "v": 97, 
                            "dur": 141, 
                            "type": "note", 
                            "channel": 1
                        }
                    ]
                ], 
                [
                    33801, 
                    [
                        {
                            "pitch": 59, 
                            "t0": 33801, 
                            "v": 88, 
                            "dur": 96, 
                            "type": "note", 
                            "channel": 1
                        }
                    ]
                ], 
                [
                    33914, 
                    [
                        {
                            "pitch": 55, 
                            "t0": 33914, 
                            "v": 73, 
                            "dur": 60, 
                            "type": "note", 
                            "channel": 1
                        }
                    ]
                ], 
                [
                    33920, 
                    [
                        {
                            "pitch": 59, 
                            "t0": 33920, 
                            "v": 56, 
                            "dur": 14, 
                            "type": "note", 
                            "channel": 1
                        }
                    ]
                ], 
                [
                    33953, 
                    [
                        {
                            "pitch": 59, 
                            "t0": 33953, 
                            "v": 83, 
                            "dur": 35, 
                            "type": "note", 
                            "channel": 1
                        }
                    ]
                ], 
                [
                    33956, 
                    [
                        {
                            "pitch": 62, 
                            "t0": 33956, 
                            "v": 72, 
                            "dur": 43, 
                            "type": "note", 
                            "channel": 1
                        }
                    ]
                ], 
                [
                    34272, 
                    [
                        {
                            "pitch": 68, 
                            "t0": 34272, 
                            "v": 85, 
                            "dur": 18, 
                            "type": "note", 
                            "channel": 1
                        }
                    ]
                ], 
                [
                    34290, 
                    [
                        {
                            "pitch": 69, 
                            "t0": 34290, 
                            "v": 98, 
                            "dur": 59, 
                            "type": "note", 
                            "channel": 1
                        }
                    ]
                ], 
                [
                    34313, 
                    [
                        {
                            "pitch": 78, 
                            "t0": 34313, 
                            "v": 101, 
                            "dur": 52, 
                            "type": "note", 
                            "channel": 1
                        }
                    ]
                ], 
                [
                    34394, 
                    [
                        {
                            "pitch": 68, 
                            "t0": 34394, 
                            "v": 113, 
                            "dur": 14, 
                            "type": "note", 
                            "channel": 1
                        }, 
                        {
                            "pitch": 77, 
                            "t0": 34394, 
                            "v": 95, 
                            "dur": 16, 
                            "type": "note", 
                            "channel": 1
                        }
                    ]
                ], 
                [
                    34432, 
                    [
                        {
                            "pitch": 76, 
                            "t0": 34432, 
                            "v": 102, 
                            "dur": 33, 
                            "type": "note", 
                            "channel": 1
                        }
                    ]
                ], 
                [
                    34433, 
                    [
                        {
                            "pitch": 67, 
                            "t0": 34433, 
                            "v": 122, 
                            "dur": 30, 
                            "type": "note", 
                            "channel": 1
                        }
                    ]
                ], 
                [
                    34514, 
                    [
                        {
                            "pitch": 66, 
                            "t0": 34514, 
                            "v": 119, 
                            "dur": 44, 
                            "type": "note", 
                            "channel": 1
                        }, 
                        {
                            "pitch": 74, 
                            "t0": 34514, 
                            "v": 108, 
                            "dur": 145, 
                            "type": "note", 
                            "channel": 1
                        }
                    ]
                ], 
                [
                    34519, 
                    [
                        {
                            "pitch": 72, 
                            "t0": 34519, 
                            "v": 66, 
                            "dur": 5, 
                            "type": "note", 
                            "channel": 1
                        }
                    ]
                ], 
                [
                    34640, 
                    [
                        {
                            "pitch": 66, 
                            "t0": 34640, 
                            "v": 97, 
                            "dur": 86, 
                            "type": "note", 
                            "channel": 1
                        }
                    ]
                ], 
                [
                    34678, 
                    [
                        {
                            "pitch": 74, 
                            "t0": 34678, 
                            "v": 92, 
                            "dur": 92, 
                            "type": "note", 
                            "channel": 1
                        }
                    ]
                ], 
                [
                    34763, 
                    [
                        {
                            "pitch": 66, 
                            "t0": 34763, 
                            "v": 93, 
                            "dur": 16, 
                            "type": "note", 
                            "channel": 1
                        }
                    ]
                ], 
                [
                    34797, 
                    [
                        {
                            "pitch": 73, 
                            "t0": 34797, 
                            "v": 104, 
                            "dur": 64, 
                            "type": "note", 
                            "channel": 1
                        }
                    ]
                ], 
                [
                    34799, 
                    [
                        {
                            "pitch": 65, 
                            "t0": 34799, 
                            "v": 102, 
                            "dur": 42, 
                            "type": "note", 
                            "channel": 1
                        }
                    ]
                ], 
                [
                    34920, 
                    [
                        {
                            "pitch": 64, 
                            "t0": 34920, 
                            "v": 104, 
                            "dur": 47, 
                            "type": "note", 
                            "channel": 1
                        }, 
                        {
                            "pitch": 72, 
                            "t0": 34920, 
                            "v": 120, 
                            "dur": 70, 
                            "type": "note", 
                            "channel": 1
                        }
                    ]
                ], 
                [
                    35000, 
                    [
                        {
                            "pitch": 64, 
                            "t0": 35000, 
                            "v": 57, 
                            "dur": 10, 
                            "type": "note", 
                            "channel": 1
                        }
                    ]
                ], 
                [
                    35038, 
                    [
                        {
                            "pitch": 43, 
                            "t0": 35038, 
                            "v": 77, 
                            "dur": 144, 
                            "type": "note", 
                            "channel": 1
                        }
                    ]
                ], 
                [
                    35160, 
                    [
                        {
                            "pitch": 67, 
                            "t0": 35160, 
                            "v": 102, 
                            "dur": 64, 
                            "type": "note", 
                            "channel": 1
                        }, 
                        {
                            "pitch": 71, 
                            "t0": 35160, 
                            "v": 83, 
                            "dur": 64, 
                            "type": "note", 
                            "channel": 1
                        }
                    ]
                ], 
                [
                    35234, 
                    [
                        {
                            "pitch": 66, 
                            "t0": 35234, 
                            "v": 89, 
                            "dur": 29, 
                            "type": "note", 
                            "channel": 1
                        }
                    ]
                ], 
                [
                    35237, 
                    [
                        {
                            "pitch": 71, 
                            "t0": 35237, 
                            "v": 51, 
                            "dur": 26, 
                            "type": "note", 
                            "channel": 1
                        }
                    ]
                ], 
                [
                    35270, 
                    [
                        {
                            "pitch": 71, 
                            "t0": 35270, 
                            "v": 74, 
                            "dur": 65, 
                            "type": "note", 
                            "channel": 1
                        }
                    ]
                ], 
                [
                    35271, 
                    [
                        {
                            "pitch": 65, 
                            "t0": 35271, 
                            "v": 98, 
                            "dur": 71, 
                            "type": "note", 
                            "channel": 1
                        }
                    ]
                ], 
                [
                    35354, 
                    [
                        {
                            "pitch": 67, 
                            "t0": 35354, 
                            "v": 106, 
                            "dur": 26, 
                            "type": "note", 
                            "channel": 1
                        }, 
                        {
                            "pitch": 71, 
                            "t0": 35354, 
                            "v": 83, 
                            "dur": 100, 
                            "type": "note", 
                            "channel": 1
                        }
                    ]
                ], 
                [
                    35392, 
                    [
                        {
                            "pitch": 65, 
                            "t0": 35392, 
                            "v": 106, 
                            "dur": 50, 
                            "type": "note", 
                            "channel": 1
                        }
                    ]
                ], 
                [
                    35479, 
                    [
                        {
                            "pitch": 63, 
                            "t0": 35479, 
                            "v": 107, 
                            "dur": 33, 
                            "type": "note", 
                            "channel": 1
                        }
                    ]
                ], 
                [
                    35512, 
                    [
                        {
                            "pitch": 64, 
                            "t0": 35512, 
                            "v": 88, 
                            "dur": 175, 
                            "type": "note", 
                            "channel": 1
                        }
                    ]
                ], 
                [
                    35525, 
                    [
                        {
                            "pitch": 36, 
                            "t0": 35525, 
                            "v": 58, 
                            "dur": 36, 
                            "type": "note", 
                            "channel": 1
                        }
                    ]
                ], 
                [
                    35530, 
                    [
                        {
                            "pitch": 48, 
                            "t0": 35530, 
                            "v": 33, 
                            "dur": 32, 
                            "type": "note", 
                            "channel": 1
                        }
                    ]
                ], 
                [
                    35597, 
                    [
                        {
                            "pitch": 72, 
                            "t0": 35597, 
                            "v": 112, 
                            "dur": 266, 
                            "type": "note", 
                            "channel": 1
                        }
                    ]
                ], 
                [
                    35716, 
                    [
                        {
                            "pitch": 64, 
                            "t0": 35716, 
                            "v": 73, 
                            "dur": 87, 
                            "type": "note", 
                            "channel": 1
                        }
                    ]
                ], 
                [
                    35841, 
                    [
                        {
                            "pitch": 64, 
                            "t0": 35841, 
                            "v": 68, 
                            "dur": 76, 
                            "type": "note", 
                            "channel": 1
                        }
                    ]
                ], 
                [
                    35882, 
                    [
                        {
                            "pitch": 72, 
                            "t0": 35882, 
                            "v": 74, 
                            "dur": 77, 
                            "type": "note", 
                            "channel": 1
                        }
                    ]
                ], 
                [
                    36003, 
                    [
                        {
                            "pitch": 43, 
                            "t0": 36003, 
                            "v": 73, 
                            "dur": 51, 
                            "type": "note", 
                            "channel": 1
                        }
                    ]
                ], 
                [
                    36007, 
                    [
                        {
                            "pitch": 55, 
                            "t0": 36007, 
                            "v": 60, 
                            "dur": 100, 
                            "type": "note", 
                            "channel": 1
                        }
                    ]
                ], 
                [
                    36085, 
                    [
                        {
                            "pitch": 62, 
                            "t0": 36085, 
                            "v": 67, 
                            "dur": 62, 
                            "type": "note", 
                            "channel": 1
                        }
                    ]
                ], 
                [
                    36121, 
                    [
                        {
                            "pitch": 71, 
                            "t0": 36121, 
                            "v": 77, 
                            "dur": 60, 
                            "type": "note", 
                            "channel": 1
                        }, 
                        {
                            "pitch": 67, 
                            "t0": 36121, 
                            "v": 91, 
                            "dur": 61, 
                            "type": "note", 
                            "channel": 1
                        }
                    ]
                ], 
                [
                    36195, 
                    [
                        {
                            "pitch": 65, 
                            "t0": 36195, 
                            "v": 80, 
                            "dur": 135, 
                            "type": "note", 
                            "channel": 1
                        }
                    ]
                ], 
                [
                    36198, 
                    [
                        {
                            "pitch": 71, 
                            "t0": 36198, 
                            "v": 75, 
                            "dur": 94, 
                            "type": "note", 
                            "channel": 1
                        }
                    ]
                ], 
                [
                    36246, 
                    [
                        {
                            "pitch": 43, 
                            "t0": 36246, 
                            "v": 57, 
                            "dur": 20, 
                            "type": "note", 
                            "channel": 1
                        }
                    ]
                ], 
                [
                    36317, 
                    [
                        {
                            "pitch": 71, 
                            "t0": 36317, 
                            "v": 70, 
                            "dur": 27, 
                            "type": "note", 
                            "channel": 1
                        }
                    ]
                ], 
                [
                    36320, 
                    [
                        {
                            "pitch": 67, 
                            "t0": 36320, 
                            "v": 90, 
                            "dur": 24, 
                            "type": "note", 
                            "channel": 1
                        }
                    ]
                ], 
                [
                    36353, 
                    [
                        {
                            "pitch": 71, 
                            "t0": 36353, 
                            "v": 51, 
                            "dur": 92, 
                            "type": "note", 
                            "channel": 1
                        }
                    ]
                ], 
                [
                    36356, 
                    [
                        {
                            "pitch": 65, 
                            "t0": 36356, 
                            "v": 94, 
                            "dur": 75, 
                            "type": "note", 
                            "channel": 1
                        }
                    ]
                ], 
                [
                    36438, 
                    [
                        {
                            "pitch": 62, 
                            "t0": 36438, 
                            "v": 70, 
                            "dur": 18, 
                            "type": "note", 
                            "channel": 1
                        }
                    ]
                ], 
                [
                    36484, 
                    [
                        {
                            "pitch": 36, 
                            "t0": 36484, 
                            "v": 49, 
                            "dur": 82, 
                            "type": "note", 
                            "channel": 1
                        }, 
                        {
                            "pitch": 48, 
                            "t0": 36484, 
                            "v": 39, 
                            "dur": 89, 
                            "type": "note", 
                            "channel": 1
                        }
                    ]
                ], 
                [
                    36557, 
                    [
                        {
                            "pitch": 66, 
                            "t0": 36557, 
                            "v": 97, 
                            "dur": 25, 
                            "type": "note", 
                            "channel": 1
                        }
                    ]
                ], 
                [
                    36560, 
                    [
                        {
                            "pitch": 70, 
                            "t0": 36560, 
                            "v": 89, 
                            "dur": 32, 
                            "type": "note", 
                            "channel": 1
                        }, 
                        {
                            "pitch": 67, 
                            "t0": 36560, 
                            "v": 108, 
                            "dur": 32, 
                            "type": "note", 
                            "channel": 1
                        }
                    ]
                ], 
                [
                    36610, 
                    [
                        {
                            "pitch": 69, 
                            "t0": 36610, 
                            "v": 108, 
                            "dur": 37, 
                            "type": "note", 
                            "channel": 1
                        }
                    ]
                ], 
                [
                    36611, 
                    [
                        {
                            "pitch": 65, 
                            "t0": 36611, 
                            "v": 114, 
                            "dur": 35, 
                            "type": "note", 
                            "channel": 1
                        }
                    ]
                ], 
                [
                    36681, 
                    [
                        {
                            "pitch": 63, 
                            "t0": 36681, 
                            "v": 107, 
                            "dur": 28, 
                            "type": "note", 
                            "channel": 1
                        }
                    ]
                ], 
                [
                    36682, 
                    [
                        {
                            "pitch": 67, 
                            "t0": 36682, 
                            "v": 104, 
                            "dur": 209, 
                            "type": "note", 
                            "channel": 1
                        }
                    ]
                ], 
                [
                    36689, 
                    [
                        {
                            "pitch": 64, 
                            "t0": 36689, 
                            "v": 88, 
                            "dur": 137, 
                            "type": "note", 
                            "channel": 1
                        }
                    ]
                ], 
                [
                    36729, 
                    [
                        {
                            "pitch": 36, 
                            "t0": 36729, 
                            "v": 56, 
                            "dur": 30, 
                            "type": "note", 
                            "channel": 1
                        }
                    ]
                ], 
                [
                    36801, 
                    [
                        {
                            "pitch": 60, 
                            "t0": 36801, 
                            "v": 92, 
                            "dur": 65, 
                            "type": "note", 
                            "channel": 1
                        }
                    ]
                ], 
                [
                    36837, 
                    [
                        {
                            "pitch": 64, 
                            "t0": 36837, 
                            "v": 69, 
                            "dur": 47, 
                            "type": "note", 
                            "channel": 1
                        }
                    ]
                ], 
                [
                    36845, 
                    [
                        {
                            "pitch": 36, 
                            "t0": 36845, 
                            "v": 65, 
                            "dur": 28, 
                            "type": "note", 
                            "channel": 1
                        }
                    ]
                ], 
                [
                    36962, 
                    [
                        {
                            "pitch": 31, 
                            "t0": 36962, 
                            "v": 59, 
                            "dur": 40, 
                            "type": "note", 
                            "channel": 1
                        }
                    ]
                ], 
                [
                    36969, 
                    [
                        {
                            "pitch": 43, 
                            "t0": 36969, 
                            "v": 36, 
                            "dur": 44, 
                            "type": "note", 
                            "channel": 1
                        }
                    ]
                ], 
                [
                    37031, 
                    [
                        {
                            "pitch": 73, 
                            "t0": 37031, 
                            "v": 87, 
                            "dur": 19, 
                            "type": "note", 
                            "channel": 1
                        }
                    ]
                ], 
                [
                    37032, 
                    [
                        {
                            "pitch": 77, 
                            "t0": 37032, 
                            "v": 95, 
                            "dur": 23, 
                            "type": "note", 
                            "channel": 1
                        }
                    ]
                ], 
                [
                    37035, 
                    [
                        {
                            "pitch": 74, 
                            "t0": 37035, 
                            "v": 95, 
                            "dur": 20, 
                            "type": "note", 
                            "channel": 1
                        }
                    ]
                ], 
                [
                    37075, 
                    [
                        {
                            "pitch": 72, 
                            "t0": 37075, 
                            "v": 114, 
                            "dur": 45, 
                            "type": "note", 
                            "channel": 1
                        }, 
                        {
                            "pitch": 76, 
                            "t0": 37075, 
                            "v": 95, 
                            "dur": 47, 
                            "type": "note", 
                            "channel": 1
                        }
                    ]
                ], 
                [
                    37152, 
                    [
                        {
                            "pitch": 70, 
                            "t0": 37152, 
                            "v": 113, 
                            "dur": 26, 
                            "type": "note", 
                            "channel": 1
                        }
                    ]
                ], 
                [
                    37155, 
                    [
                        {
                            "pitch": 74, 
                            "t0": 37155, 
                            "v": 104, 
                            "dur": 262, 
                            "type": "note", 
                            "channel": 1
                        }
                    ]
                ], 
                [
                    37156, 
                    [
                        {
                            "pitch": 71, 
                            "t0": 37156, 
                            "v": 98, 
                            "dur": 107, 
                            "type": "note", 
                            "channel": 1
                        }
                    ]
                ], 
                [
                    37202, 
                    [
                        {
                            "pitch": 31, 
                            "t0": 37202, 
                            "v": 66, 
                            "dur": 26, 
                            "type": "note", 
                            "channel": 1
                        }
                    ]
                ], 
                [
                    37206, 
                    [
                        {
                            "pitch": 43, 
                            "t0": 37206, 
                            "v": 44, 
                            "dur": 21, 
                            "type": "note", 
                            "channel": 1
                        }
                    ]
                ], 
                [
                    37274, 
                    [
                        {
                            "pitch": 67, 
                            "t0": 37274, 
                            "v": 110, 
                            "dur": 57, 
                            "type": "note", 
                            "channel": 1
                        }
                    ]
                ], 
                [
                    37310, 
                    [
                        {
                            "pitch": 71, 
                            "t0": 37310, 
                            "v": 79, 
                            "dur": 95, 
                            "type": "note", 
                            "channel": 1
                        }
                    ]
                ], 
                [
                    37327, 
                    [
                        {
                            "pitch": 43, 
                            "t0": 37327, 
                            "v": 45, 
                            "dur": 21, 
                            "type": "note", 
                            "channel": 1
                        }
                    ]
                ], 
                [
                    37394, 
                    [
                        {
                            "pitch": 67, 
                            "t0": 37394, 
                            "v": 88, 
                            "dur": 21, 
                            "type": "note", 
                            "channel": 1
                        }
                    ]
                ], 
                [
                    37440, 
                    [
                        {
                            "pitch": 38, 
                            "t0": 37440, 
                            "v": 68, 
                            "dur": 32, 
                            "type": "note", 
                            "channel": 1
                        }
                    ]
                ], 
                [
                    37516, 
                    [
                        {
                            "pitch": 66, 
                            "t0": 37516, 
                            "v": 93, 
                            "dur": 70, 
                            "type": "note", 
                            "channel": 1
                        }, 
                        {
                            "pitch": 74, 
                            "t0": 37516, 
                            "v": 88, 
                            "dur": 275, 
                            "type": "note", 
                            "channel": 1
                        }
                    ]
                ], 
                [
                    37517, 
                    [
                        {
                            "pitch": 69, 
                            "t0": 37517, 
                            "v": 97, 
                            "dur": 222, 
                            "type": "note", 
                            "channel": 1
                        }
                    ]
                ], 
                [
                    37568, 
                    [
                        {
                            "pitch": 50, 
                            "t0": 37568, 
                            "v": 45, 
                            "dur": 14, 
                            "type": "note", 
                            "channel": 1
                        }
                    ]
                ], 
                [
                    37631, 
                    [
                        {
                            "pitch": 66, 
                            "t0": 37631, 
                            "v": 82, 
                            "dur": 68, 
                            "type": "note", 
                            "channel": 1
                        }
                    ]
                ], 
                [
                    37679, 
                    [
                        {
                            "pitch": 38, 
                            "t0": 37679, 
                            "v": 65, 
                            "dur": 30, 
                            "type": "note", 
                            "channel": 1
                        }
                    ]
                ], 
                [
                    37683, 
                    [
                        {
                            "pitch": 50, 
                            "t0": 37683, 
                            "v": 47, 
                            "dur": 24, 
                            "type": "note", 
                            "channel": 1
                        }
                    ]
                ], 
                [
                    37755, 
                    [
                        {
                            "pitch": 66, 
                            "t0": 37755, 
                            "v": 84, 
                            "dur": 21, 
                            "type": "note", 
                            "channel": 1
                        }
                    ]
                ], 
                [
                    37759, 
                    [
                        {
                            "pitch": 69, 
                            "t0": 37759, 
                            "v": 73, 
                            "dur": 13, 
                            "type": "note", 
                            "channel": 1
                        }
                    ]
                ], 
                [
                    37796, 
                    [
                        {
                            "pitch": 38, 
                            "t0": 37796, 
                            "v": 62, 
                            "dur": 35, 
                            "type": "note", 
                            "channel": 1
                        }
                    ]
                ], 
                [
                    37880, 
                    [
                        {
                            "pitch": 73, 
                            "t0": 37880, 
                            "v": 107, 
                            "dur": 25, 
                            "type": "note", 
                            "channel": 1
                        }
                    ]
                ], 
                [
                    37915, 
                    [
                        {
                            "pitch": 74, 
                            "t0": 37915, 
                            "v": 73, 
                            "dur": 65, 
                            "type": "note", 
                            "channel": 1
                        }
                    ]
                ], 
                [
                    37926, 
                    [
                        {
                            "pitch": 43, 
                            "t0": 37926, 
                            "v": 68, 
                            "dur": 17, 
                            "type": "note", 
                            "channel": 1
                        }
                    ]
                ], 
                [
                    37964, 
                    [
                        {
                            "pitch": 83, 
                            "t0": 37964, 
                            "v": 95, 
                            "dur": 46, 
                            "type": "note", 
                            "channel": 1
                        }
                    ]
                ], 
                [
                    38004, 
                    [
                        {
                            "pitch": 74, 
                            "t0": 38004, 
                            "v": 108, 
                            "dur": 54, 
                            "type": "note", 
                            "channel": 1
                        }
                    ]
                ], 
                [
                    38042, 
                    [
                        {
                            "pitch": 83, 
                            "t0": 38042, 
                            "v": 112, 
                            "dur": 48, 
                            "type": "note", 
                            "channel": 1
                        }
                    ]
                ], 
                [
                    38082, 
                    [
                        {
                            "pitch": 74, 
                            "t0": 38082, 
                            "v": 98, 
                            "dur": 49, 
                            "type": "note", 
                            "channel": 1
                        }
                    ]
                ], 
                [
                    38121, 
                    [
                        {
                            "pitch": 83, 
                            "t0": 38121, 
                            "v": 104, 
                            "dur": 29, 
                            "type": "note", 
                            "channel": 1
                        }
                    ]
                ], 
                [
                    38153, 
                    [
                        {
                            "pitch": 82, 
                            "t0": 38153, 
                            "v": 62, 
                            "dur": 62, 
                            "type": "note", 
                            "channel": 1
                        }
                    ]
                ], 
                [
                    38161, 
                    [
                        {
                            "pitch": 73, 
                            "t0": 38161, 
                            "v": 116, 
                            "dur": 29, 
                            "type": "note", 
                            "channel": 1
                        }
                    ]
                ], 
                [
                    38207, 
                    [
                        {
                            "pitch": 73, 
                            "t0": 38207, 
                            "v": 87, 
                            "dur": 43, 
                            "type": "note", 
                            "channel": 1
                        }
                    ]
                ], 
                [
                    38229, 
                    [
                        {
                            "pitch": 82, 
                            "t0": 38229, 
                            "v": 47, 
                            "dur": 34, 
                            "type": "note", 
                            "channel": 1
                        }
                    ]
                ], 
                [
                    38276, 
                    [
                        {
                            "pitch": 81, 
                            "t0": 38276, 
                            "v": 102, 
                            "dur": 99, 
                            "type": "note", 
                            "channel": 1
                        }
                    ]
                ], 
                [
                    38278, 
                    [
                        {
                            "pitch": 72, 
                            "t0": 38278, 
                            "v": 95, 
                            "dur": 42, 
                            "type": "note", 
                            "channel": 1
                        }
                    ]
                ], 
                [
                    38363, 
                    [
                        {
                            "pitch": 72, 
                            "t0": 38363, 
                            "v": 84, 
                            "dur": 20, 
                            "type": "note", 
                            "channel": 1
                        }
                    ]
                ], 
                [
                    38399, 
                    [
                        {
                            "pitch": 79, 
                            "t0": 38399, 
                            "v": 110, 
                            "dur": 33, 
                            "type": "note", 
                            "channel": 1
                        }
                    ]
                ], 
                [
                    38400, 
                    [
                        {
                            "pitch": 71, 
                            "t0": 38400, 
                            "v": 117, 
                            "dur": 22, 
                            "type": "note", 
                            "channel": 1
                        }
                    ]
                ], 
                [
                    46405, 
                    [
                        {
                            "pitch": 74, 
                            "t0": 46405, 
                            "v": 56, 
                            "dur": 22, 
                            "type": "note", 
                            "channel": 1
                        }
                    ]
                ], 
                [
                    46438, 
                    [
                        {
                            "pitch": 76, 
                            "t0": 46438, 
                            "v": 92, 
                            "dur": 60, 
                            "type": "note", 
                            "channel": 1
                        }
                    ]
                ], 
                [
                    46517, 
                    [
                        {
                            "pitch": 79, 
                            "t0": 46517, 
                            "v": 80, 
                            "dur": 15, 
                            "type": "note", 
                            "channel": 1
                        }
                    ]
                ], 
                [
                    46557, 
                    [
                        {
                            "pitch": 86, 
                            "t0": 46557, 
                            "v": 79, 
                            "dur": 66, 
                            "type": "note", 
                            "channel": 1
                        }
                    ]
                ], 
                [
                    46559, 
                    [
                        {
                            "pitch": 84, 
                            "t0": 46559, 
                            "v": 88, 
                            "dur": 36, 
                            "type": "note", 
                            "channel": 1
                        }
                    ]
                ], 
                [
                    46560, 
                    [
                        {
                            "pitch": 81, 
                            "t0": 46560, 
                            "v": 102, 
                            "dur": 44, 
                            "type": "note", 
                            "channel": 1
                        }
                    ]
                ], 
                [
                    46564, 
                    [
                        {
                            "pitch": 83, 
                            "t0": 46564, 
                            "v": 98, 
                            "dur": 55, 
                            "type": "note", 
                            "channel": 1
                        }
                    ]
                ], 
                [
                    46635, 
                    [
                        {
                            "pitch": 81, 
                            "t0": 46635, 
                            "v": 87, 
                            "dur": 35, 
                            "type": "note", 
                            "channel": 1
                        }
                    ]
                ], 
                [
                    46637, 
                    [
                        {
                            "pitch": 86, 
                            "t0": 46637, 
                            "v": 80, 
                            "dur": 142, 
                            "type": "note", 
                            "channel": 1
                        }
                    ]
                ], 
                [
                    46641, 
                    [
                        {
                            "pitch": 83, 
                            "t0": 46641, 
                            "v": 97, 
                            "dur": 107, 
                            "type": "note", 
                            "channel": 1
                        }
                    ]
                ], 
                [
                    46762, 
                    [
                        {
                            "pitch": 79, 
                            "t0": 46762, 
                            "v": 83, 
                            "dur": 19, 
                            "type": "note", 
                            "channel": 1
                        }
                    ]
                ], 
                [
                    46797, 
                    [
                        {
                            "pitch": 86, 
                            "t0": 46797, 
                            "v": 88, 
                            "dur": 66, 
                            "type": "note", 
                            "channel": 1
                        }
                    ]
                ], 
                [
                    46800, 
                    [
                        {
                            "pitch": 83, 
                            "t0": 46800, 
                            "v": 114, 
                            "dur": 28, 
                            "type": "note", 
                            "channel": 1
                        }
                    ]
                ], 
                [
                    46841, 
                    [
                        {
                            "pitch": 81, 
                            "t0": 46841, 
                            "v": 97, 
                            "dur": 30, 
                            "type": "note", 
                            "channel": 1
                        }
                    ]
                ], 
                [
                    46872, 
                    [
                        {
                            "pitch": 86, 
                            "t0": 46872, 
                            "v": 39, 
                            "dur": 16, 
                            "type": "note", 
                            "channel": 1
                        }, 
                        {
                            "pitch": 79, 
                            "t0": 46872, 
                            "v": 97, 
                            "dur": 23, 
                            "type": "note", 
                            "channel": 1
                        }
                    ]
                ], 
                [
                    46915, 
                    [
                        {
                            "pitch": 81, 
                            "t0": 46915, 
                            "v": 106, 
                            "dur": 69, 
                            "type": "note", 
                            "channel": 1
                        }, 
                        {
                            "pitch": 86, 
                            "t0": 46915, 
                            "v": 102, 
                            "dur": 77, 
                            "type": "note", 
                            "channel": 1
                        }
                    ]
                ], 
                [
                    47000, 
                    [
                        {
                            "pitch": 79, 
                            "t0": 47000, 
                            "v": 92, 
                            "dur": 21, 
                            "type": "note", 
                            "channel": 1
                        }
                    ]
                ], 
                [
                    47040, 
                    [
                        {
                            "pitch": 82, 
                            "t0": 47040, 
                            "v": 99, 
                            "dur": 22, 
                            "type": "note", 
                            "channel": 1
                        }
                    ]
                ], 
                [
                    47042, 
                    [
                        {
                            "pitch": 88, 
                            "t0": 47042, 
                            "v": 100, 
                            "dur": 78, 
                            "type": "note", 
                            "channel": 1
                        }
                    ]
                ], 
                [
                    47070, 
                    [
                        {
                            "pitch": 81, 
                            "t0": 47070, 
                            "v": 85, 
                            "dur": 24, 
                            "type": "note", 
                            "channel": 1
                        }
                    ]
                ], 
                [
                    47113, 
                    [
                        {
                            "pitch": 79, 
                            "t0": 47113, 
                            "v": 72, 
                            "dur": 22, 
                            "type": "note", 
                            "channel": 1
                        }
                    ]
                ], 
                [
                    47158, 
                    [
                        {
                            "pitch": 81, 
                            "t0": 47158, 
                            "v": 98, 
                            "dur": 59, 
                            "type": "note", 
                            "channel": 1
                        }
                    ]
                ], 
                [
                    47160, 
                    [
                        {
                            "pitch": 88, 
                            "t0": 47160, 
                            "v": 102, 
                            "dur": 54, 
                            "type": "note", 
                            "channel": 1
                        }
                    ]
                ], 
                [
                    47238, 
                    [
                        {
                            "pitch": 79, 
                            "t0": 47238, 
                            "v": 97, 
                            "dur": 79, 
                            "type": "note", 
                            "channel": 1
                        }
                    ]
                ], 
                [
                    47243, 
                    [
                        {
                            "pitch": 88, 
                            "t0": 47243, 
                            "v": 97, 
                            "dur": 132, 
                            "type": "note", 
                            "channel": 1
                        }
                    ]
                ], 
                [
                    47359, 
                    [
                        {
                            "pitch": 79, 
                            "t0": 47359, 
                            "v": 97, 
                            "dur": 23, 
                            "type": "note", 
                            "channel": 1
                        }
                    ]
                ], 
                [
                    47392, 
                    [
                        {
                            "pitch": 81, 
                            "t0": 47392, 
                            "v": 91, 
                            "dur": 49, 
                            "type": "note", 
                            "channel": 1
                        }
                    ]
                ], 
                [
                    47395, 
                    [
                        {
                            "pitch": 88, 
                            "t0": 47395, 
                            "v": 108, 
                            "dur": 63, 
                            "type": "note", 
                            "channel": 1
                        }
                    ]
                ], 
                [
                    47475, 
                    [
                        {
                            "pitch": 79, 
                            "t0": 47475, 
                            "v": 94, 
                            "dur": 18, 
                            "type": "note", 
                            "channel": 1
                        }
                    ]
                ], 
                [
                    47510, 
                    [
                        {
                            "pitch": 89, 
                            "t0": 47510, 
                            "v": 92, 
                            "dur": 70, 
                            "type": "note", 
                            "channel": 1
                        }
                    ]
                ], 
                [
                    47511, 
                    [
                        {
                            "pitch": 85, 
                            "t0": 47511, 
                            "v": 91, 
                            "dur": 21, 
                            "type": "note", 
                            "channel": 1
                        }
                    ]
                ], 
                [
                    47513, 
                    [
                        {
                            "pitch": 86, 
                            "t0": 47513, 
                            "v": 102, 
                            "dur": 59, 
                            "type": "note", 
                            "channel": 1
                        }
                    ]
                ], 
                [
                    47595, 
                    [
                        {
                            "pitch": 79, 
                            "t0": 47595, 
                            "v": 70, 
                            "dur": 11, 
                            "type": "note", 
                            "channel": 1
                        }
                    ]
                ], 
                [
                    47628, 
                    [
                        {
                            "pitch": 88, 
                            "t0": 47628, 
                            "v": 106, 
                            "dur": 59, 
                            "type": "note", 
                            "channel": 1
                        }
                    ]
                ], 
                [
                    47629, 
                    [
                        {
                            "pitch": 84, 
                            "t0": 47629, 
                            "v": 106, 
                            "dur": 59, 
                            "type": "note", 
                            "channel": 1
                        }
                    ]
                ], 
                [
                    47724, 
                    [
                        {
                            "pitch": 79, 
                            "t0": 47724, 
                            "v": 44, 
                            "dur": 8, 
                            "type": "note", 
                            "channel": 1
                        }
                    ]
                ], 
                [
                    47750, 
                    [
                        {
                            "pitch": 82, 
                            "t0": 47750, 
                            "v": 75, 
                            "dur": 21, 
                            "type": "note", 
                            "channel": 1
                        }, 
                        {
                            "pitch": 86, 
                            "t0": 47750, 
                            "v": 86, 
                            "dur": 104, 
                            "type": "note", 
                            "channel": 1
                        }
                    ]
                ], 
                [
                    47756, 
                    [
                        {
                            "pitch": 83, 
                            "t0": 47756, 
                            "v": 95, 
                            "dur": 64, 
                            "type": "note", 
                            "channel": 1
                        }
                    ]
                ], 
                [
                    47838, 
                    [
                        {
                            "pitch": 79, 
                            "t0": 47838, 
                            "v": 97, 
                            "dur": 20, 
                            "type": "note", 
                            "channel": 1
                        }
                    ]
                ], 
                [
                    47874, 
                    [
                        {
                            "pitch": 77, 
                            "t0": 47874, 
                            "v": 117, 
                            "dur": 44, 
                            "type": "note", 
                            "channel": 1
                        }
                    ]
                ], 
                [
                    47955, 
                    [
                        {
                            "pitch": 79, 
                            "t0": 47955, 
                            "v": 92, 
                            "dur": 36, 
                            "type": "note", 
                            "channel": 1
                        }
                    ]
                ], 
                [
                    47983, 
                    [
                        {
                            "pitch": 83, 
                            "t0": 47983, 
                            "v": 88, 
                            "dur": 36, 
                            "type": "note", 
                            "channel": 1
                        }
                    ]
                ], 
                [
                    48012, 
                    [
                        {
                            "pitch": 79, 
                            "t0": 48012, 
                            "v": 83, 
                            "dur": 23, 
                            "type": "note", 
                            "channel": 1
                        }
                    ]
                ], 
                [
                    48036, 
                    [
                        {
                            "pitch": 83, 
                            "t0": 48036, 
                            "v": 73, 
                            "dur": 25, 
                            "type": "note", 
                            "channel": 1
                        }
                    ]
                ], 
                [
                    48060, 
                    [
                        {
                            "pitch": 79, 
                            "t0": 48060, 
                            "v": 84, 
                            "dur": 22, 
                            "type": "note", 
                            "channel": 1
                        }
                    ]
                ], 
                [
                    48082, 
                    [
                        {
                            "pitch": 83, 
                            "t0": 48082, 
                            "v": 78, 
                            "dur": 28, 
                            "type": "note", 
                            "channel": 1
                        }
                    ]
                ], 
                [
                    48103, 
                    [
                        {
                            "pitch": 79, 
                            "t0": 48103, 
                            "v": 72, 
                            "dur": 23, 
                            "type": "note", 
                            "channel": 1
                        }
                    ]
                ], 
                [
                    48128, 
                    [
                        {
                            "pitch": 83, 
                            "t0": 48128, 
                            "v": 65, 
                            "dur": 22, 
                            "type": "note", 
                            "channel": 1
                        }
                    ]
                ], 
                [
                    48145, 
                    [
                        {
                            "pitch": 79, 
                            "t0": 48145, 
                            "v": 66, 
                            "dur": 26, 
                            "type": "note", 
                            "channel": 1
                        }
                    ]
                ], 
                [
                    48172, 
                    [
                        {
                            "pitch": 83, 
                            "t0": 48172, 
                            "v": 73, 
                            "dur": 22, 
                            "type": "note", 
                            "channel": 1
                        }
                    ]
                ], 
                [
                    48192, 
                    [
                        {
                            "pitch": 79, 
                            "t0": 48192, 
                            "v": 66, 
                            "dur": 24, 
                            "type": "note", 
                            "channel": 1
                        }
                    ]
                ], 
                [
                    48218, 
                    [
                        {
                            "pitch": 83, 
                            "t0": 48218, 
                            "v": 73, 
                            "dur": 24, 
                            "type": "note", 
                            "channel": 1
                        }
                    ]
                ], 
                [
                    48238, 
                    [
                        {
                            "pitch": 79, 
                            "t0": 48238, 
                            "v": 74, 
                            "dur": 26, 
                            "type": "note", 
                            "channel": 1
                        }
                    ]
                ], 
                [
                    48262, 
                    [
                        {
                            "pitch": 83, 
                            "t0": 48262, 
                            "v": 73, 
                            "dur": 23, 
                            "type": "note", 
                            "channel": 1
                        }
                    ]
                ], 
                [
                    48286, 
                    [
                        {
                            "pitch": 79, 
                            "t0": 48286, 
                            "v": 77, 
                            "dur": 23, 
                            "type": "note", 
                            "channel": 1
                        }
                    ]
                ], 
                [
                    48314, 
                    [
                        {
                            "pitch": 83, 
                            "t0": 48314, 
                            "v": 68, 
                            "dur": 18, 
                            "type": "note", 
                            "channel": 1
                        }
                    ]
                ], 
                [
                    48334, 
                    [
                        {
                            "pitch": 79, 
                            "t0": 48334, 
                            "v": 77, 
                            "dur": 25, 
                            "type": "note", 
                            "channel": 1
                        }
                    ]
                ], 
                [
                    48357, 
                    [
                        {
                            "pitch": 83, 
                            "t0": 48357, 
                            "v": 73, 
                            "dur": 29, 
                            "type": "note", 
                            "channel": 1
                        }
                    ]
                ], 
                [
                    48436, 
                    [
                        {
                            "pitch": 79, 
                            "t0": 48436, 
                            "v": 74, 
                            "dur": 22, 
                            "type": "note", 
                            "channel": 1
                        }
                    ]
                ], 
                [
                    48472, 
                    [
                        {
                            "pitch": 89, 
                            "t0": 48472, 
                            "v": 90, 
                            "dur": 62, 
                            "type": "note", 
                            "channel": 1
                        }
                    ]
                ], 
                [
                    48474, 
                    [
                        {
                            "pitch": 85, 
                            "t0": 48474, 
                            "v": 87, 
                            "dur": 20, 
                            "type": "note", 
                            "channel": 1
                        }
                    ]
                ], 
                [
                    48476, 
                    [
                        {
                            "pitch": 86, 
                            "t0": 48476, 
                            "v": 95, 
                            "dur": 61, 
                            "type": "note", 
                            "channel": 1
                        }
                    ]
                ], 
                [
                    48554, 
                    [
                        {
                            "pitch": 85, 
                            "t0": 48554, 
                            "v": 93, 
                            "dur": 22, 
                            "type": "note", 
                            "channel": 1
                        }
                    ]
                ], 
                [
                    48555, 
                    [
                        {
                            "pitch": 89, 
                            "t0": 48555, 
                            "v": 100, 
                            "dur": 49, 
                            "type": "note", 
                            "channel": 1
                        }
                    ]
                ], 
                [
                    48557, 
                    [
                        {
                            "pitch": 86, 
                            "t0": 48557, 
                            "v": 97, 
                            "dur": 48, 
                            "type": "note", 
                            "channel": 1
                        }
                    ]
                ], 
                [
                    48679, 
                    [
                        {
                            "pitch": 88, 
                            "t0": 48679, 
                            "v": 85, 
                            "dur": 18, 
                            "type": "note", 
                            "channel": 1
                        }
                    ]
                ], 
                [
                    48681, 
                    [
                        {
                            "pitch": 84, 
                            "t0": 48681, 
                            "v": 85, 
                            "dur": 17, 
                            "type": "note", 
                            "channel": 1
                        }
                    ]
                ], 
                [
                    48719, 
                    [
                        {
                            "pitch": 82, 
                            "t0": 48719, 
                            "v": 107, 
                            "dur": 21, 
                            "type": "note", 
                            "channel": 1
                        }
                    ]
                ], 
                [
                    48722, 
                    [
                        {
                            "pitch": 86, 
                            "t0": 48722, 
                            "v": 97, 
                            "dur": 85, 
                            "type": "note", 
                            "channel": 1
                        }
                    ]
                ], 
                [
                    48727, 
                    [
                        {
                            "pitch": 83, 
                            "t0": 48727, 
                            "v": 86, 
                            "dur": 62, 
                            "type": "note", 
                            "channel": 1
                        }
                    ]
                ], 
                [
                    48805, 
                    [
                        {
                            "pitch": 79, 
                            "t0": 48805, 
                            "v": 98, 
                            "dur": 18, 
                            "type": "note", 
                            "channel": 1
                        }
                    ]
                ], 
                [
                    48917, 
                    [
                        {
                            "pitch": 85, 
                            "t0": 48917, 
                            "v": 97, 
                            "dur": 15, 
                            "type": "note", 
                            "channel": 1
                        }
                    ]
                ], 
                [
                    48920, 
                    [
                        {
                            "pitch": 86, 
                            "t0": 48920, 
                            "v": 100, 
                            "dur": 17, 
                            "type": "note", 
                            "channel": 1
                        }, 
                        {
                            "pitch": 91, 
                            "t0": 48920, 
                            "v": 104, 
                            "dur": 18, 
                            "type": "note", 
                            "channel": 1
                        }
                    ]
                ], 
                [
                    48954, 
                    [
                        {
                            "pitch": 91, 
                            "t0": 48954, 
                            "v": 56, 
                            "dur": 26, 
                            "type": "note", 
                            "channel": 1
                        }, 
                        {
                            "pitch": 86, 
                            "t0": 48954, 
                            "v": 88, 
                            "dur": 27, 
                            "type": "note", 
                            "channel": 1
                        }
                    ]
                ], 
                [
                    48999, 
                    [
                        {
                            "pitch": 86, 
                            "t0": 48999, 
                            "v": 85, 
                            "dur": 23, 
                            "type": "note", 
                            "channel": 1
                        }
                    ]
                ], 
                [
                    49000, 
                    [
                        {
                            "pitch": 91, 
                            "t0": 49000, 
                            "v": 62, 
                            "dur": 21, 
                            "type": "note", 
                            "channel": 1
                        }
                    ]
                ], 
                [
                    49036, 
                    [
                        {
                            "pitch": 86, 
                            "t0": 49036, 
                            "v": 72, 
                            "dur": 26, 
                            "type": "note", 
                            "channel": 1
                        }
                    ]
                ], 
                [
                    49042, 
                    [
                        {
                            "pitch": 91, 
                            "t0": 49042, 
                            "v": 54, 
                            "dur": 11, 
                            "type": "note", 
                            "channel": 1
                        }
                    ]
                ], 
                [
                    49082, 
                    [
                        {
                            "pitch": 86, 
                            "t0": 49082, 
                            "v": 106, 
                            "dur": 32, 
                            "type": "note", 
                            "channel": 1
                        }
                    ]
                ], 
                [
                    49084, 
                    [
                        {
                            "pitch": 91, 
                            "t0": 49084, 
                            "v": 83, 
                            "dur": 24, 
                            "type": "note", 
                            "channel": 1
                        }
                    ]
                ], 
                [
                    49124, 
                    [
                        {
                            "pitch": 86, 
                            "t0": 49124, 
                            "v": 36, 
                            "dur": 6, 
                            "type": "note", 
                            "channel": 1
                        }
                    ]
                ], 
                [
                    49125, 
                    [
                        {
                            "pitch": 85, 
                            "t0": 49125, 
                            "v": 101, 
                            "dur": 19, 
                            "type": "note", 
                            "channel": 1
                        }
                    ]
                ], 
                [
                    49161, 
                    [
                        {
                            "pitch": 84, 
                            "t0": 49161, 
                            "v": 97, 
                            "dur": 19, 
                            "type": "note", 
                            "channel": 1
                        }
                    ]
                ], 
                [
                    49204, 
                    [
                        {
                            "pitch": 86, 
                            "t0": 49204, 
                            "v": 86, 
                            "dur": 101, 
                            "type": "note", 
                            "channel": 1
                        }
                    ]
                ], 
                [
                    49205, 
                    [
                        {
                            "pitch": 82, 
                            "t0": 49205, 
                            "v": 104, 
                            "dur": 19, 
                            "type": "note", 
                            "channel": 1
                        }
                    ]
                ], 
                [
                    49209, 
                    [
                        {
                            "pitch": 83, 
                            "t0": 49209, 
                            "v": 97, 
                            "dur": 45, 
                            "type": "note", 
                            "channel": 1
                        }
                    ]
                ], 
                [
                    49210, 
                    [
                        {
                            "pitch": 84, 
                            "t0": 49210, 
                            "v": 98, 
                            "dur": 42, 
                            "type": "note", 
                            "channel": 1
                        }
                    ]
                ], 
                [
                    49285, 
                    [
                        {
                            "pitch": 79, 
                            "t0": 49285, 
                            "v": 91, 
                            "dur": 26, 
                            "type": "note", 
                            "channel": 1
                        }
                    ]
                ], 
                [
                    49326, 
                    [
                        {
                            "pitch": 79, 
                            "t0": 49326, 
                            "v": 70, 
                            "dur": 33, 
                            "type": "note", 
                            "channel": 1
                        }, 
                        {
                            "pitch": 86, 
                            "t0": 49326, 
                            "v": 73, 
                            "dur": 62, 
                            "type": "note", 
                            "channel": 1
                        }
                    ]
                ], 
                [
                    49407, 
                    [
                        {
                            "pitch": 79, 
                            "t0": 49407, 
                            "v": 80, 
                            "dur": 19, 
                            "type": "note", 
                            "channel": 1
                        }
                    ]
                ], 
                [
                    49416, 
                    [
                        {
                            "pitch": 86, 
                            "t0": 49416, 
                            "v": 44, 
                            "dur": 7, 
                            "type": "note", 
                            "channel": 1
                        }
                    ]
                ], 
                [
                    49444, 
                    [
                        {
                            "pitch": 80, 
                            "t0": 49444, 
                            "v": 89, 
                            "dur": 12, 
                            "type": "note", 
                            "channel": 1
                        }
                    ]
                ], 
                [
                    49445, 
                    [
                        {
                            "pitch": 86, 
                            "t0": 49445, 
                            "v": 83, 
                            "dur": 22, 
                            "type": "note", 
                            "channel": 1
                        }
                    ]
                ], 
                [
                    49447, 
                    [
                        {
                            "pitch": 81, 
                            "t0": 49447, 
                            "v": 98, 
                            "dur": 17, 
                            "type": "note", 
                            "channel": 1
                        }
                    ]
                ], 
                [
                    49481, 
                    [
                        {
                            "pitch": 81, 
                            "t0": 49481, 
                            "v": 97, 
                            "dur": 20, 
                            "type": "note", 
                            "channel": 1
                        }, 
                        {
                            "pitch": 86, 
                            "t0": 49481, 
                            "v": 70, 
                            "dur": 20, 
                            "type": "note", 
                            "channel": 1
                        }
                    ]
                ], 
                [
                    49521, 
                    [
                        {
                            "pitch": 86, 
                            "t0": 49521, 
                            "v": 73, 
                            "dur": 21, 
                            "type": "note", 
                            "channel": 1
                        }
                    ]
                ], 
                [
                    49522, 
                    [
                        {
                            "pitch": 81, 
                            "t0": 49522, 
                            "v": 87, 
                            "dur": 20, 
                            "type": "note", 
                            "channel": 1
                        }
                    ]
                ], 
                [
                    49562, 
                    [
                        {
                            "pitch": 81, 
                            "t0": 49562, 
                            "v": 86, 
                            "dur": 23, 
                            "type": "note", 
                            "channel": 1
                        }, 
                        {
                            "pitch": 86, 
                            "t0": 49562, 
                            "v": 73, 
                            "dur": 24, 
                            "type": "note", 
                            "channel": 1
                        }
                    ]
                ], 
                [
                    49604, 
                    [
                        {
                            "pitch": 86, 
                            "t0": 49604, 
                            "v": 62, 
                            "dur": 19, 
                            "type": "note", 
                            "channel": 1
                        }, 
                        {
                            "pitch": 81, 
                            "t0": 49604, 
                            "v": 81, 
                            "dur": 20, 
                            "type": "note", 
                            "channel": 1
                        }
                    ]
                ], 
                [
                    49644, 
                    [
                        {
                            "pitch": 86, 
                            "t0": 49644, 
                            "v": 68, 
                            "dur": 17, 
                            "type": "note", 
                            "channel": 1
                        }, 
                        {
                            "pitch": 81, 
                            "t0": 49644, 
                            "v": 87, 
                            "dur": 19, 
                            "type": "note", 
                            "channel": 1
                        }
                    ]
                ], 
                [
                    49680, 
                    [
                        {
                            "pitch": 86, 
                            "t0": 49680, 
                            "v": 83, 
                            "dur": 28, 
                            "type": "note", 
                            "channel": 1
                        }, 
                        {
                            "pitch": 81, 
                            "t0": 49680, 
                            "v": 100, 
                            "dur": 36, 
                            "type": "note", 
                            "channel": 1
                        }
                    ]
                ], 
                [
                    49750, 
                    [
                        {
                            "pitch": 81, 
                            "t0": 49750, 
                            "v": 57, 
                            "dur": 28, 
                            "type": "note", 
                            "channel": 1
                        }
                    ]
                ], 
                [
                    49755, 
                    [
                        {
                            "pitch": 86, 
                            "t0": 49755, 
                            "v": 38, 
                            "dur": 19, 
                            "type": "note", 
                            "channel": 1
                        }
                    ]
                ], 
                [
                    49798, 
                    [
                        {
                            "pitch": 81, 
                            "t0": 49798, 
                            "v": 100, 
                            "dur": 37, 
                            "type": "note", 
                            "channel": 1
                        }, 
                        {
                            "pitch": 86, 
                            "t0": 49798, 
                            "v": 80, 
                            "dur": 50, 
                            "type": "note", 
                            "channel": 1
                        }
                    ]
                ], 
                [
                    49839, 
                    [
                        {
                            "pitch": 80, 
                            "t0": 49839, 
                            "v": 97, 
                            "dur": 18, 
                            "type": "note", 
                            "channel": 1
                        }
                    ]
                ], 
                [
                    49876, 
                    [
                        {
                            "pitch": 79, 
                            "t0": 49876, 
                            "v": 98, 
                            "dur": 20, 
                            "type": "note", 
                            "channel": 1
                        }
                    ]
                ], 
                [
                    49921, 
                    [
                        {
                            "pitch": 77, 
                            "t0": 49921, 
                            "v": 112, 
                            "dur": 27, 
                            "type": "note", 
                            "channel": 1
                        }, 
                        {
                            "pitch": 81, 
                            "t0": 49921, 
                            "v": 98, 
                            "dur": 108, 
                            "type": "note", 
                            "channel": 1
                        }
                    ]
                ], 
                [
                    49924, 
                    [
                        {
                            "pitch": 78, 
                            "t0": 49924, 
                            "v": 110, 
                            "dur": 62, 
                            "type": "note", 
                            "channel": 1
                        }
                    ]
                ], 
                [
                    50000, 
                    [
                        {
                            "pitch": 74, 
                            "t0": 50000, 
                            "v": 91, 
                            "dur": 25, 
                            "type": "note", 
                            "channel": 1
                        }
                    ]
                ], 
                [
                    50005, 
                    [
                        {
                            "pitch": 76, 
                            "t0": 50005, 
                            "v": 73, 
                            "dur": 6, 
                            "type": "note", 
                            "channel": 1
                        }
                    ]
                ], 
                [
                    50039, 
                    [
                        {
                            "pitch": 81, 
                            "t0": 50039, 
                            "v": 54, 
                            "dur": 39, 
                            "type": "note", 
                            "channel": 1
                        }, 
                        {
                            "pitch": 74, 
                            "t0": 50039, 
                            "v": 80, 
                            "dur": 41, 
                            "type": "note", 
                            "channel": 1
                        }
                    ]
                ], 
                [
                    50104, 
                    [
                        {
                            "pitch": 73, 
                            "t0": 50104, 
                            "v": 81, 
                            "dur": 13, 
                            "type": "note", 
                            "channel": 1
                        }
                    ]
                ], 
                [
                    50118, 
                    [
                        {
                            "pitch": 72, 
                            "t0": 50118, 
                            "v": 92, 
                            "dur": 50, 
                            "type": "note", 
                            "channel": 1
                        }
                    ]
                ], 
                [
                    50169, 
                    [
                        {
                            "pitch": 78, 
                            "t0": 50169, 
                            "v": 87, 
                            "dur": 36, 
                            "type": "note", 
                            "channel": 1
                        }
                    ]
                ], 
                [
                    50189, 
                    [
                        {
                            "pitch": 72, 
                            "t0": 50189, 
                            "v": 62, 
                            "dur": 30, 
                            "type": "note", 
                            "channel": 1
                        }
                    ]
                ], 
                [
                    50218, 
                    [
                        {
                            "pitch": 78, 
                            "t0": 50218, 
                            "v": 35, 
                            "dur": 29, 
                            "type": "note", 
                            "channel": 1
                        }
                    ]
                ], 
                [
                    50235, 
                    [
                        {
                            "pitch": 72, 
                            "t0": 50235, 
                            "v": 73, 
                            "dur": 33, 
                            "type": "note", 
                            "channel": 1
                        }
                    ]
                ], 
                [
                    50262, 
                    [
                        {
                            "pitch": 78, 
                            "t0": 50262, 
                            "v": 61, 
                            "dur": 37, 
                            "type": "note", 
                            "channel": 1
                        }
                    ]
                ], 
                [
                    50283, 
                    [
                        {
                            "pitch": 72, 
                            "t0": 50283, 
                            "v": 66, 
                            "dur": 31, 
                            "type": "note", 
                            "channel": 1
                        }
                    ]
                ], 
                [
                    50310, 
                    [
                        {
                            "pitch": 78, 
                            "t0": 50310, 
                            "v": 31, 
                            "dur": 27, 
                            "type": "note", 
                            "channel": 1
                        }
                    ]
                ], 
                [
                    50338, 
                    [
                        {
                            "pitch": 72, 
                            "t0": 50338, 
                            "v": 60, 
                            "dur": 14, 
                            "type": "note", 
                            "channel": 1
                        }
                    ]
                ], 
                [
                    50517, 
                    [
                        {
                            "pitch": 73, 
                            "t0": 50517, 
                            "v": 67, 
                            "dur": 18, 
                            "type": "note", 
                            "channel": 1
                        }
                    ]
                ], 
                [
                    50524, 
                    [
                        {
                            "pitch": 77, 
                            "t0": 50524, 
                            "v": 57, 
                            "dur": 42, 
                            "type": "note", 
                            "channel": 1
                        }
                    ]
                ], 
                [
                    50525, 
                    [
                        {
                            "pitch": 74, 
                            "t0": 50525, 
                            "v": 70, 
                            "dur": 48, 
                            "type": "note", 
                            "channel": 1
                        }
                    ]
                ], 
                [
                    50611, 
                    [
                        {
                            "pitch": 72, 
                            "t0": 50611, 
                            "v": 79, 
                            "dur": 19, 
                            "type": "note", 
                            "channel": 1
                        }
                    ]
                ], 
                [
                    50612, 
                    [
                        {
                            "pitch": 76, 
                            "t0": 50612, 
                            "v": 68, 
                            "dur": 19, 
                            "type": "note", 
                            "channel": 1
                        }
                    ]
                ], 
                [
                    50652, 
                    [
                        {
                            "pitch": 70, 
                            "t0": 50652, 
                            "v": 93, 
                            "dur": 23, 
                            "type": "note", 
                            "channel": 1
                        }
                    ]
                ], 
                [
                    50660, 
                    [
                        {
                            "pitch": 71, 
                            "t0": 50660, 
                            "v": 94, 
                            "dur": 47, 
                            "type": "note", 
                            "channel": 1
                        }
                    ]
                ], 
                [
                    50662, 
                    [
                        {
                            "pitch": 74, 
                            "t0": 50662, 
                            "v": 71, 
                            "dur": 71, 
                            "type": "note", 
                            "channel": 1
                        }
                    ]
                ], 
                [
                    50728, 
                    [
                        {
                            "pitch": 67, 
                            "t0": 50728, 
                            "v": 98, 
                            "dur": 19, 
                            "type": "note", 
                            "channel": 1
                        }
                    ]
                ], 
                [
                    50960, 
                    [
                        {
                            "pitch": 55, 
                            "t0": 50960, 
                            "v": 79, 
                            "dur": 15, 
                            "type": "note", 
                            "channel": 1
                        }
                    ]
                ], 
                [
                    50962, 
                    [
                        {
                            "pitch": 60, 
                            "t0": 50962, 
                            "v": 90, 
                            "dur": 12, 
                            "type": "note", 
                            "channel": 1
                        }, 
                        {
                            "pitch": 64, 
                            "t0": 50962, 
                            "v": 84, 
                            "dur": 13, 
                            "type": "note", 
                            "channel": 1
                        }
                    ]
                ], 
                [
                    51084, 
                    [
                        {
                            "pitch": 55, 
                            "t0": 51084, 
                            "v": 78, 
                            "dur": 21, 
                            "type": "note", 
                            "channel": 1
                        }
                    ]
                ], 
                [
                    51117, 
                    [
                        {
                            "pitch": 60, 
                            "t0": 51117, 
                            "v": 97, 
                            "dur": 188, 
                            "type": "note", 
                            "channel": 1
                        }
                    ]
                ], 
                [
                    51119, 
                    [
                        {
                            "pitch": 64, 
                            "t0": 51119, 
                            "v": 83, 
                            "dur": 141, 
                            "type": "note", 
                            "channel": 1
                        }
                    ]
                ], 
                [
                    51120, 
                    [
                        {
                            "pitch": 55, 
                            "t0": 51120, 
                            "v": 70, 
                            "dur": 57, 
                            "type": "note", 
                            "channel": 1
                        }
                    ]
                ], 
                [
                    51198, 
                    [
                        {
                            "pitch": 55, 
                            "t0": 51198, 
                            "v": 80, 
                            "dur": 22, 
                            "type": "note", 
                            "channel": 1
                        }
                    ]
                ], 
                [
                    51241, 
                    [
                        {
                            "pitch": 55, 
                            "t0": 51241, 
                            "v": 61, 
                            "dur": 37, 
                            "type": "note", 
                            "channel": 1
                        }
                    ]
                ], 
                [
                    51322, 
                    [
                        {
                            "pitch": 55, 
                            "t0": 51322, 
                            "v": 86, 
                            "dur": 20, 
                            "type": "note", 
                            "channel": 1
                        }
                    ]
                ], 
                [
                    51357, 
                    [
                        {
                            "pitch": 59, 
                            "t0": 51357, 
                            "v": 106, 
                            "dur": 63, 
                            "type": "note", 
                            "channel": 1
                        }
                    ]
                ], 
                [
                    51360, 
                    [
                        {
                            "pitch": 55, 
                            "t0": 51360, 
                            "v": 85, 
                            "dur": 48, 
                            "type": "note", 
                            "channel": 1
                        }, 
                        {
                            "pitch": 31, 
                            "t0": 51360, 
                            "v": 100, 
                            "dur": 49, 
                            "type": "note", 
                            "channel": 1
                        }
                    ]
                ], 
                [
                    51361, 
                    [
                        {
                            "pitch": 43, 
                            "t0": 51361, 
                            "v": 86, 
                            "dur": 52, 
                            "type": "note", 
                            "channel": 1
                        }
                    ]
                ], 
                [
                    51442, 
                    [
                        {
                            "pitch": 55, 
                            "t0": 51442, 
                            "v": 65, 
                            "dur": 13, 
                            "type": "note", 
                            "channel": 1
                        }
                    ]
                ], 
                [
                    51476, 
                    [
                        {
                            "pitch": 60, 
                            "t0": 51476, 
                            "v": 108, 
                            "dur": 54, 
                            "type": "note", 
                            "channel": 1
                        }, 
                        {
                            "pitch": 57, 
                            "t0": 51476, 
                            "v": 104, 
                            "dur": 54, 
                            "type": "note", 
                            "channel": 1
                        }
                    ]
                ], 
                [
                    51478, 
                    [
                        {
                            "pitch": 33, 
                            "t0": 51478, 
                            "v": 98, 
                            "dur": 40, 
                            "type": "note", 
                            "channel": 1
                        }
                    ]
                ], 
                [
                    51480, 
                    [
                        {
                            "pitch": 55, 
                            "t0": 51480, 
                            "v": 85, 
                            "dur": 13, 
                            "type": "note", 
                            "channel": 1
                        }
                    ]
                ], 
                [
                    51568, 
                    [
                        {
                            "pitch": 55, 
                            "t0": 51568, 
                            "v": 50, 
                            "dur": 6, 
                            "type": "note", 
                            "channel": 1
                        }
                    ]
                ], 
                [
                    51596, 
                    [
                        {
                            "pitch": 58, 
                            "t0": 51596, 
                            "v": 101, 
                            "dur": 61, 
                            "type": "note", 
                            "channel": 1
                        }
                    ]
                ], 
                [
                    51597, 
                    [
                        {
                            "pitch": 61, 
                            "t0": 51597, 
                            "v": 95, 
                            "dur": 68, 
                            "type": "note", 
                            "channel": 1
                        }
                    ]
                ], 
                [
                    51598, 
                    [
                        {
                            "pitch": 55, 
                            "t0": 51598, 
                            "v": 92, 
                            "dur": 42, 
                            "type": "note", 
                            "channel": 1
                        }
                    ]
                ], 
                [
                    51603, 
                    [
                        {
                            "pitch": 44, 
                            "t0": 51603, 
                            "v": 70, 
                            "dur": 29, 
                            "type": "note", 
                            "channel": 1
                        }, 
                        {
                            "pitch": 34, 
                            "t0": 51603, 
                            "v": 77, 
                            "dur": 40, 
                            "type": "note", 
                            "channel": 1
                        }
                    ]
                ], 
                [
                    51685, 
                    [
                        {
                            "pitch": 55, 
                            "t0": 51685, 
                            "v": 66, 
                            "dur": 15, 
                            "type": "note", 
                            "channel": 1
                        }
                    ]
                ], 
                [
                    51717, 
                    [
                        {
                            "pitch": 62, 
                            "t0": 51717, 
                            "v": 100, 
                            "dur": 48, 
                            "type": "note", 
                            "channel": 1
                        }, 
                        {
                            "pitch": 59, 
                            "t0": 51717, 
                            "v": 117, 
                            "dur": 52, 
                            "type": "note", 
                            "channel": 1
                        }
                    ]
                ], 
                [
                    51720, 
                    [
                        {
                            "pitch": 55, 
                            "t0": 51720, 
                            "v": 60, 
                            "dur": 39, 
                            "type": "note", 
                            "channel": 1
                        }
                    ]
                ], 
                [
                    51721, 
                    [
                        {
                            "pitch": 35, 
                            "t0": 51721, 
                            "v": 73, 
                            "dur": 34, 
                            "type": "note", 
                            "channel": 1
                        }
                    ]
                ], 
                [
                    51724, 
                    [
                        {
                            "pitch": 57, 
                            "t0": 51724, 
                            "v": 65, 
                            "dur": 8, 
                            "type": "note", 
                            "channel": 1
                        }
                    ]
                ], 
                [
                    51793, 
                    [
                        {
                            "pitch": 64, 
                            "t0": 51793, 
                            "v": 100, 
                            "dur": 31, 
                            "type": "note", 
                            "channel": 1
                        }
                    ]
                ], 
                [
                    51817, 
                    [
                        {
                            "pitch": 60, 
                            "t0": 51817, 
                            "v": 80, 
                            "dur": 28, 
                            "type": "note", 
                            "channel": 1
                        }
                    ]
                ], 
                [
                    51834, 
                    [
                        {
                            "pitch": 36, 
                            "t0": 51834, 
                            "v": 70, 
                            "dur": 76, 
                            "type": "note", 
                            "channel": 1
                        }
                    ]
                ], 
                [
                    51840, 
                    [
                        {
                            "pitch": 64, 
                            "t0": 51840, 
                            "v": 75, 
                            "dur": 31, 
                            "type": "note", 
                            "channel": 1
                        }
                    ]
                ], 
                [
                    51870, 
                    [
                        {
                            "pitch": 60, 
                            "t0": 51870, 
                            "v": 73, 
                            "dur": 22, 
                            "type": "note", 
                            "channel": 1
                        }
                    ]
                ], 
                [
                    51892, 
                    [
                        {
                            "pitch": 64, 
                            "t0": 51892, 
                            "v": 72, 
                            "dur": 29, 
                            "type": "note", 
                            "channel": 1
                        }
                    ]
                ], 
                [
                    51916, 
                    [
                        {
                            "pitch": 60, 
                            "t0": 51916, 
                            "v": 78, 
                            "dur": 24, 
                            "type": "note", 
                            "channel": 1
                        }
                    ]
                ], 
                [
                    51942, 
                    [
                        {
                            "pitch": 64, 
                            "t0": 51942, 
                            "v": 66, 
                            "dur": 28, 
                            "type": "note", 
                            "channel": 1
                        }
                    ]
                ], 
                [
                    51955, 
                    [
                        {
                            "pitch": 45, 
                            "t0": 51955, 
                            "v": 63, 
                            "dur": 31, 
                            "type": "note", 
                            "channel": 1
                        }
                    ]
                ], 
                [
                    51959, 
                    [
                        {
                            "pitch": 60, 
                            "t0": 51959, 
                            "v": 80, 
                            "dur": 29, 
                            "type": "note", 
                            "channel": 1
                        }
                    ]
                ], 
                [
                    51986, 
                    [
                        {
                            "pitch": 64, 
                            "t0": 51986, 
                            "v": 66, 
                            "dur": 29, 
                            "type": "note", 
                            "channel": 1
                        }
                    ]
                ], 
                [
                    52006, 
                    [
                        {
                            "pitch": 60, 
                            "t0": 52006, 
                            "v": 75, 
                            "dur": 30, 
                            "type": "note", 
                            "channel": 1
                        }
                    ]
                ], 
                [
                    52033, 
                    [
                        {
                            "pitch": 64, 
                            "t0": 52033, 
                            "v": 63, 
                            "dur": 29, 
                            "type": "note", 
                            "channel": 1
                        }
                    ]
                ], 
                [
                    52051, 
                    [
                        {
                            "pitch": 60, 
                            "t0": 52051, 
                            "v": 66, 
                            "dur": 33, 
                            "type": "note", 
                            "channel": 1
                        }
                    ]
                ], 
                [
                    52070, 
                    [
                        {
                            "pitch": 43, 
                            "t0": 52070, 
                            "v": 67, 
                            "dur": 33, 
                            "type": "note", 
                            "channel": 1
                        }
                    ]
                ], 
                [
                    52079, 
                    [
                        {
                            "pitch": 64, 
                            "t0": 52079, 
                            "v": 66, 
                            "dur": 29, 
                            "type": "note", 
                            "channel": 1
                        }
                    ]
                ], 
                [
                    52103, 
                    [
                        {
                            "pitch": 60, 
                            "t0": 52103, 
                            "v": 68, 
                            "dur": 30, 
                            "type": "note", 
                            "channel": 1
                        }
                    ]
                ], 
                [
                    52128, 
                    [
                        {
                            "pitch": 64, 
                            "t0": 52128, 
                            "v": 66, 
                            "dur": 29, 
                            "type": "note", 
                            "channel": 1
                        }
                    ]
                ], 
                [
                    52147, 
                    [
                        {
                            "pitch": 60, 
                            "t0": 52147, 
                            "v": 60, 
                            "dur": 31, 
                            "type": "note", 
                            "channel": 1
                        }
                    ]
                ], 
                [
                    52178, 
                    [
                        {
                            "pitch": 64, 
                            "t0": 52178, 
                            "v": 60, 
                            "dur": 28, 
                            "type": "note", 
                            "channel": 1
                        }
                    ]
                ], 
                [
                    52189, 
                    [
                        {
                            "pitch": 40, 
                            "t0": 52189, 
                            "v": 64, 
                            "dur": 41, 
                            "type": "note", 
                            "channel": 1
                        }
                    ]
                ], 
                [
                    52197, 
                    [
                        {
                            "pitch": 60, 
                            "t0": 52197, 
                            "v": 74, 
                            "dur": 31, 
                            "type": "note", 
                            "channel": 1
                        }
                    ]
                ], 
                [
                    52228, 
                    [
                        {
                            "pitch": 64, 
                            "t0": 52228, 
                            "v": 65, 
                            "dur": 32, 
                            "type": "note", 
                            "channel": 1
                        }
                    ]
                ], 
                [
                    52254, 
                    [
                        {
                            "pitch": 60, 
                            "t0": 52254, 
                            "v": 73, 
                            "dur": 36, 
                            "type": "note", 
                            "channel": 1
                        }
                    ]
                ], 
                [
                    52261, 
                    [
                        {
                            "pitch": 38, 
                            "t0": 52261, 
                            "v": 49, 
                            "dur": 38, 
                            "type": "note", 
                            "channel": 1
                        }
                    ]
                ], 
                [
                    52311, 
                    [
                        {
                            "pitch": 31, 
                            "t0": 52311, 
                            "v": 91, 
                            "dur": 89, 
                            "type": "note", 
                            "channel": 1
                        }
                    ]
                ], 
                [
                    52394, 
                    [
                        {
                            "pitch": 55, 
                            "t0": 52394, 
                            "v": 78, 
                            "dur": 15, 
                            "type": "note", 
                            "channel": 1
                        }
                    ]
                ], 
                [
                    52395, 
                    [
                        {
                            "pitch": 62, 
                            "t0": 52395, 
                            "v": 86, 
                            "dur": 14, 
                            "type": "note", 
                            "channel": 1
                        }
                    ]
                ], 
                [
                    52396, 
                    [
                        {
                            "pitch": 59, 
                            "t0": 52396, 
                            "v": 95, 
                            "dur": 12, 
                            "type": "note", 
                            "channel": 1
                        }
                    ]
                ], 
                [
                    52434, 
                    [
                        {
                            "pitch": 35, 
                            "t0": 52434, 
                            "v": 88, 
                            "dur": 102, 
                            "type": "note", 
                            "channel": 1
                        }
                    ]
                ], 
                [
                    52516, 
                    [
                        {
                            "pitch": 55, 
                            "t0": 52516, 
                            "v": 70, 
                            "dur": 66, 
                            "type": "note", 
                            "channel": 1
                        }, 
                        {
                            "pitch": 59, 
                            "t0": 52516, 
                            "v": 94, 
                            "dur": 104, 
                            "type": "note", 
                            "channel": 1
                        }, 
                        {
                            "pitch": 62, 
                            "t0": 52516, 
                            "v": 77, 
                            "dur": 137, 
                            "type": "note", 
                            "channel": 1
                        }
                    ]
                ], 
                [
                    52556, 
                    [
                        {
                            "pitch": 36, 
                            "t0": 52556, 
                            "v": 90, 
                            "dur": 102, 
                            "type": "note", 
                            "channel": 1
                        }
                    ]
                ], 
                [
                    52637, 
                    [
                        {
                            "pitch": 55, 
                            "t0": 52637, 
                            "v": 73, 
                            "dur": 62, 
                            "type": "note", 
                            "channel": 1
                        }
                    ]
                ], 
                [
                    52645, 
                    [
                        {
                            "pitch": 59, 
                            "t0": 52645, 
                            "v": 46, 
                            "dur": 10, 
                            "type": "note", 
                            "channel": 1
                        }
                    ]
                ], 
                [
                    52673, 
                    [
                        {
                            "pitch": 59, 
                            "t0": 52673, 
                            "v": 76, 
                            "dur": 77, 
                            "type": "note", 
                            "channel": 1
                        }, 
                        {
                            "pitch": 62, 
                            "t0": 52673, 
                            "v": 74, 
                            "dur": 83, 
                            "type": "note", 
                            "channel": 1
                        }
                    ]
                ], 
                [
                    52679, 
                    [
                        {
                            "pitch": 37, 
                            "t0": 52679, 
                            "v": 78, 
                            "dur": 98, 
                            "type": "note", 
                            "channel": 1
                        }
                    ]
                ], 
                [
                    52758, 
                    [
                        {
                            "pitch": 55, 
                            "t0": 52758, 
                            "v": 90, 
                            "dur": 21, 
                            "type": "note", 
                            "channel": 1
                        }
                    ]
                ], 
                [
                    52797, 
                    [
                        {
                            "pitch": 38, 
                            "t0": 52797, 
                            "v": 97, 
                            "dur": 97, 
                            "type": "note", 
                            "channel": 1
                        }
                    ]
                ], 
                [
                    52878, 
                    [
                        {
                            "pitch": 54, 
                            "t0": 52878, 
                            "v": 89, 
                            "dur": 15, 
                            "type": "note", 
                            "channel": 1
                        }
                    ]
                ], 
                [
                    52879, 
                    [
                        {
                            "pitch": 57, 
                            "t0": 52879, 
                            "v": 86, 
                            "dur": 17, 
                            "type": "note", 
                            "channel": 1
                        }
                    ]
                ], 
                [
                    52880, 
                    [
                        {
                            "pitch": 62, 
                            "t0": 52880, 
                            "v": 77, 
                            "dur": 17, 
                            "type": "note", 
                            "channel": 1
                        }
                    ]
                ], 
                [
                    52917, 
                    [
                        {
                            "pitch": 36, 
                            "t0": 52917, 
                            "v": 85, 
                            "dur": 103, 
                            "type": "note", 
                            "channel": 1
                        }
                    ]
                ], 
                [
                    52997, 
                    [
                        {
                            "pitch": 54, 
                            "t0": 52997, 
                            "v": 82, 
                            "dur": 21, 
                            "type": "note", 
                            "channel": 1
                        }, 
                        {
                            "pitch": 62, 
                            "t0": 52997, 
                            "v": 72, 
                            "dur": 113, 
                            "type": "note", 
                            "channel": 1
                        }, 
                        {
                            "pitch": 57, 
                            "t0": 52997, 
                            "v": 81, 
                            "dur": 136, 
                            "type": "note", 
                            "channel": 1
                        }
                    ]
                ], 
                [
                    53034, 
                    [
                        {
                            "pitch": 35, 
                            "t0": 53034, 
                            "v": 98, 
                            "dur": 109, 
                            "type": "note", 
                            "channel": 1
                        }
                    ]
                ], 
                [
                    53118, 
                    [
                        {
                            "pitch": 54, 
                            "t0": 53118, 
                            "v": 67, 
                            "dur": 60, 
                            "type": "note", 
                            "channel": 1
                        }
                    ]
                ], 
                [
                    53155, 
                    [
                        {
                            "pitch": 57, 
                            "t0": 53155, 
                            "v": 85, 
                            "dur": 71, 
                            "type": "note", 
                            "channel": 1
                        }
                    ]
                ], 
                [
                    53156, 
                    [
                        {
                            "pitch": 62, 
                            "t0": 53156, 
                            "v": 73, 
                            "dur": 78, 
                            "type": "note", 
                            "channel": 1
                        }
                    ]
                ], 
                [
                    53157, 
                    [
                        {
                            "pitch": 33, 
                            "t0": 53157, 
                            "v": 92, 
                            "dur": 81, 
                            "type": "note", 
                            "channel": 1
                        }
                    ]
                ], 
                [
                    53240, 
                    [
                        {
                            "pitch": 54, 
                            "t0": 53240, 
                            "v": 75, 
                            "dur": 12, 
                            "type": "note", 
                            "channel": 1
                        }
                    ]
                ], 
                [
                    53279, 
                    [
                        {
                            "pitch": 31, 
                            "t0": 53279, 
                            "v": 97, 
                            "dur": 112, 
                            "type": "note", 
                            "channel": 1
                        }
                    ]
                ], 
                [
                    53280, 
                    [
                        {
                            "pitch": 43, 
                            "t0": 53280, 
                            "v": 65, 
                            "dur": 14, 
                            "type": "note", 
                            "channel": 1
                        }, 
                        {
                            "pitch": 62, 
                            "t0": 53280, 
                            "v": 62, 
                            "dur": 14, 
                            "type": "note", 
                            "channel": 1
                        }
                    ]
                ], 
                [
                    53358, 
                    [
                        {
                            "pitch": 55, 
                            "t0": 53358, 
                            "v": 66, 
                            "dur": 18, 
                            "type": "note", 
                            "channel": 1
                        }
                    ]
                ], 
                [
                    53396, 
                    [
                        {
                            "pitch": 59, 
                            "t0": 53396, 
                            "v": 106, 
                            "dur": 94, 
                            "type": "note", 
                            "channel": 1
                        }, 
                        {
                            "pitch": 62, 
                            "t0": 53396, 
                            "v": 92, 
                            "dur": 112, 
                            "type": "note", 
                            "channel": 1
                        }
                    ]
                ], 
                [
                    53397, 
                    [
                        {
                            "pitch": 55, 
                            "t0": 53397, 
                            "v": 92, 
                            "dur": 53, 
                            "type": "note", 
                            "channel": 1
                        }
                    ]
                ], 
                [
                    53398, 
                    [
                        {
                            "pitch": 43, 
                            "t0": 53398, 
                            "v": 90, 
                            "dur": 114, 
                            "type": "note", 
                            "channel": 1
                        }
                    ]
                ], 
                [
                    53485, 
                    [
                        {
                            "pitch": 55, 
                            "t0": 53485, 
                            "v": 78, 
                            "dur": 57, 
                            "type": "note", 
                            "channel": 1
                        }
                    ]
                ], 
                [
                    53523, 
                    [
                        {
                            "pitch": 40, 
                            "t0": 53523, 
                            "v": 95, 
                            "dur": 74, 
                            "type": "note", 
                            "channel": 1
                        }
                    ]
                ], 
                [
                    53537, 
                    [
                        {
                            "pitch": 62, 
                            "t0": 53537, 
                            "v": 22, 
                            "dur": 54, 
                            "type": "note", 
                            "channel": 1
                        }
                    ]
                ], 
                [
                    53601, 
                    [
                        {
                            "pitch": 55, 
                            "t0": 53601, 
                            "v": 79, 
                            "dur": 23, 
                            "type": "note", 
                            "channel": 1
                        }
                    ]
                ], 
                [
                    53612, 
                    [
                        {
                            "pitch": 38, 
                            "t0": 53612, 
                            "v": 95, 
                            "dur": 40, 
                            "type": "note", 
                            "channel": 1
                        }
                    ]
                ], 
                [
                    53641, 
                    [
                        {
                            "pitch": 59, 
                            "t0": 53641, 
                            "v": 87, 
                            "dur": 66, 
                            "type": "note", 
                            "channel": 1
                        }
                    ]
                ], 
                [
                    53644, 
                    [
                        {
                            "pitch": 55, 
                            "t0": 53644, 
                            "v": 50, 
                            "dur": 25, 
                            "type": "note", 
                            "channel": 1
                        }
                    ]
                ], 
                [
                    53645, 
                    [
                        {
                            "pitch": 35, 
                            "t0": 53645, 
                            "v": 110, 
                            "dur": 97, 
                            "type": "note", 
                            "channel": 1
                        }
                    ]
                ], 
                [
                    53716, 
                    [
                        {
                            "pitch": 38, 
                            "t0": 53716, 
                            "v": 61, 
                            "dur": 28, 
                            "type": "note", 
                            "channel": 1
                        }
                    ]
                ], 
                [
                    53726, 
                    [
                        {
                            "pitch": 55, 
                            "t0": 53726, 
                            "v": 60, 
                            "dur": 15, 
                            "type": "note", 
                            "channel": 1
                        }
                    ]
                ], 
                [
                    53761, 
                    [
                        {
                            "pitch": 55, 
                            "t0": 53761, 
                            "v": 102, 
                            "dur": 28, 
                            "type": "note", 
                            "channel": 1
                        }, 
                        {
                            "pitch": 62, 
                            "t0": 53761, 
                            "v": 112, 
                            "dur": 36, 
                            "type": "note", 
                            "channel": 1
                        }, 
                        {
                            "pitch": 59, 
                            "t0": 53761, 
                            "v": 127, 
                            "dur": 37, 
                            "type": "note", 
                            "channel": 1
                        }
                    ]
                ], 
                [
                    53763, 
                    [
                        {
                            "pitch": 31, 
                            "t0": 53763, 
                            "v": 127, 
                            "dur": 43, 
                            "type": "note", 
                            "channel": 1
                        }
                    ]
                ], 
                [
                    54363, 
                    [
                        {
                            "pitch": 60, 
                            "t0": 54363, 
                            "v": 58, 
                            "dur": 282, 
                            "type": "note", 
                            "channel": 1
                        }, 
                        {
                            "pitch": 64, 
                            "t0": 54363, 
                            "v": 59, 
                            "dur": 295, 
                            "type": "note", 
                            "channel": 1
                        }
                    ]
                ], 
                [
                    54365, 
                    [
                        {
                            "pitch": 55, 
                            "t0": 54365, 
                            "v": 52, 
                            "dur": 267, 
                            "type": "note", 
                            "channel": 1
                        }
                    ]
                ], 
                [
                    54683, 
                    [
                        {
                            "pitch": 63, 
                            "t0": 54683, 
                            "v": 97, 
                            "dur": 26, 
                            "type": "note", 
                            "channel": 1
                        }
                    ]
                ], 
                [
                    54711, 
                    [
                        {
                            "pitch": 64, 
                            "t0": 54711, 
                            "v": 84, 
                            "dur": 425, 
                            "type": "note", 
                            "channel": 1
                        }
                    ]
                ], 
                [
                    54721, 
                    [
                        {
                            "pitch": 72, 
                            "t0": 54721, 
                            "v": 97, 
                            "dur": 436, 
                            "type": "note", 
                            "channel": 1
                        }
                    ]
                ], 
                [
                    54969, 
                    [
                        {
                            "pitch": 43, 
                            "t0": 54969, 
                            "v": 54, 
                            "dur": 15, 
                            "type": "note", 
                            "channel": 1
                        }
                    ]
                ], 
                [
                    55203, 
                    [
                        {
                            "pitch": 43, 
                            "t0": 55203, 
                            "v": 54, 
                            "dur": 36, 
                            "type": "note", 
                            "channel": 1
                        }
                    ]
                ], 
                [
                    55383, 
                    [
                        {
                            "pitch": 73, 
                            "t0": 55383, 
                            "v": 56, 
                            "dur": 33, 
                            "type": "note", 
                            "channel": 1
                        }
                    ]
                ], 
                [
                    55417, 
                    [
                        {
                            "pitch": 74, 
                            "t0": 55417, 
                            "v": 86, 
                            "dur": 62, 
                            "type": "note", 
                            "channel": 1
                        }
                    ]
                ], 
                [
                    55435, 
                    [
                        {
                            "pitch": 83, 
                            "t0": 55435, 
                            "v": 70, 
                            "dur": 44, 
                            "type": "note", 
                            "channel": 1
                        }
                    ]
                ], 
                [
                    55456, 
                    [
                        {
                            "pitch": 50, 
                            "t0": 55456, 
                            "v": 42, 
                            "dur": 23, 
                            "type": "note", 
                            "channel": 1
                        }
                    ]
                ], 
                [
                    55519, 
                    [
                        {
                            "pitch": 82, 
                            "t0": 55519, 
                            "v": 73, 
                            "dur": 19, 
                            "type": "note", 
                            "channel": 1
                        }
                    ]
                ], 
                [
                    55520, 
                    [
                        {
                            "pitch": 73, 
                            "t0": 55520, 
                            "v": 70, 
                            "dur": 12, 
                            "type": "note", 
                            "channel": 1
                        }
                    ]
                ], 
                [
                    55547, 
                    [
                        {
                            "pitch": 81, 
                            "t0": 55547, 
                            "v": 73, 
                            "dur": 36, 
                            "type": "note", 
                            "channel": 1
                        }
                    ]
                ], 
                [
                    55550, 
                    [
                        {
                            "pitch": 72, 
                            "t0": 55550, 
                            "v": 66, 
                            "dur": 29, 
                            "type": "note", 
                            "channel": 1
                        }
                    ]
                ], 
                [
                    55638, 
                    [
                        {
                            "pitch": 71, 
                            "t0": 55638, 
                            "v": 75, 
                            "dur": 181, 
                            "type": "note", 
                            "channel": 1
                        }, 
                        {
                            "pitch": 79, 
                            "t0": 55638, 
                            "v": 71, 
                            "dur": 208, 
                            "type": "note", 
                            "channel": 1
                        }
                    ]
                ], 
                [
                    55692, 
                    [
                        {
                            "pitch": 43, 
                            "t0": 55692, 
                            "v": 31, 
                            "dur": 37, 
                            "type": "note", 
                            "channel": 1
                        }
                    ]
                ], 
                [
                    55693, 
                    [
                        {
                            "pitch": 55, 
                            "t0": 55693, 
                            "v": 30, 
                            "dur": 35, 
                            "type": "note", 
                            "channel": 1
                        }
                    ]
                ], 
                [
                    55885, 
                    [
                        {
                            "pitch": 75, 
                            "t0": 55885, 
                            "v": 58, 
                            "dur": 14, 
                            "type": "note", 
                            "channel": 1
                        }
                    ]
                ], 
                [
                    55894, 
                    [
                        {
                            "pitch": 74, 
                            "t0": 55894, 
                            "v": 65, 
                            "dur": 64, 
                            "type": "note", 
                            "channel": 1
                        }
                    ]
                ], 
                [
                    55925, 
                    [
                        {
                            "pitch": 83, 
                            "t0": 55925, 
                            "v": 69, 
                            "dur": 41, 
                            "type": "note", 
                            "channel": 1
                        }
                    ]
                ], 
                [
                    55928, 
                    [
                        {
                            "pitch": 43, 
                            "t0": 55928, 
                            "v": 46, 
                            "dur": 25, 
                            "type": "note", 
                            "channel": 1
                        }
                    ]
                ], 
                [
                    56044, 
                    [
                        {
                            "pitch": 75, 
                            "t0": 56044, 
                            "v": 66, 
                            "dur": 33, 
                            "type": "note", 
                            "channel": 1
                        }, 
                        {
                            "pitch": 84, 
                            "t0": 56044, 
                            "v": 88, 
                            "dur": 40, 
                            "type": "note", 
                            "channel": 1
                        }
                    ]
                ], 
                [
                    56178, 
                    [
                        {
                            "pitch": 45, 
                            "t0": 56178, 
                            "v": 47, 
                            "dur": 30, 
                            "type": "note", 
                            "channel": 1
                        }
                    ]
                ], 
                [
                    56183, 
                    [
                        {
                            "pitch": 57, 
                            "t0": 56183, 
                            "v": 35, 
                            "dur": 23, 
                            "type": "note", 
                            "channel": 1
                        }
                    ]
                ], 
                [
                    56358, 
                    [
                        {
                            "pitch": 75, 
                            "t0": 56358, 
                            "v": 65, 
                            "dur": 20, 
                            "type": "note", 
                            "channel": 1
                        }
                    ]
                ], 
                [
                    56380, 
                    [
                        {
                            "pitch": 76, 
                            "t0": 56380, 
                            "v": 80, 
                            "dur": 52, 
                            "type": "note", 
                            "channel": 1
                        }
                    ]
                ], 
                [
                    56402, 
                    [
                        {
                            "pitch": 85, 
                            "t0": 56402, 
                            "v": 82, 
                            "dur": 53, 
                            "type": "note", 
                            "channel": 1
                        }
                    ]
                ], 
                [
                    56480, 
                    [
                        {
                            "pitch": 75, 
                            "t0": 56480, 
                            "v": 89, 
                            "dur": 15, 
                            "type": "note", 
                            "channel": 1
                        }, 
                        {
                            "pitch": 84, 
                            "t0": 56480, 
                            "v": 70, 
                            "dur": 15, 
                            "type": "note", 
                            "channel": 1
                        }
                    ]
                ], 
                [
                    56520, 
                    [
                        {
                            "pitch": 83, 
                            "t0": 56520, 
                            "v": 88, 
                            "dur": 35, 
                            "type": "note", 
                            "channel": 1
                        }
                    ]
                ], 
                [
                    56522, 
                    [
                        {
                            "pitch": 74, 
                            "t0": 56522, 
                            "v": 90, 
                            "dur": 24, 
                            "type": "note", 
                            "channel": 1
                        }
                    ]
                ], 
                [
                    56599, 
                    [
                        {
                            "pitch": 81, 
                            "t0": 56599, 
                            "v": 84, 
                            "dur": 152, 
                            "type": "note", 
                            "channel": 1
                        }
                    ]
                ], 
                [
                    56600, 
                    [
                        {
                            "pitch": 73, 
                            "t0": 56600, 
                            "v": 93, 
                            "dur": 87, 
                            "type": "note", 
                            "channel": 1
                        }
                    ]
                ], 
                [
                    56642, 
                    [
                        {
                            "pitch": 45, 
                            "t0": 56642, 
                            "v": 68, 
                            "dur": 212, 
                            "type": "note", 
                            "channel": 1
                        }
                    ]
                ], 
                [
                    56728, 
                    [
                        {
                            "pitch": 73, 
                            "t0": 56728, 
                            "v": 60, 
                            "dur": 85, 
                            "type": "note", 
                            "channel": 1
                        }
                    ]
                ], 
                [
                    56766, 
                    [
                        {
                            "pitch": 81, 
                            "t0": 56766, 
                            "v": 71, 
                            "dur": 60, 
                            "type": "note", 
                            "channel": 1
                        }
                    ]
                ], 
                [
                    56834, 
                    [
                        {
                            "pitch": 73, 
                            "t0": 56834, 
                            "v": 57, 
                            "dur": 81, 
                            "type": "note", 
                            "channel": 1
                        }
                    ]
                ], 
                [
                    56838, 
                    [
                        {
                            "pitch": 81, 
                            "t0": 56838, 
                            "v": 72, 
                            "dur": 133, 
                            "type": "note", 
                            "channel": 1
                        }
                    ]
                ], 
                [
                    56882, 
                    [
                        {
                            "pitch": 40, 
                            "t0": 56882, 
                            "v": 58, 
                            "dur": 37, 
                            "type": "note", 
                            "channel": 1
                        }
                    ]
                ], 
                [
                    56956, 
                    [
                        {
                            "pitch": 73, 
                            "t0": 56956, 
                            "v": 54, 
                            "dur": 16, 
                            "type": "note", 
                            "channel": 1
                        }
                    ]
                ], 
                [
                    56998, 
                    [
                        {
                            "pitch": 71, 
                            "t0": 56998, 
                            "v": 74, 
                            "dur": 23, 
                            "type": "note", 
                            "channel": 1
                        }, 
                        {
                            "pitch": 79, 
                            "t0": 56998, 
                            "v": 81, 
                            "dur": 67, 
                            "type": "note", 
                            "channel": 1
                        }
                    ]
                ], 
                [
                    57124, 
                    [
                        {
                            "pitch": 50, 
                            "t0": 57124, 
                            "v": 41, 
                            "dur": 153, 
                            "type": "note", 
                            "channel": 1
                        }
                    ]
                ], 
                [
                    57125, 
                    [
                        {
                            "pitch": 38, 
                            "t0": 57125, 
                            "v": 49, 
                            "dur": 46, 
                            "type": "note", 
                            "channel": 1
                        }
                    ]
                ], 
                [
                    57240, 
                    [
                        {
                            "pitch": 86, 
                            "t0": 57240, 
                            "v": 85, 
                            "dur": 43, 
                            "type": "note", 
                            "channel": 1
                        }
                    ]
                ], 
                [
                    57247, 
                    [
                        {
                            "pitch": 81, 
                            "t0": 57247, 
                            "v": 87, 
                            "dur": 66, 
                            "type": "note", 
                            "channel": 1
                        }
                    ]
                ], 
                [
                    57318, 
                    [
                        {
                            "pitch": 86, 
                            "t0": 57318, 
                            "v": 73, 
                            "dur": 61, 
                            "type": "note", 
                            "channel": 1
                        }
                    ]
                ], 
                [
                    57320, 
                    [
                        {
                            "pitch": 83, 
                            "t0": 57320, 
                            "v": 91, 
                            "dur": 32, 
                            "type": "note", 
                            "channel": 1
                        }
                    ]
                ], 
                [
                    57352, 
                    [
                        {
                            "pitch": 81, 
                            "t0": 57352, 
                            "v": 73, 
                            "dur": 39, 
                            "type": "note", 
                            "channel": 1
                        }
                    ]
                ], 
                [
                    57374, 
                    [
                        {
                            "pitch": 45, 
                            "t0": 57374, 
                            "v": 31, 
                            "dur": 19, 
                            "type": "note", 
                            "channel": 1
                        }
                    ]
                ], 
                [
                    57436, 
                    [
                        {
                            "pitch": 76, 
                            "t0": 57436, 
                            "v": 62, 
                            "dur": 17, 
                            "type": "note", 
                            "channel": 1
                        }
                    ]
                ], 
                [
                    57438, 
                    [
                        {
                            "pitch": 77, 
                            "t0": 57438, 
                            "v": 70, 
                            "dur": 12, 
                            "type": "note", 
                            "channel": 1
                        }
                    ]
                ], 
                [
                    57443, 
                    [
                        {
                            "pitch": 78, 
                            "t0": 57443, 
                            "v": 71, 
                            "dur": 28, 
                            "type": "note", 
                            "channel": 1
                        }
                    ]
                ], 
                [
                    57446, 
                    [
                        {
                            "pitch": 83, 
                            "t0": 57446, 
                            "v": 49, 
                            "dur": 12, 
                            "type": "note", 
                            "channel": 1
                        }
                    ]
                ], 
                [
                    57447, 
                    [
                        {
                            "pitch": 81, 
                            "t0": 57447, 
                            "v": 46, 
                            "dur": 11, 
                            "type": "note", 
                            "channel": 1
                        }
                    ]
                ], 
                [
                    57484, 
                    [
                        {
                            "pitch": 76, 
                            "t0": 57484, 
                            "v": 60, 
                            "dur": 39, 
                            "type": "note", 
                            "channel": 1
                        }
                    ]
                ], 
                [
                    57490, 
                    [
                        {
                            "pitch": 81, 
                            "t0": 57490, 
                            "v": 44, 
                            "dur": 57, 
                            "type": "note", 
                            "channel": 1
                        }
                    ]
                ], 
                [
                    57543, 
                    [
                        {
                            "pitch": 78, 
                            "t0": 57543, 
                            "v": 61, 
                            "dur": 20, 
                            "type": "note", 
                            "channel": 1
                        }
                    ]
                ], 
                [
                    57564, 
                    [
                        {
                            "pitch": 74, 
                            "t0": 57564, 
                            "v": 68, 
                            "dur": 65, 
                            "type": "note", 
                            "channel": 1
                        }
                    ]
                ], 
                [
                    57589, 
                    [
                        {
                            "pitch": 78, 
                            "t0": 57589, 
                            "v": 10, 
                            "dur": 56, 
                            "type": "note", 
                            "channel": 1
                        }
                    ]
                ], 
                [
                    57601, 
                    [
                        {
                            "pitch": 38, 
                            "t0": 57601, 
                            "v": 49, 
                            "dur": 107, 
                            "type": "note", 
                            "channel": 1
                        }
                    ]
                ], 
                [
                    57609, 
                    [
                        {
                            "pitch": 50, 
                            "t0": 57609, 
                            "v": 29, 
                            "dur": 22, 
                            "type": "note", 
                            "channel": 1
                        }
                    ]
                ], 
                [
                    57639, 
                    [
                        {
                            "pitch": 74, 
                            "t0": 57639, 
                            "v": 51, 
                            "dur": 29, 
                            "type": "note", 
                            "channel": 1
                        }
                    ]
                ], 
                [
                    57663, 
                    [
                        {
                            "pitch": 78, 
                            "t0": 57663, 
                            "v": 49, 
                            "dur": 27, 
                            "type": "note", 
                            "channel": 1
                        }
                    ]
                ], 
                [
                    57688, 
                    [
                        {
                            "pitch": 74, 
                            "t0": 57688, 
                            "v": 75, 
                            "dur": 24, 
                            "type": "note", 
                            "channel": 1
                        }
                    ]
                ], 
                [
                    57717, 
                    [
                        {
                            "pitch": 78, 
                            "t0": 57717, 
                            "v": 32, 
                            "dur": 25, 
                            "type": "note", 
                            "channel": 1
                        }
                    ]
                ], 
                [
                    57731, 
                    [
                        {
                            "pitch": 74, 
                            "t0": 57731, 
                            "v": 61, 
                            "dur": 26, 
                            "type": "note", 
                            "channel": 1
                        }
                    ]
                ], 
                [
                    57752, 
                    [
                        {
                            "pitch": 78, 
                            "t0": 57752, 
                            "v": 55, 
                            "dur": 34, 
                            "type": "note", 
                            "channel": 1
                        }
                    ]
                ], 
                [
                    57787, 
                    [
                        {
                            "pitch": 74, 
                            "t0": 57787, 
                            "v": 79, 
                            "dur": 13, 
                            "type": "note", 
                            "channel": 1
                        }
                    ]
                ], 
                [
                    57791, 
                    [
                        {
                            "pitch": 68, 
                            "t0": 57791, 
                            "v": 97, 
                            "dur": 16, 
                            "type": "note", 
                            "channel": 1
                        }
                    ]
                ], 
                [
                    57809, 
                    [
                        {
                            "pitch": 69, 
                            "t0": 57809, 
                            "v": 85, 
                            "dur": 53, 
                            "type": "note", 
                            "channel": 1
                        }
                    ]
                ], 
                [
                    57812, 
                    [
                        {
                            "pitch": 70, 
                            "t0": 57812, 
                            "v": 61, 
                            "dur": 5, 
                            "type": "note", 
                            "channel": 1
                        }
                    ]
                ], 
                [
                    57824, 
                    [
                        {
                            "pitch": 74, 
                            "t0": 57824, 
                            "v": 72, 
                            "dur": 45, 
                            "type": "note", 
                            "channel": 1
                        }
                    ]
                ], 
                [
                    57830, 
                    [
                        {
                            "pitch": 78, 
                            "t0": 57830, 
                            "v": 89, 
                            "dur": 46, 
                            "type": "note", 
                            "channel": 1
                        }
                    ]
                ], 
                [
                    57837, 
                    [
                        {
                            "pitch": 38, 
                            "t0": 57837, 
                            "v": 80, 
                            "dur": 28, 
                            "type": "note", 
                            "channel": 1
                        }
                    ]
                ], 
                [
                    57842, 
                    [
                        {
                            "pitch": 50, 
                            "t0": 57842, 
                            "v": 57, 
                            "dur": 15, 
                            "type": "note", 
                            "channel": 1
                        }
                    ]
                ], 
                [
                    57954, 
                    [
                        {
                            "pitch": 77, 
                            "t0": 57954, 
                            "v": 90, 
                            "dur": 38, 
                            "type": "note", 
                            "channel": 1
                        }, 
                        {
                            "pitch": 73, 
                            "t0": 57954, 
                            "v": 99, 
                            "dur": 46, 
                            "type": "note", 
                            "channel": 1
                        }
                    ]
                ], 
                [
                    58062, 
                    [
                        {
                            "pitch": 72, 
                            "t0": 58062, 
                            "v": 64, 
                            "dur": 24, 
                            "type": "note", 
                            "channel": 1
                        }
                    ]
                ], 
                [
                    58081, 
                    [
                        {
                            "pitch": 76, 
                            "t0": 58081, 
                            "v": 73, 
                            "dur": 30, 
                            "type": "note", 
                            "channel": 1
                        }, 
                        {
                            "pitch": 48, 
                            "t0": 58081, 
                            "v": 34, 
                            "dur": 107, 
                            "type": "note", 
                            "channel": 1
                        }
                    ]
                ], 
                [
                    58085, 
                    [
                        {
                            "pitch": 36, 
                            "t0": 58085, 
                            "v": 44, 
                            "dur": 116, 
                            "type": "note", 
                            "channel": 1
                        }
                    ]
                ], 
                [
                    58108, 
                    [
                        {
                            "pitch": 72, 
                            "t0": 58108, 
                            "v": 85, 
                            "dur": 23, 
                            "type": "note", 
                            "channel": 1
                        }
                    ]
                ], 
                [
                    58135, 
                    [
                        {
                            "pitch": 76, 
                            "t0": 58135, 
                            "v": 59, 
                            "dur": 27, 
                            "type": "note", 
                            "channel": 1
                        }
                    ]
                ], 
                [
                    58153, 
                    [
                        {
                            "pitch": 72, 
                            "t0": 58153, 
                            "v": 76, 
                            "dur": 25, 
                            "type": "note", 
                            "channel": 1
                        }
                    ]
                ], 
                [
                    58182, 
                    [
                        {
                            "pitch": 76, 
                            "t0": 58182, 
                            "v": 46, 
                            "dur": 18, 
                            "type": "note", 
                            "channel": 1
                        }
                    ]
                ], 
                [
                    58197, 
                    [
                        {
                            "pitch": 72, 
                            "t0": 58197, 
                            "v": 75, 
                            "dur": 26, 
                            "type": "note", 
                            "channel": 1
                        }
                    ]
                ], 
                [
                    58221, 
                    [
                        {
                            "pitch": 76, 
                            "t0": 58221, 
                            "v": 50, 
                            "dur": 44, 
                            "type": "note", 
                            "channel": 1
                        }
                    ]
                ], 
                [
                    58261, 
                    [
                        {
                            "pitch": 77, 
                            "t0": 58261, 
                            "v": 61, 
                            "dur": 11, 
                            "type": "note", 
                            "channel": 1
                        }
                    ]
                ], 
                [
                    58266, 
                    [
                        {
                            "pitch": 74, 
                            "t0": 58266, 
                            "v": 83, 
                            "dur": 49, 
                            "type": "note", 
                            "channel": 1
                        }
                    ]
                ], 
                [
                    58298, 
                    [
                        {
                            "pitch": 76, 
                            "t0": 58298, 
                            "v": 70, 
                            "dur": 24, 
                            "type": "note", 
                            "channel": 1
                        }
                    ]
                ], 
                [
                    58320, 
                    [
                        {
                            "pitch": 79, 
                            "t0": 58320, 
                            "v": 73, 
                            "dur": 26, 
                            "type": "note", 
                            "channel": 1
                        }
                    ]
                ], 
                [
                    58321, 
                    [
                        {
                            "pitch": 43, 
                            "t0": 58321, 
                            "v": 61, 
                            "dur": 19, 
                            "type": "note", 
                            "channel": 1
                        }
                    ]
                ], 
                [
                    58344, 
                    [
                        {
                            "pitch": 76, 
                            "t0": 58344, 
                            "v": 80, 
                            "dur": 23, 
                            "type": "note", 
                            "channel": 1
                        }
                    ]
                ], 
                [
                    58368, 
                    [
                        {
                            "pitch": 79, 
                            "t0": 58368, 
                            "v": 65, 
                            "dur": 23, 
                            "type": "note", 
                            "channel": 1
                        }
                    ]
                ], 
                [
                    58388, 
                    [
                        {
                            "pitch": 76, 
                            "t0": 58388, 
                            "v": 76, 
                            "dur": 24, 
                            "type": "note", 
                            "channel": 1
                        }
                    ]
                ], 
                [
                    58415, 
                    [
                        {
                            "pitch": 79, 
                            "t0": 58415, 
                            "v": 70, 
                            "dur": 22, 
                            "type": "note", 
                            "channel": 1
                        }
                    ]
                ], 
                [
                    58437, 
                    [
                        {
                            "pitch": 76, 
                            "t0": 58437, 
                            "v": 78, 
                            "dur": 24, 
                            "type": "note", 
                            "channel": 1
                        }
                    ]
                ], 
                [
                    58460, 
                    [
                        {
                            "pitch": 79, 
                            "t0": 58460, 
                            "v": 79, 
                            "dur": 30, 
                            "type": "note", 
                            "channel": 1
                        }
                    ]
                ], 
                [
                    58504, 
                    [
                        {
                            "pitch": 77, 
                            "t0": 58504, 
                            "v": 70, 
                            "dur": 37, 
                            "type": "note", 
                            "channel": 1
                        }
                    ]
                ], 
                [
                    58526, 
                    [
                        {
                            "pitch": 78, 
                            "t0": 58526, 
                            "v": 99, 
                            "dur": 22, 
                            "type": "note", 
                            "channel": 1
                        }
                    ]
                ], 
                [
                    58550, 
                    [
                        {
                            "pitch": 79, 
                            "t0": 58550, 
                            "v": 83, 
                            "dur": 23, 
                            "type": "note", 
                            "channel": 1
                        }
                    ]
                ], 
                [
                    58562, 
                    [
                        {
                            "pitch": 84, 
                            "t0": 58562, 
                            "v": 86, 
                            "dur": 34, 
                            "type": "note", 
                            "channel": 1
                        }
                    ]
                ], 
                [
                    58566, 
                    [
                        {
                            "pitch": 36, 
                            "t0": 58566, 
                            "v": 49, 
                            "dur": 49, 
                            "type": "note", 
                            "channel": 1
                        }
                    ]
                ], 
                [
                    58574, 
                    [
                        {
                            "pitch": 48, 
                            "t0": 58574, 
                            "v": 31, 
                            "dur": 11, 
                            "type": "note", 
                            "channel": 1
                        }
                    ]
                ], 
                [
                    58592, 
                    [
                        {
                            "pitch": 79, 
                            "t0": 58592, 
                            "v": 70, 
                            "dur": 22, 
                            "type": "note", 
                            "channel": 1
                        }
                    ]
                ], 
                [
                    58618, 
                    [
                        {
                            "pitch": 84, 
                            "t0": 58618, 
                            "v": 65, 
                            "dur": 24, 
                            "type": "note", 
                            "channel": 1
                        }
                    ]
                ], 
                [
                    58630, 
                    [
                        {
                            "pitch": 79, 
                            "t0": 58630, 
                            "v": 61, 
                            "dur": 29, 
                            "type": "note", 
                            "channel": 1
                        }
                    ]
                ], 
                [
                    58659, 
                    [
                        {
                            "pitch": 84, 
                            "t0": 58659, 
                            "v": 60, 
                            "dur": 32, 
                            "type": "note", 
                            "channel": 1
                        }
                    ]
                ], 
                [
                    58677, 
                    [
                        {
                            "pitch": 79, 
                            "t0": 58677, 
                            "v": 73, 
                            "dur": 26, 
                            "type": "note", 
                            "channel": 1
                        }
                    ]
                ], 
                [
                    58701, 
                    [
                        {
                            "pitch": 84, 
                            "t0": 58701, 
                            "v": 46, 
                            "dur": 28, 
                            "type": "note", 
                            "channel": 1
                        }
                    ]
                ], 
                [
                    58722, 
                    [
                        {
                            "pitch": 79, 
                            "t0": 58722, 
                            "v": 80, 
                            "dur": 28, 
                            "type": "note", 
                            "channel": 1
                        }
                    ]
                ], 
                [
                    58749, 
                    [
                        {
                            "pitch": 84, 
                            "t0": 58749, 
                            "v": 68, 
                            "dur": 29, 
                            "type": "note", 
                            "channel": 1
                        }
                    ]
                ], 
                [
                    58770, 
                    [
                        {
                            "pitch": 79, 
                            "t0": 58770, 
                            "v": 72, 
                            "dur": 27, 
                            "type": "note", 
                            "channel": 1
                        }
                    ]
                ], 
                [
                    58784, 
                    [
                        {
                            "pitch": 43, 
                            "t0": 58784, 
                            "v": 46, 
                            "dur": 27, 
                            "type": "note", 
                            "channel": 1
                        }
                    ]
                ], 
                [
                    58795, 
                    [
                        {
                            "pitch": 84, 
                            "t0": 58795, 
                            "v": 57, 
                            "dur": 32, 
                            "type": "note", 
                            "channel": 1
                        }
                    ]
                ], 
                [
                    58815, 
                    [
                        {
                            "pitch": 79, 
                            "t0": 58815, 
                            "v": 68, 
                            "dur": 28, 
                            "type": "note", 
                            "channel": 1
                        }
                    ]
                ], 
                [
                    58844, 
                    [
                        {
                            "pitch": 84, 
                            "t0": 58844, 
                            "v": 64, 
                            "dur": 32, 
                            "type": "note", 
                            "channel": 1
                        }
                    ]
                ], 
                [
                    58864, 
                    [
                        {
                            "pitch": 79, 
                            "t0": 58864, 
                            "v": 68, 
                            "dur": 26, 
                            "type": "note", 
                            "channel": 1
                        }
                    ]
                ], 
                [
                    58888, 
                    [
                        {
                            "pitch": 84, 
                            "t0": 58888, 
                            "v": 49, 
                            "dur": 81, 
                            "type": "note", 
                            "channel": 1
                        }
                    ]
                ], 
                [
                    58910, 
                    [
                        {
                            "pitch": 79, 
                            "t0": 58910, 
                            "v": 72, 
                            "dur": 29, 
                            "type": "note", 
                            "channel": 1
                        }
                    ]
                ], 
                [
                    58963, 
                    [
                        {
                            "pitch": 79, 
                            "t0": 58963, 
                            "v": 60, 
                            "dur": 14, 
                            "type": "note", 
                            "channel": 1
                        }
                    ]
                ], 
                [
                    59039, 
                    [
                        {
                            "pitch": 55, 
                            "t0": 59039, 
                            "v": 44, 
                            "dur": 157, 
                            "type": "note", 
                            "channel": 1
                        }
                    ]
                ], 
                [
                    59041, 
                    [
                        {
                            "pitch": 43, 
                            "t0": 59041, 
                            "v": 57, 
                            "dur": 127, 
                            "type": "note", 
                            "channel": 1
                        }
                    ]
                ], 
                [
                    59160, 
                    [
                        {
                            "pitch": 83, 
                            "t0": 59160, 
                            "v": 81, 
                            "dur": 78, 
                            "type": "note", 
                            "channel": 1
                        }
                    ]
                ], 
                [
                    59162, 
                    [
                        {
                            "pitch": 79, 
                            "t0": 59162, 
                            "v": 87, 
                            "dur": 109, 
                            "type": "note", 
                            "channel": 1
                        }
                    ]
                ], 
                [
                    59277, 
                    [
                        {
                            "pitch": 79, 
                            "t0": 59277, 
                            "v": 65, 
                            "dur": 75, 
                            "type": "note", 
                            "channel": 1
                        }
                    ]
                ], 
                [
                    59281, 
                    [
                        {
                            "pitch": 83, 
                            "t0": 59281, 
                            "v": 81, 
                            "dur": 64, 
                            "type": "note", 
                            "channel": 1
                        }
                    ]
                ], 
                [
                    59286, 
                    [
                        {
                            "pitch": 43, 
                            "t0": 59286, 
                            "v": 40, 
                            "dur": 131, 
                            "type": "note", 
                            "channel": 1
                        }
                    ]
                ], 
                [
                    59289, 
                    [
                        {
                            "pitch": 55, 
                            "t0": 59289, 
                            "v": 32, 
                            "dur": 33, 
                            "type": "note", 
                            "channel": 1
                        }
                    ]
                ], 
                [
                    59358, 
                    [
                        {
                            "pitch": 78, 
                            "t0": 59358, 
                            "v": 67, 
                            "dur": 24, 
                            "type": "note", 
                            "channel": 1
                        }
                    ]
                ], 
                [
                    59371, 
                    [
                        {
                            "pitch": 83, 
                            "t0": 59371, 
                            "v": 40, 
                            "dur": 9, 
                            "type": "note", 
                            "channel": 1
                        }
                    ]
                ], 
                [
                    59397, 
                    [
                        {
                            "pitch": 77, 
                            "t0": 59397, 
                            "v": 90, 
                            "dur": 48, 
                            "type": "note", 
                            "channel": 1
                        }, 
                        {
                            "pitch": 83, 
                            "t0": 59397, 
                            "v": 81, 
                            "dur": 61, 
                            "type": "note", 
                            "channel": 1
                        }
                    ]
                ], 
                [
                    59513, 
                    [
                        {
                            "pitch": 75, 
                            "t0": 59513, 
                            "v": 77, 
                            "dur": 23, 
                            "type": "note", 
                            "channel": 1
                        }
                    ]
                ], 
                [
                    59529, 
                    [
                        {
                            "pitch": 48, 
                            "t0": 59529, 
                            "v": 42, 
                            "dur": 163, 
                            "type": "note", 
                            "channel": 1
                        }
                    ]
                ], 
                [
                    59530, 
                    [
                        {
                            "pitch": 36, 
                            "t0": 59530, 
                            "v": 54, 
                            "dur": 163, 
                            "type": "note", 
                            "channel": 1
                        }
                    ]
                ], 
                [
                    59536, 
                    [
                        {
                            "pitch": 76, 
                            "t0": 59536, 
                            "v": 81, 
                            "dur": 315, 
                            "type": "note", 
                            "channel": 1
                        }
                    ]
                ], 
                [
                    59538, 
                    [
                        {
                            "pitch": 74, 
                            "t0": 59538, 
                            "v": 76, 
                            "dur": 6, 
                            "type": "note", 
                            "channel": 1
                        }
                    ]
                ], 
                [
                    59609, 
                    [
                        {
                            "pitch": 84, 
                            "t0": 59609, 
                            "v": 90, 
                            "dur": 300, 
                            "type": "note", 
                            "channel": 1
                        }
                    ]
                ], 
                [
                    59769, 
                    [
                        {
                            "pitch": 43, 
                            "t0": 59769, 
                            "v": 48, 
                            "dur": 28, 
                            "type": "note", 
                            "channel": 1
                        }
                    ]
                ], 
                [
                    59890, 
                    [
                        {
                            "pitch": 76, 
                            "t0": 59890, 
                            "v": 56, 
                            "dur": 22, 
                            "type": "note", 
                            "channel": 1
                        }
                    ]
                ], 
                [
                    59971, 
                    [
                        {
                            "pitch": 73, 
                            "t0": 59971, 
                            "v": 71, 
                            "dur": 30, 
                            "type": "note", 
                            "channel": 1
                        }
                    ]
                ], 
                [
                    60002, 
                    [
                        {
                            "pitch": 55, 
                            "t0": 60002, 
                            "v": 42, 
                            "dur": 155, 
                            "type": "note", 
                            "channel": 1
                        }, 
                        {
                            "pitch": 43, 
                            "t0": 60002, 
                            "v": 50, 
                            "dur": 204, 
                            "type": "note", 
                            "channel": 1
                        }
                    ]
                ], 
                [
                    60007, 
                    [
                        {
                            "pitch": 74, 
                            "t0": 60007, 
                            "v": 65, 
                            "dur": 315, 
                            "type": "note", 
                            "channel": 1
                        }
                    ]
                ], 
                [
                    60008, 
                    [
                        {
                            "pitch": 72, 
                            "t0": 60008, 
                            "v": 59, 
                            "dur": 7, 
                            "type": "note", 
                            "channel": 1
                        }
                    ]
                ], 
                [
                    60087, 
                    [
                        {
                            "pitch": 83, 
                            "t0": 60087, 
                            "v": 73, 
                            "dur": 245, 
                            "type": "note", 
                            "channel": 1
                        }
                    ]
                ], 
                [
                    60247, 
                    [
                        {
                            "pitch": 43, 
                            "t0": 60247, 
                            "v": 57, 
                            "dur": 82, 
                            "type": "note", 
                            "channel": 1
                        }
                    ]
                ], 
                [
                    60358, 
                    [
                        {
                            "pitch": 55, 
                            "t0": 60358, 
                            "v": 53, 
                            "dur": 10, 
                            "type": "note", 
                            "channel": 1
                        }
                    ]
                ], 
                [
                    60364, 
                    [
                        {
                            "pitch": 43, 
                            "t0": 60364, 
                            "v": 21, 
                            "dur": 33, 
                            "type": "note", 
                            "channel": 1
                        }
                    ]
                ], 
                [
                    60455, 
                    [
                        {
                            "pitch": 68, 
                            "t0": 60455, 
                            "v": 58, 
                            "dur": 11, 
                            "type": "note", 
                            "channel": 1
                        }
                    ]
                ], 
                [
                    60468, 
                    [
                        {
                            "pitch": 69, 
                            "t0": 60468, 
                            "v": 98, 
                            "dur": 181, 
                            "type": "note", 
                            "channel": 1
                        }
                    ]
                ], 
                [
                    60492, 
                    [
                        {
                            "pitch": 38, 
                            "t0": 60492, 
                            "v": 36, 
                            "dur": 44, 
                            "type": "note", 
                            "channel": 1
                        }
                    ]
                ], 
                [
                    60560, 
                    [
                        {
                            "pitch": 78, 
                            "t0": 60560, 
                            "v": 87, 
                            "dur": 144, 
                            "type": "note", 
                            "channel": 1
                        }
                    ]
                ], 
                [
                    60685, 
                    [
                        {
                            "pitch": 69, 
                            "t0": 60685, 
                            "v": 77, 
                            "dur": 87, 
                            "type": "note", 
                            "channel": 1
                        }
                    ]
                ], 
                [
                    60719, 
                    [
                        {
                            "pitch": 78, 
                            "t0": 60719, 
                            "v": 71, 
                            "dur": 186, 
                            "type": "note", 
                            "channel": 1
                        }
                    ]
                ], 
                [
                    60739, 
                    [
                        {
                            "pitch": 38, 
                            "t0": 60739, 
                            "v": 19, 
                            "dur": 40, 
                            "type": "note", 
                            "channel": 1
                        }
                    ]
                ], 
                [
                    60742, 
                    [
                        {
                            "pitch": 50, 
                            "t0": 60742, 
                            "v": 22, 
                            "dur": 21, 
                            "type": "note", 
                            "channel": 1
                        }
                    ]
                ], 
                [
                    60845, 
                    [
                        {
                            "pitch": 69, 
                            "t0": 60845, 
                            "v": 68, 
                            "dur": 24, 
                            "type": "note", 
                            "channel": 1
                        }
                    ]
                ], 
                [
                    60919, 
                    [
                        {
                            "pitch": 70, 
                            "t0": 60919, 
                            "v": 84, 
                            "dur": 23, 
                            "type": "note", 
                            "channel": 1
                        }
                    ]
                ], 
                [
                    60943, 
                    [
                        {
                            "pitch": 71, 
                            "t0": 60943, 
                            "v": 104, 
                            "dur": 42, 
                            "type": "note", 
                            "channel": 1
                        }
                    ]
                ], 
                [
                    60960, 
                    [
                        {
                            "pitch": 55, 
                            "t0": 60960, 
                            "v": 37, 
                            "dur": 66, 
                            "type": "note", 
                            "channel": 1
                        }
                    ]
                ], 
                [
                    60961, 
                    [
                        {
                            "pitch": 43, 
                            "t0": 60961, 
                            "v": 60, 
                            "dur": 175, 
                            "type": "note", 
                            "channel": 1
                        }
                    ]
                ], 
                [
                    60962, 
                    [
                        {
                            "pitch": 79, 
                            "t0": 60962, 
                            "v": 95, 
                            "dur": 44, 
                            "type": "note", 
                            "channel": 1
                        }
                    ]
                ], 
                [
                    61084, 
                    [
                        {
                            "pitch": 79, 
                            "t0": 61084, 
                            "v": 83, 
                            "dur": 35, 
                            "type": "note", 
                            "channel": 1
                        }
                    ]
                ], 
                [
                    61085, 
                    [
                        {
                            "pitch": 76, 
                            "t0": 61085, 
                            "v": 85, 
                            "dur": 30, 
                            "type": "note", 
                            "channel": 1
                        }
                    ]
                ], 
                [
                    61199, 
                    [
                        {
                            "pitch": 79, 
                            "t0": 61199, 
                            "v": 83, 
                            "dur": 27, 
                            "type": "note", 
                            "channel": 1
                        }
                    ]
                ], 
                [
                    61201, 
                    [
                        {
                            "pitch": 74, 
                            "t0": 61201, 
                            "v": 91, 
                            "dur": 26, 
                            "type": "note", 
                            "channel": 1
                        }
                    ]
                ], 
                [
                    61205, 
                    [
                        {
                            "pitch": 38, 
                            "t0": 61205, 
                            "v": 53, 
                            "dur": 223, 
                            "type": "note", 
                            "channel": 1
                        }
                    ]
                ], 
                [
                    61278, 
                    [
                        {
                            "pitch": 69, 
                            "t0": 61278, 
                            "v": 90, 
                            "dur": 14, 
                            "type": "note", 
                            "channel": 1
                        }, 
                        {
                            "pitch": 74, 
                            "t0": 61278, 
                            "v": 87, 
                            "dur": 153, 
                            "type": "note", 
                            "channel": 1
                        }
                    ]
                ], 
                [
                    61282, 
                    [
                        {
                            "pitch": 71, 
                            "t0": 61282, 
                            "v": 98, 
                            "dur": 22, 
                            "type": "note", 
                            "channel": 1
                        }
                    ]
                ], 
                [
                    61312, 
                    [
                        {
                            "pitch": 69, 
                            "t0": 61312, 
                            "v": 87, 
                            "dur": 122, 
                            "type": "note", 
                            "channel": 1
                        }
                    ]
                ], 
                [
                    61443, 
                    [
                        {
                            "pitch": 67, 
                            "t0": 61443, 
                            "v": 104, 
                            "dur": 38, 
                            "type": "note", 
                            "channel": 1
                        }, 
                        {
                            "pitch": 71, 
                            "t0": 61443, 
                            "v": 97, 
                            "dur": 39, 
                            "type": "note", 
                            "channel": 1
                        }
                    ]
                ], 
                [
                    61444, 
                    [
                        {
                            "pitch": 31, 
                            "t0": 61444, 
                            "v": 92, 
                            "dur": 34, 
                            "type": "note", 
                            "channel": 1
                        }
                    ]
                ], 
                [
                    61445, 
                    [
                        {
                            "pitch": 43, 
                            "t0": 61445, 
                            "v": 77, 
                            "dur": 39, 
                            "type": "note", 
                            "channel": 1
                        }
                    ]
                ], 
                [
                    61920, 
                    [
                        {
                            "pitch": 31, 
                            "t0": 61920, 
                            "v": 71, 
                            "dur": 56, 
                            "type": "note", 
                            "channel": 1
                        }, 
                        {
                            "pitch": 43, 
                            "t0": 61920, 
                            "v": 63, 
                            "dur": 67, 
                            "type": "note", 
                            "channel": 1
                        }
                    ]
                ], 
                [
                    61997, 
                    [
                        {
                            "pitch": 59, 
                            "t0": 61997, 
                            "v": 68, 
                            "dur": 14, 
                            "type": "note", 
                            "channel": 1
                        }
                    ]
                ], 
                [
                    61999, 
                    [
                        {
                            "pitch": 55, 
                            "t0": 61999, 
                            "v": 56, 
                            "dur": 13, 
                            "type": "note", 
                            "channel": 1
                        }
                    ]
                ], 
                [
                    62038, 
                    [
                        {
                            "pitch": 33, 
                            "t0": 62038, 
                            "v": 91, 
                            "dur": 48, 
                            "type": "note", 
                            "channel": 1
                        }
                    ]
                ], 
                [
                    62039, 
                    [
                        {
                            "pitch": 45, 
                            "t0": 62039, 
                            "v": 83, 
                            "dur": 66, 
                            "type": "note", 
                            "channel": 1
                        }
                    ]
                ], 
                [
                    62164, 
                    [
                        {
                            "pitch": 35, 
                            "t0": 62164, 
                            "v": 85, 
                            "dur": 51, 
                            "type": "note", 
                            "channel": 1
                        }, 
                        {
                            "pitch": 47, 
                            "t0": 62164, 
                            "v": 77, 
                            "dur": 52, 
                            "type": "note", 
                            "channel": 1
                        }
                    ]
                ], 
                [
                    62299, 
                    [
                        {
                            "pitch": 55, 
                            "t0": 62299, 
                            "v": 49, 
                            "dur": 20, 
                            "type": "note", 
                            "channel": 1
                        }
                    ]
                ], 
                [
                    62371, 
                    [
                        {
                            "pitch": 55, 
                            "t0": 62371, 
                            "v": 55, 
                            "dur": 12, 
                            "type": "note", 
                            "channel": 1
                        }
                    ]
                ], 
                [
                    62397, 
                    [
                        {
                            "pitch": 64, 
                            "t0": 62397, 
                            "v": 78, 
                            "dur": 118, 
                            "type": "note", 
                            "channel": 1
                        }
                    ]
                ], 
                [
                    62398, 
                    [
                        {
                            "pitch": 60, 
                            "t0": 62398, 
                            "v": 85, 
                            "dur": 121, 
                            "type": "note", 
                            "channel": 1
                        }
                    ]
                ], 
                [
                    62400, 
                    [
                        {
                            "pitch": 55, 
                            "t0": 62400, 
                            "v": 68, 
                            "dur": 63, 
                            "type": "note", 
                            "channel": 1
                        }
                    ]
                ], 
                [
                    62404, 
                    [
                        {
                            "pitch": 36, 
                            "t0": 62404, 
                            "v": 66, 
                            "dur": 43, 
                            "type": "note", 
                            "channel": 1
                        }
                    ]
                ], 
                [
                    62407, 
                    [
                        {
                            "pitch": 48, 
                            "t0": 62407, 
                            "v": 62, 
                            "dur": 36, 
                            "type": "note", 
                            "channel": 1
                        }
                    ]
                ], 
                [
                    62478, 
                    [
                        {
                            "pitch": 55, 
                            "t0": 62478, 
                            "v": 43, 
                            "dur": 32, 
                            "type": "note", 
                            "channel": 1
                        }
                    ]
                ], 
                [
                    62516, 
                    [
                        {
                            "pitch": 40, 
                            "t0": 62516, 
                            "v": 67, 
                            "dur": 78, 
                            "type": "note", 
                            "channel": 1
                        }
                    ]
                ], 
                [
                    62593, 
                    [
                        {
                            "pitch": 55, 
                            "t0": 62593, 
                            "v": 73, 
                            "dur": 17, 
                            "type": "note", 
                            "channel": 1
                        }
                    ]
                ], 
                [
                    62594, 
                    [
                        {
                            "pitch": 64, 
                            "t0": 62594, 
                            "v": 70, 
                            "dur": 18, 
                            "type": "note", 
                            "channel": 1
                        }
                    ]
                ], 
                [
                    62595, 
                    [
                        {
                            "pitch": 60, 
                            "t0": 62595, 
                            "v": 81, 
                            "dur": 16, 
                            "type": "note", 
                            "channel": 1
                        }
                    ]
                ], 
                [
                    62628, 
                    [
                        {
                            "pitch": 43, 
                            "t0": 62628, 
                            "v": 73, 
                            "dur": 112, 
                            "type": "note", 
                            "channel": 1
                        }
                    ]
                ], 
                [
                    62714, 
                    [
                        {
                            "pitch": 55, 
                            "t0": 62714, 
                            "v": 73, 
                            "dur": 24, 
                            "type": "note", 
                            "channel": 1
                        }, 
                        {
                            "pitch": 64, 
                            "t0": 62714, 
                            "v": 73, 
                            "dur": 117, 
                            "type": "note", 
                            "channel": 1
                        }, 
                        {
                            "pitch": 60, 
                            "t0": 62714, 
                            "v": 79, 
                            "dur": 134, 
                            "type": "note", 
                            "channel": 1
                        }
                    ]
                ], 
                [
                    62753, 
                    [
                        {
                            "pitch": 40, 
                            "t0": 62753, 
                            "v": 73, 
                            "dur": 51, 
                            "type": "note", 
                            "channel": 1
                        }
                    ]
                ], 
                [
                    62837, 
                    [
                        {
                            "pitch": 55, 
                            "t0": 62837, 
                            "v": 54, 
                            "dur": 20, 
                            "type": "note", 
                            "channel": 1
                        }
                    ]
                ], 
                [
                    62870, 
                    [
                        {
                            "pitch": 59, 
                            "t0": 62870, 
                            "v": 80, 
                            "dur": 70, 
                            "type": "note", 
                            "channel": 1
                        }
                    ]
                ], 
                [
                    62871, 
                    [
                        {
                            "pitch": 62, 
                            "t0": 62871, 
                            "v": 71, 
                            "dur": 71, 
                            "type": "note", 
                            "channel": 1
                        }
                    ]
                ], 
                [
                    62872, 
                    [
                        {
                            "pitch": 55, 
                            "t0": 62872, 
                            "v": 54, 
                            "dur": 61, 
                            "type": "note", 
                            "channel": 1
                        }
                    ]
                ], 
                [
                    62878, 
                    [
                        {
                            "pitch": 31, 
                            "t0": 62878, 
                            "v": 70, 
                            "dur": 45, 
                            "type": "note", 
                            "channel": 1
                        }
                    ]
                ], 
                [
                    62955, 
                    [
                        {
                            "pitch": 55, 
                            "t0": 62955, 
                            "v": 60, 
                            "dur": 20, 
                            "type": "note", 
                            "channel": 1
                        }
                    ]
                ], 
                [
                    62958, 
                    [
                        {
                            "pitch": 59, 
                            "t0": 62958, 
                            "v": 78, 
                            "dur": 17, 
                            "type": "note", 
                            "channel": 1
                        }
                    ]
                ], 
                [
                    62959, 
                    [
                        {
                            "pitch": 62, 
                            "t0": 62959, 
                            "v": 71, 
                            "dur": 17, 
                            "type": "note", 
                            "channel": 1
                        }
                    ]
                ], 
                [
                    62991, 
                    [
                        {
                            "pitch": 35, 
                            "t0": 62991, 
                            "v": 79, 
                            "dur": 95, 
                            "type": "note", 
                            "channel": 1
                        }
                    ]
                ], 
                [
                    63076, 
                    [
                        {
                            "pitch": 55, 
                            "t0": 63076, 
                            "v": 62, 
                            "dur": 16, 
                            "type": "note", 
                            "channel": 1
                        }, 
                        {
                            "pitch": 59, 
                            "t0": 63076, 
                            "v": 81, 
                            "dur": 17, 
                            "type": "note", 
                            "channel": 1
                        }, 
                        {
                            "pitch": 62, 
                            "t0": 63076, 
                            "v": 70, 
                            "dur": 18, 
                            "type": "note", 
                            "channel": 1
                        }
                    ]
                ], 
                [
                    63112, 
                    [
                        {
                            "pitch": 38, 
                            "t0": 63112, 
                            "v": 73, 
                            "dur": 116, 
                            "type": "note", 
                            "channel": 1
                        }
                    ]
                ], 
                [
                    63191, 
                    [
                        {
                            "pitch": 55, 
                            "t0": 63191, 
                            "v": 65, 
                            "dur": 23, 
                            "type": "note", 
                            "channel": 1
                        }
                    ]
                ], 
                [
                    63229, 
                    [
                        {
                            "pitch": 59, 
                            "t0": 63229, 
                            "v": 83, 
                            "dur": 104, 
                            "type": "note", 
                            "channel": 1
                        }, 
                        {
                            "pitch": 62, 
                            "t0": 63229, 
                            "v": 74, 
                            "dur": 105, 
                            "type": "note", 
                            "channel": 1
                        }
                    ]
                ], 
                [
                    63231, 
                    [
                        {
                            "pitch": 55, 
                            "t0": 63231, 
                            "v": 58, 
                            "dur": 55, 
                            "type": "note", 
                            "channel": 1
                        }
                    ]
                ], 
                [
                    63237, 
                    [
                        {
                            "pitch": 35, 
                            "t0": 63237, 
                            "v": 72, 
                            "dur": 38, 
                            "type": "note", 
                            "channel": 1
                        }
                    ]
                ], 
                [
                    63313, 
                    [
                        {
                            "pitch": 55, 
                            "t0": 63313, 
                            "v": 69, 
                            "dur": 24, 
                            "type": "note", 
                            "channel": 1
                        }
                    ]
                ], 
                [
                    63352, 
                    [
                        {
                            "pitch": 43, 
                            "t0": 63352, 
                            "v": 54, 
                            "dur": 92, 
                            "type": "note", 
                            "channel": 1
                        }
                    ]
                ], 
                [
                    63355, 
                    [
                        {
                            "pitch": 31, 
                            "t0": 63355, 
                            "v": 80, 
                            "dur": 28, 
                            "type": "note", 
                            "channel": 1
                        }
                    ]
                ], 
                [
                    63437, 
                    [
                        {
                            "pitch": 55, 
                            "t0": 63437, 
                            "v": 67, 
                            "dur": 18, 
                            "type": "note", 
                            "channel": 1
                        }
                    ]
                ], 
                [
                    63438, 
                    [
                        {
                            "pitch": 62, 
                            "t0": 63438, 
                            "v": 70, 
                            "dur": 20, 
                            "type": "note", 
                            "channel": 1
                        }
                    ]
                ], 
                [
                    63440, 
                    [
                        {
                            "pitch": 59, 
                            "t0": 63440, 
                            "v": 80, 
                            "dur": 18, 
                            "type": "note", 
                            "channel": 1
                        }
                    ]
                ], 
                [
                    63479, 
                    [
                        {
                            "pitch": 35, 
                            "t0": 63479, 
                            "v": 80, 
                            "dur": 34, 
                            "type": "note", 
                            "channel": 1
                        }
                    ]
                ], 
                [
                    63560, 
                    [
                        {
                            "pitch": 55, 
                            "t0": 63560, 
                            "v": 56, 
                            "dur": 21, 
                            "type": "note", 
                            "channel": 1
                        }
                    ]
                ], 
                [
                    63597, 
                    [
                        {
                            "pitch": 55, 
                            "t0": 63597, 
                            "v": 43, 
                            "dur": 37, 
                            "type": "note", 
                            "channel": 1
                        }, 
                        {
                            "pitch": 59, 
                            "t0": 63597, 
                            "v": 77, 
                            "dur": 70, 
                            "type": "note", 
                            "channel": 1
                        }
                    ]
                ], 
                [
                    63600, 
                    [
                        {
                            "pitch": 62, 
                            "t0": 63600, 
                            "v": 65, 
                            "dur": 61, 
                            "type": "note", 
                            "channel": 1
                        }
                    ]
                ], 
                [
                    63604, 
                    [
                        {
                            "pitch": 38, 
                            "t0": 63604, 
                            "v": 35, 
                            "dur": 25, 
                            "type": "note", 
                            "channel": 1
                        }
                    ]
                ], 
                [
                    63678, 
                    [
                        {
                            "pitch": 55, 
                            "t0": 63678, 
                            "v": 68, 
                            "dur": 21, 
                            "type": "note", 
                            "channel": 1
                        }
                    ]
                ], 
                [
                    63679, 
                    [
                        {
                            "pitch": 59, 
                            "t0": 63679, 
                            "v": 55, 
                            "dur": 21, 
                            "type": "note", 
                            "channel": 1
                        }
                    ]
                ], 
                [
                    63681, 
                    [
                        {
                            "pitch": 62, 
                            "t0": 63681, 
                            "v": 48, 
                            "dur": 18, 
                            "type": "note", 
                            "channel": 1
                        }
                    ]
                ], 
                [
                    63721, 
                    [
                        {
                            "pitch": 38, 
                            "t0": 63721, 
                            "v": 60, 
                            "dur": 26, 
                            "type": "note", 
                            "channel": 1
                        }
                    ]
                ], 
                [
                    63802, 
                    [
                        {
                            "pitch": 55, 
                            "t0": 63802, 
                            "v": 65, 
                            "dur": 91, 
                            "type": "note", 
                            "channel": 1
                        }
                    ]
                ], 
                [
                    63836, 
                    [
                        {
                            "pitch": 59, 
                            "t0": 63836, 
                            "v": 97, 
                            "dur": 65, 
                            "type": "note", 
                            "channel": 1
                        }, 
                        {
                            "pitch": 62, 
                            "t0": 63836, 
                            "v": 84, 
                            "dur": 68, 
                            "type": "note", 
                            "channel": 1
                        }
                    ]
                ], 
                [
                    63914, 
                    [
                        {
                            "pitch": 55, 
                            "t0": 63914, 
                            "v": 69, 
                            "dur": 18, 
                            "type": "note", 
                            "channel": 1
                        }
                    ]
                ], 
                [
                    63917, 
                    [
                        {
                            "pitch": 59, 
                            "t0": 63917, 
                            "v": 75, 
                            "dur": 15, 
                            "type": "note", 
                            "channel": 1
                        }, 
                        {
                            "pitch": 62, 
                            "t0": 63917, 
                            "v": 83, 
                            "dur": 17, 
                            "type": "note", 
                            "channel": 1
                        }
                    ]
                ], 
                [
                    64033, 
                    [
                        {
                            "pitch": 55, 
                            "t0": 64033, 
                            "v": 68, 
                            "dur": 27, 
                            "type": "note", 
                            "channel": 1
                        }, 
                        {
                            "pitch": 62, 
                            "t0": 64033, 
                            "v": 80, 
                            "dur": 148, 
                            "type": "note", 
                            "channel": 1
                        }
                    ]
                ], 
                [
                    64035, 
                    [
                        {
                            "pitch": 59, 
                            "t0": 64035, 
                            "v": 94, 
                            "dur": 118, 
                            "type": "note", 
                            "channel": 1
                        }
                    ]
                ], 
                [
                    64158, 
                    [
                        {
                            "pitch": 55, 
                            "t0": 64158, 
                            "v": 73, 
                            "dur": 31, 
                            "type": "note", 
                            "channel": 1
                        }
                    ]
                ], 
                [
                    64169, 
                    [
                        {
                            "pitch": 59, 
                            "t0": 64169, 
                            "v": 63, 
                            "dur": 10, 
                            "type": "note", 
                            "channel": 1
                        }
                    ]
                ], 
                [
                    64197, 
                    [
                        {
                            "pitch": 62, 
                            "t0": 64197, 
                            "v": 80, 
                            "dur": 34, 
                            "type": "note", 
                            "channel": 1
                        }
                    ]
                ], 
                [
                    64198, 
                    [
                        {
                            "pitch": 55, 
                            "t0": 64198, 
                            "v": 65, 
                            "dur": 18, 
                            "type": "note", 
                            "channel": 1
                        }, 
                        {
                            "pitch": 59, 
                            "t0": 64198, 
                            "v": 97, 
                            "dur": 28, 
                            "type": "note", 
                            "channel": 1
                        }
                    ]
                ], 
                [
                    64391, 
                    [
                        {
                            "pitch": 62, 
                            "t0": 64391, 
                            "v": 86, 
                            "dur": 18, 
                            "type": "note", 
                            "channel": 1
                        }
                    ]
                ], 
                [
                    64392, 
                    [
                        {
                            "pitch": 59, 
                            "t0": 64392, 
                            "v": 106, 
                            "dur": 15, 
                            "type": "note", 
                            "channel": 1
                        }, 
                        {
                            "pitch": 55, 
                            "t0": 64392, 
                            "v": 94, 
                            "dur": 15, 
                            "type": "note", 
                            "channel": 1
                        }
                    ]
                ], 
                [
                    64511, 
                    [
                        {
                            "pitch": 55, 
                            "t0": 64511, 
                            "v": 73, 
                            "dur": 23, 
                            "type": "note", 
                            "channel": 1
                        }
                    ]
                ], 
                [
                    64550, 
                    [
                        {
                            "pitch": 62, 
                            "t0": 64550, 
                            "v": 90, 
                            "dur": 115, 
                            "type": "note", 
                            "channel": 1
                        }
                    ]
                ], 
                [
                    64552, 
                    [
                        {
                            "pitch": 59, 
                            "t0": 64552, 
                            "v": 98, 
                            "dur": 76, 
                            "type": "note", 
                            "channel": 1
                        }
                    ]
                ], 
                [
                    64553, 
                    [
                        {
                            "pitch": 55, 
                            "t0": 64553, 
                            "v": 72, 
                            "dur": 64, 
                            "type": "note", 
                            "channel": 1
                        }
                    ]
                ], 
                [
                    64642, 
                    [
                        {
                            "pitch": 55, 
                            "t0": 64642, 
                            "v": 79, 
                            "dur": 17, 
                            "type": "note", 
                            "channel": 1
                        }, 
                        {
                            "pitch": 59, 
                            "t0": 64642, 
                            "v": 90, 
                            "dur": 21, 
                            "type": "note", 
                            "channel": 1
                        }
                    ]
                ], 
                [
                    64876, 
                    [
                        {
                            "pitch": 57, 
                            "t0": 64876, 
                            "v": 84, 
                            "dur": 14, 
                            "type": "note", 
                            "channel": 1
                        }
                    ]
                ], 
                [
                    64877, 
                    [
                        {
                            "pitch": 62, 
                            "t0": 64877, 
                            "v": 90, 
                            "dur": 13, 
                            "type": "note", 
                            "channel": 1
                        }, 
                        {
                            "pitch": 66, 
                            "t0": 64877, 
                            "v": 85, 
                            "dur": 13, 
                            "type": "note", 
                            "channel": 1
                        }
                    ]
                ], 
                [
                    65009, 
                    [
                        {
                            "pitch": 57, 
                            "t0": 65009, 
                            "v": 78, 
                            "dur": 14, 
                            "type": "note", 
                            "channel": 1
                        }
                    ]
                ], 
                [
                    65042, 
                    [
                        {
                            "pitch": 66, 
                            "t0": 65042, 
                            "v": 84, 
                            "dur": 67, 
                            "type": "note", 
                            "channel": 1
                        }
                    ]
                ], 
                [
                    65044, 
                    [
                        {
                            "pitch": 62, 
                            "t0": 65044, 
                            "v": 84, 
                            "dur": 64, 
                            "type": "note", 
                            "channel": 1
                        }
                    ]
                ], 
                [
                    65046, 
                    [
                        {
                            "pitch": 57, 
                            "t0": 65046, 
                            "v": 67, 
                            "dur": 56, 
                            "type": "note", 
                            "channel": 1
                        }
                    ]
                ], 
                [
                    65123, 
                    [
                        {
                            "pitch": 57, 
                            "t0": 65123, 
                            "v": 66, 
                            "dur": 11, 
                            "type": "note", 
                            "channel": 1
                        }, 
                        {
                            "pitch": 66, 
                            "t0": 65123, 
                            "v": 68, 
                            "dur": 12, 
                            "type": "note", 
                            "channel": 1
                        }, 
                        {
                            "pitch": 62, 
                            "t0": 65123, 
                            "v": 66, 
                            "dur": 14, 
                            "type": "note", 
                            "channel": 1
                        }
                    ]
                ], 
                [
                    65242, 
                    [
                        {
                            "pitch": 66, 
                            "t0": 65242, 
                            "v": 85, 
                            "dur": 140, 
                            "type": "note", 
                            "channel": 1
                        }
                    ]
                ], 
                [
                    65243, 
                    [
                        {
                            "pitch": 57, 
                            "t0": 65243, 
                            "v": 70, 
                            "dur": 25, 
                            "type": "note", 
                            "channel": 1
                        }, 
                        {
                            "pitch": 62, 
                            "t0": 65243, 
                            "v": 90, 
                            "dur": 145, 
                            "type": "note", 
                            "channel": 1
                        }
                    ]
                ], 
                [
                    65371, 
                    [
                        {
                            "pitch": 57, 
                            "t0": 65371, 
                            "v": 73, 
                            "dur": 24, 
                            "type": "note", 
                            "channel": 1
                        }
                    ]
                ], 
                [
                    65401, 
                    [
                        {
                            "pitch": 66, 
                            "t0": 65401, 
                            "v": 85, 
                            "dur": 52, 
                            "type": "note", 
                            "channel": 1
                        }
                    ]
                ], 
                [
                    65403, 
                    [
                        {
                            "pitch": 62, 
                            "t0": 65403, 
                            "v": 71, 
                            "dur": 50, 
                            "type": "note", 
                            "channel": 1
                        }
                    ]
                ], 
                [
                    65405, 
                    [
                        {
                            "pitch": 57, 
                            "t0": 65405, 
                            "v": 58, 
                            "dur": 21, 
                            "type": "note", 
                            "channel": 1
                        }
                    ]
                ], 
                [
                    65488, 
                    [
                        {
                            "pitch": 57, 
                            "t0": 65488, 
                            "v": 60, 
                            "dur": 15, 
                            "type": "note", 
                            "channel": 1
                        }
                    ]
                ], 
                [
                    65533, 
                    [
                        {
                            "pitch": 62, 
                            "t0": 65533, 
                            "v": 74, 
                            "dur": 12, 
                            "type": "note", 
                            "channel": 1
                        }
                    ]
                ], 
                [
                    65535, 
                    [
                        {
                            "pitch": 66, 
                            "t0": 65535, 
                            "v": 61, 
                            "dur": 7, 
                            "type": "note", 
                            "channel": 1
                        }
                    ]
                ], 
                [
                    65536, 
                    [
                        {
                            "pitch": 57, 
                            "t0": 65536, 
                            "v": 52, 
                            "dur": 10, 
                            "type": "note", 
                            "channel": 1
                        }
                    ]
                ], 
                [
                    65597, 
                    [
                        {
                            "pitch": 57, 
                            "t0": 65597, 
                            "v": 75, 
                            "dur": 22, 
                            "type": "note", 
                            "channel": 1
                        }
                    ]
                ], 
                [
                    65598, 
                    [
                        {
                            "pitch": 62, 
                            "t0": 65598, 
                            "v": 88, 
                            "dur": 28, 
                            "type": "note", 
                            "channel": 1
                        }, 
                        {
                            "pitch": 66, 
                            "t0": 65598, 
                            "v": 97, 
                            "dur": 33, 
                            "type": "note", 
                            "channel": 1
                        }
                    ]
                ], 
                [
                    65758, 
                    [
                        {
                            "pitch": 67, 
                            "t0": 65758, 
                            "v": 102, 
                            "dur": 61, 
                            "type": "note", 
                            "channel": 1
                        }
                    ]
                ], 
                [
                    65759, 
                    [
                        {
                            "pitch": 59, 
                            "t0": 65759, 
                            "v": 92, 
                            "dur": 45, 
                            "type": "note", 
                            "channel": 1
                        }, 
                        {
                            "pitch": 62, 
                            "t0": 65759, 
                            "v": 90, 
                            "dur": 60, 
                            "type": "note", 
                            "channel": 1
                        }
                    ]
                ], 
                [
                    65834, 
                    [
                        {
                            "pitch": 59, 
                            "t0": 65834, 
                            "v": 73, 
                            "dur": 12, 
                            "type": "note", 
                            "channel": 1
                        }, 
                        {
                            "pitch": 62, 
                            "t0": 65834, 
                            "v": 77, 
                            "dur": 16, 
                            "type": "note", 
                            "channel": 1
                        }
                    ]
                ], 
                [
                    65837, 
                    [
                        {
                            "pitch": 67, 
                            "t0": 65837, 
                            "v": 79, 
                            "dur": 13, 
                            "type": "note", 
                            "channel": 1
                        }
                    ]
                ], 
                [
                    65960, 
                    [
                        {
                            "pitch": 59, 
                            "t0": 65960, 
                            "v": 55, 
                            "dur": 12, 
                            "type": "note", 
                            "channel": 1
                        }
                    ]
                ], 
                [
                    66074, 
                    [
                        {
                            "pitch": 59, 
                            "t0": 66074, 
                            "v": 91, 
                            "dur": 17, 
                            "type": "note", 
                            "channel": 1
                        }, 
                        {
                            "pitch": 62, 
                            "t0": 66074, 
                            "v": 90, 
                            "dur": 20, 
                            "type": "note", 
                            "channel": 1
                        }
                    ]
                ], 
                [
                    66075, 
                    [
                        {
                            "pitch": 67, 
                            "t0": 66075, 
                            "v": 97, 
                            "dur": 21, 
                            "type": "note", 
                            "channel": 1
                        }
                    ]
                ], 
                [
                    66200, 
                    [
                        {
                            "pitch": 55, 
                            "t0": 66200, 
                            "v": 68, 
                            "dur": 20, 
                            "type": "note", 
                            "channel": 1
                        }
                    ]
                ], 
                [
                    66234, 
                    [
                        {
                            "pitch": 60, 
                            "t0": 66234, 
                            "v": 88, 
                            "dur": 71, 
                            "type": "note", 
                            "channel": 1
                        }, 
                        {
                            "pitch": 64, 
                            "t0": 66234, 
                            "v": 88, 
                            "dur": 72, 
                            "type": "note", 
                            "channel": 1
                        }
                    ]
                ], 
                [
                    66235, 
                    [
                        {
                            "pitch": 55, 
                            "t0": 66235, 
                            "v": 67, 
                            "dur": 52, 
                            "type": "note", 
                            "channel": 1
                        }
                    ]
                ], 
                [
                    66313, 
                    [
                        {
                            "pitch": 64, 
                            "t0": 66313, 
                            "v": 42, 
                            "dur": 15, 
                            "type": "note", 
                            "channel": 1
                        }, 
                        {
                            "pitch": 60, 
                            "t0": 66313, 
                            "v": 67, 
                            "dur": 16, 
                            "type": "note", 
                            "channel": 1
                        }
                    ]
                ], 
                [
                    66314, 
                    [
                        {
                            "pitch": 55, 
                            "t0": 66314, 
                            "v": 68, 
                            "dur": 11, 
                            "type": "note", 
                            "channel": 1
                        }
                    ]
                ], 
                [
                    66445, 
                    [
                        {
                            "pitch": 55, 
                            "t0": 66445, 
                            "v": 84, 
                            "dur": 87, 
                            "type": "note", 
                            "channel": 1
                        }, 
                        {
                            "pitch": 64, 
                            "t0": 66445, 
                            "v": 92, 
                            "dur": 142, 
                            "type": "note", 
                            "channel": 1
                        }, 
                        {
                            "pitch": 60, 
                            "t0": 66445, 
                            "v": 97, 
                            "dur": 142, 
                            "type": "note", 
                            "channel": 1
                        }
                    ]
                ], 
                [
                    66568, 
                    [
                        {
                            "pitch": 55, 
                            "t0": 66568, 
                            "v": 80, 
                            "dur": 53, 
                            "type": "note", 
                            "channel": 1
                        }
                    ]
                ], 
                [
                    66602, 
                    [
                        {
                            "pitch": 60, 
                            "t0": 66602, 
                            "v": 83, 
                            "dur": 59, 
                            "type": "note", 
                            "channel": 1
                        }, 
                        {
                            "pitch": 64, 
                            "t0": 66602, 
                            "v": 76, 
                            "dur": 65, 
                            "type": "note", 
                            "channel": 1
                        }
                    ]
                ], 
                [
                    66694, 
                    [
                        {
                            "pitch": 60, 
                            "t0": 66694, 
                            "v": 62, 
                            "dur": 7, 
                            "type": "note", 
                            "channel": 1
                        }
                    ]
                ], 
                [
                    66725, 
                    [
                        {
                            "pitch": 59, 
                            "t0": 66725, 
                            "v": 92, 
                            "dur": 44, 
                            "type": "note", 
                            "channel": 1
                        }, 
                        {
                            "pitch": 62, 
                            "t0": 66725, 
                            "v": 94, 
                            "dur": 65, 
                            "type": "note", 
                            "channel": 1
                        }
                    ]
                ], 
                [
                    66726, 
                    [
                        {
                            "pitch": 67, 
                            "t0": 66726, 
                            "v": 108, 
                            "dur": 67, 
                            "type": "note", 
                            "channel": 1
                        }
                    ]
                ], 
                [
                    66842, 
                    [
                        {
                            "pitch": 60, 
                            "t0": 66842, 
                            "v": 91, 
                            "dur": 55, 
                            "type": "note", 
                            "channel": 1
                        }
                    ]
                ], 
                [
                    66845, 
                    [
                        {
                            "pitch": 57, 
                            "t0": 66845, 
                            "v": 70, 
                            "dur": 40, 
                            "type": "note", 
                            "channel": 1
                        }, 
                        {
                            "pitch": 67, 
                            "t0": 66845, 
                            "v": 91, 
                            "dur": 50, 
                            "type": "note", 
                            "channel": 1
                        }
                    ]
                ], 
                [
                    66960, 
                    [
                        {
                            "pitch": 61, 
                            "t0": 66960, 
                            "v": 97, 
                            "dur": 58, 
                            "type": "note", 
                            "channel": 1
                        }
                    ]
                ], 
                [
                    66963, 
                    [
                        {
                            "pitch": 58, 
                            "t0": 66963, 
                            "v": 95, 
                            "dur": 46, 
                            "type": "note", 
                            "channel": 1
                        }
                    ]
                ], 
                [
                    66966, 
                    [
                        {
                            "pitch": 67, 
                            "t0": 66966, 
                            "v": 87, 
                            "dur": 46, 
                            "type": "note", 
                            "channel": 1
                        }
                    ]
                ], 
                [
                    67080, 
                    [
                        {
                            "pitch": 62, 
                            "t0": 67080, 
                            "v": 87, 
                            "dur": 51, 
                            "type": "note", 
                            "channel": 1
                        }
                    ]
                ], 
                [
                    67081, 
                    [
                        {
                            "pitch": 59, 
                            "t0": 67081, 
                            "v": 100, 
                            "dur": 25, 
                            "type": "note", 
                            "channel": 1
                        }
                    ]
                ], 
                [
                    67083, 
                    [
                        {
                            "pitch": 67, 
                            "t0": 67083, 
                            "v": 104, 
                            "dur": 54, 
                            "type": "note", 
                            "channel": 1
                        }
                    ]
                ], 
                [
                    67155, 
                    [
                        {
                            "pitch": 60, 
                            "t0": 67155, 
                            "v": 110, 
                            "dur": 211, 
                            "type": "note", 
                            "channel": 1
                        }
                    ]
                ], 
                [
                    67156, 
                    [
                        {
                            "pitch": 64, 
                            "t0": 67156, 
                            "v": 87, 
                            "dur": 220, 
                            "type": "note", 
                            "channel": 1
                        }
                    ]
                ], 
                [
                    67161, 
                    [
                        {
                            "pitch": 63, 
                            "t0": 67161, 
                            "v": 62, 
                            "dur": 7, 
                            "type": "note", 
                            "channel": 1
                        }
                    ]
                ], 
                [
                    67512, 
                    [
                        {
                            "pitch": 63, 
                            "t0": 67512, 
                            "v": 61, 
                            "dur": 30, 
                            "type": "note", 
                            "channel": 1
                        }
                    ]
                ], 
                [
                    67543, 
                    [
                        {
                            "pitch": 64, 
                            "t0": 67543, 
                            "v": 104, 
                            "dur": 64, 
                            "type": "note", 
                            "channel": 1
                        }
                    ]
                ], 
                [
                    67561, 
                    [
                        {
                            "pitch": 72, 
                            "t0": 67561, 
                            "v": 100, 
                            "dur": 54, 
                            "type": "note", 
                            "channel": 1
                        }
                    ]
                ], 
                [
                    67682, 
                    [
                        {
                            "pitch": 71, 
                            "t0": 67682, 
                            "v": 87, 
                            "dur": 137, 
                            "type": "note", 
                            "channel": 1
                        }
                    ]
                ], 
                [
                    67683, 
                    [
                        {
                            "pitch": 62, 
                            "t0": 67683, 
                            "v": 74, 
                            "dur": 82, 
                            "type": "note", 
                            "channel": 1
                        }
                    ]
                ], 
                [
                    67802, 
                    [
                        {
                            "pitch": 62, 
                            "t0": 67802, 
                            "v": 61, 
                            "dur": 33, 
                            "type": "note", 
                            "channel": 1
                        }
                    ]
                ], 
                [
                    67866, 
                    [
                        {
                            "pitch": 67, 
                            "t0": 67866, 
                            "v": 73, 
                            "dur": 48, 
                            "type": "note", 
                            "channel": 1
                        }
                    ]
                ], 
                [
                    67867, 
                    [
                        {
                            "pitch": 59, 
                            "t0": 67867, 
                            "v": 78, 
                            "dur": 39, 
                            "type": "note", 
                            "channel": 1
                        }, 
                        {
                            "pitch": 62, 
                            "t0": 67867, 
                            "v": 67, 
                            "dur": 123, 
                            "type": "note", 
                            "channel": 1
                        }
                    ]
                ], 
                [
                    67933, 
                    [
                        {
                            "pitch": 67, 
                            "t0": 67933, 
                            "v": 56, 
                            "dur": 83, 
                            "type": "note", 
                            "channel": 1
                        }
                    ]
                ], 
                [
                    67935, 
                    [
                        {
                            "pitch": 59, 
                            "t0": 67935, 
                            "v": 49, 
                            "dur": 34, 
                            "type": "note", 
                            "channel": 1
                        }
                    ]
                ], 
                [
                    68004, 
                    [
                        {
                            "pitch": 59, 
                            "t0": 68004, 
                            "v": 88, 
                            "dur": 25, 
                            "type": "note", 
                            "channel": 1
                        }
                    ]
                ], 
                [
                    68010, 
                    [
                        {
                            "pitch": 62, 
                            "t0": 68010, 
                            "v": 44, 
                            "dur": 10, 
                            "type": "note", 
                            "channel": 1
                        }
                    ]
                ], 
                [
                    68038, 
                    [
                        {
                            "pitch": 67, 
                            "t0": 68038, 
                            "v": 76, 
                            "dur": 64, 
                            "type": "note", 
                            "channel": 1
                        }
                    ]
                ], 
                [
                    68039, 
                    [
                        {
                            "pitch": 62, 
                            "t0": 68039, 
                            "v": 84, 
                            "dur": 51, 
                            "type": "note", 
                            "channel": 1
                        }
                    ]
                ], 
                [
                    68042, 
                    [
                        {
                            "pitch": 59, 
                            "t0": 68042, 
                            "v": 47, 
                            "dur": 23, 
                            "type": "note", 
                            "channel": 1
                        }
                    ]
                ], 
                [
                    68120, 
                    [
                        {
                            "pitch": 59, 
                            "t0": 68120, 
                            "v": 52, 
                            "dur": 11, 
                            "type": "note", 
                            "channel": 1
                        }
                    ]
                ], 
                [
                    68154, 
                    [
                        {
                            "pitch": 66, 
                            "t0": 68154, 
                            "v": 82, 
                            "dur": 160, 
                            "type": "note", 
                            "channel": 1
                        }
                    ]
                ], 
                [
                    68155, 
                    [
                        {
                            "pitch": 57, 
                            "t0": 68155, 
                            "v": 80, 
                            "dur": 67, 
                            "type": "note", 
                            "channel": 1
                        }, 
                        {
                            "pitch": 62, 
                            "t0": 68155, 
                            "v": 87, 
                            "dur": 158, 
                            "type": "note", 
                            "channel": 1
                        }
                    ]
                ], 
                [
                    68287, 
                    [
                        {
                            "pitch": 57, 
                            "t0": 68287, 
                            "v": 68, 
                            "dur": 36, 
                            "type": "note", 
                            "channel": 1
                        }
                    ]
                ], 
                [
                    68349, 
                    [
                        {
                            "pitch": 57, 
                            "t0": 68349, 
                            "v": 44, 
                            "dur": 30, 
                            "type": "note", 
                            "channel": 1
                        }
                    ]
                ], 
                [
                    68355, 
                    [
                        {
                            "pitch": 66, 
                            "t0": 68355, 
                            "v": 77, 
                            "dur": 148, 
                            "type": "note", 
                            "channel": 1
                        }, 
                        {
                            "pitch": 62, 
                            "t0": 68355, 
                            "v": 80, 
                            "dur": 150, 
                            "type": "note", 
                            "channel": 1
                        }
                    ]
                ], 
                [
                    68411, 
                    [
                        {
                            "pitch": 57, 
                            "t0": 68411, 
                            "v": 53, 
                            "dur": 30, 
                            "type": "note", 
                            "channel": 1
                        }
                    ]
                ], 
                [
                    68486, 
                    [
                        {
                            "pitch": 57, 
                            "t0": 68486, 
                            "v": 70, 
                            "dur": 70, 
                            "type": "note", 
                            "channel": 1
                        }
                    ]
                ], 
                [
                    68520, 
                    [
                        {
                            "pitch": 62, 
                            "t0": 68520, 
                            "v": 70, 
                            "dur": 71, 
                            "type": "note", 
                            "channel": 1
                        }, 
                        {
                            "pitch": 66, 
                            "t0": 68520, 
                            "v": 77, 
                            "dur": 72, 
                            "type": "note", 
                            "channel": 1
                        }
                    ]
                ], 
                [
                    68593, 
                    [
                        {
                            "pitch": 57, 
                            "t0": 68593, 
                            "v": 59, 
                            "dur": 15, 
                            "type": "note", 
                            "channel": 1
                        }
                    ]
                ], 
                [
                    68643, 
                    [
                        {
                            "pitch": 59, 
                            "t0": 68643, 
                            "v": 106, 
                            "dur": 55, 
                            "type": "note", 
                            "channel": 1
                        }
                    ]
                ], 
                [
                    68644, 
                    [
                        {
                            "pitch": 55, 
                            "t0": 68644, 
                            "v": 84, 
                            "dur": 42, 
                            "type": "note", 
                            "channel": 1
                        }
                    ]
                ], 
                [
                    68758, 
                    [
                        {
                            "pitch": 57, 
                            "t0": 68758, 
                            "v": 102, 
                            "dur": 54, 
                            "type": "note", 
                            "channel": 1
                        }
                    ]
                ], 
                [
                    68759, 
                    [
                        {
                            "pitch": 60, 
                            "t0": 68759, 
                            "v": 104, 
                            "dur": 50, 
                            "type": "note", 
                            "channel": 1
                        }
                    ]
                ], 
                [
                    68878, 
                    [
                        {
                            "pitch": 58, 
                            "t0": 68878, 
                            "v": 95, 
                            "dur": 34, 
                            "type": "note", 
                            "channel": 1
                        }, 
                        {
                            "pitch": 61, 
                            "t0": 68878, 
                            "v": 85, 
                            "dur": 65, 
                            "type": "note", 
                            "channel": 1
                        }
                    ]
                ], 
                [
                    68914, 
                    [
                        {
                            "pitch": 57, 
                            "t0": 68914, 
                            "v": 66, 
                            "dur": 12, 
                            "type": "note", 
                            "channel": 1
                        }
                    ]
                ], 
                [
                    69002, 
                    [
                        {
                            "pitch": 59, 
                            "t0": 69002, 
                            "v": 98, 
                            "dur": 55, 
                            "type": "note", 
                            "channel": 1
                        }, 
                        {
                            "pitch": 62, 
                            "t0": 69002, 
                            "v": 86, 
                            "dur": 57, 
                            "type": "note", 
                            "channel": 1
                        }
                    ]
                ], 
                [
                    69080, 
                    [
                        {
                            "pitch": 55, 
                            "t0": 69080, 
                            "v": 76, 
                            "dur": 84, 
                            "type": "note", 
                            "channel": 1
                        }
                    ]
                ], 
                [
                    69082, 
                    [
                        {
                            "pitch": 60, 
                            "t0": 69082, 
                            "v": 112, 
                            "dur": 150, 
                            "type": "note", 
                            "channel": 1
                        }, 
                        {
                            "pitch": 64, 
                            "t0": 69082, 
                            "v": 112, 
                            "dur": 156, 
                            "type": "note", 
                            "channel": 1
                        }
                    ]
                ], 
                [
                    69210, 
                    [
                        {
                            "pitch": 55, 
                            "t0": 69210, 
                            "v": 80, 
                            "dur": 84, 
                            "type": "note", 
                            "channel": 1
                        }
                    ]
                ], 
                [
                    69246, 
                    [
                        {
                            "pitch": 64, 
                            "t0": 69246, 
                            "v": 55, 
                            "dur": 208, 
                            "type": "note", 
                            "channel": 1
                        }, 
                        {
                            "pitch": 60, 
                            "t0": 69246, 
                            "v": 87, 
                            "dur": 208, 
                            "type": "note", 
                            "channel": 1
                        }
                    ]
                ], 
                [
                    69325, 
                    [
                        {
                            "pitch": 55, 
                            "t0": 69325, 
                            "v": 68, 
                            "dur": 65, 
                            "type": "note", 
                            "channel": 1
                        }
                    ]
                ], 
                [
                    69434, 
                    [
                        {
                            "pitch": 55, 
                            "t0": 69434, 
                            "v": 76, 
                            "dur": 66, 
                            "type": "note", 
                            "channel": 1
                        }
                    ]
                ], 
                [
                    69473, 
                    [
                        {
                            "pitch": 60, 
                            "t0": 69473, 
                            "v": 78, 
                            "dur": 83, 
                            "type": "note", 
                            "channel": 1
                        }
                    ]
                ], 
                [
                    69474, 
                    [
                        {
                            "pitch": 64, 
                            "t0": 69474, 
                            "v": 74, 
                            "dur": 89, 
                            "type": "note", 
                            "channel": 1
                        }
                    ]
                ], 
                [
                    69563, 
                    [
                        {
                            "pitch": 55, 
                            "t0": 69563, 
                            "v": 73, 
                            "dur": 19, 
                            "type": "note", 
                            "channel": 1
                        }
                    ]
                ], 
                [
                    69598, 
                    [
                        {
                            "pitch": 62, 
                            "t0": 69598, 
                            "v": 87, 
                            "dur": 196, 
                            "type": "note", 
                            "channel": 1
                        }
                    ]
                ], 
                [
                    69600, 
                    [
                        {
                            "pitch": 55, 
                            "t0": 69600, 
                            "v": 73, 
                            "dur": 43, 
                            "type": "note", 
                            "channel": 1
                        }, 
                        {
                            "pitch": 59, 
                            "t0": 69600, 
                            "v": 95, 
                            "dur": 192, 
                            "type": "note", 
                            "channel": 1
                        }
                    ]
                ], 
                [
                    69701, 
                    [
                        {
                            "pitch": 55, 
                            "t0": 69701, 
                            "v": 73, 
                            "dur": 66, 
                            "type": "note", 
                            "channel": 1
                        }
                    ]
                ], 
                [
                    69810, 
                    [
                        {
                            "pitch": 55, 
                            "t0": 69810, 
                            "v": 66, 
                            "dur": 48, 
                            "type": "note", 
                            "channel": 1
                        }
                    ]
                ], 
                [
                    69811, 
                    [
                        {
                            "pitch": 59, 
                            "t0": 69811, 
                            "v": 80, 
                            "dur": 105, 
                            "type": "note", 
                            "channel": 1
                        }, 
                        {
                            "pitch": 62, 
                            "t0": 69811, 
                            "v": 71, 
                            "dur": 142, 
                            "type": "note", 
                            "channel": 1
                        }
                    ]
                ], 
                [
                    69928, 
                    [
                        {
                            "pitch": 55, 
                            "t0": 69928, 
                            "v": 83, 
                            "dur": 25, 
                            "type": "note", 
                            "channel": 1
                        }
                    ]
                ], 
                [
                    69934, 
                    [
                        {
                            "pitch": 59, 
                            "t0": 69934, 
                            "v": 56, 
                            "dur": 11, 
                            "type": "note", 
                            "channel": 1
                        }
                    ]
                ], 
                [
                    69961, 
                    [
                        {
                            "pitch": 62, 
                            "t0": 69961, 
                            "v": 68, 
                            "dur": 92, 
                            "type": "note", 
                            "channel": 1
                        }
                    ]
                ], 
                [
                    69963, 
                    [
                        {
                            "pitch": 59, 
                            "t0": 69963, 
                            "v": 92, 
                            "dur": 63, 
                            "type": "note", 
                            "channel": 1
                        }
                    ]
                ], 
                [
                    69964, 
                    [
                        {
                            "pitch": 55, 
                            "t0": 69964, 
                            "v": 61, 
                            "dur": 33, 
                            "type": "note", 
                            "channel": 1
                        }
                    ]
                ], 
                [
                    70039, 
                    [
                        {
                            "pitch": 55, 
                            "t0": 70039, 
                            "v": 72, 
                            "dur": 13, 
                            "type": "note", 
                            "channel": 1
                        }
                    ]
                ], 
                [
                    70071, 
                    [
                        {
                            "pitch": 62, 
                            "t0": 70071, 
                            "v": 87, 
                            "dur": 192, 
                            "type": "note", 
                            "channel": 1
                        }
                    ]
                ], 
                [
                    70073, 
                    [
                        {
                            "pitch": 57, 
                            "t0": 70073, 
                            "v": 100, 
                            "dur": 160, 
                            "type": "note", 
                            "channel": 1
                        }
                    ]
                ], 
                [
                    70077, 
                    [
                        {
                            "pitch": 54, 
                            "t0": 70077, 
                            "v": 84, 
                            "dur": 58, 
                            "type": "note", 
                            "channel": 1
                        }
                    ]
                ], 
                [
                    70198, 
                    [
                        {
                            "pitch": 54, 
                            "t0": 70198, 
                            "v": 81, 
                            "dur": 115, 
                            "type": "note", 
                            "channel": 1
                        }
                    ]
                ], 
                [
                    70278, 
                    [
                        {
                            "pitch": 57, 
                            "t0": 70278, 
                            "v": 73, 
                            "dur": 149, 
                            "type": "note", 
                            "channel": 1
                        }
                    ]
                ], 
                [
                    70280, 
                    [
                        {
                            "pitch": 62, 
                            "t0": 70280, 
                            "v": 64, 
                            "dur": 270, 
                            "type": "note", 
                            "channel": 1
                        }
                    ]
                ], 
                [
                    70403, 
                    [
                        {
                            "pitch": 54, 
                            "t0": 70403, 
                            "v": 70, 
                            "dur": 60, 
                            "type": "note", 
                            "channel": 1
                        }
                    ]
                ], 
                [
                    70441, 
                    [
                        {
                            "pitch": 57, 
                            "t0": 70441, 
                            "v": 60, 
                            "dur": 96, 
                            "type": "note", 
                            "channel": 1
                        }
                    ]
                ], 
                [
                    70527, 
                    [
                        {
                            "pitch": 54, 
                            "t0": 70527, 
                            "v": 67, 
                            "dur": 14, 
                            "type": "note", 
                            "channel": 1
                        }
                    ]
                ], 
                [
                    71044, 
                    [
                        {
                            "pitch": 57, 
                            "t0": 71044, 
                            "v": 112, 
                            "dur": 20, 
                            "type": "note", 
                            "channel": 1
                        }
                    ]
                ], 
                [
                    71045, 
                    [
                        {
                            "pitch": 62, 
                            "t0": 71045, 
                            "v": 122, 
                            "dur": 92, 
                            "type": "note", 
                            "channel": 1
                        }
                    ]
                ], 
                [
                    71048, 
                    [
                        {
                            "pitch": 59, 
                            "t0": 71048, 
                            "v": 125, 
                            "dur": 40, 
                            "type": "note", 
                            "channel": 1
                        }
                    ]
                ], 
                [
                    71090, 
                    [
                        {
                            "pitch": 57, 
                            "t0": 71090, 
                            "v": 114, 
                            "dur": 32, 
                            "type": "note", 
                            "channel": 1
                        }
                    ]
                ], 
                [
                    71122, 
                    [
                        {
                            "pitch": 55, 
                            "t0": 71122, 
                            "v": 102, 
                            "dur": 28, 
                            "type": "note", 
                            "channel": 1
                        }
                    ]
                ], 
                [
                    71167, 
                    [
                        {
                            "pitch": 57, 
                            "t0": 71167, 
                            "v": 120, 
                            "dur": 52, 
                            "type": "note", 
                            "channel": 1
                        }
                    ]
                ], 
                [
                    71168, 
                    [
                        {
                            "pitch": 62, 
                            "t0": 71168, 
                            "v": 125, 
                            "dur": 51, 
                            "type": "note", 
                            "channel": 1
                        }
                    ]
                ], 
                [
                    71287, 
                    [
                        {
                            "pitch": 55, 
                            "t0": 71287, 
                            "v": 125, 
                            "dur": 1464, 
                            "type": "note", 
                            "channel": 1
                        }, 
                        {
                            "pitch": 62, 
                            "t0": 71287, 
                            "v": 127, 
                            "dur": 1465, 
                            "type": "note", 
                            "channel": 1
                        }
                    ]
                ], 
                [
                    71288, 
                    [
                        {
                            "pitch": 59, 
                            "t0": 71288, 
                            "v": 122, 
                            "dur": 1465, 
                            "type": "note", 
                            "channel": 1
                        }
                    ]
                ], 
                [
                    71289, 
                    [
                        {
                            "pitch": 31, 
                            "t0": 71289, 
                            "v": 94, 
                            "dur": 1463, 
                            "type": "note", 
                            "channel": 1
                        }
                    ]
                ], 
                [
                    71290, 
                    [
                        {
                            "pitch": 57, 
                            "t0": 71290, 
                            "v": 92, 
                            "dur": 8, 
                            "type": "note", 
                            "channel": 1
                        }
                    ]
                ], 
                [
                    71291, 
                    [
                        {
                            "pitch": 43, 
                            "t0": 71291, 
                            "v": 67, 
                            "dur": 1458, 
                            "type": "note", 
                            "channel": 1
                        }
                    ]
                ]
            ], 
            "instruments": [
                0, 
                2
            ], 
            "tMax": 72749, 
            "channels": [
                1
            ], 
            "instrument": 0, 
            "numNotes": 1524, 
            "type": "TrackObj"
        }, 
        {
            "trackName": "ch8 mutedguitar", 
            "seq": [
                [
                    0, 
                    [
                        {
                            "instrument": 28, 
                            "type": "programChange", 
                            "t0": 0, 
                            "channel": 7
                        }
                    ]
                ], 
                [
                    485, 
                    [
                        {
                            "instrument": 28, 
                            "type": "programChange", 
                            "t0": 485, 
                            "channel": 7
                        }, 
                        {
                            "pitch": 43, 
                            "t0": 485, 
                            "v": 70, 
                            "dur": 53, 
                            "type": "note", 
                            "channel": 7
                        }, 
                        {
                            "pitch": 50, 
                            "t0": 485, 
                            "v": 85, 
                            "dur": 59, 
                            "type": "note", 
                            "channel": 7
                        }
                    ]
                ], 
                [
                    554, 
                    [
                        {
                            "pitch": 43, 
                            "t0": 554, 
                            "v": 56, 
                            "dur": 23, 
                            "type": "note", 
                            "channel": 7
                        }
                    ]
                ], 
                [
                    557, 
                    [
                        {
                            "pitch": 50, 
                            "t0": 557, 
                            "v": 83, 
                            "dur": 21, 
                            "type": "note", 
                            "channel": 7
                        }
                    ]
                ], 
                [
                    593, 
                    [
                        {
                            "pitch": 43, 
                            "t0": 593, 
                            "v": 77, 
                            "dur": 61, 
                            "type": "note", 
                            "channel": 7
                        }
                    ]
                ], 
                [
                    594, 
                    [
                        {
                            "pitch": 52, 
                            "t0": 594, 
                            "v": 94, 
                            "dur": 60, 
                            "type": "note", 
                            "channel": 7
                        }
                    ]
                ], 
                [
                    672, 
                    [
                        {
                            "pitch": 43, 
                            "t0": 672, 
                            "v": 73, 
                            "dur": 95, 
                            "type": "note", 
                            "channel": 7
                        }, 
                        {
                            "pitch": 50, 
                            "t0": 672, 
                            "v": 100, 
                            "dur": 109, 
                            "type": "note", 
                            "channel": 7
                        }
                    ]
                ], 
                [
                    794, 
                    [
                        {
                            "pitch": 50, 
                            "t0": 794, 
                            "v": 73, 
                            "dur": 23, 
                            "type": "note", 
                            "channel": 7
                        }
                    ]
                ], 
                [
                    796, 
                    [
                        {
                            "pitch": 43, 
                            "t0": 796, 
                            "v": 64, 
                            "dur": 20, 
                            "type": "note", 
                            "channel": 7
                        }
                    ]
                ], 
                [
                    837, 
                    [
                        {
                            "pitch": 43, 
                            "t0": 837, 
                            "v": 65, 
                            "dur": 12, 
                            "type": "note", 
                            "channel": 7
                        }, 
                        {
                            "pitch": 52, 
                            "t0": 837, 
                            "v": 92, 
                            "dur": 20, 
                            "type": "note", 
                            "channel": 7
                        }
                    ]
                ], 
                [
                    962, 
                    [
                        {
                            "pitch": 48, 
                            "t0": 962, 
                            "v": 76, 
                            "dur": 79, 
                            "type": "note", 
                            "channel": 7
                        }, 
                        {
                            "pitch": 55, 
                            "t0": 962, 
                            "v": 83, 
                            "dur": 83, 
                            "type": "note", 
                            "channel": 7
                        }
                    ]
                ], 
                [
                    1074, 
                    [
                        {
                            "pitch": 57, 
                            "t0": 1074, 
                            "v": 81, 
                            "dur": 53, 
                            "type": "note", 
                            "channel": 7
                        }
                    ]
                ], 
                [
                    1075, 
                    [
                        {
                            "pitch": 48, 
                            "t0": 1075, 
                            "v": 77, 
                            "dur": 57, 
                            "type": "note", 
                            "channel": 7
                        }
                    ]
                ], 
                [
                    1149, 
                    [
                        {
                            "pitch": 48, 
                            "t0": 1149, 
                            "v": 75, 
                            "dur": 105, 
                            "type": "note", 
                            "channel": 7
                        }, 
                        {
                            "pitch": 55, 
                            "t0": 1149, 
                            "v": 100, 
                            "dur": 114, 
                            "type": "note", 
                            "channel": 7
                        }
                    ]
                ], 
                [
                    1276, 
                    [
                        {
                            "pitch": 48, 
                            "t0": 1276, 
                            "v": 62, 
                            "dur": 19, 
                            "type": "note", 
                            "channel": 7
                        }
                    ]
                ], 
                [
                    1278, 
                    [
                        {
                            "pitch": 55, 
                            "t0": 1278, 
                            "v": 75, 
                            "dur": 19, 
                            "type": "note", 
                            "channel": 7
                        }
                    ]
                ], 
                [
                    1311, 
                    [
                        {
                            "pitch": 57, 
                            "t0": 1311, 
                            "v": 88, 
                            "dur": 23, 
                            "type": "note", 
                            "channel": 7
                        }
                    ]
                ], 
                [
                    1312, 
                    [
                        {
                            "pitch": 48, 
                            "t0": 1312, 
                            "v": 80, 
                            "dur": 24, 
                            "type": "note", 
                            "channel": 7
                        }
                    ]
                ], 
                [
                    1429, 
                    [
                        {
                            "pitch": 43, 
                            "t0": 1429, 
                            "v": 73, 
                            "dur": 49, 
                            "type": "note", 
                            "channel": 7
                        }, 
                        {
                            "pitch": 50, 
                            "t0": 1429, 
                            "v": 83, 
                            "dur": 69, 
                            "type": "note", 
                            "channel": 7
                        }
                    ]
                ], 
                [
                    1513, 
                    [
                        {
                            "pitch": 43, 
                            "t0": 1513, 
                            "v": 61, 
                            "dur": 21, 
                            "type": "note", 
                            "channel": 7
                        }, 
                        {
                            "pitch": 50, 
                            "t0": 1513, 
                            "v": 48, 
                            "dur": 21, 
                            "type": "note", 
                            "channel": 7
                        }
                    ]
                ], 
                [
                    1551, 
                    [
                        {
                            "pitch": 52, 
                            "t0": 1551, 
                            "v": 86, 
                            "dur": 77, 
                            "type": "note", 
                            "channel": 7
                        }
                    ]
                ], 
                [
                    1552, 
                    [
                        {
                            "pitch": 43, 
                            "t0": 1552, 
                            "v": 80, 
                            "dur": 48, 
                            "type": "note", 
                            "channel": 7
                        }
                    ]
                ], 
                [
                    1637, 
                    [
                        {
                            "pitch": 43, 
                            "t0": 1637, 
                            "v": 66, 
                            "dur": 19, 
                            "type": "note", 
                            "channel": 7
                        }
                    ]
                ], 
                [
                    1677, 
                    [
                        {
                            "pitch": 43, 
                            "t0": 1677, 
                            "v": 70, 
                            "dur": 45, 
                            "type": "note", 
                            "channel": 7
                        }, 
                        {
                            "pitch": 53, 
                            "t0": 1677, 
                            "v": 102, 
                            "dur": 73, 
                            "type": "note", 
                            "channel": 7
                        }
                    ]
                ], 
                [
                    1754, 
                    [
                        {
                            "pitch": 43, 
                            "t0": 1754, 
                            "v": 69, 
                            "dur": 19, 
                            "type": "note", 
                            "channel": 7
                        }
                    ]
                ], 
                [
                    1792, 
                    [
                        {
                            "pitch": 52, 
                            "t0": 1792, 
                            "v": 90, 
                            "dur": 53, 
                            "type": "note", 
                            "channel": 7
                        }
                    ]
                ], 
                [
                    1795, 
                    [
                        {
                            "pitch": 43, 
                            "t0": 1795, 
                            "v": 73, 
                            "dur": 45, 
                            "type": "note", 
                            "channel": 7
                        }
                    ]
                ], 
                [
                    1864, 
                    [
                        {
                            "pitch": 43, 
                            "t0": 1864, 
                            "v": 79, 
                            "dur": 102, 
                            "type": "note", 
                            "channel": 7
                        }
                    ]
                ], 
                [
                    1865, 
                    [
                        {
                            "pitch": 50, 
                            "t0": 1865, 
                            "v": 97, 
                            "dur": 115, 
                            "type": "note", 
                            "channel": 7
                        }
                    ]
                ], 
                [
                    1994, 
                    [
                        {
                            "pitch": 43, 
                            "t0": 1994, 
                            "v": 68, 
                            "dur": 23, 
                            "type": "note", 
                            "channel": 7
                        }
                    ]
                ], 
                [
                    1995, 
                    [
                        {
                            "pitch": 50, 
                            "t0": 1995, 
                            "v": 73, 
                            "dur": 24, 
                            "type": "note", 
                            "channel": 7
                        }
                    ]
                ], 
                [
                    2033, 
                    [
                        {
                            "pitch": 52, 
                            "t0": 2033, 
                            "v": 88, 
                            "dur": 48, 
                            "type": "note", 
                            "channel": 7
                        }
                    ]
                ], 
                [
                    2035, 
                    [
                        {
                            "pitch": 43, 
                            "t0": 2035, 
                            "v": 76, 
                            "dur": 45, 
                            "type": "note", 
                            "channel": 7
                        }
                    ]
                ], 
                [
                    2106, 
                    [
                        {
                            "pitch": 43, 
                            "t0": 2106, 
                            "v": 76, 
                            "dur": 96, 
                            "type": "note", 
                            "channel": 7
                        }, 
                        {
                            "pitch": 50, 
                            "t0": 2106, 
                            "v": 97, 
                            "dur": 106, 
                            "type": "note", 
                            "channel": 7
                        }
                    ]
                ], 
                [
                    2232, 
                    [
                        {
                            "pitch": 43, 
                            "t0": 2232, 
                            "v": 70, 
                            "dur": 22, 
                            "type": "note", 
                            "channel": 7
                        }
                    ]
                ], 
                [
                    2233, 
                    [
                        {
                            "pitch": 50, 
                            "t0": 2233, 
                            "v": 76, 
                            "dur": 23, 
                            "type": "note", 
                            "channel": 7
                        }
                    ]
                ], 
                [
                    2272, 
                    [
                        {
                            "pitch": 43, 
                            "t0": 2272, 
                            "v": 84, 
                            "dur": 44, 
                            "type": "note", 
                            "channel": 7
                        }, 
                        {
                            "pitch": 52, 
                            "t0": 2272, 
                            "v": 95, 
                            "dur": 58, 
                            "type": "note", 
                            "channel": 7
                        }
                    ]
                ], 
                [
                    2356, 
                    [
                        {
                            "pitch": 43, 
                            "t0": 2356, 
                            "v": 69, 
                            "dur": 26, 
                            "type": "note", 
                            "channel": 7
                        }
                    ]
                ], 
                [
                    2394, 
                    [
                        {
                            "pitch": 50, 
                            "t0": 2394, 
                            "v": 95, 
                            "dur": 59, 
                            "type": "note", 
                            "channel": 7
                        }
                    ]
                ], 
                [
                    2396, 
                    [
                        {
                            "pitch": 43, 
                            "t0": 2396, 
                            "v": 66, 
                            "dur": 46, 
                            "type": "note", 
                            "channel": 7
                        }
                    ]
                ], 
                [
                    2473, 
                    [
                        {
                            "pitch": 50, 
                            "t0": 2473, 
                            "v": 80, 
                            "dur": 26, 
                            "type": "note", 
                            "channel": 7
                        }
                    ]
                ], 
                [
                    2476, 
                    [
                        {
                            "pitch": 43, 
                            "t0": 2476, 
                            "v": 66, 
                            "dur": 20, 
                            "type": "note", 
                            "channel": 7
                        }
                    ]
                ], 
                [
                    2513, 
                    [
                        {
                            "pitch": 52, 
                            "t0": 2513, 
                            "v": 91, 
                            "dur": 52, 
                            "type": "note", 
                            "channel": 7
                        }
                    ]
                ], 
                [
                    2514, 
                    [
                        {
                            "pitch": 43, 
                            "t0": 2514, 
                            "v": 80, 
                            "dur": 48, 
                            "type": "note", 
                            "channel": 7
                        }
                    ]
                ], 
                [
                    2587, 
                    [
                        {
                            "pitch": 50, 
                            "t0": 2587, 
                            "v": 91, 
                            "dur": 114, 
                            "type": "note", 
                            "channel": 7
                        }
                    ]
                ], 
                [
                    2588, 
                    [
                        {
                            "pitch": 43, 
                            "t0": 2588, 
                            "v": 78, 
                            "dur": 110, 
                            "type": "note", 
                            "channel": 7
                        }
                    ]
                ], 
                [
                    2718, 
                    [
                        {
                            "pitch": 43, 
                            "t0": 2718, 
                            "v": 69, 
                            "dur": 21, 
                            "type": "note", 
                            "channel": 7
                        }, 
                        {
                            "pitch": 50, 
                            "t0": 2718, 
                            "v": 73, 
                            "dur": 26, 
                            "type": "note", 
                            "channel": 7
                        }
                    ]
                ], 
                [
                    2757, 
                    [
                        {
                            "pitch": 52, 
                            "t0": 2757, 
                            "v": 91, 
                            "dur": 53, 
                            "type": "note", 
                            "channel": 7
                        }
                    ]
                ], 
                [
                    2758, 
                    [
                        {
                            "pitch": 43, 
                            "t0": 2758, 
                            "v": 80, 
                            "dur": 52, 
                            "type": "note", 
                            "channel": 7
                        }
                    ]
                ], 
                [
                    2832, 
                    [
                        {
                            "pitch": 50, 
                            "t0": 2832, 
                            "v": 80, 
                            "dur": 149, 
                            "type": "note", 
                            "channel": 7
                        }
                    ]
                ], 
                [
                    2834, 
                    [
                        {
                            "pitch": 43, 
                            "t0": 2834, 
                            "v": 70, 
                            "dur": 25, 
                            "type": "note", 
                            "channel": 7
                        }
                    ]
                ], 
                [
                    2870, 
                    [
                        {
                            "pitch": 43, 
                            "t0": 2870, 
                            "v": 48, 
                            "dur": 51, 
                            "type": "note", 
                            "channel": 7
                        }
                    ]
                ], 
                [
                    2960, 
                    [
                        {
                            "pitch": 43, 
                            "t0": 2960, 
                            "v": 54, 
                            "dur": 23, 
                            "type": "note", 
                            "channel": 7
                        }
                    ]
                ], 
                [
                    3002, 
                    [
                        {
                            "pitch": 50, 
                            "t0": 3002, 
                            "v": 71, 
                            "dur": 18, 
                            "type": "note", 
                            "channel": 7
                        }, 
                        {
                            "pitch": 43, 
                            "t0": 3002, 
                            "v": 51, 
                            "dur": 20, 
                            "type": "note", 
                            "channel": 7
                        }
                    ]
                ], 
                [
                    3071, 
                    [
                        {
                            "pitch": 47, 
                            "t0": 3071, 
                            "v": 78, 
                            "dur": 22, 
                            "type": "note", 
                            "channel": 7
                        }
                    ]
                ], 
                [
                    3114, 
                    [
                        {
                            "pitch": 48, 
                            "t0": 3114, 
                            "v": 81, 
                            "dur": 62, 
                            "type": "note", 
                            "channel": 7
                        }
                    ]
                ], 
                [
                    3197, 
                    [
                        {
                            "pitch": 48, 
                            "t0": 3197, 
                            "v": 77, 
                            "dur": 27, 
                            "type": "note", 
                            "channel": 7
                        }
                    ]
                ], 
                [
                    3235, 
                    [
                        {
                            "pitch": 49, 
                            "t0": 3235, 
                            "v": 82, 
                            "dur": 42, 
                            "type": "note", 
                            "channel": 7
                        }
                    ]
                ], 
                [
                    3361, 
                    [
                        {
                            "pitch": 57, 
                            "t0": 3361, 
                            "v": 78, 
                            "dur": 62, 
                            "type": "note", 
                            "channel": 7
                        }
                    ]
                ], 
                [
                    3365, 
                    [
                        {
                            "pitch": 50, 
                            "t0": 3365, 
                            "v": 59, 
                            "dur": 18, 
                            "type": "note", 
                            "channel": 7
                        }
                    ]
                ], 
                [
                    3439, 
                    [
                        {
                            "pitch": 50, 
                            "t0": 3439, 
                            "v": 64, 
                            "dur": 20, 
                            "type": "note", 
                            "channel": 7
                        }
                    ]
                ], 
                [
                    3443, 
                    [
                        {
                            "pitch": 57, 
                            "t0": 3443, 
                            "v": 62, 
                            "dur": 18, 
                            "type": "note", 
                            "channel": 7
                        }
                    ]
                ], 
                [
                    3474, 
                    [
                        {
                            "pitch": 59, 
                            "t0": 3474, 
                            "v": 97, 
                            "dur": 51, 
                            "type": "note", 
                            "channel": 7
                        }
                    ]
                ], 
                [
                    3477, 
                    [
                        {
                            "pitch": 50, 
                            "t0": 3477, 
                            "v": 71, 
                            "dur": 46, 
                            "type": "note", 
                            "channel": 7
                        }
                    ]
                ], 
                [
                    3550, 
                    [
                        {
                            "pitch": 50, 
                            "t0": 3550, 
                            "v": 80, 
                            "dur": 102, 
                            "type": "note", 
                            "channel": 7
                        }
                    ]
                ], 
                [
                    3551, 
                    [
                        {
                            "pitch": 57, 
                            "t0": 3551, 
                            "v": 91, 
                            "dur": 110, 
                            "type": "note", 
                            "channel": 7
                        }
                    ]
                ], 
                [
                    3680, 
                    [
                        {
                            "pitch": 50, 
                            "t0": 3680, 
                            "v": 65, 
                            "dur": 24, 
                            "type": "note", 
                            "channel": 7
                        }
                    ]
                ], 
                [
                    3683, 
                    [
                        {
                            "pitch": 57, 
                            "t0": 3683, 
                            "v": 69, 
                            "dur": 19, 
                            "type": "note", 
                            "channel": 7
                        }
                    ]
                ], 
                [
                    3719, 
                    [
                        {
                            "pitch": 50, 
                            "t0": 3719, 
                            "v": 72, 
                            "dur": 46, 
                            "type": "note", 
                            "channel": 7
                        }, 
                        {
                            "pitch": 59, 
                            "t0": 3719, 
                            "v": 87, 
                            "dur": 54, 
                            "type": "note", 
                            "channel": 7
                        }
                    ]
                ], 
                [
                    3793, 
                    [
                        {
                            "pitch": 57, 
                            "t0": 3793, 
                            "v": 83, 
                            "dur": 24, 
                            "type": "note", 
                            "channel": 7
                        }
                    ]
                ], 
                [
                    3797, 
                    [
                        {
                            "pitch": 50, 
                            "t0": 3797, 
                            "v": 70, 
                            "dur": 20, 
                            "type": "note", 
                            "channel": 7
                        }
                    ]
                ], 
                [
                    4047, 
                    [
                        {
                            "pitch": 40, 
                            "t0": 4047, 
                            "v": 75, 
                            "dur": 22, 
                            "type": "note", 
                            "channel": 7
                        }
                    ]
                ], 
                [
                    4051, 
                    [
                        {
                            "pitch": 47, 
                            "t0": 4051, 
                            "v": 69, 
                            "dur": 18, 
                            "type": "note", 
                            "channel": 7
                        }
                    ]
                ], 
                [
                    4095, 
                    [
                        {
                            "pitch": 48, 
                            "t0": 4095, 
                            "v": 79, 
                            "dur": 33, 
                            "type": "note", 
                            "channel": 7
                        }
                    ]
                ], 
                [
                    4117, 
                    [
                        {
                            "pitch": 41, 
                            "t0": 4117, 
                            "v": 72, 
                            "dur": 40, 
                            "type": "note", 
                            "channel": 7
                        }
                    ]
                ], 
                [
                    4204, 
                    [
                        {
                            "pitch": 42, 
                            "t0": 4204, 
                            "v": 85, 
                            "dur": 56, 
                            "type": "note", 
                            "channel": 7
                        }
                    ]
                ], 
                [
                    4206, 
                    [
                        {
                            "pitch": 49, 
                            "t0": 4206, 
                            "v": 82, 
                            "dur": 46, 
                            "type": "note", 
                            "channel": 7
                        }
                    ]
                ], 
                [
                    4321, 
                    [
                        {
                            "pitch": 43, 
                            "t0": 4321, 
                            "v": 77, 
                            "dur": 44, 
                            "type": "note", 
                            "channel": 7
                        }
                    ]
                ], 
                [
                    4323, 
                    [
                        {
                            "pitch": 52, 
                            "t0": 4323, 
                            "v": 81, 
                            "dur": 33, 
                            "type": "note", 
                            "channel": 7
                        }
                    ]
                ], 
                [
                    4324, 
                    [
                        {
                            "pitch": 50, 
                            "t0": 4324, 
                            "v": 85, 
                            "dur": 37, 
                            "type": "note", 
                            "channel": 7
                        }
                    ]
                ], 
                [
                    4391, 
                    [
                        {
                            "pitch": 50, 
                            "t0": 4391, 
                            "v": 12, 
                            "dur": 30, 
                            "type": "note", 
                            "channel": 7
                        }
                    ]
                ], 
                [
                    4404, 
                    [
                        {
                            "pitch": 43, 
                            "t0": 4404, 
                            "v": 40, 
                            "dur": 13, 
                            "type": "note", 
                            "channel": 7
                        }
                    ]
                ], 
                [
                    4438, 
                    [
                        {
                            "pitch": 52, 
                            "t0": 4438, 
                            "v": 92, 
                            "dur": 50, 
                            "type": "note", 
                            "channel": 7
                        }, 
                        {
                            "pitch": 43, 
                            "t0": 4438, 
                            "v": 70, 
                            "dur": 51, 
                            "type": "note", 
                            "channel": 7
                        }
                    ]
                ], 
                [
                    4511, 
                    [
                        {
                            "pitch": 50, 
                            "t0": 4511, 
                            "v": 90, 
                            "dur": 105, 
                            "type": "note", 
                            "channel": 7
                        }
                    ]
                ], 
                [
                    4512, 
                    [
                        {
                            "pitch": 43, 
                            "t0": 4512, 
                            "v": 70, 
                            "dur": 90, 
                            "type": "note", 
                            "channel": 7
                        }
                    ]
                ], 
                [
                    4637, 
                    [
                        {
                            "pitch": 50, 
                            "t0": 4637, 
                            "v": 64, 
                            "dur": 27, 
                            "type": "note", 
                            "channel": 7
                        }
                    ]
                ], 
                [
                    4638, 
                    [
                        {
                            "pitch": 43, 
                            "t0": 4638, 
                            "v": 62, 
                            "dur": 22, 
                            "type": "note", 
                            "channel": 7
                        }
                    ]
                ], 
                [
                    4677, 
                    [
                        {
                            "pitch": 43, 
                            "t0": 4677, 
                            "v": 73, 
                            "dur": 18, 
                            "type": "note", 
                            "channel": 7
                        }, 
                        {
                            "pitch": 52, 
                            "t0": 4677, 
                            "v": 95, 
                            "dur": 31, 
                            "type": "note", 
                            "channel": 7
                        }
                    ]
                ], 
                [
                    4792, 
                    [
                        {
                            "pitch": 55, 
                            "t0": 4792, 
                            "v": 87, 
                            "dur": 66, 
                            "type": "note", 
                            "channel": 7
                        }
                    ]
                ], 
                [
                    4793, 
                    [
                        {
                            "pitch": 48, 
                            "t0": 4793, 
                            "v": 72, 
                            "dur": 42, 
                            "type": "note", 
                            "channel": 7
                        }
                    ]
                ], 
                [
                    4874, 
                    [
                        {
                            "pitch": 48, 
                            "t0": 4874, 
                            "v": 63, 
                            "dur": 22, 
                            "type": "note", 
                            "channel": 7
                        }
                    ]
                ], 
                [
                    4876, 
                    [
                        {
                            "pitch": 55, 
                            "t0": 4876, 
                            "v": 66, 
                            "dur": 20, 
                            "type": "note", 
                            "channel": 7
                        }
                    ]
                ], 
                [
                    4911, 
                    [
                        {
                            "pitch": 57, 
                            "t0": 4911, 
                            "v": 86, 
                            "dur": 63, 
                            "type": "note", 
                            "channel": 7
                        }
                    ]
                ], 
                [
                    4913, 
                    [
                        {
                            "pitch": 48, 
                            "t0": 4913, 
                            "v": 77, 
                            "dur": 61, 
                            "type": "note", 
                            "channel": 7
                        }
                    ]
                ], 
                [
                    4992, 
                    [
                        {
                            "pitch": 48, 
                            "t0": 4992, 
                            "v": 80, 
                            "dur": 97, 
                            "type": "note", 
                            "channel": 7
                        }
                    ]
                ], 
                [
                    4993, 
                    [
                        {
                            "pitch": 55, 
                            "t0": 4993, 
                            "v": 100, 
                            "dur": 107, 
                            "type": "note", 
                            "channel": 7
                        }
                    ]
                ], 
                [
                    5115, 
                    [
                        {
                            "pitch": 48, 
                            "t0": 5115, 
                            "v": 62, 
                            "dur": 26, 
                            "type": "note", 
                            "channel": 7
                        }
                    ]
                ], 
                [
                    5117, 
                    [
                        {
                            "pitch": 55, 
                            "t0": 5117, 
                            "v": 73, 
                            "dur": 27, 
                            "type": "note", 
                            "channel": 7
                        }
                    ]
                ], 
                [
                    5157, 
                    [
                        {
                            "pitch": 57, 
                            "t0": 5157, 
                            "v": 85, 
                            "dur": 26, 
                            "type": "note", 
                            "channel": 7
                        }
                    ]
                ], 
                [
                    5159, 
                    [
                        {
                            "pitch": 48, 
                            "t0": 5159, 
                            "v": 85, 
                            "dur": 29, 
                            "type": "note", 
                            "channel": 7
                        }
                    ]
                ], 
                [
                    5239, 
                    [
                        {
                            "pitch": 43, 
                            "t0": 5239, 
                            "v": 57, 
                            "dur": 19, 
                            "type": "note", 
                            "channel": 7
                        }
                    ]
                ], 
                [
                    5275, 
                    [
                        {
                            "pitch": 43, 
                            "t0": 5275, 
                            "v": 70, 
                            "dur": 48, 
                            "type": "note", 
                            "channel": 7
                        }, 
                        {
                            "pitch": 50, 
                            "t0": 5275, 
                            "v": 85, 
                            "dur": 63, 
                            "type": "note", 
                            "channel": 7
                        }
                    ]
                ], 
                [
                    5357, 
                    [
                        {
                            "pitch": 43, 
                            "t0": 5357, 
                            "v": 67, 
                            "dur": 24, 
                            "type": "note", 
                            "channel": 7
                        }
                    ]
                ], 
                [
                    5358, 
                    [
                        {
                            "pitch": 50, 
                            "t0": 5358, 
                            "v": 72, 
                            "dur": 22, 
                            "type": "note", 
                            "channel": 7
                        }
                    ]
                ], 
                [
                    5397, 
                    [
                        {
                            "pitch": 52, 
                            "t0": 5397, 
                            "v": 90, 
                            "dur": 54, 
                            "type": "note", 
                            "channel": 7
                        }
                    ]
                ], 
                [
                    5398, 
                    [
                        {
                            "pitch": 43, 
                            "t0": 5398, 
                            "v": 69, 
                            "dur": 58, 
                            "type": "note", 
                            "channel": 7
                        }
                    ]
                ], 
                [
                    5474, 
                    [
                        {
                            "pitch": 43, 
                            "t0": 5474, 
                            "v": 75, 
                            "dur": 92, 
                            "type": "note", 
                            "channel": 7
                        }
                    ]
                ], 
                [
                    5475, 
                    [
                        {
                            "pitch": 50, 
                            "t0": 5475, 
                            "v": 88, 
                            "dur": 106, 
                            "type": "note", 
                            "channel": 7
                        }
                    ]
                ], 
                [
                    5599, 
                    [
                        {
                            "pitch": 43, 
                            "t0": 5599, 
                            "v": 71, 
                            "dur": 21, 
                            "type": "note", 
                            "channel": 7
                        }, 
                        {
                            "pitch": 50, 
                            "t0": 5599, 
                            "v": 77, 
                            "dur": 23, 
                            "type": "note", 
                            "channel": 7
                        }
                    ]
                ], 
                [
                    5639, 
                    [
                        {
                            "pitch": 43, 
                            "t0": 5639, 
                            "v": 70, 
                            "dur": 13, 
                            "type": "note", 
                            "channel": 7
                        }, 
                        {
                            "pitch": 52, 
                            "t0": 5639, 
                            "v": 92, 
                            "dur": 26, 
                            "type": "note", 
                            "channel": 7
                        }
                    ]
                ], 
                [
                    5721, 
                    [
                        {
                            "pitch": 54, 
                            "t0": 5721, 
                            "v": 78, 
                            "dur": 21, 
                            "type": "note", 
                            "channel": 7
                        }
                    ]
                ], 
                [
                    5726, 
                    [
                        {
                            "pitch": 48, 
                            "t0": 5726, 
                            "v": 73, 
                            "dur": 16, 
                            "type": "note", 
                            "channel": 7
                        }
                    ]
                ], 
                [
                    5755, 
                    [
                        {
                            "pitch": 55, 
                            "t0": 5755, 
                            "v": 95, 
                            "dur": 58, 
                            "type": "note", 
                            "channel": 7
                        }
                    ]
                ], 
                [
                    5759, 
                    [
                        {
                            "pitch": 48, 
                            "t0": 5759, 
                            "v": 70, 
                            "dur": 38, 
                            "type": "note", 
                            "channel": 7
                        }
                    ]
                ], 
                [
                    5762, 
                    [
                        {
                            "pitch": 47, 
                            "t0": 5762, 
                            "v": 56, 
                            "dur": 5, 
                            "type": "note", 
                            "channel": 7
                        }
                    ]
                ], 
                [
                    5834, 
                    [
                        {
                            "pitch": 55, 
                            "t0": 5834, 
                            "v": 65, 
                            "dur": 24, 
                            "type": "note", 
                            "channel": 7
                        }
                    ]
                ], 
                [
                    5838, 
                    [
                        {
                            "pitch": 48, 
                            "t0": 5838, 
                            "v": 68, 
                            "dur": 20, 
                            "type": "note", 
                            "channel": 7
                        }
                    ]
                ], 
                [
                    5873, 
                    [
                        {
                            "pitch": 57, 
                            "t0": 5873, 
                            "v": 92, 
                            "dur": 61, 
                            "type": "note", 
                            "channel": 7
                        }
                    ]
                ], 
                [
                    5874, 
                    [
                        {
                            "pitch": 48, 
                            "t0": 5874, 
                            "v": 80, 
                            "dur": 62, 
                            "type": "note", 
                            "channel": 7
                        }
                    ]
                ], 
                [
                    5953, 
                    [
                        {
                            "pitch": 48, 
                            "t0": 5953, 
                            "v": 78, 
                            "dur": 95, 
                            "type": "note", 
                            "channel": 7
                        }
                    ]
                ], 
                [
                    5954, 
                    [
                        {
                            "pitch": 55, 
                            "t0": 5954, 
                            "v": 110, 
                            "dur": 102, 
                            "type": "note", 
                            "channel": 7
                        }
                    ]
                ], 
                [
                    6076, 
                    [
                        {
                            "pitch": 55, 
                            "t0": 6076, 
                            "v": 83, 
                            "dur": 22, 
                            "type": "note", 
                            "channel": 7
                        }
                    ]
                ], 
                [
                    6077, 
                    [
                        {
                            "pitch": 48, 
                            "t0": 6077, 
                            "v": 73, 
                            "dur": 20, 
                            "type": "note", 
                            "channel": 7
                        }
                    ]
                ], 
                [
                    6114, 
                    [
                        {
                            "pitch": 57, 
                            "t0": 6114, 
                            "v": 90, 
                            "dur": 21, 
                            "type": "note", 
                            "channel": 7
                        }, 
                        {
                            "pitch": 48, 
                            "t0": 6114, 
                            "v": 90, 
                            "dur": 23, 
                            "type": "note", 
                            "channel": 7
                        }
                    ]
                ], 
                [
                    6189, 
                    [
                        {
                            "pitch": 43, 
                            "t0": 6189, 
                            "v": 58, 
                            "dur": 21, 
                            "type": "note", 
                            "channel": 7
                        }
                    ]
                ], 
                [
                    6227, 
                    [
                        {
                            "pitch": 50, 
                            "t0": 6227, 
                            "v": 81, 
                            "dur": 76, 
                            "type": "note", 
                            "channel": 7
                        }
                    ]
                ], 
                [
                    6229, 
                    [
                        {
                            "pitch": 43, 
                            "t0": 6229, 
                            "v": 80, 
                            "dur": 40, 
                            "type": "note", 
                            "channel": 7
                        }
                    ]
                ], 
                [
                    6316, 
                    [
                        {
                            "pitch": 50, 
                            "t0": 6316, 
                            "v": 70, 
                            "dur": 20, 
                            "type": "note", 
                            "channel": 7
                        }, 
                        {
                            "pitch": 43, 
                            "t0": 6316, 
                            "v": 70, 
                            "dur": 20, 
                            "type": "note", 
                            "channel": 7
                        }
                    ]
                ], 
                [
                    6350, 
                    [
                        {
                            "pitch": 52, 
                            "t0": 6350, 
                            "v": 78, 
                            "dur": 68, 
                            "type": "note", 
                            "channel": 7
                        }
                    ]
                ], 
                [
                    6353, 
                    [
                        {
                            "pitch": 43, 
                            "t0": 6353, 
                            "v": 73, 
                            "dur": 60, 
                            "type": "note", 
                            "channel": 7
                        }
                    ]
                ], 
                [
                    6436, 
                    [
                        {
                            "pitch": 50, 
                            "t0": 6436, 
                            "v": 95, 
                            "dur": 93, 
                            "type": "note", 
                            "channel": 7
                        }
                    ]
                ], 
                [
                    6437, 
                    [
                        {
                            "pitch": 43, 
                            "t0": 6437, 
                            "v": 84, 
                            "dur": 29, 
                            "type": "note", 
                            "channel": 7
                        }
                    ]
                ], 
                [
                    6504, 
                    [
                        {
                            "pitch": 43, 
                            "t0": 6504, 
                            "v": 15, 
                            "dur": 17, 
                            "type": "note", 
                            "channel": 7
                        }
                    ]
                ], 
                [
                    6551, 
                    [
                        {
                            "pitch": 50, 
                            "t0": 6551, 
                            "v": 84, 
                            "dur": 22, 
                            "type": "note", 
                            "channel": 7
                        }
                    ]
                ], 
                [
                    6552, 
                    [
                        {
                            "pitch": 43, 
                            "t0": 6552, 
                            "v": 68, 
                            "dur": 19, 
                            "type": "note", 
                            "channel": 7
                        }
                    ]
                ], 
                [
                    6590, 
                    [
                        {
                            "pitch": 43, 
                            "t0": 6590, 
                            "v": 80, 
                            "dur": 17, 
                            "type": "note", 
                            "channel": 7
                        }
                    ]
                ], 
                [
                    6591, 
                    [
                        {
                            "pitch": 52, 
                            "t0": 6591, 
                            "v": 91, 
                            "dur": 25, 
                            "type": "note", 
                            "channel": 7
                        }
                    ]
                ], 
                [
                    6680, 
                    [
                        {
                            "pitch": 50, 
                            "t0": 6680, 
                            "v": 60, 
                            "dur": 23, 
                            "type": "note", 
                            "channel": 7
                        }
                    ]
                ], 
                [
                    6710, 
                    [
                        {
                            "pitch": 57, 
                            "t0": 6710, 
                            "v": 80, 
                            "dur": 62, 
                            "type": "note", 
                            "channel": 7
                        }
                    ]
                ], 
                [
                    6714, 
                    [
                        {
                            "pitch": 50, 
                            "t0": 6714, 
                            "v": 65, 
                            "dur": 35, 
                            "type": "note", 
                            "channel": 7
                        }
                    ]
                ], 
                [
                    6795, 
                    [
                        {
                            "pitch": 50, 
                            "t0": 6795, 
                            "v": 68, 
                            "dur": 23, 
                            "type": "note", 
                            "channel": 7
                        }
                    ]
                ], 
                [
                    6797, 
                    [
                        {
                            "pitch": 57, 
                            "t0": 6797, 
                            "v": 75, 
                            "dur": 20, 
                            "type": "note", 
                            "channel": 7
                        }
                    ]
                ], 
                [
                    6835, 
                    [
                        {
                            "pitch": 59, 
                            "t0": 6835, 
                            "v": 104, 
                            "dur": 49, 
                            "type": "note", 
                            "channel": 7
                        }
                    ]
                ], 
                [
                    6836, 
                    [
                        {
                            "pitch": 50, 
                            "t0": 6836, 
                            "v": 77, 
                            "dur": 51, 
                            "type": "note", 
                            "channel": 7
                        }
                    ]
                ], 
                [
                    6909, 
                    [
                        {
                            "pitch": 50, 
                            "t0": 6909, 
                            "v": 74, 
                            "dur": 89, 
                            "type": "note", 
                            "channel": 7
                        }, 
                        {
                            "pitch": 57, 
                            "t0": 6909, 
                            "v": 100, 
                            "dur": 147, 
                            "type": "note", 
                            "channel": 7
                        }
                    ]
                ], 
                [
                    7032, 
                    [
                        {
                            "pitch": 50, 
                            "t0": 7032, 
                            "v": 61, 
                            "dur": 26, 
                            "type": "note", 
                            "channel": 7
                        }
                    ]
                ], 
                [
                    7071, 
                    [
                        {
                            "pitch": 50, 
                            "t0": 7071, 
                            "v": 56, 
                            "dur": 41, 
                            "type": "note", 
                            "channel": 7
                        }
                    ]
                ], 
                [
                    7073, 
                    [
                        {
                            "pitch": 59, 
                            "t0": 7073, 
                            "v": 92, 
                            "dur": 43, 
                            "type": "note", 
                            "channel": 7
                        }
                    ]
                ], 
                [
                    7316, 
                    [
                        {
                            "pitch": 55, 
                            "t0": 7316, 
                            "v": 97, 
                            "dur": 106, 
                            "type": "note", 
                            "channel": 7
                        }
                    ]
                ], 
                [
                    7432, 
                    [
                        {
                            "pitch": 52, 
                            "t0": 7432, 
                            "v": 87, 
                            "dur": 61, 
                            "type": "note", 
                            "channel": 7
                        }
                    ]
                ], 
                [
                    7507, 
                    [
                        {
                            "pitch": 50, 
                            "t0": 7507, 
                            "v": 79, 
                            "dur": 14, 
                            "type": "note", 
                            "channel": 7
                        }
                    ]
                ], 
                [
                    7550, 
                    [
                        {
                            "pitch": 47, 
                            "t0": 7550, 
                            "v": 110, 
                            "dur": 122, 
                            "type": "note", 
                            "channel": 7
                        }
                    ]
                ], 
                [
                    7681, 
                    [
                        {
                            "pitch": 43, 
                            "t0": 7681, 
                            "v": 108, 
                            "dur": 53, 
                            "type": "note", 
                            "channel": 7
                        }
                    ]
                ], 
                [
                    8162, 
                    [
                        {
                            "pitch": 48, 
                            "t0": 8162, 
                            "v": 54, 
                            "dur": 106, 
                            "type": "note", 
                            "channel": 7
                        }
                    ]
                ], 
                [
                    8272, 
                    [
                        {
                            "pitch": 60, 
                            "t0": 8272, 
                            "v": 83, 
                            "dur": 198, 
                            "type": "note", 
                            "channel": 7
                        }
                    ]
                ], 
                [
                    8478, 
                    [
                        {
                            "pitch": 55, 
                            "t0": 8478, 
                            "v": 73, 
                            "dur": 23, 
                            "type": "note", 
                            "channel": 7
                        }
                    ]
                ], 
                [
                    8510, 
                    [
                        {
                            "pitch": 57, 
                            "t0": 8510, 
                            "v": 76, 
                            "dur": 56, 
                            "type": "note", 
                            "channel": 7
                        }
                    ]
                ], 
                [
                    8634, 
                    [
                        {
                            "pitch": 60, 
                            "t0": 8634, 
                            "v": 80, 
                            "dur": 75, 
                            "type": "note", 
                            "channel": 7
                        }
                    ]
                ], 
                [
                    8728, 
                    [
                        {
                            "pitch": 55, 
                            "t0": 8728, 
                            "v": 49, 
                            "dur": 7, 
                            "type": "note", 
                            "channel": 7
                        }
                    ]
                ], 
                [
                    8756, 
                    [
                        {
                            "pitch": 57, 
                            "t0": 8756, 
                            "v": 74, 
                            "dur": 67, 
                            "type": "note", 
                            "channel": 7
                        }
                    ]
                ], 
                [
                    8839, 
                    [
                        {
                            "pitch": 60, 
                            "t0": 8839, 
                            "v": 92, 
                            "dur": 150, 
                            "type": "note", 
                            "channel": 7
                        }
                    ]
                ], 
                [
                    9002, 
                    [
                        {
                            "pitch": 57, 
                            "t0": 9002, 
                            "v": 80, 
                            "dur": 31, 
                            "type": "note", 
                            "channel": 7
                        }
                    ]
                ], 
                [
                    9231, 
                    [
                        {
                            "pitch": 55, 
                            "t0": 9231, 
                            "v": 85, 
                            "dur": 183, 
                            "type": "note", 
                            "channel": 7
                        }
                    ]
                ], 
                [
                    9434, 
                    [
                        {
                            "pitch": 50, 
                            "t0": 9434, 
                            "v": 75, 
                            "dur": 23, 
                            "type": "note", 
                            "channel": 7
                        }
                    ]
                ], 
                [
                    9470, 
                    [
                        {
                            "pitch": 52, 
                            "t0": 9470, 
                            "v": 86, 
                            "dur": 54, 
                            "type": "note", 
                            "channel": 7
                        }
                    ]
                ], 
                [
                    9596, 
                    [
                        {
                            "pitch": 55, 
                            "t0": 9596, 
                            "v": 83, 
                            "dur": 80, 
                            "type": "note", 
                            "channel": 7
                        }
                    ]
                ], 
                [
                    9691, 
                    [
                        {
                            "pitch": 50, 
                            "t0": 9691, 
                            "v": 61, 
                            "dur": 12, 
                            "type": "note", 
                            "channel": 7
                        }
                    ]
                ], 
                [
                    9721, 
                    [
                        {
                            "pitch": 52, 
                            "t0": 9721, 
                            "v": 77, 
                            "dur": 54, 
                            "type": "note", 
                            "channel": 7
                        }
                    ]
                ], 
                [
                    9796, 
                    [
                        {
                            "pitch": 55, 
                            "t0": 9796, 
                            "v": 83, 
                            "dur": 154, 
                            "type": "note", 
                            "channel": 7
                        }
                    ]
                ], 
                [
                    9966, 
                    [
                        {
                            "pitch": 52, 
                            "t0": 9966, 
                            "v": 78, 
                            "dur": 30, 
                            "type": "note", 
                            "channel": 7
                        }
                    ]
                ], 
                [
                    10083, 
                    [
                        {
                            "pitch": 45, 
                            "t0": 10083, 
                            "v": 80, 
                            "dur": 100, 
                            "type": "note", 
                            "channel": 7
                        }
                    ]
                ], 
                [
                    10199, 
                    [
                        {
                            "pitch": 57, 
                            "t0": 10199, 
                            "v": 90, 
                            "dur": 184, 
                            "type": "note", 
                            "channel": 7
                        }
                    ]
                ], 
                [
                    10397, 
                    [
                        {
                            "pitch": 52, 
                            "t0": 10397, 
                            "v": 74, 
                            "dur": 22, 
                            "type": "note", 
                            "channel": 7
                        }
                    ]
                ], 
                [
                    10432, 
                    [
                        {
                            "pitch": 54, 
                            "t0": 10432, 
                            "v": 93, 
                            "dur": 48, 
                            "type": "note", 
                            "channel": 7
                        }
                    ]
                ], 
                [
                    10557, 
                    [
                        {
                            "pitch": 57, 
                            "t0": 10557, 
                            "v": 77, 
                            "dur": 73, 
                            "type": "note", 
                            "channel": 7
                        }
                    ]
                ], 
                [
                    10645, 
                    [
                        {
                            "pitch": 52, 
                            "t0": 10645, 
                            "v": 65, 
                            "dur": 15, 
                            "type": "note", 
                            "channel": 7
                        }
                    ]
                ], 
                [
                    10678, 
                    [
                        {
                            "pitch": 54, 
                            "t0": 10678, 
                            "v": 82, 
                            "dur": 57, 
                            "type": "note", 
                            "channel": 7
                        }
                    ]
                ], 
                [
                    10758, 
                    [
                        {
                            "pitch": 57, 
                            "t0": 10758, 
                            "v": 75, 
                            "dur": 196, 
                            "type": "note", 
                            "channel": 7
                        }
                    ]
                ], 
                [
                    11164, 
                    [
                        {
                            "pitch": 62, 
                            "t0": 11164, 
                            "v": 85, 
                            "dur": 216, 
                            "type": "note", 
                            "channel": 7
                        }
                    ]
                ], 
                [
                    11376, 
                    [
                        {
                            "pitch": 57, 
                            "t0": 11376, 
                            "v": 72, 
                            "dur": 22, 
                            "type": "note", 
                            "channel": 7
                        }
                    ]
                ], 
                [
                    11410, 
                    [
                        {
                            "pitch": 59, 
                            "t0": 11410, 
                            "v": 72, 
                            "dur": 31, 
                            "type": "note", 
                            "channel": 7
                        }
                    ]
                ], 
                [
                    11473, 
                    [
                        {
                            "pitch": 62, 
                            "t0": 11473, 
                            "v": 83, 
                            "dur": 280, 
                            "type": "note", 
                            "channel": 7
                        }
                    ]
                ], 
                [
                    12117, 
                    [
                        {
                            "pitch": 60, 
                            "t0": 12117, 
                            "v": 88, 
                            "dur": 187, 
                            "type": "note", 
                            "channel": 7
                        }
                    ]
                ], 
                [
                    12315, 
                    [
                        {
                            "pitch": 55, 
                            "t0": 12315, 
                            "v": 75, 
                            "dur": 23, 
                            "type": "note", 
                            "channel": 7
                        }
                    ]
                ], 
                [
                    12353, 
                    [
                        {
                            "pitch": 57, 
                            "t0": 12353, 
                            "v": 65, 
                            "dur": 38, 
                            "type": "note", 
                            "channel": 7
                        }
                    ]
                ], 
                [
                    12475, 
                    [
                        {
                            "pitch": 60, 
                            "t0": 12475, 
                            "v": 91, 
                            "dur": 66, 
                            "type": "note", 
                            "channel": 7
                        }
                    ]
                ], 
                [
                    12559, 
                    [
                        {
                            "pitch": 55, 
                            "t0": 12559, 
                            "v": 69, 
                            "dur": 13, 
                            "type": "note", 
                            "channel": 7
                        }
                    ]
                ], 
                [
                    12595, 
                    [
                        {
                            "pitch": 57, 
                            "t0": 12595, 
                            "v": 84, 
                            "dur": 64, 
                            "type": "note", 
                            "channel": 7
                        }
                    ]
                ], 
                [
                    12671, 
                    [
                        {
                            "pitch": 60, 
                            "t0": 12671, 
                            "v": 100, 
                            "dur": 149, 
                            "type": "note", 
                            "channel": 7
                        }
                    ]
                ], 
                [
                    12837, 
                    [
                        {
                            "pitch": 57, 
                            "t0": 12837, 
                            "v": 95, 
                            "dur": 48, 
                            "type": "note", 
                            "channel": 7
                        }
                    ]
                ], 
                [
                    13068, 
                    [
                        {
                            "pitch": 55, 
                            "t0": 13068, 
                            "v": 95, 
                            "dur": 191, 
                            "type": "note", 
                            "channel": 7
                        }
                    ]
                ], 
                [
                    13273, 
                    [
                        {
                            "pitch": 50, 
                            "t0": 13273, 
                            "v": 73, 
                            "dur": 25, 
                            "type": "note", 
                            "channel": 7
                        }
                    ]
                ], 
                [
                    13304, 
                    [
                        {
                            "pitch": 52, 
                            "t0": 13304, 
                            "v": 70, 
                            "dur": 34, 
                            "type": "note", 
                            "channel": 7
                        }
                    ]
                ], 
                [
                    13433, 
                    [
                        {
                            "pitch": 60, 
                            "t0": 13433, 
                            "v": 92, 
                            "dur": 75, 
                            "type": "note", 
                            "channel": 7
                        }
                    ]
                ], 
                [
                    13529, 
                    [
                        {
                            "pitch": 55, 
                            "t0": 13529, 
                            "v": 49, 
                            "dur": 14, 
                            "type": "note", 
                            "channel": 7
                        }
                    ]
                ], 
                [
                    13559, 
                    [
                        {
                            "pitch": 57, 
                            "t0": 13559, 
                            "v": 72, 
                            "dur": 33, 
                            "type": "note", 
                            "channel": 7
                        }
                    ]
                ], 
                [
                    13632, 
                    [
                        {
                            "pitch": 60, 
                            "t0": 13632, 
                            "v": 86, 
                            "dur": 160, 
                            "type": "note", 
                            "channel": 7
                        }
                    ]
                ], 
                [
                    13804, 
                    [
                        {
                            "pitch": 57, 
                            "t0": 13804, 
                            "v": 87, 
                            "dur": 30, 
                            "type": "note", 
                            "channel": 7
                        }
                    ]
                ], 
                [
                    14040, 
                    [
                        {
                            "pitch": 55, 
                            "t0": 14040, 
                            "v": 90, 
                            "dur": 193, 
                            "type": "note", 
                            "channel": 7
                        }
                    ]
                ], 
                [
                    14239, 
                    [
                        {
                            "pitch": 50, 
                            "t0": 14239, 
                            "v": 72, 
                            "dur": 29, 
                            "type": "note", 
                            "channel": 7
                        }
                    ]
                ], 
                [
                    14274, 
                    [
                        {
                            "pitch": 52, 
                            "t0": 14274, 
                            "v": 83, 
                            "dur": 47, 
                            "type": "note", 
                            "channel": 7
                        }
                    ]
                ], 
                [
                    14516, 
                    [
                        {
                            "pitch": 62, 
                            "t0": 14516, 
                            "v": 80, 
                            "dur": 204, 
                            "type": "note", 
                            "channel": 7
                        }
                    ]
                ], 
                [
                    14727, 
                    [
                        {
                            "pitch": 57, 
                            "t0": 14727, 
                            "v": 64, 
                            "dur": 14, 
                            "type": "note", 
                            "channel": 7
                        }
                    ]
                ], 
                [
                    14760, 
                    [
                        {
                            "pitch": 59, 
                            "t0": 14760, 
                            "v": 75, 
                            "dur": 16, 
                            "type": "note", 
                            "channel": 7
                        }
                    ]
                ], 
                [
                    14999, 
                    [
                        {
                            "pitch": 55, 
                            "t0": 14999, 
                            "v": 94, 
                            "dur": 115, 
                            "type": "note", 
                            "channel": 7
                        }
                    ]
                ], 
                [
                    15127, 
                    [
                        {
                            "pitch": 52, 
                            "t0": 15127, 
                            "v": 90, 
                            "dur": 65, 
                            "type": "note", 
                            "channel": 7
                        }
                    ]
                ], 
                [
                    15201, 
                    [
                        {
                            "pitch": 50, 
                            "t0": 15201, 
                            "v": 80, 
                            "dur": 17, 
                            "type": "note", 
                            "channel": 7
                        }
                    ]
                ], 
                [
                    15243, 
                    [
                        {
                            "pitch": 47, 
                            "t0": 15243, 
                            "v": 117, 
                            "dur": 121, 
                            "type": "note", 
                            "channel": 7
                        }
                    ]
                ], 
                [
                    15370, 
                    [
                        {
                            "pitch": 43, 
                            "t0": 15370, 
                            "v": 87, 
                            "dur": 48, 
                            "type": "note", 
                            "channel": 7
                        }
                    ]
                ], 
                [
                    15371, 
                    [
                        {
                            "pitch": 45, 
                            "t0": 15371, 
                            "v": 108, 
                            "dur": 29, 
                            "type": "note", 
                            "channel": 7
                        }
                    ]
                ], 
                [
                    15846, 
                    [
                        {
                            "pitch": 43, 
                            "t0": 15846, 
                            "v": 85, 
                            "dur": 53, 
                            "type": "note", 
                            "channel": 7
                        }, 
                        {
                            "pitch": 50, 
                            "t0": 15846, 
                            "v": 92, 
                            "dur": 56, 
                            "type": "note", 
                            "channel": 7
                        }
                    ]
                ], 
                [
                    15914, 
                    [
                        {
                            "pitch": 43, 
                            "t0": 15914, 
                            "v": 58, 
                            "dur": 22, 
                            "type": "note", 
                            "channel": 7
                        }
                    ]
                ], 
                [
                    15915, 
                    [
                        {
                            "pitch": 50, 
                            "t0": 15915, 
                            "v": 70, 
                            "dur": 27, 
                            "type": "note", 
                            "channel": 7
                        }
                    ]
                ], 
                [
                    15953, 
                    [
                        {
                            "pitch": 43, 
                            "t0": 15953, 
                            "v": 95, 
                            "dur": 58, 
                            "type": "note", 
                            "channel": 7
                        }, 
                        {
                            "pitch": 52, 
                            "t0": 15953, 
                            "v": 104, 
                            "dur": 61, 
                            "type": "note", 
                            "channel": 7
                        }
                    ]
                ], 
                [
                    16033, 
                    [
                        {
                            "pitch": 43, 
                            "t0": 16033, 
                            "v": 75, 
                            "dur": 106, 
                            "type": "note", 
                            "channel": 7
                        }, 
                        {
                            "pitch": 50, 
                            "t0": 16033, 
                            "v": 92, 
                            "dur": 115, 
                            "type": "note", 
                            "channel": 7
                        }
                    ]
                ], 
                [
                    16161, 
                    [
                        {
                            "pitch": 50, 
                            "t0": 16161, 
                            "v": 80, 
                            "dur": 27, 
                            "type": "note", 
                            "channel": 7
                        }
                    ]
                ], 
                [
                    16163, 
                    [
                        {
                            "pitch": 43, 
                            "t0": 16163, 
                            "v": 73, 
                            "dur": 19, 
                            "type": "note", 
                            "channel": 7
                        }
                    ]
                ], 
                [
                    16198, 
                    [
                        {
                            "pitch": 43, 
                            "t0": 16198, 
                            "v": 84, 
                            "dur": 31, 
                            "type": "note", 
                            "channel": 7
                        }
                    ]
                ], 
                [
                    16199, 
                    [
                        {
                            "pitch": 50, 
                            "t0": 16199, 
                            "v": 66, 
                            "dur": 11, 
                            "type": "note", 
                            "channel": 7
                        }, 
                        {
                            "pitch": 52, 
                            "t0": 16199, 
                            "v": 100, 
                            "dur": 45, 
                            "type": "note", 
                            "channel": 7
                        }
                    ]
                ], 
                [
                    16282, 
                    [
                        {
                            "pitch": 48, 
                            "t0": 16282, 
                            "v": 58, 
                            "dur": 18, 
                            "type": "note", 
                            "channel": 7
                        }
                    ]
                ], 
                [
                    16316, 
                    [
                        {
                            "pitch": 55, 
                            "t0": 16316, 
                            "v": 85, 
                            "dur": 65, 
                            "type": "note", 
                            "channel": 7
                        }
                    ]
                ], 
                [
                    16317, 
                    [
                        {
                            "pitch": 48, 
                            "t0": 16317, 
                            "v": 73, 
                            "dur": 66, 
                            "type": "note", 
                            "channel": 7
                        }
                    ]
                ], 
                [
                    16396, 
                    [
                        {
                            "pitch": 48, 
                            "t0": 16396, 
                            "v": 63, 
                            "dur": 23, 
                            "type": "note", 
                            "channel": 7
                        }
                    ]
                ], 
                [
                    16398, 
                    [
                        {
                            "pitch": 55, 
                            "t0": 16398, 
                            "v": 78, 
                            "dur": 23, 
                            "type": "note", 
                            "channel": 7
                        }
                    ]
                ], 
                [
                    16433, 
                    [
                        {
                            "pitch": 57, 
                            "t0": 16433, 
                            "v": 94, 
                            "dur": 56, 
                            "type": "note", 
                            "channel": 7
                        }
                    ]
                ], 
                [
                    16434, 
                    [
                        {
                            "pitch": 48, 
                            "t0": 16434, 
                            "v": 80, 
                            "dur": 57, 
                            "type": "note", 
                            "channel": 7
                        }
                    ]
                ], 
                [
                    16508, 
                    [
                        {
                            "pitch": 55, 
                            "t0": 16508, 
                            "v": 98, 
                            "dur": 117, 
                            "type": "note", 
                            "channel": 7
                        }
                    ]
                ], 
                [
                    16509, 
                    [
                        {
                            "pitch": 48, 
                            "t0": 16509, 
                            "v": 80, 
                            "dur": 105, 
                            "type": "note", 
                            "channel": 7
                        }
                    ]
                ], 
                [
                    16639, 
                    [
                        {
                            "pitch": 48, 
                            "t0": 16639, 
                            "v": 68, 
                            "dur": 25, 
                            "type": "note", 
                            "channel": 7
                        }, 
                        {
                            "pitch": 55, 
                            "t0": 16639, 
                            "v": 73, 
                            "dur": 25, 
                            "type": "note", 
                            "channel": 7
                        }
                    ]
                ], 
                [
                    16679, 
                    [
                        {
                            "pitch": 48, 
                            "t0": 16679, 
                            "v": 75, 
                            "dur": 24, 
                            "type": "note", 
                            "channel": 7
                        }
                    ]
                ], 
                [
                    16681, 
                    [
                        {
                            "pitch": 57, 
                            "t0": 16681, 
                            "v": 84, 
                            "dur": 18, 
                            "type": "note", 
                            "channel": 7
                        }
                    ]
                ], 
                [
                    16750, 
                    [
                        {
                            "pitch": 49, 
                            "t0": 16750, 
                            "v": 74, 
                            "dur": 26, 
                            "type": "note", 
                            "channel": 7
                        }
                    ]
                ], 
                [
                    16762, 
                    [
                        {
                            "pitch": 43, 
                            "t0": 16762, 
                            "v": 66, 
                            "dur": 12, 
                            "type": "note", 
                            "channel": 7
                        }
                    ]
                ], 
                [
                    16788, 
                    [
                        {
                            "pitch": 50, 
                            "t0": 16788, 
                            "v": 84, 
                            "dur": 74, 
                            "type": "note", 
                            "channel": 7
                        }
                    ]
                ], 
                [
                    16791, 
                    [
                        {
                            "pitch": 43, 
                            "t0": 16791, 
                            "v": 68, 
                            "dur": 57, 
                            "type": "note", 
                            "channel": 7
                        }
                    ]
                ], 
                [
                    16877, 
                    [
                        {
                            "pitch": 43, 
                            "t0": 16877, 
                            "v": 69, 
                            "dur": 21, 
                            "type": "note", 
                            "channel": 7
                        }, 
                        {
                            "pitch": 50, 
                            "t0": 16877, 
                            "v": 76, 
                            "dur": 22, 
                            "type": "note", 
                            "channel": 7
                        }
                    ]
                ], 
                [
                    16913, 
                    [
                        {
                            "pitch": 43, 
                            "t0": 16913, 
                            "v": 86, 
                            "dur": 56, 
                            "type": "note", 
                            "channel": 7
                        }, 
                        {
                            "pitch": 52, 
                            "t0": 16913, 
                            "v": 95, 
                            "dur": 58, 
                            "type": "note", 
                            "channel": 7
                        }
                    ]
                ], 
                [
                    16992, 
                    [
                        {
                            "pitch": 43, 
                            "t0": 16992, 
                            "v": 83, 
                            "dur": 103, 
                            "type": "note", 
                            "channel": 7
                        }, 
                        {
                            "pitch": 50, 
                            "t0": 16992, 
                            "v": 106, 
                            "dur": 108, 
                            "type": "note", 
                            "channel": 7
                        }
                    ]
                ], 
                [
                    17118, 
                    [
                        {
                            "pitch": 43, 
                            "t0": 17118, 
                            "v": 68, 
                            "dur": 21, 
                            "type": "note", 
                            "channel": 7
                        }, 
                        {
                            "pitch": 50, 
                            "t0": 17118, 
                            "v": 85, 
                            "dur": 27, 
                            "type": "note", 
                            "channel": 7
                        }
                    ]
                ], 
                [
                    17156, 
                    [
                        {
                            "pitch": 52, 
                            "t0": 17156, 
                            "v": 94, 
                            "dur": 54, 
                            "type": "note", 
                            "channel": 7
                        }
                    ]
                ], 
                [
                    17158, 
                    [
                        {
                            "pitch": 43, 
                            "t0": 17158, 
                            "v": 85, 
                            "dur": 55, 
                            "type": "note", 
                            "channel": 7
                        }
                    ]
                ], 
                [
                    17234, 
                    [
                        {
                            "pitch": 50, 
                            "t0": 17234, 
                            "v": 106, 
                            "dur": 110, 
                            "type": "note", 
                            "channel": 7
                        }, 
                        {
                            "pitch": 43, 
                            "t0": 17234, 
                            "v": 80, 
                            "dur": 110, 
                            "type": "note", 
                            "channel": 7
                        }
                    ]
                ], 
                [
                    17356, 
                    [
                        {
                            "pitch": 43, 
                            "t0": 17356, 
                            "v": 43, 
                            "dur": 25, 
                            "type": "note", 
                            "channel": 7
                        }
                    ]
                ], 
                [
                    17357, 
                    [
                        {
                            "pitch": 50, 
                            "t0": 17357, 
                            "v": 73, 
                            "dur": 27, 
                            "type": "note", 
                            "channel": 7
                        }
                    ]
                ], 
                [
                    17398, 
                    [
                        {
                            "pitch": 52, 
                            "t0": 17398, 
                            "v": 98, 
                            "dur": 59, 
                            "type": "note", 
                            "channel": 7
                        }
                    ]
                ], 
                [
                    17399, 
                    [
                        {
                            "pitch": 43, 
                            "t0": 17399, 
                            "v": 88, 
                            "dur": 56, 
                            "type": "note", 
                            "channel": 7
                        }
                    ]
                ], 
                [
                    17474, 
                    [
                        {
                            "pitch": 50, 
                            "t0": 17474, 
                            "v": 95, 
                            "dur": 103, 
                            "type": "note", 
                            "channel": 7
                        }
                    ]
                ], 
                [
                    17475, 
                    [
                        {
                            "pitch": 43, 
                            "t0": 17475, 
                            "v": 80, 
                            "dur": 92, 
                            "type": "note", 
                            "channel": 7
                        }
                    ]
                ], 
                [
                    17596, 
                    [
                        {
                            "pitch": 43, 
                            "t0": 17596, 
                            "v": 68, 
                            "dur": 24, 
                            "type": "note", 
                            "channel": 7
                        }, 
                        {
                            "pitch": 50, 
                            "t0": 17596, 
                            "v": 74, 
                            "dur": 28, 
                            "type": "note", 
                            "channel": 7
                        }
                    ]
                ], 
                [
                    17637, 
                    [
                        {
                            "pitch": 52, 
                            "t0": 17637, 
                            "v": 98, 
                            "dur": 61, 
                            "type": "note", 
                            "channel": 7
                        }
                    ]
                ], 
                [
                    17638, 
                    [
                        {
                            "pitch": 43, 
                            "t0": 17638, 
                            "v": 90, 
                            "dur": 56, 
                            "type": "note", 
                            "channel": 7
                        }
                    ]
                ], 
                [
                    17717, 
                    [
                        {
                            "pitch": 50, 
                            "t0": 17717, 
                            "v": 90, 
                            "dur": 101, 
                            "type": "note", 
                            "channel": 7
                        }
                    ]
                ], 
                [
                    17718, 
                    [
                        {
                            "pitch": 43, 
                            "t0": 17718, 
                            "v": 81, 
                            "dur": 21, 
                            "type": "note", 
                            "channel": 7
                        }
                    ]
                ], 
                [
                    17753, 
                    [
                        {
                            "pitch": 43, 
                            "t0": 17753, 
                            "v": 70, 
                            "dur": 62, 
                            "type": "note", 
                            "channel": 7
                        }
                    ]
                ], 
                [
                    17837, 
                    [
                        {
                            "pitch": 50, 
                            "t0": 17837, 
                            "v": 86, 
                            "dur": 28, 
                            "type": "note", 
                            "channel": 7
                        }
                    ]
                ], 
                [
                    17838, 
                    [
                        {
                            "pitch": 43, 
                            "t0": 17838, 
                            "v": 71, 
                            "dur": 23, 
                            "type": "note", 
                            "channel": 7
                        }
                    ]
                ], 
                [
                    17877, 
                    [
                        {
                            "pitch": 52, 
                            "t0": 17877, 
                            "v": 95, 
                            "dur": 74, 
                            "type": "note", 
                            "channel": 7
                        }
                    ]
                ], 
                [
                    17879, 
                    [
                        {
                            "pitch": 43, 
                            "t0": 17879, 
                            "v": 83, 
                            "dur": 62, 
                            "type": "note", 
                            "channel": 7
                        }
                    ]
                ], 
                [
                    17960, 
                    [
                        {
                            "pitch": 43, 
                            "t0": 17960, 
                            "v": 81, 
                            "dur": 25, 
                            "type": "note", 
                            "channel": 7
                        }, 
                        {
                            "pitch": 50, 
                            "t0": 17960, 
                            "v": 100, 
                            "dur": 106, 
                            "type": "note", 
                            "channel": 7
                        }
                    ]
                ], 
                [
                    17997, 
                    [
                        {
                            "pitch": 43, 
                            "t0": 17997, 
                            "v": 55, 
                            "dur": 56, 
                            "type": "note", 
                            "channel": 7
                        }
                    ]
                ], 
                [
                    18080, 
                    [
                        {
                            "pitch": 50, 
                            "t0": 18080, 
                            "v": 69, 
                            "dur": 24, 
                            "type": "note", 
                            "channel": 7
                        }
                    ]
                ], 
                [
                    18081, 
                    [
                        {
                            "pitch": 43, 
                            "t0": 18081, 
                            "v": 70, 
                            "dur": 23, 
                            "type": "note", 
                            "channel": 7
                        }
                    ]
                ], 
                [
                    18120, 
                    [
                        {
                            "pitch": 52, 
                            "t0": 18120, 
                            "v": 94, 
                            "dur": 58, 
                            "type": "note", 
                            "channel": 7
                        }
                    ]
                ], 
                [
                    18121, 
                    [
                        {
                            "pitch": 43, 
                            "t0": 18121, 
                            "v": 83, 
                            "dur": 53, 
                            "type": "note", 
                            "channel": 7
                        }
                    ]
                ], 
                [
                    18197, 
                    [
                        {
                            "pitch": 50, 
                            "t0": 18197, 
                            "v": 95, 
                            "dur": 143, 
                            "type": "note", 
                            "channel": 7
                        }
                    ]
                ], 
                [
                    18198, 
                    [
                        {
                            "pitch": 43, 
                            "t0": 18198, 
                            "v": 80, 
                            "dur": 78, 
                            "type": "note", 
                            "channel": 7
                        }
                    ]
                ], 
                [
                    18314, 
                    [
                        {
                            "pitch": 43, 
                            "t0": 18314, 
                            "v": 68, 
                            "dur": 24, 
                            "type": "note", 
                            "channel": 7
                        }
                    ]
                ], 
                [
                    18354, 
                    [
                        {
                            "pitch": 47, 
                            "t0": 18354, 
                            "v": 117, 
                            "dur": 67, 
                            "type": "note", 
                            "channel": 7
                        }
                    ]
                ], 
                [
                    18436, 
                    [
                        {
                            "pitch": 47, 
                            "t0": 18436, 
                            "v": 94, 
                            "dur": 23, 
                            "type": "note", 
                            "channel": 7
                        }
                    ]
                ], 
                [
                    18473, 
                    [
                        {
                            "pitch": 48, 
                            "t0": 18473, 
                            "v": 100, 
                            "dur": 73, 
                            "type": "note", 
                            "channel": 7
                        }
                    ]
                ], 
                [
                    18563, 
                    [
                        {
                            "pitch": 48, 
                            "t0": 18563, 
                            "v": 98, 
                            "dur": 23, 
                            "type": "note", 
                            "channel": 7
                        }
                    ]
                ], 
                [
                    18598, 
                    [
                        {
                            "pitch": 49, 
                            "t0": 18598, 
                            "v": 91, 
                            "dur": 56, 
                            "type": "note", 
                            "channel": 7
                        }
                    ]
                ], 
                [
                    18685, 
                    [
                        {
                            "pitch": 50, 
                            "t0": 18685, 
                            "v": 88, 
                            "dur": 24, 
                            "type": "note", 
                            "channel": 7
                        }
                    ]
                ], 
                [
                    18720, 
                    [
                        {
                            "pitch": 57, 
                            "t0": 18720, 
                            "v": 69, 
                            "dur": 59, 
                            "type": "note", 
                            "channel": 7
                        }
                    ]
                ], 
                [
                    18722, 
                    [
                        {
                            "pitch": 55, 
                            "t0": 18722, 
                            "v": 73, 
                            "dur": 8, 
                            "type": "note", 
                            "channel": 7
                        }
                    ]
                ], 
                [
                    18725, 
                    [
                        {
                            "pitch": 50, 
                            "t0": 18725, 
                            "v": 59, 
                            "dur": 36, 
                            "type": "note", 
                            "channel": 7
                        }
                    ]
                ], 
                [
                    18799, 
                    [
                        {
                            "pitch": 57, 
                            "t0": 18799, 
                            "v": 52, 
                            "dur": 22, 
                            "type": "note", 
                            "channel": 7
                        }
                    ]
                ], 
                [
                    18803, 
                    [
                        {
                            "pitch": 50, 
                            "t0": 18803, 
                            "v": 75, 
                            "dur": 19, 
                            "type": "note", 
                            "channel": 7
                        }
                    ]
                ], 
                [
                    18836, 
                    [
                        {
                            "pitch": 59, 
                            "t0": 18836, 
                            "v": 97, 
                            "dur": 60, 
                            "type": "note", 
                            "channel": 7
                        }
                    ]
                ], 
                [
                    18837, 
                    [
                        {
                            "pitch": 50, 
                            "t0": 18837, 
                            "v": 74, 
                            "dur": 62, 
                            "type": "note", 
                            "channel": 7
                        }
                    ]
                ], 
                [
                    18917, 
                    [
                        {
                            "pitch": 57, 
                            "t0": 18917, 
                            "v": 104, 
                            "dur": 106, 
                            "type": "note", 
                            "channel": 7
                        }
                    ]
                ], 
                [
                    18918, 
                    [
                        {
                            "pitch": 50, 
                            "t0": 18918, 
                            "v": 80, 
                            "dur": 27, 
                            "type": "note", 
                            "channel": 7
                        }
                    ]
                ], 
                [
                    18958, 
                    [
                        {
                            "pitch": 50, 
                            "t0": 18958, 
                            "v": 44, 
                            "dur": 54, 
                            "type": "note", 
                            "channel": 7
                        }
                    ]
                ], 
                [
                    19038, 
                    [
                        {
                            "pitch": 50, 
                            "t0": 19038, 
                            "v": 58, 
                            "dur": 25, 
                            "type": "note", 
                            "channel": 7
                        }
                    ]
                ], 
                [
                    19041, 
                    [
                        {
                            "pitch": 57, 
                            "t0": 19041, 
                            "v": 73, 
                            "dur": 25, 
                            "type": "note", 
                            "channel": 7
                        }
                    ]
                ], 
                [
                    19080, 
                    [
                        {
                            "pitch": 59, 
                            "t0": 19080, 
                            "v": 104, 
                            "dur": 58, 
                            "type": "note", 
                            "channel": 7
                        }
                    ]
                ], 
                [
                    19081, 
                    [
                        {
                            "pitch": 50, 
                            "t0": 19081, 
                            "v": 87, 
                            "dur": 58, 
                            "type": "note", 
                            "channel": 7
                        }
                    ]
                ], 
                [
                    19160, 
                    [
                        {
                            "pitch": 50, 
                            "t0": 19160, 
                            "v": 81, 
                            "dur": 21, 
                            "type": "note", 
                            "channel": 7
                        }, 
                        {
                            "pitch": 57, 
                            "t0": 19160, 
                            "v": 97, 
                            "dur": 113, 
                            "type": "note", 
                            "channel": 7
                        }
                    ]
                ], 
                [
                    19197, 
                    [
                        {
                            "pitch": 50, 
                            "t0": 19197, 
                            "v": 66, 
                            "dur": 59, 
                            "type": "note", 
                            "channel": 7
                        }
                    ]
                ], 
                [
                    19285, 
                    [
                        {
                            "pitch": 57, 
                            "t0": 19285, 
                            "v": 51, 
                            "dur": 17, 
                            "type": "note", 
                            "channel": 7
                        }, 
                        {
                            "pitch": 50, 
                            "t0": 19285, 
                            "v": 77, 
                            "dur": 22, 
                            "type": "note", 
                            "channel": 7
                        }
                    ]
                ], 
                [
                    19322, 
                    [
                        {
                            "pitch": 52, 
                            "t0": 19322, 
                            "v": 97, 
                            "dur": 58, 
                            "type": "note", 
                            "channel": 7
                        }
                    ]
                ], 
                [
                    19400, 
                    [
                        {
                            "pitch": 52, 
                            "t0": 19400, 
                            "v": 84, 
                            "dur": 26, 
                            "type": "note", 
                            "channel": 7
                        }
                    ]
                ], 
                [
                    19439, 
                    [
                        {
                            "pitch": 53, 
                            "t0": 19439, 
                            "v": 104, 
                            "dur": 57, 
                            "type": "note", 
                            "channel": 7
                        }
                    ]
                ], 
                [
                    19518, 
                    [
                        {
                            "pitch": 53, 
                            "t0": 19518, 
                            "v": 73, 
                            "dur": 23, 
                            "type": "note", 
                            "channel": 7
                        }
                    ]
                ], 
                [
                    19558, 
                    [
                        {
                            "pitch": 54, 
                            "t0": 19558, 
                            "v": 93, 
                            "dur": 41, 
                            "type": "note", 
                            "channel": 7
                        }
                    ]
                ], 
                [
                    19679, 
                    [
                        {
                            "pitch": 55, 
                            "t0": 19679, 
                            "v": 80, 
                            "dur": 90, 
                            "type": "note", 
                            "channel": 7
                        }
                    ]
                ], 
                [
                    19681, 
                    [
                        {
                            "pitch": 50, 
                            "t0": 19681, 
                            "v": 85, 
                            "dur": 93, 
                            "type": "note", 
                            "channel": 7
                        }
                    ]
                ], 
                [
                    19763, 
                    [
                        {
                            "pitch": 43, 
                            "t0": 19763, 
                            "v": 55, 
                            "dur": 20, 
                            "type": "note", 
                            "channel": 7
                        }
                    ]
                ], 
                [
                    20165, 
                    [
                        {
                            "pitch": 48, 
                            "t0": 20165, 
                            "v": 77, 
                            "dur": 99, 
                            "type": "note", 
                            "channel": 7
                        }
                    ]
                ], 
                [
                    20169, 
                    [
                        {
                            "pitch": 50, 
                            "t0": 20169, 
                            "v": 72, 
                            "dur": 7, 
                            "type": "note", 
                            "channel": 7
                        }
                    ]
                ], 
                [
                    20276, 
                    [
                        {
                            "pitch": 57, 
                            "t0": 20276, 
                            "v": 110, 
                            "dur": 112, 
                            "type": "note", 
                            "channel": 7
                        }
                    ]
                ], 
                [
                    20402, 
                    [
                        {
                            "pitch": 55, 
                            "t0": 20402, 
                            "v": 102, 
                            "dur": 106, 
                            "type": "note", 
                            "channel": 7
                        }
                    ]
                ], 
                [
                    20520, 
                    [
                        {
                            "pitch": 52, 
                            "t0": 20520, 
                            "v": 97, 
                            "dur": 48, 
                            "type": "note", 
                            "channel": 7
                        }
                    ]
                ], 
                [
                    20639, 
                    [
                        {
                            "pitch": 43, 
                            "t0": 20639, 
                            "v": 80, 
                            "dur": 56, 
                            "type": "note", 
                            "channel": 7
                        }
                    ]
                ], 
                [
                    20722, 
                    [
                        {
                            "pitch": 43, 
                            "t0": 20722, 
                            "v": 91, 
                            "dur": 21, 
                            "type": "note", 
                            "channel": 7
                        }
                    ]
                ], 
                [
                    20756, 
                    [
                        {
                            "pitch": 45, 
                            "t0": 20756, 
                            "v": 117, 
                            "dur": 104, 
                            "type": "note", 
                            "channel": 7
                        }
                    ]
                ], 
                [
                    20876, 
                    [
                        {
                            "pitch": 46, 
                            "t0": 20876, 
                            "v": 110, 
                            "dur": 109, 
                            "type": "note", 
                            "channel": 7
                        }
                    ]
                ], 
                [
                    21004, 
                    [
                        {
                            "pitch": 47, 
                            "t0": 21004, 
                            "v": 108, 
                            "dur": 53, 
                            "type": "note", 
                            "channel": 7
                        }
                    ]
                ], 
                [
                    21077, 
                    [
                        {
                            "pitch": 47, 
                            "t0": 21077, 
                            "v": 90, 
                            "dur": 48, 
                            "type": "note", 
                            "channel": 7
                        }
                    ]
                ], 
                [
                    21078, 
                    [
                        {
                            "pitch": 48, 
                            "t0": 21078, 
                            "v": 92, 
                            "dur": 160, 
                            "type": "note", 
                            "channel": 7
                        }
                    ]
                ], 
                [
                    21252, 
                    [
                        {
                            "pitch": 56, 
                            "t0": 21252, 
                            "v": 55, 
                            "dur": 30, 
                            "type": "note", 
                            "channel": 7
                        }
                    ]
                ], 
                [
                    21275, 
                    [
                        {
                            "pitch": 55, 
                            "t0": 21275, 
                            "v": 43, 
                            "dur": 7, 
                            "type": "note", 
                            "channel": 7
                        }
                    ]
                ], 
                [
                    21297, 
                    [
                        {
                            "pitch": 57, 
                            "t0": 21297, 
                            "v": 52, 
                            "dur": 57, 
                            "type": "note", 
                            "channel": 7
                        }
                    ]
                ], 
                [
                    21364, 
                    [
                        {
                            "pitch": 55, 
                            "t0": 21364, 
                            "v": 98, 
                            "dur": 109, 
                            "type": "note", 
                            "channel": 7
                        }
                    ]
                ], 
                [
                    21484, 
                    [
                        {
                            "pitch": 52, 
                            "t0": 21484, 
                            "v": 76, 
                            "dur": 76, 
                            "type": "note", 
                            "channel": 7
                        }
                    ]
                ], 
                [
                    21562, 
                    [
                        {
                            "pitch": 50, 
                            "t0": 21562, 
                            "v": 92, 
                            "dur": 25, 
                            "type": "note", 
                            "channel": 7
                        }
                    ]
                ], 
                [
                    21600, 
                    [
                        {
                            "pitch": 43, 
                            "t0": 21600, 
                            "v": 102, 
                            "dur": 68, 
                            "type": "note", 
                            "channel": 7
                        }
                    ]
                ], 
                [
                    21687, 
                    [
                        {
                            "pitch": 43, 
                            "t0": 21687, 
                            "v": 87, 
                            "dur": 25, 
                            "type": "note", 
                            "channel": 7
                        }
                    ]
                ], 
                [
                    21721, 
                    [
                        {
                            "pitch": 47, 
                            "t0": 21721, 
                            "v": 110, 
                            "dur": 63, 
                            "type": "note", 
                            "channel": 7
                        }
                    ]
                ], 
                [
                    21800, 
                    [
                        {
                            "pitch": 47, 
                            "t0": 21800, 
                            "v": 100, 
                            "dur": 23, 
                            "type": "note", 
                            "channel": 7
                        }
                    ]
                ], 
                [
                    21835, 
                    [
                        {
                            "pitch": 48, 
                            "t0": 21835, 
                            "v": 102, 
                            "dur": 63, 
                            "type": "note", 
                            "channel": 7
                        }
                    ]
                ], 
                [
                    21920, 
                    [
                        {
                            "pitch": 48, 
                            "t0": 21920, 
                            "v": 92, 
                            "dur": 25, 
                            "type": "note", 
                            "channel": 7
                        }
                    ]
                ], 
                [
                    21956, 
                    [
                        {
                            "pitch": 49, 
                            "t0": 21956, 
                            "v": 95, 
                            "dur": 69, 
                            "type": "note", 
                            "channel": 7
                        }
                    ]
                ], 
                [
                    22040, 
                    [
                        {
                            "pitch": 49, 
                            "t0": 22040, 
                            "v": 78, 
                            "dur": 25, 
                            "type": "note", 
                            "channel": 7
                        }
                    ]
                ], 
                [
                    22079, 
                    [
                        {
                            "pitch": 50, 
                            "t0": 22079, 
                            "v": 102, 
                            "dur": 66, 
                            "type": "note", 
                            "channel": 7
                        }
                    ]
                ], 
                [
                    22163, 
                    [
                        {
                            "pitch": 50, 
                            "t0": 22163, 
                            "v": 85, 
                            "dur": 28, 
                            "type": "note", 
                            "channel": 7
                        }
                    ]
                ], 
                [
                    22198, 
                    [
                        {
                            "pitch": 48, 
                            "t0": 22198, 
                            "v": 90, 
                            "dur": 74, 
                            "type": "note", 
                            "channel": 7
                        }
                    ]
                ], 
                [
                    22287, 
                    [
                        {
                            "pitch": 48, 
                            "t0": 22287, 
                            "v": 85, 
                            "dur": 44, 
                            "type": "note", 
                            "channel": 7
                        }
                    ]
                ], 
                [
                    22322, 
                    [
                        {
                            "pitch": 47, 
                            "t0": 22322, 
                            "v": 112, 
                            "dur": 67, 
                            "type": "note", 
                            "channel": 7
                        }
                    ]
                ], 
                [
                    22400, 
                    [
                        {
                            "pitch": 47, 
                            "t0": 22400, 
                            "v": 70, 
                            "dur": 22, 
                            "type": "note", 
                            "channel": 7
                        }
                    ]
                ], 
                [
                    22438, 
                    [
                        {
                            "pitch": 47, 
                            "t0": 22438, 
                            "v": 73, 
                            "dur": 42, 
                            "type": "note", 
                            "channel": 7
                        }
                    ]
                ], 
                [
                    22516, 
                    [
                        {
                            "pitch": 45, 
                            "t0": 22516, 
                            "v": 56, 
                            "dur": 13, 
                            "type": "note", 
                            "channel": 7
                        }
                    ]
                ], 
                [
                    22554, 
                    [
                        {
                            "pitch": 43, 
                            "t0": 22554, 
                            "v": 76, 
                            "dur": 99, 
                            "type": "note", 
                            "channel": 7
                        }
                    ]
                ], 
                [
                    22678, 
                    [
                        {
                            "pitch": 55, 
                            "t0": 22678, 
                            "v": 104, 
                            "dur": 104, 
                            "type": "note", 
                            "channel": 7
                        }
                    ]
                ], 
                [
                    22797, 
                    [
                        {
                            "pitch": 52, 
                            "t0": 22797, 
                            "v": 97, 
                            "dur": 67, 
                            "type": "note", 
                            "channel": 7
                        }
                    ]
                ], 
                [
                    22874, 
                    [
                        {
                            "pitch": 50, 
                            "t0": 22874, 
                            "v": 78, 
                            "dur": 17, 
                            "type": "note", 
                            "channel": 7
                        }
                    ]
                ], 
                [
                    22918, 
                    [
                        {
                            "pitch": 47, 
                            "t0": 22918, 
                            "v": 122, 
                            "dur": 112, 
                            "type": "note", 
                            "channel": 7
                        }
                    ]
                ], 
                [
                    23039, 
                    [
                        {
                            "pitch": 43, 
                            "t0": 23039, 
                            "v": 102, 
                            "dur": 61, 
                            "type": "note", 
                            "channel": 7
                        }
                    ]
                ], 
                [
                    23520, 
                    [
                        {
                            "pitch": 48, 
                            "t0": 23520, 
                            "v": 72, 
                            "dur": 109, 
                            "type": "note", 
                            "channel": 7
                        }
                    ]
                ], 
                [
                    23633, 
                    [
                        {
                            "pitch": 60, 
                            "t0": 23633, 
                            "v": 77, 
                            "dur": 192, 
                            "type": "note", 
                            "channel": 7
                        }
                    ]
                ], 
                [
                    23834, 
                    [
                        {
                            "pitch": 55, 
                            "t0": 23834, 
                            "v": 71, 
                            "dur": 24, 
                            "type": "note", 
                            "channel": 7
                        }
                    ]
                ], 
                [
                    23870, 
                    [
                        {
                            "pitch": 57, 
                            "t0": 23870, 
                            "v": 87, 
                            "dur": 58, 
                            "type": "note", 
                            "channel": 7
                        }
                    ]
                ], 
                [
                    23992, 
                    [
                        {
                            "pitch": 60, 
                            "t0": 23992, 
                            "v": 88, 
                            "dur": 77, 
                            "type": "note", 
                            "channel": 7
                        }
                    ]
                ], 
                [
                    24084, 
                    [
                        {
                            "pitch": 55, 
                            "t0": 24084, 
                            "v": 70, 
                            "dur": 16, 
                            "type": "note", 
                            "channel": 7
                        }
                    ]
                ], 
                [
                    24118, 
                    [
                        {
                            "pitch": 57, 
                            "t0": 24118, 
                            "v": 92, 
                            "dur": 60, 
                            "type": "note", 
                            "channel": 7
                        }
                    ]
                ], 
                [
                    24197, 
                    [
                        {
                            "pitch": 60, 
                            "t0": 24197, 
                            "v": 100, 
                            "dur": 102, 
                            "type": "note", 
                            "channel": 7
                        }
                    ]
                ], 
                [
                    24316, 
                    [
                        {
                            "pitch": 60, 
                            "t0": 24316, 
                            "v": 68, 
                            "dur": 27, 
                            "type": "note", 
                            "channel": 7
                        }
                    ]
                ], 
                [
                    24357, 
                    [
                        {
                            "pitch": 57, 
                            "t0": 24357, 
                            "v": 98, 
                            "dur": 41, 
                            "type": "note", 
                            "channel": 7
                        }
                    ]
                ], 
                [
                    24594, 
                    [
                        {
                            "pitch": 55, 
                            "t0": 24594, 
                            "v": 97, 
                            "dur": 194, 
                            "type": "note", 
                            "channel": 7
                        }
                    ]
                ], 
                [
                    24794, 
                    [
                        {
                            "pitch": 50, 
                            "t0": 24794, 
                            "v": 79, 
                            "dur": 23, 
                            "type": "note", 
                            "channel": 7
                        }
                    ]
                ], 
                [
                    24829, 
                    [
                        {
                            "pitch": 52, 
                            "t0": 24829, 
                            "v": 102, 
                            "dur": 57, 
                            "type": "note", 
                            "channel": 7
                        }
                    ]
                ], 
                [
                    24954, 
                    [
                        {
                            "pitch": 55, 
                            "t0": 24954, 
                            "v": 90, 
                            "dur": 164, 
                            "type": "note", 
                            "channel": 7
                        }
                    ]
                ], 
                [
                    25164, 
                    [
                        {
                            "pitch": 55, 
                            "t0": 25164, 
                            "v": 97, 
                            "dur": 146, 
                            "type": "note", 
                            "channel": 7
                        }
                    ]
                ], 
                [
                    25328, 
                    [
                        {
                            "pitch": 52, 
                            "t0": 25328, 
                            "v": 100, 
                            "dur": 38, 
                            "type": "note", 
                            "channel": 7
                        }
                    ]
                ], 
                [
                    25442, 
                    [
                        {
                            "pitch": 45, 
                            "t0": 25442, 
                            "v": 80, 
                            "dur": 93, 
                            "type": "note", 
                            "channel": 7
                        }
                    ]
                ], 
                [
                    25553, 
                    [
                        {
                            "pitch": 57, 
                            "t0": 25553, 
                            "v": 98, 
                            "dur": 189, 
                            "type": "note", 
                            "channel": 7
                        }
                    ]
                ], 
                [
                    25753, 
                    [
                        {
                            "pitch": 52, 
                            "t0": 25753, 
                            "v": 90, 
                            "dur": 20, 
                            "type": "note", 
                            "channel": 7
                        }
                    ]
                ], 
                [
                    25788, 
                    [
                        {
                            "pitch": 54, 
                            "t0": 25788, 
                            "v": 116, 
                            "dur": 43, 
                            "type": "note", 
                            "channel": 7
                        }
                    ]
                ], 
                [
                    25917, 
                    [
                        {
                            "pitch": 57, 
                            "t0": 25917, 
                            "v": 97, 
                            "dur": 74, 
                            "type": "note", 
                            "channel": 7
                        }
                    ]
                ], 
                [
                    26003, 
                    [
                        {
                            "pitch": 52, 
                            "t0": 26003, 
                            "v": 78, 
                            "dur": 15, 
                            "type": "note", 
                            "channel": 7
                        }
                    ]
                ], 
                [
                    26033, 
                    [
                        {
                            "pitch": 54, 
                            "t0": 26033, 
                            "v": 99, 
                            "dur": 68, 
                            "type": "note", 
                            "channel": 7
                        }
                    ]
                ], 
                [
                    26113, 
                    [
                        {
                            "pitch": 57, 
                            "t0": 26113, 
                            "v": 91, 
                            "dur": 113, 
                            "type": "note", 
                            "channel": 7
                        }
                    ]
                ], 
                [
                    26241, 
                    [
                        {
                            "pitch": 57, 
                            "t0": 26241, 
                            "v": 64, 
                            "dur": 20, 
                            "type": "note", 
                            "channel": 7
                        }
                    ]
                ], 
                [
                    26277, 
                    [
                        {
                            "pitch": 54, 
                            "t0": 26277, 
                            "v": 107, 
                            "dur": 39, 
                            "type": "note", 
                            "channel": 7
                        }
                    ]
                ], 
                [
                    26399, 
                    [
                        {
                            "pitch": 48, 
                            "t0": 26399, 
                            "v": 56, 
                            "dur": 16, 
                            "type": "note", 
                            "channel": 7
                        }, 
                        {
                            "pitch": 50, 
                            "t0": 26399, 
                            "v": 59, 
                            "dur": 19, 
                            "type": "note", 
                            "channel": 7
                        }
                    ]
                ], 
                [
                    26520, 
                    [
                        {
                            "pitch": 62, 
                            "t0": 26520, 
                            "v": 97, 
                            "dur": 188, 
                            "type": "note", 
                            "channel": 7
                        }
                    ]
                ], 
                [
                    26722, 
                    [
                        {
                            "pitch": 57, 
                            "t0": 26722, 
                            "v": 100, 
                            "dur": 21, 
                            "type": "note", 
                            "channel": 7
                        }
                    ]
                ], 
                [
                    26759, 
                    [
                        {
                            "pitch": 59, 
                            "t0": 26759, 
                            "v": 117, 
                            "dur": 47, 
                            "type": "note", 
                            "channel": 7
                        }
                    ]
                ], 
                [
                    26877, 
                    [
                        {
                            "pitch": 62, 
                            "t0": 26877, 
                            "v": 97, 
                            "dur": 312, 
                            "type": "note", 
                            "channel": 7
                        }
                    ]
                ], 
                [
                    27478, 
                    [
                        {
                            "pitch": 60, 
                            "t0": 27478, 
                            "v": 112, 
                            "dur": 186, 
                            "type": "note", 
                            "channel": 7
                        }
                    ]
                ], 
                [
                    27676, 
                    [
                        {
                            "pitch": 55, 
                            "t0": 27676, 
                            "v": 90, 
                            "dur": 24, 
                            "type": "note", 
                            "channel": 7
                        }
                    ]
                ], 
                [
                    27712, 
                    [
                        {
                            "pitch": 57, 
                            "t0": 27712, 
                            "v": 98, 
                            "dur": 52, 
                            "type": "note", 
                            "channel": 7
                        }
                    ]
                ], 
                [
                    27832, 
                    [
                        {
                            "pitch": 60, 
                            "t0": 27832, 
                            "v": 83, 
                            "dur": 68, 
                            "type": "note", 
                            "channel": 7
                        }
                    ]
                ], 
                [
                    27834, 
                    [
                        {
                            "pitch": 59, 
                            "t0": 27834, 
                            "v": 100, 
                            "dur": 35, 
                            "type": "note", 
                            "channel": 7
                        }
                    ]
                ], 
                [
                    27917, 
                    [
                        {
                            "pitch": 55, 
                            "t0": 27917, 
                            "v": 80, 
                            "dur": 22, 
                            "type": "note", 
                            "channel": 7
                        }
                    ]
                ], 
                [
                    27950, 
                    [
                        {
                            "pitch": 57, 
                            "t0": 27950, 
                            "v": 95, 
                            "dur": 72, 
                            "type": "note", 
                            "channel": 7
                        }
                    ]
                ], 
                [
                    28034, 
                    [
                        {
                            "pitch": 60, 
                            "t0": 28034, 
                            "v": 106, 
                            "dur": 114, 
                            "type": "note", 
                            "channel": 7
                        }
                    ]
                ], 
                [
                    28166, 
                    [
                        {
                            "pitch": 60, 
                            "t0": 28166, 
                            "v": 61, 
                            "dur": 20, 
                            "type": "note", 
                            "channel": 7
                        }
                    ]
                ], 
                [
                    28200, 
                    [
                        {
                            "pitch": 57, 
                            "t0": 28200, 
                            "v": 88, 
                            "dur": 25, 
                            "type": "note", 
                            "channel": 7
                        }
                    ]
                ], 
                [
                    28432, 
                    [
                        {
                            "pitch": 55, 
                            "t0": 28432, 
                            "v": 86, 
                            "dur": 191, 
                            "type": "note", 
                            "channel": 7
                        }
                    ]
                ], 
                [
                    28635, 
                    [
                        {
                            "pitch": 50, 
                            "t0": 28635, 
                            "v": 70, 
                            "dur": 23, 
                            "type": "note", 
                            "channel": 7
                        }
                    ]
                ], 
                [
                    28667, 
                    [
                        {
                            "pitch": 52, 
                            "t0": 28667, 
                            "v": 90, 
                            "dur": 53, 
                            "type": "note", 
                            "channel": 7
                        }
                    ]
                ], 
                [
                    28989, 
                    [
                        {
                            "pitch": 55, 
                            "t0": 28989, 
                            "v": 91, 
                            "dur": 126, 
                            "type": "note", 
                            "channel": 7
                        }
                    ]
                ], 
                [
                    29128, 
                    [
                        {
                            "pitch": 50, 
                            "t0": 29128, 
                            "v": 66, 
                            "dur": 15, 
                            "type": "note", 
                            "channel": 7
                        }
                    ]
                ], 
                [
                    29161, 
                    [
                        {
                            "pitch": 52, 
                            "t0": 29161, 
                            "v": 97, 
                            "dur": 34, 
                            "type": "note", 
                            "channel": 7
                        }
                    ]
                ], 
                [
                    29276, 
                    [
                        {
                            "pitch": 43, 
                            "t0": 29276, 
                            "v": 59, 
                            "dur": 105, 
                            "type": "note", 
                            "channel": 7
                        }
                    ]
                ], 
                [
                    29394, 
                    [
                        {
                            "pitch": 55, 
                            "t0": 29394, 
                            "v": 102, 
                            "dur": 188, 
                            "type": "note", 
                            "channel": 7
                        }
                    ]
                ], 
                [
                    29595, 
                    [
                        {
                            "pitch": 50, 
                            "t0": 29595, 
                            "v": 84, 
                            "dur": 26, 
                            "type": "note", 
                            "channel": 7
                        }
                    ]
                ], 
                [
                    29630, 
                    [
                        {
                            "pitch": 52, 
                            "t0": 29630, 
                            "v": 104, 
                            "dur": 43, 
                            "type": "note", 
                            "channel": 7
                        }
                    ]
                ], 
                [
                    29949, 
                    [
                        {
                            "pitch": 62, 
                            "t0": 29949, 
                            "v": 87, 
                            "dur": 138, 
                            "type": "note", 
                            "channel": 7
                        }
                    ]
                ], 
                [
                    30096, 
                    [
                        {
                            "pitch": 57, 
                            "t0": 30096, 
                            "v": 70, 
                            "dur": 16, 
                            "type": "note", 
                            "channel": 7
                        }
                    ]
                ], 
                [
                    30128, 
                    [
                        {
                            "pitch": 59, 
                            "t0": 30128, 
                            "v": 90, 
                            "dur": 17, 
                            "type": "note", 
                            "channel": 7
                        }
                    ]
                ], 
                [
                    30361, 
                    [
                        {
                            "pitch": 55, 
                            "t0": 30361, 
                            "v": 104, 
                            "dur": 186, 
                            "type": "note", 
                            "channel": 7
                        }
                    ]
                ], 
                [
                    30564, 
                    [
                        {
                            "pitch": 50, 
                            "t0": 30564, 
                            "v": 88, 
                            "dur": 23, 
                            "type": "note", 
                            "channel": 7
                        }
                    ]
                ], 
                [
                    30596, 
                    [
                        {
                            "pitch": 52, 
                            "t0": 30596, 
                            "v": 104, 
                            "dur": 104, 
                            "type": "note", 
                            "channel": 7
                        }
                    ]
                ], 
                [
                    30720, 
                    [
                        {
                            "pitch": 55, 
                            "t0": 30720, 
                            "v": 122, 
                            "dur": 39, 
                            "type": "note", 
                            "channel": 7
                        }
                    ]
                ], 
                [
                    31200, 
                    [
                        {
                            "pitch": 50, 
                            "t0": 31200, 
                            "v": 87, 
                            "dur": 101, 
                            "type": "note", 
                            "channel": 7
                        }
                    ]
                ], 
                [
                    31201, 
                    [
                        {
                            "pitch": 43, 
                            "t0": 31201, 
                            "v": 92, 
                            "dur": 54, 
                            "type": "note", 
                            "channel": 7
                        }
                    ]
                ], 
                [
                    31281, 
                    [
                        {
                            "pitch": 43, 
                            "t0": 31281, 
                            "v": 51, 
                            "dur": 17, 
                            "type": "note", 
                            "channel": 7
                        }
                    ]
                ], 
                [
                    31317, 
                    [
                        {
                            "pitch": 52, 
                            "t0": 31317, 
                            "v": 90, 
                            "dur": 58, 
                            "type": "note", 
                            "channel": 7
                        }
                    ]
                ], 
                [
                    31318, 
                    [
                        {
                            "pitch": 43, 
                            "t0": 31318, 
                            "v": 78, 
                            "dur": 55, 
                            "type": "note", 
                            "channel": 7
                        }
                    ]
                ], 
                [
                    31393, 
                    [
                        {
                            "pitch": 43, 
                            "t0": 31393, 
                            "v": 75, 
                            "dur": 107, 
                            "type": "note", 
                            "channel": 7
                        }, 
                        {
                            "pitch": 50, 
                            "t0": 31393, 
                            "v": 88, 
                            "dur": 116, 
                            "type": "note", 
                            "channel": 7
                        }
                    ]
                ], 
                [
                    31525, 
                    [
                        {
                            "pitch": 43, 
                            "t0": 31525, 
                            "v": 62, 
                            "dur": 22, 
                            "type": "note", 
                            "channel": 7
                        }, 
                        {
                            "pitch": 50, 
                            "t0": 31525, 
                            "v": 66, 
                            "dur": 23, 
                            "type": "note", 
                            "channel": 7
                        }
                    ]
                ], 
                [
                    31562, 
                    [
                        {
                            "pitch": 43, 
                            "t0": 31562, 
                            "v": 77, 
                            "dur": 23, 
                            "type": "note", 
                            "channel": 7
                        }, 
                        {
                            "pitch": 52, 
                            "t0": 31562, 
                            "v": 88, 
                            "dur": 40, 
                            "type": "note", 
                            "channel": 7
                        }
                    ]
                ], 
                [
                    31676, 
                    [
                        {
                            "pitch": 55, 
                            "t0": 31676, 
                            "v": 80, 
                            "dur": 70, 
                            "type": "note", 
                            "channel": 7
                        }
                    ]
                ], 
                [
                    31680, 
                    [
                        {
                            "pitch": 48, 
                            "t0": 31680, 
                            "v": 58, 
                            "dur": 61, 
                            "type": "note", 
                            "channel": 7
                        }
                    ]
                ], 
                [
                    31760, 
                    [
                        {
                            "pitch": 48, 
                            "t0": 31760, 
                            "v": 54, 
                            "dur": 19, 
                            "type": "note", 
                            "channel": 7
                        }
                    ]
                ], 
                [
                    31763, 
                    [
                        {
                            "pitch": 55, 
                            "t0": 31763, 
                            "v": 61, 
                            "dur": 16, 
                            "type": "note", 
                            "channel": 7
                        }
                    ]
                ], 
                [
                    31793, 
                    [
                        {
                            "pitch": 57, 
                            "t0": 31793, 
                            "v": 84, 
                            "dur": 51, 
                            "type": "note", 
                            "channel": 7
                        }, 
                        {
                            "pitch": 48, 
                            "t0": 31793, 
                            "v": 74, 
                            "dur": 59, 
                            "type": "note", 
                            "channel": 7
                        }
                    ]
                ], 
                [
                    31869, 
                    [
                        {
                            "pitch": 48, 
                            "t0": 31869, 
                            "v": 70, 
                            "dur": 104, 
                            "type": "note", 
                            "channel": 7
                        }, 
                        {
                            "pitch": 55, 
                            "t0": 31869, 
                            "v": 95, 
                            "dur": 115, 
                            "type": "note", 
                            "channel": 7
                        }
                    ]
                ], 
                [
                    31999, 
                    [
                        {
                            "pitch": 55, 
                            "t0": 31999, 
                            "v": 74, 
                            "dur": 22, 
                            "type": "note", 
                            "channel": 7
                        }
                    ]
                ], 
                [
                    32000, 
                    [
                        {
                            "pitch": 48, 
                            "t0": 32000, 
                            "v": 65, 
                            "dur": 21, 
                            "type": "note", 
                            "channel": 7
                        }
                    ]
                ], 
                [
                    32037, 
                    [
                        {
                            "pitch": 48, 
                            "t0": 32037, 
                            "v": 78, 
                            "dur": 28, 
                            "type": "note", 
                            "channel": 7
                        }
                    ]
                ], 
                [
                    32038, 
                    [
                        {
                            "pitch": 57, 
                            "t0": 32038, 
                            "v": 84, 
                            "dur": 23, 
                            "type": "note", 
                            "channel": 7
                        }
                    ]
                ], 
                [
                    32116, 
                    [
                        {
                            "pitch": 43, 
                            "t0": 32116, 
                            "v": 66, 
                            "dur": 23, 
                            "type": "note", 
                            "channel": 7
                        }
                    ]
                ], 
                [
                    32153, 
                    [
                        {
                            "pitch": 50, 
                            "t0": 32153, 
                            "v": 83, 
                            "dur": 57, 
                            "type": "note", 
                            "channel": 7
                        }
                    ]
                ], 
                [
                    32155, 
                    [
                        {
                            "pitch": 43, 
                            "t0": 32155, 
                            "v": 66, 
                            "dur": 40, 
                            "type": "note", 
                            "channel": 7
                        }
                    ]
                ], 
                [
                    32233, 
                    [
                        {
                            "pitch": 50, 
                            "t0": 32233, 
                            "v": 66, 
                            "dur": 26, 
                            "type": "note", 
                            "channel": 7
                        }
                    ]
                ], 
                [
                    32235, 
                    [
                        {
                            "pitch": 43, 
                            "t0": 32235, 
                            "v": 60, 
                            "dur": 24, 
                            "type": "note", 
                            "channel": 7
                        }
                    ]
                ], 
                [
                    32272, 
                    [
                        {
                            "pitch": 52, 
                            "t0": 32272, 
                            "v": 86, 
                            "dur": 56, 
                            "type": "note", 
                            "channel": 7
                        }
                    ]
                ], 
                [
                    32273, 
                    [
                        {
                            "pitch": 43, 
                            "t0": 32273, 
                            "v": 72, 
                            "dur": 55, 
                            "type": "note", 
                            "channel": 7
                        }
                    ]
                ], 
                [
                    32350, 
                    [
                        {
                            "pitch": 50, 
                            "t0": 32350, 
                            "v": 92, 
                            "dur": 110, 
                            "type": "note", 
                            "channel": 7
                        }
                    ]
                ], 
                [
                    32352, 
                    [
                        {
                            "pitch": 43, 
                            "t0": 32352, 
                            "v": 80, 
                            "dur": 87, 
                            "type": "note", 
                            "channel": 7
                        }
                    ]
                ], 
                [
                    32477, 
                    [
                        {
                            "pitch": 50, 
                            "t0": 32477, 
                            "v": 73, 
                            "dur": 21, 
                            "type": "note", 
                            "channel": 7
                        }, 
                        {
                            "pitch": 43, 
                            "t0": 32477, 
                            "v": 71, 
                            "dur": 21, 
                            "type": "note", 
                            "channel": 7
                        }
                    ]
                ], 
                [
                    32513, 
                    [
                        {
                            "pitch": 52, 
                            "t0": 32513, 
                            "v": 85, 
                            "dur": 53, 
                            "type": "note", 
                            "channel": 7
                        }
                    ]
                ], 
                [
                    32516, 
                    [
                        {
                            "pitch": 43, 
                            "t0": 32516, 
                            "v": 73, 
                            "dur": 48, 
                            "type": "note", 
                            "channel": 7
                        }
                    ]
                ], 
                [
                    32590, 
                    [
                        {
                            "pitch": 50, 
                            "t0": 32590, 
                            "v": 92, 
                            "dur": 28, 
                            "type": "note", 
                            "channel": 7
                        }
                    ]
                ], 
                [
                    32591, 
                    [
                        {
                            "pitch": 43, 
                            "t0": 32591, 
                            "v": 68, 
                            "dur": 20, 
                            "type": "note", 
                            "channel": 7
                        }
                    ]
                ], 
                [
                    32627, 
                    [
                        {
                            "pitch": 43, 
                            "t0": 32627, 
                            "v": 70, 
                            "dur": 59, 
                            "type": "note", 
                            "channel": 7
                        }
                    ]
                ], 
                [
                    32628, 
                    [
                        {
                            "pitch": 50, 
                            "t0": 32628, 
                            "v": 81, 
                            "dur": 73, 
                            "type": "note", 
                            "channel": 7
                        }
                    ]
                ], 
                [
                    32719, 
                    [
                        {
                            "pitch": 43, 
                            "t0": 32719, 
                            "v": 69, 
                            "dur": 18, 
                            "type": "note", 
                            "channel": 7
                        }, 
                        {
                            "pitch": 50, 
                            "t0": 32719, 
                            "v": 80, 
                            "dur": 20, 
                            "type": "note", 
                            "channel": 7
                        }
                    ]
                ], 
                [
                    32756, 
                    [
                        {
                            "pitch": 43, 
                            "t0": 32756, 
                            "v": 77, 
                            "dur": 50, 
                            "type": "note", 
                            "channel": 7
                        }, 
                        {
                            "pitch": 52, 
                            "t0": 32756, 
                            "v": 91, 
                            "dur": 51, 
                            "type": "note", 
                            "channel": 7
                        }
                    ]
                ], 
                [
                    32830, 
                    [
                        {
                            "pitch": 50, 
                            "t0": 32830, 
                            "v": 102, 
                            "dur": 110, 
                            "type": "note", 
                            "channel": 7
                        }
                    ]
                ], 
                [
                    32831, 
                    [
                        {
                            "pitch": 43, 
                            "t0": 32831, 
                            "v": 77, 
                            "dur": 94, 
                            "type": "note", 
                            "channel": 7
                        }
                    ]
                ], 
                [
                    32958, 
                    [
                        {
                            "pitch": 43, 
                            "t0": 32958, 
                            "v": 66, 
                            "dur": 23, 
                            "type": "note", 
                            "channel": 7
                        }, 
                        {
                            "pitch": 50, 
                            "t0": 32958, 
                            "v": 64, 
                            "dur": 23, 
                            "type": "note", 
                            "channel": 7
                        }
                    ]
                ], 
                [
                    32996, 
                    [
                        {
                            "pitch": 52, 
                            "t0": 32996, 
                            "v": 84, 
                            "dur": 55, 
                            "type": "note", 
                            "channel": 7
                        }
                    ]
                ], 
                [
                    32997, 
                    [
                        {
                            "pitch": 43, 
                            "t0": 32997, 
                            "v": 71, 
                            "dur": 50, 
                            "type": "note", 
                            "channel": 7
                        }
                    ]
                ], 
                [
                    33072, 
                    [
                        {
                            "pitch": 50, 
                            "t0": 33072, 
                            "v": 83, 
                            "dur": 32, 
                            "type": "note", 
                            "channel": 7
                        }
                    ]
                ], 
                [
                    33074, 
                    [
                        {
                            "pitch": 43, 
                            "t0": 33074, 
                            "v": 72, 
                            "dur": 26, 
                            "type": "note", 
                            "channel": 7
                        }
                    ]
                ], 
                [
                    33109, 
                    [
                        {
                            "pitch": 43, 
                            "t0": 33109, 
                            "v": 58, 
                            "dur": 60, 
                            "type": "note", 
                            "channel": 7
                        }
                    ]
                ], 
                [
                    33113, 
                    [
                        {
                            "pitch": 50, 
                            "t0": 33113, 
                            "v": 80, 
                            "dur": 72, 
                            "type": "note", 
                            "channel": 7
                        }
                    ]
                ], 
                [
                    33200, 
                    [
                        {
                            "pitch": 43, 
                            "t0": 33200, 
                            "v": 62, 
                            "dur": 19, 
                            "type": "note", 
                            "channel": 7
                        }, 
                        {
                            "pitch": 50, 
                            "t0": 33200, 
                            "v": 80, 
                            "dur": 25, 
                            "type": "note", 
                            "channel": 7
                        }
                    ]
                ], 
                [
                    33236, 
                    [
                        {
                            "pitch": 52, 
                            "t0": 33236, 
                            "v": 90, 
                            "dur": 52, 
                            "type": "note", 
                            "channel": 7
                        }
                    ]
                ], 
                [
                    33239, 
                    [
                        {
                            "pitch": 43, 
                            "t0": 33239, 
                            "v": 75, 
                            "dur": 48, 
                            "type": "note", 
                            "channel": 7
                        }
                    ]
                ], 
                [
                    33311, 
                    [
                        {
                            "pitch": 43, 
                            "t0": 33311, 
                            "v": 79, 
                            "dur": 93, 
                            "type": "note", 
                            "channel": 7
                        }, 
                        {
                            "pitch": 50, 
                            "t0": 33311, 
                            "v": 104, 
                            "dur": 100, 
                            "type": "note", 
                            "channel": 7
                        }
                    ]
                ], 
                [
                    33431, 
                    [
                        {
                            "pitch": 43, 
                            "t0": 33431, 
                            "v": 70, 
                            "dur": 23, 
                            "type": "note", 
                            "channel": 7
                        }, 
                        {
                            "pitch": 50, 
                            "t0": 33431, 
                            "v": 70, 
                            "dur": 25, 
                            "type": "note", 
                            "channel": 7
                        }
                    ]
                ], 
                [
                    33473, 
                    [
                        {
                            "pitch": 52, 
                            "t0": 33473, 
                            "v": 90, 
                            "dur": 56, 
                            "type": "note", 
                            "channel": 7
                        }
                    ]
                ], 
                [
                    33474, 
                    [
                        {
                            "pitch": 43, 
                            "t0": 33474, 
                            "v": 77, 
                            "dur": 54, 
                            "type": "note", 
                            "channel": 7
                        }
                    ]
                ], 
                [
                    33553, 
                    [
                        {
                            "pitch": 43, 
                            "t0": 33553, 
                            "v": 63, 
                            "dur": 24, 
                            "type": "note", 
                            "channel": 7
                        }
                    ]
                ], 
                [
                    33554, 
                    [
                        {
                            "pitch": 50, 
                            "t0": 33554, 
                            "v": 87, 
                            "dur": 142, 
                            "type": "note", 
                            "channel": 7
                        }
                    ]
                ], 
                [
                    33588, 
                    [
                        {
                            "pitch": 43, 
                            "t0": 33588, 
                            "v": 65, 
                            "dur": 51, 
                            "type": "note", 
                            "channel": 7
                        }
                    ]
                ], 
                [
                    33676, 
                    [
                        {
                            "pitch": 43, 
                            "t0": 33676, 
                            "v": 77, 
                            "dur": 25, 
                            "type": "note", 
                            "channel": 7
                        }
                    ]
                ], 
                [
                    33714, 
                    [
                        {
                            "pitch": 47, 
                            "t0": 33714, 
                            "v": 110, 
                            "dur": 70, 
                            "type": "note", 
                            "channel": 7
                        }
                    ]
                ], 
                [
                    33800, 
                    [
                        {
                            "pitch": 47, 
                            "t0": 33800, 
                            "v": 90, 
                            "dur": 22, 
                            "type": "note", 
                            "channel": 7
                        }
                    ]
                ], 
                [
                    33834, 
                    [
                        {
                            "pitch": 48, 
                            "t0": 33834, 
                            "v": 104, 
                            "dur": 61, 
                            "type": "note", 
                            "channel": 7
                        }
                    ]
                ], 
                [
                    33914, 
                    [
                        {
                            "pitch": 48, 
                            "t0": 33914, 
                            "v": 80, 
                            "dur": 26, 
                            "type": "note", 
                            "channel": 7
                        }
                    ]
                ], 
                [
                    33953, 
                    [
                        {
                            "pitch": 49, 
                            "t0": 33953, 
                            "v": 79, 
                            "dur": 52, 
                            "type": "note", 
                            "channel": 7
                        }
                    ]
                ], 
                [
                    33956, 
                    [
                        {
                            "pitch": 48, 
                            "t0": 33956, 
                            "v": 72, 
                            "dur": 15, 
                            "type": "note", 
                            "channel": 7
                        }
                    ]
                ], 
                [
                    34030, 
                    [
                        {
                            "pitch": 49, 
                            "t0": 34030, 
                            "v": 51, 
                            "dur": 16, 
                            "type": "note", 
                            "channel": 7
                        }
                    ]
                ], 
                [
                    34074, 
                    [
                        {
                            "pitch": 50, 
                            "t0": 34074, 
                            "v": 77, 
                            "dur": 103, 
                            "type": "note", 
                            "channel": 7
                        }
                    ]
                ], 
                [
                    34198, 
                    [
                        {
                            "pitch": 62, 
                            "t0": 34198, 
                            "v": 95, 
                            "dur": 201, 
                            "type": "note", 
                            "channel": 7
                        }
                    ]
                ], 
                [
                    34403, 
                    [
                        {
                            "pitch": 57, 
                            "t0": 34403, 
                            "v": 78, 
                            "dur": 20, 
                            "type": "note", 
                            "channel": 7
                        }
                    ]
                ], 
                [
                    34435, 
                    [
                        {
                            "pitch": 59, 
                            "t0": 34435, 
                            "v": 98, 
                            "dur": 74, 
                            "type": "note", 
                            "channel": 7
                        }
                    ]
                ], 
                [
                    34574, 
                    [
                        {
                            "pitch": 57, 
                            "t0": 34574, 
                            "v": 63, 
                            "dur": 31, 
                            "type": "note", 
                            "channel": 7
                        }
                    ]
                ], 
                [
                    34576, 
                    [
                        {
                            "pitch": 59, 
                            "t0": 34576, 
                            "v": 84, 
                            "dur": 26, 
                            "type": "note", 
                            "channel": 7
                        }
                    ]
                ], 
                [
                    34797, 
                    [
                        {
                            "pitch": 52, 
                            "t0": 34797, 
                            "v": 106, 
                            "dur": 115, 
                            "type": "note", 
                            "channel": 7
                        }
                    ]
                ], 
                [
                    34918, 
                    [
                        {
                            "pitch": 50, 
                            "t0": 34918, 
                            "v": 95, 
                            "dur": 104, 
                            "type": "note", 
                            "channel": 7
                        }
                    ]
                ], 
                [
                    35043, 
                    [
                        {
                            "pitch": 55, 
                            "t0": 35043, 
                            "v": 100, 
                            "dur": 301, 
                            "type": "note", 
                            "channel": 7
                        }
                    ]
                ], 
                [
                    35358, 
                    [
                        {
                            "pitch": 50, 
                            "t0": 35358, 
                            "v": 79, 
                            "dur": 21, 
                            "type": "note", 
                            "channel": 7
                        }
                    ]
                ], 
                [
                    35391, 
                    [
                        {
                            "pitch": 52, 
                            "t0": 35391, 
                            "v": 97, 
                            "dur": 58, 
                            "type": "note", 
                            "channel": 7
                        }
                    ]
                ], 
                [
                    35514, 
                    [
                        {
                            "pitch": 55, 
                            "t0": 35514, 
                            "v": 104, 
                            "dur": 76, 
                            "type": "note", 
                            "channel": 7
                        }
                    ]
                ], 
                [
                    35599, 
                    [
                        {
                            "pitch": 50, 
                            "t0": 35599, 
                            "v": 79, 
                            "dur": 20, 
                            "type": "note", 
                            "channel": 7
                        }
                    ]
                ], 
                [
                    35633, 
                    [
                        {
                            "pitch": 52, 
                            "t0": 35633, 
                            "v": 112, 
                            "dur": 67, 
                            "type": "note", 
                            "channel": 7
                        }
                    ]
                ], 
                [
                    35713, 
                    [
                        {
                            "pitch": 55, 
                            "t0": 35713, 
                            "v": 110, 
                            "dur": 120, 
                            "type": "note", 
                            "channel": 7
                        }
                    ]
                ], 
                [
                    35840, 
                    [
                        {
                            "pitch": 50, 
                            "t0": 35840, 
                            "v": 80, 
                            "dur": 21, 
                            "type": "note", 
                            "channel": 7
                        }
                    ]
                ], 
                [
                    35875, 
                    [
                        {
                            "pitch": 52, 
                            "t0": 35875, 
                            "v": 112, 
                            "dur": 50, 
                            "type": "note", 
                            "channel": 7
                        }
                    ]
                ], 
                [
                    35965, 
                    [
                        {
                            "pitch": 50, 
                            "t0": 35965, 
                            "v": 63, 
                            "dur": 13, 
                            "type": "note", 
                            "channel": 7
                        }
                    ]
                ], 
                [
                    35994, 
                    [
                        {
                            "pitch": 43, 
                            "t0": 35994, 
                            "v": 86, 
                            "dur": 109, 
                            "type": "note", 
                            "channel": 7
                        }
                    ]
                ], 
                [
                    36120, 
                    [
                        {
                            "pitch": 55, 
                            "t0": 36120, 
                            "v": 102, 
                            "dur": 206, 
                            "type": "note", 
                            "channel": 7
                        }
                    ]
                ], 
                [
                    36123, 
                    [
                        {
                            "pitch": 53, 
                            "t0": 36123, 
                            "v": 92, 
                            "dur": 25, 
                            "type": "note", 
                            "channel": 7
                        }
                    ]
                ], 
                [
                    36330, 
                    [
                        {
                            "pitch": 50, 
                            "t0": 36330, 
                            "v": 85, 
                            "dur": 23, 
                            "type": "note", 
                            "channel": 7
                        }
                    ]
                ], 
                [
                    36366, 
                    [
                        {
                            "pitch": 52, 
                            "t0": 36366, 
                            "v": 110, 
                            "dur": 26, 
                            "type": "note", 
                            "channel": 7
                        }
                    ]
                ], 
                [
                    36477, 
                    [
                        {
                            "pitch": 60, 
                            "t0": 36477, 
                            "v": 102, 
                            "dur": 77, 
                            "type": "note", 
                            "channel": 7
                        }
                    ]
                ], 
                [
                    36562, 
                    [
                        {
                            "pitch": 55, 
                            "t0": 36562, 
                            "v": 86, 
                            "dur": 20, 
                            "type": "note", 
                            "channel": 7
                        }
                    ]
                ], 
                [
                    36596, 
                    [
                        {
                            "pitch": 57, 
                            "t0": 36596, 
                            "v": 108, 
                            "dur": 69, 
                            "type": "note", 
                            "channel": 7
                        }
                    ]
                ], 
                [
                    36676, 
                    [
                        {
                            "pitch": 60, 
                            "t0": 36676, 
                            "v": 112, 
                            "dur": 115, 
                            "type": "note", 
                            "channel": 7
                        }
                    ]
                ], 
                [
                    36805, 
                    [
                        {
                            "pitch": 60, 
                            "t0": 36805, 
                            "v": 80, 
                            "dur": 26, 
                            "type": "note", 
                            "channel": 7
                        }
                    ]
                ], 
                [
                    36844, 
                    [
                        {
                            "pitch": 57, 
                            "t0": 36844, 
                            "v": 110, 
                            "dur": 38, 
                            "type": "note", 
                            "channel": 7
                        }
                    ]
                ], 
                [
                    37082, 
                    [
                        {
                            "pitch": 55, 
                            "t0": 37082, 
                            "v": 120, 
                            "dur": 183, 
                            "type": "note", 
                            "channel": 7
                        }
                    ]
                ], 
                [
                    37282, 
                    [
                        {
                            "pitch": 50, 
                            "t0": 37282, 
                            "v": 94, 
                            "dur": 22, 
                            "type": "note", 
                            "channel": 7
                        }
                    ]
                ], 
                [
                    37316, 
                    [
                        {
                            "pitch": 52, 
                            "t0": 37316, 
                            "v": 104, 
                            "dur": 30, 
                            "type": "note", 
                            "channel": 7
                        }
                    ]
                ], 
                [
                    37432, 
                    [
                        {
                            "pitch": 62, 
                            "t0": 37432, 
                            "v": 104, 
                            "dur": 78, 
                            "type": "note", 
                            "channel": 7
                        }
                    ]
                ], 
                [
                    37520, 
                    [
                        {
                            "pitch": 57, 
                            "t0": 37520, 
                            "v": 83, 
                            "dur": 17, 
                            "type": "note", 
                            "channel": 7
                        }
                    ]
                ], 
                [
                    37552, 
                    [
                        {
                            "pitch": 59, 
                            "t0": 37552, 
                            "v": 117, 
                            "dur": 68, 
                            "type": "note", 
                            "channel": 7
                        }
                    ]
                ], 
                [
                    37630, 
                    [
                        {
                            "pitch": 62, 
                            "t0": 37630, 
                            "v": 112, 
                            "dur": 158, 
                            "type": "note", 
                            "channel": 7
                        }
                    ]
                ], 
                [
                    37799, 
                    [
                        {
                            "pitch": 59, 
                            "t0": 37799, 
                            "v": 114, 
                            "dur": 29, 
                            "type": "note", 
                            "channel": 7
                        }
                    ]
                ], 
                [
                    38036, 
                    [
                        {
                            "pitch": 55, 
                            "t0": 38036, 
                            "v": 125, 
                            "dur": 110, 
                            "type": "note", 
                            "channel": 7
                        }
                    ]
                ], 
                [
                    38162, 
                    [
                        {
                            "pitch": 52, 
                            "t0": 38162, 
                            "v": 122, 
                            "dur": 69, 
                            "type": "note", 
                            "channel": 7
                        }
                    ]
                ], 
                [
                    38243, 
                    [
                        {
                            "pitch": 50, 
                            "t0": 38243, 
                            "v": 81, 
                            "dur": 16, 
                            "type": "note", 
                            "channel": 7
                        }
                    ]
                ], 
                [
                    38285, 
                    [
                        {
                            "pitch": 47, 
                            "t0": 38285, 
                            "v": 97, 
                            "dur": 107, 
                            "type": "note", 
                            "channel": 7
                        }
                    ]
                ], 
                [
                    38286, 
                    [
                        {
                            "pitch": 45, 
                            "t0": 38286, 
                            "v": 114, 
                            "dur": 55, 
                            "type": "note", 
                            "channel": 7
                        }
                    ]
                ], 
                [
                    38407, 
                    [
                        {
                            "pitch": 43, 
                            "t0": 38407, 
                            "v": 102, 
                            "dur": 56, 
                            "type": "note", 
                            "channel": 7
                        }
                    ]
                ], 
                [
                    46806, 
                    [
                        {
                            "pitch": 50, 
                            "t0": 46806, 
                            "v": 80, 
                            "dur": 50, 
                            "type": "note", 
                            "channel": 7
                        }
                    ]
                ], 
                [
                    46807, 
                    [
                        {
                            "pitch": 43, 
                            "t0": 46807, 
                            "v": 73, 
                            "dur": 45, 
                            "type": "note", 
                            "channel": 7
                        }
                    ]
                ], 
                [
                    46877, 
                    [
                        {
                            "pitch": 43, 
                            "t0": 46877, 
                            "v": 59, 
                            "dur": 22, 
                            "type": "note", 
                            "channel": 7
                        }
                    ]
                ], 
                [
                    46879, 
                    [
                        {
                            "pitch": 50, 
                            "t0": 46879, 
                            "v": 70, 
                            "dur": 25, 
                            "type": "note", 
                            "channel": 7
                        }
                    ]
                ], 
                [
                    46913, 
                    [
                        {
                            "pitch": 43, 
                            "t0": 46913, 
                            "v": 73, 
                            "dur": 27, 
                            "type": "note", 
                            "channel": 7
                        }
                    ]
                ], 
                [
                    46915, 
                    [
                        {
                            "pitch": 52, 
                            "t0": 46915, 
                            "v": 85, 
                            "dur": 36, 
                            "type": "note", 
                            "channel": 7
                        }
                    ]
                ], 
                [
                    47034, 
                    [
                        {
                            "pitch": 55, 
                            "t0": 47034, 
                            "v": 80, 
                            "dur": 62, 
                            "type": "note", 
                            "channel": 7
                        }
                    ]
                ], 
                [
                    47036, 
                    [
                        {
                            "pitch": 48, 
                            "t0": 47036, 
                            "v": 67, 
                            "dur": 57, 
                            "type": "note", 
                            "channel": 7
                        }
                    ]
                ], 
                [
                    47112, 
                    [
                        {
                            "pitch": 48, 
                            "t0": 47112, 
                            "v": 59, 
                            "dur": 24, 
                            "type": "note", 
                            "channel": 7
                        }
                    ]
                ], 
                [
                    47113, 
                    [
                        {
                            "pitch": 55, 
                            "t0": 47113, 
                            "v": 71, 
                            "dur": 25, 
                            "type": "note", 
                            "channel": 7
                        }
                    ]
                ], 
                [
                    47153, 
                    [
                        {
                            "pitch": 57, 
                            "t0": 47153, 
                            "v": 88, 
                            "dur": 57, 
                            "type": "note", 
                            "channel": 7
                        }
                    ]
                ], 
                [
                    47155, 
                    [
                        {
                            "pitch": 48, 
                            "t0": 47155, 
                            "v": 81, 
                            "dur": 59, 
                            "type": "note", 
                            "channel": 7
                        }
                    ]
                ], 
                [
                    47230, 
                    [
                        {
                            "pitch": 48, 
                            "t0": 47230, 
                            "v": 75, 
                            "dur": 30, 
                            "type": "note", 
                            "channel": 7
                        }, 
                        {
                            "pitch": 55, 
                            "t0": 47230, 
                            "v": 94, 
                            "dur": 153, 
                            "type": "note", 
                            "channel": 7
                        }
                    ]
                ], 
                [
                    47271, 
                    [
                        {
                            "pitch": 48, 
                            "t0": 47271, 
                            "v": 34, 
                            "dur": 45, 
                            "type": "note", 
                            "channel": 7
                        }
                    ]
                ], 
                [
                    47350, 
                    [
                        {
                            "pitch": 48, 
                            "t0": 47350, 
                            "v": 61, 
                            "dur": 27, 
                            "type": "note", 
                            "channel": 7
                        }
                    ]
                ], 
                [
                    47395, 
                    [
                        {
                            "pitch": 48, 
                            "t0": 47395, 
                            "v": 86, 
                            "dur": 24, 
                            "type": "note", 
                            "channel": 7
                        }
                    ]
                ], 
                [
                    47396, 
                    [
                        {
                            "pitch": 57, 
                            "t0": 47396, 
                            "v": 86, 
                            "dur": 21, 
                            "type": "note", 
                            "channel": 7
                        }
                    ]
                ], 
                [
                    47479, 
                    [
                        {
                            "pitch": 43, 
                            "t0": 47479, 
                            "v": 56, 
                            "dur": 25, 
                            "type": "note", 
                            "channel": 7
                        }
                    ]
                ], 
                [
                    47515, 
                    [
                        {
                            "pitch": 50, 
                            "t0": 47515, 
                            "v": 85, 
                            "dur": 56, 
                            "type": "note", 
                            "channel": 7
                        }
                    ]
                ], 
                [
                    47518, 
                    [
                        {
                            "pitch": 43, 
                            "t0": 47518, 
                            "v": 77, 
                            "dur": 48, 
                            "type": "note", 
                            "channel": 7
                        }
                    ]
                ], 
                [
                    47594, 
                    [
                        {
                            "pitch": 43, 
                            "t0": 47594, 
                            "v": 71, 
                            "dur": 21, 
                            "type": "note", 
                            "channel": 7
                        }, 
                        {
                            "pitch": 50, 
                            "t0": 47594, 
                            "v": 81, 
                            "dur": 26, 
                            "type": "note", 
                            "channel": 7
                        }
                    ]
                ], 
                [
                    47632, 
                    [
                        {
                            "pitch": 52, 
                            "t0": 47632, 
                            "v": 100, 
                            "dur": 57, 
                            "type": "note", 
                            "channel": 7
                        }
                    ]
                ], 
                [
                    47634, 
                    [
                        {
                            "pitch": 43, 
                            "t0": 47634, 
                            "v": 91, 
                            "dur": 56, 
                            "type": "note", 
                            "channel": 7
                        }
                    ]
                ], 
                [
                    47712, 
                    [
                        {
                            "pitch": 43, 
                            "t0": 47712, 
                            "v": 78, 
                            "dur": 21, 
                            "type": "note", 
                            "channel": 7
                        }, 
                        {
                            "pitch": 50, 
                            "t0": 47712, 
                            "v": 87, 
                            "dur": 27, 
                            "type": "note", 
                            "channel": 7
                        }
                    ]
                ], 
                [
                    47746, 
                    [
                        {
                            "pitch": 43, 
                            "t0": 47746, 
                            "v": 73, 
                            "dur": 63, 
                            "type": "note", 
                            "channel": 7
                        }
                    ]
                ], 
                [
                    47748, 
                    [
                        {
                            "pitch": 50, 
                            "t0": 47748, 
                            "v": 86, 
                            "dur": 74, 
                            "type": "note", 
                            "channel": 7
                        }
                    ]
                ], 
                [
                    47836, 
                    [
                        {
                            "pitch": 43, 
                            "t0": 47836, 
                            "v": 68, 
                            "dur": 22, 
                            "type": "note", 
                            "channel": 7
                        }, 
                        {
                            "pitch": 50, 
                            "t0": 47836, 
                            "v": 86, 
                            "dur": 25, 
                            "type": "note", 
                            "channel": 7
                        }
                    ]
                ], 
                [
                    47873, 
                    [
                        {
                            "pitch": 52, 
                            "t0": 47873, 
                            "v": 94, 
                            "dur": 54, 
                            "type": "note", 
                            "channel": 7
                        }
                    ]
                ], 
                [
                    47874, 
                    [
                        {
                            "pitch": 43, 
                            "t0": 47874, 
                            "v": 77, 
                            "dur": 56, 
                            "type": "note", 
                            "channel": 7
                        }
                    ]
                ], 
                [
                    47950, 
                    [
                        {
                            "pitch": 43, 
                            "t0": 47950, 
                            "v": 77, 
                            "dur": 98, 
                            "type": "note", 
                            "channel": 7
                        }
                    ]
                ], 
                [
                    47951, 
                    [
                        {
                            "pitch": 50, 
                            "t0": 47951, 
                            "v": 102, 
                            "dur": 110, 
                            "type": "note", 
                            "channel": 7
                        }
                    ]
                ], 
                [
                    48079, 
                    [
                        {
                            "pitch": 43, 
                            "t0": 48079, 
                            "v": 75, 
                            "dur": 24, 
                            "type": "note", 
                            "channel": 7
                        }
                    ]
                ], 
                [
                    48080, 
                    [
                        {
                            "pitch": 50, 
                            "t0": 48080, 
                            "v": 86, 
                            "dur": 27, 
                            "type": "note", 
                            "channel": 7
                        }
                    ]
                ], 
                [
                    48118, 
                    [
                        {
                            "pitch": 52, 
                            "t0": 48118, 
                            "v": 92, 
                            "dur": 56, 
                            "type": "note", 
                            "channel": 7
                        }
                    ]
                ], 
                [
                    48121, 
                    [
                        {
                            "pitch": 43, 
                            "t0": 48121, 
                            "v": 74, 
                            "dur": 55, 
                            "type": "note", 
                            "channel": 7
                        }
                    ]
                ], 
                [
                    48192, 
                    [
                        {
                            "pitch": 43, 
                            "t0": 48192, 
                            "v": 77, 
                            "dur": 26, 
                            "type": "note", 
                            "channel": 7
                        }
                    ]
                ], 
                [
                    48193, 
                    [
                        {
                            "pitch": 50, 
                            "t0": 48193, 
                            "v": 90, 
                            "dur": 102, 
                            "type": "note", 
                            "channel": 7
                        }
                    ]
                ], 
                [
                    48232, 
                    [
                        {
                            "pitch": 43, 
                            "t0": 48232, 
                            "v": 60, 
                            "dur": 58, 
                            "type": "note", 
                            "channel": 7
                        }
                    ]
                ], 
                [
                    48315, 
                    [
                        {
                            "pitch": 43, 
                            "t0": 48315, 
                            "v": 71, 
                            "dur": 26, 
                            "type": "note", 
                            "channel": 7
                        }, 
                        {
                            "pitch": 50, 
                            "t0": 48315, 
                            "v": 88, 
                            "dur": 27, 
                            "type": "note", 
                            "channel": 7
                        }
                    ]
                ], 
                [
                    48357, 
                    [
                        {
                            "pitch": 52, 
                            "t0": 48357, 
                            "v": 91, 
                            "dur": 57, 
                            "type": "note", 
                            "channel": 7
                        }
                    ]
                ], 
                [
                    48359, 
                    [
                        {
                            "pitch": 43, 
                            "t0": 48359, 
                            "v": 78, 
                            "dur": 55, 
                            "type": "note", 
                            "channel": 7
                        }
                    ]
                ], 
                [
                    48435, 
                    [
                        {
                            "pitch": 43, 
                            "t0": 48435, 
                            "v": 70, 
                            "dur": 27, 
                            "type": "note", 
                            "channel": 7
                        }, 
                        {
                            "pitch": 50, 
                            "t0": 48435, 
                            "v": 87, 
                            "dur": 32, 
                            "type": "note", 
                            "channel": 7
                        }
                    ]
                ], 
                [
                    48477, 
                    [
                        {
                            "pitch": 43, 
                            "t0": 48477, 
                            "v": 60, 
                            "dur": 60, 
                            "type": "note", 
                            "channel": 7
                        }
                    ]
                ], 
                [
                    48478, 
                    [
                        {
                            "pitch": 50, 
                            "t0": 48478, 
                            "v": 80, 
                            "dur": 64, 
                            "type": "note", 
                            "channel": 7
                        }
                    ]
                ], 
                [
                    48558, 
                    [
                        {
                            "pitch": 50, 
                            "t0": 48558, 
                            "v": 81, 
                            "dur": 28, 
                            "type": "note", 
                            "channel": 7
                        }
                    ]
                ], 
                [
                    48559, 
                    [
                        {
                            "pitch": 43, 
                            "t0": 48559, 
                            "v": 73, 
                            "dur": 23, 
                            "type": "note", 
                            "channel": 7
                        }
                    ]
                ], 
                [
                    48598, 
                    [
                        {
                            "pitch": 52, 
                            "t0": 48598, 
                            "v": 90, 
                            "dur": 57, 
                            "type": "note", 
                            "channel": 7
                        }
                    ]
                ], 
                [
                    48600, 
                    [
                        {
                            "pitch": 43, 
                            "t0": 48600, 
                            "v": 80, 
                            "dur": 56, 
                            "type": "note", 
                            "channel": 7
                        }
                    ]
                ], 
                [
                    48674, 
                    [
                        {
                            "pitch": 50, 
                            "t0": 48674, 
                            "v": 87, 
                            "dur": 101, 
                            "type": "note", 
                            "channel": 7
                        }
                    ]
                ], 
                [
                    48675, 
                    [
                        {
                            "pitch": 43, 
                            "t0": 48675, 
                            "v": 74, 
                            "dur": 25, 
                            "type": "note", 
                            "channel": 7
                        }
                    ]
                ], 
                [
                    48709, 
                    [
                        {
                            "pitch": 43, 
                            "t0": 48709, 
                            "v": 56, 
                            "dur": 53, 
                            "type": "note", 
                            "channel": 7
                        }
                    ]
                ], 
                [
                    48791, 
                    [
                        {
                            "pitch": 50, 
                            "t0": 48791, 
                            "v": 78, 
                            "dur": 31, 
                            "type": "note", 
                            "channel": 7
                        }
                    ]
                ], 
                [
                    48793, 
                    [
                        {
                            "pitch": 43, 
                            "t0": 48793, 
                            "v": 73, 
                            "dur": 25, 
                            "type": "note", 
                            "channel": 7
                        }
                    ]
                ], 
                [
                    48834, 
                    [
                        {
                            "pitch": 52, 
                            "t0": 48834, 
                            "v": 91, 
                            "dur": 59, 
                            "type": "note", 
                            "channel": 7
                        }
                    ]
                ], 
                [
                    48836, 
                    [
                        {
                            "pitch": 43, 
                            "t0": 48836, 
                            "v": 80, 
                            "dur": 55, 
                            "type": "note", 
                            "channel": 7
                        }
                    ]
                ], 
                [
                    48915, 
                    [
                        {
                            "pitch": 50, 
                            "t0": 48915, 
                            "v": 91, 
                            "dur": 107, 
                            "type": "note", 
                            "channel": 7
                        }
                    ]
                ], 
                [
                    48916, 
                    [
                        {
                            "pitch": 43, 
                            "t0": 48916, 
                            "v": 80, 
                            "dur": 25, 
                            "type": "note", 
                            "channel": 7
                        }
                    ]
                ], 
                [
                    48954, 
                    [
                        {
                            "pitch": 43, 
                            "t0": 48954, 
                            "v": 62, 
                            "dur": 55, 
                            "type": "note", 
                            "channel": 7
                        }
                    ]
                ], 
                [
                    49039, 
                    [
                        {
                            "pitch": 50, 
                            "t0": 49039, 
                            "v": 72, 
                            "dur": 27, 
                            "type": "note", 
                            "channel": 7
                        }
                    ]
                ], 
                [
                    49042, 
                    [
                        {
                            "pitch": 43, 
                            "t0": 49042, 
                            "v": 75, 
                            "dur": 21, 
                            "type": "note", 
                            "channel": 7
                        }
                    ]
                ], 
                [
                    49079, 
                    [
                        {
                            "pitch": 47, 
                            "t0": 49079, 
                            "v": 114, 
                            "dur": 68, 
                            "type": "note", 
                            "channel": 7
                        }
                    ]
                ], 
                [
                    49159, 
                    [
                        {
                            "pitch": 47, 
                            "t0": 49159, 
                            "v": 94, 
                            "dur": 25, 
                            "type": "note", 
                            "channel": 7
                        }
                    ]
                ], 
                [
                    49198, 
                    [
                        {
                            "pitch": 48, 
                            "t0": 49198, 
                            "v": 108, 
                            "dur": 67, 
                            "type": "note", 
                            "channel": 7
                        }
                    ]
                ], 
                [
                    49278, 
                    [
                        {
                            "pitch": 48, 
                            "t0": 49278, 
                            "v": 77, 
                            "dur": 27, 
                            "type": "note", 
                            "channel": 7
                        }
                    ]
                ], 
                [
                    49320, 
                    [
                        {
                            "pitch": 49, 
                            "t0": 49320, 
                            "v": 99, 
                            "dur": 40, 
                            "type": "note", 
                            "channel": 7
                        }
                    ]
                ], 
                [
                    49400, 
                    [
                        {
                            "pitch": 50, 
                            "t0": 49400, 
                            "v": 66, 
                            "dur": 53, 
                            "type": "note", 
                            "channel": 7
                        }
                    ]
                ], 
                [
                    49405, 
                    [
                        {
                            "pitch": 52, 
                            "t0": 49405, 
                            "v": 60, 
                            "dur": 11, 
                            "type": "note", 
                            "channel": 7
                        }
                    ]
                ], 
                [
                    49435, 
                    [
                        {
                            "pitch": 57, 
                            "t0": 49435, 
                            "v": 87, 
                            "dur": 69, 
                            "type": "note", 
                            "channel": 7
                        }
                    ]
                ], 
                [
                    49521, 
                    [
                        {
                            "pitch": 57, 
                            "t0": 49521, 
                            "v": 70, 
                            "dur": 21, 
                            "type": "note", 
                            "channel": 7
                        }
                    ]
                ], 
                [
                    49522, 
                    [
                        {
                            "pitch": 50, 
                            "t0": 49522, 
                            "v": 69, 
                            "dur": 19, 
                            "type": "note", 
                            "channel": 7
                        }
                    ]
                ], 
                [
                    49555, 
                    [
                        {
                            "pitch": 50, 
                            "t0": 49555, 
                            "v": 83, 
                            "dur": 65, 
                            "type": "note", 
                            "channel": 7
                        }, 
                        {
                            "pitch": 59, 
                            "t0": 49555, 
                            "v": 104, 
                            "dur": 68, 
                            "type": "note", 
                            "channel": 7
                        }
                    ]
                ], 
                [
                    49641, 
                    [
                        {
                            "pitch": 50, 
                            "t0": 49641, 
                            "v": 78, 
                            "dur": 82, 
                            "type": "note", 
                            "channel": 7
                        }, 
                        {
                            "pitch": 57, 
                            "t0": 49641, 
                            "v": 97, 
                            "dur": 97, 
                            "type": "note", 
                            "channel": 7
                        }
                    ]
                ], 
                [
                    49758, 
                    [
                        {
                            "pitch": 57, 
                            "t0": 49758, 
                            "v": 68, 
                            "dur": 26, 
                            "type": "note", 
                            "channel": 7
                        }
                    ]
                ], 
                [
                    49759, 
                    [
                        {
                            "pitch": 50, 
                            "t0": 49759, 
                            "v": 66, 
                            "dur": 25, 
                            "type": "note", 
                            "channel": 7
                        }
                    ]
                ], 
                [
                    49800, 
                    [
                        {
                            "pitch": 59, 
                            "t0": 49800, 
                            "v": 104, 
                            "dur": 58, 
                            "type": "note", 
                            "channel": 7
                        }, 
                        {
                            "pitch": 50, 
                            "t0": 49800, 
                            "v": 78, 
                            "dur": 59, 
                            "type": "note", 
                            "channel": 7
                        }
                    ]
                ], 
                [
                    49880, 
                    [
                        {
                            "pitch": 57, 
                            "t0": 49880, 
                            "v": 86, 
                            "dur": 131, 
                            "type": "note", 
                            "channel": 7
                        }
                    ]
                ], 
                [
                    49881, 
                    [
                        {
                            "pitch": 50, 
                            "t0": 49881, 
                            "v": 76, 
                            "dur": 21, 
                            "type": "note", 
                            "channel": 7
                        }
                    ]
                ], 
                [
                    49920, 
                    [
                        {
                            "pitch": 50, 
                            "t0": 49920, 
                            "v": 58, 
                            "dur": 45, 
                            "type": "note", 
                            "channel": 7
                        }
                    ]
                ], 
                [
                    50010, 
                    [
                        {
                            "pitch": 50, 
                            "t0": 50010, 
                            "v": 86, 
                            "dur": 25, 
                            "type": "note", 
                            "channel": 7
                        }
                    ]
                ], 
                [
                    50047, 
                    [
                        {
                            "pitch": 53, 
                            "t0": 50047, 
                            "v": 94, 
                            "dur": 41, 
                            "type": "note", 
                            "channel": 7
                        }, 
                        {
                            "pitch": 52, 
                            "t0": 50047, 
                            "v": 91, 
                            "dur": 49, 
                            "type": "note", 
                            "channel": 7
                        }
                    ]
                ], 
                [
                    50118, 
                    [
                        {
                            "pitch": 52, 
                            "t0": 50118, 
                            "v": 62, 
                            "dur": 32, 
                            "type": "note", 
                            "channel": 7
                        }
                    ]
                ], 
                [
                    50162, 
                    [
                        {
                            "pitch": 53, 
                            "t0": 50162, 
                            "v": 102, 
                            "dur": 62, 
                            "type": "note", 
                            "channel": 7
                        }
                    ]
                ], 
                [
                    50244, 
                    [
                        {
                            "pitch": 53, 
                            "t0": 50244, 
                            "v": 80, 
                            "dur": 24, 
                            "type": "note", 
                            "channel": 7
                        }
                    ]
                ], 
                [
                    50283, 
                    [
                        {
                            "pitch": 54, 
                            "t0": 50283, 
                            "v": 91, 
                            "dur": 54, 
                            "type": "note", 
                            "channel": 7
                        }
                    ]
                ], 
                [
                    50362, 
                    [
                        {
                            "pitch": 55, 
                            "t0": 50362, 
                            "v": 80, 
                            "dur": 23, 
                            "type": "note", 
                            "channel": 7
                        }
                    ]
                ], 
                [
                    50411, 
                    [
                        {
                            "pitch": 43, 
                            "t0": 50411, 
                            "v": 51, 
                            "dur": 51, 
                            "type": "note", 
                            "channel": 7
                        }, 
                        {
                            "pitch": 50, 
                            "t0": 50411, 
                            "v": 80, 
                            "dur": 54, 
                            "type": "note", 
                            "channel": 7
                        }
                    ]
                ], 
                [
                    50485, 
                    [
                        {
                            "pitch": 43, 
                            "t0": 50485, 
                            "v": 73, 
                            "dur": 24, 
                            "type": "note", 
                            "channel": 7
                        }
                    ]
                ], 
                [
                    50486, 
                    [
                        {
                            "pitch": 50, 
                            "t0": 50486, 
                            "v": 80, 
                            "dur": 23, 
                            "type": "note", 
                            "channel": 7
                        }
                    ]
                ], 
                [
                    50519, 
                    [
                        {
                            "pitch": 52, 
                            "t0": 50519, 
                            "v": 87, 
                            "dur": 61, 
                            "type": "note", 
                            "channel": 7
                        }
                    ]
                ], 
                [
                    50522, 
                    [
                        {
                            "pitch": 43, 
                            "t0": 50522, 
                            "v": 72, 
                            "dur": 54, 
                            "type": "note", 
                            "channel": 7
                        }
                    ]
                ], 
                [
                    50595, 
                    [
                        {
                            "pitch": 43, 
                            "t0": 50595, 
                            "v": 79, 
                            "dur": 101, 
                            "type": "note", 
                            "channel": 7
                        }
                    ]
                ], 
                [
                    50596, 
                    [
                        {
                            "pitch": 50, 
                            "t0": 50596, 
                            "v": 100, 
                            "dur": 106, 
                            "type": "note", 
                            "channel": 7
                        }
                    ]
                ], 
                [
                    50720, 
                    [
                        {
                            "pitch": 50, 
                            "t0": 50720, 
                            "v": 69, 
                            "dur": 32, 
                            "type": "note", 
                            "channel": 7
                        }
                    ]
                ], 
                [
                    50722, 
                    [
                        {
                            "pitch": 43, 
                            "t0": 50722, 
                            "v": 65, 
                            "dur": 25, 
                            "type": "note", 
                            "channel": 7
                        }
                    ]
                ], 
                [
                    50766, 
                    [
                        {
                            "pitch": 43, 
                            "t0": 50766, 
                            "v": 78, 
                            "dur": 24, 
                            "type": "note", 
                            "channel": 7
                        }, 
                        {
                            "pitch": 52, 
                            "t0": 50766, 
                            "v": 92, 
                            "dur": 47, 
                            "type": "note", 
                            "channel": 7
                        }
                    ]
                ], 
                [
                    50846, 
                    [
                        {
                            "pitch": 48, 
                            "t0": 50846, 
                            "v": 58, 
                            "dur": 102, 
                            "type": "note", 
                            "channel": 7
                        }
                    ]
                ], 
                [
                    50879, 
                    [
                        {
                            "pitch": 55, 
                            "t0": 50879, 
                            "v": 86, 
                            "dur": 71, 
                            "type": "note", 
                            "channel": 7
                        }
                    ]
                ], 
                [
                    50963, 
                    [
                        {
                            "pitch": 48, 
                            "t0": 50963, 
                            "v": 67, 
                            "dur": 24, 
                            "type": "note", 
                            "channel": 7
                        }
                    ]
                ], 
                [
                    50965, 
                    [
                        {
                            "pitch": 55, 
                            "t0": 50965, 
                            "v": 79, 
                            "dur": 24, 
                            "type": "note", 
                            "channel": 7
                        }
                    ]
                ], 
                [
                    51002, 
                    [
                        {
                            "pitch": 57, 
                            "t0": 51002, 
                            "v": 87, 
                            "dur": 58, 
                            "type": "note", 
                            "channel": 7
                        }
                    ]
                ], 
                [
                    51004, 
                    [
                        {
                            "pitch": 48, 
                            "t0": 51004, 
                            "v": 74, 
                            "dur": 65, 
                            "type": "note", 
                            "channel": 7
                        }
                    ]
                ], 
                [
                    51077, 
                    [
                        {
                            "pitch": 48, 
                            "t0": 51077, 
                            "v": 65, 
                            "dur": 103, 
                            "type": "note", 
                            "channel": 7
                        }
                    ]
                ], 
                [
                    51078, 
                    [
                        {
                            "pitch": 55, 
                            "t0": 51078, 
                            "v": 95, 
                            "dur": 108, 
                            "type": "note", 
                            "channel": 7
                        }
                    ]
                ], 
                [
                    51207, 
                    [
                        {
                            "pitch": 48, 
                            "t0": 51207, 
                            "v": 73, 
                            "dur": 19, 
                            "type": "note", 
                            "channel": 7
                        }
                    ]
                ], 
                [
                    51208, 
                    [
                        {
                            "pitch": 55, 
                            "t0": 51208, 
                            "v": 83, 
                            "dur": 19, 
                            "type": "note", 
                            "channel": 7
                        }
                    ]
                ], 
                [
                    51242, 
                    [
                        {
                            "pitch": 57, 
                            "t0": 51242, 
                            "v": 88, 
                            "dur": 30, 
                            "type": "note", 
                            "channel": 7
                        }, 
                        {
                            "pitch": 48, 
                            "t0": 51242, 
                            "v": 85, 
                            "dur": 34, 
                            "type": "note", 
                            "channel": 7
                        }
                    ]
                ], 
                [
                    51320, 
                    [
                        {
                            "pitch": 43, 
                            "t0": 51320, 
                            "v": 76, 
                            "dur": 26, 
                            "type": "note", 
                            "channel": 7
                        }
                    ]
                ], 
                [
                    51353, 
                    [
                        {
                            "pitch": 50, 
                            "t0": 51353, 
                            "v": 77, 
                            "dur": 73, 
                            "type": "note", 
                            "channel": 7
                        }
                    ]
                ], 
                [
                    51358, 
                    [
                        {
                            "pitch": 43, 
                            "t0": 51358, 
                            "v": 56, 
                            "dur": 52, 
                            "type": "note", 
                            "channel": 7
                        }
                    ]
                ], 
                [
                    51442, 
                    [
                        {
                            "pitch": 43, 
                            "t0": 51442, 
                            "v": 70, 
                            "dur": 25, 
                            "type": "note", 
                            "channel": 7
                        }, 
                        {
                            "pitch": 50, 
                            "t0": 51442, 
                            "v": 65, 
                            "dur": 25, 
                            "type": "note", 
                            "channel": 7
                        }
                    ]
                ], 
                [
                    51482, 
                    [
                        {
                            "pitch": 52, 
                            "t0": 51482, 
                            "v": 91, 
                            "dur": 55, 
                            "type": "note", 
                            "channel": 7
                        }
                    ]
                ], 
                [
                    51484, 
                    [
                        {
                            "pitch": 43, 
                            "t0": 51484, 
                            "v": 80, 
                            "dur": 55, 
                            "type": "note", 
                            "channel": 7
                        }
                    ]
                ], 
                [
                    51555, 
                    [
                        {
                            "pitch": 50, 
                            "t0": 51555, 
                            "v": 98, 
                            "dur": 105, 
                            "type": "note", 
                            "channel": 7
                        }
                    ]
                ], 
                [
                    51556, 
                    [
                        {
                            "pitch": 43, 
                            "t0": 51556, 
                            "v": 80, 
                            "dur": 93, 
                            "type": "note", 
                            "channel": 7
                        }
                    ]
                ], 
                [
                    51680, 
                    [
                        {
                            "pitch": 50, 
                            "t0": 51680, 
                            "v": 80, 
                            "dur": 27, 
                            "type": "note", 
                            "channel": 7
                        }
                    ]
                ], 
                [
                    51682, 
                    [
                        {
                            "pitch": 43, 
                            "t0": 51682, 
                            "v": 65, 
                            "dur": 24, 
                            "type": "note", 
                            "channel": 7
                        }
                    ]
                ], 
                [
                    51720, 
                    [
                        {
                            "pitch": 52, 
                            "t0": 51720, 
                            "v": 87, 
                            "dur": 54, 
                            "type": "note", 
                            "channel": 7
                        }
                    ]
                ], 
                [
                    51722, 
                    [
                        {
                            "pitch": 43, 
                            "t0": 51722, 
                            "v": 70, 
                            "dur": 45, 
                            "type": "note", 
                            "channel": 7
                        }
                    ]
                ], 
                [
                    51842, 
                    [
                        {
                            "pitch": 55, 
                            "t0": 51842, 
                            "v": 85, 
                            "dur": 63, 
                            "type": "note", 
                            "channel": 7
                        }
                    ]
                ], 
                [
                    51843, 
                    [
                        {
                            "pitch": 48, 
                            "t0": 51843, 
                            "v": 73, 
                            "dur": 45, 
                            "type": "note", 
                            "channel": 7
                        }
                    ]
                ], 
                [
                    51920, 
                    [
                        {
                            "pitch": 55, 
                            "t0": 51920, 
                            "v": 77, 
                            "dur": 24, 
                            "type": "note", 
                            "channel": 7
                        }
                    ]
                ], 
                [
                    51922, 
                    [
                        {
                            "pitch": 48, 
                            "t0": 51922, 
                            "v": 73, 
                            "dur": 20, 
                            "type": "note", 
                            "channel": 7
                        }
                    ]
                ], 
                [
                    51958, 
                    [
                        {
                            "pitch": 57, 
                            "t0": 51958, 
                            "v": 92, 
                            "dur": 56, 
                            "type": "note", 
                            "channel": 7
                        }
                    ]
                ], 
                [
                    51959, 
                    [
                        {
                            "pitch": 48, 
                            "t0": 51959, 
                            "v": 88, 
                            "dur": 59, 
                            "type": "note", 
                            "channel": 7
                        }
                    ]
                ], 
                [
                    52033, 
                    [
                        {
                            "pitch": 48, 
                            "t0": 52033, 
                            "v": 78, 
                            "dur": 103, 
                            "type": "note", 
                            "channel": 7
                        }, 
                        {
                            "pitch": 55, 
                            "t0": 52033, 
                            "v": 106, 
                            "dur": 109, 
                            "type": "note", 
                            "channel": 7
                        }
                    ]
                ], 
                [
                    52160, 
                    [
                        {
                            "pitch": 48, 
                            "t0": 52160, 
                            "v": 65, 
                            "dur": 22, 
                            "type": "note", 
                            "channel": 7
                        }, 
                        {
                            "pitch": 55, 
                            "t0": 52160, 
                            "v": 90, 
                            "dur": 27, 
                            "type": "note", 
                            "channel": 7
                        }
                    ]
                ], 
                [
                    52199, 
                    [
                        {
                            "pitch": 57, 
                            "t0": 52199, 
                            "v": 91, 
                            "dur": 31, 
                            "type": "note", 
                            "channel": 7
                        }
                    ]
                ], 
                [
                    52200, 
                    [
                        {
                            "pitch": 48, 
                            "t0": 52200, 
                            "v": 84, 
                            "dur": 28, 
                            "type": "note", 
                            "channel": 7
                        }
                    ]
                ], 
                [
                    52285, 
                    [
                        {
                            "pitch": 43, 
                            "t0": 52285, 
                            "v": 65, 
                            "dur": 21, 
                            "type": "note", 
                            "channel": 7
                        }
                    ]
                ], 
                [
                    52326, 
                    [
                        {
                            "pitch": 43, 
                            "t0": 52326, 
                            "v": 80, 
                            "dur": 54, 
                            "type": "note", 
                            "channel": 7
                        }
                    ]
                ], 
                [
                    52404, 
                    [
                        {
                            "pitch": 43, 
                            "t0": 52404, 
                            "v": 90, 
                            "dur": 29, 
                            "type": "note", 
                            "channel": 7
                        }
                    ]
                ], 
                [
                    52439, 
                    [
                        {
                            "pitch": 47, 
                            "t0": 52439, 
                            "v": 97, 
                            "dur": 68, 
                            "type": "note", 
                            "channel": 7
                        }
                    ]
                ], 
                [
                    52520, 
                    [
                        {
                            "pitch": 47, 
                            "t0": 52520, 
                            "v": 100, 
                            "dur": 25, 
                            "type": "note", 
                            "channel": 7
                        }
                    ]
                ], 
                [
                    52555, 
                    [
                        {
                            "pitch": 48, 
                            "t0": 52555, 
                            "v": 104, 
                            "dur": 70, 
                            "type": "note", 
                            "channel": 7
                        }
                    ]
                ], 
                [
                    52642, 
                    [
                        {
                            "pitch": 48, 
                            "t0": 52642, 
                            "v": 91, 
                            "dur": 22, 
                            "type": "note", 
                            "channel": 7
                        }
                    ]
                ], 
                [
                    52675, 
                    [
                        {
                            "pitch": 49, 
                            "t0": 52675, 
                            "v": 66, 
                            "dur": 58, 
                            "type": "note", 
                            "channel": 7
                        }
                    ]
                ], 
                [
                    52758, 
                    [
                        {
                            "pitch": 49, 
                            "t0": 52758, 
                            "v": 84, 
                            "dur": 28, 
                            "type": "note", 
                            "channel": 7
                        }
                    ]
                ], 
                [
                    52797, 
                    [
                        {
                            "pitch": 50, 
                            "t0": 52797, 
                            "v": 97, 
                            "dur": 68, 
                            "type": "note", 
                            "channel": 7
                        }
                    ]
                ], 
                [
                    52883, 
                    [
                        {
                            "pitch": 50, 
                            "t0": 52883, 
                            "v": 76, 
                            "dur": 27, 
                            "type": "note", 
                            "channel": 7
                        }
                    ]
                ], 
                [
                    52918, 
                    [
                        {
                            "pitch": 48, 
                            "t0": 52918, 
                            "v": 98, 
                            "dur": 69, 
                            "type": "note", 
                            "channel": 7
                        }
                    ]
                ], 
                [
                    53001, 
                    [
                        {
                            "pitch": 48, 
                            "t0": 53001, 
                            "v": 73, 
                            "dur": 24, 
                            "type": "note", 
                            "channel": 7
                        }
                    ]
                ], 
                [
                    53040, 
                    [
                        {
                            "pitch": 47, 
                            "t0": 53040, 
                            "v": 106, 
                            "dur": 68, 
                            "type": "note", 
                            "channel": 7
                        }
                    ]
                ], 
                [
                    53117, 
                    [
                        {
                            "pitch": 47, 
                            "t0": 53117, 
                            "v": 62, 
                            "dur": 28, 
                            "type": "note", 
                            "channel": 7
                        }
                    ]
                ], 
                [
                    53164, 
                    [
                        {
                            "pitch": 45, 
                            "t0": 53164, 
                            "v": 106, 
                            "dur": 51, 
                            "type": "note", 
                            "channel": 7
                        }
                    ]
                ], 
                [
                    53232, 
                    [
                        {
                            "pitch": 45, 
                            "t0": 53232, 
                            "v": 67, 
                            "dur": 33, 
                            "type": "note", 
                            "channel": 7
                        }
                    ]
                ], 
                [
                    53278, 
                    [
                        {
                            "pitch": 43, 
                            "t0": 53278, 
                            "v": 92, 
                            "dur": 99, 
                            "type": "note", 
                            "channel": 7
                        }
                    ]
                ], 
                [
                    53396, 
                    [
                        {
                            "pitch": 55, 
                            "t0": 53396, 
                            "v": 114, 
                            "dur": 114, 
                            "type": "note", 
                            "channel": 7
                        }
                    ]
                ], 
                [
                    53524, 
                    [
                        {
                            "pitch": 52, 
                            "t0": 53524, 
                            "v": 104, 
                            "dur": 68, 
                            "type": "note", 
                            "channel": 7
                        }
                    ]
                ], 
                [
                    53604, 
                    [
                        {
                            "pitch": 50, 
                            "t0": 53604, 
                            "v": 81, 
                            "dur": 16, 
                            "type": "note", 
                            "channel": 7
                        }
                    ]
                ], 
                [
                    53646, 
                    [
                        {
                            "pitch": 47, 
                            "t0": 53646, 
                            "v": 125, 
                            "dur": 113, 
                            "type": "note", 
                            "channel": 7
                        }
                    ]
                ], 
                [
                    53768, 
                    [
                        {
                            "pitch": 43, 
                            "t0": 53768, 
                            "v": 112, 
                            "dur": 59, 
                            "type": "note", 
                            "channel": 7
                        }
                    ]
                ], 
                [
                    54250, 
                    [
                        {
                            "pitch": 55, 
                            "t0": 54250, 
                            "v": 88, 
                            "dur": 110, 
                            "type": "note", 
                            "channel": 7
                        }, 
                        {
                            "pitch": 48, 
                            "t0": 54250, 
                            "v": 71, 
                            "dur": 147, 
                            "type": "note", 
                            "channel": 7
                        }
                    ]
                ], 
                [
                    54368, 
                    [
                        {
                            "pitch": 57, 
                            "t0": 54368, 
                            "v": 76, 
                            "dur": 22, 
                            "type": "note", 
                            "channel": 7
                        }
                    ]
                ], 
                [
                    54480, 
                    [
                        {
                            "pitch": 55, 
                            "t0": 54480, 
                            "v": 83, 
                            "dur": 64, 
                            "type": "note", 
                            "channel": 7
                        }
                    ]
                ], 
                [
                    54481, 
                    [
                        {
                            "pitch": 48, 
                            "t0": 54481, 
                            "v": 73, 
                            "dur": 57, 
                            "type": "note", 
                            "channel": 7
                        }
                    ]
                ], 
                [
                    54555, 
                    [
                        {
                            "pitch": 48, 
                            "t0": 54555, 
                            "v": 26, 
                            "dur": 25, 
                            "type": "note", 
                            "channel": 7
                        }
                    ]
                ], 
                [
                    54559, 
                    [
                        {
                            "pitch": 55, 
                            "t0": 54559, 
                            "v": 60, 
                            "dur": 22, 
                            "type": "note", 
                            "channel": 7
                        }
                    ]
                ], 
                [
                    54595, 
                    [
                        {
                            "pitch": 57, 
                            "t0": 54595, 
                            "v": 80, 
                            "dur": 56, 
                            "type": "note", 
                            "channel": 7
                        }
                    ]
                ], 
                [
                    54597, 
                    [
                        {
                            "pitch": 48, 
                            "t0": 54597, 
                            "v": 65, 
                            "dur": 61, 
                            "type": "note", 
                            "channel": 7
                        }
                    ]
                ], 
                [
                    54672, 
                    [
                        {
                            "pitch": 48, 
                            "t0": 54672, 
                            "v": 69, 
                            "dur": 109, 
                            "type": "note", 
                            "channel": 7
                        }, 
                        {
                            "pitch": 55, 
                            "t0": 54672, 
                            "v": 85, 
                            "dur": 147, 
                            "type": "note", 
                            "channel": 7
                        }
                    ]
                ], 
                [
                    54797, 
                    [
                        {
                            "pitch": 48, 
                            "t0": 54797, 
                            "v": 56, 
                            "dur": 23, 
                            "type": "note", 
                            "channel": 7
                        }
                    ]
                ], 
                [
                    54835, 
                    [
                        {
                            "pitch": 57, 
                            "t0": 54835, 
                            "v": 80, 
                            "dur": 61, 
                            "type": "note", 
                            "channel": 7
                        }
                    ]
                ], 
                [
                    54837, 
                    [
                        {
                            "pitch": 48, 
                            "t0": 54837, 
                            "v": 69, 
                            "dur": 64, 
                            "type": "note", 
                            "channel": 7
                        }
                    ]
                ], 
                [
                    54912, 
                    [
                        {
                            "pitch": 55, 
                            "t0": 54912, 
                            "v": 80, 
                            "dur": 103, 
                            "type": "note", 
                            "channel": 7
                        }
                    ]
                ], 
                [
                    54913, 
                    [
                        {
                            "pitch": 48, 
                            "t0": 54913, 
                            "v": 57, 
                            "dur": 96, 
                            "type": "note", 
                            "channel": 7
                        }
                    ]
                ], 
                [
                    55037, 
                    [
                        {
                            "pitch": 55, 
                            "t0": 55037, 
                            "v": 66, 
                            "dur": 27, 
                            "type": "note", 
                            "channel": 7
                        }
                    ]
                ], 
                [
                    55040, 
                    [
                        {
                            "pitch": 48, 
                            "t0": 55040, 
                            "v": 63, 
                            "dur": 18, 
                            "type": "note", 
                            "channel": 7
                        }
                    ]
                ], 
                [
                    55077, 
                    [
                        {
                            "pitch": 57, 
                            "t0": 55077, 
                            "v": 72, 
                            "dur": 14, 
                            "type": "note", 
                            "channel": 7
                        }
                    ]
                ], 
                [
                    55078, 
                    [
                        {
                            "pitch": 48, 
                            "t0": 55078, 
                            "v": 70, 
                            "dur": 22, 
                            "type": "note", 
                            "channel": 7
                        }
                    ]
                ], 
                [
                    55188, 
                    [
                        {
                            "pitch": 43, 
                            "t0": 55188, 
                            "v": 56, 
                            "dur": 106, 
                            "type": "note", 
                            "channel": 7
                        }
                    ]
                ], 
                [
                    55190, 
                    [
                        {
                            "pitch": 50, 
                            "t0": 55190, 
                            "v": 70, 
                            "dur": 110, 
                            "type": "note", 
                            "channel": 7
                        }
                    ]
                ], 
                [
                    55315, 
                    [
                        {
                            "pitch": 52, 
                            "t0": 55315, 
                            "v": 73, 
                            "dur": 27, 
                            "type": "note", 
                            "channel": 7
                        }, 
                        {
                            "pitch": 43, 
                            "t0": 55315, 
                            "v": 69, 
                            "dur": 32, 
                            "type": "note", 
                            "channel": 7
                        }
                    ]
                ], 
                [
                    55433, 
                    [
                        {
                            "pitch": 50, 
                            "t0": 55433, 
                            "v": 72, 
                            "dur": 52, 
                            "type": "note", 
                            "channel": 7
                        }
                    ]
                ], 
                [
                    55434, 
                    [
                        {
                            "pitch": 43, 
                            "t0": 55434, 
                            "v": 62, 
                            "dur": 38, 
                            "type": "note", 
                            "channel": 7
                        }
                    ]
                ], 
                [
                    55518, 
                    [
                        {
                            "pitch": 50, 
                            "t0": 55518, 
                            "v": 65, 
                            "dur": 20, 
                            "type": "note", 
                            "channel": 7
                        }
                    ]
                ], 
                [
                    55522, 
                    [
                        {
                            "pitch": 43, 
                            "t0": 55522, 
                            "v": 62, 
                            "dur": 15, 
                            "type": "note", 
                            "channel": 7
                        }
                    ]
                ], 
                [
                    55555, 
                    [
                        {
                            "pitch": 52, 
                            "t0": 55555, 
                            "v": 72, 
                            "dur": 55, 
                            "type": "note", 
                            "channel": 7
                        }, 
                        {
                            "pitch": 43, 
                            "t0": 55555, 
                            "v": 64, 
                            "dur": 57, 
                            "type": "note", 
                            "channel": 7
                        }
                    ]
                ], 
                [
                    55631, 
                    [
                        {
                            "pitch": 43, 
                            "t0": 55631, 
                            "v": 66, 
                            "dur": 85, 
                            "type": "note", 
                            "channel": 7
                        }, 
                        {
                            "pitch": 50, 
                            "t0": 55631, 
                            "v": 77, 
                            "dur": 149, 
                            "type": "note", 
                            "channel": 7
                        }
                    ]
                ], 
                [
                    55765, 
                    [
                        {
                            "pitch": 43, 
                            "t0": 55765, 
                            "v": 54, 
                            "dur": 24, 
                            "type": "note", 
                            "channel": 7
                        }
                    ]
                ], 
                [
                    55798, 
                    [
                        {
                            "pitch": 52, 
                            "t0": 55798, 
                            "v": 73, 
                            "dur": 72, 
                            "type": "note", 
                            "channel": 7
                        }
                    ]
                ], 
                [
                    55799, 
                    [
                        {
                            "pitch": 43, 
                            "t0": 55799, 
                            "v": 44, 
                            "dur": 45, 
                            "type": "note", 
                            "channel": 7
                        }
                    ]
                ], 
                [
                    55886, 
                    [
                        {
                            "pitch": 43, 
                            "t0": 55886, 
                            "v": 71, 
                            "dur": 20, 
                            "type": "note", 
                            "channel": 7
                        }
                    ]
                ], 
                [
                    55919, 
                    [
                        {
                            "pitch": 50, 
                            "t0": 55919, 
                            "v": 104, 
                            "dur": 52, 
                            "type": "note", 
                            "channel": 7
                        }
                    ]
                ], 
                [
                    55921, 
                    [
                        {
                            "pitch": 43, 
                            "t0": 55921, 
                            "v": 73, 
                            "dur": 37, 
                            "type": "note", 
                            "channel": 7
                        }
                    ]
                ], 
                [
                    56038, 
                    [
                        {
                            "pitch": 51, 
                            "t0": 56038, 
                            "v": 89, 
                            "dur": 65, 
                            "type": "note", 
                            "channel": 7
                        }
                    ]
                ], 
                [
                    56039, 
                    [
                        {
                            "pitch": 44, 
                            "t0": 56039, 
                            "v": 91, 
                            "dur": 51, 
                            "type": "note", 
                            "channel": 7
                        }
                    ]
                ], 
                [
                    56155, 
                    [
                        {
                            "pitch": 45, 
                            "t0": 56155, 
                            "v": 80, 
                            "dur": 101, 
                            "type": "note", 
                            "channel": 7
                        }, 
                        {
                            "pitch": 52, 
                            "t0": 56155, 
                            "v": 86, 
                            "dur": 103, 
                            "type": "note", 
                            "channel": 7
                        }
                    ]
                ], 
                [
                    56282, 
                    [
                        {
                            "pitch": 54, 
                            "t0": 56282, 
                            "v": 59, 
                            "dur": 30, 
                            "type": "note", 
                            "channel": 7
                        }
                    ]
                ], 
                [
                    56283, 
                    [
                        {
                            "pitch": 45, 
                            "t0": 56283, 
                            "v": 64, 
                            "dur": 83, 
                            "type": "note", 
                            "channel": 7
                        }
                    ]
                ], 
                [
                    56398, 
                    [
                        {
                            "pitch": 57, 
                            "t0": 56398, 
                            "v": 80, 
                            "dur": 67, 
                            "type": "note", 
                            "channel": 7
                        }
                    ]
                ], 
                [
                    56478, 
                    [
                        {
                            "pitch": 54, 
                            "t0": 56478, 
                            "v": 67, 
                            "dur": 19, 
                            "type": "note", 
                            "channel": 7
                        }
                    ]
                ], 
                [
                    56518, 
                    [
                        {
                            "pitch": 52, 
                            "t0": 56518, 
                            "v": 83, 
                            "dur": 30, 
                            "type": "note", 
                            "channel": 7
                        }
                    ]
                ], 
                [
                    56544, 
                    [
                        {
                            "pitch": 54, 
                            "t0": 56544, 
                            "v": 66, 
                            "dur": 30, 
                            "type": "note", 
                            "channel": 7
                        }
                    ]
                ], 
                [
                    56600, 
                    [
                        {
                            "pitch": 57, 
                            "t0": 56600, 
                            "v": 75, 
                            "dur": 115, 
                            "type": "note", 
                            "channel": 7
                        }
                    ]
                ], 
                [
                    56605, 
                    [
                        {
                            "pitch": 45, 
                            "t0": 56605, 
                            "v": 60, 
                            "dur": 31, 
                            "type": "note", 
                            "channel": 7
                        }
                    ]
                ], 
                [
                    56656, 
                    [
                        {
                            "pitch": 45, 
                            "t0": 56656, 
                            "v": 31, 
                            "dur": 35, 
                            "type": "note", 
                            "channel": 7
                        }
                    ]
                ], 
                [
                    56725, 
                    [
                        {
                            "pitch": 52, 
                            "t0": 56725, 
                            "v": 74, 
                            "dur": 21, 
                            "type": "note", 
                            "channel": 7
                        }
                    ]
                ], 
                [
                    56759, 
                    [
                        {
                            "pitch": 54, 
                            "t0": 56759, 
                            "v": 85, 
                            "dur": 47, 
                            "type": "note", 
                            "channel": 7
                        }
                    ]
                ], 
                [
                    56833, 
                    [
                        {
                            "pitch": 57, 
                            "t0": 56833, 
                            "v": 84, 
                            "dur": 134, 
                            "type": "note", 
                            "channel": 7
                        }
                    ]
                ], 
                [
                    56838, 
                    [
                        {
                            "pitch": 45, 
                            "t0": 56838, 
                            "v": 62, 
                            "dur": 80, 
                            "type": "note", 
                            "channel": 7
                        }
                    ]
                ], 
                [
                    56967, 
                    [
                        {
                            "pitch": 45, 
                            "t0": 56967, 
                            "v": 61, 
                            "dur": 47, 
                            "type": "note", 
                            "channel": 7
                        }
                    ]
                ], 
                [
                    57001, 
                    [
                        {
                            "pitch": 54, 
                            "t0": 57001, 
                            "v": 71, 
                            "dur": 30, 
                            "type": "note", 
                            "channel": 7
                        }
                    ]
                ], 
                [
                    57237, 
                    [
                        {
                            "pitch": 62, 
                            "t0": 57237, 
                            "v": 87, 
                            "dur": 181, 
                            "type": "note", 
                            "channel": 7
                        }
                    ]
                ], 
                [
                    57242, 
                    [
                        {
                            "pitch": 50, 
                            "t0": 57242, 
                            "v": 74, 
                            "dur": 65, 
                            "type": "note", 
                            "channel": 7
                        }
                    ]
                ], 
                [
                    57365, 
                    [
                        {
                            "pitch": 50, 
                            "t0": 57365, 
                            "v": 58, 
                            "dur": 30, 
                            "type": "note", 
                            "channel": 7
                        }
                    ]
                ], 
                [
                    57436, 
                    [
                        {
                            "pitch": 57, 
                            "t0": 57436, 
                            "v": 92, 
                            "dur": 26, 
                            "type": "note", 
                            "channel": 7
                        }
                    ]
                ], 
                [
                    57474, 
                    [
                        {
                            "pitch": 59, 
                            "t0": 57474, 
                            "v": 114, 
                            "dur": 52, 
                            "type": "note", 
                            "channel": 7
                        }
                    ]
                ], 
                [
                    57551, 
                    [
                        {
                            "pitch": 62, 
                            "t0": 57551, 
                            "v": 97, 
                            "dur": 218, 
                            "type": "note", 
                            "channel": 7
                        }
                    ]
                ], 
                [
                    58198, 
                    [
                        {
                            "pitch": 60, 
                            "t0": 58198, 
                            "v": 120, 
                            "dur": 182, 
                            "type": "note", 
                            "channel": 7
                        }
                    ]
                ], 
                [
                    58393, 
                    [
                        {
                            "pitch": 55, 
                            "t0": 58393, 
                            "v": 110, 
                            "dur": 19, 
                            "type": "note", 
                            "channel": 7
                        }
                    ]
                ], 
                [
                    58428, 
                    [
                        {
                            "pitch": 57, 
                            "t0": 58428, 
                            "v": 120, 
                            "dur": 54, 
                            "type": "note", 
                            "channel": 7
                        }
                    ]
                ], 
                [
                    58515, 
                    [
                        {
                            "pitch": 55, 
                            "t0": 58515, 
                            "v": 63, 
                            "dur": 10, 
                            "type": "note", 
                            "channel": 7
                        }
                    ]
                ], 
                [
                    58553, 
                    [
                        {
                            "pitch": 60, 
                            "t0": 58553, 
                            "v": 122, 
                            "dur": 69, 
                            "type": "note", 
                            "channel": 7
                        }
                    ]
                ], 
                [
                    58640, 
                    [
                        {
                            "pitch": 55, 
                            "t0": 58640, 
                            "v": 80, 
                            "dur": 15, 
                            "type": "note", 
                            "channel": 7
                        }
                    ]
                ], 
                [
                    58673, 
                    [
                        {
                            "pitch": 57, 
                            "t0": 58673, 
                            "v": 120, 
                            "dur": 65, 
                            "type": "note", 
                            "channel": 7
                        }
                    ]
                ], 
                [
                    58753, 
                    [
                        {
                            "pitch": 60, 
                            "t0": 58753, 
                            "v": 127, 
                            "dur": 160, 
                            "type": "note", 
                            "channel": 7
                        }
                    ]
                ], 
                [
                    58927, 
                    [
                        {
                            "pitch": 57, 
                            "t0": 58927, 
                            "v": 112, 
                            "dur": 37, 
                            "type": "note", 
                            "channel": 7
                        }
                    ]
                ], 
                [
                    59154, 
                    [
                        {
                            "pitch": 55, 
                            "t0": 59154, 
                            "v": 125, 
                            "dur": 188, 
                            "type": "note", 
                            "channel": 7
                        }
                    ]
                ], 
                [
                    59360, 
                    [
                        {
                            "pitch": 50, 
                            "t0": 59360, 
                            "v": 100, 
                            "dur": 25, 
                            "type": "note", 
                            "channel": 7
                        }
                    ]
                ], 
                [
                    59396, 
                    [
                        {
                            "pitch": 52, 
                            "t0": 59396, 
                            "v": 97, 
                            "dur": 34, 
                            "type": "note", 
                            "channel": 7
                        }
                    ]
                ], 
                [
                    59518, 
                    [
                        {
                            "pitch": 60, 
                            "t0": 59518, 
                            "v": 108, 
                            "dur": 75, 
                            "type": "note", 
                            "channel": 7
                        }
                    ]
                ], 
                [
                    59605, 
                    [
                        {
                            "pitch": 55, 
                            "t0": 59605, 
                            "v": 87, 
                            "dur": 15, 
                            "type": "note", 
                            "channel": 7
                        }
                    ]
                ], 
                [
                    59638, 
                    [
                        {
                            "pitch": 57, 
                            "t0": 59638, 
                            "v": 120, 
                            "dur": 67, 
                            "type": "note", 
                            "channel": 7
                        }
                    ]
                ], 
                [
                    59717, 
                    [
                        {
                            "pitch": 60, 
                            "t0": 59717, 
                            "v": 127, 
                            "dur": 113, 
                            "type": "note", 
                            "channel": 7
                        }
                    ]
                ], 
                [
                    59844, 
                    [
                        {
                            "pitch": 60, 
                            "t0": 59844, 
                            "v": 73, 
                            "dur": 26, 
                            "type": "note", 
                            "channel": 7
                        }
                    ]
                ], 
                [
                    59883, 
                    [
                        {
                            "pitch": 57, 
                            "t0": 59883, 
                            "v": 108, 
                            "dur": 33, 
                            "type": "note", 
                            "channel": 7
                        }
                    ]
                ], 
                [
                    60127, 
                    [
                        {
                            "pitch": 55, 
                            "t0": 60127, 
                            "v": 102, 
                            "dur": 176, 
                            "type": "note", 
                            "channel": 7
                        }
                    ]
                ], 
                [
                    60317, 
                    [
                        {
                            "pitch": 50, 
                            "t0": 60317, 
                            "v": 94, 
                            "dur": 22, 
                            "type": "note", 
                            "channel": 7
                        }
                    ]
                ], 
                [
                    60353, 
                    [
                        {
                            "pitch": 52, 
                            "t0": 60353, 
                            "v": 114, 
                            "dur": 46, 
                            "type": "note", 
                            "channel": 7
                        }
                    ]
                ], 
                [
                    60478, 
                    [
                        {
                            "pitch": 50, 
                            "t0": 60478, 
                            "v": 102, 
                            "dur": 95, 
                            "type": "note", 
                            "channel": 7
                        }
                    ]
                ], 
                [
                    60575, 
                    [
                        {
                            "pitch": 45, 
                            "t0": 60575, 
                            "v": 78, 
                            "dur": 17, 
                            "type": "note", 
                            "channel": 7
                        }
                    ]
                ], 
                [
                    60606, 
                    [
                        {
                            "pitch": 47, 
                            "t0": 60606, 
                            "v": 102, 
                            "dur": 53, 
                            "type": "note", 
                            "channel": 7
                        }
                    ]
                ], 
                [
                    60674, 
                    [
                        {
                            "pitch": 50, 
                            "t0": 60674, 
                            "v": 108, 
                            "dur": 113, 
                            "type": "note", 
                            "channel": 7
                        }
                    ]
                ], 
                [
                    60807, 
                    [
                        {
                            "pitch": 50, 
                            "t0": 60807, 
                            "v": 53, 
                            "dur": 14, 
                            "type": "note", 
                            "channel": 7
                        }
                    ]
                ], 
                [
                    60820, 
                    [
                        {
                            "pitch": 47, 
                            "t0": 60820, 
                            "v": 58, 
                            "dur": 9, 
                            "type": "note", 
                            "channel": 7
                        }
                    ]
                ], 
                [
                    60843, 
                    [
                        {
                            "pitch": 47, 
                            "t0": 60843, 
                            "v": 68, 
                            "dur": 40, 
                            "type": "note", 
                            "channel": 7
                        }
                    ]
                ], 
                [
                    60845, 
                    [
                        {
                            "pitch": 48, 
                            "t0": 60845, 
                            "v": 70, 
                            "dur": 19, 
                            "type": "note", 
                            "channel": 7
                        }
                    ]
                ], 
                [
                    60962, 
                    [
                        {
                            "pitch": 43, 
                            "t0": 60962, 
                            "v": 68, 
                            "dur": 31, 
                            "type": "note", 
                            "channel": 7
                        }
                    ]
                ], 
                [
                    61075, 
                    [
                        {
                            "pitch": 55, 
                            "t0": 61075, 
                            "v": 112, 
                            "dur": 65, 
                            "type": "note", 
                            "channel": 7
                        }
                    ]
                ], 
                [
                    61198, 
                    [
                        {
                            "pitch": 52, 
                            "t0": 61198, 
                            "v": 106, 
                            "dur": 58, 
                            "type": "note", 
                            "channel": 7
                        }
                    ]
                ], 
                [
                    61271, 
                    [
                        {
                            "pitch": 50, 
                            "t0": 61271, 
                            "v": 88, 
                            "dur": 17, 
                            "type": "note", 
                            "channel": 7
                        }
                    ]
                ], 
                [
                    61313, 
                    [
                        {
                            "pitch": 45, 
                            "t0": 61313, 
                            "v": 125, 
                            "dur": 113, 
                            "type": "note", 
                            "channel": 7
                        }
                    ]
                ], 
                [
                    61436, 
                    [
                        {
                            "pitch": 43, 
                            "t0": 61436, 
                            "v": 114, 
                            "dur": 47, 
                            "type": "note", 
                            "channel": 7
                        }
                    ]
                ], 
                [
                    61448, 
                    [
                        {
                            "pitch": 48, 
                            "t0": 61448, 
                            "v": 61, 
                            "dur": 5, 
                            "type": "note", 
                            "channel": 7
                        }
                    ]
                ], 
                [
                    62839, 
                    [
                        {
                            "pitch": 49, 
                            "t0": 62839, 
                            "v": 89, 
                            "dur": 22, 
                            "type": "note", 
                            "channel": 7
                        }
                    ]
                ], 
                [
                    62872, 
                    [
                        {
                            "pitch": 43, 
                            "t0": 62872, 
                            "v": 100, 
                            "dur": 57, 
                            "type": "note", 
                            "channel": 7
                        }, 
                        {
                            "pitch": 50, 
                            "t0": 62872, 
                            "v": 110, 
                            "dur": 61, 
                            "type": "note", 
                            "channel": 7
                        }
                    ]
                ], 
                [
                    62950, 
                    [
                        {
                            "pitch": 50, 
                            "t0": 62950, 
                            "v": 71, 
                            "dur": 25, 
                            "type": "note", 
                            "channel": 7
                        }
                    ]
                ], 
                [
                    62992, 
                    [
                        {
                            "pitch": 52, 
                            "t0": 62992, 
                            "v": 92, 
                            "dur": 47, 
                            "type": "note", 
                            "channel": 7
                        }
                    ]
                ], 
                [
                    62993, 
                    [
                        {
                            "pitch": 43, 
                            "t0": 62993, 
                            "v": 92, 
                            "dur": 40, 
                            "type": "note", 
                            "channel": 7
                        }
                    ]
                ], 
                [
                    63115, 
                    [
                        {
                            "pitch": 53, 
                            "t0": 63115, 
                            "v": 97, 
                            "dur": 44, 
                            "type": "note", 
                            "channel": 7
                        }
                    ]
                ], 
                [
                    63116, 
                    [
                        {
                            "pitch": 43, 
                            "t0": 63116, 
                            "v": 80, 
                            "dur": 41, 
                            "type": "note", 
                            "channel": 7
                        }
                    ]
                ], 
                [
                    63235, 
                    [
                        {
                            "pitch": 52, 
                            "t0": 63235, 
                            "v": 108, 
                            "dur": 46, 
                            "type": "note", 
                            "channel": 7
                        }, 
                        {
                            "pitch": 43, 
                            "t0": 63235, 
                            "v": 108, 
                            "dur": 47, 
                            "type": "note", 
                            "channel": 7
                        }
                    ]
                ], 
                [
                    63303, 
                    [
                        {
                            "pitch": 43, 
                            "t0": 63303, 
                            "v": 85, 
                            "dur": 103, 
                            "type": "note", 
                            "channel": 7
                        }, 
                        {
                            "pitch": 50, 
                            "t0": 63303, 
                            "v": 114, 
                            "dur": 115, 
                            "type": "note", 
                            "channel": 7
                        }
                    ]
                ], 
                [
                    63436, 
                    [
                        {
                            "pitch": 43, 
                            "t0": 63436, 
                            "v": 73, 
                            "dur": 20, 
                            "type": "note", 
                            "channel": 7
                        }, 
                        {
                            "pitch": 50, 
                            "t0": 63436, 
                            "v": 81, 
                            "dur": 23, 
                            "type": "note", 
                            "channel": 7
                        }
                    ]
                ], 
                [
                    63474, 
                    [
                        {
                            "pitch": 43, 
                            "t0": 63474, 
                            "v": 88, 
                            "dur": 52, 
                            "type": "note", 
                            "channel": 7
                        }, 
                        {
                            "pitch": 52, 
                            "t0": 63474, 
                            "v": 100, 
                            "dur": 58, 
                            "type": "note", 
                            "channel": 7
                        }
                    ]
                ], 
                [
                    63552, 
                    [
                        {
                            "pitch": 43, 
                            "t0": 63552, 
                            "v": 85, 
                            "dur": 94, 
                            "type": "note", 
                            "channel": 7
                        }, 
                        {
                            "pitch": 50, 
                            "t0": 63552, 
                            "v": 110, 
                            "dur": 107, 
                            "type": "note", 
                            "channel": 7
                        }
                    ]
                ], 
                [
                    63675, 
                    [
                        {
                            "pitch": 43, 
                            "t0": 63675, 
                            "v": 80, 
                            "dur": 22, 
                            "type": "note", 
                            "channel": 7
                        }, 
                        {
                            "pitch": 50, 
                            "t0": 63675, 
                            "v": 80, 
                            "dur": 24, 
                            "type": "note", 
                            "channel": 7
                        }
                    ]
                ], 
                [
                    63713, 
                    [
                        {
                            "pitch": 52, 
                            "t0": 63713, 
                            "v": 95, 
                            "dur": 62, 
                            "type": "note", 
                            "channel": 7
                        }
                    ]
                ], 
                [
                    63715, 
                    [
                        {
                            "pitch": 43, 
                            "t0": 63715, 
                            "v": 87, 
                            "dur": 52, 
                            "type": "note", 
                            "channel": 7
                        }
                    ]
                ], 
                [
                    63796, 
                    [
                        {
                            "pitch": 43, 
                            "t0": 63796, 
                            "v": 75, 
                            "dur": 23, 
                            "type": "note", 
                            "channel": 7
                        }, 
                        {
                            "pitch": 50, 
                            "t0": 63796, 
                            "v": 100, 
                            "dur": 26, 
                            "type": "note", 
                            "channel": 7
                        }
                    ]
                ], 
                [
                    63832, 
                    [
                        {
                            "pitch": 43, 
                            "t0": 63832, 
                            "v": 73, 
                            "dur": 61, 
                            "type": "note", 
                            "channel": 7
                        }
                    ]
                ], 
                [
                    63834, 
                    [
                        {
                            "pitch": 50, 
                            "t0": 63834, 
                            "v": 92, 
                            "dur": 65, 
                            "type": "note", 
                            "channel": 7
                        }
                    ]
                ], 
                [
                    63916, 
                    [
                        {
                            "pitch": 43, 
                            "t0": 63916, 
                            "v": 68, 
                            "dur": 22, 
                            "type": "note", 
                            "channel": 7
                        }, 
                        {
                            "pitch": 50, 
                            "t0": 63916, 
                            "v": 81, 
                            "dur": 26, 
                            "type": "note", 
                            "channel": 7
                        }
                    ]
                ], 
                [
                    63956, 
                    [
                        {
                            "pitch": 52, 
                            "t0": 63956, 
                            "v": 95, 
                            "dur": 58, 
                            "type": "note", 
                            "channel": 7
                        }
                    ]
                ], 
                [
                    63957, 
                    [
                        {
                            "pitch": 43, 
                            "t0": 63957, 
                            "v": 84, 
                            "dur": 52, 
                            "type": "note", 
                            "channel": 7
                        }
                    ]
                ], 
                [
                    64036, 
                    [
                        {
                            "pitch": 50, 
                            "t0": 64036, 
                            "v": 94, 
                            "dur": 33, 
                            "type": "note", 
                            "channel": 7
                        }
                    ]
                ], 
                [
                    64037, 
                    [
                        {
                            "pitch": 43, 
                            "t0": 64037, 
                            "v": 76, 
                            "dur": 23, 
                            "type": "note", 
                            "channel": 7
                        }
                    ]
                ], 
                [
                    64074, 
                    [
                        {
                            "pitch": 43, 
                            "t0": 64074, 
                            "v": 74, 
                            "dur": 58, 
                            "type": "note", 
                            "channel": 7
                        }, 
                        {
                            "pitch": 50, 
                            "t0": 64074, 
                            "v": 63, 
                            "dur": 73, 
                            "type": "note", 
                            "channel": 7
                        }
                    ]
                ], 
                [
                    64162, 
                    [
                        {
                            "pitch": 50, 
                            "t0": 64162, 
                            "v": 71, 
                            "dur": 26, 
                            "type": "note", 
                            "channel": 7
                        }
                    ]
                ], 
                [
                    64163, 
                    [
                        {
                            "pitch": 43, 
                            "t0": 64163, 
                            "v": 61, 
                            "dur": 22, 
                            "type": "note", 
                            "channel": 7
                        }
                    ]
                ], 
                [
                    64200, 
                    [
                        {
                            "pitch": 52, 
                            "t0": 64200, 
                            "v": 94, 
                            "dur": 62, 
                            "type": "note", 
                            "channel": 7
                        }
                    ]
                ], 
                [
                    64202, 
                    [
                        {
                            "pitch": 43, 
                            "t0": 64202, 
                            "v": 78, 
                            "dur": 53, 
                            "type": "note", 
                            "channel": 7
                        }
                    ]
                ], 
                [
                    64277, 
                    [
                        {
                            "pitch": 43, 
                            "t0": 64277, 
                            "v": 76, 
                            "dur": 23, 
                            "type": "note", 
                            "channel": 7
                        }, 
                        {
                            "pitch": 50, 
                            "t0": 64277, 
                            "v": 87, 
                            "dur": 28, 
                            "type": "note", 
                            "channel": 7
                        }
                    ]
                ], 
                [
                    64312, 
                    [
                        {
                            "pitch": 43, 
                            "t0": 64312, 
                            "v": 68, 
                            "dur": 52, 
                            "type": "note", 
                            "channel": 7
                        }, 
                        {
                            "pitch": 50, 
                            "t0": 64312, 
                            "v": 68, 
                            "dur": 76, 
                            "type": "note", 
                            "channel": 7
                        }
                    ]
                ], 
                [
                    64398, 
                    [
                        {
                            "pitch": 43, 
                            "t0": 64398, 
                            "v": 76, 
                            "dur": 23, 
                            "type": "note", 
                            "channel": 7
                        }
                    ]
                ], 
                [
                    64402, 
                    [
                        {
                            "pitch": 50, 
                            "t0": 64402, 
                            "v": 80, 
                            "dur": 21, 
                            "type": "note", 
                            "channel": 7
                        }
                    ]
                ], 
                [
                    64437, 
                    [
                        {
                            "pitch": 47, 
                            "t0": 64437, 
                            "v": 114, 
                            "dur": 67, 
                            "type": "note", 
                            "channel": 7
                        }
                    ]
                ], 
                [
                    64519, 
                    [
                        {
                            "pitch": 47, 
                            "t0": 64519, 
                            "v": 92, 
                            "dur": 26, 
                            "type": "note", 
                            "channel": 7
                        }
                    ]
                ], 
                [
                    64553, 
                    [
                        {
                            "pitch": 48, 
                            "t0": 64553, 
                            "v": 104, 
                            "dur": 68, 
                            "type": "note", 
                            "channel": 7
                        }
                    ]
                ], 
                [
                    64635, 
                    [
                        {
                            "pitch": 48, 
                            "t0": 64635, 
                            "v": 91, 
                            "dur": 23, 
                            "type": "note", 
                            "channel": 7
                        }
                    ]
                ], 
                [
                    64673, 
                    [
                        {
                            "pitch": 48, 
                            "t0": 64673, 
                            "v": 64, 
                            "dur": 15, 
                            "type": "note", 
                            "channel": 7
                        }
                    ]
                ], 
                [
                    64675, 
                    [
                        {
                            "pitch": 49, 
                            "t0": 64675, 
                            "v": 91, 
                            "dur": 36, 
                            "type": "note", 
                            "channel": 7
                        }
                    ]
                ], 
                [
                    64875, 
                    [
                        {
                            "pitch": 54, 
                            "t0": 64875, 
                            "v": 104, 
                            "dur": 22, 
                            "type": "note", 
                            "channel": 7
                        }
                    ]
                ], 
                [
                    64909, 
                    [
                        {
                            "pitch": 62, 
                            "t0": 64909, 
                            "v": 110, 
                            "dur": 68, 
                            "type": "note", 
                            "channel": 7
                        }
                    ]
                ], 
                [
                    64999, 
                    [
                        {
                            "pitch": 59, 
                            "t0": 64999, 
                            "v": 114, 
                            "dur": 39, 
                            "type": "note", 
                            "channel": 7
                        }
                    ]
                ], 
                [
                    65034, 
                    [
                        {
                            "pitch": 57, 
                            "t0": 65034, 
                            "v": 108, 
                            "dur": 34, 
                            "type": "note", 
                            "channel": 7
                        }
                    ]
                ], 
                [
                    65114, 
                    [
                        {
                            "pitch": 52, 
                            "t0": 65114, 
                            "v": 104, 
                            "dur": 121, 
                            "type": "note", 
                            "channel": 7
                        }
                    ]
                ], 
                [
                    65242, 
                    [
                        {
                            "pitch": 50, 
                            "t0": 65242, 
                            "v": 127, 
                            "dur": 181, 
                            "type": "note", 
                            "channel": 7
                        }
                    ]
                ], 
                [
                    65414, 
                    [
                        {
                            "pitch": 52, 
                            "t0": 65414, 
                            "v": 106, 
                            "dur": 77, 
                            "type": "note", 
                            "channel": 7
                        }
                    ]
                ], 
                [
                    65521, 
                    [
                        {
                            "pitch": 53, 
                            "t0": 65521, 
                            "v": 117, 
                            "dur": 50, 
                            "type": "note", 
                            "channel": 7
                        }
                    ]
                ], 
                [
                    65640, 
                    [
                        {
                            "pitch": 54, 
                            "t0": 65640, 
                            "v": 95, 
                            "dur": 49, 
                            "type": "note", 
                            "channel": 7
                        }
                    ]
                ], 
                [
                    65722, 
                    [
                        {
                            "pitch": 55, 
                            "t0": 65722, 
                            "v": 71, 
                            "dur": 27, 
                            "type": "note", 
                            "channel": 7
                        }
                    ]
                ], 
                [
                    65759, 
                    [
                        {
                            "pitch": 43, 
                            "t0": 65759, 
                            "v": 88, 
                            "dur": 60, 
                            "type": "note", 
                            "channel": 7
                        }
                    ]
                ], 
                [
                    65843, 
                    [
                        {
                            "pitch": 43, 
                            "t0": 65843, 
                            "v": 97, 
                            "dur": 26, 
                            "type": "note", 
                            "channel": 7
                        }
                    ]
                ], 
                [
                    65880, 
                    [
                        {
                            "pitch": 45, 
                            "t0": 65880, 
                            "v": 120, 
                            "dur": 68, 
                            "type": "note", 
                            "channel": 7
                        }
                    ]
                ], 
                [
                    66003, 
                    [
                        {
                            "pitch": 46, 
                            "t0": 66003, 
                            "v": 127, 
                            "dur": 63, 
                            "type": "note", 
                            "channel": 7
                        }
                    ]
                ], 
                [
                    66124, 
                    [
                        {
                            "pitch": 47, 
                            "t0": 66124, 
                            "v": 127, 
                            "dur": 66, 
                            "type": "note", 
                            "channel": 7
                        }
                    ]
                ], 
                [
                    66205, 
                    [
                        {
                            "pitch": 48, 
                            "t0": 66205, 
                            "v": 110, 
                            "dur": 63, 
                            "type": "note", 
                            "channel": 7
                        }
                    ]
                ], 
                [
                    66281, 
                    [
                        {
                            "pitch": 48, 
                            "t0": 66281, 
                            "v": 51, 
                            "dur": 18, 
                            "type": "note", 
                            "channel": 7
                        }
                    ]
                ], 
                [
                    66328, 
                    [
                        {
                            "pitch": 48, 
                            "t0": 66328, 
                            "v": 80, 
                            "dur": 30, 
                            "type": "note", 
                            "channel": 7
                        }
                    ]
                ], 
                [
                    66360, 
                    [
                        {
                            "pitch": 57, 
                            "t0": 66360, 
                            "v": 86, 
                            "dur": 86, 
                            "type": "note", 
                            "channel": 7
                        }
                    ]
                ], 
                [
                    66470, 
                    [
                        {
                            "pitch": 55, 
                            "t0": 66470, 
                            "v": 112, 
                            "dur": 113, 
                            "type": "note", 
                            "channel": 7
                        }
                    ]
                ], 
                [
                    66596, 
                    [
                        {
                            "pitch": 52, 
                            "t0": 66596, 
                            "v": 114, 
                            "dur": 81, 
                            "type": "note", 
                            "channel": 7
                        }
                    ]
                ], 
                [
                    66686, 
                    [
                        {
                            "pitch": 55, 
                            "t0": 66686, 
                            "v": 86, 
                            "dur": 58, 
                            "type": "note", 
                            "channel": 7
                        }
                    ]
                ], 
                [
                    66724, 
                    [
                        {
                            "pitch": 43, 
                            "t0": 66724, 
                            "v": 104, 
                            "dur": 66, 
                            "type": "note", 
                            "channel": 7
                        }
                    ]
                ], 
                [
                    66810, 
                    [
                        {
                            "pitch": 43, 
                            "t0": 66810, 
                            "v": 87, 
                            "dur": 45, 
                            "type": "note", 
                            "channel": 7
                        }
                    ]
                ], 
                [
                    66845, 
                    [
                        {
                            "pitch": 45, 
                            "t0": 66845, 
                            "v": 114, 
                            "dur": 96, 
                            "type": "note", 
                            "channel": 7
                        }
                    ]
                ], 
                [
                    66959, 
                    [
                        {
                            "pitch": 46, 
                            "t0": 66959, 
                            "v": 97, 
                            "dur": 101, 
                            "type": "note", 
                            "channel": 7
                        }
                    ]
                ], 
                [
                    67083, 
                    [
                        {
                            "pitch": 47, 
                            "t0": 67083, 
                            "v": 117, 
                            "dur": 64, 
                            "type": "note", 
                            "channel": 7
                        }
                    ]
                ], 
                [
                    67160, 
                    [
                        {
                            "pitch": 48, 
                            "t0": 67160, 
                            "v": 100, 
                            "dur": 58, 
                            "type": "note", 
                            "channel": 7
                        }
                    ]
                ], 
                [
                    67222, 
                    [
                        {
                            "pitch": 48, 
                            "t0": 67222, 
                            "v": 59, 
                            "dur": 84, 
                            "type": "note", 
                            "channel": 7
                        }
                    ]
                ], 
                [
                    67318, 
                    [
                        {
                            "pitch": 57, 
                            "t0": 67318, 
                            "v": 117, 
                            "dur": 102, 
                            "type": "note", 
                            "channel": 7
                        }
                    ]
                ], 
                [
                    67440, 
                    [
                        {
                            "pitch": 55, 
                            "t0": 67440, 
                            "v": 117, 
                            "dur": 106, 
                            "type": "note", 
                            "channel": 7
                        }
                    ]
                ], 
                [
                    67563, 
                    [
                        {
                            "pitch": 52, 
                            "t0": 67563, 
                            "v": 106, 
                            "dur": 34, 
                            "type": "note", 
                            "channel": 7
                        }
                    ]
                ], 
                [
                    67596, 
                    [
                        {
                            "pitch": 50, 
                            "t0": 67596, 
                            "v": 90, 
                            "dur": 21, 
                            "type": "note", 
                            "channel": 7
                        }
                    ]
                ], 
                [
                    67637, 
                    [
                        {
                            "pitch": 47, 
                            "t0": 67637, 
                            "v": 112, 
                            "dur": 37, 
                            "type": "note", 
                            "channel": 7
                        }
                    ]
                ], 
                [
                    67675, 
                    [
                        {
                            "pitch": 43, 
                            "t0": 67675, 
                            "v": 104, 
                            "dur": 74, 
                            "type": "note", 
                            "channel": 7
                        }
                    ]
                ], 
                [
                    67763, 
                    [
                        {
                            "pitch": 43, 
                            "t0": 67763, 
                            "v": 98, 
                            "dur": 27, 
                            "type": "note", 
                            "channel": 7
                        }
                    ]
                ], 
                [
                    67798, 
                    [
                        {
                            "pitch": 47, 
                            "t0": 67798, 
                            "v": 108, 
                            "dur": 65, 
                            "type": "note", 
                            "channel": 7
                        }
                    ]
                ], 
                [
                    67876, 
                    [
                        {
                            "pitch": 47, 
                            "t0": 67876, 
                            "v": 97, 
                            "dur": 23, 
                            "type": "note", 
                            "channel": 7
                        }
                    ]
                ], 
                [
                    67911, 
                    [
                        {
                            "pitch": 48, 
                            "t0": 67911, 
                            "v": 104, 
                            "dur": 68, 
                            "type": "note", 
                            "channel": 7
                        }
                    ]
                ], 
                [
                    67997, 
                    [
                        {
                            "pitch": 48, 
                            "t0": 67997, 
                            "v": 95, 
                            "dur": 21, 
                            "type": "note", 
                            "channel": 7
                        }
                    ]
                ], 
                [
                    67998, 
                    [
                        {
                            "pitch": 49, 
                            "t0": 67998, 
                            "v": 70, 
                            "dur": 14, 
                            "type": "note", 
                            "channel": 7
                        }
                    ]
                ], 
                [
                    68032, 
                    [
                        {
                            "pitch": 49, 
                            "t0": 68032, 
                            "v": 91, 
                            "dur": 69, 
                            "type": "note", 
                            "channel": 7
                        }
                    ]
                ], 
                [
                    68119, 
                    [
                        {
                            "pitch": 49, 
                            "t0": 68119, 
                            "v": 79, 
                            "dur": 21, 
                            "type": "note", 
                            "channel": 7
                        }
                    ]
                ], 
                [
                    68155, 
                    [
                        {
                            "pitch": 50, 
                            "t0": 68155, 
                            "v": 114, 
                            "dur": 65, 
                            "type": "note", 
                            "channel": 7
                        }
                    ]
                ], 
                [
                    68236, 
                    [
                        {
                            "pitch": 50, 
                            "t0": 68236, 
                            "v": 84, 
                            "dur": 25, 
                            "type": "note", 
                            "channel": 7
                        }
                    ]
                ], 
                [
                    68273, 
                    [
                        {
                            "pitch": 48, 
                            "t0": 68273, 
                            "v": 108, 
                            "dur": 64, 
                            "type": "note", 
                            "channel": 7
                        }
                    ]
                ], 
                [
                    68355, 
                    [
                        {
                            "pitch": 48, 
                            "t0": 68355, 
                            "v": 80, 
                            "dur": 27, 
                            "type": "note", 
                            "channel": 7
                        }
                    ]
                ], 
                [
                    68397, 
                    [
                        {
                            "pitch": 47, 
                            "t0": 68397, 
                            "v": 122, 
                            "dur": 68, 
                            "type": "note", 
                            "channel": 7
                        }
                    ]
                ], 
                [
                    68480, 
                    [
                        {
                            "pitch": 47, 
                            "t0": 68480, 
                            "v": 74, 
                            "dur": 22, 
                            "type": "note", 
                            "channel": 7
                        }
                    ]
                ], 
                [
                    68519, 
                    [
                        {
                            "pitch": 45, 
                            "t0": 68519, 
                            "v": 114, 
                            "dur": 59, 
                            "type": "note", 
                            "channel": 7
                        }
                    ]
                ], 
                [
                    68591, 
                    [
                        {
                            "pitch": 45, 
                            "t0": 68591, 
                            "v": 76, 
                            "dur": 28, 
                            "type": "note", 
                            "channel": 7
                        }
                    ]
                ], 
                [
                    68633, 
                    [
                        {
                            "pitch": 43, 
                            "t0": 68633, 
                            "v": 106, 
                            "dur": 71, 
                            "type": "note", 
                            "channel": 7
                        }
                    ]
                ], 
                [
                    68722, 
                    [
                        {
                            "pitch": 43, 
                            "t0": 68722, 
                            "v": 95, 
                            "dur": 26, 
                            "type": "note", 
                            "channel": 7
                        }
                    ]
                ], 
                [
                    68758, 
                    [
                        {
                            "pitch": 45, 
                            "t0": 68758, 
                            "v": 104, 
                            "dur": 70, 
                            "type": "note", 
                            "channel": 7
                        }
                    ]
                ], 
                [
                    68842, 
                    [
                        {
                            "pitch": 45, 
                            "t0": 68842, 
                            "v": 87, 
                            "dur": 26, 
                            "type": "note", 
                            "channel": 7
                        }
                    ]
                ], 
                [
                    68879, 
                    [
                        {
                            "pitch": 46, 
                            "t0": 68879, 
                            "v": 119, 
                            "dur": 58, 
                            "type": "note", 
                            "channel": 7
                        }
                    ]
                ], 
                [
                    68960, 
                    [
                        {
                            "pitch": 46, 
                            "t0": 68960, 
                            "v": 61, 
                            "dur": 25, 
                            "type": "note", 
                            "channel": 7
                        }
                    ]
                ], 
                [
                    69002, 
                    [
                        {
                            "pitch": 47, 
                            "t0": 69002, 
                            "v": 120, 
                            "dur": 62, 
                            "type": "note", 
                            "channel": 7
                        }
                    ]
                ], 
                [
                    69075, 
                    [
                        {
                            "pitch": 47, 
                            "t0": 69075, 
                            "v": 65, 
                            "dur": 48, 
                            "type": "note", 
                            "channel": 7
                        }
                    ]
                ], 
                [
                    69079, 
                    [
                        {
                            "pitch": 48, 
                            "t0": 69079, 
                            "v": 73, 
                            "dur": 43, 
                            "type": "note", 
                            "channel": 7
                        }
                    ]
                ], 
                [
                    69210, 
                    [
                        {
                            "pitch": 48, 
                            "t0": 69210, 
                            "v": 94, 
                            "dur": 21, 
                            "type": "note", 
                            "channel": 7
                        }
                    ]
                ], 
                [
                    69238, 
                    [
                        {
                            "pitch": 57, 
                            "t0": 69238, 
                            "v": 100, 
                            "dur": 102, 
                            "type": "note", 
                            "channel": 7
                        }
                    ]
                ], 
                [
                    69242, 
                    [
                        {
                            "pitch": 48, 
                            "t0": 69242, 
                            "v": 77, 
                            "dur": 17, 
                            "type": "note", 
                            "channel": 7
                        }
                    ]
                ], 
                [
                    69360, 
                    [
                        {
                            "pitch": 55, 
                            "t0": 69360, 
                            "v": 122, 
                            "dur": 107, 
                            "type": "note", 
                            "channel": 7
                        }
                    ]
                ], 
                [
                    69480, 
                    [
                        {
                            "pitch": 52, 
                            "t0": 69480, 
                            "v": 112, 
                            "dur": 91, 
                            "type": "note", 
                            "channel": 7
                        }
                    ]
                ], 
                [
                    69562, 
                    [
                        {
                            "pitch": 50, 
                            "t0": 69562, 
                            "v": 84, 
                            "dur": 20, 
                            "type": "note", 
                            "channel": 7
                        }
                    ]
                ], 
                [
                    69597, 
                    [
                        {
                            "pitch": 43, 
                            "t0": 69597, 
                            "v": 102, 
                            "dur": 65, 
                            "type": "note", 
                            "channel": 7
                        }
                    ]
                ], 
                [
                    69684, 
                    [
                        {
                            "pitch": 43, 
                            "t0": 69684, 
                            "v": 87, 
                            "dur": 27, 
                            "type": "note", 
                            "channel": 7
                        }
                    ]
                ], 
                [
                    69717, 
                    [
                        {
                            "pitch": 47, 
                            "t0": 69717, 
                            "v": 108, 
                            "dur": 68, 
                            "type": "note", 
                            "channel": 7
                        }
                    ]
                ], 
                [
                    69799, 
                    [
                        {
                            "pitch": 47, 
                            "t0": 69799, 
                            "v": 83, 
                            "dur": 23, 
                            "type": "note", 
                            "channel": 7
                        }
                    ]
                ], 
                [
                    69834, 
                    [
                        {
                            "pitch": 48, 
                            "t0": 69834, 
                            "v": 98, 
                            "dur": 64, 
                            "type": "note", 
                            "channel": 7
                        }
                    ]
                ], 
                [
                    69919, 
                    [
                        {
                            "pitch": 48, 
                            "t0": 69919, 
                            "v": 94, 
                            "dur": 27, 
                            "type": "note", 
                            "channel": 7
                        }
                    ]
                ], 
                [
                    69959, 
                    [
                        {
                            "pitch": 49, 
                            "t0": 69959, 
                            "v": 93, 
                            "dur": 56, 
                            "type": "note", 
                            "channel": 7
                        }
                    ]
                ], 
                [
                    70039, 
                    [
                        {
                            "pitch": 49, 
                            "t0": 70039, 
                            "v": 81, 
                            "dur": 24, 
                            "type": "note", 
                            "channel": 7
                        }
                    ]
                ], 
                [
                    70076, 
                    [
                        {
                            "pitch": 50, 
                            "t0": 70076, 
                            "v": 106, 
                            "dur": 62, 
                            "type": "note", 
                            "channel": 7
                        }
                    ]
                ], 
                [
                    70154, 
                    [
                        {
                            "pitch": 50, 
                            "t0": 70154, 
                            "v": 66, 
                            "dur": 26, 
                            "type": "note", 
                            "channel": 7
                        }
                    ]
                ], 
                [
                    70194, 
                    [
                        {
                            "pitch": 48, 
                            "t0": 70194, 
                            "v": 102, 
                            "dur": 66, 
                            "type": "note", 
                            "channel": 7
                        }
                    ]
                ], 
                [
                    70275, 
                    [
                        {
                            "pitch": 48, 
                            "t0": 70275, 
                            "v": 85, 
                            "dur": 45, 
                            "type": "note", 
                            "channel": 7
                        }
                    ]
                ], 
                [
                    70318, 
                    [
                        {
                            "pitch": 47, 
                            "t0": 70318, 
                            "v": 114, 
                            "dur": 64, 
                            "type": "note", 
                            "channel": 7
                        }
                    ]
                ], 
                [
                    70394, 
                    [
                        {
                            "pitch": 47, 
                            "t0": 70394, 
                            "v": 94, 
                            "dur": 24, 
                            "type": "note", 
                            "channel": 7
                        }
                    ]
                ], 
                [
                    70435, 
                    [
                        {
                            "pitch": 45, 
                            "t0": 70435, 
                            "v": 110, 
                            "dur": 76, 
                            "type": "note", 
                            "channel": 7
                        }
                    ]
                ], 
                [
                    70565, 
                    [
                        {
                            "pitch": 43, 
                            "t0": 70565, 
                            "v": 91, 
                            "dur": 93, 
                            "type": "note", 
                            "channel": 7
                        }
                    ]
                ], 
                [
                    70679, 
                    [
                        {
                            "pitch": 55, 
                            "t0": 70679, 
                            "v": 108, 
                            "dur": 121, 
                            "type": "note", 
                            "channel": 7
                        }
                    ]
                ], 
                [
                    70803, 
                    [
                        {
                            "pitch": 52, 
                            "t0": 70803, 
                            "v": 70, 
                            "dur": 63, 
                            "type": "note", 
                            "channel": 7
                        }
                    ]
                ], 
                [
                    70876, 
                    [
                        {
                            "pitch": 50, 
                            "t0": 70876, 
                            "v": 80, 
                            "dur": 22, 
                            "type": "note", 
                            "channel": 7
                        }
                    ]
                ], 
                [
                    70912, 
                    [
                        {
                            "pitch": 52, 
                            "t0": 70912, 
                            "v": 90, 
                            "dur": 71, 
                            "type": "note", 
                            "channel": 7
                        }
                    ]
                ], 
                [
                    71040, 
                    [
                        {
                            "pitch": 55, 
                            "t0": 71040, 
                            "v": 98, 
                            "dur": 43, 
                            "type": "note", 
                            "channel": 7
                        }
                    ]
                ], 
                [
                    71294, 
                    [
                        {
                            "pitch": 50, 
                            "t0": 71294, 
                            "v": 106, 
                            "dur": 1808, 
                            "type": "note", 
                            "channel": 7
                        }, 
                        {
                            "pitch": 55, 
                            "t0": 71294, 
                            "v": 100, 
                            "dur": 1810, 
                            "type": "note", 
                            "channel": 7
                        }
                    ]
                ], 
                [
                    71295, 
                    [
                        {
                            "pitch": 43, 
                            "t0": 71295, 
                            "v": 97, 
                            "dur": 1809, 
                            "type": "note", 
                            "channel": 7
                        }
                    ]
                ]
            ], 
            "instruments": [
                28
            ], 
            "tMax": 73104, 
            "channels": [
                7
            ], 
            "instrument": 28, 
            "numNotes": 955, 
            "type": "TrackObj"
        }, 
        {
            "trackName": "ch13 jazzguitar", 
            "seq": [
                [
                    0, 
                    [
                        {
                            "instrument": 26, 
                            "type": "programChange", 
                            "t0": 0, 
                            "channel": 12
                        }
                    ]
                ], 
                [
                    11162, 
                    [
                        {
                            "instrument": 26, 
                            "type": "programChange", 
                            "t0": 11162, 
                            "channel": 12
                        }, 
                        {
                            "pitch": 64, 
                            "t0": 11162, 
                            "v": 84, 
                            "dur": 71, 
                            "type": "note", 
                            "channel": 12
                        }
                    ]
                ], 
                [
                    11235, 
                    [
                        {
                            "pitch": 62, 
                            "t0": 11235, 
                            "v": 66, 
                            "dur": 38, 
                            "type": "note", 
                            "channel": 12
                        }
                    ]
                ], 
                [
                    11279, 
                    [
                        {
                            "pitch": 64, 
                            "t0": 11279, 
                            "v": 77, 
                            "dur": 59, 
                            "type": "note", 
                            "channel": 12
                        }
                    ]
                ], 
                [
                    11357, 
                    [
                        {
                            "pitch": 62, 
                            "t0": 11357, 
                            "v": 80, 
                            "dur": 24, 
                            "type": "note", 
                            "channel": 12
                        }
                    ]
                ], 
                [
                    11637, 
                    [
                        {
                            "pitch": 76, 
                            "t0": 11637, 
                            "v": 77, 
                            "dur": 76, 
                            "type": "note", 
                            "channel": 12
                        }
                    ]
                ], 
                [
                    11716, 
                    [
                        {
                            "pitch": 74, 
                            "t0": 11716, 
                            "v": 66, 
                            "dur": 34, 
                            "type": "note", 
                            "channel": 12
                        }
                    ]
                ], 
                [
                    11763, 
                    [
                        {
                            "pitch": 76, 
                            "t0": 11763, 
                            "v": 66, 
                            "dur": 68, 
                            "type": "note", 
                            "channel": 12
                        }
                    ]
                ], 
                [
                    11838, 
                    [
                        {
                            "pitch": 74, 
                            "t0": 11838, 
                            "v": 70, 
                            "dur": 153, 
                            "type": "note", 
                            "channel": 12
                        }
                    ]
                ], 
                [
                    11996, 
                    [
                        {
                            "pitch": 76, 
                            "t0": 11996, 
                            "v": 73, 
                            "dur": 72, 
                            "type": "note", 
                            "channel": 12
                        }
                    ]
                ], 
                [
                    12076, 
                    [
                        {
                            "pitch": 79, 
                            "t0": 12076, 
                            "v": 69, 
                            "dur": 749, 
                            "type": "note", 
                            "channel": 12
                        }
                    ]
                ], 
                [
                    12840, 
                    [
                        {
                            "pitch": 76, 
                            "t0": 12840, 
                            "v": 61, 
                            "dur": 19, 
                            "type": "note", 
                            "channel": 12
                        }
                    ]
                ], 
                [
                    13553, 
                    [
                        {
                            "pitch": 69, 
                            "t0": 13553, 
                            "v": 88, 
                            "dur": 55, 
                            "type": "note", 
                            "channel": 12
                        }
                    ]
                ], 
                [
                    13627, 
                    [
                        {
                            "pitch": 67, 
                            "t0": 13627, 
                            "v": 76, 
                            "dur": 34, 
                            "type": "note", 
                            "channel": 12
                        }
                    ]
                ], 
                [
                    13669, 
                    [
                        {
                            "pitch": 69, 
                            "t0": 13669, 
                            "v": 70, 
                            "dur": 76, 
                            "type": "note", 
                            "channel": 12
                        }
                    ]
                ], 
                [
                    13761, 
                    [
                        {
                            "pitch": 67, 
                            "t0": 13761, 
                            "v": 70, 
                            "dur": 16, 
                            "type": "note", 
                            "channel": 12
                        }
                    ]
                ], 
                [
                    13795, 
                    [
                        {
                            "pitch": 64, 
                            "t0": 13795, 
                            "v": 36, 
                            "dur": 30, 
                            "type": "note", 
                            "channel": 12
                        }
                    ]
                ], 
                [
                    18724, 
                    [
                        {
                            "pitch": 69, 
                            "t0": 18724, 
                            "v": 90, 
                            "dur": 58, 
                            "type": "note", 
                            "channel": 12
                        }
                    ]
                ], 
                [
                    18767, 
                    [
                        {
                            "pitch": 78, 
                            "t0": 18767, 
                            "v": 87, 
                            "dur": 42, 
                            "type": "note", 
                            "channel": 12
                        }
                    ]
                ], 
                [
                    18803, 
                    [
                        {
                            "pitch": 69, 
                            "t0": 18803, 
                            "v": 91, 
                            "dur": 49, 
                            "type": "note", 
                            "channel": 12
                        }
                    ]
                ], 
                [
                    18838, 
                    [
                        {
                            "pitch": 78, 
                            "t0": 18838, 
                            "v": 87, 
                            "dur": 48, 
                            "type": "note", 
                            "channel": 12
                        }
                    ]
                ], 
                [
                    18883, 
                    [
                        {
                            "pitch": 69, 
                            "t0": 18883, 
                            "v": 92, 
                            "dur": 49, 
                            "type": "note", 
                            "channel": 12
                        }
                    ]
                ], 
                [
                    18919, 
                    [
                        {
                            "pitch": 78, 
                            "t0": 18919, 
                            "v": 82, 
                            "dur": 37, 
                            "type": "note", 
                            "channel": 12
                        }
                    ]
                ], 
                [
                    18965, 
                    [
                        {
                            "pitch": 68, 
                            "t0": 18965, 
                            "v": 97, 
                            "dur": 92, 
                            "type": "note", 
                            "channel": 12
                        }
                    ]
                ], 
                [
                    19041, 
                    [
                        {
                            "pitch": 77, 
                            "t0": 19041, 
                            "v": 90, 
                            "dur": 36, 
                            "type": "note", 
                            "channel": 12
                        }
                    ]
                ], 
                [
                    19081, 
                    [
                        {
                            "pitch": 67, 
                            "t0": 19081, 
                            "v": 94, 
                            "dur": 86, 
                            "type": "note", 
                            "channel": 12
                        }
                    ]
                ], 
                [
                    19159, 
                    [
                        {
                            "pitch": 76, 
                            "t0": 19159, 
                            "v": 73, 
                            "dur": 24, 
                            "type": "note", 
                            "channel": 12
                        }
                    ]
                ], 
                [
                    19199, 
                    [
                        {
                            "pitch": 66, 
                            "t0": 19199, 
                            "v": 119, 
                            "dur": 161, 
                            "type": "note", 
                            "channel": 12
                        }
                    ]
                ], 
                [
                    19277, 
                    [
                        {
                            "pitch": 74, 
                            "t0": 19277, 
                            "v": 98, 
                            "dur": 152, 
                            "type": "note", 
                            "channel": 12
                        }
                    ]
                ], 
                [
                    19399, 
                    [
                        {
                            "pitch": 66, 
                            "t0": 19399, 
                            "v": 50, 
                            "dur": 17, 
                            "type": "note", 
                            "channel": 12
                        }
                    ]
                ], 
                [
                    19437, 
                    [
                        {
                            "pitch": 73, 
                            "t0": 19437, 
                            "v": 67, 
                            "dur": 37, 
                            "type": "note", 
                            "channel": 12
                        }
                    ]
                ], 
                [
                    19440, 
                    [
                        {
                            "pitch": 65, 
                            "t0": 19440, 
                            "v": 80, 
                            "dur": 23, 
                            "type": "note", 
                            "channel": 12
                        }
                    ]
                ], 
                [
                    19571, 
                    [
                        {
                            "pitch": 72, 
                            "t0": 19571, 
                            "v": 73, 
                            "dur": 21, 
                            "type": "note", 
                            "channel": 12
                        }
                    ]
                ], 
                [
                    19575, 
                    [
                        {
                            "pitch": 64, 
                            "t0": 19575, 
                            "v": 49, 
                            "dur": 19, 
                            "type": "note", 
                            "channel": 12
                        }
                    ]
                ], 
                [
                    19799, 
                    [
                        {
                            "pitch": 71, 
                            "t0": 19799, 
                            "v": 80, 
                            "dur": 302, 
                            "type": "note", 
                            "channel": 12
                        }
                    ]
                ], 
                [
                    19881, 
                    [
                        {
                            "pitch": 79, 
                            "t0": 19881, 
                            "v": 75, 
                            "dur": 219, 
                            "type": "note", 
                            "channel": 12
                        }
                    ]
                ], 
                [
                    20293, 
                    [
                        {
                            "pitch": 76, 
                            "t0": 20293, 
                            "v": 64, 
                            "dur": 218, 
                            "type": "note", 
                            "channel": 12
                        }
                    ]
                ], 
                [
                    20360, 
                    [
                        {
                            "pitch": 84, 
                            "t0": 20360, 
                            "v": 76, 
                            "dur": 147, 
                            "type": "note", 
                            "channel": 12
                        }
                    ]
                ], 
                [
                    20714, 
                    [
                        {
                            "pitch": 71, 
                            "t0": 20714, 
                            "v": 75, 
                            "dur": 153, 
                            "type": "note", 
                            "channel": 12
                        }
                    ]
                ], 
                [
                    20759, 
                    [
                        {
                            "pitch": 79, 
                            "t0": 20759, 
                            "v": 81, 
                            "dur": 171, 
                            "type": "note", 
                            "channel": 12
                        }
                    ]
                ], 
                [
                    20879, 
                    [
                        {
                            "pitch": 71, 
                            "t0": 20879, 
                            "v": 51, 
                            "dur": 46, 
                            "type": "note", 
                            "channel": 12
                        }
                    ]
                ], 
                [
                    21005, 
                    [
                        {
                            "pitch": 77, 
                            "t0": 21005, 
                            "v": 81, 
                            "dur": 24, 
                            "type": "note", 
                            "channel": 12
                        }
                    ]
                ], 
                [
                    21007, 
                    [
                        {
                            "pitch": 69, 
                            "t0": 21007, 
                            "v": 80, 
                            "dur": 27, 
                            "type": "note", 
                            "channel": 12
                        }
                    ]
                ], 
                [
                    21119, 
                    [
                        {
                            "pitch": 67, 
                            "t0": 21119, 
                            "v": 87, 
                            "dur": 340, 
                            "type": "note", 
                            "channel": 12
                        }
                    ]
                ], 
                [
                    21197, 
                    [
                        {
                            "pitch": 76, 
                            "t0": 21197, 
                            "v": 83, 
                            "dur": 275, 
                            "type": "note", 
                            "channel": 12
                        }
                    ]
                ], 
                [
                    21590, 
                    [
                        {
                            "pitch": 71, 
                            "t0": 21590, 
                            "v": 97, 
                            "dur": 330, 
                            "type": "note", 
                            "channel": 12
                        }
                    ]
                ], 
                [
                    21670, 
                    [
                        {
                            "pitch": 79, 
                            "t0": 21670, 
                            "v": 85, 
                            "dur": 250, 
                            "type": "note", 
                            "channel": 12
                        }
                    ]
                ], 
                [
                    28391, 
                    [
                        {
                            "pitch": 71, 
                            "t0": 28391, 
                            "v": 87, 
                            "dur": 232, 
                            "type": "note", 
                            "channel": 12
                        }
                    ]
                ], 
                [
                    28520, 
                    [
                        {
                            "pitch": 79, 
                            "t0": 28520, 
                            "v": 60, 
                            "dur": 106, 
                            "type": "note", 
                            "channel": 12
                        }
                    ]
                ], 
                [
                    28683, 
                    [
                        {
                            "pitch": 77, 
                            "t0": 28683, 
                            "v": 62, 
                            "dur": 27, 
                            "type": "note", 
                            "channel": 12
                        }
                    ]
                ], 
                [
                    28685, 
                    [
                        {
                            "pitch": 69, 
                            "t0": 28685, 
                            "v": 61, 
                            "dur": 24, 
                            "type": "note", 
                            "channel": 12
                        }
                    ]
                ], 
                [
                    28792, 
                    [
                        {
                            "pitch": 67, 
                            "t0": 28792, 
                            "v": 83, 
                            "dur": 404, 
                            "type": "note", 
                            "channel": 12
                        }
                    ]
                ], 
                [
                    28875, 
                    [
                        {
                            "pitch": 76, 
                            "t0": 28875, 
                            "v": 78, 
                            "dur": 313, 
                            "type": "note", 
                            "channel": 12
                        }
                    ]
                ], 
                [
                    29397, 
                    [
                        {
                            "pitch": 71, 
                            "t0": 29397, 
                            "v": 90, 
                            "dur": 335, 
                            "type": "note", 
                            "channel": 12
                        }
                    ]
                ], 
                [
                    29471, 
                    [
                        {
                            "pitch": 79, 
                            "t0": 29471, 
                            "v": 83, 
                            "dur": 262, 
                            "type": "note", 
                            "channel": 12
                        }
                    ]
                ], 
                [
                    29880, 
                    [
                        {
                            "pitch": 69, 
                            "t0": 29880, 
                            "v": 86, 
                            "dur": 290, 
                            "type": "note", 
                            "channel": 12
                        }
                    ]
                ], 
                [
                    29949, 
                    [
                        {
                            "pitch": 78, 
                            "t0": 29949, 
                            "v": 74, 
                            "dur": 262, 
                            "type": "note", 
                            "channel": 12
                        }
                    ]
                ], 
                [
                    30216, 
                    [
                        {
                            "pitch": 71, 
                            "t0": 30216, 
                            "v": 91, 
                            "dur": 50, 
                            "type": "note", 
                            "channel": 12
                        }
                    ]
                ], 
                [
                    30246, 
                    [
                        {
                            "pitch": 79, 
                            "t0": 30246, 
                            "v": 94, 
                            "dur": 43, 
                            "type": "note", 
                            "channel": 12
                        }
                    ]
                ], 
                [
                    30369, 
                    [
                        {
                            "pitch": 76, 
                            "t0": 30369, 
                            "v": 87, 
                            "dur": 41, 
                            "type": "note", 
                            "channel": 12
                        }
                    ]
                ], 
                [
                    30484, 
                    [
                        {
                            "pitch": 74, 
                            "t0": 30484, 
                            "v": 88, 
                            "dur": 25, 
                            "type": "note", 
                            "channel": 12
                        }
                    ]
                ], 
                [
                    30555, 
                    [
                        {
                            "pitch": 69, 
                            "t0": 30555, 
                            "v": 92, 
                            "dur": 158, 
                            "type": "note", 
                            "channel": 12
                        }
                    ]
                ], 
                [
                    30721, 
                    [
                        {
                            "pitch": 67, 
                            "t0": 30721, 
                            "v": 127, 
                            "dur": 49, 
                            "type": "note", 
                            "channel": 12
                        }
                    ]
                ], 
                [
                    32979, 
                    [
                        {
                            "pitch": 71, 
                            "t0": 32979, 
                            "v": 80, 
                            "dur": 64, 
                            "type": "note", 
                            "channel": 12
                        }
                    ]
                ], 
                [
                    33037, 
                    [
                        {
                            "pitch": 74, 
                            "t0": 33037, 
                            "v": 85, 
                            "dur": 33, 
                            "type": "note", 
                            "channel": 12
                        }
                    ]
                ], 
                [
                    33076, 
                    [
                        {
                            "pitch": 76, 
                            "t0": 33076, 
                            "v": 80, 
                            "dur": 28, 
                            "type": "note", 
                            "channel": 12
                        }
                    ]
                ], 
                [
                    33109, 
                    [
                        {
                            "pitch": 79, 
                            "t0": 33109, 
                            "v": 85, 
                            "dur": 78, 
                            "type": "note", 
                            "channel": 12
                        }
                    ]
                ], 
                [
                    33199, 
                    [
                        {
                            "pitch": 79, 
                            "t0": 33199, 
                            "v": 79, 
                            "dur": 25, 
                            "type": "note", 
                            "channel": 12
                        }
                    ]
                ], 
                [
                    33240, 
                    [
                        {
                            "pitch": 76, 
                            "t0": 33240, 
                            "v": 92, 
                            "dur": 25, 
                            "type": "note", 
                            "channel": 12
                        }
                    ]
                ], 
                [
                    33436, 
                    [
                        {
                            "pitch": 79, 
                            "t0": 33436, 
                            "v": 64, 
                            "dur": 18, 
                            "type": "note", 
                            "channel": 12
                        }
                    ]
                ], 
                [
                    33439, 
                    [
                        {
                            "pitch": 77, 
                            "t0": 33439, 
                            "v": 66, 
                            "dur": 7, 
                            "type": "note", 
                            "channel": 12
                        }
                    ]
                ], 
                [
                    33607, 
                    [
                        {
                            "pitch": 79, 
                            "t0": 33607, 
                            "v": 75, 
                            "dur": 65, 
                            "type": "note", 
                            "channel": 12
                        }
                    ]
                ], 
                [
                    33689, 
                    [
                        {
                            "pitch": 79, 
                            "t0": 33689, 
                            "v": 54, 
                            "dur": 25, 
                            "type": "note", 
                            "channel": 12
                        }
                    ]
                ], 
                [
                    33725, 
                    [
                        {
                            "pitch": 76, 
                            "t0": 33725, 
                            "v": 68, 
                            "dur": 26, 
                            "type": "note", 
                            "channel": 12
                        }
                    ]
                ], 
                [
                    33845, 
                    [
                        {
                            "pitch": 74, 
                            "t0": 33845, 
                            "v": 70, 
                            "dur": 57, 
                            "type": "note", 
                            "channel": 12
                        }
                    ]
                ], 
                [
                    33916, 
                    [
                        {
                            "pitch": 76, 
                            "t0": 33916, 
                            "v": 63, 
                            "dur": 20, 
                            "type": "note", 
                            "channel": 12
                        }
                    ]
                ], 
                [
                    34197, 
                    [
                        {
                            "pitch": 78, 
                            "t0": 34197, 
                            "v": 74, 
                            "dur": 72, 
                            "type": "note", 
                            "channel": 12
                        }
                    ]
                ], 
                [
                    34277, 
                    [
                        {
                            "pitch": 81, 
                            "t0": 34277, 
                            "v": 71, 
                            "dur": 28, 
                            "type": "note", 
                            "channel": 12
                        }
                    ]
                ], 
                [
                    34318, 
                    [
                        {
                            "pitch": 76, 
                            "t0": 34318, 
                            "v": 72, 
                            "dur": 75, 
                            "type": "note", 
                            "channel": 12
                        }
                    ]
                ], 
                [
                    34402, 
                    [
                        {
                            "pitch": 74, 
                            "t0": 34402, 
                            "v": 87, 
                            "dur": 26, 
                            "type": "note", 
                            "channel": 12
                        }
                    ]
                ], 
                [
                    34440, 
                    [
                        {
                            "pitch": 76, 
                            "t0": 34440, 
                            "v": 73, 
                            "dur": 63, 
                            "type": "note", 
                            "channel": 12
                        }
                    ]
                ], 
                [
                    34514, 
                    [
                        {
                            "pitch": 74, 
                            "t0": 34514, 
                            "v": 87, 
                            "dur": 344, 
                            "type": "note", 
                            "channel": 12
                        }
                    ]
                ], 
                [
                    34870, 
                    [
                        {
                            "pitch": 76, 
                            "t0": 34870, 
                            "v": 78, 
                            "dur": 21, 
                            "type": "note", 
                            "channel": 12
                        }
                    ]
                ], 
                [
                    34916, 
                    [
                        {
                            "pitch": 69, 
                            "t0": 34916, 
                            "v": 84, 
                            "dur": 86, 
                            "type": "note", 
                            "channel": 12
                        }
                    ]
                ], 
                [
                    35009, 
                    [
                        {
                            "pitch": 67, 
                            "t0": 35009, 
                            "v": 100, 
                            "dur": 389, 
                            "type": "note", 
                            "channel": 12
                        }
                    ]
                ], 
                [
                    40288, 
                    [
                        {
                            "pitch": 71, 
                            "t0": 40288, 
                            "v": 59, 
                            "dur": 31, 
                            "type": "note", 
                            "channel": 12
                        }
                    ]
                ], 
                [
                    40323, 
                    [
                        {
                            "pitch": 79, 
                            "t0": 40323, 
                            "v": 75, 
                            "dur": 70, 
                            "type": "note", 
                            "channel": 12
                        }
                    ]
                ], 
                [
                    40401, 
                    [
                        {
                            "pitch": 76, 
                            "t0": 40401, 
                            "v": 65, 
                            "dur": 26, 
                            "type": "note", 
                            "channel": 12
                        }
                    ]
                ], 
                [
                    40442, 
                    [
                        {
                            "pitch": 74, 
                            "t0": 40442, 
                            "v": 81, 
                            "dur": 22, 
                            "type": "note", 
                            "channel": 12
                        }
                    ]
                ], 
                [
                    40556, 
                    [
                        {
                            "pitch": 69, 
                            "t0": 40556, 
                            "v": 83, 
                            "dur": 117, 
                            "type": "note", 
                            "channel": 12
                        }
                    ]
                ], 
                [
                    40673, 
                    [
                        {
                            "pitch": 67, 
                            "t0": 40673, 
                            "v": 80, 
                            "dur": 127, 
                            "type": "note", 
                            "channel": 12
                        }
                    ]
                ], 
                [
                    40808, 
                    [
                        {
                            "pitch": 69, 
                            "t0": 40808, 
                            "v": 70, 
                            "dur": 284, 
                            "type": "note", 
                            "channel": 12
                        }
                    ]
                ], 
                [
                    41161, 
                    [
                        {
                            "pitch": 64, 
                            "t0": 41161, 
                            "v": 53, 
                            "dur": 94, 
                            "type": "note", 
                            "channel": 12
                        }
                    ]
                ], 
                [
                    41237, 
                    [
                        {
                            "pitch": 73, 
                            "t0": 41237, 
                            "v": 73, 
                            "dur": 166, 
                            "type": "note", 
                            "channel": 12
                        }
                    ]
                ], 
                [
                    41405, 
                    [
                        {
                            "pitch": 69, 
                            "t0": 41405, 
                            "v": 61, 
                            "dur": 87, 
                            "type": "note", 
                            "channel": 12
                        }
                    ]
                ], 
                [
                    41486, 
                    [
                        {
                            "pitch": 76, 
                            "t0": 41486, 
                            "v": 33, 
                            "dur": 124, 
                            "type": "note", 
                            "channel": 12
                        }
                    ]
                ], 
                [
                    41644, 
                    [
                        {
                            "pitch": 79, 
                            "t0": 41644, 
                            "v": 79, 
                            "dur": 32, 
                            "type": "note", 
                            "channel": 12
                        }
                    ]
                ], 
                [
                    41883, 
                    [
                        {
                            "pitch": 69, 
                            "t0": 41883, 
                            "v": 86, 
                            "dur": 500, 
                            "type": "note", 
                            "channel": 12
                        }
                    ]
                ], 
                [
                    41960, 
                    [
                        {
                            "pitch": 78, 
                            "t0": 41960, 
                            "v": 68, 
                            "dur": 521, 
                            "type": "note", 
                            "channel": 12
                        }
                    ]
                ], 
                [
                    42485, 
                    [
                        {
                            "pitch": 69, 
                            "t0": 42485, 
                            "v": 108, 
                            "dur": 60, 
                            "type": "note", 
                            "channel": 12
                        }
                    ]
                ], 
                [
                    42530, 
                    [
                        {
                            "pitch": 78, 
                            "t0": 42530, 
                            "v": 89, 
                            "dur": 50, 
                            "type": "note", 
                            "channel": 12
                        }
                    ]
                ], 
                [
                    42566, 
                    [
                        {
                            "pitch": 69, 
                            "t0": 42566, 
                            "v": 91, 
                            "dur": 24, 
                            "type": "note", 
                            "channel": 12
                        }
                    ]
                ], 
                [
                    42616, 
                    [
                        {
                            "pitch": 68, 
                            "t0": 42616, 
                            "v": 97, 
                            "dur": 79, 
                            "type": "note", 
                            "channel": 12
                        }
                    ]
                ], 
                [
                    42735, 
                    [
                        {
                            "pitch": 67, 
                            "t0": 42735, 
                            "v": 73, 
                            "dur": 323, 
                            "type": "note", 
                            "channel": 12
                        }
                    ]
                ], 
                [
                    42805, 
                    [
                        {
                            "pitch": 76, 
                            "t0": 42805, 
                            "v": 67, 
                            "dur": 264, 
                            "type": "note", 
                            "channel": 12
                        }
                    ]
                ], 
                [
                    43080, 
                    [
                        {
                            "pitch": 72, 
                            "t0": 43080, 
                            "v": 92, 
                            "dur": 479, 
                            "type": "note", 
                            "channel": 12
                        }
                    ]
                ], 
                [
                    43154, 
                    [
                        {
                            "pitch": 79, 
                            "t0": 43154, 
                            "v": 72, 
                            "dur": 420, 
                            "type": "note", 
                            "channel": 12
                        }
                    ]
                ], 
                [
                    43671, 
                    [
                        {
                            "pitch": 71, 
                            "t0": 43671, 
                            "v": 77, 
                            "dur": 294, 
                            "type": "note", 
                            "channel": 12
                        }
                    ]
                ], 
                [
                    43749, 
                    [
                        {
                            "pitch": 79, 
                            "t0": 43749, 
                            "v": 80, 
                            "dur": 223, 
                            "type": "note", 
                            "channel": 12
                        }
                    ]
                ], 
                [
                    44040, 
                    [
                        {
                            "pitch": 69, 
                            "t0": 44040, 
                            "v": 68, 
                            "dur": 52, 
                            "type": "note", 
                            "channel": 12
                        }
                    ]
                ], 
                [
                    44043, 
                    [
                        {
                            "pitch": 77, 
                            "t0": 44043, 
                            "v": 75, 
                            "dur": 30, 
                            "type": "note", 
                            "channel": 12
                        }
                    ]
                ], 
                [
                    44152, 
                    [
                        {
                            "pitch": 67, 
                            "t0": 44152, 
                            "v": 84, 
                            "dur": 367, 
                            "type": "note", 
                            "channel": 12
                        }
                    ]
                ], 
                [
                    44233, 
                    [
                        {
                            "pitch": 76, 
                            "t0": 44233, 
                            "v": 80, 
                            "dur": 296, 
                            "type": "note", 
                            "channel": 12
                        }
                    ]
                ], 
                [
                    44633, 
                    [
                        {
                            "pitch": 71, 
                            "t0": 44633, 
                            "v": 90, 
                            "dur": 452, 
                            "type": "note", 
                            "channel": 12
                        }
                    ]
                ], 
                [
                    44711, 
                    [
                        {
                            "pitch": 79, 
                            "t0": 44711, 
                            "v": 85, 
                            "dur": 407, 
                            "type": "note", 
                            "channel": 12
                        }
                    ]
                ], 
                [
                    45122, 
                    [
                        {
                            "pitch": 69, 
                            "t0": 45122, 
                            "v": 102, 
                            "dur": 402, 
                            "type": "note", 
                            "channel": 12
                        }
                    ]
                ], 
                [
                    45198, 
                    [
                        {
                            "pitch": 78, 
                            "t0": 45198, 
                            "v": 89, 
                            "dur": 362, 
                            "type": "note", 
                            "channel": 12
                        }
                    ]
                ], 
                [
                    45564, 
                    [
                        {
                            "pitch": 71, 
                            "t0": 45564, 
                            "v": 106, 
                            "dur": 26, 
                            "type": "note", 
                            "channel": 12
                        }
                    ]
                ], 
                [
                    45599, 
                    [
                        {
                            "pitch": 79, 
                            "t0": 45599, 
                            "v": 100, 
                            "dur": 44, 
                            "type": "note", 
                            "channel": 12
                        }
                    ]
                ], 
                [
                    45603, 
                    [
                        {
                            "pitch": 71, 
                            "t0": 45603, 
                            "v": 73, 
                            "dur": 13, 
                            "type": "note", 
                            "channel": 12
                        }
                    ]
                ], 
                [
                    45722, 
                    [
                        {
                            "pitch": 76, 
                            "t0": 45722, 
                            "v": 87, 
                            "dur": 44, 
                            "type": "note", 
                            "channel": 12
                        }
                    ]
                ], 
                [
                    45838, 
                    [
                        {
                            "pitch": 74, 
                            "t0": 45838, 
                            "v": 83, 
                            "dur": 20, 
                            "type": "note", 
                            "channel": 12
                        }
                    ]
                ], 
                [
                    45922, 
                    [
                        {
                            "pitch": 69, 
                            "t0": 45922, 
                            "v": 98, 
                            "dur": 155, 
                            "type": "note", 
                            "channel": 12
                        }
                    ]
                ], 
                [
                    46084, 
                    [
                        {
                            "pitch": 67, 
                            "t0": 46084, 
                            "v": 125, 
                            "dur": 38, 
                            "type": "note", 
                            "channel": 12
                        }
                    ]
                ], 
                [
                    53232, 
                    [
                        {
                            "pitch": 71, 
                            "t0": 53232, 
                            "v": 90, 
                            "dur": 48, 
                            "type": "note", 
                            "channel": 12
                        }
                    ]
                ], 
                [
                    53276, 
                    [
                        {
                            "pitch": 79, 
                            "t0": 53276, 
                            "v": 94, 
                            "dur": 52, 
                            "type": "note", 
                            "channel": 12
                        }
                    ]
                ], 
                [
                    53404, 
                    [
                        {
                            "pitch": 76, 
                            "t0": 53404, 
                            "v": 87, 
                            "dur": 46, 
                            "type": "note", 
                            "channel": 12
                        }
                    ]
                ], 
                [
                    53517, 
                    [
                        {
                            "pitch": 74, 
                            "t0": 53517, 
                            "v": 87, 
                            "dur": 24, 
                            "type": "note", 
                            "channel": 12
                        }
                    ]
                ], 
                [
                    53594, 
                    [
                        {
                            "pitch": 69, 
                            "t0": 53594, 
                            "v": 81, 
                            "dur": 162, 
                            "type": "note", 
                            "channel": 12
                        }
                    ]
                ], 
                [
                    53763, 
                    [
                        {
                            "pitch": 67, 
                            "t0": 53763, 
                            "v": 127, 
                            "dur": 34, 
                            "type": "note", 
                            "channel": 12
                        }
                    ]
                ]
            ], 
            "instruments": [
                26
            ], 
            "tMax": 53797, 
            "channels": [
                12
            ], 
            "instrument": 26, 
            "numNotes": 129, 
            "type": "TrackObj"
        }, 
        {
            "trackName": "ch10 jazzdrums", 
            "seq": [
                [
                    120, 
                    [
                        {
                            "pitch": 47, 
                            "t0": 120, 
                            "v": 114, 
                            "dur": 26, 
                            "type": "note", 
                            "channel": 9
                        }
                    ]
                ], 
                [
                    200, 
                    [
                        {
                            "pitch": 47, 
                            "t0": 200, 
                            "v": 110, 
                            "dur": 19, 
                            "type": "note", 
                            "channel": 9
                        }
                    ]
                ], 
                [
                    240, 
                    [
                        {
                            "pitch": 47, 
                            "t0": 240, 
                            "v": 108, 
                            "dur": 47, 
                            "type": "note", 
                            "channel": 9
                        }
                    ]
                ], 
                [
                    320, 
                    [
                        {
                            "pitch": 45, 
                            "t0": 320, 
                            "v": 102, 
                            "dur": 20, 
                            "type": "note", 
                            "channel": 9
                        }
                    ]
                ], 
                [
                    360, 
                    [
                        {
                            "pitch": 45, 
                            "t0": 360, 
                            "v": 120, 
                            "dur": 50, 
                            "type": "note", 
                            "channel": 9
                        }
                    ]
                ], 
                [
                    440, 
                    [
                        {
                            "pitch": 45, 
                            "t0": 440, 
                            "v": 92, 
                            "dur": 20, 
                            "type": "note", 
                            "channel": 9
                        }
                    ]
                ], 
                [
                    480, 
                    [
                        {
                            "pitch": 49, 
                            "t0": 480, 
                            "v": 89, 
                            "dur": 44, 
                            "type": "note", 
                            "channel": 9
                        }, 
                        {
                            "pitch": 36, 
                            "t0": 480, 
                            "v": 98, 
                            "dur": 57, 
                            "type": "note", 
                            "channel": 9
                        }
                    ]
                ], 
                [
                    600, 
                    [
                        {
                            "pitch": 37, 
                            "t0": 600, 
                            "v": 87, 
                            "dur": 21, 
                            "type": "note", 
                            "channel": 9
                        }
                    ]
                ], 
                [
                    720, 
                    [
                        {
                            "pitch": 36, 
                            "t0": 720, 
                            "v": 91, 
                            "dur": 41, 
                            "type": "note", 
                            "channel": 9
                        }
                    ]
                ], 
                [
                    800, 
                    [
                        {
                            "pitch": 36, 
                            "t0": 800, 
                            "v": 67, 
                            "dur": 23, 
                            "type": "note", 
                            "channel": 9
                        }
                    ]
                ], 
                [
                    840, 
                    [
                        {
                            "pitch": 38, 
                            "t0": 840, 
                            "v": 91, 
                            "dur": 45, 
                            "type": "note", 
                            "channel": 9
                        }
                    ]
                ], 
                [
                    920, 
                    [
                        {
                            "pitch": 36, 
                            "t0": 920, 
                            "v": 70, 
                            "dur": 25, 
                            "type": "note", 
                            "channel": 9
                        }
                    ]
                ], 
                [
                    960, 
                    [
                        {
                            "pitch": 36, 
                            "t0": 960, 
                            "v": 97, 
                            "dur": 99, 
                            "type": "note", 
                            "channel": 9
                        }
                    ]
                ], 
                [
                    1080, 
                    [
                        {
                            "pitch": 38, 
                            "t0": 1080, 
                            "v": 100, 
                            "dur": 29, 
                            "type": "note", 
                            "channel": 9
                        }
                    ]
                ], 
                [
                    1200, 
                    [
                        {
                            "pitch": 36, 
                            "t0": 1200, 
                            "v": 95, 
                            "dur": 45, 
                            "type": "note", 
                            "channel": 9
                        }
                    ]
                ], 
                [
                    1280, 
                    [
                        {
                            "pitch": 36, 
                            "t0": 1280, 
                            "v": 90, 
                            "dur": 24, 
                            "type": "note", 
                            "channel": 9
                        }
                    ]
                ], 
                [
                    1320, 
                    [
                        {
                            "pitch": 38, 
                            "t0": 1320, 
                            "v": 94, 
                            "dur": 42, 
                            "type": "note", 
                            "channel": 9
                        }
                    ]
                ], 
                [
                    1400, 
                    [
                        {
                            "pitch": 36, 
                            "t0": 1400, 
                            "v": 95, 
                            "dur": 22, 
                            "type": "note", 
                            "channel": 9
                        }
                    ]
                ], 
                [
                    1440, 
                    [
                        {
                            "pitch": 36, 
                            "t0": 1440, 
                            "v": 104, 
                            "dur": 93, 
                            "type": "note", 
                            "channel": 9
                        }
                    ]
                ], 
                [
                    1560, 
                    [
                        {
                            "pitch": 38, 
                            "t0": 1560, 
                            "v": 104, 
                            "dur": 37, 
                            "type": "note", 
                            "channel": 9
                        }
                    ]
                ], 
                [
                    1680, 
                    [
                        {
                            "pitch": 36, 
                            "t0": 1680, 
                            "v": 85, 
                            "dur": 42, 
                            "type": "note", 
                            "channel": 9
                        }
                    ]
                ], 
                [
                    1760, 
                    [
                        {
                            "pitch": 36, 
                            "t0": 1760, 
                            "v": 84, 
                            "dur": 25, 
                            "type": "note", 
                            "channel": 9
                        }
                    ]
                ], 
                [
                    1800, 
                    [
                        {
                            "pitch": 38, 
                            "t0": 1800, 
                            "v": 98, 
                            "dur": 46, 
                            "type": "note", 
                            "channel": 9
                        }
                    ]
                ], 
                [
                    1880, 
                    [
                        {
                            "pitch": 36, 
                            "t0": 1880, 
                            "v": 80, 
                            "dur": 20, 
                            "type": "note", 
                            "channel": 9
                        }
                    ]
                ], 
                [
                    1920, 
                    [
                        {
                            "pitch": 36, 
                            "t0": 1920, 
                            "v": 102, 
                            "dur": 99, 
                            "type": "note", 
                            "channel": 9
                        }
                    ]
                ], 
                [
                    2040, 
                    [
                        {
                            "pitch": 38, 
                            "t0": 2040, 
                            "v": 102, 
                            "dur": 35, 
                            "type": "note", 
                            "channel": 9
                        }
                    ]
                ], 
                [
                    2160, 
                    [
                        {
                            "pitch": 36, 
                            "t0": 2160, 
                            "v": 106, 
                            "dur": 38, 
                            "type": "note", 
                            "channel": 9
                        }
                    ]
                ], 
                [
                    2240, 
                    [
                        {
                            "pitch": 36, 
                            "t0": 2240, 
                            "v": 87, 
                            "dur": 24, 
                            "type": "note", 
                            "channel": 9
                        }
                    ]
                ], 
                [
                    2280, 
                    [
                        {
                            "pitch": 38, 
                            "t0": 2280, 
                            "v": 108, 
                            "dur": 45, 
                            "type": "note", 
                            "channel": 9
                        }
                    ]
                ], 
                [
                    2360, 
                    [
                        {
                            "pitch": 36, 
                            "t0": 2360, 
                            "v": 80, 
                            "dur": 20, 
                            "type": "note", 
                            "channel": 9
                        }
                    ]
                ], 
                [
                    2400, 
                    [
                        {
                            "pitch": 36, 
                            "t0": 2400, 
                            "v": 102, 
                            "dur": 99, 
                            "type": "note", 
                            "channel": 9
                        }
                    ]
                ], 
                [
                    2520, 
                    [
                        {
                            "pitch": 38, 
                            "t0": 2520, 
                            "v": 106, 
                            "dur": 34, 
                            "type": "note", 
                            "channel": 9
                        }
                    ]
                ], 
                [
                    2640, 
                    [
                        {
                            "pitch": 36, 
                            "t0": 2640, 
                            "v": 98, 
                            "dur": 38, 
                            "type": "note", 
                            "channel": 9
                        }
                    ]
                ], 
                [
                    2720, 
                    [
                        {
                            "pitch": 36, 
                            "t0": 2720, 
                            "v": 102, 
                            "dur": 22, 
                            "type": "note", 
                            "channel": 9
                        }
                    ]
                ], 
                [
                    2760, 
                    [
                        {
                            "pitch": 38, 
                            "t0": 2760, 
                            "v": 98, 
                            "dur": 45, 
                            "type": "note", 
                            "channel": 9
                        }
                    ]
                ], 
                [
                    2840, 
                    [
                        {
                            "pitch": 36, 
                            "t0": 2840, 
                            "v": 73, 
                            "dur": 21, 
                            "type": "note", 
                            "channel": 9
                        }
                    ]
                ], 
                [
                    2880, 
                    [
                        {
                            "pitch": 36, 
                            "t0": 2880, 
                            "v": 108, 
                            "dur": 97, 
                            "type": "note", 
                            "channel": 9
                        }
                    ]
                ], 
                [
                    3000, 
                    [
                        {
                            "pitch": 38, 
                            "t0": 3000, 
                            "v": 100, 
                            "dur": 29, 
                            "type": "note", 
                            "channel": 9
                        }
                    ]
                ], 
                [
                    3120, 
                    [
                        {
                            "pitch": 36, 
                            "t0": 3120, 
                            "v": 97, 
                            "dur": 36, 
                            "type": "note", 
                            "channel": 9
                        }
                    ]
                ], 
                [
                    3200, 
                    [
                        {
                            "pitch": 36, 
                            "t0": 3200, 
                            "v": 84, 
                            "dur": 21, 
                            "type": "note", 
                            "channel": 9
                        }
                    ]
                ], 
                [
                    3240, 
                    [
                        {
                            "pitch": 38, 
                            "t0": 3240, 
                            "v": 97, 
                            "dur": 44, 
                            "type": "note", 
                            "channel": 9
                        }
                    ]
                ], 
                [
                    3320, 
                    [
                        {
                            "pitch": 36, 
                            "t0": 3320, 
                            "v": 84, 
                            "dur": 19, 
                            "type": "note", 
                            "channel": 9
                        }
                    ]
                ], 
                [
                    3360, 
                    [
                        {
                            "pitch": 36, 
                            "t0": 3360, 
                            "v": 106, 
                            "dur": 85, 
                            "type": "note", 
                            "channel": 9
                        }
                    ]
                ], 
                [
                    3480, 
                    [
                        {
                            "pitch": 38, 
                            "t0": 3480, 
                            "v": 108, 
                            "dur": 28, 
                            "type": "note", 
                            "channel": 9
                        }
                    ]
                ], 
                [
                    3600, 
                    [
                        {
                            "pitch": 36, 
                            "t0": 3600, 
                            "v": 104, 
                            "dur": 37, 
                            "type": "note", 
                            "channel": 9
                        }
                    ]
                ], 
                [
                    3680, 
                    [
                        {
                            "pitch": 36, 
                            "t0": 3680, 
                            "v": 79, 
                            "dur": 22, 
                            "type": "note", 
                            "channel": 9
                        }
                    ]
                ], 
                [
                    3720, 
                    [
                        {
                            "pitch": 38, 
                            "t0": 3720, 
                            "v": 110, 
                            "dur": 42, 
                            "type": "note", 
                            "channel": 9
                        }
                    ]
                ], 
                [
                    3800, 
                    [
                        {
                            "pitch": 36, 
                            "t0": 3800, 
                            "v": 88, 
                            "dur": 20, 
                            "type": "note", 
                            "channel": 9
                        }
                    ]
                ], 
                [
                    3840, 
                    [
                        {
                            "pitch": 36, 
                            "t0": 3840, 
                            "v": 104, 
                            "dur": 43, 
                            "type": "note", 
                            "channel": 9
                        }
                    ]
                ], 
                [
                    3920, 
                    [
                        {
                            "pitch": 38, 
                            "t0": 3920, 
                            "v": 100, 
                            "dur": 19, 
                            "type": "note", 
                            "channel": 9
                        }
                    ]
                ], 
                [
                    3960, 
                    [
                        {
                            "pitch": 38, 
                            "t0": 3960, 
                            "v": 117, 
                            "dur": 41, 
                            "type": "note", 
                            "channel": 9
                        }
                    ]
                ], 
                [
                    4040, 
                    [
                        {
                            "pitch": 38, 
                            "t0": 4040, 
                            "v": 100, 
                            "dur": 20, 
                            "type": "note", 
                            "channel": 9
                        }
                    ]
                ], 
                [
                    4080, 
                    [
                        {
                            "pitch": 38, 
                            "t0": 4080, 
                            "v": 106, 
                            "dur": 40, 
                            "type": "note", 
                            "channel": 9
                        }
                    ]
                ], 
                [
                    4160, 
                    [
                        {
                            "pitch": 38, 
                            "t0": 4160, 
                            "v": 95, 
                            "dur": 19, 
                            "type": "note", 
                            "channel": 9
                        }
                    ]
                ], 
                [
                    4200, 
                    [
                        {
                            "pitch": 38, 
                            "t0": 4200, 
                            "v": 104, 
                            "dur": 40, 
                            "type": "note", 
                            "channel": 9
                        }
                    ]
                ], 
                [
                    4280, 
                    [
                        {
                            "pitch": 38, 
                            "t0": 4280, 
                            "v": 90, 
                            "dur": 21, 
                            "type": "note", 
                            "channel": 9
                        }
                    ]
                ], 
                [
                    4320, 
                    [
                        {
                            "pitch": 49, 
                            "t0": 4320, 
                            "v": 89, 
                            "dur": 33, 
                            "type": "note", 
                            "channel": 9
                        }, 
                        {
                            "pitch": 36, 
                            "t0": 4320, 
                            "v": 102, 
                            "dur": 48, 
                            "type": "note", 
                            "channel": 9
                        }
                    ]
                ], 
                [
                    4440, 
                    [
                        {
                            "pitch": 38, 
                            "t0": 4440, 
                            "v": 108, 
                            "dur": 29, 
                            "type": "note", 
                            "channel": 9
                        }
                    ]
                ], 
                [
                    4560, 
                    [
                        {
                            "pitch": 36, 
                            "t0": 4560, 
                            "v": 102, 
                            "dur": 33, 
                            "type": "note", 
                            "channel": 9
                        }
                    ]
                ], 
                [
                    4640, 
                    [
                        {
                            "pitch": 36, 
                            "t0": 4640, 
                            "v": 91, 
                            "dur": 23, 
                            "type": "note", 
                            "channel": 9
                        }
                    ]
                ], 
                [
                    4680, 
                    [
                        {
                            "pitch": 38, 
                            "t0": 4680, 
                            "v": 104, 
                            "dur": 40, 
                            "type": "note", 
                            "channel": 9
                        }
                    ]
                ], 
                [
                    4760, 
                    [
                        {
                            "pitch": 36, 
                            "t0": 4760, 
                            "v": 91, 
                            "dur": 17, 
                            "type": "note", 
                            "channel": 9
                        }
                    ]
                ], 
                [
                    4800, 
                    [
                        {
                            "pitch": 36, 
                            "t0": 4800, 
                            "v": 108, 
                            "dur": 83, 
                            "type": "note", 
                            "channel": 9
                        }
                    ]
                ], 
                [
                    4920, 
                    [
                        {
                            "pitch": 38, 
                            "t0": 4920, 
                            "v": 104, 
                            "dur": 33, 
                            "type": "note", 
                            "channel": 9
                        }
                    ]
                ], 
                [
                    5040, 
                    [
                        {
                            "pitch": 36, 
                            "t0": 5040, 
                            "v": 104, 
                            "dur": 28, 
                            "type": "note", 
                            "channel": 9
                        }
                    ]
                ], 
                [
                    5120, 
                    [
                        {
                            "pitch": 36, 
                            "t0": 5120, 
                            "v": 98, 
                            "dur": 20, 
                            "type": "note", 
                            "channel": 9
                        }
                    ]
                ], 
                [
                    5160, 
                    [
                        {
                            "pitch": 38, 
                            "t0": 5160, 
                            "v": 104, 
                            "dur": 33, 
                            "type": "note", 
                            "channel": 9
                        }
                    ]
                ], 
                [
                    5240, 
                    [
                        {
                            "pitch": 36, 
                            "t0": 5240, 
                            "v": 86, 
                            "dur": 18, 
                            "type": "note", 
                            "channel": 9
                        }
                    ]
                ], 
                [
                    5280, 
                    [
                        {
                            "pitch": 36, 
                            "t0": 5280, 
                            "v": 100, 
                            "dur": 91, 
                            "type": "note", 
                            "channel": 9
                        }
                    ]
                ], 
                [
                    5400, 
                    [
                        {
                            "pitch": 38, 
                            "t0": 5400, 
                            "v": 108, 
                            "dur": 34, 
                            "type": "note", 
                            "channel": 9
                        }
                    ]
                ], 
                [
                    5520, 
                    [
                        {
                            "pitch": 36, 
                            "t0": 5520, 
                            "v": 95, 
                            "dur": 31, 
                            "type": "note", 
                            "channel": 9
                        }
                    ]
                ], 
                [
                    5600, 
                    [
                        {
                            "pitch": 36, 
                            "t0": 5600, 
                            "v": 98, 
                            "dur": 22, 
                            "type": "note", 
                            "channel": 9
                        }
                    ]
                ], 
                [
                    5640, 
                    [
                        {
                            "pitch": 38, 
                            "t0": 5640, 
                            "v": 104, 
                            "dur": 40, 
                            "type": "note", 
                            "channel": 9
                        }
                    ]
                ], 
                [
                    5720, 
                    [
                        {
                            "pitch": 36, 
                            "t0": 5720, 
                            "v": 86, 
                            "dur": 20, 
                            "type": "note", 
                            "channel": 9
                        }
                    ]
                ], 
                [
                    5760, 
                    [
                        {
                            "pitch": 36, 
                            "t0": 5760, 
                            "v": 102, 
                            "dur": 84, 
                            "type": "note", 
                            "channel": 9
                        }
                    ]
                ], 
                [
                    5880, 
                    [
                        {
                            "pitch": 38, 
                            "t0": 5880, 
                            "v": 106, 
                            "dur": 40, 
                            "type": "note", 
                            "channel": 9
                        }
                    ]
                ], 
                [
                    6000, 
                    [
                        {
                            "pitch": 36, 
                            "t0": 6000, 
                            "v": 110, 
                            "dur": 46, 
                            "type": "note", 
                            "channel": 9
                        }
                    ]
                ], 
                [
                    6080, 
                    [
                        {
                            "pitch": 47, 
                            "t0": 6080, 
                            "v": 120, 
                            "dur": 18, 
                            "type": "note", 
                            "channel": 9
                        }
                    ]
                ], 
                [
                    6120, 
                    [
                        {
                            "pitch": 47, 
                            "t0": 6120, 
                            "v": 125, 
                            "dur": 44, 
                            "type": "note", 
                            "channel": 9
                        }
                    ]
                ], 
                [
                    6200, 
                    [
                        {
                            "pitch": 46, 
                            "t0": 6200, 
                            "v": 68, 
                            "dur": 11, 
                            "type": "note", 
                            "channel": 9
                        }, 
                        {
                            "pitch": 47, 
                            "t0": 6200, 
                            "v": 84, 
                            "dur": 17, 
                            "type": "note", 
                            "channel": 9
                        }
                    ]
                ], 
                [
                    6240, 
                    [
                        {
                            "pitch": 49, 
                            "t0": 6240, 
                            "v": 95, 
                            "dur": 45, 
                            "type": "note", 
                            "channel": 9
                        }, 
                        {
                            "pitch": 36, 
                            "t0": 6240, 
                            "v": 92, 
                            "dur": 50, 
                            "type": "note", 
                            "channel": 9
                        }
                    ]
                ], 
                [
                    6360, 
                    [
                        {
                            "pitch": 38, 
                            "t0": 6360, 
                            "v": 108, 
                            "dur": 41, 
                            "type": "note", 
                            "channel": 9
                        }
                    ]
                ], 
                [
                    6480, 
                    [
                        {
                            "pitch": 36, 
                            "t0": 6480, 
                            "v": 100, 
                            "dur": 34, 
                            "type": "note", 
                            "channel": 9
                        }
                    ]
                ], 
                [
                    6560, 
                    [
                        {
                            "pitch": 36, 
                            "t0": 6560, 
                            "v": 80, 
                            "dur": 22, 
                            "type": "note", 
                            "channel": 9
                        }
                    ]
                ], 
                [
                    6600, 
                    [
                        {
                            "pitch": 38, 
                            "t0": 6600, 
                            "v": 102, 
                            "dur": 43, 
                            "type": "note", 
                            "channel": 9
                        }
                    ]
                ], 
                [
                    6680, 
                    [
                        {
                            "pitch": 36, 
                            "t0": 6680, 
                            "v": 85, 
                            "dur": 19, 
                            "type": "note", 
                            "channel": 9
                        }
                    ]
                ], 
                [
                    6720, 
                    [
                        {
                            "pitch": 36, 
                            "t0": 6720, 
                            "v": 100, 
                            "dur": 94, 
                            "type": "note", 
                            "channel": 9
                        }
                    ]
                ], 
                [
                    6840, 
                    [
                        {
                            "pitch": 38, 
                            "t0": 6840, 
                            "v": 100, 
                            "dur": 36, 
                            "type": "note", 
                            "channel": 9
                        }
                    ]
                ], 
                [
                    6960, 
                    [
                        {
                            "pitch": 36, 
                            "t0": 6960, 
                            "v": 97, 
                            "dur": 42, 
                            "type": "note", 
                            "channel": 9
                        }
                    ]
                ], 
                [
                    7040, 
                    [
                        {
                            "pitch": 36, 
                            "t0": 7040, 
                            "v": 88, 
                            "dur": 23, 
                            "type": "note", 
                            "channel": 9
                        }
                    ]
                ], 
                [
                    7080, 
                    [
                        {
                            "pitch": 38, 
                            "t0": 7080, 
                            "v": 106, 
                            "dur": 45, 
                            "type": "note", 
                            "channel": 9
                        }
                    ]
                ], 
                [
                    7160, 
                    [
                        {
                            "pitch": 36, 
                            "t0": 7160, 
                            "v": 90, 
                            "dur": 20, 
                            "type": "note", 
                            "channel": 9
                        }
                    ]
                ], 
                [
                    7200, 
                    [
                        {
                            "pitch": 36, 
                            "t0": 7200, 
                            "v": 106, 
                            "dur": 46, 
                            "type": "note", 
                            "channel": 9
                        }
                    ]
                ], 
                [
                    7280, 
                    [
                        {
                            "pitch": 38, 
                            "t0": 7280, 
                            "v": 87, 
                            "dur": 20, 
                            "type": "note", 
                            "channel": 9
                        }
                    ]
                ], 
                [
                    7320, 
                    [
                        {
                            "pitch": 38, 
                            "t0": 7320, 
                            "v": 110, 
                            "dur": 42, 
                            "type": "note", 
                            "channel": 9
                        }
                    ]
                ], 
                [
                    7400, 
                    [
                        {
                            "pitch": 38, 
                            "t0": 7400, 
                            "v": 86, 
                            "dur": 23, 
                            "type": "note", 
                            "channel": 9
                        }
                    ]
                ], 
                [
                    7440, 
                    [
                        {
                            "pitch": 36, 
                            "t0": 7440, 
                            "v": 104, 
                            "dur": 50, 
                            "type": "note", 
                            "channel": 9
                        }
                    ]
                ], 
                [
                    7520, 
                    [
                        {
                            "pitch": 38, 
                            "t0": 7520, 
                            "v": 95, 
                            "dur": 20, 
                            "type": "note", 
                            "channel": 9
                        }
                    ]
                ], 
                [
                    7560, 
                    [
                        {
                            "pitch": 38, 
                            "t0": 7560, 
                            "v": 106, 
                            "dur": 42, 
                            "type": "note", 
                            "channel": 9
                        }
                    ]
                ], 
                [
                    7640, 
                    [
                        {
                            "pitch": 38, 
                            "t0": 7640, 
                            "v": 98, 
                            "dur": 21, 
                            "type": "note", 
                            "channel": 9
                        }
                    ]
                ], 
                [
                    7680, 
                    [
                        {
                            "pitch": 49, 
                            "t0": 7680, 
                            "v": 104, 
                            "dur": 31, 
                            "type": "note", 
                            "channel": 9
                        }, 
                        {
                            "pitch": 36, 
                            "t0": 7680, 
                            "v": 114, 
                            "dur": 43, 
                            "type": "note", 
                            "channel": 9
                        }
                    ]
                ], 
                [
                    8000, 
                    [
                        {
                            "pitch": 47, 
                            "t0": 8000, 
                            "v": 112, 
                            "dur": 19, 
                            "type": "note", 
                            "channel": 9
                        }
                    ]
                ], 
                [
                    8040, 
                    [
                        {
                            "pitch": 47, 
                            "t0": 8040, 
                            "v": 125, 
                            "dur": 44, 
                            "type": "note", 
                            "channel": 9
                        }
                    ]
                ], 
                [
                    8120, 
                    [
                        {
                            "pitch": 47, 
                            "t0": 8120, 
                            "v": 81, 
                            "dur": 21, 
                            "type": "note", 
                            "channel": 9
                        }
                    ]
                ], 
                [
                    8160, 
                    [
                        {
                            "pitch": 49, 
                            "t0": 8160, 
                            "v": 101, 
                            "dur": 46, 
                            "type": "note", 
                            "channel": 9
                        }, 
                        {
                            "pitch": 36, 
                            "t0": 8160, 
                            "v": 102, 
                            "dur": 47, 
                            "type": "note", 
                            "channel": 9
                        }
                    ]
                ], 
                [
                    8280, 
                    [
                        {
                            "pitch": 37, 
                            "t0": 8280, 
                            "v": 82, 
                            "dur": 40, 
                            "type": "note", 
                            "channel": 9
                        }
                    ]
                ], 
                [
                    8400, 
                    [
                        {
                            "pitch": 36, 
                            "t0": 8400, 
                            "v": 95, 
                            "dur": 37, 
                            "type": "note", 
                            "channel": 9
                        }
                    ]
                ], 
                [
                    8480, 
                    [
                        {
                            "pitch": 36, 
                            "t0": 8480, 
                            "v": 75, 
                            "dur": 25, 
                            "type": "note", 
                            "channel": 9
                        }
                    ]
                ], 
                [
                    8520, 
                    [
                        {
                            "pitch": 37, 
                            "t0": 8520, 
                            "v": 95, 
                            "dur": 44, 
                            "type": "note", 
                            "channel": 9
                        }
                    ]
                ], 
                [
                    8600, 
                    [
                        {
                            "pitch": 36, 
                            "t0": 8600, 
                            "v": 81, 
                            "dur": 23, 
                            "type": "note", 
                            "channel": 9
                        }
                    ]
                ], 
                [
                    8640, 
                    [
                        {
                            "pitch": 36, 
                            "t0": 8640, 
                            "v": 106, 
                            "dur": 97, 
                            "type": "note", 
                            "channel": 9
                        }
                    ]
                ], 
                [
                    8760, 
                    [
                        {
                            "pitch": 37, 
                            "t0": 8760, 
                            "v": 87, 
                            "dur": 33, 
                            "type": "note", 
                            "channel": 9
                        }
                    ]
                ], 
                [
                    8880, 
                    [
                        {
                            "pitch": 36, 
                            "t0": 8880, 
                            "v": 94, 
                            "dur": 27, 
                            "type": "note", 
                            "channel": 9
                        }, 
                        {
                            "pitch": 35, 
                            "t0": 8880, 
                            "v": 92, 
                            "dur": 27, 
                            "type": "note", 
                            "channel": 9
                        }
                    ]
                ], 
                [
                    8960, 
                    [
                        {
                            "pitch": 36, 
                            "t0": 8960, 
                            "v": 88, 
                            "dur": 19, 
                            "type": "note", 
                            "channel": 9
                        }
                    ]
                ], 
                [
                    9000, 
                    [
                        {
                            "pitch": 37, 
                            "t0": 9000, 
                            "v": 61, 
                            "dur": 46, 
                            "type": "note", 
                            "channel": 9
                        }
                    ]
                ], 
                [
                    9120, 
                    [
                        {
                            "pitch": 36, 
                            "t0": 9120, 
                            "v": 100, 
                            "dur": 53, 
                            "type": "note", 
                            "channel": 9
                        }
                    ]
                ], 
                [
                    9240, 
                    [
                        {
                            "pitch": 37, 
                            "t0": 9240, 
                            "v": 79, 
                            "dur": 42, 
                            "type": "note", 
                            "channel": 9
                        }
                    ]
                ], 
                [
                    9360, 
                    [
                        {
                            "pitch": 36, 
                            "t0": 9360, 
                            "v": 95, 
                            "dur": 46, 
                            "type": "note", 
                            "channel": 9
                        }
                    ]
                ], 
                [
                    9440, 
                    [
                        {
                            "pitch": 36, 
                            "t0": 9440, 
                            "v": 73, 
                            "dur": 27, 
                            "type": "note", 
                            "channel": 9
                        }
                    ]
                ], 
                [
                    9480, 
                    [
                        {
                            "pitch": 37, 
                            "t0": 9480, 
                            "v": 91, 
                            "dur": 45, 
                            "type": "note", 
                            "channel": 9
                        }
                    ]
                ], 
                [
                    9560, 
                    [
                        {
                            "pitch": 36, 
                            "t0": 9560, 
                            "v": 73, 
                            "dur": 22, 
                            "type": "note", 
                            "channel": 9
                        }
                    ]
                ], 
                [
                    9600, 
                    [
                        {
                            "pitch": 36, 
                            "t0": 9600, 
                            "v": 92, 
                            "dur": 106, 
                            "type": "note", 
                            "channel": 9
                        }
                    ]
                ], 
                [
                    9720, 
                    [
                        {
                            "pitch": 37, 
                            "t0": 9720, 
                            "v": 91, 
                            "dur": 43, 
                            "type": "note", 
                            "channel": 9
                        }
                    ]
                ], 
                [
                    9840, 
                    [
                        {
                            "pitch": 36, 
                            "t0": 9840, 
                            "v": 100, 
                            "dur": 39, 
                            "type": "note", 
                            "channel": 9
                        }
                    ]
                ], 
                [
                    9920, 
                    [
                        {
                            "pitch": 36, 
                            "t0": 9920, 
                            "v": 72, 
                            "dur": 27, 
                            "type": "note", 
                            "channel": 9
                        }
                    ]
                ], 
                [
                    9960, 
                    [
                        {
                            "pitch": 37, 
                            "t0": 9960, 
                            "v": 91, 
                            "dur": 44, 
                            "type": "note", 
                            "channel": 9
                        }
                    ]
                ], 
                [
                    10040, 
                    [
                        {
                            "pitch": 36, 
                            "t0": 10040, 
                            "v": 79, 
                            "dur": 21, 
                            "type": "note", 
                            "channel": 9
                        }
                    ]
                ], 
                [
                    10080, 
                    [
                        {
                            "pitch": 36, 
                            "t0": 10080, 
                            "v": 98, 
                            "dur": 106, 
                            "type": "note", 
                            "channel": 9
                        }
                    ]
                ], 
                [
                    10200, 
                    [
                        {
                            "pitch": 37, 
                            "t0": 10200, 
                            "v": 89, 
                            "dur": 39, 
                            "type": "note", 
                            "channel": 9
                        }
                    ]
                ], 
                [
                    10320, 
                    [
                        {
                            "pitch": 36, 
                            "t0": 10320, 
                            "v": 98, 
                            "dur": 45, 
                            "type": "note", 
                            "channel": 9
                        }
                    ]
                ], 
                [
                    10400, 
                    [
                        {
                            "pitch": 36, 
                            "t0": 10400, 
                            "v": 79, 
                            "dur": 25, 
                            "type": "note", 
                            "channel": 9
                        }
                    ]
                ], 
                [
                    10440, 
                    [
                        {
                            "pitch": 37, 
                            "t0": 10440, 
                            "v": 104, 
                            "dur": 45, 
                            "type": "note", 
                            "channel": 9
                        }
                    ]
                ], 
                [
                    10520, 
                    [
                        {
                            "pitch": 36, 
                            "t0": 10520, 
                            "v": 92, 
                            "dur": 21, 
                            "type": "note", 
                            "channel": 9
                        }
                    ]
                ], 
                [
                    10560, 
                    [
                        {
                            "pitch": 36, 
                            "t0": 10560, 
                            "v": 104, 
                            "dur": 96, 
                            "type": "note", 
                            "channel": 9
                        }
                    ]
                ], 
                [
                    10680, 
                    [
                        {
                            "pitch": 37, 
                            "t0": 10680, 
                            "v": 87, 
                            "dur": 39, 
                            "type": "note", 
                            "channel": 9
                        }
                    ]
                ], 
                [
                    10800, 
                    [
                        {
                            "pitch": 36, 
                            "t0": 10800, 
                            "v": 108, 
                            "dur": 29, 
                            "type": "note", 
                            "channel": 9
                        }
                    ]
                ], 
                [
                    10880, 
                    [
                        {
                            "pitch": 36, 
                            "t0": 10880, 
                            "v": 104, 
                            "dur": 24, 
                            "type": "note", 
                            "channel": 9
                        }
                    ]
                ], 
                [
                    10920, 
                    [
                        {
                            "pitch": 36, 
                            "t0": 10920, 
                            "v": 68, 
                            "dur": 19, 
                            "type": "note", 
                            "channel": 9
                        }, 
                        {
                            "pitch": 37, 
                            "t0": 10920, 
                            "v": 104, 
                            "dur": 29, 
                            "type": "note", 
                            "channel": 9
                        }
                    ]
                ], 
                [
                    11000, 
                    [
                        {
                            "pitch": 36, 
                            "t0": 11000, 
                            "v": 86, 
                            "dur": 20, 
                            "type": "note", 
                            "channel": 9
                        }
                    ]
                ], 
                [
                    11040, 
                    [
                        {
                            "pitch": 36, 
                            "t0": 11040, 
                            "v": 92, 
                            "dur": 91, 
                            "type": "note", 
                            "channel": 9
                        }
                    ]
                ], 
                [
                    11160, 
                    [
                        {
                            "pitch": 37, 
                            "t0": 11160, 
                            "v": 93, 
                            "dur": 31, 
                            "type": "note", 
                            "channel": 9
                        }
                    ]
                ], 
                [
                    11280, 
                    [
                        {
                            "pitch": 36, 
                            "t0": 11280, 
                            "v": 94, 
                            "dur": 31, 
                            "type": "note", 
                            "channel": 9
                        }
                    ]
                ], 
                [
                    11360, 
                    [
                        {
                            "pitch": 36, 
                            "t0": 11360, 
                            "v": 90, 
                            "dur": 23, 
                            "type": "note", 
                            "channel": 9
                        }
                    ]
                ], 
                [
                    11400, 
                    [
                        {
                            "pitch": 37, 
                            "t0": 11400, 
                            "v": 93, 
                            "dur": 35, 
                            "type": "note", 
                            "channel": 9
                        }
                    ]
                ], 
                [
                    11480, 
                    [
                        {
                            "pitch": 36, 
                            "t0": 11480, 
                            "v": 88, 
                            "dur": 19, 
                            "type": "note", 
                            "channel": 9
                        }
                    ]
                ], 
                [
                    11520, 
                    [
                        {
                            "pitch": 36, 
                            "t0": 11520, 
                            "v": 102, 
                            "dur": 93, 
                            "type": "note", 
                            "channel": 9
                        }
                    ]
                ], 
                [
                    11640, 
                    [
                        {
                            "pitch": 37, 
                            "t0": 11640, 
                            "v": 87, 
                            "dur": 33, 
                            "type": "note", 
                            "channel": 9
                        }
                    ]
                ], 
                [
                    11760, 
                    [
                        {
                            "pitch": 36, 
                            "t0": 11760, 
                            "v": 95, 
                            "dur": 34, 
                            "type": "note", 
                            "channel": 9
                        }
                    ]
                ], 
                [
                    11840, 
                    [
                        {
                            "pitch": 36, 
                            "t0": 11840, 
                            "v": 87, 
                            "dur": 22, 
                            "type": "note", 
                            "channel": 9
                        }
                    ]
                ], 
                [
                    11880, 
                    [
                        {
                            "pitch": 37, 
                            "t0": 11880, 
                            "v": 93, 
                            "dur": 41, 
                            "type": "note", 
                            "channel": 9
                        }
                    ]
                ], 
                [
                    12000, 
                    [
                        {
                            "pitch": 36, 
                            "t0": 12000, 
                            "v": 98, 
                            "dur": 81, 
                            "type": "note", 
                            "channel": 9
                        }
                    ]
                ], 
                [
                    12120, 
                    [
                        {
                            "pitch": 37, 
                            "t0": 12120, 
                            "v": 89, 
                            "dur": 29, 
                            "type": "note", 
                            "channel": 9
                        }
                    ]
                ], 
                [
                    12200, 
                    [
                        {
                            "pitch": 36, 
                            "t0": 12200, 
                            "v": 88, 
                            "dur": 18, 
                            "type": "note", 
                            "channel": 9
                        }
                    ]
                ], 
                [
                    12240, 
                    [
                        {
                            "pitch": 36, 
                            "t0": 12240, 
                            "v": 102, 
                            "dur": 99, 
                            "type": "note", 
                            "channel": 9
                        }
                    ]
                ], 
                [
                    12360, 
                    [
                        {
                            "pitch": 37, 
                            "t0": 12360, 
                            "v": 85, 
                            "dur": 31, 
                            "type": "note", 
                            "channel": 9
                        }
                    ]
                ], 
                [
                    12480, 
                    [
                        {
                            "pitch": 36, 
                            "t0": 12480, 
                            "v": 104, 
                            "dur": 38, 
                            "type": "note", 
                            "channel": 9
                        }
                    ]
                ], 
                [
                    12560, 
                    [
                        {
                            "pitch": 36, 
                            "t0": 12560, 
                            "v": 87, 
                            "dur": 23, 
                            "type": "note", 
                            "channel": 9
                        }
                    ]
                ], 
                [
                    12600, 
                    [
                        {
                            "pitch": 37, 
                            "t0": 12600, 
                            "v": 101, 
                            "dur": 42, 
                            "type": "note", 
                            "channel": 9
                        }
                    ]
                ], 
                [
                    12720, 
                    [
                        {
                            "pitch": 36, 
                            "t0": 12720, 
                            "v": 92, 
                            "dur": 39, 
                            "type": "note", 
                            "channel": 9
                        }
                    ]
                ], 
                [
                    12800, 
                    [
                        {
                            "pitch": 36, 
                            "t0": 12800, 
                            "v": 94, 
                            "dur": 22, 
                            "type": "note", 
                            "channel": 9
                        }
                    ]
                ], 
                [
                    12840, 
                    [
                        {
                            "pitch": 37, 
                            "t0": 12840, 
                            "v": 107, 
                            "dur": 39, 
                            "type": "note", 
                            "channel": 9
                        }
                    ]
                ], 
                [
                    12960, 
                    [
                        {
                            "pitch": 36, 
                            "t0": 12960, 
                            "v": 102, 
                            "dur": 79, 
                            "type": "note", 
                            "channel": 9
                        }
                    ]
                ], 
                [
                    13080, 
                    [
                        {
                            "pitch": 37, 
                            "t0": 13080, 
                            "v": 99, 
                            "dur": 35, 
                            "type": "note", 
                            "channel": 9
                        }
                    ]
                ], 
                [
                    13200, 
                    [
                        {
                            "pitch": 36, 
                            "t0": 13200, 
                            "v": 108, 
                            "dur": 33, 
                            "type": "note", 
                            "channel": 9
                        }
                    ]
                ], 
                [
                    13280, 
                    [
                        {
                            "pitch": 36, 
                            "t0": 13280, 
                            "v": 97, 
                            "dur": 21, 
                            "type": "note", 
                            "channel": 9
                        }
                    ]
                ], 
                [
                    13320, 
                    [
                        {
                            "pitch": 37, 
                            "t0": 13320, 
                            "v": 104, 
                            "dur": 37, 
                            "type": "note", 
                            "channel": 9
                        }
                    ]
                ], 
                [
                    13440, 
                    [
                        {
                            "pitch": 36, 
                            "t0": 13440, 
                            "v": 108, 
                            "dur": 47, 
                            "type": "note", 
                            "channel": 9
                        }
                    ]
                ], 
                [
                    13560, 
                    [
                        {
                            "pitch": 37, 
                            "t0": 13560, 
                            "v": 104, 
                            "dur": 26, 
                            "type": "note", 
                            "channel": 9
                        }
                    ]
                ], 
                [
                    13680, 
                    [
                        {
                            "pitch": 36, 
                            "t0": 13680, 
                            "v": 95, 
                            "dur": 28, 
                            "type": "note", 
                            "channel": 9
                        }
                    ]
                ], 
                [
                    13760, 
                    [
                        {
                            "pitch": 36, 
                            "t0": 13760, 
                            "v": 88, 
                            "dur": 19, 
                            "type": "note", 
                            "channel": 9
                        }
                    ]
                ], 
                [
                    13800, 
                    [
                        {
                            "pitch": 37, 
                            "t0": 13800, 
                            "v": 91, 
                            "dur": 34, 
                            "type": "note", 
                            "channel": 9
                        }
                    ]
                ], 
                [
                    13880, 
                    [
                        {
                            "pitch": 36, 
                            "t0": 13880, 
                            "v": 88, 
                            "dur": 17, 
                            "type": "note", 
                            "channel": 9
                        }
                    ]
                ], 
                [
                    13920, 
                    [
                        {
                            "pitch": 36, 
                            "t0": 13920, 
                            "v": 97, 
                            "dur": 93, 
                            "type": "note", 
                            "channel": 9
                        }
                    ]
                ], 
                [
                    14040, 
                    [
                        {
                            "pitch": 37, 
                            "t0": 14040, 
                            "v": 97, 
                            "dur": 30, 
                            "type": "note", 
                            "channel": 9
                        }
                    ]
                ], 
                [
                    14160, 
                    [
                        {
                            "pitch": 36, 
                            "t0": 14160, 
                            "v": 110, 
                            "dur": 24, 
                            "type": "note", 
                            "channel": 9
                        }
                    ]
                ], 
                [
                    14240, 
                    [
                        {
                            "pitch": 36, 
                            "t0": 14240, 
                            "v": 91, 
                            "dur": 23, 
                            "type": "note", 
                            "channel": 9
                        }
                    ]
                ], 
                [
                    14280, 
                    [
                        {
                            "pitch": 37, 
                            "t0": 14280, 
                            "v": 107, 
                            "dur": 32, 
                            "type": "note", 
                            "channel": 9
                        }
                    ]
                ], 
                [
                    14360, 
                    [
                        {
                            "pitch": 36, 
                            "t0": 14360, 
                            "v": 94, 
                            "dur": 18, 
                            "type": "note", 
                            "channel": 9
                        }
                    ]
                ], 
                [
                    14400, 
                    [
                        {
                            "pitch": 36, 
                            "t0": 14400, 
                            "v": 98, 
                            "dur": 92, 
                            "type": "note", 
                            "channel": 9
                        }
                    ]
                ], 
                [
                    14520, 
                    [
                        {
                            "pitch": 37, 
                            "t0": 14520, 
                            "v": 91, 
                            "dur": 35, 
                            "type": "note", 
                            "channel": 9
                        }
                    ]
                ], 
                [
                    14640, 
                    [
                        {
                            "pitch": 36, 
                            "t0": 14640, 
                            "v": 104, 
                            "dur": 30, 
                            "type": "note", 
                            "channel": 9
                        }
                    ]
                ], 
                [
                    14720, 
                    [
                        {
                            "pitch": 36, 
                            "t0": 14720, 
                            "v": 94, 
                            "dur": 21, 
                            "type": "note", 
                            "channel": 9
                        }
                    ]
                ], 
                [
                    14760, 
                    [
                        {
                            "pitch": 37, 
                            "t0": 14760, 
                            "v": 95, 
                            "dur": 38, 
                            "type": "note", 
                            "channel": 9
                        }
                    ]
                ], 
                [
                    14840, 
                    [
                        {
                            "pitch": 36, 
                            "t0": 14840, 
                            "v": 87, 
                            "dur": 19, 
                            "type": "note", 
                            "channel": 9
                        }
                    ]
                ], 
                [
                    14880, 
                    [
                        {
                            "pitch": 36, 
                            "t0": 14880, 
                            "v": 100, 
                            "dur": 53, 
                            "type": "note", 
                            "channel": 9
                        }
                    ]
                ], 
                [
                    15000, 
                    [
                        {
                            "pitch": 38, 
                            "t0": 15000, 
                            "v": 86, 
                            "dur": 27, 
                            "type": "note", 
                            "channel": 9
                        }
                    ]
                ], 
                [
                    15120, 
                    [
                        {
                            "pitch": 38, 
                            "t0": 15120, 
                            "v": 86, 
                            "dur": 26, 
                            "type": "note", 
                            "channel": 9
                        }, 
                        {
                            "pitch": 36, 
                            "t0": 15120, 
                            "v": 74, 
                            "dur": 34, 
                            "type": "note", 
                            "channel": 9
                        }
                    ]
                ], 
                [
                    15200, 
                    [
                        {
                            "pitch": 38, 
                            "t0": 15200, 
                            "v": 90, 
                            "dur": 19, 
                            "type": "note", 
                            "channel": 9
                        }
                    ]
                ], 
                [
                    15240, 
                    [
                        {
                            "pitch": 38, 
                            "t0": 15240, 
                            "v": 106, 
                            "dur": 44, 
                            "type": "note", 
                            "channel": 9
                        }
                    ]
                ], 
                [
                    15320, 
                    [
                        {
                            "pitch": 38, 
                            "t0": 15320, 
                            "v": 92, 
                            "dur": 20, 
                            "type": "note", 
                            "channel": 9
                        }
                    ]
                ], 
                [
                    15360, 
                    [
                        {
                            "pitch": 49, 
                            "t0": 15360, 
                            "v": 104, 
                            "dur": 31, 
                            "type": "note", 
                            "channel": 9
                        }, 
                        {
                            "pitch": 36, 
                            "t0": 15360, 
                            "v": 110, 
                            "dur": 41, 
                            "type": "note", 
                            "channel": 9
                        }
                    ]
                ], 
                [
                    15680, 
                    [
                        {
                            "pitch": 38, 
                            "t0": 15680, 
                            "v": 94, 
                            "dur": 21, 
                            "type": "note", 
                            "channel": 9
                        }
                    ]
                ], 
                [
                    15720, 
                    [
                        {
                            "pitch": 38, 
                            "t0": 15720, 
                            "v": 104, 
                            "dur": 43, 
                            "type": "note", 
                            "channel": 9
                        }
                    ]
                ], 
                [
                    15800, 
                    [
                        {
                            "pitch": 38, 
                            "t0": 15800, 
                            "v": 80, 
                            "dur": 17, 
                            "type": "note", 
                            "channel": 9
                        }
                    ]
                ], 
                [
                    15840, 
                    [
                        {
                            "pitch": 49, 
                            "t0": 15840, 
                            "v": 107, 
                            "dur": 30, 
                            "type": "note", 
                            "channel": 9
                        }, 
                        {
                            "pitch": 36, 
                            "t0": 15840, 
                            "v": 110, 
                            "dur": 57, 
                            "type": "note", 
                            "channel": 9
                        }
                    ]
                ], 
                [
                    15960, 
                    [
                        {
                            "pitch": 38, 
                            "t0": 15960, 
                            "v": 108, 
                            "dur": 33, 
                            "type": "note", 
                            "channel": 9
                        }
                    ]
                ], 
                [
                    16080, 
                    [
                        {
                            "pitch": 36, 
                            "t0": 16080, 
                            "v": 104, 
                            "dur": 30, 
                            "type": "note", 
                            "channel": 9
                        }
                    ]
                ], 
                [
                    16160, 
                    [
                        {
                            "pitch": 36, 
                            "t0": 16160, 
                            "v": 92, 
                            "dur": 22, 
                            "type": "note", 
                            "channel": 9
                        }
                    ]
                ], 
                [
                    16200, 
                    [
                        {
                            "pitch": 38, 
                            "t0": 16200, 
                            "v": 108, 
                            "dur": 40, 
                            "type": "note", 
                            "channel": 9
                        }
                    ]
                ], 
                [
                    16280, 
                    [
                        {
                            "pitch": 36, 
                            "t0": 16280, 
                            "v": 85, 
                            "dur": 20, 
                            "type": "note", 
                            "channel": 9
                        }
                    ]
                ], 
                [
                    16320, 
                    [
                        {
                            "pitch": 36, 
                            "t0": 16320, 
                            "v": 106, 
                            "dur": 93, 
                            "type": "note", 
                            "channel": 9
                        }
                    ]
                ], 
                [
                    16440, 
                    [
                        {
                            "pitch": 38, 
                            "t0": 16440, 
                            "v": 110, 
                            "dur": 35, 
                            "type": "note", 
                            "channel": 9
                        }
                    ]
                ], 
                [
                    16560, 
                    [
                        {
                            "pitch": 36, 
                            "t0": 16560, 
                            "v": 100, 
                            "dur": 29, 
                            "type": "note", 
                            "channel": 9
                        }
                    ]
                ], 
                [
                    16640, 
                    [
                        {
                            "pitch": 36, 
                            "t0": 16640, 
                            "v": 97, 
                            "dur": 21, 
                            "type": "note", 
                            "channel": 9
                        }
                    ]
                ], 
                [
                    16680, 
                    [
                        {
                            "pitch": 38, 
                            "t0": 16680, 
                            "v": 106, 
                            "dur": 42, 
                            "type": "note", 
                            "channel": 9
                        }
                    ]
                ], 
                [
                    16760, 
                    [
                        {
                            "pitch": 36, 
                            "t0": 16760, 
                            "v": 100, 
                            "dur": 20, 
                            "type": "note", 
                            "channel": 9
                        }
                    ]
                ], 
                [
                    16800, 
                    [
                        {
                            "pitch": 36, 
                            "t0": 16800, 
                            "v": 108, 
                            "dur": 77, 
                            "type": "note", 
                            "channel": 9
                        }
                    ]
                ], 
                [
                    16920, 
                    [
                        {
                            "pitch": 38, 
                            "t0": 16920, 
                            "v": 112, 
                            "dur": 37, 
                            "type": "note", 
                            "channel": 9
                        }
                    ]
                ], 
                [
                    17040, 
                    [
                        {
                            "pitch": 36, 
                            "t0": 17040, 
                            "v": 110, 
                            "dur": 33, 
                            "type": "note", 
                            "channel": 9
                        }
                    ]
                ], 
                [
                    17120, 
                    [
                        {
                            "pitch": 36, 
                            "t0": 17120, 
                            "v": 90, 
                            "dur": 21, 
                            "type": "note", 
                            "channel": 9
                        }
                    ]
                ], 
                [
                    17160, 
                    [
                        {
                            "pitch": 38, 
                            "t0": 17160, 
                            "v": 102, 
                            "dur": 39, 
                            "type": "note", 
                            "channel": 9
                        }
                    ]
                ], 
                [
                    17240, 
                    [
                        {
                            "pitch": 36, 
                            "t0": 17240, 
                            "v": 91, 
                            "dur": 21, 
                            "type": "note", 
                            "channel": 9
                        }
                    ]
                ], 
                [
                    17280, 
                    [
                        {
                            "pitch": 36, 
                            "t0": 17280, 
                            "v": 104, 
                            "dur": 88, 
                            "type": "note", 
                            "channel": 9
                        }
                    ]
                ], 
                [
                    17400, 
                    [
                        {
                            "pitch": 38, 
                            "t0": 17400, 
                            "v": 104, 
                            "dur": 31, 
                            "type": "note", 
                            "channel": 9
                        }
                    ]
                ], 
                [
                    17480, 
                    [
                        {
                            "pitch": 38, 
                            "t0": 17480, 
                            "v": 110, 
                            "dur": 23, 
                            "type": "note", 
                            "channel": 9
                        }
                    ]
                ], 
                [
                    17520, 
                    [
                        {
                            "pitch": 36, 
                            "t0": 17520, 
                            "v": 102, 
                            "dur": 35, 
                            "type": "note", 
                            "channel": 9
                        }
                    ]
                ], 
                [
                    17600, 
                    [
                        {
                            "pitch": 38, 
                            "t0": 17600, 
                            "v": 94, 
                            "dur": 19, 
                            "type": "note", 
                            "channel": 9
                        }
                    ]
                ], 
                [
                    17640, 
                    [
                        {
                            "pitch": 38, 
                            "t0": 17640, 
                            "v": 104, 
                            "dur": 40, 
                            "type": "note", 
                            "channel": 9
                        }
                    ]
                ], 
                [
                    17720, 
                    [
                        {
                            "pitch": 38, 
                            "t0": 17720, 
                            "v": 95, 
                            "dur": 20, 
                            "type": "note", 
                            "channel": 9
                        }
                    ]
                ], 
                [
                    17760, 
                    [
                        {
                            "pitch": 49, 
                            "t0": 17760, 
                            "v": 104, 
                            "dur": 33, 
                            "type": "note", 
                            "channel": 9
                        }, 
                        {
                            "pitch": 36, 
                            "t0": 17760, 
                            "v": 110, 
                            "dur": 59, 
                            "type": "note", 
                            "channel": 9
                        }
                    ]
                ], 
                [
                    17880, 
                    [
                        {
                            "pitch": 38, 
                            "t0": 17880, 
                            "v": 112, 
                            "dur": 35, 
                            "type": "note", 
                            "channel": 9
                        }
                    ]
                ], 
                [
                    18000, 
                    [
                        {
                            "pitch": 36, 
                            "t0": 18000, 
                            "v": 102, 
                            "dur": 43, 
                            "type": "note", 
                            "channel": 9
                        }
                    ]
                ], 
                [
                    18080, 
                    [
                        {
                            "pitch": 36, 
                            "t0": 18080, 
                            "v": 87, 
                            "dur": 23, 
                            "type": "note", 
                            "channel": 9
                        }
                    ]
                ], 
                [
                    18120, 
                    [
                        {
                            "pitch": 38, 
                            "t0": 18120, 
                            "v": 98, 
                            "dur": 47, 
                            "type": "note", 
                            "channel": 9
                        }
                    ]
                ], 
                [
                    18200, 
                    [
                        {
                            "pitch": 36, 
                            "t0": 18200, 
                            "v": 84, 
                            "dur": 19, 
                            "type": "note", 
                            "channel": 9
                        }
                    ]
                ], 
                [
                    18240, 
                    [
                        {
                            "pitch": 36, 
                            "t0": 18240, 
                            "v": 98, 
                            "dur": 98, 
                            "type": "note", 
                            "channel": 9
                        }
                    ]
                ], 
                [
                    18360, 
                    [
                        {
                            "pitch": 38, 
                            "t0": 18360, 
                            "v": 102, 
                            "dur": 38, 
                            "type": "note", 
                            "channel": 9
                        }
                    ]
                ], 
                [
                    18480, 
                    [
                        {
                            "pitch": 36, 
                            "t0": 18480, 
                            "v": 104, 
                            "dur": 46, 
                            "type": "note", 
                            "channel": 9
                        }
                    ]
                ], 
                [
                    18560, 
                    [
                        {
                            "pitch": 36, 
                            "t0": 18560, 
                            "v": 85, 
                            "dur": 23, 
                            "type": "note", 
                            "channel": 9
                        }
                    ]
                ], 
                [
                    18600, 
                    [
                        {
                            "pitch": 38, 
                            "t0": 18600, 
                            "v": 110, 
                            "dur": 46, 
                            "type": "note", 
                            "channel": 9
                        }
                    ]
                ], 
                [
                    18680, 
                    [
                        {
                            "pitch": 36, 
                            "t0": 18680, 
                            "v": 80, 
                            "dur": 19, 
                            "type": "note", 
                            "channel": 9
                        }
                    ]
                ], 
                [
                    18720, 
                    [
                        {
                            "pitch": 36, 
                            "t0": 18720, 
                            "v": 102, 
                            "dur": 59, 
                            "type": "note", 
                            "channel": 9
                        }
                    ]
                ], 
                [
                    18840, 
                    [
                        {
                            "pitch": 38, 
                            "t0": 18840, 
                            "v": 108, 
                            "dur": 39, 
                            "type": "note", 
                            "channel": 9
                        }
                    ]
                ], 
                [
                    18960, 
                    [
                        {
                            "pitch": 36, 
                            "t0": 18960, 
                            "v": 104, 
                            "dur": 30, 
                            "type": "note", 
                            "channel": 9
                        }
                    ]
                ], 
                [
                    19040, 
                    [
                        {
                            "pitch": 36, 
                            "t0": 19040, 
                            "v": 86, 
                            "dur": 22, 
                            "type": "note", 
                            "channel": 9
                        }
                    ]
                ], 
                [
                    19080, 
                    [
                        {
                            "pitch": 38, 
                            "t0": 19080, 
                            "v": 106, 
                            "dur": 40, 
                            "type": "note", 
                            "channel": 9
                        }
                    ]
                ], 
                [
                    19160, 
                    [
                        {
                            "pitch": 36, 
                            "t0": 19160, 
                            "v": 83, 
                            "dur": 15, 
                            "type": "note", 
                            "channel": 9
                        }
                    ]
                ], 
                [
                    19200, 
                    [
                        {
                            "pitch": 36, 
                            "t0": 19200, 
                            "v": 100, 
                            "dur": 45, 
                            "type": "note", 
                            "channel": 9
                        }
                    ]
                ], 
                [
                    19280, 
                    [
                        {
                            "pitch": 38, 
                            "t0": 19280, 
                            "v": 92, 
                            "dur": 21, 
                            "type": "note", 
                            "channel": 9
                        }
                    ]
                ], 
                [
                    19320, 
                    [
                        {
                            "pitch": 38, 
                            "t0": 19320, 
                            "v": 106, 
                            "dur": 41, 
                            "type": "note", 
                            "channel": 9
                        }
                    ]
                ], 
                [
                    19400, 
                    [
                        {
                            "pitch": 38, 
                            "t0": 19400, 
                            "v": 92, 
                            "dur": 19, 
                            "type": "note", 
                            "channel": 9
                        }
                    ]
                ], 
                [
                    19440, 
                    [
                        {
                            "pitch": 38, 
                            "t0": 19440, 
                            "v": 98, 
                            "dur": 43, 
                            "type": "note", 
                            "channel": 9
                        }
                    ]
                ], 
                [
                    19520, 
                    [
                        {
                            "pitch": 38, 
                            "t0": 19520, 
                            "v": 100, 
                            "dur": 22, 
                            "type": "note", 
                            "channel": 9
                        }
                    ]
                ], 
                [
                    19560, 
                    [
                        {
                            "pitch": 38, 
                            "t0": 19560, 
                            "v": 102, 
                            "dur": 39, 
                            "type": "note", 
                            "channel": 9
                        }
                    ]
                ], 
                [
                    19640, 
                    [
                        {
                            "pitch": 38, 
                            "t0": 19640, 
                            "v": 104, 
                            "dur": 20, 
                            "type": "note", 
                            "channel": 9
                        }
                    ]
                ], 
                [
                    19680, 
                    [
                        {
                            "pitch": 49, 
                            "t0": 19680, 
                            "v": 95, 
                            "dur": 34, 
                            "type": "note", 
                            "channel": 9
                        }, 
                        {
                            "pitch": 36, 
                            "t0": 19680, 
                            "v": 117, 
                            "dur": 49, 
                            "type": "note", 
                            "channel": 9
                        }
                    ]
                ], 
                [
                    19800, 
                    [
                        {
                            "pitch": 38, 
                            "t0": 19800, 
                            "v": 102, 
                            "dur": 29, 
                            "type": "note", 
                            "channel": 9
                        }
                    ]
                ], 
                [
                    19920, 
                    [
                        {
                            "pitch": 36, 
                            "t0": 19920, 
                            "v": 91, 
                            "dur": 31, 
                            "type": "note", 
                            "channel": 9
                        }
                    ]
                ], 
                [
                    20000, 
                    [
                        {
                            "pitch": 36, 
                            "t0": 20000, 
                            "v": 102, 
                            "dur": 21, 
                            "type": "note", 
                            "channel": 9
                        }
                    ]
                ], 
                [
                    20040, 
                    [
                        {
                            "pitch": 38, 
                            "t0": 20040, 
                            "v": 104, 
                            "dur": 36, 
                            "type": "note", 
                            "channel": 9
                        }
                    ]
                ], 
                [
                    20120, 
                    [
                        {
                            "pitch": 36, 
                            "t0": 20120, 
                            "v": 85, 
                            "dur": 18, 
                            "type": "note", 
                            "channel": 9
                        }
                    ]
                ], 
                [
                    20160, 
                    [
                        {
                            "pitch": 36, 
                            "t0": 20160, 
                            "v": 104, 
                            "dur": 85, 
                            "type": "note", 
                            "channel": 9
                        }
                    ]
                ], 
                [
                    20280, 
                    [
                        {
                            "pitch": 38, 
                            "t0": 20280, 
                            "v": 108, 
                            "dur": 33, 
                            "type": "note", 
                            "channel": 9
                        }
                    ]
                ], 
                [
                    20400, 
                    [
                        {
                            "pitch": 36, 
                            "t0": 20400, 
                            "v": 106, 
                            "dur": 28, 
                            "type": "note", 
                            "channel": 9
                        }
                    ]
                ], 
                [
                    20480, 
                    [
                        {
                            "pitch": 36, 
                            "t0": 20480, 
                            "v": 87, 
                            "dur": 22, 
                            "type": "note", 
                            "channel": 9
                        }
                    ]
                ], 
                [
                    20520, 
                    [
                        {
                            "pitch": 38, 
                            "t0": 20520, 
                            "v": 106, 
                            "dur": 47, 
                            "type": "note", 
                            "channel": 9
                        }
                    ]
                ], 
                [
                    20600, 
                    [
                        {
                            "pitch": 36, 
                            "t0": 20600, 
                            "v": 86, 
                            "dur": 19, 
                            "type": "note", 
                            "channel": 9
                        }
                    ]
                ], 
                [
                    20640, 
                    [
                        {
                            "pitch": 36, 
                            "t0": 20640, 
                            "v": 102, 
                            "dur": 69, 
                            "type": "note", 
                            "channel": 9
                        }
                    ]
                ], 
                [
                    20760, 
                    [
                        {
                            "pitch": 38, 
                            "t0": 20760, 
                            "v": 110, 
                            "dur": 38, 
                            "type": "note", 
                            "channel": 9
                        }
                    ]
                ], 
                [
                    20880, 
                    [
                        {
                            "pitch": 36, 
                            "t0": 20880, 
                            "v": 95, 
                            "dur": 32, 
                            "type": "note", 
                            "channel": 9
                        }
                    ]
                ], 
                [
                    20960, 
                    [
                        {
                            "pitch": 36, 
                            "t0": 20960, 
                            "v": 94, 
                            "dur": 17, 
                            "type": "note", 
                            "channel": 9
                        }
                    ]
                ], 
                [
                    21000, 
                    [
                        {
                            "pitch": 38, 
                            "t0": 21000, 
                            "v": 102, 
                            "dur": 43, 
                            "type": "note", 
                            "channel": 9
                        }
                    ]
                ], 
                [
                    21080, 
                    [
                        {
                            "pitch": 36, 
                            "t0": 21080, 
                            "v": 79, 
                            "dur": 20, 
                            "type": "note", 
                            "channel": 9
                        }
                    ]
                ], 
                [
                    21120, 
                    [
                        {
                            "pitch": 36, 
                            "t0": 21120, 
                            "v": 104, 
                            "dur": 95, 
                            "type": "note", 
                            "channel": 9
                        }
                    ]
                ], 
                [
                    21240, 
                    [
                        {
                            "pitch": 38, 
                            "t0": 21240, 
                            "v": 104, 
                            "dur": 42, 
                            "type": "note", 
                            "channel": 9
                        }
                    ]
                ], 
                [
                    21320, 
                    [
                        {
                            "pitch": 38, 
                            "t0": 21320, 
                            "v": 102, 
                            "dur": 18, 
                            "type": "note", 
                            "channel": 9
                        }
                    ]
                ], 
                [
                    21360, 
                    [
                        {
                            "pitch": 38, 
                            "t0": 21360, 
                            "v": 110, 
                            "dur": 39, 
                            "type": "note", 
                            "channel": 9
                        }
                    ]
                ], 
                [
                    21480, 
                    [
                        {
                            "pitch": 38, 
                            "t0": 21480, 
                            "v": 125, 
                            "dur": 31, 
                            "type": "note", 
                            "channel": 9
                        }
                    ]
                ], 
                [
                    21560, 
                    [
                        {
                            "pitch": 38, 
                            "t0": 21560, 
                            "v": 108, 
                            "dur": 19, 
                            "type": "note", 
                            "channel": 9
                        }
                    ]
                ], 
                [
                    21600, 
                    [
                        {
                            "pitch": 49, 
                            "t0": 21600, 
                            "v": 101, 
                            "dur": 29, 
                            "type": "note", 
                            "channel": 9
                        }, 
                        {
                            "pitch": 36, 
                            "t0": 21600, 
                            "v": 120, 
                            "dur": 52, 
                            "type": "note", 
                            "channel": 9
                        }
                    ]
                ], 
                [
                    21720, 
                    [
                        {
                            "pitch": 38, 
                            "t0": 21720, 
                            "v": 110, 
                            "dur": 27, 
                            "type": "note", 
                            "channel": 9
                        }
                    ]
                ], 
                [
                    21840, 
                    [
                        {
                            "pitch": 35, 
                            "t0": 21840, 
                            "v": 100, 
                            "dur": 12, 
                            "type": "note", 
                            "channel": 9
                        }, 
                        {
                            "pitch": 36, 
                            "t0": 21840, 
                            "v": 87, 
                            "dur": 32, 
                            "type": "note", 
                            "channel": 9
                        }
                    ]
                ], 
                [
                    21920, 
                    [
                        {
                            "pitch": 36, 
                            "t0": 21920, 
                            "v": 94, 
                            "dur": 20, 
                            "type": "note", 
                            "channel": 9
                        }
                    ]
                ], 
                [
                    21960, 
                    [
                        {
                            "pitch": 38, 
                            "t0": 21960, 
                            "v": 110, 
                            "dur": 42, 
                            "type": "note", 
                            "channel": 9
                        }
                    ]
                ], 
                [
                    22040, 
                    [
                        {
                            "pitch": 36, 
                            "t0": 22040, 
                            "v": 90, 
                            "dur": 17, 
                            "type": "note", 
                            "channel": 9
                        }
                    ]
                ], 
                [
                    22080, 
                    [
                        {
                            "pitch": 36, 
                            "t0": 22080, 
                            "v": 97, 
                            "dur": 53, 
                            "type": "note", 
                            "channel": 9
                        }
                    ]
                ], 
                [
                    22200, 
                    [
                        {
                            "pitch": 38, 
                            "t0": 22200, 
                            "v": 110, 
                            "dur": 29, 
                            "type": "note", 
                            "channel": 9
                        }
                    ]
                ], 
                [
                    22320, 
                    [
                        {
                            "pitch": 36, 
                            "t0": 22320, 
                            "v": 64, 
                            "dur": 49, 
                            "type": "note", 
                            "channel": 9
                        }
                    ]
                ], 
                [
                    22400, 
                    [
                        {
                            "pitch": 36, 
                            "t0": 22400, 
                            "v": 90, 
                            "dur": 19, 
                            "type": "note", 
                            "channel": 9
                        }
                    ]
                ], 
                [
                    22440, 
                    [
                        {
                            "pitch": 38, 
                            "t0": 22440, 
                            "v": 114, 
                            "dur": 42, 
                            "type": "note", 
                            "channel": 9
                        }
                    ]
                ], 
                [
                    22520, 
                    [
                        {
                            "pitch": 38, 
                            "t0": 22520, 
                            "v": 90, 
                            "dur": 20, 
                            "type": "note", 
                            "channel": 9
                        }
                    ]
                ], 
                [
                    22560, 
                    [
                        {
                            "pitch": 49, 
                            "t0": 22560, 
                            "v": 101, 
                            "dur": 20, 
                            "type": "note", 
                            "channel": 9
                        }, 
                        {
                            "pitch": 36, 
                            "t0": 22560, 
                            "v": 104, 
                            "dur": 46, 
                            "type": "note", 
                            "channel": 9
                        }
                    ]
                ], 
                [
                    22640, 
                    [
                        {
                            "pitch": 36, 
                            "t0": 22640, 
                            "v": 88, 
                            "dur": 22, 
                            "type": "note", 
                            "channel": 9
                        }
                    ]
                ], 
                [
                    22680, 
                    [
                        {
                            "pitch": 38, 
                            "t0": 22680, 
                            "v": 106, 
                            "dur": 43, 
                            "type": "note", 
                            "channel": 9
                        }
                    ]
                ], 
                [
                    22760, 
                    [
                        {
                            "pitch": 38, 
                            "t0": 22760, 
                            "v": 95, 
                            "dur": 21, 
                            "type": "note", 
                            "channel": 9
                        }
                    ]
                ], 
                [
                    22800, 
                    [
                        {
                            "pitch": 36, 
                            "t0": 22800, 
                            "v": 108, 
                            "dur": 50, 
                            "type": "note", 
                            "channel": 9
                        }
                    ]
                ], 
                [
                    22880, 
                    [
                        {
                            "pitch": 38, 
                            "t0": 22880, 
                            "v": 90, 
                            "dur": 18, 
                            "type": "note", 
                            "channel": 9
                        }
                    ]
                ], 
                [
                    22920, 
                    [
                        {
                            "pitch": 38, 
                            "t0": 22920, 
                            "v": 102, 
                            "dur": 40, 
                            "type": "note", 
                            "channel": 9
                        }
                    ]
                ], 
                [
                    23000, 
                    [
                        {
                            "pitch": 38, 
                            "t0": 23000, 
                            "v": 90, 
                            "dur": 20, 
                            "type": "note", 
                            "channel": 9
                        }
                    ]
                ], 
                [
                    23040, 
                    [
                        {
                            "pitch": 49, 
                            "t0": 23040, 
                            "v": 95, 
                            "dur": 25, 
                            "type": "note", 
                            "channel": 9
                        }, 
                        {
                            "pitch": 36, 
                            "t0": 23040, 
                            "v": 108, 
                            "dur": 45, 
                            "type": "note", 
                            "channel": 9
                        }
                    ]
                ], 
                [
                    23160, 
                    [
                        {
                            "pitch": 38, 
                            "t0": 23160, 
                            "v": 120, 
                            "dur": 29, 
                            "type": "note", 
                            "channel": 9
                        }
                    ]
                ], 
                [
                    23240, 
                    [
                        {
                            "pitch": 38, 
                            "t0": 23240, 
                            "v": 106, 
                            "dur": 16, 
                            "type": "note", 
                            "channel": 9
                        }
                    ]
                ], 
                [
                    23280, 
                    [
                        {
                            "pitch": 38, 
                            "t0": 23280, 
                            "v": 125, 
                            "dur": 33, 
                            "type": "note", 
                            "channel": 9
                        }
                    ]
                ], 
                [
                    23360, 
                    [
                        {
                            "pitch": 47, 
                            "t0": 23360, 
                            "v": 108, 
                            "dur": 18, 
                            "type": "note", 
                            "channel": 9
                        }
                    ]
                ], 
                [
                    23400, 
                    [
                        {
                            "pitch": 47, 
                            "t0": 23400, 
                            "v": 122, 
                            "dur": 46, 
                            "type": "note", 
                            "channel": 9
                        }
                    ]
                ], 
                [
                    23480, 
                    [
                        {
                            "pitch": 47, 
                            "t0": 23480, 
                            "v": 85, 
                            "dur": 19, 
                            "type": "note", 
                            "channel": 9
                        }
                    ]
                ], 
                [
                    23520, 
                    [
                        {
                            "pitch": 49, 
                            "t0": 23520, 
                            "v": 91, 
                            "dur": 41, 
                            "type": "note", 
                            "channel": 9
                        }, 
                        {
                            "pitch": 36, 
                            "t0": 23520, 
                            "v": 100, 
                            "dur": 53, 
                            "type": "note", 
                            "channel": 9
                        }
                    ]
                ], 
                [
                    23640, 
                    [
                        {
                            "pitch": 37, 
                            "t0": 23640, 
                            "v": 82, 
                            "dur": 38, 
                            "type": "note", 
                            "channel": 9
                        }
                    ]
                ], 
                [
                    23760, 
                    [
                        {
                            "pitch": 36, 
                            "t0": 23760, 
                            "v": 91, 
                            "dur": 39, 
                            "type": "note", 
                            "channel": 9
                        }
                    ]
                ], 
                [
                    23840, 
                    [
                        {
                            "pitch": 36, 
                            "t0": 23840, 
                            "v": 86, 
                            "dur": 23, 
                            "type": "note", 
                            "channel": 9
                        }
                    ]
                ], 
                [
                    23880, 
                    [
                        {
                            "pitch": 37, 
                            "t0": 23880, 
                            "v": 99, 
                            "dur": 40, 
                            "type": "note", 
                            "channel": 9
                        }
                    ]
                ], 
                [
                    23960, 
                    [
                        {
                            "pitch": 36, 
                            "t0": 23960, 
                            "v": 94, 
                            "dur": 15, 
                            "type": "note", 
                            "channel": 9
                        }
                    ]
                ], 
                [
                    24000, 
                    [
                        {
                            "pitch": 36, 
                            "t0": 24000, 
                            "v": 95, 
                            "dur": 97, 
                            "type": "note", 
                            "channel": 9
                        }
                    ]
                ], 
                [
                    24120, 
                    [
                        {
                            "pitch": 37, 
                            "t0": 24120, 
                            "v": 89, 
                            "dur": 31, 
                            "type": "note", 
                            "channel": 9
                        }
                    ]
                ], 
                [
                    24240, 
                    [
                        {
                            "pitch": 36, 
                            "t0": 24240, 
                            "v": 100, 
                            "dur": 38, 
                            "type": "note", 
                            "channel": 9
                        }
                    ]
                ], 
                [
                    24320, 
                    [
                        {
                            "pitch": 36, 
                            "t0": 24320, 
                            "v": 81, 
                            "dur": 23, 
                            "type": "note", 
                            "channel": 9
                        }
                    ]
                ], 
                [
                    24360, 
                    [
                        {
                            "pitch": 37, 
                            "t0": 24360, 
                            "v": 97, 
                            "dur": 41, 
                            "type": "note", 
                            "channel": 9
                        }
                    ]
                ], 
                [
                    24440, 
                    [
                        {
                            "pitch": 36, 
                            "t0": 24440, 
                            "v": 73, 
                            "dur": 21, 
                            "type": "note", 
                            "channel": 9
                        }
                    ]
                ], 
                [
                    24480, 
                    [
                        {
                            "pitch": 36, 
                            "t0": 24480, 
                            "v": 106, 
                            "dur": 92, 
                            "type": "note", 
                            "channel": 9
                        }
                    ]
                ], 
                [
                    24600, 
                    [
                        {
                            "pitch": 37, 
                            "t0": 24600, 
                            "v": 87, 
                            "dur": 35, 
                            "type": "note", 
                            "channel": 9
                        }
                    ]
                ], 
                [
                    24720, 
                    [
                        {
                            "pitch": 36, 
                            "t0": 24720, 
                            "v": 95, 
                            "dur": 31, 
                            "type": "note", 
                            "channel": 9
                        }
                    ]
                ], 
                [
                    24800, 
                    [
                        {
                            "pitch": 36, 
                            "t0": 24800, 
                            "v": 90, 
                            "dur": 25, 
                            "type": "note", 
                            "channel": 9
                        }
                    ]
                ], 
                [
                    24840, 
                    [
                        {
                            "pitch": 37, 
                            "t0": 24840, 
                            "v": 91, 
                            "dur": 38, 
                            "type": "note", 
                            "channel": 9
                        }
                    ]
                ], 
                [
                    24920, 
                    [
                        {
                            "pitch": 36, 
                            "t0": 24920, 
                            "v": 80, 
                            "dur": 19, 
                            "type": "note", 
                            "channel": 9
                        }
                    ]
                ], 
                [
                    24960, 
                    [
                        {
                            "pitch": 36, 
                            "t0": 24960, 
                            "v": 106, 
                            "dur": 95, 
                            "type": "note", 
                            "channel": 9
                        }
                    ]
                ], 
                [
                    25080, 
                    [
                        {
                            "pitch": 37, 
                            "t0": 25080, 
                            "v": 89, 
                            "dur": 34, 
                            "type": "note", 
                            "channel": 9
                        }
                    ]
                ], 
                [
                    25200, 
                    [
                        {
                            "pitch": 36, 
                            "t0": 25200, 
                            "v": 98, 
                            "dur": 35, 
                            "type": "note", 
                            "channel": 9
                        }
                    ]
                ], 
                [
                    25280, 
                    [
                        {
                            "pitch": 36, 
                            "t0": 25280, 
                            "v": 91, 
                            "dur": 23, 
                            "type": "note", 
                            "channel": 9
                        }
                    ]
                ], 
                [
                    25320, 
                    [
                        {
                            "pitch": 37, 
                            "t0": 25320, 
                            "v": 97, 
                            "dur": 41, 
                            "type": "note", 
                            "channel": 9
                        }
                    ]
                ], 
                [
                    25440, 
                    [
                        {
                            "pitch": 36, 
                            "t0": 25440, 
                            "v": 97, 
                            "dur": 57, 
                            "type": "note", 
                            "channel": 9
                        }
                    ]
                ], 
                [
                    25560, 
                    [
                        {
                            "pitch": 37, 
                            "t0": 25560, 
                            "v": 84, 
                            "dur": 35, 
                            "type": "note", 
                            "channel": 9
                        }
                    ]
                ], 
                [
                    25680, 
                    [
                        {
                            "pitch": 36, 
                            "t0": 25680, 
                            "v": 102, 
                            "dur": 33, 
                            "type": "note", 
                            "channel": 9
                        }
                    ]
                ], 
                [
                    25760, 
                    [
                        {
                            "pitch": 36, 
                            "t0": 25760, 
                            "v": 90, 
                            "dur": 26, 
                            "type": "note", 
                            "channel": 9
                        }
                    ]
                ], 
                [
                    25800, 
                    [
                        {
                            "pitch": 37, 
                            "t0": 25800, 
                            "v": 99, 
                            "dur": 42, 
                            "type": "note", 
                            "channel": 9
                        }
                    ]
                ], 
                [
                    25920, 
                    [
                        {
                            "pitch": 36, 
                            "t0": 25920, 
                            "v": 104, 
                            "dur": 51, 
                            "type": "note", 
                            "channel": 9
                        }
                    ]
                ], 
                [
                    26040, 
                    [
                        {
                            "pitch": 37, 
                            "t0": 26040, 
                            "v": 95, 
                            "dur": 38, 
                            "type": "note", 
                            "channel": 9
                        }
                    ]
                ], 
                [
                    26160, 
                    [
                        {
                            "pitch": 36, 
                            "t0": 26160, 
                            "v": 97, 
                            "dur": 34, 
                            "type": "note", 
                            "channel": 9
                        }
                    ]
                ], 
                [
                    26240, 
                    [
                        {
                            "pitch": 36, 
                            "t0": 26240, 
                            "v": 84, 
                            "dur": 22, 
                            "type": "note", 
                            "channel": 9
                        }
                    ]
                ], 
                [
                    26280, 
                    [
                        {
                            "pitch": 37, 
                            "t0": 26280, 
                            "v": 91, 
                            "dur": 38, 
                            "type": "note", 
                            "channel": 9
                        }
                    ]
                ], 
                [
                    26360, 
                    [
                        {
                            "pitch": 37, 
                            "t0": 26360, 
                            "v": 63, 
                            "dur": 15, 
                            "type": "note", 
                            "channel": 9
                        }, 
                        {
                            "pitch": 36, 
                            "t0": 26360, 
                            "v": 83, 
                            "dur": 19, 
                            "type": "note", 
                            "channel": 9
                        }
                    ]
                ], 
                [
                    26400, 
                    [
                        {
                            "pitch": 36, 
                            "t0": 26400, 
                            "v": 91, 
                            "dur": 96, 
                            "type": "note", 
                            "channel": 9
                        }
                    ]
                ], 
                [
                    26520, 
                    [
                        {
                            "pitch": 37, 
                            "t0": 26520, 
                            "v": 91, 
                            "dur": 43, 
                            "type": "note", 
                            "channel": 9
                        }
                    ]
                ], 
                [
                    26640, 
                    [
                        {
                            "pitch": 36, 
                            "t0": 26640, 
                            "v": 94, 
                            "dur": 45, 
                            "type": "note", 
                            "channel": 9
                        }
                    ]
                ], 
                [
                    26720, 
                    [
                        {
                            "pitch": 36, 
                            "t0": 26720, 
                            "v": 86, 
                            "dur": 25, 
                            "type": "note", 
                            "channel": 9
                        }
                    ]
                ], 
                [
                    26760, 
                    [
                        {
                            "pitch": 37, 
                            "t0": 26760, 
                            "v": 97, 
                            "dur": 43, 
                            "type": "note", 
                            "channel": 9
                        }
                    ]
                ], 
                [
                    26840, 
                    [
                        {
                            "pitch": 36, 
                            "t0": 26840, 
                            "v": 85, 
                            "dur": 24, 
                            "type": "note", 
                            "channel": 9
                        }
                    ]
                ], 
                [
                    26880, 
                    [
                        {
                            "pitch": 36, 
                            "t0": 26880, 
                            "v": 106, 
                            "dur": 44, 
                            "type": "note", 
                            "channel": 9
                        }
                    ]
                ], 
                [
                    26960, 
                    [
                        {
                            "pitch": 47, 
                            "t0": 26960, 
                            "v": 110, 
                            "dur": 21, 
                            "type": "note", 
                            "channel": 9
                        }
                    ]
                ], 
                [
                    27000, 
                    [
                        {
                            "pitch": 47, 
                            "t0": 27000, 
                            "v": 127, 
                            "dur": 51, 
                            "type": "note", 
                            "channel": 9
                        }
                    ]
                ], 
                [
                    27080, 
                    [
                        {
                            "pitch": 47, 
                            "t0": 27080, 
                            "v": 90, 
                            "dur": 24, 
                            "type": "note", 
                            "channel": 9
                        }
                    ]
                ], 
                [
                    27120, 
                    [
                        {
                            "pitch": 45, 
                            "t0": 27120, 
                            "v": 114, 
                            "dur": 57, 
                            "type": "note", 
                            "channel": 9
                        }
                    ]
                ], 
                [
                    27200, 
                    [
                        {
                            "pitch": 45, 
                            "t0": 27200, 
                            "v": 26, 
                            "dur": 32, 
                            "type": "note", 
                            "channel": 9
                        }
                    ]
                ], 
                [
                    27240, 
                    [
                        {
                            "pitch": 43, 
                            "t0": 27240, 
                            "v": 100, 
                            "dur": 36, 
                            "type": "note", 
                            "channel": 9
                        }
                    ]
                ], 
                [
                    27320, 
                    [
                        {
                            "pitch": 43, 
                            "t0": 27320, 
                            "v": 70, 
                            "dur": 23, 
                            "type": "note", 
                            "channel": 9
                        }
                    ]
                ], 
                [
                    27360, 
                    [
                        {
                            "pitch": 49, 
                            "t0": 27360, 
                            "v": 91, 
                            "dur": 35, 
                            "type": "note", 
                            "channel": 9
                        }, 
                        {
                            "pitch": 36, 
                            "t0": 27360, 
                            "v": 104, 
                            "dur": 65, 
                            "type": "note", 
                            "channel": 9
                        }
                    ]
                ], 
                [
                    27480, 
                    [
                        {
                            "pitch": 37, 
                            "t0": 27480, 
                            "v": 81, 
                            "dur": 42, 
                            "type": "note", 
                            "channel": 9
                        }
                    ]
                ], 
                [
                    27600, 
                    [
                        {
                            "pitch": 36, 
                            "t0": 27600, 
                            "v": 98, 
                            "dur": 42, 
                            "type": "note", 
                            "channel": 9
                        }
                    ]
                ], 
                [
                    27680, 
                    [
                        {
                            "pitch": 36, 
                            "t0": 27680, 
                            "v": 80, 
                            "dur": 25, 
                            "type": "note", 
                            "channel": 9
                        }
                    ]
                ], 
                [
                    27720, 
                    [
                        {
                            "pitch": 37, 
                            "t0": 27720, 
                            "v": 85, 
                            "dur": 43, 
                            "type": "note", 
                            "channel": 9
                        }
                    ]
                ], 
                [
                    27800, 
                    [
                        {
                            "pitch": 36, 
                            "t0": 27800, 
                            "v": 84, 
                            "dur": 25, 
                            "type": "note", 
                            "channel": 9
                        }
                    ]
                ], 
                [
                    27840, 
                    [
                        {
                            "pitch": 36, 
                            "t0": 27840, 
                            "v": 102, 
                            "dur": 97, 
                            "type": "note", 
                            "channel": 9
                        }
                    ]
                ], 
                [
                    27960, 
                    [
                        {
                            "pitch": 37, 
                            "t0": 27960, 
                            "v": 87, 
                            "dur": 45, 
                            "type": "note", 
                            "channel": 9
                        }
                    ]
                ], 
                [
                    28080, 
                    [
                        {
                            "pitch": 36, 
                            "t0": 28080, 
                            "v": 97, 
                            "dur": 39, 
                            "type": "note", 
                            "channel": 9
                        }
                    ]
                ], 
                [
                    28160, 
                    [
                        {
                            "pitch": 36, 
                            "t0": 28160, 
                            "v": 79, 
                            "dur": 27, 
                            "type": "note", 
                            "channel": 9
                        }
                    ]
                ], 
                [
                    28200, 
                    [
                        {
                            "pitch": 37, 
                            "t0": 28200, 
                            "v": 91, 
                            "dur": 43, 
                            "type": "note", 
                            "channel": 9
                        }
                    ]
                ], 
                [
                    28280, 
                    [
                        {
                            "pitch": 36, 
                            "t0": 28280, 
                            "v": 83, 
                            "dur": 23, 
                            "type": "note", 
                            "channel": 9
                        }
                    ]
                ], 
                [
                    28320, 
                    [
                        {
                            "pitch": 36, 
                            "t0": 28320, 
                            "v": 104, 
                            "dur": 102, 
                            "type": "note", 
                            "channel": 9
                        }
                    ]
                ], 
                [
                    28440, 
                    [
                        {
                            "pitch": 37, 
                            "t0": 28440, 
                            "v": 87, 
                            "dur": 43, 
                            "type": "note", 
                            "channel": 9
                        }
                    ]
                ], 
                [
                    28560, 
                    [
                        {
                            "pitch": 36, 
                            "t0": 28560, 
                            "v": 102, 
                            "dur": 48, 
                            "type": "note", 
                            "channel": 9
                        }
                    ]
                ], 
                [
                    28640, 
                    [
                        {
                            "pitch": 36, 
                            "t0": 28640, 
                            "v": 87, 
                            "dur": 26, 
                            "type": "note", 
                            "channel": 9
                        }
                    ]
                ], 
                [
                    28680, 
                    [
                        {
                            "pitch": 37, 
                            "t0": 28680, 
                            "v": 99, 
                            "dur": 43, 
                            "type": "note", 
                            "channel": 9
                        }
                    ]
                ], 
                [
                    28760, 
                    [
                        {
                            "pitch": 37, 
                            "t0": 28760, 
                            "v": 56, 
                            "dur": 15, 
                            "type": "note", 
                            "channel": 9
                        }, 
                        {
                            "pitch": 36, 
                            "t0": 28760, 
                            "v": 72, 
                            "dur": 20, 
                            "type": "note", 
                            "channel": 9
                        }
                    ]
                ], 
                [
                    28800, 
                    [
                        {
                            "pitch": 36, 
                            "t0": 28800, 
                            "v": 104, 
                            "dur": 102, 
                            "type": "note", 
                            "channel": 9
                        }
                    ]
                ], 
                [
                    28920, 
                    [
                        {
                            "pitch": 37, 
                            "t0": 28920, 
                            "v": 89, 
                            "dur": 45, 
                            "type": "note", 
                            "channel": 9
                        }
                    ]
                ], 
                [
                    29040, 
                    [
                        {
                            "pitch": 36, 
                            "t0": 29040, 
                            "v": 98, 
                            "dur": 42, 
                            "type": "note", 
                            "channel": 9
                        }
                    ]
                ], 
                [
                    29120, 
                    [
                        {
                            "pitch": 36, 
                            "t0": 29120, 
                            "v": 77, 
                            "dur": 26, 
                            "type": "note", 
                            "channel": 9
                        }
                    ]
                ], 
                [
                    29160, 
                    [
                        {
                            "pitch": 37, 
                            "t0": 29160, 
                            "v": 99, 
                            "dur": 42, 
                            "type": "note", 
                            "channel": 9
                        }
                    ]
                ], 
                [
                    29240, 
                    [
                        {
                            "pitch": 36, 
                            "t0": 29240, 
                            "v": 92, 
                            "dur": 20, 
                            "type": "note", 
                            "channel": 9
                        }
                    ]
                ], 
                [
                    29280, 
                    [
                        {
                            "pitch": 36, 
                            "t0": 29280, 
                            "v": 104, 
                            "dur": 88, 
                            "type": "note", 
                            "channel": 9
                        }
                    ]
                ], 
                [
                    29400, 
                    [
                        {
                            "pitch": 37, 
                            "t0": 29400, 
                            "v": 82, 
                            "dur": 46, 
                            "type": "note", 
                            "channel": 9
                        }
                    ]
                ], 
                [
                    29520, 
                    [
                        {
                            "pitch": 36, 
                            "t0": 29520, 
                            "v": 100, 
                            "dur": 45, 
                            "type": "note", 
                            "channel": 9
                        }
                    ]
                ], 
                [
                    29600, 
                    [
                        {
                            "pitch": 36, 
                            "t0": 29600, 
                            "v": 80, 
                            "dur": 27, 
                            "type": "note", 
                            "channel": 9
                        }
                    ]
                ], 
                [
                    29640, 
                    [
                        {
                            "pitch": 37, 
                            "t0": 29640, 
                            "v": 101, 
                            "dur": 41, 
                            "type": "note", 
                            "channel": 9
                        }
                    ]
                ], 
                [
                    29720, 
                    [
                        {
                            "pitch": 36, 
                            "t0": 29720, 
                            "v": 95, 
                            "dur": 21, 
                            "type": "note", 
                            "channel": 9
                        }
                    ]
                ], 
                [
                    29760, 
                    [
                        {
                            "pitch": 36, 
                            "t0": 29760, 
                            "v": 120, 
                            "dur": 108, 
                            "type": "note", 
                            "channel": 9
                        }
                    ]
                ], 
                [
                    29880, 
                    [
                        {
                            "pitch": 37, 
                            "t0": 29880, 
                            "v": 87, 
                            "dur": 41, 
                            "type": "note", 
                            "channel": 9
                        }
                    ]
                ], 
                [
                    30000, 
                    [
                        {
                            "pitch": 36, 
                            "t0": 30000, 
                            "v": 92, 
                            "dur": 42, 
                            "type": "note", 
                            "channel": 9
                        }
                    ]
                ], 
                [
                    30080, 
                    [
                        {
                            "pitch": 36, 
                            "t0": 30080, 
                            "v": 72, 
                            "dur": 26, 
                            "type": "note", 
                            "channel": 9
                        }
                    ]
                ], 
                [
                    30120, 
                    [
                        {
                            "pitch": 37, 
                            "t0": 30120, 
                            "v": 89, 
                            "dur": 38, 
                            "type": "note", 
                            "channel": 9
                        }
                    ]
                ], 
                [
                    30240, 
                    [
                        {
                            "pitch": 36, 
                            "t0": 30240, 
                            "v": 106, 
                            "dur": 47, 
                            "type": "note", 
                            "channel": 9
                        }
                    ]
                ], 
                [
                    30360, 
                    [
                        {
                            "pitch": 37, 
                            "t0": 30360, 
                            "v": 93, 
                            "dur": 24, 
                            "type": "note", 
                            "channel": 9
                        }
                    ]
                ], 
                [
                    30480, 
                    [
                        {
                            "pitch": 36, 
                            "t0": 30480, 
                            "v": 90, 
                            "dur": 28, 
                            "type": "note", 
                            "channel": 9
                        }
                    ]
                ], 
                [
                    30560, 
                    [
                        {
                            "pitch": 36, 
                            "t0": 30560, 
                            "v": 84, 
                            "dur": 22, 
                            "type": "note", 
                            "channel": 9
                        }
                    ]
                ], 
                [
                    30600, 
                    [
                        {
                            "pitch": 38, 
                            "t0": 30600, 
                            "v": 98, 
                            "dur": 35, 
                            "type": "note", 
                            "channel": 9
                        }
                    ]
                ], 
                [
                    30680, 
                    [
                        {
                            "pitch": 36, 
                            "t0": 30680, 
                            "v": 87, 
                            "dur": 20, 
                            "type": "note", 
                            "channel": 9
                        }
                    ]
                ], 
                [
                    30720, 
                    [
                        {
                            "pitch": 36, 
                            "t0": 30720, 
                            "v": 127, 
                            "dur": 47, 
                            "type": "note", 
                            "channel": 9
                        }
                    ]
                ], 
                [
                    31040, 
                    [
                        {
                            "pitch": 38, 
                            "t0": 31040, 
                            "v": 100, 
                            "dur": 20, 
                            "type": "note", 
                            "channel": 9
                        }
                    ]
                ], 
                [
                    31080, 
                    [
                        {
                            "pitch": 38, 
                            "t0": 31080, 
                            "v": 106, 
                            "dur": 40, 
                            "type": "note", 
                            "channel": 9
                        }
                    ]
                ], 
                [
                    31160, 
                    [
                        {
                            "pitch": 38, 
                            "t0": 31160, 
                            "v": 80, 
                            "dur": 21, 
                            "type": "note", 
                            "channel": 9
                        }
                    ]
                ], 
                [
                    31200, 
                    [
                        {
                            "pitch": 49, 
                            "t0": 31200, 
                            "v": 101, 
                            "dur": 29, 
                            "type": "note", 
                            "channel": 9
                        }, 
                        {
                            "pitch": 36, 
                            "t0": 31200, 
                            "v": 102, 
                            "dur": 53, 
                            "type": "note", 
                            "channel": 9
                        }
                    ]
                ], 
                [
                    31320, 
                    [
                        {
                            "pitch": 38, 
                            "t0": 31320, 
                            "v": 100, 
                            "dur": 31, 
                            "type": "note", 
                            "channel": 9
                        }
                    ]
                ], 
                [
                    31440, 
                    [
                        {
                            "pitch": 36, 
                            "t0": 31440, 
                            "v": 106, 
                            "dur": 28, 
                            "type": "note", 
                            "channel": 9
                        }
                    ]
                ], 
                [
                    31520, 
                    [
                        {
                            "pitch": 36, 
                            "t0": 31520, 
                            "v": 98, 
                            "dur": 23, 
                            "type": "note", 
                            "channel": 9
                        }
                    ]
                ], 
                [
                    31560, 
                    [
                        {
                            "pitch": 38, 
                            "t0": 31560, 
                            "v": 114, 
                            "dur": 44, 
                            "type": "note", 
                            "channel": 9
                        }
                    ]
                ], 
                [
                    31640, 
                    [
                        {
                            "pitch": 36, 
                            "t0": 31640, 
                            "v": 92, 
                            "dur": 21, 
                            "type": "note", 
                            "channel": 9
                        }
                    ]
                ], 
                [
                    31680, 
                    [
                        {
                            "pitch": 36, 
                            "t0": 31680, 
                            "v": 108, 
                            "dur": 73, 
                            "type": "note", 
                            "channel": 9
                        }
                    ]
                ], 
                [
                    31800, 
                    [
                        {
                            "pitch": 38, 
                            "t0": 31800, 
                            "v": 112, 
                            "dur": 39, 
                            "type": "note", 
                            "channel": 9
                        }
                    ]
                ], 
                [
                    31920, 
                    [
                        {
                            "pitch": 36, 
                            "t0": 31920, 
                            "v": 110, 
                            "dur": 39, 
                            "type": "note", 
                            "channel": 9
                        }
                    ]
                ], 
                [
                    32000, 
                    [
                        {
                            "pitch": 36, 
                            "t0": 32000, 
                            "v": 104, 
                            "dur": 21, 
                            "type": "note", 
                            "channel": 9
                        }
                    ]
                ], 
                [
                    32040, 
                    [
                        {
                            "pitch": 38, 
                            "t0": 32040, 
                            "v": 122, 
                            "dur": 44, 
                            "type": "note", 
                            "channel": 9
                        }
                    ]
                ], 
                [
                    32120, 
                    [
                        {
                            "pitch": 36, 
                            "t0": 32120, 
                            "v": 86, 
                            "dur": 21, 
                            "type": "note", 
                            "channel": 9
                        }
                    ]
                ], 
                [
                    32160, 
                    [
                        {
                            "pitch": 38, 
                            "t0": 32160, 
                            "v": 100, 
                            "dur": 29, 
                            "type": "note", 
                            "channel": 9
                        }, 
                        {
                            "pitch": 36, 
                            "t0": 32160, 
                            "v": 98, 
                            "dur": 91, 
                            "type": "note", 
                            "channel": 9
                        }
                    ]
                ], 
                [
                    32280, 
                    [
                        {
                            "pitch": 38, 
                            "t0": 32280, 
                            "v": 106, 
                            "dur": 49, 
                            "type": "note", 
                            "channel": 9
                        }
                    ]
                ], 
                [
                    32400, 
                    [
                        {
                            "pitch": 36, 
                            "t0": 32400, 
                            "v": 97, 
                            "dur": 42, 
                            "type": "note", 
                            "channel": 9
                        }
                    ]
                ], 
                [
                    32480, 
                    [
                        {
                            "pitch": 36, 
                            "t0": 32480, 
                            "v": 97, 
                            "dur": 20, 
                            "type": "note", 
                            "channel": 9
                        }
                    ]
                ], 
                [
                    32520, 
                    [
                        {
                            "pitch": 38, 
                            "t0": 32520, 
                            "v": 112, 
                            "dur": 44, 
                            "type": "note", 
                            "channel": 9
                        }
                    ]
                ], 
                [
                    32600, 
                    [
                        {
                            "pitch": 36, 
                            "t0": 32600, 
                            "v": 80, 
                            "dur": 20, 
                            "type": "note", 
                            "channel": 9
                        }
                    ]
                ], 
                [
                    32640, 
                    [
                        {
                            "pitch": 36, 
                            "t0": 32640, 
                            "v": 98, 
                            "dur": 50, 
                            "type": "note", 
                            "channel": 9
                        }
                    ]
                ], 
                [
                    32720, 
                    [
                        {
                            "pitch": 38, 
                            "t0": 32720, 
                            "v": 95, 
                            "dur": 20, 
                            "type": "note", 
                            "channel": 9
                        }
                    ]
                ], 
                [
                    32760, 
                    [
                        {
                            "pitch": 38, 
                            "t0": 32760, 
                            "v": 102, 
                            "dur": 40, 
                            "type": "note", 
                            "channel": 9
                        }
                    ]
                ], 
                [
                    32840, 
                    [
                        {
                            "pitch": 38, 
                            "t0": 32840, 
                            "v": 102, 
                            "dur": 20, 
                            "type": "note", 
                            "channel": 9
                        }
                    ]
                ], 
                [
                    32880, 
                    [
                        {
                            "pitch": 38, 
                            "t0": 32880, 
                            "v": 117, 
                            "dur": 40, 
                            "type": "note", 
                            "channel": 9
                        }
                    ]
                ], 
                [
                    32960, 
                    [
                        {
                            "pitch": 38, 
                            "t0": 32960, 
                            "v": 104, 
                            "dur": 20, 
                            "type": "note", 
                            "channel": 9
                        }
                    ]
                ], 
                [
                    33000, 
                    [
                        {
                            "pitch": 38, 
                            "t0": 33000, 
                            "v": 90, 
                            "dur": 21, 
                            "type": "note", 
                            "channel": 9
                        }
                    ]
                ], 
                [
                    33040, 
                    [
                        {
                            "pitch": 38, 
                            "t0": 33040, 
                            "v": 102, 
                            "dur": 21, 
                            "type": "note", 
                            "channel": 9
                        }
                    ]
                ], 
                [
                    33080, 
                    [
                        {
                            "pitch": 38, 
                            "t0": 33080, 
                            "v": 110, 
                            "dur": 24, 
                            "type": "note", 
                            "channel": 9
                        }
                    ]
                ], 
                [
                    33120, 
                    [
                        {
                            "pitch": 49, 
                            "t0": 33120, 
                            "v": 101, 
                            "dur": 30, 
                            "type": "note", 
                            "channel": 9
                        }, 
                        {
                            "pitch": 36, 
                            "t0": 33120, 
                            "v": 117, 
                            "dur": 53, 
                            "type": "note", 
                            "channel": 9
                        }
                    ]
                ], 
                [
                    33240, 
                    [
                        {
                            "pitch": 38, 
                            "t0": 33240, 
                            "v": 114, 
                            "dur": 36, 
                            "type": "note", 
                            "channel": 9
                        }
                    ]
                ], 
                [
                    33360, 
                    [
                        {
                            "pitch": 36, 
                            "t0": 33360, 
                            "v": 108, 
                            "dur": 37, 
                            "type": "note", 
                            "channel": 9
                        }
                    ]
                ], 
                [
                    33440, 
                    [
                        {
                            "pitch": 36, 
                            "t0": 33440, 
                            "v": 92, 
                            "dur": 21, 
                            "type": "note", 
                            "channel": 9
                        }
                    ]
                ], 
                [
                    33480, 
                    [
                        {
                            "pitch": 38, 
                            "t0": 33480, 
                            "v": 102, 
                            "dur": 41, 
                            "type": "note", 
                            "channel": 9
                        }
                    ]
                ], 
                [
                    33560, 
                    [
                        {
                            "pitch": 36, 
                            "t0": 33560, 
                            "v": 86, 
                            "dur": 20, 
                            "type": "note", 
                            "channel": 9
                        }
                    ]
                ], 
                [
                    33600, 
                    [
                        {
                            "pitch": 36, 
                            "t0": 33600, 
                            "v": 100, 
                            "dur": 75, 
                            "type": "note", 
                            "channel": 9
                        }
                    ]
                ], 
                [
                    33720, 
                    [
                        {
                            "pitch": 38, 
                            "t0": 33720, 
                            "v": 112, 
                            "dur": 33, 
                            "type": "note", 
                            "channel": 9
                        }
                    ]
                ], 
                [
                    33840, 
                    [
                        {
                            "pitch": 36, 
                            "t0": 33840, 
                            "v": 110, 
                            "dur": 42, 
                            "type": "note", 
                            "channel": 9
                        }
                    ]
                ], 
                [
                    33920, 
                    [
                        {
                            "pitch": 36, 
                            "t0": 33920, 
                            "v": 76, 
                            "dur": 21, 
                            "type": "note", 
                            "channel": 9
                        }
                    ]
                ], 
                [
                    33960, 
                    [
                        {
                            "pitch": 38, 
                            "t0": 33960, 
                            "v": 110, 
                            "dur": 43, 
                            "type": "note", 
                            "channel": 9
                        }
                    ]
                ], 
                [
                    34040, 
                    [
                        {
                            "pitch": 36, 
                            "t0": 34040, 
                            "v": 94, 
                            "dur": 19, 
                            "type": "note", 
                            "channel": 9
                        }
                    ]
                ], 
                [
                    34080, 
                    [
                        {
                            "pitch": 36, 
                            "t0": 34080, 
                            "v": 106, 
                            "dur": 93, 
                            "type": "note", 
                            "channel": 9
                        }
                    ]
                ], 
                [
                    34200, 
                    [
                        {
                            "pitch": 38, 
                            "t0": 34200, 
                            "v": 104, 
                            "dur": 35, 
                            "type": "note", 
                            "channel": 9
                        }
                    ]
                ], 
                [
                    34320, 
                    [
                        {
                            "pitch": 36, 
                            "t0": 34320, 
                            "v": 106, 
                            "dur": 26, 
                            "type": "note", 
                            "channel": 9
                        }
                    ]
                ], 
                [
                    34400, 
                    [
                        {
                            "pitch": 36, 
                            "t0": 34400, 
                            "v": 102, 
                            "dur": 22, 
                            "type": "note", 
                            "channel": 9
                        }
                    ]
                ], 
                [
                    34440, 
                    [
                        {
                            "pitch": 38, 
                            "t0": 34440, 
                            "v": 114, 
                            "dur": 34, 
                            "type": "note", 
                            "channel": 9
                        }
                    ]
                ], 
                [
                    34520, 
                    [
                        {
                            "pitch": 36, 
                            "t0": 34520, 
                            "v": 90, 
                            "dur": 17, 
                            "type": "note", 
                            "channel": 9
                        }
                    ]
                ], 
                [
                    34560, 
                    [
                        {
                            "pitch": 36, 
                            "t0": 34560, 
                            "v": 97, 
                            "dur": 56, 
                            "type": "note", 
                            "channel": 9
                        }
                    ]
                ], 
                [
                    34680, 
                    [
                        {
                            "pitch": 38, 
                            "t0": 34680, 
                            "v": 110, 
                            "dur": 28, 
                            "type": "note", 
                            "channel": 9
                        }
                    ]
                ], 
                [
                    34760, 
                    [
                        {
                            "pitch": 36, 
                            "t0": 34760, 
                            "v": 90, 
                            "dur": 16, 
                            "type": "note", 
                            "channel": 9
                        }
                    ]
                ], 
                [
                    34800, 
                    [
                        {
                            "pitch": 36, 
                            "t0": 34800, 
                            "v": 102, 
                            "dur": 44, 
                            "type": "note", 
                            "channel": 9
                        }
                    ]
                ], 
                [
                    34920, 
                    [
                        {
                            "pitch": 38, 
                            "t0": 34920, 
                            "v": 110, 
                            "dur": 27, 
                            "type": "note", 
                            "channel": 9
                        }
                    ]
                ], 
                [
                    35000, 
                    [
                        {
                            "pitch": 38, 
                            "t0": 35000, 
                            "v": 86, 
                            "dur": 17, 
                            "type": "note", 
                            "channel": 9
                        }
                    ]
                ], 
                [
                    35040, 
                    [
                        {
                            "pitch": 36, 
                            "t0": 35040, 
                            "v": 94, 
                            "dur": 60, 
                            "type": "note", 
                            "channel": 9
                        }
                    ]
                ], 
                [
                    35160, 
                    [
                        {
                            "pitch": 38, 
                            "t0": 35160, 
                            "v": 108, 
                            "dur": 27, 
                            "type": "note", 
                            "channel": 9
                        }
                    ]
                ], 
                [
                    35240, 
                    [
                        {
                            "pitch": 38, 
                            "t0": 35240, 
                            "v": 74, 
                            "dur": 12, 
                            "type": "note", 
                            "channel": 9
                        }
                    ]
                ], 
                [
                    35280, 
                    [
                        {
                            "pitch": 36, 
                            "t0": 35280, 
                            "v": 97, 
                            "dur": 51, 
                            "type": "note", 
                            "channel": 9
                        }
                    ]
                ], 
                [
                    35400, 
                    [
                        {
                            "pitch": 38, 
                            "t0": 35400, 
                            "v": 108, 
                            "dur": 27, 
                            "type": "note", 
                            "channel": 9
                        }
                    ]
                ], 
                [
                    35480, 
                    [
                        {
                            "pitch": 38, 
                            "t0": 35480, 
                            "v": 80, 
                            "dur": 18, 
                            "type": "note", 
                            "channel": 9
                        }
                    ]
                ], 
                [
                    35520, 
                    [
                        {
                            "pitch": 36, 
                            "t0": 35520, 
                            "v": 86, 
                            "dur": 68, 
                            "type": "note", 
                            "channel": 9
                        }
                    ]
                ], 
                [
                    35640, 
                    [
                        {
                            "pitch": 38, 
                            "t0": 35640, 
                            "v": 108, 
                            "dur": 27, 
                            "type": "note", 
                            "channel": 9
                        }
                    ]
                ], 
                [
                    35720, 
                    [
                        {
                            "pitch": 38, 
                            "t0": 35720, 
                            "v": 92, 
                            "dur": 20, 
                            "type": "note", 
                            "channel": 9
                        }
                    ]
                ], 
                [
                    35760, 
                    [
                        {
                            "pitch": 36, 
                            "t0": 35760, 
                            "v": 100, 
                            "dur": 55, 
                            "type": "note", 
                            "channel": 9
                        }
                    ]
                ], 
                [
                    35880, 
                    [
                        {
                            "pitch": 38, 
                            "t0": 35880, 
                            "v": 106, 
                            "dur": 31, 
                            "type": "note", 
                            "channel": 9
                        }
                    ]
                ], 
                [
                    35960, 
                    [
                        {
                            "pitch": 38, 
                            "t0": 35960, 
                            "v": 88, 
                            "dur": 15, 
                            "type": "note", 
                            "channel": 9
                        }
                    ]
                ], 
                [
                    36000, 
                    [
                        {
                            "pitch": 36, 
                            "t0": 36000, 
                            "v": 102, 
                            "dur": 58, 
                            "type": "note", 
                            "channel": 9
                        }
                    ]
                ], 
                [
                    36120, 
                    [
                        {
                            "pitch": 38, 
                            "t0": 36120, 
                            "v": 108, 
                            "dur": 26, 
                            "type": "note", 
                            "channel": 9
                        }
                    ]
                ], 
                [
                    36240, 
                    [
                        {
                            "pitch": 36, 
                            "t0": 36240, 
                            "v": 104, 
                            "dur": 40, 
                            "type": "note", 
                            "channel": 9
                        }
                    ]
                ], 
                [
                    36320, 
                    [
                        {
                            "pitch": 36, 
                            "t0": 36320, 
                            "v": 78, 
                            "dur": 17, 
                            "type": "note", 
                            "channel": 9
                        }
                    ]
                ], 
                [
                    36360, 
                    [
                        {
                            "pitch": 38, 
                            "t0": 36360, 
                            "v": 108, 
                            "dur": 39, 
                            "type": "note", 
                            "channel": 9
                        }
                    ]
                ], 
                [
                    36480, 
                    [
                        {
                            "pitch": 36, 
                            "t0": 36480, 
                            "v": 102, 
                            "dur": 34, 
                            "type": "note", 
                            "channel": 9
                        }
                    ]
                ], 
                [
                    36600, 
                    [
                        {
                            "pitch": 38, 
                            "t0": 36600, 
                            "v": 102, 
                            "dur": 36, 
                            "type": "note", 
                            "channel": 9
                        }
                    ]
                ], 
                [
                    36720, 
                    [
                        {
                            "pitch": 36, 
                            "t0": 36720, 
                            "v": 102, 
                            "dur": 37, 
                            "type": "note", 
                            "channel": 9
                        }
                    ]
                ], 
                [
                    36840, 
                    [
                        {
                            "pitch": 38, 
                            "t0": 36840, 
                            "v": 104, 
                            "dur": 29, 
                            "type": "note", 
                            "channel": 9
                        }
                    ]
                ], 
                [
                    36960, 
                    [
                        {
                            "pitch": 36, 
                            "t0": 36960, 
                            "v": 106, 
                            "dur": 46, 
                            "type": "note", 
                            "channel": 9
                        }
                    ]
                ], 
                [
                    37080, 
                    [
                        {
                            "pitch": 38, 
                            "t0": 37080, 
                            "v": 108, 
                            "dur": 28, 
                            "type": "note", 
                            "channel": 9
                        }
                    ]
                ], 
                [
                    37200, 
                    [
                        {
                            "pitch": 36, 
                            "t0": 37200, 
                            "v": 106, 
                            "dur": 32, 
                            "type": "note", 
                            "channel": 9
                        }
                    ]
                ], 
                [
                    37280, 
                    [
                        {
                            "pitch": 36, 
                            "t0": 37280, 
                            "v": 90, 
                            "dur": 21, 
                            "type": "note", 
                            "channel": 9
                        }
                    ]
                ], 
                [
                    37320, 
                    [
                        {
                            "pitch": 38, 
                            "t0": 37320, 
                            "v": 106, 
                            "dur": 40, 
                            "type": "note", 
                            "channel": 9
                        }
                    ]
                ], 
                [
                    37400, 
                    [
                        {
                            "pitch": 36, 
                            "t0": 37400, 
                            "v": 80, 
                            "dur": 19, 
                            "type": "note", 
                            "channel": 9
                        }
                    ]
                ], 
                [
                    37440, 
                    [
                        {
                            "pitch": 36, 
                            "t0": 37440, 
                            "v": 110, 
                            "dur": 60, 
                            "type": "note", 
                            "channel": 9
                        }
                    ]
                ], 
                [
                    37560, 
                    [
                        {
                            "pitch": 38, 
                            "t0": 37560, 
                            "v": 110, 
                            "dur": 33, 
                            "type": "note", 
                            "channel": 9
                        }
                    ]
                ], 
                [
                    37680, 
                    [
                        {
                            "pitch": 36, 
                            "t0": 37680, 
                            "v": 110, 
                            "dur": 35, 
                            "type": "note", 
                            "channel": 9
                        }
                    ]
                ], 
                [
                    37800, 
                    [
                        {
                            "pitch": 38, 
                            "t0": 37800, 
                            "v": 106, 
                            "dur": 43, 
                            "type": "note", 
                            "channel": 9
                        }
                    ]
                ], 
                [
                    37920, 
                    [
                        {
                            "pitch": 36, 
                            "t0": 37920, 
                            "v": 104, 
                            "dur": 29, 
                            "type": "note", 
                            "channel": 9
                        }
                    ]
                ], 
                [
                    38000, 
                    [
                        {
                            "pitch": 36, 
                            "t0": 38000, 
                            "v": 100, 
                            "dur": 17, 
                            "type": "note", 
                            "channel": 9
                        }
                    ]
                ], 
                [
                    38040, 
                    [
                        {
                            "pitch": 38, 
                            "t0": 38040, 
                            "v": 108, 
                            "dur": 36, 
                            "type": "note", 
                            "channel": 9
                        }
                    ]
                ], 
                [
                    38120, 
                    [
                        {
                            "pitch": 38, 
                            "t0": 38120, 
                            "v": 100, 
                            "dur": 21, 
                            "type": "note", 
                            "channel": 9
                        }
                    ]
                ], 
                [
                    38160, 
                    [
                        {
                            "pitch": 36, 
                            "t0": 38160, 
                            "v": 110, 
                            "dur": 39, 
                            "type": "note", 
                            "channel": 9
                        }
                    ]
                ], 
                [
                    38240, 
                    [
                        {
                            "pitch": 38, 
                            "t0": 38240, 
                            "v": 97, 
                            "dur": 17, 
                            "type": "note", 
                            "channel": 9
                        }
                    ]
                ], 
                [
                    38280, 
                    [
                        {
                            "pitch": 38, 
                            "t0": 38280, 
                            "v": 106, 
                            "dur": 23, 
                            "type": "note", 
                            "channel": 9
                        }
                    ]
                ], 
                [
                    38320, 
                    [
                        {
                            "pitch": 38, 
                            "t0": 38320, 
                            "v": 98, 
                            "dur": 22, 
                            "type": "note", 
                            "channel": 9
                        }
                    ]
                ], 
                [
                    38360, 
                    [
                        {
                            "pitch": 38, 
                            "t0": 38360, 
                            "v": 110, 
                            "dur": 22, 
                            "type": "note", 
                            "channel": 9
                        }
                    ]
                ], 
                [
                    38400, 
                    [
                        {
                            "pitch": 49, 
                            "t0": 38400, 
                            "v": 68, 
                            "dur": 29, 
                            "type": "note", 
                            "channel": 9
                        }, 
                        {
                            "pitch": 36, 
                            "t0": 38400, 
                            "v": 114, 
                            "dur": 42, 
                            "type": "note", 
                            "channel": 9
                        }
                    ]
                ], 
                [
                    38720, 
                    [
                        {
                            "pitch": 38, 
                            "t0": 38720, 
                            "v": 84, 
                            "dur": 19, 
                            "type": "note", 
                            "channel": 9
                        }
                    ]
                ], 
                [
                    38760, 
                    [
                        {
                            "pitch": 38, 
                            "t0": 38760, 
                            "v": 104, 
                            "dur": 42, 
                            "type": "note", 
                            "channel": 9
                        }
                    ]
                ], 
                [
                    38840, 
                    [
                        {
                            "pitch": 38, 
                            "t0": 38840, 
                            "v": 85, 
                            "dur": 19, 
                            "type": "note", 
                            "channel": 9
                        }
                    ]
                ], 
                [
                    38880, 
                    [
                        {
                            "pitch": 49, 
                            "t0": 38880, 
                            "v": 99, 
                            "dur": 30, 
                            "type": "note", 
                            "channel": 9
                        }, 
                        {
                            "pitch": 36, 
                            "t0": 38880, 
                            "v": 106, 
                            "dur": 55, 
                            "type": "note", 
                            "channel": 9
                        }
                    ]
                ], 
                [
                    39000, 
                    [
                        {
                            "pitch": 38, 
                            "t0": 39000, 
                            "v": 112, 
                            "dur": 26, 
                            "type": "note", 
                            "channel": 9
                        }
                    ]
                ], 
                [
                    39120, 
                    [
                        {
                            "pitch": 36, 
                            "t0": 39120, 
                            "v": 102, 
                            "dur": 54, 
                            "type": "note", 
                            "channel": 9
                        }
                    ]
                ], 
                [
                    39240, 
                    [
                        {
                            "pitch": 37, 
                            "t0": 39240, 
                            "v": 87, 
                            "dur": 33, 
                            "type": "note", 
                            "channel": 9
                        }
                    ]
                ], 
                [
                    39320, 
                    [
                        {
                            "pitch": 36, 
                            "t0": 39320, 
                            "v": 88, 
                            "dur": 18, 
                            "type": "note", 
                            "channel": 9
                        }
                    ]
                ], 
                [
                    39360, 
                    [
                        {
                            "pitch": 36, 
                            "t0": 39360, 
                            "v": 95, 
                            "dur": 100, 
                            "type": "note", 
                            "channel": 9
                        }
                    ]
                ], 
                [
                    39480, 
                    [
                        {
                            "pitch": 37, 
                            "t0": 39480, 
                            "v": 93, 
                            "dur": 34, 
                            "type": "note", 
                            "channel": 9
                        }
                    ]
                ], 
                [
                    39600, 
                    [
                        {
                            "pitch": 36, 
                            "t0": 39600, 
                            "v": 94, 
                            "dur": 48, 
                            "type": "note", 
                            "channel": 9
                        }
                    ]
                ], 
                [
                    39720, 
                    [
                        {
                            "pitch": 37, 
                            "t0": 39720, 
                            "v": 91, 
                            "dur": 29, 
                            "type": "note", 
                            "channel": 9
                        }
                    ]
                ], 
                [
                    39800, 
                    [
                        {
                            "pitch": 36, 
                            "t0": 39800, 
                            "v": 86, 
                            "dur": 20, 
                            "type": "note", 
                            "channel": 9
                        }
                    ]
                ], 
                [
                    39840, 
                    [
                        {
                            "pitch": 36, 
                            "t0": 39840, 
                            "v": 106, 
                            "dur": 103, 
                            "type": "note", 
                            "channel": 9
                        }
                    ]
                ], 
                [
                    39960, 
                    [
                        {
                            "pitch": 37, 
                            "t0": 39960, 
                            "v": 93, 
                            "dur": 38, 
                            "type": "note", 
                            "channel": 9
                        }
                    ]
                ], 
                [
                    40080, 
                    [
                        {
                            "pitch": 36, 
                            "t0": 40080, 
                            "v": 91, 
                            "dur": 108, 
                            "type": "note", 
                            "channel": 9
                        }
                    ]
                ], 
                [
                    40200, 
                    [
                        {
                            "pitch": 37, 
                            "t0": 40200, 
                            "v": 87, 
                            "dur": 34, 
                            "type": "note", 
                            "channel": 9
                        }
                    ]
                ], 
                [
                    40280, 
                    [
                        {
                            "pitch": 36, 
                            "t0": 40280, 
                            "v": 91, 
                            "dur": 19, 
                            "type": "note", 
                            "channel": 9
                        }
                    ]
                ], 
                [
                    40320, 
                    [
                        {
                            "pitch": 36, 
                            "t0": 40320, 
                            "v": 106, 
                            "dur": 108, 
                            "type": "note", 
                            "channel": 9
                        }
                    ]
                ], 
                [
                    40440, 
                    [
                        {
                            "pitch": 37, 
                            "t0": 40440, 
                            "v": 89, 
                            "dur": 39, 
                            "type": "note", 
                            "channel": 9
                        }
                    ]
                ], 
                [
                    40560, 
                    [
                        {
                            "pitch": 36, 
                            "t0": 40560, 
                            "v": 98, 
                            "dur": 51, 
                            "type": "note", 
                            "channel": 9
                        }
                    ]
                ], 
                [
                    40640, 
                    [
                        {
                            "pitch": 36, 
                            "t0": 40640, 
                            "v": 77, 
                            "dur": 26, 
                            "type": "note", 
                            "channel": 9
                        }
                    ]
                ], 
                [
                    40680, 
                    [
                        {
                            "pitch": 37, 
                            "t0": 40680, 
                            "v": 95, 
                            "dur": 43, 
                            "type": "note", 
                            "channel": 9
                        }
                    ]
                ], 
                [
                    40760, 
                    [
                        {
                            "pitch": 36, 
                            "t0": 40760, 
                            "v": 80, 
                            "dur": 21, 
                            "type": "note", 
                            "channel": 9
                        }
                    ]
                ], 
                [
                    40800, 
                    [
                        {
                            "pitch": 36, 
                            "t0": 40800, 
                            "v": 106, 
                            "dur": 102, 
                            "type": "note", 
                            "channel": 9
                        }
                    ]
                ], 
                [
                    40920, 
                    [
                        {
                            "pitch": 37, 
                            "t0": 40920, 
                            "v": 89, 
                            "dur": 34, 
                            "type": "note", 
                            "channel": 9
                        }
                    ]
                ], 
                [
                    41040, 
                    [
                        {
                            "pitch": 36, 
                            "t0": 41040, 
                            "v": 102, 
                            "dur": 45, 
                            "type": "note", 
                            "channel": 9
                        }
                    ]
                ], 
                [
                    41120, 
                    [
                        {
                            "pitch": 36, 
                            "t0": 41120, 
                            "v": 88, 
                            "dur": 24, 
                            "type": "note", 
                            "channel": 9
                        }
                    ]
                ], 
                [
                    41160, 
                    [
                        {
                            "pitch": 37, 
                            "t0": 41160, 
                            "v": 101, 
                            "dur": 40, 
                            "type": "note", 
                            "channel": 9
                        }
                    ]
                ], 
                [
                    41280, 
                    [
                        {
                            "pitch": 36, 
                            "t0": 41280, 
                            "v": 102, 
                            "dur": 73, 
                            "type": "note", 
                            "channel": 9
                        }
                    ]
                ], 
                [
                    41360, 
                    [
                        {
                            "pitch": 36, 
                            "t0": 41360, 
                            "v": 61, 
                            "dur": 27, 
                            "type": "note", 
                            "channel": 9
                        }
                    ]
                ], 
                [
                    41400, 
                    [
                        {
                            "pitch": 37, 
                            "t0": 41400, 
                            "v": 91, 
                            "dur": 46, 
                            "type": "note", 
                            "channel": 9
                        }
                    ]
                ], 
                [
                    41520, 
                    [
                        {
                            "pitch": 36, 
                            "t0": 41520, 
                            "v": 106, 
                            "dur": 43, 
                            "type": "note", 
                            "channel": 9
                        }
                    ]
                ], 
                [
                    41600, 
                    [
                        {
                            "pitch": 36, 
                            "t0": 41600, 
                            "v": 84, 
                            "dur": 25, 
                            "type": "note", 
                            "channel": 9
                        }
                    ]
                ], 
                [
                    41640, 
                    [
                        {
                            "pitch": 37, 
                            "t0": 41640, 
                            "v": 87, 
                            "dur": 45, 
                            "type": "note", 
                            "channel": 9
                        }
                    ]
                ], 
                [
                    41760, 
                    [
                        {
                            "pitch": 36, 
                            "t0": 41760, 
                            "v": 100, 
                            "dur": 102, 
                            "type": "note", 
                            "channel": 9
                        }
                    ]
                ], 
                [
                    41880, 
                    [
                        {
                            "pitch": 37, 
                            "t0": 41880, 
                            "v": 89, 
                            "dur": 35, 
                            "type": "note", 
                            "channel": 9
                        }
                    ]
                ], 
                [
                    42000, 
                    [
                        {
                            "pitch": 36, 
                            "t0": 42000, 
                            "v": 102, 
                            "dur": 48, 
                            "type": "note", 
                            "channel": 9
                        }
                    ]
                ], 
                [
                    42080, 
                    [
                        {
                            "pitch": 36, 
                            "t0": 42080, 
                            "v": 87, 
                            "dur": 27, 
                            "type": "note", 
                            "channel": 9
                        }
                    ]
                ], 
                [
                    42120, 
                    [
                        {
                            "pitch": 37, 
                            "t0": 42120, 
                            "v": 84, 
                            "dur": 46, 
                            "type": "note", 
                            "channel": 9
                        }
                    ]
                ], 
                [
                    42200, 
                    [
                        {
                            "pitch": 36, 
                            "t0": 42200, 
                            "v": 97, 
                            "dur": 20, 
                            "type": "note", 
                            "channel": 9
                        }
                    ]
                ], 
                [
                    42240, 
                    [
                        {
                            "pitch": 36, 
                            "t0": 42240, 
                            "v": 122, 
                            "dur": 38, 
                            "type": "note", 
                            "channel": 9
                        }
                    ]
                ], 
                [
                    42320, 
                    [
                        {
                            "pitch": 48, 
                            "t0": 42320, 
                            "v": 102, 
                            "dur": 21, 
                            "type": "note", 
                            "channel": 9
                        }
                    ]
                ], 
                [
                    42360, 
                    [
                        {
                            "pitch": 48, 
                            "t0": 42360, 
                            "v": 114, 
                            "dur": 46, 
                            "type": "note", 
                            "channel": 9
                        }
                    ]
                ], 
                [
                    42440, 
                    [
                        {
                            "pitch": 48, 
                            "t0": 42440, 
                            "v": 90, 
                            "dur": 23, 
                            "type": "note", 
                            "channel": 9
                        }
                    ]
                ], 
                [
                    42480, 
                    [
                        {
                            "pitch": 47, 
                            "t0": 42480, 
                            "v": 122, 
                            "dur": 43, 
                            "type": "note", 
                            "channel": 9
                        }
                    ]
                ], 
                [
                    42560, 
                    [
                        {
                            "pitch": 47, 
                            "t0": 42560, 
                            "v": 87, 
                            "dur": 21, 
                            "type": "note", 
                            "channel": 9
                        }
                    ]
                ], 
                [
                    42600, 
                    [
                        {
                            "pitch": 45, 
                            "t0": 42600, 
                            "v": 108, 
                            "dur": 18, 
                            "type": "note", 
                            "channel": 9
                        }
                    ]
                ], 
                [
                    42640, 
                    [
                        {
                            "pitch": 45, 
                            "t0": 42640, 
                            "v": 100, 
                            "dur": 17, 
                            "type": "note", 
                            "channel": 9
                        }
                    ]
                ], 
                [
                    42680, 
                    [
                        {
                            "pitch": 45, 
                            "t0": 42680, 
                            "v": 102, 
                            "dur": 20, 
                            "type": "note", 
                            "channel": 9
                        }
                    ]
                ], 
                [
                    42720, 
                    [
                        {
                            "pitch": 49, 
                            "t0": 42720, 
                            "v": 101, 
                            "dur": 41, 
                            "type": "note", 
                            "channel": 9
                        }, 
                        {
                            "pitch": 36, 
                            "t0": 42720, 
                            "v": 94, 
                            "dur": 90, 
                            "type": "note", 
                            "channel": 9
                        }
                    ]
                ], 
                [
                    42840, 
                    [
                        {
                            "pitch": 37, 
                            "t0": 42840, 
                            "v": 82, 
                            "dur": 43, 
                            "type": "note", 
                            "channel": 9
                        }
                    ]
                ], 
                [
                    42960, 
                    [
                        {
                            "pitch": 36, 
                            "t0": 42960, 
                            "v": 100, 
                            "dur": 47, 
                            "type": "note", 
                            "channel": 9
                        }
                    ]
                ], 
                [
                    43040, 
                    [
                        {
                            "pitch": 36, 
                            "t0": 43040, 
                            "v": 81, 
                            "dur": 25, 
                            "type": "note", 
                            "channel": 9
                        }
                    ]
                ], 
                [
                    43080, 
                    [
                        {
                            "pitch": 37, 
                            "t0": 43080, 
                            "v": 93, 
                            "dur": 42, 
                            "type": "note", 
                            "channel": 9
                        }
                    ]
                ], 
                [
                    43160, 
                    [
                        {
                            "pitch": 37, 
                            "t0": 43160, 
                            "v": 67, 
                            "dur": 14, 
                            "type": "note", 
                            "channel": 9
                        }, 
                        {
                            "pitch": 36, 
                            "t0": 43160, 
                            "v": 77, 
                            "dur": 22, 
                            "type": "note", 
                            "channel": 9
                        }
                    ]
                ], 
                [
                    43200, 
                    [
                        {
                            "pitch": 36, 
                            "t0": 43200, 
                            "v": 110, 
                            "dur": 97, 
                            "type": "note", 
                            "channel": 9
                        }
                    ]
                ], 
                [
                    43320, 
                    [
                        {
                            "pitch": 37, 
                            "t0": 43320, 
                            "v": 87, 
                            "dur": 46, 
                            "type": "note", 
                            "channel": 9
                        }
                    ]
                ], 
                [
                    43440, 
                    [
                        {
                            "pitch": 36, 
                            "t0": 43440, 
                            "v": 100, 
                            "dur": 45, 
                            "type": "note", 
                            "channel": 9
                        }
                    ]
                ], 
                [
                    43520, 
                    [
                        {
                            "pitch": 36, 
                            "t0": 43520, 
                            "v": 75, 
                            "dur": 24, 
                            "type": "note", 
                            "channel": 9
                        }
                    ]
                ], 
                [
                    43560, 
                    [
                        {
                            "pitch": 37, 
                            "t0": 43560, 
                            "v": 97, 
                            "dur": 38, 
                            "type": "note", 
                            "channel": 9
                        }
                    ]
                ], 
                [
                    43640, 
                    [
                        {
                            "pitch": 36, 
                            "t0": 43640, 
                            "v": 81, 
                            "dur": 20, 
                            "type": "note", 
                            "channel": 9
                        }
                    ]
                ], 
                [
                    43680, 
                    [
                        {
                            "pitch": 36, 
                            "t0": 43680, 
                            "v": 98, 
                            "dur": 103, 
                            "type": "note", 
                            "channel": 9
                        }
                    ]
                ], 
                [
                    43800, 
                    [
                        {
                            "pitch": 37, 
                            "t0": 43800, 
                            "v": 93, 
                            "dur": 35, 
                            "type": "note", 
                            "channel": 9
                        }
                    ]
                ], 
                [
                    43920, 
                    [
                        {
                            "pitch": 36, 
                            "t0": 43920, 
                            "v": 98, 
                            "dur": 32, 
                            "type": "note", 
                            "channel": 9
                        }
                    ]
                ], 
                [
                    44000, 
                    [
                        {
                            "pitch": 36, 
                            "t0": 44000, 
                            "v": 91, 
                            "dur": 27, 
                            "type": "note", 
                            "channel": 9
                        }
                    ]
                ], 
                [
                    44040, 
                    [
                        {
                            "pitch": 37, 
                            "t0": 44040, 
                            "v": 82, 
                            "dur": 40, 
                            "type": "note", 
                            "channel": 9
                        }
                    ]
                ], 
                [
                    44120, 
                    [
                        {
                            "pitch": 36, 
                            "t0": 44120, 
                            "v": 91, 
                            "dur": 20, 
                            "type": "note", 
                            "channel": 9
                        }
                    ]
                ], 
                [
                    44160, 
                    [
                        {
                            "pitch": 36, 
                            "t0": 44160, 
                            "v": 106, 
                            "dur": 92, 
                            "type": "note", 
                            "channel": 9
                        }
                    ]
                ], 
                [
                    44280, 
                    [
                        {
                            "pitch": 37, 
                            "t0": 44280, 
                            "v": 79, 
                            "dur": 39, 
                            "type": "note", 
                            "channel": 9
                        }
                    ]
                ], 
                [
                    44400, 
                    [
                        {
                            "pitch": 36, 
                            "t0": 44400, 
                            "v": 94, 
                            "dur": 58, 
                            "type": "note", 
                            "channel": 9
                        }
                    ]
                ], 
                [
                    44480, 
                    [
                        {
                            "pitch": 36, 
                            "t0": 44480, 
                            "v": 81, 
                            "dur": 25, 
                            "type": "note", 
                            "channel": 9
                        }
                    ]
                ], 
                [
                    44520, 
                    [
                        {
                            "pitch": 37, 
                            "t0": 44520, 
                            "v": 116, 
                            "dur": 47, 
                            "type": "note", 
                            "channel": 9
                        }
                    ]
                ], 
                [
                    44600, 
                    [
                        {
                            "pitch": 36, 
                            "t0": 44600, 
                            "v": 100, 
                            "dur": 20, 
                            "type": "note", 
                            "channel": 9
                        }
                    ]
                ], 
                [
                    44640, 
                    [
                        {
                            "pitch": 36, 
                            "t0": 44640, 
                            "v": 114, 
                            "dur": 95, 
                            "type": "note", 
                            "channel": 9
                        }
                    ]
                ], 
                [
                    44760, 
                    [
                        {
                            "pitch": 37, 
                            "t0": 44760, 
                            "v": 93, 
                            "dur": 40, 
                            "type": "note", 
                            "channel": 9
                        }
                    ]
                ], 
                [
                    44880, 
                    [
                        {
                            "pitch": 36, 
                            "t0": 44880, 
                            "v": 104, 
                            "dur": 43, 
                            "type": "note", 
                            "channel": 9
                        }
                    ]
                ], 
                [
                    44960, 
                    [
                        {
                            "pitch": 36, 
                            "t0": 44960, 
                            "v": 90, 
                            "dur": 26, 
                            "type": "note", 
                            "channel": 9
                        }
                    ]
                ], 
                [
                    45000, 
                    [
                        {
                            "pitch": 37, 
                            "t0": 45000, 
                            "v": 95, 
                            "dur": 41, 
                            "type": "note", 
                            "channel": 9
                        }
                    ]
                ], 
                [
                    45080, 
                    [
                        {
                            "pitch": 36, 
                            "t0": 45080, 
                            "v": 78, 
                            "dur": 20, 
                            "type": "note", 
                            "channel": 9
                        }
                    ]
                ], 
                [
                    45120, 
                    [
                        {
                            "pitch": 36, 
                            "t0": 45120, 
                            "v": 102, 
                            "dur": 97, 
                            "type": "note", 
                            "channel": 9
                        }
                    ]
                ], 
                [
                    45240, 
                    [
                        {
                            "pitch": 37, 
                            "t0": 45240, 
                            "v": 93, 
                            "dur": 41, 
                            "type": "note", 
                            "channel": 9
                        }
                    ]
                ], 
                [
                    45360, 
                    [
                        {
                            "pitch": 36, 
                            "t0": 45360, 
                            "v": 106, 
                            "dur": 48, 
                            "type": "note", 
                            "channel": 9
                        }
                    ]
                ], 
                [
                    45440, 
                    [
                        {
                            "pitch": 36, 
                            "t0": 45440, 
                            "v": 81, 
                            "dur": 25, 
                            "type": "note", 
                            "channel": 9
                        }
                    ]
                ], 
                [
                    45480, 
                    [
                        {
                            "pitch": 37, 
                            "t0": 45480, 
                            "v": 99, 
                            "dur": 43, 
                            "type": "note", 
                            "channel": 9
                        }
                    ]
                ], 
                [
                    45560, 
                    [
                        {
                            "pitch": 36, 
                            "t0": 45560, 
                            "v": 85, 
                            "dur": 18, 
                            "type": "note", 
                            "channel": 9
                        }
                    ]
                ], 
                [
                    45600, 
                    [
                        {
                            "pitch": 49, 
                            "t0": 45600, 
                            "v": 116, 
                            "dur": 37, 
                            "type": "note", 
                            "channel": 9
                        }, 
                        {
                            "pitch": 36, 
                            "t0": 45600, 
                            "v": 120, 
                            "dur": 43, 
                            "type": "note", 
                            "channel": 9
                        }
                    ]
                ], 
                [
                    45680, 
                    [
                        {
                            "pitch": 48, 
                            "t0": 45680, 
                            "v": 122, 
                            "dur": 17, 
                            "type": "note", 
                            "channel": 9
                        }
                    ]
                ], 
                [
                    45720, 
                    [
                        {
                            "pitch": 48, 
                            "t0": 45720, 
                            "v": 112, 
                            "dur": 21, 
                            "type": "note", 
                            "channel": 9
                        }
                    ]
                ], 
                [
                    45760, 
                    [
                        {
                            "pitch": 48, 
                            "t0": 45760, 
                            "v": 112, 
                            "dur": 19, 
                            "type": "note", 
                            "channel": 9
                        }
                    ]
                ], 
                [
                    45800, 
                    [
                        {
                            "pitch": 48, 
                            "t0": 45800, 
                            "v": 106, 
                            "dur": 20, 
                            "type": "note", 
                            "channel": 9
                        }
                    ]
                ], 
                [
                    45840, 
                    [
                        {
                            "pitch": 47, 
                            "t0": 45840, 
                            "v": 122, 
                            "dur": 21, 
                            "type": "note", 
                            "channel": 9
                        }
                    ]
                ], 
                [
                    45880, 
                    [
                        {
                            "pitch": 47, 
                            "t0": 45880, 
                            "v": 98, 
                            "dur": 18, 
                            "type": "note", 
                            "channel": 9
                        }
                    ]
                ], 
                [
                    45920, 
                    [
                        {
                            "pitch": 47, 
                            "t0": 45920, 
                            "v": 100, 
                            "dur": 22, 
                            "type": "note", 
                            "channel": 9
                        }
                    ]
                ], 
                [
                    45960, 
                    [
                        {
                            "pitch": 45, 
                            "t0": 45960, 
                            "v": 104, 
                            "dur": 22, 
                            "type": "note", 
                            "channel": 9
                        }
                    ]
                ], 
                [
                    46000, 
                    [
                        {
                            "pitch": 45, 
                            "t0": 46000, 
                            "v": 106, 
                            "dur": 19, 
                            "type": "note", 
                            "channel": 9
                        }
                    ]
                ], 
                [
                    46040, 
                    [
                        {
                            "pitch": 45, 
                            "t0": 46040, 
                            "v": 104, 
                            "dur": 20, 
                            "type": "note", 
                            "channel": 9
                        }
                    ]
                ], 
                [
                    46080, 
                    [
                        {
                            "pitch": 49, 
                            "t0": 46080, 
                            "v": 127, 
                            "dur": 31, 
                            "type": "note", 
                            "channel": 9
                        }, 
                        {
                            "pitch": 36, 
                            "t0": 46080, 
                            "v": 117, 
                            "dur": 45, 
                            "type": "note", 
                            "channel": 9
                        }
                    ]
                ], 
                [
                    46400, 
                    [
                        {
                            "pitch": 38, 
                            "t0": 46400, 
                            "v": 102, 
                            "dur": 23, 
                            "type": "note", 
                            "channel": 9
                        }
                    ]
                ], 
                [
                    46440, 
                    [
                        {
                            "pitch": 38, 
                            "t0": 46440, 
                            "v": 114, 
                            "dur": 42, 
                            "type": "note", 
                            "channel": 9
                        }
                    ]
                ], 
                [
                    46520, 
                    [
                        {
                            "pitch": 38, 
                            "t0": 46520, 
                            "v": 104, 
                            "dur": 20, 
                            "type": "note", 
                            "channel": 9
                        }
                    ]
                ], 
                [
                    46560, 
                    [
                        {
                            "pitch": 49, 
                            "t0": 46560, 
                            "v": 104, 
                            "dur": 28, 
                            "type": "note", 
                            "channel": 9
                        }, 
                        {
                            "pitch": 36, 
                            "t0": 46560, 
                            "v": 117, 
                            "dur": 58, 
                            "type": "note", 
                            "channel": 9
                        }
                    ]
                ], 
                [
                    46680, 
                    [
                        {
                            "pitch": 38, 
                            "t0": 46680, 
                            "v": 112, 
                            "dur": 36, 
                            "type": "note", 
                            "channel": 9
                        }
                    ]
                ], 
                [
                    46800, 
                    [
                        {
                            "pitch": 36, 
                            "t0": 46800, 
                            "v": 106, 
                            "dur": 43, 
                            "type": "note", 
                            "channel": 9
                        }
                    ]
                ], 
                [
                    46880, 
                    [
                        {
                            "pitch": 36, 
                            "t0": 46880, 
                            "v": 91, 
                            "dur": 22, 
                            "type": "note", 
                            "channel": 9
                        }
                    ]
                ], 
                [
                    46920, 
                    [
                        {
                            "pitch": 38, 
                            "t0": 46920, 
                            "v": 110, 
                            "dur": 44, 
                            "type": "note", 
                            "channel": 9
                        }
                    ]
                ], 
                [
                    47000, 
                    [
                        {
                            "pitch": 36, 
                            "t0": 47000, 
                            "v": 95, 
                            "dur": 16, 
                            "type": "note", 
                            "channel": 9
                        }
                    ]
                ], 
                [
                    47040, 
                    [
                        {
                            "pitch": 36, 
                            "t0": 47040, 
                            "v": 112, 
                            "dur": 56, 
                            "type": "note", 
                            "channel": 9
                        }
                    ]
                ], 
                [
                    47160, 
                    [
                        {
                            "pitch": 38, 
                            "t0": 47160, 
                            "v": 112, 
                            "dur": 38, 
                            "type": "note", 
                            "channel": 9
                        }
                    ]
                ], 
                [
                    47280, 
                    [
                        {
                            "pitch": 36, 
                            "t0": 47280, 
                            "v": 110, 
                            "dur": 33, 
                            "type": "note", 
                            "channel": 9
                        }
                    ]
                ], 
                [
                    47360, 
                    [
                        {
                            "pitch": 36, 
                            "t0": 47360, 
                            "v": 97, 
                            "dur": 23, 
                            "type": "note", 
                            "channel": 9
                        }
                    ]
                ], 
                [
                    47400, 
                    [
                        {
                            "pitch": 38, 
                            "t0": 47400, 
                            "v": 110, 
                            "dur": 46, 
                            "type": "note", 
                            "channel": 9
                        }
                    ]
                ], 
                [
                    47480, 
                    [
                        {
                            "pitch": 38, 
                            "t0": 47480, 
                            "v": 100, 
                            "dur": 22, 
                            "type": "note", 
                            "channel": 9
                        }
                    ]
                ], 
                [
                    47520, 
                    [
                        {
                            "pitch": 36, 
                            "t0": 47520, 
                            "v": 122, 
                            "dur": 79, 
                            "type": "note", 
                            "channel": 9
                        }
                    ]
                ], 
                [
                    47640, 
                    [
                        {
                            "pitch": 38, 
                            "t0": 47640, 
                            "v": 110, 
                            "dur": 27, 
                            "type": "note", 
                            "channel": 9
                        }
                    ]
                ], 
                [
                    47720, 
                    [
                        {
                            "pitch": 38, 
                            "t0": 47720, 
                            "v": 100, 
                            "dur": 20, 
                            "type": "note", 
                            "channel": 9
                        }
                    ]
                ], 
                [
                    47760, 
                    [
                        {
                            "pitch": 36, 
                            "t0": 47760, 
                            "v": 106, 
                            "dur": 51, 
                            "type": "note", 
                            "channel": 9
                        }
                    ]
                ], 
                [
                    47880, 
                    [
                        {
                            "pitch": 38, 
                            "t0": 47880, 
                            "v": 112, 
                            "dur": 35, 
                            "type": "note", 
                            "channel": 9
                        }
                    ]
                ], 
                [
                    47960, 
                    [
                        {
                            "pitch": 38, 
                            "t0": 47960, 
                            "v": 95, 
                            "dur": 20, 
                            "type": "note", 
                            "channel": 9
                        }
                    ]
                ], 
                [
                    48000, 
                    [
                        {
                            "pitch": 36, 
                            "t0": 48000, 
                            "v": 106, 
                            "dur": 55, 
                            "type": "note", 
                            "channel": 9
                        }
                    ]
                ], 
                [
                    48120, 
                    [
                        {
                            "pitch": 38, 
                            "t0": 48120, 
                            "v": 98, 
                            "dur": 31, 
                            "type": "note", 
                            "channel": 9
                        }
                    ]
                ], 
                [
                    48200, 
                    [
                        {
                            "pitch": 38, 
                            "t0": 48200, 
                            "v": 100, 
                            "dur": 20, 
                            "type": "note", 
                            "channel": 9
                        }
                    ]
                ], 
                [
                    48240, 
                    [
                        {
                            "pitch": 36, 
                            "t0": 48240, 
                            "v": 94, 
                            "dur": 48, 
                            "type": "note", 
                            "channel": 9
                        }
                    ]
                ], 
                [
                    48320, 
                    [
                        {
                            "pitch": 38, 
                            "t0": 48320, 
                            "v": 94, 
                            "dur": 17, 
                            "type": "note", 
                            "channel": 9
                        }
                    ]
                ], 
                [
                    48360, 
                    [
                        {
                            "pitch": 38, 
                            "t0": 48360, 
                            "v": 94, 
                            "dur": 22, 
                            "type": "note", 
                            "channel": 9
                        }
                    ]
                ], 
                [
                    48400, 
                    [
                        {
                            "pitch": 38, 
                            "t0": 48400, 
                            "v": 91, 
                            "dur": 20, 
                            "type": "note", 
                            "channel": 9
                        }
                    ]
                ], 
                [
                    48440, 
                    [
                        {
                            "pitch": 38, 
                            "t0": 48440, 
                            "v": 97, 
                            "dur": 23, 
                            "type": "note", 
                            "channel": 9
                        }
                    ]
                ], 
                [
                    48480, 
                    [
                        {
                            "pitch": 49, 
                            "t0": 48480, 
                            "v": 91, 
                            "dur": 26, 
                            "type": "note", 
                            "channel": 9
                        }, 
                        {
                            "pitch": 36, 
                            "t0": 48480, 
                            "v": 110, 
                            "dur": 51, 
                            "type": "note", 
                            "channel": 9
                        }
                    ]
                ], 
                [
                    48600, 
                    [
                        {
                            "pitch": 38, 
                            "t0": 48600, 
                            "v": 106, 
                            "dur": 38, 
                            "type": "note", 
                            "channel": 9
                        }
                    ]
                ], 
                [
                    48720, 
                    [
                        {
                            "pitch": 36, 
                            "t0": 48720, 
                            "v": 104, 
                            "dur": 29, 
                            "type": "note", 
                            "channel": 9
                        }
                    ]
                ], 
                [
                    48800, 
                    [
                        {
                            "pitch": 36, 
                            "t0": 48800, 
                            "v": 92, 
                            "dur": 22, 
                            "type": "note", 
                            "channel": 9
                        }
                    ]
                ], 
                [
                    48840, 
                    [
                        {
                            "pitch": 38, 
                            "t0": 48840, 
                            "v": 106, 
                            "dur": 43, 
                            "type": "note", 
                            "channel": 9
                        }
                    ]
                ], 
                [
                    48920, 
                    [
                        {
                            "pitch": 36, 
                            "t0": 48920, 
                            "v": 85, 
                            "dur": 17, 
                            "type": "note", 
                            "channel": 9
                        }
                    ]
                ], 
                [
                    48960, 
                    [
                        {
                            "pitch": 36, 
                            "t0": 48960, 
                            "v": 98, 
                            "dur": 51, 
                            "type": "note", 
                            "channel": 9
                        }
                    ]
                ], 
                [
                    49040, 
                    [
                        {
                            "pitch": 38, 
                            "t0": 49040, 
                            "v": 98, 
                            "dur": 21, 
                            "type": "note", 
                            "channel": 9
                        }
                    ]
                ], 
                [
                    49080, 
                    [
                        {
                            "pitch": 36, 
                            "t0": 49080, 
                            "v": 110, 
                            "dur": 45, 
                            "type": "note", 
                            "channel": 9
                        }
                    ]
                ], 
                [
                    49160, 
                    [
                        {
                            "pitch": 38, 
                            "t0": 49160, 
                            "v": 92, 
                            "dur": 22, 
                            "type": "note", 
                            "channel": 9
                        }
                    ]
                ], 
                [
                    49200, 
                    [
                        {
                            "pitch": 36, 
                            "t0": 49200, 
                            "v": 108, 
                            "dur": 48, 
                            "type": "note", 
                            "channel": 9
                        }
                    ]
                ], 
                [
                    49280, 
                    [
                        {
                            "pitch": 38, 
                            "t0": 49280, 
                            "v": 91, 
                            "dur": 22, 
                            "type": "note", 
                            "channel": 9
                        }
                    ]
                ], 
                [
                    49320, 
                    [
                        {
                            "pitch": 36, 
                            "t0": 49320, 
                            "v": 112, 
                            "dur": 52, 
                            "type": "note", 
                            "channel": 9
                        }
                    ]
                ], 
                [
                    49400, 
                    [
                        {
                            "pitch": 38, 
                            "t0": 49400, 
                            "v": 98, 
                            "dur": 21, 
                            "type": "note", 
                            "channel": 9
                        }
                    ]
                ], 
                [
                    49440, 
                    [
                        {
                            "pitch": 49, 
                            "t0": 49440, 
                            "v": 95, 
                            "dur": 25, 
                            "type": "note", 
                            "channel": 9
                        }, 
                        {
                            "pitch": 36, 
                            "t0": 49440, 
                            "v": 117, 
                            "dur": 45, 
                            "type": "note", 
                            "channel": 9
                        }
                    ]
                ], 
                [
                    49520, 
                    [
                        {
                            "pitch": 36, 
                            "t0": 49520, 
                            "v": 98, 
                            "dur": 24, 
                            "type": "note", 
                            "channel": 9
                        }
                    ]
                ], 
                [
                    49560, 
                    [
                        {
                            "pitch": 38, 
                            "t0": 49560, 
                            "v": 117, 
                            "dur": 44, 
                            "type": "note", 
                            "channel": 9
                        }
                    ]
                ], 
                [
                    49640, 
                    [
                        {
                            "pitch": 38, 
                            "t0": 49640, 
                            "v": 97, 
                            "dur": 20, 
                            "type": "note", 
                            "channel": 9
                        }
                    ]
                ], 
                [
                    49680, 
                    [
                        {
                            "pitch": 36, 
                            "t0": 49680, 
                            "v": 112, 
                            "dur": 50, 
                            "type": "note", 
                            "channel": 9
                        }
                    ]
                ], 
                [
                    49760, 
                    [
                        {
                            "pitch": 38, 
                            "t0": 49760, 
                            "v": 100, 
                            "dur": 20, 
                            "type": "note", 
                            "channel": 9
                        }
                    ]
                ], 
                [
                    49800, 
                    [
                        {
                            "pitch": 36, 
                            "t0": 49800, 
                            "v": 122, 
                            "dur": 53, 
                            "type": "note", 
                            "channel": 9
                        }
                    ]
                ], 
                [
                    49880, 
                    [
                        {
                            "pitch": 38, 
                            "t0": 49880, 
                            "v": 94, 
                            "dur": 19, 
                            "type": "note", 
                            "channel": 9
                        }
                    ]
                ], 
                [
                    49920, 
                    [
                        {
                            "pitch": 36, 
                            "t0": 49920, 
                            "v": 122, 
                            "dur": 52, 
                            "type": "note", 
                            "channel": 9
                        }
                    ]
                ], 
                [
                    50000, 
                    [
                        {
                            "pitch": 38, 
                            "t0": 50000, 
                            "v": 97, 
                            "dur": 21, 
                            "type": "note", 
                            "channel": 9
                        }
                    ]
                ], 
                [
                    50040, 
                    [
                        {
                            "pitch": 49, 
                            "t0": 50040, 
                            "v": 104, 
                            "dur": 27, 
                            "type": "note", 
                            "channel": 9
                        }, 
                        {
                            "pitch": 36, 
                            "t0": 50040, 
                            "v": 127, 
                            "dur": 47, 
                            "type": "note", 
                            "channel": 9
                        }
                    ]
                ], 
                [
                    50120, 
                    [
                        {
                            "pitch": 38, 
                            "t0": 50120, 
                            "v": 88, 
                            "dur": 20, 
                            "type": "note", 
                            "channel": 9
                        }
                    ]
                ], 
                [
                    50160, 
                    [
                        {
                            "pitch": 49, 
                            "t0": 50160, 
                            "v": 91, 
                            "dur": 26, 
                            "type": "note", 
                            "channel": 9
                        }, 
                        {
                            "pitch": 36, 
                            "t0": 50160, 
                            "v": 108, 
                            "dur": 48, 
                            "type": "note", 
                            "channel": 9
                        }
                    ]
                ], 
                [
                    50240, 
                    [
                        {
                            "pitch": 38, 
                            "t0": 50240, 
                            "v": 95, 
                            "dur": 18, 
                            "type": "note", 
                            "channel": 9
                        }
                    ]
                ], 
                [
                    50280, 
                    [
                        {
                            "pitch": 49, 
                            "t0": 50280, 
                            "v": 97, 
                            "dur": 25, 
                            "type": "note", 
                            "channel": 9
                        }, 
                        {
                            "pitch": 36, 
                            "t0": 50280, 
                            "v": 122, 
                            "dur": 42, 
                            "type": "note", 
                            "channel": 9
                        }
                    ]
                ], 
                [
                    50360, 
                    [
                        {
                            "pitch": 38, 
                            "t0": 50360, 
                            "v": 106, 
                            "dur": 20, 
                            "type": "note", 
                            "channel": 9
                        }
                    ]
                ], 
                [
                    50400, 
                    [
                        {
                            "pitch": 52, 
                            "t0": 50400, 
                            "v": 102, 
                            "dur": 25, 
                            "type": "note", 
                            "channel": 9
                        }, 
                        {
                            "pitch": 36, 
                            "t0": 50400, 
                            "v": 125, 
                            "dur": 59, 
                            "type": "note", 
                            "channel": 9
                        }
                    ]
                ], 
                [
                    50520, 
                    [
                        {
                            "pitch": 38, 
                            "t0": 50520, 
                            "v": 127, 
                            "dur": 36, 
                            "type": "note", 
                            "channel": 9
                        }
                    ]
                ], 
                [
                    50640, 
                    [
                        {
                            "pitch": 36, 
                            "t0": 50640, 
                            "v": 110, 
                            "dur": 42, 
                            "type": "note", 
                            "channel": 9
                        }
                    ]
                ], 
                [
                    50720, 
                    [
                        {
                            "pitch": 36, 
                            "t0": 50720, 
                            "v": 94, 
                            "dur": 23, 
                            "type": "note", 
                            "channel": 9
                        }
                    ]
                ], 
                [
                    50760, 
                    [
                        {
                            "pitch": 51, 
                            "t0": 50760, 
                            "v": 81, 
                            "dur": 22, 
                            "type": "note", 
                            "channel": 9
                        }, 
                        {
                            "pitch": 38, 
                            "t0": 50760, 
                            "v": 108, 
                            "dur": 38, 
                            "type": "note", 
                            "channel": 9
                        }
                    ]
                ], 
                [
                    50880, 
                    [
                        {
                            "pitch": 38, 
                            "t0": 50880, 
                            "v": 112, 
                            "dur": 37, 
                            "type": "note", 
                            "channel": 9
                        }, 
                        {
                            "pitch": 36, 
                            "t0": 50880, 
                            "v": 97, 
                            "dur": 52, 
                            "type": "note", 
                            "channel": 9
                        }
                    ]
                ], 
                [
                    51000, 
                    [
                        {
                            "pitch": 38, 
                            "t0": 51000, 
                            "v": 110, 
                            "dur": 32, 
                            "type": "note", 
                            "channel": 9
                        }
                    ]
                ], 
                [
                    51120, 
                    [
                        {
                            "pitch": 36, 
                            "t0": 51120, 
                            "v": 100, 
                            "dur": 46, 
                            "type": "note", 
                            "channel": 9
                        }
                    ]
                ], 
                [
                    51240, 
                    [
                        {
                            "pitch": 38, 
                            "t0": 51240, 
                            "v": 100, 
                            "dur": 45, 
                            "type": "note", 
                            "channel": 9
                        }
                    ]
                ], 
                [
                    51360, 
                    [
                        {
                            "pitch": 36, 
                            "t0": 51360, 
                            "v": 104, 
                            "dur": 59, 
                            "type": "note", 
                            "channel": 9
                        }
                    ]
                ], 
                [
                    51480, 
                    [
                        {
                            "pitch": 36, 
                            "t0": 51480, 
                            "v": 100, 
                            "dur": 23, 
                            "type": "note", 
                            "channel": 9
                        }, 
                        {
                            "pitch": 38, 
                            "t0": 51480, 
                            "v": 88, 
                            "dur": 30, 
                            "type": "note", 
                            "channel": 9
                        }
                    ]
                ], 
                [
                    51560, 
                    [
                        {
                            "pitch": 38, 
                            "t0": 51560, 
                            "v": 95, 
                            "dur": 19, 
                            "type": "note", 
                            "channel": 9
                        }
                    ]
                ], 
                [
                    51600, 
                    [
                        {
                            "pitch": 36, 
                            "t0": 51600, 
                            "v": 108, 
                            "dur": 52, 
                            "type": "note", 
                            "channel": 9
                        }
                    ]
                ], 
                [
                    51720, 
                    [
                        {
                            "pitch": 38, 
                            "t0": 51720, 
                            "v": 110, 
                            "dur": 34, 
                            "type": "note", 
                            "channel": 9
                        }
                    ]
                ], 
                [
                    51800, 
                    [
                        {
                            "pitch": 38, 
                            "t0": 51800, 
                            "v": 92, 
                            "dur": 18, 
                            "type": "note", 
                            "channel": 9
                        }
                    ]
                ], 
                [
                    51840, 
                    [
                        {
                            "pitch": 36, 
                            "t0": 51840, 
                            "v": 106, 
                            "dur": 49, 
                            "type": "note", 
                            "channel": 9
                        }
                    ]
                ], 
                [
                    51920, 
                    [
                        {
                            "pitch": 38, 
                            "t0": 51920, 
                            "v": 104, 
                            "dur": 19, 
                            "type": "note", 
                            "channel": 9
                        }
                    ]
                ], 
                [
                    51960, 
                    [
                        {
                            "pitch": 49, 
                            "t0": 51960, 
                            "v": 97, 
                            "dur": 24, 
                            "type": "note", 
                            "channel": 9
                        }, 
                        {
                            "pitch": 36, 
                            "t0": 51960, 
                            "v": 120, 
                            "dur": 47, 
                            "type": "note", 
                            "channel": 9
                        }
                    ]
                ], 
                [
                    52040, 
                    [
                        {
                            "pitch": 38, 
                            "t0": 52040, 
                            "v": 87, 
                            "dur": 18, 
                            "type": "note", 
                            "channel": 9
                        }
                    ]
                ], 
                [
                    52080, 
                    [
                        {
                            "pitch": 49, 
                            "t0": 52080, 
                            "v": 107, 
                            "dur": 26, 
                            "type": "note", 
                            "channel": 9
                        }, 
                        {
                            "pitch": 36, 
                            "t0": 52080, 
                            "v": 110, 
                            "dur": 50, 
                            "type": "note", 
                            "channel": 9
                        }
                    ]
                ], 
                [
                    52160, 
                    [
                        {
                            "pitch": 38, 
                            "t0": 52160, 
                            "v": 92, 
                            "dur": 14, 
                            "type": "note", 
                            "channel": 9
                        }
                    ]
                ], 
                [
                    52200, 
                    [
                        {
                            "pitch": 49, 
                            "t0": 52200, 
                            "v": 101, 
                            "dur": 23, 
                            "type": "note", 
                            "channel": 9
                        }, 
                        {
                            "pitch": 36, 
                            "t0": 52200, 
                            "v": 117, 
                            "dur": 40, 
                            "type": "note", 
                            "channel": 9
                        }
                    ]
                ], 
                [
                    52280, 
                    [
                        {
                            "pitch": 38, 
                            "t0": 52280, 
                            "v": 90, 
                            "dur": 19, 
                            "type": "note", 
                            "channel": 9
                        }
                    ]
                ], 
                [
                    52320, 
                    [
                        {
                            "pitch": 52, 
                            "t0": 52320, 
                            "v": 87, 
                            "dur": 27, 
                            "type": "note", 
                            "channel": 9
                        }, 
                        {
                            "pitch": 36, 
                            "t0": 52320, 
                            "v": 120, 
                            "dur": 52, 
                            "type": "note", 
                            "channel": 9
                        }
                    ]
                ], 
                [
                    52440, 
                    [
                        {
                            "pitch": 38, 
                            "t0": 52440, 
                            "v": 120, 
                            "dur": 36, 
                            "type": "note", 
                            "channel": 9
                        }
                    ]
                ], 
                [
                    52560, 
                    [
                        {
                            "pitch": 36, 
                            "t0": 52560, 
                            "v": 110, 
                            "dur": 36, 
                            "type": "note", 
                            "channel": 9
                        }
                    ]
                ], 
                [
                    52640, 
                    [
                        {
                            "pitch": 36, 
                            "t0": 52640, 
                            "v": 85, 
                            "dur": 22, 
                            "type": "note", 
                            "channel": 9
                        }
                    ]
                ], 
                [
                    52680, 
                    [
                        {
                            "pitch": 38, 
                            "t0": 52680, 
                            "v": 110, 
                            "dur": 41, 
                            "type": "note", 
                            "channel": 9
                        }
                    ]
                ], 
                [
                    52760, 
                    [
                        {
                            "pitch": 38, 
                            "t0": 52760, 
                            "v": 98, 
                            "dur": 19, 
                            "type": "note", 
                            "channel": 9
                        }
                    ]
                ], 
                [
                    52800, 
                    [
                        {
                            "pitch": 36, 
                            "t0": 52800, 
                            "v": 102, 
                            "dur": 52, 
                            "type": "note", 
                            "channel": 9
                        }
                    ]
                ], 
                [
                    52920, 
                    [
                        {
                            "pitch": 38, 
                            "t0": 52920, 
                            "v": 110, 
                            "dur": 33, 
                            "type": "note", 
                            "channel": 9
                        }
                    ]
                ], 
                [
                    53040, 
                    [
                        {
                            "pitch": 36, 
                            "t0": 53040, 
                            "v": 114, 
                            "dur": 44, 
                            "type": "note", 
                            "channel": 9
                        }
                    ]
                ], 
                [
                    53120, 
                    [
                        {
                            "pitch": 36, 
                            "t0": 53120, 
                            "v": 88, 
                            "dur": 22, 
                            "type": "note", 
                            "channel": 9
                        }
                    ]
                ], 
                [
                    53160, 
                    [
                        {
                            "pitch": 38, 
                            "t0": 53160, 
                            "v": 106, 
                            "dur": 42, 
                            "type": "note", 
                            "channel": 9
                        }
                    ]
                ], 
                [
                    53240, 
                    [
                        {
                            "pitch": 36, 
                            "t0": 53240, 
                            "v": 97, 
                            "dur": 21, 
                            "type": "note", 
                            "channel": 9
                        }
                    ]
                ], 
                [
                    53280, 
                    [
                        {
                            "pitch": 49, 
                            "t0": 53280, 
                            "v": 101, 
                            "dur": 25, 
                            "type": "note", 
                            "channel": 9
                        }, 
                        {
                            "pitch": 36, 
                            "t0": 53280, 
                            "v": 110, 
                            "dur": 45, 
                            "type": "note", 
                            "channel": 9
                        }
                    ]
                ], 
                [
                    53360, 
                    [
                        {
                            "pitch": 38, 
                            "t0": 53360, 
                            "v": 102, 
                            "dur": 18, 
                            "type": "note", 
                            "channel": 9
                        }
                    ]
                ], 
                [
                    53400, 
                    [
                        {
                            "pitch": 38, 
                            "t0": 53400, 
                            "v": 106, 
                            "dur": 22, 
                            "type": "note", 
                            "channel": 9
                        }
                    ]
                ], 
                [
                    53440, 
                    [
                        {
                            "pitch": 38, 
                            "t0": 53440, 
                            "v": 106, 
                            "dur": 21, 
                            "type": "note", 
                            "channel": 9
                        }
                    ]
                ], 
                [
                    53480, 
                    [
                        {
                            "pitch": 38, 
                            "t0": 53480, 
                            "v": 100, 
                            "dur": 19, 
                            "type": "note", 
                            "channel": 9
                        }
                    ]
                ], 
                [
                    53520, 
                    [
                        {
                            "pitch": 38, 
                            "t0": 53520, 
                            "v": 114, 
                            "dur": 23, 
                            "type": "note", 
                            "channel": 9
                        }
                    ]
                ], 
                [
                    53560, 
                    [
                        {
                            "pitch": 38, 
                            "t0": 53560, 
                            "v": 108, 
                            "dur": 21, 
                            "type": "note", 
                            "channel": 9
                        }
                    ]
                ], 
                [
                    53600, 
                    [
                        {
                            "pitch": 38, 
                            "t0": 53600, 
                            "v": 106, 
                            "dur": 22, 
                            "type": "note", 
                            "channel": 9
                        }
                    ]
                ], 
                [
                    53640, 
                    [
                        {
                            "pitch": 38, 
                            "t0": 53640, 
                            "v": 117, 
                            "dur": 23, 
                            "type": "note", 
                            "channel": 9
                        }
                    ]
                ], 
                [
                    53680, 
                    [
                        {
                            "pitch": 38, 
                            "t0": 53680, 
                            "v": 117, 
                            "dur": 21, 
                            "type": "note", 
                            "channel": 9
                        }
                    ]
                ], 
                [
                    53720, 
                    [
                        {
                            "pitch": 38, 
                            "t0": 53720, 
                            "v": 117, 
                            "dur": 25, 
                            "type": "note", 
                            "channel": 9
                        }
                    ]
                ], 
                [
                    53760, 
                    [
                        {
                            "pitch": 35, 
                            "t0": 53760, 
                            "v": 127, 
                            "dur": 20, 
                            "type": "note", 
                            "channel": 9
                        }, 
                        {
                            "pitch": 49, 
                            "t0": 53760, 
                            "v": 110, 
                            "dur": 27, 
                            "type": "note", 
                            "channel": 9
                        }, 
                        {
                            "pitch": 36, 
                            "t0": 53760, 
                            "v": 104, 
                            "dur": 40, 
                            "type": "note", 
                            "channel": 9
                        }
                    ]
                ], 
                [
                    54080, 
                    [
                        {
                            "pitch": 38, 
                            "t0": 54080, 
                            "v": 94, 
                            "dur": 20, 
                            "type": "note", 
                            "channel": 9
                        }
                    ]
                ], 
                [
                    54120, 
                    [
                        {
                            "pitch": 38, 
                            "t0": 54120, 
                            "v": 106, 
                            "dur": 45, 
                            "type": "note", 
                            "channel": 9
                        }
                    ]
                ], 
                [
                    54200, 
                    [
                        {
                            "pitch": 38, 
                            "t0": 54200, 
                            "v": 80, 
                            "dur": 21, 
                            "type": "note", 
                            "channel": 9
                        }
                    ]
                ], 
                [
                    54240, 
                    [
                        {
                            "pitch": 49, 
                            "t0": 54240, 
                            "v": 82, 
                            "dur": 23, 
                            "type": "note", 
                            "channel": 9
                        }, 
                        {
                            "pitch": 36, 
                            "t0": 54240, 
                            "v": 94, 
                            "dur": 57, 
                            "type": "note", 
                            "channel": 9
                        }
                    ]
                ], 
                [
                    54360, 
                    [
                        {
                            "pitch": 37, 
                            "t0": 54360, 
                            "v": 93, 
                            "dur": 39, 
                            "type": "note", 
                            "channel": 9
                        }
                    ]
                ], 
                [
                    54480, 
                    [
                        {
                            "pitch": 36, 
                            "t0": 54480, 
                            "v": 98, 
                            "dur": 45, 
                            "type": "note", 
                            "channel": 9
                        }
                    ]
                ], 
                [
                    54560, 
                    [
                        {
                            "pitch": 36, 
                            "t0": 54560, 
                            "v": 68, 
                            "dur": 19, 
                            "type": "note", 
                            "channel": 9
                        }
                    ]
                ], 
                [
                    54600, 
                    [
                        {
                            "pitch": 38, 
                            "t0": 54600, 
                            "v": 114, 
                            "dur": 44, 
                            "type": "note", 
                            "channel": 9
                        }
                    ]
                ], 
                [
                    54680, 
                    [
                        {
                            "pitch": 36, 
                            "t0": 54680, 
                            "v": 87, 
                            "dur": 20, 
                            "type": "note", 
                            "channel": 9
                        }
                    ]
                ], 
                [
                    54720, 
                    [
                        {
                            "pitch": 36, 
                            "t0": 54720, 
                            "v": 102, 
                            "dur": 102, 
                            "type": "note", 
                            "channel": 9
                        }
                    ]
                ], 
                [
                    54840, 
                    [
                        {
                            "pitch": 37, 
                            "t0": 54840, 
                            "v": 91, 
                            "dur": 40, 
                            "type": "note", 
                            "channel": 9
                        }
                    ]
                ], 
                [
                    54960, 
                    [
                        {
                            "pitch": 36, 
                            "t0": 54960, 
                            "v": 100, 
                            "dur": 34, 
                            "type": "note", 
                            "channel": 9
                        }
                    ]
                ], 
                [
                    55040, 
                    [
                        {
                            "pitch": 36, 
                            "t0": 55040, 
                            "v": 78, 
                            "dur": 25, 
                            "type": "note", 
                            "channel": 9
                        }
                    ]
                ], 
                [
                    55080, 
                    [
                        {
                            "pitch": 37, 
                            "t0": 55080, 
                            "v": 97, 
                            "dur": 42, 
                            "type": "note", 
                            "channel": 9
                        }
                    ]
                ], 
                [
                    55160, 
                    [
                        {
                            "pitch": 36, 
                            "t0": 55160, 
                            "v": 86, 
                            "dur": 20, 
                            "type": "note", 
                            "channel": 9
                        }
                    ]
                ], 
                [
                    55200, 
                    [
                        {
                            "pitch": 36, 
                            "t0": 55200, 
                            "v": 102, 
                            "dur": 93, 
                            "type": "note", 
                            "channel": 9
                        }
                    ]
                ], 
                [
                    55320, 
                    [
                        {
                            "pitch": 37, 
                            "t0": 55320, 
                            "v": 95, 
                            "dur": 44, 
                            "type": "note", 
                            "channel": 9
                        }
                    ]
                ], 
                [
                    55440, 
                    [
                        {
                            "pitch": 36, 
                            "t0": 55440, 
                            "v": 98, 
                            "dur": 34, 
                            "type": "note", 
                            "channel": 9
                        }
                    ]
                ], 
                [
                    55520, 
                    [
                        {
                            "pitch": 36, 
                            "t0": 55520, 
                            "v": 91, 
                            "dur": 22, 
                            "type": "note", 
                            "channel": 9
                        }
                    ]
                ], 
                [
                    55560, 
                    [
                        {
                            "pitch": 37, 
                            "t0": 55560, 
                            "v": 95, 
                            "dur": 37, 
                            "type": "note", 
                            "channel": 9
                        }
                    ]
                ], 
                [
                    55640, 
                    [
                        {
                            "pitch": 36, 
                            "t0": 55640, 
                            "v": 88, 
                            "dur": 20, 
                            "type": "note", 
                            "channel": 9
                        }
                    ]
                ], 
                [
                    55680, 
                    [
                        {
                            "pitch": 36, 
                            "t0": 55680, 
                            "v": 102, 
                            "dur": 55, 
                            "type": "note", 
                            "channel": 9
                        }
                    ]
                ], 
                [
                    55800, 
                    [
                        {
                            "pitch": 36, 
                            "t0": 55800, 
                            "v": 108, 
                            "dur": 53, 
                            "type": "note", 
                            "channel": 9
                        }
                    ]
                ], 
                [
                    55920, 
                    [
                        {
                            "pitch": 36, 
                            "t0": 55920, 
                            "v": 112, 
                            "dur": 41, 
                            "type": "note", 
                            "channel": 9
                        }
                    ]
                ], 
                [
                    56000, 
                    [
                        {
                            "pitch": 47, 
                            "t0": 56000, 
                            "v": 117, 
                            "dur": 18, 
                            "type": "note", 
                            "channel": 9
                        }
                    ]
                ], 
                [
                    56040, 
                    [
                        {
                            "pitch": 47, 
                            "t0": 56040, 
                            "v": 120, 
                            "dur": 40, 
                            "type": "note", 
                            "channel": 9
                        }
                    ]
                ], 
                [
                    56120, 
                    [
                        {
                            "pitch": 47, 
                            "t0": 56120, 
                            "v": 87, 
                            "dur": 17, 
                            "type": "note", 
                            "channel": 9
                        }
                    ]
                ], 
                [
                    56160, 
                    [
                        {
                            "pitch": 49, 
                            "t0": 56160, 
                            "v": 101, 
                            "dur": 34, 
                            "type": "note", 
                            "channel": 9
                        }, 
                        {
                            "pitch": 36, 
                            "t0": 56160, 
                            "v": 100, 
                            "dur": 58, 
                            "type": "note", 
                            "channel": 9
                        }
                    ]
                ], 
                [
                    56280, 
                    [
                        {
                            "pitch": 37, 
                            "t0": 56280, 
                            "v": 87, 
                            "dur": 38, 
                            "type": "note", 
                            "channel": 9
                        }
                    ]
                ], 
                [
                    56400, 
                    [
                        {
                            "pitch": 36, 
                            "t0": 56400, 
                            "v": 100, 
                            "dur": 44, 
                            "type": "note", 
                            "channel": 9
                        }
                    ]
                ], 
                [
                    56480, 
                    [
                        {
                            "pitch": 36, 
                            "t0": 56480, 
                            "v": 73, 
                            "dur": 31, 
                            "type": "note", 
                            "channel": 9
                        }
                    ]
                ], 
                [
                    56520, 
                    [
                        {
                            "pitch": 37, 
                            "t0": 56520, 
                            "v": 97, 
                            "dur": 44, 
                            "type": "note", 
                            "channel": 9
                        }
                    ]
                ], 
                [
                    56640, 
                    [
                        {
                            "pitch": 36, 
                            "t0": 56640, 
                            "v": 94, 
                            "dur": 96, 
                            "type": "note", 
                            "channel": 9
                        }
                    ]
                ], 
                [
                    56760, 
                    [
                        {
                            "pitch": 37, 
                            "t0": 56760, 
                            "v": 95, 
                            "dur": 38, 
                            "type": "note", 
                            "channel": 9
                        }
                    ]
                ], 
                [
                    56880, 
                    [
                        {
                            "pitch": 36, 
                            "t0": 56880, 
                            "v": 97, 
                            "dur": 49, 
                            "type": "note", 
                            "channel": 9
                        }
                    ]
                ], 
                [
                    56960, 
                    [
                        {
                            "pitch": 36, 
                            "t0": 56960, 
                            "v": 73, 
                            "dur": 23, 
                            "type": "note", 
                            "channel": 9
                        }
                    ]
                ], 
                [
                    57000, 
                    [
                        {
                            "pitch": 37, 
                            "t0": 57000, 
                            "v": 99, 
                            "dur": 43, 
                            "type": "note", 
                            "channel": 9
                        }
                    ]
                ], 
                [
                    57080, 
                    [
                        {
                            "pitch": 37, 
                            "t0": 57080, 
                            "v": 60, 
                            "dur": 9, 
                            "type": "note", 
                            "channel": 9
                        }, 
                        {
                            "pitch": 36, 
                            "t0": 57080, 
                            "v": 74, 
                            "dur": 17, 
                            "type": "note", 
                            "channel": 9
                        }
                    ]
                ], 
                [
                    57120, 
                    [
                        {
                            "pitch": 49, 
                            "t0": 57120, 
                            "v": 104, 
                            "dur": 45, 
                            "type": "note", 
                            "channel": 9
                        }, 
                        {
                            "pitch": 36, 
                            "t0": 57120, 
                            "v": 110, 
                            "dur": 46, 
                            "type": "note", 
                            "channel": 9
                        }
                    ]
                ], 
                [
                    57200, 
                    [
                        {
                            "pitch": 48, 
                            "t0": 57200, 
                            "v": 108, 
                            "dur": 19, 
                            "type": "note", 
                            "channel": 9
                        }
                    ]
                ], 
                [
                    57240, 
                    [
                        {
                            "pitch": 48, 
                            "t0": 57240, 
                            "v": 112, 
                            "dur": 48, 
                            "type": "note", 
                            "channel": 9
                        }
                    ]
                ], 
                [
                    57360, 
                    [
                        {
                            "pitch": 47, 
                            "t0": 57360, 
                            "v": 110, 
                            "dur": 37, 
                            "type": "note", 
                            "channel": 9
                        }
                    ]
                ], 
                [
                    57440, 
                    [
                        {
                            "pitch": 47, 
                            "t0": 57440, 
                            "v": 122, 
                            "dur": 21, 
                            "type": "note", 
                            "channel": 9
                        }
                    ]
                ], 
                [
                    57560, 
                    [
                        {
                            "pitch": 45, 
                            "t0": 57560, 
                            "v": 98, 
                            "dur": 26, 
                            "type": "note", 
                            "channel": 9
                        }
                    ]
                ], 
                [
                    57600, 
                    [
                        {
                            "pitch": 44, 
                            "t0": 57600, 
                            "v": 53, 
                            "dur": 7, 
                            "type": "note", 
                            "channel": 9
                        }
                    ]
                ], 
                [
                    57680, 
                    [
                        {
                            "pitch": 45, 
                            "t0": 57680, 
                            "v": 94, 
                            "dur": 19, 
                            "type": "note", 
                            "channel": 9
                        }
                    ]
                ], 
                [
                    57720, 
                    [
                        {
                            "pitch": 45, 
                            "t0": 57720, 
                            "v": 120, 
                            "dur": 45, 
                            "type": "note", 
                            "channel": 9
                        }
                    ]
                ], 
                [
                    57840, 
                    [
                        {
                            "pitch": 43, 
                            "t0": 57840, 
                            "v": 97, 
                            "dur": 42, 
                            "type": "note", 
                            "channel": 9
                        }
                    ]
                ], 
                [
                    57960, 
                    [
                        {
                            "pitch": 43, 
                            "t0": 57960, 
                            "v": 100, 
                            "dur": 46, 
                            "type": "note", 
                            "channel": 9
                        }
                    ]
                ], 
                [
                    58040, 
                    [
                        {
                            "pitch": 43, 
                            "t0": 58040, 
                            "v": 87, 
                            "dur": 21, 
                            "type": "note", 
                            "channel": 9
                        }
                    ]
                ], 
                [
                    58080, 
                    [
                        {
                            "pitch": 49, 
                            "t0": 58080, 
                            "v": 84, 
                            "dur": 43, 
                            "type": "note", 
                            "channel": 9
                        }, 
                        {
                            "pitch": 36, 
                            "t0": 58080, 
                            "v": 102, 
                            "dur": 64, 
                            "type": "note", 
                            "channel": 9
                        }
                    ]
                ], 
                [
                    58200, 
                    [
                        {
                            "pitch": 37, 
                            "t0": 58200, 
                            "v": 85, 
                            "dur": 39, 
                            "type": "note", 
                            "channel": 9
                        }
                    ]
                ], 
                [
                    58320, 
                    [
                        {
                            "pitch": 36, 
                            "t0": 58320, 
                            "v": 97, 
                            "dur": 45, 
                            "type": "note", 
                            "channel": 9
                        }
                    ]
                ], 
                [
                    58400, 
                    [
                        {
                            "pitch": 36, 
                            "t0": 58400, 
                            "v": 88, 
                            "dur": 25, 
                            "type": "note", 
                            "channel": 9
                        }
                    ]
                ], 
                [
                    58440, 
                    [
                        {
                            "pitch": 37, 
                            "t0": 58440, 
                            "v": 85, 
                            "dur": 40, 
                            "type": "note", 
                            "channel": 9
                        }
                    ]
                ], 
                [
                    58560, 
                    [
                        {
                            "pitch": 36, 
                            "t0": 58560, 
                            "v": 98, 
                            "dur": 51, 
                            "type": "note", 
                            "channel": 9
                        }
                    ]
                ], 
                [
                    58640, 
                    [
                        {
                            "pitch": 36, 
                            "t0": 58640, 
                            "v": 72, 
                            "dur": 28, 
                            "type": "note", 
                            "channel": 9
                        }
                    ]
                ], 
                [
                    58680, 
                    [
                        {
                            "pitch": 37, 
                            "t0": 58680, 
                            "v": 89, 
                            "dur": 48, 
                            "type": "note", 
                            "channel": 9
                        }
                    ]
                ], 
                [
                    58800, 
                    [
                        {
                            "pitch": 36, 
                            "t0": 58800, 
                            "v": 104, 
                            "dur": 49, 
                            "type": "note", 
                            "channel": 9
                        }
                    ]
                ], 
                [
                    58880, 
                    [
                        {
                            "pitch": 36, 
                            "t0": 58880, 
                            "v": 77, 
                            "dur": 27, 
                            "type": "note", 
                            "channel": 9
                        }
                    ]
                ], 
                [
                    58920, 
                    [
                        {
                            "pitch": 37, 
                            "t0": 58920, 
                            "v": 99, 
                            "dur": 46, 
                            "type": "note", 
                            "channel": 9
                        }
                    ]
                ], 
                [
                    59040, 
                    [
                        {
                            "pitch": 36, 
                            "t0": 59040, 
                            "v": 104, 
                            "dur": 90, 
                            "type": "note", 
                            "channel": 9
                        }
                    ]
                ], 
                [
                    59160, 
                    [
                        {
                            "pitch": 37, 
                            "t0": 59160, 
                            "v": 87, 
                            "dur": 38, 
                            "type": "note", 
                            "channel": 9
                        }
                    ]
                ], 
                [
                    59280, 
                    [
                        {
                            "pitch": 36, 
                            "t0": 59280, 
                            "v": 95, 
                            "dur": 35, 
                            "type": "note", 
                            "channel": 9
                        }
                    ]
                ], 
                [
                    59360, 
                    [
                        {
                            "pitch": 36, 
                            "t0": 59360, 
                            "v": 81, 
                            "dur": 26, 
                            "type": "note", 
                            "channel": 9
                        }
                    ]
                ], 
                [
                    59400, 
                    [
                        {
                            "pitch": 37, 
                            "t0": 59400, 
                            "v": 89, 
                            "dur": 43, 
                            "type": "note", 
                            "channel": 9
                        }
                    ]
                ], 
                [
                    59520, 
                    [
                        {
                            "pitch": 49, 
                            "t0": 59520, 
                            "v": 101, 
                            "dur": 29, 
                            "type": "note", 
                            "channel": 9
                        }, 
                        {
                            "pitch": 36, 
                            "t0": 59520, 
                            "v": 98, 
                            "dur": 83, 
                            "type": "note", 
                            "channel": 9
                        }
                    ]
                ], 
                [
                    59640, 
                    [
                        {
                            "pitch": 37, 
                            "t0": 59640, 
                            "v": 84, 
                            "dur": 41, 
                            "type": "note", 
                            "channel": 9
                        }
                    ]
                ], 
                [
                    59760, 
                    [
                        {
                            "pitch": 36, 
                            "t0": 59760, 
                            "v": 98, 
                            "dur": 34, 
                            "type": "note", 
                            "channel": 9
                        }
                    ]
                ], 
                [
                    59840, 
                    [
                        {
                            "pitch": 36, 
                            "t0": 59840, 
                            "v": 87, 
                            "dur": 25, 
                            "type": "note", 
                            "channel": 9
                        }
                    ]
                ], 
                [
                    59880, 
                    [
                        {
                            "pitch": 37, 
                            "t0": 59880, 
                            "v": 104, 
                            "dur": 44, 
                            "type": "note", 
                            "channel": 9
                        }
                    ]
                ], 
                [
                    60000, 
                    [
                        {
                            "pitch": 49, 
                            "t0": 60000, 
                            "v": 110, 
                            "dur": 30, 
                            "type": "note", 
                            "channel": 9
                        }, 
                        {
                            "pitch": 36, 
                            "t0": 60000, 
                            "v": 104, 
                            "dur": 60, 
                            "type": "note", 
                            "channel": 9
                        }
                    ]
                ], 
                [
                    60120, 
                    [
                        {
                            "pitch": 37, 
                            "t0": 60120, 
                            "v": 95, 
                            "dur": 45, 
                            "type": "note", 
                            "channel": 9
                        }
                    ]
                ], 
                [
                    60240, 
                    [
                        {
                            "pitch": 36, 
                            "t0": 60240, 
                            "v": 104, 
                            "dur": 56, 
                            "type": "note", 
                            "channel": 9
                        }
                    ]
                ], 
                [
                    60320, 
                    [
                        {
                            "pitch": 36, 
                            "t0": 60320, 
                            "v": 87, 
                            "dur": 26, 
                            "type": "note", 
                            "channel": 9
                        }
                    ]
                ], 
                [
                    60360, 
                    [
                        {
                            "pitch": 37, 
                            "t0": 60360, 
                            "v": 93, 
                            "dur": 47, 
                            "type": "note", 
                            "channel": 9
                        }
                    ]
                ], 
                [
                    60440, 
                    [
                        {
                            "pitch": 36, 
                            "t0": 60440, 
                            "v": 68, 
                            "dur": 20, 
                            "type": "note", 
                            "channel": 9
                        }
                    ]
                ], 
                [
                    60480, 
                    [
                        {
                            "pitch": 36, 
                            "t0": 60480, 
                            "v": 114, 
                            "dur": 102, 
                            "type": "note", 
                            "channel": 9
                        }
                    ]
                ], 
                [
                    60600, 
                    [
                        {
                            "pitch": 37, 
                            "t0": 60600, 
                            "v": 95, 
                            "dur": 49, 
                            "type": "note", 
                            "channel": 9
                        }
                    ]
                ], 
                [
                    60720, 
                    [
                        {
                            "pitch": 36, 
                            "t0": 60720, 
                            "v": 106, 
                            "dur": 50, 
                            "type": "note", 
                            "channel": 9
                        }
                    ]
                ], 
                [
                    60800, 
                    [
                        {
                            "pitch": 36, 
                            "t0": 60800, 
                            "v": 86, 
                            "dur": 26, 
                            "type": "note", 
                            "channel": 9
                        }
                    ]
                ], 
                [
                    60840, 
                    [
                        {
                            "pitch": 37, 
                            "t0": 60840, 
                            "v": 107, 
                            "dur": 48, 
                            "type": "note", 
                            "channel": 9
                        }
                    ]
                ], 
                [
                    60920, 
                    [
                        {
                            "pitch": 35, 
                            "t0": 60920, 
                            "v": 86, 
                            "dur": 13, 
                            "type": "note", 
                            "channel": 9
                        }, 
                        {
                            "pitch": 36, 
                            "t0": 60920, 
                            "v": 69, 
                            "dur": 18, 
                            "type": "note", 
                            "channel": 9
                        }
                    ]
                ], 
                [
                    60960, 
                    [
                        {
                            "pitch": 49, 
                            "t0": 60960, 
                            "v": 113, 
                            "dur": 34, 
                            "type": "note", 
                            "channel": 9
                        }, 
                        {
                            "pitch": 36, 
                            "t0": 60960, 
                            "v": 117, 
                            "dur": 61, 
                            "type": "note", 
                            "channel": 9
                        }
                    ]
                ], 
                [
                    61040, 
                    [
                        {
                            "pitch": 36, 
                            "t0": 61040, 
                            "v": 57, 
                            "dur": 17, 
                            "type": "note", 
                            "channel": 9
                        }
                    ]
                ], 
                [
                    61080, 
                    [
                        {
                            "pitch": 37, 
                            "t0": 61080, 
                            "v": 78, 
                            "dur": 12, 
                            "type": "note", 
                            "channel": 9
                        }
                    ]
                ], 
                [
                    61200, 
                    [
                        {
                            "pitch": 36, 
                            "t0": 61200, 
                            "v": 85, 
                            "dur": 46, 
                            "type": "note", 
                            "channel": 9
                        }
                    ]
                ], 
                [
                    61280, 
                    [
                        {
                            "pitch": 36, 
                            "t0": 61280, 
                            "v": 85, 
                            "dur": 26, 
                            "type": "note", 
                            "channel": 9
                        }
                    ]
                ], 
                [
                    61320, 
                    [
                        {
                            "pitch": 37, 
                            "t0": 61320, 
                            "v": 95, 
                            "dur": 46, 
                            "type": "note", 
                            "channel": 9
                        }
                    ]
                ], 
                [
                    61400, 
                    [
                        {
                            "pitch": 36, 
                            "t0": 61400, 
                            "v": 91, 
                            "dur": 18, 
                            "type": "note", 
                            "channel": 9
                        }
                    ]
                ], 
                [
                    61440, 
                    [
                        {
                            "pitch": 36, 
                            "t0": 61440, 
                            "v": 117, 
                            "dur": 46, 
                            "type": "note", 
                            "channel": 9
                        }
                    ]
                ], 
                [
                    61520, 
                    [
                        {
                            "pitch": 38, 
                            "t0": 61520, 
                            "v": 106, 
                            "dur": 17, 
                            "type": "note", 
                            "channel": 9
                        }
                    ]
                ], 
                [
                    61560, 
                    [
                        {
                            "pitch": 38, 
                            "t0": 61560, 
                            "v": 120, 
                            "dur": 43, 
                            "type": "note", 
                            "channel": 9
                        }
                    ]
                ], 
                [
                    61680, 
                    [
                        {
                            "pitch": 47, 
                            "t0": 61680, 
                            "v": 127, 
                            "dur": 37, 
                            "type": "note", 
                            "channel": 9
                        }
                    ]
                ], 
                [
                    61760, 
                    [
                        {
                            "pitch": 47, 
                            "t0": 61760, 
                            "v": 73, 
                            "dur": 23, 
                            "type": "note", 
                            "channel": 9
                        }
                    ]
                ], 
                [
                    61800, 
                    [
                        {
                            "pitch": 45, 
                            "t0": 61800, 
                            "v": 112, 
                            "dur": 51, 
                            "type": "note", 
                            "channel": 9
                        }
                    ]
                ], 
                [
                    61880, 
                    [
                        {
                            "pitch": 45, 
                            "t0": 61880, 
                            "v": 94, 
                            "dur": 21, 
                            "type": "note", 
                            "channel": 9
                        }
                    ]
                ], 
                [
                    61920, 
                    [
                        {
                            "pitch": 49, 
                            "t0": 61920, 
                            "v": 107, 
                            "dur": 37, 
                            "type": "note", 
                            "channel": 9
                        }, 
                        {
                            "pitch": 36, 
                            "t0": 61920, 
                            "v": 100, 
                            "dur": 58, 
                            "type": "note", 
                            "channel": 9
                        }
                    ]
                ], 
                [
                    62040, 
                    [
                        {
                            "pitch": 38, 
                            "t0": 62040, 
                            "v": 110, 
                            "dur": 34, 
                            "type": "note", 
                            "channel": 9
                        }
                    ]
                ], 
                [
                    62160, 
                    [
                        {
                            "pitch": 36, 
                            "t0": 62160, 
                            "v": 106, 
                            "dur": 37, 
                            "type": "note", 
                            "channel": 9
                        }
                    ]
                ], 
                [
                    62240, 
                    [
                        {
                            "pitch": 36, 
                            "t0": 62240, 
                            "v": 91, 
                            "dur": 24, 
                            "type": "note", 
                            "channel": 9
                        }
                    ]
                ], 
                [
                    62280, 
                    [
                        {
                            "pitch": 38, 
                            "t0": 62280, 
                            "v": 112, 
                            "dur": 44, 
                            "type": "note", 
                            "channel": 9
                        }
                    ]
                ], 
                [
                    62400, 
                    [
                        {
                            "pitch": 36, 
                            "t0": 62400, 
                            "v": 110, 
                            "dur": 47, 
                            "type": "note", 
                            "channel": 9
                        }
                    ]
                ], 
                [
                    62520, 
                    [
                        {
                            "pitch": 38, 
                            "t0": 62520, 
                            "v": 108, 
                            "dur": 43, 
                            "type": "note", 
                            "channel": 9
                        }
                    ]
                ], 
                [
                    62640, 
                    [
                        {
                            "pitch": 36, 
                            "t0": 62640, 
                            "v": 102, 
                            "dur": 32, 
                            "type": "note", 
                            "channel": 9
                        }
                    ]
                ], 
                [
                    62720, 
                    [
                        {
                            "pitch": 36, 
                            "t0": 62720, 
                            "v": 95, 
                            "dur": 19, 
                            "type": "note", 
                            "channel": 9
                        }
                    ]
                ], 
                [
                    62760, 
                    [
                        {
                            "pitch": 38, 
                            "t0": 62760, 
                            "v": 102, 
                            "dur": 33, 
                            "type": "note", 
                            "channel": 9
                        }
                    ]
                ], 
                [
                    62840, 
                    [
                        {
                            "pitch": 38, 
                            "t0": 62840, 
                            "v": 92, 
                            "dur": 21, 
                            "type": "note", 
                            "channel": 9
                        }
                    ]
                ], 
                [
                    62880, 
                    [
                        {
                            "pitch": 36, 
                            "t0": 62880, 
                            "v": 106, 
                            "dur": 76, 
                            "type": "note", 
                            "channel": 9
                        }
                    ]
                ], 
                [
                    63000, 
                    [
                        {
                            "pitch": 38, 
                            "t0": 63000, 
                            "v": 106, 
                            "dur": 32, 
                            "type": "note", 
                            "channel": 9
                        }
                    ]
                ], 
                [
                    63080, 
                    [
                        {
                            "pitch": 38, 
                            "t0": 63080, 
                            "v": 102, 
                            "dur": 20, 
                            "type": "note", 
                            "channel": 9
                        }
                    ]
                ], 
                [
                    63120, 
                    [
                        {
                            "pitch": 36, 
                            "t0": 63120, 
                            "v": 106, 
                            "dur": 50, 
                            "type": "note", 
                            "channel": 9
                        }
                    ]
                ], 
                [
                    63240, 
                    [
                        {
                            "pitch": 38, 
                            "t0": 63240, 
                            "v": 106, 
                            "dur": 28, 
                            "type": "note", 
                            "channel": 9
                        }
                    ]
                ], 
                [
                    63320, 
                    [
                        {
                            "pitch": 38, 
                            "t0": 63320, 
                            "v": 91, 
                            "dur": 21, 
                            "type": "note", 
                            "channel": 9
                        }
                    ]
                ], 
                [
                    63360, 
                    [
                        {
                            "pitch": 36, 
                            "t0": 63360, 
                            "v": 100, 
                            "dur": 51, 
                            "type": "note", 
                            "channel": 9
                        }
                    ]
                ], 
                [
                    63440, 
                    [
                        {
                            "pitch": 38, 
                            "t0": 63440, 
                            "v": 81, 
                            "dur": 18, 
                            "type": "note", 
                            "channel": 9
                        }
                    ]
                ], 
                [
                    63480, 
                    [
                        {
                            "pitch": 38, 
                            "t0": 63480, 
                            "v": 117, 
                            "dur": 42, 
                            "type": "note", 
                            "channel": 9
                        }
                    ]
                ], 
                [
                    63560, 
                    [
                        {
                            "pitch": 38, 
                            "t0": 63560, 
                            "v": 95, 
                            "dur": 18, 
                            "type": "note", 
                            "channel": 9
                        }
                    ]
                ], 
                [
                    63600, 
                    [
                        {
                            "pitch": 38, 
                            "t0": 63600, 
                            "v": 106, 
                            "dur": 45, 
                            "type": "note", 
                            "channel": 9
                        }
                    ]
                ], 
                [
                    63680, 
                    [
                        {
                            "pitch": 38, 
                            "t0": 63680, 
                            "v": 95, 
                            "dur": 18, 
                            "type": "note", 
                            "channel": 9
                        }
                    ]
                ], 
                [
                    63720, 
                    [
                        {
                            "pitch": 38, 
                            "t0": 63720, 
                            "v": 106, 
                            "dur": 22, 
                            "type": "note", 
                            "channel": 9
                        }
                    ]
                ], 
                [
                    63760, 
                    [
                        {
                            "pitch": 38, 
                            "t0": 63760, 
                            "v": 98, 
                            "dur": 18, 
                            "type": "note", 
                            "channel": 9
                        }
                    ]
                ], 
                [
                    63800, 
                    [
                        {
                            "pitch": 38, 
                            "t0": 63800, 
                            "v": 104, 
                            "dur": 20, 
                            "type": "note", 
                            "channel": 9
                        }
                    ]
                ], 
                [
                    63840, 
                    [
                        {
                            "pitch": 49, 
                            "t0": 63840, 
                            "v": 101, 
                            "dur": 26, 
                            "type": "note", 
                            "channel": 9
                        }, 
                        {
                            "pitch": 36, 
                            "t0": 63840, 
                            "v": 117, 
                            "dur": 51, 
                            "type": "note", 
                            "channel": 9
                        }
                    ]
                ], 
                [
                    63960, 
                    [
                        {
                            "pitch": 38, 
                            "t0": 63960, 
                            "v": 110, 
                            "dur": 37, 
                            "type": "note", 
                            "channel": 9
                        }
                    ]
                ], 
                [
                    64080, 
                    [
                        {
                            "pitch": 36, 
                            "t0": 64080, 
                            "v": 104, 
                            "dur": 34, 
                            "type": "note", 
                            "channel": 9
                        }
                    ]
                ], 
                [
                    64160, 
                    [
                        {
                            "pitch": 36, 
                            "t0": 64160, 
                            "v": 98, 
                            "dur": 22, 
                            "type": "note", 
                            "channel": 9
                        }
                    ]
                ], 
                [
                    64200, 
                    [
                        {
                            "pitch": 38, 
                            "t0": 64200, 
                            "v": 112, 
                            "dur": 46, 
                            "type": "note", 
                            "channel": 9
                        }
                    ]
                ], 
                [
                    64320, 
                    [
                        {
                            "pitch": 36, 
                            "t0": 64320, 
                            "v": 110, 
                            "dur": 43, 
                            "type": "note", 
                            "channel": 9
                        }
                    ]
                ], 
                [
                    64400, 
                    [
                        {
                            "pitch": 36, 
                            "t0": 64400, 
                            "v": 88, 
                            "dur": 19, 
                            "type": "note", 
                            "channel": 9
                        }
                    ]
                ], 
                [
                    64440, 
                    [
                        {
                            "pitch": 38, 
                            "t0": 64440, 
                            "v": 106, 
                            "dur": 41, 
                            "type": "note", 
                            "channel": 9
                        }
                    ]
                ], 
                [
                    64520, 
                    [
                        {
                            "pitch": 38, 
                            "t0": 64520, 
                            "v": 84, 
                            "dur": 20, 
                            "type": "note", 
                            "channel": 9
                        }
                    ]
                ], 
                [
                    64560, 
                    [
                        {
                            "pitch": 36, 
                            "t0": 64560, 
                            "v": 108, 
                            "dur": 47, 
                            "type": "note", 
                            "channel": 9
                        }
                    ]
                ], 
                [
                    64640, 
                    [
                        {
                            "pitch": 36, 
                            "t0": 64640, 
                            "v": 88, 
                            "dur": 26, 
                            "type": "note", 
                            "channel": 9
                        }
                    ]
                ], 
                [
                    64680, 
                    [
                        {
                            "pitch": 38, 
                            "t0": 64680, 
                            "v": 110, 
                            "dur": 37, 
                            "type": "note", 
                            "channel": 9
                        }
                    ]
                ], 
                [
                    64760, 
                    [
                        {
                            "pitch": 38, 
                            "t0": 64760, 
                            "v": 106, 
                            "dur": 21, 
                            "type": "note", 
                            "channel": 9
                        }
                    ]
                ], 
                [
                    64800, 
                    [
                        {
                            "pitch": 49, 
                            "t0": 64800, 
                            "v": 104, 
                            "dur": 25, 
                            "type": "note", 
                            "channel": 9
                        }, 
                        {
                            "pitch": 36, 
                            "t0": 64800, 
                            "v": 125, 
                            "dur": 47, 
                            "type": "note", 
                            "channel": 9
                        }
                    ]
                ], 
                [
                    64880, 
                    [
                        {
                            "pitch": 36, 
                            "t0": 64880, 
                            "v": 88, 
                            "dur": 24, 
                            "type": "note", 
                            "channel": 9
                        }
                    ]
                ], 
                [
                    64920, 
                    [
                        {
                            "pitch": 38, 
                            "t0": 64920, 
                            "v": 104, 
                            "dur": 37, 
                            "type": "note", 
                            "channel": 9
                        }
                    ]
                ], 
                [
                    65000, 
                    [
                        {
                            "pitch": 38, 
                            "t0": 65000, 
                            "v": 92, 
                            "dur": 22, 
                            "type": "note", 
                            "channel": 9
                        }
                    ]
                ], 
                [
                    65040, 
                    [
                        {
                            "pitch": 36, 
                            "t0": 65040, 
                            "v": 120, 
                            "dur": 50, 
                            "type": "note", 
                            "channel": 9
                        }
                    ]
                ], 
                [
                    65120, 
                    [
                        {
                            "pitch": 36, 
                            "t0": 65120, 
                            "v": 69, 
                            "dur": 35, 
                            "type": "note", 
                            "channel": 9
                        }
                    ]
                ], 
                [
                    65160, 
                    [
                        {
                            "pitch": 38, 
                            "t0": 65160, 
                            "v": 114, 
                            "dur": 37, 
                            "type": "note", 
                            "channel": 9
                        }
                    ]
                ], 
                [
                    65240, 
                    [
                        {
                            "pitch": 38, 
                            "t0": 65240, 
                            "v": 110, 
                            "dur": 20, 
                            "type": "note", 
                            "channel": 9
                        }
                    ]
                ], 
                [
                    65280, 
                    [
                        {
                            "pitch": 36, 
                            "t0": 65280, 
                            "v": 110, 
                            "dur": 51, 
                            "type": "note", 
                            "channel": 9
                        }
                    ]
                ], 
                [
                    65360, 
                    [
                        {
                            "pitch": 38, 
                            "t0": 65360, 
                            "v": 106, 
                            "dur": 19, 
                            "type": "note", 
                            "channel": 9
                        }
                    ]
                ], 
                [
                    65400, 
                    [
                        {
                            "pitch": 49, 
                            "t0": 65400, 
                            "v": 116, 
                            "dur": 25, 
                            "type": "note", 
                            "channel": 9
                        }, 
                        {
                            "pitch": 36, 
                            "t0": 65400, 
                            "v": 127, 
                            "dur": 49, 
                            "type": "note", 
                            "channel": 9
                        }
                    ]
                ], 
                [
                    65480, 
                    [
                        {
                            "pitch": 38, 
                            "t0": 65480, 
                            "v": 100, 
                            "dur": 18, 
                            "type": "note", 
                            "channel": 9
                        }
                    ]
                ], 
                [
                    65520, 
                    [
                        {
                            "pitch": 49, 
                            "t0": 65520, 
                            "v": 110, 
                            "dur": 28, 
                            "type": "note", 
                            "channel": 9
                        }, 
                        {
                            "pitch": 36, 
                            "t0": 65520, 
                            "v": 127, 
                            "dur": 43, 
                            "type": "note", 
                            "channel": 9
                        }
                    ]
                ], 
                [
                    65600, 
                    [
                        {
                            "pitch": 38, 
                            "t0": 65600, 
                            "v": 100, 
                            "dur": 17, 
                            "type": "note", 
                            "channel": 9
                        }
                    ]
                ], 
                [
                    65640, 
                    [
                        {
                            "pitch": 49, 
                            "t0": 65640, 
                            "v": 97, 
                            "dur": 35, 
                            "type": "note", 
                            "channel": 9
                        }, 
                        {
                            "pitch": 36, 
                            "t0": 65640, 
                            "v": 125, 
                            "dur": 44, 
                            "type": "note", 
                            "channel": 9
                        }
                    ]
                ], 
                [
                    65720, 
                    [
                        {
                            "pitch": 38, 
                            "t0": 65720, 
                            "v": 98, 
                            "dur": 20, 
                            "type": "note", 
                            "channel": 9
                        }
                    ]
                ], 
                [
                    65760, 
                    [
                        {
                            "pitch": 52, 
                            "t0": 65760, 
                            "v": 95, 
                            "dur": 23, 
                            "type": "note", 
                            "channel": 9
                        }, 
                        {
                            "pitch": 36, 
                            "t0": 65760, 
                            "v": 112, 
                            "dur": 51, 
                            "type": "note", 
                            "channel": 9
                        }
                    ]
                ], 
                [
                    65880, 
                    [
                        {
                            "pitch": 38, 
                            "t0": 65880, 
                            "v": 120, 
                            "dur": 33, 
                            "type": "note", 
                            "channel": 9
                        }
                    ]
                ], 
                [
                    66000, 
                    [
                        {
                            "pitch": 36, 
                            "t0": 66000, 
                            "v": 114, 
                            "dur": 29, 
                            "type": "note", 
                            "channel": 9
                        }
                    ]
                ], 
                [
                    66080, 
                    [
                        {
                            "pitch": 36, 
                            "t0": 66080, 
                            "v": 95, 
                            "dur": 24, 
                            "type": "note", 
                            "channel": 9
                        }
                    ]
                ], 
                [
                    66120, 
                    [
                        {
                            "pitch": 38, 
                            "t0": 66120, 
                            "v": 122, 
                            "dur": 39, 
                            "type": "note", 
                            "channel": 9
                        }
                    ]
                ], 
                [
                    66200, 
                    [
                        {
                            "pitch": 38, 
                            "t0": 66200, 
                            "v": 98, 
                            "dur": 17, 
                            "type": "note", 
                            "channel": 9
                        }
                    ]
                ], 
                [
                    66240, 
                    [
                        {
                            "pitch": 36, 
                            "t0": 66240, 
                            "v": 108, 
                            "dur": 42, 
                            "type": "note", 
                            "channel": 9
                        }
                    ]
                ], 
                [
                    66360, 
                    [
                        {
                            "pitch": 38, 
                            "t0": 66360, 
                            "v": 125, 
                            "dur": 38, 
                            "type": "note", 
                            "channel": 9
                        }
                    ]
                ], 
                [
                    66480, 
                    [
                        {
                            "pitch": 36, 
                            "t0": 66480, 
                            "v": 108, 
                            "dur": 34, 
                            "type": "note", 
                            "channel": 9
                        }
                    ]
                ], 
                [
                    66560, 
                    [
                        {
                            "pitch": 36, 
                            "t0": 66560, 
                            "v": 91, 
                            "dur": 22, 
                            "type": "note", 
                            "channel": 9
                        }
                    ]
                ], 
                [
                    66600, 
                    [
                        {
                            "pitch": 38, 
                            "t0": 66600, 
                            "v": 120, 
                            "dur": 40, 
                            "type": "note", 
                            "channel": 9
                        }
                    ]
                ], 
                [
                    66680, 
                    [
                        {
                            "pitch": 38, 
                            "t0": 66680, 
                            "v": 94, 
                            "dur": 18, 
                            "type": "note", 
                            "channel": 9
                        }
                    ]
                ], 
                [
                    66720, 
                    [
                        {
                            "pitch": 49, 
                            "t0": 66720, 
                            "v": 99, 
                            "dur": 24, 
                            "type": "note", 
                            "channel": 9
                        }, 
                        {
                            "pitch": 36, 
                            "t0": 66720, 
                            "v": 106, 
                            "dur": 50, 
                            "type": "note", 
                            "channel": 9
                        }
                    ]
                ], 
                [
                    66800, 
                    [
                        {
                            "pitch": 38, 
                            "t0": 66800, 
                            "v": 98, 
                            "dur": 19, 
                            "type": "note", 
                            "channel": 9
                        }
                    ]
                ], 
                [
                    66840, 
                    [
                        {
                            "pitch": 49, 
                            "t0": 66840, 
                            "v": 107, 
                            "dur": 27, 
                            "type": "note", 
                            "channel": 9
                        }, 
                        {
                            "pitch": 36, 
                            "t0": 66840, 
                            "v": 120, 
                            "dur": 48, 
                            "type": "note", 
                            "channel": 9
                        }
                    ]
                ], 
                [
                    66920, 
                    [
                        {
                            "pitch": 38, 
                            "t0": 66920, 
                            "v": 95, 
                            "dur": 17, 
                            "type": "note", 
                            "channel": 9
                        }
                    ]
                ], 
                [
                    66960, 
                    [
                        {
                            "pitch": 49, 
                            "t0": 66960, 
                            "v": 101, 
                            "dur": 27, 
                            "type": "note", 
                            "channel": 9
                        }, 
                        {
                            "pitch": 36, 
                            "t0": 66960, 
                            "v": 112, 
                            "dur": 45, 
                            "type": "note", 
                            "channel": 9
                        }
                    ]
                ], 
                [
                    67040, 
                    [
                        {
                            "pitch": 38, 
                            "t0": 67040, 
                            "v": 87, 
                            "dur": 16, 
                            "type": "note", 
                            "channel": 9
                        }
                    ]
                ], 
                [
                    67080, 
                    [
                        {
                            "pitch": 49, 
                            "t0": 67080, 
                            "v": 95, 
                            "dur": 28, 
                            "type": "note", 
                            "channel": 9
                        }, 
                        {
                            "pitch": 36, 
                            "t0": 67080, 
                            "v": 110, 
                            "dur": 48, 
                            "type": "note", 
                            "channel": 9
                        }
                    ]
                ], 
                [
                    67160, 
                    [
                        {
                            "pitch": 38, 
                            "t0": 67160, 
                            "v": 94, 
                            "dur": 21, 
                            "type": "note", 
                            "channel": 9
                        }
                    ]
                ], 
                [
                    67200, 
                    [
                        {
                            "pitch": 49, 
                            "t0": 67200, 
                            "v": 95, 
                            "dur": 28, 
                            "type": "note", 
                            "channel": 9
                        }, 
                        {
                            "pitch": 36, 
                            "t0": 67200, 
                            "v": 112, 
                            "dur": 45, 
                            "type": "note", 
                            "channel": 9
                        }
                    ]
                ], 
                [
                    67280, 
                    [
                        {
                            "pitch": 38, 
                            "t0": 67280, 
                            "v": 98, 
                            "dur": 20, 
                            "type": "note", 
                            "channel": 9
                        }
                    ]
                ], 
                [
                    67320, 
                    [
                        {
                            "pitch": 49, 
                            "t0": 67320, 
                            "v": 95, 
                            "dur": 26, 
                            "type": "note", 
                            "channel": 9
                        }, 
                        {
                            "pitch": 36, 
                            "t0": 67320, 
                            "v": 110, 
                            "dur": 49, 
                            "type": "note", 
                            "channel": 9
                        }
                    ]
                ], 
                [
                    67400, 
                    [
                        {
                            "pitch": 38, 
                            "t0": 67400, 
                            "v": 97, 
                            "dur": 20, 
                            "type": "note", 
                            "channel": 9
                        }
                    ]
                ], 
                [
                    67440, 
                    [
                        {
                            "pitch": 49, 
                            "t0": 67440, 
                            "v": 93, 
                            "dur": 24, 
                            "type": "note", 
                            "channel": 9
                        }, 
                        {
                            "pitch": 36, 
                            "t0": 67440, 
                            "v": 106, 
                            "dur": 48, 
                            "type": "note", 
                            "channel": 9
                        }
                    ]
                ], 
                [
                    67520, 
                    [
                        {
                            "pitch": 38, 
                            "t0": 67520, 
                            "v": 102, 
                            "dur": 19, 
                            "type": "note", 
                            "channel": 9
                        }
                    ]
                ], 
                [
                    67560, 
                    [
                        {
                            "pitch": 49, 
                            "t0": 67560, 
                            "v": 99, 
                            "dur": 29, 
                            "type": "note", 
                            "channel": 9
                        }, 
                        {
                            "pitch": 36, 
                            "t0": 67560, 
                            "v": 110, 
                            "dur": 45, 
                            "type": "note", 
                            "channel": 9
                        }
                    ]
                ], 
                [
                    67640, 
                    [
                        {
                            "pitch": 38, 
                            "t0": 67640, 
                            "v": 94, 
                            "dur": 20, 
                            "type": "note", 
                            "channel": 9
                        }
                    ]
                ], 
                [
                    67680, 
                    [
                        {
                            "pitch": 49, 
                            "t0": 67680, 
                            "v": 99, 
                            "dur": 28, 
                            "type": "note", 
                            "channel": 9
                        }, 
                        {
                            "pitch": 36, 
                            "t0": 67680, 
                            "v": 110, 
                            "dur": 59, 
                            "type": "note", 
                            "channel": 9
                        }
                    ]
                ], 
                [
                    67800, 
                    [
                        {
                            "pitch": 38, 
                            "t0": 67800, 
                            "v": 112, 
                            "dur": 33, 
                            "type": "note", 
                            "channel": 9
                        }
                    ]
                ], 
                [
                    67880, 
                    [
                        {
                            "pitch": 38, 
                            "t0": 67880, 
                            "v": 100, 
                            "dur": 20, 
                            "type": "note", 
                            "channel": 9
                        }
                    ]
                ], 
                [
                    67920, 
                    [
                        {
                            "pitch": 36, 
                            "t0": 67920, 
                            "v": 108, 
                            "dur": 46, 
                            "type": "note", 
                            "channel": 9
                        }
                    ]
                ], 
                [
                    68000, 
                    [
                        {
                            "pitch": 36, 
                            "t0": 68000, 
                            "v": 73, 
                            "dur": 9, 
                            "type": "note", 
                            "channel": 9
                        }, 
                        {
                            "pitch": 38, 
                            "t0": 68000, 
                            "v": 85, 
                            "dur": 19, 
                            "type": "note", 
                            "channel": 9
                        }
                    ]
                ], 
                [
                    68040, 
                    [
                        {
                            "pitch": 38, 
                            "t0": 68040, 
                            "v": 114, 
                            "dur": 43, 
                            "type": "note", 
                            "channel": 9
                        }
                    ]
                ], 
                [
                    68120, 
                    [
                        {
                            "pitch": 38, 
                            "t0": 68120, 
                            "v": 94, 
                            "dur": 20, 
                            "type": "note", 
                            "channel": 9
                        }
                    ]
                ], 
                [
                    68160, 
                    [
                        {
                            "pitch": 49, 
                            "t0": 68160, 
                            "v": 97, 
                            "dur": 25, 
                            "type": "note", 
                            "channel": 9
                        }, 
                        {
                            "pitch": 36, 
                            "t0": 68160, 
                            "v": 106, 
                            "dur": 50, 
                            "type": "note", 
                            "channel": 9
                        }
                    ]
                ], 
                [
                    68240, 
                    [
                        {
                            "pitch": 36, 
                            "t0": 68240, 
                            "v": 90, 
                            "dur": 23, 
                            "type": "note", 
                            "channel": 9
                        }
                    ]
                ], 
                [
                    68280, 
                    [
                        {
                            "pitch": 38, 
                            "t0": 68280, 
                            "v": 110, 
                            "dur": 46, 
                            "type": "note", 
                            "channel": 9
                        }
                    ]
                ], 
                [
                    68360, 
                    [
                        {
                            "pitch": 38, 
                            "t0": 68360, 
                            "v": 98, 
                            "dur": 22, 
                            "type": "note", 
                            "channel": 9
                        }
                    ]
                ], 
                [
                    68400, 
                    [
                        {
                            "pitch": 36, 
                            "t0": 68400, 
                            "v": 104, 
                            "dur": 55, 
                            "type": "note", 
                            "channel": 9
                        }
                    ]
                ], 
                [
                    68480, 
                    [
                        {
                            "pitch": 38, 
                            "t0": 68480, 
                            "v": 95, 
                            "dur": 22, 
                            "type": "note", 
                            "channel": 9
                        }
                    ]
                ], 
                [
                    68520, 
                    [
                        {
                            "pitch": 36, 
                            "t0": 68520, 
                            "v": 100, 
                            "dur": 49, 
                            "type": "note", 
                            "channel": 9
                        }
                    ]
                ], 
                [
                    68600, 
                    [
                        {
                            "pitch": 38, 
                            "t0": 68600, 
                            "v": 97, 
                            "dur": 20, 
                            "type": "note", 
                            "channel": 9
                        }
                    ]
                ], 
                [
                    68640, 
                    [
                        {
                            "pitch": 49, 
                            "t0": 68640, 
                            "v": 93, 
                            "dur": 28, 
                            "type": "note", 
                            "channel": 9
                        }, 
                        {
                            "pitch": 36, 
                            "t0": 68640, 
                            "v": 104, 
                            "dur": 55, 
                            "type": "note", 
                            "channel": 9
                        }
                    ]
                ], 
                [
                    68720, 
                    [
                        {
                            "pitch": 38, 
                            "t0": 68720, 
                            "v": 90, 
                            "dur": 18, 
                            "type": "note", 
                            "channel": 9
                        }
                    ]
                ], 
                [
                    68760, 
                    [
                        {
                            "pitch": 49, 
                            "t0": 68760, 
                            "v": 91, 
                            "dur": 31, 
                            "type": "note", 
                            "channel": 9
                        }, 
                        {
                            "pitch": 36, 
                            "t0": 68760, 
                            "v": 112, 
                            "dur": 48, 
                            "type": "note", 
                            "channel": 9
                        }
                    ]
                ], 
                [
                    68840, 
                    [
                        {
                            "pitch": 38, 
                            "t0": 68840, 
                            "v": 91, 
                            "dur": 16, 
                            "type": "note", 
                            "channel": 9
                        }
                    ]
                ], 
                [
                    68880, 
                    [
                        {
                            "pitch": 49, 
                            "t0": 68880, 
                            "v": 99, 
                            "dur": 37, 
                            "type": "note", 
                            "channel": 9
                        }, 
                        {
                            "pitch": 36, 
                            "t0": 68880, 
                            "v": 112, 
                            "dur": 49, 
                            "type": "note", 
                            "channel": 9
                        }
                    ]
                ], 
                [
                    68960, 
                    [
                        {
                            "pitch": 38, 
                            "t0": 68960, 
                            "v": 86, 
                            "dur": 19, 
                            "type": "note", 
                            "channel": 9
                        }
                    ]
                ], 
                [
                    69000, 
                    [
                        {
                            "pitch": 49, 
                            "t0": 69000, 
                            "v": 95, 
                            "dur": 35, 
                            "type": "note", 
                            "channel": 9
                        }, 
                        {
                            "pitch": 36, 
                            "t0": 69000, 
                            "v": 108, 
                            "dur": 46, 
                            "type": "note", 
                            "channel": 9
                        }
                    ]
                ], 
                [
                    69080, 
                    [
                        {
                            "pitch": 36, 
                            "t0": 69080, 
                            "v": 100, 
                            "dur": 27, 
                            "type": "note", 
                            "channel": 9
                        }, 
                        {
                            "pitch": 49, 
                            "t0": 69080, 
                            "v": 97, 
                            "dur": 29, 
                            "type": "note", 
                            "channel": 9
                        }
                    ]
                ], 
                [
                    69200, 
                    [
                        {
                            "pitch": 38, 
                            "t0": 69200, 
                            "v": 95, 
                            "dur": 19, 
                            "type": "note", 
                            "channel": 9
                        }
                    ]
                ], 
                [
                    69240, 
                    [
                        {
                            "pitch": 38, 
                            "t0": 69240, 
                            "v": 106, 
                            "dur": 42, 
                            "type": "note", 
                            "channel": 9
                        }
                    ]
                ], 
                [
                    69320, 
                    [
                        {
                            "pitch": 38, 
                            "t0": 69320, 
                            "v": 100, 
                            "dur": 19, 
                            "type": "note", 
                            "channel": 9
                        }
                    ]
                ], 
                [
                    69360, 
                    [
                        {
                            "pitch": 38, 
                            "t0": 69360, 
                            "v": 106, 
                            "dur": 45, 
                            "type": "note", 
                            "channel": 9
                        }
                    ]
                ], 
                [
                    69440, 
                    [
                        {
                            "pitch": 38, 
                            "t0": 69440, 
                            "v": 104, 
                            "dur": 20, 
                            "type": "note", 
                            "channel": 9
                        }
                    ]
                ], 
                [
                    69480, 
                    [
                        {
                            "pitch": 38, 
                            "t0": 69480, 
                            "v": 117, 
                            "dur": 22, 
                            "type": "note", 
                            "channel": 9
                        }
                    ]
                ], 
                [
                    69520, 
                    [
                        {
                            "pitch": 38, 
                            "t0": 69520, 
                            "v": 102, 
                            "dur": 19, 
                            "type": "note", 
                            "channel": 9
                        }
                    ]
                ], 
                [
                    69560, 
                    [
                        {
                            "pitch": 38, 
                            "t0": 69560, 
                            "v": 108, 
                            "dur": 22, 
                            "type": "note", 
                            "channel": 9
                        }
                    ]
                ], 
                [
                    69600, 
                    [
                        {
                            "pitch": 49, 
                            "t0": 69600, 
                            "v": 104, 
                            "dur": 28, 
                            "type": "note", 
                            "channel": 9
                        }, 
                        {
                            "pitch": 36, 
                            "t0": 69600, 
                            "v": 112, 
                            "dur": 56, 
                            "type": "note", 
                            "channel": 9
                        }
                    ]
                ], 
                [
                    69720, 
                    [
                        {
                            "pitch": 38, 
                            "t0": 69720, 
                            "v": 112, 
                            "dur": 37, 
                            "type": "note", 
                            "channel": 9
                        }
                    ]
                ], 
                [
                    69800, 
                    [
                        {
                            "pitch": 38, 
                            "t0": 69800, 
                            "v": 85, 
                            "dur": 19, 
                            "type": "note", 
                            "channel": 9
                        }
                    ]
                ], 
                [
                    69840, 
                    [
                        {
                            "pitch": 36, 
                            "t0": 69840, 
                            "v": 97, 
                            "dur": 48, 
                            "type": "note", 
                            "channel": 9
                        }
                    ]
                ], 
                [
                    69920, 
                    [
                        {
                            "pitch": 36, 
                            "t0": 69920, 
                            "v": 104, 
                            "dur": 21, 
                            "type": "note", 
                            "channel": 9
                        }
                    ]
                ], 
                [
                    69960, 
                    [
                        {
                            "pitch": 38, 
                            "t0": 69960, 
                            "v": 114, 
                            "dur": 42, 
                            "type": "note", 
                            "channel": 9
                        }
                    ]
                ], 
                [
                    70040, 
                    [
                        {
                            "pitch": 38, 
                            "t0": 70040, 
                            "v": 98, 
                            "dur": 19, 
                            "type": "note", 
                            "channel": 9
                        }
                    ]
                ], 
                [
                    70080, 
                    [
                        {
                            "pitch": 49, 
                            "t0": 70080, 
                            "v": 99, 
                            "dur": 27, 
                            "type": "note", 
                            "channel": 9
                        }, 
                        {
                            "pitch": 36, 
                            "t0": 70080, 
                            "v": 110, 
                            "dur": 51, 
                            "type": "note", 
                            "channel": 9
                        }
                    ]
                ], 
                [
                    70160, 
                    [
                        {
                            "pitch": 36, 
                            "t0": 70160, 
                            "v": 98, 
                            "dur": 22, 
                            "type": "note", 
                            "channel": 9
                        }
                    ]
                ], 
                [
                    70200, 
                    [
                        {
                            "pitch": 38, 
                            "t0": 70200, 
                            "v": 120, 
                            "dur": 43, 
                            "type": "note", 
                            "channel": 9
                        }
                    ]
                ], 
                [
                    70280, 
                    [
                        {
                            "pitch": 38, 
                            "t0": 70280, 
                            "v": 91, 
                            "dur": 22, 
                            "type": "note", 
                            "channel": 9
                        }
                    ]
                ], 
                [
                    70320, 
                    [
                        {
                            "pitch": 36, 
                            "t0": 70320, 
                            "v": 110, 
                            "dur": 48, 
                            "type": "note", 
                            "channel": 9
                        }
                    ]
                ], 
                [
                    70400, 
                    [
                        {
                            "pitch": 36, 
                            "t0": 70400, 
                            "v": 102, 
                            "dur": 21, 
                            "type": "note", 
                            "channel": 9
                        }
                    ]
                ], 
                [
                    70440, 
                    [
                        {
                            "pitch": 38, 
                            "t0": 70440, 
                            "v": 114, 
                            "dur": 48, 
                            "type": "note", 
                            "channel": 9
                        }
                    ]
                ], 
                [
                    70520, 
                    [
                        {
                            "pitch": 38, 
                            "t0": 70520, 
                            "v": 95, 
                            "dur": 19, 
                            "type": "note", 
                            "channel": 9
                        }
                    ]
                ], 
                [
                    70560, 
                    [
                        {
                            "pitch": 49, 
                            "t0": 70560, 
                            "v": 104, 
                            "dur": 28, 
                            "type": "note", 
                            "channel": 9
                        }, 
                        {
                            "pitch": 36, 
                            "t0": 70560, 
                            "v": 112, 
                            "dur": 51, 
                            "type": "note", 
                            "channel": 9
                        }
                    ]
                ], 
                [
                    70640, 
                    [
                        {
                            "pitch": 38, 
                            "t0": 70640, 
                            "v": 98, 
                            "dur": 20, 
                            "type": "note", 
                            "channel": 9
                        }
                    ]
                ], 
                [
                    70680, 
                    [
                        {
                            "pitch": 38, 
                            "t0": 70680, 
                            "v": 106, 
                            "dur": 42, 
                            "type": "note", 
                            "channel": 9
                        }
                    ]
                ], 
                [
                    70760, 
                    [
                        {
                            "pitch": 38, 
                            "t0": 70760, 
                            "v": 100, 
                            "dur": 18, 
                            "type": "note", 
                            "channel": 9
                        }
                    ]
                ], 
                [
                    70800, 
                    [
                        {
                            "pitch": 38, 
                            "t0": 70800, 
                            "v": 106, 
                            "dur": 44, 
                            "type": "note", 
                            "channel": 9
                        }
                    ]
                ], 
                [
                    70880, 
                    [
                        {
                            "pitch": 38, 
                            "t0": 70880, 
                            "v": 98, 
                            "dur": 20, 
                            "type": "note", 
                            "channel": 9
                        }
                    ]
                ], 
                [
                    70920, 
                    [
                        {
                            "pitch": 38, 
                            "t0": 70920, 
                            "v": 114, 
                            "dur": 44, 
                            "type": "note", 
                            "channel": 9
                        }
                    ]
                ], 
                [
                    71000, 
                    [
                        {
                            "pitch": 38, 
                            "t0": 71000, 
                            "v": 97, 
                            "dur": 17, 
                            "type": "note", 
                            "channel": 9
                        }
                    ]
                ], 
                [
                    71040, 
                    [
                        {
                            "pitch": 38, 
                            "t0": 71040, 
                            "v": 110, 
                            "dur": 21, 
                            "type": "note", 
                            "channel": 9
                        }
                    ]
                ], 
                [
                    71080, 
                    [
                        {
                            "pitch": 38, 
                            "t0": 71080, 
                            "v": 104, 
                            "dur": 20, 
                            "type": "note", 
                            "channel": 9
                        }
                    ]
                ], 
                [
                    71120, 
                    [
                        {
                            "pitch": 38, 
                            "t0": 71120, 
                            "v": 114, 
                            "dur": 22, 
                            "type": "note", 
                            "channel": 9
                        }
                    ]
                ], 
                [
                    71160, 
                    [
                        {
                            "pitch": 49, 
                            "t0": 71160, 
                            "v": 107, 
                            "dur": 28, 
                            "type": "note", 
                            "channel": 9
                        }, 
                        {
                            "pitch": 36, 
                            "t0": 71160, 
                            "v": 114, 
                            "dur": 44, 
                            "type": "note", 
                            "channel": 9
                        }
                    ]
                ], 
                [
                    71240, 
                    [
                        {
                            "pitch": 38, 
                            "t0": 71240, 
                            "v": 104, 
                            "dur": 22, 
                            "type": "note", 
                            "channel": 9
                        }
                    ]
                ], 
                [
                    71280, 
                    [
                        {
                            "pitch": 52, 
                            "t0": 71280, 
                            "v": 114, 
                            "dur": 25, 
                            "type": "note", 
                            "channel": 9
                        }, 
                        {
                            "pitch": 36, 
                            "t0": 71280, 
                            "v": 117, 
                            "dur": 36, 
                            "type": "note", 
                            "channel": 9
                        }
                    ]
                ]
            ], 
            "instruments": [], 
            "tMax": 71316, 
            "channels": [
                9
            ], 
            "numNotes": 1009, 
            "type": "TrackObj"
        }, 
        {
            "trackName": "ch10 jazzdrums", 
            "seq": [
                [
                    600, 
                    [
                        {
                            "pitch": 42, 
                            "t0": 600, 
                            "v": 89, 
                            "dur": 41, 
                            "type": "note", 
                            "channel": 9
                        }
                    ]
                ], 
                [
                    680, 
                    [
                        {
                            "pitch": 42, 
                            "t0": 680, 
                            "v": 93, 
                            "dur": 20, 
                            "type": "note", 
                            "channel": 9
                        }
                    ]
                ], 
                [
                    720, 
                    [
                        {
                            "pitch": 42, 
                            "t0": 720, 
                            "v": 99, 
                            "dur": 42, 
                            "type": "note", 
                            "channel": 9
                        }
                    ]
                ], 
                [
                    800, 
                    [
                        {
                            "pitch": 42, 
                            "t0": 800, 
                            "v": 74, 
                            "dur": 22, 
                            "type": "note", 
                            "channel": 9
                        }
                    ]
                ], 
                [
                    840, 
                    [
                        {
                            "pitch": 42, 
                            "t0": 840, 
                            "v": 95, 
                            "dur": 43, 
                            "type": "note", 
                            "channel": 9
                        }
                    ]
                ], 
                [
                    920, 
                    [
                        {
                            "pitch": 46, 
                            "t0": 920, 
                            "v": 91, 
                            "dur": 25, 
                            "type": "note", 
                            "channel": 9
                        }
                    ]
                ], 
                [
                    960, 
                    [
                        {
                            "pitch": 42, 
                            "t0": 960, 
                            "v": 119, 
                            "dur": 40, 
                            "type": "note", 
                            "channel": 9
                        }
                    ]
                ], 
                [
                    1040, 
                    [
                        {
                            "pitch": 42, 
                            "t0": 1040, 
                            "v": 81, 
                            "dur": 18, 
                            "type": "note", 
                            "channel": 9
                        }
                    ]
                ], 
                [
                    1080, 
                    [
                        {
                            "pitch": 42, 
                            "t0": 1080, 
                            "v": 101, 
                            "dur": 43, 
                            "type": "note", 
                            "channel": 9
                        }
                    ]
                ], 
                [
                    1160, 
                    [
                        {
                            "pitch": 42, 
                            "t0": 1160, 
                            "v": 85, 
                            "dur": 21, 
                            "type": "note", 
                            "channel": 9
                        }
                    ]
                ], 
                [
                    1200, 
                    [
                        {
                            "pitch": 42, 
                            "t0": 1200, 
                            "v": 95, 
                            "dur": 46, 
                            "type": "note", 
                            "channel": 9
                        }
                    ]
                ], 
                [
                    1280, 
                    [
                        {
                            "pitch": 42, 
                            "t0": 1280, 
                            "v": 82, 
                            "dur": 21, 
                            "type": "note", 
                            "channel": 9
                        }
                    ]
                ], 
                [
                    1320, 
                    [
                        {
                            "pitch": 42, 
                            "t0": 1320, 
                            "v": 95, 
                            "dur": 49, 
                            "type": "note", 
                            "channel": 9
                        }
                    ]
                ], 
                [
                    1400, 
                    [
                        {
                            "pitch": 42, 
                            "t0": 1400, 
                            "v": 81, 
                            "dur": 21, 
                            "type": "note", 
                            "channel": 9
                        }
                    ]
                ], 
                [
                    1440, 
                    [
                        {
                            "pitch": 42, 
                            "t0": 1440, 
                            "v": 95, 
                            "dur": 49, 
                            "type": "note", 
                            "channel": 9
                        }
                    ]
                ], 
                [
                    1520, 
                    [
                        {
                            "pitch": 42, 
                            "t0": 1520, 
                            "v": 79, 
                            "dur": 19, 
                            "type": "note", 
                            "channel": 9
                        }
                    ]
                ], 
                [
                    1560, 
                    [
                        {
                            "pitch": 42, 
                            "t0": 1560, 
                            "v": 85, 
                            "dur": 46, 
                            "type": "note", 
                            "channel": 9
                        }
                    ]
                ], 
                [
                    1640, 
                    [
                        {
                            "pitch": 42, 
                            "t0": 1640, 
                            "v": 79, 
                            "dur": 22, 
                            "type": "note", 
                            "channel": 9
                        }
                    ]
                ], 
                [
                    1680, 
                    [
                        {
                            "pitch": 42, 
                            "t0": 1680, 
                            "v": 87, 
                            "dur": 44, 
                            "type": "note", 
                            "channel": 9
                        }
                    ]
                ], 
                [
                    1760, 
                    [
                        {
                            "pitch": 42, 
                            "t0": 1760, 
                            "v": 82, 
                            "dur": 20, 
                            "type": "note", 
                            "channel": 9
                        }
                    ]
                ], 
                [
                    1800, 
                    [
                        {
                            "pitch": 42, 
                            "t0": 1800, 
                            "v": 91, 
                            "dur": 43, 
                            "type": "note", 
                            "channel": 9
                        }
                    ]
                ], 
                [
                    1880, 
                    [
                        {
                            "pitch": 42, 
                            "t0": 1880, 
                            "v": 74, 
                            "dur": 22, 
                            "type": "note", 
                            "channel": 9
                        }
                    ]
                ], 
                [
                    1920, 
                    [
                        {
                            "pitch": 42, 
                            "t0": 1920, 
                            "v": 95, 
                            "dur": 44, 
                            "type": "note", 
                            "channel": 9
                        }
                    ]
                ], 
                [
                    2000, 
                    [
                        {
                            "pitch": 42, 
                            "t0": 2000, 
                            "v": 85, 
                            "dur": 19, 
                            "type": "note", 
                            "channel": 9
                        }
                    ]
                ], 
                [
                    2040, 
                    [
                        {
                            "pitch": 42, 
                            "t0": 2040, 
                            "v": 87, 
                            "dur": 43, 
                            "type": "note", 
                            "channel": 9
                        }
                    ]
                ], 
                [
                    2120, 
                    [
                        {
                            "pitch": 42, 
                            "t0": 2120, 
                            "v": 77, 
                            "dur": 24, 
                            "type": "note", 
                            "channel": 9
                        }
                    ]
                ], 
                [
                    2160, 
                    [
                        {
                            "pitch": 42, 
                            "t0": 2160, 
                            "v": 95, 
                            "dur": 46, 
                            "type": "note", 
                            "channel": 9
                        }
                    ]
                ], 
                [
                    2240, 
                    [
                        {
                            "pitch": 42, 
                            "t0": 2240, 
                            "v": 84, 
                            "dur": 24, 
                            "type": "note", 
                            "channel": 9
                        }
                    ]
                ], 
                [
                    2280, 
                    [
                        {
                            "pitch": 42, 
                            "t0": 2280, 
                            "v": 91, 
                            "dur": 46, 
                            "type": "note", 
                            "channel": 9
                        }
                    ]
                ], 
                [
                    2360, 
                    [
                        {
                            "pitch": 42, 
                            "t0": 2360, 
                            "v": 91, 
                            "dur": 24, 
                            "type": "note", 
                            "channel": 9
                        }
                    ]
                ], 
                [
                    2400, 
                    [
                        {
                            "pitch": 42, 
                            "t0": 2400, 
                            "v": 87, 
                            "dur": 44, 
                            "type": "note", 
                            "channel": 9
                        }
                    ]
                ], 
                [
                    2480, 
                    [
                        {
                            "pitch": 42, 
                            "t0": 2480, 
                            "v": 84, 
                            "dur": 21, 
                            "type": "note", 
                            "channel": 9
                        }
                    ]
                ], 
                [
                    2520, 
                    [
                        {
                            "pitch": 42, 
                            "t0": 2520, 
                            "v": 95, 
                            "dur": 44, 
                            "type": "note", 
                            "channel": 9
                        }
                    ]
                ], 
                [
                    2600, 
                    [
                        {
                            "pitch": 42, 
                            "t0": 2600, 
                            "v": 87, 
                            "dur": 23, 
                            "type": "note", 
                            "channel": 9
                        }
                    ]
                ], 
                [
                    2640, 
                    [
                        {
                            "pitch": 42, 
                            "t0": 2640, 
                            "v": 97, 
                            "dur": 43, 
                            "type": "note", 
                            "channel": 9
                        }
                    ]
                ], 
                [
                    2720, 
                    [
                        {
                            "pitch": 42, 
                            "t0": 2720, 
                            "v": 82, 
                            "dur": 22, 
                            "type": "note", 
                            "channel": 9
                        }
                    ]
                ], 
                [
                    2760, 
                    [
                        {
                            "pitch": 42, 
                            "t0": 2760, 
                            "v": 91, 
                            "dur": 44, 
                            "type": "note", 
                            "channel": 9
                        }
                    ]
                ], 
                [
                    2840, 
                    [
                        {
                            "pitch": 42, 
                            "t0": 2840, 
                            "v": 89, 
                            "dur": 22, 
                            "type": "note", 
                            "channel": 9
                        }
                    ]
                ], 
                [
                    2880, 
                    [
                        {
                            "pitch": 42, 
                            "t0": 2880, 
                            "v": 91, 
                            "dur": 46, 
                            "type": "note", 
                            "channel": 9
                        }
                    ]
                ], 
                [
                    2960, 
                    [
                        {
                            "pitch": 42, 
                            "t0": 2960, 
                            "v": 91, 
                            "dur": 21, 
                            "type": "note", 
                            "channel": 9
                        }
                    ]
                ], 
                [
                    3000, 
                    [
                        {
                            "pitch": 42, 
                            "t0": 3000, 
                            "v": 93, 
                            "dur": 44, 
                            "type": "note", 
                            "channel": 9
                        }
                    ]
                ], 
                [
                    3080, 
                    [
                        {
                            "pitch": 42, 
                            "t0": 3080, 
                            "v": 89, 
                            "dur": 24, 
                            "type": "note", 
                            "channel": 9
                        }
                    ]
                ], 
                [
                    3120, 
                    [
                        {
                            "pitch": 42, 
                            "t0": 3120, 
                            "v": 93, 
                            "dur": 46, 
                            "type": "note", 
                            "channel": 9
                        }
                    ]
                ], 
                [
                    3200, 
                    [
                        {
                            "pitch": 42, 
                            "t0": 3200, 
                            "v": 81, 
                            "dur": 24, 
                            "type": "note", 
                            "channel": 9
                        }
                    ]
                ], 
                [
                    3240, 
                    [
                        {
                            "pitch": 42, 
                            "t0": 3240, 
                            "v": 93, 
                            "dur": 46, 
                            "type": "note", 
                            "channel": 9
                        }
                    ]
                ], 
                [
                    3320, 
                    [
                        {
                            "pitch": 42, 
                            "t0": 3320, 
                            "v": 93, 
                            "dur": 24, 
                            "type": "note", 
                            "channel": 9
                        }
                    ]
                ], 
                [
                    3360, 
                    [
                        {
                            "pitch": 42, 
                            "t0": 3360, 
                            "v": 95, 
                            "dur": 45, 
                            "type": "note", 
                            "channel": 9
                        }
                    ]
                ], 
                [
                    3440, 
                    [
                        {
                            "pitch": 42, 
                            "t0": 3440, 
                            "v": 87, 
                            "dur": 20, 
                            "type": "note", 
                            "channel": 9
                        }
                    ]
                ], 
                [
                    3480, 
                    [
                        {
                            "pitch": 42, 
                            "t0": 3480, 
                            "v": 97, 
                            "dur": 46, 
                            "type": "note", 
                            "channel": 9
                        }
                    ]
                ], 
                [
                    3560, 
                    [
                        {
                            "pitch": 42, 
                            "t0": 3560, 
                            "v": 93, 
                            "dur": 23, 
                            "type": "note", 
                            "channel": 9
                        }
                    ]
                ], 
                [
                    3600, 
                    [
                        {
                            "pitch": 42, 
                            "t0": 3600, 
                            "v": 97, 
                            "dur": 42, 
                            "type": "note", 
                            "channel": 9
                        }
                    ]
                ], 
                [
                    3680, 
                    [
                        {
                            "pitch": 42, 
                            "t0": 3680, 
                            "v": 91, 
                            "dur": 20, 
                            "type": "note", 
                            "channel": 9
                        }
                    ]
                ], 
                [
                    3720, 
                    [
                        {
                            "pitch": 42, 
                            "t0": 3720, 
                            "v": 99, 
                            "dur": 46, 
                            "type": "note", 
                            "channel": 9
                        }
                    ]
                ], 
                [
                    3800, 
                    [
                        {
                            "pitch": 42, 
                            "t0": 3800, 
                            "v": 99, 
                            "dur": 21, 
                            "type": "note", 
                            "channel": 9
                        }
                    ]
                ], 
                [
                    3840, 
                    [
                        {
                            "pitch": 42, 
                            "t0": 3840, 
                            "v": 97, 
                            "dur": 43, 
                            "type": "note", 
                            "channel": 9
                        }
                    ]
                ], 
                [
                    3920, 
                    [
                        {
                            "pitch": 42, 
                            "t0": 3920, 
                            "v": 91, 
                            "dur": 20, 
                            "type": "note", 
                            "channel": 9
                        }
                    ]
                ], 
                [
                    3960, 
                    [
                        {
                            "pitch": 42, 
                            "t0": 3960, 
                            "v": 97, 
                            "dur": 41, 
                            "type": "note", 
                            "channel": 9
                        }
                    ]
                ], 
                [
                    4040, 
                    [
                        {
                            "pitch": 42, 
                            "t0": 4040, 
                            "v": 89, 
                            "dur": 19, 
                            "type": "note", 
                            "channel": 9
                        }
                    ]
                ], 
                [
                    4080, 
                    [
                        {
                            "pitch": 42, 
                            "t0": 4080, 
                            "v": 99, 
                            "dur": 42, 
                            "type": "note", 
                            "channel": 9
                        }
                    ]
                ], 
                [
                    4160, 
                    [
                        {
                            "pitch": 42, 
                            "t0": 4160, 
                            "v": 87, 
                            "dur": 19, 
                            "type": "note", 
                            "channel": 9
                        }
                    ]
                ], 
                [
                    4200, 
                    [
                        {
                            "pitch": 42, 
                            "t0": 4200, 
                            "v": 101, 
                            "dur": 45, 
                            "type": "note", 
                            "channel": 9
                        }
                    ]
                ], 
                [
                    4280, 
                    [
                        {
                            "pitch": 42, 
                            "t0": 4280, 
                            "v": 99, 
                            "dur": 23, 
                            "type": "note", 
                            "channel": 9
                        }
                    ]
                ], 
                [
                    4440, 
                    [
                        {
                            "pitch": 42, 
                            "t0": 4440, 
                            "v": 104, 
                            "dur": 31, 
                            "type": "note", 
                            "channel": 9
                        }
                    ]
                ], 
                [
                    4520, 
                    [
                        {
                            "pitch": 42, 
                            "t0": 4520, 
                            "v": 84, 
                            "dur": 19, 
                            "type": "note", 
                            "channel": 9
                        }
                    ]
                ], 
                [
                    4560, 
                    [
                        {
                            "pitch": 42, 
                            "t0": 4560, 
                            "v": 97, 
                            "dur": 43, 
                            "type": "note", 
                            "channel": 9
                        }
                    ]
                ], 
                [
                    4640, 
                    [
                        {
                            "pitch": 42, 
                            "t0": 4640, 
                            "v": 89, 
                            "dur": 22, 
                            "type": "note", 
                            "channel": 9
                        }
                    ]
                ], 
                [
                    4680, 
                    [
                        {
                            "pitch": 42, 
                            "t0": 4680, 
                            "v": 97, 
                            "dur": 48, 
                            "type": "note", 
                            "channel": 9
                        }
                    ]
                ], 
                [
                    4760, 
                    [
                        {
                            "pitch": 46, 
                            "t0": 4760, 
                            "v": 82, 
                            "dur": 24, 
                            "type": "note", 
                            "channel": 9
                        }
                    ]
                ], 
                [
                    4800, 
                    [
                        {
                            "pitch": 42, 
                            "t0": 4800, 
                            "v": 107, 
                            "dur": 41, 
                            "type": "note", 
                            "channel": 9
                        }
                    ]
                ], 
                [
                    4880, 
                    [
                        {
                            "pitch": 42, 
                            "t0": 4880, 
                            "v": 81, 
                            "dur": 17, 
                            "type": "note", 
                            "channel": 9
                        }
                    ]
                ], 
                [
                    4920, 
                    [
                        {
                            "pitch": 42, 
                            "t0": 4920, 
                            "v": 99, 
                            "dur": 41, 
                            "type": "note", 
                            "channel": 9
                        }
                    ]
                ], 
                [
                    5000, 
                    [
                        {
                            "pitch": 42, 
                            "t0": 5000, 
                            "v": 84, 
                            "dur": 19, 
                            "type": "note", 
                            "channel": 9
                        }
                    ]
                ], 
                [
                    5040, 
                    [
                        {
                            "pitch": 42, 
                            "t0": 5040, 
                            "v": 95, 
                            "dur": 45, 
                            "type": "note", 
                            "channel": 9
                        }
                    ]
                ], 
                [
                    5120, 
                    [
                        {
                            "pitch": 42, 
                            "t0": 5120, 
                            "v": 87, 
                            "dur": 20, 
                            "type": "note", 
                            "channel": 9
                        }
                    ]
                ], 
                [
                    5160, 
                    [
                        {
                            "pitch": 42, 
                            "t0": 5160, 
                            "v": 99, 
                            "dur": 42, 
                            "type": "note", 
                            "channel": 9
                        }
                    ]
                ], 
                [
                    5240, 
                    [
                        {
                            "pitch": 42, 
                            "t0": 5240, 
                            "v": 87, 
                            "dur": 18, 
                            "type": "note", 
                            "channel": 9
                        }
                    ]
                ], 
                [
                    5280, 
                    [
                        {
                            "pitch": 42, 
                            "t0": 5280, 
                            "v": 97, 
                            "dur": 42, 
                            "type": "note", 
                            "channel": 9
                        }
                    ]
                ], 
                [
                    5360, 
                    [
                        {
                            "pitch": 42, 
                            "t0": 5360, 
                            "v": 93, 
                            "dur": 19, 
                            "type": "note", 
                            "channel": 9
                        }
                    ]
                ], 
                [
                    5400, 
                    [
                        {
                            "pitch": 42, 
                            "t0": 5400, 
                            "v": 101, 
                            "dur": 43, 
                            "type": "note", 
                            "channel": 9
                        }
                    ]
                ], 
                [
                    5480, 
                    [
                        {
                            "pitch": 42, 
                            "t0": 5480, 
                            "v": 93, 
                            "dur": 19, 
                            "type": "note", 
                            "channel": 9
                        }
                    ]
                ], 
                [
                    5520, 
                    [
                        {
                            "pitch": 42, 
                            "t0": 5520, 
                            "v": 99, 
                            "dur": 41, 
                            "type": "note", 
                            "channel": 9
                        }
                    ]
                ], 
                [
                    5600, 
                    [
                        {
                            "pitch": 42, 
                            "t0": 5600, 
                            "v": 89, 
                            "dur": 19, 
                            "type": "note", 
                            "channel": 9
                        }
                    ]
                ], 
                [
                    5640, 
                    [
                        {
                            "pitch": 42, 
                            "t0": 5640, 
                            "v": 99, 
                            "dur": 43, 
                            "type": "note", 
                            "channel": 9
                        }
                    ]
                ], 
                [
                    5720, 
                    [
                        {
                            "pitch": 42, 
                            "t0": 5720, 
                            "v": 84, 
                            "dur": 19, 
                            "type": "note", 
                            "channel": 9
                        }
                    ]
                ], 
                [
                    5760, 
                    [
                        {
                            "pitch": 42, 
                            "t0": 5760, 
                            "v": 97, 
                            "dur": 43, 
                            "type": "note", 
                            "channel": 9
                        }
                    ]
                ], 
                [
                    5840, 
                    [
                        {
                            "pitch": 42, 
                            "t0": 5840, 
                            "v": 81, 
                            "dur": 18, 
                            "type": "note", 
                            "channel": 9
                        }
                    ]
                ], 
                [
                    5880, 
                    [
                        {
                            "pitch": 42, 
                            "t0": 5880, 
                            "v": 99, 
                            "dur": 44, 
                            "type": "note", 
                            "channel": 9
                        }
                    ]
                ], 
                [
                    5960, 
                    [
                        {
                            "pitch": 42, 
                            "t0": 5960, 
                            "v": 85, 
                            "dur": 19, 
                            "type": "note", 
                            "channel": 9
                        }
                    ]
                ], 
                [
                    6000, 
                    [
                        {
                            "pitch": 42, 
                            "t0": 6000, 
                            "v": 99, 
                            "dur": 40, 
                            "type": "note", 
                            "channel": 9
                        }
                    ]
                ], 
                [
                    6080, 
                    [
                        {
                            "pitch": 42, 
                            "t0": 6080, 
                            "v": 87, 
                            "dur": 18, 
                            "type": "note", 
                            "channel": 9
                        }
                    ]
                ], 
                [
                    6120, 
                    [
                        {
                            "pitch": 42, 
                            "t0": 6120, 
                            "v": 97, 
                            "dur": 46, 
                            "type": "note", 
                            "channel": 9
                        }
                    ]
                ], 
                [
                    6200, 
                    [
                        {
                            "pitch": 42, 
                            "t0": 6200, 
                            "v": 95, 
                            "dur": 21, 
                            "type": "note", 
                            "channel": 9
                        }
                    ]
                ], 
                [
                    6360, 
                    [
                        {
                            "pitch": 42, 
                            "t0": 6360, 
                            "v": 101, 
                            "dur": 31, 
                            "type": "note", 
                            "channel": 9
                        }
                    ]
                ], 
                [
                    6440, 
                    [
                        {
                            "pitch": 42, 
                            "t0": 6440, 
                            "v": 89, 
                            "dur": 18, 
                            "type": "note", 
                            "channel": 9
                        }
                    ]
                ], 
                [
                    6480, 
                    [
                        {
                            "pitch": 42, 
                            "t0": 6480, 
                            "v": 104, 
                            "dur": 43, 
                            "type": "note", 
                            "channel": 9
                        }
                    ]
                ], 
                [
                    6560, 
                    [
                        {
                            "pitch": 42, 
                            "t0": 6560, 
                            "v": 82, 
                            "dur": 17, 
                            "type": "note", 
                            "channel": 9
                        }
                    ]
                ], 
                [
                    6600, 
                    [
                        {
                            "pitch": 42, 
                            "t0": 6600, 
                            "v": 95, 
                            "dur": 38, 
                            "type": "note", 
                            "channel": 9
                        }
                    ]
                ], 
                [
                    6680, 
                    [
                        {
                            "pitch": 42, 
                            "t0": 6680, 
                            "v": 77, 
                            "dur": 14, 
                            "type": "note", 
                            "channel": 9
                        }
                    ]
                ], 
                [
                    6720, 
                    [
                        {
                            "pitch": 42, 
                            "t0": 6720, 
                            "v": 91, 
                            "dur": 39, 
                            "type": "note", 
                            "channel": 9
                        }
                    ]
                ], 
                [
                    6800, 
                    [
                        {
                            "pitch": 42, 
                            "t0": 6800, 
                            "v": 82, 
                            "dur": 18, 
                            "type": "note", 
                            "channel": 9
                        }
                    ]
                ], 
                [
                    6840, 
                    [
                        {
                            "pitch": 42, 
                            "t0": 6840, 
                            "v": 87, 
                            "dur": 36, 
                            "type": "note", 
                            "channel": 9
                        }
                    ]
                ], 
                [
                    6920, 
                    [
                        {
                            "pitch": 42, 
                            "t0": 6920, 
                            "v": 82, 
                            "dur": 18, 
                            "type": "note", 
                            "channel": 9
                        }
                    ]
                ], 
                [
                    6960, 
                    [
                        {
                            "pitch": 42, 
                            "t0": 6960, 
                            "v": 95, 
                            "dur": 38, 
                            "type": "note", 
                            "channel": 9
                        }
                    ]
                ], 
                [
                    7040, 
                    [
                        {
                            "pitch": 42, 
                            "t0": 7040, 
                            "v": 87, 
                            "dur": 18, 
                            "type": "note", 
                            "channel": 9
                        }
                    ]
                ], 
                [
                    7080, 
                    [
                        {
                            "pitch": 42, 
                            "t0": 7080, 
                            "v": 99, 
                            "dur": 39, 
                            "type": "note", 
                            "channel": 9
                        }
                    ]
                ], 
                [
                    7160, 
                    [
                        {
                            "pitch": 42, 
                            "t0": 7160, 
                            "v": 95, 
                            "dur": 20, 
                            "type": "note", 
                            "channel": 9
                        }
                    ]
                ], 
                [
                    7280, 
                    [
                        {
                            "pitch": 42, 
                            "t0": 7280, 
                            "v": 79, 
                            "dur": 14, 
                            "type": "note", 
                            "channel": 9
                        }
                    ]
                ], 
                [
                    7320, 
                    [
                        {
                            "pitch": 42, 
                            "t0": 7320, 
                            "v": 97, 
                            "dur": 41, 
                            "type": "note", 
                            "channel": 9
                        }
                    ]
                ], 
                [
                    7400, 
                    [
                        {
                            "pitch": 42, 
                            "t0": 7400, 
                            "v": 84, 
                            "dur": 16, 
                            "type": "note", 
                            "channel": 9
                        }
                    ]
                ], 
                [
                    7440, 
                    [
                        {
                            "pitch": 42, 
                            "t0": 7440, 
                            "v": 95, 
                            "dur": 39, 
                            "type": "note", 
                            "channel": 9
                        }
                    ]
                ], 
                [
                    7520, 
                    [
                        {
                            "pitch": 42, 
                            "t0": 7520, 
                            "v": 85, 
                            "dur": 18, 
                            "type": "note", 
                            "channel": 9
                        }
                    ]
                ], 
                [
                    7560, 
                    [
                        {
                            "pitch": 42, 
                            "t0": 7560, 
                            "v": 87, 
                            "dur": 40, 
                            "type": "note", 
                            "channel": 9
                        }
                    ]
                ], 
                [
                    7640, 
                    [
                        {
                            "pitch": 42, 
                            "t0": 7640, 
                            "v": 87, 
                            "dur": 13, 
                            "type": "note", 
                            "channel": 9
                        }
                    ]
                ], 
                [
                    8240, 
                    [
                        {
                            "pitch": 42, 
                            "t0": 8240, 
                            "v": 81, 
                            "dur": 18, 
                            "type": "note", 
                            "channel": 9
                        }
                    ]
                ], 
                [
                    8280, 
                    [
                        {
                            "pitch": 42, 
                            "t0": 8280, 
                            "v": 97, 
                            "dur": 39, 
                            "type": "note", 
                            "channel": 9
                        }
                    ]
                ], 
                [
                    8360, 
                    [
                        {
                            "pitch": 42, 
                            "t0": 8360, 
                            "v": 87, 
                            "dur": 20, 
                            "type": "note", 
                            "channel": 9
                        }
                    ]
                ], 
                [
                    8400, 
                    [
                        {
                            "pitch": 42, 
                            "t0": 8400, 
                            "v": 91, 
                            "dur": 39, 
                            "type": "note", 
                            "channel": 9
                        }
                    ]
                ], 
                [
                    8480, 
                    [
                        {
                            "pitch": 42, 
                            "t0": 8480, 
                            "v": 81, 
                            "dur": 19, 
                            "type": "note", 
                            "channel": 9
                        }
                    ]
                ], 
                [
                    8520, 
                    [
                        {
                            "pitch": 42, 
                            "t0": 8520, 
                            "v": 95, 
                            "dur": 43, 
                            "type": "note", 
                            "channel": 9
                        }
                    ]
                ], 
                [
                    8600, 
                    [
                        {
                            "pitch": 42, 
                            "t0": 8600, 
                            "v": 81, 
                            "dur": 19, 
                            "type": "note", 
                            "channel": 9
                        }
                    ]
                ], 
                [
                    8640, 
                    [
                        {
                            "pitch": 42, 
                            "t0": 8640, 
                            "v": 93, 
                            "dur": 46, 
                            "type": "note", 
                            "channel": 9
                        }
                    ]
                ], 
                [
                    8720, 
                    [
                        {
                            "pitch": 42, 
                            "t0": 8720, 
                            "v": 82, 
                            "dur": 22, 
                            "type": "note", 
                            "channel": 9
                        }
                    ]
                ], 
                [
                    8760, 
                    [
                        {
                            "pitch": 42, 
                            "t0": 8760, 
                            "v": 97, 
                            "dur": 46, 
                            "type": "note", 
                            "channel": 9
                        }
                    ]
                ], 
                [
                    8840, 
                    [
                        {
                            "pitch": 42, 
                            "t0": 8840, 
                            "v": 82, 
                            "dur": 21, 
                            "type": "note", 
                            "channel": 9
                        }
                    ]
                ], 
                [
                    8880, 
                    [
                        {
                            "pitch": 42, 
                            "t0": 8880, 
                            "v": 91, 
                            "dur": 48, 
                            "type": "note", 
                            "channel": 9
                        }
                    ]
                ], 
                [
                    8960, 
                    [
                        {
                            "pitch": 42, 
                            "t0": 8960, 
                            "v": 89, 
                            "dur": 22, 
                            "type": "note", 
                            "channel": 9
                        }
                    ]
                ], 
                [
                    9000, 
                    [
                        {
                            "pitch": 42, 
                            "t0": 9000, 
                            "v": 99, 
                            "dur": 52, 
                            "type": "note", 
                            "channel": 9
                        }
                    ]
                ], 
                [
                    9080, 
                    [
                        {
                            "pitch": 46, 
                            "t0": 9080, 
                            "v": 87, 
                            "dur": 27, 
                            "type": "note", 
                            "channel": 9
                        }
                    ]
                ], 
                [
                    9120, 
                    [
                        {
                            "pitch": 42, 
                            "t0": 9120, 
                            "v": 110, 
                            "dur": 45, 
                            "type": "note", 
                            "channel": 9
                        }
                    ]
                ], 
                [
                    9200, 
                    [
                        {
                            "pitch": 42, 
                            "t0": 9200, 
                            "v": 78, 
                            "dur": 23, 
                            "type": "note", 
                            "channel": 9
                        }
                    ]
                ], 
                [
                    9240, 
                    [
                        {
                            "pitch": 42, 
                            "t0": 9240, 
                            "v": 99, 
                            "dur": 43, 
                            "type": "note", 
                            "channel": 9
                        }
                    ]
                ], 
                [
                    9320, 
                    [
                        {
                            "pitch": 42, 
                            "t0": 9320, 
                            "v": 91, 
                            "dur": 22, 
                            "type": "note", 
                            "channel": 9
                        }
                    ]
                ], 
                [
                    9360, 
                    [
                        {
                            "pitch": 42, 
                            "t0": 9360, 
                            "v": 89, 
                            "dur": 44, 
                            "type": "note", 
                            "channel": 9
                        }
                    ]
                ], 
                [
                    9440, 
                    [
                        {
                            "pitch": 42, 
                            "t0": 9440, 
                            "v": 87, 
                            "dur": 19, 
                            "type": "note", 
                            "channel": 9
                        }
                    ]
                ], 
                [
                    9480, 
                    [
                        {
                            "pitch": 42, 
                            "t0": 9480, 
                            "v": 97, 
                            "dur": 42, 
                            "type": "note", 
                            "channel": 9
                        }
                    ]
                ], 
                [
                    9560, 
                    [
                        {
                            "pitch": 42, 
                            "t0": 9560, 
                            "v": 91, 
                            "dur": 21, 
                            "type": "note", 
                            "channel": 9
                        }
                    ]
                ], 
                [
                    9600, 
                    [
                        {
                            "pitch": 42, 
                            "t0": 9600, 
                            "v": 101, 
                            "dur": 44, 
                            "type": "note", 
                            "channel": 9
                        }
                    ]
                ], 
                [
                    9680, 
                    [
                        {
                            "pitch": 42, 
                            "t0": 9680, 
                            "v": 84, 
                            "dur": 18, 
                            "type": "note", 
                            "channel": 9
                        }
                    ]
                ], 
                [
                    9720, 
                    [
                        {
                            "pitch": 42, 
                            "t0": 9720, 
                            "v": 95, 
                            "dur": 44, 
                            "type": "note", 
                            "channel": 9
                        }
                    ]
                ], 
                [
                    9800, 
                    [
                        {
                            "pitch": 42, 
                            "t0": 9800, 
                            "v": 93, 
                            "dur": 21, 
                            "type": "note", 
                            "channel": 9
                        }
                    ]
                ], 
                [
                    9840, 
                    [
                        {
                            "pitch": 42, 
                            "t0": 9840, 
                            "v": 104, 
                            "dur": 47, 
                            "type": "note", 
                            "channel": 9
                        }
                    ]
                ], 
                [
                    9920, 
                    [
                        {
                            "pitch": 42, 
                            "t0": 9920, 
                            "v": 89, 
                            "dur": 22, 
                            "type": "note", 
                            "channel": 9
                        }
                    ]
                ], 
                [
                    9960, 
                    [
                        {
                            "pitch": 42, 
                            "t0": 9960, 
                            "v": 104, 
                            "dur": 40, 
                            "type": "note", 
                            "channel": 9
                        }
                    ]
                ], 
                [
                    10040, 
                    [
                        {
                            "pitch": 46, 
                            "t0": 10040, 
                            "v": 89, 
                            "dur": 25, 
                            "type": "note", 
                            "channel": 9
                        }
                    ]
                ], 
                [
                    10080, 
                    [
                        {
                            "pitch": 42, 
                            "t0": 10080, 
                            "v": 123, 
                            "dur": 40, 
                            "type": "note", 
                            "channel": 9
                        }
                    ]
                ], 
                [
                    10160, 
                    [
                        {
                            "pitch": 42, 
                            "t0": 10160, 
                            "v": 82, 
                            "dur": 18, 
                            "type": "note", 
                            "channel": 9
                        }
                    ]
                ], 
                [
                    10200, 
                    [
                        {
                            "pitch": 42, 
                            "t0": 10200, 
                            "v": 107, 
                            "dur": 42, 
                            "type": "note", 
                            "channel": 9
                        }
                    ]
                ], 
                [
                    10280, 
                    [
                        {
                            "pitch": 42, 
                            "t0": 10280, 
                            "v": 91, 
                            "dur": 17, 
                            "type": "note", 
                            "channel": 9
                        }
                    ]
                ], 
                [
                    10320, 
                    [
                        {
                            "pitch": 42, 
                            "t0": 10320, 
                            "v": 101, 
                            "dur": 38, 
                            "type": "note", 
                            "channel": 9
                        }
                    ]
                ], 
                [
                    10400, 
                    [
                        {
                            "pitch": 42, 
                            "t0": 10400, 
                            "v": 95, 
                            "dur": 19, 
                            "type": "note", 
                            "channel": 9
                        }
                    ]
                ], 
                [
                    10440, 
                    [
                        {
                            "pitch": 42, 
                            "t0": 10440, 
                            "v": 104, 
                            "dur": 38, 
                            "type": "note", 
                            "channel": 9
                        }
                    ]
                ], 
                [
                    10520, 
                    [
                        {
                            "pitch": 42, 
                            "t0": 10520, 
                            "v": 95, 
                            "dur": 21, 
                            "type": "note", 
                            "channel": 9
                        }
                    ]
                ], 
                [
                    10560, 
                    [
                        {
                            "pitch": 42, 
                            "t0": 10560, 
                            "v": 101, 
                            "dur": 40, 
                            "type": "note", 
                            "channel": 9
                        }
                    ]
                ], 
                [
                    10640, 
                    [
                        {
                            "pitch": 42, 
                            "t0": 10640, 
                            "v": 95, 
                            "dur": 19, 
                            "type": "note", 
                            "channel": 9
                        }
                    ]
                ], 
                [
                    10680, 
                    [
                        {
                            "pitch": 42, 
                            "t0": 10680, 
                            "v": 101, 
                            "dur": 38, 
                            "type": "note", 
                            "channel": 9
                        }
                    ]
                ], 
                [
                    10760, 
                    [
                        {
                            "pitch": 42, 
                            "t0": 10760, 
                            "v": 93, 
                            "dur": 18, 
                            "type": "note", 
                            "channel": 9
                        }
                    ]
                ], 
                [
                    10800, 
                    [
                        {
                            "pitch": 42, 
                            "t0": 10800, 
                            "v": 104, 
                            "dur": 35, 
                            "type": "note", 
                            "channel": 9
                        }
                    ]
                ], 
                [
                    10880, 
                    [
                        {
                            "pitch": 42, 
                            "t0": 10880, 
                            "v": 101, 
                            "dur": 19, 
                            "type": "note", 
                            "channel": 9
                        }
                    ]
                ], 
                [
                    10920, 
                    [
                        {
                            "pitch": 42, 
                            "t0": 10920, 
                            "v": 110, 
                            "dur": 39, 
                            "type": "note", 
                            "channel": 9
                        }
                    ]
                ], 
                [
                    11000, 
                    [
                        {
                            "pitch": 42, 
                            "t0": 11000, 
                            "v": 97, 
                            "dur": 18, 
                            "type": "note", 
                            "channel": 9
                        }
                    ]
                ], 
                [
                    11120, 
                    [
                        {
                            "pitch": 42, 
                            "t0": 11120, 
                            "v": 91, 
                            "dur": 18, 
                            "type": "note", 
                            "channel": 9
                        }
                    ]
                ], 
                [
                    11160, 
                    [
                        {
                            "pitch": 42, 
                            "t0": 11160, 
                            "v": 97, 
                            "dur": 40, 
                            "type": "note", 
                            "channel": 9
                        }
                    ]
                ], 
                [
                    11240, 
                    [
                        {
                            "pitch": 42, 
                            "t0": 11240, 
                            "v": 93, 
                            "dur": 18, 
                            "type": "note", 
                            "channel": 9
                        }
                    ]
                ], 
                [
                    11280, 
                    [
                        {
                            "pitch": 42, 
                            "t0": 11280, 
                            "v": 99, 
                            "dur": 39, 
                            "type": "note", 
                            "channel": 9
                        }
                    ]
                ], 
                [
                    11360, 
                    [
                        {
                            "pitch": 42, 
                            "t0": 11360, 
                            "v": 91, 
                            "dur": 18, 
                            "type": "note", 
                            "channel": 9
                        }
                    ]
                ], 
                [
                    11400, 
                    [
                        {
                            "pitch": 42, 
                            "t0": 11400, 
                            "v": 97, 
                            "dur": 37, 
                            "type": "note", 
                            "channel": 9
                        }
                    ]
                ], 
                [
                    11480, 
                    [
                        {
                            "pitch": 42, 
                            "t0": 11480, 
                            "v": 87, 
                            "dur": 18, 
                            "type": "note", 
                            "channel": 9
                        }
                    ]
                ], 
                [
                    11520, 
                    [
                        {
                            "pitch": 42, 
                            "t0": 11520, 
                            "v": 99, 
                            "dur": 42, 
                            "type": "note", 
                            "channel": 9
                        }
                    ]
                ], 
                [
                    11600, 
                    [
                        {
                            "pitch": 42, 
                            "t0": 11600, 
                            "v": 85, 
                            "dur": 18, 
                            "type": "note", 
                            "channel": 9
                        }
                    ]
                ], 
                [
                    11640, 
                    [
                        {
                            "pitch": 42, 
                            "t0": 11640, 
                            "v": 97, 
                            "dur": 41, 
                            "type": "note", 
                            "channel": 9
                        }
                    ]
                ], 
                [
                    11720, 
                    [
                        {
                            "pitch": 42, 
                            "t0": 11720, 
                            "v": 87, 
                            "dur": 15, 
                            "type": "note", 
                            "channel": 9
                        }
                    ]
                ], 
                [
                    12120, 
                    [
                        {
                            "pitch": 42, 
                            "t0": 12120, 
                            "v": 101, 
                            "dur": 29, 
                            "type": "note", 
                            "channel": 9
                        }
                    ]
                ], 
                [
                    12200, 
                    [
                        {
                            "pitch": 42, 
                            "t0": 12200, 
                            "v": 79, 
                            "dur": 21, 
                            "type": "note", 
                            "channel": 9
                        }
                    ]
                ], 
                [
                    12240, 
                    [
                        {
                            "pitch": 42, 
                            "t0": 12240, 
                            "v": 97, 
                            "dur": 49, 
                            "type": "note", 
                            "channel": 9
                        }
                    ]
                ], 
                [
                    12320, 
                    [
                        {
                            "pitch": 42, 
                            "t0": 12320, 
                            "v": 89, 
                            "dur": 19, 
                            "type": "note", 
                            "channel": 9
                        }
                    ]
                ], 
                [
                    12360, 
                    [
                        {
                            "pitch": 42, 
                            "t0": 12360, 
                            "v": 97, 
                            "dur": 48, 
                            "type": "note", 
                            "channel": 9
                        }
                    ]
                ], 
                [
                    12440, 
                    [
                        {
                            "pitch": 46, 
                            "t0": 12440, 
                            "v": 81, 
                            "dur": 25, 
                            "type": "note", 
                            "channel": 9
                        }
                    ]
                ], 
                [
                    12480, 
                    [
                        {
                            "pitch": 42, 
                            "t0": 12480, 
                            "v": 101, 
                            "dur": 44, 
                            "type": "note", 
                            "channel": 9
                        }
                    ]
                ], 
                [
                    12560, 
                    [
                        {
                            "pitch": 42, 
                            "t0": 12560, 
                            "v": 84, 
                            "dur": 19, 
                            "type": "note", 
                            "channel": 9
                        }
                    ]
                ], 
                [
                    12600, 
                    [
                        {
                            "pitch": 42, 
                            "t0": 12600, 
                            "v": 99, 
                            "dur": 43, 
                            "type": "note", 
                            "channel": 9
                        }
                    ]
                ], 
                [
                    12680, 
                    [
                        {
                            "pitch": 42, 
                            "t0": 12680, 
                            "v": 84, 
                            "dur": 16, 
                            "type": "note", 
                            "channel": 9
                        }
                    ]
                ], 
                [
                    12720, 
                    [
                        {
                            "pitch": 42, 
                            "t0": 12720, 
                            "v": 97, 
                            "dur": 42, 
                            "type": "note", 
                            "channel": 9
                        }
                    ]
                ], 
                [
                    12800, 
                    [
                        {
                            "pitch": 42, 
                            "t0": 12800, 
                            "v": 89, 
                            "dur": 19, 
                            "type": "note", 
                            "channel": 9
                        }
                    ]
                ], 
                [
                    12840, 
                    [
                        {
                            "pitch": 42, 
                            "t0": 12840, 
                            "v": 99, 
                            "dur": 39, 
                            "type": "note", 
                            "channel": 9
                        }
                    ]
                ], 
                [
                    12920, 
                    [
                        {
                            "pitch": 42, 
                            "t0": 12920, 
                            "v": 81, 
                            "dur": 17, 
                            "type": "note", 
                            "channel": 9
                        }
                    ]
                ], 
                [
                    12960, 
                    [
                        {
                            "pitch": 42, 
                            "t0": 12960, 
                            "v": 101, 
                            "dur": 47, 
                            "type": "note", 
                            "channel": 9
                        }
                    ]
                ], 
                [
                    13040, 
                    [
                        {
                            "pitch": 42, 
                            "t0": 13040, 
                            "v": 79, 
                            "dur": 16, 
                            "type": "note", 
                            "channel": 9
                        }
                    ]
                ], 
                [
                    13080, 
                    [
                        {
                            "pitch": 42, 
                            "t0": 13080, 
                            "v": 97, 
                            "dur": 44, 
                            "type": "note", 
                            "channel": 9
                        }
                    ]
                ], 
                [
                    13160, 
                    [
                        {
                            "pitch": 42, 
                            "t0": 13160, 
                            "v": 84, 
                            "dur": 18, 
                            "type": "note", 
                            "channel": 9
                        }
                    ]
                ], 
                [
                    13200, 
                    [
                        {
                            "pitch": 42, 
                            "t0": 13200, 
                            "v": 99, 
                            "dur": 44, 
                            "type": "note", 
                            "channel": 9
                        }
                    ]
                ], 
                [
                    13280, 
                    [
                        {
                            "pitch": 42, 
                            "t0": 13280, 
                            "v": 87, 
                            "dur": 17, 
                            "type": "note", 
                            "channel": 9
                        }
                    ]
                ], 
                [
                    13320, 
                    [
                        {
                            "pitch": 42, 
                            "t0": 13320, 
                            "v": 97, 
                            "dur": 44, 
                            "type": "note", 
                            "channel": 9
                        }
                    ]
                ], 
                [
                    13400, 
                    [
                        {
                            "pitch": 42, 
                            "t0": 13400, 
                            "v": 91, 
                            "dur": 19, 
                            "type": "note", 
                            "channel": 9
                        }
                    ]
                ], 
                [
                    13440, 
                    [
                        {
                            "pitch": 42, 
                            "t0": 13440, 
                            "v": 97, 
                            "dur": 47, 
                            "type": "note", 
                            "channel": 9
                        }
                    ]
                ], 
                [
                    13520, 
                    [
                        {
                            "pitch": 42, 
                            "t0": 13520, 
                            "v": 84, 
                            "dur": 17, 
                            "type": "note", 
                            "channel": 9
                        }
                    ]
                ], 
                [
                    13560, 
                    [
                        {
                            "pitch": 42, 
                            "t0": 13560, 
                            "v": 101, 
                            "dur": 45, 
                            "type": "note", 
                            "channel": 9
                        }
                    ]
                ], 
                [
                    13640, 
                    [
                        {
                            "pitch": 42, 
                            "t0": 13640, 
                            "v": 85, 
                            "dur": 18, 
                            "type": "note", 
                            "channel": 9
                        }
                    ]
                ], 
                [
                    13680, 
                    [
                        {
                            "pitch": 42, 
                            "t0": 13680, 
                            "v": 97, 
                            "dur": 34, 
                            "type": "note", 
                            "channel": 9
                        }
                    ]
                ], 
                [
                    13760, 
                    [
                        {
                            "pitch": 42, 
                            "t0": 13760, 
                            "v": 91, 
                            "dur": 17, 
                            "type": "note", 
                            "channel": 9
                        }
                    ]
                ], 
                [
                    13800, 
                    [
                        {
                            "pitch": 42, 
                            "t0": 13800, 
                            "v": 97, 
                            "dur": 39, 
                            "type": "note", 
                            "channel": 9
                        }
                    ]
                ], 
                [
                    13880, 
                    [
                        {
                            "pitch": 42, 
                            "t0": 13880, 
                            "v": 99, 
                            "dur": 18, 
                            "type": "note", 
                            "channel": 9
                        }
                    ]
                ], 
                [
                    14000, 
                    [
                        {
                            "pitch": 42, 
                            "t0": 14000, 
                            "v": 91, 
                            "dur": 18, 
                            "type": "note", 
                            "channel": 9
                        }
                    ]
                ], 
                [
                    14040, 
                    [
                        {
                            "pitch": 42, 
                            "t0": 14040, 
                            "v": 104, 
                            "dur": 41, 
                            "type": "note", 
                            "channel": 9
                        }
                    ]
                ], 
                [
                    14120, 
                    [
                        {
                            "pitch": 42, 
                            "t0": 14120, 
                            "v": 89, 
                            "dur": 14, 
                            "type": "note", 
                            "channel": 9
                        }
                    ]
                ], 
                [
                    14160, 
                    [
                        {
                            "pitch": 42, 
                            "t0": 14160, 
                            "v": 107, 
                            "dur": 32, 
                            "type": "note", 
                            "channel": 9
                        }
                    ]
                ], 
                [
                    14240, 
                    [
                        {
                            "pitch": 42, 
                            "t0": 14240, 
                            "v": 101, 
                            "dur": 17, 
                            "type": "note", 
                            "channel": 9
                        }
                    ]
                ], 
                [
                    14280, 
                    [
                        {
                            "pitch": 42, 
                            "t0": 14280, 
                            "v": 104, 
                            "dur": 34, 
                            "type": "note", 
                            "channel": 9
                        }
                    ]
                ], 
                [
                    14360, 
                    [
                        {
                            "pitch": 42, 
                            "t0": 14360, 
                            "v": 99, 
                            "dur": 18, 
                            "type": "note", 
                            "channel": 9
                        }
                    ]
                ], 
                [
                    14400, 
                    [
                        {
                            "pitch": 42, 
                            "t0": 14400, 
                            "v": 104, 
                            "dur": 25, 
                            "type": "note", 
                            "channel": 9
                        }
                    ]
                ], 
                [
                    14480, 
                    [
                        {
                            "pitch": 42, 
                            "t0": 14480, 
                            "v": 79, 
                            "dur": 13, 
                            "type": "note", 
                            "channel": 9
                        }
                    ]
                ], 
                [
                    14520, 
                    [
                        {
                            "pitch": 42, 
                            "t0": 14520, 
                            "v": 99, 
                            "dur": 40, 
                            "type": "note", 
                            "channel": 9
                        }
                    ]
                ], 
                [
                    14600, 
                    [
                        {
                            "pitch": 42, 
                            "t0": 14600, 
                            "v": 81, 
                            "dur": 17, 
                            "type": "note", 
                            "channel": 9
                        }
                    ]
                ], 
                [
                    14640, 
                    [
                        {
                            "pitch": 42, 
                            "t0": 14640, 
                            "v": 99, 
                            "dur": 43, 
                            "type": "note", 
                            "channel": 9
                        }
                    ]
                ], 
                [
                    14720, 
                    [
                        {
                            "pitch": 42, 
                            "t0": 14720, 
                            "v": 93, 
                            "dur": 18, 
                            "type": "note", 
                            "channel": 9
                        }
                    ]
                ], 
                [
                    14760, 
                    [
                        {
                            "pitch": 42, 
                            "t0": 14760, 
                            "v": 107, 
                            "dur": 41, 
                            "type": "note", 
                            "channel": 9
                        }
                    ]
                ], 
                [
                    14840, 
                    [
                        {
                            "pitch": 46, 
                            "t0": 14840, 
                            "v": 99, 
                            "dur": 25, 
                            "type": "note", 
                            "channel": 9
                        }
                    ]
                ], 
                [
                    14880, 
                    [
                        {
                            "pitch": 42, 
                            "t0": 14880, 
                            "v": 116, 
                            "dur": 21, 
                            "type": "note", 
                            "channel": 9
                        }
                    ]
                ], 
                [
                    15960, 
                    [
                        {
                            "pitch": 51, 
                            "t0": 15960, 
                            "v": 85, 
                            "dur": 26, 
                            "type": "note", 
                            "channel": 9
                        }
                    ]
                ], 
                [
                    16040, 
                    [
                        {
                            "pitch": 51, 
                            "t0": 16040, 
                            "v": 84, 
                            "dur": 15, 
                            "type": "note", 
                            "channel": 9
                        }
                    ]
                ], 
                [
                    16080, 
                    [
                        {
                            "pitch": 51, 
                            "t0": 16080, 
                            "v": 97, 
                            "dur": 43, 
                            "type": "note", 
                            "channel": 9
                        }
                    ]
                ], 
                [
                    16200, 
                    [
                        {
                            "pitch": 51, 
                            "t0": 16200, 
                            "v": 87, 
                            "dur": 39, 
                            "type": "note", 
                            "channel": 9
                        }
                    ]
                ], 
                [
                    16280, 
                    [
                        {
                            "pitch": 51, 
                            "t0": 16280, 
                            "v": 70, 
                            "dur": 14, 
                            "type": "note", 
                            "channel": 9
                        }
                    ]
                ], 
                [
                    16320, 
                    [
                        {
                            "pitch": 51, 
                            "t0": 16320, 
                            "v": 95, 
                            "dur": 43, 
                            "type": "note", 
                            "channel": 9
                        }
                    ]
                ], 
                [
                    16440, 
                    [
                        {
                            "pitch": 51, 
                            "t0": 16440, 
                            "v": 85, 
                            "dur": 30, 
                            "type": "note", 
                            "channel": 9
                        }
                    ]
                ], 
                [
                    16520, 
                    [
                        {
                            "pitch": 51, 
                            "t0": 16520, 
                            "v": 58, 
                            "dur": 13, 
                            "type": "note", 
                            "channel": 9
                        }
                    ]
                ], 
                [
                    16560, 
                    [
                        {
                            "pitch": 51, 
                            "t0": 16560, 
                            "v": 81, 
                            "dur": 41, 
                            "type": "note", 
                            "channel": 9
                        }
                    ]
                ], 
                [
                    16680, 
                    [
                        {
                            "pitch": 51, 
                            "t0": 16680, 
                            "v": 85, 
                            "dur": 33, 
                            "type": "note", 
                            "channel": 9
                        }
                    ]
                ], 
                [
                    16760, 
                    [
                        {
                            "pitch": 51, 
                            "t0": 16760, 
                            "v": 67, 
                            "dur": 11, 
                            "type": "note", 
                            "channel": 9
                        }
                    ]
                ], 
                [
                    16800, 
                    [
                        {
                            "pitch": 51, 
                            "t0": 16800, 
                            "v": 91, 
                            "dur": 47, 
                            "type": "note", 
                            "channel": 9
                        }
                    ]
                ], 
                [
                    16920, 
                    [
                        {
                            "pitch": 51, 
                            "t0": 16920, 
                            "v": 84, 
                            "dur": 30, 
                            "type": "note", 
                            "channel": 9
                        }
                    ]
                ], 
                [
                    17000, 
                    [
                        {
                            "pitch": 51, 
                            "t0": 17000, 
                            "v": 61, 
                            "dur": 16, 
                            "type": "note", 
                            "channel": 9
                        }
                    ]
                ], 
                [
                    17040, 
                    [
                        {
                            "pitch": 51, 
                            "t0": 17040, 
                            "v": 84, 
                            "dur": 42, 
                            "type": "note", 
                            "channel": 9
                        }
                    ]
                ], 
                [
                    17160, 
                    [
                        {
                            "pitch": 51, 
                            "t0": 17160, 
                            "v": 87, 
                            "dur": 37, 
                            "type": "note", 
                            "channel": 9
                        }
                    ]
                ], 
                [
                    17240, 
                    [
                        {
                            "pitch": 51, 
                            "t0": 17240, 
                            "v": 74, 
                            "dur": 17, 
                            "type": "note", 
                            "channel": 9
                        }
                    ]
                ], 
                [
                    17280, 
                    [
                        {
                            "pitch": 51, 
                            "t0": 17280, 
                            "v": 95, 
                            "dur": 43, 
                            "type": "note", 
                            "channel": 9
                        }
                    ]
                ], 
                [
                    17400, 
                    [
                        {
                            "pitch": 51, 
                            "t0": 17400, 
                            "v": 85, 
                            "dur": 29, 
                            "type": "note", 
                            "channel": 9
                        }
                    ]
                ], 
                [
                    17480, 
                    [
                        {
                            "pitch": 51, 
                            "t0": 17480, 
                            "v": 65, 
                            "dur": 13, 
                            "type": "note", 
                            "channel": 9
                        }
                    ]
                ], 
                [
                    17520, 
                    [
                        {
                            "pitch": 51, 
                            "t0": 17520, 
                            "v": 85, 
                            "dur": 26, 
                            "type": "note", 
                            "channel": 9
                        }
                    ]
                ], 
                [
                    17640, 
                    [
                        {
                            "pitch": 51, 
                            "t0": 17640, 
                            "v": 87, 
                            "dur": 35, 
                            "type": "note", 
                            "channel": 9
                        }
                    ]
                ], 
                [
                    17880, 
                    [
                        {
                            "pitch": 51, 
                            "t0": 17880, 
                            "v": 87, 
                            "dur": 30, 
                            "type": "note", 
                            "channel": 9
                        }
                    ]
                ], 
                [
                    17960, 
                    [
                        {
                            "pitch": 51, 
                            "t0": 17960, 
                            "v": 66, 
                            "dur": 14, 
                            "type": "note", 
                            "channel": 9
                        }
                    ]
                ], 
                [
                    18000, 
                    [
                        {
                            "pitch": 51, 
                            "t0": 18000, 
                            "v": 84, 
                            "dur": 34, 
                            "type": "note", 
                            "channel": 9
                        }
                    ]
                ], 
                [
                    18120, 
                    [
                        {
                            "pitch": 51, 
                            "t0": 18120, 
                            "v": 89, 
                            "dur": 32, 
                            "type": "note", 
                            "channel": 9
                        }
                    ]
                ], 
                [
                    18200, 
                    [
                        {
                            "pitch": 51, 
                            "t0": 18200, 
                            "v": 70, 
                            "dur": 14, 
                            "type": "note", 
                            "channel": 9
                        }
                    ]
                ], 
                [
                    18240, 
                    [
                        {
                            "pitch": 51, 
                            "t0": 18240, 
                            "v": 85, 
                            "dur": 33, 
                            "type": "note", 
                            "channel": 9
                        }
                    ]
                ], 
                [
                    18360, 
                    [
                        {
                            "pitch": 51, 
                            "t0": 18360, 
                            "v": 87, 
                            "dur": 25, 
                            "type": "note", 
                            "channel": 9
                        }
                    ]
                ], 
                [
                    18440, 
                    [
                        {
                            "pitch": 51, 
                            "t0": 18440, 
                            "v": 75, 
                            "dur": 15, 
                            "type": "note", 
                            "channel": 9
                        }
                    ]
                ], 
                [
                    18480, 
                    [
                        {
                            "pitch": 51, 
                            "t0": 18480, 
                            "v": 95, 
                            "dur": 43, 
                            "type": "note", 
                            "channel": 9
                        }
                    ]
                ], 
                [
                    18600, 
                    [
                        {
                            "pitch": 51, 
                            "t0": 18600, 
                            "v": 82, 
                            "dur": 37, 
                            "type": "note", 
                            "channel": 9
                        }
                    ]
                ], 
                [
                    18680, 
                    [
                        {
                            "pitch": 51, 
                            "t0": 18680, 
                            "v": 75, 
                            "dur": 15, 
                            "type": "note", 
                            "channel": 9
                        }
                    ]
                ], 
                [
                    18720, 
                    [
                        {
                            "pitch": 51, 
                            "t0": 18720, 
                            "v": 93, 
                            "dur": 42, 
                            "type": "note", 
                            "channel": 9
                        }
                    ]
                ], 
                [
                    18840, 
                    [
                        {
                            "pitch": 51, 
                            "t0": 18840, 
                            "v": 84, 
                            "dur": 26, 
                            "type": "note", 
                            "channel": 9
                        }
                    ]
                ], 
                [
                    18920, 
                    [
                        {
                            "pitch": 51, 
                            "t0": 18920, 
                            "v": 84, 
                            "dur": 18, 
                            "type": "note", 
                            "channel": 9
                        }
                    ]
                ], 
                [
                    18960, 
                    [
                        {
                            "pitch": 51, 
                            "t0": 18960, 
                            "v": 93, 
                            "dur": 38, 
                            "type": "note", 
                            "channel": 9
                        }
                    ]
                ], 
                [
                    19080, 
                    [
                        {
                            "pitch": 51, 
                            "t0": 19080, 
                            "v": 82, 
                            "dur": 26, 
                            "type": "note", 
                            "channel": 9
                        }
                    ]
                ], 
                [
                    19160, 
                    [
                        {
                            "pitch": 51, 
                            "t0": 19160, 
                            "v": 70, 
                            "dur": 14, 
                            "type": "note", 
                            "channel": 9
                        }
                    ]
                ], 
                [
                    19200, 
                    [
                        {
                            "pitch": 51, 
                            "t0": 19200, 
                            "v": 91, 
                            "dur": 37, 
                            "type": "note", 
                            "channel": 9
                        }
                    ]
                ], 
                [
                    19320, 
                    [
                        {
                            "pitch": 51, 
                            "t0": 19320, 
                            "v": 87, 
                            "dur": 26, 
                            "type": "note", 
                            "channel": 9
                        }
                    ]
                ], 
                [
                    19400, 
                    [
                        {
                            "pitch": 51, 
                            "t0": 19400, 
                            "v": 59, 
                            "dur": 16, 
                            "type": "note", 
                            "channel": 9
                        }
                    ]
                ], 
                [
                    19440, 
                    [
                        {
                            "pitch": 51, 
                            "t0": 19440, 
                            "v": 84, 
                            "dur": 29, 
                            "type": "note", 
                            "channel": 9
                        }
                    ]
                ], 
                [
                    19560, 
                    [
                        {
                            "pitch": 51, 
                            "t0": 19560, 
                            "v": 87, 
                            "dur": 26, 
                            "type": "note", 
                            "channel": 9
                        }
                    ]
                ], 
                [
                    19640, 
                    [
                        {
                            "pitch": 51, 
                            "t0": 19640, 
                            "v": 81, 
                            "dur": 15, 
                            "type": "note", 
                            "channel": 9
                        }
                    ]
                ], 
                [
                    19800, 
                    [
                        {
                            "pitch": 51, 
                            "t0": 19800, 
                            "v": 87, 
                            "dur": 23, 
                            "type": "note", 
                            "channel": 9
                        }
                    ]
                ], 
                [
                    19880, 
                    [
                        {
                            "pitch": 51, 
                            "t0": 19880, 
                            "v": 77, 
                            "dur": 17, 
                            "type": "note", 
                            "channel": 9
                        }
                    ]
                ], 
                [
                    19920, 
                    [
                        {
                            "pitch": 51, 
                            "t0": 19920, 
                            "v": 93, 
                            "dur": 33, 
                            "type": "note", 
                            "channel": 9
                        }
                    ]
                ], 
                [
                    20040, 
                    [
                        {
                            "pitch": 51, 
                            "t0": 20040, 
                            "v": 85, 
                            "dur": 36, 
                            "type": "note", 
                            "channel": 9
                        }
                    ]
                ], 
                [
                    20120, 
                    [
                        {
                            "pitch": 51, 
                            "t0": 20120, 
                            "v": 73, 
                            "dur": 14, 
                            "type": "note", 
                            "channel": 9
                        }
                    ]
                ], 
                [
                    20160, 
                    [
                        {
                            "pitch": 51, 
                            "t0": 20160, 
                            "v": 85, 
                            "dur": 17, 
                            "type": "note", 
                            "channel": 9
                        }
                    ]
                ], 
                [
                    20280, 
                    [
                        {
                            "pitch": 51, 
                            "t0": 20280, 
                            "v": 84, 
                            "dur": 24, 
                            "type": "note", 
                            "channel": 9
                        }
                    ]
                ], 
                [
                    20360, 
                    [
                        {
                            "pitch": 51, 
                            "t0": 20360, 
                            "v": 57, 
                            "dur": 11, 
                            "type": "note", 
                            "channel": 9
                        }
                    ]
                ], 
                [
                    20400, 
                    [
                        {
                            "pitch": 51, 
                            "t0": 20400, 
                            "v": 82, 
                            "dur": 24, 
                            "type": "note", 
                            "channel": 9
                        }
                    ]
                ], 
                [
                    20520, 
                    [
                        {
                            "pitch": 51, 
                            "t0": 20520, 
                            "v": 81, 
                            "dur": 27, 
                            "type": "note", 
                            "channel": 9
                        }
                    ]
                ], 
                [
                    20600, 
                    [
                        {
                            "pitch": 51, 
                            "t0": 20600, 
                            "v": 81, 
                            "dur": 16, 
                            "type": "note", 
                            "channel": 9
                        }
                    ]
                ], 
                [
                    20760, 
                    [
                        {
                            "pitch": 51, 
                            "t0": 20760, 
                            "v": 93, 
                            "dur": 23, 
                            "type": "note", 
                            "channel": 9
                        }
                    ]
                ], 
                [
                    20840, 
                    [
                        {
                            "pitch": 51, 
                            "t0": 20840, 
                            "v": 67, 
                            "dur": 17, 
                            "type": "note", 
                            "channel": 9
                        }
                    ]
                ], 
                [
                    20880, 
                    [
                        {
                            "pitch": 51, 
                            "t0": 20880, 
                            "v": 89, 
                            "dur": 22, 
                            "type": "note", 
                            "channel": 9
                        }
                    ]
                ], 
                [
                    21000, 
                    [
                        {
                            "pitch": 51, 
                            "t0": 21000, 
                            "v": 82, 
                            "dur": 39, 
                            "type": "note", 
                            "channel": 9
                        }
                    ]
                ], 
                [
                    21080, 
                    [
                        {
                            "pitch": 51, 
                            "t0": 21080, 
                            "v": 74, 
                            "dur": 17, 
                            "type": "note", 
                            "channel": 9
                        }
                    ]
                ], 
                [
                    21120, 
                    [
                        {
                            "pitch": 51, 
                            "t0": 21120, 
                            "v": 91, 
                            "dur": 38, 
                            "type": "note", 
                            "channel": 9
                        }
                    ]
                ], 
                [
                    21240, 
                    [
                        {
                            "pitch": 51, 
                            "t0": 21240, 
                            "v": 85, 
                            "dur": 25, 
                            "type": "note", 
                            "channel": 9
                        }
                    ]
                ], 
                [
                    21320, 
                    [
                        {
                            "pitch": 51, 
                            "t0": 21320, 
                            "v": 85, 
                            "dur": 16, 
                            "type": "note", 
                            "channel": 9
                        }
                    ]
                ], 
                [
                    21360, 
                    [
                        {
                            "pitch": 51, 
                            "t0": 21360, 
                            "v": 91, 
                            "dur": 32, 
                            "type": "note", 
                            "channel": 9
                        }
                    ]
                ], 
                [
                    21480, 
                    [
                        {
                            "pitch": 51, 
                            "t0": 21480, 
                            "v": 85, 
                            "dur": 28, 
                            "type": "note", 
                            "channel": 9
                        }
                    ]
                ], 
                [
                    21560, 
                    [
                        {
                            "pitch": 51, 
                            "t0": 21560, 
                            "v": 68, 
                            "dur": 15, 
                            "type": "note", 
                            "channel": 9
                        }
                    ]
                ], 
                [
                    21720, 
                    [
                        {
                            "pitch": 51, 
                            "t0": 21720, 
                            "v": 85, 
                            "dur": 22, 
                            "type": "note", 
                            "channel": 9
                        }
                    ]
                ], 
                [
                    21800, 
                    [
                        {
                            "pitch": 51, 
                            "t0": 21800, 
                            "v": 71, 
                            "dur": 15, 
                            "type": "note", 
                            "channel": 9
                        }
                    ]
                ], 
                [
                    21840, 
                    [
                        {
                            "pitch": 51, 
                            "t0": 21840, 
                            "v": 85, 
                            "dur": 27, 
                            "type": "note", 
                            "channel": 9
                        }
                    ]
                ], 
                [
                    21960, 
                    [
                        {
                            "pitch": 51, 
                            "t0": 21960, 
                            "v": 81, 
                            "dur": 29, 
                            "type": "note", 
                            "channel": 9
                        }
                    ]
                ], 
                [
                    22040, 
                    [
                        {
                            "pitch": 51, 
                            "t0": 22040, 
                            "v": 58, 
                            "dur": 17, 
                            "type": "note", 
                            "channel": 9
                        }
                    ]
                ], 
                [
                    22080, 
                    [
                        {
                            "pitch": 51, 
                            "t0": 22080, 
                            "v": 82, 
                            "dur": 35, 
                            "type": "note", 
                            "channel": 9
                        }
                    ]
                ], 
                [
                    22200, 
                    [
                        {
                            "pitch": 51, 
                            "t0": 22200, 
                            "v": 71, 
                            "dur": 31, 
                            "type": "note", 
                            "channel": 9
                        }
                    ]
                ], 
                [
                    22280, 
                    [
                        {
                            "pitch": 51, 
                            "t0": 22280, 
                            "v": 67, 
                            "dur": 18, 
                            "type": "note", 
                            "channel": 9
                        }
                    ]
                ], 
                [
                    22320, 
                    [
                        {
                            "pitch": 51, 
                            "t0": 22320, 
                            "v": 71, 
                            "dur": 39, 
                            "type": "note", 
                            "channel": 9
                        }
                    ]
                ], 
                [
                    22440, 
                    [
                        {
                            "pitch": 51, 
                            "t0": 22440, 
                            "v": 61, 
                            "dur": 46, 
                            "type": "note", 
                            "channel": 9
                        }
                    ]
                ], 
                [
                    22680, 
                    [
                        {
                            "pitch": 51, 
                            "t0": 22680, 
                            "v": 65, 
                            "dur": 19, 
                            "type": "note", 
                            "channel": 9
                        }
                    ]
                ], 
                [
                    23640, 
                    [
                        {
                            "pitch": 42, 
                            "t0": 23640, 
                            "v": 95, 
                            "dur": 45, 
                            "type": "note", 
                            "channel": 9
                        }
                    ]
                ], 
                [
                    23720, 
                    [
                        {
                            "pitch": 42, 
                            "t0": 23720, 
                            "v": 75, 
                            "dur": 22, 
                            "type": "note", 
                            "channel": 9
                        }
                    ]
                ], 
                [
                    23760, 
                    [
                        {
                            "pitch": 42, 
                            "t0": 23760, 
                            "v": 93, 
                            "dur": 50, 
                            "type": "note", 
                            "channel": 9
                        }
                    ]
                ], 
                [
                    23840, 
                    [
                        {
                            "pitch": 42, 
                            "t0": 23840, 
                            "v": 79, 
                            "dur": 21, 
                            "type": "note", 
                            "channel": 9
                        }
                    ]
                ], 
                [
                    23880, 
                    [
                        {
                            "pitch": 42, 
                            "t0": 23880, 
                            "v": 95, 
                            "dur": 45, 
                            "type": "note", 
                            "channel": 9
                        }
                    ]
                ], 
                [
                    23960, 
                    [
                        {
                            "pitch": 42, 
                            "t0": 23960, 
                            "v": 82, 
                            "dur": 22, 
                            "type": "note", 
                            "channel": 9
                        }
                    ]
                ], 
                [
                    24000, 
                    [
                        {
                            "pitch": 42, 
                            "t0": 24000, 
                            "v": 95, 
                            "dur": 50, 
                            "type": "note", 
                            "channel": 9
                        }
                    ]
                ], 
                [
                    24080, 
                    [
                        {
                            "pitch": 42, 
                            "t0": 24080, 
                            "v": 78, 
                            "dur": 21, 
                            "type": "note", 
                            "channel": 9
                        }
                    ]
                ], 
                [
                    24120, 
                    [
                        {
                            "pitch": 42, 
                            "t0": 24120, 
                            "v": 101, 
                            "dur": 46, 
                            "type": "note", 
                            "channel": 9
                        }
                    ]
                ], 
                [
                    24200, 
                    [
                        {
                            "pitch": 42, 
                            "t0": 24200, 
                            "v": 82, 
                            "dur": 22, 
                            "type": "note", 
                            "channel": 9
                        }
                    ]
                ], 
                [
                    24240, 
                    [
                        {
                            "pitch": 42, 
                            "t0": 24240, 
                            "v": 99, 
                            "dur": 48, 
                            "type": "note", 
                            "channel": 9
                        }
                    ]
                ], 
                [
                    24320, 
                    [
                        {
                            "pitch": 42, 
                            "t0": 24320, 
                            "v": 85, 
                            "dur": 22, 
                            "type": "note", 
                            "channel": 9
                        }
                    ]
                ], 
                [
                    24360, 
                    [
                        {
                            "pitch": 42, 
                            "t0": 24360, 
                            "v": 104, 
                            "dur": 46, 
                            "type": "note", 
                            "channel": 9
                        }
                    ]
                ], 
                [
                    24440, 
                    [
                        {
                            "pitch": 46, 
                            "t0": 24440, 
                            "v": 82, 
                            "dur": 24, 
                            "type": "note", 
                            "channel": 9
                        }
                    ]
                ], 
                [
                    24480, 
                    [
                        {
                            "pitch": 42, 
                            "t0": 24480, 
                            "v": 99, 
                            "dur": 49, 
                            "type": "note", 
                            "channel": 9
                        }
                    ]
                ], 
                [
                    24560, 
                    [
                        {
                            "pitch": 42, 
                            "t0": 24560, 
                            "v": 84, 
                            "dur": 20, 
                            "type": "note", 
                            "channel": 9
                        }
                    ]
                ], 
                [
                    24600, 
                    [
                        {
                            "pitch": 42, 
                            "t0": 24600, 
                            "v": 97, 
                            "dur": 49, 
                            "type": "note", 
                            "channel": 9
                        }
                    ]
                ], 
                [
                    24680, 
                    [
                        {
                            "pitch": 42, 
                            "t0": 24680, 
                            "v": 84, 
                            "dur": 21, 
                            "type": "note", 
                            "channel": 9
                        }
                    ]
                ], 
                [
                    24720, 
                    [
                        {
                            "pitch": 42, 
                            "t0": 24720, 
                            "v": 91, 
                            "dur": 48, 
                            "type": "note", 
                            "channel": 9
                        }
                    ]
                ], 
                [
                    24800, 
                    [
                        {
                            "pitch": 42, 
                            "t0": 24800, 
                            "v": 79, 
                            "dur": 19, 
                            "type": "note", 
                            "channel": 9
                        }
                    ]
                ], 
                [
                    24840, 
                    [
                        {
                            "pitch": 42, 
                            "t0": 24840, 
                            "v": 95, 
                            "dur": 44, 
                            "type": "note", 
                            "channel": 9
                        }
                    ]
                ], 
                [
                    24920, 
                    [
                        {
                            "pitch": 42, 
                            "t0": 24920, 
                            "v": 82, 
                            "dur": 17, 
                            "type": "note", 
                            "channel": 9
                        }
                    ]
                ], 
                [
                    24960, 
                    [
                        {
                            "pitch": 42, 
                            "t0": 24960, 
                            "v": 97, 
                            "dur": 49, 
                            "type": "note", 
                            "channel": 9
                        }
                    ]
                ], 
                [
                    25040, 
                    [
                        {
                            "pitch": 42, 
                            "t0": 25040, 
                            "v": 82, 
                            "dur": 22, 
                            "type": "note", 
                            "channel": 9
                        }
                    ]
                ], 
                [
                    25080, 
                    [
                        {
                            "pitch": 42, 
                            "t0": 25080, 
                            "v": 97, 
                            "dur": 45, 
                            "type": "note", 
                            "channel": 9
                        }
                    ]
                ], 
                [
                    25160, 
                    [
                        {
                            "pitch": 42, 
                            "t0": 25160, 
                            "v": 87, 
                            "dur": 21, 
                            "type": "note", 
                            "channel": 9
                        }
                    ]
                ], 
                [
                    25200, 
                    [
                        {
                            "pitch": 42, 
                            "t0": 25200, 
                            "v": 91, 
                            "dur": 50, 
                            "type": "note", 
                            "channel": 9
                        }
                    ]
                ], 
                [
                    25280, 
                    [
                        {
                            "pitch": 42, 
                            "t0": 25280, 
                            "v": 82, 
                            "dur": 23, 
                            "type": "note", 
                            "channel": 9
                        }
                    ]
                ], 
                [
                    25320, 
                    [
                        {
                            "pitch": 42, 
                            "t0": 25320, 
                            "v": 101, 
                            "dur": 48, 
                            "type": "note", 
                            "channel": 9
                        }
                    ]
                ], 
                [
                    25400, 
                    [
                        {
                            "pitch": 46, 
                            "t0": 25400, 
                            "v": 89, 
                            "dur": 23, 
                            "type": "note", 
                            "channel": 9
                        }
                    ]
                ], 
                [
                    25440, 
                    [
                        {
                            "pitch": 42, 
                            "t0": 25440, 
                            "v": 116, 
                            "dur": 43, 
                            "type": "note", 
                            "channel": 9
                        }
                    ]
                ], 
                [
                    25520, 
                    [
                        {
                            "pitch": 42, 
                            "t0": 25520, 
                            "v": 85, 
                            "dur": 17, 
                            "type": "note", 
                            "channel": 9
                        }
                    ]
                ], 
                [
                    25560, 
                    [
                        {
                            "pitch": 42, 
                            "t0": 25560, 
                            "v": 95, 
                            "dur": 45, 
                            "type": "note", 
                            "channel": 9
                        }
                    ]
                ], 
                [
                    25640, 
                    [
                        {
                            "pitch": 42, 
                            "t0": 25640, 
                            "v": 82, 
                            "dur": 19, 
                            "type": "note", 
                            "channel": 9
                        }
                    ]
                ], 
                [
                    25680, 
                    [
                        {
                            "pitch": 42, 
                            "t0": 25680, 
                            "v": 95, 
                            "dur": 46, 
                            "type": "note", 
                            "channel": 9
                        }
                    ]
                ], 
                [
                    25760, 
                    [
                        {
                            "pitch": 42, 
                            "t0": 25760, 
                            "v": 95, 
                            "dur": 20, 
                            "type": "note", 
                            "channel": 9
                        }
                    ]
                ], 
                [
                    25800, 
                    [
                        {
                            "pitch": 42, 
                            "t0": 25800, 
                            "v": 99, 
                            "dur": 45, 
                            "type": "note", 
                            "channel": 9
                        }
                    ]
                ], 
                [
                    25880, 
                    [
                        {
                            "pitch": 42, 
                            "t0": 25880, 
                            "v": 84, 
                            "dur": 19, 
                            "type": "note", 
                            "channel": 9
                        }
                    ]
                ], 
                [
                    25920, 
                    [
                        {
                            "pitch": 42, 
                            "t0": 25920, 
                            "v": 95, 
                            "dur": 44, 
                            "type": "note", 
                            "channel": 9
                        }
                    ]
                ], 
                [
                    26000, 
                    [
                        {
                            "pitch": 42, 
                            "t0": 26000, 
                            "v": 85, 
                            "dur": 21, 
                            "type": "note", 
                            "channel": 9
                        }
                    ]
                ], 
                [
                    26040, 
                    [
                        {
                            "pitch": 42, 
                            "t0": 26040, 
                            "v": 87, 
                            "dur": 45, 
                            "type": "note", 
                            "channel": 9
                        }
                    ]
                ], 
                [
                    26120, 
                    [
                        {
                            "pitch": 46, 
                            "t0": 26120, 
                            "v": 93, 
                            "dur": 22, 
                            "type": "note", 
                            "channel": 9
                        }
                    ]
                ], 
                [
                    26160, 
                    [
                        {
                            "pitch": 42, 
                            "t0": 26160, 
                            "v": 110, 
                            "dur": 37, 
                            "type": "note", 
                            "channel": 9
                        }
                    ]
                ], 
                [
                    26240, 
                    [
                        {
                            "pitch": 42, 
                            "t0": 26240, 
                            "v": 67, 
                            "dur": 22, 
                            "type": "note", 
                            "channel": 9
                        }
                    ]
                ], 
                [
                    26280, 
                    [
                        {
                            "pitch": 42, 
                            "t0": 26280, 
                            "v": 97, 
                            "dur": 41, 
                            "type": "note", 
                            "channel": 9
                        }
                    ]
                ], 
                [
                    26360, 
                    [
                        {
                            "pitch": 42, 
                            "t0": 26360, 
                            "v": 87, 
                            "dur": 19, 
                            "type": "note", 
                            "channel": 9
                        }
                    ]
                ], 
                [
                    26520, 
                    [
                        {
                            "pitch": 42, 
                            "t0": 26520, 
                            "v": 97, 
                            "dur": 30, 
                            "type": "note", 
                            "channel": 9
                        }
                    ]
                ], 
                [
                    26600, 
                    [
                        {
                            "pitch": 42, 
                            "t0": 26600, 
                            "v": 81, 
                            "dur": 19, 
                            "type": "note", 
                            "channel": 9
                        }
                    ]
                ], 
                [
                    26640, 
                    [
                        {
                            "pitch": 42, 
                            "t0": 26640, 
                            "v": 95, 
                            "dur": 47, 
                            "type": "note", 
                            "channel": 9
                        }
                    ]
                ], 
                [
                    26720, 
                    [
                        {
                            "pitch": 42, 
                            "t0": 26720, 
                            "v": 82, 
                            "dur": 17, 
                            "type": "note", 
                            "channel": 9
                        }
                    ]
                ], 
                [
                    26760, 
                    [
                        {
                            "pitch": 42, 
                            "t0": 26760, 
                            "v": 93, 
                            "dur": 46, 
                            "type": "note", 
                            "channel": 9
                        }
                    ]
                ], 
                [
                    26840, 
                    [
                        {
                            "pitch": 42, 
                            "t0": 26840, 
                            "v": 72, 
                            "dur": 18, 
                            "type": "note", 
                            "channel": 9
                        }
                    ]
                ], 
                [
                    26880, 
                    [
                        {
                            "pitch": 42, 
                            "t0": 26880, 
                            "v": 101, 
                            "dur": 45, 
                            "type": "note", 
                            "channel": 9
                        }
                    ]
                ], 
                [
                    26960, 
                    [
                        {
                            "pitch": 42, 
                            "t0": 26960, 
                            "v": 91, 
                            "dur": 15, 
                            "type": "note", 
                            "channel": 9
                        }
                    ]
                ], 
                [
                    27480, 
                    [
                        {
                            "pitch": 42, 
                            "t0": 27480, 
                            "v": 97, 
                            "dur": 38, 
                            "type": "note", 
                            "channel": 9
                        }
                    ]
                ], 
                [
                    27560, 
                    [
                        {
                            "pitch": 42, 
                            "t0": 27560, 
                            "v": 87, 
                            "dur": 21, 
                            "type": "note", 
                            "channel": 9
                        }
                    ]
                ], 
                [
                    27600, 
                    [
                        {
                            "pitch": 42, 
                            "t0": 27600, 
                            "v": 97, 
                            "dur": 47, 
                            "type": "note", 
                            "channel": 9
                        }
                    ]
                ], 
                [
                    27680, 
                    [
                        {
                            "pitch": 42, 
                            "t0": 27680, 
                            "v": 97, 
                            "dur": 21, 
                            "type": "note", 
                            "channel": 9
                        }
                    ]
                ], 
                [
                    27720, 
                    [
                        {
                            "pitch": 42, 
                            "t0": 27720, 
                            "v": 97, 
                            "dur": 42, 
                            "type": "note", 
                            "channel": 9
                        }
                    ]
                ], 
                [
                    27800, 
                    [
                        {
                            "pitch": 42, 
                            "t0": 27800, 
                            "v": 89, 
                            "dur": 21, 
                            "type": "note", 
                            "channel": 9
                        }
                    ]
                ], 
                [
                    27840, 
                    [
                        {
                            "pitch": 42, 
                            "t0": 27840, 
                            "v": 97, 
                            "dur": 39, 
                            "type": "note", 
                            "channel": 9
                        }
                    ]
                ], 
                [
                    27920, 
                    [
                        {
                            "pitch": 42, 
                            "t0": 27920, 
                            "v": 87, 
                            "dur": 18, 
                            "type": "note", 
                            "channel": 9
                        }
                    ]
                ], 
                [
                    27960, 
                    [
                        {
                            "pitch": 42, 
                            "t0": 27960, 
                            "v": 95, 
                            "dur": 41, 
                            "type": "note", 
                            "channel": 9
                        }
                    ]
                ], 
                [
                    28040, 
                    [
                        {
                            "pitch": 42, 
                            "t0": 28040, 
                            "v": 91, 
                            "dur": 19, 
                            "type": "note", 
                            "channel": 9
                        }
                    ]
                ], 
                [
                    28080, 
                    [
                        {
                            "pitch": 42, 
                            "t0": 28080, 
                            "v": 101, 
                            "dur": 43, 
                            "type": "note", 
                            "channel": 9
                        }
                    ]
                ], 
                [
                    28160, 
                    [
                        {
                            "pitch": 42, 
                            "t0": 28160, 
                            "v": 93, 
                            "dur": 18, 
                            "type": "note", 
                            "channel": 9
                        }
                    ]
                ], 
                [
                    28200, 
                    [
                        {
                            "pitch": 42, 
                            "t0": 28200, 
                            "v": 104, 
                            "dur": 39, 
                            "type": "note", 
                            "channel": 9
                        }
                    ]
                ], 
                [
                    28280, 
                    [
                        {
                            "pitch": 42, 
                            "t0": 28280, 
                            "v": 87, 
                            "dur": 19, 
                            "type": "note", 
                            "channel": 9
                        }
                    ]
                ], 
                [
                    28320, 
                    [
                        {
                            "pitch": 42, 
                            "t0": 28320, 
                            "v": 95, 
                            "dur": 39, 
                            "type": "note", 
                            "channel": 9
                        }
                    ]
                ], 
                [
                    28400, 
                    [
                        {
                            "pitch": 42, 
                            "t0": 28400, 
                            "v": 84, 
                            "dur": 18, 
                            "type": "note", 
                            "channel": 9
                        }
                    ]
                ], 
                [
                    28440, 
                    [
                        {
                            "pitch": 42, 
                            "t0": 28440, 
                            "v": 97, 
                            "dur": 40, 
                            "type": "note", 
                            "channel": 9
                        }
                    ]
                ], 
                [
                    28520, 
                    [
                        {
                            "pitch": 42, 
                            "t0": 28520, 
                            "v": 89, 
                            "dur": 18, 
                            "type": "note", 
                            "channel": 9
                        }
                    ]
                ], 
                [
                    28560, 
                    [
                        {
                            "pitch": 42, 
                            "t0": 28560, 
                            "v": 99, 
                            "dur": 37, 
                            "type": "note", 
                            "channel": 9
                        }
                    ]
                ], 
                [
                    28640, 
                    [
                        {
                            "pitch": 42, 
                            "t0": 28640, 
                            "v": 82, 
                            "dur": 15, 
                            "type": "note", 
                            "channel": 9
                        }
                    ]
                ], 
                [
                    28680, 
                    [
                        {
                            "pitch": 42, 
                            "t0": 28680, 
                            "v": 101, 
                            "dur": 37, 
                            "type": "note", 
                            "channel": 9
                        }
                    ]
                ], 
                [
                    28760, 
                    [
                        {
                            "pitch": 42, 
                            "t0": 28760, 
                            "v": 87, 
                            "dur": 14, 
                            "type": "note", 
                            "channel": 9
                        }
                    ]
                ], 
                [
                    28800, 
                    [
                        {
                            "pitch": 42, 
                            "t0": 28800, 
                            "v": 101, 
                            "dur": 38, 
                            "type": "note", 
                            "channel": 9
                        }
                    ]
                ], 
                [
                    28880, 
                    [
                        {
                            "pitch": 42, 
                            "t0": 28880, 
                            "v": 91, 
                            "dur": 19, 
                            "type": "note", 
                            "channel": 9
                        }
                    ]
                ], 
                [
                    28920, 
                    [
                        {
                            "pitch": 42, 
                            "t0": 28920, 
                            "v": 93, 
                            "dur": 27, 
                            "type": "note", 
                            "channel": 9
                        }
                    ]
                ], 
                [
                    29000, 
                    [
                        {
                            "pitch": 42, 
                            "t0": 29000, 
                            "v": 93, 
                            "dur": 18, 
                            "type": "note", 
                            "channel": 9
                        }
                    ]
                ], 
                [
                    29040, 
                    [
                        {
                            "pitch": 42, 
                            "t0": 29040, 
                            "v": 97, 
                            "dur": 32, 
                            "type": "note", 
                            "channel": 9
                        }
                    ]
                ], 
                [
                    29120, 
                    [
                        {
                            "pitch": 42, 
                            "t0": 29120, 
                            "v": 85, 
                            "dur": 17, 
                            "type": "note", 
                            "channel": 9
                        }
                    ]
                ], 
                [
                    29160, 
                    [
                        {
                            "pitch": 42, 
                            "t0": 29160, 
                            "v": 97, 
                            "dur": 35, 
                            "type": "note", 
                            "channel": 9
                        }
                    ]
                ], 
                [
                    29240, 
                    [
                        {
                            "pitch": 42, 
                            "t0": 29240, 
                            "v": 110, 
                            "dur": 19, 
                            "type": "note", 
                            "channel": 9
                        }
                    ]
                ], 
                [
                    29360, 
                    [
                        {
                            "pitch": 42, 
                            "t0": 29360, 
                            "v": 97, 
                            "dur": 19, 
                            "type": "note", 
                            "channel": 9
                        }
                    ]
                ], 
                [
                    29400, 
                    [
                        {
                            "pitch": 42, 
                            "t0": 29400, 
                            "v": 99, 
                            "dur": 34, 
                            "type": "note", 
                            "channel": 9
                        }
                    ]
                ], 
                [
                    29480, 
                    [
                        {
                            "pitch": 42, 
                            "t0": 29480, 
                            "v": 85, 
                            "dur": 21, 
                            "type": "note", 
                            "channel": 9
                        }
                    ]
                ], 
                [
                    29520, 
                    [
                        {
                            "pitch": 42, 
                            "t0": 29520, 
                            "v": 89, 
                            "dur": 40, 
                            "type": "note", 
                            "channel": 9
                        }
                    ]
                ], 
                [
                    29600, 
                    [
                        {
                            "pitch": 42, 
                            "t0": 29600, 
                            "v": 93, 
                            "dur": 23, 
                            "type": "note", 
                            "channel": 9
                        }
                    ]
                ], 
                [
                    29640, 
                    [
                        {
                            "pitch": 42, 
                            "t0": 29640, 
                            "v": 99, 
                            "dur": 40, 
                            "type": "note", 
                            "channel": 9
                        }
                    ]
                ], 
                [
                    29720, 
                    [
                        {
                            "pitch": 42, 
                            "t0": 29720, 
                            "v": 85, 
                            "dur": 20, 
                            "type": "note", 
                            "channel": 9
                        }
                    ]
                ], 
                [
                    29760, 
                    [
                        {
                            "pitch": 42, 
                            "t0": 29760, 
                            "v": 101, 
                            "dur": 28, 
                            "type": "note", 
                            "channel": 9
                        }
                    ]
                ], 
                [
                    29840, 
                    [
                        {
                            "pitch": 42, 
                            "t0": 29840, 
                            "v": 72, 
                            "dur": 14, 
                            "type": "note", 
                            "channel": 9
                        }
                    ]
                ], 
                [
                    29880, 
                    [
                        {
                            "pitch": 42, 
                            "t0": 29880, 
                            "v": 91, 
                            "dur": 30, 
                            "type": "note", 
                            "channel": 9
                        }
                    ]
                ], 
                [
                    29960, 
                    [
                        {
                            "pitch": 42, 
                            "t0": 29960, 
                            "v": 73, 
                            "dur": 16, 
                            "type": "note", 
                            "channel": 9
                        }
                    ]
                ], 
                [
                    30000, 
                    [
                        {
                            "pitch": 42, 
                            "t0": 30000, 
                            "v": 93, 
                            "dur": 33, 
                            "type": "note", 
                            "channel": 9
                        }
                    ]
                ], 
                [
                    30080, 
                    [
                        {
                            "pitch": 42, 
                            "t0": 30080, 
                            "v": 87, 
                            "dur": 17, 
                            "type": "note", 
                            "channel": 9
                        }
                    ]
                ], 
                [
                    30120, 
                    [
                        {
                            "pitch": 42, 
                            "t0": 30120, 
                            "v": 99, 
                            "dur": 37, 
                            "type": "note", 
                            "channel": 9
                        }
                    ]
                ], 
                [
                    30200, 
                    [
                        {
                            "pitch": 42, 
                            "t0": 30200, 
                            "v": 87, 
                            "dur": 13, 
                            "type": "note", 
                            "channel": 9
                        }
                    ]
                ], 
                [
                    31320, 
                    [
                        {
                            "pitch": 51, 
                            "t0": 31320, 
                            "v": 85, 
                            "dur": 28, 
                            "type": "note", 
                            "channel": 9
                        }
                    ]
                ], 
                [
                    31400, 
                    [
                        {
                            "pitch": 51, 
                            "t0": 31400, 
                            "v": 72, 
                            "dur": 15, 
                            "type": "note", 
                            "channel": 9
                        }
                    ]
                ], 
                [
                    31440, 
                    [
                        {
                            "pitch": 51, 
                            "t0": 31440, 
                            "v": 91, 
                            "dur": 45, 
                            "type": "note", 
                            "channel": 9
                        }
                    ]
                ], 
                [
                    31560, 
                    [
                        {
                            "pitch": 51, 
                            "t0": 31560, 
                            "v": 87, 
                            "dur": 25, 
                            "type": "note", 
                            "channel": 9
                        }
                    ]
                ], 
                [
                    31640, 
                    [
                        {
                            "pitch": 51, 
                            "t0": 31640, 
                            "v": 78, 
                            "dur": 14, 
                            "type": "note", 
                            "channel": 9
                        }
                    ]
                ], 
                [
                    31680, 
                    [
                        {
                            "pitch": 51, 
                            "t0": 31680, 
                            "v": 95, 
                            "dur": 41, 
                            "type": "note", 
                            "channel": 9
                        }
                    ]
                ], 
                [
                    31800, 
                    [
                        {
                            "pitch": 51, 
                            "t0": 31800, 
                            "v": 95, 
                            "dur": 28, 
                            "type": "note", 
                            "channel": 9
                        }
                    ]
                ], 
                [
                    31880, 
                    [
                        {
                            "pitch": 51, 
                            "t0": 31880, 
                            "v": 73, 
                            "dur": 13, 
                            "type": "note", 
                            "channel": 9
                        }
                    ]
                ], 
                [
                    31920, 
                    [
                        {
                            "pitch": 51, 
                            "t0": 31920, 
                            "v": 84, 
                            "dur": 32, 
                            "type": "note", 
                            "channel": 9
                        }
                    ]
                ], 
                [
                    32000, 
                    [
                        {
                            "pitch": 51, 
                            "t0": 32000, 
                            "v": 71, 
                            "dur": 15, 
                            "type": "note", 
                            "channel": 9
                        }
                    ]
                ], 
                [
                    32040, 
                    [
                        {
                            "pitch": 51, 
                            "t0": 32040, 
                            "v": 93, 
                            "dur": 37, 
                            "type": "note", 
                            "channel": 9
                        }
                    ]
                ], 
                [
                    32120, 
                    [
                        {
                            "pitch": 51, 
                            "t0": 32120, 
                            "v": 81, 
                            "dur": 18, 
                            "type": "note", 
                            "channel": 9
                        }
                    ]
                ], 
                [
                    32280, 
                    [
                        {
                            "pitch": 51, 
                            "t0": 32280, 
                            "v": 82, 
                            "dur": 23, 
                            "type": "note", 
                            "channel": 9
                        }
                    ]
                ], 
                [
                    32360, 
                    [
                        {
                            "pitch": 51, 
                            "t0": 32360, 
                            "v": 34, 
                            "dur": 6, 
                            "type": "note", 
                            "channel": 9
                        }
                    ]
                ], 
                [
                    32400, 
                    [
                        {
                            "pitch": 51, 
                            "t0": 32400, 
                            "v": 79, 
                            "dur": 27, 
                            "type": "note", 
                            "channel": 9
                        }
                    ]
                ], 
                [
                    32520, 
                    [
                        {
                            "pitch": 51, 
                            "t0": 32520, 
                            "v": 84, 
                            "dur": 27, 
                            "type": "note", 
                            "channel": 9
                        }
                    ]
                ], 
                [
                    32600, 
                    [
                        {
                            "pitch": 51, 
                            "t0": 32600, 
                            "v": 58, 
                            "dur": 16, 
                            "type": "note", 
                            "channel": 9
                        }
                    ]
                ], 
                [
                    32640, 
                    [
                        {
                            "pitch": 51, 
                            "t0": 32640, 
                            "v": 93, 
                            "dur": 47, 
                            "type": "note", 
                            "channel": 9
                        }
                    ]
                ], 
                [
                    32760, 
                    [
                        {
                            "pitch": 51, 
                            "t0": 32760, 
                            "v": 78, 
                            "dur": 26, 
                            "type": "note", 
                            "channel": 9
                        }
                    ]
                ], 
                [
                    32840, 
                    [
                        {
                            "pitch": 51, 
                            "t0": 32840, 
                            "v": 72, 
                            "dur": 18, 
                            "type": "note", 
                            "channel": 9
                        }
                    ]
                ], 
                [
                    32880, 
                    [
                        {
                            "pitch": 51, 
                            "t0": 32880, 
                            "v": 93, 
                            "dur": 40, 
                            "type": "note", 
                            "channel": 9
                        }
                    ]
                ], 
                [
                    33240, 
                    [
                        {
                            "pitch": 51, 
                            "t0": 33240, 
                            "v": 75, 
                            "dur": 22, 
                            "type": "note", 
                            "channel": 9
                        }
                    ]
                ], 
                [
                    33320, 
                    [
                        {
                            "pitch": 51, 
                            "t0": 33320, 
                            "v": 57, 
                            "dur": 14, 
                            "type": "note", 
                            "channel": 9
                        }
                    ]
                ], 
                [
                    33360, 
                    [
                        {
                            "pitch": 51, 
                            "t0": 33360, 
                            "v": 79, 
                            "dur": 31, 
                            "type": "note", 
                            "channel": 9
                        }
                    ]
                ], 
                [
                    33480, 
                    [
                        {
                            "pitch": 51, 
                            "t0": 33480, 
                            "v": 79, 
                            "dur": 28, 
                            "type": "note", 
                            "channel": 9
                        }
                    ]
                ], 
                [
                    33560, 
                    [
                        {
                            "pitch": 51, 
                            "t0": 33560, 
                            "v": 65, 
                            "dur": 14, 
                            "type": "note", 
                            "channel": 9
                        }
                    ]
                ], 
                [
                    33600, 
                    [
                        {
                            "pitch": 51, 
                            "t0": 33600, 
                            "v": 78, 
                            "dur": 24, 
                            "type": "note", 
                            "channel": 9
                        }
                    ]
                ], 
                [
                    33720, 
                    [
                        {
                            "pitch": 51, 
                            "t0": 33720, 
                            "v": 81, 
                            "dur": 24, 
                            "type": "note", 
                            "channel": 9
                        }
                    ]
                ], 
                [
                    33800, 
                    [
                        {
                            "pitch": 51, 
                            "t0": 33800, 
                            "v": 57, 
                            "dur": 11, 
                            "type": "note", 
                            "channel": 9
                        }
                    ]
                ], 
                [
                    33840, 
                    [
                        {
                            "pitch": 51, 
                            "t0": 33840, 
                            "v": 84, 
                            "dur": 29, 
                            "type": "note", 
                            "channel": 9
                        }
                    ]
                ], 
                [
                    33960, 
                    [
                        {
                            "pitch": 50, 
                            "t0": 33960, 
                            "v": 61, 
                            "dur": 8, 
                            "type": "note", 
                            "channel": 9
                        }, 
                        {
                            "pitch": 51, 
                            "t0": 33960, 
                            "v": 74, 
                            "dur": 20, 
                            "type": "note", 
                            "channel": 9
                        }
                    ]
                ], 
                [
                    34040, 
                    [
                        {
                            "pitch": 51, 
                            "t0": 34040, 
                            "v": 55, 
                            "dur": 9, 
                            "type": "note", 
                            "channel": 9
                        }
                    ]
                ], 
                [
                    34200, 
                    [
                        {
                            "pitch": 53, 
                            "t0": 34200, 
                            "v": 76, 
                            "dur": 18, 
                            "type": "note", 
                            "channel": 9
                        }
                    ]
                ], 
                [
                    34320, 
                    [
                        {
                            "pitch": 53, 
                            "t0": 34320, 
                            "v": 73, 
                            "dur": 21, 
                            "type": "note", 
                            "channel": 9
                        }
                    ]
                ], 
                [
                    34440, 
                    [
                        {
                            "pitch": 53, 
                            "t0": 34440, 
                            "v": 79, 
                            "dur": 30, 
                            "type": "note", 
                            "channel": 9
                        }
                    ]
                ], 
                [
                    34560, 
                    [
                        {
                            "pitch": 53, 
                            "t0": 34560, 
                            "v": 81, 
                            "dur": 26, 
                            "type": "note", 
                            "channel": 9
                        }
                    ]
                ], 
                [
                    34680, 
                    [
                        {
                            "pitch": 53, 
                            "t0": 34680, 
                            "v": 80, 
                            "dur": 19, 
                            "type": "note", 
                            "channel": 9
                        }
                    ]
                ], 
                [
                    34800, 
                    [
                        {
                            "pitch": 53, 
                            "t0": 34800, 
                            "v": 75, 
                            "dur": 16, 
                            "type": "note", 
                            "channel": 9
                        }
                    ]
                ], 
                [
                    34920, 
                    [
                        {
                            "pitch": 53, 
                            "t0": 34920, 
                            "v": 73, 
                            "dur": 15, 
                            "type": "note", 
                            "channel": 9
                        }
                    ]
                ], 
                [
                    35160, 
                    [
                        {
                            "pitch": 42, 
                            "t0": 35160, 
                            "v": 82, 
                            "dur": 28, 
                            "type": "note", 
                            "channel": 9
                        }
                    ]
                ], 
                [
                    35240, 
                    [
                        {
                            "pitch": 42, 
                            "t0": 35240, 
                            "v": 74, 
                            "dur": 16, 
                            "type": "note", 
                            "channel": 9
                        }
                    ]
                ], 
                [
                    35280, 
                    [
                        {
                            "pitch": 42, 
                            "t0": 35280, 
                            "v": 93, 
                            "dur": 43, 
                            "type": "note", 
                            "channel": 9
                        }
                    ]
                ], 
                [
                    35400, 
                    [
                        {
                            "pitch": 42, 
                            "t0": 35400, 
                            "v": 87, 
                            "dur": 21, 
                            "type": "note", 
                            "channel": 9
                        }
                    ]
                ], 
                [
                    35480, 
                    [
                        {
                            "pitch": 42, 
                            "t0": 35480, 
                            "v": 73, 
                            "dur": 16, 
                            "type": "note", 
                            "channel": 9
                        }
                    ]
                ], 
                [
                    35520, 
                    [
                        {
                            "pitch": 42, 
                            "t0": 35520, 
                            "v": 84, 
                            "dur": 35, 
                            "type": "note", 
                            "channel": 9
                        }
                    ]
                ], 
                [
                    35640, 
                    [
                        {
                            "pitch": 42, 
                            "t0": 35640, 
                            "v": 82, 
                            "dur": 29, 
                            "type": "note", 
                            "channel": 9
                        }
                    ]
                ], 
                [
                    35720, 
                    [
                        {
                            "pitch": 42, 
                            "t0": 35720, 
                            "v": 52, 
                            "dur": 20, 
                            "type": "note", 
                            "channel": 9
                        }
                    ]
                ], 
                [
                    35760, 
                    [
                        {
                            "pitch": 42, 
                            "t0": 35760, 
                            "v": 84, 
                            "dur": 45, 
                            "type": "note", 
                            "channel": 9
                        }
                    ]
                ], 
                [
                    35880, 
                    [
                        {
                            "pitch": 42, 
                            "t0": 35880, 
                            "v": 82, 
                            "dur": 34, 
                            "type": "note", 
                            "channel": 9
                        }
                    ]
                ], 
                [
                    35960, 
                    [
                        {
                            "pitch": 46, 
                            "t0": 35960, 
                            "v": 70, 
                            "dur": 32, 
                            "type": "note", 
                            "channel": 9
                        }
                    ]
                ], 
                [
                    36000, 
                    [
                        {
                            "pitch": 42, 
                            "t0": 36000, 
                            "v": 97, 
                            "dur": 41, 
                            "type": "note", 
                            "channel": 9
                        }
                    ]
                ], 
                [
                    36080, 
                    [
                        {
                            "pitch": 42, 
                            "t0": 36080, 
                            "v": 73, 
                            "dur": 23, 
                            "type": "note", 
                            "channel": 9
                        }
                    ]
                ], 
                [
                    36120, 
                    [
                        {
                            "pitch": 42, 
                            "t0": 36120, 
                            "v": 97, 
                            "dur": 50, 
                            "type": "note", 
                            "channel": 9
                        }
                    ]
                ], 
                [
                    36240, 
                    [
                        {
                            "pitch": 42, 
                            "t0": 36240, 
                            "v": 87, 
                            "dur": 49, 
                            "type": "note", 
                            "channel": 9
                        }
                    ]
                ], 
                [
                    36360, 
                    [
                        {
                            "pitch": 42, 
                            "t0": 36360, 
                            "v": 87, 
                            "dur": 41, 
                            "type": "note", 
                            "channel": 9
                        }
                    ]
                ], 
                [
                    36440, 
                    [
                        {
                            "pitch": 42, 
                            "t0": 36440, 
                            "v": 84, 
                            "dur": 17, 
                            "type": "note", 
                            "channel": 9
                        }
                    ]
                ], 
                [
                    36480, 
                    [
                        {
                            "pitch": 42, 
                            "t0": 36480, 
                            "v": 95, 
                            "dur": 51, 
                            "type": "note", 
                            "channel": 9
                        }
                    ]
                ], 
                [
                    36600, 
                    [
                        {
                            "pitch": 42, 
                            "t0": 36600, 
                            "v": 89, 
                            "dur": 44, 
                            "type": "note", 
                            "channel": 9
                        }
                    ]
                ], 
                [
                    36680, 
                    [
                        {
                            "pitch": 42, 
                            "t0": 36680, 
                            "v": 81, 
                            "dur": 19, 
                            "type": "note", 
                            "channel": 9
                        }
                    ]
                ], 
                [
                    36720, 
                    [
                        {
                            "pitch": 42, 
                            "t0": 36720, 
                            "v": 97, 
                            "dur": 47, 
                            "type": "note", 
                            "channel": 9
                        }
                    ]
                ], 
                [
                    36840, 
                    [
                        {
                            "pitch": 42, 
                            "t0": 36840, 
                            "v": 95, 
                            "dur": 35, 
                            "type": "note", 
                            "channel": 9
                        }
                    ]
                ], 
                [
                    36920, 
                    [
                        {
                            "pitch": 46, 
                            "t0": 36920, 
                            "v": 84, 
                            "dur": 21, 
                            "type": "note", 
                            "channel": 9
                        }
                    ]
                ], 
                [
                    36960, 
                    [
                        {
                            "pitch": 42, 
                            "t0": 36960, 
                            "v": 95, 
                            "dur": 43, 
                            "type": "note", 
                            "channel": 9
                        }
                    ]
                ], 
                [
                    37080, 
                    [
                        {
                            "pitch": 42, 
                            "t0": 37080, 
                            "v": 89, 
                            "dur": 34, 
                            "type": "note", 
                            "channel": 9
                        }
                    ]
                ], 
                [
                    37160, 
                    [
                        {
                            "pitch": 42, 
                            "t0": 37160, 
                            "v": 68, 
                            "dur": 15, 
                            "type": "note", 
                            "channel": 9
                        }
                    ]
                ], 
                [
                    37200, 
                    [
                        {
                            "pitch": 42, 
                            "t0": 37200, 
                            "v": 93, 
                            "dur": 48, 
                            "type": "note", 
                            "channel": 9
                        }
                    ]
                ], 
                [
                    37320, 
                    [
                        {
                            "pitch": 42, 
                            "t0": 37320, 
                            "v": 84, 
                            "dur": 43, 
                            "type": "note", 
                            "channel": 9
                        }
                    ]
                ], 
                [
                    37400, 
                    [
                        {
                            "pitch": 42, 
                            "t0": 37400, 
                            "v": 70, 
                            "dur": 16, 
                            "type": "note", 
                            "channel": 9
                        }
                    ]
                ], 
                [
                    37440, 
                    [
                        {
                            "pitch": 42, 
                            "t0": 37440, 
                            "v": 84, 
                            "dur": 26, 
                            "type": "note", 
                            "channel": 9
                        }
                    ]
                ], 
                [
                    37560, 
                    [
                        {
                            "pitch": 42, 
                            "t0": 37560, 
                            "v": 85, 
                            "dur": 33, 
                            "type": "note", 
                            "channel": 9
                        }
                    ]
                ], 
                [
                    37640, 
                    [
                        {
                            "pitch": 42, 
                            "t0": 37640, 
                            "v": 82, 
                            "dur": 17, 
                            "type": "note", 
                            "channel": 9
                        }
                    ]
                ], 
                [
                    37680, 
                    [
                        {
                            "pitch": 42, 
                            "t0": 37680, 
                            "v": 93, 
                            "dur": 48, 
                            "type": "note", 
                            "channel": 9
                        }
                    ]
                ], 
                [
                    37800, 
                    [
                        {
                            "pitch": 42, 
                            "t0": 37800, 
                            "v": 97, 
                            "dur": 47, 
                            "type": "note", 
                            "channel": 9
                        }
                    ]
                ], 
                [
                    37880, 
                    [
                        {
                            "pitch": 42, 
                            "t0": 37880, 
                            "v": 99, 
                            "dur": 18, 
                            "type": "note", 
                            "channel": 9
                        }
                    ]
                ], 
                [
                    38040, 
                    [
                        {
                            "pitch": 42, 
                            "t0": 38040, 
                            "v": 95, 
                            "dur": 32, 
                            "type": "note", 
                            "channel": 9
                        }
                    ]
                ], 
                [
                    38120, 
                    [
                        {
                            "pitch": 42, 
                            "t0": 38120, 
                            "v": 70, 
                            "dur": 14, 
                            "type": "note", 
                            "channel": 9
                        }
                    ]
                ], 
                [
                    38160, 
                    [
                        {
                            "pitch": 42, 
                            "t0": 38160, 
                            "v": 95, 
                            "dur": 42, 
                            "type": "note", 
                            "channel": 9
                        }
                    ]
                ], 
                [
                    38280, 
                    [
                        {
                            "pitch": 42, 
                            "t0": 38280, 
                            "v": 95, 
                            "dur": 39, 
                            "type": "note", 
                            "channel": 9
                        }
                    ]
                ], 
                [
                    38360, 
                    [
                        {
                            "pitch": 42, 
                            "t0": 38360, 
                            "v": 87, 
                            "dur": 13, 
                            "type": "note", 
                            "channel": 9
                        }
                    ]
                ], 
                [
                    39040, 
                    [
                        {
                            "pitch": 44, 
                            "t0": 39040, 
                            "v": 56, 
                            "dur": 11, 
                            "type": "note", 
                            "channel": 9
                        }
                    ]
                ], 
                [
                    39080, 
                    [
                        {
                            "pitch": 42, 
                            "t0": 39080, 
                            "v": 67, 
                            "dur": 17, 
                            "type": "note", 
                            "channel": 9
                        }
                    ]
                ], 
                [
                    39120, 
                    [
                        {
                            "pitch": 42, 
                            "t0": 39120, 
                            "v": 91, 
                            "dur": 44, 
                            "type": "note", 
                            "channel": 9
                        }
                    ]
                ], 
                [
                    39240, 
                    [
                        {
                            "pitch": 42, 
                            "t0": 39240, 
                            "v": 89, 
                            "dur": 39, 
                            "type": "note", 
                            "channel": 9
                        }
                    ]
                ], 
                [
                    39320, 
                    [
                        {
                            "pitch": 46, 
                            "t0": 39320, 
                            "v": 78, 
                            "dur": 19, 
                            "type": "note", 
                            "channel": 9
                        }
                    ]
                ], 
                [
                    39360, 
                    [
                        {
                            "pitch": 42, 
                            "t0": 39360, 
                            "v": 85, 
                            "dur": 38, 
                            "type": "note", 
                            "channel": 9
                        }
                    ]
                ], 
                [
                    39480, 
                    [
                        {
                            "pitch": 42, 
                            "t0": 39480, 
                            "v": 97, 
                            "dur": 35, 
                            "type": "note", 
                            "channel": 9
                        }
                    ]
                ], 
                [
                    39560, 
                    [
                        {
                            "pitch": 42, 
                            "t0": 39560, 
                            "v": 71, 
                            "dur": 17, 
                            "type": "note", 
                            "channel": 9
                        }
                    ]
                ], 
                [
                    39600, 
                    [
                        {
                            "pitch": 42, 
                            "t0": 39600, 
                            "v": 91, 
                            "dur": 46, 
                            "type": "note", 
                            "channel": 9
                        }
                    ]
                ], 
                [
                    39720, 
                    [
                        {
                            "pitch": 42, 
                            "t0": 39720, 
                            "v": 89, 
                            "dur": 44, 
                            "type": "note", 
                            "channel": 9
                        }
                    ]
                ], 
                [
                    39800, 
                    [
                        {
                            "pitch": 46, 
                            "t0": 39800, 
                            "v": 72, 
                            "dur": 22, 
                            "type": "note", 
                            "channel": 9
                        }
                    ]
                ], 
                [
                    39840, 
                    [
                        {
                            "pitch": 42, 
                            "t0": 39840, 
                            "v": 87, 
                            "dur": 41, 
                            "type": "note", 
                            "channel": 9
                        }
                    ]
                ], 
                [
                    39960, 
                    [
                        {
                            "pitch": 42, 
                            "t0": 39960, 
                            "v": 89, 
                            "dur": 41, 
                            "type": "note", 
                            "channel": 9
                        }
                    ]
                ], 
                [
                    40040, 
                    [
                        {
                            "pitch": 42, 
                            "t0": 40040, 
                            "v": 78, 
                            "dur": 18, 
                            "type": "note", 
                            "channel": 9
                        }
                    ]
                ], 
                [
                    40080, 
                    [
                        {
                            "pitch": 42, 
                            "t0": 40080, 
                            "v": 91, 
                            "dur": 51, 
                            "type": "note", 
                            "channel": 9
                        }
                    ]
                ], 
                [
                    40200, 
                    [
                        {
                            "pitch": 42, 
                            "t0": 40200, 
                            "v": 87, 
                            "dur": 44, 
                            "type": "note", 
                            "channel": 9
                        }
                    ]
                ], 
                [
                    40280, 
                    [
                        {
                            "pitch": 42, 
                            "t0": 40280, 
                            "v": 73, 
                            "dur": 18, 
                            "type": "note", 
                            "channel": 9
                        }
                    ]
                ], 
                [
                    40320, 
                    [
                        {
                            "pitch": 42, 
                            "t0": 40320, 
                            "v": 89, 
                            "dur": 57, 
                            "type": "note", 
                            "channel": 9
                        }
                    ]
                ], 
                [
                    40440, 
                    [
                        {
                            "pitch": 42, 
                            "t0": 40440, 
                            "v": 87, 
                            "dur": 44, 
                            "type": "note", 
                            "channel": 9
                        }
                    ]
                ], 
                [
                    40520, 
                    [
                        {
                            "pitch": 42, 
                            "t0": 40520, 
                            "v": 72, 
                            "dur": 19, 
                            "type": "note", 
                            "channel": 9
                        }
                    ]
                ], 
                [
                    40560, 
                    [
                        {
                            "pitch": 42, 
                            "t0": 40560, 
                            "v": 93, 
                            "dur": 54, 
                            "type": "note", 
                            "channel": 9
                        }
                    ]
                ], 
                [
                    40640, 
                    [
                        {
                            "pitch": 42, 
                            "t0": 40640, 
                            "v": 87, 
                            "dur": 18, 
                            "type": "note", 
                            "channel": 9
                        }
                    ]
                ], 
                [
                    40680, 
                    [
                        {
                            "pitch": 42, 
                            "t0": 40680, 
                            "v": 84, 
                            "dur": 51, 
                            "type": "note", 
                            "channel": 9
                        }
                    ]
                ], 
                [
                    40760, 
                    [
                        {
                            "pitch": 46, 
                            "t0": 40760, 
                            "v": 93, 
                            "dur": 20, 
                            "type": "note", 
                            "channel": 9
                        }
                    ]
                ], 
                [
                    40800, 
                    [
                        {
                            "pitch": 42, 
                            "t0": 40800, 
                            "v": 97, 
                            "dur": 65, 
                            "type": "note", 
                            "channel": 9
                        }
                    ]
                ], 
                [
                    40920, 
                    [
                        {
                            "pitch": 42, 
                            "t0": 40920, 
                            "v": 104, 
                            "dur": 43, 
                            "type": "note", 
                            "channel": 9
                        }
                    ]
                ], 
                [
                    41000, 
                    [
                        {
                            "pitch": 42, 
                            "t0": 41000, 
                            "v": 81, 
                            "dur": 16, 
                            "type": "note", 
                            "channel": 9
                        }
                    ]
                ], 
                [
                    41040, 
                    [
                        {
                            "pitch": 42, 
                            "t0": 41040, 
                            "v": 93, 
                            "dur": 50, 
                            "type": "note", 
                            "channel": 9
                        }
                    ]
                ], 
                [
                    41160, 
                    [
                        {
                            "pitch": 42, 
                            "t0": 41160, 
                            "v": 104, 
                            "dur": 40, 
                            "type": "note", 
                            "channel": 9
                        }
                    ]
                ], 
                [
                    41240, 
                    [
                        {
                            "pitch": 42, 
                            "t0": 41240, 
                            "v": 75, 
                            "dur": 15, 
                            "type": "note", 
                            "channel": 9
                        }
                    ]
                ], 
                [
                    41280, 
                    [
                        {
                            "pitch": 42, 
                            "t0": 41280, 
                            "v": 93, 
                            "dur": 48, 
                            "type": "note", 
                            "channel": 9
                        }
                    ]
                ], 
                [
                    41400, 
                    [
                        {
                            "pitch": 42, 
                            "t0": 41400, 
                            "v": 107, 
                            "dur": 37, 
                            "type": "note", 
                            "channel": 9
                        }
                    ]
                ], 
                [
                    41480, 
                    [
                        {
                            "pitch": 42, 
                            "t0": 41480, 
                            "v": 74, 
                            "dur": 15, 
                            "type": "note", 
                            "channel": 9
                        }
                    ]
                ], 
                [
                    41520, 
                    [
                        {
                            "pitch": 42, 
                            "t0": 41520, 
                            "v": 91, 
                            "dur": 49, 
                            "type": "note", 
                            "channel": 9
                        }
                    ]
                ], 
                [
                    41640, 
                    [
                        {
                            "pitch": 42, 
                            "t0": 41640, 
                            "v": 104, 
                            "dur": 41, 
                            "type": "note", 
                            "channel": 9
                        }
                    ]
                ], 
                [
                    41720, 
                    [
                        {
                            "pitch": 42, 
                            "t0": 41720, 
                            "v": 91, 
                            "dur": 16, 
                            "type": "note", 
                            "channel": 9
                        }
                    ]
                ], 
                [
                    41880, 
                    [
                        {
                            "pitch": 42, 
                            "t0": 41880, 
                            "v": 107, 
                            "dur": 35, 
                            "type": "note", 
                            "channel": 9
                        }
                    ]
                ], 
                [
                    41960, 
                    [
                        {
                            "pitch": 42, 
                            "t0": 41960, 
                            "v": 85, 
                            "dur": 17, 
                            "type": "note", 
                            "channel": 9
                        }
                    ]
                ], 
                [
                    42000, 
                    [
                        {
                            "pitch": 42, 
                            "t0": 42000, 
                            "v": 99, 
                            "dur": 55, 
                            "type": "note", 
                            "channel": 9
                        }
                    ]
                ], 
                [
                    42120, 
                    [
                        {
                            "pitch": 42, 
                            "t0": 42120, 
                            "v": 97, 
                            "dur": 38, 
                            "type": "note", 
                            "channel": 9
                        }
                    ]
                ], 
                [
                    42200, 
                    [
                        {
                            "pitch": 42, 
                            "t0": 42200, 
                            "v": 70, 
                            "dur": 12, 
                            "type": "note", 
                            "channel": 9
                        }
                    ]
                ], 
                [
                    42240, 
                    [
                        {
                            "pitch": 42, 
                            "t0": 42240, 
                            "v": 99, 
                            "dur": 35, 
                            "type": "note", 
                            "channel": 9
                        }
                    ]
                ], 
                [
                    42840, 
                    [
                        {
                            "pitch": 42, 
                            "t0": 42840, 
                            "v": 91, 
                            "dur": 40, 
                            "type": "note", 
                            "channel": 9
                        }
                    ]
                ], 
                [
                    42920, 
                    [
                        {
                            "pitch": 42, 
                            "t0": 42920, 
                            "v": 84, 
                            "dur": 19, 
                            "type": "note", 
                            "channel": 9
                        }
                    ]
                ], 
                [
                    42960, 
                    [
                        {
                            "pitch": 42, 
                            "t0": 42960, 
                            "v": 101, 
                            "dur": 49, 
                            "type": "note", 
                            "channel": 9
                        }
                    ]
                ], 
                [
                    43080, 
                    [
                        {
                            "pitch": 42, 
                            "t0": 43080, 
                            "v": 99, 
                            "dur": 36, 
                            "type": "note", 
                            "channel": 9
                        }
                    ]
                ], 
                [
                    43160, 
                    [
                        {
                            "pitch": 42, 
                            "t0": 43160, 
                            "v": 81, 
                            "dur": 18, 
                            "type": "note", 
                            "channel": 9
                        }
                    ]
                ], 
                [
                    43200, 
                    [
                        {
                            "pitch": 42, 
                            "t0": 43200, 
                            "v": 99, 
                            "dur": 49, 
                            "type": "note", 
                            "channel": 9
                        }
                    ]
                ], 
                [
                    43320, 
                    [
                        {
                            "pitch": 42, 
                            "t0": 43320, 
                            "v": 113, 
                            "dur": 38, 
                            "type": "note", 
                            "channel": 9
                        }
                    ]
                ], 
                [
                    43400, 
                    [
                        {
                            "pitch": 42, 
                            "t0": 43400, 
                            "v": 81, 
                            "dur": 14, 
                            "type": "note", 
                            "channel": 9
                        }
                    ]
                ], 
                [
                    43440, 
                    [
                        {
                            "pitch": 42, 
                            "t0": 43440, 
                            "v": 104, 
                            "dur": 41, 
                            "type": "note", 
                            "channel": 9
                        }
                    ]
                ], 
                [
                    43560, 
                    [
                        {
                            "pitch": 42, 
                            "t0": 43560, 
                            "v": 101, 
                            "dur": 40, 
                            "type": "note", 
                            "channel": 9
                        }
                    ]
                ], 
                [
                    43640, 
                    [
                        {
                            "pitch": 46, 
                            "t0": 43640, 
                            "v": 99, 
                            "dur": 23, 
                            "type": "note", 
                            "channel": 9
                        }
                    ]
                ], 
                [
                    43680, 
                    [
                        {
                            "pitch": 42, 
                            "t0": 43680, 
                            "v": 113, 
                            "dur": 42, 
                            "type": "note", 
                            "channel": 9
                        }
                    ]
                ], 
                [
                    43800, 
                    [
                        {
                            "pitch": 42, 
                            "t0": 43800, 
                            "v": 101, 
                            "dur": 34, 
                            "type": "note", 
                            "channel": 9
                        }
                    ]
                ], 
                [
                    43880, 
                    [
                        {
                            "pitch": 42, 
                            "t0": 43880, 
                            "v": 78, 
                            "dur": 15, 
                            "type": "note", 
                            "channel": 9
                        }
                    ]
                ], 
                [
                    43920, 
                    [
                        {
                            "pitch": 42, 
                            "t0": 43920, 
                            "v": 95, 
                            "dur": 41, 
                            "type": "note", 
                            "channel": 9
                        }
                    ]
                ], 
                [
                    44040, 
                    [
                        {
                            "pitch": 42, 
                            "t0": 44040, 
                            "v": 101, 
                            "dur": 37, 
                            "type": "note", 
                            "channel": 9
                        }
                    ]
                ], 
                [
                    44120, 
                    [
                        {
                            "pitch": 42, 
                            "t0": 44120, 
                            "v": 79, 
                            "dur": 14, 
                            "type": "note", 
                            "channel": 9
                        }
                    ]
                ], 
                [
                    44160, 
                    [
                        {
                            "pitch": 42, 
                            "t0": 44160, 
                            "v": 93, 
                            "dur": 41, 
                            "type": "note", 
                            "channel": 9
                        }
                    ]
                ], 
                [
                    44280, 
                    [
                        {
                            "pitch": 42, 
                            "t0": 44280, 
                            "v": 99, 
                            "dur": 34, 
                            "type": "note", 
                            "channel": 9
                        }
                    ]
                ], 
                [
                    44360, 
                    [
                        {
                            "pitch": 42, 
                            "t0": 44360, 
                            "v": 68, 
                            "dur": 10, 
                            "type": "note", 
                            "channel": 9
                        }
                    ]
                ], 
                [
                    44400, 
                    [
                        {
                            "pitch": 42, 
                            "t0": 44400, 
                            "v": 95, 
                            "dur": 33, 
                            "type": "note", 
                            "channel": 9
                        }
                    ]
                ], 
                [
                    44520, 
                    [
                        {
                            "pitch": 42, 
                            "t0": 44520, 
                            "v": 91, 
                            "dur": 30, 
                            "type": "note", 
                            "channel": 9
                        }
                    ]
                ], 
                [
                    44600, 
                    [
                        {
                            "pitch": 42, 
                            "t0": 44600, 
                            "v": 81, 
                            "dur": 19, 
                            "type": "note", 
                            "channel": 9
                        }
                    ]
                ], 
                [
                    44640, 
                    [
                        {
                            "pitch": 42, 
                            "t0": 44640, 
                            "v": 95, 
                            "dur": 43, 
                            "type": "note", 
                            "channel": 9
                        }
                    ]
                ], 
                [
                    44760, 
                    [
                        {
                            "pitch": 42, 
                            "t0": 44760, 
                            "v": 93, 
                            "dur": 31, 
                            "type": "note", 
                            "channel": 9
                        }
                    ]
                ], 
                [
                    44840, 
                    [
                        {
                            "pitch": 42, 
                            "t0": 44840, 
                            "v": 81, 
                            "dur": 18, 
                            "type": "note", 
                            "channel": 9
                        }
                    ]
                ], 
                [
                    44880, 
                    [
                        {
                            "pitch": 42, 
                            "t0": 44880, 
                            "v": 93, 
                            "dur": 46, 
                            "type": "note", 
                            "channel": 9
                        }
                    ]
                ], 
                [
                    45000, 
                    [
                        {
                            "pitch": 42, 
                            "t0": 45000, 
                            "v": 104, 
                            "dur": 33, 
                            "type": "note", 
                            "channel": 9
                        }
                    ]
                ], 
                [
                    45080, 
                    [
                        {
                            "pitch": 42, 
                            "t0": 45080, 
                            "v": 74, 
                            "dur": 15, 
                            "type": "note", 
                            "channel": 9
                        }
                    ]
                ], 
                [
                    45120, 
                    [
                        {
                            "pitch": 42, 
                            "t0": 45120, 
                            "v": 101, 
                            "dur": 45, 
                            "type": "note", 
                            "channel": 9
                        }
                    ]
                ], 
                [
                    45240, 
                    [
                        {
                            "pitch": 42, 
                            "t0": 45240, 
                            "v": 99, 
                            "dur": 36, 
                            "type": "note", 
                            "channel": 9
                        }
                    ]
                ], 
                [
                    45320, 
                    [
                        {
                            "pitch": 42, 
                            "t0": 45320, 
                            "v": 87, 
                            "dur": 17, 
                            "type": "note", 
                            "channel": 9
                        }
                    ]
                ], 
                [
                    45360, 
                    [
                        {
                            "pitch": 42, 
                            "t0": 45360, 
                            "v": 95, 
                            "dur": 47, 
                            "type": "note", 
                            "channel": 9
                        }
                    ]
                ], 
                [
                    45480, 
                    [
                        {
                            "pitch": 42, 
                            "t0": 45480, 
                            "v": 107, 
                            "dur": 31, 
                            "type": "note", 
                            "channel": 9
                        }
                    ]
                ], 
                [
                    45560, 
                    [
                        {
                            "pitch": 42, 
                            "t0": 45560, 
                            "v": 79, 
                            "dur": 16, 
                            "type": "note", 
                            "channel": 9
                        }
                    ]
                ], 
                [
                    45600, 
                    [
                        {
                            "pitch": 42, 
                            "t0": 45600, 
                            "v": 99, 
                            "dur": 32, 
                            "type": "note", 
                            "channel": 9
                        }
                    ]
                ], 
                [
                    46680, 
                    [
                        {
                            "pitch": 51, 
                            "t0": 46680, 
                            "v": 89, 
                            "dur": 29, 
                            "type": "note", 
                            "channel": 9
                        }
                    ]
                ], 
                [
                    46760, 
                    [
                        {
                            "pitch": 51, 
                            "t0": 46760, 
                            "v": 84, 
                            "dur": 14, 
                            "type": "note", 
                            "channel": 9
                        }
                    ]
                ], 
                [
                    46800, 
                    [
                        {
                            "pitch": 51, 
                            "t0": 46800, 
                            "v": 99, 
                            "dur": 40, 
                            "type": "note", 
                            "channel": 9
                        }
                    ]
                ], 
                [
                    46920, 
                    [
                        {
                            "pitch": 51, 
                            "t0": 46920, 
                            "v": 84, 
                            "dur": 44, 
                            "type": "note", 
                            "channel": 9
                        }
                    ]
                ], 
                [
                    47000, 
                    [
                        {
                            "pitch": 51, 
                            "t0": 47000, 
                            "v": 81, 
                            "dur": 15, 
                            "type": "note", 
                            "channel": 9
                        }
                    ]
                ], 
                [
                    47040, 
                    [
                        {
                            "pitch": 51, 
                            "t0": 47040, 
                            "v": 95, 
                            "dur": 43, 
                            "type": "note", 
                            "channel": 9
                        }
                    ]
                ], 
                [
                    47160, 
                    [
                        {
                            "pitch": 51, 
                            "t0": 47160, 
                            "v": 91, 
                            "dur": 39, 
                            "type": "note", 
                            "channel": 9
                        }
                    ]
                ], 
                [
                    47240, 
                    [
                        {
                            "pitch": 51, 
                            "t0": 47240, 
                            "v": 87, 
                            "dur": 18, 
                            "type": "note", 
                            "channel": 9
                        }
                    ]
                ], 
                [
                    47280, 
                    [
                        {
                            "pitch": 51, 
                            "t0": 47280, 
                            "v": 99, 
                            "dur": 39, 
                            "type": "note", 
                            "channel": 9
                        }
                    ]
                ], 
                [
                    47400, 
                    [
                        {
                            "pitch": 51, 
                            "t0": 47400, 
                            "v": 91, 
                            "dur": 44, 
                            "type": "note", 
                            "channel": 9
                        }
                    ]
                ], 
                [
                    47480, 
                    [
                        {
                            "pitch": 51, 
                            "t0": 47480, 
                            "v": 81, 
                            "dur": 17, 
                            "type": "note", 
                            "channel": 9
                        }
                    ]
                ], 
                [
                    47520, 
                    [
                        {
                            "pitch": 51, 
                            "t0": 47520, 
                            "v": 97, 
                            "dur": 43, 
                            "type": "note", 
                            "channel": 9
                        }
                    ]
                ], 
                [
                    47640, 
                    [
                        {
                            "pitch": 51, 
                            "t0": 47640, 
                            "v": 91, 
                            "dur": 25, 
                            "type": "note", 
                            "channel": 9
                        }
                    ]
                ], 
                [
                    47720, 
                    [
                        {
                            "pitch": 51, 
                            "t0": 47720, 
                            "v": 85, 
                            "dur": 16, 
                            "type": "note", 
                            "channel": 9
                        }
                    ]
                ], 
                [
                    47760, 
                    [
                        {
                            "pitch": 51, 
                            "t0": 47760, 
                            "v": 95, 
                            "dur": 41, 
                            "type": "note", 
                            "channel": 9
                        }
                    ]
                ], 
                [
                    47880, 
                    [
                        {
                            "pitch": 51, 
                            "t0": 47880, 
                            "v": 87, 
                            "dur": 32, 
                            "type": "note", 
                            "channel": 9
                        }
                    ]
                ], 
                [
                    47960, 
                    [
                        {
                            "pitch": 51, 
                            "t0": 47960, 
                            "v": 66, 
                            "dur": 15, 
                            "type": "note", 
                            "channel": 9
                        }
                    ]
                ], 
                [
                    48000, 
                    [
                        {
                            "pitch": 51, 
                            "t0": 48000, 
                            "v": 87, 
                            "dur": 41, 
                            "type": "note", 
                            "channel": 9
                        }
                    ]
                ], 
                [
                    48120, 
                    [
                        {
                            "pitch": 51, 
                            "t0": 48120, 
                            "v": 89, 
                            "dur": 29, 
                            "type": "note", 
                            "channel": 9
                        }
                    ]
                ], 
                [
                    48200, 
                    [
                        {
                            "pitch": 51, 
                            "t0": 48200, 
                            "v": 65, 
                            "dur": 16, 
                            "type": "note", 
                            "channel": 9
                        }
                    ]
                ], 
                [
                    48240, 
                    [
                        {
                            "pitch": 51, 
                            "t0": 48240, 
                            "v": 89, 
                            "dur": 28, 
                            "type": "note", 
                            "channel": 9
                        }
                    ]
                ], 
                [
                    48360, 
                    [
                        {
                            "pitch": 51, 
                            "t0": 48360, 
                            "v": 85, 
                            "dur": 33, 
                            "type": "note", 
                            "channel": 9
                        }
                    ]
                ], 
                [
                    48440, 
                    [
                        {
                            "pitch": 51, 
                            "t0": 48440, 
                            "v": 67, 
                            "dur": 10, 
                            "type": "note", 
                            "channel": 9
                        }
                    ]
                ], 
                [
                    48600, 
                    [
                        {
                            "pitch": 51, 
                            "t0": 48600, 
                            "v": 85, 
                            "dur": 27, 
                            "type": "note", 
                            "channel": 9
                        }
                    ]
                ], 
                [
                    48680, 
                    [
                        {
                            "pitch": 51, 
                            "t0": 48680, 
                            "v": 72, 
                            "dur": 16, 
                            "type": "note", 
                            "channel": 9
                        }
                    ]
                ], 
                [
                    48720, 
                    [
                        {
                            "pitch": 51, 
                            "t0": 48720, 
                            "v": 97, 
                            "dur": 39, 
                            "type": "note", 
                            "channel": 9
                        }
                    ]
                ], 
                [
                    48840, 
                    [
                        {
                            "pitch": 51, 
                            "t0": 48840, 
                            "v": 82, 
                            "dur": 28, 
                            "type": "note", 
                            "channel": 9
                        }
                    ]
                ], 
                [
                    48920, 
                    [
                        {
                            "pitch": 51, 
                            "t0": 48920, 
                            "v": 78, 
                            "dur": 15, 
                            "type": "note", 
                            "channel": 9
                        }
                    ]
                ], 
                [
                    48960, 
                    [
                        {
                            "pitch": 51, 
                            "t0": 48960, 
                            "v": 95, 
                            "dur": 45, 
                            "type": "note", 
                            "channel": 9
                        }
                    ]
                ], 
                [
                    49080, 
                    [
                        {
                            "pitch": 51, 
                            "t0": 49080, 
                            "v": 89, 
                            "dur": 38, 
                            "type": "note", 
                            "channel": 9
                        }
                    ]
                ], 
                [
                    49160, 
                    [
                        {
                            "pitch": 51, 
                            "t0": 49160, 
                            "v": 73, 
                            "dur": 17, 
                            "type": "note", 
                            "channel": 9
                        }
                    ]
                ], 
                [
                    49200, 
                    [
                        {
                            "pitch": 51, 
                            "t0": 49200, 
                            "v": 93, 
                            "dur": 30, 
                            "type": "note", 
                            "channel": 9
                        }
                    ]
                ], 
                [
                    49320, 
                    [
                        {
                            "pitch": 51, 
                            "t0": 49320, 
                            "v": 84, 
                            "dur": 21, 
                            "type": "note", 
                            "channel": 9
                        }
                    ]
                ], 
                [
                    49400, 
                    [
                        {
                            "pitch": 51, 
                            "t0": 49400, 
                            "v": 64, 
                            "dur": 13, 
                            "type": "note", 
                            "channel": 9
                        }
                    ]
                ], 
                [
                    49560, 
                    [
                        {
                            "pitch": 53, 
                            "t0": 49560, 
                            "v": 85, 
                            "dur": 20, 
                            "type": "note", 
                            "channel": 9
                        }
                    ]
                ], 
                [
                    49680, 
                    [
                        {
                            "pitch": 53, 
                            "t0": 49680, 
                            "v": 91, 
                            "dur": 23, 
                            "type": "note", 
                            "channel": 9
                        }
                    ]
                ], 
                [
                    49800, 
                    [
                        {
                            "pitch": 53, 
                            "t0": 49800, 
                            "v": 80, 
                            "dur": 24, 
                            "type": "note", 
                            "channel": 9
                        }
                    ]
                ], 
                [
                    49920, 
                    [
                        {
                            "pitch": 53, 
                            "t0": 49920, 
                            "v": 94, 
                            "dur": 25, 
                            "type": "note", 
                            "channel": 9
                        }
                    ]
                ], 
                [
                    50040, 
                    [
                        {
                            "pitch": 52, 
                            "t0": 50040, 
                            "v": 66, 
                            "dur": 11, 
                            "type": "note", 
                            "channel": 9
                        }, 
                        {
                            "pitch": 53, 
                            "t0": 50040, 
                            "v": 62, 
                            "dur": 20, 
                            "type": "note", 
                            "channel": 9
                        }
                    ]
                ], 
                [
                    50160, 
                    [
                        {
                            "pitch": 53, 
                            "t0": 50160, 
                            "v": 90, 
                            "dur": 20, 
                            "type": "note", 
                            "channel": 9
                        }
                    ]
                ], 
                [
                    50520, 
                    [
                        {
                            "pitch": 51, 
                            "t0": 50520, 
                            "v": 79, 
                            "dur": 31, 
                            "type": "note", 
                            "channel": 9
                        }
                    ]
                ], 
                [
                    50600, 
                    [
                        {
                            "pitch": 51, 
                            "t0": 50600, 
                            "v": 82, 
                            "dur": 16, 
                            "type": "note", 
                            "channel": 9
                        }
                    ]
                ], 
                [
                    50640, 
                    [
                        {
                            "pitch": 51, 
                            "t0": 50640, 
                            "v": 104, 
                            "dur": 44, 
                            "type": "note", 
                            "channel": 9
                        }
                    ]
                ], 
                [
                    50760, 
                    [
                        {
                            "pitch": 51, 
                            "t0": 50760, 
                            "v": 91, 
                            "dur": 25, 
                            "type": "note", 
                            "channel": 9
                        }
                    ]
                ], 
                [
                    50840, 
                    [
                        {
                            "pitch": 51, 
                            "t0": 50840, 
                            "v": 84, 
                            "dur": 19, 
                            "type": "note", 
                            "channel": 9
                        }
                    ]
                ], 
                [
                    50880, 
                    [
                        {
                            "pitch": 51, 
                            "t0": 50880, 
                            "v": 97, 
                            "dur": 40, 
                            "type": "note", 
                            "channel": 9
                        }
                    ]
                ], 
                [
                    51000, 
                    [
                        {
                            "pitch": 51, 
                            "t0": 51000, 
                            "v": 93, 
                            "dur": 24, 
                            "type": "note", 
                            "channel": 9
                        }
                    ]
                ], 
                [
                    51080, 
                    [
                        {
                            "pitch": 51, 
                            "t0": 51080, 
                            "v": 71, 
                            "dur": 17, 
                            "type": "note", 
                            "channel": 9
                        }
                    ]
                ], 
                [
                    51120, 
                    [
                        {
                            "pitch": 51, 
                            "t0": 51120, 
                            "v": 93, 
                            "dur": 31, 
                            "type": "note", 
                            "channel": 9
                        }
                    ]
                ], 
                [
                    51240, 
                    [
                        {
                            "pitch": 51, 
                            "t0": 51240, 
                            "v": 79, 
                            "dur": 37, 
                            "type": "note", 
                            "channel": 9
                        }
                    ]
                ], 
                [
                    51320, 
                    [
                        {
                            "pitch": 51, 
                            "t0": 51320, 
                            "v": 66, 
                            "dur": 16, 
                            "type": "note", 
                            "channel": 9
                        }
                    ]
                ], 
                [
                    51360, 
                    [
                        {
                            "pitch": 51, 
                            "t0": 51360, 
                            "v": 95, 
                            "dur": 42, 
                            "type": "note", 
                            "channel": 9
                        }
                    ]
                ], 
                [
                    51480, 
                    [
                        {
                            "pitch": 51, 
                            "t0": 51480, 
                            "v": 87, 
                            "dur": 26, 
                            "type": "note", 
                            "channel": 9
                        }
                    ]
                ], 
                [
                    51560, 
                    [
                        {
                            "pitch": 51, 
                            "t0": 51560, 
                            "v": 81, 
                            "dur": 17, 
                            "type": "note", 
                            "channel": 9
                        }
                    ]
                ], 
                [
                    51600, 
                    [
                        {
                            "pitch": 51, 
                            "t0": 51600, 
                            "v": 101, 
                            "dur": 43, 
                            "type": "note", 
                            "channel": 9
                        }
                    ]
                ], 
                [
                    51720, 
                    [
                        {
                            "pitch": 51, 
                            "t0": 51720, 
                            "v": 91, 
                            "dur": 32, 
                            "type": "note", 
                            "channel": 9
                        }
                    ]
                ], 
                [
                    51800, 
                    [
                        {
                            "pitch": 51, 
                            "t0": 51800, 
                            "v": 78, 
                            "dur": 12, 
                            "type": "note", 
                            "channel": 9
                        }
                    ]
                ], 
                [
                    51840, 
                    [
                        {
                            "pitch": 51, 
                            "t0": 51840, 
                            "v": 87, 
                            "dur": 52, 
                            "type": "note", 
                            "channel": 9
                        }
                    ]
                ], 
                [
                    51960, 
                    [
                        {
                            "pitch": 51, 
                            "t0": 51960, 
                            "v": 97, 
                            "dur": 25, 
                            "type": "note", 
                            "channel": 9
                        }
                    ]
                ], 
                [
                    52040, 
                    [
                        {
                            "pitch": 51, 
                            "t0": 52040, 
                            "v": 81, 
                            "dur": 17, 
                            "type": "note", 
                            "channel": 9
                        }
                    ]
                ], 
                [
                    52080, 
                    [
                        {
                            "pitch": 51, 
                            "t0": 52080, 
                            "v": 95, 
                            "dur": 36, 
                            "type": "note", 
                            "channel": 9
                        }
                    ]
                ], 
                [
                    52160, 
                    [
                        {
                            "pitch": 51, 
                            "t0": 52160, 
                            "v": 93, 
                            "dur": 16, 
                            "type": "note", 
                            "channel": 9
                        }
                    ]
                ], 
                [
                    52200, 
                    [
                        {
                            "pitch": 51, 
                            "t0": 52200, 
                            "v": 104, 
                            "dur": 35, 
                            "type": "note", 
                            "channel": 9
                        }
                    ]
                ], 
                [
                    52440, 
                    [
                        {
                            "pitch": 51, 
                            "t0": 52440, 
                            "v": 89, 
                            "dur": 37, 
                            "type": "note", 
                            "channel": 9
                        }
                    ]
                ], 
                [
                    52520, 
                    [
                        {
                            "pitch": 51, 
                            "t0": 52520, 
                            "v": 67, 
                            "dur": 15, 
                            "type": "note", 
                            "channel": 9
                        }
                    ]
                ], 
                [
                    52560, 
                    [
                        {
                            "pitch": 51, 
                            "t0": 52560, 
                            "v": 91, 
                            "dur": 37, 
                            "type": "note", 
                            "channel": 9
                        }
                    ]
                ], 
                [
                    52640, 
                    [
                        {
                            "pitch": 51, 
                            "t0": 52640, 
                            "v": 81, 
                            "dur": 17, 
                            "type": "note", 
                            "channel": 9
                        }
                    ]
                ], 
                [
                    52680, 
                    [
                        {
                            "pitch": 51, 
                            "t0": 52680, 
                            "v": 93, 
                            "dur": 29, 
                            "type": "note", 
                            "channel": 9
                        }
                    ]
                ], 
                [
                    52760, 
                    [
                        {
                            "pitch": 51, 
                            "t0": 52760, 
                            "v": 67, 
                            "dur": 14, 
                            "type": "note", 
                            "channel": 9
                        }
                    ]
                ], 
                [
                    52800, 
                    [
                        {
                            "pitch": 51, 
                            "t0": 52800, 
                            "v": 89, 
                            "dur": 26, 
                            "type": "note", 
                            "channel": 9
                        }
                    ]
                ], 
                [
                    52920, 
                    [
                        {
                            "pitch": 51, 
                            "t0": 52920, 
                            "v": 67, 
                            "dur": 28, 
                            "type": "note", 
                            "channel": 9
                        }
                    ]
                ], 
                [
                    53040, 
                    [
                        {
                            "pitch": 51, 
                            "t0": 53040, 
                            "v": 71, 
                            "dur": 32, 
                            "type": "note", 
                            "channel": 9
                        }
                    ]
                ], 
                [
                    53120, 
                    [
                        {
                            "pitch": 51, 
                            "t0": 53120, 
                            "v": 65, 
                            "dur": 12, 
                            "type": "note", 
                            "channel": 9
                        }
                    ]
                ], 
                [
                    53160, 
                    [
                        {
                            "pitch": 51, 
                            "t0": 53160, 
                            "v": 85, 
                            "dur": 25, 
                            "type": "note", 
                            "channel": 9
                        }
                    ]
                ], 
                [
                    54360, 
                    [
                        {
                            "pitch": 42, 
                            "t0": 54360, 
                            "v": 95, 
                            "dur": 40, 
                            "type": "note", 
                            "channel": 9
                        }
                    ]
                ], 
                [
                    54440, 
                    [
                        {
                            "pitch": 42, 
                            "t0": 54440, 
                            "v": 78, 
                            "dur": 19, 
                            "type": "note", 
                            "channel": 9
                        }
                    ]
                ], 
                [
                    54480, 
                    [
                        {
                            "pitch": 42, 
                            "t0": 54480, 
                            "v": 97, 
                            "dur": 50, 
                            "type": "note", 
                            "channel": 9
                        }
                    ]
                ], 
                [
                    54560, 
                    [
                        {
                            "pitch": 42, 
                            "t0": 54560, 
                            "v": 72, 
                            "dur": 18, 
                            "type": "note", 
                            "channel": 9
                        }
                    ]
                ], 
                [
                    54600, 
                    [
                        {
                            "pitch": 42, 
                            "t0": 54600, 
                            "v": 97, 
                            "dur": 52, 
                            "type": "note", 
                            "channel": 9
                        }
                    ]
                ], 
                [
                    54680, 
                    [
                        {
                            "pitch": 42, 
                            "t0": 54680, 
                            "v": 91, 
                            "dur": 21, 
                            "type": "note", 
                            "channel": 9
                        }
                    ]
                ], 
                [
                    54720, 
                    [
                        {
                            "pitch": 42, 
                            "t0": 54720, 
                            "v": 97, 
                            "dur": 54, 
                            "type": "note", 
                            "channel": 9
                        }
                    ]
                ], 
                [
                    54800, 
                    [
                        {
                            "pitch": 42, 
                            "t0": 54800, 
                            "v": 87, 
                            "dur": 18, 
                            "type": "note", 
                            "channel": 9
                        }
                    ]
                ], 
                [
                    54840, 
                    [
                        {
                            "pitch": 42, 
                            "t0": 54840, 
                            "v": 99, 
                            "dur": 49, 
                            "type": "note", 
                            "channel": 9
                        }
                    ]
                ], 
                [
                    54920, 
                    [
                        {
                            "pitch": 42, 
                            "t0": 54920, 
                            "v": 93, 
                            "dur": 22, 
                            "type": "note", 
                            "channel": 9
                        }
                    ]
                ], 
                [
                    54960, 
                    [
                        {
                            "pitch": 42, 
                            "t0": 54960, 
                            "v": 101, 
                            "dur": 45, 
                            "type": "note", 
                            "channel": 9
                        }
                    ]
                ], 
                [
                    55040, 
                    [
                        {
                            "pitch": 42, 
                            "t0": 55040, 
                            "v": 87, 
                            "dur": 21, 
                            "type": "note", 
                            "channel": 9
                        }
                    ]
                ], 
                [
                    55080, 
                    [
                        {
                            "pitch": 42, 
                            "t0": 55080, 
                            "v": 104, 
                            "dur": 49, 
                            "type": "note", 
                            "channel": 9
                        }
                    ]
                ], 
                [
                    55160, 
                    [
                        {
                            "pitch": 46, 
                            "t0": 55160, 
                            "v": 79, 
                            "dur": 28, 
                            "type": "note", 
                            "channel": 9
                        }
                    ]
                ], 
                [
                    55200, 
                    [
                        {
                            "pitch": 42, 
                            "t0": 55200, 
                            "v": 104, 
                            "dur": 47, 
                            "type": "note", 
                            "channel": 9
                        }
                    ]
                ], 
                [
                    55280, 
                    [
                        {
                            "pitch": 42, 
                            "t0": 55280, 
                            "v": 79, 
                            "dur": 18, 
                            "type": "note", 
                            "channel": 9
                        }
                    ]
                ], 
                [
                    55320, 
                    [
                        {
                            "pitch": 42, 
                            "t0": 55320, 
                            "v": 99, 
                            "dur": 45, 
                            "type": "note", 
                            "channel": 9
                        }
                    ]
                ], 
                [
                    55400, 
                    [
                        {
                            "pitch": 42, 
                            "t0": 55400, 
                            "v": 85, 
                            "dur": 22, 
                            "type": "note", 
                            "channel": 9
                        }
                    ]
                ], 
                [
                    55440, 
                    [
                        {
                            "pitch": 42, 
                            "t0": 55440, 
                            "v": 91, 
                            "dur": 51, 
                            "type": "note", 
                            "channel": 9
                        }
                    ]
                ], 
                [
                    55520, 
                    [
                        {
                            "pitch": 42, 
                            "t0": 55520, 
                            "v": 97, 
                            "dur": 21, 
                            "type": "note", 
                            "channel": 9
                        }
                    ]
                ], 
                [
                    55560, 
                    [
                        {
                            "pitch": 42, 
                            "t0": 55560, 
                            "v": 95, 
                            "dur": 44, 
                            "type": "note", 
                            "channel": 9
                        }
                    ]
                ], 
                [
                    55640, 
                    [
                        {
                            "pitch": 42, 
                            "t0": 55640, 
                            "v": 91, 
                            "dur": 21, 
                            "type": "note", 
                            "channel": 9
                        }
                    ]
                ], 
                [
                    55680, 
                    [
                        {
                            "pitch": 42, 
                            "t0": 55680, 
                            "v": 95, 
                            "dur": 47, 
                            "type": "note", 
                            "channel": 9
                        }
                    ]
                ], 
                [
                    55760, 
                    [
                        {
                            "pitch": 42, 
                            "t0": 55760, 
                            "v": 73, 
                            "dur": 19, 
                            "type": "note", 
                            "channel": 9
                        }
                    ]
                ], 
                [
                    55800, 
                    [
                        {
                            "pitch": 42, 
                            "t0": 55800, 
                            "v": 99, 
                            "dur": 47, 
                            "type": "note", 
                            "channel": 9
                        }
                    ]
                ], 
                [
                    55880, 
                    [
                        {
                            "pitch": 42, 
                            "t0": 55880, 
                            "v": 95, 
                            "dur": 22, 
                            "type": "note", 
                            "channel": 9
                        }
                    ]
                ], 
                [
                    55920, 
                    [
                        {
                            "pitch": 42, 
                            "t0": 55920, 
                            "v": 97, 
                            "dur": 50, 
                            "type": "note", 
                            "channel": 9
                        }
                    ]
                ], 
                [
                    56000, 
                    [
                        {
                            "pitch": 42, 
                            "t0": 56000, 
                            "v": 84, 
                            "dur": 18, 
                            "type": "note", 
                            "channel": 9
                        }
                    ]
                ], 
                [
                    56040, 
                    [
                        {
                            "pitch": 42, 
                            "t0": 56040, 
                            "v": 99, 
                            "dur": 48, 
                            "type": "note", 
                            "channel": 9
                        }
                    ]
                ], 
                [
                    56120, 
                    [
                        {
                            "pitch": 42, 
                            "t0": 56120, 
                            "v": 97, 
                            "dur": 20, 
                            "type": "note", 
                            "channel": 9
                        }
                    ]
                ], 
                [
                    56240, 
                    [
                        {
                            "pitch": 42, 
                            "t0": 56240, 
                            "v": 95, 
                            "dur": 19, 
                            "type": "note", 
                            "channel": 9
                        }
                    ]
                ], 
                [
                    56280, 
                    [
                        {
                            "pitch": 42, 
                            "t0": 56280, 
                            "v": 110, 
                            "dur": 40, 
                            "type": "note", 
                            "channel": 9
                        }
                    ]
                ], 
                [
                    56360, 
                    [
                        {
                            "pitch": 42, 
                            "t0": 56360, 
                            "v": 101, 
                            "dur": 18, 
                            "type": "note", 
                            "channel": 9
                        }
                    ]
                ], 
                [
                    56400, 
                    [
                        {
                            "pitch": 42, 
                            "t0": 56400, 
                            "v": 101, 
                            "dur": 41, 
                            "type": "note", 
                            "channel": 9
                        }
                    ]
                ], 
                [
                    56480, 
                    [
                        {
                            "pitch": 42, 
                            "t0": 56480, 
                            "v": 93, 
                            "dur": 18, 
                            "type": "note", 
                            "channel": 9
                        }
                    ]
                ], 
                [
                    56520, 
                    [
                        {
                            "pitch": 42, 
                            "t0": 56520, 
                            "v": 99, 
                            "dur": 42, 
                            "type": "note", 
                            "channel": 9
                        }
                    ]
                ], 
                [
                    56600, 
                    [
                        {
                            "pitch": 42, 
                            "t0": 56600, 
                            "v": 97, 
                            "dur": 20, 
                            "type": "note", 
                            "channel": 9
                        }
                    ]
                ], 
                [
                    56640, 
                    [
                        {
                            "pitch": 42, 
                            "t0": 56640, 
                            "v": 104, 
                            "dur": 38, 
                            "type": "note", 
                            "channel": 9
                        }
                    ]
                ], 
                [
                    56720, 
                    [
                        {
                            "pitch": 42, 
                            "t0": 56720, 
                            "v": 97, 
                            "dur": 21, 
                            "type": "note", 
                            "channel": 9
                        }
                    ]
                ], 
                [
                    56760, 
                    [
                        {
                            "pitch": 42, 
                            "t0": 56760, 
                            "v": 99, 
                            "dur": 40, 
                            "type": "note", 
                            "channel": 9
                        }
                    ]
                ], 
                [
                    56840, 
                    [
                        {
                            "pitch": 42, 
                            "t0": 56840, 
                            "v": 101, 
                            "dur": 21, 
                            "type": "note", 
                            "channel": 9
                        }
                    ]
                ], 
                [
                    56880, 
                    [
                        {
                            "pitch": 42, 
                            "t0": 56880, 
                            "v": 101, 
                            "dur": 44, 
                            "type": "note", 
                            "channel": 9
                        }
                    ]
                ], 
                [
                    56960, 
                    [
                        {
                            "pitch": 42, 
                            "t0": 56960, 
                            "v": 95, 
                            "dur": 18, 
                            "type": "note", 
                            "channel": 9
                        }
                    ]
                ], 
                [
                    57000, 
                    [
                        {
                            "pitch": 42, 
                            "t0": 57000, 
                            "v": 110, 
                            "dur": 38, 
                            "type": "note", 
                            "channel": 9
                        }
                    ]
                ], 
                [
                    57080, 
                    [
                        {
                            "pitch": 42, 
                            "t0": 57080, 
                            "v": 101, 
                            "dur": 18, 
                            "type": "note", 
                            "channel": 9
                        }
                    ]
                ], 
                [
                    57200, 
                    [
                        {
                            "pitch": 42, 
                            "t0": 57200, 
                            "v": 97, 
                            "dur": 19, 
                            "type": "note", 
                            "channel": 9
                        }
                    ]
                ], 
                [
                    57240, 
                    [
                        {
                            "pitch": 42, 
                            "t0": 57240, 
                            "v": 101, 
                            "dur": 43, 
                            "type": "note", 
                            "channel": 9
                        }
                    ]
                ], 
                [
                    57320, 
                    [
                        {
                            "pitch": 42, 
                            "t0": 57320, 
                            "v": 93, 
                            "dur": 17, 
                            "type": "note", 
                            "channel": 9
                        }
                    ]
                ], 
                [
                    57360, 
                    [
                        {
                            "pitch": 42, 
                            "t0": 57360, 
                            "v": 107, 
                            "dur": 41, 
                            "type": "note", 
                            "channel": 9
                        }
                    ]
                ], 
                [
                    57440, 
                    [
                        {
                            "pitch": 42, 
                            "t0": 57440, 
                            "v": 65, 
                            "dur": 12, 
                            "type": "note", 
                            "channel": 9
                        }
                    ]
                ], 
                [
                    58200, 
                    [
                        {
                            "pitch": 42, 
                            "t0": 58200, 
                            "v": 91, 
                            "dur": 29, 
                            "type": "note", 
                            "channel": 9
                        }
                    ]
                ], 
                [
                    58280, 
                    [
                        {
                            "pitch": 42, 
                            "t0": 58280, 
                            "v": 93, 
                            "dur": 22, 
                            "type": "note", 
                            "channel": 9
                        }
                    ]
                ], 
                [
                    58320, 
                    [
                        {
                            "pitch": 42, 
                            "t0": 58320, 
                            "v": 101, 
                            "dur": 49, 
                            "type": "note", 
                            "channel": 9
                        }
                    ]
                ], 
                [
                    58400, 
                    [
                        {
                            "pitch": 42, 
                            "t0": 58400, 
                            "v": 91, 
                            "dur": 19, 
                            "type": "note", 
                            "channel": 9
                        }
                    ]
                ], 
                [
                    58440, 
                    [
                        {
                            "pitch": 42, 
                            "t0": 58440, 
                            "v": 89, 
                            "dur": 47, 
                            "type": "note", 
                            "channel": 9
                        }
                    ]
                ], 
                [
                    58520, 
                    [
                        {
                            "pitch": 42, 
                            "t0": 58520, 
                            "v": 79, 
                            "dur": 17, 
                            "type": "note", 
                            "channel": 9
                        }
                    ]
                ], 
                [
                    58560, 
                    [
                        {
                            "pitch": 42, 
                            "t0": 58560, 
                            "v": 95, 
                            "dur": 46, 
                            "type": "note", 
                            "channel": 9
                        }
                    ]
                ], 
                [
                    58640, 
                    [
                        {
                            "pitch": 42, 
                            "t0": 58640, 
                            "v": 79, 
                            "dur": 20, 
                            "type": "note", 
                            "channel": 9
                        }
                    ]
                ], 
                [
                    58680, 
                    [
                        {
                            "pitch": 42, 
                            "t0": 58680, 
                            "v": 99, 
                            "dur": 46, 
                            "type": "note", 
                            "channel": 9
                        }
                    ]
                ], 
                [
                    58760, 
                    [
                        {
                            "pitch": 42, 
                            "t0": 58760, 
                            "v": 82, 
                            "dur": 21, 
                            "type": "note", 
                            "channel": 9
                        }
                    ]
                ], 
                [
                    58800, 
                    [
                        {
                            "pitch": 42, 
                            "t0": 58800, 
                            "v": 97, 
                            "dur": 47, 
                            "type": "note", 
                            "channel": 9
                        }
                    ]
                ], 
                [
                    58880, 
                    [
                        {
                            "pitch": 42, 
                            "t0": 58880, 
                            "v": 82, 
                            "dur": 20, 
                            "type": "note", 
                            "channel": 9
                        }
                    ]
                ], 
                [
                    58920, 
                    [
                        {
                            "pitch": 42, 
                            "t0": 58920, 
                            "v": 97, 
                            "dur": 47, 
                            "type": "note", 
                            "channel": 9
                        }
                    ]
                ], 
                [
                    59000, 
                    [
                        {
                            "pitch": 42, 
                            "t0": 59000, 
                            "v": 81, 
                            "dur": 20, 
                            "type": "note", 
                            "channel": 9
                        }
                    ]
                ], 
                [
                    59040, 
                    [
                        {
                            "pitch": 42, 
                            "t0": 59040, 
                            "v": 97, 
                            "dur": 47, 
                            "type": "note", 
                            "channel": 9
                        }
                    ]
                ], 
                [
                    59120, 
                    [
                        {
                            "pitch": 42, 
                            "t0": 59120, 
                            "v": 79, 
                            "dur": 18, 
                            "type": "note", 
                            "channel": 9
                        }
                    ]
                ], 
                [
                    59160, 
                    [
                        {
                            "pitch": 42, 
                            "t0": 59160, 
                            "v": 97, 
                            "dur": 43, 
                            "type": "note", 
                            "channel": 9
                        }
                    ]
                ], 
                [
                    59240, 
                    [
                        {
                            "pitch": 42, 
                            "t0": 59240, 
                            "v": 82, 
                            "dur": 17, 
                            "type": "note", 
                            "channel": 9
                        }
                    ]
                ], 
                [
                    59280, 
                    [
                        {
                            "pitch": 42, 
                            "t0": 59280, 
                            "v": 82, 
                            "dur": 36, 
                            "type": "note", 
                            "channel": 9
                        }
                    ]
                ], 
                [
                    59360, 
                    [
                        {
                            "pitch": 42, 
                            "t0": 59360, 
                            "v": 84, 
                            "dur": 17, 
                            "type": "note", 
                            "channel": 9
                        }
                    ]
                ], 
                [
                    59400, 
                    [
                        {
                            "pitch": 42, 
                            "t0": 59400, 
                            "v": 97, 
                            "dur": 32, 
                            "type": "note", 
                            "channel": 9
                        }
                    ]
                ], 
                [
                    59480, 
                    [
                        {
                            "pitch": 42, 
                            "t0": 59480, 
                            "v": 93, 
                            "dur": 13, 
                            "type": "note", 
                            "channel": 9
                        }
                    ]
                ], 
                [
                    59600, 
                    [
                        {
                            "pitch": 42, 
                            "t0": 59600, 
                            "v": 95, 
                            "dur": 19, 
                            "type": "note", 
                            "channel": 9
                        }
                    ]
                ], 
                [
                    59640, 
                    [
                        {
                            "pitch": 42, 
                            "t0": 59640, 
                            "v": 101, 
                            "dur": 38, 
                            "type": "note", 
                            "channel": 9
                        }
                    ]
                ], 
                [
                    59720, 
                    [
                        {
                            "pitch": 42, 
                            "t0": 59720, 
                            "v": 89, 
                            "dur": 17, 
                            "type": "note", 
                            "channel": 9
                        }
                    ]
                ], 
                [
                    59760, 
                    [
                        {
                            "pitch": 42, 
                            "t0": 59760, 
                            "v": 97, 
                            "dur": 34, 
                            "type": "note", 
                            "channel": 9
                        }
                    ]
                ], 
                [
                    59840, 
                    [
                        {
                            "pitch": 42, 
                            "t0": 59840, 
                            "v": 84, 
                            "dur": 15, 
                            "type": "note", 
                            "channel": 9
                        }
                    ]
                ], 
                [
                    59880, 
                    [
                        {
                            "pitch": 42, 
                            "t0": 59880, 
                            "v": 101, 
                            "dur": 32, 
                            "type": "note", 
                            "channel": 9
                        }
                    ]
                ], 
                [
                    59960, 
                    [
                        {
                            "pitch": 42, 
                            "t0": 59960, 
                            "v": 95, 
                            "dur": 15, 
                            "type": "note", 
                            "channel": 9
                        }
                    ]
                ], 
                [
                    60080, 
                    [
                        {
                            "pitch": 42, 
                            "t0": 60080, 
                            "v": 87, 
                            "dur": 17, 
                            "type": "note", 
                            "channel": 9
                        }
                    ]
                ], 
                [
                    60120, 
                    [
                        {
                            "pitch": 42, 
                            "t0": 60120, 
                            "v": 97, 
                            "dur": 33, 
                            "type": "note", 
                            "channel": 9
                        }
                    ]
                ], 
                [
                    60200, 
                    [
                        {
                            "pitch": 42, 
                            "t0": 60200, 
                            "v": 87, 
                            "dur": 15, 
                            "type": "note", 
                            "channel": 9
                        }
                    ]
                ], 
                [
                    60240, 
                    [
                        {
                            "pitch": 42, 
                            "t0": 60240, 
                            "v": 101, 
                            "dur": 33, 
                            "type": "note", 
                            "channel": 9
                        }
                    ]
                ], 
                [
                    60320, 
                    [
                        {
                            "pitch": 42, 
                            "t0": 60320, 
                            "v": 93, 
                            "dur": 16, 
                            "type": "note", 
                            "channel": 9
                        }
                    ]
                ], 
                [
                    60360, 
                    [
                        {
                            "pitch": 42, 
                            "t0": 60360, 
                            "v": 101, 
                            "dur": 34, 
                            "type": "note", 
                            "channel": 9
                        }
                    ]
                ], 
                [
                    60440, 
                    [
                        {
                            "pitch": 42, 
                            "t0": 60440, 
                            "v": 89, 
                            "dur": 17, 
                            "type": "note", 
                            "channel": 9
                        }
                    ]
                ], 
                [
                    60560, 
                    [
                        {
                            "pitch": 42, 
                            "t0": 60560, 
                            "v": 97, 
                            "dur": 20, 
                            "type": "note", 
                            "channel": 9
                        }
                    ]
                ], 
                [
                    60600, 
                    [
                        {
                            "pitch": 42, 
                            "t0": 60600, 
                            "v": 101, 
                            "dur": 37, 
                            "type": "note", 
                            "channel": 9
                        }
                    ]
                ], 
                [
                    60680, 
                    [
                        {
                            "pitch": 42, 
                            "t0": 60680, 
                            "v": 91, 
                            "dur": 18, 
                            "type": "note", 
                            "channel": 9
                        }
                    ]
                ], 
                [
                    60720, 
                    [
                        {
                            "pitch": 42, 
                            "t0": 60720, 
                            "v": 95, 
                            "dur": 30, 
                            "type": "note", 
                            "channel": 9
                        }
                    ]
                ], 
                [
                    60800, 
                    [
                        {
                            "pitch": 42, 
                            "t0": 60800, 
                            "v": 84, 
                            "dur": 15, 
                            "type": "note", 
                            "channel": 9
                        }
                    ]
                ], 
                [
                    60840, 
                    [
                        {
                            "pitch": 42, 
                            "t0": 60840, 
                            "v": 107, 
                            "dur": 34, 
                            "type": "note", 
                            "channel": 9
                        }
                    ]
                ], 
                [
                    60920, 
                    [
                        {
                            "pitch": 42, 
                            "t0": 60920, 
                            "v": 97, 
                            "dur": 17, 
                            "type": "note", 
                            "channel": 9
                        }
                    ]
                ], 
                [
                    61040, 
                    [
                        {
                            "pitch": 42, 
                            "t0": 61040, 
                            "v": 75, 
                            "dur": 15, 
                            "type": "note", 
                            "channel": 9
                        }
                    ]
                ], 
                [
                    61080, 
                    [
                        {
                            "pitch": 42, 
                            "t0": 61080, 
                            "v": 97, 
                            "dur": 28, 
                            "type": "note", 
                            "channel": 9
                        }
                    ]
                ], 
                [
                    61160, 
                    [
                        {
                            "pitch": 42, 
                            "t0": 61160, 
                            "v": 79, 
                            "dur": 12, 
                            "type": "note", 
                            "channel": 9
                        }
                    ]
                ], 
                [
                    61200, 
                    [
                        {
                            "pitch": 42, 
                            "t0": 61200, 
                            "v": 89, 
                            "dur": 23, 
                            "type": "note", 
                            "channel": 9
                        }
                    ]
                ], 
                [
                    62040, 
                    [
                        {
                            "pitch": 51, 
                            "t0": 62040, 
                            "v": 58, 
                            "dur": 16, 
                            "type": "note", 
                            "channel": 9
                        }
                    ]
                ], 
                [
                    62120, 
                    [
                        {
                            "pitch": 51, 
                            "t0": 62120, 
                            "v": 66, 
                            "dur": 15, 
                            "type": "note", 
                            "channel": 9
                        }
                    ]
                ], 
                [
                    62160, 
                    [
                        {
                            "pitch": 51, 
                            "t0": 62160, 
                            "v": 84, 
                            "dur": 40, 
                            "type": "note", 
                            "channel": 9
                        }
                    ]
                ], 
                [
                    62280, 
                    [
                        {
                            "pitch": 51, 
                            "t0": 62280, 
                            "v": 85, 
                            "dur": 29, 
                            "type": "note", 
                            "channel": 9
                        }
                    ]
                ], 
                [
                    62360, 
                    [
                        {
                            "pitch": 51, 
                            "t0": 62360, 
                            "v": 62, 
                            "dur": 11, 
                            "type": "note", 
                            "channel": 9
                        }
                    ]
                ], 
                [
                    62400, 
                    [
                        {
                            "pitch": 51, 
                            "t0": 62400, 
                            "v": 78, 
                            "dur": 22, 
                            "type": "note", 
                            "channel": 9
                        }
                    ]
                ], 
                [
                    62520, 
                    [
                        {
                            "pitch": 51, 
                            "t0": 62520, 
                            "v": 77, 
                            "dur": 27, 
                            "type": "note", 
                            "channel": 9
                        }
                    ]
                ], 
                [
                    62600, 
                    [
                        {
                            "pitch": 51, 
                            "t0": 62600, 
                            "v": 70, 
                            "dur": 16, 
                            "type": "note", 
                            "channel": 9
                        }
                    ]
                ], 
                [
                    62640, 
                    [
                        {
                            "pitch": 51, 
                            "t0": 62640, 
                            "v": 84, 
                            "dur": 43, 
                            "type": "note", 
                            "channel": 9
                        }
                    ]
                ], 
                [
                    62760, 
                    [
                        {
                            "pitch": 51, 
                            "t0": 62760, 
                            "v": 81, 
                            "dur": 40, 
                            "type": "note", 
                            "channel": 9
                        }
                    ]
                ], 
                [
                    62840, 
                    [
                        {
                            "pitch": 51, 
                            "t0": 62840, 
                            "v": 58, 
                            "dur": 12, 
                            "type": "note", 
                            "channel": 9
                        }
                    ]
                ], 
                [
                    62880, 
                    [
                        {
                            "pitch": 51, 
                            "t0": 62880, 
                            "v": 81, 
                            "dur": 41, 
                            "type": "note", 
                            "channel": 9
                        }
                    ]
                ], 
                [
                    63000, 
                    [
                        {
                            "pitch": 51, 
                            "t0": 63000, 
                            "v": 85, 
                            "dur": 25, 
                            "type": "note", 
                            "channel": 9
                        }
                    ]
                ], 
                [
                    63080, 
                    [
                        {
                            "pitch": 51, 
                            "t0": 63080, 
                            "v": 73, 
                            "dur": 15, 
                            "type": "note", 
                            "channel": 9
                        }
                    ]
                ], 
                [
                    63120, 
                    [
                        {
                            "pitch": 51, 
                            "t0": 63120, 
                            "v": 87, 
                            "dur": 37, 
                            "type": "note", 
                            "channel": 9
                        }
                    ]
                ], 
                [
                    63240, 
                    [
                        {
                            "pitch": 51, 
                            "t0": 63240, 
                            "v": 85, 
                            "dur": 35, 
                            "type": "note", 
                            "channel": 9
                        }
                    ]
                ], 
                [
                    63320, 
                    [
                        {
                            "pitch": 51, 
                            "t0": 63320, 
                            "v": 60, 
                            "dur": 11, 
                            "type": "note", 
                            "channel": 9
                        }
                    ]
                ], 
                [
                    63360, 
                    [
                        {
                            "pitch": 51, 
                            "t0": 63360, 
                            "v": 91, 
                            "dur": 33, 
                            "type": "note", 
                            "channel": 9
                        }
                    ]
                ], 
                [
                    63480, 
                    [
                        {
                            "pitch": 51, 
                            "t0": 63480, 
                            "v": 91, 
                            "dur": 27, 
                            "type": "note", 
                            "channel": 9
                        }
                    ]
                ], 
                [
                    63560, 
                    [
                        {
                            "pitch": 51, 
                            "t0": 63560, 
                            "v": 77, 
                            "dur": 17, 
                            "type": "note", 
                            "channel": 9
                        }
                    ]
                ], 
                [
                    63600, 
                    [
                        {
                            "pitch": 51, 
                            "t0": 63600, 
                            "v": 95, 
                            "dur": 38, 
                            "type": "note", 
                            "channel": 9
                        }
                    ]
                ], 
                [
                    63720, 
                    [
                        {
                            "pitch": 51, 
                            "t0": 63720, 
                            "v": 91, 
                            "dur": 33, 
                            "type": "note", 
                            "channel": 9
                        }
                    ]
                ], 
                [
                    63800, 
                    [
                        {
                            "pitch": 51, 
                            "t0": 63800, 
                            "v": 85, 
                            "dur": 15, 
                            "type": "note", 
                            "channel": 9
                        }
                    ]
                ], 
                [
                    63960, 
                    [
                        {
                            "pitch": 51, 
                            "t0": 63960, 
                            "v": 87, 
                            "dur": 25, 
                            "type": "note", 
                            "channel": 9
                        }
                    ]
                ], 
                [
                    64040, 
                    [
                        {
                            "pitch": 51, 
                            "t0": 64040, 
                            "v": 79, 
                            "dur": 15, 
                            "type": "note", 
                            "channel": 9
                        }
                    ]
                ], 
                [
                    64080, 
                    [
                        {
                            "pitch": 51, 
                            "t0": 64080, 
                            "v": 84, 
                            "dur": 34, 
                            "type": "note", 
                            "channel": 9
                        }
                    ]
                ], 
                [
                    64200, 
                    [
                        {
                            "pitch": 51, 
                            "t0": 64200, 
                            "v": 89, 
                            "dur": 31, 
                            "type": "note", 
                            "channel": 9
                        }
                    ]
                ], 
                [
                    64280, 
                    [
                        {
                            "pitch": 51, 
                            "t0": 64280, 
                            "v": 73, 
                            "dur": 14, 
                            "type": "note", 
                            "channel": 9
                        }
                    ]
                ], 
                [
                    64320, 
                    [
                        {
                            "pitch": 51, 
                            "t0": 64320, 
                            "v": 97, 
                            "dur": 26, 
                            "type": "note", 
                            "channel": 9
                        }
                    ]
                ], 
                [
                    64440, 
                    [
                        {
                            "pitch": 51, 
                            "t0": 64440, 
                            "v": 87, 
                            "dur": 25, 
                            "type": "note", 
                            "channel": 9
                        }
                    ]
                ], 
                [
                    64520, 
                    [
                        {
                            "pitch": 51, 
                            "t0": 64520, 
                            "v": 79, 
                            "dur": 13, 
                            "type": "note", 
                            "channel": 9
                        }
                    ]
                ], 
                [
                    64560, 
                    [
                        {
                            "pitch": 51, 
                            "t0": 64560, 
                            "v": 91, 
                            "dur": 22, 
                            "type": "note", 
                            "channel": 9
                        }
                    ]
                ], 
                [
                    64680, 
                    [
                        {
                            "pitch": 51, 
                            "t0": 64680, 
                            "v": 93, 
                            "dur": 24, 
                            "type": "note", 
                            "channel": 9
                        }
                    ]
                ], 
                [
                    64760, 
                    [
                        {
                            "pitch": 51, 
                            "t0": 64760, 
                            "v": 75, 
                            "dur": 18, 
                            "type": "note", 
                            "channel": 9
                        }
                    ]
                ], 
                [
                    64920, 
                    [
                        {
                            "pitch": 51, 
                            "t0": 64920, 
                            "v": 87, 
                            "dur": 27, 
                            "type": "note", 
                            "channel": 9
                        }
                    ]
                ], 
                [
                    65000, 
                    [
                        {
                            "pitch": 51, 
                            "t0": 65000, 
                            "v": 58, 
                            "dur": 9, 
                            "type": "note", 
                            "channel": 9
                        }
                    ]
                ], 
                [
                    65040, 
                    [
                        {
                            "pitch": 51, 
                            "t0": 65040, 
                            "v": 91, 
                            "dur": 26, 
                            "type": "note", 
                            "channel": 9
                        }
                    ]
                ], 
                [
                    65160, 
                    [
                        {
                            "pitch": 51, 
                            "t0": 65160, 
                            "v": 89, 
                            "dur": 22, 
                            "type": "note", 
                            "channel": 9
                        }
                    ]
                ], 
                [
                    65240, 
                    [
                        {
                            "pitch": 51, 
                            "t0": 65240, 
                            "v": 73, 
                            "dur": 15, 
                            "type": "note", 
                            "channel": 9
                        }
                    ]
                ], 
                [
                    65280, 
                    [
                        {
                            "pitch": 51, 
                            "t0": 65280, 
                            "v": 91, 
                            "dur": 25, 
                            "type": "note", 
                            "channel": 9
                        }
                    ]
                ], 
                [
                    65400, 
                    [
                        {
                            "pitch": 51, 
                            "t0": 65400, 
                            "v": 89, 
                            "dur": 26, 
                            "type": "note", 
                            "channel": 9
                        }
                    ]
                ], 
                [
                    65480, 
                    [
                        {
                            "pitch": 51, 
                            "t0": 65480, 
                            "v": 75, 
                            "dur": 15, 
                            "type": "note", 
                            "channel": 9
                        }
                    ]
                ], 
                [
                    65520, 
                    [
                        {
                            "pitch": 51, 
                            "t0": 65520, 
                            "v": 89, 
                            "dur": 24, 
                            "type": "note", 
                            "channel": 9
                        }
                    ]
                ], 
                [
                    65880, 
                    [
                        {
                            "pitch": 51, 
                            "t0": 65880, 
                            "v": 84, 
                            "dur": 25, 
                            "type": "note", 
                            "channel": 9
                        }
                    ]
                ], 
                [
                    65960, 
                    [
                        {
                            "pitch": 51, 
                            "t0": 65960, 
                            "v": 87, 
                            "dur": 17, 
                            "type": "note", 
                            "channel": 9
                        }
                    ]
                ], 
                [
                    66000, 
                    [
                        {
                            "pitch": 51, 
                            "t0": 66000, 
                            "v": 95, 
                            "dur": 38, 
                            "type": "note", 
                            "channel": 9
                        }
                    ]
                ], 
                [
                    66120, 
                    [
                        {
                            "pitch": 51, 
                            "t0": 66120, 
                            "v": 99, 
                            "dur": 23, 
                            "type": "note", 
                            "channel": 9
                        }
                    ]
                ], 
                [
                    66200, 
                    [
                        {
                            "pitch": 51, 
                            "t0": 66200, 
                            "v": 81, 
                            "dur": 14, 
                            "type": "note", 
                            "channel": 9
                        }
                    ]
                ], 
                [
                    66360, 
                    [
                        {
                            "pitch": 51, 
                            "t0": 66360, 
                            "v": 87, 
                            "dur": 24, 
                            "type": "note", 
                            "channel": 9
                        }
                    ]
                ], 
                [
                    66440, 
                    [
                        {
                            "pitch": 51, 
                            "t0": 66440, 
                            "v": 68, 
                            "dur": 17, 
                            "type": "note", 
                            "channel": 9
                        }
                    ]
                ], 
                [
                    66480, 
                    [
                        {
                            "pitch": 51, 
                            "t0": 66480, 
                            "v": 85, 
                            "dur": 22, 
                            "type": "note", 
                            "channel": 9
                        }
                    ]
                ], 
                [
                    66600, 
                    [
                        {
                            "pitch": 51, 
                            "t0": 66600, 
                            "v": 87, 
                            "dur": 24, 
                            "type": "note", 
                            "channel": 9
                        }
                    ]
                ], 
                [
                    66680, 
                    [
                        {
                            "pitch": 51, 
                            "t0": 66680, 
                            "v": 62, 
                            "dur": 8, 
                            "type": "note", 
                            "channel": 9
                        }
                    ]
                ], 
                [
                    66840, 
                    [
                        {
                            "pitch": 51, 
                            "t0": 66840, 
                            "v": 84, 
                            "dur": 23, 
                            "type": "note", 
                            "channel": 9
                        }
                    ]
                ], 
                [
                    66920, 
                    [
                        {
                            "pitch": 51, 
                            "t0": 66920, 
                            "v": 53, 
                            "dur": 12, 
                            "type": "note", 
                            "channel": 9
                        }
                    ]
                ], 
                [
                    66960, 
                    [
                        {
                            "pitch": 51, 
                            "t0": 66960, 
                            "v": 89, 
                            "dur": 25, 
                            "type": "note", 
                            "channel": 9
                        }
                    ]
                ], 
                [
                    67080, 
                    [
                        {
                            "pitch": 51, 
                            "t0": 67080, 
                            "v": 75, 
                            "dur": 27, 
                            "type": "note", 
                            "channel": 9
                        }
                    ]
                ], 
                [
                    67160, 
                    [
                        {
                            "pitch": 51, 
                            "t0": 67160, 
                            "v": 67, 
                            "dur": 11, 
                            "type": "note", 
                            "channel": 9
                        }
                    ]
                ], 
                [
                    67320, 
                    [
                        {
                            "pitch": 51, 
                            "t0": 67320, 
                            "v": 87, 
                            "dur": 24, 
                            "type": "note", 
                            "channel": 9
                        }
                    ]
                ], 
                [
                    67400, 
                    [
                        {
                            "pitch": 51, 
                            "t0": 67400, 
                            "v": 73, 
                            "dur": 12, 
                            "type": "note", 
                            "channel": 9
                        }
                    ]
                ], 
                [
                    67440, 
                    [
                        {
                            "pitch": 51, 
                            "t0": 67440, 
                            "v": 91, 
                            "dur": 25, 
                            "type": "note", 
                            "channel": 9
                        }
                    ]
                ], 
                [
                    67560, 
                    [
                        {
                            "pitch": 51, 
                            "t0": 67560, 
                            "v": 87, 
                            "dur": 22, 
                            "type": "note", 
                            "channel": 9
                        }
                    ]
                ], 
                [
                    67800, 
                    [
                        {
                            "pitch": 51, 
                            "t0": 67800, 
                            "v": 93, 
                            "dur": 22, 
                            "type": "note", 
                            "channel": 9
                        }
                    ]
                ], 
                [
                    67880, 
                    [
                        {
                            "pitch": 51, 
                            "t0": 67880, 
                            "v": 55, 
                            "dur": 10, 
                            "type": "note", 
                            "channel": 9
                        }
                    ]
                ], 
                [
                    67920, 
                    [
                        {
                            "pitch": 51, 
                            "t0": 67920, 
                            "v": 84, 
                            "dur": 20, 
                            "type": "note", 
                            "channel": 9
                        }
                    ]
                ], 
                [
                    68040, 
                    [
                        {
                            "pitch": 51, 
                            "t0": 68040, 
                            "v": 91, 
                            "dur": 23, 
                            "type": "note", 
                            "channel": 9
                        }
                    ]
                ], 
                [
                    68120, 
                    [
                        {
                            "pitch": 51, 
                            "t0": 68120, 
                            "v": 81, 
                            "dur": 9, 
                            "type": "note", 
                            "channel": 9
                        }
                    ]
                ], 
                [
                    68280, 
                    [
                        {
                            "pitch": 51, 
                            "t0": 68280, 
                            "v": 89, 
                            "dur": 25, 
                            "type": "note", 
                            "channel": 9
                        }
                    ]
                ], 
                [
                    68360, 
                    [
                        {
                            "pitch": 51, 
                            "t0": 68360, 
                            "v": 66, 
                            "dur": 10, 
                            "type": "note", 
                            "channel": 9
                        }
                    ]
                ], 
                [
                    68400, 
                    [
                        {
                            "pitch": 51, 
                            "t0": 68400, 
                            "v": 79, 
                            "dur": 22, 
                            "type": "note", 
                            "channel": 9
                        }
                    ]
                ], 
                [
                    68520, 
                    [
                        {
                            "pitch": 51, 
                            "t0": 68520, 
                            "v": 89, 
                            "dur": 25, 
                            "type": "note", 
                            "channel": 9
                        }
                    ]
                ], 
                [
                    68600, 
                    [
                        {
                            "pitch": 51, 
                            "t0": 68600, 
                            "v": 54, 
                            "dur": 6, 
                            "type": "note", 
                            "channel": 9
                        }
                    ]
                ], 
                [
                    69720, 
                    [
                        {
                            "pitch": 51, 
                            "t0": 69720, 
                            "v": 81, 
                            "dur": 22, 
                            "type": "note", 
                            "channel": 9
                        }
                    ]
                ], 
                [
                    69800, 
                    [
                        {
                            "pitch": 51, 
                            "t0": 69800, 
                            "v": 67, 
                            "dur": 16, 
                            "type": "note", 
                            "channel": 9
                        }
                    ]
                ], 
                [
                    69840, 
                    [
                        {
                            "pitch": 51, 
                            "t0": 69840, 
                            "v": 93, 
                            "dur": 36, 
                            "type": "note", 
                            "channel": 9
                        }
                    ]
                ], 
                [
                    69960, 
                    [
                        {
                            "pitch": 51, 
                            "t0": 69960, 
                            "v": 84, 
                            "dur": 29, 
                            "type": "note", 
                            "channel": 9
                        }
                    ]
                ], 
                [
                    70040, 
                    [
                        {
                            "pitch": 51, 
                            "t0": 70040, 
                            "v": 70, 
                            "dur": 12, 
                            "type": "note", 
                            "channel": 9
                        }
                    ]
                ], 
                [
                    70200, 
                    [
                        {
                            "pitch": 51, 
                            "t0": 70200, 
                            "v": 78, 
                            "dur": 17, 
                            "type": "note", 
                            "channel": 9
                        }
                    ]
                ], 
                [
                    70280, 
                    [
                        {
                            "pitch": 51, 
                            "t0": 70280, 
                            "v": 65, 
                            "dur": 10, 
                            "type": "note", 
                            "channel": 9
                        }
                    ]
                ], 
                [
                    70320, 
                    [
                        {
                            "pitch": 51, 
                            "t0": 70320, 
                            "v": 85, 
                            "dur": 25, 
                            "type": "note", 
                            "channel": 9
                        }
                    ]
                ], 
                [
                    70440, 
                    [
                        {
                            "pitch": 51, 
                            "t0": 70440, 
                            "v": 79, 
                            "dur": 23, 
                            "type": "note", 
                            "channel": 9
                        }
                    ]
                ], 
                [
                    73080, 
                    [
                        {
                            "pitch": 49, 
                            "t0": 73080, 
                            "v": 127, 
                            "dur": 25, 
                            "type": "note", 
                            "channel": 9
                        }, 
                        {
                            "pitch": 36, 
                            "t0": 73080, 
                            "v": 127, 
                            "dur": 34, 
                            "type": "note", 
                            "channel": 9
                        }
                    ]
                ]
            ], 
            "instruments": [], 
            "tMax": 73114, 
            "channels": [
                9
            ], 
            "numNotes": 807, 
            "type": "TrackObj"
        }, 
        {
            "trackName": "Track9", 
            "seq": [
                [
                    80, 
                    [
                        {
                            "pitch": 62, 
                            "t0": 80, 
                            "v": 122, 
                            "dur": 146, 
                            "type": "note", 
                            "channel": 10
                        }
                    ]
                ], 
                [
                    240, 
                    [
                        {
                            "pitch": 62, 
                            "t0": 240, 
                            "v": 112, 
                            "dur": 74, 
                            "type": "note", 
                            "channel": 10
                        }
                    ]
                ], 
                [
                    323, 
                    [
                        {
                            "pitch": 57, 
                            "t0": 323, 
                            "v": 112, 
                            "dur": 101, 
                            "type": "note", 
                            "channel": 10
                        }
                    ]
                ], 
                [
                    427, 
                    [
                        {
                            "pitch": 55, 
                            "t0": 427, 
                            "v": 112, 
                            "dur": 127, 
                            "type": "note", 
                            "channel": 10
                        }
                    ]
                ], 
                [
                    544, 
                    [
                        {
                            "pitch": 59, 
                            "t0": 544, 
                            "v": 127, 
                            "dur": 61, 
                            "type": "note", 
                            "channel": 10
                        }
                    ]
                ], 
                [
                    605, 
                    [
                        {
                            "pitch": 57, 
                            "t0": 605, 
                            "v": 87, 
                            "dur": 8, 
                            "type": "note", 
                            "channel": 10
                        }
                    ]
                ], 
                [
                    608, 
                    [
                        {
                            "pitch": 55, 
                            "t0": 608, 
                            "v": 112, 
                            "dur": 13, 
                            "type": "note", 
                            "channel": 10
                        }
                    ]
                ], 
                [
                    614, 
                    [
                        {
                            "pitch": 53, 
                            "t0": 614, 
                            "v": 90, 
                            "dur": 11, 
                            "type": "note", 
                            "channel": 10
                        }
                    ]
                ], 
                [
                    619, 
                    [
                        {
                            "pitch": 52, 
                            "t0": 619, 
                            "v": 100, 
                            "dur": 8, 
                            "type": "note", 
                            "channel": 10
                        }
                    ]
                ], 
                [
                    624, 
                    [
                        {
                            "pitch": 50, 
                            "t0": 624, 
                            "v": 102, 
                            "dur": 7, 
                            "type": "note", 
                            "channel": 10
                        }
                    ]
                ], 
                [
                    630, 
                    [
                        {
                            "pitch": 48, 
                            "t0": 630, 
                            "v": 100, 
                            "dur": 8, 
                            "type": "note", 
                            "channel": 10
                        }
                    ]
                ], 
                [
                    636, 
                    [
                        {
                            "pitch": 47, 
                            "t0": 636, 
                            "v": 98, 
                            "dur": 7, 
                            "type": "note", 
                            "channel": 10
                        }
                    ]
                ], 
                [
                    641, 
                    [
                        {
                            "pitch": 45, 
                            "t0": 641, 
                            "v": 100, 
                            "dur": 11, 
                            "type": "note", 
                            "channel": 10
                        }
                    ]
                ], 
                [
                    647, 
                    [
                        {
                            "pitch": 43, 
                            "t0": 647, 
                            "v": 83, 
                            "dur": 12, 
                            "type": "note", 
                            "channel": 10
                        }
                    ]
                ], 
                [
                    655, 
                    [
                        {
                            "pitch": 41, 
                            "t0": 655, 
                            "v": 88, 
                            "dur": 12, 
                            "type": "note", 
                            "channel": 10
                        }
                    ]
                ], 
                [
                    666, 
                    [
                        {
                            "pitch": 40, 
                            "t0": 666, 
                            "v": 80, 
                            "dur": 11, 
                            "type": "note", 
                            "channel": 10
                        }
                    ]
                ], 
                [
                    680, 
                    [
                        {
                            "pitch": 38, 
                            "t0": 680, 
                            "v": 68, 
                            "dur": 15, 
                            "type": "note", 
                            "channel": 10
                        }
                    ]
                ], 
                [
                    1032, 
                    [
                        {
                            "pitch": 50, 
                            "t0": 1032, 
                            "v": 98, 
                            "dur": 27, 
                            "type": "note", 
                            "channel": 10
                        }
                    ]
                ], 
                [
                    1067, 
                    [
                        {
                            "pitch": 50, 
                            "t0": 1067, 
                            "v": 80, 
                            "dur": 86, 
                            "type": "note", 
                            "channel": 10
                        }
                    ]
                ], 
                [
                    1165, 
                    [
                        {
                            "pitch": 50, 
                            "t0": 1165, 
                            "v": 69, 
                            "dur": 24, 
                            "type": "note", 
                            "channel": 10
                        }
                    ]
                ], 
                [
                    1199, 
                    [
                        {
                            "pitch": 52, 
                            "t0": 1199, 
                            "v": 102, 
                            "dur": 104, 
                            "type": "note", 
                            "channel": 10
                        }
                    ]
                ], 
                [
                    1314, 
                    [
                        {
                            "pitch": 55, 
                            "t0": 1314, 
                            "v": 95, 
                            "dur": 99, 
                            "type": "note", 
                            "channel": 10
                        }
                    ]
                ], 
                [
                    1431, 
                    [
                        {
                            "pitch": 57, 
                            "t0": 1431, 
                            "v": 104, 
                            "dur": 66, 
                            "type": "note", 
                            "channel": 10
                        }
                    ]
                ], 
                [
                    1503, 
                    [
                        {
                            "pitch": 55, 
                            "t0": 1503, 
                            "v": 87, 
                            "dur": 495, 
                            "type": "note", 
                            "channel": 10
                        }
                    ]
                ], 
                [
                    1986, 
                    [
                        {
                            "pitch": 64, 
                            "t0": 1986, 
                            "v": 127, 
                            "dur": 160, 
                            "type": "note", 
                            "channel": 10
                        }
                    ]
                ], 
                [
                    2154, 
                    [
                        {
                            "pitch": 62, 
                            "t0": 2154, 
                            "v": 100, 
                            "dur": 122, 
                            "type": "note", 
                            "channel": 10
                        }
                    ]
                ], 
                [
                    2282, 
                    [
                        {
                            "pitch": 64, 
                            "t0": 2282, 
                            "v": 104, 
                            "dur": 100, 
                            "type": "note", 
                            "channel": 10
                        }
                    ]
                ], 
                [
                    2394, 
                    [
                        {
                            "pitch": 59, 
                            "t0": 2394, 
                            "v": 120, 
                            "dur": 37, 
                            "type": "note", 
                            "channel": 10
                        }
                    ]
                ], 
                [
                    2434, 
                    [
                        {
                            "pitch": 57, 
                            "t0": 2434, 
                            "v": 100, 
                            "dur": 33, 
                            "type": "note", 
                            "channel": 10
                        }
                    ]
                ], 
                [
                    2467, 
                    [
                        {
                            "pitch": 55, 
                            "t0": 2467, 
                            "v": 88, 
                            "dur": 464, 
                            "type": "note", 
                            "channel": 10
                        }
                    ]
                ], 
                [
                    2949, 
                    [
                        {
                            "pitch": 55, 
                            "t0": 2949, 
                            "v": 112, 
                            "dur": 109, 
                            "type": "note", 
                            "channel": 10
                        }
                    ]
                ], 
                [
                    3075, 
                    [
                        {
                            "pitch": 55, 
                            "t0": 3075, 
                            "v": 81, 
                            "dur": 25, 
                            "type": "note", 
                            "channel": 10
                        }
                    ]
                ], 
                [
                    3111, 
                    [
                        {
                            "pitch": 57, 
                            "t0": 3111, 
                            "v": 87, 
                            "dur": 110, 
                            "type": "note", 
                            "channel": 10
                        }
                    ]
                ], 
                [
                    3237, 
                    [
                        {
                            "pitch": 57, 
                            "t0": 3237, 
                            "v": 110, 
                            "dur": 139, 
                            "type": "note", 
                            "channel": 10
                        }
                    ]
                ], 
                [
                    3363, 
                    [
                        {
                            "pitch": 54, 
                            "t0": 3363, 
                            "v": 79, 
                            "dur": 29, 
                            "type": "note", 
                            "channel": 10
                        }
                    ]
                ], 
                [
                    3388, 
                    [
                        {
                            "pitch": 52, 
                            "t0": 3388, 
                            "v": 90, 
                            "dur": 34, 
                            "type": "note", 
                            "channel": 10
                        }
                    ]
                ], 
                [
                    3422, 
                    [
                        {
                            "pitch": 50, 
                            "t0": 3422, 
                            "v": 85, 
                            "dur": 392, 
                            "type": "note", 
                            "channel": 10
                        }
                    ]
                ], 
                [
                    3953, 
                    [
                        {
                            "pitch": 64, 
                            "t0": 3953, 
                            "v": 106, 
                            "dur": 78, 
                            "type": "note", 
                            "channel": 10
                        }
                    ]
                ], 
                [
                    4038, 
                    [
                        {
                            "pitch": 62, 
                            "t0": 4038, 
                            "v": 95, 
                            "dur": 19, 
                            "type": "note", 
                            "channel": 10
                        }
                    ]
                ], 
                [
                    4073, 
                    [
                        {
                            "pitch": 64, 
                            "t0": 4073, 
                            "v": 127, 
                            "dur": 111, 
                            "type": "note", 
                            "channel": 10
                        }
                    ]
                ], 
                [
                    4197, 
                    [
                        {
                            "pitch": 62, 
                            "t0": 4197, 
                            "v": 94, 
                            "dur": 68, 
                            "type": "note", 
                            "channel": 10
                        }
                    ]
                ], 
                [
                    4270, 
                    [
                        {
                            "pitch": 64, 
                            "t0": 4270, 
                            "v": 98, 
                            "dur": 43, 
                            "type": "note", 
                            "channel": 10
                        }
                    ]
                ], 
                [
                    4315, 
                    [
                        {
                            "pitch": 57, 
                            "t0": 4315, 
                            "v": 90, 
                            "dur": 74, 
                            "type": "note", 
                            "channel": 10
                        }
                    ]
                ], 
                [
                    4391, 
                    [
                        {
                            "pitch": 55, 
                            "t0": 4391, 
                            "v": 83, 
                            "dur": 418, 
                            "type": "note", 
                            "channel": 10
                        }
                    ]
                ], 
                [
                    4876, 
                    [
                        {
                            "pitch": 50, 
                            "t0": 4876, 
                            "v": 114, 
                            "dur": 27, 
                            "type": "note", 
                            "channel": 10
                        }
                    ]
                ], 
                [
                    5000, 
                    [
                        {
                            "pitch": 50, 
                            "t0": 5000, 
                            "v": 104, 
                            "dur": 16, 
                            "type": "note", 
                            "channel": 10
                        }
                    ]
                ], 
                [
                    5036, 
                    [
                        {
                            "pitch": 52, 
                            "t0": 5036, 
                            "v": 108, 
                            "dur": 115, 
                            "type": "note", 
                            "channel": 10
                        }
                    ]
                ], 
                [
                    5157, 
                    [
                        {
                            "pitch": 55, 
                            "t0": 5157, 
                            "v": 112, 
                            "dur": 55, 
                            "type": "note", 
                            "channel": 10
                        }
                    ]
                ], 
                [
                    5226, 
                    [
                        {
                            "pitch": 57, 
                            "t0": 5226, 
                            "v": 114, 
                            "dur": 69, 
                            "type": "note", 
                            "channel": 10
                        }
                    ]
                ], 
                [
                    5298, 
                    [
                        {
                            "pitch": 55, 
                            "t0": 5298, 
                            "v": 110, 
                            "dur": 528, 
                            "type": "note", 
                            "channel": 10
                        }
                    ]
                ], 
                [
                    5821, 
                    [
                        {
                            "pitch": 64, 
                            "t0": 5821, 
                            "v": 127, 
                            "dur": 158, 
                            "type": "note", 
                            "channel": 10
                        }
                    ]
                ], 
                [
                    5991, 
                    [
                        {
                            "pitch": 64, 
                            "t0": 5991, 
                            "v": 98, 
                            "dur": 116, 
                            "type": "note", 
                            "channel": 10
                        }
                    ]
                ], 
                [
                    6118, 
                    [
                        {
                            "pitch": 62, 
                            "t0": 6118, 
                            "v": 110, 
                            "dur": 50, 
                            "type": "note", 
                            "channel": 10
                        }
                    ]
                ], 
                [
                    6185, 
                    [
                        {
                            "pitch": 62, 
                            "t0": 6185, 
                            "v": 114, 
                            "dur": 97, 
                            "type": "note", 
                            "channel": 10
                        }
                    ]
                ], 
                [
                    6279, 
                    [
                        {
                            "pitch": 57, 
                            "t0": 6279, 
                            "v": 102, 
                            "dur": 68, 
                            "type": "note", 
                            "channel": 10
                        }
                    ]
                ], 
                [
                    6352, 
                    [
                        {
                            "pitch": 55, 
                            "t0": 6352, 
                            "v": 98, 
                            "dur": 429, 
                            "type": "note", 
                            "channel": 10
                        }
                    ]
                ], 
                [
                    6800, 
                    [
                        {
                            "pitch": 55, 
                            "t0": 6800, 
                            "v": 97, 
                            "dur": 31, 
                            "type": "note", 
                            "channel": 10
                        }
                    ]
                ], 
                [
                    6839, 
                    [
                        {
                            "pitch": 57, 
                            "t0": 6839, 
                            "v": 114, 
                            "dur": 77, 
                            "type": "note", 
                            "channel": 10
                        }
                    ]
                ], 
                [
                    6921, 
                    [
                        {
                            "pitch": 55, 
                            "t0": 6921, 
                            "v": 102, 
                            "dur": 23, 
                            "type": "note", 
                            "channel": 10
                        }
                    ]
                ], 
                [
                    6959, 
                    [
                        {
                            "pitch": 62, 
                            "t0": 6959, 
                            "v": 110, 
                            "dur": 68, 
                            "type": "note", 
                            "channel": 10
                        }
                    ]
                ], 
                [
                    7030, 
                    [
                        {
                            "pitch": 57, 
                            "t0": 7030, 
                            "v": 110, 
                            "dur": 164, 
                            "type": "note", 
                            "channel": 10
                        }
                    ]
                ], 
                [
                    7200, 
                    [
                        {
                            "pitch": 55, 
                            "t0": 7200, 
                            "v": 98, 
                            "dur": 450, 
                            "type": "note", 
                            "channel": 10
                        }
                    ]
                ], 
                [
                    7754, 
                    [
                        {
                            "pitch": 59, 
                            "t0": 7754, 
                            "v": 114, 
                            "dur": 135, 
                            "type": "note", 
                            "channel": 10
                        }
                    ]
                ], 
                [
                    7908, 
                    [
                        {
                            "pitch": 59, 
                            "t0": 7908, 
                            "v": 114, 
                            "dur": 48, 
                            "type": "note", 
                            "channel": 10
                        }
                    ]
                ], 
                [
                    8043, 
                    [
                        {
                            "pitch": 50, 
                            "t0": 8043, 
                            "v": 97, 
                            "dur": 33, 
                            "type": "note", 
                            "channel": 10
                        }
                    ]
                ], 
                [
                    8159, 
                    [
                        {
                            "pitch": 52, 
                            "t0": 8159, 
                            "v": 92, 
                            "dur": 81, 
                            "type": "note", 
                            "channel": 10
                        }
                    ]
                ], 
                [
                    8242, 
                    [
                        {
                            "pitch": 55, 
                            "t0": 8242, 
                            "v": 79, 
                            "dur": 446, 
                            "type": "note", 
                            "channel": 10
                        }
                    ]
                ], 
                [
                    8714, 
                    [
                        {
                            "pitch": 55, 
                            "t0": 8714, 
                            "v": 85, 
                            "dur": 26, 
                            "type": "note", 
                            "channel": 10
                        }
                    ]
                ], 
                [
                    8752, 
                    [
                        {
                            "pitch": 57, 
                            "t0": 8752, 
                            "v": 97, 
                            "dur": 72, 
                            "type": "note", 
                            "channel": 10
                        }
                    ]
                ], 
                [
                    8835, 
                    [
                        {
                            "pitch": 55, 
                            "t0": 8835, 
                            "v": 88, 
                            "dur": 22, 
                            "type": "note", 
                            "channel": 10
                        }
                    ]
                ], 
                [
                    8874, 
                    [
                        {
                            "pitch": 57, 
                            "t0": 8874, 
                            "v": 92, 
                            "dur": 199, 
                            "type": "note", 
                            "channel": 10
                        }
                    ]
                ], 
                [
                    9074, 
                    [
                        {
                            "pitch": 55, 
                            "t0": 9074, 
                            "v": 79, 
                            "dur": 137, 
                            "type": "note", 
                            "channel": 10
                        }
                    ]
                ], 
                [
                    9197, 
                    [
                        {
                            "pitch": 50, 
                            "t0": 9197, 
                            "v": 74, 
                            "dur": 353, 
                            "type": "note", 
                            "channel": 10
                        }
                    ]
                ], 
                [
                    9678, 
                    [
                        {
                            "pitch": 55, 
                            "t0": 9678, 
                            "v": 88, 
                            "dur": 113, 
                            "type": "note", 
                            "channel": 10
                        }
                    ]
                ], 
                [
                    9798, 
                    [
                        {
                            "pitch": 52, 
                            "t0": 9798, 
                            "v": 74, 
                            "dur": 33, 
                            "type": "note", 
                            "channel": 10
                        }
                    ]
                ], 
                [
                    9838, 
                    [
                        {
                            "pitch": 55, 
                            "t0": 9838, 
                            "v": 84, 
                            "dur": 80, 
                            "type": "note", 
                            "channel": 10
                        }
                    ]
                ], 
                [
                    9965, 
                    [
                        {
                            "pitch": 55, 
                            "t0": 9965, 
                            "v": 92, 
                            "dur": 55, 
                            "type": "note", 
                            "channel": 10
                        }
                    ]
                ], 
                [
                    10040, 
                    [
                        {
                            "pitch": 52, 
                            "t0": 10040, 
                            "v": 58, 
                            "dur": 11, 
                            "type": "note", 
                            "channel": 10
                        }
                    ]
                ], 
                [
                    10079, 
                    [
                        {
                            "pitch": 57, 
                            "t0": 10079, 
                            "v": 98, 
                            "dur": 545, 
                            "type": "note", 
                            "channel": 10
                        }
                    ]
                ], 
                [
                    10641, 
                    [
                        {
                            "pitch": 57, 
                            "t0": 10641, 
                            "v": 91, 
                            "dur": 46, 
                            "type": "note", 
                            "channel": 10
                        }
                    ]
                ], 
                [
                    10767, 
                    [
                        {
                            "pitch": 57, 
                            "t0": 10767, 
                            "v": 80, 
                            "dur": 27, 
                            "type": "note", 
                            "channel": 10
                        }
                    ]
                ], 
                [
                    10808, 
                    [
                        {
                            "pitch": 57, 
                            "t0": 10808, 
                            "v": 81, 
                            "dur": 220, 
                            "type": "note", 
                            "channel": 10
                        }
                    ]
                ], 
                [
                    11053, 
                    [
                        {
                            "pitch": 52, 
                            "t0": 11053, 
                            "v": 94, 
                            "dur": 79, 
                            "type": "note", 
                            "channel": 10
                        }
                    ]
                ], 
                [
                    11132, 
                    [
                        {
                            "pitch": 50, 
                            "t0": 11132, 
                            "v": 78, 
                            "dur": 336, 
                            "type": "note", 
                            "channel": 10
                        }
                    ]
                ], 
                [
                    11594, 
                    [
                        {
                            "pitch": 64, 
                            "t0": 11594, 
                            "v": 117, 
                            "dur": 111, 
                            "type": "note", 
                            "channel": 10
                        }
                    ]
                ], 
                [
                    11713, 
                    [
                        {
                            "pitch": 62, 
                            "t0": 11713, 
                            "v": 97, 
                            "dur": 21, 
                            "type": "note", 
                            "channel": 10
                        }
                    ]
                ], 
                [
                    11753, 
                    [
                        {
                            "pitch": 64, 
                            "t0": 11753, 
                            "v": 127, 
                            "dur": 69, 
                            "type": "note", 
                            "channel": 10
                        }
                    ]
                ], 
                [
                    11835, 
                    [
                        {
                            "pitch": 62, 
                            "t0": 11835, 
                            "v": 102, 
                            "dur": 20, 
                            "type": "note", 
                            "channel": 10
                        }
                    ]
                ], 
                [
                    11872, 
                    [
                        {
                            "pitch": 64, 
                            "t0": 11872, 
                            "v": 120, 
                            "dur": 71, 
                            "type": "note", 
                            "channel": 10
                        }
                    ]
                ], 
                [
                    11957, 
                    [
                        {
                            "pitch": 62, 
                            "t0": 11957, 
                            "v": 104, 
                            "dur": 21, 
                            "type": "note", 
                            "channel": 10
                        }
                    ]
                ], 
                [
                    11997, 
                    [
                        {
                            "pitch": 67, 
                            "t0": 11997, 
                            "v": 127, 
                            "dur": 114, 
                            "type": "note", 
                            "channel": 10
                        }
                    ]
                ], 
                [
                    12120, 
                    [
                        {
                            "pitch": 64, 
                            "t0": 12120, 
                            "v": 102, 
                            "dur": 32, 
                            "type": "note", 
                            "channel": 10
                        }
                    ]
                ], 
                [
                    12175, 
                    [
                        {
                            "pitch": 57, 
                            "t0": 12175, 
                            "v": 106, 
                            "dur": 74, 
                            "type": "note", 
                            "channel": 10
                        }
                    ]
                ], 
                [
                    12252, 
                    [
                        {
                            "pitch": 55, 
                            "t0": 12252, 
                            "v": 98, 
                            "dur": 298, 
                            "type": "note", 
                            "channel": 10
                        }
                    ]
                ], 
                [
                    12562, 
                    [
                        {
                            "pitch": 50, 
                            "t0": 12562, 
                            "v": 98, 
                            "dur": 34, 
                            "type": "note", 
                            "channel": 10
                        }
                    ]
                ], 
                [
                    12677, 
                    [
                        {
                            "pitch": 48, 
                            "t0": 12677, 
                            "v": 80, 
                            "dur": 9, 
                            "type": "note", 
                            "channel": 10
                        }, 
                        {
                            "pitch": 50, 
                            "t0": 12677, 
                            "v": 77, 
                            "dur": 10, 
                            "type": "note", 
                            "channel": 10
                        }
                    ]
                ], 
                [
                    12711, 
                    [
                        {
                            "pitch": 52, 
                            "t0": 12711, 
                            "v": 106, 
                            "dur": 116, 
                            "type": "note", 
                            "channel": 10
                        }
                    ]
                ], 
                [
                    12834, 
                    [
                        {
                            "pitch": 55, 
                            "t0": 12834, 
                            "v": 86, 
                            "dur": 55, 
                            "type": "note", 
                            "channel": 10
                        }
                    ]
                ], 
                [
                    12902, 
                    [
                        {
                            "pitch": 57, 
                            "t0": 12902, 
                            "v": 98, 
                            "dur": 83, 
                            "type": "note", 
                            "channel": 10
                        }
                    ]
                ], 
                [
                    12983, 
                    [
                        {
                            "pitch": 55, 
                            "t0": 12983, 
                            "v": 86, 
                            "dur": 535, 
                            "type": "note", 
                            "channel": 10
                        }
                    ]
                ], 
                [
                    13506, 
                    [
                        {
                            "pitch": 64, 
                            "t0": 13506, 
                            "v": 127, 
                            "dur": 150, 
                            "type": "note", 
                            "channel": 10
                        }
                    ]
                ], 
                [
                    13669, 
                    [
                        {
                            "pitch": 64, 
                            "t0": 13669, 
                            "v": 117, 
                            "dur": 58, 
                            "type": "note", 
                            "channel": 10
                        }
                    ]
                ], 
                [
                    13802, 
                    [
                        {
                            "pitch": 62, 
                            "t0": 13802, 
                            "v": 108, 
                            "dur": 46, 
                            "type": "note", 
                            "channel": 10
                        }
                    ]
                ], 
                [
                    13927, 
                    [
                        {
                            "pitch": 62, 
                            "t0": 13927, 
                            "v": 104, 
                            "dur": 197, 
                            "type": "note", 
                            "channel": 10
                        }
                    ]
                ], 
                [
                    14117, 
                    [
                        {
                            "pitch": 57, 
                            "t0": 14117, 
                            "v": 95, 
                            "dur": 60, 
                            "type": "note", 
                            "channel": 10
                        }
                    ]
                ], 
                [
                    14178, 
                    [
                        {
                            "pitch": 55, 
                            "t0": 14178, 
                            "v": 94, 
                            "dur": 274, 
                            "type": "note", 
                            "channel": 10
                        }
                    ]
                ], 
                [
                    14471, 
                    [
                        {
                            "pitch": 55, 
                            "t0": 14471, 
                            "v": 81, 
                            "dur": 29, 
                            "type": "note", 
                            "channel": 10
                        }
                    ]
                ], 
                [
                    14511, 
                    [
                        {
                            "pitch": 57, 
                            "t0": 14511, 
                            "v": 98, 
                            "dur": 70, 
                            "type": "note", 
                            "channel": 10
                        }
                    ]
                ], 
                [
                    14596, 
                    [
                        {
                            "pitch": 55, 
                            "t0": 14596, 
                            "v": 87, 
                            "dur": 25, 
                            "type": "note", 
                            "channel": 10
                        }
                    ]
                ], 
                [
                    14635, 
                    [
                        {
                            "pitch": 62, 
                            "t0": 14635, 
                            "v": 104, 
                            "dur": 69, 
                            "type": "note", 
                            "channel": 10
                        }
                    ]
                ], 
                [
                    14705, 
                    [
                        {
                            "pitch": 57, 
                            "t0": 14705, 
                            "v": 95, 
                            "dur": 161, 
                            "type": "note", 
                            "channel": 10
                        }
                    ]
                ], 
                [
                    14871, 
                    [
                        {
                            "pitch": 55, 
                            "t0": 14871, 
                            "v": 80, 
                            "dur": 396, 
                            "type": "note", 
                            "channel": 10
                        }
                    ]
                ], 
                [
                    15474, 
                    [
                        {
                            "pitch": 62, 
                            "t0": 15474, 
                            "v": 112, 
                            "dur": 110, 
                            "type": "note", 
                            "channel": 10
                        }
                    ]
                ], 
                [
                    15602, 
                    [
                        {
                            "pitch": 62, 
                            "t0": 15602, 
                            "v": 104, 
                            "dur": 111, 
                            "type": "note", 
                            "channel": 10
                        }
                    ]
                ], 
                [
                    15720, 
                    [
                        {
                            "pitch": 57, 
                            "t0": 15720, 
                            "v": 97, 
                            "dur": 117, 
                            "type": "note", 
                            "channel": 10
                        }
                    ]
                ], 
                [
                    15842, 
                    [
                        {
                            "pitch": 55, 
                            "t0": 15842, 
                            "v": 97, 
                            "dur": 78, 
                            "type": "note", 
                            "channel": 10
                        }
                    ]
                ], 
                [
                    15917, 
                    [
                        {
                            "pitch": 59, 
                            "t0": 15917, 
                            "v": 120, 
                            "dur": 56, 
                            "type": "note", 
                            "channel": 10
                        }
                    ]
                ], 
                [
                    15977, 
                    [
                        {
                            "pitch": 55, 
                            "t0": 15977, 
                            "v": 108, 
                            "dur": 6, 
                            "type": "note", 
                            "channel": 10
                        }
                    ]
                ], 
                [
                    15980, 
                    [
                        {
                            "pitch": 53, 
                            "t0": 15980, 
                            "v": 112, 
                            "dur": 5, 
                            "type": "note", 
                            "channel": 10
                        }
                    ]
                ], 
                [
                    15983, 
                    [
                        {
                            "pitch": 52, 
                            "t0": 15983, 
                            "v": 117, 
                            "dur": 5, 
                            "type": "note", 
                            "channel": 10
                        }
                    ]
                ], 
                [
                    15987, 
                    [
                        {
                            "pitch": 50, 
                            "t0": 15987, 
                            "v": 110, 
                            "dur": 5, 
                            "type": "note", 
                            "channel": 10
                        }
                    ]
                ], 
                [
                    15991, 
                    [
                        {
                            "pitch": 48, 
                            "t0": 15991, 
                            "v": 106, 
                            "dur": 5, 
                            "type": "note", 
                            "channel": 10
                        }
                    ]
                ], 
                [
                    15994, 
                    [
                        {
                            "pitch": 52, 
                            "t0": 15994, 
                            "v": 87, 
                            "dur": 6, 
                            "type": "note", 
                            "channel": 10
                        }
                    ]
                ], 
                [
                    15995, 
                    [
                        {
                            "pitch": 47, 
                            "t0": 15995, 
                            "v": 98, 
                            "dur": 7, 
                            "type": "note", 
                            "channel": 10
                        }
                    ]
                ], 
                [
                    15997, 
                    [
                        {
                            "pitch": 50, 
                            "t0": 15997, 
                            "v": 81, 
                            "dur": 8, 
                            "type": "note", 
                            "channel": 10
                        }
                    ]
                ], 
                [
                    16000, 
                    [
                        {
                            "pitch": 45, 
                            "t0": 16000, 
                            "v": 81, 
                            "dur": 7, 
                            "type": "note", 
                            "channel": 10
                        }
                    ]
                ], 
                [
                    16004, 
                    [
                        {
                            "pitch": 48, 
                            "t0": 16004, 
                            "v": 64, 
                            "dur": 5, 
                            "type": "note", 
                            "channel": 10
                        }
                    ]
                ], 
                [
                    16005, 
                    [
                        {
                            "pitch": 43, 
                            "t0": 16005, 
                            "v": 73, 
                            "dur": 6, 
                            "type": "note", 
                            "channel": 10
                        }
                    ]
                ], 
                [
                    16008, 
                    [
                        {
                            "pitch": 41, 
                            "t0": 16008, 
                            "v": 102, 
                            "dur": 6, 
                            "type": "note", 
                            "channel": 10
                        }
                    ]
                ], 
                [
                    16012, 
                    [
                        {
                            "pitch": 40, 
                            "t0": 16012, 
                            "v": 102, 
                            "dur": 6, 
                            "type": "note", 
                            "channel": 10
                        }
                    ]
                ], 
                [
                    16018, 
                    [
                        {
                            "pitch": 38, 
                            "t0": 16018, 
                            "v": 86, 
                            "dur": 7, 
                            "type": "note", 
                            "channel": 10
                        }
                    ]
                ], 
                [
                    16391, 
                    [
                        {
                            "pitch": 50, 
                            "t0": 16391, 
                            "v": 108, 
                            "dur": 64, 
                            "type": "note", 
                            "channel": 10
                        }
                    ]
                ], 
                [
                    16515, 
                    [
                        {
                            "pitch": 50, 
                            "t0": 16515, 
                            "v": 106, 
                            "dur": 16, 
                            "type": "note", 
                            "channel": 10
                        }
                    ]
                ], 
                [
                    16553, 
                    [
                        {
                            "pitch": 52, 
                            "t0": 16553, 
                            "v": 104, 
                            "dur": 117, 
                            "type": "note", 
                            "channel": 10
                        }
                    ]
                ], 
                [
                    16676, 
                    [
                        {
                            "pitch": 55, 
                            "t0": 16676, 
                            "v": 92, 
                            "dur": 56, 
                            "type": "note", 
                            "channel": 10
                        }
                    ]
                ], 
                [
                    16740, 
                    [
                        {
                            "pitch": 57, 
                            "t0": 16740, 
                            "v": 104, 
                            "dur": 80, 
                            "type": "note", 
                            "channel": 10
                        }
                    ]
                ], 
                [
                    16817, 
                    [
                        {
                            "pitch": 55, 
                            "t0": 16817, 
                            "v": 90, 
                            "dur": 523, 
                            "type": "note", 
                            "channel": 10
                        }
                    ]
                ], 
                [
                    17345, 
                    [
                        {
                            "pitch": 64, 
                            "t0": 17345, 
                            "v": 127, 
                            "dur": 163, 
                            "type": "note", 
                            "channel": 10
                        }
                    ]
                ], 
                [
                    17351, 
                    [
                        {
                            "pitch": 55, 
                            "t0": 17351, 
                            "v": 43, 
                            "dur": 6, 
                            "type": "note", 
                            "channel": 10
                        }
                    ]
                ], 
                [
                    17516, 
                    [
                        {
                            "pitch": 62, 
                            "t0": 17516, 
                            "v": 122, 
                            "dur": 42, 
                            "type": "note", 
                            "channel": 10
                        }
                    ]
                ], 
                [
                    17638, 
                    [
                        {
                            "pitch": 64, 
                            "t0": 17638, 
                            "v": 110, 
                            "dur": 32, 
                            "type": "note", 
                            "channel": 10
                        }
                    ]
                ], 
                [
                    17753, 
                    [
                        {
                            "pitch": 57, 
                            "t0": 17753, 
                            "v": 98, 
                            "dur": 74, 
                            "type": "note", 
                            "channel": 10
                        }
                    ]
                ], 
                [
                    17830, 
                    [
                        {
                            "pitch": 55, 
                            "t0": 17830, 
                            "v": 91, 
                            "dur": 464, 
                            "type": "note", 
                            "channel": 10
                        }
                    ]
                ], 
                [
                    18310, 
                    [
                        {
                            "pitch": 55, 
                            "t0": 18310, 
                            "v": 110, 
                            "dur": 114, 
                            "type": "note", 
                            "channel": 10
                        }
                    ]
                ], 
                [
                    18434, 
                    [
                        {
                            "pitch": 55, 
                            "t0": 18434, 
                            "v": 92, 
                            "dur": 23, 
                            "type": "note", 
                            "channel": 10
                        }
                    ]
                ], 
                [
                    18469, 
                    [
                        {
                            "pitch": 57, 
                            "t0": 18469, 
                            "v": 110, 
                            "dur": 119, 
                            "type": "note", 
                            "channel": 10
                        }
                    ]
                ], 
                [
                    18598, 
                    [
                        {
                            "pitch": 57, 
                            "t0": 18598, 
                            "v": 100, 
                            "dur": 112, 
                            "type": "note", 
                            "channel": 10
                        }
                    ]
                ], 
                [
                    18713, 
                    [
                        {
                            "pitch": 52, 
                            "t0": 18713, 
                            "v": 97, 
                            "dur": 66, 
                            "type": "note", 
                            "channel": 10
                        }
                    ]
                ], 
                [
                    18779, 
                    [
                        {
                            "pitch": 50, 
                            "t0": 18779, 
                            "v": 80, 
                            "dur": 341, 
                            "type": "note", 
                            "channel": 10
                        }
                    ]
                ], 
                [
                    19270, 
                    [
                        {
                            "pitch": 64, 
                            "t0": 19270, 
                            "v": 127, 
                            "dur": 119, 
                            "type": "note", 
                            "channel": 10
                        }
                    ]
                ], 
                [
                    19396, 
                    [
                        {
                            "pitch": 62, 
                            "t0": 19396, 
                            "v": 95, 
                            "dur": 24, 
                            "type": "note", 
                            "channel": 10
                        }
                    ]
                ], 
                [
                    19435, 
                    [
                        {
                            "pitch": 64, 
                            "t0": 19435, 
                            "v": 125, 
                            "dur": 114, 
                            "type": "note", 
                            "channel": 10
                        }
                    ]
                ], 
                [
                    19562, 
                    [
                        {
                            "pitch": 62, 
                            "t0": 19562, 
                            "v": 120, 
                            "dur": 60, 
                            "type": "note", 
                            "channel": 10
                        }
                    ]
                ], 
                [
                    19632, 
                    [
                        {
                            "pitch": 64, 
                            "t0": 19632, 
                            "v": 98, 
                            "dur": 23, 
                            "type": "note", 
                            "channel": 10
                        }
                    ]
                ], 
                [
                    19799, 
                    [
                        {
                            "pitch": 57, 
                            "t0": 19799, 
                            "v": 108, 
                            "dur": 56, 
                            "type": "note", 
                            "channel": 10
                        }
                    ]
                ], 
                [
                    19862, 
                    [
                        {
                            "pitch": 55, 
                            "t0": 19862, 
                            "v": 75, 
                            "dur": 268, 
                            "type": "note", 
                            "channel": 10
                        }
                    ]
                ], 
                [
                    20238, 
                    [
                        {
                            "pitch": 50, 
                            "t0": 20238, 
                            "v": 122, 
                            "dur": 23, 
                            "type": "note", 
                            "channel": 10
                        }
                    ]
                ], 
                [
                    20359, 
                    [
                        {
                            "pitch": 50, 
                            "t0": 20359, 
                            "v": 94, 
                            "dur": 16, 
                            "type": "note", 
                            "channel": 10
                        }
                    ]
                ], 
                [
                    20400, 
                    [
                        {
                            "pitch": 52, 
                            "t0": 20400, 
                            "v": 104, 
                            "dur": 104, 
                            "type": "note", 
                            "channel": 10
                        }
                    ]
                ], 
                [
                    20517, 
                    [
                        {
                            "pitch": 55, 
                            "t0": 20517, 
                            "v": 110, 
                            "dur": 106, 
                            "type": "note", 
                            "channel": 10
                        }
                    ]
                ], 
                [
                    20637, 
                    [
                        {
                            "pitch": 57, 
                            "t0": 20637, 
                            "v": 122, 
                            "dur": 76, 
                            "type": "note", 
                            "channel": 10
                        }
                    ]
                ], 
                [
                    20713, 
                    [
                        {
                            "pitch": 55, 
                            "t0": 20713, 
                            "v": 106, 
                            "dur": 489, 
                            "type": "note", 
                            "channel": 10
                        }
                    ]
                ], 
                [
                    21194, 
                    [
                        {
                            "pitch": 64, 
                            "t0": 21194, 
                            "v": 127, 
                            "dur": 150, 
                            "type": "note", 
                            "channel": 10
                        }
                    ]
                ], 
                [
                    21356, 
                    [
                        {
                            "pitch": 64, 
                            "t0": 21356, 
                            "v": 108, 
                            "dur": 104, 
                            "type": "note", 
                            "channel": 10
                        }
                    ]
                ], 
                [
                    21480, 
                    [
                        {
                            "pitch": 62, 
                            "t0": 21480, 
                            "v": 120, 
                            "dur": 105, 
                            "type": "note", 
                            "channel": 10
                        }
                    ]
                ], 
                [
                    21597, 
                    [
                        {
                            "pitch": 62, 
                            "t0": 21597, 
                            "v": 97, 
                            "dur": 187, 
                            "type": "note", 
                            "channel": 10
                        }
                    ]
                ], 
                [
                    21782, 
                    [
                        {
                            "pitch": 57, 
                            "t0": 21782, 
                            "v": 102, 
                            "dur": 57, 
                            "type": "note", 
                            "channel": 10
                        }
                    ]
                ], 
                [
                    21839, 
                    [
                        {
                            "pitch": 55, 
                            "t0": 21839, 
                            "v": 91, 
                            "dur": 199, 
                            "type": "note", 
                            "channel": 10
                        }
                    ]
                ], 
                [
                    22160, 
                    [
                        {
                            "pitch": 55, 
                            "t0": 22160, 
                            "v": 84, 
                            "dur": 25, 
                            "type": "note", 
                            "channel": 10
                        }
                    ]
                ], 
                [
                    22198, 
                    [
                        {
                            "pitch": 57, 
                            "t0": 22198, 
                            "v": 112, 
                            "dur": 69, 
                            "type": "note", 
                            "channel": 10
                        }
                    ]
                ], 
                [
                    22283, 
                    [
                        {
                            "pitch": 55, 
                            "t0": 22283, 
                            "v": 90, 
                            "dur": 22, 
                            "type": "note", 
                            "channel": 10
                        }
                    ]
                ], 
                [
                    22319, 
                    [
                        {
                            "pitch": 62, 
                            "t0": 22319, 
                            "v": 110, 
                            "dur": 64, 
                            "type": "note", 
                            "channel": 10
                        }
                    ]
                ], 
                [
                    22393, 
                    [
                        {
                            "pitch": 57, 
                            "t0": 22393, 
                            "v": 108, 
                            "dur": 154, 
                            "type": "note", 
                            "channel": 10
                        }
                    ]
                ], 
                [
                    22554, 
                    [
                        {
                            "pitch": 55, 
                            "t0": 22554, 
                            "v": 104, 
                            "dur": 372, 
                            "type": "note", 
                            "channel": 10
                        }
                    ]
                ], 
                [
                    23125, 
                    [
                        {
                            "pitch": 59, 
                            "t0": 23125, 
                            "v": 117, 
                            "dur": 136, 
                            "type": "note", 
                            "channel": 10
                        }
                    ]
                ], 
                [
                    23278, 
                    [
                        {
                            "pitch": 59, 
                            "t0": 23278, 
                            "v": 117, 
                            "dur": 42, 
                            "type": "note", 
                            "channel": 10
                        }
                    ]
                ], 
                [
                    23405, 
                    [
                        {
                            "pitch": 50, 
                            "t0": 23405, 
                            "v": 78, 
                            "dur": 45, 
                            "type": "note", 
                            "channel": 10
                        }
                    ]
                ], 
                [
                    23517, 
                    [
                        {
                            "pitch": 52, 
                            "t0": 23517, 
                            "v": 98, 
                            "dur": 70, 
                            "type": "note", 
                            "channel": 10
                        }
                    ]
                ], 
                [
                    23593, 
                    [
                        {
                            "pitch": 55, 
                            "t0": 23593, 
                            "v": 84, 
                            "dur": 463, 
                            "type": "note", 
                            "channel": 10
                        }
                    ]
                ], 
                [
                    24069, 
                    [
                        {
                            "pitch": 57, 
                            "t0": 24069, 
                            "v": 88, 
                            "dur": 123, 
                            "type": "note", 
                            "channel": 10
                        }
                    ]
                ], 
                [
                    24201, 
                    [
                        {
                            "pitch": 55, 
                            "t0": 24201, 
                            "v": 83, 
                            "dur": 23, 
                            "type": "note", 
                            "channel": 10
                        }
                    ]
                ], 
                [
                    24236, 
                    [
                        {
                            "pitch": 57, 
                            "t0": 24236, 
                            "v": 97, 
                            "dur": 29, 
                            "type": "note", 
                            "channel": 10
                        }
                    ]
                ], 
                [
                    24249, 
                    [
                        {
                            "pitch": 58, 
                            "t0": 24249, 
                            "v": 55, 
                            "dur": 118, 
                            "type": "note", 
                            "channel": 10
                        }
                    ]
                ], 
                [
                    24363, 
                    [
                        {
                            "pitch": 57, 
                            "t0": 24363, 
                            "v": 79, 
                            "dur": 131, 
                            "type": "note", 
                            "channel": 10
                        }
                    ]
                ], 
                [
                    24488, 
                    [
                        {
                            "pitch": 55, 
                            "t0": 24488, 
                            "v": 73, 
                            "dur": 88, 
                            "type": "note", 
                            "channel": 10
                        }
                    ]
                ], 
                [
                    24575, 
                    [
                        {
                            "pitch": 50, 
                            "t0": 24575, 
                            "v": 66, 
                            "dur": 462, 
                            "type": "note", 
                            "channel": 10
                        }
                    ]
                ], 
                [
                    25078, 
                    [
                        {
                            "pitch": 55, 
                            "t0": 25078, 
                            "v": 97, 
                            "dur": 74, 
                            "type": "note", 
                            "channel": 10
                        }
                    ]
                ], 
                [
                    25160, 
                    [
                        {
                            "pitch": 52, 
                            "t0": 25160, 
                            "v": 80, 
                            "dur": 23, 
                            "type": "note", 
                            "channel": 10
                        }
                    ]
                ], 
                [
                    25196, 
                    [
                        {
                            "pitch": 55, 
                            "t0": 25196, 
                            "v": 102, 
                            "dur": 47, 
                            "type": "note", 
                            "channel": 10
                        }
                    ]
                ], 
                [
                    25320, 
                    [
                        {
                            "pitch": 55, 
                            "t0": 25320, 
                            "v": 98, 
                            "dur": 67, 
                            "type": "note", 
                            "channel": 10
                        }
                    ]
                ], 
                [
                    25400, 
                    [
                        {
                            "pitch": 52, 
                            "t0": 25400, 
                            "v": 83, 
                            "dur": 23, 
                            "type": "note", 
                            "channel": 10
                        }
                    ]
                ], 
                [
                    25439, 
                    [
                        {
                            "pitch": 57, 
                            "t0": 25439, 
                            "v": 95, 
                            "dur": 24, 
                            "type": "note", 
                            "channel": 10
                        }
                    ]
                ], 
                [
                    25446, 
                    [
                        {
                            "pitch": 59, 
                            "t0": 25446, 
                            "v": 91, 
                            "dur": 65, 
                            "type": "note", 
                            "channel": 10
                        }
                    ]
                ], 
                [
                    25518, 
                    [
                        {
                            "pitch": 57, 
                            "t0": 25518, 
                            "v": 91, 
                            "dur": 503, 
                            "type": "note", 
                            "channel": 10
                        }
                    ]
                ], 
                [
                    26036, 
                    [
                        {
                            "pitch": 57, 
                            "t0": 26036, 
                            "v": 86, 
                            "dur": 71, 
                            "type": "note", 
                            "channel": 10
                        }
                    ]
                ], 
                [
                    26116, 
                    [
                        {
                            "pitch": 57, 
                            "t0": 26116, 
                            "v": 80, 
                            "dur": 23, 
                            "type": "note", 
                            "channel": 10
                        }
                    ]
                ], 
                [
                    26155, 
                    [
                        {
                            "pitch": 59, 
                            "t0": 26155, 
                            "v": 110, 
                            "dur": 70, 
                            "type": "note", 
                            "channel": 10
                        }
                    ]
                ], 
                [
                    26235, 
                    [
                        {
                            "pitch": 57, 
                            "t0": 26235, 
                            "v": 90, 
                            "dur": 51, 
                            "type": "note", 
                            "channel": 10
                        }
                    ]
                ], 
                [
                    26633, 
                    [
                        {
                            "pitch": 53, 
                            "t0": 26633, 
                            "v": 77, 
                            "dur": 27, 
                            "type": "note", 
                            "channel": 10
                        }
                    ]
                ], 
                [
                    26643, 
                    [
                        {
                            "pitch": 54, 
                            "t0": 26643, 
                            "v": 110, 
                            "dur": 75, 
                            "type": "note", 
                            "channel": 10
                        }
                    ]
                ], 
                [
                    26727, 
                    [
                        {
                            "pitch": 57, 
                            "t0": 26727, 
                            "v": 95, 
                            "dur": 81, 
                            "type": "note", 
                            "channel": 10
                        }
                    ]
                ], 
                [
                    26816, 
                    [
                        {
                            "pitch": 54, 
                            "t0": 26816, 
                            "v": 84, 
                            "dur": 29, 
                            "type": "note", 
                            "channel": 10
                        }
                    ]
                ], 
                [
                    26845, 
                    [
                        {
                            "pitch": 52, 
                            "t0": 26845, 
                            "v": 95, 
                            "dur": 36, 
                            "type": "note", 
                            "channel": 10
                        }
                    ]
                ], 
                [
                    26879, 
                    [
                        {
                            "pitch": 50, 
                            "t0": 26879, 
                            "v": 98, 
                            "dur": 56, 
                            "type": "note", 
                            "channel": 10
                        }
                    ]
                ], 
                [
                    26999, 
                    [
                        {
                            "pitch": 64, 
                            "t0": 26999, 
                            "v": 112, 
                            "dur": 76, 
                            "type": "note", 
                            "channel": 10
                        }
                    ]
                ], 
                [
                    27080, 
                    [
                        {
                            "pitch": 62, 
                            "t0": 27080, 
                            "v": 94, 
                            "dur": 21, 
                            "type": "note", 
                            "channel": 10
                        }
                    ]
                ], 
                [
                    27117, 
                    [
                        {
                            "pitch": 64, 
                            "t0": 27117, 
                            "v": 120, 
                            "dur": 75, 
                            "type": "note", 
                            "channel": 10
                        }
                    ]
                ], 
                [
                    27204, 
                    [
                        {
                            "pitch": 62, 
                            "t0": 27204, 
                            "v": 92, 
                            "dur": 22, 
                            "type": "note", 
                            "channel": 10
                        }
                    ]
                ], 
                [
                    27242, 
                    [
                        {
                            "pitch": 64, 
                            "t0": 27242, 
                            "v": 127, 
                            "dur": 72, 
                            "type": "note", 
                            "channel": 10
                        }
                    ]
                ], 
                [
                    27323, 
                    [
                        {
                            "pitch": 62, 
                            "t0": 27323, 
                            "v": 106, 
                            "dur": 19, 
                            "type": "note", 
                            "channel": 10
                        }
                    ]
                ], 
                [
                    27356, 
                    [
                        {
                            "pitch": 67, 
                            "t0": 27356, 
                            "v": 127, 
                            "dur": 117, 
                            "type": "note", 
                            "channel": 10
                        }
                    ]
                ], 
                [
                    27482, 
                    [
                        {
                            "pitch": 64, 
                            "t0": 27482, 
                            "v": 117, 
                            "dur": 38, 
                            "type": "note", 
                            "channel": 10
                        }
                    ]
                ], 
                [
                    27543, 
                    [
                        {
                            "pitch": 57, 
                            "t0": 27543, 
                            "v": 110, 
                            "dur": 69, 
                            "type": "note", 
                            "channel": 10
                        }
                    ]
                ], 
                [
                    27612, 
                    [
                        {
                            "pitch": 55, 
                            "t0": 27612, 
                            "v": 97, 
                            "dur": 335, 
                            "type": "note", 
                            "channel": 10
                        }
                    ]
                ], 
                [
                    27958, 
                    [
                        {
                            "pitch": 50, 
                            "t0": 27958, 
                            "v": 104, 
                            "dur": 33, 
                            "type": "note", 
                            "channel": 10
                        }
                    ]
                ], 
                [
                    28040, 
                    [
                        {
                            "pitch": 48, 
                            "t0": 28040, 
                            "v": 86, 
                            "dur": 11, 
                            "type": "note", 
                            "channel": 10
                        }, 
                        {
                            "pitch": 50, 
                            "t0": 28040, 
                            "v": 78, 
                            "dur": 15, 
                            "type": "note", 
                            "channel": 10
                        }
                    ]
                ], 
                [
                    28074, 
                    [
                        {
                            "pitch": 52, 
                            "t0": 28074, 
                            "v": 108, 
                            "dur": 133, 
                            "type": "note", 
                            "channel": 10
                        }
                    ]
                ], 
                [
                    28197, 
                    [
                        {
                            "pitch": 55, 
                            "t0": 28197, 
                            "v": 100, 
                            "dur": 109, 
                            "type": "note", 
                            "channel": 10
                        }
                    ]
                ], 
                [
                    28312, 
                    [
                        {
                            "pitch": 57, 
                            "t0": 28312, 
                            "v": 94, 
                            "dur": 76, 
                            "type": "note", 
                            "channel": 10
                        }
                    ]
                ], 
                [
                    28387, 
                    [
                        {
                            "pitch": 55, 
                            "t0": 28387, 
                            "v": 84, 
                            "dur": 401, 
                            "type": "note", 
                            "channel": 10
                        }
                    ]
                ], 
                [
                    28909, 
                    [
                        {
                            "pitch": 64, 
                            "t0": 28909, 
                            "v": 127, 
                            "dur": 112, 
                            "type": "note", 
                            "channel": 10
                        }
                    ]
                ], 
                [
                    29037, 
                    [
                        {
                            "pitch": 64, 
                            "t0": 29037, 
                            "v": 108, 
                            "dur": 119, 
                            "type": "note", 
                            "channel": 10
                        }
                    ]
                ], 
                [
                    29163, 
                    [
                        {
                            "pitch": 62, 
                            "t0": 29163, 
                            "v": 112, 
                            "dur": 102, 
                            "type": "note", 
                            "channel": 10
                        }
                    ]
                ], 
                [
                    29279, 
                    [
                        {
                            "pitch": 62, 
                            "t0": 29279, 
                            "v": 95, 
                            "dur": 69, 
                            "type": "note", 
                            "channel": 10
                        }
                    ]
                ], 
                [
                    29341, 
                    [
                        {
                            "pitch": 57, 
                            "t0": 29341, 
                            "v": 102, 
                            "dur": 47, 
                            "type": "note", 
                            "channel": 10
                        }
                    ]
                ], 
                [
                    29393, 
                    [
                        {
                            "pitch": 55, 
                            "t0": 29393, 
                            "v": 100, 
                            "dur": 424, 
                            "type": "note", 
                            "channel": 10
                        }
                    ]
                ], 
                [
                    29839, 
                    [
                        {
                            "pitch": 55, 
                            "t0": 29839, 
                            "v": 94, 
                            "dur": 26, 
                            "type": "note", 
                            "channel": 10
                        }
                    ]
                ], 
                [
                    29878, 
                    [
                        {
                            "pitch": 57, 
                            "t0": 29878, 
                            "v": 117, 
                            "dur": 68, 
                            "type": "note", 
                            "channel": 10
                        }
                    ]
                ], 
                [
                    29957, 
                    [
                        {
                            "pitch": 55, 
                            "t0": 29957, 
                            "v": 95, 
                            "dur": 23, 
                            "type": "note", 
                            "channel": 10
                        }
                    ]
                ], 
                [
                    29995, 
                    [
                        {
                            "pitch": 62, 
                            "t0": 29995, 
                            "v": 108, 
                            "dur": 65, 
                            "type": "note", 
                            "channel": 10
                        }
                    ]
                ], 
                [
                    30069, 
                    [
                        {
                            "pitch": 57, 
                            "t0": 30069, 
                            "v": 106, 
                            "dur": 158, 
                            "type": "note", 
                            "channel": 10
                        }
                    ]
                ], 
                [
                    30234, 
                    [
                        {
                            "pitch": 55, 
                            "t0": 30234, 
                            "v": 94, 
                            "dur": 389, 
                            "type": "note", 
                            "channel": 10
                        }
                    ]
                ], 
                [
                    30788, 
                    [
                        {
                            "pitch": 62, 
                            "t0": 30788, 
                            "v": 125, 
                            "dur": 145, 
                            "type": "note", 
                            "channel": 10
                        }
                    ]
                ], 
                [
                    30949, 
                    [
                        {
                            "pitch": 62, 
                            "t0": 30949, 
                            "v": 127, 
                            "dur": 120, 
                            "type": "note", 
                            "channel": 10
                        }
                    ]
                ], 
                [
                    31071, 
                    [
                        {
                            "pitch": 57, 
                            "t0": 31071, 
                            "v": 106, 
                            "dur": 126, 
                            "type": "note", 
                            "channel": 10
                        }
                    ]
                ], 
                [
                    31202, 
                    [
                        {
                            "pitch": 55, 
                            "t0": 31202, 
                            "v": 114, 
                            "dur": 85, 
                            "type": "note", 
                            "channel": 10
                        }
                    ]
                ], 
                [
                    31275, 
                    [
                        {
                            "pitch": 59, 
                            "t0": 31275, 
                            "v": 127, 
                            "dur": 45, 
                            "type": "note", 
                            "channel": 10
                        }
                    ]
                ], 
                [
                    31317, 
                    [
                        {
                            "pitch": 57, 
                            "t0": 31317, 
                            "v": 91, 
                            "dur": 10, 
                            "type": "note", 
                            "channel": 10
                        }
                    ]
                ], 
                [
                    31321, 
                    [
                        {
                            "pitch": 55, 
                            "t0": 31321, 
                            "v": 92, 
                            "dur": 15, 
                            "type": "note", 
                            "channel": 10
                        }
                    ]
                ], 
                [
                    31329, 
                    [
                        {
                            "pitch": 53, 
                            "t0": 31329, 
                            "v": 122, 
                            "dur": 11, 
                            "type": "note", 
                            "channel": 10
                        }
                    ]
                ], 
                [
                    31334, 
                    [
                        {
                            "pitch": 52, 
                            "t0": 31334, 
                            "v": 106, 
                            "dur": 6, 
                            "type": "note", 
                            "channel": 10
                        }
                    ]
                ], 
                [
                    31336, 
                    [
                        {
                            "pitch": 57, 
                            "t0": 31336, 
                            "v": 65, 
                            "dur": 4, 
                            "type": "note", 
                            "channel": 10
                        }
                    ]
                ], 
                [
                    31338, 
                    [
                        {
                            "pitch": 50, 
                            "t0": 31338, 
                            "v": 112, 
                            "dur": 5, 
                            "type": "note", 
                            "channel": 10
                        }
                    ]
                ], 
                [
                    31342, 
                    [
                        {
                            "pitch": 48, 
                            "t0": 31342, 
                            "v": 114, 
                            "dur": 5, 
                            "type": "note", 
                            "channel": 10
                        }
                    ]
                ], 
                [
                    31346, 
                    [
                        {
                            "pitch": 47, 
                            "t0": 31346, 
                            "v": 114, 
                            "dur": 5, 
                            "type": "note", 
                            "channel": 10
                        }
                    ]
                ], 
                [
                    31351, 
                    [
                        {
                            "pitch": 45, 
                            "t0": 31351, 
                            "v": 108, 
                            "dur": 10, 
                            "type": "note", 
                            "channel": 10
                        }
                    ]
                ], 
                [
                    31353, 
                    [
                        {
                            "pitch": 48, 
                            "t0": 31353, 
                            "v": 76, 
                            "dur": 7, 
                            "type": "note", 
                            "channel": 10
                        }
                    ]
                ], 
                [
                    31355, 
                    [
                        {
                            "pitch": 43, 
                            "t0": 31355, 
                            "v": 104, 
                            "dur": 12, 
                            "type": "note", 
                            "channel": 10
                        }
                    ]
                ], 
                [
                    31361, 
                    [
                        {
                            "pitch": 41, 
                            "t0": 31361, 
                            "v": 94, 
                            "dur": 14, 
                            "type": "note", 
                            "channel": 10
                        }
                    ]
                ], 
                [
                    31369, 
                    [
                        {
                            "pitch": 40, 
                            "t0": 31369, 
                            "v": 108, 
                            "dur": 13, 
                            "type": "note", 
                            "channel": 10
                        }
                    ]
                ], 
                [
                    31374, 
                    [
                        {
                            "pitch": 43, 
                            "t0": 31374, 
                            "v": 65, 
                            "dur": 5, 
                            "type": "note", 
                            "channel": 10
                        }
                    ]
                ], 
                [
                    31378, 
                    [
                        {
                            "pitch": 38, 
                            "t0": 31378, 
                            "v": 88, 
                            "dur": 13, 
                            "type": "note", 
                            "channel": 10
                        }
                    ]
                ], 
                [
                    31389, 
                    [
                        {
                            "pitch": 36, 
                            "t0": 31389, 
                            "v": 87, 
                            "dur": 18, 
                            "type": "note", 
                            "channel": 10
                        }
                    ]
                ], 
                [
                    31397, 
                    [
                        {
                            "pitch": 35, 
                            "t0": 31397, 
                            "v": 83, 
                            "dur": 23, 
                            "type": "note", 
                            "channel": 10
                        }
                    ]
                ], 
                [
                    31759, 
                    [
                        {
                            "pitch": 50, 
                            "t0": 31759, 
                            "v": 102, 
                            "dur": 22, 
                            "type": "note", 
                            "channel": 10
                        }
                    ]
                ], 
                [
                    31792, 
                    [
                        {
                            "pitch": 50, 
                            "t0": 31792, 
                            "v": 85, 
                            "dur": 71, 
                            "type": "note", 
                            "channel": 10
                        }
                    ]
                ], 
                [
                    31877, 
                    [
                        {
                            "pitch": 50, 
                            "t0": 31877, 
                            "v": 92, 
                            "dur": 19, 
                            "type": "note", 
                            "channel": 10
                        }
                    ]
                ], 
                [
                    31913, 
                    [
                        {
                            "pitch": 52, 
                            "t0": 31913, 
                            "v": 110, 
                            "dur": 110, 
                            "type": "note", 
                            "channel": 10
                        }
                    ]
                ], 
                [
                    32031, 
                    [
                        {
                            "pitch": 55, 
                            "t0": 32031, 
                            "v": 120, 
                            "dur": 52, 
                            "type": "note", 
                            "channel": 10
                        }
                    ]
                ], 
                [
                    32099, 
                    [
                        {
                            "pitch": 57, 
                            "t0": 32099, 
                            "v": 125, 
                            "dur": 68, 
                            "type": "note", 
                            "channel": 10
                        }
                    ]
                ], 
                [
                    32163, 
                    [
                        {
                            "pitch": 55, 
                            "t0": 32163, 
                            "v": 114, 
                            "dur": 538, 
                            "type": "note", 
                            "channel": 10
                        }
                    ]
                ], 
                [
                    32710, 
                    [
                        {
                            "pitch": 55, 
                            "t0": 32710, 
                            "v": 68, 
                            "dur": 13, 
                            "type": "note", 
                            "channel": 10
                        }, 
                        {
                            "pitch": 64, 
                            "t0": 32710, 
                            "v": 127, 
                            "dur": 152, 
                            "type": "note", 
                            "channel": 10
                        }
                    ]
                ], 
                [
                    32874, 
                    [
                        {
                            "pitch": 64, 
                            "t0": 32874, 
                            "v": 98, 
                            "dur": 114, 
                            "type": "note", 
                            "channel": 10
                        }
                    ]
                ], 
                [
                    32879, 
                    [
                        {
                            "pitch": 62, 
                            "t0": 32879, 
                            "v": 90, 
                            "dur": 8, 
                            "type": "note", 
                            "channel": 10
                        }
                    ]
                ], 
                [
                    32996, 
                    [
                        {
                            "pitch": 62, 
                            "t0": 32996, 
                            "v": 120, 
                            "dur": 69, 
                            "type": "note", 
                            "channel": 10
                        }
                    ]
                ], 
                [
                    33072, 
                    [
                        {
                            "pitch": 64, 
                            "t0": 33072, 
                            "v": 86, 
                            "dur": 31, 
                            "type": "note", 
                            "channel": 10
                        }
                    ]
                ], 
                [
                    33110, 
                    [
                        {
                            "pitch": 57, 
                            "t0": 33110, 
                            "v": 114, 
                            "dur": 65, 
                            "type": "note", 
                            "channel": 10
                        }
                    ]
                ], 
                [
                    33173, 
                    [
                        {
                            "pitch": 55, 
                            "t0": 33173, 
                            "v": 97, 
                            "dur": 477, 
                            "type": "note", 
                            "channel": 10
                        }
                    ]
                ], 
                [
                    33664, 
                    [
                        {
                            "pitch": 55, 
                            "t0": 33664, 
                            "v": 114, 
                            "dur": 43, 
                            "type": "note", 
                            "channel": 10
                        }
                    ]
                ], 
                [
                    33797, 
                    [
                        {
                            "pitch": 55, 
                            "t0": 33797, 
                            "v": 86, 
                            "dur": 21, 
                            "type": "note", 
                            "channel": 10
                        }
                    ]
                ], 
                [
                    33834, 
                    [
                        {
                            "pitch": 57, 
                            "t0": 33834, 
                            "v": 120, 
                            "dur": 115, 
                            "type": "note", 
                            "channel": 10
                        }
                    ]
                ], 
                [
                    33960, 
                    [
                        {
                            "pitch": 57, 
                            "t0": 33960, 
                            "v": 91, 
                            "dur": 97, 
                            "type": "note", 
                            "channel": 10
                        }
                    ]
                ], 
                [
                    34067, 
                    [
                        {
                            "pitch": 52, 
                            "t0": 34067, 
                            "v": 108, 
                            "dur": 54, 
                            "type": "note", 
                            "channel": 10
                        }
                    ]
                ], 
                [
                    34125, 
                    [
                        {
                            "pitch": 50, 
                            "t0": 34125, 
                            "v": 106, 
                            "dur": 357, 
                            "type": "note", 
                            "channel": 10
                        }
                    ]
                ], 
                [
                    34630, 
                    [
                        {
                            "pitch": 64, 
                            "t0": 34630, 
                            "v": 127, 
                            "dur": 117, 
                            "type": "note", 
                            "channel": 10
                        }
                    ]
                ], 
                [
                    34751, 
                    [
                        {
                            "pitch": 62, 
                            "t0": 34751, 
                            "v": 98, 
                            "dur": 22, 
                            "type": "note", 
                            "channel": 10
                        }
                    ]
                ], 
                [
                    34793, 
                    [
                        {
                            "pitch": 64, 
                            "t0": 34793, 
                            "v": 127, 
                            "dur": 116, 
                            "type": "note", 
                            "channel": 10
                        }
                    ]
                ], 
                [
                    34922, 
                    [
                        {
                            "pitch": 64, 
                            "t0": 34922, 
                            "v": 102, 
                            "dur": 123, 
                            "type": "note", 
                            "channel": 10
                        }
                    ]
                ], 
                [
                    34929, 
                    [
                        {
                            "pitch": 62, 
                            "t0": 34929, 
                            "v": 77, 
                            "dur": 15, 
                            "type": "note", 
                            "channel": 10
                        }
                    ]
                ], 
                [
                    35038, 
                    [
                        {
                            "pitch": 57, 
                            "t0": 35038, 
                            "v": 108, 
                            "dur": 53, 
                            "type": "note", 
                            "channel": 10
                        }
                    ]
                ], 
                [
                    35092, 
                    [
                        {
                            "pitch": 55, 
                            "t0": 35092, 
                            "v": 108, 
                            "dur": 502, 
                            "type": "note", 
                            "channel": 10
                        }
                    ]
                ], 
                [
                    35601, 
                    [
                        {
                            "pitch": 50, 
                            "t0": 35601, 
                            "v": 127, 
                            "dur": 22, 
                            "type": "note", 
                            "channel": 10
                        }
                    ]
                ], 
                [
                    35720, 
                    [
                        {
                            "pitch": 50, 
                            "t0": 35720, 
                            "v": 100, 
                            "dur": 16, 
                            "type": "note", 
                            "channel": 10
                        }
                    ]
                ], 
                [
                    35727, 
                    [
                        {
                            "pitch": 56, 
                            "t0": 35727, 
                            "v": 55, 
                            "dur": 6, 
                            "type": "note", 
                            "channel": 10
                        }
                    ]
                ], 
                [
                    35757, 
                    [
                        {
                            "pitch": 52, 
                            "t0": 35757, 
                            "v": 114, 
                            "dur": 134, 
                            "type": "note", 
                            "channel": 10
                        }
                    ]
                ], 
                [
                    35884, 
                    [
                        {
                            "pitch": 55, 
                            "t0": 35884, 
                            "v": 110, 
                            "dur": 57, 
                            "type": "note", 
                            "channel": 10
                        }
                    ]
                ], 
                [
                    35956, 
                    [
                        {
                            "pitch": 57, 
                            "t0": 35956, 
                            "v": 120, 
                            "dur": 52, 
                            "type": "note", 
                            "channel": 10
                        }
                    ]
                ], 
                [
                    36011, 
                    [
                        {
                            "pitch": 55, 
                            "t0": 36011, 
                            "v": 90, 
                            "dur": 533, 
                            "type": "note", 
                            "channel": 10
                        }
                    ]
                ], 
                [
                    36552, 
                    [
                        {
                            "pitch": 64, 
                            "t0": 36552, 
                            "v": 127, 
                            "dur": 150, 
                            "type": "note", 
                            "channel": 10
                        }
                    ]
                ], 
                [
                    36715, 
                    [
                        {
                            "pitch": 64, 
                            "t0": 36715, 
                            "v": 122, 
                            "dur": 117, 
                            "type": "note", 
                            "channel": 10
                        }
                    ]
                ], 
                [
                    36842, 
                    [
                        {
                            "pitch": 62, 
                            "t0": 36842, 
                            "v": 125, 
                            "dur": 108, 
                            "type": "note", 
                            "channel": 10
                        }
                    ]
                ], 
                [
                    36959, 
                    [
                        {
                            "pitch": 62, 
                            "t0": 36959, 
                            "v": 64, 
                            "dur": 196, 
                            "type": "note", 
                            "channel": 10
                        }
                    ]
                ], 
                [
                    37152, 
                    [
                        {
                            "pitch": 57, 
                            "t0": 37152, 
                            "v": 114, 
                            "dur": 57, 
                            "type": "note", 
                            "channel": 10
                        }
                    ]
                ], 
                [
                    37207, 
                    [
                        {
                            "pitch": 55, 
                            "t0": 37207, 
                            "v": 100, 
                            "dur": 267, 
                            "type": "note", 
                            "channel": 10
                        }
                    ]
                ], 
                [
                    37498, 
                    [
                        {
                            "pitch": 55, 
                            "t0": 37498, 
                            "v": 100, 
                            "dur": 32, 
                            "type": "note", 
                            "channel": 10
                        }
                    ]
                ], 
                [
                    37544, 
                    [
                        {
                            "pitch": 57, 
                            "t0": 37544, 
                            "v": 117, 
                            "dur": 81, 
                            "type": "note", 
                            "channel": 10
                        }
                    ]
                ], 
                [
                    37635, 
                    [
                        {
                            "pitch": 55, 
                            "t0": 37635, 
                            "v": 100, 
                            "dur": 24, 
                            "type": "note", 
                            "channel": 10
                        }
                    ]
                ], 
                [
                    37673, 
                    [
                        {
                            "pitch": 62, 
                            "t0": 37673, 
                            "v": 117, 
                            "dur": 71, 
                            "type": "note", 
                            "channel": 10
                        }
                    ]
                ], 
                [
                    37750, 
                    [
                        {
                            "pitch": 57, 
                            "t0": 37750, 
                            "v": 110, 
                            "dur": 161, 
                            "type": "note", 
                            "channel": 10
                        }
                    ]
                ], 
                [
                    37918, 
                    [
                        {
                            "pitch": 55, 
                            "t0": 37918, 
                            "v": 100, 
                            "dur": 515, 
                            "type": "note", 
                            "channel": 10
                        }
                    ]
                ], 
                [
                    39003, 
                    [
                        {
                            "pitch": 52, 
                            "t0": 39003, 
                            "v": 86, 
                            "dur": 78, 
                            "type": "note", 
                            "channel": 10
                        }
                    ]
                ], 
                [
                    39076, 
                    [
                        {
                            "pitch": 55, 
                            "t0": 39076, 
                            "v": 80, 
                            "dur": 23, 
                            "type": "note", 
                            "channel": 10
                        }
                    ]
                ], 
                [
                    39116, 
                    [
                        {
                            "pitch": 57, 
                            "t0": 39116, 
                            "v": 91, 
                            "dur": 80, 
                            "type": "note", 
                            "channel": 10
                        }
                    ]
                ], 
                [
                    39198, 
                    [
                        {
                            "pitch": 55, 
                            "t0": 39198, 
                            "v": 80, 
                            "dur": 59, 
                            "type": "note", 
                            "channel": 10
                        }
                    ]
                ], 
                [
                    39317, 
                    [
                        {
                            "pitch": 57, 
                            "t0": 39317, 
                            "v": 84, 
                            "dur": 140, 
                            "type": "note", 
                            "channel": 10
                        }
                    ]
                ], 
                [
                    39458, 
                    [
                        {
                            "pitch": 55, 
                            "t0": 39458, 
                            "v": 72, 
                            "dur": 27, 
                            "type": "note", 
                            "channel": 10
                        }
                    ]
                ], 
                [
                    39486, 
                    [
                        {
                            "pitch": 57, 
                            "t0": 39486, 
                            "v": 86, 
                            "dur": 69, 
                            "type": "note", 
                            "channel": 10
                        }
                    ]
                ], 
                [
                    39562, 
                    [
                        {
                            "pitch": 55, 
                            "t0": 39562, 
                            "v": 70, 
                            "dur": 20, 
                            "type": "note", 
                            "channel": 10
                        }
                    ]
                ], 
                [
                    39597, 
                    [
                        {
                            "pitch": 57, 
                            "t0": 39597, 
                            "v": 85, 
                            "dur": 75, 
                            "type": "note", 
                            "channel": 10
                        }
                    ]
                ], 
                [
                    39678, 
                    [
                        {
                            "pitch": 55, 
                            "t0": 39678, 
                            "v": 69, 
                            "dur": 17, 
                            "type": "note", 
                            "channel": 10
                        }
                    ]
                ], 
                [
                    39713, 
                    [
                        {
                            "pitch": 57, 
                            "t0": 39713, 
                            "v": 84, 
                            "dur": 129, 
                            "type": "note", 
                            "channel": 10
                        }
                    ]
                ], 
                [
                    39842, 
                    [
                        {
                            "pitch": 55, 
                            "t0": 39842, 
                            "v": 83, 
                            "dur": 84, 
                            "type": "note", 
                            "channel": 10
                        }
                    ]
                ], 
                [
                    39930, 
                    [
                        {
                            "pitch": 50, 
                            "t0": 39930, 
                            "v": 76, 
                            "dur": 454, 
                            "type": "note", 
                            "channel": 10
                        }
                    ]
                ], 
                [
                    40393, 
                    [
                        {
                            "pitch": 55, 
                            "t0": 40393, 
                            "v": 112, 
                            "dur": 124, 
                            "type": "note", 
                            "channel": 10
                        }
                    ]
                ], 
                [
                    40522, 
                    [
                        {
                            "pitch": 52, 
                            "t0": 40522, 
                            "v": 87, 
                            "dur": 26, 
                            "type": "note", 
                            "channel": 10
                        }
                    ]
                ], 
                [
                    40560, 
                    [
                        {
                            "pitch": 55, 
                            "t0": 40560, 
                            "v": 120, 
                            "dur": 56, 
                            "type": "note", 
                            "channel": 10
                        }
                    ]
                ], 
                [
                    40678, 
                    [
                        {
                            "pitch": 55, 
                            "t0": 40678, 
                            "v": 106, 
                            "dur": 74, 
                            "type": "note", 
                            "channel": 10
                        }
                    ]
                ], 
                [
                    40799, 
                    [
                        {
                            "pitch": 57, 
                            "t0": 40799, 
                            "v": 112, 
                            "dur": 528, 
                            "type": "note", 
                            "channel": 10
                        }
                    ]
                ], 
                [
                    41344, 
                    [
                        {
                            "pitch": 57, 
                            "t0": 41344, 
                            "v": 100, 
                            "dur": 105, 
                            "type": "note", 
                            "channel": 10
                        }
                    ]
                ], 
                [
                    41461, 
                    [
                        {
                            "pitch": 57, 
                            "t0": 41461, 
                            "v": 86, 
                            "dur": 53, 
                            "type": "note", 
                            "channel": 10
                        }
                    ]
                ], 
                [
                    41529, 
                    [
                        {
                            "pitch": 57, 
                            "t0": 41529, 
                            "v": 94, 
                            "dur": 56, 
                            "type": "note", 
                            "channel": 10
                        }
                    ]
                ], 
                [
                    41600, 
                    [
                        {
                            "pitch": 57, 
                            "t0": 41600, 
                            "v": 98, 
                            "dur": 147, 
                            "type": "note", 
                            "channel": 10
                        }
                    ]
                ], 
                [
                    41745, 
                    [
                        {
                            "pitch": 52, 
                            "t0": 41745, 
                            "v": 65, 
                            "dur": 244, 
                            "type": "note", 
                            "channel": 10
                        }
                    ]
                ], 
                [
                    41994, 
                    [
                        {
                            "pitch": 50, 
                            "t0": 41994, 
                            "v": 91, 
                            "dur": 275, 
                            "type": "note", 
                            "channel": 10
                        }
                    ]
                ], 
                [
                    42373, 
                    [
                        {
                            "pitch": 64, 
                            "t0": 42373, 
                            "v": 108, 
                            "dur": 68, 
                            "type": "note", 
                            "channel": 10
                        }
                    ]
                ], 
                [
                    42451, 
                    [
                        {
                            "pitch": 62, 
                            "t0": 42451, 
                            "v": 100, 
                            "dur": 23, 
                            "type": "note", 
                            "channel": 10
                        }
                    ]
                ], 
                [
                    42489, 
                    [
                        {
                            "pitch": 64, 
                            "t0": 42489, 
                            "v": 122, 
                            "dur": 68, 
                            "type": "note", 
                            "channel": 10
                        }
                    ]
                ], 
                [
                    42572, 
                    [
                        {
                            "pitch": 62, 
                            "t0": 42572, 
                            "v": 100, 
                            "dur": 20, 
                            "type": "note", 
                            "channel": 10
                        }
                    ]
                ], 
                [
                    42606, 
                    [
                        {
                            "pitch": 64, 
                            "t0": 42606, 
                            "v": 127, 
                            "dur": 61, 
                            "type": "note", 
                            "channel": 10
                        }
                    ]
                ], 
                [
                    42682, 
                    [
                        {
                            "pitch": 62, 
                            "t0": 42682, 
                            "v": 108, 
                            "dur": 21, 
                            "type": "note", 
                            "channel": 10
                        }
                    ]
                ], 
                [
                    42721, 
                    [
                        {
                            "pitch": 67, 
                            "t0": 42721, 
                            "v": 127, 
                            "dur": 111, 
                            "type": "note", 
                            "channel": 10
                        }
                    ]
                ], 
                [
                    42840, 
                    [
                        {
                            "pitch": 64, 
                            "t0": 42840, 
                            "v": 114, 
                            "dur": 35, 
                            "type": "note", 
                            "channel": 10
                        }
                    ]
                ], 
                [
                    42906, 
                    [
                        {
                            "pitch": 55, 
                            "t0": 42906, 
                            "v": 102, 
                            "dur": 18, 
                            "type": "note", 
                            "channel": 10
                        }, 
                        {
                            "pitch": 57, 
                            "t0": 42906, 
                            "v": 106, 
                            "dur": 83, 
                            "type": "note", 
                            "channel": 10
                        }
                    ]
                ], 
                [
                    42993, 
                    [
                        {
                            "pitch": 55, 
                            "t0": 42993, 
                            "v": 80, 
                            "dur": 318, 
                            "type": "note", 
                            "channel": 10
                        }
                    ]
                ], 
                [
                    43325, 
                    [
                        {
                            "pitch": 50, 
                            "t0": 43325, 
                            "v": 100, 
                            "dur": 25, 
                            "type": "note", 
                            "channel": 10
                        }
                    ]
                ], 
                [
                    43408, 
                    [
                        {
                            "pitch": 50, 
                            "t0": 43408, 
                            "v": 68, 
                            "dur": 13, 
                            "type": "note", 
                            "channel": 10
                        }
                    ]
                ], 
                [
                    43410, 
                    [
                        {
                            "pitch": 48, 
                            "t0": 43410, 
                            "v": 71, 
                            "dur": 7, 
                            "type": "note", 
                            "channel": 10
                        }
                    ]
                ], 
                [
                    43438, 
                    [
                        {
                            "pitch": 52, 
                            "t0": 43438, 
                            "v": 106, 
                            "dur": 117, 
                            "type": "note", 
                            "channel": 10
                        }
                    ]
                ], 
                [
                    43558, 
                    [
                        {
                            "pitch": 55, 
                            "t0": 43558, 
                            "v": 94, 
                            "dur": 45, 
                            "type": "note", 
                            "channel": 10
                        }
                    ]
                ], 
                [
                    43671, 
                    [
                        {
                            "pitch": 57, 
                            "t0": 43671, 
                            "v": 90, 
                            "dur": 90, 
                            "type": "note", 
                            "channel": 10
                        }
                    ]
                ], 
                [
                    43764, 
                    [
                        {
                            "pitch": 55, 
                            "t0": 43764, 
                            "v": 87, 
                            "dur": 459, 
                            "type": "note", 
                            "channel": 10
                        }
                    ]
                ], 
                [
                    44228, 
                    [
                        {
                            "pitch": 64, 
                            "t0": 44228, 
                            "v": 127, 
                            "dur": 150, 
                            "type": "note", 
                            "channel": 10
                        }
                    ]
                ], 
                [
                    44391, 
                    [
                        {
                            "pitch": 64, 
                            "t0": 44391, 
                            "v": 110, 
                            "dur": 119, 
                            "type": "note", 
                            "channel": 10
                        }
                    ]
                ], 
                [
                    44519, 
                    [
                        {
                            "pitch": 62, 
                            "t0": 44519, 
                            "v": 110, 
                            "dur": 100, 
                            "type": "note", 
                            "channel": 10
                        }
                    ]
                ], 
                [
                    44637, 
                    [
                        {
                            "pitch": 62, 
                            "t0": 44637, 
                            "v": 100, 
                            "dur": 86, 
                            "type": "note", 
                            "channel": 10
                        }
                    ]
                ], 
                [
                    44719, 
                    [
                        {
                            "pitch": 57, 
                            "t0": 44719, 
                            "v": 100, 
                            "dur": 74, 
                            "type": "note", 
                            "channel": 10
                        }
                    ]
                ], 
                [
                    44794, 
                    [
                        {
                            "pitch": 55, 
                            "t0": 44794, 
                            "v": 95, 
                            "dur": 381, 
                            "type": "note", 
                            "channel": 10
                        }
                    ]
                ], 
                [
                    45201, 
                    [
                        {
                            "pitch": 55, 
                            "t0": 45201, 
                            "v": 73, 
                            "dur": 28, 
                            "type": "note", 
                            "channel": 10
                        }
                    ]
                ], 
                [
                    45237, 
                    [
                        {
                            "pitch": 57, 
                            "t0": 45237, 
                            "v": 97, 
                            "dur": 63, 
                            "type": "note", 
                            "channel": 10
                        }
                    ]
                ], 
                [
                    45314, 
                    [
                        {
                            "pitch": 55, 
                            "t0": 45314, 
                            "v": 90, 
                            "dur": 23, 
                            "type": "note", 
                            "channel": 10
                        }
                    ]
                ], 
                [
                    45357, 
                    [
                        {
                            "pitch": 62, 
                            "t0": 45357, 
                            "v": 95, 
                            "dur": 65, 
                            "type": "note", 
                            "channel": 10
                        }
                    ]
                ], 
                [
                    45429, 
                    [
                        {
                            "pitch": 57, 
                            "t0": 45429, 
                            "v": 97, 
                            "dur": 158, 
                            "type": "note", 
                            "channel": 10
                        }
                    ]
                ], 
                [
                    45594, 
                    [
                        {
                            "pitch": 55, 
                            "t0": 45594, 
                            "v": 81, 
                            "dur": 469, 
                            "type": "note", 
                            "channel": 10
                        }
                    ]
                ], 
                [
                    54130, 
                    [
                        {
                            "pitch": 59, 
                            "t0": 54130, 
                            "v": 92, 
                            "dur": 72, 
                            "type": "note", 
                            "channel": 10
                        }
                    ]
                ], 
                [
                    54205, 
                    [
                        {
                            "pitch": 52, 
                            "t0": 54205, 
                            "v": 68, 
                            "dur": 31, 
                            "type": "note", 
                            "channel": 10
                        }
                    ]
                ], 
                [
                    54257, 
                    [
                        {
                            "pitch": 52, 
                            "t0": 54257, 
                            "v": 74, 
                            "dur": 68, 
                            "type": "note", 
                            "channel": 10
                        }
                    ]
                ], 
                [
                    54317, 
                    [
                        {
                            "pitch": 55, 
                            "t0": 54317, 
                            "v": 90, 
                            "dur": 475, 
                            "type": "note", 
                            "channel": 10
                        }
                    ]
                ], 
                [
                    54794, 
                    [
                        {
                            "pitch": 52, 
                            "t0": 54794, 
                            "v": 79, 
                            "dur": 33, 
                            "type": "note", 
                            "channel": 10
                        }
                    ]
                ], 
                [
                    54838, 
                    [
                        {
                            "pitch": 55, 
                            "t0": 54838, 
                            "v": 104, 
                            "dur": 73, 
                            "type": "note", 
                            "channel": 10
                        }
                    ]
                ], 
                [
                    54918, 
                    [
                        {
                            "pitch": 52, 
                            "t0": 54918, 
                            "v": 86, 
                            "dur": 20, 
                            "type": "note", 
                            "channel": 10
                        }
                    ]
                ], 
                [
                    54952, 
                    [
                        {
                            "pitch": 57, 
                            "t0": 54952, 
                            "v": 100, 
                            "dur": 200, 
                            "type": "note", 
                            "channel": 10
                        }
                    ]
                ], 
                [
                    55152, 
                    [
                        {
                            "pitch": 55, 
                            "t0": 55152, 
                            "v": 91, 
                            "dur": 123, 
                            "type": "note", 
                            "channel": 10
                        }
                    ]
                ], 
                [
                    55266, 
                    [
                        {
                            "pitch": 50, 
                            "t0": 55266, 
                            "v": 80, 
                            "dur": 506, 
                            "type": "note", 
                            "channel": 10
                        }
                    ]
                ], 
                [
                    55795, 
                    [
                        {
                            "pitch": 55, 
                            "t0": 55795, 
                            "v": 97, 
                            "dur": 90, 
                            "type": "note", 
                            "channel": 10
                        }
                    ]
                ], 
                [
                    55889, 
                    [
                        {
                            "pitch": 52, 
                            "t0": 55889, 
                            "v": 87, 
                            "dur": 19, 
                            "type": "note", 
                            "channel": 10
                        }
                    ]
                ], 
                [
                    55922, 
                    [
                        {
                            "pitch": 55, 
                            "t0": 55922, 
                            "v": 97, 
                            "dur": 54, 
                            "type": "note", 
                            "channel": 10
                        }
                    ]
                ], 
                [
                    56043, 
                    [
                        {
                            "pitch": 55, 
                            "t0": 56043, 
                            "v": 97, 
                            "dur": 72, 
                            "type": "note", 
                            "channel": 10
                        }
                    ]
                ], 
                [
                    56163, 
                    [
                        {
                            "pitch": 59, 
                            "t0": 56163, 
                            "v": 117, 
                            "dur": 74, 
                            "type": "note", 
                            "channel": 10
                        }
                    ]
                ], 
                [
                    56247, 
                    [
                        {
                            "pitch": 57, 
                            "t0": 56247, 
                            "v": 86, 
                            "dur": 501, 
                            "type": "note", 
                            "channel": 10
                        }
                    ]
                ], 
                [
                    56760, 
                    [
                        {
                            "pitch": 57, 
                            "t0": 56760, 
                            "v": 84, 
                            "dur": 69, 
                            "type": "note", 
                            "channel": 10
                        }
                    ]
                ], 
                [
                    56846, 
                    [
                        {
                            "pitch": 57, 
                            "t0": 56846, 
                            "v": 84, 
                            "dur": 23, 
                            "type": "note", 
                            "channel": 10
                        }
                    ]
                ], 
                [
                    56882, 
                    [
                        {
                            "pitch": 57, 
                            "t0": 56882, 
                            "v": 86, 
                            "dur": 64, 
                            "type": "note", 
                            "channel": 10
                        }
                    ]
                ], 
                [
                    56955, 
                    [
                        {
                            "pitch": 59, 
                            "t0": 56955, 
                            "v": 78, 
                            "dur": 28, 
                            "type": "note", 
                            "channel": 10
                        }
                    ]
                ], 
                [
                    56995, 
                    [
                        {
                            "pitch": 57, 
                            "t0": 56995, 
                            "v": 87, 
                            "dur": 49, 
                            "type": "note", 
                            "channel": 10
                        }
                    ]
                ], 
                [
                    57234, 
                    [
                        {
                            "pitch": 57, 
                            "t0": 57234, 
                            "v": 104, 
                            "dur": 204, 
                            "type": "note", 
                            "channel": 10
                        }
                    ]
                ], 
                [
                    57440, 
                    [
                        {
                            "pitch": 52, 
                            "t0": 57440, 
                            "v": 98, 
                            "dur": 112, 
                            "type": "note", 
                            "channel": 10
                        }
                    ]
                ], 
                [
                    57558, 
                    [
                        {
                            "pitch": 50, 
                            "t0": 57558, 
                            "v": 84, 
                            "dur": 105, 
                            "type": "note", 
                            "channel": 10
                        }
                    ]
                ], 
                [
                    57737, 
                    [
                        {
                            "pitch": 64, 
                            "t0": 57737, 
                            "v": 80, 
                            "dur": 91, 
                            "type": "note", 
                            "channel": 10
                        }
                    ]
                ], 
                [
                    57845, 
                    [
                        {
                            "pitch": 64, 
                            "t0": 57845, 
                            "v": 127, 
                            "dur": 74, 
                            "type": "note", 
                            "channel": 10
                        }
                    ]
                ], 
                [
                    57926, 
                    [
                        {
                            "pitch": 62, 
                            "t0": 57926, 
                            "v": 106, 
                            "dur": 20, 
                            "type": "note", 
                            "channel": 10
                        }
                    ]
                ], 
                [
                    57963, 
                    [
                        {
                            "pitch": 64, 
                            "t0": 57963, 
                            "v": 127, 
                            "dur": 67, 
                            "type": "note", 
                            "channel": 10
                        }
                    ]
                ], 
                [
                    58043, 
                    [
                        {
                            "pitch": 62, 
                            "t0": 58043, 
                            "v": 110, 
                            "dur": 21, 
                            "type": "note", 
                            "channel": 10
                        }
                    ]
                ], 
                [
                    58080, 
                    [
                        {
                            "pitch": 67, 
                            "t0": 58080, 
                            "v": 127, 
                            "dur": 113, 
                            "type": "note", 
                            "channel": 10
                        }
                    ]
                ], 
                [
                    58198, 
                    [
                        {
                            "pitch": 64, 
                            "t0": 58198, 
                            "v": 106, 
                            "dur": 24, 
                            "type": "note", 
                            "channel": 10
                        }
                    ]
                ], 
                [
                    58254, 
                    [
                        {
                            "pitch": 57, 
                            "t0": 58254, 
                            "v": 85, 
                            "dur": 75, 
                            "type": "note", 
                            "channel": 10
                        }
                    ]
                ], 
                [
                    58256, 
                    [
                        {
                            "pitch": 55, 
                            "t0": 58256, 
                            "v": 102, 
                            "dur": 11, 
                            "type": "note", 
                            "channel": 10
                        }
                    ]
                ], 
                [
                    58329, 
                    [
                        {
                            "pitch": 55, 
                            "t0": 58329, 
                            "v": 76, 
                            "dur": 292, 
                            "type": "note", 
                            "channel": 10
                        }
                    ]
                ], 
                [
                    58332, 
                    [
                        {
                            "pitch": 53, 
                            "t0": 58332, 
                            "v": 84, 
                            "dur": 31, 
                            "type": "note", 
                            "channel": 10
                        }
                    ]
                ], 
                [
                    58634, 
                    [
                        {
                            "pitch": 50, 
                            "t0": 58634, 
                            "v": 108, 
                            "dur": 23, 
                            "type": "note", 
                            "channel": 10
                        }
                    ]
                ], 
                [
                    58753, 
                    [
                        {
                            "pitch": 50, 
                            "t0": 58753, 
                            "v": 94, 
                            "dur": 18, 
                            "type": "note", 
                            "channel": 10
                        }
                    ]
                ], 
                [
                    58793, 
                    [
                        {
                            "pitch": 52, 
                            "t0": 58793, 
                            "v": 106, 
                            "dur": 114, 
                            "type": "note", 
                            "channel": 10
                        }
                    ]
                ], 
                [
                    58913, 
                    [
                        {
                            "pitch": 55, 
                            "t0": 58913, 
                            "v": 100, 
                            "dur": 55, 
                            "type": "note", 
                            "channel": 10
                        }
                    ]
                ], 
                [
                    58980, 
                    [
                        {
                            "pitch": 57, 
                            "t0": 58980, 
                            "v": 120, 
                            "dur": 70, 
                            "type": "note", 
                            "channel": 10
                        }
                    ]
                ], 
                [
                    59050, 
                    [
                        {
                            "pitch": 55, 
                            "t0": 59050, 
                            "v": 110, 
                            "dur": 516, 
                            "type": "note", 
                            "channel": 10
                        }
                    ]
                ], 
                [
                    59578, 
                    [
                        {
                            "pitch": 64, 
                            "t0": 59578, 
                            "v": 127, 
                            "dur": 154, 
                            "type": "note", 
                            "channel": 10
                        }
                    ]
                ], 
                [
                    59579, 
                    [
                        {
                            "pitch": 65, 
                            "t0": 59579, 
                            "v": 127, 
                            "dur": 17, 
                            "type": "note", 
                            "channel": 10
                        }
                    ]
                ], 
                [
                    59745, 
                    [
                        {
                            "pitch": 64, 
                            "t0": 59745, 
                            "v": 120, 
                            "dur": 114, 
                            "type": "note", 
                            "channel": 10
                        }
                    ]
                ], 
                [
                    59869, 
                    [
                        {
                            "pitch": 62, 
                            "t0": 59869, 
                            "v": 102, 
                            "dur": 114, 
                            "type": "note", 
                            "channel": 10
                        }
                    ]
                ], 
                [
                    59996, 
                    [
                        {
                            "pitch": 62, 
                            "t0": 59996, 
                            "v": 100, 
                            "dur": 72, 
                            "type": "note", 
                            "channel": 10
                        }
                    ]
                ], 
                [
                    60065, 
                    [
                        {
                            "pitch": 57, 
                            "t0": 60065, 
                            "v": 91, 
                            "dur": 60, 
                            "type": "note", 
                            "channel": 10
                        }
                    ]
                ], 
                [
                    60130, 
                    [
                        {
                            "pitch": 55, 
                            "t0": 60130, 
                            "v": 100, 
                            "dur": 405, 
                            "type": "note", 
                            "channel": 10
                        }
                    ]
                ], 
                [
                    60564, 
                    [
                        {
                            "pitch": 55, 
                            "t0": 60564, 
                            "v": 95, 
                            "dur": 23, 
                            "type": "note", 
                            "channel": 10
                        }
                    ]
                ], 
                [
                    60600, 
                    [
                        {
                            "pitch": 57, 
                            "t0": 60600, 
                            "v": 117, 
                            "dur": 65, 
                            "type": "note", 
                            "channel": 10
                        }
                    ]
                ], 
                [
                    60677, 
                    [
                        {
                            "pitch": 55, 
                            "t0": 60677, 
                            "v": 94, 
                            "dur": 23, 
                            "type": "note", 
                            "channel": 10
                        }
                    ]
                ], 
                [
                    60717, 
                    [
                        {
                            "pitch": 62, 
                            "t0": 60717, 
                            "v": 106, 
                            "dur": 63, 
                            "type": "note", 
                            "channel": 10
                        }
                    ]
                ], 
                [
                    60792, 
                    [
                        {
                            "pitch": 57, 
                            "t0": 60792, 
                            "v": 110, 
                            "dur": 151, 
                            "type": "note", 
                            "channel": 10
                        }
                    ]
                ], 
                [
                    60950, 
                    [
                        {
                            "pitch": 55, 
                            "t0": 60950, 
                            "v": 98, 
                            "dur": 457, 
                            "type": "note", 
                            "channel": 10
                        }
                    ]
                ], 
                [
                    61566, 
                    [
                        {
                            "pitch": 62, 
                            "t0": 61566, 
                            "v": 125, 
                            "dur": 106, 
                            "type": "note", 
                            "channel": 10
                        }
                    ]
                ], 
                [
                    61689, 
                    [
                        {
                            "pitch": 62, 
                            "t0": 61689, 
                            "v": 122, 
                            "dur": 98, 
                            "type": "note", 
                            "channel": 10
                        }
                    ]
                ], 
                [
                    61802, 
                    [
                        {
                            "pitch": 57, 
                            "t0": 61802, 
                            "v": 114, 
                            "dur": 111, 
                            "type": "note", 
                            "channel": 10
                        }
                    ]
                ], 
                [
                    61920, 
                    [
                        {
                            "pitch": 55, 
                            "t0": 61920, 
                            "v": 104, 
                            "dur": 63, 
                            "type": "note", 
                            "channel": 10
                        }
                    ]
                ], 
                [
                    61993, 
                    [
                        {
                            "pitch": 59, 
                            "t0": 61993, 
                            "v": 122, 
                            "dur": 42, 
                            "type": "note", 
                            "channel": 10
                        }
                    ]
                ], 
                [
                    62040, 
                    [
                        {
                            "pitch": 55, 
                            "t0": 62040, 
                            "v": 90, 
                            "dur": 9, 
                            "type": "note", 
                            "channel": 10
                        }
                    ]
                ], 
                [
                    62045, 
                    [
                        {
                            "pitch": 53, 
                            "t0": 62045, 
                            "v": 104, 
                            "dur": 10, 
                            "type": "note", 
                            "channel": 10
                        }
                    ]
                ], 
                [
                    62049, 
                    [
                        {
                            "pitch": 52, 
                            "t0": 62049, 
                            "v": 106, 
                            "dur": 12, 
                            "type": "note", 
                            "channel": 10
                        }
                    ]
                ], 
                [
                    62054, 
                    [
                        {
                            "pitch": 50, 
                            "t0": 62054, 
                            "v": 102, 
                            "dur": 11, 
                            "type": "note", 
                            "channel": 10
                        }
                    ]
                ], 
                [
                    62060, 
                    [
                        {
                            "pitch": 48, 
                            "t0": 62060, 
                            "v": 106, 
                            "dur": 9, 
                            "type": "note", 
                            "channel": 10
                        }
                    ]
                ], 
                [
                    62065, 
                    [
                        {
                            "pitch": 47, 
                            "t0": 62065, 
                            "v": 102, 
                            "dur": 7, 
                            "type": "note", 
                            "channel": 10
                        }
                    ]
                ], 
                [
                    62071, 
                    [
                        {
                            "pitch": 45, 
                            "t0": 62071, 
                            "v": 104, 
                            "dur": 5, 
                            "type": "note", 
                            "channel": 10
                        }
                    ]
                ], 
                [
                    62076, 
                    [
                        {
                            "pitch": 43, 
                            "t0": 62076, 
                            "v": 90, 
                            "dur": 11, 
                            "type": "note", 
                            "channel": 10
                        }
                    ]
                ], 
                [
                    62082, 
                    [
                        {
                            "pitch": 41, 
                            "t0": 62082, 
                            "v": 91, 
                            "dur": 14, 
                            "type": "note", 
                            "channel": 10
                        }
                    ]
                ], 
                [
                    62090, 
                    [
                        {
                            "pitch": 40, 
                            "t0": 62090, 
                            "v": 79, 
                            "dur": 17, 
                            "type": "note", 
                            "channel": 10
                        }
                    ]
                ], 
                [
                    62101, 
                    [
                        {
                            "pitch": 38, 
                            "t0": 62101, 
                            "v": 64, 
                            "dur": 13, 
                            "type": "note", 
                            "channel": 10
                        }
                    ]
                ], 
                [
                    62476, 
                    [
                        {
                            "pitch": 50, 
                            "t0": 62476, 
                            "v": 108, 
                            "dur": 28, 
                            "type": "note", 
                            "channel": 10
                        }
                    ]
                ], 
                [
                    62595, 
                    [
                        {
                            "pitch": 50, 
                            "t0": 62595, 
                            "v": 98, 
                            "dur": 14, 
                            "type": "note", 
                            "channel": 10
                        }
                    ]
                ], 
                [
                    62604, 
                    [
                        {
                            "pitch": 56, 
                            "t0": 62604, 
                            "v": 44, 
                            "dur": 4, 
                            "type": "note", 
                            "channel": 10
                        }
                    ]
                ], 
                [
                    62634, 
                    [
                        {
                            "pitch": 52, 
                            "t0": 62634, 
                            "v": 100, 
                            "dur": 105, 
                            "type": "note", 
                            "channel": 10
                        }
                    ]
                ], 
                [
                    62753, 
                    [
                        {
                            "pitch": 55, 
                            "t0": 62753, 
                            "v": 110, 
                            "dur": 47, 
                            "type": "note", 
                            "channel": 10
                        }
                    ]
                ], 
                [
                    62818, 
                    [
                        {
                            "pitch": 57, 
                            "t0": 62818, 
                            "v": 106, 
                            "dur": 75, 
                            "type": "note", 
                            "channel": 10
                        }
                    ]
                ], 
                [
                    62893, 
                    [
                        {
                            "pitch": 55, 
                            "t0": 62893, 
                            "v": 102, 
                            "dur": 434, 
                            "type": "note", 
                            "channel": 10
                        }
                    ]
                ], 
                [
                    63437, 
                    [
                        {
                            "pitch": 64, 
                            "t0": 63437, 
                            "v": 127, 
                            "dur": 152, 
                            "type": "note", 
                            "channel": 10
                        }
                    ]
                ], 
                [
                    63598, 
                    [
                        {
                            "pitch": 62, 
                            "t0": 63598, 
                            "v": 112, 
                            "dur": 65, 
                            "type": "note", 
                            "channel": 10
                        }
                    ]
                ], 
                [
                    63723, 
                    [
                        {
                            "pitch": 64, 
                            "t0": 63723, 
                            "v": 114, 
                            "dur": 34, 
                            "type": "note", 
                            "channel": 10
                        }
                    ]
                ], 
                [
                    63837, 
                    [
                        {
                            "pitch": 57, 
                            "t0": 63837, 
                            "v": 112, 
                            "dur": 66, 
                            "type": "note", 
                            "channel": 10
                        }
                    ]
                ], 
                [
                    63912, 
                    [
                        {
                            "pitch": 55, 
                            "t0": 63912, 
                            "v": 106, 
                            "dur": 464, 
                            "type": "note", 
                            "channel": 10
                        }
                    ]
                ], 
                [
                    64395, 
                    [
                        {
                            "pitch": 55, 
                            "t0": 64395, 
                            "v": 114, 
                            "dur": 55, 
                            "type": "note", 
                            "channel": 10
                        }
                    ]
                ], 
                [
                    64511, 
                    [
                        {
                            "pitch": 55, 
                            "t0": 64511, 
                            "v": 92, 
                            "dur": 21, 
                            "type": "note", 
                            "channel": 10
                        }
                    ]
                ], 
                [
                    64547, 
                    [
                        {
                            "pitch": 57, 
                            "t0": 64547, 
                            "v": 122, 
                            "dur": 111, 
                            "type": "note", 
                            "channel": 10
                        }
                    ]
                ], 
                [
                    64672, 
                    [
                        {
                            "pitch": 57, 
                            "t0": 64672, 
                            "v": 106, 
                            "dur": 65, 
                            "type": "note", 
                            "channel": 10
                        }
                    ]
                ], 
                [
                    64735, 
                    [
                        {
                            "pitch": 52, 
                            "t0": 64735, 
                            "v": 114, 
                            "dur": 66, 
                            "type": "note", 
                            "channel": 10
                        }
                    ]
                ], 
                [
                    64803, 
                    [
                        {
                            "pitch": 50, 
                            "t0": 64803, 
                            "v": 110, 
                            "dur": 423, 
                            "type": "note", 
                            "channel": 10
                        }
                    ]
                ], 
                [
                    65355, 
                    [
                        {
                            "pitch": 64, 
                            "t0": 65355, 
                            "v": 127, 
                            "dur": 109, 
                            "type": "note", 
                            "channel": 10
                        }
                    ]
                ], 
                [
                    65471, 
                    [
                        {
                            "pitch": 62, 
                            "t0": 65471, 
                            "v": 88, 
                            "dur": 25, 
                            "type": "note", 
                            "channel": 10
                        }
                    ]
                ], 
                [
                    65514, 
                    [
                        {
                            "pitch": 64, 
                            "t0": 65514, 
                            "v": 127, 
                            "dur": 74, 
                            "type": "note", 
                            "channel": 10
                        }
                    ]
                ], 
                [
                    65597, 
                    [
                        {
                            "pitch": 62, 
                            "t0": 65597, 
                            "v": 102, 
                            "dur": 22, 
                            "type": "note", 
                            "channel": 10
                        }
                    ]
                ], 
                [
                    65636, 
                    [
                        {
                            "pitch": 64, 
                            "t0": 65636, 
                            "v": 110, 
                            "dur": 36, 
                            "type": "note", 
                            "channel": 10
                        }
                    ]
                ], 
                [
                    65753, 
                    [
                        {
                            "pitch": 57, 
                            "t0": 65753, 
                            "v": 106, 
                            "dur": 64, 
                            "type": "note", 
                            "channel": 10
                        }
                    ]
                ], 
                [
                    65826, 
                    [
                        {
                            "pitch": 55, 
                            "t0": 65826, 
                            "v": 106, 
                            "dur": 484, 
                            "type": "note", 
                            "channel": 10
                        }
                    ]
                ], 
                [
                    66320, 
                    [
                        {
                            "pitch": 50, 
                            "t0": 66320, 
                            "v": 108, 
                            "dur": 29, 
                            "type": "note", 
                            "channel": 10
                        }
                    ]
                ], 
                [
                    66441, 
                    [
                        {
                            "pitch": 50, 
                            "t0": 66441, 
                            "v": 98, 
                            "dur": 19, 
                            "type": "note", 
                            "channel": 10
                        }
                    ]
                ], 
                [
                    66479, 
                    [
                        {
                            "pitch": 52, 
                            "t0": 66479, 
                            "v": 106, 
                            "dur": 102, 
                            "type": "note", 
                            "channel": 10
                        }
                    ]
                ], 
                [
                    66592, 
                    [
                        {
                            "pitch": 55, 
                            "t0": 66592, 
                            "v": 106, 
                            "dur": 47, 
                            "type": "note", 
                            "channel": 10
                        }
                    ]
                ], 
                [
                    66655, 
                    [
                        {
                            "pitch": 57, 
                            "t0": 66655, 
                            "v": 122, 
                            "dur": 85, 
                            "type": "note", 
                            "channel": 10
                        }
                    ]
                ], 
                [
                    66736, 
                    [
                        {
                            "pitch": 55, 
                            "t0": 66736, 
                            "v": 98, 
                            "dur": 515, 
                            "type": "note", 
                            "channel": 10
                        }
                    ]
                ], 
                [
                    67261, 
                    [
                        {
                            "pitch": 64, 
                            "t0": 67261, 
                            "v": 127, 
                            "dur": 154, 
                            "type": "note", 
                            "channel": 10
                        }
                    ]
                ], 
                [
                    67428, 
                    [
                        {
                            "pitch": 64, 
                            "t0": 67428, 
                            "v": 110, 
                            "dur": 116, 
                            "type": "note", 
                            "channel": 10
                        }
                    ]
                ], 
                [
                    67554, 
                    [
                        {
                            "pitch": 62, 
                            "t0": 67554, 
                            "v": 120, 
                            "dur": 61, 
                            "type": "note", 
                            "channel": 10
                        }
                    ]
                ], 
                [
                    67632, 
                    [
                        {
                            "pitch": 62, 
                            "t0": 67632, 
                            "v": 127, 
                            "dur": 123, 
                            "type": "note", 
                            "channel": 10
                        }
                    ]
                ], 
                [
                    67750, 
                    [
                        {
                            "pitch": 57, 
                            "t0": 67750, 
                            "v": 110, 
                            "dur": 58, 
                            "type": "note", 
                            "channel": 10
                        }
                    ]
                ], 
                [
                    67811, 
                    [
                        {
                            "pitch": 55, 
                            "t0": 67811, 
                            "v": 108, 
                            "dur": 391, 
                            "type": "note", 
                            "channel": 10
                        }
                    ]
                ], 
                [
                    68237, 
                    [
                        {
                            "pitch": 55, 
                            "t0": 68237, 
                            "v": 74, 
                            "dur": 25, 
                            "type": "note", 
                            "channel": 10
                        }
                    ]
                ], 
                [
                    68275, 
                    [
                        {
                            "pitch": 57, 
                            "t0": 68275, 
                            "v": 112, 
                            "dur": 71, 
                            "type": "note", 
                            "channel": 10
                        }
                    ]
                ], 
                [
                    68358, 
                    [
                        {
                            "pitch": 55, 
                            "t0": 68358, 
                            "v": 91, 
                            "dur": 22, 
                            "type": "note", 
                            "channel": 10
                        }
                    ]
                ], 
                [
                    68396, 
                    [
                        {
                            "pitch": 62, 
                            "t0": 68396, 
                            "v": 108, 
                            "dur": 61, 
                            "type": "note", 
                            "channel": 10
                        }
                    ]
                ], 
                [
                    68467, 
                    [
                        {
                            "pitch": 57, 
                            "t0": 68467, 
                            "v": 110, 
                            "dur": 120, 
                            "type": "note", 
                            "channel": 10
                        }
                    ]
                ], 
                [
                    68594, 
                    [
                        {
                            "pitch": 55, 
                            "t0": 68594, 
                            "v": 94, 
                            "dur": 172, 
                            "type": "note", 
                            "channel": 10
                        }
                    ]
                ], 
                [
                    68760, 
                    [
                        {
                            "pitch": 57, 
                            "t0": 68760, 
                            "v": 102, 
                            "dur": 25, 
                            "type": "note", 
                            "channel": 10
                        }
                    ]
                ], 
                [
                    68879, 
                    [
                        {
                            "pitch": 58, 
                            "t0": 68879, 
                            "v": 110, 
                            "dur": 59, 
                            "type": "note", 
                            "channel": 10
                        }
                    ]
                ], 
                [
                    69006, 
                    [
                        {
                            "pitch": 59, 
                            "t0": 69006, 
                            "v": 104, 
                            "dur": 59, 
                            "type": "note", 
                            "channel": 10
                        }
                    ]
                ], 
                [
                    69077, 
                    [
                        {
                            "pitch": 60, 
                            "t0": 69077, 
                            "v": 91, 
                            "dur": 150, 
                            "type": "note", 
                            "channel": 10
                        }
                    ]
                ], 
                [
                    69240, 
                    [
                        {
                            "pitch": 64, 
                            "t0": 69240, 
                            "v": 125, 
                            "dur": 76, 
                            "type": "note", 
                            "channel": 10
                        }
                    ]
                ], 
                [
                    69360, 
                    [
                        {
                            "pitch": 64, 
                            "t0": 69360, 
                            "v": 127, 
                            "dur": 107, 
                            "type": "note", 
                            "channel": 10
                        }
                    ]
                ], 
                [
                    69370, 
                    [
                        {
                            "pitch": 62, 
                            "t0": 69370, 
                            "v": 55, 
                            "dur": 4, 
                            "type": "note", 
                            "channel": 10
                        }
                    ]
                ], 
                [
                    69480, 
                    [
                        {
                            "pitch": 62, 
                            "t0": 69480, 
                            "v": 110, 
                            "dur": 105, 
                            "type": "note", 
                            "channel": 10
                        }
                    ]
                ], 
                [
                    69596, 
                    [
                        {
                            "pitch": 62, 
                            "t0": 69596, 
                            "v": 95, 
                            "dur": 124, 
                            "type": "note", 
                            "channel": 10
                        }
                    ]
                ], 
                [
                    69717, 
                    [
                        {
                            "pitch": 57, 
                            "t0": 69717, 
                            "v": 108, 
                            "dur": 55, 
                            "type": "note", 
                            "channel": 10
                        }
                    ]
                ], 
                [
                    69779, 
                    [
                        {
                            "pitch": 55, 
                            "t0": 69779, 
                            "v": 84, 
                            "dur": 181, 
                            "type": "note", 
                            "channel": 10
                        }
                    ]
                ], 
                [
                    70160, 
                    [
                        {
                            "pitch": 55, 
                            "t0": 70160, 
                            "v": 97, 
                            "dur": 23, 
                            "type": "note", 
                            "channel": 10
                        }
                    ]
                ], 
                [
                    70195, 
                    [
                        {
                            "pitch": 57, 
                            "t0": 70195, 
                            "v": 108, 
                            "dur": 63, 
                            "type": "note", 
                            "channel": 10
                        }
                    ]
                ], 
                [
                    70274, 
                    [
                        {
                            "pitch": 55, 
                            "t0": 70274, 
                            "v": 91, 
                            "dur": 23, 
                            "type": "note", 
                            "channel": 10
                        }
                    ]
                ], 
                [
                    70313, 
                    [
                        {
                            "pitch": 62, 
                            "t0": 70313, 
                            "v": 108, 
                            "dur": 64, 
                            "type": "note", 
                            "channel": 10
                        }
                    ]
                ], 
                [
                    70389, 
                    [
                        {
                            "pitch": 57, 
                            "t0": 70389, 
                            "v": 122, 
                            "dur": 153, 
                            "type": "note", 
                            "channel": 10
                        }
                    ]
                ], 
                [
                    70550, 
                    [
                        {
                            "pitch": 55, 
                            "t0": 70550, 
                            "v": 104, 
                            "dur": 519, 
                            "type": "note", 
                            "channel": 10
                        }
                    ]
                ], 
                [
                    71075, 
                    [
                        {
                            "pitch": 53, 
                            "t0": 71075, 
                            "v": 67, 
                            "dur": 5, 
                            "type": "note", 
                            "channel": 10
                        }
                    ]
                ]
            ], 
            "instruments": [], 
            "tMax": 71080, 
            "channels": [
                10
            ], 
            "numNotes": 488, 
            "type": "TrackObj"
        }
    ], 
    "type": "MidiObj"
}