{
    "format": 1, 
    "instruments": [
        0
    ], 
    "resolution": 600, 
    "channels": [
        0, 
        1, 
        2
    ], 
    "tracks": [
        {
            "channels": [
                0
            ], 
            "instruments": [
                0
            ], 
            "type": "TrackObj", 
            "seq": [
                [
                    0.0, 
                    [
                        {
                            "pitch": 50, 
                            "t0": 0.0, 
                            "v": 90, 
                            "dur": 300.0, 
                            "type": "note", 
                            "channel": 0
                        }
                    ]
                ], 
                [
                    429.4620101463266, 
                    [
                        {
                            "pitch": 51, 
                            "t0": 429.4620101463266, 
                            "v": 60, 
                            "dur": 149.99999999999994, 
                            "type": "note", 
                            "channel": 0
                        }
                    ]
                ], 
                [
                    1679.2865520065166, 
                    [
                        {
                            "pitch": 52, 
                            "t0": 1679.2865520065166, 
                            "v": 70, 
                            "dur": 150.0, 
                            "type": "note", 
                            "channel": 0
                        }
                    ]
                ], 
                [
                    2482.233925343356, 
                    [
                        {
                            "pitch": 53, 
                            "t0": 2482.233925343356, 
                            "v": 70, 
                            "dur": 300.0, 
                            "type": "note", 
                            "channel": 0
                        }
                    ]
                ], 
                [
                    3262.5600276923974, 
                    [
                        {
                            "pitch": 50, 
                            "t0": 3262.5600276923974, 
                            "v": 90, 
                            "dur": 300.0, 
                            "type": "note", 
                            "channel": 0
                        }
                    ]
                ], 
                [
                    3644.631530496331, 
                    [
                        {
                            "pitch": 51, 
                            "t0": 3644.631530496331, 
                            "v": 60, 
                            "dur": 150.0, 
                            "type": "note", 
                            "channel": 0
                        }
                    ]
                ], 
                [
                    4760.2082581168415, 
                    [
                        {
                            "pitch": 52, 
                            "t0": 4760.2082581168415, 
                            "v": 70, 
                            "dur": 150.0, 
                            "type": "note", 
                            "channel": 0
                        }
                    ]
                ], 
                [
                    5479.722602155168, 
                    [
                        {
                            "pitch": 53, 
                            "t0": 5479.722602155168, 
                            "v": 70, 
                            "dur": 300.0, 
                            "type": "note", 
                            "channel": 0
                        }
                    ]
                ], 
                [
                    6181.019421837357, 
                    [
                        {
                            "pitch": 50, 
                            "t0": 6181.019421837357, 
                            "v": 90, 
                            "dur": 300.0, 
                            "type": "note", 
                            "channel": 0
                        }
                    ]
                ], 
                [
                    6525.120055384795, 
                    [
                        {
                            "pitch": 51, 
                            "t0": 6525.120055384795, 
                            "v": 60, 
                            "dur": 150.0, 
                            "type": "note", 
                            "channel": 0
                        }
                    ]
                ], 
                [
                    7532.494517352198, 
                    [
                        {
                            "pitch": 52, 
                            "t0": 7532.494517352198, 
                            "v": 70, 
                            "dur": 150.0, 
                            "type": "note", 
                            "channel": 0
                        }
                    ]
                ], 
                [
                    8184.283290280281, 
                    [
                        {
                            "pitch": 53, 
                            "t0": 8184.283290280281, 
                            "v": 70, 
                            "dur": 299.9999999999991, 
                            "type": "note", 
                            "channel": 0
                        }
                    ]
                ], 
                [
                    8821.087077836108, 
                    [
                        {
                            "pitch": 50, 
                            "t0": 8821.087077836108, 
                            "v": 90, 
                            "dur": 300.0, 
                            "type": "note", 
                            "channel": 0
                        }
                    ]
                ], 
                [
                    9134.081874554837, 
                    [
                        {
                            "pitch": 51, 
                            "t0": 9134.081874554837, 
                            "v": 60, 
                            "dur": 150.0, 
                            "type": "note", 
                            "channel": 0
                        }
                    ]
                ], 
                [
                    10052.389556294649, 
                    [
                        {
                            "pitch": 52, 
                            "t0": 10052.389556294649, 
                            "v": 70, 
                            "dur": 150.0, 
                            "type": "note", 
                            "channel": 0
                        }
                    ]
                ], 
                [
                    10648.105952210637, 
                    [
                        {
                            "pitch": 53, 
                            "t0": 10648.105952210637, 
                            "v": 70, 
                            "dur": 300.0, 
                            "type": "note", 
                            "channel": 0
                        }
                    ]
                ], 
                [
                    11231.280013846199, 
                    [
                        {
                            "pitch": 50, 
                            "t0": 11231.280013846199, 
                            "v": 90, 
                            "dur": 300.0, 
                            "type": "note", 
                            "channel": 0
                        }
                    ]
                ], 
                [
                    11518.326569992852, 
                    [
                        {
                            "pitch": 51, 
                            "t0": 11518.326569992852, 
                            "v": 60, 
                            "dur": 150.0, 
                            "type": "note", 
                            "channel": 0
                        }
                    ]
                ], 
                [
                    12362.038843674714, 
                    [
                        {
                            "pitch": 52, 
                            "t0": 12362.038843674714, 
                            "v": 70, 
                            "dur": 150.0, 
                            "type": "note", 
                            "channel": 0
                        }
                    ]
                ], 
                [
                    12910.566565852716, 
                    [
                        {
                            "pitch": 53, 
                            "t0": 12910.566565852716, 
                            "v": 70, 
                            "dur": 300.0, 
                            "type": "note", 
                            "channel": 0
                        }
                    ]
                ], 
                [
                    13448.44258830897, 
                    [
                        {
                            "pitch": 50, 
                            "t0": 13448.44258830897, 
                            "v": 90, 
                            "dur": 300.0, 
                            "type": "note", 
                            "channel": 0
                        }
                    ]
                ], 
                [
                    13713.513939189555, 
                    [
                        {
                            "pitch": 51, 
                            "t0": 13713.513939189555, 
                            "v": 60, 
                            "dur": 150.0, 
                            "type": "note", 
                            "channel": 0
                        }
                    ]
                ], 
                [
                    14493.840041538597, 
                    [
                        {
                            "pitch": 52, 
                            "t0": 14493.840041538597, 
                            "v": 70, 
                            "dur": 150.0, 
                            "type": "note", 
                            "channel": 0
                        }
                    ]
                ], 
                [
                    15002.106499673466, 
                    [
                        {
                            "pitch": 53, 
                            "t0": 15002.106499673466, 
                            "v": 70, 
                            "dur": 300.0, 
                            "type": "note", 
                            "channel": 0
                        }
                    ]
                ], 
                [
                    15501.214503505998, 
                    [
                        {
                            "pitch": 50, 
                            "t0": 15501.214503505998, 
                            "v": 90, 
                            "dur": 300.0, 
                            "type": "note", 
                            "channel": 0
                        }
                    ]
                ], 
                [
                    15747.436078371607, 
                    [
                        {
                            "pitch": 51, 
                            "t0": 15747.436078371607, 
                            "v": 60, 
                            "dur": 150.0, 
                            "type": "note", 
                            "channel": 0
                        }
                    ]
                ], 
                [
                    16473.235106449385, 
                    [
                        {
                            "pitch": 52, 
                            "t0": 16473.235106449385, 
                            "v": 70, 
                            "dur": 150.0, 
                            "type": "note", 
                            "channel": 0
                        }
                    ]
                ], 
                [
                    16946.746547747352, 
                    [
                        {
                            "pitch": 53, 
                            "t0": 16946.746547747352, 
                            "v": 70, 
                            "dur": 300.0, 
                            "type": "note", 
                            "channel": 0
                        }
                    ]
                ], 
                [
                    17412.299435683555, 
                    [
                        {
                            "pitch": 50, 
                            "t0": 17412.299435683555, 
                            "v": 90, 
                            "dur": 300.0, 
                            "type": "note", 
                            "channel": 0
                        }
                    ]
                ], 
                [
                    17642.174155672215, 
                    [
                        {
                            "pitch": 51, 
                            "t0": 17642.174155672215, 
                            "v": 60, 
                            "dur": 150.0, 
                            "type": "note", 
                            "channel": 0
                        }
                    ]
                ], 
                [
                    18320.569159428003, 
                    [
                        {
                            "pitch": 52, 
                            "t0": 18320.569159428003, 
                            "v": 70, 
                            "dur": 150.0, 
                            "type": "note", 
                            "channel": 0
                        }
                    ]
                ], 
                [
                    18763.774531198396, 
                    [
                        {
                            "pitch": 53, 
                            "t0": 18763.774531198396, 
                            "v": 70, 
                            "dur": 300.0, 
                            "type": "note", 
                            "channel": 0
                        }
                    ]
                ]
            ], 
            "numNotes": 32
        }, 
        {
            "channels": [
                1
            ], 
            "instruments": [
                0
            ], 
            "type": "TrackObj", 
            "seq": [
                [
                    0.0, 
                    [
                        {
                            "pitch": 50, 
                            "t0": 0.0, 
                            "v": 90, 
                            "dur": 300.0, 
                            "type": "note", 
                            "channel": 1
                        }
                    ]
                ], 
                [
                    215.56330412648066, 
                    [
                        {
                            "pitch": 51, 
                            "t0": 215.56330412648066, 
                            "v": 60, 
                            "dur": 150.0, 
                            "type": "note", 
                            "channel": 1
                        }
                    ]
                ], 
                [
                    852.367091682305, 
                    [
                        {
                            "pitch": 52, 
                            "t0": 852.367091682305, 
                            "v": 70, 
                            "dur": 150.0, 
                            "type": "note", 
                            "channel": 1
                        }
                    ]
                ], 
                [
                    1268.9124567892322, 
                    [
                        {
                            "pitch": 53, 
                            "t0": 1268.9124567892322, 
                            "v": 70, 
                            "dur": 300.0, 
                            "type": "note", 
                            "channel": 1
                        }
                    ]
                ], 
                [
                    1679.2865520065193, 
                    [
                        {
                            "pitch": 50, 
                            "t0": 1679.2865520065193, 
                            "v": 90, 
                            "dur": 300.0, 
                            "type": "note", 
                            "channel": 1
                        }
                    ]
                ], 
                [
                    1882.2159928421142, 
                    [
                        {
                            "pitch": 51, 
                            "t0": 1882.2159928421142, 
                            "v": 60, 
                            "dur": 150.0, 
                            "type": "note", 
                            "channel": 1
                        }
                    ]
                ], 
                [
                    2482.2339253433584, 
                    [
                        {
                            "pitch": 52, 
                            "t0": 2482.2339253433584, 
                            "v": 70, 
                            "dur": 150.0, 
                            "type": "note", 
                            "channel": 1
                        }
                    ]
                ], 
                [
                    2875.144694489899, 
                    [
                        {
                            "pitch": 53, 
                            "t0": 2875.144694489899, 
                            "v": 70, 
                            "dur": 300.0, 
                            "type": "note", 
                            "channel": 1
                        }
                    ]
                ], 
                [
                    3262.5600276923974, 
                    [
                        {
                            "pitch": 50, 
                            "t0": 3262.5600276923974, 
                            "v": 90, 
                            "dur": 300.0, 
                            "type": "note", 
                            "channel": 1
                        }
                    ]
                ], 
                [
                    3454.2545282867422, 
                    [
                        {
                            "pitch": 51, 
                            "t0": 3454.2545282867422, 
                            "v": 60, 
                            "dur": 150.0, 
                            "type": "note", 
                            "channel": 1
                        }
                    ]
                ], 
                [
                    4021.504620075838, 
                    [
                        {
                            "pitch": 52, 
                            "t0": 4021.504620075838, 
                            "v": 70, 
                            "dur": 150.0, 
                            "type": "note", 
                            "channel": 1
                        }
                    ]
                ], 
                [
                    4393.318857520913, 
                    [
                        {
                            "pitch": 53, 
                            "t0": 4393.318857520913, 
                            "v": 70, 
                            "dur": 300.0, 
                            "type": "note", 
                            "channel": 1
                        }
                    ]
                ], 
                [
                    4760.208258116841, 
                    [
                        {
                            "pitch": 50, 
                            "t0": 4760.208258116841, 
                            "v": 90, 
                            "dur": 300.0, 
                            "type": "note", 
                            "channel": 1
                        }
                    ]
                ], 
                [
                    4941.846579698912, 
                    [
                        {
                            "pitch": 51, 
                            "t0": 4941.846579698912, 
                            "v": 60, 
                            "dur": 150.0, 
                            "type": "note", 
                            "channel": 1
                        }
                    ]
                ], 
                [
                    5479.722602155167, 
                    [
                        {
                            "pitch": 52, 
                            "t0": 5479.722602155167, 
                            "v": 70, 
                            "dur": 150.0, 
                            "type": "note", 
                            "channel": 1
                        }
                    ]
                ], 
                [
                    5832.590365000376, 
                    [
                        {
                            "pitch": 53, 
                            "t0": 5832.590365000376, 
                            "v": 70, 
                            "dur": 300.0, 
                            "type": "note", 
                            "channel": 1
                        }
                    ]
                ], 
                [
                    6181.019421837358, 
                    [
                        {
                            "pitch": 50, 
                            "t0": 6181.019421837358, 
                            "v": 90, 
                            "dur": 300.0, 
                            "type": "note", 
                            "channel": 1
                        }
                    ]
                ], 
                [
                    6353.604059800647, 
                    [
                        {
                            "pitch": 51, 
                            "t0": 6353.604059800647, 
                            "v": 60, 
                            "dur": 150.0, 
                            "type": "note", 
                            "channel": 1
                        }
                    ]
                ], 
                [
                    6864.998488667208, 
                    [
                        {
                            "pitch": 52, 
                            "t0": 6864.998488667208, 
                            "v": 70, 
                            "dur": 150.0, 
                            "type": "note", 
                            "channel": 1
                        }
                    ]
                ], 
                [
                    7200.757081860955, 
                    [
                        {
                            "pitch": 53, 
                            "t0": 7200.757081860955, 
                            "v": 70, 
                            "dur": 300.0, 
                            "type": "note", 
                            "channel": 1
                        }
                    ]
                ], 
                [
                    7532.494517352196, 
                    [
                        {
                            "pitch": 50, 
                            "t0": 7532.494517352196, 
                            "v": 90, 
                            "dur": 300.0, 
                            "type": "note", 
                            "channel": 1
                        }
                    ]
                ], 
                [
                    7696.88517661794, 
                    [
                        {
                            "pitch": 51, 
                            "t0": 7696.88517661794, 
                            "v": 60, 
                            "dur": 150.0, 
                            "type": "note", 
                            "channel": 1
                        }
                    ]
                ], 
                [
                    8184.283290280284, 
                    [
                        {
                            "pitch": 52, 
                            "t0": 8184.283290280284, 
                            "v": 70, 
                            "dur": 150.0, 
                            "type": "note", 
                            "channel": 1
                        }
                    ]
                ], 
                [
                    8504.515120295586, 
                    [
                        {
                            "pitch": 53, 
                            "t0": 8504.515120295586, 
                            "v": 70, 
                            "dur": 300.0, 
                            "type": "note", 
                            "channel": 1
                        }
                    ]
                ], 
                [
                    8821.087077836108, 
                    [
                        {
                            "pitch": 50, 
                            "t0": 8821.087077836108, 
                            "v": 90, 
                            "dur": 300.0, 
                            "type": "note", 
                            "channel": 1
                        }
                    ]
                ], 
                [
                    8978.026561593555, 
                    [
                        {
                            "pitch": 51, 
                            "t0": 8978.026561593555, 
                            "v": 60, 
                            "dur": 150.0, 
                            "type": "note", 
                            "channel": 1
                        }
                    ]
                ], 
                [
                    9443.579449529756, 
                    [
                        {
                            "pitch": 52, 
                            "t0": 9443.579449529756, 
                            "v": 70, 
                            "dur": 150.0, 
                            "type": "note", 
                            "channel": 1
                        }
                    ]
                ], 
                [
                    9749.657091814966, 
                    [
                        {
                            "pitch": 53, 
                            "t0": 9749.657091814966, 
                            "v": 70, 
                            "dur": 300.0, 
                            "type": "note", 
                            "channel": 1
                        }
                    ]
                ], 
                [
                    10052.389556294647, 
                    [
                        {
                            "pitch": 50, 
                            "t0": 10052.389556294647, 
                            "v": 90, 
                            "dur": 300.0, 
                            "type": "note", 
                            "channel": 1
                        }
                    ]
                ], 
                [
                    10202.524041913191, 
                    [
                        {
                            "pitch": 51, 
                            "t0": 10202.524041913191, 
                            "v": 60, 
                            "dur": 150.0, 
                            "type": "note", 
                            "channel": 1
                        }
                    ]
                ], 
                [
                    10648.105952210637, 
                    [
                        {
                            "pitch": 52, 
                            "t0": 10648.105952210637, 
                            "v": 70, 
                            "dur": 150.0, 
                            "type": "note", 
                            "channel": 1
                        }
                    ]
                ], 
                [
                    10941.227679954198, 
                    [
                        {
                            "pitch": 53, 
                            "t0": 10941.227679954198, 
                            "v": 70, 
                            "dur": 300.0, 
                            "type": "note", 
                            "channel": 1
                        }
                    ]
                ], 
                [
                    11231.2800138462, 
                    [
                        {
                            "pitch": 50, 
                            "t0": 11231.2800138462, 
                            "v": 90, 
                            "dur": 300.0, 
                            "type": "note", 
                            "channel": 1
                        }
                    ]
                ], 
                [
                    11375.175115547145, 
                    [
                        {
                            "pitch": 51, 
                            "t0": 11375.175115547145, 
                            "v": 60, 
                            "dur": 150.0, 
                            "type": "note", 
                            "channel": 1
                        }
                    ]
                ], 
                [
                    11802.429007011997, 
                    [
                        {
                            "pitch": 52, 
                            "t0": 11802.429007011997, 
                            "v": 70, 
                            "dur": 150.0, 
                            "type": "note", 
                            "channel": 1
                        }
                    ]
                ], 
                [
                    12083.647105528511, 
                    [
                        {
                            "pitch": 53, 
                            "t0": 12083.647105528511, 
                            "v": 70, 
                            "dur": 300.0, 
                            "type": "note", 
                            "channel": 1
                        }
                    ]
                ], 
                [
                    12362.038843674716, 
                    [
                        {
                            "pitch": 50, 
                            "t0": 12362.038843674716, 
                            "v": 90, 
                            "dur": 300.0, 
                            "type": "note", 
                            "channel": 1
                        }
                    ]
                ], 
                [
                    12500.19247063543, 
                    [
                        {
                            "pitch": 51, 
                            "t0": 12500.19247063543, 
                            "v": 60, 
                            "dur": 150.0, 
                            "type": "note", 
                            "channel": 1
                        }
                    ]
                ], 
                [
                    12910.566565852716, 
                    [
                        {
                            "pitch": 52, 
                            "t0": 12910.566565852716, 
                            "v": 70, 
                            "dur": 150.0, 
                            "type": "note", 
                            "channel": 1
                        }
                    ]
                ], 
                [
                    13180.810121917795, 
                    [
                        {
                            "pitch": 53, 
                            "t0": 13180.810121917795, 
                            "v": 70, 
                            "dur": 300.0, 
                            "type": "note", 
                            "channel": 1
                        }
                    ]
                ], 
                [
                    13448.44258830897, 
                    [
                        {
                            "pitch": 50, 
                            "t0": 13448.44258830897, 
                            "v": 90, 
                            "dur": 300.0, 
                            "type": "note", 
                            "channel": 1
                        }
                    ]
                ], 
                [
                    13581.295335952953, 
                    [
                        {
                            "pitch": 51, 
                            "t0": 13581.295335952953, 
                            "v": 60, 
                            "dur": 150.0, 
                            "type": "note", 
                            "channel": 1
                        }
                    ]
                ], 
                [
                    13976.072727613424, 
                    [
                        {
                            "pitch": 52, 
                            "t0": 13976.072727613424, 
                            "v": 70, 
                            "dur": 150.0, 
                            "type": "note", 
                            "channel": 1
                        }
                    ]
                ], 
                [
                    14236.166138902026, 
                    [
                        {
                            "pitch": 53, 
                            "t0": 14236.166138902026, 
                            "v": 70, 
                            "dur": 300.0, 
                            "type": "note", 
                            "channel": 1
                        }
                    ]
                ], 
                [
                    14493.840041538599, 
                    [
                        {
                            "pitch": 50, 
                            "t0": 14493.840041538599, 
                            "v": 90, 
                            "dur": 300.0, 
                            "type": "note", 
                            "channel": 1
                        }
                    ]
                ], 
                [
                    14621.783662934007, 
                    [
                        {
                            "pitch": 51, 
                            "t0": 14621.783662934007, 
                            "v": 60, 
                            "dur": 150.0, 
                            "type": "note", 
                            "channel": 1
                        }
                    ]
                ], 
                [
                    15002.106499673462, 
                    [
                        {
                            "pitch": 52, 
                            "t0": 15002.106499673462, 
                            "v": 70, 
                            "dur": 150.0, 
                            "type": "note", 
                            "channel": 1
                        }
                    ]
                ], 
                [
                    15252.784633922034, 
                    [
                        {
                            "pitch": 53, 
                            "t0": 15252.784633922034, 
                            "v": 70, 
                            "dur": 300.0, 
                            "type": "note", 
                            "channel": 1
                        }
                    ]
                ], 
                [
                    15501.214503506, 
                    [
                        {
                            "pitch": 50, 
                            "t0": 15501.214503506, 
                            "v": 90, 
                            "dur": 300.0, 
                            "type": "note", 
                            "channel": 1
                        }
                    ]
                ], 
                [
                    15624.59887136711, 
                    [
                        {
                            "pitch": 51, 
                            "t0": 15624.59887136711, 
                            "v": 60, 
                            "dur": 150.0, 
                            "type": "note", 
                            "channel": 1
                        }
                    ]
                ], 
                [
                    15991.48827196304, 
                    [
                        {
                            "pitch": 52, 
                            "t0": 15991.48827196304, 
                            "v": 70, 
                            "dur": 150.0, 
                            "type": "note", 
                            "channel": 1
                        }
                    ]
                ], 
                [
                    16233.408978132005, 
                    [
                        {
                            "pitch": 53, 
                            "t0": 16233.408978132005, 
                            "v": 70, 
                            "dur": 300.0000000000018, 
                            "type": "note", 
                            "channel": 1
                        }
                    ]
                ], 
                [
                    16473.23510644939, 
                    [
                        {
                            "pitch": 50, 
                            "t0": 16473.23510644939, 
                            "v": 90, 
                            "dur": 300.0, 
                            "type": "note", 
                            "channel": 1
                        }
                    ]
                ], 
                [
                    16592.373977362182, 
                    [
                        {
                            "pitch": 51, 
                            "t0": 16592.373977362182, 
                            "v": 60, 
                            "dur": 150.0, 
                            "type": "note", 
                            "channel": 1
                        }
                    ]
                ], 
                [
                    16946.74654774735, 
                    [
                        {
                            "pitch": 52, 
                            "t0": 16946.74654774735, 
                            "v": 70, 
                            "dur": 150.0, 
                            "type": "note", 
                            "channel": 1
                        }
                    ]
                ], 
                [
                    17180.501055512515, 
                    [
                        {
                            "pitch": 53, 
                            "t0": 17180.501055512515, 
                            "v": 70, 
                            "dur": 300.0, 
                            "type": "note", 
                            "channel": 1
                        }
                    ]
                ], 
                [
                    17412.29943568356, 
                    [
                        {
                            "pitch": 50, 
                            "t0": 17412.29943568356, 
                            "v": 90, 
                            "dur": 300.0, 
                            "type": "note", 
                            "channel": 1
                        }
                    ]
                ], 
                [
                    17527.47525561526, 
                    [
                        {
                            "pitch": 51, 
                            "t0": 17527.47525561526, 
                            "v": 60, 
                            "dur": 150.0, 
                            "type": "note", 
                            "channel": 1
                        }
                    ]
                ], 
                [
                    17870.156881207415, 
                    [
                        {
                            "pitch": 52, 
                            "t0": 17870.156881207415, 
                            "v": 70, 
                            "dur": 150.0, 
                            "type": "note", 
                            "channel": 1
                        }
                    ]
                ], 
                [
                    18096.278502513407, 
                    [
                        {
                            "pitch": 53, 
                            "t0": 18096.278502513407, 
                            "v": 70, 
                            "dur": 300.0, 
                            "type": "note", 
                            "channel": 1
                        }
                    ]
                ], 
                [
                    18320.569159428007, 
                    [
                        {
                            "pitch": 50, 
                            "t0": 18320.569159428007, 
                            "v": 90, 
                            "dur": 300.0, 
                            "type": "note", 
                            "channel": 1
                        }
                    ]
                ], 
                [
                    18432.03709570715, 
                    [
                        {
                            "pitch": 51, 
                            "t0": 18432.03709570715, 
                            "v": 60, 
                            "dur": 150.0, 
                            "type": "note", 
                            "channel": 1
                        }
                    ]
                ], 
                [
                    18763.774531198396, 
                    [
                        {
                            "pitch": 52, 
                            "t0": 18763.774531198396, 
                            "v": 70, 
                            "dur": 150.0, 
                            "type": "note", 
                            "channel": 1
                        }
                    ]
                ], 
                [
                    18982.745986025584, 
                    [
                        {
                            "pitch": 53, 
                            "t0": 18982.745986025584, 
                            "v": 70, 
                            "dur": 300.0, 
                            "type": "note", 
                            "channel": 1
                        }
                    ]
                ]
            ], 
            "numNotes": 64
        }, 
        {
            "channels": [
                2
            ], 
            "instruments": [
                0
            ], 
            "type": "TrackObj", 
            "seq": [
                [
                    0.0, 
                    [
                        {
                            "pitch": 50, 
                            "t0": 0.0, 
                            "v": 90, 
                            "dur": 300.0, 
                            "type": "note", 
                            "channel": 2
                        }
                    ]
                ], 
                [
                    107.99134452245767, 
                    [
                        {
                            "pitch": 51, 
                            "t0": 107.99134452245767, 
                            "v": 60, 
                            "dur": 150.0, 
                            "type": "note", 
                            "channel": 2
                        }
                    ]
                ], 
                [
                    429.4620101463238, 
                    [
                        {
                            "pitch": 52, 
                            "t0": 429.4620101463238, 
                            "v": 70, 
                            "dur": 150.0, 
                            "type": "note", 
                            "channel": 2
                        }
                    ]
                ], 
                [
                    641.7216295190514, 
                    [
                        {
                            "pitch": 53, 
                            "t0": 641.7216295190514, 
                            "v": 70, 
                            "dur": 300.0, 
                            "type": "note", 
                            "channel": 2
                        }
                    ]
                ], 
                [
                    852.367091682305, 
                    [
                        {
                            "pitch": 50, 
                            "t0": 852.367091682305, 
                            "v": 90, 
                            "dur": 300.0, 
                            "type": "note", 
                            "channel": 2
                        }
                    ]
                ], 
                [
                    957.0921494507786, 
                    [
                        {
                            "pitch": 51, 
                            "t0": 957.0921494507786, 
                            "v": 60, 
                            "dur": 150.0, 
                            "type": "note", 
                            "channel": 2
                        }
                    ]
                ], 
                [
                    1268.9124567892322, 
                    [
                        {
                            "pitch": 52, 
                            "t0": 1268.9124567892322, 
                            "v": 70, 
                            "dur": 150.0, 
                            "type": "note", 
                            "channel": 2
                        }
                    ]
                ], 
                [
                    1474.8594633759524, 
                    [
                        {
                            "pitch": 53, 
                            "t0": 1474.8594633759524, 
                            "v": 70, 
                            "dur": 300.0, 
                            "type": "note", 
                            "channel": 2
                        }
                    ]
                ], 
                [
                    1679.2865520065193, 
                    [
                        {
                            "pitch": 50, 
                            "t0": 1679.2865520065193, 
                            "v": 90, 
                            "dur": 300.0, 
                            "type": "note", 
                            "channel": 2
                        }
                    ]
                ], 
                [
                    1780.9371056611667, 
                    [
                        {
                            "pitch": 51, 
                            "t0": 1780.9371056611667, 
                            "v": 60, 
                            "dur": 150.0, 
                            "type": "note", 
                            "channel": 2
                        }
                    ]
                ], 
                [
                    2083.669570140847, 
                    [
                        {
                            "pitch": 52, 
                            "t0": 2083.669570140847, 
                            "v": 70, 
                            "dur": 150.0, 
                            "type": "note", 
                            "channel": 2
                        }
                    ]
                ], 
                [
                    2283.668596291346, 
                    [
                        {
                            "pitch": 53, 
                            "t0": 2283.668596291346, 
                            "v": 70, 
                            "dur": 300.0, 
                            "type": "note", 
                            "channel": 2
                        }
                    ]
                ], 
                [
                    2482.233925343354, 
                    [
                        {
                            "pitch": 50, 
                            "t0": 2482.233925343354, 
                            "v": 90, 
                            "dur": 300.0, 
                            "type": "note", 
                            "channel": 2
                        }
                    ]
                ], 
                [
                    2580.985348241782, 
                    [
                        {
                            "pitch": 51, 
                            "t0": 2580.985348241782, 
                            "v": 60, 
                            "dur": 150.0, 
                            "type": "note", 
                            "channel": 2
                        }
                    ]
                ], 
                [
                    2875.1446944898903, 
                    [
                        {
                            "pitch": 52, 
                            "t0": 2875.1446944898903, 
                            "v": 70, 
                            "dur": 150.0, 
                            "type": "note", 
                            "channel": 2
                        }
                    ]
                ], 
                [
                    3069.5296661450784, 
                    [
                        {
                            "pitch": 53, 
                            "t0": 3069.5296661450784, 
                            "v": 70, 
                            "dur": 300.0, 
                            "type": "note", 
                            "channel": 2
                        }
                    ]
                ], 
                [
                    3262.560027692402, 
                    [
                        {
                            "pitch": 50, 
                            "t0": 3262.560027692402, 
                            "v": 90, 
                            "dur": 300.0, 
                            "type": "note", 
                            "channel": 2
                        }
                    ]
                ], 
                [
                    3358.5731040130386, 
                    [
                        {
                            "pitch": 51, 
                            "t0": 3358.5731040130386, 
                            "v": 60, 
                            "dur": 150.0, 
                            "type": "note", 
                            "channel": 2
                        }
                    ]
                ], 
                [
                    3644.631530496329, 
                    [
                        {
                            "pitch": 52, 
                            "t0": 3644.631530496329, 
                            "v": 70, 
                            "dur": 150.0, 
                            "type": "note", 
                            "channel": 2
                        }
                    ]
                ], 
                [
                    3833.7090208581967, 
                    [
                        {
                            "pitch": 53, 
                            "t0": 3833.7090208581967, 
                            "v": 70, 
                            "dur": 300.0, 
                            "type": "note", 
                            "channel": 2
                        }
                    ]
                ], 
                [
                    4021.5046200758425, 
                    [
                        {
                            "pitch": 50, 
                            "t0": 4021.5046200758425, 
                            "v": 90, 
                            "dur": 300.0, 
                            "type": "note", 
                            "channel": 2
                        }
                    ]
                ], 
                [
                    4114.927119374707, 
                    [
                        {
                            "pitch": 51, 
                            "t0": 4114.927119374707, 
                            "v": 60, 
                            "dur": 150.0, 
                            "type": "note", 
                            "channel": 2
                        }
                    ]
                ], 
                [
                    4393.318857520913, 
                    [
                        {
                            "pitch": 52, 
                            "t0": 4393.318857520913, 
                            "v": 70, 
                            "dur": 150.0, 
                            "type": "note", 
                            "channel": 2
                        }
                    ]
                ], 
                [
                    4577.370995041517, 
                    [
                        {
                            "pitch": 53, 
                            "t0": 4577.370995041517, 
                            "v": 70, 
                            "dur": 300.0, 
                            "type": "note", 
                            "channel": 2
                        }
                    ]
                ], 
                [
                    4760.208258116844, 
                    [
                        {
                            "pitch": 50, 
                            "t0": 4760.208258116844, 
                            "v": 90, 
                            "dur": 300.0, 
                            "type": "note", 
                            "channel": 2
                        }
                    ]
                ], 
                [
                    4851.176303044769, 
                    [
                        {
                            "pitch": 51, 
                            "t0": 4851.176303044769, 
                            "v": 60, 
                            "dur": 150.0, 
                            "type": "note", 
                            "channel": 2
                        }
                    ]
                ], 
                [
                    5122.301581342109, 
                    [
                        {
                            "pitch": 52, 
                            "t0": 5122.301581342109, 
                            "v": 70, 
                            "dur": 150.0, 
                            "type": "note", 
                            "channel": 2
                        }
                    ]
                ], 
                [
                    5301.5885812653605, 
                    [
                        {
                            "pitch": 53, 
                            "t0": 5301.5885812653605, 
                            "v": 70, 
                            "dur": 300.0, 
                            "type": "note", 
                            "channel": 2
                        }
                    ]
                ], 
                [
                    5479.722602155175, 
                    [
                        {
                            "pitch": 50, 
                            "t0": 5479.722602155175, 
                            "v": 90, 
                            "dur": 300.0, 
                            "type": "note", 
                            "channel": 2
                        }
                    ]
                ], 
                [
                    5568.361861106277, 
                    [
                        {
                            "pitch": 51, 
                            "t0": 5568.361861106277, 
                            "v": 60, 
                            "dur": 150.0, 
                            "type": "note", 
                            "channel": 2
                        }
                    ]
                ], 
                [
                    5832.590365000379, 
                    [
                        {
                            "pitch": 52, 
                            "t0": 5832.590365000379, 
                            "v": 70, 
                            "dur": 150.0, 
                            "type": "note", 
                            "channel": 2
                        }
                    ]
                ], 
                [
                    6007.352741459621, 
                    [
                        {
                            "pitch": 53, 
                            "t0": 6007.352741459621, 
                            "v": 70, 
                            "dur": 300.0, 
                            "type": "note", 
                            "channel": 2
                        }
                    ]
                ], 
                [
                    6181.019421837354, 
                    [
                        {
                            "pitch": 50, 
                            "t0": 6181.019421837354, 
                            "v": 90, 
                            "dur": 300.0, 
                            "type": "note", 
                            "channel": 2
                        }
                    ]
                ], 
                [
                    6267.446152748226, 
                    [
                        {
                            "pitch": 51, 
                            "t0": 6267.446152748226, 
                            "v": 60, 
                            "dur": 150.0, 
                            "type": "note", 
                            "channel": 2
                        }
                    ]
                ], 
                [
                    6525.120055384795, 
                    [
                        {
                            "pitch": 52, 
                            "t0": 6525.120055384795, 
                            "v": 70, 
                            "dur": 150.0, 
                            "type": "note", 
                            "channel": 2
                        }
                    ]
                ], 
                [
                    6695.58056123669, 
                    [
                        {
                            "pitch": 53, 
                            "t0": 6695.58056123669, 
                            "v": 70, 
                            "dur": 300.0, 
                            "type": "note", 
                            "channel": 2
                        }
                    ]
                ], 
                [
                    6864.998488667208, 
                    [
                        {
                            "pitch": 50, 
                            "t0": 6864.998488667208, 
                            "v": 90, 
                            "dur": 300.0, 
                            "type": "note", 
                            "channel": 2
                        }
                    ]
                ], 
                [
                    6949.320455716634, 
                    [
                        {
                            "pitch": 51, 
                            "t0": 6949.320455716634, 
                            "v": 60, 
                            "dur": 150.0, 
                            "type": "note", 
                            "channel": 2
                        }
                    ]
                ], 
                [
                    7200.757081860959, 
                    [
                        {
                            "pitch": 52, 
                            "t0": 7200.757081860959, 
                            "v": 70, 
                            "dur": 150.0, 
                            "type": "note", 
                            "channel": 2
                        }
                    ]
                ], 
                [
                    7367.122415501805, 
                    [
                        {
                            "pitch": 53, 
                            "t0": 7367.122415501805, 
                            "v": 70, 
                            "dur": 300.0, 
                            "type": "note", 
                            "channel": 2
                        }
                    ]
                ], 
                [
                    7532.494517352196, 
                    [
                        {
                            "pitch": 50, 
                            "t0": 7532.494517352196, 
                            "v": 90, 
                            "dur": 300.0, 
                            "type": "note", 
                            "channel": 2
                        }
                    ]
                ], 
                [
                    7614.811798691688, 
                    [
                        {
                            "pitch": 51, 
                            "t0": 7614.811798691688, 
                            "v": 60, 
                            "dur": 150.0, 
                            "type": "note", 
                            "channel": 2
                        }
                    ]
                ], 
                [
                    7860.3059738438815, 
                    [
                        {
                            "pitch": 52, 
                            "t0": 7860.3059738438815, 
                            "v": 70, 
                            "dur": 150.0, 
                            "type": "note", 
                            "channel": 2
                        }
                    ]
                ], 
                [
                    8022.768285809238, 
                    [
                        {
                            "pitch": 53, 
                            "t0": 8022.768285809238, 
                            "v": 70, 
                            "dur": 300.0, 
                            "type": "note", 
                            "channel": 2
                        }
                    ]
                ], 
                [
                    8184.28329028028, 
                    [
                        {
                            "pitch": 50, 
                            "t0": 8184.28329028028, 
                            "v": 90, 
                            "dur": 300.0, 
                            "type": "note", 
                            "channel": 2
                        }
                    ]
                ], 
                [
                    8264.6889919782, 
                    [
                        {
                            "pitch": 51, 
                            "t0": 8264.6889919782, 
                            "v": 60, 
                            "dur": 150.0, 
                            "type": "note", 
                            "channel": 2
                        }
                    ]
                ], 
                [
                    8504.515120295586, 
                    [
                        {
                            "pitch": 52, 
                            "t0": 8504.515120295586, 
                            "v": 70, 
                            "dur": 150.0, 
                            "type": "note", 
                            "channel": 2
                        }
                    ]
                ], 
                [
                    8663.253347180716, 
                    [
                        {
                            "pitch": 53, 
                            "t0": 8663.253347180716, 
                            "v": 70, 
                            "dur": 300.0, 
                            "type": "note", 
                            "channel": 2
                        }
                    ]
                ], 
                [
                    8821.087077836108, 
                    [
                        {
                            "pitch": 50, 
                            "t0": 8821.087077836108, 
                            "v": 90, 
                            "dur": 300.0, 
                            "type": "note", 
                            "channel": 2
                        }
                    ]
                ], 
                [
                    8899.66796680666, 
                    [
                        {
                            "pitch": 51, 
                            "t0": 8899.66796680666, 
                            "v": 60, 
                            "dur": 150.0, 
                            "type": "note", 
                            "channel": 2
                        }
                    ]
                ], 
                [
                    9134.081874554835, 
                    [
                        {
                            "pitch": 52, 
                            "t0": 9134.081874554835, 
                            "v": 70, 
                            "dur": 150.0, 
                            "type": "note", 
                            "channel": 2
                        }
                    ]
                ], 
                [
                    9289.262923473723, 
                    [
                        {
                            "pitch": 53, 
                            "t0": 9289.262923473723, 
                            "v": 70, 
                            "dur": 300.0, 
                            "type": "note", 
                            "channel": 2
                        }
                    ]
                ], 
                [
                    9443.579449529756, 
                    [
                        {
                            "pitch": 50, 
                            "t0": 9443.579449529756, 
                            "v": 90, 
                            "dur": 300.0, 
                            "type": "note", 
                            "channel": 2
                        }
                    ]
                ], 
                [
                    9520.416516233681, 
                    [
                        {
                            "pitch": 51, 
                            "t0": 9520.416516233681, 
                            "v": 60, 
                            "dur": 150.0, 
                            "type": "note", 
                            "channel": 2
                        }
                    ]
                ], 
                [
                    9749.65709181497, 
                    [
                        {
                            "pitch": 52, 
                            "t0": 9749.65709181497, 
                            "v": 70, 
                            "dur": 150.0, 
                            "type": "note", 
                            "channel": 2
                        }
                    ]
                ], 
                [
                    9901.436895053612, 
                    [
                        {
                            "pitch": 53, 
                            "t0": 9901.436895053612, 
                            "v": 70, 
                            "dur": 300.0, 
                            "type": "note", 
                            "channel": 2
                        }
                    ]
                ], 
                [
                    10052.38955629465, 
                    [
                        {
                            "pitch": 50, 
                            "t0": 10052.38955629465, 
                            "v": 90, 
                            "dur": 300.0, 
                            "type": "note", 
                            "channel": 2
                        }
                    ]
                ], 
                [
                    10127.55851635961, 
                    [
                        {
                            "pitch": 51, 
                            "t0": 10127.55851635961, 
                            "v": 60, 
                            "dur": 150.0, 
                            "type": "note", 
                            "channel": 2
                        }
                    ]
                ], 
                [
                    10351.849173274204, 
                    [
                        {
                            "pitch": 52, 
                            "t0": 10351.849173274204, 
                            "v": 70, 
                            "dur": 150.0, 
                            "type": "note", 
                            "channel": 2
                        }
                    ]
                ], 
                [
                    10500.373629842628, 
                    [
                        {
                            "pitch": 53, 
                            "t0": 10500.373629842628, 
                            "v": 70, 
                            "dur": 300.0, 
                            "type": "note", 
                            "channel": 2
                        }
                    ]
                ], 
                [
                    10648.105952210642, 
                    [
                        {
                            "pitch": 50, 
                            "t0": 10648.105952210642, 
                            "v": 90, 
                            "dur": 300.0, 
                            "type": "note", 
                            "channel": 2
                        }
                    ]
                ], 
                [
                    10721.677694758358, 
                    [
                        {
                            "pitch": 51, 
                            "t0": 10721.677694758358, 
                            "v": 60, 
                            "dur": 150.0, 
                            "type": "note", 
                            "channel": 2
                        }
                    ]
                ], 
                [
                    10941.227679954198, 
                    [
                        {
                            "pitch": 52, 
                            "t0": 10941.227679954198, 
                            "v": 70, 
                            "dur": 150.0, 
                            "type": "note", 
                            "channel": 2
                        }
                    ]
                ], 
                [
                    11086.633498286375, 
                    [
                        {
                            "pitch": 53, 
                            "t0": 11086.633498286375, 
                            "v": 70, 
                            "dur": 300.0, 
                            "type": "note", 
                            "channel": 2
                        }
                    ]
                ], 
                [
                    11231.280013846197, 
                    [
                        {
                            "pitch": 50, 
                            "t0": 11231.280013846197, 
                            "v": 90, 
                            "dur": 300.0, 
                            "type": "note", 
                            "channel": 2
                        }
                    ]
                ], 
                [
                    11303.321003179472, 
                    [
                        {
                            "pitch": 51, 
                            "t0": 11303.321003179472, 
                            "v": 60, 
                            "dur": 150.0, 
                            "type": "note", 
                            "channel": 2
                        }
                    ]
                ], 
                [
                    11518.326569992854, 
                    [
                        {
                            "pitch": 52, 
                            "t0": 11518.326569992854, 
                            "v": 70, 
                            "dur": 150.0, 
                            "type": "note", 
                            "channel": 2
                        }
                    ]
                ], 
                [
                    11660.742023992529, 
                    [
                        {
                            "pitch": 53, 
                            "t0": 11660.742023992529, 
                            "v": 70, 
                            "dur": 300.0, 
                            "type": "note", 
                            "channel": 2
                        }
                    ]
                ], 
                [
                    11802.429007012, 
                    [
                        {
                            "pitch": 50, 
                            "t0": 11802.429007012, 
                            "v": 90, 
                            "dur": 300.0, 
                            "type": "note", 
                            "channel": 2
                        }
                    ]
                ], 
                [
                    11873.001643365247, 
                    [
                        {
                            "pitch": 51, 
                            "t0": 11873.001643365247, 
                            "v": 60, 
                            "dur": 150.0, 
                            "type": "note", 
                            "channel": 2
                        }
                    ]
                ], 
                [
                    12083.647105528502, 
                    [
                        {
                            "pitch": 52, 
                            "t0": 12083.647105528502, 
                            "v": 70, 
                            "dur": 150.0, 
                            "type": "note", 
                            "channel": 2
                        }
                    ]
                ], 
                [
                    12223.192714438064, 
                    [
                        {
                            "pitch": 53, 
                            "t0": 12223.192714438064, 
                            "v": 70, 
                            "dur": 300.0, 
                            "type": "note", 
                            "channel": 2
                        }
                    ]
                ], 
                [
                    12362.038843674716, 
                    [
                        {
                            "pitch": 50, 
                            "t0": 12362.038843674716, 
                            "v": 90, 
                            "dur": 300.0, 
                            "type": "note", 
                            "channel": 2
                        }
                    ]
                ], 
                [
                    12431.201787934475, 
                    [
                        {
                            "pitch": 51, 
                            "t0": 12431.201787934475, 
                            "v": 60, 
                            "dur": 150.0, 
                            "type": "note", 
                            "channel": 2
                        }
                    ]
                ], 
                [
                    12637.660468834465, 
                    [
                        {
                            "pitch": 52, 
                            "t0": 12637.660468834465, 
                            "v": 70, 
                            "dur": 150.0, 
                            "type": "note", 
                            "channel": 2
                        }
                    ]
                ], 
                [
                    12774.449609955389, 
                    [
                        {
                            "pitch": 53, 
                            "t0": 12774.449609955389, 
                            "v": 70, 
                            "dur": 300.0, 
                            "type": "note", 
                            "channel": 2
                        }
                    ]
                ], 
                [
                    12910.566565852716, 
                    [
                        {
                            "pitch": 50, 
                            "t0": 12910.566565852716, 
                            "v": 90, 
                            "dur": 300.0, 
                            "type": "note", 
                            "channel": 2
                        }
                    ]
                ], 
                [
                    12978.375032481585, 
                    [
                        {
                            "pitch": 51, 
                            "t0": 12978.375032481585, 
                            "v": 60, 
                            "dur": 150.0, 
                            "type": "note", 
                            "channel": 2
                        }
                    ]
                ], 
                [
                    13180.810121917795, 
                    [
                        {
                            "pitch": 52, 
                            "t0": 13180.810121917795, 
                            "v": 70, 
                            "dur": 150.0, 
                            "type": "note", 
                            "channel": 2
                        }
                    ]
                ], 
                [
                    13314.949583987043, 
                    [
                        {
                            "pitch": 53, 
                            "t0": 13314.949583987043, 
                            "v": 70, 
                            "dur": 300.0, 
                            "type": "note", 
                            "channel": 2
                        }
                    ]
                ], 
                [
                    13448.44258830897, 
                    [
                        {
                            "pitch": 50, 
                            "t0": 13448.44258830897, 
                            "v": 90, 
                            "dur": 300.0, 
                            "type": "note", 
                            "channel": 2
                        }
                    ]
                ], 
                [
                    13514.948610137542, 
                    [
                        {
                            "pitch": 51, 
                            "t0": 13514.948610137542, 
                            "v": 60, 
                            "dur": 150.0, 
                            "type": "note", 
                            "channel": 2
                        }
                    ]
                ], 
                [
                    13713.51393918956, 
                    [
                        {
                            "pitch": 52, 
                            "t0": 13713.51393918956, 
                            "v": 70, 
                            "dur": 150.0, 
                            "type": "note", 
                            "channel": 2
                        }
                    ]
                ], 
                [
                    13845.104423177954, 
                    [
                        {
                            "pitch": 53, 
                            "t0": 13845.104423177954, 
                            "v": 70, 
                            "dur": 300.0, 
                            "type": "note", 
                            "channel": 2
                        }
                    ]
                ], 
                [
                    13976.072727613424, 
                    [
                        {
                            "pitch": 50, 
                            "t0": 13976.072727613424, 
                            "v": 90, 
                            "dur": 300.0, 
                            "type": "note", 
                            "channel": 2
                        }
                    ]
                ], 
                [
                    14041.325395681235, 
                    [
                        {
                            "pitch": 51, 
                            "t0": 14041.325395681235, 
                            "v": 60, 
                            "dur": 150.0, 
                            "type": "note", 
                            "channel": 2
                        }
                    ]
                ], 
                [
                    14236.166138902021, 
                    [
                        {
                            "pitch": 52, 
                            "t0": 14236.166138902021, 
                            "v": 70, 
                            "dur": 150.0, 
                            "type": "note", 
                            "channel": 2
                        }
                    ]
                ], 
                [
                    14365.302712117642, 
                    [
                        {
                            "pitch": 53, 
                            "t0": 14365.302712117642, 
                            "v": 70, 
                            "dur": 300.0, 
                            "type": "note", 
                            "channel": 2
                        }
                    ]
                ], 
                [
                    14493.840041538599, 
                    [
                        {
                            "pitch": 50, 
                            "t0": 14493.840041538599, 
                            "v": 90, 
                            "dur": 300.0, 
                            "type": "note", 
                            "channel": 2
                        }
                    ]
                ], 
                [
                    14557.885722753119, 
                    [
                        {
                            "pitch": 51, 
                            "t0": 14557.885722753119, 
                            "v": 60, 
                            "dur": 150.0, 
                            "type": "note", 
                            "channel": 2
                        }
                    ]
                ], 
                [
                    14749.139035716988, 
                    [
                        {
                            "pitch": 52, 
                            "t0": 14749.139035716988, 
                            "v": 70, 
                            "dur": 150.0, 
                            "type": "note", 
                            "channel": 2
                        }
                    ]
                ], 
                [
                    14875.911544342525, 
                    [
                        {
                            "pitch": 53, 
                            "t0": 14875.911544342525, 
                            "v": 70, 
                            "dur": 300.0, 
                            "type": "note", 
                            "channel": 2
                        }
                    ]
                ], 
                [
                    15002.106499673462, 
                    [
                        {
                            "pitch": 50, 
                            "t0": 15002.106499673462, 
                            "v": 90, 
                            "dur": 300.0, 
                            "type": "note", 
                            "channel": 2
                        }
                    ]
                ], 
                [
                    15064.989034704393, 
                    [
                        {
                            "pitch": 51, 
                            "t0": 15064.989034704393, 
                            "v": 60, 
                            "dur": 150.0, 
                            "type": "note", 
                            "channel": 2
                        }
                    ]
                ], 
                [
                    15252.78463392204, 
                    [
                        {
                            "pitch": 52, 
                            "t0": 15252.78463392204, 
                            "v": 70, 
                            "dur": 150.0, 
                            "type": "note", 
                            "channel": 2
                        }
                    ]
                ], 
                [
                    15377.278078469852, 
                    [
                        {
                            "pitch": 53, 
                            "t0": 15377.278078469852, 
                            "v": 70, 
                            "dur": 300.0, 
                            "type": "note", 
                            "channel": 2
                        }
                    ]
                ], 
                [
                    15501.214503506, 
                    [
                        {
                            "pitch": 50, 
                            "t0": 15501.214503506, 
                            "v": 90, 
                            "dur": 300.0, 
                            "type": "note", 
                            "channel": 2
                        }
                    ]
                ], 
                [
                    15562.975387030025, 
                    [
                        {
                            "pitch": 51, 
                            "t0": 15562.975387030025, 
                            "v": 60, 
                            "dur": 150.0, 
                            "type": "note", 
                            "channel": 2
                        }
                    ]
                ], 
                [
                    15747.436078371607, 
                    [
                        {
                            "pitch": 52, 
                            "t0": 15747.436078371607, 
                            "v": 70, 
                            "dur": 150.0, 
                            "type": "note", 
                            "channel": 2
                        }
                    ]
                ], 
                [
                    15869.730955985568, 
                    [
                        {
                            "pitch": 53, 
                            "t0": 15869.730955985568, 
                            "v": 70, 
                            "dur": 300.0, 
                            "type": "note", 
                            "channel": 2
                        }
                    ]
                ], 
                [
                    15991.48827196304, 
                    [
                        {
                            "pitch": 50, 
                            "t0": 15991.48827196304, 
                            "v": 90, 
                            "dur": 300.0, 
                            "type": "note", 
                            "channel": 2
                        }
                    ]
                ], 
                [
                    16052.16681711494, 
                    [
                        {
                            "pitch": 51, 
                            "t0": 16052.16681711494, 
                            "v": 60, 
                            "dur": 150.0, 
                            "type": "note", 
                            "channel": 2
                        }
                    ]
                ], 
                [
                    16233.408978132005, 
                    [
                        {
                            "pitch": 52, 
                            "t0": 16233.408978132005, 
                            "v": 70, 
                            "dur": 150.0, 
                            "type": "note", 
                            "channel": 2
                        }
                    ]
                ], 
                [
                    16353.581595188305, 
                    [
                        {
                            "pitch": 53, 
                            "t0": 16353.581595188305, 
                            "v": 70, 
                            "dur": 300.0, 
                            "type": "note", 
                            "channel": 2
                        }
                    ]
                ], 
                [
                    16473.23510644939, 
                    [
                        {
                            "pitch": 50, 
                            "t0": 16473.23510644939, 
                            "v": 90, 
                            "dur": 300.0, 
                            "type": "note", 
                            "channel": 2
                        }
                    ]
                ], 
                [
                    16532.86859511156, 
                    [
                        {
                            "pitch": 51, 
                            "t0": 16532.86859511156, 
                            "v": 60, 
                            "dur": 150.0, 
                            "type": "note", 
                            "channel": 2
                        }
                    ]
                ], 
                [
                    16711.002616001373, 
                    [
                        {
                            "pitch": 52, 
                            "t0": 16711.002616001373, 
                            "v": 70, 
                            "dur": 150.0, 
                            "type": "note", 
                            "channel": 2
                        }
                    ]
                ], 
                [
                    16829.125374047995, 
                    [
                        {
                            "pitch": 53, 
                            "t0": 16829.125374047995, 
                            "v": 70, 
                            "dur": 300.0, 
                            "type": "note", 
                            "channel": 2
                        }
                    ]
                ], 
                [
                    16946.74654774735, 
                    [
                        {
                            "pitch": 50, 
                            "t0": 16946.74654774735, 
                            "v": 90, 
                            "dur": 300.0, 
                            "type": "note", 
                            "channel": 2
                        }
                    ]
                ], 
                [
                    17005.37036811639, 
                    [
                        {
                            "pitch": 51, 
                            "t0": 17005.37036811639, 
                            "v": 60, 
                            "dur": 150.0, 
                            "type": "note", 
                            "channel": 2
                        }
                    ]
                ], 
                [
                    17180.50105551251, 
                    [
                        {
                            "pitch": 52, 
                            "t0": 17180.50105551251, 
                            "v": 70, 
                            "dur": 150.0, 
                            "type": "note", 
                            "channel": 2
                        }
                    ]
                ], 
                [
                    17296.642713230376, 
                    [
                        {
                            "pitch": 53, 
                            "t0": 17296.642713230376, 
                            "v": 70, 
                            "dur": 300.0, 
                            "type": "note", 
                            "channel": 2
                        }
                    ]
                ], 
                [
                    17412.29943568356, 
                    [
                        {
                            "pitch": 50, 
                            "t0": 17412.29943568356, 
                            "v": 90, 
                            "dur": 300.0, 
                            "type": "note", 
                            "channel": 2
                        }
                    ]
                ], 
                [
                    17469.947208384805, 
                    [
                        {
                            "pitch": 51, 
                            "t0": 17469.947208384805, 
                            "v": 60, 
                            "dur": 150.0, 
                            "type": "note", 
                            "channel": 2
                        }
                    ]
                ], 
                [
                    17642.174155672215, 
                    [
                        {
                            "pitch": 52, 
                            "t0": 17642.174155672215, 
                            "v": 70, 
                            "dur": 150.0, 
                            "type": "note", 
                            "channel": 2
                        }
                    ]
                ], 
                [
                    17756.400069230993, 
                    [
                        {
                            "pitch": 53, 
                            "t0": 17756.400069230993, 
                            "v": 70, 
                            "dur": 300.0, 
                            "type": "note", 
                            "channel": 2
                        }
                    ]
                ], 
                [
                    17870.156881207415, 
                    [
                        {
                            "pitch": 50, 
                            "t0": 17870.156881207415, 
                            "v": 90, 
                            "dur": 300.0, 
                            "type": "note", 
                            "channel": 2
                        }
                    ]
                ], 
                [
                    17926.860575082886, 
                    [
                        {
                            "pitch": 51, 
                            "t0": 17926.860575082886, 
                            "v": 60, 
                            "dur": 150.0, 
                            "type": "note", 
                            "channel": 2
                        }
                    ]
                ], 
                [
                    18096.278502513414, 
                    [
                        {
                            "pitch": 52, 
                            "t0": 18096.278502513414, 
                            "v": 70, 
                            "dur": 150.0, 
                            "type": "note", 
                            "channel": 2
                        }
                    ]
                ], 
                [
                    18208.650846425808, 
                    [
                        {
                            "pitch": 53, 
                            "t0": 18208.650846425808, 
                            "v": 70, 
                            "dur": 300.0, 
                            "type": "note", 
                            "channel": 2
                        }
                    ]
                ], 
                [
                    18320.569159428, 
                    [
                        {
                            "pitch": 50, 
                            "t0": 18320.569159428, 
                            "v": 90, 
                            "dur": 300.0, 
                            "type": "note", 
                            "channel": 2
                        }
                    ]
                ], 
                [
                    18376.3591979959, 
                    [
                        {
                            "pitch": 51, 
                            "t0": 18376.3591979959, 
                            "v": 60, 
                            "dur": 150.0, 
                            "type": "note", 
                            "channel": 2
                        }
                    ]
                ], 
                [
                    18543.05826551207, 
                    [
                        {
                            "pitch": 52, 
                            "t0": 18543.05826551207, 
                            "v": 70, 
                            "dur": 150.0, 
                            "type": "note", 
                            "channel": 2
                        }
                    ]
                ], 
                [
                    18653.63623585482, 
                    [
                        {
                            "pitch": 53, 
                            "t0": 18653.63623585482, 
                            "v": 70, 
                            "dur": 300.0, 
                            "type": "note", 
                            "channel": 2
                        }
                    ]
                ], 
                [
                    18763.774531198404, 
                    [
                        {
                            "pitch": 50, 
                            "t0": 18763.774531198404, 
                            "v": 90, 
                            "dur": 300.0, 
                            "type": "note", 
                            "channel": 2
                        }
                    ]
                ], 
                [
                    18818.67989067181, 
                    [
                        {
                            "pitch": 51, 
                            "t0": 18818.67989067181, 
                            "v": 60, 
                            "dur": 150.0, 
                            "type": "note", 
                            "channel": 2
                        }
                    ]
                ], 
                [
                    18982.745986025584, 
                    [
                        {
                            "pitch": 52, 
                            "t0": 18982.745986025584, 
                            "v": 70, 
                            "dur": 150.0, 
                            "type": "note", 
                            "channel": 2
                        }
                    ]
                ], 
                [
                    19091.58598769008, 
                    [
                        {
                            "pitch": 53, 
                            "t0": 19091.58598769008, 
                            "v": 70, 
                            "dur": 300.0, 
                            "type": "note", 
                            "channel": 2
                        }
                    ]
                ]
            ], 
            "numNotes": 128
        }
    ], 
    "type": "MidiObj"
}