{
    "format": 1, 
    "instruments": [
        127
    ], 
    "resolution": 600, 
    "channels": [
        0, 
        1, 
        2, 
        3, 
        4
    ], 
    "tracks": [
        {
            "trackName": "risset v=-2", 
            "seq": [
                [
                    0, 
                    [
                        {
                            "instrument": 127, 
                            "type": "programChange", 
                            "t0": 0, 
                            "channel": 0
                        }, 
                        {
                            "pitch": 50, 
                            "t0": 0.0, 
                            "v": 0.029398499615650997, 
                            "dur": 1731.2340490667561, 
                            "type": "note", 
                            "channel": 0
                        }
                    ]
                ], 
                [
                    1679.286552006515, 
                    [
                        {
                            "pitch": 51, 
                            "t0": 1679.286552006515, 
                            "v": 0.08157141948301194, 
                            "dur": 814.6983760314145, 
                            "type": "note", 
                            "channel": 0
                        }
                    ]
                ], 
                [
                    6181.019421837354, 
                    [
                        {
                            "pitch": 52, 
                            "t0": 6181.019421837354, 
                            "v": 2.348307555763588, 
                            "dur": 692.4936196267026, 
                            "type": "note", 
                            "channel": 0
                        }
                    ]
                ], 
                [
                    8821.087077836104, 
                    [
                        {
                            "pitch": 53, 
                            "t0": 8821.087077836104, 
                            "v": 5.001629522576144, 
                            "dur": 1259.079308412187, 
                            "type": "note", 
                            "channel": 0
                        }
                    ]
                ], 
                [
                    11231.2800138462, 
                    [
                        {
                            "pitch": 50, 
                            "t0": 11231.2800138462, 
                            "v": 10.551295246203757, 
                            "dur": 1154.156032711171, 
                            "type": "note", 
                            "channel": 0
                        }
                    ]
                ], 
                [
                    12362.038843674713, 
                    [
                        {
                            "pitch": 51, 
                            "t0": 12362.038843674713, 
                            "v": 8.524269644525566, 
                            "dur": 553.9948957013621, 
                            "type": "note", 
                            "channel": 0
                        }
                    ]
                ], 
                [
                    15501.214503506, 
                    [
                        {
                            "pitch": 52, 
                            "t0": 15501.214503506, 
                            "v": 15.457821668023415, 
                            "dur": 494.6382997333585, 
                            "type": "note", 
                            "channel": 0
                        }
                    ]
                ], 
                [
                    17412.299435683555, 
                    [
                        {
                            "pitch": 53, 
                            "t0": 17412.299435683555, 
                            "v": 19.23288829549742, 
                            "dur": 923.3248261689369, 
                            "type": "note", 
                            "channel": 0
                        }
                    ]
                ], 
                [
                    19200.0, 
                    [
                        {
                            "pitch": 50, 
                            "t0": 19200.0, 
                            "v": 29.55657310879, 
                            "dur": 865.6170245333778, 
                            "type": "note", 
                            "channel": 0
                        }
                    ]
                ]
            ], 
            "instruments": [
                127
            ], 
            "channels": [
                0
            ], 
            "numNotes": 9, 
            "type": "TrackObj"
        }, 
        {
            "trackName": "risset v=-1", 
            "seq": [
                [
                    0, 
                    [
                        {
                            "instrument": 127, 
                            "type": "programChange", 
                            "t0": 0, 
                            "channel": 1
                        }, 
                        {
                            "pitch": 50, 
                            "t0": 0.0, 
                            "v": 29.55657310879, 
                            "dur": 865.6170245333781, 
                            "type": "note", 
                            "channel": 1
                        }
                    ]
                ], 
                [
                    852.367091682305, 
                    [
                        {
                            "pitch": 51, 
                            "t0": 852.367091682305, 
                            "v": 21.291558761486183, 
                            "dur": 419.69310280406216, 
                            "type": "note", 
                            "channel": 1
                        }
                    ]
                ], 
                [
                    3262.5600276923974, 
                    [
                        {
                            "pitch": 52, 
                            "t0": 3262.5600276923974, 
                            "v": 30.227817985187027, 
                            "dur": 384.71867757039035, 
                            "type": "note", 
                            "channel": 1
                        }
                    ]
                ], 
                [
                    4760.208258116842, 
                    [
                        {
                            "pitch": 53, 
                            "t0": 4760.208258116842, 
                            "v": 33.6439755933438, 
                            "dur": 728.9406522386344, 
                            "type": "note", 
                            "channel": 1
                        }
                    ]
                ], 
                [
                    6181.019421837356, 
                    [
                        {
                            "pitch": 50, 
                            "t0": 6181.019421837356, 
                            "v": 47.43954134518212, 
                            "dur": 692.4936196267026, 
                            "type": "note", 
                            "channel": 1
                        }
                    ]
                ], 
                [
                    6864.998488667206, 
                    [
                        {
                            "pitch": 51, 
                            "t0": 6864.998488667206, 
                            "v": 32.9652984956121, 
                            "dur": 337.80176567156195, 
                            "type": "note", 
                            "channel": 1
                        }
                    ]
                ], 
                [
                    8821.087077836106, 
                    [
                        {
                            "pitch": 52, 
                            "t0": 8821.087077836106, 
                            "v": 42.87798760173755, 
                            "dur": 314.7698271030458, 
                            "type": "note", 
                            "channel": 1
                        }
                    ]
                ], 
                [
                    10052.389556294647, 
                    [
                        {
                            "pitch": 53, 
                            "t0": 10052.389556294647, 
                            "v": 45.59766611278025, 
                            "dur": 602.1683648927847, 
                            "type": "note", 
                            "channel": 1
                        }
                    ]
                ], 
                [
                    11231.280013846199, 
                    [
                        {
                            "pitch": 50, 
                            "t0": 11231.280013846199, 
                            "v": 61.89087708819449, 
                            "dur": 577.0780163555846, 
                            "type": "note", 
                            "channel": 1
                        }
                    ]
                ], 
                [
                    11802.429007011997, 
                    [
                        {
                            "pitch": 51, 
                            "t0": 11802.429007011997, 
                            "v": 42.29192625558016, 
                            "dur": 282.65045699049006, 
                            "type": "note", 
                            "channel": 1
                        }
                    ]
                ], 
                [
                    13448.44258830897, 
                    [
                        {
                            "pitch": 52, 
                            "t0": 13448.44258830897, 
                            "v": 52.690355700450084, 
                            "dur": 266.3436998564248, 
                            "type": "note", 
                            "channel": 1
                        }
                    ]
                ], 
                [
                    14493.840041538597, 
                    [
                        {
                            "pitch": 53, 
                            "t0": 14493.840041538597, 
                            "v": 54.71368189677874, 
                            "dur": 512.9582367605199, 
                            "type": "note", 
                            "channel": 1
                        }
                    ]
                ], 
                [
                    15501.214503505998, 
                    [
                        {
                            "pitch": 50, 
                            "t0": 15501.214503505998, 
                            "v": 72.74088075164477, 
                            "dur": 494.6382997333585, 
                            "type": "note", 
                            "channel": 1
                        }
                    ]
                ], 
                [
                    15991.48827196304, 
                    [
                        {
                            "pitch": 51, 
                            "t0": 15991.48827196304, 
                            "v": 49.24224456086041, 
                            "dur": 242.98021741287812, 
                            "type": "note", 
                            "channel": 1
                        }
                    ]
                ], 
                [
                    17412.299435683555, 
                    [
                        {
                            "pitch": 52, 
                            "t0": 17412.299435683555, 
                            "v": 59.84571024774391, 
                            "dur": 230.8312065422324, 
                            "type": "note", 
                            "channel": 1
                        }
                    ]
                ], 
                [
                    18320.569159428003, 
                    [
                        {
                            "pitch": 53, 
                            "t0": 18320.569159428003, 
                            "v": 61.26638877161012, 
                            "dur": 446.77007717851666, 
                            "type": "note", 
                            "channel": 1
                        }
                    ]
                ], 
                [
                    19200.0, 
                    [
                        {
                            "pitch": 50, 
                            "t0": 19200.0, 
                            "v": 80.42603877884244, 
                            "dur": 432.8085122666889, 
                            "type": "note", 
                            "channel": 1
                        }
                    ]
                ]
            ], 
            "instruments": [
                127
            ], 
            "channels": [
                1
            ], 
            "numNotes": 17, 
            "type": "TrackObj"
        }, 
        {
            "trackName": "risset v=0", 
            "seq": [
                [
                    0, 
                    [
                        {
                            "instrument": 127, 
                            "type": "programChange", 
                            "t0": 0, 
                            "channel": 2
                        }, 
                        {
                            "pitch": 50, 
                            "t0": 0.0, 
                            "v": 80.42603877884244, 
                            "dur": 432.80851226668904, 
                            "type": "note", 
                            "channel": 2
                        }
                    ]
                ], 
                [
                    429.4620101463266, 
                    [
                        {
                            "pitch": 51, 
                            "t0": 429.4620101463266, 
                            "v": 54.12794121691101, 
                            "dur": 213.0749598851392, 
                            "type": "note", 
                            "channel": 2
                        }
                    ]
                ], 
                [
                    1679.2865520065166, 
                    [
                        {
                            "pitch": 52, 
                            "t0": 1679.2865520065166, 
                            "v": 64.75465743701676, 
                            "dur": 203.67459400785356, 
                            "type": "note", 
                            "channel": 2
                        }
                    ]
                ], 
                [
                    2482.233925343356, 
                    [
                        {
                            "pitch": 53, 
                            "t0": 2482.233925343356, 
                            "v": 65.68167431707292, 
                            "dur": 395.7106397866869, 
                            "type": "note", 
                            "channel": 2
                        }
                    ]
                ], 
                [
                    3262.5600276923974, 
                    [
                        {
                            "pitch": 50, 
                            "t0": 3262.5600276923974, 
                            "v": 85.50183275479667, 
                            "dur": 384.71867757039035, 
                            "type": "note", 
                            "channel": 2
                        }
                    ]
                ], 
                [
                    3644.631530496331, 
                    [
                        {
                            "pitch": 51, 
                            "t0": 3644.631530496331, 
                            "v": 57.31968552453178, 
                            "dur": 189.72427934978168, 
                            "type": "note", 
                            "channel": 2
                        }
                    ]
                ], 
                [
                    4760.2082581168415, 
                    [
                        {
                            "pitch": 52, 
                            "t0": 4760.2082581168415, 
                            "v": 67.84295117580186, 
                            "dur": 182.2351630596586, 
                            "type": "note", 
                            "channel": 2
                        }
                    ]
                ], 
                [
                    5479.722602155168, 
                    [
                        {
                            "pitch": 53, 
                            "t0": 5479.722602155168, 
                            "v": 68.37600932497877, 
                            "dur": 355.1249331418985, 
                            "type": "note", 
                            "channel": 2
                        }
                    ]
                ], 
                [
                    6181.019421837357, 
                    [
                        {
                            "pitch": 50, 
                            "t0": 6181.019421837357, 
                            "v": 88.48846689658713, 
                            "dur": 346.2468098133513, 
                            "type": "note", 
                            "channel": 2
                        }
                    ]
                ], 
                [
                    6525.120055384795, 
                    [
                        {
                            "pitch": 51, 
                            "t0": 6525.120055384795, 
                            "v": 59.158586389035705, 
                            "dur": 170.9860789201739, 
                            "type": "note", 
                            "channel": 2
                        }
                    ]
                ], 
                [
                    7532.494517352198, 
                    [
                        {
                            "pitch": 52, 
                            "t0": 7532.494517352198, 
                            "v": 69.48674420656336, 
                            "dur": 164.87943324445314, 
                            "type": "note", 
                            "channel": 2
                        }
                    ]
                ], 
                [
                    8184.283290280281, 
                    [
                        {
                            "pitch": 53, 
                            "t0": 8184.283290280281, 
                            "v": 69.7100529615336, 
                            "dur": 322.0900556403276, 
                            "type": "note", 
                            "channel": 2
                        }
                    ]
                ], 
                [
                    8821.087077836108, 
                    [
                        {
                            "pitch": 50, 
                            "t0": 8821.087077836108, 
                            "v": 89.82930160060448, 
                            "dur": 314.7698271030458, 
                            "type": "note", 
                            "channel": 2
                        }
                    ]
                ], 
                [
                    9134.081874554837, 
                    [
                        {
                            "pitch": 51, 
                            "t0": 9134.081874554837, 
                            "v": 59.93340499054648, 
                            "dur": 155.61654373633792, 
                            "type": "note", 
                            "channel": 2
                        }
                    ]
                ], 
                [
                    10052.389556294649, 
                    [
                        {
                            "pitch": 52, 
                            "t0": 10052.389556294649, 
                            "v": 69.99925148521415, 
                            "dur": 150.54209122319662, 
                            "type": "note", 
                            "channel": 2
                        }
                    ]
                ], 
                [
                    10648.105952210637, 
                    [
                        {
                            "pitch": 53, 
                            "t0": 10648.105952210637, 
                            "v": 69.9815746593878, 
                            "dur": 294.67813601136186, 
                            "type": "note", 
                            "channel": 2
                        }
                    ]
                ], 
                [
                    11231.280013846199, 
                    [
                        {
                            "pitch": 50, 
                            "t0": 11231.280013846199, 
                            "v": 89.88784089409731, 
                            "dur": 288.5390081777932, 
                            "type": "note", 
                            "channel": 2
                        }
                    ]
                ], 
                [
                    11518.326569992852, 
                    [
                        {
                            "pitch": 51, 
                            "t0": 11518.326569992852, 
                            "v": 59.88018025658966, 
                            "dur": 142.78218961375387, 
                            "type": "note", 
                            "channel": 2
                        }
                    ]
                ], 
                [
                    12362.038843674714, 
                    [
                        {
                            "pitch": 52, 
                            "t0": 12362.038843674714, 
                            "v": 69.63459503741873, 
                            "dur": 138.49872392534053, 
                            "type": "note", 
                            "channel": 2
                        }
                    ]
                ], 
                [
                    12910.566565852716, 
                    [
                        {
                            "pitch": 53, 
                            "t0": 12910.566565852716, 
                            "v": 69.43122110491768, 
                            "dur": 271.56612534380474, 
                            "type": "note", 
                            "channel": 2
                        }
                    ]
                ], 
                [
                    13448.44258830897, 
                    [
                        {
                            "pitch": 50, 
                            "t0": 13448.44258830897, 
                            "v": 88.95690708196004, 
                            "dur": 266.3436998564248, 
                            "type": "note", 
                            "channel": 2
                        }
                    ]
                ], 
                [
                    13713.513939189555, 
                    [
                        {
                            "pitch": 51, 
                            "t0": 13713.513939189555, 
                            "v": 59.18878843759968, 
                            "dur": 131.90354659556215, 
                            "type": "note", 
                            "channel": 2
                        }
                    ]
                ], 
                [
                    14493.840041538597, 
                    [
                        {
                            "pitch": 52, 
                            "t0": 14493.840041538597, 
                            "v": 68.59648864094525, 
                            "dur": 128.2395591901295, 
                            "type": "note", 
                            "channel": 2
                        }
                    ]
                ], 
                [
                    15002.106499673466, 
                    [
                        {
                            "pitch": 53, 
                            "t0": 15002.106499673466, 
                            "v": 68.25155456231487, 
                            "dur": 251.81586168243666, 
                            "type": "note", 
                            "channel": 2
                        }
                    ]
                ], 
                [
                    15501.214503505998, 
                    [
                        {
                            "pitch": 50, 
                            "t0": 15501.214503505998, 
                            "v": 87.27046503777267, 
                            "dur": 247.31914986668016, 
                            "type": "note", 
                            "channel": 2
                        }
                    ]
                ], 
                [
                    15747.436078371607, 
                    [
                        {
                            "pitch": 51, 
                            "t0": 15747.436078371607, 
                            "v": 58.010843989199884, 
                            "dur": 122.56524241180523, 
                            "type": "note", 
                            "channel": 2
                        }
                    ]
                ], 
                [
                    16473.235106449385, 
                    [
                        {
                            "pitch": 52, 
                            "t0": 16473.235106449385, 
                            "v": 67.04734292295181, 
                            "dur": 119.39545165977688, 
                            "type": "note", 
                            "channel": 2
                        }
                    ]
                ], 
                [
                    16946.746547747352, 
                    [
                        {
                            "pitch": 53, 
                            "t0": 16946.746547747352, 
                            "v": 66.59597378137705, 
                            "dur": 234.74359987345815, 
                            "type": "note", 
                            "channel": 2
                        }
                    ]
                ], 
                [
                    17412.299435683555, 
                    [
                        {
                            "pitch": 50, 
                            "t0": 17412.299435683555, 
                            "v": 85.01477800145128, 
                            "dur": 230.8312065422324, 
                            "type": "note", 
                            "channel": 2
                        }
                    ]
                ], 
                [
                    17642.174155672215, 
                    [
                        {
                            "pitch": 51, 
                            "t0": 17642.174155672215, 
                            "v": 56.46701772779301, 
                            "dur": 114.4617553101998, 
                            "type": "note", 
                            "channel": 2
                        }
                    ]
                ], 
                [
                    18320.569159428003, 
                    [
                        {
                            "pitch": 52, 
                            "t0": 18320.569159428003, 
                            "v": 65.11634076071147, 
                            "dur": 111.69251929462916, 
                            "type": "note", 
                            "channel": 2
                        }
                    ]
                ], 
                [
                    18763.774531198396, 
                    [
                        {
                            "pitch": 53, 
                            "t0": 18763.774531198396, 
                            "v": 64.58645681289326, 
                            "dur": 219.8392443259363, 
                            "type": "note", 
                            "channel": 2
                        }
                    ]
                ]
            ], 
            "instruments": [
                127
            ], 
            "channels": [
                2
            ], 
            "numNotes": 32, 
            "type": "TrackObj"
        }, 
        {
            "trackName": "risset v=1", 
            "seq": [
                [
                    0, 
                    [
                        {
                            "instrument": 127, 
                            "type": "programChange", 
                            "t0": 0, 
                            "channel": 3
                        }, 
                        {
                            "pitch": 50, 
                            "t0": 0.0, 
                            "v": 82.33792294330645, 
                            "dur": 216.40425613334452, 
                            "type": "note", 
                            "channel": 3
                        }
                    ]
                ], 
                [
                    215.56330412648066, 
                    [
                        {
                            "pitch": 51, 
                            "t0": 215.56330412648066, 
                            "v": 54.65323258945725, 
                            "dur": 107.3633518801089, 
                            "type": "note", 
                            "channel": 3
                        }
                    ]
                ], 
                [
                    852.367091682305, 
                    [
                        {
                            "pitch": 52, 
                            "t0": 852.367091682305, 
                            "v": 62.906149976197334, 
                            "dur": 104.92327570101554, 
                            "type": "note", 
                            "channel": 3
                        }
                    ]
                ], 
                [
                    1268.9124567892322, 
                    [
                        {
                            "pitch": 53, 
                            "t0": 1268.9124567892322, 
                            "v": 62.31993602872524, 
                            "dur": 206.71451332140373, 
                            "type": "note", 
                            "channel": 3
                        }
                    ]
                ], 
                [
                    1679.2865520065193, 
                    [
                        {
                            "pitch": 50, 
                            "t0": 1679.2865520065193, 
                            "v": 79.35756336658687, 
                            "dur": 203.67459400785356, 
                            "type": "note", 
                            "channel": 3
                        }
                    ]
                ], 
                [
                    1882.2159928421142, 
                    [
                        {
                            "pitch": 51, 
                            "t0": 1882.2159928421142, 
                            "v": 52.64570744606708, 
                            "dur": 101.09395906959162, 
                            "type": "note", 
                            "channel": 3
                        }
                    ]
                ], 
                [
                    2482.2339253433584, 
                    [
                        {
                            "pitch": 52, 
                            "t0": 2482.2339253433584, 
                            "v": 60.49834148982112, 
                            "dur": 98.92765994667161, 
                            "type": "note", 
                            "channel": 3
                        }
                    ]
                ], 
                [
                    2875.144694489899, 
                    [
                        {
                            "pitch": 53, 
                            "t0": 2875.144694489899, 
                            "v": 59.873420648296396, 
                            "dur": 195.06862524695862, 
                            "type": "note", 
                            "channel": 3
                        }
                    ]
                ], 
                [
                    3262.5600276923974, 
                    [
                        {
                            "pitch": 50, 
                            "t0": 3262.5600276923974, 
                            "v": 76.16717183960193, 
                            "dur": 192.35933878519518, 
                            "type": "note", 
                            "channel": 3
                        }
                    ]
                ], 
                [
                    3454.2545282867422, 
                    [
                        {
                            "pitch": 51, 
                            "t0": 3454.2545282867422, 
                            "v": 50.50498847053302, 
                            "dur": 95.51636132782096, 
                            "type": "note", 
                            "channel": 3
                        }
                    ]
                ], 
                [
                    4021.504620075838, 
                    [
                        {
                            "pitch": 52, 
                            "t0": 4021.504620075838, 
                            "v": 57.95770279570061, 
                            "dur": 93.58021886847291, 
                            "type": "note", 
                            "channel": 3
                        }
                    ]
                ], 
                [
                    4393.318857520913, 
                    [
                        {
                            "pitch": 53, 
                            "t0": 4393.318857520913, 
                            "v": 57.30806660651867, 
                            "dur": 184.66496523378737, 
                            "type": "note", 
                            "channel": 3
                        }
                    ]
                ], 
                [
                    4760.208258116841, 
                    [
                        {
                            "pitch": 50, 
                            "t0": 4760.208258116841, 
                            "v": 72.8409658167708, 
                            "dur": 182.2351630596586, 
                            "type": "note", 
                            "channel": 3
                        }
                    ]
                ], 
                [
                    4941.846579698912, 
                    [
                        {
                            "pitch": 51, 
                            "t0": 4941.846579698912, 
                            "v": 48.27914472283953, 
                            "dur": 90.52204178126794, 
                            "type": "note", 
                            "channel": 3
                        }
                    ]
                ], 
                [
                    5479.722602155167, 
                    [
                        {
                            "pitch": 52, 
                            "t0": 5479.722602155167, 
                            "v": 55.33565180715855, 
                            "dur": 88.78123328547463, 
                            "type": "note", 
                            "channel": 3
                        }
                    ]
                ], 
                [
                    5832.590365000376, 
                    [
                        {
                            "pitch": 53, 
                            "t0": 5832.590365000376, 
                            "v": 54.67239529517878, 
                            "dur": 175.31484041182375, 
                            "type": "note", 
                            "channel": 3
                        }
                    ]
                ], 
                [
                    6181.019421837358, 
                    [
                        {
                            "pitch": 50, 
                            "t0": 6181.019421837358, 
                            "v": 69.43780931553339, 
                            "dur": 173.1234049066752, 
                            "type": "note", 
                            "channel": 3
                        }
                    ]
                ], 
                [
                    6353.604059800647, 
                    [
                        {
                            "pitch": 51, 
                            "t0": 6353.604059800647, 
                            "v": 46.006293768169336, 
                            "dur": 86.02405212754093, 
                            "type": "note", 
                            "channel": 3
                        }
                    ]
                ], 
                [
                    6864.998488667208, 
                    [
                        {
                            "pitch": 52, 
                            "t0": 6864.998488667208, 
                            "v": 52.6729342771231, 
                            "dur": 84.45044141789094, 
                            "type": "note", 
                            "channel": 3
                        }
                    ]
                ], 
                [
                    7200.757081860955, 
                    [
                        {
                            "pitch": 53, 
                            "t0": 7200.757081860955, 
                            "v": 52.00483685852845, 
                            "dur": 166.86593244016967, 
                            "type": "note", 
                            "channel": 3
                        }
                    ]
                ], 
                [
                    7532.494517352196, 
                    [
                        {
                            "pitch": 50, 
                            "t0": 7532.494517352196, 
                            "v": 66.00429626666406, 
                            "dur": 164.87943324445314, 
                            "type": "note", 
                            "channel": 3
                        }
                    ]
                ], 
                [
                    7696.88517661794, 
                    [
                        {
                            "pitch": 51, 
                            "t0": 7696.88517661794, 
                            "v": 43.716597802778864, 
                            "dur": 81.95190764813015, 
                            "type": "note", 
                            "channel": 3
                        }
                    ]
                ], 
                [
                    8184.283290280284, 
                    [
                        {
                            "pitch": 52, 
                            "t0": 8184.283290280284, 
                            "v": 50.00175673676955, 
                            "dur": 80.52251391008213, 
                            "type": "note", 
                            "channel": 3
                        }
                    ]
                ], 
                [
                    8504.515120295586, 
                    [
                        {
                            "pitch": 53, 
                            "t0": 8504.515120295586, 
                            "v": 49.3357421198261, 
                            "dur": 159.19393554636918, 
                            "type": "note", 
                            "channel": 3
                        }
                    ]
                ], 
                [
                    8821.087077836108, 
                    [
                        {
                            "pitch": 50, 
                            "t0": 8821.087077836108, 
                            "v": 62.57719087885964, 
                            "dur": 157.3849135515229, 
                            "type": "note", 
                            "channel": 3
                        }
                    ]
                ], 
                [
                    8978.026561593555, 
                    [
                        {
                            "pitch": 51, 
                            "t0": 8978.026561593555, 
                            "v": 41.43384394961603, 
                            "dur": 78.24786662448605, 
                            "type": "note", 
                            "channel": 3
                        }
                    ]
                ], 
                [
                    9443.579449529756, 
                    [
                        {
                            "pitch": 52, 
                            "t0": 9443.579449529756, 
                            "v": 47.34747662488057, 
                            "dur": 76.94373551407807, 
                            "type": "note", 
                            "channel": 3
                        }
                    ]
                ], 
                [
                    9749.657091814966, 
                    [
                        {
                            "pitch": 53, 
                            "t0": 9749.657091814966, 
                            "v": 46.688977872199324, 
                            "dur": 152.19639991795702, 
                            "type": "note", 
                            "channel": 3
                        }
                    ]
                ], 
                [
                    10052.389556294647, 
                    [
                        {
                            "pitch": 50, 
                            "t0": 10052.389556294647, 
                            "v": 59.185363996140865, 
                            "dur": 150.54209122319662, 
                            "type": "note", 
                            "channel": 3
                        }
                    ]
                ], 
                [
                    10202.524041913191, 
                    [
                        {
                            "pitch": 51, 
                            "t0": 10202.524041913191, 
                            "v": 39.17669862982162, 
                            "dur": 150.0, 
                            "type": "note", 
                            "channel": 3
                        }
                    ]
                ], 
                [
                    10648.105952210637, 
                    [
                        {
                            "pitch": 52, 
                            "t0": 10648.105952210637, 
                            "v": 44.729945354243874, 
                            "dur": 150.0, 
                            "type": "note", 
                            "channel": 3
                        }
                    ]
                ], 
                [
                    10941.227679954198, 
                    [
                        {
                            "pitch": 53, 
                            "t0": 10941.227679954198, 
                            "v": 44.083195572375715, 
                            "dur": 300.0, 
                            "type": "note", 
                            "channel": 3
                        }
                    ]
                ], 
                [
                    11231.2800138462, 
                    [
                        {
                            "pitch": 50, 
                            "t0": 11231.2800138462, 
                            "v": 55.8513342659551, 
                            "dur": 300.0, 
                            "type": "note", 
                            "channel": 3
                        }
                    ]
                ], 
                [
                    11375.175115547145, 
                    [
                        {
                            "pitch": 51, 
                            "t0": 11375.175115547145, 
                            "v": 36.95970633625685, 
                            "dur": 150.0, 
                            "type": "note", 
                            "channel": 3
                        }
                    ]
                ], 
                [
                    11802.429007011997, 
                    [
                        {
                            "pitch": 52, 
                            "t0": 11802.429007011997, 
                            "v": 42.16457903053125, 
                            "dur": 150.0, 
                            "type": "note", 
                            "channel": 3
                        }
                    ]
                ], 
                [
                    12083.647105528511, 
                    [
                        {
                            "pitch": 53, 
                            "t0": 12083.647105528511, 
                            "v": 41.532843614400825, 
                            "dur": 300.0, 
                            "type": "note", 
                            "channel": 3
                        }
                    ]
                ], 
                [
                    12362.038843674716, 
                    [
                        {
                            "pitch": 50, 
                            "t0": 12362.038843674716, 
                            "v": 52.59249885303986, 
                            "dur": 300.0, 
                            "type": "note", 
                            "channel": 3
                        }
                    ]
                ], 
                [
                    12500.19247063543, 
                    [
                        {
                            "pitch": 51, 
                            "t0": 12500.19247063543, 
                            "v": 34.79408755057268, 
                            "dur": 150.0, 
                            "type": "note", 
                            "channel": 3
                        }
                    ]
                ], 
                [
                    12910.566565852716, 
                    [
                        {
                            "pitch": 52, 
                            "t0": 12910.566565852716, 
                            "v": 39.66321493485964, 
                            "dur": 150.0, 
                            "type": "note", 
                            "channel": 3
                        }
                    ]
                ], 
                [
                    13180.810121917795, 
                    [
                        {
                            "pitch": 53, 
                            "t0": 13180.810121917795, 
                            "v": 39.04897774812994, 
                            "dur": 300.0, 
                            "type": "note", 
                            "channel": 3
                        }
                    ]
                ], 
                [
                    13448.44258830897, 
                    [
                        {
                            "pitch": 50, 
                            "t0": 13448.44258830897, 
                            "v": 49.422119573536435, 
                            "dur": 300.0, 
                            "type": "note", 
                            "channel": 3
                        }
                    ]
                ], 
                [
                    13581.295335952953, 
                    [
                        {
                            "pitch": 51, 
                            "t0": 13581.295335952953, 
                            "v": 32.68837836004279, 
                            "dur": 150.0, 
                            "type": "note", 
                            "channel": 3
                        }
                    ]
                ], 
                [
                    13976.072727613424, 
                    [
                        {
                            "pitch": 52, 
                            "t0": 13976.072727613424, 
                            "v": 37.23479895205974, 
                            "dur": 150.0, 
                            "type": "note", 
                            "channel": 3
                        }
                    ]
                ], 
                [
                    14236.166138902026, 
                    [
                        {
                            "pitch": 53, 
                            "t0": 14236.166138902026, 
                            "v": 36.639912077016945, 
                            "dur": 300.0, 
                            "type": "note", 
                            "channel": 3
                        }
                    ]
                ], 
                [
                    14493.840041538599, 
                    [
                        {
                            "pitch": 50, 
                            "t0": 14493.840041538599, 
                            "v": 46.350115696253816, 
                            "dur": 300.0, 
                            "type": "note", 
                            "channel": 3
                        }
                    ]
                ], 
                [
                    14621.783662934007, 
                    [
                        {
                            "pitch": 51, 
                            "t0": 14621.783662934007, 
                            "v": 30.648944887235203, 
                            "dur": 150.0, 
                            "type": "note", 
                            "channel": 3
                        }
                    ]
                ], 
                [
                    15002.106499673462, 
                    [
                        {
                            "pitch": 52, 
                            "t0": 15002.106499673462, 
                            "v": 34.88593912590374, 
                            "dur": 150.0, 
                            "type": "note", 
                            "channel": 3
                        }
                    ]
                ], 
                [
                    15252.784633922034, 
                    [
                        {
                            "pitch": 53, 
                            "t0": 15252.784633922034, 
                            "v": 34.31174369563284, 
                            "dur": 300.0, 
                            "type": "note", 
                            "channel": 3
                        }
                    ]
                ], 
                [
                    15501.214503506, 
                    [
                        {
                            "pitch": 50, 
                            "t0": 15501.214503506, 
                            "v": 43.383703361962844, 
                            "dur": 300.0, 
                            "type": "note", 
                            "channel": 3
                        }
                    ]
                ], 
                [
                    15624.59887136711, 
                    [
                        {
                            "pitch": 51, 
                            "t0": 15624.59887136711, 
                            "v": 28.680398355231297, 
                            "dur": 150.0, 
                            "type": "note", 
                            "channel": 3
                        }
                    ]
                ], 
                [
                    15991.48827196304, 
                    [
                        {
                            "pitch": 52, 
                            "t0": 15991.48827196304, 
                            "v": 32.62135280600862, 
                            "dur": 150.0, 
                            "type": "note", 
                            "channel": 3
                        }
                    ]
                ], 
                [
                    16233.408978132005, 
                    [
                        {
                            "pitch": 53, 
                            "t0": 16233.408978132005, 
                            "v": 32.068776795624714, 
                            "dur": 300.0000000000018, 
                            "type": "note", 
                            "channel": 3
                        }
                    ]
                ], 
                [
                    16473.23510644939, 
                    [
                        {
                            "pitch": 50, 
                            "t0": 16473.23510644939, 
                            "v": 40.52791285751812, 
                            "dur": 300.0, 
                            "type": "note", 
                            "channel": 3
                        }
                    ]
                ], 
                [
                    16592.373977362182, 
                    [
                        {
                            "pitch": 51, 
                            "t0": 16592.373977362182, 
                            "v": 26.785930986940283, 
                            "dur": 150.0, 
                            "type": "note", 
                            "channel": 3
                        }
                    ]
                ], 
                [
                    16946.74654774735, 
                    [
                        {
                            "pitch": 52, 
                            "t0": 16946.74654774735, 
                            "v": 30.44422889670763, 
                            "dur": 150.0, 
                            "type": "note", 
                            "channel": 3
                        }
                    ]
                ], 
                [
                    17180.501055512515, 
                    [
                        {
                            "pitch": 53, 
                            "t0": 17180.501055512515, 
                            "v": 29.913866486883112, 
                            "dur": 300.0, 
                            "type": "note", 
                            "channel": 3
                        }
                    ]
                ], 
                [
                    17412.29943568356, 
                    [
                        {
                            "pitch": 50, 
                            "t0": 17412.29943568356, 
                            "v": 37.786008252936305, 
                            "dur": 300.0, 
                            "type": "note", 
                            "channel": 3
                        }
                    ]
                ], 
                [
                    17527.47525561526, 
                    [
                        {
                            "pitch": 51, 
                            "t0": 17527.47525561526, 
                            "v": 24.96758859335645, 
                            "dur": 150.0, 
                            "type": "note", 
                            "channel": 3
                        }
                    ]
                ], 
                [
                    17870.156881207415, 
                    [
                        {
                            "pitch": 52, 
                            "t0": 17870.156881207415, 
                            "v": 28.356522115917578, 
                            "dur": 150.0, 
                            "type": "note", 
                            "channel": 3
                        }
                    ]
                ], 
                [
                    18096.278502513407, 
                    [
                        {
                            "pitch": 53, 
                            "t0": 18096.278502513407, 
                            "v": 27.84869826379682, 
                            "dur": 300.0, 
                            "type": "note", 
                            "channel": 3
                        }
                    ]
                ], 
                [
                    18320.569159428007, 
                    [
                        {
                            "pitch": 50, 
                            "t0": 18320.569159428007, 
                            "v": 35.159828702507276, 
                            "dur": 300.0, 
                            "type": "note", 
                            "channel": 3
                        }
                    ]
                ], 
                [
                    18432.03709570715, 
                    [
                        {
                            "pitch": 51, 
                            "t0": 18432.03709570715, 
                            "v": 23.226492343051795, 
                            "dur": 150.0, 
                            "type": "note", 
                            "channel": 3
                        }
                    ]
                ], 
                [
                    18763.774531198396, 
                    [
                        {
                            "pitch": 52, 
                            "t0": 18763.774531198396, 
                            "v": 26.359192605474146, 
                            "dur": 150.0, 
                            "type": "note", 
                            "channel": 3
                        }
                    ]
                ], 
                [
                    18982.745986025584, 
                    [
                        {
                            "pitch": 53, 
                            "t0": 18982.745986025584, 
                            "v": 25.874015698506117, 
                            "dur": 300.0, 
                            "type": "note", 
                            "channel": 3
                        }
                    ]
                ]
            ], 
            "instruments": [
                127
            ], 
            "channels": [
                3
            ], 
            "numNotes": 64, 
            "type": "TrackObj"
        }, 
        {
            "trackName": "risset v=2", 
            "seq": [
                [
                    0, 
                    [
                        {
                            "instrument": 127, 
                            "type": "programChange", 
                            "t0": 0, 
                            "channel": 4
                        }, 
                        {
                            "pitch": 50, 
                            "t0": 0.0, 
                            "v": 32.650066669445465, 
                            "dur": 300.0, 
                            "type": "note", 
                            "channel": 4
                        }
                    ]
                ], 
                [
                    107.99134452245767, 
                    [
                        {
                            "pitch": 51, 
                            "t0": 107.99134452245767, 
                            "v": 21.563019594202007, 
                            "dur": 150.0, 
                            "type": "note", 
                            "channel": 4
                        }
                    ]
                ], 
                [
                    429.4620101463238, 
                    [
                        {
                            "pitch": 52, 
                            "t0": 429.4620101463238, 
                            "v": 24.452401461469645, 
                            "dur": 150.0, 
                            "type": "note", 
                            "channel": 4
                        }
                    ]
                ], 
                [
                    641.7216295190514, 
                    [
                        {
                            "pitch": 53, 
                            "t0": 641.7216295190514, 
                            "v": 23.989806337783367, 
                            "dur": 300.0, 
                            "type": "note", 
                            "channel": 4
                        }
                    ]
                ], 
                [
                    852.367091682305, 
                    [
                        {
                            "pitch": 50, 
                            "t0": 852.367091682305, 
                            "v": 30.256495185737577, 
                            "dur": 300.0, 
                            "type": "note", 
                            "channel": 4
                        }
                    ]
                ], 
                [
                    957.0921494507786, 
                    [
                        {
                            "pitch": 51, 
                            "t0": 957.0921494507786, 
                            "v": 19.976951635891428, 
                            "dur": 150.0, 
                            "type": "note", 
                            "channel": 4
                        }
                    ]
                ], 
                [
                    1268.9124567892322, 
                    [
                        {
                            "pitch": 52, 
                            "t0": 1268.9124567892322, 
                            "v": 22.63567058937761, 
                            "dur": 150.0, 
                            "type": "note", 
                            "channel": 4
                        }
                    ]
                ], 
                [
                    1474.8594633759524, 
                    [
                        {
                            "pitch": 53, 
                            "t0": 1474.8594633759524, 
                            "v": 22.19545374532297, 
                            "dur": 300.0, 
                            "type": "note", 
                            "channel": 4
                        }
                    ]
                ], 
                [
                    1679.2865520065193, 
                    [
                        {
                            "pitch": 50, 
                            "t0": 1679.2865520065193, 
                            "v": 27.978153797871684, 
                            "dur": 300.0, 
                            "type": "note", 
                            "channel": 4
                        }
                    ]
                ], 
                [
                    1780.9371056611667, 
                    [
                        {
                            "pitch": 51, 
                            "t0": 1780.9371056611667, 
                            "v": 18.4675945940769, 
                            "dur": 150.0, 
                            "type": "note", 
                            "channel": 4
                        }
                    ]
                ], 
                [
                    2083.669570140847, 
                    [
                        {
                            "pitch": 52, 
                            "t0": 2083.669570140847, 
                            "v": 20.908013593859863, 
                            "dur": 150.0, 
                            "type": "note", 
                            "channel": 4
                        }
                    ]
                ], 
                [
                    2283.668596291346, 
                    [
                        {
                            "pitch": 53, 
                            "t0": 2283.668596291346, 
                            "v": 20.48986203574289, 
                            "dur": 300.0, 
                            "type": "note", 
                            "channel": 4
                        }
                    ]
                ], 
                [
                    2482.233925343354, 
                    [
                        {
                            "pitch": 50, 
                            "t0": 2482.233925343354, 
                            "v": 25.813500917641928, 
                            "dur": 300.0, 
                            "type": "note", 
                            "channel": 4
                        }
                    ]
                ], 
                [
                    2580.985348241782, 
                    [
                        {
                            "pitch": 51, 
                            "t0": 2580.985348241782, 
                            "v": 17.033878507993034, 
                            "dur": 150.0, 
                            "type": "note", 
                            "channel": 4
                        }
                    ]
                ], 
                [
                    2875.1446944898903, 
                    [
                        {
                            "pitch": 52, 
                            "t0": 2875.1446944898903, 
                            "v": 19.268043080290333, 
                            "dur": 150.0, 
                            "type": "note", 
                            "channel": 4
                        }
                    ]
                ], 
                [
                    3069.5296661450784, 
                    [
                        {
                            "pitch": 53, 
                            "t0": 3069.5296661450784, 
                            "v": 18.871557990673274, 
                            "dur": 300.0, 
                            "type": "note", 
                            "channel": 4
                        }
                    ]
                ], 
                [
                    3262.560027692402, 
                    [
                        {
                            "pitch": 50, 
                            "t0": 3262.560027692402, 
                            "v": 23.760538775285916, 
                            "dur": 300.0, 
                            "type": "note", 
                            "channel": 4
                        }
                    ]
                ], 
                [
                    3358.5731040130386, 
                    [
                        {
                            "pitch": 51, 
                            "t0": 3358.5731040130386, 
                            "v": 15.67443859766037, 
                            "dur": 150.0, 
                            "type": "note", 
                            "channel": 4
                        }
                    ]
                ], 
                [
                    3644.631530496329, 
                    [
                        {
                            "pitch": 52, 
                            "t0": 3644.631530496329, 
                            "v": 17.714058692707763, 
                            "dur": 150.0, 
                            "type": "note", 
                            "channel": 4
                        }
                    ]
                ], 
                [
                    3833.7090208581967, 
                    [
                        {
                            "pitch": 53, 
                            "t0": 3833.7090208581967, 
                            "v": 17.338774854745314, 
                            "dur": 300.0, 
                            "type": "note", 
                            "channel": 4
                        }
                    ]
                ], 
                [
                    4021.5046200758425, 
                    [
                        {
                            "pitch": 50, 
                            "t0": 4021.5046200758425, 
                            "v": 21.81691596824078, 
                            "dur": 300.0, 
                            "type": "note", 
                            "channel": 4
                        }
                    ]
                ], 
                [
                    4114.927119374707, 
                    [
                        {
                            "pitch": 51, 
                            "t0": 4114.927119374707, 
                            "v": 14.387681963468005, 
                            "dur": 150.0, 
                            "type": "note", 
                            "channel": 4
                        }
                    ]
                ], 
                [
                    4393.318857520913, 
                    [
                        {
                            "pitch": 52, 
                            "t0": 4393.318857520913, 
                            "v": 16.244119378808822, 
                            "dur": 150.0, 
                            "type": "note", 
                            "channel": 4
                        }
                    ]
                ], 
                [
                    4577.370995041517, 
                    [
                        {
                            "pitch": 53, 
                            "t0": 4577.370995041517, 
                            "v": 15.88952112179517, 
                            "dur": 300.0, 
                            "type": "note", 
                            "channel": 4
                        }
                    ]
                ], 
                [
                    4760.208258116844, 
                    [
                        {
                            "pitch": 50, 
                            "t0": 4760.208258116844, 
                            "v": 19.98001164264308, 
                            "dur": 300.0, 
                            "type": "note", 
                            "channel": 4
                        }
                    ]
                ], 
                [
                    4851.176303044769, 
                    [
                        {
                            "pitch": 51, 
                            "t0": 4851.176303044769, 
                            "v": 13.171842339294804, 
                            "dur": 150.0, 
                            "type": "note", 
                            "channel": 4
                        }
                    ]
                ], 
                [
                    5122.301581342109, 
                    [
                        {
                            "pitch": 52, 
                            "t0": 5122.301581342109, 
                            "v": 14.856102708897113, 
                            "dur": 150.0, 
                            "type": "note", 
                            "channel": 4
                        }
                    ]
                ], 
                [
                    5301.5885812653605, 
                    [
                        {
                            "pitch": 53, 
                            "t0": 5301.5885812653605, 
                            "v": 14.521636994387599, 
                            "dur": 300.0, 
                            "type": "note", 
                            "channel": 4
                        }
                    ]
                ], 
                [
                    5479.722602155175, 
                    [
                        {
                            "pitch": 50, 
                            "t0": 5479.722602155175, 
                            "v": 18.247004582436546, 
                            "dur": 300.0, 
                            "type": "note", 
                            "channel": 4
                        }
                    ]
                ], 
                [
                    5568.361861106277, 
                    [
                        {
                            "pitch": 51, 
                            "t0": 5568.361861106277, 
                            "v": 12.025025026523435, 
                            "dur": 150.0, 
                            "type": "note", 
                            "channel": 4
                        }
                    ]
                ], 
                [
                    5832.590365000379, 
                    [
                        {
                            "pitch": 52, 
                            "t0": 5832.590365000379, 
                            "v": 13.547753545608277, 
                            "dur": 150.0, 
                            "type": "note", 
                            "channel": 4
                        }
                    ]
                ], 
                [
                    6007.352741459621, 
                    [
                        {
                            "pitch": 53, 
                            "t0": 6007.352741459621, 
                            "v": 13.232840698341235, 
                            "dur": 300.0, 
                            "type": "note", 
                            "channel": 4
                        }
                    ]
                ], 
                [
                    6181.019421837354, 
                    [
                        {
                            "pitch": 50, 
                            "t0": 6181.019421837354, 
                            "v": 16.614929871001312, 
                            "dur": 300.0, 
                            "type": "note", 
                            "channel": 4
                        }
                    ]
                ], 
                [
                    6267.446152748226, 
                    [
                        {
                            "pitch": 51, 
                            "t0": 6267.446152748226, 
                            "v": 10.945243740740274, 
                            "dur": 150.0, 
                            "type": "note", 
                            "channel": 4
                        }
                    ]
                ], 
                [
                    6525.120055384795, 
                    [
                        {
                            "pitch": 52, 
                            "t0": 6525.120055384795, 
                            "v": 12.316723936280841, 
                            "dur": 150.0, 
                            "type": "note", 
                            "channel": 4
                        }
                    ]
                ], 
                [
                    6695.58056123669, 
                    [
                        {
                            "pitch": 53, 
                            "t0": 6695.58056123669, 
                            "v": 12.020766431615344, 
                            "dur": 300.0, 
                            "type": "note", 
                            "channel": 4
                        }
                    ]
                ], 
                [
                    6864.998488667208, 
                    [
                        {
                            "pitch": 50, 
                            "t0": 6864.998488667208, 
                            "v": 15.080725300379212, 
                            "dur": 300.0, 
                            "type": "note", 
                            "channel": 4
                        }
                    ]
                ], 
                [
                    6949.320455716634, 
                    [
                        {
                            "pitch": 51, 
                            "t0": 6949.320455716634, 
                            "v": 9.930450785106014, 
                            "dur": 150.0, 
                            "type": "note", 
                            "channel": 4
                        }
                    ]
                ], 
                [
                    7200.757081860959, 
                    [
                        {
                            "pitch": 52, 
                            "t0": 7200.757081860959, 
                            "v": 11.160605757975636, 
                            "dur": 150.0, 
                            "type": "note", 
                            "channel": 4
                        }
                    ]
                ], 
                [
                    7367.122415501805, 
                    [
                        {
                            "pitch": 53, 
                            "t0": 7367.122415501805, 
                            "v": 10.88299540297075, 
                            "dur": 300.0, 
                            "type": "note", 
                            "channel": 4
                        }
                    ]
                ], 
                [
                    7532.494517352196, 
                    [
                        {
                            "pitch": 50, 
                            "t0": 7532.494517352196, 
                            "v": 13.641269308418028, 
                            "dur": 300.0, 
                            "type": "note", 
                            "channel": 4
                        }
                    ]
                ], 
                [
                    7614.811798691688, 
                    [
                        {
                            "pitch": 51, 
                            "t0": 7614.811798691688, 
                            "v": 8.978561708158622, 
                            "dur": 150.0, 
                            "type": "note", 
                            "channel": 4
                        }
                    ]
                ], 
                [
                    7860.3059738438815, 
                    [
                        {
                            "pitch": 52, 
                            "t0": 7860.3059738438815, 
                            "v": 10.076957369172453, 
                            "dur": 150.0, 
                            "type": "note", 
                            "channel": 4
                        }
                    ]
                ], 
                [
                    8022.768285809238, 
                    [
                        {
                            "pitch": 53, 
                            "t0": 8022.768285809238, 
                            "v": 9.817081154092788, 
                            "dur": 300.0, 
                            "type": "note", 
                            "channel": 4
                        }
                    ]
                ], 
                [
                    8184.28329028028, 
                    [
                        {
                            "pitch": 50, 
                            "t0": 8184.28329028028, 
                            "v": 12.293411904961323, 
                            "dur": 300.0, 
                            "type": "note", 
                            "channel": 4
                        }
                    ]
                ], 
                [
                    8264.6889919782, 
                    [
                        {
                            "pitch": 51, 
                            "t0": 8264.6889919782, 
                            "v": 8.087475396540778, 
                            "dur": 150.0, 
                            "type": "note", 
                            "channel": 4
                        }
                    ]
                ], 
                [
                    8504.515120295586, 
                    [
                        {
                            "pitch": 52, 
                            "t0": 8504.515120295586, 
                            "v": 9.063325298656906, 
                            "dur": 150.0, 
                            "type": "note", 
                            "channel": 4
                        }
                    ]
                ], 
                [
                    8663.253347180716, 
                    [
                        {
                            "pitch": 53, 
                            "t0": 8663.253347180716, 
                            "v": 8.820570146717538, 
                            "dur": 300.0, 
                            "type": "note", 
                            "channel": 4
                        }
                    ]
                ], 
                [
                    8821.087077836108, 
                    [
                        {
                            "pitch": 50, 
                            "t0": 8821.087077836108, 
                            "v": 11.033999789275427, 
                            "dur": 300.0, 
                            "type": "note", 
                            "channel": 4
                        }
                    ]
                ], 
                [
                    8899.66796680666, 
                    [
                        {
                            "pitch": 51, 
                            "t0": 8899.66796680666, 
                            "v": 7.255090384940153, 
                            "dur": 150.0, 
                            "type": "note", 
                            "channel": 4
                        }
                    ]
                ], 
                [
                    9134.081874554835, 
                    [
                        {
                            "pitch": 52, 
                            "t0": 9134.081874554835, 
                            "v": 8.117261820508162, 
                            "dur": 150.0, 
                            "type": "note", 
                            "channel": 4
                        }
                    ]
                ], 
                [
                    9289.262923473723, 
                    [
                        {
                            "pitch": 53, 
                            "t0": 9289.262923473723, 
                            "v": 7.891018423805213, 
                            "dur": 300.0, 
                            "type": "note", 
                            "channel": 4
                        }
                    ]
                ], 
                [
                    9443.579449529756, 
                    [
                        {
                            "pitch": 50, 
                            "t0": 9443.579449529756, 
                            "v": 9.859896650201657, 
                            "dur": 300.0, 
                            "type": "note", 
                            "channel": 4
                        }
                    ]
                ], 
                [
                    9520.416516233681, 
                    [
                        {
                            "pitch": 51, 
                            "t0": 9520.416516233681, 
                            "v": 6.4793180286061824, 
                            "dur": 150.0, 
                            "type": "note", 
                            "channel": 4
                        }
                    ]
                ], 
                [
                    9749.65709181497, 
                    [
                        {
                            "pitch": 52, 
                            "t0": 9749.65709181497, 
                            "v": 7.2363391161005755, 
                            "dur": 150.0, 
                            "type": "note", 
                            "channel": 4
                        }
                    ]
                ], 
                [
                    9901.436895053612, 
                    [
                        {
                            "pitch": 53, 
                            "t0": 9901.436895053612, 
                            "v": 7.026005013123004, 
                            "dur": 300.0, 
                            "type": "note", 
                            "channel": 4
                        }
                    ]
                ], 
                [
                    10052.38955629465, 
                    [
                        {
                            "pitch": 50, 
                            "t0": 10052.38955629465, 
                            "v": 8.767999468557322, 
                            "dur": 300.0, 
                            "type": "note", 
                            "channel": 4
                        }
                    ]
                ], 
                [
                    10127.55851635961, 
                    [
                        {
                            "pitch": 51, 
                            "t0": 10127.55851635961, 
                            "v": 5.758093072015477, 
                            "dur": 150.0, 
                            "type": "note", 
                            "channel": 4
                        }
                    ]
                ], 
                [
                    10351.849173274204, 
                    [
                        {
                            "pitch": 52, 
                            "t0": 10351.849173274204, 
                            "v": 6.418160603071631, 
                            "dur": 150.0, 
                            "type": "note", 
                            "channel": 4
                        }
                    ]
                ], 
                [
                    10500.373629842628, 
                    [
                        {
                            "pitch": 53, 
                            "t0": 10500.373629842628, 
                            "v": 6.223142626537978, 
                            "dur": 300.0, 
                            "type": "note", 
                            "channel": 4
                        }
                    ]
                ], 
                [
                    10648.105952210642, 
                    [
                        {
                            "pitch": 50, 
                            "t0": 10648.105952210642, 
                            "v": 7.755251500560922, 
                            "dur": 300.0, 
                            "type": "note", 
                            "channel": 4
                        }
                    ]
                ], 
                [
                    10721.677694758358, 
                    [
                        {
                            "pitch": 51, 
                            "t0": 10721.677694758358, 
                            "v": 5.089382055729685, 
                            "dur": 150.0, 
                            "type": "note", 
                            "channel": 4
                        }
                    ]
                ], 
                [
                    10941.227679954198, 
                    [
                        {
                            "pitch": 52, 
                            "t0": 10941.227679954198, 
                            "v": 5.660369912070322, 
                            "dur": 150.0, 
                            "type": "note", 
                            "channel": 4
                        }
                    ]
                ], 
                [
                    11086.633498286375, 
                    [
                        {
                            "pitch": 53, 
                            "t0": 11086.633498286375, 
                            "v": 5.480086113953199, 
                            "dur": 300.0, 
                            "type": "note", 
                            "channel": 4
                        }
                    ]
                ], 
                [
                    11231.280013846197, 
                    [
                        {
                            "pitch": 50, 
                            "t0": 11231.280013846197, 
                            "v": 6.818652505549344, 
                            "dur": 300.0, 
                            "type": "note", 
                            "channel": 4
                        }
                    ]
                ], 
                [
                    11303.321003179472, 
                    [
                        {
                            "pitch": 51, 
                            "t0": 11303.321003179472, 
                            "v": 4.471189928348513, 
                            "dur": 150.0, 
                            "type": "note", 
                            "channel": 4
                        }
                    ]
                ], 
                [
                    11518.326569992854, 
                    [
                        {
                            "pitch": 52, 
                            "t0": 11518.326569992854, 
                            "v": 4.960657910633655, 
                            "dur": 150.0, 
                            "type": "note", 
                            "channel": 4
                        }
                    ]
                ], 
                [
                    11660.742023992529, 
                    [
                        {
                            "pitch": 53, 
                            "t0": 11660.742023992529, 
                            "v": 4.7945390532242, 
                            "dur": 300.0, 
                            "type": "note", 
                            "channel": 4
                        }
                    ]
                ], 
                [
                    11802.429007012, 
                    [
                        {
                            "pitch": 50, 
                            "t0": 11802.429007012, 
                            "v": 5.9552666862130765, 
                            "dur": 300.0, 
                            "type": "note", 
                            "channel": 4
                        }
                    ]
                ], 
                [
                    11873.001643365247, 
                    [
                        {
                            "pitch": 51, 
                            "t0": 11873.001643365247, 
                            "v": 3.901565168615637, 
                            "dur": 150.0, 
                            "type": "note", 
                            "channel": 4
                        }
                    ]
                ], 
                [
                    12083.647105528502, 
                    [
                        {
                            "pitch": 52, 
                            "t0": 12083.647105528502, 
                            "v": 4.316768106424465, 
                            "dur": 150.0, 
                            "type": "note", 
                            "channel": 4
                        }
                    ]
                ], 
                [
                    12223.192714438064, 
                    [
                        {
                            "pitch": 53, 
                            "t0": 12223.192714438064, 
                            "v": 4.164258793429224, 
                            "dur": 300.0, 
                            "type": "note", 
                            "channel": 4
                        }
                    ]
                ], 
                [
                    12362.038843674716, 
                    [
                        {
                            "pitch": 50, 
                            "t0": 12362.038843674716, 
                            "v": 5.162228731184842, 
                            "dur": 300.0, 
                            "type": "note", 
                            "channel": 4
                        }
                    ]
                ], 
                [
                    12431.201787934475, 
                    [
                        {
                            "pitch": 51, 
                            "t0": 12431.201787934475, 
                            "v": 3.3786036717087753, 
                            "dur": 150.0, 
                            "type": "note", 
                            "channel": 4
                        }
                    ]
                ], 
                [
                    12637.660468834465, 
                    [
                        {
                            "pitch": 52, 
                            "t0": 12637.660468834465, 
                            "v": 3.7265007066406968, 
                            "dur": 150.0, 
                            "type": "note", 
                            "channel": 4
                        }
                    ]
                ], 
                [
                    12774.449609955389, 
                    [
                        {
                            "pitch": 53, 
                            "t0": 12774.449609955389, 
                            "v": 3.587060216013966, 
                            "dur": 300.0, 
                            "type": "note", 
                            "channel": 4
                        }
                    ]
                ], 
                [
                    12910.566565852716, 
                    [
                        {
                            "pitch": 50, 
                            "t0": 12910.566565852716, 
                            "v": 4.436748285006477, 
                            "dur": 300.0, 
                            "type": "note", 
                            "channel": 4
                        }
                    ]
                ], 
                [
                    12978.375032481585, 
                    [
                        {
                            "pitch": 51, 
                            "t0": 12978.375032481585, 
                            "v": 2.900451611547419, 
                            "dur": 150.0, 
                            "type": "note", 
                            "channel": 4
                        }
                    ]
                ], 
                [
                    13180.810121917795, 
                    [
                        {
                            "pitch": 52, 
                            "t0": 13180.810121917795, 
                            "v": 3.1877155645361084, 
                            "dur": 150.0, 
                            "type": "note", 
                            "channel": 4
                        }
                    ]
                ], 
                [
                    13314.949583987043, 
                    [
                        {
                            "pitch": 53, 
                            "t0": 13314.949583987043, 
                            "v": 3.0608184345647524, 
                            "dur": 300.0, 
                            "type": "note", 
                            "channel": 4
                        }
                    ]
                ], 
                [
                    13448.44258830897, 
                    [
                        {
                            "pitch": 50, 
                            "t0": 13448.44258830897, 
                            "v": 3.7761131168016675, 
                            "dur": 300.0, 
                            "type": "note", 
                            "channel": 4
                        }
                    ]
                ], 
                [
                    13514.948610137542, 
                    [
                        {
                            "pitch": 51, 
                            "t0": 13514.948610137542, 
                            "v": 2.465307455979817, 
                            "dur": 150.0, 
                            "type": "note", 
                            "channel": 4
                        }
                    ]
                ], 
                [
                    13713.51393918956, 
                    [
                        {
                            "pitch": 52, 
                            "t0": 13713.51393918956, 
                            "v": 2.6983342059437443, 
                            "dur": 150.0, 
                            "type": "note", 
                            "channel": 4
                        }
                    ]
                ], 
                [
                    13845.104423177954, 
                    [
                        {
                            "pitch": 53, 
                            "t0": 13845.104423177954, 
                            "v": 2.583470617642598, 
                            "dur": 300.0, 
                            "type": "note", 
                            "channel": 4
                        }
                    ]
                ], 
                [
                    13976.072727613424, 
                    [
                        {
                            "pitch": 50, 
                            "t0": 13976.072727613424, 
                            "v": 3.177691214395151, 
                            "dur": 300.0, 
                            "type": "note", 
                            "channel": 4
                        }
                    ]
                ], 
                [
                    14041.325395681235, 
                    [
                        {
                            "pitch": 51, 
                            "t0": 14041.325395681235, 
                            "v": 2.0714232826651537, 
                            "dur": 150.0, 
                            "type": "note", 
                            "channel": 4
                        }
                    ]
                ], 
                [
                    14236.166138902021, 
                    [
                        {
                            "pitch": 52, 
                            "t0": 14236.166138902021, 
                            "v": 2.2563410970729345, 
                            "dur": 150.0, 
                            "type": "note", 
                            "channel": 4
                        }
                    ]
                ], 
                [
                    14365.302712117642, 
                    [
                        {
                            "pitch": 53, 
                            "t0": 14365.302712117642, 
                            "v": 2.1530170889089058, 
                            "dur": 300.0, 
                            "type": "note", 
                            "channel": 4
                        }
                    ]
                ], 
                [
                    14493.840041538599, 
                    [
                        {
                            "pitch": 50, 
                            "t0": 14493.840041538599, 
                            "v": 2.6389319935285585, 
                            "dur": 300.0, 
                            "type": "note", 
                            "channel": 4
                        }
                    ]
                ], 
                [
                    14557.885722753119, 
                    [
                        {
                            "pitch": 51, 
                            "t0": 14557.885722753119, 
                            "v": 1.7171055192992657, 
                            "dur": 150.0, 
                            "type": "note", 
                            "channel": 4
                        }
                    ]
                ], 
                [
                    14749.139035716988, 
                    [
                        {
                            "pitch": 52, 
                            "t0": 14749.139035716988, 
                            "v": 1.8597842885184679, 
                            "dur": 150.0, 
                            "type": "note", 
                            "channel": 4
                        }
                    ]
                ], 
                [
                    14875.911544342525, 
                    [
                        {
                            "pitch": 53, 
                            "t0": 14875.911544342525, 
                            "v": 1.7675218336134706, 
                            "dur": 300.0, 
                            "type": "note", 
                            "channel": 4
                        }
                    ]
                ], 
                [
                    15002.106499673462, 
                    [
                        {
                            "pitch": 50, 
                            "t0": 15002.106499673462, 
                            "v": 2.1573667809091566, 
                            "dur": 300.0, 
                            "type": "note", 
                            "channel": 4
                        }
                    ]
                ], 
                [
                    15064.989034704393, 
                    [
                        {
                            "pitch": 51, 
                            "t0": 15064.989034704393, 
                            "v": 1.4007152116841293, 
                            "dur": 150.0, 
                            "type": "note", 
                            "channel": 4
                        }
                    ]
                ], 
                [
                    15252.78463392204, 
                    [
                        {
                            "pitch": 52, 
                            "t0": 15252.78463392204, 
                            "v": 1.5067755484561651, 
                            "dur": 150.0, 
                            "type": "note", 
                            "channel": 4
                        }
                    ]
                ], 
                [
                    15377.278078469852, 
                    [
                        {
                            "pitch": 53, 
                            "t0": 15377.278078469852, 
                            "v": 1.4251125195180143, 
                            "dur": 300.0, 
                            "type": "note", 
                            "channel": 4
                        }
                    ]
                ], 
                [
                    15501.214503506, 
                    [
                        {
                            "pitch": 50, 
                            "t0": 15501.214503506, 
                            "v": 1.7306087040181828, 
                            "dur": 300.0, 
                            "type": "note", 
                            "channel": 4
                        }
                    ]
                ], 
                [
                    15562.975387030025, 
                    [
                        {
                            "pitch": 51, 
                            "t0": 15562.975387030025, 
                            "v": 1.1206679063171698, 
                            "dur": 150.0, 
                            "type": "note", 
                            "channel": 4
                        }
                    ]
                ], 
                [
                    15747.436078371607, 
                    [
                        {
                            "pitch": 52, 
                            "t0": 15747.436078371607, 
                            "v": 1.1954900796461554, 
                            "dur": 150.0, 
                            "type": "note", 
                            "channel": 4
                        }
                    ]
                ], 
                [
                    15869.730955985568, 
                    [
                        {
                            "pitch": 53, 
                            "t0": 15869.730955985568, 
                            "v": 1.1239801227780033, 
                            "dur": 300.0, 
                            "type": "note", 
                            "channel": 4
                        }
                    ]
                ], 
                [
                    15991.48827196304, 
                    [
                        {
                            "pitch": 50, 
                            "t0": 15991.48827196304, 
                            "v": 1.3563520990240225, 
                            "dur": 300.0, 
                            "type": "note", 
                            "channel": 4
                        }
                    ]
                ], 
                [
                    16052.16681711494, 
                    [
                        {
                            "pitch": 51, 
                            "t0": 16052.16681711494, 
                            "v": 0.8754332201053594, 
                            "dur": 150.0, 
                            "type": "note", 
                            "channel": 4
                        }
                    ]
                ], 
                [
                    16233.408978132005, 
                    [
                        {
                            "pitch": 52, 
                            "t0": 16233.408978132005, 
                            "v": 0.924165899506309, 
                            "dur": 150.0, 
                            "type": "note", 
                            "channel": 4
                        }
                    ]
                ], 
                [
                    16353.581595188305, 
                    [
                        {
                            "pitch": 53, 
                            "t0": 16353.581595188305, 
                            "v": 0.8623782346116965, 
                            "dur": 300.0, 
                            "type": "note", 
                            "channel": 4
                        }
                    ]
                ], 
                [
                    16473.23510644939, 
                    [
                        {
                            "pitch": 50, 
                            "t0": 16473.23510644939, 
                            "v": 1.0323715300710345, 
                            "dur": 300.0, 
                            "type": "note", 
                            "channel": 4
                        }
                    ]
                ], 
                [
                    16532.86859511156, 
                    [
                        {
                            "pitch": 51, 
                            "t0": 16532.86859511156, 
                            "v": 0.6635341580223908, 
                            "dur": 150.0, 
                            "type": "note", 
                            "channel": 4
                        }
                    ]
                ], 
                [
                    16711.002616001373, 
                    [
                        {
                            "pitch": 52, 
                            "t0": 16711.002616001373, 
                            "v": 0.6911029496477261, 
                            "dur": 150.0, 
                            "type": "note", 
                            "channel": 4
                        }
                    ]
                ], 
                [
                    16829.125374047995, 
                    [
                        {
                            "pitch": 53, 
                            "t0": 16829.125374047995, 
                            "v": 0.6386221122689179, 
                            "dur": 300.0, 
                            "type": "note", 
                            "channel": 4
                        }
                    ]
                ], 
                [
                    16946.74654774735, 
                    [
                        {
                            "pitch": 50, 
                            "t0": 16946.74654774735, 
                            "v": 0.7565204980589801, 
                            "dur": 300.0, 
                            "type": "note", 
                            "channel": 4
                        }
                    ]
                ], 
                [
                    17005.37036811639, 
                    [
                        {
                            "pitch": 51, 
                            "t0": 17005.37036811639, 
                            "v": 0.48354622964251415, 
                            "dur": 150.0, 
                            "type": "note", 
                            "channel": 4
                        }
                    ]
                ], 
                [
                    17180.50105551251, 
                    [
                        {
                            "pitch": 52, 
                            "t0": 17180.50105551251, 
                            "v": 0.49466199046388104, 
                            "dur": 150.0, 
                            "type": "note", 
                            "channel": 4
                        }
                    ]
                ], 
                [
                    17296.642713230376, 
                    [
                        {
                            "pitch": 53, 
                            "t0": 17296.642713230376, 
                            "v": 0.45108752747288094, 
                            "dur": 300.0, 
                            "type": "note", 
                            "channel": 4
                        }
                    ]
                ], 
                [
                    17412.29943568356, 
                    [
                        {
                            "pitch": 50, 
                            "t0": 17412.29943568356, 
                            "v": 0.5267299043021378, 
                            "dur": 300.0, 
                            "type": "note", 
                            "channel": 4
                        }
                    ]
                ], 
                [
                    17469.947208384805, 
                    [
                        {
                            "pitch": 51, 
                            "t0": 17469.947208384805, 
                            "v": 0.3340964071834962, 
                            "dur": 150.0, 
                            "type": "note", 
                            "channel": 4
                        }
                    ]
                ], 
                [
                    17642.174155672215, 
                    [
                        {
                            "pitch": 52, 
                            "t0": 17642.174155672215, 
                            "v": 0.33326332729214203, 
                            "dur": 150.0, 
                            "type": "note", 
                            "channel": 4
                        }
                    ]
                ], 
                [
                    17756.400069230993, 
                    [
                        {
                            "pitch": 53, 
                            "t0": 17756.400069230993, 
                            "v": 0.2982094568210564, 
                            "dur": 300.0, 
                            "type": "note", 
                            "channel": 4
                        }
                    ]
                ], 
                [
                    17870.156881207415, 
                    [
                        {
                            "pitch": 50, 
                            "t0": 17870.156881207415, 
                            "v": 0.34100632376129536, 
                            "dur": 300.0, 
                            "type": "note", 
                            "channel": 4
                        }
                    ]
                ], 
                [
                    17926.860575082886, 
                    [
                        {
                            "pitch": 51, 
                            "t0": 17926.860575082886, 
                            "v": 0.21386196071285224, 
                            "dur": 150.0, 
                            "type": "note", 
                            "channel": 4
                        }
                    ]
                ], 
                [
                    18096.278502513414, 
                    [
                        {
                            "pitch": 52, 
                            "t0": 18096.278502513414, 
                            "v": 0.20538540703629038, 
                            "dur": 150.0, 
                            "type": "note", 
                            "channel": 4
                        }
                    ]
                ], 
                [
                    18208.650846425808, 
                    [
                        {
                            "pitch": 53, 
                            "t0": 18208.650846425808, 
                            "v": 0.17848065132308522, 
                            "dur": 300.0, 
                            "type": "note", 
                            "channel": 4
                        }
                    ]
                ], 
                [
                    18320.569159428, 
                    [
                        {
                            "pitch": 50, 
                            "t0": 18320.569159428, 
                            "v": 0.19743013354218075, 
                            "dur": 300.0, 
                            "type": "note", 
                            "channel": 4
                        }
                    ]
                ], 
                [
                    18376.3591979959, 
                    [
                        {
                            "pitch": 51, 
                            "t0": 18376.3591979959, 
                            "v": 0.12156920030015672, 
                            "dur": 150.0, 
                            "type": "note", 
                            "channel": 4
                        }
                    ]
                ], 
                [
                    18543.05826551207, 
                    [
                        {
                            "pitch": 52, 
                            "t0": 18543.05826551207, 
                            "v": 0.1095633177164429, 
                            "dur": 150.0, 
                            "type": "note", 
                            "channel": 4
                        }
                    ]
                ], 
                [
                    18653.63623585482, 
                    [
                        {
                            "pitch": 53, 
                            "t0": 18653.63623585482, 
                            "v": 0.09045011610160969, 
                            "dur": 300.0, 
                            "type": "note", 
                            "channel": 4
                        }
                    ]
                ], 
                [
                    18763.774531198404, 
                    [
                        {
                            "pitch": 50, 
                            "t0": 18763.774531198404, 
                            "v": 0.09415353477644384, 
                            "dur": 300.0, 
                            "type": "note", 
                            "channel": 4
                        }
                    ]
                ], 
                [
                    18818.67989067181, 
                    [
                        {
                            "pitch": 51, 
                            "t0": 18818.67989067181, 
                            "v": 0.055992149953117965, 
                            "dur": 150.0, 
                            "type": "note", 
                            "channel": 4
                        }
                    ]
                ], 
                [
                    18982.745986025584, 
                    [
                        {
                            "pitch": 52, 
                            "t0": 18982.745986025584, 
                            "v": 0.044387218002757134, 
                            "dur": 150.0, 
                            "type": "note", 
                            "channel": 4
                        }
                    ]
                ], 
                [
                    19091.58598769008, 
                    [
                        {
                            "pitch": 53, 
                            "t0": 19091.58598769008, 
                            "v": 0.03272152609853307, 
                            "dur": 300.0, 
                            "type": "note", 
                            "channel": 4
                        }
                    ]
                ]
            ], 
            "instruments": [
                127
            ], 
            "channels": [
                4
            ], 
            "numNotes": 128, 
            "type": "TrackObj"
        }
    ], 
    "type": "MidiObj", 
    "loop": true
}