{
    "format": 1, 
    "instruments": [], 
    "resolution": 1000, 
    "channels": [], 
    "tracks": [
        {
            "trackName": "Track1", 
            "seq": [
                [
                    0, 
                    [
                        {
                            "pitch": 22, 
                            "t0": 0, 
                            "v": 18, 
                            "dur": 800.0, 
                            "type": "note", 
                            "channel": 0
                        }, 
                        {
                            "pitch": 34, 
                            "t0": 0, 
                            "v": 91, 
                            "dur": 800.0, 
                            "type": "note", 
                            "channel": 0
                        }, 
                        {
                            "pitch": 46, 
                            "t0": 0, 
                            "v": 120, 
                            "dur": 800.0, 
                            "type": "note", 
                            "channel": 0
                        }, 
                        {
                            "pitch": 58, 
                            "t0": 0, 
                            "v": 91, 
                            "dur": 800.0, 
                            "type": "note", 
                            "channel": 0
                        }, 
                        {
                            "pitch": 70, 
                            "t0": 0, 
                            "v": 18, 
                            "dur": 800.0, 
                            "type": "note", 
                            "channel": 0
                        }
                    ]
                ], 
                [
                    1000, 
                    [
                        {
                            "pitch": 23, 
                            "t0": 1000, 
                            "v": 25, 
                            "dur": 800.0, 
                            "type": "note", 
                            "channel": 0
                        }, 
                        {
                            "pitch": 35, 
                            "t0": 1000, 
                            "v": 95, 
                            "dur": 800.0, 
                            "type": "note", 
                            "channel": 0
                        }, 
                        {
                            "pitch": 47, 
                            "t0": 1000, 
                            "v": 119, 
                            "dur": 800.0, 
                            "type": "note", 
                            "channel": 0
                        }, 
                        {
                            "pitch": 59, 
                            "t0": 1000, 
                            "v": 86, 
                            "dur": 800.0, 
                            "type": "note", 
                            "channel": 0
                        }, 
                        {
                            "pitch": 71, 
                            "t0": 1000, 
                            "v": 11, 
                            "dur": 800.0, 
                            "type": "note", 
                            "channel": 0
                        }
                    ]
                ], 
                [
                    2000, 
                    [
                        {
                            "pitch": 24, 
                            "t0": 2000, 
                            "v": 32, 
                            "dur": 800.0, 
                            "type": "note", 
                            "channel": 0
                        }, 
                        {
                            "pitch": 36, 
                            "t0": 2000, 
                            "v": 99, 
                            "dur": 800.0, 
                            "type": "note", 
                            "channel": 0
                        }, 
                        {
                            "pitch": 48, 
                            "t0": 2000, 
                            "v": 119, 
                            "dur": 800.0, 
                            "type": "note", 
                            "channel": 0
                        }, 
                        {
                            "pitch": 60, 
                            "t0": 2000, 
                            "v": 81, 
                            "dur": 800.0, 
                            "type": "note", 
                            "channel": 0
                        }, 
                        {
                            "pitch": 72, 
                            "t0": 2000, 
                            "v": 4, 
                            "dur": 800.0, 
                            "type": "note", 
                            "channel": 0
                        }
                    ]
                ], 
                [
                    3000, 
                    [
                        {
                            "pitch": 25, 
                            "t0": 3000, 
                            "v": 39, 
                            "dur": 800.0, 
                            "type": "note", 
                            "channel": 0
                        }, 
                        {
                            "pitch": 37, 
                            "t0": 3000, 
                            "v": 103, 
                            "dur": 800.0, 
                            "type": "note", 
                            "channel": 0
                        }, 
                        {
                            "pitch": 49, 
                            "t0": 3000, 
                            "v": 118, 
                            "dur": 800.0, 
                            "type": "note", 
                            "channel": 0
                        }, 
                        {
                            "pitch": 61, 
                            "t0": 3000, 
                            "v": 76, 
                            "dur": 800.0, 
                            "type": "note", 
                            "channel": 0
                        }
                    ]
                ], 
                [
                    4000, 
                    [
                        {
                            "pitch": 26, 
                            "t0": 4000, 
                            "v": 45, 
                            "dur": 800.0, 
                            "type": "note", 
                            "channel": 0
                        }, 
                        {
                            "pitch": 38, 
                            "t0": 4000, 
                            "v": 106, 
                            "dur": 800.0, 
                            "type": "note", 
                            "channel": 0
                        }, 
                        {
                            "pitch": 50, 
                            "t0": 4000, 
                            "v": 116, 
                            "dur": 800.0, 
                            "type": "note", 
                            "channel": 0
                        }, 
                        {
                            "pitch": 62, 
                            "t0": 4000, 
                            "v": 70, 
                            "dur": 800.0, 
                            "type": "note", 
                            "channel": 0
                        }
                    ]
                ], 
                [
                    5000, 
                    [
                        {
                            "pitch": 27, 
                            "t0": 5000, 
                            "v": 52, 
                            "dur": 800.0, 
                            "type": "note", 
                            "channel": 0
                        }, 
                        {
                            "pitch": 39, 
                            "t0": 5000, 
                            "v": 109, 
                            "dur": 800.0, 
                            "type": "note", 
                            "channel": 0
                        }, 
                        {
                            "pitch": 51, 
                            "t0": 5000, 
                            "v": 114, 
                            "dur": 800.0, 
                            "type": "note", 
                            "channel": 0
                        }, 
                        {
                            "pitch": 63, 
                            "t0": 5000, 
                            "v": 64, 
                            "dur": 800.0, 
                            "type": "note", 
                            "channel": 0
                        }
                    ]
                ], 
                [
                    6000, 
                    [
                        {
                            "pitch": 28, 
                            "t0": 6000, 
                            "v": 58, 
                            "dur": 800.0, 
                            "type": "note", 
                            "channel": 0
                        }, 
                        {
                            "pitch": 40, 
                            "t0": 6000, 
                            "v": 112, 
                            "dur": 800.0, 
                            "type": "note", 
                            "channel": 0
                        }, 
                        {
                            "pitch": 52, 
                            "t0": 6000, 
                            "v": 112, 
                            "dur": 800.0, 
                            "type": "note", 
                            "channel": 0
                        }, 
                        {
                            "pitch": 64, 
                            "t0": 6000, 
                            "v": 58, 
                            "dur": 800.0, 
                            "type": "note", 
                            "channel": 0
                        }
                    ]
                ], 
                [
                    7000, 
                    [
                        {
                            "pitch": 29, 
                            "t0": 7000, 
                            "v": 64, 
                            "dur": 800.0, 
                            "type": "note", 
                            "channel": 0
                        }, 
                        {
                            "pitch": 41, 
                            "t0": 7000, 
                            "v": 114, 
                            "dur": 800.0, 
                            "type": "note", 
                            "channel": 0
                        }, 
                        {
                            "pitch": 53, 
                            "t0": 7000, 
                            "v": 109, 
                            "dur": 800.0, 
                            "type": "note", 
                            "channel": 0
                        }, 
                        {
                            "pitch": 65, 
                            "t0": 7000, 
                            "v": 52, 
                            "dur": 800.0, 
                            "type": "note", 
                            "channel": 0
                        }
                    ]
                ], 
                [
                    8000, 
                    [
                        {
                            "pitch": 30, 
                            "t0": 8000, 
                            "v": 70, 
                            "dur": 800.0, 
                            "type": "note", 
                            "channel": 0
                        }, 
                        {
                            "pitch": 42, 
                            "t0": 8000, 
                            "v": 116, 
                            "dur": 800.0, 
                            "type": "note", 
                            "channel": 0
                        }, 
                        {
                            "pitch": 54, 
                            "t0": 8000, 
                            "v": 106, 
                            "dur": 800.0, 
                            "type": "note", 
                            "channel": 0
                        }, 
                        {
                            "pitch": 66, 
                            "t0": 8000, 
                            "v": 45, 
                            "dur": 800.0, 
                            "type": "note", 
                            "channel": 0
                        }
                    ]
                ], 
                [
                    9000, 
                    [
                        {
                            "pitch": 31, 
                            "t0": 9000, 
                            "v": 76, 
                            "dur": 800.0, 
                            "type": "note", 
                            "channel": 0
                        }, 
                        {
                            "pitch": 43, 
                            "t0": 9000, 
                            "v": 118, 
                            "dur": 800.0, 
                            "type": "note", 
                            "channel": 0
                        }, 
                        {
                            "pitch": 55, 
                            "t0": 9000, 
                            "v": 103, 
                            "dur": 800.0, 
                            "type": "note", 
                            "channel": 0
                        }, 
                        {
                            "pitch": 67, 
                            "t0": 9000, 
                            "v": 39, 
                            "dur": 800.0, 
                            "type": "note", 
                            "channel": 0
                        }
                    ]
                ], 
                [
                    10000, 
                    [
                        {
                            "pitch": 32, 
                            "t0": 10000, 
                            "v": 81, 
                            "dur": 800.0, 
                            "type": "note", 
                            "channel": 0
                        }, 
                        {
                            "pitch": 44, 
                            "t0": 10000, 
                            "v": 119, 
                            "dur": 800.0, 
                            "type": "note", 
                            "channel": 0
                        }, 
                        {
                            "pitch": 56, 
                            "t0": 10000, 
                            "v": 99, 
                            "dur": 800.0, 
                            "type": "note", 
                            "channel": 0
                        }, 
                        {
                            "pitch": 68, 
                            "t0": 10000, 
                            "v": 32, 
                            "dur": 800.0, 
                            "type": "note", 
                            "channel": 0
                        }
                    ]
                ], 
                [
                    11000, 
                    [
                        {
                            "pitch": 33, 
                            "t0": 11000, 
                            "v": 86, 
                            "dur": 800.0, 
                            "type": "note", 
                            "channel": 0
                        }, 
                        {
                            "pitch": 45, 
                            "t0": 11000, 
                            "v": 119, 
                            "dur": 800.0, 
                            "type": "note", 
                            "channel": 0
                        }, 
                        {
                            "pitch": 57, 
                            "t0": 11000, 
                            "v": 95, 
                            "dur": 800.0, 
                            "type": "note", 
                            "channel": 0
                        }, 
                        {
                            "pitch": 69, 
                            "t0": 11000, 
                            "v": 25, 
                            "dur": 800.0, 
                            "type": "note", 
                            "channel": 0
                        }
                    ]
                ], 
                [
                    12000, 
                    [
                        {
                            "pitch": 22, 
                            "t0": 12000, 
                            "v": 18, 
                            "dur": 800.0, 
                            "type": "note", 
                            "channel": 0
                        }, 
                        {
                            "pitch": 34, 
                            "t0": 12000, 
                            "v": 91, 
                            "dur": 800.0, 
                            "type": "note", 
                            "channel": 0
                        }, 
                        {
                            "pitch": 46, 
                            "t0": 12000, 
                            "v": 120, 
                            "dur": 800.0, 
                            "type": "note", 
                            "channel": 0
                        }, 
                        {
                            "pitch": 58, 
                            "t0": 12000, 
                            "v": 91, 
                            "dur": 800.0, 
                            "type": "note", 
                            "channel": 0
                        }, 
                        {
                            "pitch": 70, 
                            "t0": 12000, 
                            "v": 18, 
                            "dur": 800.0, 
                            "type": "note", 
                            "channel": 0
                        }
                    ]
                ], 
                [
                    13000, 
                    [
                        {
                            "pitch": 23, 
                            "t0": 13000, 
                            "v": 25, 
                            "dur": 800.0, 
                            "type": "note", 
                            "channel": 0
                        }, 
                        {
                            "pitch": 35, 
                            "t0": 13000, 
                            "v": 95, 
                            "dur": 800.0, 
                            "type": "note", 
                            "channel": 0
                        }, 
                        {
                            "pitch": 47, 
                            "t0": 13000, 
                            "v": 119, 
                            "dur": 800.0, 
                            "type": "note", 
                            "channel": 0
                        }, 
                        {
                            "pitch": 59, 
                            "t0": 13000, 
                            "v": 86, 
                            "dur": 800.0, 
                            "type": "note", 
                            "channel": 0
                        }, 
                        {
                            "pitch": 71, 
                            "t0": 13000, 
                            "v": 11, 
                            "dur": 800.0, 
                            "type": "note", 
                            "channel": 0
                        }
                    ]
                ], 
                [
                    14000, 
                    [
                        {
                            "pitch": 24, 
                            "t0": 14000, 
                            "v": 32, 
                            "dur": 800.0, 
                            "type": "note", 
                            "channel": 0
                        }, 
                        {
                            "pitch": 36, 
                            "t0": 14000, 
                            "v": 99, 
                            "dur": 800.0, 
                            "type": "note", 
                            "channel": 0
                        }, 
                        {
                            "pitch": 48, 
                            "t0": 14000, 
                            "v": 119, 
                            "dur": 800.0, 
                            "type": "note", 
                            "channel": 0
                        }, 
                        {
                            "pitch": 60, 
                            "t0": 14000, 
                            "v": 81, 
                            "dur": 800.0, 
                            "type": "note", 
                            "channel": 0
                        }, 
                        {
                            "pitch": 72, 
                            "t0": 14000, 
                            "v": 4, 
                            "dur": 800.0, 
                            "type": "note", 
                            "channel": 0
                        }
                    ]
                ], 
                [
                    15000, 
                    [
                        {
                            "pitch": 25, 
                            "t0": 15000, 
                            "v": 39, 
                            "dur": 800.0, 
                            "type": "note", 
                            "channel": 0
                        }, 
                        {
                            "pitch": 37, 
                            "t0": 15000, 
                            "v": 103, 
                            "dur": 800.0, 
                            "type": "note", 
                            "channel": 0
                        }, 
                        {
                            "pitch": 49, 
                            "t0": 15000, 
                            "v": 118, 
                            "dur": 800.0, 
                            "type": "note", 
                            "channel": 0
                        }, 
                        {
                            "pitch": 61, 
                            "t0": 15000, 
                            "v": 76, 
                            "dur": 800.0, 
                            "type": "note", 
                            "channel": 0
                        }
                    ]
                ], 
                [
                    16000, 
                    [
                        {
                            "pitch": 26, 
                            "t0": 16000, 
                            "v": 45, 
                            "dur": 800.0, 
                            "type": "note", 
                            "channel": 0
                        }, 
                        {
                            "pitch": 38, 
                            "t0": 16000, 
                            "v": 106, 
                            "dur": 800.0, 
                            "type": "note", 
                            "channel": 0
                        }, 
                        {
                            "pitch": 50, 
                            "t0": 16000, 
                            "v": 116, 
                            "dur": 800.0, 
                            "type": "note", 
                            "channel": 0
                        }, 
                        {
                            "pitch": 62, 
                            "t0": 16000, 
                            "v": 70, 
                            "dur": 800.0, 
                            "type": "note", 
                            "channel": 0
                        }
                    ]
                ], 
                [
                    17000, 
                    [
                        {
                            "pitch": 27, 
                            "t0": 17000, 
                            "v": 52, 
                            "dur": 800.0, 
                            "type": "note", 
                            "channel": 0
                        }, 
                        {
                            "pitch": 39, 
                            "t0": 17000, 
                            "v": 109, 
                            "dur": 800.0, 
                            "type": "note", 
                            "channel": 0
                        }, 
                        {
                            "pitch": 51, 
                            "t0": 17000, 
                            "v": 114, 
                            "dur": 800.0, 
                            "type": "note", 
                            "channel": 0
                        }, 
                        {
                            "pitch": 63, 
                            "t0": 17000, 
                            "v": 64, 
                            "dur": 800.0, 
                            "type": "note", 
                            "channel": 0
                        }
                    ]
                ], 
                [
                    18000, 
                    [
                        {
                            "pitch": 28, 
                            "t0": 18000, 
                            "v": 58, 
                            "dur": 800.0, 
                            "type": "note", 
                            "channel": 0
                        }, 
                        {
                            "pitch": 40, 
                            "t0": 18000, 
                            "v": 112, 
                            "dur": 800.0, 
                            "type": "note", 
                            "channel": 0
                        }, 
                        {
                            "pitch": 52, 
                            "t0": 18000, 
                            "v": 112, 
                            "dur": 800.0, 
                            "type": "note", 
                            "channel": 0
                        }, 
                        {
                            "pitch": 64, 
                            "t0": 18000, 
                            "v": 58, 
                            "dur": 800.0, 
                            "type": "note", 
                            "channel": 0
                        }
                    ]
                ], 
                [
                    19000, 
                    [
                        {
                            "pitch": 29, 
                            "t0": 19000, 
                            "v": 64, 
                            "dur": 800.0, 
                            "type": "note", 
                            "channel": 0
                        }, 
                        {
                            "pitch": 41, 
                            "t0": 19000, 
                            "v": 114, 
                            "dur": 800.0, 
                            "type": "note", 
                            "channel": 0
                        }, 
                        {
                            "pitch": 53, 
                            "t0": 19000, 
                            "v": 109, 
                            "dur": 800.0, 
                            "type": "note", 
                            "channel": 0
                        }, 
                        {
                            "pitch": 65, 
                            "t0": 19000, 
                            "v": 52, 
                            "dur": 800.0, 
                            "type": "note", 
                            "channel": 0
                        }
                    ]
                ], 
                [
                    20000, 
                    [
                        {
                            "pitch": 30, 
                            "t0": 20000, 
                            "v": 70, 
                            "dur": 800.0, 
                            "type": "note", 
                            "channel": 0
                        }, 
                        {
                            "pitch": 42, 
                            "t0": 20000, 
                            "v": 116, 
                            "dur": 800.0, 
                            "type": "note", 
                            "channel": 0
                        }, 
                        {
                            "pitch": 54, 
                            "t0": 20000, 
                            "v": 106, 
                            "dur": 800.0, 
                            "type": "note", 
                            "channel": 0
                        }, 
                        {
                            "pitch": 66, 
                            "t0": 20000, 
                            "v": 45, 
                            "dur": 800.0, 
                            "type": "note", 
                            "channel": 0
                        }
                    ]
                ], 
                [
                    21000, 
                    [
                        {
                            "pitch": 31, 
                            "t0": 21000, 
                            "v": 76, 
                            "dur": 800.0, 
                            "type": "note", 
                            "channel": 0
                        }, 
                        {
                            "pitch": 43, 
                            "t0": 21000, 
                            "v": 118, 
                            "dur": 800.0, 
                            "type": "note", 
                            "channel": 0
                        }, 
                        {
                            "pitch": 55, 
                            "t0": 21000, 
                            "v": 103, 
                            "dur": 800.0, 
                            "type": "note", 
                            "channel": 0
                        }, 
                        {
                            "pitch": 67, 
                            "t0": 21000, 
                            "v": 39, 
                            "dur": 800.0, 
                            "type": "note", 
                            "channel": 0
                        }
                    ]
                ], 
                [
                    22000, 
                    [
                        {
                            "pitch": 32, 
                            "t0": 22000, 
                            "v": 81, 
                            "dur": 800.0, 
                            "type": "note", 
                            "channel": 0
                        }, 
                        {
                            "pitch": 44, 
                            "t0": 22000, 
                            "v": 119, 
                            "dur": 800.0, 
                            "type": "note", 
                            "channel": 0
                        }, 
                        {
                            "pitch": 56, 
                            "t0": 22000, 
                            "v": 99, 
                            "dur": 800.0, 
                            "type": "note", 
                            "channel": 0
                        }, 
                        {
                            "pitch": 68, 
                            "t0": 22000, 
                            "v": 32, 
                            "dur": 800.0, 
                            "type": "note", 
                            "channel": 0
                        }
                    ]
                ], 
                [
                    23000, 
                    [
                        {
                            "pitch": 33, 
                            "t0": 23000, 
                            "v": 86, 
                            "dur": 800.0, 
                            "type": "note", 
                            "channel": 0
                        }, 
                        {
                            "pitch": 45, 
                            "t0": 23000, 
                            "v": 119, 
                            "dur": 800.0, 
                            "type": "note", 
                            "channel": 0
                        }, 
                        {
                            "pitch": 57, 
                            "t0": 23000, 
                            "v": 95, 
                            "dur": 800.0, 
                            "type": "note", 
                            "channel": 0
                        }, 
                        {
                            "pitch": 69, 
                            "t0": 23000, 
                            "v": 25, 
                            "dur": 800.0, 
                            "type": "note", 
                            "channel": 0
                        }
                    ]
                ], 
                [
                    24000, 
                    [
                        {
                            "pitch": 22, 
                            "t0": 24000, 
                            "v": 18, 
                            "dur": 800.0, 
                            "type": "note", 
                            "channel": 0
                        }, 
                        {
                            "pitch": 34, 
                            "t0": 24000, 
                            "v": 91, 
                            "dur": 800.0, 
                            "type": "note", 
                            "channel": 0
                        }, 
                        {
                            "pitch": 46, 
                            "t0": 24000, 
                            "v": 120, 
                            "dur": 800.0, 
                            "type": "note", 
                            "channel": 0
                        }, 
                        {
                            "pitch": 58, 
                            "t0": 24000, 
                            "v": 91, 
                            "dur": 800.0, 
                            "type": "note", 
                            "channel": 0
                        }, 
                        {
                            "pitch": 70, 
                            "t0": 24000, 
                            "v": 18, 
                            "dur": 800.0, 
                            "type": "note", 
                            "channel": 0
                        }
                    ]
                ], 
                [
                    25000, 
                    [
                        {
                            "pitch": 23, 
                            "t0": 25000, 
                            "v": 25, 
                            "dur": 800.0, 
                            "type": "note", 
                            "channel": 0
                        }, 
                        {
                            "pitch": 35, 
                            "t0": 25000, 
                            "v": 95, 
                            "dur": 800.0, 
                            "type": "note", 
                            "channel": 0
                        }, 
                        {
                            "pitch": 47, 
                            "t0": 25000, 
                            "v": 119, 
                            "dur": 800.0, 
                            "type": "note", 
                            "channel": 0
                        }, 
                        {
                            "pitch": 59, 
                            "t0": 25000, 
                            "v": 86, 
                            "dur": 800.0, 
                            "type": "note", 
                            "channel": 0
                        }, 
                        {
                            "pitch": 71, 
                            "t0": 25000, 
                            "v": 11, 
                            "dur": 800.0, 
                            "type": "note", 
                            "channel": 0
                        }
                    ]
                ], 
                [
                    26000, 
                    [
                        {
                            "pitch": 24, 
                            "t0": 26000, 
                            "v": 32, 
                            "dur": 800.0, 
                            "type": "note", 
                            "channel": 0
                        }, 
                        {
                            "pitch": 36, 
                            "t0": 26000, 
                            "v": 99, 
                            "dur": 800.0, 
                            "type": "note", 
                            "channel": 0
                        }, 
                        {
                            "pitch": 48, 
                            "t0": 26000, 
                            "v": 119, 
                            "dur": 800.0, 
                            "type": "note", 
                            "channel": 0
                        }, 
                        {
                            "pitch": 60, 
                            "t0": 26000, 
                            "v": 81, 
                            "dur": 800.0, 
                            "type": "note", 
                            "channel": 0
                        }, 
                        {
                            "pitch": 72, 
                            "t0": 26000, 
                            "v": 4, 
                            "dur": 800.0, 
                            "type": "note", 
                            "channel": 0
                        }
                    ]
                ], 
                [
                    27000, 
                    [
                        {
                            "pitch": 25, 
                            "t0": 27000, 
                            "v": 39, 
                            "dur": 800.0, 
                            "type": "note", 
                            "channel": 0
                        }, 
                        {
                            "pitch": 37, 
                            "t0": 27000, 
                            "v": 103, 
                            "dur": 800.0, 
                            "type": "note", 
                            "channel": 0
                        }, 
                        {
                            "pitch": 49, 
                            "t0": 27000, 
                            "v": 118, 
                            "dur": 800.0, 
                            "type": "note", 
                            "channel": 0
                        }, 
                        {
                            "pitch": 61, 
                            "t0": 27000, 
                            "v": 76, 
                            "dur": 800.0, 
                            "type": "note", 
                            "channel": 0
                        }
                    ]
                ], 
                [
                    28000, 
                    [
                        {
                            "pitch": 26, 
                            "t0": 28000, 
                            "v": 45, 
                            "dur": 800.0, 
                            "type": "note", 
                            "channel": 0
                        }, 
                        {
                            "pitch": 38, 
                            "t0": 28000, 
                            "v": 106, 
                            "dur": 800.0, 
                            "type": "note", 
                            "channel": 0
                        }, 
                        {
                            "pitch": 50, 
                            "t0": 28000, 
                            "v": 116, 
                            "dur": 800.0, 
                            "type": "note", 
                            "channel": 0
                        }, 
                        {
                            "pitch": 62, 
                            "t0": 28000, 
                            "v": 70, 
                            "dur": 800.0, 
                            "type": "note", 
                            "channel": 0
                        }
                    ]
                ], 
                [
                    29000, 
                    [
                        {
                            "pitch": 27, 
                            "t0": 29000, 
                            "v": 52, 
                            "dur": 800.0, 
                            "type": "note", 
                            "channel": 0
                        }, 
                        {
                            "pitch": 39, 
                            "t0": 29000, 
                            "v": 109, 
                            "dur": 800.0, 
                            "type": "note", 
                            "channel": 0
                        }, 
                        {
                            "pitch": 51, 
                            "t0": 29000, 
                            "v": 114, 
                            "dur": 800.0, 
                            "type": "note", 
                            "channel": 0
                        }, 
                        {
                            "pitch": 63, 
                            "t0": 29000, 
                            "v": 64, 
                            "dur": 800.0, 
                            "type": "note", 
                            "channel": 0
                        }
                    ]
                ], 
                [
                    30000, 
                    [
                        {
                            "pitch": 28, 
                            "t0": 30000, 
                            "v": 58, 
                            "dur": 800.0, 
                            "type": "note", 
                            "channel": 0
                        }, 
                        {
                            "pitch": 40, 
                            "t0": 30000, 
                            "v": 112, 
                            "dur": 800.0, 
                            "type": "note", 
                            "channel": 0
                        }, 
                        {
                            "pitch": 52, 
                            "t0": 30000, 
                            "v": 112, 
                            "dur": 800.0, 
                            "type": "note", 
                            "channel": 0
                        }, 
                        {
                            "pitch": 64, 
                            "t0": 30000, 
                            "v": 58, 
                            "dur": 800.0, 
                            "type": "note", 
                            "channel": 0
                        }
                    ]
                ], 
                [
                    31000, 
                    [
                        {
                            "pitch": 29, 
                            "t0": 31000, 
                            "v": 64, 
                            "dur": 800.0, 
                            "type": "note", 
                            "channel": 0
                        }, 
                        {
                            "pitch": 41, 
                            "t0": 31000, 
                            "v": 114, 
                            "dur": 800.0, 
                            "type": "note", 
                            "channel": 0
                        }, 
                        {
                            "pitch": 53, 
                            "t0": 31000, 
                            "v": 109, 
                            "dur": 800.0, 
                            "type": "note", 
                            "channel": 0
                        }, 
                        {
                            "pitch": 65, 
                            "t0": 31000, 
                            "v": 52, 
                            "dur": 800.0, 
                            "type": "note", 
                            "channel": 0
                        }
                    ]
                ], 
                [
                    32000, 
                    [
                        {
                            "pitch": 30, 
                            "t0": 32000, 
                            "v": 70, 
                            "dur": 800.0, 
                            "type": "note", 
                            "channel": 0
                        }, 
                        {
                            "pitch": 42, 
                            "t0": 32000, 
                            "v": 116, 
                            "dur": 800.0, 
                            "type": "note", 
                            "channel": 0
                        }, 
                        {
                            "pitch": 54, 
                            "t0": 32000, 
                            "v": 106, 
                            "dur": 800.0, 
                            "type": "note", 
                            "channel": 0
                        }, 
                        {
                            "pitch": 66, 
                            "t0": 32000, 
                            "v": 45, 
                            "dur": 800.0, 
                            "type": "note", 
                            "channel": 0
                        }
                    ]
                ], 
                [
                    33000, 
                    [
                        {
                            "pitch": 31, 
                            "t0": 33000, 
                            "v": 76, 
                            "dur": 800.0, 
                            "type": "note", 
                            "channel": 0
                        }, 
                        {
                            "pitch": 43, 
                            "t0": 33000, 
                            "v": 118, 
                            "dur": 800.0, 
                            "type": "note", 
                            "channel": 0
                        }, 
                        {
                            "pitch": 55, 
                            "t0": 33000, 
                            "v": 103, 
                            "dur": 800.0, 
                            "type": "note", 
                            "channel": 0
                        }, 
                        {
                            "pitch": 67, 
                            "t0": 33000, 
                            "v": 39, 
                            "dur": 800.0, 
                            "type": "note", 
                            "channel": 0
                        }
                    ]
                ], 
                [
                    34000, 
                    [
                        {
                            "pitch": 32, 
                            "t0": 34000, 
                            "v": 81, 
                            "dur": 800.0, 
                            "type": "note", 
                            "channel": 0
                        }, 
                        {
                            "pitch": 44, 
                            "t0": 34000, 
                            "v": 119, 
                            "dur": 800.0, 
                            "type": "note", 
                            "channel": 0
                        }, 
                        {
                            "pitch": 56, 
                            "t0": 34000, 
                            "v": 99, 
                            "dur": 800.0, 
                            "type": "note", 
                            "channel": 0
                        }, 
                        {
                            "pitch": 68, 
                            "t0": 34000, 
                            "v": 32, 
                            "dur": 800.0, 
                            "type": "note", 
                            "channel": 0
                        }
                    ]
                ], 
                [
                    35000, 
                    [
                        {
                            "pitch": 33, 
                            "t0": 35000, 
                            "v": 86, 
                            "dur": 800.0, 
                            "type": "note", 
                            "channel": 0
                        }, 
                        {
                            "pitch": 45, 
                            "t0": 35000, 
                            "v": 119, 
                            "dur": 800.0, 
                            "type": "note", 
                            "channel": 0
                        }, 
                        {
                            "pitch": 57, 
                            "t0": 35000, 
                            "v": 95, 
                            "dur": 800.0, 
                            "type": "note", 
                            "channel": 0
                        }, 
                        {
                            "pitch": 69, 
                            "t0": 35000, 
                            "v": 25, 
                            "dur": 800.0, 
                            "type": "note", 
                            "channel": 0
                        }
                    ]
                ], 
                [
                    36000, 
                    [
                        {
                            "pitch": 22, 
                            "t0": 36000, 
                            "v": 18, 
                            "dur": 800.0, 
                            "type": "note", 
                            "channel": 0
                        }, 
                        {
                            "pitch": 34, 
                            "t0": 36000, 
                            "v": 91, 
                            "dur": 800.0, 
                            "type": "note", 
                            "channel": 0
                        }, 
                        {
                            "pitch": 46, 
                            "t0": 36000, 
                            "v": 120, 
                            "dur": 800.0, 
                            "type": "note", 
                            "channel": 0
                        }, 
                        {
                            "pitch": 58, 
                            "t0": 36000, 
                            "v": 91, 
                            "dur": 800.0, 
                            "type": "note", 
                            "channel": 0
                        }, 
                        {
                            "pitch": 70, 
                            "t0": 36000, 
                            "v": 18, 
                            "dur": 800.0, 
                            "type": "note", 
                            "channel": 0
                        }
                    ]
                ], 
                [
                    37000, 
                    [
                        {
                            "pitch": 23, 
                            "t0": 37000, 
                            "v": 25, 
                            "dur": 800.0, 
                            "type": "note", 
                            "channel": 0
                        }, 
                        {
                            "pitch": 35, 
                            "t0": 37000, 
                            "v": 95, 
                            "dur": 800.0, 
                            "type": "note", 
                            "channel": 0
                        }, 
                        {
                            "pitch": 47, 
                            "t0": 37000, 
                            "v": 119, 
                            "dur": 800.0, 
                            "type": "note", 
                            "channel": 0
                        }, 
                        {
                            "pitch": 59, 
                            "t0": 37000, 
                            "v": 86, 
                            "dur": 800.0, 
                            "type": "note", 
                            "channel": 0
                        }, 
                        {
                            "pitch": 71, 
                            "t0": 37000, 
                            "v": 11, 
                            "dur": 800.0, 
                            "type": "note", 
                            "channel": 0
                        }
                    ]
                ], 
                [
                    38000, 
                    [
                        {
                            "pitch": 24, 
                            "t0": 38000, 
                            "v": 32, 
                            "dur": 800.0, 
                            "type": "note", 
                            "channel": 0
                        }, 
                        {
                            "pitch": 36, 
                            "t0": 38000, 
                            "v": 99, 
                            "dur": 800.0, 
                            "type": "note", 
                            "channel": 0
                        }, 
                        {
                            "pitch": 48, 
                            "t0": 38000, 
                            "v": 119, 
                            "dur": 800.0, 
                            "type": "note", 
                            "channel": 0
                        }, 
                        {
                            "pitch": 60, 
                            "t0": 38000, 
                            "v": 81, 
                            "dur": 800.0, 
                            "type": "note", 
                            "channel": 0
                        }, 
                        {
                            "pitch": 72, 
                            "t0": 38000, 
                            "v": 4, 
                            "dur": 800.0, 
                            "type": "note", 
                            "channel": 0
                        }
                    ]
                ], 
                [
                    39000, 
                    [
                        {
                            "pitch": 25, 
                            "t0": 39000, 
                            "v": 39, 
                            "dur": 800.0, 
                            "type": "note", 
                            "channel": 0
                        }, 
                        {
                            "pitch": 37, 
                            "t0": 39000, 
                            "v": 103, 
                            "dur": 800.0, 
                            "type": "note", 
                            "channel": 0
                        }, 
                        {
                            "pitch": 49, 
                            "t0": 39000, 
                            "v": 118, 
                            "dur": 800.0, 
                            "type": "note", 
                            "channel": 0
                        }, 
                        {
                            "pitch": 61, 
                            "t0": 39000, 
                            "v": 76, 
                            "dur": 800.0, 
                            "type": "note", 
                            "channel": 0
                        }
                    ]
                ], 
                [
                    40000, 
                    [
                        {
                            "pitch": 26, 
                            "t0": 40000, 
                            "v": 45, 
                            "dur": 800.0, 
                            "type": "note", 
                            "channel": 0
                        }, 
                        {
                            "pitch": 38, 
                            "t0": 40000, 
                            "v": 106, 
                            "dur": 800.0, 
                            "type": "note", 
                            "channel": 0
                        }, 
                        {
                            "pitch": 50, 
                            "t0": 40000, 
                            "v": 116, 
                            "dur": 800.0, 
                            "type": "note", 
                            "channel": 0
                        }, 
                        {
                            "pitch": 62, 
                            "t0": 40000, 
                            "v": 70, 
                            "dur": 800.0, 
                            "type": "note", 
                            "channel": 0
                        }
                    ]
                ], 
                [
                    41000, 
                    [
                        {
                            "pitch": 27, 
                            "t0": 41000, 
                            "v": 52, 
                            "dur": 800.0, 
                            "type": "note", 
                            "channel": 0
                        }, 
                        {
                            "pitch": 39, 
                            "t0": 41000, 
                            "v": 109, 
                            "dur": 800.0, 
                            "type": "note", 
                            "channel": 0
                        }, 
                        {
                            "pitch": 51, 
                            "t0": 41000, 
                            "v": 114, 
                            "dur": 800.0, 
                            "type": "note", 
                            "channel": 0
                        }, 
                        {
                            "pitch": 63, 
                            "t0": 41000, 
                            "v": 64, 
                            "dur": 800.0, 
                            "type": "note", 
                            "channel": 0
                        }
                    ]
                ], 
                [
                    42000, 
                    [
                        {
                            "pitch": 28, 
                            "t0": 42000, 
                            "v": 58, 
                            "dur": 800.0, 
                            "type": "note", 
                            "channel": 0
                        }, 
                        {
                            "pitch": 40, 
                            "t0": 42000, 
                            "v": 112, 
                            "dur": 800.0, 
                            "type": "note", 
                            "channel": 0
                        }, 
                        {
                            "pitch": 52, 
                            "t0": 42000, 
                            "v": 112, 
                            "dur": 800.0, 
                            "type": "note", 
                            "channel": 0
                        }, 
                        {
                            "pitch": 64, 
                            "t0": 42000, 
                            "v": 58, 
                            "dur": 800.0, 
                            "type": "note", 
                            "channel": 0
                        }
                    ]
                ], 
                [
                    43000, 
                    [
                        {
                            "pitch": 29, 
                            "t0": 43000, 
                            "v": 64, 
                            "dur": 800.0, 
                            "type": "note", 
                            "channel": 0
                        }, 
                        {
                            "pitch": 41, 
                            "t0": 43000, 
                            "v": 114, 
                            "dur": 800.0, 
                            "type": "note", 
                            "channel": 0
                        }, 
                        {
                            "pitch": 53, 
                            "t0": 43000, 
                            "v": 109, 
                            "dur": 800.0, 
                            "type": "note", 
                            "channel": 0
                        }, 
                        {
                            "pitch": 65, 
                            "t0": 43000, 
                            "v": 52, 
                            "dur": 800.0, 
                            "type": "note", 
                            "channel": 0
                        }
                    ]
                ], 
                [
                    44000, 
                    [
                        {
                            "pitch": 30, 
                            "t0": 44000, 
                            "v": 70, 
                            "dur": 800.0, 
                            "type": "note", 
                            "channel": 0
                        }, 
                        {
                            "pitch": 42, 
                            "t0": 44000, 
                            "v": 116, 
                            "dur": 800.0, 
                            "type": "note", 
                            "channel": 0
                        }, 
                        {
                            "pitch": 54, 
                            "t0": 44000, 
                            "v": 106, 
                            "dur": 800.0, 
                            "type": "note", 
                            "channel": 0
                        }, 
                        {
                            "pitch": 66, 
                            "t0": 44000, 
                            "v": 45, 
                            "dur": 800.0, 
                            "type": "note", 
                            "channel": 0
                        }
                    ]
                ], 
                [
                    45000, 
                    [
                        {
                            "pitch": 31, 
                            "t0": 45000, 
                            "v": 76, 
                            "dur": 800.0, 
                            "type": "note", 
                            "channel": 0
                        }, 
                        {
                            "pitch": 43, 
                            "t0": 45000, 
                            "v": 118, 
                            "dur": 800.0, 
                            "type": "note", 
                            "channel": 0
                        }, 
                        {
                            "pitch": 55, 
                            "t0": 45000, 
                            "v": 103, 
                            "dur": 800.0, 
                            "type": "note", 
                            "channel": 0
                        }, 
                        {
                            "pitch": 67, 
                            "t0": 45000, 
                            "v": 39, 
                            "dur": 800.0, 
                            "type": "note", 
                            "channel": 0
                        }
                    ]
                ], 
                [
                    46000, 
                    [
                        {
                            "pitch": 32, 
                            "t0": 46000, 
                            "v": 81, 
                            "dur": 800.0, 
                            "type": "note", 
                            "channel": 0
                        }, 
                        {
                            "pitch": 44, 
                            "t0": 46000, 
                            "v": 119, 
                            "dur": 800.0, 
                            "type": "note", 
                            "channel": 0
                        }, 
                        {
                            "pitch": 56, 
                            "t0": 46000, 
                            "v": 99, 
                            "dur": 800.0, 
                            "type": "note", 
                            "channel": 0
                        }, 
                        {
                            "pitch": 68, 
                            "t0": 46000, 
                            "v": 32, 
                            "dur": 800.0, 
                            "type": "note", 
                            "channel": 0
                        }
                    ]
                ], 
                [
                    47000, 
                    [
                        {
                            "pitch": 33, 
                            "t0": 47000, 
                            "v": 86, 
                            "dur": 800.0, 
                            "type": "note", 
                            "channel": 0
                        }, 
                        {
                            "pitch": 45, 
                            "t0": 47000, 
                            "v": 119, 
                            "dur": 800.0, 
                            "type": "note", 
                            "channel": 0
                        }, 
                        {
                            "pitch": 57, 
                            "t0": 47000, 
                            "v": 95, 
                            "dur": 800.0, 
                            "type": "note", 
                            "channel": 0
                        }, 
                        {
                            "pitch": 69, 
                            "t0": 47000, 
                            "v": 25, 
                            "dur": 800.0, 
                            "type": "note", 
                            "channel": 0
                        }
                    ]
                ], 
                [
                    48000, 
                    [
                        {
                            "pitch": 22, 
                            "t0": 48000, 
                            "v": 18, 
                            "dur": 800.0, 
                            "type": "note", 
                            "channel": 0
                        }, 
                        {
                            "pitch": 34, 
                            "t0": 48000, 
                            "v": 91, 
                            "dur": 800.0, 
                            "type": "note", 
                            "channel": 0
                        }, 
                        {
                            "pitch": 46, 
                            "t0": 48000, 
                            "v": 120, 
                            "dur": 800.0, 
                            "type": "note", 
                            "channel": 0
                        }, 
                        {
                            "pitch": 58, 
                            "t0": 48000, 
                            "v": 91, 
                            "dur": 800.0, 
                            "type": "note", 
                            "channel": 0
                        }, 
                        {
                            "pitch": 70, 
                            "t0": 48000, 
                            "v": 18, 
                            "dur": 800.0, 
                            "type": "note", 
                            "channel": 0
                        }
                    ]
                ], 
                [
                    49000, 
                    [
                        {
                            "pitch": 23, 
                            "t0": 49000, 
                            "v": 25, 
                            "dur": 800.0, 
                            "type": "note", 
                            "channel": 0
                        }, 
                        {
                            "pitch": 35, 
                            "t0": 49000, 
                            "v": 95, 
                            "dur": 800.0, 
                            "type": "note", 
                            "channel": 0
                        }, 
                        {
                            "pitch": 47, 
                            "t0": 49000, 
                            "v": 119, 
                            "dur": 800.0, 
                            "type": "note", 
                            "channel": 0
                        }, 
                        {
                            "pitch": 59, 
                            "t0": 49000, 
                            "v": 86, 
                            "dur": 800.0, 
                            "type": "note", 
                            "channel": 0
                        }, 
                        {
                            "pitch": 71, 
                            "t0": 49000, 
                            "v": 11, 
                            "dur": 800.0, 
                            "type": "note", 
                            "channel": 0
                        }
                    ]
                ], 
                [
                    50000, 
                    [
                        {
                            "pitch": 24, 
                            "t0": 50000, 
                            "v": 32, 
                            "dur": 800.0, 
                            "type": "note", 
                            "channel": 0
                        }, 
                        {
                            "pitch": 36, 
                            "t0": 50000, 
                            "v": 99, 
                            "dur": 800.0, 
                            "type": "note", 
                            "channel": 0
                        }, 
                        {
                            "pitch": 48, 
                            "t0": 50000, 
                            "v": 119, 
                            "dur": 800.0, 
                            "type": "note", 
                            "channel": 0
                        }, 
                        {
                            "pitch": 60, 
                            "t0": 50000, 
                            "v": 81, 
                            "dur": 800.0, 
                            "type": "note", 
                            "channel": 0
                        }, 
                        {
                            "pitch": 72, 
                            "t0": 50000, 
                            "v": 4, 
                            "dur": 800.0, 
                            "type": "note", 
                            "channel": 0
                        }
                    ]
                ], 
                [
                    51000, 
                    [
                        {
                            "pitch": 25, 
                            "t0": 51000, 
                            "v": 39, 
                            "dur": 800.0, 
                            "type": "note", 
                            "channel": 0
                        }, 
                        {
                            "pitch": 37, 
                            "t0": 51000, 
                            "v": 103, 
                            "dur": 800.0, 
                            "type": "note", 
                            "channel": 0
                        }, 
                        {
                            "pitch": 49, 
                            "t0": 51000, 
                            "v": 118, 
                            "dur": 800.0, 
                            "type": "note", 
                            "channel": 0
                        }, 
                        {
                            "pitch": 61, 
                            "t0": 51000, 
                            "v": 76, 
                            "dur": 800.0, 
                            "type": "note", 
                            "channel": 0
                        }
                    ]
                ], 
                [
                    52000, 
                    [
                        {
                            "pitch": 26, 
                            "t0": 52000, 
                            "v": 45, 
                            "dur": 800.0, 
                            "type": "note", 
                            "channel": 0
                        }, 
                        {
                            "pitch": 38, 
                            "t0": 52000, 
                            "v": 106, 
                            "dur": 800.0, 
                            "type": "note", 
                            "channel": 0
                        }, 
                        {
                            "pitch": 50, 
                            "t0": 52000, 
                            "v": 116, 
                            "dur": 800.0, 
                            "type": "note", 
                            "channel": 0
                        }, 
                        {
                            "pitch": 62, 
                            "t0": 52000, 
                            "v": 70, 
                            "dur": 800.0, 
                            "type": "note", 
                            "channel": 0
                        }
                    ]
                ], 
                [
                    53000, 
                    [
                        {
                            "pitch": 27, 
                            "t0": 53000, 
                            "v": 52, 
                            "dur": 800.0, 
                            "type": "note", 
                            "channel": 0
                        }, 
                        {
                            "pitch": 39, 
                            "t0": 53000, 
                            "v": 109, 
                            "dur": 800.0, 
                            "type": "note", 
                            "channel": 0
                        }, 
                        {
                            "pitch": 51, 
                            "t0": 53000, 
                            "v": 114, 
                            "dur": 800.0, 
                            "type": "note", 
                            "channel": 0
                        }, 
                        {
                            "pitch": 63, 
                            "t0": 53000, 
                            "v": 64, 
                            "dur": 800.0, 
                            "type": "note", 
                            "channel": 0
                        }
                    ]
                ], 
                [
                    54000, 
                    [
                        {
                            "pitch": 28, 
                            "t0": 54000, 
                            "v": 58, 
                            "dur": 800.0, 
                            "type": "note", 
                            "channel": 0
                        }, 
                        {
                            "pitch": 40, 
                            "t0": 54000, 
                            "v": 112, 
                            "dur": 800.0, 
                            "type": "note", 
                            "channel": 0
                        }, 
                        {
                            "pitch": 52, 
                            "t0": 54000, 
                            "v": 112, 
                            "dur": 800.0, 
                            "type": "note", 
                            "channel": 0
                        }, 
                        {
                            "pitch": 64, 
                            "t0": 54000, 
                            "v": 58, 
                            "dur": 800.0, 
                            "type": "note", 
                            "channel": 0
                        }
                    ]
                ], 
                [
                    55000, 
                    [
                        {
                            "pitch": 29, 
                            "t0": 55000, 
                            "v": 64, 
                            "dur": 800.0, 
                            "type": "note", 
                            "channel": 0
                        }, 
                        {
                            "pitch": 41, 
                            "t0": 55000, 
                            "v": 114, 
                            "dur": 800.0, 
                            "type": "note", 
                            "channel": 0
                        }, 
                        {
                            "pitch": 53, 
                            "t0": 55000, 
                            "v": 109, 
                            "dur": 800.0, 
                            "type": "note", 
                            "channel": 0
                        }, 
                        {
                            "pitch": 65, 
                            "t0": 55000, 
                            "v": 52, 
                            "dur": 800.0, 
                            "type": "note", 
                            "channel": 0
                        }
                    ]
                ], 
                [
                    56000, 
                    [
                        {
                            "pitch": 30, 
                            "t0": 56000, 
                            "v": 70, 
                            "dur": 800.0, 
                            "type": "note", 
                            "channel": 0
                        }, 
                        {
                            "pitch": 42, 
                            "t0": 56000, 
                            "v": 116, 
                            "dur": 800.0, 
                            "type": "note", 
                            "channel": 0
                        }, 
                        {
                            "pitch": 54, 
                            "t0": 56000, 
                            "v": 106, 
                            "dur": 800.0, 
                            "type": "note", 
                            "channel": 0
                        }, 
                        {
                            "pitch": 66, 
                            "t0": 56000, 
                            "v": 45, 
                            "dur": 800.0, 
                            "type": "note", 
                            "channel": 0
                        }
                    ]
                ], 
                [
                    57000, 
                    [
                        {
                            "pitch": 31, 
                            "t0": 57000, 
                            "v": 76, 
                            "dur": 800.0, 
                            "type": "note", 
                            "channel": 0
                        }, 
                        {
                            "pitch": 43, 
                            "t0": 57000, 
                            "v": 118, 
                            "dur": 800.0, 
                            "type": "note", 
                            "channel": 0
                        }, 
                        {
                            "pitch": 55, 
                            "t0": 57000, 
                            "v": 103, 
                            "dur": 800.0, 
                            "type": "note", 
                            "channel": 0
                        }, 
                        {
                            "pitch": 67, 
                            "t0": 57000, 
                            "v": 39, 
                            "dur": 800.0, 
                            "type": "note", 
                            "channel": 0
                        }
                    ]
                ], 
                [
                    58000, 
                    [
                        {
                            "pitch": 32, 
                            "t0": 58000, 
                            "v": 81, 
                            "dur": 800.0, 
                            "type": "note", 
                            "channel": 0
                        }, 
                        {
                            "pitch": 44, 
                            "t0": 58000, 
                            "v": 119, 
                            "dur": 800.0, 
                            "type": "note", 
                            "channel": 0
                        }, 
                        {
                            "pitch": 56, 
                            "t0": 58000, 
                            "v": 99, 
                            "dur": 800.0, 
                            "type": "note", 
                            "channel": 0
                        }, 
                        {
                            "pitch": 68, 
                            "t0": 58000, 
                            "v": 32, 
                            "dur": 800.0, 
                            "type": "note", 
                            "channel": 0
                        }
                    ]
                ], 
                [
                    59000, 
                    [
                        {
                            "pitch": 33, 
                            "t0": 59000, 
                            "v": 86, 
                            "dur": 800.0, 
                            "type": "note", 
                            "channel": 0
                        }, 
                        {
                            "pitch": 45, 
                            "t0": 59000, 
                            "v": 119, 
                            "dur": 800.0, 
                            "type": "note", 
                            "channel": 0
                        }, 
                        {
                            "pitch": 57, 
                            "t0": 59000, 
                            "v": 95, 
                            "dur": 800.0, 
                            "type": "note", 
                            "channel": 0
                        }, 
                        {
                            "pitch": 69, 
                            "t0": 59000, 
                            "v": 25, 
                            "dur": 800.0, 
                            "type": "note", 
                            "channel": 0
                        }
                    ]
                ], 
                [
                    60000, 
                    [
                        {
                            "pitch": 22, 
                            "t0": 60000, 
                            "v": 18, 
                            "dur": 800.0, 
                            "type": "note", 
                            "channel": 0
                        }, 
                        {
                            "pitch": 34, 
                            "t0": 60000, 
                            "v": 91, 
                            "dur": 800.0, 
                            "type": "note", 
                            "channel": 0
                        }, 
                        {
                            "pitch": 46, 
                            "t0": 60000, 
                            "v": 120, 
                            "dur": 800.0, 
                            "type": "note", 
                            "channel": 0
                        }, 
                        {
                            "pitch": 58, 
                            "t0": 60000, 
                            "v": 91, 
                            "dur": 800.0, 
                            "type": "note", 
                            "channel": 0
                        }, 
                        {
                            "pitch": 70, 
                            "t0": 60000, 
                            "v": 18, 
                            "dur": 800.0, 
                            "type": "note", 
                            "channel": 0
                        }
                    ]
                ], 
                [
                    61000, 
                    [
                        {
                            "pitch": 23, 
                            "t0": 61000, 
                            "v": 25, 
                            "dur": 800.0, 
                            "type": "note", 
                            "channel": 0
                        }, 
                        {
                            "pitch": 35, 
                            "t0": 61000, 
                            "v": 95, 
                            "dur": 800.0, 
                            "type": "note", 
                            "channel": 0
                        }, 
                        {
                            "pitch": 47, 
                            "t0": 61000, 
                            "v": 119, 
                            "dur": 800.0, 
                            "type": "note", 
                            "channel": 0
                        }, 
                        {
                            "pitch": 59, 
                            "t0": 61000, 
                            "v": 86, 
                            "dur": 800.0, 
                            "type": "note", 
                            "channel": 0
                        }, 
                        {
                            "pitch": 71, 
                            "t0": 61000, 
                            "v": 11, 
                            "dur": 800.0, 
                            "type": "note", 
                            "channel": 0
                        }
                    ]
                ], 
                [
                    62000, 
                    [
                        {
                            "pitch": 24, 
                            "t0": 62000, 
                            "v": 32, 
                            "dur": 800.0, 
                            "type": "note", 
                            "channel": 0
                        }, 
                        {
                            "pitch": 36, 
                            "t0": 62000, 
                            "v": 99, 
                            "dur": 800.0, 
                            "type": "note", 
                            "channel": 0
                        }, 
                        {
                            "pitch": 48, 
                            "t0": 62000, 
                            "v": 119, 
                            "dur": 800.0, 
                            "type": "note", 
                            "channel": 0
                        }, 
                        {
                            "pitch": 60, 
                            "t0": 62000, 
                            "v": 81, 
                            "dur": 800.0, 
                            "type": "note", 
                            "channel": 0
                        }, 
                        {
                            "pitch": 72, 
                            "t0": 62000, 
                            "v": 4, 
                            "dur": 800.0, 
                            "type": "note", 
                            "channel": 0
                        }
                    ]
                ], 
                [
                    63000, 
                    [
                        {
                            "pitch": 25, 
                            "t0": 63000, 
                            "v": 39, 
                            "dur": 800.0, 
                            "type": "note", 
                            "channel": 0
                        }, 
                        {
                            "pitch": 37, 
                            "t0": 63000, 
                            "v": 103, 
                            "dur": 800.0, 
                            "type": "note", 
                            "channel": 0
                        }, 
                        {
                            "pitch": 49, 
                            "t0": 63000, 
                            "v": 118, 
                            "dur": 800.0, 
                            "type": "note", 
                            "channel": 0
                        }, 
                        {
                            "pitch": 61, 
                            "t0": 63000, 
                            "v": 76, 
                            "dur": 800.0, 
                            "type": "note", 
                            "channel": 0
                        }
                    ]
                ], 
                [
                    64000, 
                    [
                        {
                            "pitch": 26, 
                            "t0": 64000, 
                            "v": 45, 
                            "dur": 800.0, 
                            "type": "note", 
                            "channel": 0
                        }, 
                        {
                            "pitch": 38, 
                            "t0": 64000, 
                            "v": 106, 
                            "dur": 800.0, 
                            "type": "note", 
                            "channel": 0
                        }, 
                        {
                            "pitch": 50, 
                            "t0": 64000, 
                            "v": 116, 
                            "dur": 800.0, 
                            "type": "note", 
                            "channel": 0
                        }, 
                        {
                            "pitch": 62, 
                            "t0": 64000, 
                            "v": 70, 
                            "dur": 800.0, 
                            "type": "note", 
                            "channel": 0
                        }
                    ]
                ], 
                [
                    65000, 
                    [
                        {
                            "pitch": 27, 
                            "t0": 65000, 
                            "v": 52, 
                            "dur": 800.0, 
                            "type": "note", 
                            "channel": 0
                        }, 
                        {
                            "pitch": 39, 
                            "t0": 65000, 
                            "v": 109, 
                            "dur": 800.0, 
                            "type": "note", 
                            "channel": 0
                        }, 
                        {
                            "pitch": 51, 
                            "t0": 65000, 
                            "v": 114, 
                            "dur": 800.0, 
                            "type": "note", 
                            "channel": 0
                        }, 
                        {
                            "pitch": 63, 
                            "t0": 65000, 
                            "v": 64, 
                            "dur": 800.0, 
                            "type": "note", 
                            "channel": 0
                        }
                    ]
                ], 
                [
                    66000, 
                    [
                        {
                            "pitch": 28, 
                            "t0": 66000, 
                            "v": 58, 
                            "dur": 800.0, 
                            "type": "note", 
                            "channel": 0
                        }, 
                        {
                            "pitch": 40, 
                            "t0": 66000, 
                            "v": 112, 
                            "dur": 800.0, 
                            "type": "note", 
                            "channel": 0
                        }, 
                        {
                            "pitch": 52, 
                            "t0": 66000, 
                            "v": 112, 
                            "dur": 800.0, 
                            "type": "note", 
                            "channel": 0
                        }, 
                        {
                            "pitch": 64, 
                            "t0": 66000, 
                            "v": 58, 
                            "dur": 800.0, 
                            "type": "note", 
                            "channel": 0
                        }
                    ]
                ], 
                [
                    67000, 
                    [
                        {
                            "pitch": 29, 
                            "t0": 67000, 
                            "v": 64, 
                            "dur": 800.0, 
                            "type": "note", 
                            "channel": 0
                        }, 
                        {
                            "pitch": 41, 
                            "t0": 67000, 
                            "v": 114, 
                            "dur": 800.0, 
                            "type": "note", 
                            "channel": 0
                        }, 
                        {
                            "pitch": 53, 
                            "t0": 67000, 
                            "v": 109, 
                            "dur": 800.0, 
                            "type": "note", 
                            "channel": 0
                        }, 
                        {
                            "pitch": 65, 
                            "t0": 67000, 
                            "v": 52, 
                            "dur": 800.0, 
                            "type": "note", 
                            "channel": 0
                        }
                    ]
                ], 
                [
                    68000, 
                    [
                        {
                            "pitch": 30, 
                            "t0": 68000, 
                            "v": 70, 
                            "dur": 800.0, 
                            "type": "note", 
                            "channel": 0
                        }, 
                        {
                            "pitch": 42, 
                            "t0": 68000, 
                            "v": 116, 
                            "dur": 800.0, 
                            "type": "note", 
                            "channel": 0
                        }, 
                        {
                            "pitch": 54, 
                            "t0": 68000, 
                            "v": 106, 
                            "dur": 800.0, 
                            "type": "note", 
                            "channel": 0
                        }, 
                        {
                            "pitch": 66, 
                            "t0": 68000, 
                            "v": 45, 
                            "dur": 800.0, 
                            "type": "note", 
                            "channel": 0
                        }
                    ]
                ], 
                [
                    69000, 
                    [
                        {
                            "pitch": 31, 
                            "t0": 69000, 
                            "v": 76, 
                            "dur": 800.0, 
                            "type": "note", 
                            "channel": 0
                        }, 
                        {
                            "pitch": 43, 
                            "t0": 69000, 
                            "v": 118, 
                            "dur": 800.0, 
                            "type": "note", 
                            "channel": 0
                        }, 
                        {
                            "pitch": 55, 
                            "t0": 69000, 
                            "v": 103, 
                            "dur": 800.0, 
                            "type": "note", 
                            "channel": 0
                        }, 
                        {
                            "pitch": 67, 
                            "t0": 69000, 
                            "v": 39, 
                            "dur": 800.0, 
                            "type": "note", 
                            "channel": 0
                        }
                    ]
                ], 
                [
                    70000, 
                    [
                        {
                            "pitch": 32, 
                            "t0": 70000, 
                            "v": 81, 
                            "dur": 800.0, 
                            "type": "note", 
                            "channel": 0
                        }, 
                        {
                            "pitch": 44, 
                            "t0": 70000, 
                            "v": 119, 
                            "dur": 800.0, 
                            "type": "note", 
                            "channel": 0
                        }, 
                        {
                            "pitch": 56, 
                            "t0": 70000, 
                            "v": 99, 
                            "dur": 800.0, 
                            "type": "note", 
                            "channel": 0
                        }, 
                        {
                            "pitch": 68, 
                            "t0": 70000, 
                            "v": 32, 
                            "dur": 800.0, 
                            "type": "note", 
                            "channel": 0
                        }
                    ]
                ], 
                [
                    71000, 
                    [
                        {
                            "pitch": 33, 
                            "t0": 71000, 
                            "v": 86, 
                            "dur": 800.0, 
                            "type": "note", 
                            "channel": 0
                        }, 
                        {
                            "pitch": 45, 
                            "t0": 71000, 
                            "v": 119, 
                            "dur": 800.0, 
                            "type": "note", 
                            "channel": 0
                        }, 
                        {
                            "pitch": 57, 
                            "t0": 71000, 
                            "v": 95, 
                            "dur": 800.0, 
                            "type": "note", 
                            "channel": 0
                        }, 
                        {
                            "pitch": 69, 
                            "t0": 71000, 
                            "v": 25, 
                            "dur": 800.0, 
                            "type": "note", 
                            "channel": 0
                        }
                    ]
                ], 
                [
                    72000, 
                    [
                        {
                            "pitch": 22, 
                            "t0": 72000, 
                            "v": 18, 
                            "dur": 800.0, 
                            "type": "note", 
                            "channel": 0
                        }, 
                        {
                            "pitch": 34, 
                            "t0": 72000, 
                            "v": 91, 
                            "dur": 800.0, 
                            "type": "note", 
                            "channel": 0
                        }, 
                        {
                            "pitch": 46, 
                            "t0": 72000, 
                            "v": 120, 
                            "dur": 800.0, 
                            "type": "note", 
                            "channel": 0
                        }, 
                        {
                            "pitch": 58, 
                            "t0": 72000, 
                            "v": 91, 
                            "dur": 800.0, 
                            "type": "note", 
                            "channel": 0
                        }, 
                        {
                            "pitch": 70, 
                            "t0": 72000, 
                            "v": 18, 
                            "dur": 800.0, 
                            "type": "note", 
                            "channel": 0
                        }
                    ]
                ], 
                [
                    73000, 
                    [
                        {
                            "pitch": 23, 
                            "t0": 73000, 
                            "v": 25, 
                            "dur": 800.0, 
                            "type": "note", 
                            "channel": 0
                        }, 
                        {
                            "pitch": 35, 
                            "t0": 73000, 
                            "v": 95, 
                            "dur": 800.0, 
                            "type": "note", 
                            "channel": 0
                        }, 
                        {
                            "pitch": 47, 
                            "t0": 73000, 
                            "v": 119, 
                            "dur": 800.0, 
                            "type": "note", 
                            "channel": 0
                        }, 
                        {
                            "pitch": 59, 
                            "t0": 73000, 
                            "v": 86, 
                            "dur": 800.0, 
                            "type": "note", 
                            "channel": 0
                        }, 
                        {
                            "pitch": 71, 
                            "t0": 73000, 
                            "v": 11, 
                            "dur": 800.0, 
                            "type": "note", 
                            "channel": 0
                        }
                    ]
                ], 
                [
                    74000, 
                    [
                        {
                            "pitch": 24, 
                            "t0": 74000, 
                            "v": 32, 
                            "dur": 800.0, 
                            "type": "note", 
                            "channel": 0
                        }, 
                        {
                            "pitch": 36, 
                            "t0": 74000, 
                            "v": 99, 
                            "dur": 800.0, 
                            "type": "note", 
                            "channel": 0
                        }, 
                        {
                            "pitch": 48, 
                            "t0": 74000, 
                            "v": 119, 
                            "dur": 800.0, 
                            "type": "note", 
                            "channel": 0
                        }, 
                        {
                            "pitch": 60, 
                            "t0": 74000, 
                            "v": 81, 
                            "dur": 800.0, 
                            "type": "note", 
                            "channel": 0
                        }, 
                        {
                            "pitch": 72, 
                            "t0": 74000, 
                            "v": 4, 
                            "dur": 800.0, 
                            "type": "note", 
                            "channel": 0
                        }
                    ]
                ], 
                [
                    75000, 
                    [
                        {
                            "pitch": 25, 
                            "t0": 75000, 
                            "v": 39, 
                            "dur": 800.0, 
                            "type": "note", 
                            "channel": 0
                        }, 
                        {
                            "pitch": 37, 
                            "t0": 75000, 
                            "v": 103, 
                            "dur": 800.0, 
                            "type": "note", 
                            "channel": 0
                        }, 
                        {
                            "pitch": 49, 
                            "t0": 75000, 
                            "v": 118, 
                            "dur": 800.0, 
                            "type": "note", 
                            "channel": 0
                        }, 
                        {
                            "pitch": 61, 
                            "t0": 75000, 
                            "v": 76, 
                            "dur": 800.0, 
                            "type": "note", 
                            "channel": 0
                        }
                    ]
                ], 
                [
                    76000, 
                    [
                        {
                            "pitch": 26, 
                            "t0": 76000, 
                            "v": 45, 
                            "dur": 800.0, 
                            "type": "note", 
                            "channel": 0
                        }, 
                        {
                            "pitch": 38, 
                            "t0": 76000, 
                            "v": 106, 
                            "dur": 800.0, 
                            "type": "note", 
                            "channel": 0
                        }, 
                        {
                            "pitch": 50, 
                            "t0": 76000, 
                            "v": 116, 
                            "dur": 800.0, 
                            "type": "note", 
                            "channel": 0
                        }, 
                        {
                            "pitch": 62, 
                            "t0": 76000, 
                            "v": 70, 
                            "dur": 800.0, 
                            "type": "note", 
                            "channel": 0
                        }
                    ]
                ], 
                [
                    77000, 
                    [
                        {
                            "pitch": 27, 
                            "t0": 77000, 
                            "v": 52, 
                            "dur": 800.0, 
                            "type": "note", 
                            "channel": 0
                        }, 
                        {
                            "pitch": 39, 
                            "t0": 77000, 
                            "v": 109, 
                            "dur": 800.0, 
                            "type": "note", 
                            "channel": 0
                        }, 
                        {
                            "pitch": 51, 
                            "t0": 77000, 
                            "v": 114, 
                            "dur": 800.0, 
                            "type": "note", 
                            "channel": 0
                        }, 
                        {
                            "pitch": 63, 
                            "t0": 77000, 
                            "v": 64, 
                            "dur": 800.0, 
                            "type": "note", 
                            "channel": 0
                        }
                    ]
                ], 
                [
                    78000, 
                    [
                        {
                            "pitch": 28, 
                            "t0": 78000, 
                            "v": 58, 
                            "dur": 800.0, 
                            "type": "note", 
                            "channel": 0
                        }, 
                        {
                            "pitch": 40, 
                            "t0": 78000, 
                            "v": 112, 
                            "dur": 800.0, 
                            "type": "note", 
                            "channel": 0
                        }, 
                        {
                            "pitch": 52, 
                            "t0": 78000, 
                            "v": 112, 
                            "dur": 800.0, 
                            "type": "note", 
                            "channel": 0
                        }, 
                        {
                            "pitch": 64, 
                            "t0": 78000, 
                            "v": 58, 
                            "dur": 800.0, 
                            "type": "note", 
                            "channel": 0
                        }
                    ]
                ], 
                [
                    79000, 
                    [
                        {
                            "pitch": 29, 
                            "t0": 79000, 
                            "v": 64, 
                            "dur": 800.0, 
                            "type": "note", 
                            "channel": 0
                        }, 
                        {
                            "pitch": 41, 
                            "t0": 79000, 
                            "v": 114, 
                            "dur": 800.0, 
                            "type": "note", 
                            "channel": 0
                        }, 
                        {
                            "pitch": 53, 
                            "t0": 79000, 
                            "v": 109, 
                            "dur": 800.0, 
                            "type": "note", 
                            "channel": 0
                        }, 
                        {
                            "pitch": 65, 
                            "t0": 79000, 
                            "v": 52, 
                            "dur": 800.0, 
                            "type": "note", 
                            "channel": 0
                        }
                    ]
                ], 
                [
                    80000, 
                    [
                        {
                            "pitch": 30, 
                            "t0": 80000, 
                            "v": 70, 
                            "dur": 800.0, 
                            "type": "note", 
                            "channel": 0
                        }, 
                        {
                            "pitch": 42, 
                            "t0": 80000, 
                            "v": 116, 
                            "dur": 800.0, 
                            "type": "note", 
                            "channel": 0
                        }, 
                        {
                            "pitch": 54, 
                            "t0": 80000, 
                            "v": 106, 
                            "dur": 800.0, 
                            "type": "note", 
                            "channel": 0
                        }, 
                        {
                            "pitch": 66, 
                            "t0": 80000, 
                            "v": 45, 
                            "dur": 800.0, 
                            "type": "note", 
                            "channel": 0
                        }
                    ]
                ], 
                [
                    81000, 
                    [
                        {
                            "pitch": 31, 
                            "t0": 81000, 
                            "v": 76, 
                            "dur": 800.0, 
                            "type": "note", 
                            "channel": 0
                        }, 
                        {
                            "pitch": 43, 
                            "t0": 81000, 
                            "v": 118, 
                            "dur": 800.0, 
                            "type": "note", 
                            "channel": 0
                        }, 
                        {
                            "pitch": 55, 
                            "t0": 81000, 
                            "v": 103, 
                            "dur": 800.0, 
                            "type": "note", 
                            "channel": 0
                        }, 
                        {
                            "pitch": 67, 
                            "t0": 81000, 
                            "v": 39, 
                            "dur": 800.0, 
                            "type": "note", 
                            "channel": 0
                        }
                    ]
                ], 
                [
                    82000, 
                    [
                        {
                            "pitch": 32, 
                            "t0": 82000, 
                            "v": 81, 
                            "dur": 800.0, 
                            "type": "note", 
                            "channel": 0
                        }, 
                        {
                            "pitch": 44, 
                            "t0": 82000, 
                            "v": 119, 
                            "dur": 800.0, 
                            "type": "note", 
                            "channel": 0
                        }, 
                        {
                            "pitch": 56, 
                            "t0": 82000, 
                            "v": 99, 
                            "dur": 800.0, 
                            "type": "note", 
                            "channel": 0
                        }, 
                        {
                            "pitch": 68, 
                            "t0": 82000, 
                            "v": 32, 
                            "dur": 800.0, 
                            "type": "note", 
                            "channel": 0
                        }
                    ]
                ], 
                [
                    83000, 
                    [
                        {
                            "pitch": 33, 
                            "t0": 83000, 
                            "v": 86, 
                            "dur": 800.0, 
                            "type": "note", 
                            "channel": 0
                        }, 
                        {
                            "pitch": 45, 
                            "t0": 83000, 
                            "v": 119, 
                            "dur": 800.0, 
                            "type": "note", 
                            "channel": 0
                        }, 
                        {
                            "pitch": 57, 
                            "t0": 83000, 
                            "v": 95, 
                            "dur": 800.0, 
                            "type": "note", 
                            "channel": 0
                        }, 
                        {
                            "pitch": 69, 
                            "t0": 83000, 
                            "v": 25, 
                            "dur": 800.0, 
                            "type": "note", 
                            "channel": 0
                        }
                    ]
                ], 
                [
                    84000, 
                    [
                        {
                            "pitch": 22, 
                            "t0": 84000, 
                            "v": 18, 
                            "dur": 800.0, 
                            "type": "note", 
                            "channel": 0
                        }, 
                        {
                            "pitch": 34, 
                            "t0": 84000, 
                            "v": 91, 
                            "dur": 800.0, 
                            "type": "note", 
                            "channel": 0
                        }, 
                        {
                            "pitch": 46, 
                            "t0": 84000, 
                            "v": 120, 
                            "dur": 800.0, 
                            "type": "note", 
                            "channel": 0
                        }, 
                        {
                            "pitch": 58, 
                            "t0": 84000, 
                            "v": 91, 
                            "dur": 800.0, 
                            "type": "note", 
                            "channel": 0
                        }, 
                        {
                            "pitch": 70, 
                            "t0": 84000, 
                            "v": 18, 
                            "dur": 800.0, 
                            "type": "note", 
                            "channel": 0
                        }
                    ]
                ], 
                [
                    85000, 
                    [
                        {
                            "pitch": 23, 
                            "t0": 85000, 
                            "v": 25, 
                            "dur": 800.0, 
                            "type": "note", 
                            "channel": 0
                        }, 
                        {
                            "pitch": 35, 
                            "t0": 85000, 
                            "v": 95, 
                            "dur": 800.0, 
                            "type": "note", 
                            "channel": 0
                        }, 
                        {
                            "pitch": 47, 
                            "t0": 85000, 
                            "v": 119, 
                            "dur": 800.0, 
                            "type": "note", 
                            "channel": 0
                        }, 
                        {
                            "pitch": 59, 
                            "t0": 85000, 
                            "v": 86, 
                            "dur": 800.0, 
                            "type": "note", 
                            "channel": 0
                        }, 
                        {
                            "pitch": 71, 
                            "t0": 85000, 
                            "v": 11, 
                            "dur": 800.0, 
                            "type": "note", 
                            "channel": 0
                        }
                    ]
                ], 
                [
                    86000, 
                    [
                        {
                            "pitch": 24, 
                            "t0": 86000, 
                            "v": 32, 
                            "dur": 800.0, 
                            "type": "note", 
                            "channel": 0
                        }, 
                        {
                            "pitch": 36, 
                            "t0": 86000, 
                            "v": 99, 
                            "dur": 800.0, 
                            "type": "note", 
                            "channel": 0
                        }, 
                        {
                            "pitch": 48, 
                            "t0": 86000, 
                            "v": 119, 
                            "dur": 800.0, 
                            "type": "note", 
                            "channel": 0
                        }, 
                        {
                            "pitch": 60, 
                            "t0": 86000, 
                            "v": 81, 
                            "dur": 800.0, 
                            "type": "note", 
                            "channel": 0
                        }, 
                        {
                            "pitch": 72, 
                            "t0": 86000, 
                            "v": 4, 
                            "dur": 800.0, 
                            "type": "note", 
                            "channel": 0
                        }
                    ]
                ], 
                [
                    87000, 
                    [
                        {
                            "pitch": 25, 
                            "t0": 87000, 
                            "v": 39, 
                            "dur": 800.0, 
                            "type": "note", 
                            "channel": 0
                        }, 
                        {
                            "pitch": 37, 
                            "t0": 87000, 
                            "v": 103, 
                            "dur": 800.0, 
                            "type": "note", 
                            "channel": 0
                        }, 
                        {
                            "pitch": 49, 
                            "t0": 87000, 
                            "v": 118, 
                            "dur": 800.0, 
                            "type": "note", 
                            "channel": 0
                        }, 
                        {
                            "pitch": 61, 
                            "t0": 87000, 
                            "v": 76, 
                            "dur": 800.0, 
                            "type": "note", 
                            "channel": 0
                        }
                    ]
                ], 
                [
                    88000, 
                    [
                        {
                            "pitch": 26, 
                            "t0": 88000, 
                            "v": 45, 
                            "dur": 800.0, 
                            "type": "note", 
                            "channel": 0
                        }, 
                        {
                            "pitch": 38, 
                            "t0": 88000, 
                            "v": 106, 
                            "dur": 800.0, 
                            "type": "note", 
                            "channel": 0
                        }, 
                        {
                            "pitch": 50, 
                            "t0": 88000, 
                            "v": 116, 
                            "dur": 800.0, 
                            "type": "note", 
                            "channel": 0
                        }, 
                        {
                            "pitch": 62, 
                            "t0": 88000, 
                            "v": 70, 
                            "dur": 800.0, 
                            "type": "note", 
                            "channel": 0
                        }
                    ]
                ], 
                [
                    89000, 
                    [
                        {
                            "pitch": 27, 
                            "t0": 89000, 
                            "v": 52, 
                            "dur": 800.0, 
                            "type": "note", 
                            "channel": 0
                        }, 
                        {
                            "pitch": 39, 
                            "t0": 89000, 
                            "v": 109, 
                            "dur": 800.0, 
                            "type": "note", 
                            "channel": 0
                        }, 
                        {
                            "pitch": 51, 
                            "t0": 89000, 
                            "v": 114, 
                            "dur": 800.0, 
                            "type": "note", 
                            "channel": 0
                        }, 
                        {
                            "pitch": 63, 
                            "t0": 89000, 
                            "v": 64, 
                            "dur": 800.0, 
                            "type": "note", 
                            "channel": 0
                        }
                    ]
                ], 
                [
                    90000, 
                    [
                        {
                            "pitch": 28, 
                            "t0": 90000, 
                            "v": 58, 
                            "dur": 800.0, 
                            "type": "note", 
                            "channel": 0
                        }, 
                        {
                            "pitch": 40, 
                            "t0": 90000, 
                            "v": 112, 
                            "dur": 800.0, 
                            "type": "note", 
                            "channel": 0
                        }, 
                        {
                            "pitch": 52, 
                            "t0": 90000, 
                            "v": 112, 
                            "dur": 800.0, 
                            "type": "note", 
                            "channel": 0
                        }, 
                        {
                            "pitch": 64, 
                            "t0": 90000, 
                            "v": 58, 
                            "dur": 800.0, 
                            "type": "note", 
                            "channel": 0
                        }
                    ]
                ], 
                [
                    91000, 
                    [
                        {
                            "pitch": 29, 
                            "t0": 91000, 
                            "v": 64, 
                            "dur": 800.0, 
                            "type": "note", 
                            "channel": 0
                        }, 
                        {
                            "pitch": 41, 
                            "t0": 91000, 
                            "v": 114, 
                            "dur": 800.0, 
                            "type": "note", 
                            "channel": 0
                        }, 
                        {
                            "pitch": 53, 
                            "t0": 91000, 
                            "v": 109, 
                            "dur": 800.0, 
                            "type": "note", 
                            "channel": 0
                        }, 
                        {
                            "pitch": 65, 
                            "t0": 91000, 
                            "v": 52, 
                            "dur": 800.0, 
                            "type": "note", 
                            "channel": 0
                        }
                    ]
                ], 
                [
                    92000, 
                    [
                        {
                            "pitch": 30, 
                            "t0": 92000, 
                            "v": 70, 
                            "dur": 800.0, 
                            "type": "note", 
                            "channel": 0
                        }, 
                        {
                            "pitch": 42, 
                            "t0": 92000, 
                            "v": 116, 
                            "dur": 800.0, 
                            "type": "note", 
                            "channel": 0
                        }, 
                        {
                            "pitch": 54, 
                            "t0": 92000, 
                            "v": 106, 
                            "dur": 800.0, 
                            "type": "note", 
                            "channel": 0
                        }, 
                        {
                            "pitch": 66, 
                            "t0": 92000, 
                            "v": 45, 
                            "dur": 800.0, 
                            "type": "note", 
                            "channel": 0
                        }
                    ]
                ], 
                [
                    93000, 
                    [
                        {
                            "pitch": 31, 
                            "t0": 93000, 
                            "v": 76, 
                            "dur": 800.0, 
                            "type": "note", 
                            "channel": 0
                        }, 
                        {
                            "pitch": 43, 
                            "t0": 93000, 
                            "v": 118, 
                            "dur": 800.0, 
                            "type": "note", 
                            "channel": 0
                        }, 
                        {
                            "pitch": 55, 
                            "t0": 93000, 
                            "v": 103, 
                            "dur": 800.0, 
                            "type": "note", 
                            "channel": 0
                        }, 
                        {
                            "pitch": 67, 
                            "t0": 93000, 
                            "v": 39, 
                            "dur": 800.0, 
                            "type": "note", 
                            "channel": 0
                        }
                    ]
                ], 
                [
                    94000, 
                    [
                        {
                            "pitch": 32, 
                            "t0": 94000, 
                            "v": 81, 
                            "dur": 800.0, 
                            "type": "note", 
                            "channel": 0
                        }, 
                        {
                            "pitch": 44, 
                            "t0": 94000, 
                            "v": 119, 
                            "dur": 800.0, 
                            "type": "note", 
                            "channel": 0
                        }, 
                        {
                            "pitch": 56, 
                            "t0": 94000, 
                            "v": 99, 
                            "dur": 800.0, 
                            "type": "note", 
                            "channel": 0
                        }, 
                        {
                            "pitch": 68, 
                            "t0": 94000, 
                            "v": 32, 
                            "dur": 800.0, 
                            "type": "note", 
                            "channel": 0
                        }
                    ]
                ], 
                [
                    95000, 
                    [
                        {
                            "pitch": 33, 
                            "t0": 95000, 
                            "v": 86, 
                            "dur": 800.0, 
                            "type": "note", 
                            "channel": 0
                        }, 
                        {
                            "pitch": 45, 
                            "t0": 95000, 
                            "v": 119, 
                            "dur": 800.0, 
                            "type": "note", 
                            "channel": 0
                        }, 
                        {
                            "pitch": 57, 
                            "t0": 95000, 
                            "v": 95, 
                            "dur": 800.0, 
                            "type": "note", 
                            "channel": 0
                        }, 
                        {
                            "pitch": 69, 
                            "t0": 95000, 
                            "v": 25, 
                            "dur": 800.0, 
                            "type": "note", 
                            "channel": 0
                        }
                    ]
                ], 
                [
                    96000, 
                    [
                        {
                            "pitch": 22, 
                            "t0": 96000, 
                            "v": 18, 
                            "dur": 800.0, 
                            "type": "note", 
                            "channel": 0
                        }, 
                        {
                            "pitch": 34, 
                            "t0": 96000, 
                            "v": 91, 
                            "dur": 800.0, 
                            "type": "note", 
                            "channel": 0
                        }, 
                        {
                            "pitch": 46, 
                            "t0": 96000, 
                            "v": 120, 
                            "dur": 800.0, 
                            "type": "note", 
                            "channel": 0
                        }, 
                        {
                            "pitch": 58, 
                            "t0": 96000, 
                            "v": 91, 
                            "dur": 800.0, 
                            "type": "note", 
                            "channel": 0
                        }, 
                        {
                            "pitch": 70, 
                            "t0": 96000, 
                            "v": 18, 
                            "dur": 800.0, 
                            "type": "note", 
                            "channel": 0
                        }
                    ]
                ], 
                [
                    97000, 
                    [
                        {
                            "pitch": 23, 
                            "t0": 97000, 
                            "v": 25, 
                            "dur": 800.0, 
                            "type": "note", 
                            "channel": 0
                        }, 
                        {
                            "pitch": 35, 
                            "t0": 97000, 
                            "v": 95, 
                            "dur": 800.0, 
                            "type": "note", 
                            "channel": 0
                        }, 
                        {
                            "pitch": 47, 
                            "t0": 97000, 
                            "v": 119, 
                            "dur": 800.0, 
                            "type": "note", 
                            "channel": 0
                        }, 
                        {
                            "pitch": 59, 
                            "t0": 97000, 
                            "v": 86, 
                            "dur": 800.0, 
                            "type": "note", 
                            "channel": 0
                        }, 
                        {
                            "pitch": 71, 
                            "t0": 97000, 
                            "v": 11, 
                            "dur": 800.0, 
                            "type": "note", 
                            "channel": 0
                        }
                    ]
                ], 
                [
                    98000, 
                    [
                        {
                            "pitch": 24, 
                            "t0": 98000, 
                            "v": 32, 
                            "dur": 800.0, 
                            "type": "note", 
                            "channel": 0
                        }, 
                        {
                            "pitch": 36, 
                            "t0": 98000, 
                            "v": 99, 
                            "dur": 800.0, 
                            "type": "note", 
                            "channel": 0
                        }, 
                        {
                            "pitch": 48, 
                            "t0": 98000, 
                            "v": 119, 
                            "dur": 800.0, 
                            "type": "note", 
                            "channel": 0
                        }, 
                        {
                            "pitch": 60, 
                            "t0": 98000, 
                            "v": 81, 
                            "dur": 800.0, 
                            "type": "note", 
                            "channel": 0
                        }, 
                        {
                            "pitch": 72, 
                            "t0": 98000, 
                            "v": 4, 
                            "dur": 800.0, 
                            "type": "note", 
                            "channel": 0
                        }
                    ]
                ], 
                [
                    99000, 
                    [
                        {
                            "pitch": 25, 
                            "t0": 99000, 
                            "v": 39, 
                            "dur": 800.0, 
                            "type": "note", 
                            "channel": 0
                        }, 
                        {
                            "pitch": 37, 
                            "t0": 99000, 
                            "v": 103, 
                            "dur": 800.0, 
                            "type": "note", 
                            "channel": 0
                        }, 
                        {
                            "pitch": 49, 
                            "t0": 99000, 
                            "v": 118, 
                            "dur": 800.0, 
                            "type": "note", 
                            "channel": 0
                        }, 
                        {
                            "pitch": 61, 
                            "t0": 99000, 
                            "v": 76, 
                            "dur": 800.0, 
                            "type": "note", 
                            "channel": 0
                        }
                    ]
                ], 
                [
                    100000, 
                    [
                        {
                            "pitch": 26, 
                            "t0": 100000, 
                            "v": 45, 
                            "dur": 800.0, 
                            "type": "note", 
                            "channel": 0
                        }, 
                        {
                            "pitch": 38, 
                            "t0": 100000, 
                            "v": 106, 
                            "dur": 800.0, 
                            "type": "note", 
                            "channel": 0
                        }, 
                        {
                            "pitch": 50, 
                            "t0": 100000, 
                            "v": 116, 
                            "dur": 800.0, 
                            "type": "note", 
                            "channel": 0
                        }, 
                        {
                            "pitch": 62, 
                            "t0": 100000, 
                            "v": 70, 
                            "dur": 800.0, 
                            "type": "note", 
                            "channel": 0
                        }
                    ]
                ], 
                [
                    101000, 
                    [
                        {
                            "pitch": 27, 
                            "t0": 101000, 
                            "v": 52, 
                            "dur": 800.0, 
                            "type": "note", 
                            "channel": 0
                        }, 
                        {
                            "pitch": 39, 
                            "t0": 101000, 
                            "v": 109, 
                            "dur": 800.0, 
                            "type": "note", 
                            "channel": 0
                        }, 
                        {
                            "pitch": 51, 
                            "t0": 101000, 
                            "v": 114, 
                            "dur": 800.0, 
                            "type": "note", 
                            "channel": 0
                        }, 
                        {
                            "pitch": 63, 
                            "t0": 101000, 
                            "v": 64, 
                            "dur": 800.0, 
                            "type": "note", 
                            "channel": 0
                        }
                    ]
                ], 
                [
                    102000, 
                    [
                        {
                            "pitch": 28, 
                            "t0": 102000, 
                            "v": 58, 
                            "dur": 800.0, 
                            "type": "note", 
                            "channel": 0
                        }, 
                        {
                            "pitch": 40, 
                            "t0": 102000, 
                            "v": 112, 
                            "dur": 800.0, 
                            "type": "note", 
                            "channel": 0
                        }, 
                        {
                            "pitch": 52, 
                            "t0": 102000, 
                            "v": 112, 
                            "dur": 800.0, 
                            "type": "note", 
                            "channel": 0
                        }, 
                        {
                            "pitch": 64, 
                            "t0": 102000, 
                            "v": 58, 
                            "dur": 800.0, 
                            "type": "note", 
                            "channel": 0
                        }
                    ]
                ], 
                [
                    103000, 
                    [
                        {
                            "pitch": 29, 
                            "t0": 103000, 
                            "v": 64, 
                            "dur": 800.0, 
                            "type": "note", 
                            "channel": 0
                        }, 
                        {
                            "pitch": 41, 
                            "t0": 103000, 
                            "v": 114, 
                            "dur": 800.0, 
                            "type": "note", 
                            "channel": 0
                        }, 
                        {
                            "pitch": 53, 
                            "t0": 103000, 
                            "v": 109, 
                            "dur": 800.0, 
                            "type": "note", 
                            "channel": 0
                        }, 
                        {
                            "pitch": 65, 
                            "t0": 103000, 
                            "v": 52, 
                            "dur": 800.0, 
                            "type": "note", 
                            "channel": 0
                        }
                    ]
                ], 
                [
                    104000, 
                    [
                        {
                            "pitch": 30, 
                            "t0": 104000, 
                            "v": 70, 
                            "dur": 800.0, 
                            "type": "note", 
                            "channel": 0
                        }, 
                        {
                            "pitch": 42, 
                            "t0": 104000, 
                            "v": 116, 
                            "dur": 800.0, 
                            "type": "note", 
                            "channel": 0
                        }, 
                        {
                            "pitch": 54, 
                            "t0": 104000, 
                            "v": 106, 
                            "dur": 800.0, 
                            "type": "note", 
                            "channel": 0
                        }, 
                        {
                            "pitch": 66, 
                            "t0": 104000, 
                            "v": 45, 
                            "dur": 800.0, 
                            "type": "note", 
                            "channel": 0
                        }
                    ]
                ], 
                [
                    105000, 
                    [
                        {
                            "pitch": 31, 
                            "t0": 105000, 
                            "v": 76, 
                            "dur": 800.0, 
                            "type": "note", 
                            "channel": 0
                        }, 
                        {
                            "pitch": 43, 
                            "t0": 105000, 
                            "v": 118, 
                            "dur": 800.0, 
                            "type": "note", 
                            "channel": 0
                        }, 
                        {
                            "pitch": 55, 
                            "t0": 105000, 
                            "v": 103, 
                            "dur": 800.0, 
                            "type": "note", 
                            "channel": 0
                        }, 
                        {
                            "pitch": 67, 
                            "t0": 105000, 
                            "v": 39, 
                            "dur": 800.0, 
                            "type": "note", 
                            "channel": 0
                        }
                    ]
                ], 
                [
                    106000, 
                    [
                        {
                            "pitch": 32, 
                            "t0": 106000, 
                            "v": 81, 
                            "dur": 800.0, 
                            "type": "note", 
                            "channel": 0
                        }, 
                        {
                            "pitch": 44, 
                            "t0": 106000, 
                            "v": 119, 
                            "dur": 800.0, 
                            "type": "note", 
                            "channel": 0
                        }, 
                        {
                            "pitch": 56, 
                            "t0": 106000, 
                            "v": 99, 
                            "dur": 800.0, 
                            "type": "note", 
                            "channel": 0
                        }, 
                        {
                            "pitch": 68, 
                            "t0": 106000, 
                            "v": 32, 
                            "dur": 800.0, 
                            "type": "note", 
                            "channel": 0
                        }
                    ]
                ], 
                [
                    107000, 
                    [
                        {
                            "pitch": 33, 
                            "t0": 107000, 
                            "v": 86, 
                            "dur": 800.0, 
                            "type": "note", 
                            "channel": 0
                        }, 
                        {
                            "pitch": 45, 
                            "t0": 107000, 
                            "v": 119, 
                            "dur": 800.0, 
                            "type": "note", 
                            "channel": 0
                        }, 
                        {
                            "pitch": 57, 
                            "t0": 107000, 
                            "v": 95, 
                            "dur": 800.0, 
                            "type": "note", 
                            "channel": 0
                        }, 
                        {
                            "pitch": 69, 
                            "t0": 107000, 
                            "v": 25, 
                            "dur": 800.0, 
                            "type": "note", 
                            "channel": 0
                        }
                    ]
                ], 
                [
                    108000, 
                    [
                        {
                            "pitch": 22, 
                            "t0": 108000, 
                            "v": 18, 
                            "dur": 800.0, 
                            "type": "note", 
                            "channel": 0
                        }, 
                        {
                            "pitch": 34, 
                            "t0": 108000, 
                            "v": 91, 
                            "dur": 800.0, 
                            "type": "note", 
                            "channel": 0
                        }, 
                        {
                            "pitch": 46, 
                            "t0": 108000, 
                            "v": 120, 
                            "dur": 800.0, 
                            "type": "note", 
                            "channel": 0
                        }, 
                        {
                            "pitch": 58, 
                            "t0": 108000, 
                            "v": 91, 
                            "dur": 800.0, 
                            "type": "note", 
                            "channel": 0
                        }, 
                        {
                            "pitch": 70, 
                            "t0": 108000, 
                            "v": 18, 
                            "dur": 800.0, 
                            "type": "note", 
                            "channel": 0
                        }
                    ]
                ], 
                [
                    109000, 
                    [
                        {
                            "pitch": 23, 
                            "t0": 109000, 
                            "v": 25, 
                            "dur": 800.0, 
                            "type": "note", 
                            "channel": 0
                        }, 
                        {
                            "pitch": 35, 
                            "t0": 109000, 
                            "v": 95, 
                            "dur": 800.0, 
                            "type": "note", 
                            "channel": 0
                        }, 
                        {
                            "pitch": 47, 
                            "t0": 109000, 
                            "v": 119, 
                            "dur": 800.0, 
                            "type": "note", 
                            "channel": 0
                        }, 
                        {
                            "pitch": 59, 
                            "t0": 109000, 
                            "v": 86, 
                            "dur": 800.0, 
                            "type": "note", 
                            "channel": 0
                        }, 
                        {
                            "pitch": 71, 
                            "t0": 109000, 
                            "v": 11, 
                            "dur": 800.0, 
                            "type": "note", 
                            "channel": 0
                        }
                    ]
                ], 
                [
                    110000, 
                    [
                        {
                            "pitch": 24, 
                            "t0": 110000, 
                            "v": 32, 
                            "dur": 800.0, 
                            "type": "note", 
                            "channel": 0
                        }, 
                        {
                            "pitch": 36, 
                            "t0": 110000, 
                            "v": 99, 
                            "dur": 800.0, 
                            "type": "note", 
                            "channel": 0
                        }, 
                        {
                            "pitch": 48, 
                            "t0": 110000, 
                            "v": 119, 
                            "dur": 800.0, 
                            "type": "note", 
                            "channel": 0
                        }, 
                        {
                            "pitch": 60, 
                            "t0": 110000, 
                            "v": 81, 
                            "dur": 800.0, 
                            "type": "note", 
                            "channel": 0
                        }, 
                        {
                            "pitch": 72, 
                            "t0": 110000, 
                            "v": 4, 
                            "dur": 800.0, 
                            "type": "note", 
                            "channel": 0
                        }
                    ]
                ], 
                [
                    111000, 
                    [
                        {
                            "pitch": 25, 
                            "t0": 111000, 
                            "v": 39, 
                            "dur": 800.0, 
                            "type": "note", 
                            "channel": 0
                        }, 
                        {
                            "pitch": 37, 
                            "t0": 111000, 
                            "v": 103, 
                            "dur": 800.0, 
                            "type": "note", 
                            "channel": 0
                        }, 
                        {
                            "pitch": 49, 
                            "t0": 111000, 
                            "v": 118, 
                            "dur": 800.0, 
                            "type": "note", 
                            "channel": 0
                        }, 
                        {
                            "pitch": 61, 
                            "t0": 111000, 
                            "v": 76, 
                            "dur": 800.0, 
                            "type": "note", 
                            "channel": 0
                        }
                    ]
                ], 
                [
                    112000, 
                    [
                        {
                            "pitch": 26, 
                            "t0": 112000, 
                            "v": 45, 
                            "dur": 800.0, 
                            "type": "note", 
                            "channel": 0
                        }, 
                        {
                            "pitch": 38, 
                            "t0": 112000, 
                            "v": 106, 
                            "dur": 800.0, 
                            "type": "note", 
                            "channel": 0
                        }, 
                        {
                            "pitch": 50, 
                            "t0": 112000, 
                            "v": 116, 
                            "dur": 800.0, 
                            "type": "note", 
                            "channel": 0
                        }, 
                        {
                            "pitch": 62, 
                            "t0": 112000, 
                            "v": 70, 
                            "dur": 800.0, 
                            "type": "note", 
                            "channel": 0
                        }
                    ]
                ], 
                [
                    113000, 
                    [
                        {
                            "pitch": 27, 
                            "t0": 113000, 
                            "v": 52, 
                            "dur": 800.0, 
                            "type": "note", 
                            "channel": 0
                        }, 
                        {
                            "pitch": 39, 
                            "t0": 113000, 
                            "v": 109, 
                            "dur": 800.0, 
                            "type": "note", 
                            "channel": 0
                        }, 
                        {
                            "pitch": 51, 
                            "t0": 113000, 
                            "v": 114, 
                            "dur": 800.0, 
                            "type": "note", 
                            "channel": 0
                        }, 
                        {
                            "pitch": 63, 
                            "t0": 113000, 
                            "v": 64, 
                            "dur": 800.0, 
                            "type": "note", 
                            "channel": 0
                        }
                    ]
                ], 
                [
                    114000, 
                    [
                        {
                            "pitch": 28, 
                            "t0": 114000, 
                            "v": 58, 
                            "dur": 800.0, 
                            "type": "note", 
                            "channel": 0
                        }, 
                        {
                            "pitch": 40, 
                            "t0": 114000, 
                            "v": 112, 
                            "dur": 800.0, 
                            "type": "note", 
                            "channel": 0
                        }, 
                        {
                            "pitch": 52, 
                            "t0": 114000, 
                            "v": 112, 
                            "dur": 800.0, 
                            "type": "note", 
                            "channel": 0
                        }, 
                        {
                            "pitch": 64, 
                            "t0": 114000, 
                            "v": 58, 
                            "dur": 800.0, 
                            "type": "note", 
                            "channel": 0
                        }
                    ]
                ], 
                [
                    115000, 
                    [
                        {
                            "pitch": 29, 
                            "t0": 115000, 
                            "v": 64, 
                            "dur": 800.0, 
                            "type": "note", 
                            "channel": 0
                        }, 
                        {
                            "pitch": 41, 
                            "t0": 115000, 
                            "v": 114, 
                            "dur": 800.0, 
                            "type": "note", 
                            "channel": 0
                        }, 
                        {
                            "pitch": 53, 
                            "t0": 115000, 
                            "v": 109, 
                            "dur": 800.0, 
                            "type": "note", 
                            "channel": 0
                        }, 
                        {
                            "pitch": 65, 
                            "t0": 115000, 
                            "v": 52, 
                            "dur": 800.0, 
                            "type": "note", 
                            "channel": 0
                        }
                    ]
                ], 
                [
                    116000, 
                    [
                        {
                            "pitch": 30, 
                            "t0": 116000, 
                            "v": 70, 
                            "dur": 800.0, 
                            "type": "note", 
                            "channel": 0
                        }, 
                        {
                            "pitch": 42, 
                            "t0": 116000, 
                            "v": 116, 
                            "dur": 800.0, 
                            "type": "note", 
                            "channel": 0
                        }, 
                        {
                            "pitch": 54, 
                            "t0": 116000, 
                            "v": 106, 
                            "dur": 800.0, 
                            "type": "note", 
                            "channel": 0
                        }, 
                        {
                            "pitch": 66, 
                            "t0": 116000, 
                            "v": 45, 
                            "dur": 800.0, 
                            "type": "note", 
                            "channel": 0
                        }
                    ]
                ], 
                [
                    117000, 
                    [
                        {
                            "pitch": 31, 
                            "t0": 117000, 
                            "v": 76, 
                            "dur": 800.0, 
                            "type": "note", 
                            "channel": 0
                        }, 
                        {
                            "pitch": 43, 
                            "t0": 117000, 
                            "v": 118, 
                            "dur": 800.0, 
                            "type": "note", 
                            "channel": 0
                        }, 
                        {
                            "pitch": 55, 
                            "t0": 117000, 
                            "v": 103, 
                            "dur": 800.0, 
                            "type": "note", 
                            "channel": 0
                        }, 
                        {
                            "pitch": 67, 
                            "t0": 117000, 
                            "v": 39, 
                            "dur": 800.0, 
                            "type": "note", 
                            "channel": 0
                        }
                    ]
                ], 
                [
                    118000, 
                    [
                        {
                            "pitch": 32, 
                            "t0": 118000, 
                            "v": 81, 
                            "dur": 800.0, 
                            "type": "note", 
                            "channel": 0
                        }, 
                        {
                            "pitch": 44, 
                            "t0": 118000, 
                            "v": 119, 
                            "dur": 800.0, 
                            "type": "note", 
                            "channel": 0
                        }, 
                        {
                            "pitch": 56, 
                            "t0": 118000, 
                            "v": 99, 
                            "dur": 800.0, 
                            "type": "note", 
                            "channel": 0
                        }, 
                        {
                            "pitch": 68, 
                            "t0": 118000, 
                            "v": 32, 
                            "dur": 800.0, 
                            "type": "note", 
                            "channel": 0
                        }
                    ]
                ], 
                [
                    119000, 
                    [
                        {
                            "pitch": 33, 
                            "t0": 119000, 
                            "v": 86, 
                            "dur": 800.0, 
                            "type": "note", 
                            "channel": 0
                        }, 
                        {
                            "pitch": 45, 
                            "t0": 119000, 
                            "v": 119, 
                            "dur": 800.0, 
                            "type": "note", 
                            "channel": 0
                        }, 
                        {
                            "pitch": 57, 
                            "t0": 119000, 
                            "v": 95, 
                            "dur": 800.0, 
                            "type": "note", 
                            "channel": 0
                        }, 
                        {
                            "pitch": 69, 
                            "t0": 119000, 
                            "v": 25, 
                            "dur": 800.0, 
                            "type": "note", 
                            "channel": 0
                        }
                    ]
                ], 
                [
                    120000, 
                    [
                        {
                            "pitch": 22, 
                            "t0": 120000, 
                            "v": 18, 
                            "dur": 800.0, 
                            "type": "note", 
                            "channel": 0
                        }, 
                        {
                            "pitch": 34, 
                            "t0": 120000, 
                            "v": 91, 
                            "dur": 800.0, 
                            "type": "note", 
                            "channel": 0
                        }, 
                        {
                            "pitch": 46, 
                            "t0": 120000, 
                            "v": 120, 
                            "dur": 800.0, 
                            "type": "note", 
                            "channel": 0
                        }, 
                        {
                            "pitch": 58, 
                            "t0": 120000, 
                            "v": 91, 
                            "dur": 800.0, 
                            "type": "note", 
                            "channel": 0
                        }, 
                        {
                            "pitch": 70, 
                            "t0": 120000, 
                            "v": 18, 
                            "dur": 800.0, 
                            "type": "note", 
                            "channel": 0
                        }
                    ]
                ], 
                [
                    121000, 
                    [
                        {
                            "pitch": 23, 
                            "t0": 121000, 
                            "v": 25, 
                            "dur": 800.0, 
                            "type": "note", 
                            "channel": 0
                        }, 
                        {
                            "pitch": 35, 
                            "t0": 121000, 
                            "v": 95, 
                            "dur": 800.0, 
                            "type": "note", 
                            "channel": 0
                        }, 
                        {
                            "pitch": 47, 
                            "t0": 121000, 
                            "v": 119, 
                            "dur": 800.0, 
                            "type": "note", 
                            "channel": 0
                        }, 
                        {
                            "pitch": 59, 
                            "t0": 121000, 
                            "v": 86, 
                            "dur": 800.0, 
                            "type": "note", 
                            "channel": 0
                        }, 
                        {
                            "pitch": 71, 
                            "t0": 121000, 
                            "v": 11, 
                            "dur": 800.0, 
                            "type": "note", 
                            "channel": 0
                        }
                    ]
                ], 
                [
                    122000, 
                    [
                        {
                            "pitch": 24, 
                            "t0": 122000, 
                            "v": 32, 
                            "dur": 800.0, 
                            "type": "note", 
                            "channel": 0
                        }, 
                        {
                            "pitch": 36, 
                            "t0": 122000, 
                            "v": 99, 
                            "dur": 800.0, 
                            "type": "note", 
                            "channel": 0
                        }, 
                        {
                            "pitch": 48, 
                            "t0": 122000, 
                            "v": 119, 
                            "dur": 800.0, 
                            "type": "note", 
                            "channel": 0
                        }, 
                        {
                            "pitch": 60, 
                            "t0": 122000, 
                            "v": 81, 
                            "dur": 800.0, 
                            "type": "note", 
                            "channel": 0
                        }, 
                        {
                            "pitch": 72, 
                            "t0": 122000, 
                            "v": 4, 
                            "dur": 800.0, 
                            "type": "note", 
                            "channel": 0
                        }
                    ]
                ], 
                [
                    123000, 
                    [
                        {
                            "pitch": 25, 
                            "t0": 123000, 
                            "v": 39, 
                            "dur": 800.0, 
                            "type": "note", 
                            "channel": 0
                        }, 
                        {
                            "pitch": 37, 
                            "t0": 123000, 
                            "v": 103, 
                            "dur": 800.0, 
                            "type": "note", 
                            "channel": 0
                        }, 
                        {
                            "pitch": 49, 
                            "t0": 123000, 
                            "v": 118, 
                            "dur": 800.0, 
                            "type": "note", 
                            "channel": 0
                        }, 
                        {
                            "pitch": 61, 
                            "t0": 123000, 
                            "v": 76, 
                            "dur": 800.0, 
                            "type": "note", 
                            "channel": 0
                        }
                    ]
                ], 
                [
                    124000, 
                    [
                        {
                            "pitch": 26, 
                            "t0": 124000, 
                            "v": 45, 
                            "dur": 800.0, 
                            "type": "note", 
                            "channel": 0
                        }, 
                        {
                            "pitch": 38, 
                            "t0": 124000, 
                            "v": 106, 
                            "dur": 800.0, 
                            "type": "note", 
                            "channel": 0
                        }, 
                        {
                            "pitch": 50, 
                            "t0": 124000, 
                            "v": 116, 
                            "dur": 800.0, 
                            "type": "note", 
                            "channel": 0
                        }, 
                        {
                            "pitch": 62, 
                            "t0": 124000, 
                            "v": 70, 
                            "dur": 800.0, 
                            "type": "note", 
                            "channel": 0
                        }
                    ]
                ], 
                [
                    125000, 
                    [
                        {
                            "pitch": 27, 
                            "t0": 125000, 
                            "v": 52, 
                            "dur": 800.0, 
                            "type": "note", 
                            "channel": 0
                        }, 
                        {
                            "pitch": 39, 
                            "t0": 125000, 
                            "v": 109, 
                            "dur": 800.0, 
                            "type": "note", 
                            "channel": 0
                        }, 
                        {
                            "pitch": 51, 
                            "t0": 125000, 
                            "v": 114, 
                            "dur": 800.0, 
                            "type": "note", 
                            "channel": 0
                        }, 
                        {
                            "pitch": 63, 
                            "t0": 125000, 
                            "v": 64, 
                            "dur": 800.0, 
                            "type": "note", 
                            "channel": 0
                        }
                    ]
                ], 
                [
                    126000, 
                    [
                        {
                            "pitch": 28, 
                            "t0": 126000, 
                            "v": 58, 
                            "dur": 800.0, 
                            "type": "note", 
                            "channel": 0
                        }, 
                        {
                            "pitch": 40, 
                            "t0": 126000, 
                            "v": 112, 
                            "dur": 800.0, 
                            "type": "note", 
                            "channel": 0
                        }, 
                        {
                            "pitch": 52, 
                            "t0": 126000, 
                            "v": 112, 
                            "dur": 800.0, 
                            "type": "note", 
                            "channel": 0
                        }, 
                        {
                            "pitch": 64, 
                            "t0": 126000, 
                            "v": 58, 
                            "dur": 800.0, 
                            "type": "note", 
                            "channel": 0
                        }
                    ]
                ], 
                [
                    127000, 
                    [
                        {
                            "pitch": 29, 
                            "t0": 127000, 
                            "v": 64, 
                            "dur": 800.0, 
                            "type": "note", 
                            "channel": 0
                        }, 
                        {
                            "pitch": 41, 
                            "t0": 127000, 
                            "v": 114, 
                            "dur": 800.0, 
                            "type": "note", 
                            "channel": 0
                        }, 
                        {
                            "pitch": 53, 
                            "t0": 127000, 
                            "v": 109, 
                            "dur": 800.0, 
                            "type": "note", 
                            "channel": 0
                        }, 
                        {
                            "pitch": 65, 
                            "t0": 127000, 
                            "v": 52, 
                            "dur": 800.0, 
                            "type": "note", 
                            "channel": 0
                        }
                    ]
                ], 
                [
                    128000, 
                    [
                        {
                            "pitch": 30, 
                            "t0": 128000, 
                            "v": 70, 
                            "dur": 800.0, 
                            "type": "note", 
                            "channel": 0
                        }, 
                        {
                            "pitch": 42, 
                            "t0": 128000, 
                            "v": 116, 
                            "dur": 800.0, 
                            "type": "note", 
                            "channel": 0
                        }, 
                        {
                            "pitch": 54, 
                            "t0": 128000, 
                            "v": 106, 
                            "dur": 800.0, 
                            "type": "note", 
                            "channel": 0
                        }, 
                        {
                            "pitch": 66, 
                            "t0": 128000, 
                            "v": 45, 
                            "dur": 800.0, 
                            "type": "note", 
                            "channel": 0
                        }
                    ]
                ], 
                [
                    129000, 
                    [
                        {
                            "pitch": 31, 
                            "t0": 129000, 
                            "v": 76, 
                            "dur": 800.0, 
                            "type": "note", 
                            "channel": 0
                        }, 
                        {
                            "pitch": 43, 
                            "t0": 129000, 
                            "v": 118, 
                            "dur": 800.0, 
                            "type": "note", 
                            "channel": 0
                        }, 
                        {
                            "pitch": 55, 
                            "t0": 129000, 
                            "v": 103, 
                            "dur": 800.0, 
                            "type": "note", 
                            "channel": 0
                        }, 
                        {
                            "pitch": 67, 
                            "t0": 129000, 
                            "v": 39, 
                            "dur": 800.0, 
                            "type": "note", 
                            "channel": 0
                        }
                    ]
                ], 
                [
                    130000, 
                    [
                        {
                            "pitch": 32, 
                            "t0": 130000, 
                            "v": 81, 
                            "dur": 800.0, 
                            "type": "note", 
                            "channel": 0
                        }, 
                        {
                            "pitch": 44, 
                            "t0": 130000, 
                            "v": 119, 
                            "dur": 800.0, 
                            "type": "note", 
                            "channel": 0
                        }, 
                        {
                            "pitch": 56, 
                            "t0": 130000, 
                            "v": 99, 
                            "dur": 800.0, 
                            "type": "note", 
                            "channel": 0
                        }, 
                        {
                            "pitch": 68, 
                            "t0": 130000, 
                            "v": 32, 
                            "dur": 800.0, 
                            "type": "note", 
                            "channel": 0
                        }
                    ]
                ], 
                [
                    131000, 
                    [
                        {
                            "pitch": 33, 
                            "t0": 131000, 
                            "v": 86, 
                            "dur": 800.0, 
                            "type": "note", 
                            "channel": 0
                        }, 
                        {
                            "pitch": 45, 
                            "t0": 131000, 
                            "v": 119, 
                            "dur": 800.0, 
                            "type": "note", 
                            "channel": 0
                        }, 
                        {
                            "pitch": 57, 
                            "t0": 131000, 
                            "v": 95, 
                            "dur": 800.0, 
                            "type": "note", 
                            "channel": 0
                        }, 
                        {
                            "pitch": 69, 
                            "t0": 131000, 
                            "v": 25, 
                            "dur": 800.0, 
                            "type": "note", 
                            "channel": 0
                        }
                    ]
                ], 
                [
                    132000, 
                    [
                        {
                            "pitch": 22, 
                            "t0": 132000, 
                            "v": 18, 
                            "dur": 800.0, 
                            "type": "note", 
                            "channel": 0
                        }, 
                        {
                            "pitch": 34, 
                            "t0": 132000, 
                            "v": 91, 
                            "dur": 800.0, 
                            "type": "note", 
                            "channel": 0
                        }, 
                        {
                            "pitch": 46, 
                            "t0": 132000, 
                            "v": 120, 
                            "dur": 800.0, 
                            "type": "note", 
                            "channel": 0
                        }, 
                        {
                            "pitch": 58, 
                            "t0": 132000, 
                            "v": 91, 
                            "dur": 800.0, 
                            "type": "note", 
                            "channel": 0
                        }, 
                        {
                            "pitch": 70, 
                            "t0": 132000, 
                            "v": 18, 
                            "dur": 800.0, 
                            "type": "note", 
                            "channel": 0
                        }
                    ]
                ], 
                [
                    133000, 
                    [
                        {
                            "pitch": 23, 
                            "t0": 133000, 
                            "v": 25, 
                            "dur": 800.0, 
                            "type": "note", 
                            "channel": 0
                        }, 
                        {
                            "pitch": 35, 
                            "t0": 133000, 
                            "v": 95, 
                            "dur": 800.0, 
                            "type": "note", 
                            "channel": 0
                        }, 
                        {
                            "pitch": 47, 
                            "t0": 133000, 
                            "v": 119, 
                            "dur": 800.0, 
                            "type": "note", 
                            "channel": 0
                        }, 
                        {
                            "pitch": 59, 
                            "t0": 133000, 
                            "v": 86, 
                            "dur": 800.0, 
                            "type": "note", 
                            "channel": 0
                        }, 
                        {
                            "pitch": 71, 
                            "t0": 133000, 
                            "v": 11, 
                            "dur": 800.0, 
                            "type": "note", 
                            "channel": 0
                        }
                    ]
                ], 
                [
                    134000, 
                    [
                        {
                            "pitch": 24, 
                            "t0": 134000, 
                            "v": 32, 
                            "dur": 800.0, 
                            "type": "note", 
                            "channel": 0
                        }, 
                        {
                            "pitch": 36, 
                            "t0": 134000, 
                            "v": 99, 
                            "dur": 800.0, 
                            "type": "note", 
                            "channel": 0
                        }, 
                        {
                            "pitch": 48, 
                            "t0": 134000, 
                            "v": 119, 
                            "dur": 800.0, 
                            "type": "note", 
                            "channel": 0
                        }, 
                        {
                            "pitch": 60, 
                            "t0": 134000, 
                            "v": 81, 
                            "dur": 800.0, 
                            "type": "note", 
                            "channel": 0
                        }, 
                        {
                            "pitch": 72, 
                            "t0": 134000, 
                            "v": 4, 
                            "dur": 800.0, 
                            "type": "note", 
                            "channel": 0
                        }
                    ]
                ], 
                [
                    135000, 
                    [
                        {
                            "pitch": 25, 
                            "t0": 135000, 
                            "v": 39, 
                            "dur": 800.0, 
                            "type": "note", 
                            "channel": 0
                        }, 
                        {
                            "pitch": 37, 
                            "t0": 135000, 
                            "v": 103, 
                            "dur": 800.0, 
                            "type": "note", 
                            "channel": 0
                        }, 
                        {
                            "pitch": 49, 
                            "t0": 135000, 
                            "v": 118, 
                            "dur": 800.0, 
                            "type": "note", 
                            "channel": 0
                        }, 
                        {
                            "pitch": 61, 
                            "t0": 135000, 
                            "v": 76, 
                            "dur": 800.0, 
                            "type": "note", 
                            "channel": 0
                        }
                    ]
                ], 
                [
                    136000, 
                    [
                        {
                            "pitch": 26, 
                            "t0": 136000, 
                            "v": 45, 
                            "dur": 800.0, 
                            "type": "note", 
                            "channel": 0
                        }, 
                        {
                            "pitch": 38, 
                            "t0": 136000, 
                            "v": 106, 
                            "dur": 800.0, 
                            "type": "note", 
                            "channel": 0
                        }, 
                        {
                            "pitch": 50, 
                            "t0": 136000, 
                            "v": 116, 
                            "dur": 800.0, 
                            "type": "note", 
                            "channel": 0
                        }, 
                        {
                            "pitch": 62, 
                            "t0": 136000, 
                            "v": 70, 
                            "dur": 800.0, 
                            "type": "note", 
                            "channel": 0
                        }
                    ]
                ], 
                [
                    137000, 
                    [
                        {
                            "pitch": 27, 
                            "t0": 137000, 
                            "v": 52, 
                            "dur": 800.0, 
                            "type": "note", 
                            "channel": 0
                        }, 
                        {
                            "pitch": 39, 
                            "t0": 137000, 
                            "v": 109, 
                            "dur": 800.0, 
                            "type": "note", 
                            "channel": 0
                        }, 
                        {
                            "pitch": 51, 
                            "t0": 137000, 
                            "v": 114, 
                            "dur": 800.0, 
                            "type": "note", 
                            "channel": 0
                        }, 
                        {
                            "pitch": 63, 
                            "t0": 137000, 
                            "v": 64, 
                            "dur": 800.0, 
                            "type": "note", 
                            "channel": 0
                        }
                    ]
                ], 
                [
                    138000, 
                    [
                        {
                            "pitch": 28, 
                            "t0": 138000, 
                            "v": 58, 
                            "dur": 800.0, 
                            "type": "note", 
                            "channel": 0
                        }, 
                        {
                            "pitch": 40, 
                            "t0": 138000, 
                            "v": 112, 
                            "dur": 800.0, 
                            "type": "note", 
                            "channel": 0
                        }, 
                        {
                            "pitch": 52, 
                            "t0": 138000, 
                            "v": 112, 
                            "dur": 800.0, 
                            "type": "note", 
                            "channel": 0
                        }, 
                        {
                            "pitch": 64, 
                            "t0": 138000, 
                            "v": 58, 
                            "dur": 800.0, 
                            "type": "note", 
                            "channel": 0
                        }
                    ]
                ], 
                [
                    139000, 
                    [
                        {
                            "pitch": 29, 
                            "t0": 139000, 
                            "v": 64, 
                            "dur": 800.0, 
                            "type": "note", 
                            "channel": 0
                        }, 
                        {
                            "pitch": 41, 
                            "t0": 139000, 
                            "v": 114, 
                            "dur": 800.0, 
                            "type": "note", 
                            "channel": 0
                        }, 
                        {
                            "pitch": 53, 
                            "t0": 139000, 
                            "v": 109, 
                            "dur": 800.0, 
                            "type": "note", 
                            "channel": 0
                        }, 
                        {
                            "pitch": 65, 
                            "t0": 139000, 
                            "v": 52, 
                            "dur": 800.0, 
                            "type": "note", 
                            "channel": 0
                        }
                    ]
                ], 
                [
                    140000, 
                    [
                        {
                            "pitch": 30, 
                            "t0": 140000, 
                            "v": 70, 
                            "dur": 800.0, 
                            "type": "note", 
                            "channel": 0
                        }, 
                        {
                            "pitch": 42, 
                            "t0": 140000, 
                            "v": 116, 
                            "dur": 800.0, 
                            "type": "note", 
                            "channel": 0
                        }, 
                        {
                            "pitch": 54, 
                            "t0": 140000, 
                            "v": 106, 
                            "dur": 800.0, 
                            "type": "note", 
                            "channel": 0
                        }, 
                        {
                            "pitch": 66, 
                            "t0": 140000, 
                            "v": 45, 
                            "dur": 800.0, 
                            "type": "note", 
                            "channel": 0
                        }
                    ]
                ], 
                [
                    141000, 
                    [
                        {
                            "pitch": 31, 
                            "t0": 141000, 
                            "v": 76, 
                            "dur": 800.0, 
                            "type": "note", 
                            "channel": 0
                        }, 
                        {
                            "pitch": 43, 
                            "t0": 141000, 
                            "v": 118, 
                            "dur": 800.0, 
                            "type": "note", 
                            "channel": 0
                        }, 
                        {
                            "pitch": 55, 
                            "t0": 141000, 
                            "v": 103, 
                            "dur": 800.0, 
                            "type": "note", 
                            "channel": 0
                        }, 
                        {
                            "pitch": 67, 
                            "t0": 141000, 
                            "v": 39, 
                            "dur": 800.0, 
                            "type": "note", 
                            "channel": 0
                        }
                    ]
                ], 
                [
                    142000, 
                    [
                        {
                            "pitch": 32, 
                            "t0": 142000, 
                            "v": 81, 
                            "dur": 800.0, 
                            "type": "note", 
                            "channel": 0
                        }, 
                        {
                            "pitch": 44, 
                            "t0": 142000, 
                            "v": 119, 
                            "dur": 800.0, 
                            "type": "note", 
                            "channel": 0
                        }, 
                        {
                            "pitch": 56, 
                            "t0": 142000, 
                            "v": 99, 
                            "dur": 800.0, 
                            "type": "note", 
                            "channel": 0
                        }, 
                        {
                            "pitch": 68, 
                            "t0": 142000, 
                            "v": 32, 
                            "dur": 800.0, 
                            "type": "note", 
                            "channel": 0
                        }
                    ]
                ], 
                [
                    143000, 
                    [
                        {
                            "pitch": 33, 
                            "t0": 143000, 
                            "v": 86, 
                            "dur": 800.0, 
                            "type": "note", 
                            "channel": 0
                        }, 
                        {
                            "pitch": 45, 
                            "t0": 143000, 
                            "v": 119, 
                            "dur": 800.0, 
                            "type": "note", 
                            "channel": 0
                        }, 
                        {
                            "pitch": 57, 
                            "t0": 143000, 
                            "v": 95, 
                            "dur": 800.0, 
                            "type": "note", 
                            "channel": 0
                        }, 
                        {
                            "pitch": 69, 
                            "t0": 143000, 
                            "v": 25, 
                            "dur": 800.0, 
                            "type": "note", 
                            "channel": 0
                        }
                    ]
                ], 
                [
                    144000, 
                    [
                        {
                            "pitch": 22, 
                            "t0": 144000, 
                            "v": 18, 
                            "dur": 800.0, 
                            "type": "note", 
                            "channel": 0
                        }, 
                        {
                            "pitch": 34, 
                            "t0": 144000, 
                            "v": 91, 
                            "dur": 800.0, 
                            "type": "note", 
                            "channel": 0
                        }, 
                        {
                            "pitch": 46, 
                            "t0": 144000, 
                            "v": 120, 
                            "dur": 800.0, 
                            "type": "note", 
                            "channel": 0
                        }, 
                        {
                            "pitch": 58, 
                            "t0": 144000, 
                            "v": 91, 
                            "dur": 800.0, 
                            "type": "note", 
                            "channel": 0
                        }, 
                        {
                            "pitch": 70, 
                            "t0": 144000, 
                            "v": 18, 
                            "dur": 800.0, 
                            "type": "note", 
                            "channel": 0
                        }
                    ]
                ], 
                [
                    145000, 
                    [
                        {
                            "pitch": 23, 
                            "t0": 145000, 
                            "v": 25, 
                            "dur": 800.0, 
                            "type": "note", 
                            "channel": 0
                        }, 
                        {
                            "pitch": 35, 
                            "t0": 145000, 
                            "v": 95, 
                            "dur": 800.0, 
                            "type": "note", 
                            "channel": 0
                        }, 
                        {
                            "pitch": 47, 
                            "t0": 145000, 
                            "v": 119, 
                            "dur": 800.0, 
                            "type": "note", 
                            "channel": 0
                        }, 
                        {
                            "pitch": 59, 
                            "t0": 145000, 
                            "v": 86, 
                            "dur": 800.0, 
                            "type": "note", 
                            "channel": 0
                        }, 
                        {
                            "pitch": 71, 
                            "t0": 145000, 
                            "v": 11, 
                            "dur": 800.0, 
                            "type": "note", 
                            "channel": 0
                        }
                    ]
                ], 
                [
                    146000, 
                    [
                        {
                            "pitch": 24, 
                            "t0": 146000, 
                            "v": 32, 
                            "dur": 800.0, 
                            "type": "note", 
                            "channel": 0
                        }, 
                        {
                            "pitch": 36, 
                            "t0": 146000, 
                            "v": 99, 
                            "dur": 800.0, 
                            "type": "note", 
                            "channel": 0
                        }, 
                        {
                            "pitch": 48, 
                            "t0": 146000, 
                            "v": 119, 
                            "dur": 800.0, 
                            "type": "note", 
                            "channel": 0
                        }, 
                        {
                            "pitch": 60, 
                            "t0": 146000, 
                            "v": 81, 
                            "dur": 800.0, 
                            "type": "note", 
                            "channel": 0
                        }, 
                        {
                            "pitch": 72, 
                            "t0": 146000, 
                            "v": 4, 
                            "dur": 800.0, 
                            "type": "note", 
                            "channel": 0
                        }
                    ]
                ], 
                [
                    147000, 
                    [
                        {
                            "pitch": 25, 
                            "t0": 147000, 
                            "v": 39, 
                            "dur": 800.0, 
                            "type": "note", 
                            "channel": 0
                        }, 
                        {
                            "pitch": 37, 
                            "t0": 147000, 
                            "v": 103, 
                            "dur": 800.0, 
                            "type": "note", 
                            "channel": 0
                        }, 
                        {
                            "pitch": 49, 
                            "t0": 147000, 
                            "v": 118, 
                            "dur": 800.0, 
                            "type": "note", 
                            "channel": 0
                        }, 
                        {
                            "pitch": 61, 
                            "t0": 147000, 
                            "v": 76, 
                            "dur": 800.0, 
                            "type": "note", 
                            "channel": 0
                        }
                    ]
                ], 
                [
                    148000, 
                    [
                        {
                            "pitch": 26, 
                            "t0": 148000, 
                            "v": 45, 
                            "dur": 800.0, 
                            "type": "note", 
                            "channel": 0
                        }, 
                        {
                            "pitch": 38, 
                            "t0": 148000, 
                            "v": 106, 
                            "dur": 800.0, 
                            "type": "note", 
                            "channel": 0
                        }, 
                        {
                            "pitch": 50, 
                            "t0": 148000, 
                            "v": 116, 
                            "dur": 800.0, 
                            "type": "note", 
                            "channel": 0
                        }, 
                        {
                            "pitch": 62, 
                            "t0": 148000, 
                            "v": 70, 
                            "dur": 800.0, 
                            "type": "note", 
                            "channel": 0
                        }
                    ]
                ], 
                [
                    149000, 
                    [
                        {
                            "pitch": 27, 
                            "t0": 149000, 
                            "v": 52, 
                            "dur": 800.0, 
                            "type": "note", 
                            "channel": 0
                        }, 
                        {
                            "pitch": 39, 
                            "t0": 149000, 
                            "v": 109, 
                            "dur": 800.0, 
                            "type": "note", 
                            "channel": 0
                        }, 
                        {
                            "pitch": 51, 
                            "t0": 149000, 
                            "v": 114, 
                            "dur": 800.0, 
                            "type": "note", 
                            "channel": 0
                        }, 
                        {
                            "pitch": 63, 
                            "t0": 149000, 
                            "v": 64, 
                            "dur": 800.0, 
                            "type": "note", 
                            "channel": 0
                        }
                    ]
                ], 
                [
                    150000, 
                    [
                        {
                            "pitch": 28, 
                            "t0": 150000, 
                            "v": 58, 
                            "dur": 800.0, 
                            "type": "note", 
                            "channel": 0
                        }, 
                        {
                            "pitch": 40, 
                            "t0": 150000, 
                            "v": 112, 
                            "dur": 800.0, 
                            "type": "note", 
                            "channel": 0
                        }, 
                        {
                            "pitch": 52, 
                            "t0": 150000, 
                            "v": 112, 
                            "dur": 800.0, 
                            "type": "note", 
                            "channel": 0
                        }, 
                        {
                            "pitch": 64, 
                            "t0": 150000, 
                            "v": 58, 
                            "dur": 800.0, 
                            "type": "note", 
                            "channel": 0
                        }
                    ]
                ], 
                [
                    151000, 
                    [
                        {
                            "pitch": 29, 
                            "t0": 151000, 
                            "v": 64, 
                            "dur": 800.0, 
                            "type": "note", 
                            "channel": 0
                        }, 
                        {
                            "pitch": 41, 
                            "t0": 151000, 
                            "v": 114, 
                            "dur": 800.0, 
                            "type": "note", 
                            "channel": 0
                        }, 
                        {
                            "pitch": 53, 
                            "t0": 151000, 
                            "v": 109, 
                            "dur": 800.0, 
                            "type": "note", 
                            "channel": 0
                        }, 
                        {
                            "pitch": 65, 
                            "t0": 151000, 
                            "v": 52, 
                            "dur": 800.0, 
                            "type": "note", 
                            "channel": 0
                        }
                    ]
                ], 
                [
                    152000, 
                    [
                        {
                            "pitch": 30, 
                            "t0": 152000, 
                            "v": 70, 
                            "dur": 800.0, 
                            "type": "note", 
                            "channel": 0
                        }, 
                        {
                            "pitch": 42, 
                            "t0": 152000, 
                            "v": 116, 
                            "dur": 800.0, 
                            "type": "note", 
                            "channel": 0
                        }, 
                        {
                            "pitch": 54, 
                            "t0": 152000, 
                            "v": 106, 
                            "dur": 800.0, 
                            "type": "note", 
                            "channel": 0
                        }, 
                        {
                            "pitch": 66, 
                            "t0": 152000, 
                            "v": 45, 
                            "dur": 800.0, 
                            "type": "note", 
                            "channel": 0
                        }
                    ]
                ], 
                [
                    153000, 
                    [
                        {
                            "pitch": 31, 
                            "t0": 153000, 
                            "v": 76, 
                            "dur": 800.0, 
                            "type": "note", 
                            "channel": 0
                        }, 
                        {
                            "pitch": 43, 
                            "t0": 153000, 
                            "v": 118, 
                            "dur": 800.0, 
                            "type": "note", 
                            "channel": 0
                        }, 
                        {
                            "pitch": 55, 
                            "t0": 153000, 
                            "v": 103, 
                            "dur": 800.0, 
                            "type": "note", 
                            "channel": 0
                        }, 
                        {
                            "pitch": 67, 
                            "t0": 153000, 
                            "v": 39, 
                            "dur": 800.0, 
                            "type": "note", 
                            "channel": 0
                        }
                    ]
                ], 
                [
                    154000, 
                    [
                        {
                            "pitch": 32, 
                            "t0": 154000, 
                            "v": 81, 
                            "dur": 800.0, 
                            "type": "note", 
                            "channel": 0
                        }, 
                        {
                            "pitch": 44, 
                            "t0": 154000, 
                            "v": 119, 
                            "dur": 800.0, 
                            "type": "note", 
                            "channel": 0
                        }, 
                        {
                            "pitch": 56, 
                            "t0": 154000, 
                            "v": 99, 
                            "dur": 800.0, 
                            "type": "note", 
                            "channel": 0
                        }, 
                        {
                            "pitch": 68, 
                            "t0": 154000, 
                            "v": 32, 
                            "dur": 800.0, 
                            "type": "note", 
                            "channel": 0
                        }
                    ]
                ], 
                [
                    155000, 
                    [
                        {
                            "pitch": 33, 
                            "t0": 155000, 
                            "v": 86, 
                            "dur": 800.0, 
                            "type": "note", 
                            "channel": 0
                        }, 
                        {
                            "pitch": 45, 
                            "t0": 155000, 
                            "v": 119, 
                            "dur": 800.0, 
                            "type": "note", 
                            "channel": 0
                        }, 
                        {
                            "pitch": 57, 
                            "t0": 155000, 
                            "v": 95, 
                            "dur": 800.0, 
                            "type": "note", 
                            "channel": 0
                        }, 
                        {
                            "pitch": 69, 
                            "t0": 155000, 
                            "v": 25, 
                            "dur": 800.0, 
                            "type": "note", 
                            "channel": 0
                        }
                    ]
                ], 
                [
                    156000, 
                    [
                        {
                            "pitch": 22, 
                            "t0": 156000, 
                            "v": 18, 
                            "dur": 800.0, 
                            "type": "note", 
                            "channel": 0
                        }, 
                        {
                            "pitch": 34, 
                            "t0": 156000, 
                            "v": 91, 
                            "dur": 800.0, 
                            "type": "note", 
                            "channel": 0
                        }, 
                        {
                            "pitch": 46, 
                            "t0": 156000, 
                            "v": 120, 
                            "dur": 800.0, 
                            "type": "note", 
                            "channel": 0
                        }, 
                        {
                            "pitch": 58, 
                            "t0": 156000, 
                            "v": 91, 
                            "dur": 800.0, 
                            "type": "note", 
                            "channel": 0
                        }, 
                        {
                            "pitch": 70, 
                            "t0": 156000, 
                            "v": 18, 
                            "dur": 800.0, 
                            "type": "note", 
                            "channel": 0
                        }
                    ]
                ], 
                [
                    157000, 
                    [
                        {
                            "pitch": 23, 
                            "t0": 157000, 
                            "v": 25, 
                            "dur": 800.0, 
                            "type": "note", 
                            "channel": 0
                        }, 
                        {
                            "pitch": 35, 
                            "t0": 157000, 
                            "v": 95, 
                            "dur": 800.0, 
                            "type": "note", 
                            "channel": 0
                        }, 
                        {
                            "pitch": 47, 
                            "t0": 157000, 
                            "v": 119, 
                            "dur": 800.0, 
                            "type": "note", 
                            "channel": 0
                        }, 
                        {
                            "pitch": 59, 
                            "t0": 157000, 
                            "v": 86, 
                            "dur": 800.0, 
                            "type": "note", 
                            "channel": 0
                        }, 
                        {
                            "pitch": 71, 
                            "t0": 157000, 
                            "v": 11, 
                            "dur": 800.0, 
                            "type": "note", 
                            "channel": 0
                        }
                    ]
                ], 
                [
                    158000, 
                    [
                        {
                            "pitch": 24, 
                            "t0": 158000, 
                            "v": 32, 
                            "dur": 800.0, 
                            "type": "note", 
                            "channel": 0
                        }, 
                        {
                            "pitch": 36, 
                            "t0": 158000, 
                            "v": 99, 
                            "dur": 800.0, 
                            "type": "note", 
                            "channel": 0
                        }, 
                        {
                            "pitch": 48, 
                            "t0": 158000, 
                            "v": 119, 
                            "dur": 800.0, 
                            "type": "note", 
                            "channel": 0
                        }, 
                        {
                            "pitch": 60, 
                            "t0": 158000, 
                            "v": 81, 
                            "dur": 800.0, 
                            "type": "note", 
                            "channel": 0
                        }, 
                        {
                            "pitch": 72, 
                            "t0": 158000, 
                            "v": 4, 
                            "dur": 800.0, 
                            "type": "note", 
                            "channel": 0
                        }
                    ]
                ], 
                [
                    159000, 
                    [
                        {
                            "pitch": 25, 
                            "t0": 159000, 
                            "v": 39, 
                            "dur": 800.0, 
                            "type": "note", 
                            "channel": 0
                        }, 
                        {
                            "pitch": 37, 
                            "t0": 159000, 
                            "v": 103, 
                            "dur": 800.0, 
                            "type": "note", 
                            "channel": 0
                        }, 
                        {
                            "pitch": 49, 
                            "t0": 159000, 
                            "v": 118, 
                            "dur": 800.0, 
                            "type": "note", 
                            "channel": 0
                        }, 
                        {
                            "pitch": 61, 
                            "t0": 159000, 
                            "v": 76, 
                            "dur": 800.0, 
                            "type": "note", 
                            "channel": 0
                        }
                    ]
                ], 
                [
                    160000, 
                    [
                        {
                            "pitch": 26, 
                            "t0": 160000, 
                            "v": 45, 
                            "dur": 800.0, 
                            "type": "note", 
                            "channel": 0
                        }, 
                        {
                            "pitch": 38, 
                            "t0": 160000, 
                            "v": 106, 
                            "dur": 800.0, 
                            "type": "note", 
                            "channel": 0
                        }, 
                        {
                            "pitch": 50, 
                            "t0": 160000, 
                            "v": 116, 
                            "dur": 800.0, 
                            "type": "note", 
                            "channel": 0
                        }, 
                        {
                            "pitch": 62, 
                            "t0": 160000, 
                            "v": 70, 
                            "dur": 800.0, 
                            "type": "note", 
                            "channel": 0
                        }
                    ]
                ], 
                [
                    161000, 
                    [
                        {
                            "pitch": 27, 
                            "t0": 161000, 
                            "v": 52, 
                            "dur": 800.0, 
                            "type": "note", 
                            "channel": 0
                        }, 
                        {
                            "pitch": 39, 
                            "t0": 161000, 
                            "v": 109, 
                            "dur": 800.0, 
                            "type": "note", 
                            "channel": 0
                        }, 
                        {
                            "pitch": 51, 
                            "t0": 161000, 
                            "v": 114, 
                            "dur": 800.0, 
                            "type": "note", 
                            "channel": 0
                        }, 
                        {
                            "pitch": 63, 
                            "t0": 161000, 
                            "v": 64, 
                            "dur": 800.0, 
                            "type": "note", 
                            "channel": 0
                        }
                    ]
                ], 
                [
                    162000, 
                    [
                        {
                            "pitch": 28, 
                            "t0": 162000, 
                            "v": 58, 
                            "dur": 800.0, 
                            "type": "note", 
                            "channel": 0
                        }, 
                        {
                            "pitch": 40, 
                            "t0": 162000, 
                            "v": 112, 
                            "dur": 800.0, 
                            "type": "note", 
                            "channel": 0
                        }, 
                        {
                            "pitch": 52, 
                            "t0": 162000, 
                            "v": 112, 
                            "dur": 800.0, 
                            "type": "note", 
                            "channel": 0
                        }, 
                        {
                            "pitch": 64, 
                            "t0": 162000, 
                            "v": 58, 
                            "dur": 800.0, 
                            "type": "note", 
                            "channel": 0
                        }
                    ]
                ], 
                [
                    163000, 
                    [
                        {
                            "pitch": 29, 
                            "t0": 163000, 
                            "v": 64, 
                            "dur": 800.0, 
                            "type": "note", 
                            "channel": 0
                        }, 
                        {
                            "pitch": 41, 
                            "t0": 163000, 
                            "v": 114, 
                            "dur": 800.0, 
                            "type": "note", 
                            "channel": 0
                        }, 
                        {
                            "pitch": 53, 
                            "t0": 163000, 
                            "v": 109, 
                            "dur": 800.0, 
                            "type": "note", 
                            "channel": 0
                        }, 
                        {
                            "pitch": 65, 
                            "t0": 163000, 
                            "v": 52, 
                            "dur": 800.0, 
                            "type": "note", 
                            "channel": 0
                        }
                    ]
                ], 
                [
                    164000, 
                    [
                        {
                            "pitch": 30, 
                            "t0": 164000, 
                            "v": 70, 
                            "dur": 800.0, 
                            "type": "note", 
                            "channel": 0
                        }, 
                        {
                            "pitch": 42, 
                            "t0": 164000, 
                            "v": 116, 
                            "dur": 800.0, 
                            "type": "note", 
                            "channel": 0
                        }, 
                        {
                            "pitch": 54, 
                            "t0": 164000, 
                            "v": 106, 
                            "dur": 800.0, 
                            "type": "note", 
                            "channel": 0
                        }, 
                        {
                            "pitch": 66, 
                            "t0": 164000, 
                            "v": 45, 
                            "dur": 800.0, 
                            "type": "note", 
                            "channel": 0
                        }
                    ]
                ], 
                [
                    165000, 
                    [
                        {
                            "pitch": 31, 
                            "t0": 165000, 
                            "v": 76, 
                            "dur": 800.0, 
                            "type": "note", 
                            "channel": 0
                        }, 
                        {
                            "pitch": 43, 
                            "t0": 165000, 
                            "v": 118, 
                            "dur": 800.0, 
                            "type": "note", 
                            "channel": 0
                        }, 
                        {
                            "pitch": 55, 
                            "t0": 165000, 
                            "v": 103, 
                            "dur": 800.0, 
                            "type": "note", 
                            "channel": 0
                        }, 
                        {
                            "pitch": 67, 
                            "t0": 165000, 
                            "v": 39, 
                            "dur": 800.0, 
                            "type": "note", 
                            "channel": 0
                        }
                    ]
                ], 
                [
                    166000, 
                    [
                        {
                            "pitch": 32, 
                            "t0": 166000, 
                            "v": 81, 
                            "dur": 800.0, 
                            "type": "note", 
                            "channel": 0
                        }, 
                        {
                            "pitch": 44, 
                            "t0": 166000, 
                            "v": 119, 
                            "dur": 800.0, 
                            "type": "note", 
                            "channel": 0
                        }, 
                        {
                            "pitch": 56, 
                            "t0": 166000, 
                            "v": 99, 
                            "dur": 800.0, 
                            "type": "note", 
                            "channel": 0
                        }, 
                        {
                            "pitch": 68, 
                            "t0": 166000, 
                            "v": 32, 
                            "dur": 800.0, 
                            "type": "note", 
                            "channel": 0
                        }
                    ]
                ], 
                [
                    167000, 
                    [
                        {
                            "pitch": 33, 
                            "t0": 167000, 
                            "v": 86, 
                            "dur": 800.0, 
                            "type": "note", 
                            "channel": 0
                        }, 
                        {
                            "pitch": 45, 
                            "t0": 167000, 
                            "v": 119, 
                            "dur": 800.0, 
                            "type": "note", 
                            "channel": 0
                        }, 
                        {
                            "pitch": 57, 
                            "t0": 167000, 
                            "v": 95, 
                            "dur": 800.0, 
                            "type": "note", 
                            "channel": 0
                        }, 
                        {
                            "pitch": 69, 
                            "t0": 167000, 
                            "v": 25, 
                            "dur": 800.0, 
                            "type": "note", 
                            "channel": 0
                        }
                    ]
                ], 
                [
                    168000, 
                    [
                        {
                            "pitch": 22, 
                            "t0": 168000, 
                            "v": 18, 
                            "dur": 800.0, 
                            "type": "note", 
                            "channel": 0
                        }, 
                        {
                            "pitch": 34, 
                            "t0": 168000, 
                            "v": 91, 
                            "dur": 800.0, 
                            "type": "note", 
                            "channel": 0
                        }, 
                        {
                            "pitch": 46, 
                            "t0": 168000, 
                            "v": 120, 
                            "dur": 800.0, 
                            "type": "note", 
                            "channel": 0
                        }, 
                        {
                            "pitch": 58, 
                            "t0": 168000, 
                            "v": 91, 
                            "dur": 800.0, 
                            "type": "note", 
                            "channel": 0
                        }, 
                        {
                            "pitch": 70, 
                            "t0": 168000, 
                            "v": 18, 
                            "dur": 800.0, 
                            "type": "note", 
                            "channel": 0
                        }
                    ]
                ], 
                [
                    169000, 
                    [
                        {
                            "pitch": 23, 
                            "t0": 169000, 
                            "v": 25, 
                            "dur": 800.0, 
                            "type": "note", 
                            "channel": 0
                        }, 
                        {
                            "pitch": 35, 
                            "t0": 169000, 
                            "v": 95, 
                            "dur": 800.0, 
                            "type": "note", 
                            "channel": 0
                        }, 
                        {
                            "pitch": 47, 
                            "t0": 169000, 
                            "v": 119, 
                            "dur": 800.0, 
                            "type": "note", 
                            "channel": 0
                        }, 
                        {
                            "pitch": 59, 
                            "t0": 169000, 
                            "v": 86, 
                            "dur": 800.0, 
                            "type": "note", 
                            "channel": 0
                        }, 
                        {
                            "pitch": 71, 
                            "t0": 169000, 
                            "v": 11, 
                            "dur": 800.0, 
                            "type": "note", 
                            "channel": 0
                        }
                    ]
                ], 
                [
                    170000, 
                    [
                        {
                            "pitch": 24, 
                            "t0": 170000, 
                            "v": 32, 
                            "dur": 800.0, 
                            "type": "note", 
                            "channel": 0
                        }, 
                        {
                            "pitch": 36, 
                            "t0": 170000, 
                            "v": 99, 
                            "dur": 800.0, 
                            "type": "note", 
                            "channel": 0
                        }, 
                        {
                            "pitch": 48, 
                            "t0": 170000, 
                            "v": 119, 
                            "dur": 800.0, 
                            "type": "note", 
                            "channel": 0
                        }, 
                        {
                            "pitch": 60, 
                            "t0": 170000, 
                            "v": 81, 
                            "dur": 800.0, 
                            "type": "note", 
                            "channel": 0
                        }, 
                        {
                            "pitch": 72, 
                            "t0": 170000, 
                            "v": 4, 
                            "dur": 800.0, 
                            "type": "note", 
                            "channel": 0
                        }
                    ]
                ], 
                [
                    171000, 
                    [
                        {
                            "pitch": 25, 
                            "t0": 171000, 
                            "v": 39, 
                            "dur": 800.0, 
                            "type": "note", 
                            "channel": 0
                        }, 
                        {
                            "pitch": 37, 
                            "t0": 171000, 
                            "v": 103, 
                            "dur": 800.0, 
                            "type": "note", 
                            "channel": 0
                        }, 
                        {
                            "pitch": 49, 
                            "t0": 171000, 
                            "v": 118, 
                            "dur": 800.0, 
                            "type": "note", 
                            "channel": 0
                        }, 
                        {
                            "pitch": 61, 
                            "t0": 171000, 
                            "v": 76, 
                            "dur": 800.0, 
                            "type": "note", 
                            "channel": 0
                        }
                    ]
                ], 
                [
                    172000, 
                    [
                        {
                            "pitch": 26, 
                            "t0": 172000, 
                            "v": 45, 
                            "dur": 800.0, 
                            "type": "note", 
                            "channel": 0
                        }, 
                        {
                            "pitch": 38, 
                            "t0": 172000, 
                            "v": 106, 
                            "dur": 800.0, 
                            "type": "note", 
                            "channel": 0
                        }, 
                        {
                            "pitch": 50, 
                            "t0": 172000, 
                            "v": 116, 
                            "dur": 800.0, 
                            "type": "note", 
                            "channel": 0
                        }, 
                        {
                            "pitch": 62, 
                            "t0": 172000, 
                            "v": 70, 
                            "dur": 800.0, 
                            "type": "note", 
                            "channel": 0
                        }
                    ]
                ], 
                [
                    173000, 
                    [
                        {
                            "pitch": 27, 
                            "t0": 173000, 
                            "v": 52, 
                            "dur": 800.0, 
                            "type": "note", 
                            "channel": 0
                        }, 
                        {
                            "pitch": 39, 
                            "t0": 173000, 
                            "v": 109, 
                            "dur": 800.0, 
                            "type": "note", 
                            "channel": 0
                        }, 
                        {
                            "pitch": 51, 
                            "t0": 173000, 
                            "v": 114, 
                            "dur": 800.0, 
                            "type": "note", 
                            "channel": 0
                        }, 
                        {
                            "pitch": 63, 
                            "t0": 173000, 
                            "v": 64, 
                            "dur": 800.0, 
                            "type": "note", 
                            "channel": 0
                        }
                    ]
                ], 
                [
                    174000, 
                    [
                        {
                            "pitch": 28, 
                            "t0": 174000, 
                            "v": 58, 
                            "dur": 800.0, 
                            "type": "note", 
                            "channel": 0
                        }, 
                        {
                            "pitch": 40, 
                            "t0": 174000, 
                            "v": 112, 
                            "dur": 800.0, 
                            "type": "note", 
                            "channel": 0
                        }, 
                        {
                            "pitch": 52, 
                            "t0": 174000, 
                            "v": 112, 
                            "dur": 800.0, 
                            "type": "note", 
                            "channel": 0
                        }, 
                        {
                            "pitch": 64, 
                            "t0": 174000, 
                            "v": 58, 
                            "dur": 800.0, 
                            "type": "note", 
                            "channel": 0
                        }
                    ]
                ], 
                [
                    175000, 
                    [
                        {
                            "pitch": 29, 
                            "t0": 175000, 
                            "v": 64, 
                            "dur": 800.0, 
                            "type": "note", 
                            "channel": 0
                        }, 
                        {
                            "pitch": 41, 
                            "t0": 175000, 
                            "v": 114, 
                            "dur": 800.0, 
                            "type": "note", 
                            "channel": 0
                        }, 
                        {
                            "pitch": 53, 
                            "t0": 175000, 
                            "v": 109, 
                            "dur": 800.0, 
                            "type": "note", 
                            "channel": 0
                        }, 
                        {
                            "pitch": 65, 
                            "t0": 175000, 
                            "v": 52, 
                            "dur": 800.0, 
                            "type": "note", 
                            "channel": 0
                        }
                    ]
                ], 
                [
                    176000, 
                    [
                        {
                            "pitch": 30, 
                            "t0": 176000, 
                            "v": 70, 
                            "dur": 800.0, 
                            "type": "note", 
                            "channel": 0
                        }, 
                        {
                            "pitch": 42, 
                            "t0": 176000, 
                            "v": 116, 
                            "dur": 800.0, 
                            "type": "note", 
                            "channel": 0
                        }, 
                        {
                            "pitch": 54, 
                            "t0": 176000, 
                            "v": 106, 
                            "dur": 800.0, 
                            "type": "note", 
                            "channel": 0
                        }, 
                        {
                            "pitch": 66, 
                            "t0": 176000, 
                            "v": 45, 
                            "dur": 800.0, 
                            "type": "note", 
                            "channel": 0
                        }
                    ]
                ], 
                [
                    177000, 
                    [
                        {
                            "pitch": 31, 
                            "t0": 177000, 
                            "v": 76, 
                            "dur": 800.0, 
                            "type": "note", 
                            "channel": 0
                        }, 
                        {
                            "pitch": 43, 
                            "t0": 177000, 
                            "v": 118, 
                            "dur": 800.0, 
                            "type": "note", 
                            "channel": 0
                        }, 
                        {
                            "pitch": 55, 
                            "t0": 177000, 
                            "v": 103, 
                            "dur": 800.0, 
                            "type": "note", 
                            "channel": 0
                        }, 
                        {
                            "pitch": 67, 
                            "t0": 177000, 
                            "v": 39, 
                            "dur": 800.0, 
                            "type": "note", 
                            "channel": 0
                        }
                    ]
                ], 
                [
                    178000, 
                    [
                        {
                            "pitch": 32, 
                            "t0": 178000, 
                            "v": 81, 
                            "dur": 800.0, 
                            "type": "note", 
                            "channel": 0
                        }, 
                        {
                            "pitch": 44, 
                            "t0": 178000, 
                            "v": 119, 
                            "dur": 800.0, 
                            "type": "note", 
                            "channel": 0
                        }, 
                        {
                            "pitch": 56, 
                            "t0": 178000, 
                            "v": 99, 
                            "dur": 800.0, 
                            "type": "note", 
                            "channel": 0
                        }, 
                        {
                            "pitch": 68, 
                            "t0": 178000, 
                            "v": 32, 
                            "dur": 800.0, 
                            "type": "note", 
                            "channel": 0
                        }
                    ]
                ], 
                [
                    179000, 
                    [
                        {
                            "pitch": 33, 
                            "t0": 179000, 
                            "v": 86, 
                            "dur": 800.0, 
                            "type": "note", 
                            "channel": 0
                        }, 
                        {
                            "pitch": 45, 
                            "t0": 179000, 
                            "v": 119, 
                            "dur": 800.0, 
                            "type": "note", 
                            "channel": 0
                        }, 
                        {
                            "pitch": 57, 
                            "t0": 179000, 
                            "v": 95, 
                            "dur": 800.0, 
                            "type": "note", 
                            "channel": 0
                        }, 
                        {
                            "pitch": 69, 
                            "t0": 179000, 
                            "v": 25, 
                            "dur": 800.0, 
                            "type": "note", 
                            "channel": 0
                        }
                    ]
                ], 
                [
                    180000, 
                    [
                        {
                            "pitch": 22, 
                            "t0": 180000, 
                            "v": 18, 
                            "dur": 800.0, 
                            "type": "note", 
                            "channel": 0
                        }, 
                        {
                            "pitch": 34, 
                            "t0": 180000, 
                            "v": 91, 
                            "dur": 800.0, 
                            "type": "note", 
                            "channel": 0
                        }, 
                        {
                            "pitch": 46, 
                            "t0": 180000, 
                            "v": 120, 
                            "dur": 800.0, 
                            "type": "note", 
                            "channel": 0
                        }, 
                        {
                            "pitch": 58, 
                            "t0": 180000, 
                            "v": 91, 
                            "dur": 800.0, 
                            "type": "note", 
                            "channel": 0
                        }, 
                        {
                            "pitch": 70, 
                            "t0": 180000, 
                            "v": 18, 
                            "dur": 800.0, 
                            "type": "note", 
                            "channel": 0
                        }
                    ]
                ], 
                [
                    181000, 
                    [
                        {
                            "pitch": 23, 
                            "t0": 181000, 
                            "v": 25, 
                            "dur": 800.0, 
                            "type": "note", 
                            "channel": 0
                        }, 
                        {
                            "pitch": 35, 
                            "t0": 181000, 
                            "v": 95, 
                            "dur": 800.0, 
                            "type": "note", 
                            "channel": 0
                        }, 
                        {
                            "pitch": 47, 
                            "t0": 181000, 
                            "v": 119, 
                            "dur": 800.0, 
                            "type": "note", 
                            "channel": 0
                        }, 
                        {
                            "pitch": 59, 
                            "t0": 181000, 
                            "v": 86, 
                            "dur": 800.0, 
                            "type": "note", 
                            "channel": 0
                        }, 
                        {
                            "pitch": 71, 
                            "t0": 181000, 
                            "v": 11, 
                            "dur": 800.0, 
                            "type": "note", 
                            "channel": 0
                        }
                    ]
                ], 
                [
                    182000, 
                    [
                        {
                            "pitch": 24, 
                            "t0": 182000, 
                            "v": 32, 
                            "dur": 800.0, 
                            "type": "note", 
                            "channel": 0
                        }, 
                        {
                            "pitch": 36, 
                            "t0": 182000, 
                            "v": 99, 
                            "dur": 800.0, 
                            "type": "note", 
                            "channel": 0
                        }, 
                        {
                            "pitch": 48, 
                            "t0": 182000, 
                            "v": 119, 
                            "dur": 800.0, 
                            "type": "note", 
                            "channel": 0
                        }, 
                        {
                            "pitch": 60, 
                            "t0": 182000, 
                            "v": 81, 
                            "dur": 800.0, 
                            "type": "note", 
                            "channel": 0
                        }, 
                        {
                            "pitch": 72, 
                            "t0": 182000, 
                            "v": 4, 
                            "dur": 800.0, 
                            "type": "note", 
                            "channel": 0
                        }
                    ]
                ], 
                [
                    183000, 
                    [
                        {
                            "pitch": 25, 
                            "t0": 183000, 
                            "v": 39, 
                            "dur": 800.0, 
                            "type": "note", 
                            "channel": 0
                        }, 
                        {
                            "pitch": 37, 
                            "t0": 183000, 
                            "v": 103, 
                            "dur": 800.0, 
                            "type": "note", 
                            "channel": 0
                        }, 
                        {
                            "pitch": 49, 
                            "t0": 183000, 
                            "v": 118, 
                            "dur": 800.0, 
                            "type": "note", 
                            "channel": 0
                        }, 
                        {
                            "pitch": 61, 
                            "t0": 183000, 
                            "v": 76, 
                            "dur": 800.0, 
                            "type": "note", 
                            "channel": 0
                        }
                    ]
                ], 
                [
                    184000, 
                    [
                        {
                            "pitch": 26, 
                            "t0": 184000, 
                            "v": 45, 
                            "dur": 800.0, 
                            "type": "note", 
                            "channel": 0
                        }, 
                        {
                            "pitch": 38, 
                            "t0": 184000, 
                            "v": 106, 
                            "dur": 800.0, 
                            "type": "note", 
                            "channel": 0
                        }, 
                        {
                            "pitch": 50, 
                            "t0": 184000, 
                            "v": 116, 
                            "dur": 800.0, 
                            "type": "note", 
                            "channel": 0
                        }, 
                        {
                            "pitch": 62, 
                            "t0": 184000, 
                            "v": 70, 
                            "dur": 800.0, 
                            "type": "note", 
                            "channel": 0
                        }
                    ]
                ], 
                [
                    185000, 
                    [
                        {
                            "pitch": 27, 
                            "t0": 185000, 
                            "v": 52, 
                            "dur": 800.0, 
                            "type": "note", 
                            "channel": 0
                        }, 
                        {
                            "pitch": 39, 
                            "t0": 185000, 
                            "v": 109, 
                            "dur": 800.0, 
                            "type": "note", 
                            "channel": 0
                        }, 
                        {
                            "pitch": 51, 
                            "t0": 185000, 
                            "v": 114, 
                            "dur": 800.0, 
                            "type": "note", 
                            "channel": 0
                        }, 
                        {
                            "pitch": 63, 
                            "t0": 185000, 
                            "v": 64, 
                            "dur": 800.0, 
                            "type": "note", 
                            "channel": 0
                        }
                    ]
                ], 
                [
                    186000, 
                    [
                        {
                            "pitch": 28, 
                            "t0": 186000, 
                            "v": 58, 
                            "dur": 800.0, 
                            "type": "note", 
                            "channel": 0
                        }, 
                        {
                            "pitch": 40, 
                            "t0": 186000, 
                            "v": 112, 
                            "dur": 800.0, 
                            "type": "note", 
                            "channel": 0
                        }, 
                        {
                            "pitch": 52, 
                            "t0": 186000, 
                            "v": 112, 
                            "dur": 800.0, 
                            "type": "note", 
                            "channel": 0
                        }, 
                        {
                            "pitch": 64, 
                            "t0": 186000, 
                            "v": 58, 
                            "dur": 800.0, 
                            "type": "note", 
                            "channel": 0
                        }
                    ]
                ], 
                [
                    187000, 
                    [
                        {
                            "pitch": 29, 
                            "t0": 187000, 
                            "v": 64, 
                            "dur": 800.0, 
                            "type": "note", 
                            "channel": 0
                        }, 
                        {
                            "pitch": 41, 
                            "t0": 187000, 
                            "v": 114, 
                            "dur": 800.0, 
                            "type": "note", 
                            "channel": 0
                        }, 
                        {
                            "pitch": 53, 
                            "t0": 187000, 
                            "v": 109, 
                            "dur": 800.0, 
                            "type": "note", 
                            "channel": 0
                        }, 
                        {
                            "pitch": 65, 
                            "t0": 187000, 
                            "v": 52, 
                            "dur": 800.0, 
                            "type": "note", 
                            "channel": 0
                        }
                    ]
                ], 
                [
                    188000, 
                    [
                        {
                            "pitch": 30, 
                            "t0": 188000, 
                            "v": 70, 
                            "dur": 800.0, 
                            "type": "note", 
                            "channel": 0
                        }, 
                        {
                            "pitch": 42, 
                            "t0": 188000, 
                            "v": 116, 
                            "dur": 800.0, 
                            "type": "note", 
                            "channel": 0
                        }, 
                        {
                            "pitch": 54, 
                            "t0": 188000, 
                            "v": 106, 
                            "dur": 800.0, 
                            "type": "note", 
                            "channel": 0
                        }, 
                        {
                            "pitch": 66, 
                            "t0": 188000, 
                            "v": 45, 
                            "dur": 800.0, 
                            "type": "note", 
                            "channel": 0
                        }
                    ]
                ], 
                [
                    189000, 
                    [
                        {
                            "pitch": 31, 
                            "t0": 189000, 
                            "v": 76, 
                            "dur": 800.0, 
                            "type": "note", 
                            "channel": 0
                        }, 
                        {
                            "pitch": 43, 
                            "t0": 189000, 
                            "v": 118, 
                            "dur": 800.0, 
                            "type": "note", 
                            "channel": 0
                        }, 
                        {
                            "pitch": 55, 
                            "t0": 189000, 
                            "v": 103, 
                            "dur": 800.0, 
                            "type": "note", 
                            "channel": 0
                        }, 
                        {
                            "pitch": 67, 
                            "t0": 189000, 
                            "v": 39, 
                            "dur": 800.0, 
                            "type": "note", 
                            "channel": 0
                        }
                    ]
                ], 
                [
                    190000, 
                    [
                        {
                            "pitch": 32, 
                            "t0": 190000, 
                            "v": 81, 
                            "dur": 800.0, 
                            "type": "note", 
                            "channel": 0
                        }, 
                        {
                            "pitch": 44, 
                            "t0": 190000, 
                            "v": 119, 
                            "dur": 800.0, 
                            "type": "note", 
                            "channel": 0
                        }, 
                        {
                            "pitch": 56, 
                            "t0": 190000, 
                            "v": 99, 
                            "dur": 800.0, 
                            "type": "note", 
                            "channel": 0
                        }, 
                        {
                            "pitch": 68, 
                            "t0": 190000, 
                            "v": 32, 
                            "dur": 800.0, 
                            "type": "note", 
                            "channel": 0
                        }
                    ]
                ], 
                [
                    191000, 
                    [
                        {
                            "pitch": 33, 
                            "t0": 191000, 
                            "v": 86, 
                            "dur": 800.0, 
                            "type": "note", 
                            "channel": 0
                        }, 
                        {
                            "pitch": 45, 
                            "t0": 191000, 
                            "v": 119, 
                            "dur": 800.0, 
                            "type": "note", 
                            "channel": 0
                        }, 
                        {
                            "pitch": 57, 
                            "t0": 191000, 
                            "v": 95, 
                            "dur": 800.0, 
                            "type": "note", 
                            "channel": 0
                        }, 
                        {
                            "pitch": 69, 
                            "t0": 191000, 
                            "v": 25, 
                            "dur": 800.0, 
                            "type": "note", 
                            "channel": 0
                        }
                    ]
                ], 
                [
                    192000, 
                    [
                        {
                            "pitch": 22, 
                            "t0": 192000, 
                            "v": 18, 
                            "dur": 800.0, 
                            "type": "note", 
                            "channel": 0
                        }, 
                        {
                            "pitch": 34, 
                            "t0": 192000, 
                            "v": 91, 
                            "dur": 800.0, 
                            "type": "note", 
                            "channel": 0
                        }, 
                        {
                            "pitch": 46, 
                            "t0": 192000, 
                            "v": 120, 
                            "dur": 800.0, 
                            "type": "note", 
                            "channel": 0
                        }, 
                        {
                            "pitch": 58, 
                            "t0": 192000, 
                            "v": 91, 
                            "dur": 800.0, 
                            "type": "note", 
                            "channel": 0
                        }, 
                        {
                            "pitch": 70, 
                            "t0": 192000, 
                            "v": 18, 
                            "dur": 800.0, 
                            "type": "note", 
                            "channel": 0
                        }
                    ]
                ], 
                [
                    193000, 
                    [
                        {
                            "pitch": 23, 
                            "t0": 193000, 
                            "v": 25, 
                            "dur": 800.0, 
                            "type": "note", 
                            "channel": 0
                        }, 
                        {
                            "pitch": 35, 
                            "t0": 193000, 
                            "v": 95, 
                            "dur": 800.0, 
                            "type": "note", 
                            "channel": 0
                        }, 
                        {
                            "pitch": 47, 
                            "t0": 193000, 
                            "v": 119, 
                            "dur": 800.0, 
                            "type": "note", 
                            "channel": 0
                        }, 
                        {
                            "pitch": 59, 
                            "t0": 193000, 
                            "v": 86, 
                            "dur": 800.0, 
                            "type": "note", 
                            "channel": 0
                        }, 
                        {
                            "pitch": 71, 
                            "t0": 193000, 
                            "v": 11, 
                            "dur": 800.0, 
                            "type": "note", 
                            "channel": 0
                        }
                    ]
                ], 
                [
                    194000, 
                    [
                        {
                            "pitch": 24, 
                            "t0": 194000, 
                            "v": 32, 
                            "dur": 800.0, 
                            "type": "note", 
                            "channel": 0
                        }, 
                        {
                            "pitch": 36, 
                            "t0": 194000, 
                            "v": 99, 
                            "dur": 800.0, 
                            "type": "note", 
                            "channel": 0
                        }, 
                        {
                            "pitch": 48, 
                            "t0": 194000, 
                            "v": 119, 
                            "dur": 800.0, 
                            "type": "note", 
                            "channel": 0
                        }, 
                        {
                            "pitch": 60, 
                            "t0": 194000, 
                            "v": 81, 
                            "dur": 800.0, 
                            "type": "note", 
                            "channel": 0
                        }, 
                        {
                            "pitch": 72, 
                            "t0": 194000, 
                            "v": 4, 
                            "dur": 800.0, 
                            "type": "note", 
                            "channel": 0
                        }
                    ]
                ], 
                [
                    195000, 
                    [
                        {
                            "pitch": 25, 
                            "t0": 195000, 
                            "v": 39, 
                            "dur": 800.0, 
                            "type": "note", 
                            "channel": 0
                        }, 
                        {
                            "pitch": 37, 
                            "t0": 195000, 
                            "v": 103, 
                            "dur": 800.0, 
                            "type": "note", 
                            "channel": 0
                        }, 
                        {
                            "pitch": 49, 
                            "t0": 195000, 
                            "v": 118, 
                            "dur": 800.0, 
                            "type": "note", 
                            "channel": 0
                        }, 
                        {
                            "pitch": 61, 
                            "t0": 195000, 
                            "v": 76, 
                            "dur": 800.0, 
                            "type": "note", 
                            "channel": 0
                        }
                    ]
                ], 
                [
                    196000, 
                    [
                        {
                            "pitch": 26, 
                            "t0": 196000, 
                            "v": 45, 
                            "dur": 800.0, 
                            "type": "note", 
                            "channel": 0
                        }, 
                        {
                            "pitch": 38, 
                            "t0": 196000, 
                            "v": 106, 
                            "dur": 800.0, 
                            "type": "note", 
                            "channel": 0
                        }, 
                        {
                            "pitch": 50, 
                            "t0": 196000, 
                            "v": 116, 
                            "dur": 800.0, 
                            "type": "note", 
                            "channel": 0
                        }, 
                        {
                            "pitch": 62, 
                            "t0": 196000, 
                            "v": 70, 
                            "dur": 800.0, 
                            "type": "note", 
                            "channel": 0
                        }
                    ]
                ], 
                [
                    197000, 
                    [
                        {
                            "pitch": 27, 
                            "t0": 197000, 
                            "v": 52, 
                            "dur": 800.0, 
                            "type": "note", 
                            "channel": 0
                        }, 
                        {
                            "pitch": 39, 
                            "t0": 197000, 
                            "v": 109, 
                            "dur": 800.0, 
                            "type": "note", 
                            "channel": 0
                        }, 
                        {
                            "pitch": 51, 
                            "t0": 197000, 
                            "v": 114, 
                            "dur": 800.0, 
                            "type": "note", 
                            "channel": 0
                        }, 
                        {
                            "pitch": 63, 
                            "t0": 197000, 
                            "v": 64, 
                            "dur": 800.0, 
                            "type": "note", 
                            "channel": 0
                        }
                    ]
                ], 
                [
                    198000, 
                    [
                        {
                            "pitch": 28, 
                            "t0": 198000, 
                            "v": 58, 
                            "dur": 800.0, 
                            "type": "note", 
                            "channel": 0
                        }, 
                        {
                            "pitch": 40, 
                            "t0": 198000, 
                            "v": 112, 
                            "dur": 800.0, 
                            "type": "note", 
                            "channel": 0
                        }, 
                        {
                            "pitch": 52, 
                            "t0": 198000, 
                            "v": 112, 
                            "dur": 800.0, 
                            "type": "note", 
                            "channel": 0
                        }, 
                        {
                            "pitch": 64, 
                            "t0": 198000, 
                            "v": 58, 
                            "dur": 800.0, 
                            "type": "note", 
                            "channel": 0
                        }
                    ]
                ], 
                [
                    199000, 
                    [
                        {
                            "pitch": 29, 
                            "t0": 199000, 
                            "v": 64, 
                            "dur": 800.0, 
                            "type": "note", 
                            "channel": 0
                        }, 
                        {
                            "pitch": 41, 
                            "t0": 199000, 
                            "v": 114, 
                            "dur": 800.0, 
                            "type": "note", 
                            "channel": 0
                        }, 
                        {
                            "pitch": 53, 
                            "t0": 199000, 
                            "v": 109, 
                            "dur": 800.0, 
                            "type": "note", 
                            "channel": 0
                        }, 
                        {
                            "pitch": 65, 
                            "t0": 199000, 
                            "v": 52, 
                            "dur": 800.0, 
                            "type": "note", 
                            "channel": 0
                        }
                    ]
                ]
            ], 
            "instruments": [], 
            "channels": [], 
            "numNotes": 851, 
            "type": "TrackObj"
        }
    ], 
    "type": "MidiObj", 
    "loop": false
}