{
    "format": 1, 
    "instruments": [], 
    "resolution": 1000, 
    "channels": [], 
    "tracks": [
        {
            "trackName": "Track1", 
            "seq": [
                [
                    0, 
                    [
                        {
                            "pitch": 23, 
                            "t0": 0, 
                            "v": 25, 
                            "dur": 640.0, 
                            "type": "note", 
                            "channel": 0
                        }, 
                        {
                            "pitch": 35, 
                            "t0": 0, 
                            "v": 95, 
                            "dur": 640.0, 
                            "type": "note", 
                            "channel": 0
                        }, 
                        {
                            "pitch": 47, 
                            "t0": 0, 
                            "v": 119, 
                            "dur": 640.0, 
                            "type": "note", 
                            "channel": 0
                        }, 
                        {
                            "pitch": 59, 
                            "t0": 0, 
                            "v": 86, 
                            "dur": 640.0, 
                            "type": "note", 
                            "channel": 0
                        }, 
                        {
                            "pitch": 71, 
                            "t0": 0, 
                            "v": 11, 
                            "dur": 640.0, 
                            "type": "note", 
                            "channel": 0
                        }
                    ]
                ], 
                [
                    800.0, 
                    [
                        {
                            "pitch": 24, 
                            "t0": 800.0, 
                            "v": 32, 
                            "dur": 640.0, 
                            "type": "note", 
                            "channel": 0
                        }, 
                        {
                            "pitch": 36, 
                            "t0": 800.0, 
                            "v": 99, 
                            "dur": 640.0, 
                            "type": "note", 
                            "channel": 0
                        }, 
                        {
                            "pitch": 48, 
                            "t0": 800.0, 
                            "v": 119, 
                            "dur": 640.0, 
                            "type": "note", 
                            "channel": 0
                        }, 
                        {
                            "pitch": 60, 
                            "t0": 800.0, 
                            "v": 81, 
                            "dur": 640.0, 
                            "type": "note", 
                            "channel": 0
                        }, 
                        {
                            "pitch": 72, 
                            "t0": 800.0, 
                            "v": 4, 
                            "dur": 640.0, 
                            "type": "note", 
                            "channel": 0
                        }
                    ]
                ], 
                [
                    1600.0, 
                    [
                        {
                            "pitch": 25, 
                            "t0": 1600.0, 
                            "v": 39, 
                            "dur": 640.0, 
                            "type": "note", 
                            "channel": 0
                        }, 
                        {
                            "pitch": 37, 
                            "t0": 1600.0, 
                            "v": 103, 
                            "dur": 640.0, 
                            "type": "note", 
                            "channel": 0
                        }, 
                        {
                            "pitch": 49, 
                            "t0": 1600.0, 
                            "v": 118, 
                            "dur": 640.0, 
                            "type": "note", 
                            "channel": 0
                        }, 
                        {
                            "pitch": 61, 
                            "t0": 1600.0, 
                            "v": 76, 
                            "dur": 640.0, 
                            "type": "note", 
                            "channel": 0
                        }
                    ]
                ], 
                [
                    2400.0, 
                    [
                        {
                            "pitch": 24, 
                            "t0": 2400.0, 
                            "v": 32, 
                            "dur": 640.0, 
                            "type": "note", 
                            "channel": 0
                        }, 
                        {
                            "pitch": 36, 
                            "t0": 2400.0, 
                            "v": 99, 
                            "dur": 640.0, 
                            "type": "note", 
                            "channel": 0
                        }, 
                        {
                            "pitch": 48, 
                            "t0": 2400.0, 
                            "v": 119, 
                            "dur": 640.0, 
                            "type": "note", 
                            "channel": 0
                        }, 
                        {
                            "pitch": 60, 
                            "t0": 2400.0, 
                            "v": 81, 
                            "dur": 640.0, 
                            "type": "note", 
                            "channel": 0
                        }, 
                        {
                            "pitch": 72, 
                            "t0": 2400.0, 
                            "v": 4, 
                            "dur": 640.0, 
                            "type": "note", 
                            "channel": 0
                        }
                    ]
                ], 
                [
                    3200.0, 
                    [
                        {
                            "pitch": 25, 
                            "t0": 3200.0, 
                            "v": 39, 
                            "dur": 640.0, 
                            "type": "note", 
                            "channel": 0
                        }, 
                        {
                            "pitch": 37, 
                            "t0": 3200.0, 
                            "v": 103, 
                            "dur": 640.0, 
                            "type": "note", 
                            "channel": 0
                        }, 
                        {
                            "pitch": 49, 
                            "t0": 3200.0, 
                            "v": 118, 
                            "dur": 640.0, 
                            "type": "note", 
                            "channel": 0
                        }, 
                        {
                            "pitch": 61, 
                            "t0": 3200.0, 
                            "v": 76, 
                            "dur": 640.0, 
                            "type": "note", 
                            "channel": 0
                        }
                    ]
                ], 
                [
                    4000.0, 
                    [
                        {
                            "pitch": 26, 
                            "t0": 4000.0, 
                            "v": 45, 
                            "dur": 640.0, 
                            "type": "note", 
                            "channel": 0
                        }, 
                        {
                            "pitch": 38, 
                            "t0": 4000.0, 
                            "v": 106, 
                            "dur": 640.0, 
                            "type": "note", 
                            "channel": 0
                        }, 
                        {
                            "pitch": 50, 
                            "t0": 4000.0, 
                            "v": 116, 
                            "dur": 640.0, 
                            "type": "note", 
                            "channel": 0
                        }, 
                        {
                            "pitch": 62, 
                            "t0": 4000.0, 
                            "v": 70, 
                            "dur": 640.0, 
                            "type": "note", 
                            "channel": 0
                        }
                    ]
                ], 
                [
                    4800.0, 
                    [
                        {
                            "pitch": 25, 
                            "t0": 4800.0, 
                            "v": 39, 
                            "dur": 640.0, 
                            "type": "note", 
                            "channel": 0
                        }, 
                        {
                            "pitch": 37, 
                            "t0": 4800.0, 
                            "v": 103, 
                            "dur": 640.0, 
                            "type": "note", 
                            "channel": 0
                        }, 
                        {
                            "pitch": 49, 
                            "t0": 4800.0, 
                            "v": 118, 
                            "dur": 640.0, 
                            "type": "note", 
                            "channel": 0
                        }, 
                        {
                            "pitch": 61, 
                            "t0": 4800.0, 
                            "v": 76, 
                            "dur": 640.0, 
                            "type": "note", 
                            "channel": 0
                        }
                    ]
                ], 
                [
                    5600.0, 
                    [
                        {
                            "pitch": 26, 
                            "t0": 5600.0, 
                            "v": 45, 
                            "dur": 640.0, 
                            "type": "note", 
                            "channel": 0
                        }, 
                        {
                            "pitch": 38, 
                            "t0": 5600.0, 
                            "v": 106, 
                            "dur": 640.0, 
                            "type": "note", 
                            "channel": 0
                        }, 
                        {
                            "pitch": 50, 
                            "t0": 5600.0, 
                            "v": 116, 
                            "dur": 640.0, 
                            "type": "note", 
                            "channel": 0
                        }, 
                        {
                            "pitch": 62, 
                            "t0": 5600.0, 
                            "v": 70, 
                            "dur": 640.0, 
                            "type": "note", 
                            "channel": 0
                        }
                    ]
                ], 
                [
                    6400.0, 
                    [
                        {
                            "pitch": 27, 
                            "t0": 6400.0, 
                            "v": 52, 
                            "dur": 640.0, 
                            "type": "note", 
                            "channel": 0
                        }, 
                        {
                            "pitch": 39, 
                            "t0": 6400.0, 
                            "v": 109, 
                            "dur": 640.0, 
                            "type": "note", 
                            "channel": 0
                        }, 
                        {
                            "pitch": 51, 
                            "t0": 6400.0, 
                            "v": 114, 
                            "dur": 640.0, 
                            "type": "note", 
                            "channel": 0
                        }, 
                        {
                            "pitch": 63, 
                            "t0": 6400.0, 
                            "v": 64, 
                            "dur": 640.0, 
                            "type": "note", 
                            "channel": 0
                        }
                    ]
                ], 
                [
                    7200.0, 
                    [
                        {
                            "pitch": 26, 
                            "t0": 7200.0, 
                            "v": 45, 
                            "dur": 640.0, 
                            "type": "note", 
                            "channel": 0
                        }, 
                        {
                            "pitch": 38, 
                            "t0": 7200.0, 
                            "v": 106, 
                            "dur": 640.0, 
                            "type": "note", 
                            "channel": 0
                        }, 
                        {
                            "pitch": 50, 
                            "t0": 7200.0, 
                            "v": 116, 
                            "dur": 640.0, 
                            "type": "note", 
                            "channel": 0
                        }, 
                        {
                            "pitch": 62, 
                            "t0": 7200.0, 
                            "v": 70, 
                            "dur": 640.0, 
                            "type": "note", 
                            "channel": 0
                        }
                    ]
                ], 
                [
                    8000.0, 
                    [
                        {
                            "pitch": 27, 
                            "t0": 8000.0, 
                            "v": 52, 
                            "dur": 640.0, 
                            "type": "note", 
                            "channel": 0
                        }, 
                        {
                            "pitch": 39, 
                            "t0": 8000.0, 
                            "v": 109, 
                            "dur": 640.0, 
                            "type": "note", 
                            "channel": 0
                        }, 
                        {
                            "pitch": 51, 
                            "t0": 8000.0, 
                            "v": 114, 
                            "dur": 640.0, 
                            "type": "note", 
                            "channel": 0
                        }, 
                        {
                            "pitch": 63, 
                            "t0": 8000.0, 
                            "v": 64, 
                            "dur": 640.0, 
                            "type": "note", 
                            "channel": 0
                        }
                    ]
                ], 
                [
                    8800.0, 
                    [
                        {
                            "pitch": 28, 
                            "t0": 8800.0, 
                            "v": 58, 
                            "dur": 640.0, 
                            "type": "note", 
                            "channel": 0
                        }, 
                        {
                            "pitch": 40, 
                            "t0": 8800.0, 
                            "v": 112, 
                            "dur": 640.0, 
                            "type": "note", 
                            "channel": 0
                        }, 
                        {
                            "pitch": 52, 
                            "t0": 8800.0, 
                            "v": 112, 
                            "dur": 640.0, 
                            "type": "note", 
                            "channel": 0
                        }, 
                        {
                            "pitch": 64, 
                            "t0": 8800.0, 
                            "v": 58, 
                            "dur": 640.0, 
                            "type": "note", 
                            "channel": 0
                        }
                    ]
                ], 
                [
                    9600.0, 
                    [
                        {
                            "pitch": 27, 
                            "t0": 9600.0, 
                            "v": 52, 
                            "dur": 640.0, 
                            "type": "note", 
                            "channel": 0
                        }, 
                        {
                            "pitch": 39, 
                            "t0": 9600.0, 
                            "v": 109, 
                            "dur": 640.0, 
                            "type": "note", 
                            "channel": 0
                        }, 
                        {
                            "pitch": 51, 
                            "t0": 9600.0, 
                            "v": 114, 
                            "dur": 640.0, 
                            "type": "note", 
                            "channel": 0
                        }, 
                        {
                            "pitch": 63, 
                            "t0": 9600.0, 
                            "v": 64, 
                            "dur": 640.0, 
                            "type": "note", 
                            "channel": 0
                        }
                    ]
                ], 
                [
                    10400.0, 
                    [
                        {
                            "pitch": 28, 
                            "t0": 10400.0, 
                            "v": 58, 
                            "dur": 640.0, 
                            "type": "note", 
                            "channel": 0
                        }, 
                        {
                            "pitch": 40, 
                            "t0": 10400.0, 
                            "v": 112, 
                            "dur": 640.0, 
                            "type": "note", 
                            "channel": 0
                        }, 
                        {
                            "pitch": 52, 
                            "t0": 10400.0, 
                            "v": 112, 
                            "dur": 640.0, 
                            "type": "note", 
                            "channel": 0
                        }, 
                        {
                            "pitch": 64, 
                            "t0": 10400.0, 
                            "v": 58, 
                            "dur": 640.0, 
                            "type": "note", 
                            "channel": 0
                        }
                    ]
                ], 
                [
                    11200.0, 
                    [
                        {
                            "pitch": 29, 
                            "t0": 11200.0, 
                            "v": 64, 
                            "dur": 640.0, 
                            "type": "note", 
                            "channel": 0
                        }, 
                        {
                            "pitch": 41, 
                            "t0": 11200.0, 
                            "v": 114, 
                            "dur": 640.0, 
                            "type": "note", 
                            "channel": 0
                        }, 
                        {
                            "pitch": 53, 
                            "t0": 11200.0, 
                            "v": 109, 
                            "dur": 640.0, 
                            "type": "note", 
                            "channel": 0
                        }, 
                        {
                            "pitch": 65, 
                            "t0": 11200.0, 
                            "v": 52, 
                            "dur": 640.0, 
                            "type": "note", 
                            "channel": 0
                        }
                    ]
                ], 
                [
                    12000.0, 
                    [
                        {
                            "pitch": 28, 
                            "t0": 12000.0, 
                            "v": 58, 
                            "dur": 640.0, 
                            "type": "note", 
                            "channel": 0
                        }, 
                        {
                            "pitch": 40, 
                            "t0": 12000.0, 
                            "v": 112, 
                            "dur": 640.0, 
                            "type": "note", 
                            "channel": 0
                        }, 
                        {
                            "pitch": 52, 
                            "t0": 12000.0, 
                            "v": 112, 
                            "dur": 640.0, 
                            "type": "note", 
                            "channel": 0
                        }, 
                        {
                            "pitch": 64, 
                            "t0": 12000.0, 
                            "v": 58, 
                            "dur": 640.0, 
                            "type": "note", 
                            "channel": 0
                        }
                    ]
                ], 
                [
                    12800.0, 
                    [
                        {
                            "pitch": 29, 
                            "t0": 12800.0, 
                            "v": 64, 
                            "dur": 640.0, 
                            "type": "note", 
                            "channel": 0
                        }, 
                        {
                            "pitch": 41, 
                            "t0": 12800.0, 
                            "v": 114, 
                            "dur": 640.0, 
                            "type": "note", 
                            "channel": 0
                        }, 
                        {
                            "pitch": 53, 
                            "t0": 12800.0, 
                            "v": 109, 
                            "dur": 640.0, 
                            "type": "note", 
                            "channel": 0
                        }, 
                        {
                            "pitch": 65, 
                            "t0": 12800.0, 
                            "v": 52, 
                            "dur": 640.0, 
                            "type": "note", 
                            "channel": 0
                        }
                    ]
                ], 
                [
                    13600.0, 
                    [
                        {
                            "pitch": 30, 
                            "t0": 13600.0, 
                            "v": 70, 
                            "dur": 640.0, 
                            "type": "note", 
                            "channel": 0
                        }, 
                        {
                            "pitch": 42, 
                            "t0": 13600.0, 
                            "v": 116, 
                            "dur": 640.0, 
                            "type": "note", 
                            "channel": 0
                        }, 
                        {
                            "pitch": 54, 
                            "t0": 13600.0, 
                            "v": 106, 
                            "dur": 640.0, 
                            "type": "note", 
                            "channel": 0
                        }, 
                        {
                            "pitch": 66, 
                            "t0": 13600.0, 
                            "v": 45, 
                            "dur": 640.0, 
                            "type": "note", 
                            "channel": 0
                        }
                    ]
                ], 
                [
                    14400.0, 
                    [
                        {
                            "pitch": 29, 
                            "t0": 14400.0, 
                            "v": 64, 
                            "dur": 640.0, 
                            "type": "note", 
                            "channel": 0
                        }, 
                        {
                            "pitch": 41, 
                            "t0": 14400.0, 
                            "v": 114, 
                            "dur": 640.0, 
                            "type": "note", 
                            "channel": 0
                        }, 
                        {
                            "pitch": 53, 
                            "t0": 14400.0, 
                            "v": 109, 
                            "dur": 640.0, 
                            "type": "note", 
                            "channel": 0
                        }, 
                        {
                            "pitch": 65, 
                            "t0": 14400.0, 
                            "v": 52, 
                            "dur": 640.0, 
                            "type": "note", 
                            "channel": 0
                        }
                    ]
                ], 
                [
                    15200.0, 
                    [
                        {
                            "pitch": 30, 
                            "t0": 15200.0, 
                            "v": 70, 
                            "dur": 640.0, 
                            "type": "note", 
                            "channel": 0
                        }, 
                        {
                            "pitch": 42, 
                            "t0": 15200.0, 
                            "v": 116, 
                            "dur": 640.0, 
                            "type": "note", 
                            "channel": 0
                        }, 
                        {
                            "pitch": 54, 
                            "t0": 15200.0, 
                            "v": 106, 
                            "dur": 640.0, 
                            "type": "note", 
                            "channel": 0
                        }, 
                        {
                            "pitch": 66, 
                            "t0": 15200.0, 
                            "v": 45, 
                            "dur": 640.0, 
                            "type": "note", 
                            "channel": 0
                        }
                    ]
                ], 
                [
                    16000.0, 
                    [
                        {
                            "pitch": 31, 
                            "t0": 16000.0, 
                            "v": 76, 
                            "dur": 640.0, 
                            "type": "note", 
                            "channel": 0
                        }, 
                        {
                            "pitch": 43, 
                            "t0": 16000.0, 
                            "v": 118, 
                            "dur": 640.0, 
                            "type": "note", 
                            "channel": 0
                        }, 
                        {
                            "pitch": 55, 
                            "t0": 16000.0, 
                            "v": 103, 
                            "dur": 640.0, 
                            "type": "note", 
                            "channel": 0
                        }, 
                        {
                            "pitch": 67, 
                            "t0": 16000.0, 
                            "v": 39, 
                            "dur": 640.0, 
                            "type": "note", 
                            "channel": 0
                        }
                    ]
                ], 
                [
                    16800.0, 
                    [
                        {
                            "pitch": 30, 
                            "t0": 16800.0, 
                            "v": 70, 
                            "dur": 640.0, 
                            "type": "note", 
                            "channel": 0
                        }, 
                        {
                            "pitch": 42, 
                            "t0": 16800.0, 
                            "v": 116, 
                            "dur": 640.0, 
                            "type": "note", 
                            "channel": 0
                        }, 
                        {
                            "pitch": 54, 
                            "t0": 16800.0, 
                            "v": 106, 
                            "dur": 640.0, 
                            "type": "note", 
                            "channel": 0
                        }, 
                        {
                            "pitch": 66, 
                            "t0": 16800.0, 
                            "v": 45, 
                            "dur": 640.0, 
                            "type": "note", 
                            "channel": 0
                        }
                    ]
                ], 
                [
                    17600.0, 
                    [
                        {
                            "pitch": 31, 
                            "t0": 17600.0, 
                            "v": 76, 
                            "dur": 640.0, 
                            "type": "note", 
                            "channel": 0
                        }, 
                        {
                            "pitch": 43, 
                            "t0": 17600.0, 
                            "v": 118, 
                            "dur": 640.0, 
                            "type": "note", 
                            "channel": 0
                        }, 
                        {
                            "pitch": 55, 
                            "t0": 17600.0, 
                            "v": 103, 
                            "dur": 640.0, 
                            "type": "note", 
                            "channel": 0
                        }, 
                        {
                            "pitch": 67, 
                            "t0": 17600.0, 
                            "v": 39, 
                            "dur": 640.0, 
                            "type": "note", 
                            "channel": 0
                        }
                    ]
                ], 
                [
                    18400.0, 
                    [
                        {
                            "pitch": 32, 
                            "t0": 18400.0, 
                            "v": 81, 
                            "dur": 640.0, 
                            "type": "note", 
                            "channel": 0
                        }, 
                        {
                            "pitch": 44, 
                            "t0": 18400.0, 
                            "v": 119, 
                            "dur": 640.0, 
                            "type": "note", 
                            "channel": 0
                        }, 
                        {
                            "pitch": 56, 
                            "t0": 18400.0, 
                            "v": 99, 
                            "dur": 640.0, 
                            "type": "note", 
                            "channel": 0
                        }, 
                        {
                            "pitch": 68, 
                            "t0": 18400.0, 
                            "v": 32, 
                            "dur": 640.0, 
                            "type": "note", 
                            "channel": 0
                        }
                    ]
                ], 
                [
                    19200.0, 
                    [
                        {
                            "pitch": 31, 
                            "t0": 19200.0, 
                            "v": 76, 
                            "dur": 640.0, 
                            "type": "note", 
                            "channel": 0
                        }, 
                        {
                            "pitch": 43, 
                            "t0": 19200.0, 
                            "v": 118, 
                            "dur": 640.0, 
                            "type": "note", 
                            "channel": 0
                        }, 
                        {
                            "pitch": 55, 
                            "t0": 19200.0, 
                            "v": 103, 
                            "dur": 640.0, 
                            "type": "note", 
                            "channel": 0
                        }, 
                        {
                            "pitch": 67, 
                            "t0": 19200.0, 
                            "v": 39, 
                            "dur": 640.0, 
                            "type": "note", 
                            "channel": 0
                        }
                    ]
                ], 
                [
                    20000.0, 
                    [
                        {
                            "pitch": 32, 
                            "t0": 20000.0, 
                            "v": 81, 
                            "dur": 640.0, 
                            "type": "note", 
                            "channel": 0
                        }, 
                        {
                            "pitch": 44, 
                            "t0": 20000.0, 
                            "v": 119, 
                            "dur": 640.0, 
                            "type": "note", 
                            "channel": 0
                        }, 
                        {
                            "pitch": 56, 
                            "t0": 20000.0, 
                            "v": 99, 
                            "dur": 640.0, 
                            "type": "note", 
                            "channel": 0
                        }, 
                        {
                            "pitch": 68, 
                            "t0": 20000.0, 
                            "v": 32, 
                            "dur": 640.0, 
                            "type": "note", 
                            "channel": 0
                        }
                    ]
                ], 
                [
                    20800.0, 
                    [
                        {
                            "pitch": 33, 
                            "t0": 20800.0, 
                            "v": 86, 
                            "dur": 640.0, 
                            "type": "note", 
                            "channel": 0
                        }, 
                        {
                            "pitch": 45, 
                            "t0": 20800.0, 
                            "v": 119, 
                            "dur": 640.0, 
                            "type": "note", 
                            "channel": 0
                        }, 
                        {
                            "pitch": 57, 
                            "t0": 20800.0, 
                            "v": 95, 
                            "dur": 640.0, 
                            "type": "note", 
                            "channel": 0
                        }, 
                        {
                            "pitch": 69, 
                            "t0": 20800.0, 
                            "v": 25, 
                            "dur": 640.0, 
                            "type": "note", 
                            "channel": 0
                        }
                    ]
                ], 
                [
                    21600.0, 
                    [
                        {
                            "pitch": 32, 
                            "t0": 21600.0, 
                            "v": 81, 
                            "dur": 640.0, 
                            "type": "note", 
                            "channel": 0
                        }, 
                        {
                            "pitch": 44, 
                            "t0": 21600.0, 
                            "v": 119, 
                            "dur": 640.0, 
                            "type": "note", 
                            "channel": 0
                        }, 
                        {
                            "pitch": 56, 
                            "t0": 21600.0, 
                            "v": 99, 
                            "dur": 640.0, 
                            "type": "note", 
                            "channel": 0
                        }, 
                        {
                            "pitch": 68, 
                            "t0": 21600.0, 
                            "v": 32, 
                            "dur": 640.0, 
                            "type": "note", 
                            "channel": 0
                        }
                    ]
                ], 
                [
                    22400.0, 
                    [
                        {
                            "pitch": 33, 
                            "t0": 22400.0, 
                            "v": 86, 
                            "dur": 640.0, 
                            "type": "note", 
                            "channel": 0
                        }, 
                        {
                            "pitch": 45, 
                            "t0": 22400.0, 
                            "v": 119, 
                            "dur": 640.0, 
                            "type": "note", 
                            "channel": 0
                        }, 
                        {
                            "pitch": 57, 
                            "t0": 22400.0, 
                            "v": 95, 
                            "dur": 640.0, 
                            "type": "note", 
                            "channel": 0
                        }, 
                        {
                            "pitch": 69, 
                            "t0": 22400.0, 
                            "v": 25, 
                            "dur": 640.0, 
                            "type": "note", 
                            "channel": 0
                        }
                    ]
                ], 
                [
                    23200.0, 
                    [
                        {
                            "pitch": 23, 
                            "t0": 23200.0, 
                            "v": 25, 
                            "dur": 640.0, 
                            "type": "note", 
                            "channel": 0
                        }, 
                        {
                            "pitch": 35, 
                            "t0": 23200.0, 
                            "v": 95, 
                            "dur": 640.0, 
                            "type": "note", 
                            "channel": 0
                        }, 
                        {
                            "pitch": 47, 
                            "t0": 23200.0, 
                            "v": 119, 
                            "dur": 640.0, 
                            "type": "note", 
                            "channel": 0
                        }, 
                        {
                            "pitch": 59, 
                            "t0": 23200.0, 
                            "v": 86, 
                            "dur": 640.0, 
                            "type": "note", 
                            "channel": 0
                        }, 
                        {
                            "pitch": 71, 
                            "t0": 23200.0, 
                            "v": 11, 
                            "dur": 640.0, 
                            "type": "note", 
                            "channel": 0
                        }
                    ]
                ], 
                [
                    24000.0, 
                    [
                        {
                            "pitch": 33, 
                            "t0": 24000.0, 
                            "v": 86, 
                            "dur": 640.0, 
                            "type": "note", 
                            "channel": 0
                        }, 
                        {
                            "pitch": 45, 
                            "t0": 24000.0, 
                            "v": 119, 
                            "dur": 640.0, 
                            "type": "note", 
                            "channel": 0
                        }, 
                        {
                            "pitch": 57, 
                            "t0": 24000.0, 
                            "v": 95, 
                            "dur": 640.0, 
                            "type": "note", 
                            "channel": 0
                        }, 
                        {
                            "pitch": 69, 
                            "t0": 24000.0, 
                            "v": 25, 
                            "dur": 640.0, 
                            "type": "note", 
                            "channel": 0
                        }
                    ]
                ], 
                [
                    24800.0, 
                    [
                        {
                            "pitch": 23, 
                            "t0": 24800.0, 
                            "v": 25, 
                            "dur": 640.0, 
                            "type": "note", 
                            "channel": 0
                        }, 
                        {
                            "pitch": 35, 
                            "t0": 24800.0, 
                            "v": 95, 
                            "dur": 640.0, 
                            "type": "note", 
                            "channel": 0
                        }, 
                        {
                            "pitch": 47, 
                            "t0": 24800.0, 
                            "v": 119, 
                            "dur": 640.0, 
                            "type": "note", 
                            "channel": 0
                        }, 
                        {
                            "pitch": 59, 
                            "t0": 24800.0, 
                            "v": 86, 
                            "dur": 640.0, 
                            "type": "note", 
                            "channel": 0
                        }, 
                        {
                            "pitch": 71, 
                            "t0": 24800.0, 
                            "v": 11, 
                            "dur": 640.0, 
                            "type": "note", 
                            "channel": 0
                        }
                    ]
                ], 
                [
                    25600.0, 
                    [
                        {
                            "pitch": 24, 
                            "t0": 25600.0, 
                            "v": 32, 
                            "dur": 640.0, 
                            "type": "note", 
                            "channel": 0
                        }, 
                        {
                            "pitch": 36, 
                            "t0": 25600.0, 
                            "v": 99, 
                            "dur": 640.0, 
                            "type": "note", 
                            "channel": 0
                        }, 
                        {
                            "pitch": 48, 
                            "t0": 25600.0, 
                            "v": 119, 
                            "dur": 640.0, 
                            "type": "note", 
                            "channel": 0
                        }, 
                        {
                            "pitch": 60, 
                            "t0": 25600.0, 
                            "v": 81, 
                            "dur": 640.0, 
                            "type": "note", 
                            "channel": 0
                        }, 
                        {
                            "pitch": 72, 
                            "t0": 25600.0, 
                            "v": 4, 
                            "dur": 640.0, 
                            "type": "note", 
                            "channel": 0
                        }
                    ]
                ], 
                [
                    26400.0, 
                    [
                        {
                            "pitch": 23, 
                            "t0": 26400.0, 
                            "v": 25, 
                            "dur": 640.0, 
                            "type": "note", 
                            "channel": 0
                        }, 
                        {
                            "pitch": 35, 
                            "t0": 26400.0, 
                            "v": 95, 
                            "dur": 640.0, 
                            "type": "note", 
                            "channel": 0
                        }, 
                        {
                            "pitch": 47, 
                            "t0": 26400.0, 
                            "v": 119, 
                            "dur": 640.0, 
                            "type": "note", 
                            "channel": 0
                        }, 
                        {
                            "pitch": 59, 
                            "t0": 26400.0, 
                            "v": 86, 
                            "dur": 640.0, 
                            "type": "note", 
                            "channel": 0
                        }, 
                        {
                            "pitch": 71, 
                            "t0": 26400.0, 
                            "v": 11, 
                            "dur": 640.0, 
                            "type": "note", 
                            "channel": 0
                        }
                    ]
                ], 
                [
                    27200.0, 
                    [
                        {
                            "pitch": 24, 
                            "t0": 27200.0, 
                            "v": 32, 
                            "dur": 640.0, 
                            "type": "note", 
                            "channel": 0
                        }, 
                        {
                            "pitch": 36, 
                            "t0": 27200.0, 
                            "v": 99, 
                            "dur": 640.0, 
                            "type": "note", 
                            "channel": 0
                        }, 
                        {
                            "pitch": 48, 
                            "t0": 27200.0, 
                            "v": 119, 
                            "dur": 640.0, 
                            "type": "note", 
                            "channel": 0
                        }, 
                        {
                            "pitch": 60, 
                            "t0": 27200.0, 
                            "v": 81, 
                            "dur": 640.0, 
                            "type": "note", 
                            "channel": 0
                        }, 
                        {
                            "pitch": 72, 
                            "t0": 27200.0, 
                            "v": 4, 
                            "dur": 640.0, 
                            "type": "note", 
                            "channel": 0
                        }
                    ]
                ], 
                [
                    28000.0, 
                    [
                        {
                            "pitch": 25, 
                            "t0": 28000.0, 
                            "v": 39, 
                            "dur": 640.0, 
                            "type": "note", 
                            "channel": 0
                        }, 
                        {
                            "pitch": 37, 
                            "t0": 28000.0, 
                            "v": 103, 
                            "dur": 640.0, 
                            "type": "note", 
                            "channel": 0
                        }, 
                        {
                            "pitch": 49, 
                            "t0": 28000.0, 
                            "v": 118, 
                            "dur": 640.0, 
                            "type": "note", 
                            "channel": 0
                        }, 
                        {
                            "pitch": 61, 
                            "t0": 28000.0, 
                            "v": 76, 
                            "dur": 640.0, 
                            "type": "note", 
                            "channel": 0
                        }
                    ]
                ], 
                [
                    28800.0, 
                    [
                        {
                            "pitch": 24, 
                            "t0": 28800.0, 
                            "v": 32, 
                            "dur": 640.0, 
                            "type": "note", 
                            "channel": 0
                        }, 
                        {
                            "pitch": 36, 
                            "t0": 28800.0, 
                            "v": 99, 
                            "dur": 640.0, 
                            "type": "note", 
                            "channel": 0
                        }, 
                        {
                            "pitch": 48, 
                            "t0": 28800.0, 
                            "v": 119, 
                            "dur": 640.0, 
                            "type": "note", 
                            "channel": 0
                        }, 
                        {
                            "pitch": 60, 
                            "t0": 28800.0, 
                            "v": 81, 
                            "dur": 640.0, 
                            "type": "note", 
                            "channel": 0
                        }, 
                        {
                            "pitch": 72, 
                            "t0": 28800.0, 
                            "v": 4, 
                            "dur": 640.0, 
                            "type": "note", 
                            "channel": 0
                        }
                    ]
                ], 
                [
                    29600.0, 
                    [
                        {
                            "pitch": 25, 
                            "t0": 29600.0, 
                            "v": 39, 
                            "dur": 640.0, 
                            "type": "note", 
                            "channel": 0
                        }, 
                        {
                            "pitch": 37, 
                            "t0": 29600.0, 
                            "v": 103, 
                            "dur": 640.0, 
                            "type": "note", 
                            "channel": 0
                        }, 
                        {
                            "pitch": 49, 
                            "t0": 29600.0, 
                            "v": 118, 
                            "dur": 640.0, 
                            "type": "note", 
                            "channel": 0
                        }, 
                        {
                            "pitch": 61, 
                            "t0": 29600.0, 
                            "v": 76, 
                            "dur": 640.0, 
                            "type": "note", 
                            "channel": 0
                        }
                    ]
                ], 
                [
                    30400.0, 
                    [
                        {
                            "pitch": 26, 
                            "t0": 30400.0, 
                            "v": 45, 
                            "dur": 640.0, 
                            "type": "note", 
                            "channel": 0
                        }, 
                        {
                            "pitch": 38, 
                            "t0": 30400.0, 
                            "v": 106, 
                            "dur": 640.0, 
                            "type": "note", 
                            "channel": 0
                        }, 
                        {
                            "pitch": 50, 
                            "t0": 30400.0, 
                            "v": 116, 
                            "dur": 640.0, 
                            "type": "note", 
                            "channel": 0
                        }, 
                        {
                            "pitch": 62, 
                            "t0": 30400.0, 
                            "v": 70, 
                            "dur": 640.0, 
                            "type": "note", 
                            "channel": 0
                        }
                    ]
                ], 
                [
                    31200.0, 
                    [
                        {
                            "pitch": 25, 
                            "t0": 31200.0, 
                            "v": 39, 
                            "dur": 640.0, 
                            "type": "note", 
                            "channel": 0
                        }, 
                        {
                            "pitch": 37, 
                            "t0": 31200.0, 
                            "v": 103, 
                            "dur": 640.0, 
                            "type": "note", 
                            "channel": 0
                        }, 
                        {
                            "pitch": 49, 
                            "t0": 31200.0, 
                            "v": 118, 
                            "dur": 640.0, 
                            "type": "note", 
                            "channel": 0
                        }, 
                        {
                            "pitch": 61, 
                            "t0": 31200.0, 
                            "v": 76, 
                            "dur": 640.0, 
                            "type": "note", 
                            "channel": 0
                        }
                    ]
                ], 
                [
                    32000.0, 
                    [
                        {
                            "pitch": 26, 
                            "t0": 32000.0, 
                            "v": 45, 
                            "dur": 640.0, 
                            "type": "note", 
                            "channel": 0
                        }, 
                        {
                            "pitch": 38, 
                            "t0": 32000.0, 
                            "v": 106, 
                            "dur": 640.0, 
                            "type": "note", 
                            "channel": 0
                        }, 
                        {
                            "pitch": 50, 
                            "t0": 32000.0, 
                            "v": 116, 
                            "dur": 640.0, 
                            "type": "note", 
                            "channel": 0
                        }, 
                        {
                            "pitch": 62, 
                            "t0": 32000.0, 
                            "v": 70, 
                            "dur": 640.0, 
                            "type": "note", 
                            "channel": 0
                        }
                    ]
                ], 
                [
                    32800.0, 
                    [
                        {
                            "pitch": 27, 
                            "t0": 32800.0, 
                            "v": 52, 
                            "dur": 640.0, 
                            "type": "note", 
                            "channel": 0
                        }, 
                        {
                            "pitch": 39, 
                            "t0": 32800.0, 
                            "v": 109, 
                            "dur": 640.0, 
                            "type": "note", 
                            "channel": 0
                        }, 
                        {
                            "pitch": 51, 
                            "t0": 32800.0, 
                            "v": 114, 
                            "dur": 640.0, 
                            "type": "note", 
                            "channel": 0
                        }, 
                        {
                            "pitch": 63, 
                            "t0": 32800.0, 
                            "v": 64, 
                            "dur": 640.0, 
                            "type": "note", 
                            "channel": 0
                        }
                    ]
                ], 
                [
                    33600.0, 
                    [
                        {
                            "pitch": 26, 
                            "t0": 33600.0, 
                            "v": 45, 
                            "dur": 640.0, 
                            "type": "note", 
                            "channel": 0
                        }, 
                        {
                            "pitch": 38, 
                            "t0": 33600.0, 
                            "v": 106, 
                            "dur": 640.0, 
                            "type": "note", 
                            "channel": 0
                        }, 
                        {
                            "pitch": 50, 
                            "t0": 33600.0, 
                            "v": 116, 
                            "dur": 640.0, 
                            "type": "note", 
                            "channel": 0
                        }, 
                        {
                            "pitch": 62, 
                            "t0": 33600.0, 
                            "v": 70, 
                            "dur": 640.0, 
                            "type": "note", 
                            "channel": 0
                        }
                    ]
                ], 
                [
                    34400.0, 
                    [
                        {
                            "pitch": 27, 
                            "t0": 34400.0, 
                            "v": 52, 
                            "dur": 640.0, 
                            "type": "note", 
                            "channel": 0
                        }, 
                        {
                            "pitch": 39, 
                            "t0": 34400.0, 
                            "v": 109, 
                            "dur": 640.0, 
                            "type": "note", 
                            "channel": 0
                        }, 
                        {
                            "pitch": 51, 
                            "t0": 34400.0, 
                            "v": 114, 
                            "dur": 640.0, 
                            "type": "note", 
                            "channel": 0
                        }, 
                        {
                            "pitch": 63, 
                            "t0": 34400.0, 
                            "v": 64, 
                            "dur": 640.0, 
                            "type": "note", 
                            "channel": 0
                        }
                    ]
                ], 
                [
                    35200.0, 
                    [
                        {
                            "pitch": 28, 
                            "t0": 35200.0, 
                            "v": 58, 
                            "dur": 640.0, 
                            "type": "note", 
                            "channel": 0
                        }, 
                        {
                            "pitch": 40, 
                            "t0": 35200.0, 
                            "v": 112, 
                            "dur": 640.0, 
                            "type": "note", 
                            "channel": 0
                        }, 
                        {
                            "pitch": 52, 
                            "t0": 35200.0, 
                            "v": 112, 
                            "dur": 640.0, 
                            "type": "note", 
                            "channel": 0
                        }, 
                        {
                            "pitch": 64, 
                            "t0": 35200.0, 
                            "v": 58, 
                            "dur": 640.0, 
                            "type": "note", 
                            "channel": 0
                        }
                    ]
                ], 
                [
                    36000.0, 
                    [
                        {
                            "pitch": 27, 
                            "t0": 36000.0, 
                            "v": 52, 
                            "dur": 640.0, 
                            "type": "note", 
                            "channel": 0
                        }, 
                        {
                            "pitch": 39, 
                            "t0": 36000.0, 
                            "v": 109, 
                            "dur": 640.0, 
                            "type": "note", 
                            "channel": 0
                        }, 
                        {
                            "pitch": 51, 
                            "t0": 36000.0, 
                            "v": 114, 
                            "dur": 640.0, 
                            "type": "note", 
                            "channel": 0
                        }, 
                        {
                            "pitch": 63, 
                            "t0": 36000.0, 
                            "v": 64, 
                            "dur": 640.0, 
                            "type": "note", 
                            "channel": 0
                        }
                    ]
                ], 
                [
                    36800.0, 
                    [
                        {
                            "pitch": 28, 
                            "t0": 36800.0, 
                            "v": 58, 
                            "dur": 640.0, 
                            "type": "note", 
                            "channel": 0
                        }, 
                        {
                            "pitch": 40, 
                            "t0": 36800.0, 
                            "v": 112, 
                            "dur": 640.0, 
                            "type": "note", 
                            "channel": 0
                        }, 
                        {
                            "pitch": 52, 
                            "t0": 36800.0, 
                            "v": 112, 
                            "dur": 640.0, 
                            "type": "note", 
                            "channel": 0
                        }, 
                        {
                            "pitch": 64, 
                            "t0": 36800.0, 
                            "v": 58, 
                            "dur": 640.0, 
                            "type": "note", 
                            "channel": 0
                        }
                    ]
                ], 
                [
                    37600.0, 
                    [
                        {
                            "pitch": 29, 
                            "t0": 37600.0, 
                            "v": 64, 
                            "dur": 640.0, 
                            "type": "note", 
                            "channel": 0
                        }, 
                        {
                            "pitch": 41, 
                            "t0": 37600.0, 
                            "v": 114, 
                            "dur": 640.0, 
                            "type": "note", 
                            "channel": 0
                        }, 
                        {
                            "pitch": 53, 
                            "t0": 37600.0, 
                            "v": 109, 
                            "dur": 640.0, 
                            "type": "note", 
                            "channel": 0
                        }, 
                        {
                            "pitch": 65, 
                            "t0": 37600.0, 
                            "v": 52, 
                            "dur": 640.0, 
                            "type": "note", 
                            "channel": 0
                        }
                    ]
                ], 
                [
                    38400.0, 
                    [
                        {
                            "pitch": 28, 
                            "t0": 38400.0, 
                            "v": 58, 
                            "dur": 640.0, 
                            "type": "note", 
                            "channel": 0
                        }, 
                        {
                            "pitch": 40, 
                            "t0": 38400.0, 
                            "v": 112, 
                            "dur": 640.0, 
                            "type": "note", 
                            "channel": 0
                        }, 
                        {
                            "pitch": 52, 
                            "t0": 38400.0, 
                            "v": 112, 
                            "dur": 640.0, 
                            "type": "note", 
                            "channel": 0
                        }, 
                        {
                            "pitch": 64, 
                            "t0": 38400.0, 
                            "v": 58, 
                            "dur": 640.0, 
                            "type": "note", 
                            "channel": 0
                        }
                    ]
                ], 
                [
                    39200.0, 
                    [
                        {
                            "pitch": 29, 
                            "t0": 39200.0, 
                            "v": 64, 
                            "dur": 640.0, 
                            "type": "note", 
                            "channel": 0
                        }, 
                        {
                            "pitch": 41, 
                            "t0": 39200.0, 
                            "v": 114, 
                            "dur": 640.0, 
                            "type": "note", 
                            "channel": 0
                        }, 
                        {
                            "pitch": 53, 
                            "t0": 39200.0, 
                            "v": 109, 
                            "dur": 640.0, 
                            "type": "note", 
                            "channel": 0
                        }, 
                        {
                            "pitch": 65, 
                            "t0": 39200.0, 
                            "v": 52, 
                            "dur": 640.0, 
                            "type": "note", 
                            "channel": 0
                        }
                    ]
                ], 
                [
                    40000.0, 
                    [
                        {
                            "pitch": 30, 
                            "t0": 40000.0, 
                            "v": 70, 
                            "dur": 640.0, 
                            "type": "note", 
                            "channel": 0
                        }, 
                        {
                            "pitch": 42, 
                            "t0": 40000.0, 
                            "v": 116, 
                            "dur": 640.0, 
                            "type": "note", 
                            "channel": 0
                        }, 
                        {
                            "pitch": 54, 
                            "t0": 40000.0, 
                            "v": 106, 
                            "dur": 640.0, 
                            "type": "note", 
                            "channel": 0
                        }, 
                        {
                            "pitch": 66, 
                            "t0": 40000.0, 
                            "v": 45, 
                            "dur": 640.0, 
                            "type": "note", 
                            "channel": 0
                        }
                    ]
                ], 
                [
                    40800.0, 
                    [
                        {
                            "pitch": 29, 
                            "t0": 40800.0, 
                            "v": 64, 
                            "dur": 640.0, 
                            "type": "note", 
                            "channel": 0
                        }, 
                        {
                            "pitch": 41, 
                            "t0": 40800.0, 
                            "v": 114, 
                            "dur": 640.0, 
                            "type": "note", 
                            "channel": 0
                        }, 
                        {
                            "pitch": 53, 
                            "t0": 40800.0, 
                            "v": 109, 
                            "dur": 640.0, 
                            "type": "note", 
                            "channel": 0
                        }, 
                        {
                            "pitch": 65, 
                            "t0": 40800.0, 
                            "v": 52, 
                            "dur": 640.0, 
                            "type": "note", 
                            "channel": 0
                        }
                    ]
                ], 
                [
                    41600.0, 
                    [
                        {
                            "pitch": 30, 
                            "t0": 41600.0, 
                            "v": 70, 
                            "dur": 640.0, 
                            "type": "note", 
                            "channel": 0
                        }, 
                        {
                            "pitch": 42, 
                            "t0": 41600.0, 
                            "v": 116, 
                            "dur": 640.0, 
                            "type": "note", 
                            "channel": 0
                        }, 
                        {
                            "pitch": 54, 
                            "t0": 41600.0, 
                            "v": 106, 
                            "dur": 640.0, 
                            "type": "note", 
                            "channel": 0
                        }, 
                        {
                            "pitch": 66, 
                            "t0": 41600.0, 
                            "v": 45, 
                            "dur": 640.0, 
                            "type": "note", 
                            "channel": 0
                        }
                    ]
                ], 
                [
                    42400.0, 
                    [
                        {
                            "pitch": 31, 
                            "t0": 42400.0, 
                            "v": 76, 
                            "dur": 640.0, 
                            "type": "note", 
                            "channel": 0
                        }, 
                        {
                            "pitch": 43, 
                            "t0": 42400.0, 
                            "v": 118, 
                            "dur": 640.0, 
                            "type": "note", 
                            "channel": 0
                        }, 
                        {
                            "pitch": 55, 
                            "t0": 42400.0, 
                            "v": 103, 
                            "dur": 640.0, 
                            "type": "note", 
                            "channel": 0
                        }, 
                        {
                            "pitch": 67, 
                            "t0": 42400.0, 
                            "v": 39, 
                            "dur": 640.0, 
                            "type": "note", 
                            "channel": 0
                        }
                    ]
                ], 
                [
                    43200.0, 
                    [
                        {
                            "pitch": 30, 
                            "t0": 43200.0, 
                            "v": 70, 
                            "dur": 640.0, 
                            "type": "note", 
                            "channel": 0
                        }, 
                        {
                            "pitch": 42, 
                            "t0": 43200.0, 
                            "v": 116, 
                            "dur": 640.0, 
                            "type": "note", 
                            "channel": 0
                        }, 
                        {
                            "pitch": 54, 
                            "t0": 43200.0, 
                            "v": 106, 
                            "dur": 640.0, 
                            "type": "note", 
                            "channel": 0
                        }, 
                        {
                            "pitch": 66, 
                            "t0": 43200.0, 
                            "v": 45, 
                            "dur": 640.0, 
                            "type": "note", 
                            "channel": 0
                        }
                    ]
                ], 
                [
                    44000.0, 
                    [
                        {
                            "pitch": 31, 
                            "t0": 44000.0, 
                            "v": 76, 
                            "dur": 640.0, 
                            "type": "note", 
                            "channel": 0
                        }, 
                        {
                            "pitch": 43, 
                            "t0": 44000.0, 
                            "v": 118, 
                            "dur": 640.0, 
                            "type": "note", 
                            "channel": 0
                        }, 
                        {
                            "pitch": 55, 
                            "t0": 44000.0, 
                            "v": 103, 
                            "dur": 640.0, 
                            "type": "note", 
                            "channel": 0
                        }, 
                        {
                            "pitch": 67, 
                            "t0": 44000.0, 
                            "v": 39, 
                            "dur": 640.0, 
                            "type": "note", 
                            "channel": 0
                        }
                    ]
                ], 
                [
                    44800.0, 
                    [
                        {
                            "pitch": 32, 
                            "t0": 44800.0, 
                            "v": 81, 
                            "dur": 640.0, 
                            "type": "note", 
                            "channel": 0
                        }, 
                        {
                            "pitch": 44, 
                            "t0": 44800.0, 
                            "v": 119, 
                            "dur": 640.0, 
                            "type": "note", 
                            "channel": 0
                        }, 
                        {
                            "pitch": 56, 
                            "t0": 44800.0, 
                            "v": 99, 
                            "dur": 640.0, 
                            "type": "note", 
                            "channel": 0
                        }, 
                        {
                            "pitch": 68, 
                            "t0": 44800.0, 
                            "v": 32, 
                            "dur": 640.0, 
                            "type": "note", 
                            "channel": 0
                        }
                    ]
                ], 
                [
                    45600.0, 
                    [
                        {
                            "pitch": 31, 
                            "t0": 45600.0, 
                            "v": 76, 
                            "dur": 640.0, 
                            "type": "note", 
                            "channel": 0
                        }, 
                        {
                            "pitch": 43, 
                            "t0": 45600.0, 
                            "v": 118, 
                            "dur": 640.0, 
                            "type": "note", 
                            "channel": 0
                        }, 
                        {
                            "pitch": 55, 
                            "t0": 45600.0, 
                            "v": 103, 
                            "dur": 640.0, 
                            "type": "note", 
                            "channel": 0
                        }, 
                        {
                            "pitch": 67, 
                            "t0": 45600.0, 
                            "v": 39, 
                            "dur": 640.0, 
                            "type": "note", 
                            "channel": 0
                        }
                    ]
                ], 
                [
                    46400.0, 
                    [
                        {
                            "pitch": 32, 
                            "t0": 46400.0, 
                            "v": 81, 
                            "dur": 640.0, 
                            "type": "note", 
                            "channel": 0
                        }, 
                        {
                            "pitch": 44, 
                            "t0": 46400.0, 
                            "v": 119, 
                            "dur": 640.0, 
                            "type": "note", 
                            "channel": 0
                        }, 
                        {
                            "pitch": 56, 
                            "t0": 46400.0, 
                            "v": 99, 
                            "dur": 640.0, 
                            "type": "note", 
                            "channel": 0
                        }, 
                        {
                            "pitch": 68, 
                            "t0": 46400.0, 
                            "v": 32, 
                            "dur": 640.0, 
                            "type": "note", 
                            "channel": 0
                        }
                    ]
                ], 
                [
                    47200.0, 
                    [
                        {
                            "pitch": 33, 
                            "t0": 47200.0, 
                            "v": 86, 
                            "dur": 640.0, 
                            "type": "note", 
                            "channel": 0
                        }, 
                        {
                            "pitch": 45, 
                            "t0": 47200.0, 
                            "v": 119, 
                            "dur": 640.0, 
                            "type": "note", 
                            "channel": 0
                        }, 
                        {
                            "pitch": 57, 
                            "t0": 47200.0, 
                            "v": 95, 
                            "dur": 640.0, 
                            "type": "note", 
                            "channel": 0
                        }, 
                        {
                            "pitch": 69, 
                            "t0": 47200.0, 
                            "v": 25, 
                            "dur": 640.0, 
                            "type": "note", 
                            "channel": 0
                        }
                    ]
                ], 
                [
                    48000.0, 
                    [
                        {
                            "pitch": 32, 
                            "t0": 48000.0, 
                            "v": 81, 
                            "dur": 640.0, 
                            "type": "note", 
                            "channel": 0
                        }, 
                        {
                            "pitch": 44, 
                            "t0": 48000.0, 
                            "v": 119, 
                            "dur": 640.0, 
                            "type": "note", 
                            "channel": 0
                        }, 
                        {
                            "pitch": 56, 
                            "t0": 48000.0, 
                            "v": 99, 
                            "dur": 640.0, 
                            "type": "note", 
                            "channel": 0
                        }, 
                        {
                            "pitch": 68, 
                            "t0": 48000.0, 
                            "v": 32, 
                            "dur": 640.0, 
                            "type": "note", 
                            "channel": 0
                        }
                    ]
                ], 
                [
                    48800.0, 
                    [
                        {
                            "pitch": 33, 
                            "t0": 48800.0, 
                            "v": 86, 
                            "dur": 640.0, 
                            "type": "note", 
                            "channel": 0
                        }, 
                        {
                            "pitch": 45, 
                            "t0": 48800.0, 
                            "v": 119, 
                            "dur": 640.0, 
                            "type": "note", 
                            "channel": 0
                        }, 
                        {
                            "pitch": 57, 
                            "t0": 48800.0, 
                            "v": 95, 
                            "dur": 640.0, 
                            "type": "note", 
                            "channel": 0
                        }, 
                        {
                            "pitch": 69, 
                            "t0": 48800.0, 
                            "v": 25, 
                            "dur": 640.0, 
                            "type": "note", 
                            "channel": 0
                        }
                    ]
                ], 
                [
                    49600.0, 
                    [
                        {
                            "pitch": 23, 
                            "t0": 49600.0, 
                            "v": 25, 
                            "dur": 640.0, 
                            "type": "note", 
                            "channel": 0
                        }, 
                        {
                            "pitch": 35, 
                            "t0": 49600.0, 
                            "v": 95, 
                            "dur": 640.0, 
                            "type": "note", 
                            "channel": 0
                        }, 
                        {
                            "pitch": 47, 
                            "t0": 49600.0, 
                            "v": 119, 
                            "dur": 640.0, 
                            "type": "note", 
                            "channel": 0
                        }, 
                        {
                            "pitch": 59, 
                            "t0": 49600.0, 
                            "v": 86, 
                            "dur": 640.0, 
                            "type": "note", 
                            "channel": 0
                        }, 
                        {
                            "pitch": 71, 
                            "t0": 49600.0, 
                            "v": 11, 
                            "dur": 640.0, 
                            "type": "note", 
                            "channel": 0
                        }
                    ]
                ], 
                [
                    50400.0, 
                    [
                        {
                            "pitch": 33, 
                            "t0": 50400.0, 
                            "v": 86, 
                            "dur": 640.0, 
                            "type": "note", 
                            "channel": 0
                        }, 
                        {
                            "pitch": 45, 
                            "t0": 50400.0, 
                            "v": 119, 
                            "dur": 640.0, 
                            "type": "note", 
                            "channel": 0
                        }, 
                        {
                            "pitch": 57, 
                            "t0": 50400.0, 
                            "v": 95, 
                            "dur": 640.0, 
                            "type": "note", 
                            "channel": 0
                        }, 
                        {
                            "pitch": 69, 
                            "t0": 50400.0, 
                            "v": 25, 
                            "dur": 640.0, 
                            "type": "note", 
                            "channel": 0
                        }
                    ]
                ], 
                [
                    51200.0, 
                    [
                        {
                            "pitch": 23, 
                            "t0": 51200.0, 
                            "v": 25, 
                            "dur": 640.0, 
                            "type": "note", 
                            "channel": 0
                        }, 
                        {
                            "pitch": 35, 
                            "t0": 51200.0, 
                            "v": 95, 
                            "dur": 640.0, 
                            "type": "note", 
                            "channel": 0
                        }, 
                        {
                            "pitch": 47, 
                            "t0": 51200.0, 
                            "v": 119, 
                            "dur": 640.0, 
                            "type": "note", 
                            "channel": 0
                        }, 
                        {
                            "pitch": 59, 
                            "t0": 51200.0, 
                            "v": 86, 
                            "dur": 640.0, 
                            "type": "note", 
                            "channel": 0
                        }, 
                        {
                            "pitch": 71, 
                            "t0": 51200.0, 
                            "v": 11, 
                            "dur": 640.0, 
                            "type": "note", 
                            "channel": 0
                        }
                    ]
                ], 
                [
                    52000.0, 
                    [
                        {
                            "pitch": 24, 
                            "t0": 52000.0, 
                            "v": 32, 
                            "dur": 640.0, 
                            "type": "note", 
                            "channel": 0
                        }, 
                        {
                            "pitch": 36, 
                            "t0": 52000.0, 
                            "v": 99, 
                            "dur": 640.0, 
                            "type": "note", 
                            "channel": 0
                        }, 
                        {
                            "pitch": 48, 
                            "t0": 52000.0, 
                            "v": 119, 
                            "dur": 640.0, 
                            "type": "note", 
                            "channel": 0
                        }, 
                        {
                            "pitch": 60, 
                            "t0": 52000.0, 
                            "v": 81, 
                            "dur": 640.0, 
                            "type": "note", 
                            "channel": 0
                        }, 
                        {
                            "pitch": 72, 
                            "t0": 52000.0, 
                            "v": 4, 
                            "dur": 640.0, 
                            "type": "note", 
                            "channel": 0
                        }
                    ]
                ], 
                [
                    52800.0, 
                    [
                        {
                            "pitch": 23, 
                            "t0": 52800.0, 
                            "v": 25, 
                            "dur": 640.0, 
                            "type": "note", 
                            "channel": 0
                        }, 
                        {
                            "pitch": 35, 
                            "t0": 52800.0, 
                            "v": 95, 
                            "dur": 640.0, 
                            "type": "note", 
                            "channel": 0
                        }, 
                        {
                            "pitch": 47, 
                            "t0": 52800.0, 
                            "v": 119, 
                            "dur": 640.0, 
                            "type": "note", 
                            "channel": 0
                        }, 
                        {
                            "pitch": 59, 
                            "t0": 52800.0, 
                            "v": 86, 
                            "dur": 640.0, 
                            "type": "note", 
                            "channel": 0
                        }, 
                        {
                            "pitch": 71, 
                            "t0": 52800.0, 
                            "v": 11, 
                            "dur": 640.0, 
                            "type": "note", 
                            "channel": 0
                        }
                    ]
                ], 
                [
                    53600.0, 
                    [
                        {
                            "pitch": 24, 
                            "t0": 53600.0, 
                            "v": 32, 
                            "dur": 640.0, 
                            "type": "note", 
                            "channel": 0
                        }, 
                        {
                            "pitch": 36, 
                            "t0": 53600.0, 
                            "v": 99, 
                            "dur": 640.0, 
                            "type": "note", 
                            "channel": 0
                        }, 
                        {
                            "pitch": 48, 
                            "t0": 53600.0, 
                            "v": 119, 
                            "dur": 640.0, 
                            "type": "note", 
                            "channel": 0
                        }, 
                        {
                            "pitch": 60, 
                            "t0": 53600.0, 
                            "v": 81, 
                            "dur": 640.0, 
                            "type": "note", 
                            "channel": 0
                        }, 
                        {
                            "pitch": 72, 
                            "t0": 53600.0, 
                            "v": 4, 
                            "dur": 640.0, 
                            "type": "note", 
                            "channel": 0
                        }
                    ]
                ], 
                [
                    54400.0, 
                    [
                        {
                            "pitch": 25, 
                            "t0": 54400.0, 
                            "v": 39, 
                            "dur": 640.0, 
                            "type": "note", 
                            "channel": 0
                        }, 
                        {
                            "pitch": 37, 
                            "t0": 54400.0, 
                            "v": 103, 
                            "dur": 640.0, 
                            "type": "note", 
                            "channel": 0
                        }, 
                        {
                            "pitch": 49, 
                            "t0": 54400.0, 
                            "v": 118, 
                            "dur": 640.0, 
                            "type": "note", 
                            "channel": 0
                        }, 
                        {
                            "pitch": 61, 
                            "t0": 54400.0, 
                            "v": 76, 
                            "dur": 640.0, 
                            "type": "note", 
                            "channel": 0
                        }
                    ]
                ], 
                [
                    55200.0, 
                    [
                        {
                            "pitch": 24, 
                            "t0": 55200.0, 
                            "v": 32, 
                            "dur": 640.0, 
                            "type": "note", 
                            "channel": 0
                        }, 
                        {
                            "pitch": 36, 
                            "t0": 55200.0, 
                            "v": 99, 
                            "dur": 640.0, 
                            "type": "note", 
                            "channel": 0
                        }, 
                        {
                            "pitch": 48, 
                            "t0": 55200.0, 
                            "v": 119, 
                            "dur": 640.0, 
                            "type": "note", 
                            "channel": 0
                        }, 
                        {
                            "pitch": 60, 
                            "t0": 55200.0, 
                            "v": 81, 
                            "dur": 640.0, 
                            "type": "note", 
                            "channel": 0
                        }, 
                        {
                            "pitch": 72, 
                            "t0": 55200.0, 
                            "v": 4, 
                            "dur": 640.0, 
                            "type": "note", 
                            "channel": 0
                        }
                    ]
                ], 
                [
                    56000.0, 
                    [
                        {
                            "pitch": 25, 
                            "t0": 56000.0, 
                            "v": 39, 
                            "dur": 640.0, 
                            "type": "note", 
                            "channel": 0
                        }, 
                        {
                            "pitch": 37, 
                            "t0": 56000.0, 
                            "v": 103, 
                            "dur": 640.0, 
                            "type": "note", 
                            "channel": 0
                        }, 
                        {
                            "pitch": 49, 
                            "t0": 56000.0, 
                            "v": 118, 
                            "dur": 640.0, 
                            "type": "note", 
                            "channel": 0
                        }, 
                        {
                            "pitch": 61, 
                            "t0": 56000.0, 
                            "v": 76, 
                            "dur": 640.0, 
                            "type": "note", 
                            "channel": 0
                        }
                    ]
                ], 
                [
                    56800.0, 
                    [
                        {
                            "pitch": 26, 
                            "t0": 56800.0, 
                            "v": 45, 
                            "dur": 640.0, 
                            "type": "note", 
                            "channel": 0
                        }, 
                        {
                            "pitch": 38, 
                            "t0": 56800.0, 
                            "v": 106, 
                            "dur": 640.0, 
                            "type": "note", 
                            "channel": 0
                        }, 
                        {
                            "pitch": 50, 
                            "t0": 56800.0, 
                            "v": 116, 
                            "dur": 640.0, 
                            "type": "note", 
                            "channel": 0
                        }, 
                        {
                            "pitch": 62, 
                            "t0": 56800.0, 
                            "v": 70, 
                            "dur": 640.0, 
                            "type": "note", 
                            "channel": 0
                        }
                    ]
                ], 
                [
                    57600.0, 
                    [
                        {
                            "pitch": 25, 
                            "t0": 57600.0, 
                            "v": 39, 
                            "dur": 640.0, 
                            "type": "note", 
                            "channel": 0
                        }, 
                        {
                            "pitch": 37, 
                            "t0": 57600.0, 
                            "v": 103, 
                            "dur": 640.0, 
                            "type": "note", 
                            "channel": 0
                        }, 
                        {
                            "pitch": 49, 
                            "t0": 57600.0, 
                            "v": 118, 
                            "dur": 640.0, 
                            "type": "note", 
                            "channel": 0
                        }, 
                        {
                            "pitch": 61, 
                            "t0": 57600.0, 
                            "v": 76, 
                            "dur": 640.0, 
                            "type": "note", 
                            "channel": 0
                        }
                    ]
                ], 
                [
                    58400.0, 
                    [
                        {
                            "pitch": 26, 
                            "t0": 58400.0, 
                            "v": 45, 
                            "dur": 640.0, 
                            "type": "note", 
                            "channel": 0
                        }, 
                        {
                            "pitch": 38, 
                            "t0": 58400.0, 
                            "v": 106, 
                            "dur": 640.0, 
                            "type": "note", 
                            "channel": 0
                        }, 
                        {
                            "pitch": 50, 
                            "t0": 58400.0, 
                            "v": 116, 
                            "dur": 640.0, 
                            "type": "note", 
                            "channel": 0
                        }, 
                        {
                            "pitch": 62, 
                            "t0": 58400.0, 
                            "v": 70, 
                            "dur": 640.0, 
                            "type": "note", 
                            "channel": 0
                        }
                    ]
                ], 
                [
                    59200.0, 
                    [
                        {
                            "pitch": 27, 
                            "t0": 59200.0, 
                            "v": 52, 
                            "dur": 640.0, 
                            "type": "note", 
                            "channel": 0
                        }, 
                        {
                            "pitch": 39, 
                            "t0": 59200.0, 
                            "v": 109, 
                            "dur": 640.0, 
                            "type": "note", 
                            "channel": 0
                        }, 
                        {
                            "pitch": 51, 
                            "t0": 59200.0, 
                            "v": 114, 
                            "dur": 640.0, 
                            "type": "note", 
                            "channel": 0
                        }, 
                        {
                            "pitch": 63, 
                            "t0": 59200.0, 
                            "v": 64, 
                            "dur": 640.0, 
                            "type": "note", 
                            "channel": 0
                        }
                    ]
                ], 
                [
                    60000.0, 
                    [
                        {
                            "pitch": 26, 
                            "t0": 60000.0, 
                            "v": 45, 
                            "dur": 640.0, 
                            "type": "note", 
                            "channel": 0
                        }, 
                        {
                            "pitch": 38, 
                            "t0": 60000.0, 
                            "v": 106, 
                            "dur": 640.0, 
                            "type": "note", 
                            "channel": 0
                        }, 
                        {
                            "pitch": 50, 
                            "t0": 60000.0, 
                            "v": 116, 
                            "dur": 640.0, 
                            "type": "note", 
                            "channel": 0
                        }, 
                        {
                            "pitch": 62, 
                            "t0": 60000.0, 
                            "v": 70, 
                            "dur": 640.0, 
                            "type": "note", 
                            "channel": 0
                        }
                    ]
                ], 
                [
                    60800.0, 
                    [
                        {
                            "pitch": 27, 
                            "t0": 60800.0, 
                            "v": 52, 
                            "dur": 640.0, 
                            "type": "note", 
                            "channel": 0
                        }, 
                        {
                            "pitch": 39, 
                            "t0": 60800.0, 
                            "v": 109, 
                            "dur": 640.0, 
                            "type": "note", 
                            "channel": 0
                        }, 
                        {
                            "pitch": 51, 
                            "t0": 60800.0, 
                            "v": 114, 
                            "dur": 640.0, 
                            "type": "note", 
                            "channel": 0
                        }, 
                        {
                            "pitch": 63, 
                            "t0": 60800.0, 
                            "v": 64, 
                            "dur": 640.0, 
                            "type": "note", 
                            "channel": 0
                        }
                    ]
                ], 
                [
                    61600.0, 
                    [
                        {
                            "pitch": 28, 
                            "t0": 61600.0, 
                            "v": 58, 
                            "dur": 640.0, 
                            "type": "note", 
                            "channel": 0
                        }, 
                        {
                            "pitch": 40, 
                            "t0": 61600.0, 
                            "v": 112, 
                            "dur": 640.0, 
                            "type": "note", 
                            "channel": 0
                        }, 
                        {
                            "pitch": 52, 
                            "t0": 61600.0, 
                            "v": 112, 
                            "dur": 640.0, 
                            "type": "note", 
                            "channel": 0
                        }, 
                        {
                            "pitch": 64, 
                            "t0": 61600.0, 
                            "v": 58, 
                            "dur": 640.0, 
                            "type": "note", 
                            "channel": 0
                        }
                    ]
                ], 
                [
                    62400.0, 
                    [
                        {
                            "pitch": 27, 
                            "t0": 62400.0, 
                            "v": 52, 
                            "dur": 640.0, 
                            "type": "note", 
                            "channel": 0
                        }, 
                        {
                            "pitch": 39, 
                            "t0": 62400.0, 
                            "v": 109, 
                            "dur": 640.0, 
                            "type": "note", 
                            "channel": 0
                        }, 
                        {
                            "pitch": 51, 
                            "t0": 62400.0, 
                            "v": 114, 
                            "dur": 640.0, 
                            "type": "note", 
                            "channel": 0
                        }, 
                        {
                            "pitch": 63, 
                            "t0": 62400.0, 
                            "v": 64, 
                            "dur": 640.0, 
                            "type": "note", 
                            "channel": 0
                        }
                    ]
                ], 
                [
                    63200.0, 
                    [
                        {
                            "pitch": 28, 
                            "t0": 63200.0, 
                            "v": 58, 
                            "dur": 640.0, 
                            "type": "note", 
                            "channel": 0
                        }, 
                        {
                            "pitch": 40, 
                            "t0": 63200.0, 
                            "v": 112, 
                            "dur": 640.0, 
                            "type": "note", 
                            "channel": 0
                        }, 
                        {
                            "pitch": 52, 
                            "t0": 63200.0, 
                            "v": 112, 
                            "dur": 640.0, 
                            "type": "note", 
                            "channel": 0
                        }, 
                        {
                            "pitch": 64, 
                            "t0": 63200.0, 
                            "v": 58, 
                            "dur": 640.0, 
                            "type": "note", 
                            "channel": 0
                        }
                    ]
                ], 
                [
                    64000.0, 
                    [
                        {
                            "pitch": 29, 
                            "t0": 64000.0, 
                            "v": 64, 
                            "dur": 640.0, 
                            "type": "note", 
                            "channel": 0
                        }, 
                        {
                            "pitch": 41, 
                            "t0": 64000.0, 
                            "v": 114, 
                            "dur": 640.0, 
                            "type": "note", 
                            "channel": 0
                        }, 
                        {
                            "pitch": 53, 
                            "t0": 64000.0, 
                            "v": 109, 
                            "dur": 640.0, 
                            "type": "note", 
                            "channel": 0
                        }, 
                        {
                            "pitch": 65, 
                            "t0": 64000.0, 
                            "v": 52, 
                            "dur": 640.0, 
                            "type": "note", 
                            "channel": 0
                        }
                    ]
                ], 
                [
                    64800.0, 
                    [
                        {
                            "pitch": 28, 
                            "t0": 64800.0, 
                            "v": 58, 
                            "dur": 640.0, 
                            "type": "note", 
                            "channel": 0
                        }, 
                        {
                            "pitch": 40, 
                            "t0": 64800.0, 
                            "v": 112, 
                            "dur": 640.0, 
                            "type": "note", 
                            "channel": 0
                        }, 
                        {
                            "pitch": 52, 
                            "t0": 64800.0, 
                            "v": 112, 
                            "dur": 640.0, 
                            "type": "note", 
                            "channel": 0
                        }, 
                        {
                            "pitch": 64, 
                            "t0": 64800.0, 
                            "v": 58, 
                            "dur": 640.0, 
                            "type": "note", 
                            "channel": 0
                        }
                    ]
                ], 
                [
                    65600.0, 
                    [
                        {
                            "pitch": 29, 
                            "t0": 65600.0, 
                            "v": 64, 
                            "dur": 640.0, 
                            "type": "note", 
                            "channel": 0
                        }, 
                        {
                            "pitch": 41, 
                            "t0": 65600.0, 
                            "v": 114, 
                            "dur": 640.0, 
                            "type": "note", 
                            "channel": 0
                        }, 
                        {
                            "pitch": 53, 
                            "t0": 65600.0, 
                            "v": 109, 
                            "dur": 640.0, 
                            "type": "note", 
                            "channel": 0
                        }, 
                        {
                            "pitch": 65, 
                            "t0": 65600.0, 
                            "v": 52, 
                            "dur": 640.0, 
                            "type": "note", 
                            "channel": 0
                        }
                    ]
                ], 
                [
                    66400.0, 
                    [
                        {
                            "pitch": 30, 
                            "t0": 66400.0, 
                            "v": 70, 
                            "dur": 640.0, 
                            "type": "note", 
                            "channel": 0
                        }, 
                        {
                            "pitch": 42, 
                            "t0": 66400.0, 
                            "v": 116, 
                            "dur": 640.0, 
                            "type": "note", 
                            "channel": 0
                        }, 
                        {
                            "pitch": 54, 
                            "t0": 66400.0, 
                            "v": 106, 
                            "dur": 640.0, 
                            "type": "note", 
                            "channel": 0
                        }, 
                        {
                            "pitch": 66, 
                            "t0": 66400.0, 
                            "v": 45, 
                            "dur": 640.0, 
                            "type": "note", 
                            "channel": 0
                        }
                    ]
                ], 
                [
                    67200.0, 
                    [
                        {
                            "pitch": 29, 
                            "t0": 67200.0, 
                            "v": 64, 
                            "dur": 640.0, 
                            "type": "note", 
                            "channel": 0
                        }, 
                        {
                            "pitch": 41, 
                            "t0": 67200.0, 
                            "v": 114, 
                            "dur": 640.0, 
                            "type": "note", 
                            "channel": 0
                        }, 
                        {
                            "pitch": 53, 
                            "t0": 67200.0, 
                            "v": 109, 
                            "dur": 640.0, 
                            "type": "note", 
                            "channel": 0
                        }, 
                        {
                            "pitch": 65, 
                            "t0": 67200.0, 
                            "v": 52, 
                            "dur": 640.0, 
                            "type": "note", 
                            "channel": 0
                        }
                    ]
                ], 
                [
                    68000.0, 
                    [
                        {
                            "pitch": 30, 
                            "t0": 68000.0, 
                            "v": 70, 
                            "dur": 640.0, 
                            "type": "note", 
                            "channel": 0
                        }, 
                        {
                            "pitch": 42, 
                            "t0": 68000.0, 
                            "v": 116, 
                            "dur": 640.0, 
                            "type": "note", 
                            "channel": 0
                        }, 
                        {
                            "pitch": 54, 
                            "t0": 68000.0, 
                            "v": 106, 
                            "dur": 640.0, 
                            "type": "note", 
                            "channel": 0
                        }, 
                        {
                            "pitch": 66, 
                            "t0": 68000.0, 
                            "v": 45, 
                            "dur": 640.0, 
                            "type": "note", 
                            "channel": 0
                        }
                    ]
                ], 
                [
                    68800.0, 
                    [
                        {
                            "pitch": 31, 
                            "t0": 68800.0, 
                            "v": 76, 
                            "dur": 640.0, 
                            "type": "note", 
                            "channel": 0
                        }, 
                        {
                            "pitch": 43, 
                            "t0": 68800.0, 
                            "v": 118, 
                            "dur": 640.0, 
                            "type": "note", 
                            "channel": 0
                        }, 
                        {
                            "pitch": 55, 
                            "t0": 68800.0, 
                            "v": 103, 
                            "dur": 640.0, 
                            "type": "note", 
                            "channel": 0
                        }, 
                        {
                            "pitch": 67, 
                            "t0": 68800.0, 
                            "v": 39, 
                            "dur": 640.0, 
                            "type": "note", 
                            "channel": 0
                        }
                    ]
                ], 
                [
                    69600.0, 
                    [
                        {
                            "pitch": 30, 
                            "t0": 69600.0, 
                            "v": 70, 
                            "dur": 640.0, 
                            "type": "note", 
                            "channel": 0
                        }, 
                        {
                            "pitch": 42, 
                            "t0": 69600.0, 
                            "v": 116, 
                            "dur": 640.0, 
                            "type": "note", 
                            "channel": 0
                        }, 
                        {
                            "pitch": 54, 
                            "t0": 69600.0, 
                            "v": 106, 
                            "dur": 640.0, 
                            "type": "note", 
                            "channel": 0
                        }, 
                        {
                            "pitch": 66, 
                            "t0": 69600.0, 
                            "v": 45, 
                            "dur": 640.0, 
                            "type": "note", 
                            "channel": 0
                        }
                    ]
                ], 
                [
                    70400.0, 
                    [
                        {
                            "pitch": 31, 
                            "t0": 70400.0, 
                            "v": 76, 
                            "dur": 640.0, 
                            "type": "note", 
                            "channel": 0
                        }, 
                        {
                            "pitch": 43, 
                            "t0": 70400.0, 
                            "v": 118, 
                            "dur": 640.0, 
                            "type": "note", 
                            "channel": 0
                        }, 
                        {
                            "pitch": 55, 
                            "t0": 70400.0, 
                            "v": 103, 
                            "dur": 640.0, 
                            "type": "note", 
                            "channel": 0
                        }, 
                        {
                            "pitch": 67, 
                            "t0": 70400.0, 
                            "v": 39, 
                            "dur": 640.0, 
                            "type": "note", 
                            "channel": 0
                        }
                    ]
                ], 
                [
                    71200.0, 
                    [
                        {
                            "pitch": 32, 
                            "t0": 71200.0, 
                            "v": 81, 
                            "dur": 640.0, 
                            "type": "note", 
                            "channel": 0
                        }, 
                        {
                            "pitch": 44, 
                            "t0": 71200.0, 
                            "v": 119, 
                            "dur": 640.0, 
                            "type": "note", 
                            "channel": 0
                        }, 
                        {
                            "pitch": 56, 
                            "t0": 71200.0, 
                            "v": 99, 
                            "dur": 640.0, 
                            "type": "note", 
                            "channel": 0
                        }, 
                        {
                            "pitch": 68, 
                            "t0": 71200.0, 
                            "v": 32, 
                            "dur": 640.0, 
                            "type": "note", 
                            "channel": 0
                        }
                    ]
                ], 
                [
                    72000.0, 
                    [
                        {
                            "pitch": 31, 
                            "t0": 72000.0, 
                            "v": 76, 
                            "dur": 640.0, 
                            "type": "note", 
                            "channel": 0
                        }, 
                        {
                            "pitch": 43, 
                            "t0": 72000.0, 
                            "v": 118, 
                            "dur": 640.0, 
                            "type": "note", 
                            "channel": 0
                        }, 
                        {
                            "pitch": 55, 
                            "t0": 72000.0, 
                            "v": 103, 
                            "dur": 640.0, 
                            "type": "note", 
                            "channel": 0
                        }, 
                        {
                            "pitch": 67, 
                            "t0": 72000.0, 
                            "v": 39, 
                            "dur": 640.0, 
                            "type": "note", 
                            "channel": 0
                        }
                    ]
                ], 
                [
                    72800.0, 
                    [
                        {
                            "pitch": 32, 
                            "t0": 72800.0, 
                            "v": 81, 
                            "dur": 640.0, 
                            "type": "note", 
                            "channel": 0
                        }, 
                        {
                            "pitch": 44, 
                            "t0": 72800.0, 
                            "v": 119, 
                            "dur": 640.0, 
                            "type": "note", 
                            "channel": 0
                        }, 
                        {
                            "pitch": 56, 
                            "t0": 72800.0, 
                            "v": 99, 
                            "dur": 640.0, 
                            "type": "note", 
                            "channel": 0
                        }, 
                        {
                            "pitch": 68, 
                            "t0": 72800.0, 
                            "v": 32, 
                            "dur": 640.0, 
                            "type": "note", 
                            "channel": 0
                        }
                    ]
                ], 
                [
                    73600.0, 
                    [
                        {
                            "pitch": 33, 
                            "t0": 73600.0, 
                            "v": 86, 
                            "dur": 640.0, 
                            "type": "note", 
                            "channel": 0
                        }, 
                        {
                            "pitch": 45, 
                            "t0": 73600.0, 
                            "v": 119, 
                            "dur": 640.0, 
                            "type": "note", 
                            "channel": 0
                        }, 
                        {
                            "pitch": 57, 
                            "t0": 73600.0, 
                            "v": 95, 
                            "dur": 640.0, 
                            "type": "note", 
                            "channel": 0
                        }, 
                        {
                            "pitch": 69, 
                            "t0": 73600.0, 
                            "v": 25, 
                            "dur": 640.0, 
                            "type": "note", 
                            "channel": 0
                        }
                    ]
                ], 
                [
                    74400.0, 
                    [
                        {
                            "pitch": 32, 
                            "t0": 74400.0, 
                            "v": 81, 
                            "dur": 640.0, 
                            "type": "note", 
                            "channel": 0
                        }, 
                        {
                            "pitch": 44, 
                            "t0": 74400.0, 
                            "v": 119, 
                            "dur": 640.0, 
                            "type": "note", 
                            "channel": 0
                        }, 
                        {
                            "pitch": 56, 
                            "t0": 74400.0, 
                            "v": 99, 
                            "dur": 640.0, 
                            "type": "note", 
                            "channel": 0
                        }, 
                        {
                            "pitch": 68, 
                            "t0": 74400.0, 
                            "v": 32, 
                            "dur": 640.0, 
                            "type": "note", 
                            "channel": 0
                        }
                    ]
                ], 
                [
                    75200.0, 
                    [
                        {
                            "pitch": 33, 
                            "t0": 75200.0, 
                            "v": 86, 
                            "dur": 640.0, 
                            "type": "note", 
                            "channel": 0
                        }, 
                        {
                            "pitch": 45, 
                            "t0": 75200.0, 
                            "v": 119, 
                            "dur": 640.0, 
                            "type": "note", 
                            "channel": 0
                        }, 
                        {
                            "pitch": 57, 
                            "t0": 75200.0, 
                            "v": 95, 
                            "dur": 640.0, 
                            "type": "note", 
                            "channel": 0
                        }, 
                        {
                            "pitch": 69, 
                            "t0": 75200.0, 
                            "v": 25, 
                            "dur": 640.0, 
                            "type": "note", 
                            "channel": 0
                        }
                    ]
                ], 
                [
                    76000.0, 
                    [
                        {
                            "pitch": 23, 
                            "t0": 76000.0, 
                            "v": 25, 
                            "dur": 640.0, 
                            "type": "note", 
                            "channel": 0
                        }, 
                        {
                            "pitch": 35, 
                            "t0": 76000.0, 
                            "v": 95, 
                            "dur": 640.0, 
                            "type": "note", 
                            "channel": 0
                        }, 
                        {
                            "pitch": 47, 
                            "t0": 76000.0, 
                            "v": 119, 
                            "dur": 640.0, 
                            "type": "note", 
                            "channel": 0
                        }, 
                        {
                            "pitch": 59, 
                            "t0": 76000.0, 
                            "v": 86, 
                            "dur": 640.0, 
                            "type": "note", 
                            "channel": 0
                        }, 
                        {
                            "pitch": 71, 
                            "t0": 76000.0, 
                            "v": 11, 
                            "dur": 640.0, 
                            "type": "note", 
                            "channel": 0
                        }
                    ]
                ], 
                [
                    76800.0, 
                    [
                        {
                            "pitch": 33, 
                            "t0": 76800.0, 
                            "v": 86, 
                            "dur": 640.0, 
                            "type": "note", 
                            "channel": 0
                        }, 
                        {
                            "pitch": 45, 
                            "t0": 76800.0, 
                            "v": 119, 
                            "dur": 640.0, 
                            "type": "note", 
                            "channel": 0
                        }, 
                        {
                            "pitch": 57, 
                            "t0": 76800.0, 
                            "v": 95, 
                            "dur": 640.0, 
                            "type": "note", 
                            "channel": 0
                        }, 
                        {
                            "pitch": 69, 
                            "t0": 76800.0, 
                            "v": 25, 
                            "dur": 640.0, 
                            "type": "note", 
                            "channel": 0
                        }
                    ]
                ], 
                [
                    77600.0, 
                    [
                        {
                            "pitch": 23, 
                            "t0": 77600.0, 
                            "v": 25, 
                            "dur": 640.0, 
                            "type": "note", 
                            "channel": 0
                        }, 
                        {
                            "pitch": 35, 
                            "t0": 77600.0, 
                            "v": 95, 
                            "dur": 640.0, 
                            "type": "note", 
                            "channel": 0
                        }, 
                        {
                            "pitch": 47, 
                            "t0": 77600.0, 
                            "v": 119, 
                            "dur": 640.0, 
                            "type": "note", 
                            "channel": 0
                        }, 
                        {
                            "pitch": 59, 
                            "t0": 77600.0, 
                            "v": 86, 
                            "dur": 640.0, 
                            "type": "note", 
                            "channel": 0
                        }, 
                        {
                            "pitch": 71, 
                            "t0": 77600.0, 
                            "v": 11, 
                            "dur": 640.0, 
                            "type": "note", 
                            "channel": 0
                        }
                    ]
                ], 
                [
                    78400.0, 
                    [
                        {
                            "pitch": 24, 
                            "t0": 78400.0, 
                            "v": 32, 
                            "dur": 640.0, 
                            "type": "note", 
                            "channel": 0
                        }, 
                        {
                            "pitch": 36, 
                            "t0": 78400.0, 
                            "v": 99, 
                            "dur": 640.0, 
                            "type": "note", 
                            "channel": 0
                        }, 
                        {
                            "pitch": 48, 
                            "t0": 78400.0, 
                            "v": 119, 
                            "dur": 640.0, 
                            "type": "note", 
                            "channel": 0
                        }, 
                        {
                            "pitch": 60, 
                            "t0": 78400.0, 
                            "v": 81, 
                            "dur": 640.0, 
                            "type": "note", 
                            "channel": 0
                        }, 
                        {
                            "pitch": 72, 
                            "t0": 78400.0, 
                            "v": 4, 
                            "dur": 640.0, 
                            "type": "note", 
                            "channel": 0
                        }
                    ]
                ], 
                [
                    79200.0, 
                    [
                        {
                            "pitch": 23, 
                            "t0": 79200.0, 
                            "v": 25, 
                            "dur": 640.0, 
                            "type": "note", 
                            "channel": 0
                        }, 
                        {
                            "pitch": 35, 
                            "t0": 79200.0, 
                            "v": 95, 
                            "dur": 640.0, 
                            "type": "note", 
                            "channel": 0
                        }, 
                        {
                            "pitch": 47, 
                            "t0": 79200.0, 
                            "v": 119, 
                            "dur": 640.0, 
                            "type": "note", 
                            "channel": 0
                        }, 
                        {
                            "pitch": 59, 
                            "t0": 79200.0, 
                            "v": 86, 
                            "dur": 640.0, 
                            "type": "note", 
                            "channel": 0
                        }, 
                        {
                            "pitch": 71, 
                            "t0": 79200.0, 
                            "v": 11, 
                            "dur": 640.0, 
                            "type": "note", 
                            "channel": 0
                        }
                    ]
                ], 
                [
                    80000.0, 
                    [
                        {
                            "pitch": 24, 
                            "t0": 80000.0, 
                            "v": 32, 
                            "dur": 640.0, 
                            "type": "note", 
                            "channel": 0
                        }, 
                        {
                            "pitch": 36, 
                            "t0": 80000.0, 
                            "v": 99, 
                            "dur": 640.0, 
                            "type": "note", 
                            "channel": 0
                        }, 
                        {
                            "pitch": 48, 
                            "t0": 80000.0, 
                            "v": 119, 
                            "dur": 640.0, 
                            "type": "note", 
                            "channel": 0
                        }, 
                        {
                            "pitch": 60, 
                            "t0": 80000.0, 
                            "v": 81, 
                            "dur": 640.0, 
                            "type": "note", 
                            "channel": 0
                        }, 
                        {
                            "pitch": 72, 
                            "t0": 80000.0, 
                            "v": 4, 
                            "dur": 640.0, 
                            "type": "note", 
                            "channel": 0
                        }
                    ]
                ], 
                [
                    80800.0, 
                    [
                        {
                            "pitch": 25, 
                            "t0": 80800.0, 
                            "v": 39, 
                            "dur": 640.0, 
                            "type": "note", 
                            "channel": 0
                        }, 
                        {
                            "pitch": 37, 
                            "t0": 80800.0, 
                            "v": 103, 
                            "dur": 640.0, 
                            "type": "note", 
                            "channel": 0
                        }, 
                        {
                            "pitch": 49, 
                            "t0": 80800.0, 
                            "v": 118, 
                            "dur": 640.0, 
                            "type": "note", 
                            "channel": 0
                        }, 
                        {
                            "pitch": 61, 
                            "t0": 80800.0, 
                            "v": 76, 
                            "dur": 640.0, 
                            "type": "note", 
                            "channel": 0
                        }
                    ]
                ], 
                [
                    81600.0, 
                    [
                        {
                            "pitch": 24, 
                            "t0": 81600.0, 
                            "v": 32, 
                            "dur": 640.0, 
                            "type": "note", 
                            "channel": 0
                        }, 
                        {
                            "pitch": 36, 
                            "t0": 81600.0, 
                            "v": 99, 
                            "dur": 640.0, 
                            "type": "note", 
                            "channel": 0
                        }, 
                        {
                            "pitch": 48, 
                            "t0": 81600.0, 
                            "v": 119, 
                            "dur": 640.0, 
                            "type": "note", 
                            "channel": 0
                        }, 
                        {
                            "pitch": 60, 
                            "t0": 81600.0, 
                            "v": 81, 
                            "dur": 640.0, 
                            "type": "note", 
                            "channel": 0
                        }, 
                        {
                            "pitch": 72, 
                            "t0": 81600.0, 
                            "v": 4, 
                            "dur": 640.0, 
                            "type": "note", 
                            "channel": 0
                        }
                    ]
                ], 
                [
                    82400.0, 
                    [
                        {
                            "pitch": 25, 
                            "t0": 82400.0, 
                            "v": 39, 
                            "dur": 640.0, 
                            "type": "note", 
                            "channel": 0
                        }, 
                        {
                            "pitch": 37, 
                            "t0": 82400.0, 
                            "v": 103, 
                            "dur": 640.0, 
                            "type": "note", 
                            "channel": 0
                        }, 
                        {
                            "pitch": 49, 
                            "t0": 82400.0, 
                            "v": 118, 
                            "dur": 640.0, 
                            "type": "note", 
                            "channel": 0
                        }, 
                        {
                            "pitch": 61, 
                            "t0": 82400.0, 
                            "v": 76, 
                            "dur": 640.0, 
                            "type": "note", 
                            "channel": 0
                        }
                    ]
                ], 
                [
                    83200.0, 
                    [
                        {
                            "pitch": 26, 
                            "t0": 83200.0, 
                            "v": 45, 
                            "dur": 640.0, 
                            "type": "note", 
                            "channel": 0
                        }, 
                        {
                            "pitch": 38, 
                            "t0": 83200.0, 
                            "v": 106, 
                            "dur": 640.0, 
                            "type": "note", 
                            "channel": 0
                        }, 
                        {
                            "pitch": 50, 
                            "t0": 83200.0, 
                            "v": 116, 
                            "dur": 640.0, 
                            "type": "note", 
                            "channel": 0
                        }, 
                        {
                            "pitch": 62, 
                            "t0": 83200.0, 
                            "v": 70, 
                            "dur": 640.0, 
                            "type": "note", 
                            "channel": 0
                        }
                    ]
                ], 
                [
                    84000.0, 
                    [
                        {
                            "pitch": 25, 
                            "t0": 84000.0, 
                            "v": 39, 
                            "dur": 640.0, 
                            "type": "note", 
                            "channel": 0
                        }, 
                        {
                            "pitch": 37, 
                            "t0": 84000.0, 
                            "v": 103, 
                            "dur": 640.0, 
                            "type": "note", 
                            "channel": 0
                        }, 
                        {
                            "pitch": 49, 
                            "t0": 84000.0, 
                            "v": 118, 
                            "dur": 640.0, 
                            "type": "note", 
                            "channel": 0
                        }, 
                        {
                            "pitch": 61, 
                            "t0": 84000.0, 
                            "v": 76, 
                            "dur": 640.0, 
                            "type": "note", 
                            "channel": 0
                        }
                    ]
                ], 
                [
                    84800.0, 
                    [
                        {
                            "pitch": 26, 
                            "t0": 84800.0, 
                            "v": 45, 
                            "dur": 640.0, 
                            "type": "note", 
                            "channel": 0
                        }, 
                        {
                            "pitch": 38, 
                            "t0": 84800.0, 
                            "v": 106, 
                            "dur": 640.0, 
                            "type": "note", 
                            "channel": 0
                        }, 
                        {
                            "pitch": 50, 
                            "t0": 84800.0, 
                            "v": 116, 
                            "dur": 640.0, 
                            "type": "note", 
                            "channel": 0
                        }, 
                        {
                            "pitch": 62, 
                            "t0": 84800.0, 
                            "v": 70, 
                            "dur": 640.0, 
                            "type": "note", 
                            "channel": 0
                        }
                    ]
                ], 
                [
                    85600.0, 
                    [
                        {
                            "pitch": 27, 
                            "t0": 85600.0, 
                            "v": 52, 
                            "dur": 640.0, 
                            "type": "note", 
                            "channel": 0
                        }, 
                        {
                            "pitch": 39, 
                            "t0": 85600.0, 
                            "v": 109, 
                            "dur": 640.0, 
                            "type": "note", 
                            "channel": 0
                        }, 
                        {
                            "pitch": 51, 
                            "t0": 85600.0, 
                            "v": 114, 
                            "dur": 640.0, 
                            "type": "note", 
                            "channel": 0
                        }, 
                        {
                            "pitch": 63, 
                            "t0": 85600.0, 
                            "v": 64, 
                            "dur": 640.0, 
                            "type": "note", 
                            "channel": 0
                        }
                    ]
                ], 
                [
                    86400.0, 
                    [
                        {
                            "pitch": 26, 
                            "t0": 86400.0, 
                            "v": 45, 
                            "dur": 640.0, 
                            "type": "note", 
                            "channel": 0
                        }, 
                        {
                            "pitch": 38, 
                            "t0": 86400.0, 
                            "v": 106, 
                            "dur": 640.0, 
                            "type": "note", 
                            "channel": 0
                        }, 
                        {
                            "pitch": 50, 
                            "t0": 86400.0, 
                            "v": 116, 
                            "dur": 640.0, 
                            "type": "note", 
                            "channel": 0
                        }, 
                        {
                            "pitch": 62, 
                            "t0": 86400.0, 
                            "v": 70, 
                            "dur": 640.0, 
                            "type": "note", 
                            "channel": 0
                        }
                    ]
                ], 
                [
                    87200.0, 
                    [
                        {
                            "pitch": 27, 
                            "t0": 87200.0, 
                            "v": 52, 
                            "dur": 640.0, 
                            "type": "note", 
                            "channel": 0
                        }, 
                        {
                            "pitch": 39, 
                            "t0": 87200.0, 
                            "v": 109, 
                            "dur": 640.0, 
                            "type": "note", 
                            "channel": 0
                        }, 
                        {
                            "pitch": 51, 
                            "t0": 87200.0, 
                            "v": 114, 
                            "dur": 640.0, 
                            "type": "note", 
                            "channel": 0
                        }, 
                        {
                            "pitch": 63, 
                            "t0": 87200.0, 
                            "v": 64, 
                            "dur": 640.0, 
                            "type": "note", 
                            "channel": 0
                        }
                    ]
                ], 
                [
                    88000.0, 
                    [
                        {
                            "pitch": 28, 
                            "t0": 88000.0, 
                            "v": 58, 
                            "dur": 640.0, 
                            "type": "note", 
                            "channel": 0
                        }, 
                        {
                            "pitch": 40, 
                            "t0": 88000.0, 
                            "v": 112, 
                            "dur": 640.0, 
                            "type": "note", 
                            "channel": 0
                        }, 
                        {
                            "pitch": 52, 
                            "t0": 88000.0, 
                            "v": 112, 
                            "dur": 640.0, 
                            "type": "note", 
                            "channel": 0
                        }, 
                        {
                            "pitch": 64, 
                            "t0": 88000.0, 
                            "v": 58, 
                            "dur": 640.0, 
                            "type": "note", 
                            "channel": 0
                        }
                    ]
                ], 
                [
                    88800.0, 
                    [
                        {
                            "pitch": 27, 
                            "t0": 88800.0, 
                            "v": 52, 
                            "dur": 640.0, 
                            "type": "note", 
                            "channel": 0
                        }, 
                        {
                            "pitch": 39, 
                            "t0": 88800.0, 
                            "v": 109, 
                            "dur": 640.0, 
                            "type": "note", 
                            "channel": 0
                        }, 
                        {
                            "pitch": 51, 
                            "t0": 88800.0, 
                            "v": 114, 
                            "dur": 640.0, 
                            "type": "note", 
                            "channel": 0
                        }, 
                        {
                            "pitch": 63, 
                            "t0": 88800.0, 
                            "v": 64, 
                            "dur": 640.0, 
                            "type": "note", 
                            "channel": 0
                        }
                    ]
                ], 
                [
                    89600.0, 
                    [
                        {
                            "pitch": 28, 
                            "t0": 89600.0, 
                            "v": 58, 
                            "dur": 640.0, 
                            "type": "note", 
                            "channel": 0
                        }, 
                        {
                            "pitch": 40, 
                            "t0": 89600.0, 
                            "v": 112, 
                            "dur": 640.0, 
                            "type": "note", 
                            "channel": 0
                        }, 
                        {
                            "pitch": 52, 
                            "t0": 89600.0, 
                            "v": 112, 
                            "dur": 640.0, 
                            "type": "note", 
                            "channel": 0
                        }, 
                        {
                            "pitch": 64, 
                            "t0": 89600.0, 
                            "v": 58, 
                            "dur": 640.0, 
                            "type": "note", 
                            "channel": 0
                        }
                    ]
                ], 
                [
                    90400.0, 
                    [
                        {
                            "pitch": 29, 
                            "t0": 90400.0, 
                            "v": 64, 
                            "dur": 640.0, 
                            "type": "note", 
                            "channel": 0
                        }, 
                        {
                            "pitch": 41, 
                            "t0": 90400.0, 
                            "v": 114, 
                            "dur": 640.0, 
                            "type": "note", 
                            "channel": 0
                        }, 
                        {
                            "pitch": 53, 
                            "t0": 90400.0, 
                            "v": 109, 
                            "dur": 640.0, 
                            "type": "note", 
                            "channel": 0
                        }, 
                        {
                            "pitch": 65, 
                            "t0": 90400.0, 
                            "v": 52, 
                            "dur": 640.0, 
                            "type": "note", 
                            "channel": 0
                        }
                    ]
                ], 
                [
                    91200.0, 
                    [
                        {
                            "pitch": 28, 
                            "t0": 91200.0, 
                            "v": 58, 
                            "dur": 640.0, 
                            "type": "note", 
                            "channel": 0
                        }, 
                        {
                            "pitch": 40, 
                            "t0": 91200.0, 
                            "v": 112, 
                            "dur": 640.0, 
                            "type": "note", 
                            "channel": 0
                        }, 
                        {
                            "pitch": 52, 
                            "t0": 91200.0, 
                            "v": 112, 
                            "dur": 640.0, 
                            "type": "note", 
                            "channel": 0
                        }, 
                        {
                            "pitch": 64, 
                            "t0": 91200.0, 
                            "v": 58, 
                            "dur": 640.0, 
                            "type": "note", 
                            "channel": 0
                        }
                    ]
                ], 
                [
                    92000.0, 
                    [
                        {
                            "pitch": 29, 
                            "t0": 92000.0, 
                            "v": 64, 
                            "dur": 640.0, 
                            "type": "note", 
                            "channel": 0
                        }, 
                        {
                            "pitch": 41, 
                            "t0": 92000.0, 
                            "v": 114, 
                            "dur": 640.0, 
                            "type": "note", 
                            "channel": 0
                        }, 
                        {
                            "pitch": 53, 
                            "t0": 92000.0, 
                            "v": 109, 
                            "dur": 640.0, 
                            "type": "note", 
                            "channel": 0
                        }, 
                        {
                            "pitch": 65, 
                            "t0": 92000.0, 
                            "v": 52, 
                            "dur": 640.0, 
                            "type": "note", 
                            "channel": 0
                        }
                    ]
                ], 
                [
                    92800.0, 
                    [
                        {
                            "pitch": 30, 
                            "t0": 92800.0, 
                            "v": 70, 
                            "dur": 640.0, 
                            "type": "note", 
                            "channel": 0
                        }, 
                        {
                            "pitch": 42, 
                            "t0": 92800.0, 
                            "v": 116, 
                            "dur": 640.0, 
                            "type": "note", 
                            "channel": 0
                        }, 
                        {
                            "pitch": 54, 
                            "t0": 92800.0, 
                            "v": 106, 
                            "dur": 640.0, 
                            "type": "note", 
                            "channel": 0
                        }, 
                        {
                            "pitch": 66, 
                            "t0": 92800.0, 
                            "v": 45, 
                            "dur": 640.0, 
                            "type": "note", 
                            "channel": 0
                        }
                    ]
                ], 
                [
                    93600.0, 
                    [
                        {
                            "pitch": 29, 
                            "t0": 93600.0, 
                            "v": 64, 
                            "dur": 640.0, 
                            "type": "note", 
                            "channel": 0
                        }, 
                        {
                            "pitch": 41, 
                            "t0": 93600.0, 
                            "v": 114, 
                            "dur": 640.0, 
                            "type": "note", 
                            "channel": 0
                        }, 
                        {
                            "pitch": 53, 
                            "t0": 93600.0, 
                            "v": 109, 
                            "dur": 640.0, 
                            "type": "note", 
                            "channel": 0
                        }, 
                        {
                            "pitch": 65, 
                            "t0": 93600.0, 
                            "v": 52, 
                            "dur": 640.0, 
                            "type": "note", 
                            "channel": 0
                        }
                    ]
                ], 
                [
                    94400.0, 
                    [
                        {
                            "pitch": 30, 
                            "t0": 94400.0, 
                            "v": 70, 
                            "dur": 640.0, 
                            "type": "note", 
                            "channel": 0
                        }, 
                        {
                            "pitch": 42, 
                            "t0": 94400.0, 
                            "v": 116, 
                            "dur": 640.0, 
                            "type": "note", 
                            "channel": 0
                        }, 
                        {
                            "pitch": 54, 
                            "t0": 94400.0, 
                            "v": 106, 
                            "dur": 640.0, 
                            "type": "note", 
                            "channel": 0
                        }, 
                        {
                            "pitch": 66, 
                            "t0": 94400.0, 
                            "v": 45, 
                            "dur": 640.0, 
                            "type": "note", 
                            "channel": 0
                        }
                    ]
                ], 
                [
                    95200.0, 
                    [
                        {
                            "pitch": 31, 
                            "t0": 95200.0, 
                            "v": 76, 
                            "dur": 640.0, 
                            "type": "note", 
                            "channel": 0
                        }, 
                        {
                            "pitch": 43, 
                            "t0": 95200.0, 
                            "v": 118, 
                            "dur": 640.0, 
                            "type": "note", 
                            "channel": 0
                        }, 
                        {
                            "pitch": 55, 
                            "t0": 95200.0, 
                            "v": 103, 
                            "dur": 640.0, 
                            "type": "note", 
                            "channel": 0
                        }, 
                        {
                            "pitch": 67, 
                            "t0": 95200.0, 
                            "v": 39, 
                            "dur": 640.0, 
                            "type": "note", 
                            "channel": 0
                        }
                    ]
                ], 
                [
                    96000.0, 
                    [
                        {
                            "pitch": 30, 
                            "t0": 96000.0, 
                            "v": 70, 
                            "dur": 640.0, 
                            "type": "note", 
                            "channel": 0
                        }, 
                        {
                            "pitch": 42, 
                            "t0": 96000.0, 
                            "v": 116, 
                            "dur": 640.0, 
                            "type": "note", 
                            "channel": 0
                        }, 
                        {
                            "pitch": 54, 
                            "t0": 96000.0, 
                            "v": 106, 
                            "dur": 640.0, 
                            "type": "note", 
                            "channel": 0
                        }, 
                        {
                            "pitch": 66, 
                            "t0": 96000.0, 
                            "v": 45, 
                            "dur": 640.0, 
                            "type": "note", 
                            "channel": 0
                        }
                    ]
                ], 
                [
                    96800.0, 
                    [
                        {
                            "pitch": 31, 
                            "t0": 96800.0, 
                            "v": 76, 
                            "dur": 640.0, 
                            "type": "note", 
                            "channel": 0
                        }, 
                        {
                            "pitch": 43, 
                            "t0": 96800.0, 
                            "v": 118, 
                            "dur": 640.0, 
                            "type": "note", 
                            "channel": 0
                        }, 
                        {
                            "pitch": 55, 
                            "t0": 96800.0, 
                            "v": 103, 
                            "dur": 640.0, 
                            "type": "note", 
                            "channel": 0
                        }, 
                        {
                            "pitch": 67, 
                            "t0": 96800.0, 
                            "v": 39, 
                            "dur": 640.0, 
                            "type": "note", 
                            "channel": 0
                        }
                    ]
                ], 
                [
                    97600.0, 
                    [
                        {
                            "pitch": 32, 
                            "t0": 97600.0, 
                            "v": 81, 
                            "dur": 640.0, 
                            "type": "note", 
                            "channel": 0
                        }, 
                        {
                            "pitch": 44, 
                            "t0": 97600.0, 
                            "v": 119, 
                            "dur": 640.0, 
                            "type": "note", 
                            "channel": 0
                        }, 
                        {
                            "pitch": 56, 
                            "t0": 97600.0, 
                            "v": 99, 
                            "dur": 640.0, 
                            "type": "note", 
                            "channel": 0
                        }, 
                        {
                            "pitch": 68, 
                            "t0": 97600.0, 
                            "v": 32, 
                            "dur": 640.0, 
                            "type": "note", 
                            "channel": 0
                        }
                    ]
                ], 
                [
                    98400.0, 
                    [
                        {
                            "pitch": 31, 
                            "t0": 98400.0, 
                            "v": 76, 
                            "dur": 640.0, 
                            "type": "note", 
                            "channel": 0
                        }, 
                        {
                            "pitch": 43, 
                            "t0": 98400.0, 
                            "v": 118, 
                            "dur": 640.0, 
                            "type": "note", 
                            "channel": 0
                        }, 
                        {
                            "pitch": 55, 
                            "t0": 98400.0, 
                            "v": 103, 
                            "dur": 640.0, 
                            "type": "note", 
                            "channel": 0
                        }, 
                        {
                            "pitch": 67, 
                            "t0": 98400.0, 
                            "v": 39, 
                            "dur": 640.0, 
                            "type": "note", 
                            "channel": 0
                        }
                    ]
                ], 
                [
                    99200.0, 
                    [
                        {
                            "pitch": 32, 
                            "t0": 99200.0, 
                            "v": 81, 
                            "dur": 640.0, 
                            "type": "note", 
                            "channel": 0
                        }, 
                        {
                            "pitch": 44, 
                            "t0": 99200.0, 
                            "v": 119, 
                            "dur": 640.0, 
                            "type": "note", 
                            "channel": 0
                        }, 
                        {
                            "pitch": 56, 
                            "t0": 99200.0, 
                            "v": 99, 
                            "dur": 640.0, 
                            "type": "note", 
                            "channel": 0
                        }, 
                        {
                            "pitch": 68, 
                            "t0": 99200.0, 
                            "v": 32, 
                            "dur": 640.0, 
                            "type": "note", 
                            "channel": 0
                        }
                    ]
                ], 
                [
                    100000.0, 
                    [
                        {
                            "pitch": 33, 
                            "t0": 100000.0, 
                            "v": 86, 
                            "dur": 640.0, 
                            "type": "note", 
                            "channel": 0
                        }, 
                        {
                            "pitch": 45, 
                            "t0": 100000.0, 
                            "v": 119, 
                            "dur": 640.0, 
                            "type": "note", 
                            "channel": 0
                        }, 
                        {
                            "pitch": 57, 
                            "t0": 100000.0, 
                            "v": 95, 
                            "dur": 640.0, 
                            "type": "note", 
                            "channel": 0
                        }, 
                        {
                            "pitch": 69, 
                            "t0": 100000.0, 
                            "v": 25, 
                            "dur": 640.0, 
                            "type": "note", 
                            "channel": 0
                        }
                    ]
                ], 
                [
                    100800.0, 
                    [
                        {
                            "pitch": 32, 
                            "t0": 100800.0, 
                            "v": 81, 
                            "dur": 640.0, 
                            "type": "note", 
                            "channel": 0
                        }, 
                        {
                            "pitch": 44, 
                            "t0": 100800.0, 
                            "v": 119, 
                            "dur": 640.0, 
                            "type": "note", 
                            "channel": 0
                        }, 
                        {
                            "pitch": 56, 
                            "t0": 100800.0, 
                            "v": 99, 
                            "dur": 640.0, 
                            "type": "note", 
                            "channel": 0
                        }, 
                        {
                            "pitch": 68, 
                            "t0": 100800.0, 
                            "v": 32, 
                            "dur": 640.0, 
                            "type": "note", 
                            "channel": 0
                        }
                    ]
                ], 
                [
                    101600.0, 
                    [
                        {
                            "pitch": 33, 
                            "t0": 101600.0, 
                            "v": 86, 
                            "dur": 640.0, 
                            "type": "note", 
                            "channel": 0
                        }, 
                        {
                            "pitch": 45, 
                            "t0": 101600.0, 
                            "v": 119, 
                            "dur": 640.0, 
                            "type": "note", 
                            "channel": 0
                        }, 
                        {
                            "pitch": 57, 
                            "t0": 101600.0, 
                            "v": 95, 
                            "dur": 640.0, 
                            "type": "note", 
                            "channel": 0
                        }, 
                        {
                            "pitch": 69, 
                            "t0": 101600.0, 
                            "v": 25, 
                            "dur": 640.0, 
                            "type": "note", 
                            "channel": 0
                        }
                    ]
                ], 
                [
                    102400.0, 
                    [
                        {
                            "pitch": 23, 
                            "t0": 102400.0, 
                            "v": 25, 
                            "dur": 640.0, 
                            "type": "note", 
                            "channel": 0
                        }, 
                        {
                            "pitch": 35, 
                            "t0": 102400.0, 
                            "v": 95, 
                            "dur": 640.0, 
                            "type": "note", 
                            "channel": 0
                        }, 
                        {
                            "pitch": 47, 
                            "t0": 102400.0, 
                            "v": 119, 
                            "dur": 640.0, 
                            "type": "note", 
                            "channel": 0
                        }, 
                        {
                            "pitch": 59, 
                            "t0": 102400.0, 
                            "v": 86, 
                            "dur": 640.0, 
                            "type": "note", 
                            "channel": 0
                        }, 
                        {
                            "pitch": 71, 
                            "t0": 102400.0, 
                            "v": 11, 
                            "dur": 640.0, 
                            "type": "note", 
                            "channel": 0
                        }
                    ]
                ], 
                [
                    103200.0, 
                    [
                        {
                            "pitch": 33, 
                            "t0": 103200.0, 
                            "v": 86, 
                            "dur": 640.0, 
                            "type": "note", 
                            "channel": 0
                        }, 
                        {
                            "pitch": 45, 
                            "t0": 103200.0, 
                            "v": 119, 
                            "dur": 640.0, 
                            "type": "note", 
                            "channel": 0
                        }, 
                        {
                            "pitch": 57, 
                            "t0": 103200.0, 
                            "v": 95, 
                            "dur": 640.0, 
                            "type": "note", 
                            "channel": 0
                        }, 
                        {
                            "pitch": 69, 
                            "t0": 103200.0, 
                            "v": 25, 
                            "dur": 640.0, 
                            "type": "note", 
                            "channel": 0
                        }
                    ]
                ], 
                [
                    104000.0, 
                    [
                        {
                            "pitch": 23, 
                            "t0": 104000.0, 
                            "v": 25, 
                            "dur": 640.0, 
                            "type": "note", 
                            "channel": 0
                        }, 
                        {
                            "pitch": 35, 
                            "t0": 104000.0, 
                            "v": 95, 
                            "dur": 640.0, 
                            "type": "note", 
                            "channel": 0
                        }, 
                        {
                            "pitch": 47, 
                            "t0": 104000.0, 
                            "v": 119, 
                            "dur": 640.0, 
                            "type": "note", 
                            "channel": 0
                        }, 
                        {
                            "pitch": 59, 
                            "t0": 104000.0, 
                            "v": 86, 
                            "dur": 640.0, 
                            "type": "note", 
                            "channel": 0
                        }, 
                        {
                            "pitch": 71, 
                            "t0": 104000.0, 
                            "v": 11, 
                            "dur": 640.0, 
                            "type": "note", 
                            "channel": 0
                        }
                    ]
                ], 
                [
                    104800.0, 
                    [
                        {
                            "pitch": 24, 
                            "t0": 104800.0, 
                            "v": 32, 
                            "dur": 640.0, 
                            "type": "note", 
                            "channel": 0
                        }, 
                        {
                            "pitch": 36, 
                            "t0": 104800.0, 
                            "v": 99, 
                            "dur": 640.0, 
                            "type": "note", 
                            "channel": 0
                        }, 
                        {
                            "pitch": 48, 
                            "t0": 104800.0, 
                            "v": 119, 
                            "dur": 640.0, 
                            "type": "note", 
                            "channel": 0
                        }, 
                        {
                            "pitch": 60, 
                            "t0": 104800.0, 
                            "v": 81, 
                            "dur": 640.0, 
                            "type": "note", 
                            "channel": 0
                        }, 
                        {
                            "pitch": 72, 
                            "t0": 104800.0, 
                            "v": 4, 
                            "dur": 640.0, 
                            "type": "note", 
                            "channel": 0
                        }
                    ]
                ], 
                [
                    105600.0, 
                    [
                        {
                            "pitch": 23, 
                            "t0": 105600.0, 
                            "v": 25, 
                            "dur": 640.0, 
                            "type": "note", 
                            "channel": 0
                        }, 
                        {
                            "pitch": 35, 
                            "t0": 105600.0, 
                            "v": 95, 
                            "dur": 640.0, 
                            "type": "note", 
                            "channel": 0
                        }, 
                        {
                            "pitch": 47, 
                            "t0": 105600.0, 
                            "v": 119, 
                            "dur": 640.0, 
                            "type": "note", 
                            "channel": 0
                        }, 
                        {
                            "pitch": 59, 
                            "t0": 105600.0, 
                            "v": 86, 
                            "dur": 640.0, 
                            "type": "note", 
                            "channel": 0
                        }, 
                        {
                            "pitch": 71, 
                            "t0": 105600.0, 
                            "v": 11, 
                            "dur": 640.0, 
                            "type": "note", 
                            "channel": 0
                        }
                    ]
                ], 
                [
                    106400.0, 
                    [
                        {
                            "pitch": 24, 
                            "t0": 106400.0, 
                            "v": 32, 
                            "dur": 640.0, 
                            "type": "note", 
                            "channel": 0
                        }, 
                        {
                            "pitch": 36, 
                            "t0": 106400.0, 
                            "v": 99, 
                            "dur": 640.0, 
                            "type": "note", 
                            "channel": 0
                        }, 
                        {
                            "pitch": 48, 
                            "t0": 106400.0, 
                            "v": 119, 
                            "dur": 640.0, 
                            "type": "note", 
                            "channel": 0
                        }, 
                        {
                            "pitch": 60, 
                            "t0": 106400.0, 
                            "v": 81, 
                            "dur": 640.0, 
                            "type": "note", 
                            "channel": 0
                        }, 
                        {
                            "pitch": 72, 
                            "t0": 106400.0, 
                            "v": 4, 
                            "dur": 640.0, 
                            "type": "note", 
                            "channel": 0
                        }
                    ]
                ], 
                [
                    107200.0, 
                    [
                        {
                            "pitch": 25, 
                            "t0": 107200.0, 
                            "v": 39, 
                            "dur": 640.0, 
                            "type": "note", 
                            "channel": 0
                        }, 
                        {
                            "pitch": 37, 
                            "t0": 107200.0, 
                            "v": 103, 
                            "dur": 640.0, 
                            "type": "note", 
                            "channel": 0
                        }, 
                        {
                            "pitch": 49, 
                            "t0": 107200.0, 
                            "v": 118, 
                            "dur": 640.0, 
                            "type": "note", 
                            "channel": 0
                        }, 
                        {
                            "pitch": 61, 
                            "t0": 107200.0, 
                            "v": 76, 
                            "dur": 640.0, 
                            "type": "note", 
                            "channel": 0
                        }
                    ]
                ], 
                [
                    108000.0, 
                    [
                        {
                            "pitch": 24, 
                            "t0": 108000.0, 
                            "v": 32, 
                            "dur": 640.0, 
                            "type": "note", 
                            "channel": 0
                        }, 
                        {
                            "pitch": 36, 
                            "t0": 108000.0, 
                            "v": 99, 
                            "dur": 640.0, 
                            "type": "note", 
                            "channel": 0
                        }, 
                        {
                            "pitch": 48, 
                            "t0": 108000.0, 
                            "v": 119, 
                            "dur": 640.0, 
                            "type": "note", 
                            "channel": 0
                        }, 
                        {
                            "pitch": 60, 
                            "t0": 108000.0, 
                            "v": 81, 
                            "dur": 640.0, 
                            "type": "note", 
                            "channel": 0
                        }, 
                        {
                            "pitch": 72, 
                            "t0": 108000.0, 
                            "v": 4, 
                            "dur": 640.0, 
                            "type": "note", 
                            "channel": 0
                        }
                    ]
                ], 
                [
                    108800.0, 
                    [
                        {
                            "pitch": 25, 
                            "t0": 108800.0, 
                            "v": 39, 
                            "dur": 640.0, 
                            "type": "note", 
                            "channel": 0
                        }, 
                        {
                            "pitch": 37, 
                            "t0": 108800.0, 
                            "v": 103, 
                            "dur": 640.0, 
                            "type": "note", 
                            "channel": 0
                        }, 
                        {
                            "pitch": 49, 
                            "t0": 108800.0, 
                            "v": 118, 
                            "dur": 640.0, 
                            "type": "note", 
                            "channel": 0
                        }, 
                        {
                            "pitch": 61, 
                            "t0": 108800.0, 
                            "v": 76, 
                            "dur": 640.0, 
                            "type": "note", 
                            "channel": 0
                        }
                    ]
                ], 
                [
                    109600.0, 
                    [
                        {
                            "pitch": 26, 
                            "t0": 109600.0, 
                            "v": 45, 
                            "dur": 640.0, 
                            "type": "note", 
                            "channel": 0
                        }, 
                        {
                            "pitch": 38, 
                            "t0": 109600.0, 
                            "v": 106, 
                            "dur": 640.0, 
                            "type": "note", 
                            "channel": 0
                        }, 
                        {
                            "pitch": 50, 
                            "t0": 109600.0, 
                            "v": 116, 
                            "dur": 640.0, 
                            "type": "note", 
                            "channel": 0
                        }, 
                        {
                            "pitch": 62, 
                            "t0": 109600.0, 
                            "v": 70, 
                            "dur": 640.0, 
                            "type": "note", 
                            "channel": 0
                        }
                    ]
                ], 
                [
                    110400.0, 
                    [
                        {
                            "pitch": 25, 
                            "t0": 110400.0, 
                            "v": 39, 
                            "dur": 640.0, 
                            "type": "note", 
                            "channel": 0
                        }, 
                        {
                            "pitch": 37, 
                            "t0": 110400.0, 
                            "v": 103, 
                            "dur": 640.0, 
                            "type": "note", 
                            "channel": 0
                        }, 
                        {
                            "pitch": 49, 
                            "t0": 110400.0, 
                            "v": 118, 
                            "dur": 640.0, 
                            "type": "note", 
                            "channel": 0
                        }, 
                        {
                            "pitch": 61, 
                            "t0": 110400.0, 
                            "v": 76, 
                            "dur": 640.0, 
                            "type": "note", 
                            "channel": 0
                        }
                    ]
                ], 
                [
                    111200.0, 
                    [
                        {
                            "pitch": 26, 
                            "t0": 111200.0, 
                            "v": 45, 
                            "dur": 640.0, 
                            "type": "note", 
                            "channel": 0
                        }, 
                        {
                            "pitch": 38, 
                            "t0": 111200.0, 
                            "v": 106, 
                            "dur": 640.0, 
                            "type": "note", 
                            "channel": 0
                        }, 
                        {
                            "pitch": 50, 
                            "t0": 111200.0, 
                            "v": 116, 
                            "dur": 640.0, 
                            "type": "note", 
                            "channel": 0
                        }, 
                        {
                            "pitch": 62, 
                            "t0": 111200.0, 
                            "v": 70, 
                            "dur": 640.0, 
                            "type": "note", 
                            "channel": 0
                        }
                    ]
                ], 
                [
                    112000.0, 
                    [
                        {
                            "pitch": 27, 
                            "t0": 112000.0, 
                            "v": 52, 
                            "dur": 640.0, 
                            "type": "note", 
                            "channel": 0
                        }, 
                        {
                            "pitch": 39, 
                            "t0": 112000.0, 
                            "v": 109, 
                            "dur": 640.0, 
                            "type": "note", 
                            "channel": 0
                        }, 
                        {
                            "pitch": 51, 
                            "t0": 112000.0, 
                            "v": 114, 
                            "dur": 640.0, 
                            "type": "note", 
                            "channel": 0
                        }, 
                        {
                            "pitch": 63, 
                            "t0": 112000.0, 
                            "v": 64, 
                            "dur": 640.0, 
                            "type": "note", 
                            "channel": 0
                        }
                    ]
                ], 
                [
                    112800.0, 
                    [
                        {
                            "pitch": 26, 
                            "t0": 112800.0, 
                            "v": 45, 
                            "dur": 640.0, 
                            "type": "note", 
                            "channel": 0
                        }, 
                        {
                            "pitch": 38, 
                            "t0": 112800.0, 
                            "v": 106, 
                            "dur": 640.0, 
                            "type": "note", 
                            "channel": 0
                        }, 
                        {
                            "pitch": 50, 
                            "t0": 112800.0, 
                            "v": 116, 
                            "dur": 640.0, 
                            "type": "note", 
                            "channel": 0
                        }, 
                        {
                            "pitch": 62, 
                            "t0": 112800.0, 
                            "v": 70, 
                            "dur": 640.0, 
                            "type": "note", 
                            "channel": 0
                        }
                    ]
                ], 
                [
                    113600.0, 
                    [
                        {
                            "pitch": 27, 
                            "t0": 113600.0, 
                            "v": 52, 
                            "dur": 640.0, 
                            "type": "note", 
                            "channel": 0
                        }, 
                        {
                            "pitch": 39, 
                            "t0": 113600.0, 
                            "v": 109, 
                            "dur": 640.0, 
                            "type": "note", 
                            "channel": 0
                        }, 
                        {
                            "pitch": 51, 
                            "t0": 113600.0, 
                            "v": 114, 
                            "dur": 640.0, 
                            "type": "note", 
                            "channel": 0
                        }, 
                        {
                            "pitch": 63, 
                            "t0": 113600.0, 
                            "v": 64, 
                            "dur": 640.0, 
                            "type": "note", 
                            "channel": 0
                        }
                    ]
                ], 
                [
                    114400.0, 
                    [
                        {
                            "pitch": 28, 
                            "t0": 114400.0, 
                            "v": 58, 
                            "dur": 640.0, 
                            "type": "note", 
                            "channel": 0
                        }, 
                        {
                            "pitch": 40, 
                            "t0": 114400.0, 
                            "v": 112, 
                            "dur": 640.0, 
                            "type": "note", 
                            "channel": 0
                        }, 
                        {
                            "pitch": 52, 
                            "t0": 114400.0, 
                            "v": 112, 
                            "dur": 640.0, 
                            "type": "note", 
                            "channel": 0
                        }, 
                        {
                            "pitch": 64, 
                            "t0": 114400.0, 
                            "v": 58, 
                            "dur": 640.0, 
                            "type": "note", 
                            "channel": 0
                        }
                    ]
                ], 
                [
                    115200.0, 
                    [
                        {
                            "pitch": 27, 
                            "t0": 115200.0, 
                            "v": 52, 
                            "dur": 640.0, 
                            "type": "note", 
                            "channel": 0
                        }, 
                        {
                            "pitch": 39, 
                            "t0": 115200.0, 
                            "v": 109, 
                            "dur": 640.0, 
                            "type": "note", 
                            "channel": 0
                        }, 
                        {
                            "pitch": 51, 
                            "t0": 115200.0, 
                            "v": 114, 
                            "dur": 640.0, 
                            "type": "note", 
                            "channel": 0
                        }, 
                        {
                            "pitch": 63, 
                            "t0": 115200.0, 
                            "v": 64, 
                            "dur": 640.0, 
                            "type": "note", 
                            "channel": 0
                        }
                    ]
                ], 
                [
                    116000.0, 
                    [
                        {
                            "pitch": 28, 
                            "t0": 116000.0, 
                            "v": 58, 
                            "dur": 640.0, 
                            "type": "note", 
                            "channel": 0
                        }, 
                        {
                            "pitch": 40, 
                            "t0": 116000.0, 
                            "v": 112, 
                            "dur": 640.0, 
                            "type": "note", 
                            "channel": 0
                        }, 
                        {
                            "pitch": 52, 
                            "t0": 116000.0, 
                            "v": 112, 
                            "dur": 640.0, 
                            "type": "note", 
                            "channel": 0
                        }, 
                        {
                            "pitch": 64, 
                            "t0": 116000.0, 
                            "v": 58, 
                            "dur": 640.0, 
                            "type": "note", 
                            "channel": 0
                        }
                    ]
                ], 
                [
                    116800.0, 
                    [
                        {
                            "pitch": 29, 
                            "t0": 116800.0, 
                            "v": 64, 
                            "dur": 640.0, 
                            "type": "note", 
                            "channel": 0
                        }, 
                        {
                            "pitch": 41, 
                            "t0": 116800.0, 
                            "v": 114, 
                            "dur": 640.0, 
                            "type": "note", 
                            "channel": 0
                        }, 
                        {
                            "pitch": 53, 
                            "t0": 116800.0, 
                            "v": 109, 
                            "dur": 640.0, 
                            "type": "note", 
                            "channel": 0
                        }, 
                        {
                            "pitch": 65, 
                            "t0": 116800.0, 
                            "v": 52, 
                            "dur": 640.0, 
                            "type": "note", 
                            "channel": 0
                        }
                    ]
                ], 
                [
                    117600.0, 
                    [
                        {
                            "pitch": 28, 
                            "t0": 117600.0, 
                            "v": 58, 
                            "dur": 640.0, 
                            "type": "note", 
                            "channel": 0
                        }, 
                        {
                            "pitch": 40, 
                            "t0": 117600.0, 
                            "v": 112, 
                            "dur": 640.0, 
                            "type": "note", 
                            "channel": 0
                        }, 
                        {
                            "pitch": 52, 
                            "t0": 117600.0, 
                            "v": 112, 
                            "dur": 640.0, 
                            "type": "note", 
                            "channel": 0
                        }, 
                        {
                            "pitch": 64, 
                            "t0": 117600.0, 
                            "v": 58, 
                            "dur": 640.0, 
                            "type": "note", 
                            "channel": 0
                        }
                    ]
                ], 
                [
                    118400.0, 
                    [
                        {
                            "pitch": 29, 
                            "t0": 118400.0, 
                            "v": 64, 
                            "dur": 640.0, 
                            "type": "note", 
                            "channel": 0
                        }, 
                        {
                            "pitch": 41, 
                            "t0": 118400.0, 
                            "v": 114, 
                            "dur": 640.0, 
                            "type": "note", 
                            "channel": 0
                        }, 
                        {
                            "pitch": 53, 
                            "t0": 118400.0, 
                            "v": 109, 
                            "dur": 640.0, 
                            "type": "note", 
                            "channel": 0
                        }, 
                        {
                            "pitch": 65, 
                            "t0": 118400.0, 
                            "v": 52, 
                            "dur": 640.0, 
                            "type": "note", 
                            "channel": 0
                        }
                    ]
                ], 
                [
                    119200.0, 
                    [
                        {
                            "pitch": 30, 
                            "t0": 119200.0, 
                            "v": 70, 
                            "dur": 640.0, 
                            "type": "note", 
                            "channel": 0
                        }, 
                        {
                            "pitch": 42, 
                            "t0": 119200.0, 
                            "v": 116, 
                            "dur": 640.0, 
                            "type": "note", 
                            "channel": 0
                        }, 
                        {
                            "pitch": 54, 
                            "t0": 119200.0, 
                            "v": 106, 
                            "dur": 640.0, 
                            "type": "note", 
                            "channel": 0
                        }, 
                        {
                            "pitch": 66, 
                            "t0": 119200.0, 
                            "v": 45, 
                            "dur": 640.0, 
                            "type": "note", 
                            "channel": 0
                        }
                    ]
                ], 
                [
                    120000.0, 
                    [
                        {
                            "pitch": 29, 
                            "t0": 120000.0, 
                            "v": 64, 
                            "dur": 640.0, 
                            "type": "note", 
                            "channel": 0
                        }, 
                        {
                            "pitch": 41, 
                            "t0": 120000.0, 
                            "v": 114, 
                            "dur": 640.0, 
                            "type": "note", 
                            "channel": 0
                        }, 
                        {
                            "pitch": 53, 
                            "t0": 120000.0, 
                            "v": 109, 
                            "dur": 640.0, 
                            "type": "note", 
                            "channel": 0
                        }, 
                        {
                            "pitch": 65, 
                            "t0": 120000.0, 
                            "v": 52, 
                            "dur": 640.0, 
                            "type": "note", 
                            "channel": 0
                        }
                    ]
                ], 
                [
                    120800.0, 
                    [
                        {
                            "pitch": 30, 
                            "t0": 120800.0, 
                            "v": 70, 
                            "dur": 640.0, 
                            "type": "note", 
                            "channel": 0
                        }, 
                        {
                            "pitch": 42, 
                            "t0": 120800.0, 
                            "v": 116, 
                            "dur": 640.0, 
                            "type": "note", 
                            "channel": 0
                        }, 
                        {
                            "pitch": 54, 
                            "t0": 120800.0, 
                            "v": 106, 
                            "dur": 640.0, 
                            "type": "note", 
                            "channel": 0
                        }, 
                        {
                            "pitch": 66, 
                            "t0": 120800.0, 
                            "v": 45, 
                            "dur": 640.0, 
                            "type": "note", 
                            "channel": 0
                        }
                    ]
                ], 
                [
                    121600.0, 
                    [
                        {
                            "pitch": 31, 
                            "t0": 121600.0, 
                            "v": 76, 
                            "dur": 640.0, 
                            "type": "note", 
                            "channel": 0
                        }, 
                        {
                            "pitch": 43, 
                            "t0": 121600.0, 
                            "v": 118, 
                            "dur": 640.0, 
                            "type": "note", 
                            "channel": 0
                        }, 
                        {
                            "pitch": 55, 
                            "t0": 121600.0, 
                            "v": 103, 
                            "dur": 640.0, 
                            "type": "note", 
                            "channel": 0
                        }, 
                        {
                            "pitch": 67, 
                            "t0": 121600.0, 
                            "v": 39, 
                            "dur": 640.0, 
                            "type": "note", 
                            "channel": 0
                        }
                    ]
                ], 
                [
                    122400.0, 
                    [
                        {
                            "pitch": 30, 
                            "t0": 122400.0, 
                            "v": 70, 
                            "dur": 640.0, 
                            "type": "note", 
                            "channel": 0
                        }, 
                        {
                            "pitch": 42, 
                            "t0": 122400.0, 
                            "v": 116, 
                            "dur": 640.0, 
                            "type": "note", 
                            "channel": 0
                        }, 
                        {
                            "pitch": 54, 
                            "t0": 122400.0, 
                            "v": 106, 
                            "dur": 640.0, 
                            "type": "note", 
                            "channel": 0
                        }, 
                        {
                            "pitch": 66, 
                            "t0": 122400.0, 
                            "v": 45, 
                            "dur": 640.0, 
                            "type": "note", 
                            "channel": 0
                        }
                    ]
                ], 
                [
                    123200.0, 
                    [
                        {
                            "pitch": 31, 
                            "t0": 123200.0, 
                            "v": 76, 
                            "dur": 640.0, 
                            "type": "note", 
                            "channel": 0
                        }, 
                        {
                            "pitch": 43, 
                            "t0": 123200.0, 
                            "v": 118, 
                            "dur": 640.0, 
                            "type": "note", 
                            "channel": 0
                        }, 
                        {
                            "pitch": 55, 
                            "t0": 123200.0, 
                            "v": 103, 
                            "dur": 640.0, 
                            "type": "note", 
                            "channel": 0
                        }, 
                        {
                            "pitch": 67, 
                            "t0": 123200.0, 
                            "v": 39, 
                            "dur": 640.0, 
                            "type": "note", 
                            "channel": 0
                        }
                    ]
                ], 
                [
                    124000.0, 
                    [
                        {
                            "pitch": 32, 
                            "t0": 124000.0, 
                            "v": 81, 
                            "dur": 640.0, 
                            "type": "note", 
                            "channel": 0
                        }, 
                        {
                            "pitch": 44, 
                            "t0": 124000.0, 
                            "v": 119, 
                            "dur": 640.0, 
                            "type": "note", 
                            "channel": 0
                        }, 
                        {
                            "pitch": 56, 
                            "t0": 124000.0, 
                            "v": 99, 
                            "dur": 640.0, 
                            "type": "note", 
                            "channel": 0
                        }, 
                        {
                            "pitch": 68, 
                            "t0": 124000.0, 
                            "v": 32, 
                            "dur": 640.0, 
                            "type": "note", 
                            "channel": 0
                        }
                    ]
                ], 
                [
                    124800.0, 
                    [
                        {
                            "pitch": 31, 
                            "t0": 124800.0, 
                            "v": 76, 
                            "dur": 640.0, 
                            "type": "note", 
                            "channel": 0
                        }, 
                        {
                            "pitch": 43, 
                            "t0": 124800.0, 
                            "v": 118, 
                            "dur": 640.0, 
                            "type": "note", 
                            "channel": 0
                        }, 
                        {
                            "pitch": 55, 
                            "t0": 124800.0, 
                            "v": 103, 
                            "dur": 640.0, 
                            "type": "note", 
                            "channel": 0
                        }, 
                        {
                            "pitch": 67, 
                            "t0": 124800.0, 
                            "v": 39, 
                            "dur": 640.0, 
                            "type": "note", 
                            "channel": 0
                        }
                    ]
                ], 
                [
                    125600.0, 
                    [
                        {
                            "pitch": 32, 
                            "t0": 125600.0, 
                            "v": 81, 
                            "dur": 640.0, 
                            "type": "note", 
                            "channel": 0
                        }, 
                        {
                            "pitch": 44, 
                            "t0": 125600.0, 
                            "v": 119, 
                            "dur": 640.0, 
                            "type": "note", 
                            "channel": 0
                        }, 
                        {
                            "pitch": 56, 
                            "t0": 125600.0, 
                            "v": 99, 
                            "dur": 640.0, 
                            "type": "note", 
                            "channel": 0
                        }, 
                        {
                            "pitch": 68, 
                            "t0": 125600.0, 
                            "v": 32, 
                            "dur": 640.0, 
                            "type": "note", 
                            "channel": 0
                        }
                    ]
                ], 
                [
                    126400.0, 
                    [
                        {
                            "pitch": 33, 
                            "t0": 126400.0, 
                            "v": 86, 
                            "dur": 640.0, 
                            "type": "note", 
                            "channel": 0
                        }, 
                        {
                            "pitch": 45, 
                            "t0": 126400.0, 
                            "v": 119, 
                            "dur": 640.0, 
                            "type": "note", 
                            "channel": 0
                        }, 
                        {
                            "pitch": 57, 
                            "t0": 126400.0, 
                            "v": 95, 
                            "dur": 640.0, 
                            "type": "note", 
                            "channel": 0
                        }, 
                        {
                            "pitch": 69, 
                            "t0": 126400.0, 
                            "v": 25, 
                            "dur": 640.0, 
                            "type": "note", 
                            "channel": 0
                        }
                    ]
                ], 
                [
                    127200.0, 
                    [
                        {
                            "pitch": 32, 
                            "t0": 127200.0, 
                            "v": 81, 
                            "dur": 640.0, 
                            "type": "note", 
                            "channel": 0
                        }, 
                        {
                            "pitch": 44, 
                            "t0": 127200.0, 
                            "v": 119, 
                            "dur": 640.0, 
                            "type": "note", 
                            "channel": 0
                        }, 
                        {
                            "pitch": 56, 
                            "t0": 127200.0, 
                            "v": 99, 
                            "dur": 640.0, 
                            "type": "note", 
                            "channel": 0
                        }, 
                        {
                            "pitch": 68, 
                            "t0": 127200.0, 
                            "v": 32, 
                            "dur": 640.0, 
                            "type": "note", 
                            "channel": 0
                        }
                    ]
                ], 
                [
                    128000.0, 
                    [
                        {
                            "pitch": 33, 
                            "t0": 128000.0, 
                            "v": 86, 
                            "dur": 640.0, 
                            "type": "note", 
                            "channel": 0
                        }, 
                        {
                            "pitch": 45, 
                            "t0": 128000.0, 
                            "v": 119, 
                            "dur": 640.0, 
                            "type": "note", 
                            "channel": 0
                        }, 
                        {
                            "pitch": 57, 
                            "t0": 128000.0, 
                            "v": 95, 
                            "dur": 640.0, 
                            "type": "note", 
                            "channel": 0
                        }, 
                        {
                            "pitch": 69, 
                            "t0": 128000.0, 
                            "v": 25, 
                            "dur": 640.0, 
                            "type": "note", 
                            "channel": 0
                        }
                    ]
                ], 
                [
                    128800.0, 
                    [
                        {
                            "pitch": 23, 
                            "t0": 128800.0, 
                            "v": 25, 
                            "dur": 640.0, 
                            "type": "note", 
                            "channel": 0
                        }, 
                        {
                            "pitch": 35, 
                            "t0": 128800.0, 
                            "v": 95, 
                            "dur": 640.0, 
                            "type": "note", 
                            "channel": 0
                        }, 
                        {
                            "pitch": 47, 
                            "t0": 128800.0, 
                            "v": 119, 
                            "dur": 640.0, 
                            "type": "note", 
                            "channel": 0
                        }, 
                        {
                            "pitch": 59, 
                            "t0": 128800.0, 
                            "v": 86, 
                            "dur": 640.0, 
                            "type": "note", 
                            "channel": 0
                        }, 
                        {
                            "pitch": 71, 
                            "t0": 128800.0, 
                            "v": 11, 
                            "dur": 640.0, 
                            "type": "note", 
                            "channel": 0
                        }
                    ]
                ], 
                [
                    129600.0, 
                    [
                        {
                            "pitch": 33, 
                            "t0": 129600.0, 
                            "v": 86, 
                            "dur": 640.0, 
                            "type": "note", 
                            "channel": 0
                        }, 
                        {
                            "pitch": 45, 
                            "t0": 129600.0, 
                            "v": 119, 
                            "dur": 640.0, 
                            "type": "note", 
                            "channel": 0
                        }, 
                        {
                            "pitch": 57, 
                            "t0": 129600.0, 
                            "v": 95, 
                            "dur": 640.0, 
                            "type": "note", 
                            "channel": 0
                        }, 
                        {
                            "pitch": 69, 
                            "t0": 129600.0, 
                            "v": 25, 
                            "dur": 640.0, 
                            "type": "note", 
                            "channel": 0
                        }
                    ]
                ], 
                [
                    130400.0, 
                    [
                        {
                            "pitch": 23, 
                            "t0": 130400.0, 
                            "v": 25, 
                            "dur": 640.0, 
                            "type": "note", 
                            "channel": 0
                        }, 
                        {
                            "pitch": 35, 
                            "t0": 130400.0, 
                            "v": 95, 
                            "dur": 640.0, 
                            "type": "note", 
                            "channel": 0
                        }, 
                        {
                            "pitch": 47, 
                            "t0": 130400.0, 
                            "v": 119, 
                            "dur": 640.0, 
                            "type": "note", 
                            "channel": 0
                        }, 
                        {
                            "pitch": 59, 
                            "t0": 130400.0, 
                            "v": 86, 
                            "dur": 640.0, 
                            "type": "note", 
                            "channel": 0
                        }, 
                        {
                            "pitch": 71, 
                            "t0": 130400.0, 
                            "v": 11, 
                            "dur": 640.0, 
                            "type": "note", 
                            "channel": 0
                        }
                    ]
                ], 
                [
                    131200.0, 
                    [
                        {
                            "pitch": 24, 
                            "t0": 131200.0, 
                            "v": 32, 
                            "dur": 640.0, 
                            "type": "note", 
                            "channel": 0
                        }, 
                        {
                            "pitch": 36, 
                            "t0": 131200.0, 
                            "v": 99, 
                            "dur": 640.0, 
                            "type": "note", 
                            "channel": 0
                        }, 
                        {
                            "pitch": 48, 
                            "t0": 131200.0, 
                            "v": 119, 
                            "dur": 640.0, 
                            "type": "note", 
                            "channel": 0
                        }, 
                        {
                            "pitch": 60, 
                            "t0": 131200.0, 
                            "v": 81, 
                            "dur": 640.0, 
                            "type": "note", 
                            "channel": 0
                        }, 
                        {
                            "pitch": 72, 
                            "t0": 131200.0, 
                            "v": 4, 
                            "dur": 640.0, 
                            "type": "note", 
                            "channel": 0
                        }
                    ]
                ], 
                [
                    132000.0, 
                    [
                        {
                            "pitch": 23, 
                            "t0": 132000.0, 
                            "v": 25, 
                            "dur": 640.0, 
                            "type": "note", 
                            "channel": 0
                        }, 
                        {
                            "pitch": 35, 
                            "t0": 132000.0, 
                            "v": 95, 
                            "dur": 640.0, 
                            "type": "note", 
                            "channel": 0
                        }, 
                        {
                            "pitch": 47, 
                            "t0": 132000.0, 
                            "v": 119, 
                            "dur": 640.0, 
                            "type": "note", 
                            "channel": 0
                        }, 
                        {
                            "pitch": 59, 
                            "t0": 132000.0, 
                            "v": 86, 
                            "dur": 640.0, 
                            "type": "note", 
                            "channel": 0
                        }, 
                        {
                            "pitch": 71, 
                            "t0": 132000.0, 
                            "v": 11, 
                            "dur": 640.0, 
                            "type": "note", 
                            "channel": 0
                        }
                    ]
                ], 
                [
                    132800.0, 
                    [
                        {
                            "pitch": 24, 
                            "t0": 132800.0, 
                            "v": 32, 
                            "dur": 640.0, 
                            "type": "note", 
                            "channel": 0
                        }, 
                        {
                            "pitch": 36, 
                            "t0": 132800.0, 
                            "v": 99, 
                            "dur": 640.0, 
                            "type": "note", 
                            "channel": 0
                        }, 
                        {
                            "pitch": 48, 
                            "t0": 132800.0, 
                            "v": 119, 
                            "dur": 640.0, 
                            "type": "note", 
                            "channel": 0
                        }, 
                        {
                            "pitch": 60, 
                            "t0": 132800.0, 
                            "v": 81, 
                            "dur": 640.0, 
                            "type": "note", 
                            "channel": 0
                        }, 
                        {
                            "pitch": 72, 
                            "t0": 132800.0, 
                            "v": 4, 
                            "dur": 640.0, 
                            "type": "note", 
                            "channel": 0
                        }
                    ]
                ], 
                [
                    133600.0, 
                    [
                        {
                            "pitch": 25, 
                            "t0": 133600.0, 
                            "v": 39, 
                            "dur": 640.0, 
                            "type": "note", 
                            "channel": 0
                        }, 
                        {
                            "pitch": 37, 
                            "t0": 133600.0, 
                            "v": 103, 
                            "dur": 640.0, 
                            "type": "note", 
                            "channel": 0
                        }, 
                        {
                            "pitch": 49, 
                            "t0": 133600.0, 
                            "v": 118, 
                            "dur": 640.0, 
                            "type": "note", 
                            "channel": 0
                        }, 
                        {
                            "pitch": 61, 
                            "t0": 133600.0, 
                            "v": 76, 
                            "dur": 640.0, 
                            "type": "note", 
                            "channel": 0
                        }
                    ]
                ], 
                [
                    134400.0, 
                    [
                        {
                            "pitch": 24, 
                            "t0": 134400.0, 
                            "v": 32, 
                            "dur": 640.0, 
                            "type": "note", 
                            "channel": 0
                        }, 
                        {
                            "pitch": 36, 
                            "t0": 134400.0, 
                            "v": 99, 
                            "dur": 640.0, 
                            "type": "note", 
                            "channel": 0
                        }, 
                        {
                            "pitch": 48, 
                            "t0": 134400.0, 
                            "v": 119, 
                            "dur": 640.0, 
                            "type": "note", 
                            "channel": 0
                        }, 
                        {
                            "pitch": 60, 
                            "t0": 134400.0, 
                            "v": 81, 
                            "dur": 640.0, 
                            "type": "note", 
                            "channel": 0
                        }, 
                        {
                            "pitch": 72, 
                            "t0": 134400.0, 
                            "v": 4, 
                            "dur": 640.0, 
                            "type": "note", 
                            "channel": 0
                        }
                    ]
                ], 
                [
                    135200.0, 
                    [
                        {
                            "pitch": 25, 
                            "t0": 135200.0, 
                            "v": 39, 
                            "dur": 640.0, 
                            "type": "note", 
                            "channel": 0
                        }, 
                        {
                            "pitch": 37, 
                            "t0": 135200.0, 
                            "v": 103, 
                            "dur": 640.0, 
                            "type": "note", 
                            "channel": 0
                        }, 
                        {
                            "pitch": 49, 
                            "t0": 135200.0, 
                            "v": 118, 
                            "dur": 640.0, 
                            "type": "note", 
                            "channel": 0
                        }, 
                        {
                            "pitch": 61, 
                            "t0": 135200.0, 
                            "v": 76, 
                            "dur": 640.0, 
                            "type": "note", 
                            "channel": 0
                        }
                    ]
                ], 
                [
                    136000.0, 
                    [
                        {
                            "pitch": 26, 
                            "t0": 136000.0, 
                            "v": 45, 
                            "dur": 640.0, 
                            "type": "note", 
                            "channel": 0
                        }, 
                        {
                            "pitch": 38, 
                            "t0": 136000.0, 
                            "v": 106, 
                            "dur": 640.0, 
                            "type": "note", 
                            "channel": 0
                        }, 
                        {
                            "pitch": 50, 
                            "t0": 136000.0, 
                            "v": 116, 
                            "dur": 640.0, 
                            "type": "note", 
                            "channel": 0
                        }, 
                        {
                            "pitch": 62, 
                            "t0": 136000.0, 
                            "v": 70, 
                            "dur": 640.0, 
                            "type": "note", 
                            "channel": 0
                        }
                    ]
                ], 
                [
                    136800.0, 
                    [
                        {
                            "pitch": 25, 
                            "t0": 136800.0, 
                            "v": 39, 
                            "dur": 640.0, 
                            "type": "note", 
                            "channel": 0
                        }, 
                        {
                            "pitch": 37, 
                            "t0": 136800.0, 
                            "v": 103, 
                            "dur": 640.0, 
                            "type": "note", 
                            "channel": 0
                        }, 
                        {
                            "pitch": 49, 
                            "t0": 136800.0, 
                            "v": 118, 
                            "dur": 640.0, 
                            "type": "note", 
                            "channel": 0
                        }, 
                        {
                            "pitch": 61, 
                            "t0": 136800.0, 
                            "v": 76, 
                            "dur": 640.0, 
                            "type": "note", 
                            "channel": 0
                        }
                    ]
                ], 
                [
                    137600.0, 
                    [
                        {
                            "pitch": 26, 
                            "t0": 137600.0, 
                            "v": 45, 
                            "dur": 640.0, 
                            "type": "note", 
                            "channel": 0
                        }, 
                        {
                            "pitch": 38, 
                            "t0": 137600.0, 
                            "v": 106, 
                            "dur": 640.0, 
                            "type": "note", 
                            "channel": 0
                        }, 
                        {
                            "pitch": 50, 
                            "t0": 137600.0, 
                            "v": 116, 
                            "dur": 640.0, 
                            "type": "note", 
                            "channel": 0
                        }, 
                        {
                            "pitch": 62, 
                            "t0": 137600.0, 
                            "v": 70, 
                            "dur": 640.0, 
                            "type": "note", 
                            "channel": 0
                        }
                    ]
                ], 
                [
                    138400.0, 
                    [
                        {
                            "pitch": 27, 
                            "t0": 138400.0, 
                            "v": 52, 
                            "dur": 640.0, 
                            "type": "note", 
                            "channel": 0
                        }, 
                        {
                            "pitch": 39, 
                            "t0": 138400.0, 
                            "v": 109, 
                            "dur": 640.0, 
                            "type": "note", 
                            "channel": 0
                        }, 
                        {
                            "pitch": 51, 
                            "t0": 138400.0, 
                            "v": 114, 
                            "dur": 640.0, 
                            "type": "note", 
                            "channel": 0
                        }, 
                        {
                            "pitch": 63, 
                            "t0": 138400.0, 
                            "v": 64, 
                            "dur": 640.0, 
                            "type": "note", 
                            "channel": 0
                        }
                    ]
                ], 
                [
                    139200.0, 
                    [
                        {
                            "pitch": 26, 
                            "t0": 139200.0, 
                            "v": 45, 
                            "dur": 640.0, 
                            "type": "note", 
                            "channel": 0
                        }, 
                        {
                            "pitch": 38, 
                            "t0": 139200.0, 
                            "v": 106, 
                            "dur": 640.0, 
                            "type": "note", 
                            "channel": 0
                        }, 
                        {
                            "pitch": 50, 
                            "t0": 139200.0, 
                            "v": 116, 
                            "dur": 640.0, 
                            "type": "note", 
                            "channel": 0
                        }, 
                        {
                            "pitch": 62, 
                            "t0": 139200.0, 
                            "v": 70, 
                            "dur": 640.0, 
                            "type": "note", 
                            "channel": 0
                        }
                    ]
                ], 
                [
                    140000.0, 
                    [
                        {
                            "pitch": 27, 
                            "t0": 140000.0, 
                            "v": 52, 
                            "dur": 640.0, 
                            "type": "note", 
                            "channel": 0
                        }, 
                        {
                            "pitch": 39, 
                            "t0": 140000.0, 
                            "v": 109, 
                            "dur": 640.0, 
                            "type": "note", 
                            "channel": 0
                        }, 
                        {
                            "pitch": 51, 
                            "t0": 140000.0, 
                            "v": 114, 
                            "dur": 640.0, 
                            "type": "note", 
                            "channel": 0
                        }, 
                        {
                            "pitch": 63, 
                            "t0": 140000.0, 
                            "v": 64, 
                            "dur": 640.0, 
                            "type": "note", 
                            "channel": 0
                        }
                    ]
                ], 
                [
                    140800.0, 
                    [
                        {
                            "pitch": 28, 
                            "t0": 140800.0, 
                            "v": 58, 
                            "dur": 640.0, 
                            "type": "note", 
                            "channel": 0
                        }, 
                        {
                            "pitch": 40, 
                            "t0": 140800.0, 
                            "v": 112, 
                            "dur": 640.0, 
                            "type": "note", 
                            "channel": 0
                        }, 
                        {
                            "pitch": 52, 
                            "t0": 140800.0, 
                            "v": 112, 
                            "dur": 640.0, 
                            "type": "note", 
                            "channel": 0
                        }, 
                        {
                            "pitch": 64, 
                            "t0": 140800.0, 
                            "v": 58, 
                            "dur": 640.0, 
                            "type": "note", 
                            "channel": 0
                        }
                    ]
                ], 
                [
                    141600.0, 
                    [
                        {
                            "pitch": 27, 
                            "t0": 141600.0, 
                            "v": 52, 
                            "dur": 640.0, 
                            "type": "note", 
                            "channel": 0
                        }, 
                        {
                            "pitch": 39, 
                            "t0": 141600.0, 
                            "v": 109, 
                            "dur": 640.0, 
                            "type": "note", 
                            "channel": 0
                        }, 
                        {
                            "pitch": 51, 
                            "t0": 141600.0, 
                            "v": 114, 
                            "dur": 640.0, 
                            "type": "note", 
                            "channel": 0
                        }, 
                        {
                            "pitch": 63, 
                            "t0": 141600.0, 
                            "v": 64, 
                            "dur": 640.0, 
                            "type": "note", 
                            "channel": 0
                        }
                    ]
                ], 
                [
                    142400.0, 
                    [
                        {
                            "pitch": 28, 
                            "t0": 142400.0, 
                            "v": 58, 
                            "dur": 640.0, 
                            "type": "note", 
                            "channel": 0
                        }, 
                        {
                            "pitch": 40, 
                            "t0": 142400.0, 
                            "v": 112, 
                            "dur": 640.0, 
                            "type": "note", 
                            "channel": 0
                        }, 
                        {
                            "pitch": 52, 
                            "t0": 142400.0, 
                            "v": 112, 
                            "dur": 640.0, 
                            "type": "note", 
                            "channel": 0
                        }, 
                        {
                            "pitch": 64, 
                            "t0": 142400.0, 
                            "v": 58, 
                            "dur": 640.0, 
                            "type": "note", 
                            "channel": 0
                        }
                    ]
                ], 
                [
                    143200.0, 
                    [
                        {
                            "pitch": 29, 
                            "t0": 143200.0, 
                            "v": 64, 
                            "dur": 640.0, 
                            "type": "note", 
                            "channel": 0
                        }, 
                        {
                            "pitch": 41, 
                            "t0": 143200.0, 
                            "v": 114, 
                            "dur": 640.0, 
                            "type": "note", 
                            "channel": 0
                        }, 
                        {
                            "pitch": 53, 
                            "t0": 143200.0, 
                            "v": 109, 
                            "dur": 640.0, 
                            "type": "note", 
                            "channel": 0
                        }, 
                        {
                            "pitch": 65, 
                            "t0": 143200.0, 
                            "v": 52, 
                            "dur": 640.0, 
                            "type": "note", 
                            "channel": 0
                        }
                    ]
                ], 
                [
                    144000.0, 
                    [
                        {
                            "pitch": 28, 
                            "t0": 144000.0, 
                            "v": 58, 
                            "dur": 640.0, 
                            "type": "note", 
                            "channel": 0
                        }, 
                        {
                            "pitch": 40, 
                            "t0": 144000.0, 
                            "v": 112, 
                            "dur": 640.0, 
                            "type": "note", 
                            "channel": 0
                        }, 
                        {
                            "pitch": 52, 
                            "t0": 144000.0, 
                            "v": 112, 
                            "dur": 640.0, 
                            "type": "note", 
                            "channel": 0
                        }, 
                        {
                            "pitch": 64, 
                            "t0": 144000.0, 
                            "v": 58, 
                            "dur": 640.0, 
                            "type": "note", 
                            "channel": 0
                        }
                    ]
                ], 
                [
                    144800.0, 
                    [
                        {
                            "pitch": 29, 
                            "t0": 144800.0, 
                            "v": 64, 
                            "dur": 640.0, 
                            "type": "note", 
                            "channel": 0
                        }, 
                        {
                            "pitch": 41, 
                            "t0": 144800.0, 
                            "v": 114, 
                            "dur": 640.0, 
                            "type": "note", 
                            "channel": 0
                        }, 
                        {
                            "pitch": 53, 
                            "t0": 144800.0, 
                            "v": 109, 
                            "dur": 640.0, 
                            "type": "note", 
                            "channel": 0
                        }, 
                        {
                            "pitch": 65, 
                            "t0": 144800.0, 
                            "v": 52, 
                            "dur": 640.0, 
                            "type": "note", 
                            "channel": 0
                        }
                    ]
                ], 
                [
                    145600.0, 
                    [
                        {
                            "pitch": 30, 
                            "t0": 145600.0, 
                            "v": 70, 
                            "dur": 640.0, 
                            "type": "note", 
                            "channel": 0
                        }, 
                        {
                            "pitch": 42, 
                            "t0": 145600.0, 
                            "v": 116, 
                            "dur": 640.0, 
                            "type": "note", 
                            "channel": 0
                        }, 
                        {
                            "pitch": 54, 
                            "t0": 145600.0, 
                            "v": 106, 
                            "dur": 640.0, 
                            "type": "note", 
                            "channel": 0
                        }, 
                        {
                            "pitch": 66, 
                            "t0": 145600.0, 
                            "v": 45, 
                            "dur": 640.0, 
                            "type": "note", 
                            "channel": 0
                        }
                    ]
                ], 
                [
                    146400.0, 
                    [
                        {
                            "pitch": 29, 
                            "t0": 146400.0, 
                            "v": 64, 
                            "dur": 640.0, 
                            "type": "note", 
                            "channel": 0
                        }, 
                        {
                            "pitch": 41, 
                            "t0": 146400.0, 
                            "v": 114, 
                            "dur": 640.0, 
                            "type": "note", 
                            "channel": 0
                        }, 
                        {
                            "pitch": 53, 
                            "t0": 146400.0, 
                            "v": 109, 
                            "dur": 640.0, 
                            "type": "note", 
                            "channel": 0
                        }, 
                        {
                            "pitch": 65, 
                            "t0": 146400.0, 
                            "v": 52, 
                            "dur": 640.0, 
                            "type": "note", 
                            "channel": 0
                        }
                    ]
                ], 
                [
                    147200.0, 
                    [
                        {
                            "pitch": 30, 
                            "t0": 147200.0, 
                            "v": 70, 
                            "dur": 640.0, 
                            "type": "note", 
                            "channel": 0
                        }, 
                        {
                            "pitch": 42, 
                            "t0": 147200.0, 
                            "v": 116, 
                            "dur": 640.0, 
                            "type": "note", 
                            "channel": 0
                        }, 
                        {
                            "pitch": 54, 
                            "t0": 147200.0, 
                            "v": 106, 
                            "dur": 640.0, 
                            "type": "note", 
                            "channel": 0
                        }, 
                        {
                            "pitch": 66, 
                            "t0": 147200.0, 
                            "v": 45, 
                            "dur": 640.0, 
                            "type": "note", 
                            "channel": 0
                        }
                    ]
                ], 
                [
                    148000.0, 
                    [
                        {
                            "pitch": 31, 
                            "t0": 148000.0, 
                            "v": 76, 
                            "dur": 640.0, 
                            "type": "note", 
                            "channel": 0
                        }, 
                        {
                            "pitch": 43, 
                            "t0": 148000.0, 
                            "v": 118, 
                            "dur": 640.0, 
                            "type": "note", 
                            "channel": 0
                        }, 
                        {
                            "pitch": 55, 
                            "t0": 148000.0, 
                            "v": 103, 
                            "dur": 640.0, 
                            "type": "note", 
                            "channel": 0
                        }, 
                        {
                            "pitch": 67, 
                            "t0": 148000.0, 
                            "v": 39, 
                            "dur": 640.0, 
                            "type": "note", 
                            "channel": 0
                        }
                    ]
                ], 
                [
                    148800.0, 
                    [
                        {
                            "pitch": 30, 
                            "t0": 148800.0, 
                            "v": 70, 
                            "dur": 640.0, 
                            "type": "note", 
                            "channel": 0
                        }, 
                        {
                            "pitch": 42, 
                            "t0": 148800.0, 
                            "v": 116, 
                            "dur": 640.0, 
                            "type": "note", 
                            "channel": 0
                        }, 
                        {
                            "pitch": 54, 
                            "t0": 148800.0, 
                            "v": 106, 
                            "dur": 640.0, 
                            "type": "note", 
                            "channel": 0
                        }, 
                        {
                            "pitch": 66, 
                            "t0": 148800.0, 
                            "v": 45, 
                            "dur": 640.0, 
                            "type": "note", 
                            "channel": 0
                        }
                    ]
                ], 
                [
                    149600.0, 
                    [
                        {
                            "pitch": 31, 
                            "t0": 149600.0, 
                            "v": 76, 
                            "dur": 640.0, 
                            "type": "note", 
                            "channel": 0
                        }, 
                        {
                            "pitch": 43, 
                            "t0": 149600.0, 
                            "v": 118, 
                            "dur": 640.0, 
                            "type": "note", 
                            "channel": 0
                        }, 
                        {
                            "pitch": 55, 
                            "t0": 149600.0, 
                            "v": 103, 
                            "dur": 640.0, 
                            "type": "note", 
                            "channel": 0
                        }, 
                        {
                            "pitch": 67, 
                            "t0": 149600.0, 
                            "v": 39, 
                            "dur": 640.0, 
                            "type": "note", 
                            "channel": 0
                        }
                    ]
                ], 
                [
                    150400.0, 
                    [
                        {
                            "pitch": 32, 
                            "t0": 150400.0, 
                            "v": 81, 
                            "dur": 640.0, 
                            "type": "note", 
                            "channel": 0
                        }, 
                        {
                            "pitch": 44, 
                            "t0": 150400.0, 
                            "v": 119, 
                            "dur": 640.0, 
                            "type": "note", 
                            "channel": 0
                        }, 
                        {
                            "pitch": 56, 
                            "t0": 150400.0, 
                            "v": 99, 
                            "dur": 640.0, 
                            "type": "note", 
                            "channel": 0
                        }, 
                        {
                            "pitch": 68, 
                            "t0": 150400.0, 
                            "v": 32, 
                            "dur": 640.0, 
                            "type": "note", 
                            "channel": 0
                        }
                    ]
                ], 
                [
                    151200.0, 
                    [
                        {
                            "pitch": 31, 
                            "t0": 151200.0, 
                            "v": 76, 
                            "dur": 640.0, 
                            "type": "note", 
                            "channel": 0
                        }, 
                        {
                            "pitch": 43, 
                            "t0": 151200.0, 
                            "v": 118, 
                            "dur": 640.0, 
                            "type": "note", 
                            "channel": 0
                        }, 
                        {
                            "pitch": 55, 
                            "t0": 151200.0, 
                            "v": 103, 
                            "dur": 640.0, 
                            "type": "note", 
                            "channel": 0
                        }, 
                        {
                            "pitch": 67, 
                            "t0": 151200.0, 
                            "v": 39, 
                            "dur": 640.0, 
                            "type": "note", 
                            "channel": 0
                        }
                    ]
                ], 
                [
                    152000.0, 
                    [
                        {
                            "pitch": 32, 
                            "t0": 152000.0, 
                            "v": 81, 
                            "dur": 640.0, 
                            "type": "note", 
                            "channel": 0
                        }, 
                        {
                            "pitch": 44, 
                            "t0": 152000.0, 
                            "v": 119, 
                            "dur": 640.0, 
                            "type": "note", 
                            "channel": 0
                        }, 
                        {
                            "pitch": 56, 
                            "t0": 152000.0, 
                            "v": 99, 
                            "dur": 640.0, 
                            "type": "note", 
                            "channel": 0
                        }, 
                        {
                            "pitch": 68, 
                            "t0": 152000.0, 
                            "v": 32, 
                            "dur": 640.0, 
                            "type": "note", 
                            "channel": 0
                        }
                    ]
                ], 
                [
                    152800.0, 
                    [
                        {
                            "pitch": 33, 
                            "t0": 152800.0, 
                            "v": 86, 
                            "dur": 640.0, 
                            "type": "note", 
                            "channel": 0
                        }, 
                        {
                            "pitch": 45, 
                            "t0": 152800.0, 
                            "v": 119, 
                            "dur": 640.0, 
                            "type": "note", 
                            "channel": 0
                        }, 
                        {
                            "pitch": 57, 
                            "t0": 152800.0, 
                            "v": 95, 
                            "dur": 640.0, 
                            "type": "note", 
                            "channel": 0
                        }, 
                        {
                            "pitch": 69, 
                            "t0": 152800.0, 
                            "v": 25, 
                            "dur": 640.0, 
                            "type": "note", 
                            "channel": 0
                        }
                    ]
                ], 
                [
                    153600.0, 
                    [
                        {
                            "pitch": 32, 
                            "t0": 153600.0, 
                            "v": 81, 
                            "dur": 640.0, 
                            "type": "note", 
                            "channel": 0
                        }, 
                        {
                            "pitch": 44, 
                            "t0": 153600.0, 
                            "v": 119, 
                            "dur": 640.0, 
                            "type": "note", 
                            "channel": 0
                        }, 
                        {
                            "pitch": 56, 
                            "t0": 153600.0, 
                            "v": 99, 
                            "dur": 640.0, 
                            "type": "note", 
                            "channel": 0
                        }, 
                        {
                            "pitch": 68, 
                            "t0": 153600.0, 
                            "v": 32, 
                            "dur": 640.0, 
                            "type": "note", 
                            "channel": 0
                        }
                    ]
                ], 
                [
                    154400.0, 
                    [
                        {
                            "pitch": 33, 
                            "t0": 154400.0, 
                            "v": 86, 
                            "dur": 640.0, 
                            "type": "note", 
                            "channel": 0
                        }, 
                        {
                            "pitch": 45, 
                            "t0": 154400.0, 
                            "v": 119, 
                            "dur": 640.0, 
                            "type": "note", 
                            "channel": 0
                        }, 
                        {
                            "pitch": 57, 
                            "t0": 154400.0, 
                            "v": 95, 
                            "dur": 640.0, 
                            "type": "note", 
                            "channel": 0
                        }, 
                        {
                            "pitch": 69, 
                            "t0": 154400.0, 
                            "v": 25, 
                            "dur": 640.0, 
                            "type": "note", 
                            "channel": 0
                        }
                    ]
                ], 
                [
                    155200.0, 
                    [
                        {
                            "pitch": 23, 
                            "t0": 155200.0, 
                            "v": 25, 
                            "dur": 640.0, 
                            "type": "note", 
                            "channel": 0
                        }, 
                        {
                            "pitch": 35, 
                            "t0": 155200.0, 
                            "v": 95, 
                            "dur": 640.0, 
                            "type": "note", 
                            "channel": 0
                        }, 
                        {
                            "pitch": 47, 
                            "t0": 155200.0, 
                            "v": 119, 
                            "dur": 640.0, 
                            "type": "note", 
                            "channel": 0
                        }, 
                        {
                            "pitch": 59, 
                            "t0": 155200.0, 
                            "v": 86, 
                            "dur": 640.0, 
                            "type": "note", 
                            "channel": 0
                        }, 
                        {
                            "pitch": 71, 
                            "t0": 155200.0, 
                            "v": 11, 
                            "dur": 640.0, 
                            "type": "note", 
                            "channel": 0
                        }
                    ]
                ], 
                [
                    156000.0, 
                    [
                        {
                            "pitch": 33, 
                            "t0": 156000.0, 
                            "v": 86, 
                            "dur": 640.0, 
                            "type": "note", 
                            "channel": 0
                        }, 
                        {
                            "pitch": 45, 
                            "t0": 156000.0, 
                            "v": 119, 
                            "dur": 640.0, 
                            "type": "note", 
                            "channel": 0
                        }, 
                        {
                            "pitch": 57, 
                            "t0": 156000.0, 
                            "v": 95, 
                            "dur": 640.0, 
                            "type": "note", 
                            "channel": 0
                        }, 
                        {
                            "pitch": 69, 
                            "t0": 156000.0, 
                            "v": 25, 
                            "dur": 640.0, 
                            "type": "note", 
                            "channel": 0
                        }
                    ]
                ], 
                [
                    156800.0, 
                    [
                        {
                            "pitch": 23, 
                            "t0": 156800.0, 
                            "v": 25, 
                            "dur": 640.0, 
                            "type": "note", 
                            "channel": 0
                        }, 
                        {
                            "pitch": 35, 
                            "t0": 156800.0, 
                            "v": 95, 
                            "dur": 640.0, 
                            "type": "note", 
                            "channel": 0
                        }, 
                        {
                            "pitch": 47, 
                            "t0": 156800.0, 
                            "v": 119, 
                            "dur": 640.0, 
                            "type": "note", 
                            "channel": 0
                        }, 
                        {
                            "pitch": 59, 
                            "t0": 156800.0, 
                            "v": 86, 
                            "dur": 640.0, 
                            "type": "note", 
                            "channel": 0
                        }, 
                        {
                            "pitch": 71, 
                            "t0": 156800.0, 
                            "v": 11, 
                            "dur": 640.0, 
                            "type": "note", 
                            "channel": 0
                        }
                    ]
                ], 
                [
                    157600.0, 
                    [
                        {
                            "pitch": 24, 
                            "t0": 157600.0, 
                            "v": 32, 
                            "dur": 640.0, 
                            "type": "note", 
                            "channel": 0
                        }, 
                        {
                            "pitch": 36, 
                            "t0": 157600.0, 
                            "v": 99, 
                            "dur": 640.0, 
                            "type": "note", 
                            "channel": 0
                        }, 
                        {
                            "pitch": 48, 
                            "t0": 157600.0, 
                            "v": 119, 
                            "dur": 640.0, 
                            "type": "note", 
                            "channel": 0
                        }, 
                        {
                            "pitch": 60, 
                            "t0": 157600.0, 
                            "v": 81, 
                            "dur": 640.0, 
                            "type": "note", 
                            "channel": 0
                        }, 
                        {
                            "pitch": 72, 
                            "t0": 157600.0, 
                            "v": 4, 
                            "dur": 640.0, 
                            "type": "note", 
                            "channel": 0
                        }
                    ]
                ], 
                [
                    158400.0, 
                    [
                        {
                            "pitch": 23, 
                            "t0": 158400.0, 
                            "v": 25, 
                            "dur": 640.0, 
                            "type": "note", 
                            "channel": 0
                        }, 
                        {
                            "pitch": 35, 
                            "t0": 158400.0, 
                            "v": 95, 
                            "dur": 640.0, 
                            "type": "note", 
                            "channel": 0
                        }, 
                        {
                            "pitch": 47, 
                            "t0": 158400.0, 
                            "v": 119, 
                            "dur": 640.0, 
                            "type": "note", 
                            "channel": 0
                        }, 
                        {
                            "pitch": 59, 
                            "t0": 158400.0, 
                            "v": 86, 
                            "dur": 640.0, 
                            "type": "note", 
                            "channel": 0
                        }, 
                        {
                            "pitch": 71, 
                            "t0": 158400.0, 
                            "v": 11, 
                            "dur": 640.0, 
                            "type": "note", 
                            "channel": 0
                        }
                    ]
                ], 
                [
                    159200.0, 
                    [
                        {
                            "pitch": 24, 
                            "t0": 159200.0, 
                            "v": 32, 
                            "dur": 640.0, 
                            "type": "note", 
                            "channel": 0
                        }, 
                        {
                            "pitch": 36, 
                            "t0": 159200.0, 
                            "v": 99, 
                            "dur": 640.0, 
                            "type": "note", 
                            "channel": 0
                        }, 
                        {
                            "pitch": 48, 
                            "t0": 159200.0, 
                            "v": 119, 
                            "dur": 640.0, 
                            "type": "note", 
                            "channel": 0
                        }, 
                        {
                            "pitch": 60, 
                            "t0": 159200.0, 
                            "v": 81, 
                            "dur": 640.0, 
                            "type": "note", 
                            "channel": 0
                        }, 
                        {
                            "pitch": 72, 
                            "t0": 159200.0, 
                            "v": 4, 
                            "dur": 640.0, 
                            "type": "note", 
                            "channel": 0
                        }
                    ]
                ]
            ], 
            "instruments": [], 
            "channels": [], 
            "numNotes": 838, 
            "type": "TrackObj"
        }
    ], 
    "type": "MidiObj", 
    "loop": false
}