{
    "format": 1, 
    "instruments": [], 
    "resolution": 300, 
    "channels": [], 
    "tracks": [
        {
            "seq": [
                [
                    0, 
                    [
                        {
                            "pitch": 50, 
                            "t0": 0, 
                            "v": 90, 
                            "dur": 75.0, 
                            "type": "note", 
                            "channel": 0
                        }
                    ]
                ], 
                [
                    300, 
                    [
                        {
                            "pitch": 50, 
                            "t0": 300, 
                            "v": 70, 
                            "dur": 75.0, 
                            "type": "note", 
                            "channel": 0
                        }
                    ]
                ], 
                [
                    600, 
                    [
                        {
                            "pitch": 50, 
                            "t0": 600, 
                            "v": 70, 
                            "dur": 75.0, 
                            "type": "note", 
                            "channel": 0
                        }
                    ]
                ], 
                [
                    900, 
                    [
                        {
                            "pitch": 50, 
                            "t0": 900, 
                            "v": 70, 
                            "dur": 75.0, 
                            "type": "note", 
                            "channel": 0
                        }
                    ]
                ], 
                [
                    1200, 
                    [
                        {
                            "pitch": 50, 
                            "t0": 1200, 
                            "v": 90, 
                            "dur": 75.0, 
                            "type": "note", 
                            "channel": 0
                        }
                    ]
                ], 
                [
                    1500, 
                    [
                        {
                            "pitch": 50, 
                            "t0": 1500, 
                            "v": 70, 
                            "dur": 75.0, 
                            "type": "note", 
                            "channel": 0
                        }
                    ]
                ], 
                [
                    1800, 
                    [
                        {
                            "pitch": 50, 
                            "t0": 1800, 
                            "v": 70, 
                            "dur": 75.0, 
                            "type": "note", 
                            "channel": 0
                        }
                    ]
                ], 
                [
                    2100, 
                    [
                        {
                            "pitch": 50, 
                            "t0": 2100, 
                            "v": 70, 
                            "dur": 75.0, 
                            "type": "note", 
                            "channel": 0
                        }
                    ]
                ], 
                [
                    2400, 
                    [
                        {
                            "pitch": 50, 
                            "t0": 2400, 
                            "v": 90, 
                            "dur": 75.0, 
                            "type": "note", 
                            "channel": 0
                        }
                    ]
                ], 
                [
                    2700, 
                    [
                        {
                            "pitch": 50, 
                            "t0": 2700, 
                            "v": 70, 
                            "dur": 75.0, 
                            "type": "note", 
                            "channel": 0
                        }
                    ]
                ], 
                [
                    3000, 
                    [
                        {
                            "pitch": 50, 
                            "t0": 3000, 
                            "v": 70, 
                            "dur": 75.0, 
                            "type": "note", 
                            "channel": 0
                        }
                    ]
                ], 
                [
                    3300, 
                    [
                        {
                            "pitch": 50, 
                            "t0": 3300, 
                            "v": 70, 
                            "dur": 75.0, 
                            "type": "note", 
                            "channel": 0
                        }
                    ]
                ], 
                [
                    3600, 
                    [
                        {
                            "pitch": 50, 
                            "t0": 3600, 
                            "v": 90, 
                            "dur": 75.0, 
                            "type": "note", 
                            "channel": 0
                        }
                    ]
                ], 
                [
                    3900, 
                    [
                        {
                            "pitch": 50, 
                            "t0": 3900, 
                            "v": 70, 
                            "dur": 75.0, 
                            "type": "note", 
                            "channel": 0
                        }
                    ]
                ], 
                [
                    4200, 
                    [
                        {
                            "pitch": 50, 
                            "t0": 4200, 
                            "v": 70, 
                            "dur": 75.0, 
                            "type": "note", 
                            "channel": 0
                        }
                    ]
                ], 
                [
                    4500, 
                    [
                        {
                            "pitch": 50, 
                            "t0": 4500, 
                            "v": 70, 
                            "dur": 75.0, 
                            "type": "note", 
                            "channel": 0
                        }
                    ]
                ], 
                [
                    4800, 
                    [
                        {
                            "pitch": 50, 
                            "t0": 4800, 
                            "v": 90, 
                            "dur": 75.0, 
                            "type": "note", 
                            "channel": 0
                        }
                    ]
                ], 
                [
                    5100, 
                    [
                        {
                            "pitch": 50, 
                            "t0": 5100, 
                            "v": 70, 
                            "dur": 75.0, 
                            "type": "note", 
                            "channel": 0
                        }
                    ]
                ], 
                [
                    5400, 
                    [
                        {
                            "pitch": 50, 
                            "t0": 5400, 
                            "v": 70, 
                            "dur": 75.0, 
                            "type": "note", 
                            "channel": 0
                        }
                    ]
                ], 
                [
                    5700, 
                    [
                        {
                            "pitch": 50, 
                            "t0": 5700, 
                            "v": 70, 
                            "dur": 75.0, 
                            "type": "note", 
                            "channel": 0
                        }
                    ]
                ], 
                [
                    6000, 
                    [
                        {
                            "pitch": 50, 
                            "t0": 6000, 
                            "v": 90, 
                            "dur": 75.0, 
                            "type": "note", 
                            "channel": 0
                        }
                    ]
                ], 
                [
                    6300, 
                    [
                        {
                            "pitch": 50, 
                            "t0": 6300, 
                            "v": 70, 
                            "dur": 75.0, 
                            "type": "note", 
                            "channel": 0
                        }
                    ]
                ], 
                [
                    6600, 
                    [
                        {
                            "pitch": 50, 
                            "t0": 6600, 
                            "v": 70, 
                            "dur": 75.0, 
                            "type": "note", 
                            "channel": 0
                        }
                    ]
                ], 
                [
                    6900, 
                    [
                        {
                            "pitch": 50, 
                            "t0": 6900, 
                            "v": 70, 
                            "dur": 75.0, 
                            "type": "note", 
                            "channel": 0
                        }
                    ]
                ], 
                [
                    7200, 
                    [
                        {
                            "pitch": 50, 
                            "t0": 7200, 
                            "v": 90, 
                            "dur": 75.0, 
                            "type": "note", 
                            "channel": 0
                        }
                    ]
                ], 
                [
                    7500, 
                    [
                        {
                            "pitch": 50, 
                            "t0": 7500, 
                            "v": 70, 
                            "dur": 75.0, 
                            "type": "note", 
                            "channel": 0
                        }
                    ]
                ], 
                [
                    7800, 
                    [
                        {
                            "pitch": 50, 
                            "t0": 7800, 
                            "v": 70, 
                            "dur": 75.0, 
                            "type": "note", 
                            "channel": 0
                        }
                    ]
                ], 
                [
                    8100, 
                    [
                        {
                            "pitch": 50, 
                            "t0": 8100, 
                            "v": 70, 
                            "dur": 75.0, 
                            "type": "note", 
                            "channel": 0
                        }
                    ]
                ], 
                [
                    8400, 
                    [
                        {
                            "pitch": 50, 
                            "t0": 8400, 
                            "v": 90, 
                            "dur": 75.0, 
                            "type": "note", 
                            "channel": 0
                        }
                    ]
                ], 
                [
                    8700, 
                    [
                        {
                            "pitch": 50, 
                            "t0": 8700, 
                            "v": 70, 
                            "dur": 75.0, 
                            "type": "note", 
                            "channel": 0
                        }
                    ]
                ], 
                [
                    9000, 
                    [
                        {
                            "pitch": 50, 
                            "t0": 9000, 
                            "v": 70, 
                            "dur": 75.0, 
                            "type": "note", 
                            "channel": 0
                        }
                    ]
                ], 
                [
                    9300, 
                    [
                        {
                            "pitch": 50, 
                            "t0": 9300, 
                            "v": 70, 
                            "dur": 75.0, 
                            "type": "note", 
                            "channel": 0
                        }
                    ]
                ]
            ], 
            "instruments": [], 
            "tMax": 9600, 
            "channels": [], 
            "numNotes": 32, 
            "type": "TrackObj"
        }
    ], 
    "type": "MidiObj", 
    "loop": false
}