{
    "format": 1, 
    "instruments": [], 
    "resolution": 1000, 
    "channels": [], 
    "tracks": [
        {
            "channels": [], 
            "instruments": [], 
            "type": "TrackObj", 
            "seq": [
                [
                    0.0, 
                    [
                        {
                            "pitch": 50, 
                            "t0": 0.0, 
                            "v": 90, 
                            "dur": 300.0, 
                            "type": "note", 
                            "channel": 0
                        }
                    ]
                ], 
                [
                    852.367091682305, 
                    [
                        {
                            "pitch": 51, 
                            "t0": 852.367091682305, 
                            "v": 60, 
                            "dur": 150.0, 
                            "type": "note", 
                            "channel": 0
                        }
                    ]
                ], 
                [
                    3262.5600276923974, 
                    [
                        {
                            "pitch": 52, 
                            "t0": 3262.5600276923974, 
                            "v": 70, 
                            "dur": 150.0, 
                            "type": "note", 
                            "channel": 0
                        }
                    ]
                ], 
                [
                    4760.208258116842, 
                    [
                        {
                            "pitch": 53, 
                            "t0": 4760.208258116842, 
                            "v": 70, 
                            "dur": 300.0, 
                            "type": "note", 
                            "channel": 0
                        }
                    ]
                ], 
                [
                    6181.019421837356, 
                    [
                        {
                            "pitch": 50, 
                            "t0": 6181.019421837356, 
                            "v": 90, 
                            "dur": 300.0, 
                            "type": "note", 
                            "channel": 0
                        }
                    ]
                ], 
                [
                    6864.998488667206, 
                    [
                        {
                            "pitch": 51, 
                            "t0": 6864.998488667206, 
                            "v": 60, 
                            "dur": 150.0, 
                            "type": "note", 
                            "channel": 0
                        }
                    ]
                ], 
                [
                    8821.087077836106, 
                    [
                        {
                            "pitch": 52, 
                            "t0": 8821.087077836106, 
                            "v": 70, 
                            "dur": 150.0, 
                            "type": "note", 
                            "channel": 0
                        }
                    ]
                ], 
                [
                    10052.389556294647, 
                    [
                        {
                            "pitch": 53, 
                            "t0": 10052.389556294647, 
                            "v": 70, 
                            "dur": 300.0, 
                            "type": "note", 
                            "channel": 0
                        }
                    ]
                ], 
                [
                    11231.280013846199, 
                    [
                        {
                            "pitch": 50, 
                            "t0": 11231.280013846199, 
                            "v": 90, 
                            "dur": 300.0, 
                            "type": "note", 
                            "channel": 0
                        }
                    ]
                ], 
                [
                    11802.429007011997, 
                    [
                        {
                            "pitch": 51, 
                            "t0": 11802.429007011997, 
                            "v": 60, 
                            "dur": 150.0, 
                            "type": "note", 
                            "channel": 0
                        }
                    ]
                ], 
                [
                    13448.44258830897, 
                    [
                        {
                            "pitch": 52, 
                            "t0": 13448.44258830897, 
                            "v": 70, 
                            "dur": 150.0, 
                            "type": "note", 
                            "channel": 0
                        }
                    ]
                ], 
                [
                    14493.840041538597, 
                    [
                        {
                            "pitch": 53, 
                            "t0": 14493.840041538597, 
                            "v": 70, 
                            "dur": 300.0, 
                            "type": "note", 
                            "channel": 0
                        }
                    ]
                ], 
                [
                    15501.214503505998, 
                    [
                        {
                            "pitch": 50, 
                            "t0": 15501.214503505998, 
                            "v": 90, 
                            "dur": 300.0, 
                            "type": "note", 
                            "channel": 0
                        }
                    ]
                ], 
                [
                    15991.48827196304, 
                    [
                        {
                            "pitch": 51, 
                            "t0": 15991.48827196304, 
                            "v": 60, 
                            "dur": 150.0, 
                            "type": "note", 
                            "channel": 0
                        }
                    ]
                ], 
                [
                    17412.299435683555, 
                    [
                        {
                            "pitch": 52, 
                            "t0": 17412.299435683555, 
                            "v": 70, 
                            "dur": 150.0, 
                            "type": "note", 
                            "channel": 0
                        }
                    ]
                ], 
                [
                    18320.569159428003, 
                    [
                        {
                            "pitch": 53, 
                            "t0": 18320.569159428003, 
                            "v": 70, 
                            "dur": 300.0, 
                            "type": "note", 
                            "channel": 0
                        }
                    ]
                ], 
                [
                    19200.0, 
                    [
                        {
                            "pitch": 50, 
                            "t0": 19200.0, 
                            "v": 90, 
                            "dur": 300.0, 
                            "type": "note", 
                            "channel": 0
                        }
                    ]
                ], 
                [
                    19629.46201014633, 
                    [
                        {
                            "pitch": 51, 
                            "t0": 19629.46201014633, 
                            "v": 60, 
                            "dur": 150.0, 
                            "type": "note", 
                            "channel": 0
                        }
                    ]
                ], 
                [
                    20879.286552006513, 
                    [
                        {
                            "pitch": 52, 
                            "t0": 20879.286552006513, 
                            "v": 70, 
                            "dur": 150.0, 
                            "type": "note", 
                            "channel": 0
                        }
                    ]
                ], 
                [
                    21682.233925343353, 
                    [
                        {
                            "pitch": 53, 
                            "t0": 21682.233925343353, 
                            "v": 70, 
                            "dur": 300.0, 
                            "type": "note", 
                            "channel": 0
                        }
                    ]
                ], 
                [
                    22462.560027692398, 
                    [
                        {
                            "pitch": 50, 
                            "t0": 22462.560027692398, 
                            "v": 90, 
                            "dur": 300.0, 
                            "type": "note", 
                            "channel": 0
                        }
                    ]
                ], 
                [
                    22844.63153049633, 
                    [
                        {
                            "pitch": 51, 
                            "t0": 22844.63153049633, 
                            "v": 60, 
                            "dur": 150.0, 
                            "type": "note", 
                            "channel": 0
                        }
                    ]
                ], 
                [
                    23960.20825811684, 
                    [
                        {
                            "pitch": 52, 
                            "t0": 23960.20825811684, 
                            "v": 70, 
                            "dur": 150.0, 
                            "type": "note", 
                            "channel": 0
                        }
                    ]
                ], 
                [
                    24679.722602155165, 
                    [
                        {
                            "pitch": 53, 
                            "t0": 24679.722602155165, 
                            "v": 70, 
                            "dur": 300.0, 
                            "type": "note", 
                            "channel": 0
                        }
                    ]
                ], 
                [
                    25381.019421837358, 
                    [
                        {
                            "pitch": 50, 
                            "t0": 25381.019421837358, 
                            "v": 90, 
                            "dur": 300.0, 
                            "type": "note", 
                            "channel": 0
                        }
                    ]
                ], 
                [
                    25725.120055384796, 
                    [
                        {
                            "pitch": 51, 
                            "t0": 25725.120055384796, 
                            "v": 60, 
                            "dur": 150.0, 
                            "type": "note", 
                            "channel": 0
                        }
                    ]
                ], 
                [
                    26732.494517352196, 
                    [
                        {
                            "pitch": 52, 
                            "t0": 26732.494517352196, 
                            "v": 70, 
                            "dur": 150.0, 
                            "type": "note", 
                            "channel": 0
                        }
                    ]
                ], 
                [
                    27384.28329028028, 
                    [
                        {
                            "pitch": 53, 
                            "t0": 27384.28329028028, 
                            "v": 70, 
                            "dur": 300.0, 
                            "type": "note", 
                            "channel": 0
                        }
                    ]
                ], 
                [
                    28021.08707783611, 
                    [
                        {
                            "pitch": 50, 
                            "t0": 28021.08707783611, 
                            "v": 90, 
                            "dur": 300.0, 
                            "type": "note", 
                            "channel": 0
                        }
                    ]
                ], 
                [
                    28334.081874554835, 
                    [
                        {
                            "pitch": 51, 
                            "t0": 28334.081874554835, 
                            "v": 60, 
                            "dur": 150.0, 
                            "type": "note", 
                            "channel": 0
                        }
                    ]
                ], 
                [
                    29252.38955629465, 
                    [
                        {
                            "pitch": 52, 
                            "t0": 29252.38955629465, 
                            "v": 70, 
                            "dur": 150.0, 
                            "type": "note", 
                            "channel": 0
                        }
                    ]
                ], 
                [
                    29848.105952210637, 
                    [
                        {
                            "pitch": 53, 
                            "t0": 29848.105952210637, 
                            "v": 70, 
                            "dur": 300.0, 
                            "type": "note", 
                            "channel": 0
                        }
                    ]
                ]
            ], 
            "numNotes": 32
        }
    ], 
    "type": "MidiObj"
}