{
    "format": 1, 
    "instruments": [], 
    "resolution": 1000, 
    "channels": [], 
    "tracks": [
        {
            "channels": [], 
            "instruments": [], 
            "type": "TrackObj", 
            "seq": [
                [
                    0.0, 
                    [
                        {
                            "pitch": 50, 
                            "t0": 0.0, 
                            "v": 90, 
                            "dur": 300.0, 
                            "type": "note", 
                            "channel": 0
                        }
                    ]
                ], 
                [
                    215.56330412648066, 
                    [
                        {
                            "pitch": 51, 
                            "t0": 215.56330412648066, 
                            "v": 60, 
                            "dur": 150.0, 
                            "type": "note", 
                            "channel": 0
                        }
                    ]
                ], 
                [
                    852.367091682305, 
                    [
                        {
                            "pitch": 52, 
                            "t0": 852.367091682305, 
                            "v": 70, 
                            "dur": 150.0, 
                            "type": "note", 
                            "channel": 0
                        }
                    ]
                ], 
                [
                    1268.9124567892322, 
                    [
                        {
                            "pitch": 53, 
                            "t0": 1268.9124567892322, 
                            "v": 70, 
                            "dur": 300.0, 
                            "type": "note", 
                            "channel": 0
                        }
                    ]
                ], 
                [
                    1679.2865520065193, 
                    [
                        {
                            "pitch": 50, 
                            "t0": 1679.2865520065193, 
                            "v": 90, 
                            "dur": 300.0, 
                            "type": "note", 
                            "channel": 0
                        }
                    ]
                ], 
                [
                    1882.2159928421142, 
                    [
                        {
                            "pitch": 51, 
                            "t0": 1882.2159928421142, 
                            "v": 60, 
                            "dur": 150.0, 
                            "type": "note", 
                            "channel": 0
                        }
                    ]
                ], 
                [
                    2482.2339253433584, 
                    [
                        {
                            "pitch": 52, 
                            "t0": 2482.2339253433584, 
                            "v": 70, 
                            "dur": 150.0, 
                            "type": "note", 
                            "channel": 0
                        }
                    ]
                ], 
                [
                    2875.144694489899, 
                    [
                        {
                            "pitch": 53, 
                            "t0": 2875.144694489899, 
                            "v": 70, 
                            "dur": 300.0, 
                            "type": "note", 
                            "channel": 0
                        }
                    ]
                ], 
                [
                    3262.5600276923974, 
                    [
                        {
                            "pitch": 50, 
                            "t0": 3262.5600276923974, 
                            "v": 90, 
                            "dur": 300.0, 
                            "type": "note", 
                            "channel": 0
                        }
                    ]
                ], 
                [
                    3454.2545282867422, 
                    [
                        {
                            "pitch": 51, 
                            "t0": 3454.2545282867422, 
                            "v": 60, 
                            "dur": 150.0, 
                            "type": "note", 
                            "channel": 0
                        }
                    ]
                ], 
                [
                    4021.504620075838, 
                    [
                        {
                            "pitch": 52, 
                            "t0": 4021.504620075838, 
                            "v": 70, 
                            "dur": 150.0, 
                            "type": "note", 
                            "channel": 0
                        }
                    ]
                ], 
                [
                    4393.318857520913, 
                    [
                        {
                            "pitch": 53, 
                            "t0": 4393.318857520913, 
                            "v": 70, 
                            "dur": 300.0, 
                            "type": "note", 
                            "channel": 0
                        }
                    ]
                ], 
                [
                    4760.208258116841, 
                    [
                        {
                            "pitch": 50, 
                            "t0": 4760.208258116841, 
                            "v": 90, 
                            "dur": 300.0, 
                            "type": "note", 
                            "channel": 0
                        }
                    ]
                ], 
                [
                    4941.846579698912, 
                    [
                        {
                            "pitch": 51, 
                            "t0": 4941.846579698912, 
                            "v": 60, 
                            "dur": 150.0, 
                            "type": "note", 
                            "channel": 0
                        }
                    ]
                ], 
                [
                    5479.722602155167, 
                    [
                        {
                            "pitch": 52, 
                            "t0": 5479.722602155167, 
                            "v": 70, 
                            "dur": 150.0, 
                            "type": "note", 
                            "channel": 0
                        }
                    ]
                ], 
                [
                    5832.590365000376, 
                    [
                        {
                            "pitch": 53, 
                            "t0": 5832.590365000376, 
                            "v": 70, 
                            "dur": 300.0, 
                            "type": "note", 
                            "channel": 0
                        }
                    ]
                ], 
                [
                    6181.019421837358, 
                    [
                        {
                            "pitch": 50, 
                            "t0": 6181.019421837358, 
                            "v": 90, 
                            "dur": 300.0, 
                            "type": "note", 
                            "channel": 0
                        }
                    ]
                ], 
                [
                    6353.604059800647, 
                    [
                        {
                            "pitch": 51, 
                            "t0": 6353.604059800647, 
                            "v": 60, 
                            "dur": 150.0, 
                            "type": "note", 
                            "channel": 0
                        }
                    ]
                ], 
                [
                    6864.998488667208, 
                    [
                        {
                            "pitch": 52, 
                            "t0": 6864.998488667208, 
                            "v": 70, 
                            "dur": 150.0, 
                            "type": "note", 
                            "channel": 0
                        }
                    ]
                ], 
                [
                    7200.757081860955, 
                    [
                        {
                            "pitch": 53, 
                            "t0": 7200.757081860955, 
                            "v": 70, 
                            "dur": 300.0, 
                            "type": "note", 
                            "channel": 0
                        }
                    ]
                ], 
                [
                    7532.494517352196, 
                    [
                        {
                            "pitch": 50, 
                            "t0": 7532.494517352196, 
                            "v": 90, 
                            "dur": 300.0, 
                            "type": "note", 
                            "channel": 0
                        }
                    ]
                ], 
                [
                    7696.88517661794, 
                    [
                        {
                            "pitch": 51, 
                            "t0": 7696.88517661794, 
                            "v": 60, 
                            "dur": 150.0, 
                            "type": "note", 
                            "channel": 0
                        }
                    ]
                ], 
                [
                    8184.283290280284, 
                    [
                        {
                            "pitch": 52, 
                            "t0": 8184.283290280284, 
                            "v": 70, 
                            "dur": 150.0, 
                            "type": "note", 
                            "channel": 0
                        }
                    ]
                ], 
                [
                    8504.515120295586, 
                    [
                        {
                            "pitch": 53, 
                            "t0": 8504.515120295586, 
                            "v": 70, 
                            "dur": 300.0, 
                            "type": "note", 
                            "channel": 0
                        }
                    ]
                ], 
                [
                    8821.087077836108, 
                    [
                        {
                            "pitch": 50, 
                            "t0": 8821.087077836108, 
                            "v": 90, 
                            "dur": 300.0, 
                            "type": "note", 
                            "channel": 0
                        }
                    ]
                ], 
                [
                    8978.026561593555, 
                    [
                        {
                            "pitch": 51, 
                            "t0": 8978.026561593555, 
                            "v": 60, 
                            "dur": 150.0, 
                            "type": "note", 
                            "channel": 0
                        }
                    ]
                ], 
                [
                    9443.579449529756, 
                    [
                        {
                            "pitch": 52, 
                            "t0": 9443.579449529756, 
                            "v": 70, 
                            "dur": 150.0, 
                            "type": "note", 
                            "channel": 0
                        }
                    ]
                ], 
                [
                    9749.657091814966, 
                    [
                        {
                            "pitch": 53, 
                            "t0": 9749.657091814966, 
                            "v": 70, 
                            "dur": 300.0, 
                            "type": "note", 
                            "channel": 0
                        }
                    ]
                ], 
                [
                    10052.389556294647, 
                    [
                        {
                            "pitch": 50, 
                            "t0": 10052.389556294647, 
                            "v": 90, 
                            "dur": 300.0, 
                            "type": "note", 
                            "channel": 0
                        }
                    ]
                ], 
                [
                    10202.524041913191, 
                    [
                        {
                            "pitch": 51, 
                            "t0": 10202.524041913191, 
                            "v": 60, 
                            "dur": 150.0, 
                            "type": "note", 
                            "channel": 0
                        }
                    ]
                ], 
                [
                    10648.105952210637, 
                    [
                        {
                            "pitch": 52, 
                            "t0": 10648.105952210637, 
                            "v": 70, 
                            "dur": 150.0, 
                            "type": "note", 
                            "channel": 0
                        }
                    ]
                ], 
                [
                    10941.227679954198, 
                    [
                        {
                            "pitch": 53, 
                            "t0": 10941.227679954198, 
                            "v": 70, 
                            "dur": 300.0, 
                            "type": "note", 
                            "channel": 0
                        }
                    ]
                ], 
                [
                    11231.2800138462, 
                    [
                        {
                            "pitch": 50, 
                            "t0": 11231.2800138462, 
                            "v": 90, 
                            "dur": 300.0, 
                            "type": "note", 
                            "channel": 0
                        }
                    ]
                ], 
                [
                    11375.175115547145, 
                    [
                        {
                            "pitch": 51, 
                            "t0": 11375.175115547145, 
                            "v": 60, 
                            "dur": 150.0, 
                            "type": "note", 
                            "channel": 0
                        }
                    ]
                ], 
                [
                    11802.429007011997, 
                    [
                        {
                            "pitch": 52, 
                            "t0": 11802.429007011997, 
                            "v": 70, 
                            "dur": 150.0, 
                            "type": "note", 
                            "channel": 0
                        }
                    ]
                ], 
                [
                    12083.647105528511, 
                    [
                        {
                            "pitch": 53, 
                            "t0": 12083.647105528511, 
                            "v": 70, 
                            "dur": 300.0, 
                            "type": "note", 
                            "channel": 0
                        }
                    ]
                ], 
                [
                    12362.038843674716, 
                    [
                        {
                            "pitch": 50, 
                            "t0": 12362.038843674716, 
                            "v": 90, 
                            "dur": 300.0, 
                            "type": "note", 
                            "channel": 0
                        }
                    ]
                ], 
                [
                    12500.19247063543, 
                    [
                        {
                            "pitch": 51, 
                            "t0": 12500.19247063543, 
                            "v": 60, 
                            "dur": 150.0, 
                            "type": "note", 
                            "channel": 0
                        }
                    ]
                ], 
                [
                    12910.566565852716, 
                    [
                        {
                            "pitch": 52, 
                            "t0": 12910.566565852716, 
                            "v": 70, 
                            "dur": 150.0, 
                            "type": "note", 
                            "channel": 0
                        }
                    ]
                ], 
                [
                    13180.810121917795, 
                    [
                        {
                            "pitch": 53, 
                            "t0": 13180.810121917795, 
                            "v": 70, 
                            "dur": 300.0, 
                            "type": "note", 
                            "channel": 0
                        }
                    ]
                ], 
                [
                    13448.44258830897, 
                    [
                        {
                            "pitch": 50, 
                            "t0": 13448.44258830897, 
                            "v": 90, 
                            "dur": 300.0, 
                            "type": "note", 
                            "channel": 0
                        }
                    ]
                ], 
                [
                    13581.295335952953, 
                    [
                        {
                            "pitch": 51, 
                            "t0": 13581.295335952953, 
                            "v": 60, 
                            "dur": 150.0, 
                            "type": "note", 
                            "channel": 0
                        }
                    ]
                ], 
                [
                    13976.072727613424, 
                    [
                        {
                            "pitch": 52, 
                            "t0": 13976.072727613424, 
                            "v": 70, 
                            "dur": 150.0, 
                            "type": "note", 
                            "channel": 0
                        }
                    ]
                ], 
                [
                    14236.166138902026, 
                    [
                        {
                            "pitch": 53, 
                            "t0": 14236.166138902026, 
                            "v": 70, 
                            "dur": 300.0, 
                            "type": "note", 
                            "channel": 0
                        }
                    ]
                ], 
                [
                    14493.840041538599, 
                    [
                        {
                            "pitch": 50, 
                            "t0": 14493.840041538599, 
                            "v": 90, 
                            "dur": 300.0, 
                            "type": "note", 
                            "channel": 0
                        }
                    ]
                ], 
                [
                    14621.783662934007, 
                    [
                        {
                            "pitch": 51, 
                            "t0": 14621.783662934007, 
                            "v": 60, 
                            "dur": 150.0, 
                            "type": "note", 
                            "channel": 0
                        }
                    ]
                ], 
                [
                    15002.106499673462, 
                    [
                        {
                            "pitch": 52, 
                            "t0": 15002.106499673462, 
                            "v": 70, 
                            "dur": 150.0, 
                            "type": "note", 
                            "channel": 0
                        }
                    ]
                ], 
                [
                    15252.784633922034, 
                    [
                        {
                            "pitch": 53, 
                            "t0": 15252.784633922034, 
                            "v": 70, 
                            "dur": 300.0, 
                            "type": "note", 
                            "channel": 0
                        }
                    ]
                ], 
                [
                    15501.214503506, 
                    [
                        {
                            "pitch": 50, 
                            "t0": 15501.214503506, 
                            "v": 90, 
                            "dur": 300.0, 
                            "type": "note", 
                            "channel": 0
                        }
                    ]
                ], 
                [
                    15624.59887136711, 
                    [
                        {
                            "pitch": 51, 
                            "t0": 15624.59887136711, 
                            "v": 60, 
                            "dur": 150.0, 
                            "type": "note", 
                            "channel": 0
                        }
                    ]
                ], 
                [
                    15991.48827196304, 
                    [
                        {
                            "pitch": 52, 
                            "t0": 15991.48827196304, 
                            "v": 70, 
                            "dur": 150.0, 
                            "type": "note", 
                            "channel": 0
                        }
                    ]
                ], 
                [
                    16233.408978132005, 
                    [
                        {
                            "pitch": 53, 
                            "t0": 16233.408978132005, 
                            "v": 70, 
                            "dur": 300.0000000000018, 
                            "type": "note", 
                            "channel": 0
                        }
                    ]
                ], 
                [
                    16473.23510644939, 
                    [
                        {
                            "pitch": 50, 
                            "t0": 16473.23510644939, 
                            "v": 90, 
                            "dur": 300.0, 
                            "type": "note", 
                            "channel": 0
                        }
                    ]
                ], 
                [
                    16592.373977362182, 
                    [
                        {
                            "pitch": 51, 
                            "t0": 16592.373977362182, 
                            "v": 60, 
                            "dur": 150.0, 
                            "type": "note", 
                            "channel": 0
                        }
                    ]
                ], 
                [
                    16946.74654774735, 
                    [
                        {
                            "pitch": 52, 
                            "t0": 16946.74654774735, 
                            "v": 70, 
                            "dur": 150.0, 
                            "type": "note", 
                            "channel": 0
                        }
                    ]
                ], 
                [
                    17180.501055512515, 
                    [
                        {
                            "pitch": 53, 
                            "t0": 17180.501055512515, 
                            "v": 70, 
                            "dur": 300.0, 
                            "type": "note", 
                            "channel": 0
                        }
                    ]
                ], 
                [
                    17412.29943568356, 
                    [
                        {
                            "pitch": 50, 
                            "t0": 17412.29943568356, 
                            "v": 90, 
                            "dur": 300.0, 
                            "type": "note", 
                            "channel": 0
                        }
                    ]
                ], 
                [
                    17527.47525561526, 
                    [
                        {
                            "pitch": 51, 
                            "t0": 17527.47525561526, 
                            "v": 60, 
                            "dur": 150.0, 
                            "type": "note", 
                            "channel": 0
                        }
                    ]
                ], 
                [
                    17870.156881207415, 
                    [
                        {
                            "pitch": 52, 
                            "t0": 17870.156881207415, 
                            "v": 70, 
                            "dur": 150.0, 
                            "type": "note", 
                            "channel": 0
                        }
                    ]
                ], 
                [
                    18096.278502513407, 
                    [
                        {
                            "pitch": 53, 
                            "t0": 18096.278502513407, 
                            "v": 70, 
                            "dur": 300.0, 
                            "type": "note", 
                            "channel": 0
                        }
                    ]
                ], 
                [
                    18320.569159428007, 
                    [
                        {
                            "pitch": 50, 
                            "t0": 18320.569159428007, 
                            "v": 90, 
                            "dur": 300.0, 
                            "type": "note", 
                            "channel": 0
                        }
                    ]
                ], 
                [
                    18432.03709570715, 
                    [
                        {
                            "pitch": 51, 
                            "t0": 18432.03709570715, 
                            "v": 60, 
                            "dur": 150.0, 
                            "type": "note", 
                            "channel": 0
                        }
                    ]
                ], 
                [
                    18763.774531198396, 
                    [
                        {
                            "pitch": 52, 
                            "t0": 18763.774531198396, 
                            "v": 70, 
                            "dur": 150.0, 
                            "type": "note", 
                            "channel": 0
                        }
                    ]
                ], 
                [
                    18982.745986025584, 
                    [
                        {
                            "pitch": 53, 
                            "t0": 18982.745986025584, 
                            "v": 70, 
                            "dur": 300.0, 
                            "type": "note", 
                            "channel": 0
                        }
                    ]
                ]
            ], 
            "numNotes": 64
        }
    ], 
    "type": "MidiObj"
}