{
    "format": 1, 
    "instruments": [], 
    "resolution": 300, 
    "channels": [], 
    "tracks": [
        {
            "seq": [
                [
                    0, 
                    [
                        {
                            "pitch": 50, 
                            "t0": 0, 
                            "v": 0, 
                            "dur": 432.80851226668904, 
                            "type": "note", 
                            "channel": 9
                        }
                    ]
                ], 
                [
                    1631, 
                    [
                        {
                            "pitch": 50, 
                            "t0": 1631, 
                            "v": 1, 
                            "dur": 384.71867757039035, 
                            "type": "note", 
                            "channel": 9
                        }
                    ]
                ], 
                [
                    3091, 
                    [
                        {
                            "pitch": 50, 
                            "t0": 3091, 
                            "v": 2, 
                            "dur": 346.2468098133513, 
                            "type": "note", 
                            "channel": 9
                        }
                    ]
                ], 
                [
                    4411, 
                    [
                        {
                            "pitch": 50, 
                            "t0": 4411, 
                            "v": 5, 
                            "dur": 314.76982710304674, 
                            "type": "note", 
                            "channel": 9
                        }
                    ]
                ], 
                [
                    5616, 
                    [
                        {
                            "pitch": 50, 
                            "t0": 5616, 
                            "v": 11, 
                            "dur": 288.5390081777923, 
                            "type": "note", 
                            "channel": 9
                        }
                    ]
                ], 
                [
                    6724, 
                    [
                        {
                            "pitch": 50, 
                            "t0": 6724, 
                            "v": 12, 
                            "dur": 266.3436998564239, 
                            "type": "note", 
                            "channel": 9
                        }
                    ]
                ], 
                [
                    7751, 
                    [
                        {
                            "pitch": 50, 
                            "t0": 7751, 
                            "v": 15, 
                            "dur": 247.31914986667925, 
                            "type": "note", 
                            "channel": 9
                        }
                    ]
                ], 
                [
                    8706, 
                    [
                        {
                            "pitch": 50, 
                            "t0": 8706, 
                            "v": 19, 
                            "dur": 230.8312065422342, 
                            "type": "note", 
                            "channel": 9
                        }
                    ]
                ], 
                [
                    9600, 
                    [
                        {
                            "pitch": 50, 
                            "t0": 9600, 
                            "v": 30, 
                            "dur": 216.40425613334446, 
                            "type": "note", 
                            "channel": 9
                        }
                    ]
                ], 
                [
                    9816.404256133344, 
                    [
                        {
                            "pitch": 50, 
                            "t0": 9816.404256133344, 
                            "v": 0, 
                            "dur": 432.8085122666889, 
                            "type": "note", 
                            "channel": 9
                        }
                    ]
                ], 
                [
                    11447.404256133344, 
                    [
                        {
                            "pitch": 50, 
                            "t0": 11447.404256133344, 
                            "v": 1, 
                            "dur": 384.71867757039035, 
                            "type": "note", 
                            "channel": 9
                        }
                    ]
                ], 
                [
                    12907.404256133344, 
                    [
                        {
                            "pitch": 50, 
                            "t0": 12907.404256133344, 
                            "v": 2, 
                            "dur": 346.2468098133504, 
                            "type": "note", 
                            "channel": 9
                        }
                    ]
                ], 
                [
                    14227.404256133344, 
                    [
                        {
                            "pitch": 50, 
                            "t0": 14227.404256133344, 
                            "v": 5, 
                            "dur": 314.7698271030458, 
                            "type": "note", 
                            "channel": 9
                        }
                    ]
                ], 
                [
                    15432.404256133344, 
                    [
                        {
                            "pitch": 50, 
                            "t0": 15432.404256133344, 
                            "v": 11, 
                            "dur": 288.5390081777932, 
                            "type": "note", 
                            "channel": 9
                        }
                    ]
                ], 
                [
                    16540.404256133344, 
                    [
                        {
                            "pitch": 50, 
                            "t0": 16540.404256133344, 
                            "v": 12, 
                            "dur": 266.3436998564248, 
                            "type": "note", 
                            "channel": 9
                        }
                    ]
                ], 
                [
                    17567.404256133344, 
                    [
                        {
                            "pitch": 50, 
                            "t0": 17567.404256133344, 
                            "v": 15, 
                            "dur": 247.31914986667834, 
                            "type": "note", 
                            "channel": 9
                        }
                    ]
                ], 
                [
                    18522.404256133344, 
                    [
                        {
                            "pitch": 50, 
                            "t0": 18522.404256133344, 
                            "v": 19, 
                            "dur": 230.8312065422324, 
                            "type": "note", 
                            "channel": 9
                        }
                    ]
                ], 
                [
                    19416.404256133344, 
                    [
                        {
                            "pitch": 50, 
                            "t0": 19416.404256133344, 
                            "v": 30, 
                            "dur": 216.40425613334446, 
                            "type": "note", 
                            "channel": 9
                        }
                    ]
                ], 
                [
                    19632.80851226669, 
                    [
                        {
                            "pitch": 50, 
                            "t0": 19632.80851226669, 
                            "v": 0, 
                            "dur": 432.8085122666889, 
                            "type": "note", 
                            "channel": 9
                        }
                    ]
                ], 
                [
                    21263.80851226669, 
                    [
                        {
                            "pitch": 50, 
                            "t0": 21263.80851226669, 
                            "v": 1, 
                            "dur": 384.71867757038854, 
                            "type": "note", 
                            "channel": 9
                        }
                    ]
                ], 
                [
                    22723.80851226669, 
                    [
                        {
                            "pitch": 50, 
                            "t0": 22723.80851226669, 
                            "v": 2, 
                            "dur": 346.2468098133504, 
                            "type": "note", 
                            "channel": 9
                        }
                    ]
                ], 
                [
                    24043.80851226669, 
                    [
                        {
                            "pitch": 50, 
                            "t0": 24043.80851226669, 
                            "v": 5, 
                            "dur": 314.7698271030458, 
                            "type": "note", 
                            "channel": 9
                        }
                    ]
                ], 
                [
                    25248.80851226669, 
                    [
                        {
                            "pitch": 50, 
                            "t0": 25248.80851226669, 
                            "v": 11, 
                            "dur": 288.5390081777914, 
                            "type": "note", 
                            "channel": 9
                        }
                    ]
                ], 
                [
                    26356.80851226669, 
                    [
                        {
                            "pitch": 50, 
                            "t0": 26356.80851226669, 
                            "v": 12, 
                            "dur": 266.3436998564248, 
                            "type": "note", 
                            "channel": 9
                        }
                    ]
                ], 
                [
                    27383.80851226669, 
                    [
                        {
                            "pitch": 50, 
                            "t0": 27383.80851226669, 
                            "v": 15, 
                            "dur": 247.31914986667834, 
                            "type": "note", 
                            "channel": 9
                        }
                    ]
                ], 
                [
                    28338.80851226669, 
                    [
                        {
                            "pitch": 50, 
                            "t0": 28338.80851226669, 
                            "v": 19, 
                            "dur": 230.8312065422324, 
                            "type": "note", 
                            "channel": 9
                        }
                    ]
                ], 
                [
                    29232.80851226669, 
                    [
                        {
                            "pitch": 50, 
                            "t0": 29232.80851226669, 
                            "v": 30, 
                            "dur": 216.40425613334446, 
                            "type": "note", 
                            "channel": 9
                        }
                    ]
                ], 
                [
                    29449.212768400033, 
                    [
                        {
                            "pitch": 50, 
                            "t0": 29449.212768400033, 
                            "v": 0, 
                            "dur": 432.8085122666889, 
                            "type": "note", 
                            "channel": 9
                        }
                    ]
                ], 
                [
                    31080.212768400033, 
                    [
                        {
                            "pitch": 50, 
                            "t0": 31080.212768400033, 
                            "v": 1, 
                            "dur": 384.7186775703922, 
                            "type": "note", 
                            "channel": 9
                        }
                    ]
                ], 
                [
                    32540.212768400033, 
                    [
                        {
                            "pitch": 50, 
                            "t0": 32540.212768400033, 
                            "v": 2, 
                            "dur": 346.2468098133504, 
                            "type": "note", 
                            "channel": 9
                        }
                    ]
                ], 
                [
                    33860.21276840003, 
                    [
                        {
                            "pitch": 50, 
                            "t0": 33860.21276840003, 
                            "v": 5, 
                            "dur": 314.7698271030458, 
                            "type": "note", 
                            "channel": 9
                        }
                    ]
                ], 
                [
                    35065.21276840003, 
                    [
                        {
                            "pitch": 50, 
                            "t0": 35065.21276840003, 
                            "v": 11, 
                            "dur": 288.53900817779504, 
                            "type": "note", 
                            "channel": 9
                        }
                    ]
                ], 
                [
                    36173.21276840003, 
                    [
                        {
                            "pitch": 50, 
                            "t0": 36173.21276840003, 
                            "v": 12, 
                            "dur": 266.34369985642115, 
                            "type": "note", 
                            "channel": 9
                        }
                    ]
                ], 
                [
                    37200.21276840003, 
                    [
                        {
                            "pitch": 50, 
                            "t0": 37200.21276840003, 
                            "v": 15, 
                            "dur": 247.31914986667834, 
                            "type": "note", 
                            "channel": 9
                        }
                    ]
                ], 
                [
                    38155.21276840003, 
                    [
                        {
                            "pitch": 50, 
                            "t0": 38155.21276840003, 
                            "v": 19, 
                            "dur": 230.83120654223603, 
                            "type": "note", 
                            "channel": 9
                        }
                    ]
                ], 
                [
                    39049.21276840003, 
                    [
                        {
                            "pitch": 50, 
                            "t0": 39049.21276840003, 
                            "v": 30, 
                            "dur": 216.4042561333481, 
                            "type": "note", 
                            "channel": 9
                        }
                    ]
                ]
            ], 
            "instruments": [], 
            "tMax": 39265.61702453338, 
            "channels": [], 
            "numNotes": 36, 
            "type": "TrackObj"
        }, 
        {
            "seq": [
                [
                    0, 
                    [
                        {
                            "pitch": 50, 
                            "t0": 0, 
                            "v": 30, 
                            "dur": 216.40425613334452, 
                            "type": "note", 
                            "channel": 9
                        }
                    ]
                ], 
                [
                    840, 
                    [
                        {
                            "pitch": 50, 
                            "t0": 840, 
                            "v": 27, 
                            "dur": 203.67459400785356, 
                            "type": "note", 
                            "channel": 9
                        }
                    ]
                ], 
                [
                    1631, 
                    [
                        {
                            "pitch": 50, 
                            "t0": 1631, 
                            "v": 30, 
                            "dur": 192.35933878519518, 
                            "type": "note", 
                            "channel": 9
                        }
                    ]
                ], 
                [
                    2380, 
                    [
                        {
                            "pitch": 50, 
                            "t0": 2380, 
                            "v": 34, 
                            "dur": 182.2351630596586, 
                            "type": "note", 
                            "channel": 9
                        }
                    ]
                ], 
                [
                    3091, 
                    [
                        {
                            "pitch": 50, 
                            "t0": 3091, 
                            "v": 47, 
                            "dur": 173.12340490667566, 
                            "type": "note", 
                            "channel": 9
                        }
                    ]
                ], 
                [
                    3766, 
                    [
                        {
                            "pitch": 50, 
                            "t0": 3766, 
                            "v": 40, 
                            "dur": 164.87943324445314, 
                            "type": "note", 
                            "channel": 9
                        }
                    ]
                ], 
                [
                    4411, 
                    [
                        {
                            "pitch": 50, 
                            "t0": 4411, 
                            "v": 43, 
                            "dur": 157.3849135515229, 
                            "type": "note", 
                            "channel": 9
                        }
                    ]
                ], 
                [
                    5026, 
                    [
                        {
                            "pitch": 50, 
                            "t0": 5026, 
                            "v": 46, 
                            "dur": 150.54209122319662, 
                            "type": "note", 
                            "channel": 9
                        }
                    ]
                ], 
                [
                    5616, 
                    [
                        {
                            "pitch": 50, 
                            "t0": 5616, 
                            "v": 62, 
                            "dur": 144.2695040888966, 
                            "type": "note", 
                            "channel": 9
                        }
                    ]
                ], 
                [
                    6181, 
                    [
                        {
                            "pitch": 50, 
                            "t0": 6181, 
                            "v": 51, 
                            "dur": 138.49872392534053, 
                            "type": "note", 
                            "channel": 9
                        }
                    ]
                ], 
                [
                    6724, 
                    [
                        {
                            "pitch": 50, 
                            "t0": 6724, 
                            "v": 53, 
                            "dur": 133.1718499282124, 
                            "type": "note", 
                            "channel": 9
                        }
                    ]
                ], 
                [
                    7247, 
                    [
                        {
                            "pitch": 50, 
                            "t0": 7247, 
                            "v": 55, 
                            "dur": 128.23955919013042, 
                            "type": "note", 
                            "channel": 9
                        }
                    ]
                ], 
                [
                    7751, 
                    [
                        {
                            "pitch": 50, 
                            "t0": 7751, 
                            "v": 73, 
                            "dur": 123.65957493334008, 
                            "type": "note", 
                            "channel": 9
                        }
                    ]
                ], 
                [
                    8237, 
                    [
                        {
                            "pitch": 50, 
                            "t0": 8237, 
                            "v": 58, 
                            "dur": 119.39545165977688, 
                            "type": "note", 
                            "channel": 9
                        }
                    ]
                ], 
                [
                    8706, 
                    [
                        {
                            "pitch": 50, 
                            "t0": 8706, 
                            "v": 60, 
                            "dur": 115.4156032711162, 
                            "type": "note", 
                            "channel": 9
                        }
                    ]
                ], 
                [
                    9160, 
                    [
                        {
                            "pitch": 50, 
                            "t0": 9160, 
                            "v": 61, 
                            "dur": 111.69251929462916, 
                            "type": "note", 
                            "channel": 9
                        }
                    ]
                ], 
                [
                    9600, 
                    [
                        {
                            "pitch": 50, 
                            "t0": 9600, 
                            "v": 80, 
                            "dur": 108.20212806667223, 
                            "type": "note", 
                            "channel": 9
                        }
                    ]
                ], 
                [
                    9708.202128066672, 
                    [
                        {
                            "pitch": 50, 
                            "t0": 9708.202128066672, 
                            "v": 30, 
                            "dur": 216.40425613334446, 
                            "type": "note", 
                            "channel": 9
                        }
                    ]
                ], 
                [
                    10548.202128066672, 
                    [
                        {
                            "pitch": 50, 
                            "t0": 10548.202128066672, 
                            "v": 27, 
                            "dur": 203.67459400785447, 
                            "type": "note", 
                            "channel": 9
                        }
                    ]
                ], 
                [
                    11339.202128066672, 
                    [
                        {
                            "pitch": 50, 
                            "t0": 11339.202128066672, 
                            "v": 30, 
                            "dur": 192.35933878519427, 
                            "type": "note", 
                            "channel": 9
                        }
                    ]
                ], 
                [
                    12088.202128066672, 
                    [
                        {
                            "pitch": 50, 
                            "t0": 12088.202128066672, 
                            "v": 34, 
                            "dur": 182.2351630596586, 
                            "type": "note", 
                            "channel": 9
                        }
                    ]
                ], 
                [
                    12799.202128066672, 
                    [
                        {
                            "pitch": 50, 
                            "t0": 12799.202128066672, 
                            "v": 47, 
                            "dur": 173.1234049066752, 
                            "type": "note", 
                            "channel": 9
                        }
                    ]
                ], 
                [
                    13474.202128066672, 
                    [
                        {
                            "pitch": 50, 
                            "t0": 13474.202128066672, 
                            "v": 40, 
                            "dur": 164.87943324445223, 
                            "type": "note", 
                            "channel": 9
                        }
                    ]
                ], 
                [
                    14119.202128066672, 
                    [
                        {
                            "pitch": 50, 
                            "t0": 14119.202128066672, 
                            "v": 43, 
                            "dur": 157.3849135515229, 
                            "type": "note", 
                            "channel": 9
                        }
                    ]
                ], 
                [
                    14734.202128066672, 
                    [
                        {
                            "pitch": 50, 
                            "t0": 14734.202128066672, 
                            "v": 46, 
                            "dur": 150.54209122319662, 
                            "type": "note", 
                            "channel": 9
                        }
                    ]
                ], 
                [
                    15324.202128066672, 
                    [
                        {
                            "pitch": 50, 
                            "t0": 15324.202128066672, 
                            "v": 62, 
                            "dur": 144.2695040888957, 
                            "type": "note", 
                            "channel": 9
                        }
                    ]
                ], 
                [
                    15889.202128066672, 
                    [
                        {
                            "pitch": 50, 
                            "t0": 15889.202128066672, 
                            "v": 51, 
                            "dur": 138.49872392534053, 
                            "type": "note", 
                            "channel": 9
                        }
                    ]
                ], 
                [
                    16432.202128066674, 
                    [
                        {
                            "pitch": 50, 
                            "t0": 16432.202128066674, 
                            "v": 53, 
                            "dur": 133.17184992821058, 
                            "type": "note", 
                            "channel": 9
                        }
                    ]
                ], 
                [
                    16955.202128066674, 
                    [
                        {
                            "pitch": 50, 
                            "t0": 16955.202128066674, 
                            "v": 55, 
                            "dur": 128.2395591901295, 
                            "type": "note", 
                            "channel": 9
                        }
                    ]
                ], 
                [
                    17459.202128066674, 
                    [
                        {
                            "pitch": 50, 
                            "t0": 17459.202128066674, 
                            "v": 73, 
                            "dur": 123.65957493333917, 
                            "type": "note", 
                            "channel": 9
                        }
                    ]
                ], 
                [
                    17945.202128066674, 
                    [
                        {
                            "pitch": 50, 
                            "t0": 17945.202128066674, 
                            "v": 58, 
                            "dur": 119.39545165977688, 
                            "type": "note", 
                            "channel": 9
                        }
                    ]
                ], 
                [
                    18414.202128066674, 
                    [
                        {
                            "pitch": 50, 
                            "t0": 18414.202128066674, 
                            "v": 60, 
                            "dur": 115.41560327111802, 
                            "type": "note", 
                            "channel": 9
                        }
                    ]
                ], 
                [
                    18868.202128066674, 
                    [
                        {
                            "pitch": 50, 
                            "t0": 18868.202128066674, 
                            "v": 61, 
                            "dur": 111.69251929462916, 
                            "type": "note", 
                            "channel": 9
                        }
                    ]
                ], 
                [
                    19308.202128066674, 
                    [
                        {
                            "pitch": 50, 
                            "t0": 19308.202128066674, 
                            "v": 80, 
                            "dur": 108.20212806667405, 
                            "type": "note", 
                            "channel": 9
                        }
                    ]
                ], 
                [
                    19416.404256133344, 
                    [
                        {
                            "pitch": 50, 
                            "t0": 19416.404256133344, 
                            "v": 30, 
                            "dur": 216.40425613334446, 
                            "type": "note", 
                            "channel": 9
                        }
                    ]
                ], 
                [
                    20256.404256133344, 
                    [
                        {
                            "pitch": 50, 
                            "t0": 20256.404256133344, 
                            "v": 27, 
                            "dur": 203.67459400785447, 
                            "type": "note", 
                            "channel": 9
                        }
                    ]
                ], 
                [
                    21047.404256133344, 
                    [
                        {
                            "pitch": 50, 
                            "t0": 21047.404256133344, 
                            "v": 30, 
                            "dur": 192.35933878519427, 
                            "type": "note", 
                            "channel": 9
                        }
                    ]
                ], 
                [
                    21796.404256133344, 
                    [
                        {
                            "pitch": 50, 
                            "t0": 21796.404256133344, 
                            "v": 34, 
                            "dur": 182.23516305965677, 
                            "type": "note", 
                            "channel": 9
                        }
                    ]
                ], 
                [
                    22507.404256133344, 
                    [
                        {
                            "pitch": 50, 
                            "t0": 22507.404256133344, 
                            "v": 47, 
                            "dur": 173.12340490667702, 
                            "type": "note", 
                            "channel": 9
                        }
                    ]
                ], 
                [
                    23182.404256133344, 
                    [
                        {
                            "pitch": 50, 
                            "t0": 23182.404256133344, 
                            "v": 40, 
                            "dur": 164.87943324445223, 
                            "type": "note", 
                            "channel": 9
                        }
                    ]
                ], 
                [
                    23827.404256133344, 
                    [
                        {
                            "pitch": 50, 
                            "t0": 23827.404256133344, 
                            "v": 43, 
                            "dur": 157.3849135515229, 
                            "type": "note", 
                            "channel": 9
                        }
                    ]
                ], 
                [
                    24442.404256133344, 
                    [
                        {
                            "pitch": 50, 
                            "t0": 24442.404256133344, 
                            "v": 46, 
                            "dur": 150.54209122319662, 
                            "type": "note", 
                            "channel": 9
                        }
                    ]
                ], 
                [
                    25032.404256133344, 
                    [
                        {
                            "pitch": 50, 
                            "t0": 25032.404256133344, 
                            "v": 62, 
                            "dur": 144.26950408889752, 
                            "type": "note", 
                            "channel": 9
                        }
                    ]
                ], 
                [
                    25597.404256133344, 
                    [
                        {
                            "pitch": 50, 
                            "t0": 25597.404256133344, 
                            "v": 51, 
                            "dur": 138.4987239253387, 
                            "type": "note", 
                            "channel": 9
                        }
                    ]
                ], 
                [
                    26140.404256133344, 
                    [
                        {
                            "pitch": 50, 
                            "t0": 26140.404256133344, 
                            "v": 53, 
                            "dur": 133.17184992821058, 
                            "type": "note", 
                            "channel": 9
                        }
                    ]
                ], 
                [
                    26663.404256133344, 
                    [
                        {
                            "pitch": 50, 
                            "t0": 26663.404256133344, 
                            "v": 55, 
                            "dur": 128.2395591901295, 
                            "type": "note", 
                            "channel": 9
                        }
                    ]
                ], 
                [
                    27167.404256133344, 
                    [
                        {
                            "pitch": 50, 
                            "t0": 27167.404256133344, 
                            "v": 73, 
                            "dur": 123.65957493333917, 
                            "type": "note", 
                            "channel": 9
                        }
                    ]
                ], 
                [
                    27653.404256133344, 
                    [
                        {
                            "pitch": 50, 
                            "t0": 27653.404256133344, 
                            "v": 58, 
                            "dur": 119.39545165977688, 
                            "type": "note", 
                            "channel": 9
                        }
                    ]
                ], 
                [
                    28122.404256133344, 
                    [
                        {
                            "pitch": 50, 
                            "t0": 28122.404256133344, 
                            "v": 60, 
                            "dur": 115.41560327111802, 
                            "type": "note", 
                            "channel": 9
                        }
                    ]
                ], 
                [
                    28576.404256133344, 
                    [
                        {
                            "pitch": 50, 
                            "t0": 28576.404256133344, 
                            "v": 61, 
                            "dur": 111.69251929462916, 
                            "type": "note", 
                            "channel": 9
                        }
                    ]
                ], 
                [
                    29016.404256133344, 
                    [
                        {
                            "pitch": 50, 
                            "t0": 29016.404256133344, 
                            "v": 80, 
                            "dur": 108.20212806667405, 
                            "type": "note", 
                            "channel": 9
                        }
                    ]
                ], 
                [
                    29124.606384200015, 
                    [
                        {
                            "pitch": 50, 
                            "t0": 29124.606384200015, 
                            "v": 30, 
                            "dur": 216.40425613334446, 
                            "type": "note", 
                            "channel": 9
                        }
                    ]
                ], 
                [
                    29964.606384200015, 
                    [
                        {
                            "pitch": 50, 
                            "t0": 29964.606384200015, 
                            "v": 27, 
                            "dur": 203.67459400785447, 
                            "type": "note", 
                            "channel": 9
                        }
                    ]
                ], 
                [
                    30755.606384200015, 
                    [
                        {
                            "pitch": 50, 
                            "t0": 30755.606384200015, 
                            "v": 30, 
                            "dur": 192.35933878519427, 
                            "type": "note", 
                            "channel": 9
                        }
                    ]
                ], 
                [
                    31504.606384200015, 
                    [
                        {
                            "pitch": 50, 
                            "t0": 31504.606384200015, 
                            "v": 34, 
                            "dur": 182.23516305965677, 
                            "type": "note", 
                            "channel": 9
                        }
                    ]
                ], 
                [
                    32215.606384200015, 
                    [
                        {
                            "pitch": 50, 
                            "t0": 32215.606384200015, 
                            "v": 47, 
                            "dur": 173.12340490667702, 
                            "type": "note", 
                            "channel": 9
                        }
                    ]
                ], 
                [
                    32890.606384200015, 
                    [
                        {
                            "pitch": 50, 
                            "t0": 32890.606384200015, 
                            "v": 40, 
                            "dur": 164.87943324445223, 
                            "type": "note", 
                            "channel": 9
                        }
                    ]
                ], 
                [
                    33535.606384200015, 
                    [
                        {
                            "pitch": 50, 
                            "t0": 33535.606384200015, 
                            "v": 43, 
                            "dur": 157.38491355152655, 
                            "type": "note", 
                            "channel": 9
                        }
                    ]
                ], 
                [
                    34150.606384200015, 
                    [
                        {
                            "pitch": 50, 
                            "t0": 34150.606384200015, 
                            "v": 46, 
                            "dur": 150.54209122319298, 
                            "type": "note", 
                            "channel": 9
                        }
                    ]
                ], 
                [
                    34740.606384200015, 
                    [
                        {
                            "pitch": 50, 
                            "t0": 34740.606384200015, 
                            "v": 62, 
                            "dur": 144.26950408889388, 
                            "type": "note", 
                            "channel": 9
                        }
                    ]
                ], 
                [
                    35305.606384200015, 
                    [
                        {
                            "pitch": 50, 
                            "t0": 35305.606384200015, 
                            "v": 51, 
                            "dur": 138.4987239253387, 
                            "type": "note", 
                            "channel": 9
                        }
                    ]
                ], 
                [
                    35848.606384200015, 
                    [
                        {
                            "pitch": 50, 
                            "t0": 35848.606384200015, 
                            "v": 53, 
                            "dur": 133.17184992821421, 
                            "type": "note", 
                            "channel": 9
                        }
                    ]
                ], 
                [
                    36371.606384200015, 
                    [
                        {
                            "pitch": 50, 
                            "t0": 36371.606384200015, 
                            "v": 55, 
                            "dur": 128.2395591901295, 
                            "type": "note", 
                            "channel": 9
                        }
                    ]
                ], 
                [
                    36875.606384200015, 
                    [
                        {
                            "pitch": 50, 
                            "t0": 36875.606384200015, 
                            "v": 73, 
                            "dur": 123.65957493334281, 
                            "type": "note", 
                            "channel": 9
                        }
                    ]
                ], 
                [
                    37361.606384200015, 
                    [
                        {
                            "pitch": 50, 
                            "t0": 37361.606384200015, 
                            "v": 58, 
                            "dur": 119.39545165977324, 
                            "type": "note", 
                            "channel": 9
                        }
                    ]
                ], 
                [
                    37830.606384200015, 
                    [
                        {
                            "pitch": 50, 
                            "t0": 37830.606384200015, 
                            "v": 60, 
                            "dur": 115.41560327111802, 
                            "type": "note", 
                            "channel": 9
                        }
                    ]
                ], 
                [
                    38284.606384200015, 
                    [
                        {
                            "pitch": 50, 
                            "t0": 38284.606384200015, 
                            "v": 61, 
                            "dur": 111.69251929462916, 
                            "type": "note", 
                            "channel": 9
                        }
                    ]
                ], 
                [
                    38724.606384200015, 
                    [
                        {
                            "pitch": 50, 
                            "t0": 38724.606384200015, 
                            "v": 80, 
                            "dur": 108.20212806667405, 
                            "type": "note", 
                            "channel": 9
                        }
                    ]
                ]
            ], 
            "instruments": [], 
            "tMax": 38832.80851226669, 
            "channels": [], 
            "numNotes": 68, 
            "type": "TrackObj"
        }, 
        {
            "seq": [
                [
                    0, 
                    [
                        {
                            "pitch": 50, 
                            "t0": 0, 
                            "v": 80, 
                            "dur": 108.20212806667226, 
                            "type": "note", 
                            "channel": 9
                        }
                    ]
                ], 
                [
                    426, 
                    [
                        {
                            "pitch": 50, 
                            "t0": 426, 
                            "v": 64, 
                            "dur": 104.92327570101554, 
                            "type": "note", 
                            "channel": 9
                        }
                    ]
                ], 
                [
                    840, 
                    [
                        {
                            "pitch": 50, 
                            "t0": 840, 
                            "v": 65, 
                            "dur": 101.83729700392678, 
                            "type": "note", 
                            "channel": 9
                        }
                    ]
                ], 
                [
                    1241, 
                    [
                        {
                            "pitch": 50, 
                            "t0": 1241, 
                            "v": 66, 
                            "dur": 98.92765994667184, 
                            "type": "note", 
                            "channel": 9
                        }
                    ]
                ], 
                [
                    1631, 
                    [
                        {
                            "pitch": 50, 
                            "t0": 1631, 
                            "v": 86, 
                            "dur": 96.17966939259759, 
                            "type": "note", 
                            "channel": 9
                        }
                    ]
                ], 
                [
                    2011, 
                    [
                        {
                            "pitch": 50, 
                            "t0": 2011, 
                            "v": 67, 
                            "dur": 93.58021886847337, 
                            "type": "note", 
                            "channel": 9
                        }
                    ]
                ], 
                [
                    2380, 
                    [
                        {
                            "pitch": 50, 
                            "t0": 2380, 
                            "v": 68, 
                            "dur": 91.1175815298293, 
                            "type": "note", 
                            "channel": 9
                        }
                    ]
                ], 
                [
                    2740, 
                    [
                        {
                            "pitch": 50, 
                            "t0": 2740, 
                            "v": 68, 
                            "dur": 88.78123328547463, 
                            "type": "note", 
                            "channel": 9
                        }
                    ]
                ], 
                [
                    3091, 
                    [
                        {
                            "pitch": 50, 
                            "t0": 3091, 
                            "v": 88, 
                            "dur": 86.5617024533376, 
                            "type": "note", 
                            "channel": 9
                        }
                    ]
                ], 
                [
                    3432, 
                    [
                        {
                            "pitch": 50, 
                            "t0": 3432, 
                            "v": 69, 
                            "dur": 84.45044141789049, 
                            "type": "note", 
                            "channel": 9
                        }
                    ]
                ], 
                [
                    3766, 
                    [
                        {
                            "pitch": 50, 
                            "t0": 3766, 
                            "v": 69, 
                            "dur": 82.43971662222657, 
                            "type": "note", 
                            "channel": 9
                        }
                    ]
                ], 
                [
                    4092, 
                    [
                        {
                            "pitch": 50, 
                            "t0": 4092, 
                            "v": 70, 
                            "dur": 80.52251391008213, 
                            "type": "note", 
                            "channel": 9
                        }
                    ]
                ], 
                [
                    4411, 
                    [
                        {
                            "pitch": 50, 
                            "t0": 4411, 
                            "v": 90, 
                            "dur": 78.69245677576146, 
                            "type": "note", 
                            "channel": 9
                        }
                    ]
                ], 
                [
                    4722, 
                    [
                        {
                            "pitch": 50, 
                            "t0": 4722, 
                            "v": 70, 
                            "dur": 76.94373551407807, 
                            "type": "note", 
                            "channel": 9
                        }
                    ]
                ], 
                [
                    5026, 
                    [
                        {
                            "pitch": 50, 
                            "t0": 5026, 
                            "v": 70, 
                            "dur": 75.27104561159831, 
                            "type": "note", 
                            "channel": 9
                        }
                    ]
                ], 
                [
                    5324, 
                    [
                        {
                            "pitch": 50, 
                            "t0": 5324, 
                            "v": 70, 
                            "dur": 73.66953400284092, 
                            "type": "note", 
                            "channel": 9
                        }
                    ]
                ], 
                [
                    5616, 
                    [
                        {
                            "pitch": 50, 
                            "t0": 5616, 
                            "v": 90, 
                            "dur": 72.13475204444785, 
                            "type": "note", 
                            "channel": 9
                        }
                    ]
                ], 
                [
                    5901, 
                    [
                        {
                            "pitch": 50, 
                            "t0": 5901, 
                            "v": 70, 
                            "dur": 70.66261424762251, 
                            "type": "note", 
                            "channel": 9
                        }
                    ]
                ], 
                [
                    6181, 
                    [
                        {
                            "pitch": 50, 
                            "t0": 6181, 
                            "v": 70, 
                            "dur": 69.24936196267026, 
                            "type": "note", 
                            "channel": 9
                        }
                    ]
                ], 
                [
                    6455, 
                    [
                        {
                            "pitch": 50, 
                            "t0": 6455, 
                            "v": 69, 
                            "dur": 67.89153133595119, 
                            "type": "note", 
                            "channel": 9
                        }
                    ]
                ], 
                [
                    6724, 
                    [
                        {
                            "pitch": 50, 
                            "t0": 6724, 
                            "v": 89, 
                            "dur": 66.5859249641062, 
                            "type": "note", 
                            "channel": 9
                        }
                    ]
                ], 
                [
                    6988, 
                    [
                        {
                            "pitch": 50, 
                            "t0": 6988, 
                            "v": 69, 
                            "dur": 65.32958675723603, 
                            "type": "note", 
                            "channel": 9
                        }
                    ]
                ], 
                [
                    7247, 
                    [
                        {
                            "pitch": 50, 
                            "t0": 7247, 
                            "v": 69, 
                            "dur": 64.11977959506476, 
                            "type": "note", 
                            "channel": 9
                        }
                    ]
                ], 
                [
                    7501, 
                    [
                        {
                            "pitch": 50, 
                            "t0": 7501, 
                            "v": 68, 
                            "dur": 62.953965420609165, 
                            "type": "note", 
                            "channel": 9
                        }
                    ]
                ], 
                [
                    7751, 
                    [
                        {
                            "pitch": 50, 
                            "t0": 7751, 
                            "v": 87, 
                            "dur": 61.829787466669586, 
                            "type": "note", 
                            "channel": 9
                        }
                    ]
                ], 
                [
                    7996, 
                    [
                        {
                            "pitch": 50, 
                            "t0": 7996, 
                            "v": 67, 
                            "dur": 60.74505435321953, 
                            "type": "note", 
                            "channel": 9
                        }
                    ]
                ], 
                [
                    8237, 
                    [
                        {
                            "pitch": 50, 
                            "t0": 8237, 
                            "v": 67, 
                            "dur": 59.69772582988844, 
                            "type": "note", 
                            "channel": 9
                        }
                    ]
                ], 
                [
                    8473, 
                    [
                        {
                            "pitch": 50, 
                            "t0": 8473, 
                            "v": 67, 
                            "dur": 58.68589996836454, 
                            "type": "note", 
                            "channel": 9
                        }
                    ]
                ], 
                [
                    8706, 
                    [
                        {
                            "pitch": 50, 
                            "t0": 8706, 
                            "v": 85, 
                            "dur": 57.70780163555901, 
                            "type": "note", 
                            "channel": 9
                        }
                    ]
                ], 
                [
                    8935, 
                    [
                        {
                            "pitch": 50, 
                            "t0": 8935, 
                            "v": 66, 
                            "dur": 56.76177210054993, 
                            "type": "note", 
                            "channel": 9
                        }
                    ]
                ], 
                [
                    9160, 
                    [
                        {
                            "pitch": 50, 
                            "t0": 9160, 
                            "v": 65, 
                            "dur": 55.84625964731458, 
                            "type": "note", 
                            "channel": 9
                        }
                    ]
                ], 
                [
                    9382, 
                    [
                        {
                            "pitch": 50, 
                            "t0": 9382, 
                            "v": 65, 
                            "dur": 54.95981108148408, 
                            "type": "note", 
                            "channel": 9
                        }
                    ]
                ], 
                [
                    9436.959811081484, 
                    [
                        {
                            "pitch": 50, 
                            "t0": 9436.959811081484, 
                            "v": 80, 
                            "dur": 108.20212806667223, 
                            "type": "note", 
                            "channel": 9
                        }
                    ]
                ], 
                [
                    9862.959811081484, 
                    [
                        {
                            "pitch": 50, 
                            "t0": 9862.959811081484, 
                            "v": 64, 
                            "dur": 104.92327570101588, 
                            "type": "note", 
                            "channel": 9
                        }
                    ]
                ], 
                [
                    10276.959811081484, 
                    [
                        {
                            "pitch": 50, 
                            "t0": 10276.959811081484, 
                            "v": 65, 
                            "dur": 101.83729700392723, 
                            "type": "note", 
                            "channel": 9
                        }
                    ]
                ], 
                [
                    10677.959811081484, 
                    [
                        {
                            "pitch": 50, 
                            "t0": 10677.959811081484, 
                            "v": 66, 
                            "dur": 98.92765994667207, 
                            "type": "note", 
                            "channel": 9
                        }
                    ]
                ], 
                [
                    11067.959811081484, 
                    [
                        {
                            "pitch": 50, 
                            "t0": 11067.959811081484, 
                            "v": 86, 
                            "dur": 96.17966939259713, 
                            "type": "note", 
                            "channel": 9
                        }
                    ]
                ], 
                [
                    11447.959811081484, 
                    [
                        {
                            "pitch": 50, 
                            "t0": 11447.959811081484, 
                            "v": 67, 
                            "dur": 93.58021886847382, 
                            "type": "note", 
                            "channel": 9
                        }
                    ]
                ], 
                [
                    11816.959811081484, 
                    [
                        {
                            "pitch": 50, 
                            "t0": 11816.959811081484, 
                            "v": 68, 
                            "dur": 91.11758152982839, 
                            "type": "note", 
                            "channel": 9
                        }
                    ]
                ], 
                [
                    12176.959811081484, 
                    [
                        {
                            "pitch": 50, 
                            "t0": 12176.959811081484, 
                            "v": 68, 
                            "dur": 88.78123328547554, 
                            "type": "note", 
                            "channel": 9
                        }
                    ]
                ], 
                [
                    12527.959811081484, 
                    [
                        {
                            "pitch": 50, 
                            "t0": 12527.959811081484, 
                            "v": 88, 
                            "dur": 86.56170245333851, 
                            "type": "note", 
                            "channel": 9
                        }
                    ]
                ], 
                [
                    12868.959811081484, 
                    [
                        {
                            "pitch": 50, 
                            "t0": 12868.959811081484, 
                            "v": 69, 
                            "dur": 84.45044141789003, 
                            "type": "note", 
                            "channel": 9
                        }
                    ]
                ], 
                [
                    13202.959811081484, 
                    [
                        {
                            "pitch": 50, 
                            "t0": 13202.959811081484, 
                            "v": 69, 
                            "dur": 82.43971662222611, 
                            "type": "note", 
                            "channel": 9
                        }
                    ]
                ], 
                [
                    13528.959811081484, 
                    [
                        {
                            "pitch": 50, 
                            "t0": 13528.959811081484, 
                            "v": 70, 
                            "dur": 80.52251391008213, 
                            "type": "note", 
                            "channel": 9
                        }
                    ]
                ], 
                [
                    13847.959811081484, 
                    [
                        {
                            "pitch": 50, 
                            "t0": 13847.959811081484, 
                            "v": 90, 
                            "dur": 78.69245677576146, 
                            "type": "note", 
                            "channel": 9
                        }
                    ]
                ], 
                [
                    14158.959811081484, 
                    [
                        {
                            "pitch": 50, 
                            "t0": 14158.959811081484, 
                            "v": 70, 
                            "dur": 76.94373551407807, 
                            "type": "note", 
                            "channel": 9
                        }
                    ]
                ], 
                [
                    14462.959811081484, 
                    [
                        {
                            "pitch": 50, 
                            "t0": 14462.959811081484, 
                            "v": 70, 
                            "dur": 75.27104561159831, 
                            "type": "note", 
                            "channel": 9
                        }
                    ]
                ], 
                [
                    14760.959811081484, 
                    [
                        {
                            "pitch": 50, 
                            "t0": 14760.959811081484, 
                            "v": 70, 
                            "dur": 73.66953400284001, 
                            "type": "note", 
                            "channel": 9
                        }
                    ]
                ], 
                [
                    15052.959811081484, 
                    [
                        {
                            "pitch": 50, 
                            "t0": 15052.959811081484, 
                            "v": 90, 
                            "dur": 72.13475204444876, 
                            "type": "note", 
                            "channel": 9
                        }
                    ]
                ], 
                [
                    15337.959811081484, 
                    [
                        {
                            "pitch": 50, 
                            "t0": 15337.959811081484, 
                            "v": 70, 
                            "dur": 70.66261424762342, 
                            "type": "note", 
                            "channel": 9
                        }
                    ]
                ], 
                [
                    15617.959811081484, 
                    [
                        {
                            "pitch": 50, 
                            "t0": 15617.959811081484, 
                            "v": 70, 
                            "dur": 69.24936196266935, 
                            "type": "note", 
                            "channel": 9
                        }
                    ]
                ], 
                [
                    15891.959811081484, 
                    [
                        {
                            "pitch": 50, 
                            "t0": 15891.959811081484, 
                            "v": 69, 
                            "dur": 67.8915313359521, 
                            "type": "note", 
                            "channel": 9
                        }
                    ]
                ], 
                [
                    16160.959811081484, 
                    [
                        {
                            "pitch": 50, 
                            "t0": 16160.959811081484, 
                            "v": 89, 
                            "dur": 66.58592496410529, 
                            "type": "note", 
                            "channel": 9
                        }
                    ]
                ], 
                [
                    16424.959811081484, 
                    [
                        {
                            "pitch": 50, 
                            "t0": 16424.959811081484, 
                            "v": 69, 
                            "dur": 65.32958675723785, 
                            "type": "note", 
                            "channel": 9
                        }
                    ]
                ], 
                [
                    16683.959811081484, 
                    [
                        {
                            "pitch": 50, 
                            "t0": 16683.959811081484, 
                            "v": 69, 
                            "dur": 64.11977959506476, 
                            "type": "note", 
                            "channel": 9
                        }
                    ]
                ], 
                [
                    16937.959811081484, 
                    [
                        {
                            "pitch": 50, 
                            "t0": 16937.959811081484, 
                            "v": 68, 
                            "dur": 62.953965420609165, 
                            "type": "note", 
                            "channel": 9
                        }
                    ]
                ], 
                [
                    17187.959811081484, 
                    [
                        {
                            "pitch": 50, 
                            "t0": 17187.959811081484, 
                            "v": 87, 
                            "dur": 61.829787466671405, 
                            "type": "note", 
                            "channel": 9
                        }
                    ]
                ], 
                [
                    17432.959811081484, 
                    [
                        {
                            "pitch": 50, 
                            "t0": 17432.959811081484, 
                            "v": 67, 
                            "dur": 60.74505435321771, 
                            "type": "note", 
                            "channel": 9
                        }
                    ]
                ], 
                [
                    17673.959811081484, 
                    [
                        {
                            "pitch": 50, 
                            "t0": 17673.959811081484, 
                            "v": 67, 
                            "dur": 59.69772582988662, 
                            "type": "note", 
                            "channel": 9
                        }
                    ]
                ], 
                [
                    17909.959811081484, 
                    [
                        {
                            "pitch": 50, 
                            "t0": 17909.959811081484, 
                            "v": 67, 
                            "dur": 58.68589996836454, 
                            "type": "note", 
                            "channel": 9
                        }
                    ]
                ], 
                [
                    18142.959811081484, 
                    [
                        {
                            "pitch": 50, 
                            "t0": 18142.959811081484, 
                            "v": 85, 
                            "dur": 57.70780163555901, 
                            "type": "note", 
                            "channel": 9
                        }
                    ]
                ], 
                [
                    18371.959811081484, 
                    [
                        {
                            "pitch": 50, 
                            "t0": 18371.959811081484, 
                            "v": 66, 
                            "dur": 56.761772100548114, 
                            "type": "note", 
                            "channel": 9
                        }
                    ]
                ], 
                [
                    18596.959811081484, 
                    [
                        {
                            "pitch": 50, 
                            "t0": 18596.959811081484, 
                            "v": 65, 
                            "dur": 55.84625964731458, 
                            "type": "note", 
                            "channel": 9
                        }
                    ]
                ], 
                [
                    18818.959811081484, 
                    [
                        {
                            "pitch": 50, 
                            "t0": 18818.959811081484, 
                            "v": 65, 
                            "dur": 54.95981108148408, 
                            "type": "note", 
                            "channel": 9
                        }
                    ]
                ], 
                [
                    18873.919622162968, 
                    [
                        {
                            "pitch": 50, 
                            "t0": 18873.919622162968, 
                            "v": 80, 
                            "dur": 108.20212806667405, 
                            "type": "note", 
                            "channel": 9
                        }
                    ]
                ], 
                [
                    19299.919622162968, 
                    [
                        {
                            "pitch": 50, 
                            "t0": 19299.919622162968, 
                            "v": 64, 
                            "dur": 104.92327570101406, 
                            "type": "note", 
                            "channel": 9
                        }
                    ]
                ], 
                [
                    19713.919622162968, 
                    [
                        {
                            "pitch": 50, 
                            "t0": 19713.919622162968, 
                            "v": 65, 
                            "dur": 101.83729700392723, 
                            "type": "note", 
                            "channel": 9
                        }
                    ]
                ], 
                [
                    20114.919622162968, 
                    [
                        {
                            "pitch": 50, 
                            "t0": 20114.919622162968, 
                            "v": 66, 
                            "dur": 98.92765994667207, 
                            "type": "note", 
                            "channel": 9
                        }
                    ]
                ], 
                [
                    20504.919622162968, 
                    [
                        {
                            "pitch": 50, 
                            "t0": 20504.919622162968, 
                            "v": 86, 
                            "dur": 96.17966939259713, 
                            "type": "note", 
                            "channel": 9
                        }
                    ]
                ], 
                [
                    20884.919622162968, 
                    [
                        {
                            "pitch": 50, 
                            "t0": 20884.919622162968, 
                            "v": 67, 
                            "dur": 93.580218868472, 
                            "type": "note", 
                            "channel": 9
                        }
                    ]
                ], 
                [
                    21253.919622162968, 
                    [
                        {
                            "pitch": 50, 
                            "t0": 21253.919622162968, 
                            "v": 68, 
                            "dur": 91.1175815298302, 
                            "type": "note", 
                            "channel": 9
                        }
                    ]
                ], 
                [
                    21613.919622162968, 
                    [
                        {
                            "pitch": 50, 
                            "t0": 21613.919622162968, 
                            "v": 68, 
                            "dur": 88.78123328547372, 
                            "type": "note", 
                            "channel": 9
                        }
                    ]
                ], 
                [
                    21964.919622162968, 
                    [
                        {
                            "pitch": 50, 
                            "t0": 21964.919622162968, 
                            "v": 88, 
                            "dur": 86.56170245333851, 
                            "type": "note", 
                            "channel": 9
                        }
                    ]
                ], 
                [
                    22305.919622162968, 
                    [
                        {
                            "pitch": 50, 
                            "t0": 22305.919622162968, 
                            "v": 69, 
                            "dur": 84.45044141789185, 
                            "type": "note", 
                            "channel": 9
                        }
                    ]
                ], 
                [
                    22639.919622162968, 
                    [
                        {
                            "pitch": 50, 
                            "t0": 22639.919622162968, 
                            "v": 69, 
                            "dur": 82.43971662222611, 
                            "type": "note", 
                            "channel": 9
                        }
                    ]
                ], 
                [
                    22965.919622162968, 
                    [
                        {
                            "pitch": 50, 
                            "t0": 22965.919622162968, 
                            "v": 70, 
                            "dur": 80.5225139100803, 
                            "type": "note", 
                            "channel": 9
                        }
                    ]
                ], 
                [
                    23284.919622162968, 
                    [
                        {
                            "pitch": 50, 
                            "t0": 23284.919622162968, 
                            "v": 90, 
                            "dur": 78.69245677576328, 
                            "type": "note", 
                            "channel": 9
                        }
                    ]
                ], 
                [
                    23595.919622162968, 
                    [
                        {
                            "pitch": 50, 
                            "t0": 23595.919622162968, 
                            "v": 70, 
                            "dur": 76.94373551407625, 
                            "type": "note", 
                            "channel": 9
                        }
                    ]
                ], 
                [
                    23899.919622162968, 
                    [
                        {
                            "pitch": 50, 
                            "t0": 23899.919622162968, 
                            "v": 70, 
                            "dur": 75.27104561159649, 
                            "type": "note", 
                            "channel": 9
                        }
                    ]
                ], 
                [
                    24197.919622162968, 
                    [
                        {
                            "pitch": 50, 
                            "t0": 24197.919622162968, 
                            "v": 70, 
                            "dur": 73.66953400284183, 
                            "type": "note", 
                            "channel": 9
                        }
                    ]
                ], 
                [
                    24489.919622162968, 
                    [
                        {
                            "pitch": 50, 
                            "t0": 24489.919622162968, 
                            "v": 90, 
                            "dur": 72.13475204444694, 
                            "type": "note", 
                            "channel": 9
                        }
                    ]
                ], 
                [
                    24774.919622162968, 
                    [
                        {
                            "pitch": 50, 
                            "t0": 24774.919622162968, 
                            "v": 70, 
                            "dur": 70.66261424762342, 
                            "type": "note", 
                            "channel": 9
                        }
                    ]
                ], 
                [
                    25054.919622162968, 
                    [
                        {
                            "pitch": 50, 
                            "t0": 25054.919622162968, 
                            "v": 70, 
                            "dur": 69.24936196266935, 
                            "type": "note", 
                            "channel": 9
                        }
                    ]
                ], 
                [
                    25328.919622162968, 
                    [
                        {
                            "pitch": 50, 
                            "t0": 25328.919622162968, 
                            "v": 69, 
                            "dur": 67.89153133595028, 
                            "type": "note", 
                            "channel": 9
                        }
                    ]
                ], 
                [
                    25597.919622162968, 
                    [
                        {
                            "pitch": 50, 
                            "t0": 25597.919622162968, 
                            "v": 89, 
                            "dur": 66.58592496410711, 
                            "type": "note", 
                            "channel": 9
                        }
                    ]
                ], 
                [
                    25861.919622162968, 
                    [
                        {
                            "pitch": 50, 
                            "t0": 25861.919622162968, 
                            "v": 69, 
                            "dur": 65.32958675723785, 
                            "type": "note", 
                            "channel": 9
                        }
                    ]
                ], 
                [
                    26120.919622162968, 
                    [
                        {
                            "pitch": 50, 
                            "t0": 26120.919622162968, 
                            "v": 69, 
                            "dur": 64.11977959506476, 
                            "type": "note", 
                            "channel": 9
                        }
                    ]
                ], 
                [
                    26374.919622162968, 
                    [
                        {
                            "pitch": 50, 
                            "t0": 26374.919622162968, 
                            "v": 68, 
                            "dur": 62.953965420609165, 
                            "type": "note", 
                            "channel": 9
                        }
                    ]
                ], 
                [
                    26624.919622162968, 
                    [
                        {
                            "pitch": 50, 
                            "t0": 26624.919622162968, 
                            "v": 87, 
                            "dur": 61.829787466671405, 
                            "type": "note", 
                            "channel": 9
                        }
                    ]
                ], 
                [
                    26869.919622162968, 
                    [
                        {
                            "pitch": 50, 
                            "t0": 26869.919622162968, 
                            "v": 67, 
                            "dur": 60.74505435321771, 
                            "type": "note", 
                            "channel": 9
                        }
                    ]
                ], 
                [
                    27110.919622162968, 
                    [
                        {
                            "pitch": 50, 
                            "t0": 27110.919622162968, 
                            "v": 67, 
                            "dur": 59.69772582988662, 
                            "type": "note", 
                            "channel": 9
                        }
                    ]
                ], 
                [
                    27346.919622162968, 
                    [
                        {
                            "pitch": 50, 
                            "t0": 27346.919622162968, 
                            "v": 67, 
                            "dur": 58.68589996836454, 
                            "type": "note", 
                            "channel": 9
                        }
                    ]
                ], 
                [
                    27579.919622162968, 
                    [
                        {
                            "pitch": 50, 
                            "t0": 27579.919622162968, 
                            "v": 85, 
                            "dur": 57.70780163555901, 
                            "type": "note", 
                            "channel": 9
                        }
                    ]
                ], 
                [
                    27808.919622162968, 
                    [
                        {
                            "pitch": 50, 
                            "t0": 27808.919622162968, 
                            "v": 66, 
                            "dur": 56.761772100548114, 
                            "type": "note", 
                            "channel": 9
                        }
                    ]
                ], 
                [
                    28033.919622162968, 
                    [
                        {
                            "pitch": 50, 
                            "t0": 28033.919622162968, 
                            "v": 65, 
                            "dur": 55.84625964731458, 
                            "type": "note", 
                            "channel": 9
                        }
                    ]
                ], 
                [
                    28255.919622162968, 
                    [
                        {
                            "pitch": 50, 
                            "t0": 28255.919622162968, 
                            "v": 65, 
                            "dur": 54.95981108148408, 
                            "type": "note", 
                            "channel": 9
                        }
                    ]
                ], 
                [
                    28310.879433244452, 
                    [
                        {
                            "pitch": 50, 
                            "t0": 28310.879433244452, 
                            "v": 80, 
                            "dur": 108.20212806667405, 
                            "type": "note", 
                            "channel": 9
                        }
                    ]
                ], 
                [
                    28736.879433244452, 
                    [
                        {
                            "pitch": 50, 
                            "t0": 28736.879433244452, 
                            "v": 64, 
                            "dur": 104.92327570101406, 
                            "type": "note", 
                            "channel": 9
                        }
                    ]
                ], 
                [
                    29150.879433244452, 
                    [
                        {
                            "pitch": 50, 
                            "t0": 29150.879433244452, 
                            "v": 65, 
                            "dur": 101.83729700392723, 
                            "type": "note", 
                            "channel": 9
                        }
                    ]
                ], 
                [
                    29551.879433244452, 
                    [
                        {
                            "pitch": 50, 
                            "t0": 29551.879433244452, 
                            "v": 66, 
                            "dur": 98.92765994667207, 
                            "type": "note", 
                            "channel": 9
                        }
                    ]
                ], 
                [
                    29941.879433244452, 
                    [
                        {
                            "pitch": 50, 
                            "t0": 29941.879433244452, 
                            "v": 86, 
                            "dur": 96.17966939259713, 
                            "type": "note", 
                            "channel": 9
                        }
                    ]
                ], 
                [
                    30321.879433244452, 
                    [
                        {
                            "pitch": 50, 
                            "t0": 30321.879433244452, 
                            "v": 67, 
                            "dur": 93.580218868472, 
                            "type": "note", 
                            "channel": 9
                        }
                    ]
                ], 
                [
                    30690.879433244452, 
                    [
                        {
                            "pitch": 50, 
                            "t0": 30690.879433244452, 
                            "v": 68, 
                            "dur": 91.1175815298302, 
                            "type": "note", 
                            "channel": 9
                        }
                    ]
                ], 
                [
                    31050.879433244452, 
                    [
                        {
                            "pitch": 50, 
                            "t0": 31050.879433244452, 
                            "v": 68, 
                            "dur": 88.78123328547372, 
                            "type": "note", 
                            "channel": 9
                        }
                    ]
                ], 
                [
                    31401.879433244452, 
                    [
                        {
                            "pitch": 50, 
                            "t0": 31401.879433244452, 
                            "v": 88, 
                            "dur": 86.56170245333851, 
                            "type": "note", 
                            "channel": 9
                        }
                    ]
                ], 
                [
                    31742.879433244452, 
                    [
                        {
                            "pitch": 50, 
                            "t0": 31742.879433244452, 
                            "v": 69, 
                            "dur": 84.45044141789185, 
                            "type": "note", 
                            "channel": 9
                        }
                    ]
                ], 
                [
                    32076.879433244452, 
                    [
                        {
                            "pitch": 50, 
                            "t0": 32076.879433244452, 
                            "v": 69, 
                            "dur": 82.43971662222611, 
                            "type": "note", 
                            "channel": 9
                        }
                    ]
                ], 
                [
                    32402.879433244452, 
                    [
                        {
                            "pitch": 50, 
                            "t0": 32402.879433244452, 
                            "v": 70, 
                            "dur": 80.5225139100803, 
                            "type": "note", 
                            "channel": 9
                        }
                    ]
                ], 
                [
                    32721.879433244452, 
                    [
                        {
                            "pitch": 50, 
                            "t0": 32721.879433244452, 
                            "v": 90, 
                            "dur": 78.69245677575964, 
                            "type": "note", 
                            "channel": 9
                        }
                    ]
                ], 
                [
                    33032.87943324445, 
                    [
                        {
                            "pitch": 50, 
                            "t0": 33032.87943324445, 
                            "v": 70, 
                            "dur": 76.94373551407625, 
                            "type": "note", 
                            "channel": 9
                        }
                    ]
                ], 
                [
                    33336.87943324445, 
                    [
                        {
                            "pitch": 50, 
                            "t0": 33336.87943324445, 
                            "v": 70, 
                            "dur": 75.27104561159649, 
                            "type": "note", 
                            "channel": 9
                        }
                    ]
                ], 
                [
                    33634.87943324445, 
                    [
                        {
                            "pitch": 50, 
                            "t0": 33634.87943324445, 
                            "v": 70, 
                            "dur": 73.66953400283819, 
                            "type": "note", 
                            "channel": 9
                        }
                    ]
                ], 
                [
                    33926.87943324445, 
                    [
                        {
                            "pitch": 50, 
                            "t0": 33926.87943324445, 
                            "v": 90, 
                            "dur": 72.13475204444694, 
                            "type": "note", 
                            "channel": 9
                        }
                    ]
                ], 
                [
                    34211.87943324445, 
                    [
                        {
                            "pitch": 50, 
                            "t0": 34211.87943324445, 
                            "v": 70, 
                            "dur": 70.66261424762342, 
                            "type": "note", 
                            "channel": 9
                        }
                    ]
                ], 
                [
                    34491.87943324445, 
                    [
                        {
                            "pitch": 50, 
                            "t0": 34491.87943324445, 
                            "v": 70, 
                            "dur": 69.24936196266935, 
                            "type": "note", 
                            "channel": 9
                        }
                    ]
                ], 
                [
                    34765.87943324445, 
                    [
                        {
                            "pitch": 50, 
                            "t0": 34765.87943324445, 
                            "v": 69, 
                            "dur": 67.89153133595391, 
                            "type": "note", 
                            "channel": 9
                        }
                    ]
                ], 
                [
                    35034.87943324445, 
                    [
                        {
                            "pitch": 50, 
                            "t0": 35034.87943324445, 
                            "v": 89, 
                            "dur": 66.58592496410711, 
                            "type": "note", 
                            "channel": 9
                        }
                    ]
                ], 
                [
                    35298.87943324445, 
                    [
                        {
                            "pitch": 50, 
                            "t0": 35298.87943324445, 
                            "v": 69, 
                            "dur": 65.32958675723785, 
                            "type": "note", 
                            "channel": 9
                        }
                    ]
                ], 
                [
                    35557.87943324445, 
                    [
                        {
                            "pitch": 50, 
                            "t0": 35557.87943324445, 
                            "v": 69, 
                            "dur": 64.11977959506476, 
                            "type": "note", 
                            "channel": 9
                        }
                    ]
                ], 
                [
                    35811.87943324445, 
                    [
                        {
                            "pitch": 50, 
                            "t0": 35811.87943324445, 
                            "v": 68, 
                            "dur": 62.953965420609165, 
                            "type": "note", 
                            "channel": 9
                        }
                    ]
                ], 
                [
                    36061.87943324445, 
                    [
                        {
                            "pitch": 50, 
                            "t0": 36061.87943324445, 
                            "v": 87, 
                            "dur": 61.82978746666777, 
                            "type": "note", 
                            "channel": 9
                        }
                    ]
                ], 
                [
                    36306.87943324445, 
                    [
                        {
                            "pitch": 50, 
                            "t0": 36306.87943324445, 
                            "v": 67, 
                            "dur": 60.74505435321771, 
                            "type": "note", 
                            "channel": 9
                        }
                    ]
                ], 
                [
                    36547.87943324445, 
                    [
                        {
                            "pitch": 50, 
                            "t0": 36547.87943324445, 
                            "v": 67, 
                            "dur": 59.69772582988662, 
                            "type": "note", 
                            "channel": 9
                        }
                    ]
                ], 
                [
                    36783.87943324445, 
                    [
                        {
                            "pitch": 50, 
                            "t0": 36783.87943324445, 
                            "v": 67, 
                            "dur": 58.685899968368176, 
                            "type": "note", 
                            "channel": 9
                        }
                    ]
                ], 
                [
                    37016.87943324445, 
                    [
                        {
                            "pitch": 50, 
                            "t0": 37016.87943324445, 
                            "v": 85, 
                            "dur": 57.70780163555901, 
                            "type": "note", 
                            "channel": 9
                        }
                    ]
                ], 
                [
                    37245.87943324445, 
                    [
                        {
                            "pitch": 50, 
                            "t0": 37245.87943324445, 
                            "v": 66, 
                            "dur": 56.76177210055175, 
                            "type": "note", 
                            "channel": 9
                        }
                    ]
                ], 
                [
                    37470.87943324445, 
                    [
                        {
                            "pitch": 50, 
                            "t0": 37470.87943324445, 
                            "v": 65, 
                            "dur": 55.84625964731822, 
                            "type": "note", 
                            "channel": 9
                        }
                    ]
                ], 
                [
                    37692.87943324445, 
                    [
                        {
                            "pitch": 50, 
                            "t0": 37692.87943324445, 
                            "v": 65, 
                            "dur": 54.95981108148408, 
                            "type": "note", 
                            "channel": 9
                        }
                    ]
                ]
            ], 
            "instruments": [], 
            "tMax": 37747.839244325936, 
            "channels": [], 
            "numNotes": 128, 
            "type": "TrackObj"
        }, 
        {
            "seq": [
                [
                    0, 
                    [
                        {
                            "pitch": 50, 
                            "t0": 0, 
                            "v": 82, 
                            "dur": 54.10106403333613, 
                            "type": "note", 
                            "channel": 9
                        }
                    ]
                ], 
                [
                    215, 
                    [
                        {
                            "pitch": 50, 
                            "t0": 215, 
                            "v": 63, 
                            "dur": 53.26873997128479, 
                            "type": "note", 
                            "channel": 9
                        }
                    ]
                ], 
                [
                    426, 
                    [
                        {
                            "pitch": 50, 
                            "t0": 426, 
                            "v": 63, 
                            "dur": 52.46163785050777, 
                            "type": "note", 
                            "channel": 9
                        }
                    ]
                ], 
                [
                    634, 
                    [
                        {
                            "pitch": 50, 
                            "t0": 634, 
                            "v": 62, 
                            "dur": 51.678628330350875, 
                            "type": "note", 
                            "channel": 9
                        }
                    ]
                ], 
                [
                    840, 
                    [
                        {
                            "pitch": 50, 
                            "t0": 840, 
                            "v": 79, 
                            "dur": 50.91864850196339, 
                            "type": "note", 
                            "channel": 9
                        }
                    ]
                ], 
                [
                    1042, 
                    [
                        {
                            "pitch": 50, 
                            "t0": 1042, 
                            "v": 61, 
                            "dur": 50.18069707439872, 
                            "type": "note", 
                            "channel": 9
                        }
                    ]
                ], 
                [
                    1241, 
                    [
                        {
                            "pitch": 50, 
                            "t0": 1241, 
                            "v": 60, 
                            "dur": 49.463829973335805, 
                            "type": "note", 
                            "channel": 9
                        }
                    ]
                ], 
                [
                    1438, 
                    [
                        {
                            "pitch": 50, 
                            "t0": 1438, 
                            "v": 60, 
                            "dur": 48.767156311739654, 
                            "type": "note", 
                            "channel": 9
                        }
                    ]
                ], 
                [
                    1631, 
                    [
                        {
                            "pitch": 50, 
                            "t0": 1631, 
                            "v": 76, 
                            "dur": 48.089834696298794, 
                            "type": "note", 
                            "channel": 9
                        }
                    ]
                ], 
                [
                    1822, 
                    [
                        {
                            "pitch": 50, 
                            "t0": 1822, 
                            "v": 59, 
                            "dur": 47.43106983744542, 
                            "type": "note", 
                            "channel": 9
                        }
                    ]
                ], 
                [
                    2011, 
                    [
                        {
                            "pitch": 50, 
                            "t0": 2011, 
                            "v": 58, 
                            "dur": 46.790109434236456, 
                            "type": "note", 
                            "channel": 9
                        }
                    ]
                ], 
                [
                    2197, 
                    [
                        {
                            "pitch": 50, 
                            "t0": 2197, 
                            "v": 57, 
                            "dur": 46.16624130844684, 
                            "type": "note", 
                            "channel": 9
                        }
                    ]
                ], 
                [
                    2380, 
                    [
                        {
                            "pitch": 50, 
                            "t0": 2380, 
                            "v": 73, 
                            "dur": 45.55879076491465, 
                            "type": "note", 
                            "channel": 9
                        }
                    ]
                ], 
                [
                    2561, 
                    [
                        {
                            "pitch": 50, 
                            "t0": 2561, 
                            "v": 56, 
                            "dur": 44.96711815757817, 
                            "type": "note", 
                            "channel": 9
                        }
                    ]
                ], 
                [
                    2740, 
                    [
                        {
                            "pitch": 50, 
                            "t0": 2740, 
                            "v": 55, 
                            "dur": 44.390616642737314, 
                            "type": "note", 
                            "channel": 9
                        }
                    ]
                ], 
                [
                    2916, 
                    [
                        {
                            "pitch": 50, 
                            "t0": 2916, 
                            "v": 55, 
                            "dur": 43.82871010295594, 
                            "type": "note", 
                            "channel": 9
                        }
                    ]
                ], 
                [
                    3091, 
                    [
                        {
                            "pitch": 50, 
                            "t0": 3091, 
                            "v": 69, 
                            "dur": 43.2808512266688, 
                            "type": "note", 
                            "channel": 9
                        }
                    ]
                ], 
                [
                    3263, 
                    [
                        {
                            "pitch": 50, 
                            "t0": 3263, 
                            "v": 53, 
                            "dur": 42.746519730043474, 
                            "type": "note", 
                            "channel": 9
                        }
                    ]
                ], 
                [
                    3432, 
                    [
                        {
                            "pitch": 50, 
                            "t0": 3432, 
                            "v": 53, 
                            "dur": 42.22522070894547, 
                            "type": "note", 
                            "channel": 9
                        }
                    ]
                ], 
                [
                    3600, 
                    [
                        {
                            "pitch": 50, 
                            "t0": 3600, 
                            "v": 52, 
                            "dur": 41.71648311004219, 
                            "type": "note", 
                            "channel": 9
                        }
                    ]
                ], 
                [
                    3766, 
                    [
                        {
                            "pitch": 50, 
                            "t0": 3766, 
                            "v": 66, 
                            "dur": 41.21985831111306, 
                            "type": "note", 
                            "channel": 9
                        }
                    ]
                ], 
                [
                    3930, 
                    [
                        {
                            "pitch": 50, 
                            "t0": 3930, 
                            "v": 51, 
                            "dur": 40.73491880157053, 
                            "type": "note", 
                            "channel": 9
                        }
                    ]
                ], 
                [
                    4092, 
                    [
                        {
                            "pitch": 50, 
                            "t0": 4092, 
                            "v": 50, 
                            "dur": 40.26125695504106, 
                            "type": "note", 
                            "channel": 9
                        }
                    ]
                ], 
                [
                    4252, 
                    [
                        {
                            "pitch": 50, 
                            "t0": 4252, 
                            "v": 49, 
                            "dur": 39.798483886592294, 
                            "type": "note", 
                            "channel": 9
                        }
                    ]
                ], 
                [
                    4411, 
                    [
                        {
                            "pitch": 50, 
                            "t0": 4411, 
                            "v": 63, 
                            "dur": 39.34622838788073, 
                            "type": "note", 
                            "channel": 9
                        }
                    ]
                ], 
                [
                    4567, 
                    [
                        {
                            "pitch": 50, 
                            "t0": 4567, 
                            "v": 48, 
                            "dur": 38.90413593408448, 
                            "type": "note", 
                            "channel": 9
                        }
                    ]
                ], 
                [
                    4722, 
                    [
                        {
                            "pitch": 50, 
                            "t0": 4722, 
                            "v": 47, 
                            "dur": 38.471867757039035, 
                            "type": "note", 
                            "channel": 9
                        }
                    ]
                ], 
                [
                    4875, 
                    [
                        {
                            "pitch": 50, 
                            "t0": 4875, 
                            "v": 47, 
                            "dur": 38.049099979489256, 
                            "type": "note", 
                            "channel": 9
                        }
                    ]
                ], 
                [
                    5026, 
                    [
                        {
                            "pitch": 50, 
                            "t0": 5026, 
                            "v": 59, 
                            "dur": 37.635522805799155, 
                            "type": "note", 
                            "channel": 9
                        }
                    ]
                ], 
                [
                    5176, 
                    [
                        {
                            "pitch": 50, 
                            "t0": 5176, 
                            "v": 45, 
                            "dur": 75.0, 
                            "type": "note", 
                            "channel": 9
                        }
                    ]
                ], 
                [
                    5324, 
                    [
                        {
                            "pitch": 50, 
                            "t0": 5324, 
                            "v": 45, 
                            "dur": 75.0, 
                            "type": "note", 
                            "channel": 9
                        }
                    ]
                ], 
                [
                    5471, 
                    [
                        {
                            "pitch": 50, 
                            "t0": 5471, 
                            "v": 44, 
                            "dur": 75.0, 
                            "type": "note", 
                            "channel": 9
                        }
                    ]
                ], 
                [
                    5616, 
                    [
                        {
                            "pitch": 50, 
                            "t0": 5616, 
                            "v": 56, 
                            "dur": 75.0, 
                            "type": "note", 
                            "channel": 9
                        }
                    ]
                ], 
                [
                    5759, 
                    [
                        {
                            "pitch": 50, 
                            "t0": 5759, 
                            "v": 43, 
                            "dur": 75.0, 
                            "type": "note", 
                            "channel": 9
                        }
                    ]
                ], 
                [
                    5901, 
                    [
                        {
                            "pitch": 50, 
                            "t0": 5901, 
                            "v": 42, 
                            "dur": 75.0, 
                            "type": "note", 
                            "channel": 9
                        }
                    ]
                ], 
                [
                    6042, 
                    [
                        {
                            "pitch": 50, 
                            "t0": 6042, 
                            "v": 42, 
                            "dur": 75.0, 
                            "type": "note", 
                            "channel": 9
                        }
                    ]
                ], 
                [
                    6181, 
                    [
                        {
                            "pitch": 50, 
                            "t0": 6181, 
                            "v": 53, 
                            "dur": 75.0, 
                            "type": "note", 
                            "channel": 9
                        }
                    ]
                ], 
                [
                    6319, 
                    [
                        {
                            "pitch": 50, 
                            "t0": 6319, 
                            "v": 40, 
                            "dur": 75.0, 
                            "type": "note", 
                            "channel": 9
                        }
                    ]
                ], 
                [
                    6455, 
                    [
                        {
                            "pitch": 50, 
                            "t0": 6455, 
                            "v": 40, 
                            "dur": 75.0, 
                            "type": "note", 
                            "channel": 9
                        }
                    ]
                ], 
                [
                    6590, 
                    [
                        {
                            "pitch": 50, 
                            "t0": 6590, 
                            "v": 39, 
                            "dur": 75.0, 
                            "type": "note", 
                            "channel": 9
                        }
                    ]
                ], 
                [
                    6724, 
                    [
                        {
                            "pitch": 50, 
                            "t0": 6724, 
                            "v": 49, 
                            "dur": 75.0, 
                            "type": "note", 
                            "channel": 9
                        }
                    ]
                ], 
                [
                    6857, 
                    [
                        {
                            "pitch": 50, 
                            "t0": 6857, 
                            "v": 38, 
                            "dur": 75.0, 
                            "type": "note", 
                            "channel": 9
                        }
                    ]
                ], 
                [
                    6988, 
                    [
                        {
                            "pitch": 50, 
                            "t0": 6988, 
                            "v": 37, 
                            "dur": 75.0, 
                            "type": "note", 
                            "channel": 9
                        }
                    ]
                ], 
                [
                    7118, 
                    [
                        {
                            "pitch": 50, 
                            "t0": 7118, 
                            "v": 37, 
                            "dur": 75.0, 
                            "type": "note", 
                            "channel": 9
                        }
                    ]
                ], 
                [
                    7247, 
                    [
                        {
                            "pitch": 50, 
                            "t0": 7247, 
                            "v": 46, 
                            "dur": 75.0, 
                            "type": "note", 
                            "channel": 9
                        }
                    ]
                ], 
                [
                    7375, 
                    [
                        {
                            "pitch": 50, 
                            "t0": 7375, 
                            "v": 35, 
                            "dur": 75.0, 
                            "type": "note", 
                            "channel": 9
                        }
                    ]
                ], 
                [
                    7501, 
                    [
                        {
                            "pitch": 50, 
                            "t0": 7501, 
                            "v": 35, 
                            "dur": 75.0, 
                            "type": "note", 
                            "channel": 9
                        }
                    ]
                ], 
                [
                    7626, 
                    [
                        {
                            "pitch": 50, 
                            "t0": 7626, 
                            "v": 34, 
                            "dur": 75.0, 
                            "type": "note", 
                            "channel": 9
                        }
                    ]
                ], 
                [
                    7751, 
                    [
                        {
                            "pitch": 50, 
                            "t0": 7751, 
                            "v": 43, 
                            "dur": 75.0, 
                            "type": "note", 
                            "channel": 9
                        }
                    ]
                ], 
                [
                    7874, 
                    [
                        {
                            "pitch": 50, 
                            "t0": 7874, 
                            "v": 33, 
                            "dur": 75.0, 
                            "type": "note", 
                            "channel": 9
                        }
                    ]
                ], 
                [
                    7996, 
                    [
                        {
                            "pitch": 50, 
                            "t0": 7996, 
                            "v": 33, 
                            "dur": 75.0, 
                            "type": "note", 
                            "channel": 9
                        }
                    ]
                ], 
                [
                    8117, 
                    [
                        {
                            "pitch": 50, 
                            "t0": 8117, 
                            "v": 32, 
                            "dur": 75.0, 
                            "type": "note", 
                            "channel": 9
                        }
                    ]
                ], 
                [
                    8237, 
                    [
                        {
                            "pitch": 50, 
                            "t0": 8237, 
                            "v": 41, 
                            "dur": 75.0, 
                            "type": "note", 
                            "channel": 9
                        }
                    ]
                ], 
                [
                    8356, 
                    [
                        {
                            "pitch": 50, 
                            "t0": 8356, 
                            "v": 31, 
                            "dur": 75.0, 
                            "type": "note", 
                            "channel": 9
                        }
                    ]
                ], 
                [
                    8473, 
                    [
                        {
                            "pitch": 50, 
                            "t0": 8473, 
                            "v": 30, 
                            "dur": 75.0, 
                            "type": "note", 
                            "channel": 9
                        }
                    ]
                ], 
                [
                    8590, 
                    [
                        {
                            "pitch": 50, 
                            "t0": 8590, 
                            "v": 30, 
                            "dur": 75.0, 
                            "type": "note", 
                            "channel": 9
                        }
                    ]
                ], 
                [
                    8706, 
                    [
                        {
                            "pitch": 50, 
                            "t0": 8706, 
                            "v": 38, 
                            "dur": 75.0, 
                            "type": "note", 
                            "channel": 9
                        }
                    ]
                ], 
                [
                    8821, 
                    [
                        {
                            "pitch": 50, 
                            "t0": 8821, 
                            "v": 29, 
                            "dur": 75.0, 
                            "type": "note", 
                            "channel": 9
                        }
                    ]
                ], 
                [
                    8935, 
                    [
                        {
                            "pitch": 50, 
                            "t0": 8935, 
                            "v": 28, 
                            "dur": 75.0, 
                            "type": "note", 
                            "channel": 9
                        }
                    ]
                ], 
                [
                    9048, 
                    [
                        {
                            "pitch": 50, 
                            "t0": 9048, 
                            "v": 28, 
                            "dur": 75.0, 
                            "type": "note", 
                            "channel": 9
                        }
                    ]
                ], 
                [
                    9160, 
                    [
                        {
                            "pitch": 50, 
                            "t0": 9160, 
                            "v": 35, 
                            "dur": 75.0, 
                            "type": "note", 
                            "channel": 9
                        }
                    ]
                ], 
                [
                    9272, 
                    [
                        {
                            "pitch": 50, 
                            "t0": 9272, 
                            "v": 27, 
                            "dur": 75.0, 
                            "type": "note", 
                            "channel": 9
                        }
                    ]
                ], 
                [
                    9382, 
                    [
                        {
                            "pitch": 50, 
                            "t0": 9382, 
                            "v": 26, 
                            "dur": 75.0, 
                            "type": "note", 
                            "channel": 9
                        }
                    ]
                ], 
                [
                    9491, 
                    [
                        {
                            "pitch": 50, 
                            "t0": 9491, 
                            "v": 26, 
                            "dur": 75.0, 
                            "type": "note", 
                            "channel": 9
                        }
                    ]
                ], 
                [
                    9566.0, 
                    [
                        {
                            "pitch": 50, 
                            "t0": 9566.0, 
                            "v": 82, 
                            "dur": 54.101064033337025, 
                            "type": "note", 
                            "channel": 9
                        }
                    ]
                ], 
                [
                    9781.0, 
                    [
                        {
                            "pitch": 50, 
                            "t0": 9781.0, 
                            "v": 63, 
                            "dur": 53.26873997128496, 
                            "type": "note", 
                            "channel": 9
                        }
                    ]
                ], 
                [
                    9992.0, 
                    [
                        {
                            "pitch": 50, 
                            "t0": 9992.0, 
                            "v": 63, 
                            "dur": 52.46163785050703, 
                            "type": "note", 
                            "channel": 9
                        }
                    ]
                ], 
                [
                    10200.0, 
                    [
                        {
                            "pitch": 50, 
                            "t0": 10200.0, 
                            "v": 62, 
                            "dur": 51.678628330351785, 
                            "type": "note", 
                            "channel": 9
                        }
                    ]
                ], 
                [
                    10406.0, 
                    [
                        {
                            "pitch": 50, 
                            "t0": 10406.0, 
                            "v": 79, 
                            "dur": 50.91864850196362, 
                            "type": "note", 
                            "channel": 9
                        }
                    ]
                ], 
                [
                    10608.0, 
                    [
                        {
                            "pitch": 50, 
                            "t0": 10608.0, 
                            "v": 61, 
                            "dur": 50.18069707439827, 
                            "type": "note", 
                            "channel": 9
                        }
                    ]
                ], 
                [
                    10807.0, 
                    [
                        {
                            "pitch": 50, 
                            "t0": 10807.0, 
                            "v": 60, 
                            "dur": 49.46382997333603, 
                            "type": "note", 
                            "channel": 9
                        }
                    ]
                ], 
                [
                    11004.0, 
                    [
                        {
                            "pitch": 50, 
                            "t0": 11004.0, 
                            "v": 60, 
                            "dur": 48.76715631174011, 
                            "type": "note", 
                            "channel": 9
                        }
                    ]
                ], 
                [
                    11197.0, 
                    [
                        {
                            "pitch": 50, 
                            "t0": 11197.0, 
                            "v": 76, 
                            "dur": 48.08983469629857, 
                            "type": "note", 
                            "channel": 9
                        }
                    ]
                ], 
                [
                    11388.0, 
                    [
                        {
                            "pitch": 50, 
                            "t0": 11388.0, 
                            "v": 59, 
                            "dur": 47.43106983744474, 
                            "type": "note", 
                            "channel": 9
                        }
                    ]
                ], 
                [
                    11577.0, 
                    [
                        {
                            "pitch": 50, 
                            "t0": 11577.0, 
                            "v": 58, 
                            "dur": 46.790109434236, 
                            "type": "note", 
                            "channel": 9
                        }
                    ]
                ], 
                [
                    11763.0, 
                    [
                        {
                            "pitch": 50, 
                            "t0": 11763.0, 
                            "v": 57, 
                            "dur": 46.16624130844684, 
                            "type": "note", 
                            "channel": 9
                        }
                    ]
                ], 
                [
                    11946.0, 
                    [
                        {
                            "pitch": 50, 
                            "t0": 11946.0, 
                            "v": 73, 
                            "dur": 45.5587907649151, 
                            "type": "note", 
                            "channel": 9
                        }
                    ]
                ], 
                [
                    12127.0, 
                    [
                        {
                            "pitch": 50, 
                            "t0": 12127.0, 
                            "v": 56, 
                            "dur": 44.967118157577715, 
                            "type": "note", 
                            "channel": 9
                        }
                    ]
                ], 
                [
                    12306.0, 
                    [
                        {
                            "pitch": 50, 
                            "t0": 12306.0, 
                            "v": 55, 
                            "dur": 44.39061664273686, 
                            "type": "note", 
                            "channel": 9
                        }
                    ]
                ], 
                [
                    12482.0, 
                    [
                        {
                            "pitch": 50, 
                            "t0": 12482.0, 
                            "v": 55, 
                            "dur": 43.82871010295639, 
                            "type": "note", 
                            "channel": 9
                        }
                    ]
                ], 
                [
                    12657.0, 
                    [
                        {
                            "pitch": 50, 
                            "t0": 12657.0, 
                            "v": 69, 
                            "dur": 43.280851226669256, 
                            "type": "note", 
                            "channel": 9
                        }
                    ]
                ], 
                [
                    12829.0, 
                    [
                        {
                            "pitch": 50, 
                            "t0": 12829.0, 
                            "v": 53, 
                            "dur": 42.746519730042564, 
                            "type": "note", 
                            "channel": 9
                        }
                    ]
                ], 
                [
                    12998.0, 
                    [
                        {
                            "pitch": 50, 
                            "t0": 12998.0, 
                            "v": 53, 
                            "dur": 42.225220708945926, 
                            "type": "note", 
                            "channel": 9
                        }
                    ]
                ], 
                [
                    13166.0, 
                    [
                        {
                            "pitch": 50, 
                            "t0": 13166.0, 
                            "v": 52, 
                            "dur": 41.716483110041736, 
                            "type": "note", 
                            "channel": 9
                        }
                    ]
                ], 
                [
                    13332.0, 
                    [
                        {
                            "pitch": 50, 
                            "t0": 13332.0, 
                            "v": 66, 
                            "dur": 41.21985831111306, 
                            "type": "note", 
                            "channel": 9
                        }
                    ]
                ], 
                [
                    13496.0, 
                    [
                        {
                            "pitch": 50, 
                            "t0": 13496.0, 
                            "v": 51, 
                            "dur": 40.73491880157053, 
                            "type": "note", 
                            "channel": 9
                        }
                    ]
                ], 
                [
                    13658.0, 
                    [
                        {
                            "pitch": 50, 
                            "t0": 13658.0, 
                            "v": 50, 
                            "dur": 40.26125695504015, 
                            "type": "note", 
                            "channel": 9
                        }
                    ]
                ], 
                [
                    13818.0, 
                    [
                        {
                            "pitch": 50, 
                            "t0": 13818.0, 
                            "v": 49, 
                            "dur": 39.798483886592294, 
                            "type": "note", 
                            "channel": 9
                        }
                    ]
                ], 
                [
                    13977.0, 
                    [
                        {
                            "pitch": 50, 
                            "t0": 13977.0, 
                            "v": 63, 
                            "dur": 39.34622838788164, 
                            "type": "note", 
                            "channel": 9
                        }
                    ]
                ], 
                [
                    14133.0, 
                    [
                        {
                            "pitch": 50, 
                            "t0": 14133.0, 
                            "v": 48, 
                            "dur": 38.90413593408448, 
                            "type": "note", 
                            "channel": 9
                        }
                    ]
                ], 
                [
                    14288.0, 
                    [
                        {
                            "pitch": 50, 
                            "t0": 14288.0, 
                            "v": 47, 
                            "dur": 38.471867757038126, 
                            "type": "note", 
                            "channel": 9
                        }
                    ]
                ], 
                [
                    14441.0, 
                    [
                        {
                            "pitch": 50, 
                            "t0": 14441.0, 
                            "v": 47, 
                            "dur": 38.049099979489256, 
                            "type": "note", 
                            "channel": 9
                        }
                    ]
                ], 
                [
                    14592.0, 
                    [
                        {
                            "pitch": 50, 
                            "t0": 14592.0, 
                            "v": 59, 
                            "dur": 37.635522805798246, 
                            "type": "note", 
                            "channel": 9
                        }
                    ]
                ], 
                [
                    14742.0, 
                    [
                        {
                            "pitch": 50, 
                            "t0": 14742.0, 
                            "v": 45, 
                            "dur": 75.0, 
                            "type": "note", 
                            "channel": 9
                        }
                    ]
                ], 
                [
                    14890.0, 
                    [
                        {
                            "pitch": 50, 
                            "t0": 14890.0, 
                            "v": 45, 
                            "dur": 75.0, 
                            "type": "note", 
                            "channel": 9
                        }
                    ]
                ], 
                [
                    15037.0, 
                    [
                        {
                            "pitch": 50, 
                            "t0": 15037.0, 
                            "v": 44, 
                            "dur": 75.0, 
                            "type": "note", 
                            "channel": 9
                        }
                    ]
                ], 
                [
                    15182.0, 
                    [
                        {
                            "pitch": 50, 
                            "t0": 15182.0, 
                            "v": 56, 
                            "dur": 75.0, 
                            "type": "note", 
                            "channel": 9
                        }
                    ]
                ], 
                [
                    15325.0, 
                    [
                        {
                            "pitch": 50, 
                            "t0": 15325.0, 
                            "v": 43, 
                            "dur": 75.0, 
                            "type": "note", 
                            "channel": 9
                        }
                    ]
                ], 
                [
                    15467.0, 
                    [
                        {
                            "pitch": 50, 
                            "t0": 15467.0, 
                            "v": 42, 
                            "dur": 75.0, 
                            "type": "note", 
                            "channel": 9
                        }
                    ]
                ], 
                [
                    15608.0, 
                    [
                        {
                            "pitch": 50, 
                            "t0": 15608.0, 
                            "v": 42, 
                            "dur": 75.0, 
                            "type": "note", 
                            "channel": 9
                        }
                    ]
                ], 
                [
                    15747.0, 
                    [
                        {
                            "pitch": 50, 
                            "t0": 15747.0, 
                            "v": 53, 
                            "dur": 75.0, 
                            "type": "note", 
                            "channel": 9
                        }
                    ]
                ], 
                [
                    15885.0, 
                    [
                        {
                            "pitch": 50, 
                            "t0": 15885.0, 
                            "v": 40, 
                            "dur": 75.0, 
                            "type": "note", 
                            "channel": 9
                        }
                    ]
                ], 
                [
                    16021.0, 
                    [
                        {
                            "pitch": 50, 
                            "t0": 16021.0, 
                            "v": 40, 
                            "dur": 75.0, 
                            "type": "note", 
                            "channel": 9
                        }
                    ]
                ], 
                [
                    16156.0, 
                    [
                        {
                            "pitch": 50, 
                            "t0": 16156.0, 
                            "v": 39, 
                            "dur": 75.0, 
                            "type": "note", 
                            "channel": 9
                        }
                    ]
                ], 
                [
                    16290.0, 
                    [
                        {
                            "pitch": 50, 
                            "t0": 16290.0, 
                            "v": 49, 
                            "dur": 75.0, 
                            "type": "note", 
                            "channel": 9
                        }
                    ]
                ], 
                [
                    16423.0, 
                    [
                        {
                            "pitch": 50, 
                            "t0": 16423.0, 
                            "v": 38, 
                            "dur": 75.0, 
                            "type": "note", 
                            "channel": 9
                        }
                    ]
                ], 
                [
                    16554.0, 
                    [
                        {
                            "pitch": 50, 
                            "t0": 16554.0, 
                            "v": 37, 
                            "dur": 75.0, 
                            "type": "note", 
                            "channel": 9
                        }
                    ]
                ], 
                [
                    16684.0, 
                    [
                        {
                            "pitch": 50, 
                            "t0": 16684.0, 
                            "v": 37, 
                            "dur": 75.0, 
                            "type": "note", 
                            "channel": 9
                        }
                    ]
                ], 
                [
                    16813.0, 
                    [
                        {
                            "pitch": 50, 
                            "t0": 16813.0, 
                            "v": 46, 
                            "dur": 75.0, 
                            "type": "note", 
                            "channel": 9
                        }
                    ]
                ], 
                [
                    16941.0, 
                    [
                        {
                            "pitch": 50, 
                            "t0": 16941.0, 
                            "v": 35, 
                            "dur": 75.0, 
                            "type": "note", 
                            "channel": 9
                        }
                    ]
                ], 
                [
                    17067.0, 
                    [
                        {
                            "pitch": 50, 
                            "t0": 17067.0, 
                            "v": 35, 
                            "dur": 75.0, 
                            "type": "note", 
                            "channel": 9
                        }
                    ]
                ], 
                [
                    17192.0, 
                    [
                        {
                            "pitch": 50, 
                            "t0": 17192.0, 
                            "v": 34, 
                            "dur": 75.0, 
                            "type": "note", 
                            "channel": 9
                        }
                    ]
                ], 
                [
                    17317.0, 
                    [
                        {
                            "pitch": 50, 
                            "t0": 17317.0, 
                            "v": 43, 
                            "dur": 75.0, 
                            "type": "note", 
                            "channel": 9
                        }
                    ]
                ], 
                [
                    17440.0, 
                    [
                        {
                            "pitch": 50, 
                            "t0": 17440.0, 
                            "v": 33, 
                            "dur": 75.0, 
                            "type": "note", 
                            "channel": 9
                        }
                    ]
                ], 
                [
                    17562.0, 
                    [
                        {
                            "pitch": 50, 
                            "t0": 17562.0, 
                            "v": 33, 
                            "dur": 75.0, 
                            "type": "note", 
                            "channel": 9
                        }
                    ]
                ], 
                [
                    17683.0, 
                    [
                        {
                            "pitch": 50, 
                            "t0": 17683.0, 
                            "v": 32, 
                            "dur": 75.0, 
                            "type": "note", 
                            "channel": 9
                        }
                    ]
                ], 
                [
                    17803.0, 
                    [
                        {
                            "pitch": 50, 
                            "t0": 17803.0, 
                            "v": 41, 
                            "dur": 75.0, 
                            "type": "note", 
                            "channel": 9
                        }
                    ]
                ], 
                [
                    17922.0, 
                    [
                        {
                            "pitch": 50, 
                            "t0": 17922.0, 
                            "v": 31, 
                            "dur": 75.0, 
                            "type": "note", 
                            "channel": 9
                        }
                    ]
                ], 
                [
                    18039.0, 
                    [
                        {
                            "pitch": 50, 
                            "t0": 18039.0, 
                            "v": 30, 
                            "dur": 75.0, 
                            "type": "note", 
                            "channel": 9
                        }
                    ]
                ], 
                [
                    18156.0, 
                    [
                        {
                            "pitch": 50, 
                            "t0": 18156.0, 
                            "v": 30, 
                            "dur": 75.0, 
                            "type": "note", 
                            "channel": 9
                        }
                    ]
                ], 
                [
                    18272.0, 
                    [
                        {
                            "pitch": 50, 
                            "t0": 18272.0, 
                            "v": 38, 
                            "dur": 75.0, 
                            "type": "note", 
                            "channel": 9
                        }
                    ]
                ], 
                [
                    18387.0, 
                    [
                        {
                            "pitch": 50, 
                            "t0": 18387.0, 
                            "v": 29, 
                            "dur": 75.0, 
                            "type": "note", 
                            "channel": 9
                        }
                    ]
                ], 
                [
                    18501.0, 
                    [
                        {
                            "pitch": 50, 
                            "t0": 18501.0, 
                            "v": 28, 
                            "dur": 75.0, 
                            "type": "note", 
                            "channel": 9
                        }
                    ]
                ], 
                [
                    18614.0, 
                    [
                        {
                            "pitch": 50, 
                            "t0": 18614.0, 
                            "v": 28, 
                            "dur": 75.0, 
                            "type": "note", 
                            "channel": 9
                        }
                    ]
                ], 
                [
                    18726.0, 
                    [
                        {
                            "pitch": 50, 
                            "t0": 18726.0, 
                            "v": 35, 
                            "dur": 75.0, 
                            "type": "note", 
                            "channel": 9
                        }
                    ]
                ], 
                [
                    18838.0, 
                    [
                        {
                            "pitch": 50, 
                            "t0": 18838.0, 
                            "v": 27, 
                            "dur": 75.0, 
                            "type": "note", 
                            "channel": 9
                        }
                    ]
                ], 
                [
                    18948.0, 
                    [
                        {
                            "pitch": 50, 
                            "t0": 18948.0, 
                            "v": 26, 
                            "dur": 75.0, 
                            "type": "note", 
                            "channel": 9
                        }
                    ]
                ], 
                [
                    19057.0, 
                    [
                        {
                            "pitch": 50, 
                            "t0": 19057.0, 
                            "v": 26, 
                            "dur": 75.0, 
                            "type": "note", 
                            "channel": 9
                        }
                    ]
                ], 
                [
                    19132.0, 
                    [
                        {
                            "pitch": 50, 
                            "t0": 19132.0, 
                            "v": 82, 
                            "dur": 54.101064033337025, 
                            "type": "note", 
                            "channel": 9
                        }
                    ]
                ], 
                [
                    19347.0, 
                    [
                        {
                            "pitch": 50, 
                            "t0": 19347.0, 
                            "v": 63, 
                            "dur": 53.26873997128496, 
                            "type": "note", 
                            "channel": 9
                        }
                    ]
                ], 
                [
                    19558.0, 
                    [
                        {
                            "pitch": 50, 
                            "t0": 19558.0, 
                            "v": 63, 
                            "dur": 52.46163785050885, 
                            "type": "note", 
                            "channel": 9
                        }
                    ]
                ], 
                [
                    19766.0, 
                    [
                        {
                            "pitch": 50, 
                            "t0": 19766.0, 
                            "v": 62, 
                            "dur": 51.678628330351785, 
                            "type": "note", 
                            "channel": 9
                        }
                    ]
                ], 
                [
                    19972.0, 
                    [
                        {
                            "pitch": 50, 
                            "t0": 19972.0, 
                            "v": 79, 
                            "dur": 50.91864850196362, 
                            "type": "note", 
                            "channel": 9
                        }
                    ]
                ], 
                [
                    20174.0, 
                    [
                        {
                            "pitch": 50, 
                            "t0": 20174.0, 
                            "v": 61, 
                            "dur": 50.180697074400086, 
                            "type": "note", 
                            "channel": 9
                        }
                    ]
                ], 
                [
                    20373.0, 
                    [
                        {
                            "pitch": 50, 
                            "t0": 20373.0, 
                            "v": 60, 
                            "dur": 49.463829973334214, 
                            "type": "note", 
                            "channel": 9
                        }
                    ]
                ], 
                [
                    20570.0, 
                    [
                        {
                            "pitch": 50, 
                            "t0": 20570.0, 
                            "v": 60, 
                            "dur": 48.76715631174011, 
                            "type": "note", 
                            "channel": 9
                        }
                    ]
                ], 
                [
                    20763.0, 
                    [
                        {
                            "pitch": 50, 
                            "t0": 20763.0, 
                            "v": 76, 
                            "dur": 48.089834696300386, 
                            "type": "note", 
                            "channel": 9
                        }
                    ]
                ], 
                [
                    20954.0, 
                    [
                        {
                            "pitch": 50, 
                            "t0": 20954.0, 
                            "v": 59, 
                            "dur": 47.43106983744656, 
                            "type": "note", 
                            "channel": 9
                        }
                    ]
                ], 
                [
                    21143.0, 
                    [
                        {
                            "pitch": 50, 
                            "t0": 21143.0, 
                            "v": 58, 
                            "dur": 46.79010943423782, 
                            "type": "note", 
                            "channel": 9
                        }
                    ]
                ], 
                [
                    21329.0, 
                    [
                        {
                            "pitch": 50, 
                            "t0": 21329.0, 
                            "v": 57, 
                            "dur": 46.166241308445024, 
                            "type": "note", 
                            "channel": 9
                        }
                    ]
                ], 
                [
                    21512.0, 
                    [
                        {
                            "pitch": 50, 
                            "t0": 21512.0, 
                            "v": 73, 
                            "dur": 45.55879076491328, 
                            "type": "note", 
                            "channel": 9
                        }
                    ]
                ], 
                [
                    21693.0, 
                    [
                        {
                            "pitch": 50, 
                            "t0": 21693.0, 
                            "v": 56, 
                            "dur": 44.967118157579534, 
                            "type": "note", 
                            "channel": 9
                        }
                    ]
                ], 
                [
                    21872.0, 
                    [
                        {
                            "pitch": 50, 
                            "t0": 21872.0, 
                            "v": 55, 
                            "dur": 44.39061664273686, 
                            "type": "note", 
                            "channel": 9
                        }
                    ]
                ], 
                [
                    22048.0, 
                    [
                        {
                            "pitch": 50, 
                            "t0": 22048.0, 
                            "v": 55, 
                            "dur": 43.82871010295639, 
                            "type": "note", 
                            "channel": 9
                        }
                    ]
                ], 
                [
                    22223.0, 
                    [
                        {
                            "pitch": 50, 
                            "t0": 22223.0, 
                            "v": 69, 
                            "dur": 43.28085122666744, 
                            "type": "note", 
                            "channel": 9
                        }
                    ]
                ], 
                [
                    22395.0, 
                    [
                        {
                            "pitch": 50, 
                            "t0": 22395.0, 
                            "v": 53, 
                            "dur": 42.74651973004438, 
                            "type": "note", 
                            "channel": 9
                        }
                    ]
                ], 
                [
                    22564.0, 
                    [
                        {
                            "pitch": 50, 
                            "t0": 22564.0, 
                            "v": 53, 
                            "dur": 42.22522070894411, 
                            "type": "note", 
                            "channel": 9
                        }
                    ]
                ], 
                [
                    22732.0, 
                    [
                        {
                            "pitch": 50, 
                            "t0": 22732.0, 
                            "v": 52, 
                            "dur": 41.716483110041736, 
                            "type": "note", 
                            "channel": 9
                        }
                    ]
                ], 
                [
                    22898.0, 
                    [
                        {
                            "pitch": 50, 
                            "t0": 22898.0, 
                            "v": 66, 
                            "dur": 41.21985831111306, 
                            "type": "note", 
                            "channel": 9
                        }
                    ]
                ], 
                [
                    23062.0, 
                    [
                        {
                            "pitch": 50, 
                            "t0": 23062.0, 
                            "v": 51, 
                            "dur": 40.73491880157235, 
                            "type": "note", 
                            "channel": 9
                        }
                    ]
                ], 
                [
                    23224.0, 
                    [
                        {
                            "pitch": 50, 
                            "t0": 23224.0, 
                            "v": 50, 
                            "dur": 40.26125695504015, 
                            "type": "note", 
                            "channel": 9
                        }
                    ]
                ], 
                [
                    23384.0, 
                    [
                        {
                            "pitch": 50, 
                            "t0": 23384.0, 
                            "v": 49, 
                            "dur": 39.798483886592294, 
                            "type": "note", 
                            "channel": 9
                        }
                    ]
                ], 
                [
                    23543.0, 
                    [
                        {
                            "pitch": 50, 
                            "t0": 23543.0, 
                            "v": 63, 
                            "dur": 39.34622838787982, 
                            "type": "note", 
                            "channel": 9
                        }
                    ]
                ], 
                [
                    23699.0, 
                    [
                        {
                            "pitch": 50, 
                            "t0": 23699.0, 
                            "v": 48, 
                            "dur": 38.90413593408448, 
                            "type": "note", 
                            "channel": 9
                        }
                    ]
                ], 
                [
                    23854.0, 
                    [
                        {
                            "pitch": 50, 
                            "t0": 23854.0, 
                            "v": 47, 
                            "dur": 38.471867757038126, 
                            "type": "note", 
                            "channel": 9
                        }
                    ]
                ], 
                [
                    24007.0, 
                    [
                        {
                            "pitch": 50, 
                            "t0": 24007.0, 
                            "v": 47, 
                            "dur": 38.049099979489256, 
                            "type": "note", 
                            "channel": 9
                        }
                    ]
                ], 
                [
                    24158.0, 
                    [
                        {
                            "pitch": 50, 
                            "t0": 24158.0, 
                            "v": 59, 
                            "dur": 37.635522805798246, 
                            "type": "note", 
                            "channel": 9
                        }
                    ]
                ], 
                [
                    24308.0, 
                    [
                        {
                            "pitch": 50, 
                            "t0": 24308.0, 
                            "v": 45, 
                            "dur": 75.0, 
                            "type": "note", 
                            "channel": 9
                        }
                    ]
                ], 
                [
                    24456.0, 
                    [
                        {
                            "pitch": 50, 
                            "t0": 24456.0, 
                            "v": 45, 
                            "dur": 75.0, 
                            "type": "note", 
                            "channel": 9
                        }
                    ]
                ], 
                [
                    24603.0, 
                    [
                        {
                            "pitch": 50, 
                            "t0": 24603.0, 
                            "v": 44, 
                            "dur": 75.0, 
                            "type": "note", 
                            "channel": 9
                        }
                    ]
                ], 
                [
                    24748.0, 
                    [
                        {
                            "pitch": 50, 
                            "t0": 24748.0, 
                            "v": 56, 
                            "dur": 75.0, 
                            "type": "note", 
                            "channel": 9
                        }
                    ]
                ], 
                [
                    24891.0, 
                    [
                        {
                            "pitch": 50, 
                            "t0": 24891.0, 
                            "v": 43, 
                            "dur": 75.0, 
                            "type": "note", 
                            "channel": 9
                        }
                    ]
                ], 
                [
                    25033.0, 
                    [
                        {
                            "pitch": 50, 
                            "t0": 25033.0, 
                            "v": 42, 
                            "dur": 75.0, 
                            "type": "note", 
                            "channel": 9
                        }
                    ]
                ], 
                [
                    25174.0, 
                    [
                        {
                            "pitch": 50, 
                            "t0": 25174.0, 
                            "v": 42, 
                            "dur": 75.0, 
                            "type": "note", 
                            "channel": 9
                        }
                    ]
                ], 
                [
                    25313.0, 
                    [
                        {
                            "pitch": 50, 
                            "t0": 25313.0, 
                            "v": 53, 
                            "dur": 75.0, 
                            "type": "note", 
                            "channel": 9
                        }
                    ]
                ], 
                [
                    25451.0, 
                    [
                        {
                            "pitch": 50, 
                            "t0": 25451.0, 
                            "v": 40, 
                            "dur": 75.0, 
                            "type": "note", 
                            "channel": 9
                        }
                    ]
                ], 
                [
                    25587.0, 
                    [
                        {
                            "pitch": 50, 
                            "t0": 25587.0, 
                            "v": 40, 
                            "dur": 75.0, 
                            "type": "note", 
                            "channel": 9
                        }
                    ]
                ], 
                [
                    25722.0, 
                    [
                        {
                            "pitch": 50, 
                            "t0": 25722.0, 
                            "v": 39, 
                            "dur": 75.0, 
                            "type": "note", 
                            "channel": 9
                        }
                    ]
                ], 
                [
                    25856.0, 
                    [
                        {
                            "pitch": 50, 
                            "t0": 25856.0, 
                            "v": 49, 
                            "dur": 75.0, 
                            "type": "note", 
                            "channel": 9
                        }
                    ]
                ], 
                [
                    25989.0, 
                    [
                        {
                            "pitch": 50, 
                            "t0": 25989.0, 
                            "v": 38, 
                            "dur": 75.0, 
                            "type": "note", 
                            "channel": 9
                        }
                    ]
                ], 
                [
                    26120.0, 
                    [
                        {
                            "pitch": 50, 
                            "t0": 26120.0, 
                            "v": 37, 
                            "dur": 75.0, 
                            "type": "note", 
                            "channel": 9
                        }
                    ]
                ], 
                [
                    26250.0, 
                    [
                        {
                            "pitch": 50, 
                            "t0": 26250.0, 
                            "v": 37, 
                            "dur": 75.0, 
                            "type": "note", 
                            "channel": 9
                        }
                    ]
                ], 
                [
                    26379.0, 
                    [
                        {
                            "pitch": 50, 
                            "t0": 26379.0, 
                            "v": 46, 
                            "dur": 75.0, 
                            "type": "note", 
                            "channel": 9
                        }
                    ]
                ], 
                [
                    26507.0, 
                    [
                        {
                            "pitch": 50, 
                            "t0": 26507.0, 
                            "v": 35, 
                            "dur": 75.0, 
                            "type": "note", 
                            "channel": 9
                        }
                    ]
                ], 
                [
                    26633.0, 
                    [
                        {
                            "pitch": 50, 
                            "t0": 26633.0, 
                            "v": 35, 
                            "dur": 75.0, 
                            "type": "note", 
                            "channel": 9
                        }
                    ]
                ], 
                [
                    26758.0, 
                    [
                        {
                            "pitch": 50, 
                            "t0": 26758.0, 
                            "v": 34, 
                            "dur": 75.0, 
                            "type": "note", 
                            "channel": 9
                        }
                    ]
                ], 
                [
                    26883.0, 
                    [
                        {
                            "pitch": 50, 
                            "t0": 26883.0, 
                            "v": 43, 
                            "dur": 75.0, 
                            "type": "note", 
                            "channel": 9
                        }
                    ]
                ], 
                [
                    27006.0, 
                    [
                        {
                            "pitch": 50, 
                            "t0": 27006.0, 
                            "v": 33, 
                            "dur": 75.0, 
                            "type": "note", 
                            "channel": 9
                        }
                    ]
                ], 
                [
                    27128.0, 
                    [
                        {
                            "pitch": 50, 
                            "t0": 27128.0, 
                            "v": 33, 
                            "dur": 75.0, 
                            "type": "note", 
                            "channel": 9
                        }
                    ]
                ], 
                [
                    27249.0, 
                    [
                        {
                            "pitch": 50, 
                            "t0": 27249.0, 
                            "v": 32, 
                            "dur": 75.0, 
                            "type": "note", 
                            "channel": 9
                        }
                    ]
                ], 
                [
                    27369.0, 
                    [
                        {
                            "pitch": 50, 
                            "t0": 27369.0, 
                            "v": 41, 
                            "dur": 75.0, 
                            "type": "note", 
                            "channel": 9
                        }
                    ]
                ], 
                [
                    27488.0, 
                    [
                        {
                            "pitch": 50, 
                            "t0": 27488.0, 
                            "v": 31, 
                            "dur": 75.0, 
                            "type": "note", 
                            "channel": 9
                        }
                    ]
                ], 
                [
                    27605.0, 
                    [
                        {
                            "pitch": 50, 
                            "t0": 27605.0, 
                            "v": 30, 
                            "dur": 75.0, 
                            "type": "note", 
                            "channel": 9
                        }
                    ]
                ], 
                [
                    27722.0, 
                    [
                        {
                            "pitch": 50, 
                            "t0": 27722.0, 
                            "v": 30, 
                            "dur": 75.0, 
                            "type": "note", 
                            "channel": 9
                        }
                    ]
                ], 
                [
                    27838.0, 
                    [
                        {
                            "pitch": 50, 
                            "t0": 27838.0, 
                            "v": 38, 
                            "dur": 75.0, 
                            "type": "note", 
                            "channel": 9
                        }
                    ]
                ], 
                [
                    27953.0, 
                    [
                        {
                            "pitch": 50, 
                            "t0": 27953.0, 
                            "v": 29, 
                            "dur": 75.0, 
                            "type": "note", 
                            "channel": 9
                        }
                    ]
                ], 
                [
                    28067.0, 
                    [
                        {
                            "pitch": 50, 
                            "t0": 28067.0, 
                            "v": 28, 
                            "dur": 75.0, 
                            "type": "note", 
                            "channel": 9
                        }
                    ]
                ], 
                [
                    28180.0, 
                    [
                        {
                            "pitch": 50, 
                            "t0": 28180.0, 
                            "v": 28, 
                            "dur": 75.0, 
                            "type": "note", 
                            "channel": 9
                        }
                    ]
                ], 
                [
                    28292.0, 
                    [
                        {
                            "pitch": 50, 
                            "t0": 28292.0, 
                            "v": 35, 
                            "dur": 75.0, 
                            "type": "note", 
                            "channel": 9
                        }
                    ]
                ], 
                [
                    28404.0, 
                    [
                        {
                            "pitch": 50, 
                            "t0": 28404.0, 
                            "v": 27, 
                            "dur": 75.0, 
                            "type": "note", 
                            "channel": 9
                        }
                    ]
                ], 
                [
                    28514.0, 
                    [
                        {
                            "pitch": 50, 
                            "t0": 28514.0, 
                            "v": 26, 
                            "dur": 75.0, 
                            "type": "note", 
                            "channel": 9
                        }
                    ]
                ], 
                [
                    28623.0, 
                    [
                        {
                            "pitch": 50, 
                            "t0": 28623.0, 
                            "v": 26, 
                            "dur": 75.0, 
                            "type": "note", 
                            "channel": 9
                        }
                    ]
                ], 
                [
                    28698.0, 
                    [
                        {
                            "pitch": 50, 
                            "t0": 28698.0, 
                            "v": 82, 
                            "dur": 54.101064033337025, 
                            "type": "note", 
                            "channel": 9
                        }
                    ]
                ], 
                [
                    28913.0, 
                    [
                        {
                            "pitch": 50, 
                            "t0": 28913.0, 
                            "v": 63, 
                            "dur": 53.26873997128496, 
                            "type": "note", 
                            "channel": 9
                        }
                    ]
                ], 
                [
                    29124.0, 
                    [
                        {
                            "pitch": 50, 
                            "t0": 29124.0, 
                            "v": 63, 
                            "dur": 52.46163785050885, 
                            "type": "note", 
                            "channel": 9
                        }
                    ]
                ], 
                [
                    29332.0, 
                    [
                        {
                            "pitch": 50, 
                            "t0": 29332.0, 
                            "v": 62, 
                            "dur": 51.678628330351785, 
                            "type": "note", 
                            "channel": 9
                        }
                    ]
                ], 
                [
                    29538.0, 
                    [
                        {
                            "pitch": 50, 
                            "t0": 29538.0, 
                            "v": 79, 
                            "dur": 50.91864850196362, 
                            "type": "note", 
                            "channel": 9
                        }
                    ]
                ], 
                [
                    29740.0, 
                    [
                        {
                            "pitch": 50, 
                            "t0": 29740.0, 
                            "v": 61, 
                            "dur": 50.180697074400086, 
                            "type": "note", 
                            "channel": 9
                        }
                    ]
                ], 
                [
                    29939.0, 
                    [
                        {
                            "pitch": 50, 
                            "t0": 29939.0, 
                            "v": 60, 
                            "dur": 49.463829973334214, 
                            "type": "note", 
                            "channel": 9
                        }
                    ]
                ], 
                [
                    30136.0, 
                    [
                        {
                            "pitch": 50, 
                            "t0": 30136.0, 
                            "v": 60, 
                            "dur": 48.76715631174011, 
                            "type": "note", 
                            "channel": 9
                        }
                    ]
                ], 
                [
                    30329.0, 
                    [
                        {
                            "pitch": 50, 
                            "t0": 30329.0, 
                            "v": 76, 
                            "dur": 48.089834696300386, 
                            "type": "note", 
                            "channel": 9
                        }
                    ]
                ], 
                [
                    30520.0, 
                    [
                        {
                            "pitch": 50, 
                            "t0": 30520.0, 
                            "v": 59, 
                            "dur": 47.43106983744656, 
                            "type": "note", 
                            "channel": 9
                        }
                    ]
                ], 
                [
                    30709.0, 
                    [
                        {
                            "pitch": 50, 
                            "t0": 30709.0, 
                            "v": 58, 
                            "dur": 46.79010943423782, 
                            "type": "note", 
                            "channel": 9
                        }
                    ]
                ], 
                [
                    30895.0, 
                    [
                        {
                            "pitch": 50, 
                            "t0": 30895.0, 
                            "v": 57, 
                            "dur": 46.166241308445024, 
                            "type": "note", 
                            "channel": 9
                        }
                    ]
                ], 
                [
                    31078.0, 
                    [
                        {
                            "pitch": 50, 
                            "t0": 31078.0, 
                            "v": 73, 
                            "dur": 45.55879076491328, 
                            "type": "note", 
                            "channel": 9
                        }
                    ]
                ], 
                [
                    31259.0, 
                    [
                        {
                            "pitch": 50, 
                            "t0": 31259.0, 
                            "v": 56, 
                            "dur": 44.967118157579534, 
                            "type": "note", 
                            "channel": 9
                        }
                    ]
                ], 
                [
                    31438.0, 
                    [
                        {
                            "pitch": 50, 
                            "t0": 31438.0, 
                            "v": 55, 
                            "dur": 44.39061664273686, 
                            "type": "note", 
                            "channel": 9
                        }
                    ]
                ], 
                [
                    31614.0, 
                    [
                        {
                            "pitch": 50, 
                            "t0": 31614.0, 
                            "v": 55, 
                            "dur": 43.82871010295639, 
                            "type": "note", 
                            "channel": 9
                        }
                    ]
                ], 
                [
                    31789.0, 
                    [
                        {
                            "pitch": 50, 
                            "t0": 31789.0, 
                            "v": 69, 
                            "dur": 43.28085122666744, 
                            "type": "note", 
                            "channel": 9
                        }
                    ]
                ], 
                [
                    31961.0, 
                    [
                        {
                            "pitch": 50, 
                            "t0": 31961.0, 
                            "v": 53, 
                            "dur": 42.74651973004438, 
                            "type": "note", 
                            "channel": 9
                        }
                    ]
                ], 
                [
                    32130.0, 
                    [
                        {
                            "pitch": 50, 
                            "t0": 32130.0, 
                            "v": 53, 
                            "dur": 42.22522070894411, 
                            "type": "note", 
                            "channel": 9
                        }
                    ]
                ], 
                [
                    32298.0, 
                    [
                        {
                            "pitch": 50, 
                            "t0": 32298.0, 
                            "v": 52, 
                            "dur": 41.716483110041736, 
                            "type": "note", 
                            "channel": 9
                        }
                    ]
                ], 
                [
                    32464.0, 
                    [
                        {
                            "pitch": 50, 
                            "t0": 32464.0, 
                            "v": 66, 
                            "dur": 41.21985831111306, 
                            "type": "note", 
                            "channel": 9
                        }
                    ]
                ], 
                [
                    32628.0, 
                    [
                        {
                            "pitch": 50, 
                            "t0": 32628.0, 
                            "v": 51, 
                            "dur": 40.73491880157235, 
                            "type": "note", 
                            "channel": 9
                        }
                    ]
                ], 
                [
                    32790.0, 
                    [
                        {
                            "pitch": 50, 
                            "t0": 32790.0, 
                            "v": 50, 
                            "dur": 40.26125695504015, 
                            "type": "note", 
                            "channel": 9
                        }
                    ]
                ], 
                [
                    32950.0, 
                    [
                        {
                            "pitch": 50, 
                            "t0": 32950.0, 
                            "v": 49, 
                            "dur": 39.798483886588656, 
                            "type": "note", 
                            "channel": 9
                        }
                    ]
                ], 
                [
                    33109.0, 
                    [
                        {
                            "pitch": 50, 
                            "t0": 33109.0, 
                            "v": 63, 
                            "dur": 39.34622838788346, 
                            "type": "note", 
                            "channel": 9
                        }
                    ]
                ], 
                [
                    33265.0, 
                    [
                        {
                            "pitch": 50, 
                            "t0": 33265.0, 
                            "v": 48, 
                            "dur": 38.90413593408448, 
                            "type": "note", 
                            "channel": 9
                        }
                    ]
                ], 
                [
                    33420.0, 
                    [
                        {
                            "pitch": 50, 
                            "t0": 33420.0, 
                            "v": 47, 
                            "dur": 38.471867757041764, 
                            "type": "note", 
                            "channel": 9
                        }
                    ]
                ], 
                [
                    33573.0, 
                    [
                        {
                            "pitch": 50, 
                            "t0": 33573.0, 
                            "v": 47, 
                            "dur": 38.04909997948562, 
                            "type": "note", 
                            "channel": 9
                        }
                    ]
                ], 
                [
                    33724.0, 
                    [
                        {
                            "pitch": 50, 
                            "t0": 33724.0, 
                            "v": 59, 
                            "dur": 37.635522805801884, 
                            "type": "note", 
                            "channel": 9
                        }
                    ]
                ], 
                [
                    33874.0, 
                    [
                        {
                            "pitch": 50, 
                            "t0": 33874.0, 
                            "v": 45, 
                            "dur": 75.0, 
                            "type": "note", 
                            "channel": 9
                        }
                    ]
                ], 
                [
                    34022.0, 
                    [
                        {
                            "pitch": 50, 
                            "t0": 34022.0, 
                            "v": 45, 
                            "dur": 75.0, 
                            "type": "note", 
                            "channel": 9
                        }
                    ]
                ], 
                [
                    34169.0, 
                    [
                        {
                            "pitch": 50, 
                            "t0": 34169.0, 
                            "v": 44, 
                            "dur": 75.0, 
                            "type": "note", 
                            "channel": 9
                        }
                    ]
                ], 
                [
                    34314.0, 
                    [
                        {
                            "pitch": 50, 
                            "t0": 34314.0, 
                            "v": 56, 
                            "dur": 75.0, 
                            "type": "note", 
                            "channel": 9
                        }
                    ]
                ], 
                [
                    34457.0, 
                    [
                        {
                            "pitch": 50, 
                            "t0": 34457.0, 
                            "v": 43, 
                            "dur": 75.0, 
                            "type": "note", 
                            "channel": 9
                        }
                    ]
                ], 
                [
                    34599.0, 
                    [
                        {
                            "pitch": 50, 
                            "t0": 34599.0, 
                            "v": 42, 
                            "dur": 75.0, 
                            "type": "note", 
                            "channel": 9
                        }
                    ]
                ], 
                [
                    34740.0, 
                    [
                        {
                            "pitch": 50, 
                            "t0": 34740.0, 
                            "v": 42, 
                            "dur": 75.0, 
                            "type": "note", 
                            "channel": 9
                        }
                    ]
                ], 
                [
                    34879.0, 
                    [
                        {
                            "pitch": 50, 
                            "t0": 34879.0, 
                            "v": 53, 
                            "dur": 75.0, 
                            "type": "note", 
                            "channel": 9
                        }
                    ]
                ], 
                [
                    35017.0, 
                    [
                        {
                            "pitch": 50, 
                            "t0": 35017.0, 
                            "v": 40, 
                            "dur": 75.0, 
                            "type": "note", 
                            "channel": 9
                        }
                    ]
                ], 
                [
                    35153.0, 
                    [
                        {
                            "pitch": 50, 
                            "t0": 35153.0, 
                            "v": 40, 
                            "dur": 75.0, 
                            "type": "note", 
                            "channel": 9
                        }
                    ]
                ], 
                [
                    35288.0, 
                    [
                        {
                            "pitch": 50, 
                            "t0": 35288.0, 
                            "v": 39, 
                            "dur": 75.0, 
                            "type": "note", 
                            "channel": 9
                        }
                    ]
                ], 
                [
                    35422.0, 
                    [
                        {
                            "pitch": 50, 
                            "t0": 35422.0, 
                            "v": 49, 
                            "dur": 75.0, 
                            "type": "note", 
                            "channel": 9
                        }
                    ]
                ], 
                [
                    35555.0, 
                    [
                        {
                            "pitch": 50, 
                            "t0": 35555.0, 
                            "v": 38, 
                            "dur": 75.0, 
                            "type": "note", 
                            "channel": 9
                        }
                    ]
                ], 
                [
                    35686.0, 
                    [
                        {
                            "pitch": 50, 
                            "t0": 35686.0, 
                            "v": 37, 
                            "dur": 75.0, 
                            "type": "note", 
                            "channel": 9
                        }
                    ]
                ], 
                [
                    35816.0, 
                    [
                        {
                            "pitch": 50, 
                            "t0": 35816.0, 
                            "v": 37, 
                            "dur": 75.0, 
                            "type": "note", 
                            "channel": 9
                        }
                    ]
                ], 
                [
                    35945.0, 
                    [
                        {
                            "pitch": 50, 
                            "t0": 35945.0, 
                            "v": 46, 
                            "dur": 75.0, 
                            "type": "note", 
                            "channel": 9
                        }
                    ]
                ], 
                [
                    36073.0, 
                    [
                        {
                            "pitch": 50, 
                            "t0": 36073.0, 
                            "v": 35, 
                            "dur": 75.0, 
                            "type": "note", 
                            "channel": 9
                        }
                    ]
                ], 
                [
                    36199.0, 
                    [
                        {
                            "pitch": 50, 
                            "t0": 36199.0, 
                            "v": 35, 
                            "dur": 75.0, 
                            "type": "note", 
                            "channel": 9
                        }
                    ]
                ], 
                [
                    36324.0, 
                    [
                        {
                            "pitch": 50, 
                            "t0": 36324.0, 
                            "v": 34, 
                            "dur": 75.0, 
                            "type": "note", 
                            "channel": 9
                        }
                    ]
                ], 
                [
                    36449.0, 
                    [
                        {
                            "pitch": 50, 
                            "t0": 36449.0, 
                            "v": 43, 
                            "dur": 75.0, 
                            "type": "note", 
                            "channel": 9
                        }
                    ]
                ], 
                [
                    36572.0, 
                    [
                        {
                            "pitch": 50, 
                            "t0": 36572.0, 
                            "v": 33, 
                            "dur": 75.0, 
                            "type": "note", 
                            "channel": 9
                        }
                    ]
                ], 
                [
                    36694.0, 
                    [
                        {
                            "pitch": 50, 
                            "t0": 36694.0, 
                            "v": 33, 
                            "dur": 75.0, 
                            "type": "note", 
                            "channel": 9
                        }
                    ]
                ], 
                [
                    36815.0, 
                    [
                        {
                            "pitch": 50, 
                            "t0": 36815.0, 
                            "v": 32, 
                            "dur": 75.0, 
                            "type": "note", 
                            "channel": 9
                        }
                    ]
                ], 
                [
                    36935.0, 
                    [
                        {
                            "pitch": 50, 
                            "t0": 36935.0, 
                            "v": 41, 
                            "dur": 75.0, 
                            "type": "note", 
                            "channel": 9
                        }
                    ]
                ], 
                [
                    37054.0, 
                    [
                        {
                            "pitch": 50, 
                            "t0": 37054.0, 
                            "v": 31, 
                            "dur": 75.0, 
                            "type": "note", 
                            "channel": 9
                        }
                    ]
                ], 
                [
                    37171.0, 
                    [
                        {
                            "pitch": 50, 
                            "t0": 37171.0, 
                            "v": 30, 
                            "dur": 75.0, 
                            "type": "note", 
                            "channel": 9
                        }
                    ]
                ], 
                [
                    37288.0, 
                    [
                        {
                            "pitch": 50, 
                            "t0": 37288.0, 
                            "v": 30, 
                            "dur": 75.0, 
                            "type": "note", 
                            "channel": 9
                        }
                    ]
                ], 
                [
                    37404.0, 
                    [
                        {
                            "pitch": 50, 
                            "t0": 37404.0, 
                            "v": 38, 
                            "dur": 75.0, 
                            "type": "note", 
                            "channel": 9
                        }
                    ]
                ], 
                [
                    37519.0, 
                    [
                        {
                            "pitch": 50, 
                            "t0": 37519.0, 
                            "v": 29, 
                            "dur": 75.0, 
                            "type": "note", 
                            "channel": 9
                        }
                    ]
                ], 
                [
                    37633.0, 
                    [
                        {
                            "pitch": 50, 
                            "t0": 37633.0, 
                            "v": 28, 
                            "dur": 75.0, 
                            "type": "note", 
                            "channel": 9
                        }
                    ]
                ], 
                [
                    37746.0, 
                    [
                        {
                            "pitch": 50, 
                            "t0": 37746.0, 
                            "v": 28, 
                            "dur": 75.0, 
                            "type": "note", 
                            "channel": 9
                        }
                    ]
                ], 
                [
                    37858.0, 
                    [
                        {
                            "pitch": 50, 
                            "t0": 37858.0, 
                            "v": 35, 
                            "dur": 75.0, 
                            "type": "note", 
                            "channel": 9
                        }
                    ]
                ], 
                [
                    37970.0, 
                    [
                        {
                            "pitch": 50, 
                            "t0": 37970.0, 
                            "v": 27, 
                            "dur": 75.0, 
                            "type": "note", 
                            "channel": 9
                        }
                    ]
                ], 
                [
                    38080.0, 
                    [
                        {
                            "pitch": 50, 
                            "t0": 38080.0, 
                            "v": 26, 
                            "dur": 75.0, 
                            "type": "note", 
                            "channel": 9
                        }
                    ]
                ], 
                [
                    38189.0, 
                    [
                        {
                            "pitch": 50, 
                            "t0": 38189.0, 
                            "v": 26, 
                            "dur": 75.0, 
                            "type": "note", 
                            "channel": 9
                        }
                    ]
                ]
            ], 
            "instruments": [], 
            "tMax": 38264.0, 
            "channels": [], 
            "numNotes": 256, 
            "type": "TrackObj"
        }, 
        {
            "seq": [
                [
                    0, 
                    [
                        {
                            "pitch": 50, 
                            "t0": 0, 
                            "v": 33, 
                            "dur": 75.0, 
                            "type": "note", 
                            "channel": 9
                        }
                    ]
                ], 
                [
                    108, 
                    [
                        {
                            "pitch": 50, 
                            "t0": 108, 
                            "v": 25, 
                            "dur": 75.0, 
                            "type": "note", 
                            "channel": 9
                        }
                    ]
                ], 
                [
                    215, 
                    [
                        {
                            "pitch": 50, 
                            "t0": 215, 
                            "v": 24, 
                            "dur": 75.0, 
                            "type": "note", 
                            "channel": 9
                        }
                    ]
                ], 
                [
                    321, 
                    [
                        {
                            "pitch": 50, 
                            "t0": 321, 
                            "v": 24, 
                            "dur": 75.0, 
                            "type": "note", 
                            "channel": 9
                        }
                    ]
                ], 
                [
                    426, 
                    [
                        {
                            "pitch": 50, 
                            "t0": 426, 
                            "v": 30, 
                            "dur": 75.0, 
                            "type": "note", 
                            "channel": 9
                        }
                    ]
                ], 
                [
                    531, 
                    [
                        {
                            "pitch": 50, 
                            "t0": 531, 
                            "v": 23, 
                            "dur": 75.0, 
                            "type": "note", 
                            "channel": 9
                        }
                    ]
                ], 
                [
                    634, 
                    [
                        {
                            "pitch": 50, 
                            "t0": 634, 
                            "v": 23, 
                            "dur": 75.0, 
                            "type": "note", 
                            "channel": 9
                        }
                    ]
                ], 
                [
                    737, 
                    [
                        {
                            "pitch": 50, 
                            "t0": 737, 
                            "v": 22, 
                            "dur": 75.0, 
                            "type": "note", 
                            "channel": 9
                        }
                    ]
                ], 
                [
                    840, 
                    [
                        {
                            "pitch": 50, 
                            "t0": 840, 
                            "v": 28, 
                            "dur": 75.0, 
                            "type": "note", 
                            "channel": 9
                        }
                    ]
                ], 
                [
                    941, 
                    [
                        {
                            "pitch": 50, 
                            "t0": 941, 
                            "v": 21, 
                            "dur": 75.0, 
                            "type": "note", 
                            "channel": 9
                        }
                    ]
                ], 
                [
                    1042, 
                    [
                        {
                            "pitch": 50, 
                            "t0": 1042, 
                            "v": 21, 
                            "dur": 75.0, 
                            "type": "note", 
                            "channel": 9
                        }
                    ]
                ], 
                [
                    1142, 
                    [
                        {
                            "pitch": 50, 
                            "t0": 1142, 
                            "v": 20, 
                            "dur": 75.0, 
                            "type": "note", 
                            "channel": 9
                        }
                    ]
                ], 
                [
                    1241, 
                    [
                        {
                            "pitch": 50, 
                            "t0": 1241, 
                            "v": 26, 
                            "dur": 75.0, 
                            "type": "note", 
                            "channel": 9
                        }
                    ]
                ], 
                [
                    1340, 
                    [
                        {
                            "pitch": 50, 
                            "t0": 1340, 
                            "v": 20, 
                            "dur": 75.0, 
                            "type": "note", 
                            "channel": 9
                        }
                    ]
                ], 
                [
                    1438, 
                    [
                        {
                            "pitch": 50, 
                            "t0": 1438, 
                            "v": 19, 
                            "dur": 75.0, 
                            "type": "note", 
                            "channel": 9
                        }
                    ]
                ], 
                [
                    1535, 
                    [
                        {
                            "pitch": 50, 
                            "t0": 1535, 
                            "v": 19, 
                            "dur": 75.0, 
                            "type": "note", 
                            "channel": 9
                        }
                    ]
                ], 
                [
                    1631, 
                    [
                        {
                            "pitch": 50, 
                            "t0": 1631, 
                            "v": 24, 
                            "dur": 75.0, 
                            "type": "note", 
                            "channel": 9
                        }
                    ]
                ], 
                [
                    1727, 
                    [
                        {
                            "pitch": 50, 
                            "t0": 1727, 
                            "v": 18, 
                            "dur": 75.0, 
                            "type": "note", 
                            "channel": 9
                        }
                    ]
                ], 
                [
                    1822, 
                    [
                        {
                            "pitch": 50, 
                            "t0": 1822, 
                            "v": 18, 
                            "dur": 75.0, 
                            "type": "note", 
                            "channel": 9
                        }
                    ]
                ], 
                [
                    1917, 
                    [
                        {
                            "pitch": 50, 
                            "t0": 1917, 
                            "v": 17, 
                            "dur": 75.0, 
                            "type": "note", 
                            "channel": 9
                        }
                    ]
                ], 
                [
                    2011, 
                    [
                        {
                            "pitch": 50, 
                            "t0": 2011, 
                            "v": 22, 
                            "dur": 75.0, 
                            "type": "note", 
                            "channel": 9
                        }
                    ]
                ], 
                [
                    2104, 
                    [
                        {
                            "pitch": 50, 
                            "t0": 2104, 
                            "v": 17, 
                            "dur": 75.0, 
                            "type": "note", 
                            "channel": 9
                        }
                    ]
                ], 
                [
                    2197, 
                    [
                        {
                            "pitch": 50, 
                            "t0": 2197, 
                            "v": 16, 
                            "dur": 75.0, 
                            "type": "note", 
                            "channel": 9
                        }
                    ]
                ], 
                [
                    2289, 
                    [
                        {
                            "pitch": 50, 
                            "t0": 2289, 
                            "v": 16, 
                            "dur": 75.0, 
                            "type": "note", 
                            "channel": 9
                        }
                    ]
                ], 
                [
                    2380, 
                    [
                        {
                            "pitch": 50, 
                            "t0": 2380, 
                            "v": 20, 
                            "dur": 75.0, 
                            "type": "note", 
                            "channel": 9
                        }
                    ]
                ], 
                [
                    2471, 
                    [
                        {
                            "pitch": 50, 
                            "t0": 2471, 
                            "v": 15, 
                            "dur": 75.0, 
                            "type": "note", 
                            "channel": 9
                        }
                    ]
                ], 
                [
                    2561, 
                    [
                        {
                            "pitch": 50, 
                            "t0": 2561, 
                            "v": 15, 
                            "dur": 75.0, 
                            "type": "note", 
                            "channel": 9
                        }
                    ]
                ], 
                [
                    2651, 
                    [
                        {
                            "pitch": 50, 
                            "t0": 2651, 
                            "v": 15, 
                            "dur": 75.0, 
                            "type": "note", 
                            "channel": 9
                        }
                    ]
                ], 
                [
                    2740, 
                    [
                        {
                            "pitch": 50, 
                            "t0": 2740, 
                            "v": 18, 
                            "dur": 75.0, 
                            "type": "note", 
                            "channel": 9
                        }
                    ]
                ], 
                [
                    2828, 
                    [
                        {
                            "pitch": 50, 
                            "t0": 2828, 
                            "v": 14, 
                            "dur": 75.0, 
                            "type": "note", 
                            "channel": 9
                        }
                    ]
                ], 
                [
                    2916, 
                    [
                        {
                            "pitch": 50, 
                            "t0": 2916, 
                            "v": 14, 
                            "dur": 75.0, 
                            "type": "note", 
                            "channel": 9
                        }
                    ]
                ], 
                [
                    3004, 
                    [
                        {
                            "pitch": 50, 
                            "t0": 3004, 
                            "v": 13, 
                            "dur": 75.0, 
                            "type": "note", 
                            "channel": 9
                        }
                    ]
                ], 
                [
                    3091, 
                    [
                        {
                            "pitch": 50, 
                            "t0": 3091, 
                            "v": 17, 
                            "dur": 75.0, 
                            "type": "note", 
                            "channel": 9
                        }
                    ]
                ], 
                [
                    3177, 
                    [
                        {
                            "pitch": 50, 
                            "t0": 3177, 
                            "v": 13, 
                            "dur": 75.0, 
                            "type": "note", 
                            "channel": 9
                        }
                    ]
                ], 
                [
                    3263, 
                    [
                        {
                            "pitch": 50, 
                            "t0": 3263, 
                            "v": 12, 
                            "dur": 75.0, 
                            "type": "note", 
                            "channel": 9
                        }
                    ]
                ], 
                [
                    3348, 
                    [
                        {
                            "pitch": 50, 
                            "t0": 3348, 
                            "v": 12, 
                            "dur": 75.0, 
                            "type": "note", 
                            "channel": 9
                        }
                    ]
                ], 
                [
                    3432, 
                    [
                        {
                            "pitch": 50, 
                            "t0": 3432, 
                            "v": 15, 
                            "dur": 75.0, 
                            "type": "note", 
                            "channel": 9
                        }
                    ]
                ], 
                [
                    3517, 
                    [
                        {
                            "pitch": 50, 
                            "t0": 3517, 
                            "v": 11, 
                            "dur": 75.0, 
                            "type": "note", 
                            "channel": 9
                        }
                    ]
                ], 
                [
                    3600, 
                    [
                        {
                            "pitch": 50, 
                            "t0": 3600, 
                            "v": 11, 
                            "dur": 75.0, 
                            "type": "note", 
                            "channel": 9
                        }
                    ]
                ], 
                [
                    3684, 
                    [
                        {
                            "pitch": 50, 
                            "t0": 3684, 
                            "v": 11, 
                            "dur": 75.0, 
                            "type": "note", 
                            "channel": 9
                        }
                    ]
                ], 
                [
                    3766, 
                    [
                        {
                            "pitch": 50, 
                            "t0": 3766, 
                            "v": 14, 
                            "dur": 75.0, 
                            "type": "note", 
                            "channel": 9
                        }
                    ]
                ], 
                [
                    3848, 
                    [
                        {
                            "pitch": 50, 
                            "t0": 3848, 
                            "v": 10, 
                            "dur": 75.0, 
                            "type": "note", 
                            "channel": 9
                        }
                    ]
                ], 
                [
                    3930, 
                    [
                        {
                            "pitch": 50, 
                            "t0": 3930, 
                            "v": 10, 
                            "dur": 75.0, 
                            "type": "note", 
                            "channel": 9
                        }
                    ]
                ], 
                [
                    4011, 
                    [
                        {
                            "pitch": 50, 
                            "t0": 4011, 
                            "v": 10, 
                            "dur": 75.0, 
                            "type": "note", 
                            "channel": 9
                        }
                    ]
                ], 
                [
                    4092, 
                    [
                        {
                            "pitch": 50, 
                            "t0": 4092, 
                            "v": 12, 
                            "dur": 75.0, 
                            "type": "note", 
                            "channel": 9
                        }
                    ]
                ], 
                [
                    4172, 
                    [
                        {
                            "pitch": 50, 
                            "t0": 4172, 
                            "v": 9, 
                            "dur": 75.0, 
                            "type": "note", 
                            "channel": 9
                        }
                    ]
                ], 
                [
                    4252, 
                    [
                        {
                            "pitch": 50, 
                            "t0": 4252, 
                            "v": 9, 
                            "dur": 75.0, 
                            "type": "note", 
                            "channel": 9
                        }
                    ]
                ], 
                [
                    4332, 
                    [
                        {
                            "pitch": 50, 
                            "t0": 4332, 
                            "v": 9, 
                            "dur": 75.0, 
                            "type": "note", 
                            "channel": 9
                        }
                    ]
                ], 
                [
                    4411, 
                    [
                        {
                            "pitch": 50, 
                            "t0": 4411, 
                            "v": 11, 
                            "dur": 75.0, 
                            "type": "note", 
                            "channel": 9
                        }
                    ]
                ], 
                [
                    4489, 
                    [
                        {
                            "pitch": 50, 
                            "t0": 4489, 
                            "v": 8, 
                            "dur": 75.0, 
                            "type": "note", 
                            "channel": 9
                        }
                    ]
                ], 
                [
                    4567, 
                    [
                        {
                            "pitch": 50, 
                            "t0": 4567, 
                            "v": 8, 
                            "dur": 75.0, 
                            "type": "note", 
                            "channel": 9
                        }
                    ]
                ], 
                [
                    4645, 
                    [
                        {
                            "pitch": 50, 
                            "t0": 4645, 
                            "v": 8, 
                            "dur": 75.0, 
                            "type": "note", 
                            "channel": 9
                        }
                    ]
                ], 
                [
                    4722, 
                    [
                        {
                            "pitch": 50, 
                            "t0": 4722, 
                            "v": 10, 
                            "dur": 75.0, 
                            "type": "note", 
                            "channel": 9
                        }
                    ]
                ], 
                [
                    4799, 
                    [
                        {
                            "pitch": 50, 
                            "t0": 4799, 
                            "v": 7, 
                            "dur": 75.0, 
                            "type": "note", 
                            "channel": 9
                        }
                    ]
                ], 
                [
                    4875, 
                    [
                        {
                            "pitch": 50, 
                            "t0": 4875, 
                            "v": 7, 
                            "dur": 75.0, 
                            "type": "note", 
                            "channel": 9
                        }
                    ]
                ], 
                [
                    4951, 
                    [
                        {
                            "pitch": 50, 
                            "t0": 4951, 
                            "v": 7, 
                            "dur": 75.0, 
                            "type": "note", 
                            "channel": 9
                        }
                    ]
                ], 
                [
                    5026, 
                    [
                        {
                            "pitch": 50, 
                            "t0": 5026, 
                            "v": 9, 
                            "dur": 75.0, 
                            "type": "note", 
                            "channel": 9
                        }
                    ]
                ], 
                [
                    5101, 
                    [
                        {
                            "pitch": 50, 
                            "t0": 5101, 
                            "v": 7, 
                            "dur": 75.0, 
                            "type": "note", 
                            "channel": 9
                        }
                    ]
                ], 
                [
                    5176, 
                    [
                        {
                            "pitch": 50, 
                            "t0": 5176, 
                            "v": 6, 
                            "dur": 75.0, 
                            "type": "note", 
                            "channel": 9
                        }
                    ]
                ], 
                [
                    5250, 
                    [
                        {
                            "pitch": 50, 
                            "t0": 5250, 
                            "v": 6, 
                            "dur": 75.0, 
                            "type": "note", 
                            "channel": 9
                        }
                    ]
                ], 
                [
                    5324, 
                    [
                        {
                            "pitch": 50, 
                            "t0": 5324, 
                            "v": 8, 
                            "dur": 75.0, 
                            "type": "note", 
                            "channel": 9
                        }
                    ]
                ], 
                [
                    5398, 
                    [
                        {
                            "pitch": 50, 
                            "t0": 5398, 
                            "v": 6, 
                            "dur": 75.0, 
                            "type": "note", 
                            "channel": 9
                        }
                    ]
                ], 
                [
                    5471, 
                    [
                        {
                            "pitch": 50, 
                            "t0": 5471, 
                            "v": 6, 
                            "dur": 75.0, 
                            "type": "note", 
                            "channel": 9
                        }
                    ]
                ], 
                [
                    5543, 
                    [
                        {
                            "pitch": 50, 
                            "t0": 5543, 
                            "v": 5, 
                            "dur": 75.0, 
                            "type": "note", 
                            "channel": 9
                        }
                    ]
                ], 
                [
                    5616, 
                    [
                        {
                            "pitch": 50, 
                            "t0": 5616, 
                            "v": 7, 
                            "dur": 75.0, 
                            "type": "note", 
                            "channel": 9
                        }
                    ]
                ], 
                [
                    5688, 
                    [
                        {
                            "pitch": 50, 
                            "t0": 5688, 
                            "v": 5, 
                            "dur": 75.0, 
                            "type": "note", 
                            "channel": 9
                        }
                    ]
                ], 
                [
                    5759, 
                    [
                        {
                            "pitch": 50, 
                            "t0": 5759, 
                            "v": 5, 
                            "dur": 75.0, 
                            "type": "note", 
                            "channel": 9
                        }
                    ]
                ], 
                [
                    5830, 
                    [
                        {
                            "pitch": 50, 
                            "t0": 5830, 
                            "v": 5, 
                            "dur": 75.0, 
                            "type": "note", 
                            "channel": 9
                        }
                    ]
                ], 
                [
                    5901, 
                    [
                        {
                            "pitch": 50, 
                            "t0": 5901, 
                            "v": 6, 
                            "dur": 75.0, 
                            "type": "note", 
                            "channel": 9
                        }
                    ]
                ], 
                [
                    5972, 
                    [
                        {
                            "pitch": 50, 
                            "t0": 5972, 
                            "v": 4, 
                            "dur": 75.0, 
                            "type": "note", 
                            "channel": 9
                        }
                    ]
                ], 
                [
                    6042, 
                    [
                        {
                            "pitch": 50, 
                            "t0": 6042, 
                            "v": 4, 
                            "dur": 75.0, 
                            "type": "note", 
                            "channel": 9
                        }
                    ]
                ], 
                [
                    6112, 
                    [
                        {
                            "pitch": 50, 
                            "t0": 6112, 
                            "v": 4, 
                            "dur": 75.0, 
                            "type": "note", 
                            "channel": 9
                        }
                    ]
                ], 
                [
                    6181, 
                    [
                        {
                            "pitch": 50, 
                            "t0": 6181, 
                            "v": 5, 
                            "dur": 75.0, 
                            "type": "note", 
                            "channel": 9
                        }
                    ]
                ], 
                [
                    6250, 
                    [
                        {
                            "pitch": 50, 
                            "t0": 6250, 
                            "v": 4, 
                            "dur": 75.0, 
                            "type": "note", 
                            "channel": 9
                        }
                    ]
                ], 
                [
                    6319, 
                    [
                        {
                            "pitch": 50, 
                            "t0": 6319, 
                            "v": 4, 
                            "dur": 75.0, 
                            "type": "note", 
                            "channel": 9
                        }
                    ]
                ], 
                [
                    6387, 
                    [
                        {
                            "pitch": 50, 
                            "t0": 6387, 
                            "v": 4, 
                            "dur": 75.0, 
                            "type": "note", 
                            "channel": 9
                        }
                    ]
                ], 
                [
                    6455, 
                    [
                        {
                            "pitch": 50, 
                            "t0": 6455, 
                            "v": 4, 
                            "dur": 75.0, 
                            "type": "note", 
                            "channel": 9
                        }
                    ]
                ], 
                [
                    6523, 
                    [
                        {
                            "pitch": 50, 
                            "t0": 6523, 
                            "v": 3, 
                            "dur": 75.0, 
                            "type": "note", 
                            "channel": 9
                        }
                    ]
                ], 
                [
                    6590, 
                    [
                        {
                            "pitch": 50, 
                            "t0": 6590, 
                            "v": 3, 
                            "dur": 75.0, 
                            "type": "note", 
                            "channel": 9
                        }
                    ]
                ], 
                [
                    6657, 
                    [
                        {
                            "pitch": 50, 
                            "t0": 6657, 
                            "v": 3, 
                            "dur": 75.0, 
                            "type": "note", 
                            "channel": 9
                        }
                    ]
                ], 
                [
                    6724, 
                    [
                        {
                            "pitch": 50, 
                            "t0": 6724, 
                            "v": 4, 
                            "dur": 75.0, 
                            "type": "note", 
                            "channel": 9
                        }
                    ]
                ], 
                [
                    6791, 
                    [
                        {
                            "pitch": 50, 
                            "t0": 6791, 
                            "v": 3, 
                            "dur": 75.0, 
                            "type": "note", 
                            "channel": 9
                        }
                    ]
                ], 
                [
                    6857, 
                    [
                        {
                            "pitch": 50, 
                            "t0": 6857, 
                            "v": 3, 
                            "dur": 75.0, 
                            "type": "note", 
                            "channel": 9
                        }
                    ]
                ], 
                [
                    6923, 
                    [
                        {
                            "pitch": 50, 
                            "t0": 6923, 
                            "v": 3, 
                            "dur": 75.0, 
                            "type": "note", 
                            "channel": 9
                        }
                    ]
                ], 
                [
                    6988, 
                    [
                        {
                            "pitch": 50, 
                            "t0": 6988, 
                            "v": 3, 
                            "dur": 75.0, 
                            "type": "note", 
                            "channel": 9
                        }
                    ]
                ], 
                [
                    7053, 
                    [
                        {
                            "pitch": 50, 
                            "t0": 7053, 
                            "v": 2, 
                            "dur": 75.0, 
                            "type": "note", 
                            "channel": 9
                        }
                    ]
                ], 
                [
                    7118, 
                    [
                        {
                            "pitch": 50, 
                            "t0": 7118, 
                            "v": 2, 
                            "dur": 75.0, 
                            "type": "note", 
                            "channel": 9
                        }
                    ]
                ], 
                [
                    7183, 
                    [
                        {
                            "pitch": 50, 
                            "t0": 7183, 
                            "v": 2, 
                            "dur": 75.0, 
                            "type": "note", 
                            "channel": 9
                        }
                    ]
                ], 
                [
                    7247, 
                    [
                        {
                            "pitch": 50, 
                            "t0": 7247, 
                            "v": 3, 
                            "dur": 75.0, 
                            "type": "note", 
                            "channel": 9
                        }
                    ]
                ], 
                [
                    7311, 
                    [
                        {
                            "pitch": 50, 
                            "t0": 7311, 
                            "v": 2, 
                            "dur": 75.0, 
                            "type": "note", 
                            "channel": 9
                        }
                    ]
                ], 
                [
                    7375, 
                    [
                        {
                            "pitch": 50, 
                            "t0": 7375, 
                            "v": 2, 
                            "dur": 75.0, 
                            "type": "note", 
                            "channel": 9
                        }
                    ]
                ], 
                [
                    7438, 
                    [
                        {
                            "pitch": 50, 
                            "t0": 7438, 
                            "v": 2, 
                            "dur": 75.0, 
                            "type": "note", 
                            "channel": 9
                        }
                    ]
                ], 
                [
                    7501, 
                    [
                        {
                            "pitch": 50, 
                            "t0": 7501, 
                            "v": 2, 
                            "dur": 75.0, 
                            "type": "note", 
                            "channel": 9
                        }
                    ]
                ], 
                [
                    7564, 
                    [
                        {
                            "pitch": 50, 
                            "t0": 7564, 
                            "v": 2, 
                            "dur": 75.0, 
                            "type": "note", 
                            "channel": 9
                        }
                    ]
                ], 
                [
                    7626, 
                    [
                        {
                            "pitch": 50, 
                            "t0": 7626, 
                            "v": 2, 
                            "dur": 75.0, 
                            "type": "note", 
                            "channel": 9
                        }
                    ]
                ], 
                [
                    7689, 
                    [
                        {
                            "pitch": 50, 
                            "t0": 7689, 
                            "v": 1, 
                            "dur": 75.0, 
                            "type": "note", 
                            "channel": 9
                        }
                    ]
                ], 
                [
                    7751, 
                    [
                        {
                            "pitch": 50, 
                            "t0": 7751, 
                            "v": 2, 
                            "dur": 75.0, 
                            "type": "note", 
                            "channel": 9
                        }
                    ]
                ], 
                [
                    7812, 
                    [
                        {
                            "pitch": 50, 
                            "t0": 7812, 
                            "v": 1, 
                            "dur": 75.0, 
                            "type": "note", 
                            "channel": 9
                        }
                    ]
                ], 
                [
                    7874, 
                    [
                        {
                            "pitch": 50, 
                            "t0": 7874, 
                            "v": 1, 
                            "dur": 75.0, 
                            "type": "note", 
                            "channel": 9
                        }
                    ]
                ], 
                [
                    7935, 
                    [
                        {
                            "pitch": 50, 
                            "t0": 7935, 
                            "v": 1, 
                            "dur": 75.0, 
                            "type": "note", 
                            "channel": 9
                        }
                    ]
                ], 
                [
                    7996, 
                    [
                        {
                            "pitch": 50, 
                            "t0": 7996, 
                            "v": 1, 
                            "dur": 75.0, 
                            "type": "note", 
                            "channel": 9
                        }
                    ]
                ], 
                [
                    8056, 
                    [
                        {
                            "pitch": 50, 
                            "t0": 8056, 
                            "v": 1, 
                            "dur": 75.0, 
                            "type": "note", 
                            "channel": 9
                        }
                    ]
                ], 
                [
                    8117, 
                    [
                        {
                            "pitch": 50, 
                            "t0": 8117, 
                            "v": 1, 
                            "dur": 75.0, 
                            "type": "note", 
                            "channel": 9
                        }
                    ]
                ], 
                [
                    8177, 
                    [
                        {
                            "pitch": 50, 
                            "t0": 8177, 
                            "v": 1, 
                            "dur": 75.0, 
                            "type": "note", 
                            "channel": 9
                        }
                    ]
                ], 
                [
                    8237, 
                    [
                        {
                            "pitch": 50, 
                            "t0": 8237, 
                            "v": 1, 
                            "dur": 75.0, 
                            "type": "note", 
                            "channel": 9
                        }
                    ]
                ], 
                [
                    8296, 
                    [
                        {
                            "pitch": 50, 
                            "t0": 8296, 
                            "v": 1, 
                            "dur": 75.0, 
                            "type": "note", 
                            "channel": 9
                        }
                    ]
                ], 
                [
                    8356, 
                    [
                        {
                            "pitch": 50, 
                            "t0": 8356, 
                            "v": 1, 
                            "dur": 75.0, 
                            "type": "note", 
                            "channel": 9
                        }
                    ]
                ], 
                [
                    8415, 
                    [
                        {
                            "pitch": 50, 
                            "t0": 8415, 
                            "v": 1, 
                            "dur": 75.0, 
                            "type": "note", 
                            "channel": 9
                        }
                    ]
                ], 
                [
                    8473, 
                    [
                        {
                            "pitch": 50, 
                            "t0": 8473, 
                            "v": 1, 
                            "dur": 75.0, 
                            "type": "note", 
                            "channel": 9
                        }
                    ]
                ], 
                [
                    8532, 
                    [
                        {
                            "pitch": 50, 
                            "t0": 8532, 
                            "v": 1, 
                            "dur": 75.0, 
                            "type": "note", 
                            "channel": 9
                        }
                    ]
                ], 
                [
                    8590, 
                    [
                        {
                            "pitch": 50, 
                            "t0": 8590, 
                            "v": 0, 
                            "dur": 75.0, 
                            "type": "note", 
                            "channel": 9
                        }
                    ]
                ], 
                [
                    8648, 
                    [
                        {
                            "pitch": 50, 
                            "t0": 8648, 
                            "v": 0, 
                            "dur": 75.0, 
                            "type": "note", 
                            "channel": 9
                        }
                    ]
                ], 
                [
                    8706, 
                    [
                        {
                            "pitch": 50, 
                            "t0": 8706, 
                            "v": 1, 
                            "dur": 75.0, 
                            "type": "note", 
                            "channel": 9
                        }
                    ]
                ], 
                [
                    8764, 
                    [
                        {
                            "pitch": 50, 
                            "t0": 8764, 
                            "v": 0, 
                            "dur": 75.0, 
                            "type": "note", 
                            "channel": 9
                        }
                    ]
                ], 
                [
                    8821, 
                    [
                        {
                            "pitch": 50, 
                            "t0": 8821, 
                            "v": 0, 
                            "dur": 75.0, 
                            "type": "note", 
                            "channel": 9
                        }
                    ]
                ], 
                [
                    8878, 
                    [
                        {
                            "pitch": 50, 
                            "t0": 8878, 
                            "v": 0, 
                            "dur": 75.0, 
                            "type": "note", 
                            "channel": 9
                        }
                    ]
                ], 
                [
                    8935, 
                    [
                        {
                            "pitch": 50, 
                            "t0": 8935, 
                            "v": 0, 
                            "dur": 75.0, 
                            "type": "note", 
                            "channel": 9
                        }
                    ]
                ], 
                [
                    8992, 
                    [
                        {
                            "pitch": 50, 
                            "t0": 8992, 
                            "v": 0, 
                            "dur": 75.0, 
                            "type": "note", 
                            "channel": 9
                        }
                    ]
                ], 
                [
                    9048, 
                    [
                        {
                            "pitch": 50, 
                            "t0": 9048, 
                            "v": 0, 
                            "dur": 75.0, 
                            "type": "note", 
                            "channel": 9
                        }
                    ]
                ], 
                [
                    9104, 
                    [
                        {
                            "pitch": 50, 
                            "t0": 9104, 
                            "v": 0, 
                            "dur": 75.0, 
                            "type": "note", 
                            "channel": 9
                        }
                    ]
                ], 
                [
                    9160, 
                    [
                        {
                            "pitch": 50, 
                            "t0": 9160, 
                            "v": 0, 
                            "dur": 75.0, 
                            "type": "note", 
                            "channel": 9
                        }
                    ]
                ], 
                [
                    9216, 
                    [
                        {
                            "pitch": 50, 
                            "t0": 9216, 
                            "v": 0, 
                            "dur": 75.0, 
                            "type": "note", 
                            "channel": 9
                        }
                    ]
                ], 
                [
                    9272, 
                    [
                        {
                            "pitch": 50, 
                            "t0": 9272, 
                            "v": 0, 
                            "dur": 75.0, 
                            "type": "note", 
                            "channel": 9
                        }
                    ]
                ], 
                [
                    9327, 
                    [
                        {
                            "pitch": 50, 
                            "t0": 9327, 
                            "v": 0, 
                            "dur": 75.0, 
                            "type": "note", 
                            "channel": 9
                        }
                    ]
                ], 
                [
                    9382, 
                    [
                        {
                            "pitch": 50, 
                            "t0": 9382, 
                            "v": 0, 
                            "dur": 75.0, 
                            "type": "note", 
                            "channel": 9
                        }
                    ]
                ], 
                [
                    9437, 
                    [
                        {
                            "pitch": 50, 
                            "t0": 9437, 
                            "v": 0, 
                            "dur": 75.0, 
                            "type": "note", 
                            "channel": 9
                        }
                    ]
                ], 
                [
                    9491, 
                    [
                        {
                            "pitch": 50, 
                            "t0": 9491, 
                            "v": 0, 
                            "dur": 75.0, 
                            "type": "note", 
                            "channel": 9
                        }
                    ]
                ], 
                [
                    9546, 
                    [
                        {
                            "pitch": 50, 
                            "t0": 9546, 
                            "v": 0, 
                            "dur": 75.0, 
                            "type": "note", 
                            "channel": 9
                        }
                    ]
                ], 
                [
                    9621.0, 
                    [
                        {
                            "pitch": 50, 
                            "t0": 9621.0, 
                            "v": 33, 
                            "dur": 75.0, 
                            "type": "note", 
                            "channel": 9
                        }
                    ]
                ], 
                [
                    9729.0, 
                    [
                        {
                            "pitch": 50, 
                            "t0": 9729.0, 
                            "v": 25, 
                            "dur": 75.0, 
                            "type": "note", 
                            "channel": 9
                        }
                    ]
                ], 
                [
                    9836.0, 
                    [
                        {
                            "pitch": 50, 
                            "t0": 9836.0, 
                            "v": 24, 
                            "dur": 75.0, 
                            "type": "note", 
                            "channel": 9
                        }
                    ]
                ], 
                [
                    9942.0, 
                    [
                        {
                            "pitch": 50, 
                            "t0": 9942.0, 
                            "v": 24, 
                            "dur": 75.0, 
                            "type": "note", 
                            "channel": 9
                        }
                    ]
                ], 
                [
                    10047.0, 
                    [
                        {
                            "pitch": 50, 
                            "t0": 10047.0, 
                            "v": 30, 
                            "dur": 75.0, 
                            "type": "note", 
                            "channel": 9
                        }
                    ]
                ], 
                [
                    10152.0, 
                    [
                        {
                            "pitch": 50, 
                            "t0": 10152.0, 
                            "v": 23, 
                            "dur": 75.0, 
                            "type": "note", 
                            "channel": 9
                        }
                    ]
                ], 
                [
                    10255.0, 
                    [
                        {
                            "pitch": 50, 
                            "t0": 10255.0, 
                            "v": 23, 
                            "dur": 75.0, 
                            "type": "note", 
                            "channel": 9
                        }
                    ]
                ], 
                [
                    10358.0, 
                    [
                        {
                            "pitch": 50, 
                            "t0": 10358.0, 
                            "v": 22, 
                            "dur": 75.0, 
                            "type": "note", 
                            "channel": 9
                        }
                    ]
                ], 
                [
                    10461.0, 
                    [
                        {
                            "pitch": 50, 
                            "t0": 10461.0, 
                            "v": 28, 
                            "dur": 75.0, 
                            "type": "note", 
                            "channel": 9
                        }
                    ]
                ], 
                [
                    10562.0, 
                    [
                        {
                            "pitch": 50, 
                            "t0": 10562.0, 
                            "v": 21, 
                            "dur": 75.0, 
                            "type": "note", 
                            "channel": 9
                        }
                    ]
                ], 
                [
                    10663.0, 
                    [
                        {
                            "pitch": 50, 
                            "t0": 10663.0, 
                            "v": 21, 
                            "dur": 75.0, 
                            "type": "note", 
                            "channel": 9
                        }
                    ]
                ], 
                [
                    10763.0, 
                    [
                        {
                            "pitch": 50, 
                            "t0": 10763.0, 
                            "v": 20, 
                            "dur": 75.0, 
                            "type": "note", 
                            "channel": 9
                        }
                    ]
                ], 
                [
                    10862.0, 
                    [
                        {
                            "pitch": 50, 
                            "t0": 10862.0, 
                            "v": 26, 
                            "dur": 75.0, 
                            "type": "note", 
                            "channel": 9
                        }
                    ]
                ], 
                [
                    10961.0, 
                    [
                        {
                            "pitch": 50, 
                            "t0": 10961.0, 
                            "v": 20, 
                            "dur": 75.0, 
                            "type": "note", 
                            "channel": 9
                        }
                    ]
                ], 
                [
                    11059.0, 
                    [
                        {
                            "pitch": 50, 
                            "t0": 11059.0, 
                            "v": 19, 
                            "dur": 75.0, 
                            "type": "note", 
                            "channel": 9
                        }
                    ]
                ], 
                [
                    11156.0, 
                    [
                        {
                            "pitch": 50, 
                            "t0": 11156.0, 
                            "v": 19, 
                            "dur": 75.0, 
                            "type": "note", 
                            "channel": 9
                        }
                    ]
                ], 
                [
                    11252.0, 
                    [
                        {
                            "pitch": 50, 
                            "t0": 11252.0, 
                            "v": 24, 
                            "dur": 75.0, 
                            "type": "note", 
                            "channel": 9
                        }
                    ]
                ], 
                [
                    11348.0, 
                    [
                        {
                            "pitch": 50, 
                            "t0": 11348.0, 
                            "v": 18, 
                            "dur": 75.0, 
                            "type": "note", 
                            "channel": 9
                        }
                    ]
                ], 
                [
                    11443.0, 
                    [
                        {
                            "pitch": 50, 
                            "t0": 11443.0, 
                            "v": 18, 
                            "dur": 75.0, 
                            "type": "note", 
                            "channel": 9
                        }
                    ]
                ], 
                [
                    11538.0, 
                    [
                        {
                            "pitch": 50, 
                            "t0": 11538.0, 
                            "v": 17, 
                            "dur": 75.0, 
                            "type": "note", 
                            "channel": 9
                        }
                    ]
                ], 
                [
                    11632.0, 
                    [
                        {
                            "pitch": 50, 
                            "t0": 11632.0, 
                            "v": 22, 
                            "dur": 75.0, 
                            "type": "note", 
                            "channel": 9
                        }
                    ]
                ], 
                [
                    11725.0, 
                    [
                        {
                            "pitch": 50, 
                            "t0": 11725.0, 
                            "v": 17, 
                            "dur": 75.0, 
                            "type": "note", 
                            "channel": 9
                        }
                    ]
                ], 
                [
                    11818.0, 
                    [
                        {
                            "pitch": 50, 
                            "t0": 11818.0, 
                            "v": 16, 
                            "dur": 75.0, 
                            "type": "note", 
                            "channel": 9
                        }
                    ]
                ], 
                [
                    11910.0, 
                    [
                        {
                            "pitch": 50, 
                            "t0": 11910.0, 
                            "v": 16, 
                            "dur": 75.0, 
                            "type": "note", 
                            "channel": 9
                        }
                    ]
                ], 
                [
                    12001.0, 
                    [
                        {
                            "pitch": 50, 
                            "t0": 12001.0, 
                            "v": 20, 
                            "dur": 75.0, 
                            "type": "note", 
                            "channel": 9
                        }
                    ]
                ], 
                [
                    12092.0, 
                    [
                        {
                            "pitch": 50, 
                            "t0": 12092.0, 
                            "v": 15, 
                            "dur": 75.0, 
                            "type": "note", 
                            "channel": 9
                        }
                    ]
                ], 
                [
                    12182.0, 
                    [
                        {
                            "pitch": 50, 
                            "t0": 12182.0, 
                            "v": 15, 
                            "dur": 75.0, 
                            "type": "note", 
                            "channel": 9
                        }
                    ]
                ], 
                [
                    12272.0, 
                    [
                        {
                            "pitch": 50, 
                            "t0": 12272.0, 
                            "v": 15, 
                            "dur": 75.0, 
                            "type": "note", 
                            "channel": 9
                        }
                    ]
                ], 
                [
                    12361.0, 
                    [
                        {
                            "pitch": 50, 
                            "t0": 12361.0, 
                            "v": 18, 
                            "dur": 75.0, 
                            "type": "note", 
                            "channel": 9
                        }
                    ]
                ], 
                [
                    12449.0, 
                    [
                        {
                            "pitch": 50, 
                            "t0": 12449.0, 
                            "v": 14, 
                            "dur": 75.0, 
                            "type": "note", 
                            "channel": 9
                        }
                    ]
                ], 
                [
                    12537.0, 
                    [
                        {
                            "pitch": 50, 
                            "t0": 12537.0, 
                            "v": 14, 
                            "dur": 75.0, 
                            "type": "note", 
                            "channel": 9
                        }
                    ]
                ], 
                [
                    12625.0, 
                    [
                        {
                            "pitch": 50, 
                            "t0": 12625.0, 
                            "v": 13, 
                            "dur": 75.0, 
                            "type": "note", 
                            "channel": 9
                        }
                    ]
                ], 
                [
                    12712.0, 
                    [
                        {
                            "pitch": 50, 
                            "t0": 12712.0, 
                            "v": 17, 
                            "dur": 75.0, 
                            "type": "note", 
                            "channel": 9
                        }
                    ]
                ], 
                [
                    12798.0, 
                    [
                        {
                            "pitch": 50, 
                            "t0": 12798.0, 
                            "v": 13, 
                            "dur": 75.0, 
                            "type": "note", 
                            "channel": 9
                        }
                    ]
                ], 
                [
                    12884.0, 
                    [
                        {
                            "pitch": 50, 
                            "t0": 12884.0, 
                            "v": 12, 
                            "dur": 75.0, 
                            "type": "note", 
                            "channel": 9
                        }
                    ]
                ], 
                [
                    12969.0, 
                    [
                        {
                            "pitch": 50, 
                            "t0": 12969.0, 
                            "v": 12, 
                            "dur": 75.0, 
                            "type": "note", 
                            "channel": 9
                        }
                    ]
                ], 
                [
                    13053.0, 
                    [
                        {
                            "pitch": 50, 
                            "t0": 13053.0, 
                            "v": 15, 
                            "dur": 75.0, 
                            "type": "note", 
                            "channel": 9
                        }
                    ]
                ], 
                [
                    13138.0, 
                    [
                        {
                            "pitch": 50, 
                            "t0": 13138.0, 
                            "v": 11, 
                            "dur": 75.0, 
                            "type": "note", 
                            "channel": 9
                        }
                    ]
                ], 
                [
                    13221.0, 
                    [
                        {
                            "pitch": 50, 
                            "t0": 13221.0, 
                            "v": 11, 
                            "dur": 75.0, 
                            "type": "note", 
                            "channel": 9
                        }
                    ]
                ], 
                [
                    13305.0, 
                    [
                        {
                            "pitch": 50, 
                            "t0": 13305.0, 
                            "v": 11, 
                            "dur": 75.0, 
                            "type": "note", 
                            "channel": 9
                        }
                    ]
                ], 
                [
                    13387.0, 
                    [
                        {
                            "pitch": 50, 
                            "t0": 13387.0, 
                            "v": 14, 
                            "dur": 75.0, 
                            "type": "note", 
                            "channel": 9
                        }
                    ]
                ], 
                [
                    13469.0, 
                    [
                        {
                            "pitch": 50, 
                            "t0": 13469.0, 
                            "v": 10, 
                            "dur": 75.0, 
                            "type": "note", 
                            "channel": 9
                        }
                    ]
                ], 
                [
                    13551.0, 
                    [
                        {
                            "pitch": 50, 
                            "t0": 13551.0, 
                            "v": 10, 
                            "dur": 75.0, 
                            "type": "note", 
                            "channel": 9
                        }
                    ]
                ], 
                [
                    13632.0, 
                    [
                        {
                            "pitch": 50, 
                            "t0": 13632.0, 
                            "v": 10, 
                            "dur": 75.0, 
                            "type": "note", 
                            "channel": 9
                        }
                    ]
                ], 
                [
                    13713.0, 
                    [
                        {
                            "pitch": 50, 
                            "t0": 13713.0, 
                            "v": 12, 
                            "dur": 75.0, 
                            "type": "note", 
                            "channel": 9
                        }
                    ]
                ], 
                [
                    13793.0, 
                    [
                        {
                            "pitch": 50, 
                            "t0": 13793.0, 
                            "v": 9, 
                            "dur": 75.0, 
                            "type": "note", 
                            "channel": 9
                        }
                    ]
                ], 
                [
                    13873.0, 
                    [
                        {
                            "pitch": 50, 
                            "t0": 13873.0, 
                            "v": 9, 
                            "dur": 75.0, 
                            "type": "note", 
                            "channel": 9
                        }
                    ]
                ], 
                [
                    13953.0, 
                    [
                        {
                            "pitch": 50, 
                            "t0": 13953.0, 
                            "v": 9, 
                            "dur": 75.0, 
                            "type": "note", 
                            "channel": 9
                        }
                    ]
                ], 
                [
                    14032.0, 
                    [
                        {
                            "pitch": 50, 
                            "t0": 14032.0, 
                            "v": 11, 
                            "dur": 75.0, 
                            "type": "note", 
                            "channel": 9
                        }
                    ]
                ], 
                [
                    14110.0, 
                    [
                        {
                            "pitch": 50, 
                            "t0": 14110.0, 
                            "v": 8, 
                            "dur": 75.0, 
                            "type": "note", 
                            "channel": 9
                        }
                    ]
                ], 
                [
                    14188.0, 
                    [
                        {
                            "pitch": 50, 
                            "t0": 14188.0, 
                            "v": 8, 
                            "dur": 75.0, 
                            "type": "note", 
                            "channel": 9
                        }
                    ]
                ], 
                [
                    14266.0, 
                    [
                        {
                            "pitch": 50, 
                            "t0": 14266.0, 
                            "v": 8, 
                            "dur": 75.0, 
                            "type": "note", 
                            "channel": 9
                        }
                    ]
                ], 
                [
                    14343.0, 
                    [
                        {
                            "pitch": 50, 
                            "t0": 14343.0, 
                            "v": 10, 
                            "dur": 75.0, 
                            "type": "note", 
                            "channel": 9
                        }
                    ]
                ], 
                [
                    14420.0, 
                    [
                        {
                            "pitch": 50, 
                            "t0": 14420.0, 
                            "v": 7, 
                            "dur": 75.0, 
                            "type": "note", 
                            "channel": 9
                        }
                    ]
                ], 
                [
                    14496.0, 
                    [
                        {
                            "pitch": 50, 
                            "t0": 14496.0, 
                            "v": 7, 
                            "dur": 75.0, 
                            "type": "note", 
                            "channel": 9
                        }
                    ]
                ], 
                [
                    14572.0, 
                    [
                        {
                            "pitch": 50, 
                            "t0": 14572.0, 
                            "v": 7, 
                            "dur": 75.0, 
                            "type": "note", 
                            "channel": 9
                        }
                    ]
                ], 
                [
                    14647.0, 
                    [
                        {
                            "pitch": 50, 
                            "t0": 14647.0, 
                            "v": 9, 
                            "dur": 75.0, 
                            "type": "note", 
                            "channel": 9
                        }
                    ]
                ], 
                [
                    14722.0, 
                    [
                        {
                            "pitch": 50, 
                            "t0": 14722.0, 
                            "v": 7, 
                            "dur": 75.0, 
                            "type": "note", 
                            "channel": 9
                        }
                    ]
                ], 
                [
                    14797.0, 
                    [
                        {
                            "pitch": 50, 
                            "t0": 14797.0, 
                            "v": 6, 
                            "dur": 75.0, 
                            "type": "note", 
                            "channel": 9
                        }
                    ]
                ], 
                [
                    14871.0, 
                    [
                        {
                            "pitch": 50, 
                            "t0": 14871.0, 
                            "v": 6, 
                            "dur": 75.0, 
                            "type": "note", 
                            "channel": 9
                        }
                    ]
                ], 
                [
                    14945.0, 
                    [
                        {
                            "pitch": 50, 
                            "t0": 14945.0, 
                            "v": 8, 
                            "dur": 75.0, 
                            "type": "note", 
                            "channel": 9
                        }
                    ]
                ], 
                [
                    15019.0, 
                    [
                        {
                            "pitch": 50, 
                            "t0": 15019.0, 
                            "v": 6, 
                            "dur": 75.0, 
                            "type": "note", 
                            "channel": 9
                        }
                    ]
                ], 
                [
                    15092.0, 
                    [
                        {
                            "pitch": 50, 
                            "t0": 15092.0, 
                            "v": 6, 
                            "dur": 75.0, 
                            "type": "note", 
                            "channel": 9
                        }
                    ]
                ], 
                [
                    15164.0, 
                    [
                        {
                            "pitch": 50, 
                            "t0": 15164.0, 
                            "v": 5, 
                            "dur": 75.0, 
                            "type": "note", 
                            "channel": 9
                        }
                    ]
                ], 
                [
                    15237.0, 
                    [
                        {
                            "pitch": 50, 
                            "t0": 15237.0, 
                            "v": 7, 
                            "dur": 75.0, 
                            "type": "note", 
                            "channel": 9
                        }
                    ]
                ], 
                [
                    15309.0, 
                    [
                        {
                            "pitch": 50, 
                            "t0": 15309.0, 
                            "v": 5, 
                            "dur": 75.0, 
                            "type": "note", 
                            "channel": 9
                        }
                    ]
                ], 
                [
                    15380.0, 
                    [
                        {
                            "pitch": 50, 
                            "t0": 15380.0, 
                            "v": 5, 
                            "dur": 75.0, 
                            "type": "note", 
                            "channel": 9
                        }
                    ]
                ], 
                [
                    15451.0, 
                    [
                        {
                            "pitch": 50, 
                            "t0": 15451.0, 
                            "v": 5, 
                            "dur": 75.0, 
                            "type": "note", 
                            "channel": 9
                        }
                    ]
                ], 
                [
                    15522.0, 
                    [
                        {
                            "pitch": 50, 
                            "t0": 15522.0, 
                            "v": 6, 
                            "dur": 75.0, 
                            "type": "note", 
                            "channel": 9
                        }
                    ]
                ], 
                [
                    15593.0, 
                    [
                        {
                            "pitch": 50, 
                            "t0": 15593.0, 
                            "v": 4, 
                            "dur": 75.0, 
                            "type": "note", 
                            "channel": 9
                        }
                    ]
                ], 
                [
                    15663.0, 
                    [
                        {
                            "pitch": 50, 
                            "t0": 15663.0, 
                            "v": 4, 
                            "dur": 75.0, 
                            "type": "note", 
                            "channel": 9
                        }
                    ]
                ], 
                [
                    15733.0, 
                    [
                        {
                            "pitch": 50, 
                            "t0": 15733.0, 
                            "v": 4, 
                            "dur": 75.0, 
                            "type": "note", 
                            "channel": 9
                        }
                    ]
                ], 
                [
                    15802.0, 
                    [
                        {
                            "pitch": 50, 
                            "t0": 15802.0, 
                            "v": 5, 
                            "dur": 75.0, 
                            "type": "note", 
                            "channel": 9
                        }
                    ]
                ], 
                [
                    15871.0, 
                    [
                        {
                            "pitch": 50, 
                            "t0": 15871.0, 
                            "v": 4, 
                            "dur": 75.0, 
                            "type": "note", 
                            "channel": 9
                        }
                    ]
                ], 
                [
                    15940.0, 
                    [
                        {
                            "pitch": 50, 
                            "t0": 15940.0, 
                            "v": 4, 
                            "dur": 75.0, 
                            "type": "note", 
                            "channel": 9
                        }
                    ]
                ], 
                [
                    16008.0, 
                    [
                        {
                            "pitch": 50, 
                            "t0": 16008.0, 
                            "v": 4, 
                            "dur": 75.0, 
                            "type": "note", 
                            "channel": 9
                        }
                    ]
                ], 
                [
                    16076.0, 
                    [
                        {
                            "pitch": 50, 
                            "t0": 16076.0, 
                            "v": 4, 
                            "dur": 75.0, 
                            "type": "note", 
                            "channel": 9
                        }
                    ]
                ], 
                [
                    16144.0, 
                    [
                        {
                            "pitch": 50, 
                            "t0": 16144.0, 
                            "v": 3, 
                            "dur": 75.0, 
                            "type": "note", 
                            "channel": 9
                        }
                    ]
                ], 
                [
                    16211.0, 
                    [
                        {
                            "pitch": 50, 
                            "t0": 16211.0, 
                            "v": 3, 
                            "dur": 75.0, 
                            "type": "note", 
                            "channel": 9
                        }
                    ]
                ], 
                [
                    16278.0, 
                    [
                        {
                            "pitch": 50, 
                            "t0": 16278.0, 
                            "v": 3, 
                            "dur": 75.0, 
                            "type": "note", 
                            "channel": 9
                        }
                    ]
                ], 
                [
                    16345.0, 
                    [
                        {
                            "pitch": 50, 
                            "t0": 16345.0, 
                            "v": 4, 
                            "dur": 75.0, 
                            "type": "note", 
                            "channel": 9
                        }
                    ]
                ], 
                [
                    16412.0, 
                    [
                        {
                            "pitch": 50, 
                            "t0": 16412.0, 
                            "v": 3, 
                            "dur": 75.0, 
                            "type": "note", 
                            "channel": 9
                        }
                    ]
                ], 
                [
                    16478.0, 
                    [
                        {
                            "pitch": 50, 
                            "t0": 16478.0, 
                            "v": 3, 
                            "dur": 75.0, 
                            "type": "note", 
                            "channel": 9
                        }
                    ]
                ], 
                [
                    16544.0, 
                    [
                        {
                            "pitch": 50, 
                            "t0": 16544.0, 
                            "v": 3, 
                            "dur": 75.0, 
                            "type": "note", 
                            "channel": 9
                        }
                    ]
                ], 
                [
                    16609.0, 
                    [
                        {
                            "pitch": 50, 
                            "t0": 16609.0, 
                            "v": 3, 
                            "dur": 75.0, 
                            "type": "note", 
                            "channel": 9
                        }
                    ]
                ], 
                [
                    16674.0, 
                    [
                        {
                            "pitch": 50, 
                            "t0": 16674.0, 
                            "v": 2, 
                            "dur": 75.0, 
                            "type": "note", 
                            "channel": 9
                        }
                    ]
                ], 
                [
                    16739.0, 
                    [
                        {
                            "pitch": 50, 
                            "t0": 16739.0, 
                            "v": 2, 
                            "dur": 75.0, 
                            "type": "note", 
                            "channel": 9
                        }
                    ]
                ], 
                [
                    16804.0, 
                    [
                        {
                            "pitch": 50, 
                            "t0": 16804.0, 
                            "v": 2, 
                            "dur": 75.0, 
                            "type": "note", 
                            "channel": 9
                        }
                    ]
                ], 
                [
                    16868.0, 
                    [
                        {
                            "pitch": 50, 
                            "t0": 16868.0, 
                            "v": 3, 
                            "dur": 75.0, 
                            "type": "note", 
                            "channel": 9
                        }
                    ]
                ], 
                [
                    16932.0, 
                    [
                        {
                            "pitch": 50, 
                            "t0": 16932.0, 
                            "v": 2, 
                            "dur": 75.0, 
                            "type": "note", 
                            "channel": 9
                        }
                    ]
                ], 
                [
                    16996.0, 
                    [
                        {
                            "pitch": 50, 
                            "t0": 16996.0, 
                            "v": 2, 
                            "dur": 75.0, 
                            "type": "note", 
                            "channel": 9
                        }
                    ]
                ], 
                [
                    17059.0, 
                    [
                        {
                            "pitch": 50, 
                            "t0": 17059.0, 
                            "v": 2, 
                            "dur": 75.0, 
                            "type": "note", 
                            "channel": 9
                        }
                    ]
                ], 
                [
                    17122.0, 
                    [
                        {
                            "pitch": 50, 
                            "t0": 17122.0, 
                            "v": 2, 
                            "dur": 75.0, 
                            "type": "note", 
                            "channel": 9
                        }
                    ]
                ], 
                [
                    17185.0, 
                    [
                        {
                            "pitch": 50, 
                            "t0": 17185.0, 
                            "v": 2, 
                            "dur": 75.0, 
                            "type": "note", 
                            "channel": 9
                        }
                    ]
                ], 
                [
                    17247.0, 
                    [
                        {
                            "pitch": 50, 
                            "t0": 17247.0, 
                            "v": 2, 
                            "dur": 75.0, 
                            "type": "note", 
                            "channel": 9
                        }
                    ]
                ], 
                [
                    17310.0, 
                    [
                        {
                            "pitch": 50, 
                            "t0": 17310.0, 
                            "v": 1, 
                            "dur": 75.0, 
                            "type": "note", 
                            "channel": 9
                        }
                    ]
                ], 
                [
                    17372.0, 
                    [
                        {
                            "pitch": 50, 
                            "t0": 17372.0, 
                            "v": 2, 
                            "dur": 75.0, 
                            "type": "note", 
                            "channel": 9
                        }
                    ]
                ], 
                [
                    17433.0, 
                    [
                        {
                            "pitch": 50, 
                            "t0": 17433.0, 
                            "v": 1, 
                            "dur": 75.0, 
                            "type": "note", 
                            "channel": 9
                        }
                    ]
                ], 
                [
                    17495.0, 
                    [
                        {
                            "pitch": 50, 
                            "t0": 17495.0, 
                            "v": 1, 
                            "dur": 75.0, 
                            "type": "note", 
                            "channel": 9
                        }
                    ]
                ], 
                [
                    17556.0, 
                    [
                        {
                            "pitch": 50, 
                            "t0": 17556.0, 
                            "v": 1, 
                            "dur": 75.0, 
                            "type": "note", 
                            "channel": 9
                        }
                    ]
                ], 
                [
                    17617.0, 
                    [
                        {
                            "pitch": 50, 
                            "t0": 17617.0, 
                            "v": 1, 
                            "dur": 75.0, 
                            "type": "note", 
                            "channel": 9
                        }
                    ]
                ], 
                [
                    17677.0, 
                    [
                        {
                            "pitch": 50, 
                            "t0": 17677.0, 
                            "v": 1, 
                            "dur": 75.0, 
                            "type": "note", 
                            "channel": 9
                        }
                    ]
                ], 
                [
                    17738.0, 
                    [
                        {
                            "pitch": 50, 
                            "t0": 17738.0, 
                            "v": 1, 
                            "dur": 75.0, 
                            "type": "note", 
                            "channel": 9
                        }
                    ]
                ], 
                [
                    17798.0, 
                    [
                        {
                            "pitch": 50, 
                            "t0": 17798.0, 
                            "v": 1, 
                            "dur": 75.0, 
                            "type": "note", 
                            "channel": 9
                        }
                    ]
                ], 
                [
                    17858.0, 
                    [
                        {
                            "pitch": 50, 
                            "t0": 17858.0, 
                            "v": 1, 
                            "dur": 75.0, 
                            "type": "note", 
                            "channel": 9
                        }
                    ]
                ], 
                [
                    17917.0, 
                    [
                        {
                            "pitch": 50, 
                            "t0": 17917.0, 
                            "v": 1, 
                            "dur": 75.0, 
                            "type": "note", 
                            "channel": 9
                        }
                    ]
                ], 
                [
                    17977.0, 
                    [
                        {
                            "pitch": 50, 
                            "t0": 17977.0, 
                            "v": 1, 
                            "dur": 75.0, 
                            "type": "note", 
                            "channel": 9
                        }
                    ]
                ], 
                [
                    18036.0, 
                    [
                        {
                            "pitch": 50, 
                            "t0": 18036.0, 
                            "v": 1, 
                            "dur": 75.0, 
                            "type": "note", 
                            "channel": 9
                        }
                    ]
                ], 
                [
                    18094.0, 
                    [
                        {
                            "pitch": 50, 
                            "t0": 18094.0, 
                            "v": 1, 
                            "dur": 75.0, 
                            "type": "note", 
                            "channel": 9
                        }
                    ]
                ], 
                [
                    18153.0, 
                    [
                        {
                            "pitch": 50, 
                            "t0": 18153.0, 
                            "v": 1, 
                            "dur": 75.0, 
                            "type": "note", 
                            "channel": 9
                        }
                    ]
                ], 
                [
                    18211.0, 
                    [
                        {
                            "pitch": 50, 
                            "t0": 18211.0, 
                            "v": 0, 
                            "dur": 75.0, 
                            "type": "note", 
                            "channel": 9
                        }
                    ]
                ], 
                [
                    18269.0, 
                    [
                        {
                            "pitch": 50, 
                            "t0": 18269.0, 
                            "v": 0, 
                            "dur": 75.0, 
                            "type": "note", 
                            "channel": 9
                        }
                    ]
                ], 
                [
                    18327.0, 
                    [
                        {
                            "pitch": 50, 
                            "t0": 18327.0, 
                            "v": 1, 
                            "dur": 75.0, 
                            "type": "note", 
                            "channel": 9
                        }
                    ]
                ], 
                [
                    18385.0, 
                    [
                        {
                            "pitch": 50, 
                            "t0": 18385.0, 
                            "v": 0, 
                            "dur": 75.0, 
                            "type": "note", 
                            "channel": 9
                        }
                    ]
                ], 
                [
                    18442.0, 
                    [
                        {
                            "pitch": 50, 
                            "t0": 18442.0, 
                            "v": 0, 
                            "dur": 75.0, 
                            "type": "note", 
                            "channel": 9
                        }
                    ]
                ], 
                [
                    18499.0, 
                    [
                        {
                            "pitch": 50, 
                            "t0": 18499.0, 
                            "v": 0, 
                            "dur": 75.0, 
                            "type": "note", 
                            "channel": 9
                        }
                    ]
                ], 
                [
                    18556.0, 
                    [
                        {
                            "pitch": 50, 
                            "t0": 18556.0, 
                            "v": 0, 
                            "dur": 75.0, 
                            "type": "note", 
                            "channel": 9
                        }
                    ]
                ], 
                [
                    18613.0, 
                    [
                        {
                            "pitch": 50, 
                            "t0": 18613.0, 
                            "v": 0, 
                            "dur": 75.0, 
                            "type": "note", 
                            "channel": 9
                        }
                    ]
                ], 
                [
                    18669.0, 
                    [
                        {
                            "pitch": 50, 
                            "t0": 18669.0, 
                            "v": 0, 
                            "dur": 75.0, 
                            "type": "note", 
                            "channel": 9
                        }
                    ]
                ], 
                [
                    18725.0, 
                    [
                        {
                            "pitch": 50, 
                            "t0": 18725.0, 
                            "v": 0, 
                            "dur": 75.0, 
                            "type": "note", 
                            "channel": 9
                        }
                    ]
                ], 
                [
                    18781.0, 
                    [
                        {
                            "pitch": 50, 
                            "t0": 18781.0, 
                            "v": 0, 
                            "dur": 75.0, 
                            "type": "note", 
                            "channel": 9
                        }
                    ]
                ], 
                [
                    18837.0, 
                    [
                        {
                            "pitch": 50, 
                            "t0": 18837.0, 
                            "v": 0, 
                            "dur": 75.0, 
                            "type": "note", 
                            "channel": 9
                        }
                    ]
                ], 
                [
                    18893.0, 
                    [
                        {
                            "pitch": 50, 
                            "t0": 18893.0, 
                            "v": 0, 
                            "dur": 75.0, 
                            "type": "note", 
                            "channel": 9
                        }
                    ]
                ], 
                [
                    18948.0, 
                    [
                        {
                            "pitch": 50, 
                            "t0": 18948.0, 
                            "v": 0, 
                            "dur": 75.0, 
                            "type": "note", 
                            "channel": 9
                        }
                    ]
                ], 
                [
                    19003.0, 
                    [
                        {
                            "pitch": 50, 
                            "t0": 19003.0, 
                            "v": 0, 
                            "dur": 75.0, 
                            "type": "note", 
                            "channel": 9
                        }
                    ]
                ], 
                [
                    19058.0, 
                    [
                        {
                            "pitch": 50, 
                            "t0": 19058.0, 
                            "v": 0, 
                            "dur": 75.0, 
                            "type": "note", 
                            "channel": 9
                        }
                    ]
                ], 
                [
                    19112.0, 
                    [
                        {
                            "pitch": 50, 
                            "t0": 19112.0, 
                            "v": 0, 
                            "dur": 75.0, 
                            "type": "note", 
                            "channel": 9
                        }
                    ]
                ], 
                [
                    19167.0, 
                    [
                        {
                            "pitch": 50, 
                            "t0": 19167.0, 
                            "v": 0, 
                            "dur": 75.0, 
                            "type": "note", 
                            "channel": 9
                        }
                    ]
                ], 
                [
                    19242.0, 
                    [
                        {
                            "pitch": 50, 
                            "t0": 19242.0, 
                            "v": 33, 
                            "dur": 75.0, 
                            "type": "note", 
                            "channel": 9
                        }
                    ]
                ], 
                [
                    19350.0, 
                    [
                        {
                            "pitch": 50, 
                            "t0": 19350.0, 
                            "v": 25, 
                            "dur": 75.0, 
                            "type": "note", 
                            "channel": 9
                        }
                    ]
                ], 
                [
                    19457.0, 
                    [
                        {
                            "pitch": 50, 
                            "t0": 19457.0, 
                            "v": 24, 
                            "dur": 75.0, 
                            "type": "note", 
                            "channel": 9
                        }
                    ]
                ], 
                [
                    19563.0, 
                    [
                        {
                            "pitch": 50, 
                            "t0": 19563.0, 
                            "v": 24, 
                            "dur": 75.0, 
                            "type": "note", 
                            "channel": 9
                        }
                    ]
                ], 
                [
                    19668.0, 
                    [
                        {
                            "pitch": 50, 
                            "t0": 19668.0, 
                            "v": 30, 
                            "dur": 75.0, 
                            "type": "note", 
                            "channel": 9
                        }
                    ]
                ], 
                [
                    19773.0, 
                    [
                        {
                            "pitch": 50, 
                            "t0": 19773.0, 
                            "v": 23, 
                            "dur": 75.0, 
                            "type": "note", 
                            "channel": 9
                        }
                    ]
                ], 
                [
                    19876.0, 
                    [
                        {
                            "pitch": 50, 
                            "t0": 19876.0, 
                            "v": 23, 
                            "dur": 75.0, 
                            "type": "note", 
                            "channel": 9
                        }
                    ]
                ], 
                [
                    19979.0, 
                    [
                        {
                            "pitch": 50, 
                            "t0": 19979.0, 
                            "v": 22, 
                            "dur": 75.0, 
                            "type": "note", 
                            "channel": 9
                        }
                    ]
                ], 
                [
                    20082.0, 
                    [
                        {
                            "pitch": 50, 
                            "t0": 20082.0, 
                            "v": 28, 
                            "dur": 75.0, 
                            "type": "note", 
                            "channel": 9
                        }
                    ]
                ], 
                [
                    20183.0, 
                    [
                        {
                            "pitch": 50, 
                            "t0": 20183.0, 
                            "v": 21, 
                            "dur": 75.0, 
                            "type": "note", 
                            "channel": 9
                        }
                    ]
                ], 
                [
                    20284.0, 
                    [
                        {
                            "pitch": 50, 
                            "t0": 20284.0, 
                            "v": 21, 
                            "dur": 75.0, 
                            "type": "note", 
                            "channel": 9
                        }
                    ]
                ], 
                [
                    20384.0, 
                    [
                        {
                            "pitch": 50, 
                            "t0": 20384.0, 
                            "v": 20, 
                            "dur": 75.0, 
                            "type": "note", 
                            "channel": 9
                        }
                    ]
                ], 
                [
                    20483.0, 
                    [
                        {
                            "pitch": 50, 
                            "t0": 20483.0, 
                            "v": 26, 
                            "dur": 75.0, 
                            "type": "note", 
                            "channel": 9
                        }
                    ]
                ], 
                [
                    20582.0, 
                    [
                        {
                            "pitch": 50, 
                            "t0": 20582.0, 
                            "v": 20, 
                            "dur": 75.0, 
                            "type": "note", 
                            "channel": 9
                        }
                    ]
                ], 
                [
                    20680.0, 
                    [
                        {
                            "pitch": 50, 
                            "t0": 20680.0, 
                            "v": 19, 
                            "dur": 75.0, 
                            "type": "note", 
                            "channel": 9
                        }
                    ]
                ], 
                [
                    20777.0, 
                    [
                        {
                            "pitch": 50, 
                            "t0": 20777.0, 
                            "v": 19, 
                            "dur": 75.0, 
                            "type": "note", 
                            "channel": 9
                        }
                    ]
                ], 
                [
                    20873.0, 
                    [
                        {
                            "pitch": 50, 
                            "t0": 20873.0, 
                            "v": 24, 
                            "dur": 75.0, 
                            "type": "note", 
                            "channel": 9
                        }
                    ]
                ], 
                [
                    20969.0, 
                    [
                        {
                            "pitch": 50, 
                            "t0": 20969.0, 
                            "v": 18, 
                            "dur": 75.0, 
                            "type": "note", 
                            "channel": 9
                        }
                    ]
                ], 
                [
                    21064.0, 
                    [
                        {
                            "pitch": 50, 
                            "t0": 21064.0, 
                            "v": 18, 
                            "dur": 75.0, 
                            "type": "note", 
                            "channel": 9
                        }
                    ]
                ], 
                [
                    21159.0, 
                    [
                        {
                            "pitch": 50, 
                            "t0": 21159.0, 
                            "v": 17, 
                            "dur": 75.0, 
                            "type": "note", 
                            "channel": 9
                        }
                    ]
                ], 
                [
                    21253.0, 
                    [
                        {
                            "pitch": 50, 
                            "t0": 21253.0, 
                            "v": 22, 
                            "dur": 75.0, 
                            "type": "note", 
                            "channel": 9
                        }
                    ]
                ], 
                [
                    21346.0, 
                    [
                        {
                            "pitch": 50, 
                            "t0": 21346.0, 
                            "v": 17, 
                            "dur": 75.0, 
                            "type": "note", 
                            "channel": 9
                        }
                    ]
                ], 
                [
                    21439.0, 
                    [
                        {
                            "pitch": 50, 
                            "t0": 21439.0, 
                            "v": 16, 
                            "dur": 75.0, 
                            "type": "note", 
                            "channel": 9
                        }
                    ]
                ], 
                [
                    21531.0, 
                    [
                        {
                            "pitch": 50, 
                            "t0": 21531.0, 
                            "v": 16, 
                            "dur": 75.0, 
                            "type": "note", 
                            "channel": 9
                        }
                    ]
                ], 
                [
                    21622.0, 
                    [
                        {
                            "pitch": 50, 
                            "t0": 21622.0, 
                            "v": 20, 
                            "dur": 75.0, 
                            "type": "note", 
                            "channel": 9
                        }
                    ]
                ], 
                [
                    21713.0, 
                    [
                        {
                            "pitch": 50, 
                            "t0": 21713.0, 
                            "v": 15, 
                            "dur": 75.0, 
                            "type": "note", 
                            "channel": 9
                        }
                    ]
                ], 
                [
                    21803.0, 
                    [
                        {
                            "pitch": 50, 
                            "t0": 21803.0, 
                            "v": 15, 
                            "dur": 75.0, 
                            "type": "note", 
                            "channel": 9
                        }
                    ]
                ], 
                [
                    21893.0, 
                    [
                        {
                            "pitch": 50, 
                            "t0": 21893.0, 
                            "v": 15, 
                            "dur": 75.0, 
                            "type": "note", 
                            "channel": 9
                        }
                    ]
                ], 
                [
                    21982.0, 
                    [
                        {
                            "pitch": 50, 
                            "t0": 21982.0, 
                            "v": 18, 
                            "dur": 75.0, 
                            "type": "note", 
                            "channel": 9
                        }
                    ]
                ], 
                [
                    22070.0, 
                    [
                        {
                            "pitch": 50, 
                            "t0": 22070.0, 
                            "v": 14, 
                            "dur": 75.0, 
                            "type": "note", 
                            "channel": 9
                        }
                    ]
                ], 
                [
                    22158.0, 
                    [
                        {
                            "pitch": 50, 
                            "t0": 22158.0, 
                            "v": 14, 
                            "dur": 75.0, 
                            "type": "note", 
                            "channel": 9
                        }
                    ]
                ], 
                [
                    22246.0, 
                    [
                        {
                            "pitch": 50, 
                            "t0": 22246.0, 
                            "v": 13, 
                            "dur": 75.0, 
                            "type": "note", 
                            "channel": 9
                        }
                    ]
                ], 
                [
                    22333.0, 
                    [
                        {
                            "pitch": 50, 
                            "t0": 22333.0, 
                            "v": 17, 
                            "dur": 75.0, 
                            "type": "note", 
                            "channel": 9
                        }
                    ]
                ], 
                [
                    22419.0, 
                    [
                        {
                            "pitch": 50, 
                            "t0": 22419.0, 
                            "v": 13, 
                            "dur": 75.0, 
                            "type": "note", 
                            "channel": 9
                        }
                    ]
                ], 
                [
                    22505.0, 
                    [
                        {
                            "pitch": 50, 
                            "t0": 22505.0, 
                            "v": 12, 
                            "dur": 75.0, 
                            "type": "note", 
                            "channel": 9
                        }
                    ]
                ], 
                [
                    22590.0, 
                    [
                        {
                            "pitch": 50, 
                            "t0": 22590.0, 
                            "v": 12, 
                            "dur": 75.0, 
                            "type": "note", 
                            "channel": 9
                        }
                    ]
                ], 
                [
                    22674.0, 
                    [
                        {
                            "pitch": 50, 
                            "t0": 22674.0, 
                            "v": 15, 
                            "dur": 75.0, 
                            "type": "note", 
                            "channel": 9
                        }
                    ]
                ], 
                [
                    22759.0, 
                    [
                        {
                            "pitch": 50, 
                            "t0": 22759.0, 
                            "v": 11, 
                            "dur": 75.0, 
                            "type": "note", 
                            "channel": 9
                        }
                    ]
                ], 
                [
                    22842.0, 
                    [
                        {
                            "pitch": 50, 
                            "t0": 22842.0, 
                            "v": 11, 
                            "dur": 75.0, 
                            "type": "note", 
                            "channel": 9
                        }
                    ]
                ], 
                [
                    22926.0, 
                    [
                        {
                            "pitch": 50, 
                            "t0": 22926.0, 
                            "v": 11, 
                            "dur": 75.0, 
                            "type": "note", 
                            "channel": 9
                        }
                    ]
                ], 
                [
                    23008.0, 
                    [
                        {
                            "pitch": 50, 
                            "t0": 23008.0, 
                            "v": 14, 
                            "dur": 75.0, 
                            "type": "note", 
                            "channel": 9
                        }
                    ]
                ], 
                [
                    23090.0, 
                    [
                        {
                            "pitch": 50, 
                            "t0": 23090.0, 
                            "v": 10, 
                            "dur": 75.0, 
                            "type": "note", 
                            "channel": 9
                        }
                    ]
                ], 
                [
                    23172.0, 
                    [
                        {
                            "pitch": 50, 
                            "t0": 23172.0, 
                            "v": 10, 
                            "dur": 75.0, 
                            "type": "note", 
                            "channel": 9
                        }
                    ]
                ], 
                [
                    23253.0, 
                    [
                        {
                            "pitch": 50, 
                            "t0": 23253.0, 
                            "v": 10, 
                            "dur": 75.0, 
                            "type": "note", 
                            "channel": 9
                        }
                    ]
                ], 
                [
                    23334.0, 
                    [
                        {
                            "pitch": 50, 
                            "t0": 23334.0, 
                            "v": 12, 
                            "dur": 75.0, 
                            "type": "note", 
                            "channel": 9
                        }
                    ]
                ], 
                [
                    23414.0, 
                    [
                        {
                            "pitch": 50, 
                            "t0": 23414.0, 
                            "v": 9, 
                            "dur": 75.0, 
                            "type": "note", 
                            "channel": 9
                        }
                    ]
                ], 
                [
                    23494.0, 
                    [
                        {
                            "pitch": 50, 
                            "t0": 23494.0, 
                            "v": 9, 
                            "dur": 75.0, 
                            "type": "note", 
                            "channel": 9
                        }
                    ]
                ], 
                [
                    23574.0, 
                    [
                        {
                            "pitch": 50, 
                            "t0": 23574.0, 
                            "v": 9, 
                            "dur": 75.0, 
                            "type": "note", 
                            "channel": 9
                        }
                    ]
                ], 
                [
                    23653.0, 
                    [
                        {
                            "pitch": 50, 
                            "t0": 23653.0, 
                            "v": 11, 
                            "dur": 75.0, 
                            "type": "note", 
                            "channel": 9
                        }
                    ]
                ], 
                [
                    23731.0, 
                    [
                        {
                            "pitch": 50, 
                            "t0": 23731.0, 
                            "v": 8, 
                            "dur": 75.0, 
                            "type": "note", 
                            "channel": 9
                        }
                    ]
                ], 
                [
                    23809.0, 
                    [
                        {
                            "pitch": 50, 
                            "t0": 23809.0, 
                            "v": 8, 
                            "dur": 75.0, 
                            "type": "note", 
                            "channel": 9
                        }
                    ]
                ], 
                [
                    23887.0, 
                    [
                        {
                            "pitch": 50, 
                            "t0": 23887.0, 
                            "v": 8, 
                            "dur": 75.0, 
                            "type": "note", 
                            "channel": 9
                        }
                    ]
                ], 
                [
                    23964.0, 
                    [
                        {
                            "pitch": 50, 
                            "t0": 23964.0, 
                            "v": 10, 
                            "dur": 75.0, 
                            "type": "note", 
                            "channel": 9
                        }
                    ]
                ], 
                [
                    24041.0, 
                    [
                        {
                            "pitch": 50, 
                            "t0": 24041.0, 
                            "v": 7, 
                            "dur": 75.0, 
                            "type": "note", 
                            "channel": 9
                        }
                    ]
                ], 
                [
                    24117.0, 
                    [
                        {
                            "pitch": 50, 
                            "t0": 24117.0, 
                            "v": 7, 
                            "dur": 75.0, 
                            "type": "note", 
                            "channel": 9
                        }
                    ]
                ], 
                [
                    24193.0, 
                    [
                        {
                            "pitch": 50, 
                            "t0": 24193.0, 
                            "v": 7, 
                            "dur": 75.0, 
                            "type": "note", 
                            "channel": 9
                        }
                    ]
                ], 
                [
                    24268.0, 
                    [
                        {
                            "pitch": 50, 
                            "t0": 24268.0, 
                            "v": 9, 
                            "dur": 75.0, 
                            "type": "note", 
                            "channel": 9
                        }
                    ]
                ], 
                [
                    24343.0, 
                    [
                        {
                            "pitch": 50, 
                            "t0": 24343.0, 
                            "v": 7, 
                            "dur": 75.0, 
                            "type": "note", 
                            "channel": 9
                        }
                    ]
                ], 
                [
                    24418.0, 
                    [
                        {
                            "pitch": 50, 
                            "t0": 24418.0, 
                            "v": 6, 
                            "dur": 75.0, 
                            "type": "note", 
                            "channel": 9
                        }
                    ]
                ], 
                [
                    24492.0, 
                    [
                        {
                            "pitch": 50, 
                            "t0": 24492.0, 
                            "v": 6, 
                            "dur": 75.0, 
                            "type": "note", 
                            "channel": 9
                        }
                    ]
                ], 
                [
                    24566.0, 
                    [
                        {
                            "pitch": 50, 
                            "t0": 24566.0, 
                            "v": 8, 
                            "dur": 75.0, 
                            "type": "note", 
                            "channel": 9
                        }
                    ]
                ], 
                [
                    24640.0, 
                    [
                        {
                            "pitch": 50, 
                            "t0": 24640.0, 
                            "v": 6, 
                            "dur": 75.0, 
                            "type": "note", 
                            "channel": 9
                        }
                    ]
                ], 
                [
                    24713.0, 
                    [
                        {
                            "pitch": 50, 
                            "t0": 24713.0, 
                            "v": 6, 
                            "dur": 75.0, 
                            "type": "note", 
                            "channel": 9
                        }
                    ]
                ], 
                [
                    24785.0, 
                    [
                        {
                            "pitch": 50, 
                            "t0": 24785.0, 
                            "v": 5, 
                            "dur": 75.0, 
                            "type": "note", 
                            "channel": 9
                        }
                    ]
                ], 
                [
                    24858.0, 
                    [
                        {
                            "pitch": 50, 
                            "t0": 24858.0, 
                            "v": 7, 
                            "dur": 75.0, 
                            "type": "note", 
                            "channel": 9
                        }
                    ]
                ], 
                [
                    24930.0, 
                    [
                        {
                            "pitch": 50, 
                            "t0": 24930.0, 
                            "v": 5, 
                            "dur": 75.0, 
                            "type": "note", 
                            "channel": 9
                        }
                    ]
                ], 
                [
                    25001.0, 
                    [
                        {
                            "pitch": 50, 
                            "t0": 25001.0, 
                            "v": 5, 
                            "dur": 75.0, 
                            "type": "note", 
                            "channel": 9
                        }
                    ]
                ], 
                [
                    25072.0, 
                    [
                        {
                            "pitch": 50, 
                            "t0": 25072.0, 
                            "v": 5, 
                            "dur": 75.0, 
                            "type": "note", 
                            "channel": 9
                        }
                    ]
                ], 
                [
                    25143.0, 
                    [
                        {
                            "pitch": 50, 
                            "t0": 25143.0, 
                            "v": 6, 
                            "dur": 75.0, 
                            "type": "note", 
                            "channel": 9
                        }
                    ]
                ], 
                [
                    25214.0, 
                    [
                        {
                            "pitch": 50, 
                            "t0": 25214.0, 
                            "v": 4, 
                            "dur": 75.0, 
                            "type": "note", 
                            "channel": 9
                        }
                    ]
                ], 
                [
                    25284.0, 
                    [
                        {
                            "pitch": 50, 
                            "t0": 25284.0, 
                            "v": 4, 
                            "dur": 75.0, 
                            "type": "note", 
                            "channel": 9
                        }
                    ]
                ], 
                [
                    25354.0, 
                    [
                        {
                            "pitch": 50, 
                            "t0": 25354.0, 
                            "v": 4, 
                            "dur": 75.0, 
                            "type": "note", 
                            "channel": 9
                        }
                    ]
                ], 
                [
                    25423.0, 
                    [
                        {
                            "pitch": 50, 
                            "t0": 25423.0, 
                            "v": 5, 
                            "dur": 75.0, 
                            "type": "note", 
                            "channel": 9
                        }
                    ]
                ], 
                [
                    25492.0, 
                    [
                        {
                            "pitch": 50, 
                            "t0": 25492.0, 
                            "v": 4, 
                            "dur": 75.0, 
                            "type": "note", 
                            "channel": 9
                        }
                    ]
                ], 
                [
                    25561.0, 
                    [
                        {
                            "pitch": 50, 
                            "t0": 25561.0, 
                            "v": 4, 
                            "dur": 75.0, 
                            "type": "note", 
                            "channel": 9
                        }
                    ]
                ], 
                [
                    25629.0, 
                    [
                        {
                            "pitch": 50, 
                            "t0": 25629.0, 
                            "v": 4, 
                            "dur": 75.0, 
                            "type": "note", 
                            "channel": 9
                        }
                    ]
                ], 
                [
                    25697.0, 
                    [
                        {
                            "pitch": 50, 
                            "t0": 25697.0, 
                            "v": 4, 
                            "dur": 75.0, 
                            "type": "note", 
                            "channel": 9
                        }
                    ]
                ], 
                [
                    25765.0, 
                    [
                        {
                            "pitch": 50, 
                            "t0": 25765.0, 
                            "v": 3, 
                            "dur": 75.0, 
                            "type": "note", 
                            "channel": 9
                        }
                    ]
                ], 
                [
                    25832.0, 
                    [
                        {
                            "pitch": 50, 
                            "t0": 25832.0, 
                            "v": 3, 
                            "dur": 75.0, 
                            "type": "note", 
                            "channel": 9
                        }
                    ]
                ], 
                [
                    25899.0, 
                    [
                        {
                            "pitch": 50, 
                            "t0": 25899.0, 
                            "v": 3, 
                            "dur": 75.0, 
                            "type": "note", 
                            "channel": 9
                        }
                    ]
                ], 
                [
                    25966.0, 
                    [
                        {
                            "pitch": 50, 
                            "t0": 25966.0, 
                            "v": 4, 
                            "dur": 75.0, 
                            "type": "note", 
                            "channel": 9
                        }
                    ]
                ], 
                [
                    26033.0, 
                    [
                        {
                            "pitch": 50, 
                            "t0": 26033.0, 
                            "v": 3, 
                            "dur": 75.0, 
                            "type": "note", 
                            "channel": 9
                        }
                    ]
                ], 
                [
                    26099.0, 
                    [
                        {
                            "pitch": 50, 
                            "t0": 26099.0, 
                            "v": 3, 
                            "dur": 75.0, 
                            "type": "note", 
                            "channel": 9
                        }
                    ]
                ], 
                [
                    26165.0, 
                    [
                        {
                            "pitch": 50, 
                            "t0": 26165.0, 
                            "v": 3, 
                            "dur": 75.0, 
                            "type": "note", 
                            "channel": 9
                        }
                    ]
                ], 
                [
                    26230.0, 
                    [
                        {
                            "pitch": 50, 
                            "t0": 26230.0, 
                            "v": 3, 
                            "dur": 75.0, 
                            "type": "note", 
                            "channel": 9
                        }
                    ]
                ], 
                [
                    26295.0, 
                    [
                        {
                            "pitch": 50, 
                            "t0": 26295.0, 
                            "v": 2, 
                            "dur": 75.0, 
                            "type": "note", 
                            "channel": 9
                        }
                    ]
                ], 
                [
                    26360.0, 
                    [
                        {
                            "pitch": 50, 
                            "t0": 26360.0, 
                            "v": 2, 
                            "dur": 75.0, 
                            "type": "note", 
                            "channel": 9
                        }
                    ]
                ], 
                [
                    26425.0, 
                    [
                        {
                            "pitch": 50, 
                            "t0": 26425.0, 
                            "v": 2, 
                            "dur": 75.0, 
                            "type": "note", 
                            "channel": 9
                        }
                    ]
                ], 
                [
                    26489.0, 
                    [
                        {
                            "pitch": 50, 
                            "t0": 26489.0, 
                            "v": 3, 
                            "dur": 75.0, 
                            "type": "note", 
                            "channel": 9
                        }
                    ]
                ], 
                [
                    26553.0, 
                    [
                        {
                            "pitch": 50, 
                            "t0": 26553.0, 
                            "v": 2, 
                            "dur": 75.0, 
                            "type": "note", 
                            "channel": 9
                        }
                    ]
                ], 
                [
                    26617.0, 
                    [
                        {
                            "pitch": 50, 
                            "t0": 26617.0, 
                            "v": 2, 
                            "dur": 75.0, 
                            "type": "note", 
                            "channel": 9
                        }
                    ]
                ], 
                [
                    26680.0, 
                    [
                        {
                            "pitch": 50, 
                            "t0": 26680.0, 
                            "v": 2, 
                            "dur": 75.0, 
                            "type": "note", 
                            "channel": 9
                        }
                    ]
                ], 
                [
                    26743.0, 
                    [
                        {
                            "pitch": 50, 
                            "t0": 26743.0, 
                            "v": 2, 
                            "dur": 75.0, 
                            "type": "note", 
                            "channel": 9
                        }
                    ]
                ], 
                [
                    26806.0, 
                    [
                        {
                            "pitch": 50, 
                            "t0": 26806.0, 
                            "v": 2, 
                            "dur": 75.0, 
                            "type": "note", 
                            "channel": 9
                        }
                    ]
                ], 
                [
                    26868.0, 
                    [
                        {
                            "pitch": 50, 
                            "t0": 26868.0, 
                            "v": 2, 
                            "dur": 75.0, 
                            "type": "note", 
                            "channel": 9
                        }
                    ]
                ], 
                [
                    26931.0, 
                    [
                        {
                            "pitch": 50, 
                            "t0": 26931.0, 
                            "v": 1, 
                            "dur": 75.0, 
                            "type": "note", 
                            "channel": 9
                        }
                    ]
                ], 
                [
                    26993.0, 
                    [
                        {
                            "pitch": 50, 
                            "t0": 26993.0, 
                            "v": 2, 
                            "dur": 75.0, 
                            "type": "note", 
                            "channel": 9
                        }
                    ]
                ], 
                [
                    27054.0, 
                    [
                        {
                            "pitch": 50, 
                            "t0": 27054.0, 
                            "v": 1, 
                            "dur": 75.0, 
                            "type": "note", 
                            "channel": 9
                        }
                    ]
                ], 
                [
                    27116.0, 
                    [
                        {
                            "pitch": 50, 
                            "t0": 27116.0, 
                            "v": 1, 
                            "dur": 75.0, 
                            "type": "note", 
                            "channel": 9
                        }
                    ]
                ], 
                [
                    27177.0, 
                    [
                        {
                            "pitch": 50, 
                            "t0": 27177.0, 
                            "v": 1, 
                            "dur": 75.0, 
                            "type": "note", 
                            "channel": 9
                        }
                    ]
                ], 
                [
                    27238.0, 
                    [
                        {
                            "pitch": 50, 
                            "t0": 27238.0, 
                            "v": 1, 
                            "dur": 75.0, 
                            "type": "note", 
                            "channel": 9
                        }
                    ]
                ], 
                [
                    27298.0, 
                    [
                        {
                            "pitch": 50, 
                            "t0": 27298.0, 
                            "v": 1, 
                            "dur": 75.0, 
                            "type": "note", 
                            "channel": 9
                        }
                    ]
                ], 
                [
                    27359.0, 
                    [
                        {
                            "pitch": 50, 
                            "t0": 27359.0, 
                            "v": 1, 
                            "dur": 75.0, 
                            "type": "note", 
                            "channel": 9
                        }
                    ]
                ], 
                [
                    27419.0, 
                    [
                        {
                            "pitch": 50, 
                            "t0": 27419.0, 
                            "v": 1, 
                            "dur": 75.0, 
                            "type": "note", 
                            "channel": 9
                        }
                    ]
                ], 
                [
                    27479.0, 
                    [
                        {
                            "pitch": 50, 
                            "t0": 27479.0, 
                            "v": 1, 
                            "dur": 75.0, 
                            "type": "note", 
                            "channel": 9
                        }
                    ]
                ], 
                [
                    27538.0, 
                    [
                        {
                            "pitch": 50, 
                            "t0": 27538.0, 
                            "v": 1, 
                            "dur": 75.0, 
                            "type": "note", 
                            "channel": 9
                        }
                    ]
                ], 
                [
                    27598.0, 
                    [
                        {
                            "pitch": 50, 
                            "t0": 27598.0, 
                            "v": 1, 
                            "dur": 75.0, 
                            "type": "note", 
                            "channel": 9
                        }
                    ]
                ], 
                [
                    27657.0, 
                    [
                        {
                            "pitch": 50, 
                            "t0": 27657.0, 
                            "v": 1, 
                            "dur": 75.0, 
                            "type": "note", 
                            "channel": 9
                        }
                    ]
                ], 
                [
                    27715.0, 
                    [
                        {
                            "pitch": 50, 
                            "t0": 27715.0, 
                            "v": 1, 
                            "dur": 75.0, 
                            "type": "note", 
                            "channel": 9
                        }
                    ]
                ], 
                [
                    27774.0, 
                    [
                        {
                            "pitch": 50, 
                            "t0": 27774.0, 
                            "v": 1, 
                            "dur": 75.0, 
                            "type": "note", 
                            "channel": 9
                        }
                    ]
                ], 
                [
                    27832.0, 
                    [
                        {
                            "pitch": 50, 
                            "t0": 27832.0, 
                            "v": 0, 
                            "dur": 75.0, 
                            "type": "note", 
                            "channel": 9
                        }
                    ]
                ], 
                [
                    27890.0, 
                    [
                        {
                            "pitch": 50, 
                            "t0": 27890.0, 
                            "v": 0, 
                            "dur": 75.0, 
                            "type": "note", 
                            "channel": 9
                        }
                    ]
                ], 
                [
                    27948.0, 
                    [
                        {
                            "pitch": 50, 
                            "t0": 27948.0, 
                            "v": 1, 
                            "dur": 75.0, 
                            "type": "note", 
                            "channel": 9
                        }
                    ]
                ], 
                [
                    28006.0, 
                    [
                        {
                            "pitch": 50, 
                            "t0": 28006.0, 
                            "v": 0, 
                            "dur": 75.0, 
                            "type": "note", 
                            "channel": 9
                        }
                    ]
                ], 
                [
                    28063.0, 
                    [
                        {
                            "pitch": 50, 
                            "t0": 28063.0, 
                            "v": 0, 
                            "dur": 75.0, 
                            "type": "note", 
                            "channel": 9
                        }
                    ]
                ], 
                [
                    28120.0, 
                    [
                        {
                            "pitch": 50, 
                            "t0": 28120.0, 
                            "v": 0, 
                            "dur": 75.0, 
                            "type": "note", 
                            "channel": 9
                        }
                    ]
                ], 
                [
                    28177.0, 
                    [
                        {
                            "pitch": 50, 
                            "t0": 28177.0, 
                            "v": 0, 
                            "dur": 75.0, 
                            "type": "note", 
                            "channel": 9
                        }
                    ]
                ], 
                [
                    28234.0, 
                    [
                        {
                            "pitch": 50, 
                            "t0": 28234.0, 
                            "v": 0, 
                            "dur": 75.0, 
                            "type": "note", 
                            "channel": 9
                        }
                    ]
                ], 
                [
                    28290.0, 
                    [
                        {
                            "pitch": 50, 
                            "t0": 28290.0, 
                            "v": 0, 
                            "dur": 75.0, 
                            "type": "note", 
                            "channel": 9
                        }
                    ]
                ], 
                [
                    28346.0, 
                    [
                        {
                            "pitch": 50, 
                            "t0": 28346.0, 
                            "v": 0, 
                            "dur": 75.0, 
                            "type": "note", 
                            "channel": 9
                        }
                    ]
                ], 
                [
                    28402.0, 
                    [
                        {
                            "pitch": 50, 
                            "t0": 28402.0, 
                            "v": 0, 
                            "dur": 75.0, 
                            "type": "note", 
                            "channel": 9
                        }
                    ]
                ], 
                [
                    28458.0, 
                    [
                        {
                            "pitch": 50, 
                            "t0": 28458.0, 
                            "v": 0, 
                            "dur": 75.0, 
                            "type": "note", 
                            "channel": 9
                        }
                    ]
                ], 
                [
                    28514.0, 
                    [
                        {
                            "pitch": 50, 
                            "t0": 28514.0, 
                            "v": 0, 
                            "dur": 75.0, 
                            "type": "note", 
                            "channel": 9
                        }
                    ]
                ], 
                [
                    28569.0, 
                    [
                        {
                            "pitch": 50, 
                            "t0": 28569.0, 
                            "v": 0, 
                            "dur": 75.0, 
                            "type": "note", 
                            "channel": 9
                        }
                    ]
                ], 
                [
                    28624.0, 
                    [
                        {
                            "pitch": 50, 
                            "t0": 28624.0, 
                            "v": 0, 
                            "dur": 75.0, 
                            "type": "note", 
                            "channel": 9
                        }
                    ]
                ], 
                [
                    28679.0, 
                    [
                        {
                            "pitch": 50, 
                            "t0": 28679.0, 
                            "v": 0, 
                            "dur": 75.0, 
                            "type": "note", 
                            "channel": 9
                        }
                    ]
                ], 
                [
                    28733.0, 
                    [
                        {
                            "pitch": 50, 
                            "t0": 28733.0, 
                            "v": 0, 
                            "dur": 75.0, 
                            "type": "note", 
                            "channel": 9
                        }
                    ]
                ], 
                [
                    28788.0, 
                    [
                        {
                            "pitch": 50, 
                            "t0": 28788.0, 
                            "v": 0, 
                            "dur": 75.0, 
                            "type": "note", 
                            "channel": 9
                        }
                    ]
                ], 
                [
                    28863.0, 
                    [
                        {
                            "pitch": 50, 
                            "t0": 28863.0, 
                            "v": 33, 
                            "dur": 75.0, 
                            "type": "note", 
                            "channel": 9
                        }
                    ]
                ], 
                [
                    28971.0, 
                    [
                        {
                            "pitch": 50, 
                            "t0": 28971.0, 
                            "v": 25, 
                            "dur": 75.0, 
                            "type": "note", 
                            "channel": 9
                        }
                    ]
                ], 
                [
                    29078.0, 
                    [
                        {
                            "pitch": 50, 
                            "t0": 29078.0, 
                            "v": 24, 
                            "dur": 75.0, 
                            "type": "note", 
                            "channel": 9
                        }
                    ]
                ], 
                [
                    29184.0, 
                    [
                        {
                            "pitch": 50, 
                            "t0": 29184.0, 
                            "v": 24, 
                            "dur": 75.0, 
                            "type": "note", 
                            "channel": 9
                        }
                    ]
                ], 
                [
                    29289.0, 
                    [
                        {
                            "pitch": 50, 
                            "t0": 29289.0, 
                            "v": 30, 
                            "dur": 75.0, 
                            "type": "note", 
                            "channel": 9
                        }
                    ]
                ], 
                [
                    29394.0, 
                    [
                        {
                            "pitch": 50, 
                            "t0": 29394.0, 
                            "v": 23, 
                            "dur": 75.0, 
                            "type": "note", 
                            "channel": 9
                        }
                    ]
                ], 
                [
                    29497.0, 
                    [
                        {
                            "pitch": 50, 
                            "t0": 29497.0, 
                            "v": 23, 
                            "dur": 75.0, 
                            "type": "note", 
                            "channel": 9
                        }
                    ]
                ], 
                [
                    29600.0, 
                    [
                        {
                            "pitch": 50, 
                            "t0": 29600.0, 
                            "v": 22, 
                            "dur": 75.0, 
                            "type": "note", 
                            "channel": 9
                        }
                    ]
                ], 
                [
                    29703.0, 
                    [
                        {
                            "pitch": 50, 
                            "t0": 29703.0, 
                            "v": 28, 
                            "dur": 75.0, 
                            "type": "note", 
                            "channel": 9
                        }
                    ]
                ], 
                [
                    29804.0, 
                    [
                        {
                            "pitch": 50, 
                            "t0": 29804.0, 
                            "v": 21, 
                            "dur": 75.0, 
                            "type": "note", 
                            "channel": 9
                        }
                    ]
                ], 
                [
                    29905.0, 
                    [
                        {
                            "pitch": 50, 
                            "t0": 29905.0, 
                            "v": 21, 
                            "dur": 75.0, 
                            "type": "note", 
                            "channel": 9
                        }
                    ]
                ], 
                [
                    30005.0, 
                    [
                        {
                            "pitch": 50, 
                            "t0": 30005.0, 
                            "v": 20, 
                            "dur": 75.0, 
                            "type": "note", 
                            "channel": 9
                        }
                    ]
                ], 
                [
                    30104.0, 
                    [
                        {
                            "pitch": 50, 
                            "t0": 30104.0, 
                            "v": 26, 
                            "dur": 75.0, 
                            "type": "note", 
                            "channel": 9
                        }
                    ]
                ], 
                [
                    30203.0, 
                    [
                        {
                            "pitch": 50, 
                            "t0": 30203.0, 
                            "v": 20, 
                            "dur": 75.0, 
                            "type": "note", 
                            "channel": 9
                        }
                    ]
                ], 
                [
                    30301.0, 
                    [
                        {
                            "pitch": 50, 
                            "t0": 30301.0, 
                            "v": 19, 
                            "dur": 75.0, 
                            "type": "note", 
                            "channel": 9
                        }
                    ]
                ], 
                [
                    30398.0, 
                    [
                        {
                            "pitch": 50, 
                            "t0": 30398.0, 
                            "v": 19, 
                            "dur": 75.0, 
                            "type": "note", 
                            "channel": 9
                        }
                    ]
                ], 
                [
                    30494.0, 
                    [
                        {
                            "pitch": 50, 
                            "t0": 30494.0, 
                            "v": 24, 
                            "dur": 75.0, 
                            "type": "note", 
                            "channel": 9
                        }
                    ]
                ], 
                [
                    30590.0, 
                    [
                        {
                            "pitch": 50, 
                            "t0": 30590.0, 
                            "v": 18, 
                            "dur": 75.0, 
                            "type": "note", 
                            "channel": 9
                        }
                    ]
                ], 
                [
                    30685.0, 
                    [
                        {
                            "pitch": 50, 
                            "t0": 30685.0, 
                            "v": 18, 
                            "dur": 75.0, 
                            "type": "note", 
                            "channel": 9
                        }
                    ]
                ], 
                [
                    30780.0, 
                    [
                        {
                            "pitch": 50, 
                            "t0": 30780.0, 
                            "v": 17, 
                            "dur": 75.0, 
                            "type": "note", 
                            "channel": 9
                        }
                    ]
                ], 
                [
                    30874.0, 
                    [
                        {
                            "pitch": 50, 
                            "t0": 30874.0, 
                            "v": 22, 
                            "dur": 75.0, 
                            "type": "note", 
                            "channel": 9
                        }
                    ]
                ], 
                [
                    30967.0, 
                    [
                        {
                            "pitch": 50, 
                            "t0": 30967.0, 
                            "v": 17, 
                            "dur": 75.0, 
                            "type": "note", 
                            "channel": 9
                        }
                    ]
                ], 
                [
                    31060.0, 
                    [
                        {
                            "pitch": 50, 
                            "t0": 31060.0, 
                            "v": 16, 
                            "dur": 75.0, 
                            "type": "note", 
                            "channel": 9
                        }
                    ]
                ], 
                [
                    31152.0, 
                    [
                        {
                            "pitch": 50, 
                            "t0": 31152.0, 
                            "v": 16, 
                            "dur": 75.0, 
                            "type": "note", 
                            "channel": 9
                        }
                    ]
                ], 
                [
                    31243.0, 
                    [
                        {
                            "pitch": 50, 
                            "t0": 31243.0, 
                            "v": 20, 
                            "dur": 75.0, 
                            "type": "note", 
                            "channel": 9
                        }
                    ]
                ], 
                [
                    31334.0, 
                    [
                        {
                            "pitch": 50, 
                            "t0": 31334.0, 
                            "v": 15, 
                            "dur": 75.0, 
                            "type": "note", 
                            "channel": 9
                        }
                    ]
                ], 
                [
                    31424.0, 
                    [
                        {
                            "pitch": 50, 
                            "t0": 31424.0, 
                            "v": 15, 
                            "dur": 75.0, 
                            "type": "note", 
                            "channel": 9
                        }
                    ]
                ], 
                [
                    31514.0, 
                    [
                        {
                            "pitch": 50, 
                            "t0": 31514.0, 
                            "v": 15, 
                            "dur": 75.0, 
                            "type": "note", 
                            "channel": 9
                        }
                    ]
                ], 
                [
                    31603.0, 
                    [
                        {
                            "pitch": 50, 
                            "t0": 31603.0, 
                            "v": 18, 
                            "dur": 75.0, 
                            "type": "note", 
                            "channel": 9
                        }
                    ]
                ], 
                [
                    31691.0, 
                    [
                        {
                            "pitch": 50, 
                            "t0": 31691.0, 
                            "v": 14, 
                            "dur": 75.0, 
                            "type": "note", 
                            "channel": 9
                        }
                    ]
                ], 
                [
                    31779.0, 
                    [
                        {
                            "pitch": 50, 
                            "t0": 31779.0, 
                            "v": 14, 
                            "dur": 75.0, 
                            "type": "note", 
                            "channel": 9
                        }
                    ]
                ], 
                [
                    31867.0, 
                    [
                        {
                            "pitch": 50, 
                            "t0": 31867.0, 
                            "v": 13, 
                            "dur": 75.0, 
                            "type": "note", 
                            "channel": 9
                        }
                    ]
                ], 
                [
                    31954.0, 
                    [
                        {
                            "pitch": 50, 
                            "t0": 31954.0, 
                            "v": 17, 
                            "dur": 75.0, 
                            "type": "note", 
                            "channel": 9
                        }
                    ]
                ], 
                [
                    32040.0, 
                    [
                        {
                            "pitch": 50, 
                            "t0": 32040.0, 
                            "v": 13, 
                            "dur": 75.0, 
                            "type": "note", 
                            "channel": 9
                        }
                    ]
                ], 
                [
                    32126.0, 
                    [
                        {
                            "pitch": 50, 
                            "t0": 32126.0, 
                            "v": 12, 
                            "dur": 75.0, 
                            "type": "note", 
                            "channel": 9
                        }
                    ]
                ], 
                [
                    32211.0, 
                    [
                        {
                            "pitch": 50, 
                            "t0": 32211.0, 
                            "v": 12, 
                            "dur": 75.0, 
                            "type": "note", 
                            "channel": 9
                        }
                    ]
                ], 
                [
                    32295.0, 
                    [
                        {
                            "pitch": 50, 
                            "t0": 32295.0, 
                            "v": 15, 
                            "dur": 75.0, 
                            "type": "note", 
                            "channel": 9
                        }
                    ]
                ], 
                [
                    32380.0, 
                    [
                        {
                            "pitch": 50, 
                            "t0": 32380.0, 
                            "v": 11, 
                            "dur": 75.0, 
                            "type": "note", 
                            "channel": 9
                        }
                    ]
                ], 
                [
                    32463.0, 
                    [
                        {
                            "pitch": 50, 
                            "t0": 32463.0, 
                            "v": 11, 
                            "dur": 75.0, 
                            "type": "note", 
                            "channel": 9
                        }
                    ]
                ], 
                [
                    32547.0, 
                    [
                        {
                            "pitch": 50, 
                            "t0": 32547.0, 
                            "v": 11, 
                            "dur": 75.0, 
                            "type": "note", 
                            "channel": 9
                        }
                    ]
                ], 
                [
                    32629.0, 
                    [
                        {
                            "pitch": 50, 
                            "t0": 32629.0, 
                            "v": 14, 
                            "dur": 75.0, 
                            "type": "note", 
                            "channel": 9
                        }
                    ]
                ], 
                [
                    32711.0, 
                    [
                        {
                            "pitch": 50, 
                            "t0": 32711.0, 
                            "v": 10, 
                            "dur": 75.0, 
                            "type": "note", 
                            "channel": 9
                        }
                    ]
                ], 
                [
                    32793.0, 
                    [
                        {
                            "pitch": 50, 
                            "t0": 32793.0, 
                            "v": 10, 
                            "dur": 75.0, 
                            "type": "note", 
                            "channel": 9
                        }
                    ]
                ], 
                [
                    32874.0, 
                    [
                        {
                            "pitch": 50, 
                            "t0": 32874.0, 
                            "v": 10, 
                            "dur": 75.0, 
                            "type": "note", 
                            "channel": 9
                        }
                    ]
                ], 
                [
                    32955.0, 
                    [
                        {
                            "pitch": 50, 
                            "t0": 32955.0, 
                            "v": 12, 
                            "dur": 75.0, 
                            "type": "note", 
                            "channel": 9
                        }
                    ]
                ], 
                [
                    33035.0, 
                    [
                        {
                            "pitch": 50, 
                            "t0": 33035.0, 
                            "v": 9, 
                            "dur": 75.0, 
                            "type": "note", 
                            "channel": 9
                        }
                    ]
                ], 
                [
                    33115.0, 
                    [
                        {
                            "pitch": 50, 
                            "t0": 33115.0, 
                            "v": 9, 
                            "dur": 75.0, 
                            "type": "note", 
                            "channel": 9
                        }
                    ]
                ], 
                [
                    33195.0, 
                    [
                        {
                            "pitch": 50, 
                            "t0": 33195.0, 
                            "v": 9, 
                            "dur": 75.0, 
                            "type": "note", 
                            "channel": 9
                        }
                    ]
                ], 
                [
                    33274.0, 
                    [
                        {
                            "pitch": 50, 
                            "t0": 33274.0, 
                            "v": 11, 
                            "dur": 75.0, 
                            "type": "note", 
                            "channel": 9
                        }
                    ]
                ], 
                [
                    33352.0, 
                    [
                        {
                            "pitch": 50, 
                            "t0": 33352.0, 
                            "v": 8, 
                            "dur": 75.0, 
                            "type": "note", 
                            "channel": 9
                        }
                    ]
                ], 
                [
                    33430.0, 
                    [
                        {
                            "pitch": 50, 
                            "t0": 33430.0, 
                            "v": 8, 
                            "dur": 75.0, 
                            "type": "note", 
                            "channel": 9
                        }
                    ]
                ], 
                [
                    33508.0, 
                    [
                        {
                            "pitch": 50, 
                            "t0": 33508.0, 
                            "v": 8, 
                            "dur": 75.0, 
                            "type": "note", 
                            "channel": 9
                        }
                    ]
                ], 
                [
                    33585.0, 
                    [
                        {
                            "pitch": 50, 
                            "t0": 33585.0, 
                            "v": 10, 
                            "dur": 75.0, 
                            "type": "note", 
                            "channel": 9
                        }
                    ]
                ], 
                [
                    33662.0, 
                    [
                        {
                            "pitch": 50, 
                            "t0": 33662.0, 
                            "v": 7, 
                            "dur": 75.0, 
                            "type": "note", 
                            "channel": 9
                        }
                    ]
                ], 
                [
                    33738.0, 
                    [
                        {
                            "pitch": 50, 
                            "t0": 33738.0, 
                            "v": 7, 
                            "dur": 75.0, 
                            "type": "note", 
                            "channel": 9
                        }
                    ]
                ], 
                [
                    33814.0, 
                    [
                        {
                            "pitch": 50, 
                            "t0": 33814.0, 
                            "v": 7, 
                            "dur": 75.0, 
                            "type": "note", 
                            "channel": 9
                        }
                    ]
                ], 
                [
                    33889.0, 
                    [
                        {
                            "pitch": 50, 
                            "t0": 33889.0, 
                            "v": 9, 
                            "dur": 75.0, 
                            "type": "note", 
                            "channel": 9
                        }
                    ]
                ], 
                [
                    33964.0, 
                    [
                        {
                            "pitch": 50, 
                            "t0": 33964.0, 
                            "v": 7, 
                            "dur": 75.0, 
                            "type": "note", 
                            "channel": 9
                        }
                    ]
                ], 
                [
                    34039.0, 
                    [
                        {
                            "pitch": 50, 
                            "t0": 34039.0, 
                            "v": 6, 
                            "dur": 75.0, 
                            "type": "note", 
                            "channel": 9
                        }
                    ]
                ], 
                [
                    34113.0, 
                    [
                        {
                            "pitch": 50, 
                            "t0": 34113.0, 
                            "v": 6, 
                            "dur": 75.0, 
                            "type": "note", 
                            "channel": 9
                        }
                    ]
                ], 
                [
                    34187.0, 
                    [
                        {
                            "pitch": 50, 
                            "t0": 34187.0, 
                            "v": 8, 
                            "dur": 75.0, 
                            "type": "note", 
                            "channel": 9
                        }
                    ]
                ], 
                [
                    34261.0, 
                    [
                        {
                            "pitch": 50, 
                            "t0": 34261.0, 
                            "v": 6, 
                            "dur": 75.0, 
                            "type": "note", 
                            "channel": 9
                        }
                    ]
                ], 
                [
                    34334.0, 
                    [
                        {
                            "pitch": 50, 
                            "t0": 34334.0, 
                            "v": 6, 
                            "dur": 75.0, 
                            "type": "note", 
                            "channel": 9
                        }
                    ]
                ], 
                [
                    34406.0, 
                    [
                        {
                            "pitch": 50, 
                            "t0": 34406.0, 
                            "v": 5, 
                            "dur": 75.0, 
                            "type": "note", 
                            "channel": 9
                        }
                    ]
                ], 
                [
                    34479.0, 
                    [
                        {
                            "pitch": 50, 
                            "t0": 34479.0, 
                            "v": 7, 
                            "dur": 75.0, 
                            "type": "note", 
                            "channel": 9
                        }
                    ]
                ], 
                [
                    34551.0, 
                    [
                        {
                            "pitch": 50, 
                            "t0": 34551.0, 
                            "v": 5, 
                            "dur": 75.0, 
                            "type": "note", 
                            "channel": 9
                        }
                    ]
                ], 
                [
                    34622.0, 
                    [
                        {
                            "pitch": 50, 
                            "t0": 34622.0, 
                            "v": 5, 
                            "dur": 75.0, 
                            "type": "note", 
                            "channel": 9
                        }
                    ]
                ], 
                [
                    34693.0, 
                    [
                        {
                            "pitch": 50, 
                            "t0": 34693.0, 
                            "v": 5, 
                            "dur": 75.0, 
                            "type": "note", 
                            "channel": 9
                        }
                    ]
                ], 
                [
                    34764.0, 
                    [
                        {
                            "pitch": 50, 
                            "t0": 34764.0, 
                            "v": 6, 
                            "dur": 75.0, 
                            "type": "note", 
                            "channel": 9
                        }
                    ]
                ], 
                [
                    34835.0, 
                    [
                        {
                            "pitch": 50, 
                            "t0": 34835.0, 
                            "v": 4, 
                            "dur": 75.0, 
                            "type": "note", 
                            "channel": 9
                        }
                    ]
                ], 
                [
                    34905.0, 
                    [
                        {
                            "pitch": 50, 
                            "t0": 34905.0, 
                            "v": 4, 
                            "dur": 75.0, 
                            "type": "note", 
                            "channel": 9
                        }
                    ]
                ], 
                [
                    34975.0, 
                    [
                        {
                            "pitch": 50, 
                            "t0": 34975.0, 
                            "v": 4, 
                            "dur": 75.0, 
                            "type": "note", 
                            "channel": 9
                        }
                    ]
                ], 
                [
                    35044.0, 
                    [
                        {
                            "pitch": 50, 
                            "t0": 35044.0, 
                            "v": 5, 
                            "dur": 75.0, 
                            "type": "note", 
                            "channel": 9
                        }
                    ]
                ], 
                [
                    35113.0, 
                    [
                        {
                            "pitch": 50, 
                            "t0": 35113.0, 
                            "v": 4, 
                            "dur": 75.0, 
                            "type": "note", 
                            "channel": 9
                        }
                    ]
                ], 
                [
                    35182.0, 
                    [
                        {
                            "pitch": 50, 
                            "t0": 35182.0, 
                            "v": 4, 
                            "dur": 75.0, 
                            "type": "note", 
                            "channel": 9
                        }
                    ]
                ], 
                [
                    35250.0, 
                    [
                        {
                            "pitch": 50, 
                            "t0": 35250.0, 
                            "v": 4, 
                            "dur": 75.0, 
                            "type": "note", 
                            "channel": 9
                        }
                    ]
                ], 
                [
                    35318.0, 
                    [
                        {
                            "pitch": 50, 
                            "t0": 35318.0, 
                            "v": 4, 
                            "dur": 75.0, 
                            "type": "note", 
                            "channel": 9
                        }
                    ]
                ], 
                [
                    35386.0, 
                    [
                        {
                            "pitch": 50, 
                            "t0": 35386.0, 
                            "v": 3, 
                            "dur": 75.0, 
                            "type": "note", 
                            "channel": 9
                        }
                    ]
                ], 
                [
                    35453.0, 
                    [
                        {
                            "pitch": 50, 
                            "t0": 35453.0, 
                            "v": 3, 
                            "dur": 75.0, 
                            "type": "note", 
                            "channel": 9
                        }
                    ]
                ], 
                [
                    35520.0, 
                    [
                        {
                            "pitch": 50, 
                            "t0": 35520.0, 
                            "v": 3, 
                            "dur": 75.0, 
                            "type": "note", 
                            "channel": 9
                        }
                    ]
                ], 
                [
                    35587.0, 
                    [
                        {
                            "pitch": 50, 
                            "t0": 35587.0, 
                            "v": 4, 
                            "dur": 75.0, 
                            "type": "note", 
                            "channel": 9
                        }
                    ]
                ], 
                [
                    35654.0, 
                    [
                        {
                            "pitch": 50, 
                            "t0": 35654.0, 
                            "v": 3, 
                            "dur": 75.0, 
                            "type": "note", 
                            "channel": 9
                        }
                    ]
                ], 
                [
                    35720.0, 
                    [
                        {
                            "pitch": 50, 
                            "t0": 35720.0, 
                            "v": 3, 
                            "dur": 75.0, 
                            "type": "note", 
                            "channel": 9
                        }
                    ]
                ], 
                [
                    35786.0, 
                    [
                        {
                            "pitch": 50, 
                            "t0": 35786.0, 
                            "v": 3, 
                            "dur": 75.0, 
                            "type": "note", 
                            "channel": 9
                        }
                    ]
                ], 
                [
                    35851.0, 
                    [
                        {
                            "pitch": 50, 
                            "t0": 35851.0, 
                            "v": 3, 
                            "dur": 75.0, 
                            "type": "note", 
                            "channel": 9
                        }
                    ]
                ], 
                [
                    35916.0, 
                    [
                        {
                            "pitch": 50, 
                            "t0": 35916.0, 
                            "v": 2, 
                            "dur": 75.0, 
                            "type": "note", 
                            "channel": 9
                        }
                    ]
                ], 
                [
                    35981.0, 
                    [
                        {
                            "pitch": 50, 
                            "t0": 35981.0, 
                            "v": 2, 
                            "dur": 75.0, 
                            "type": "note", 
                            "channel": 9
                        }
                    ]
                ], 
                [
                    36046.0, 
                    [
                        {
                            "pitch": 50, 
                            "t0": 36046.0, 
                            "v": 2, 
                            "dur": 75.0, 
                            "type": "note", 
                            "channel": 9
                        }
                    ]
                ], 
                [
                    36110.0, 
                    [
                        {
                            "pitch": 50, 
                            "t0": 36110.0, 
                            "v": 3, 
                            "dur": 75.0, 
                            "type": "note", 
                            "channel": 9
                        }
                    ]
                ], 
                [
                    36174.0, 
                    [
                        {
                            "pitch": 50, 
                            "t0": 36174.0, 
                            "v": 2, 
                            "dur": 75.0, 
                            "type": "note", 
                            "channel": 9
                        }
                    ]
                ], 
                [
                    36238.0, 
                    [
                        {
                            "pitch": 50, 
                            "t0": 36238.0, 
                            "v": 2, 
                            "dur": 75.0, 
                            "type": "note", 
                            "channel": 9
                        }
                    ]
                ], 
                [
                    36301.0, 
                    [
                        {
                            "pitch": 50, 
                            "t0": 36301.0, 
                            "v": 2, 
                            "dur": 75.0, 
                            "type": "note", 
                            "channel": 9
                        }
                    ]
                ], 
                [
                    36364.0, 
                    [
                        {
                            "pitch": 50, 
                            "t0": 36364.0, 
                            "v": 2, 
                            "dur": 75.0, 
                            "type": "note", 
                            "channel": 9
                        }
                    ]
                ], 
                [
                    36427.0, 
                    [
                        {
                            "pitch": 50, 
                            "t0": 36427.0, 
                            "v": 2, 
                            "dur": 75.0, 
                            "type": "note", 
                            "channel": 9
                        }
                    ]
                ], 
                [
                    36489.0, 
                    [
                        {
                            "pitch": 50, 
                            "t0": 36489.0, 
                            "v": 2, 
                            "dur": 75.0, 
                            "type": "note", 
                            "channel": 9
                        }
                    ]
                ], 
                [
                    36552.0, 
                    [
                        {
                            "pitch": 50, 
                            "t0": 36552.0, 
                            "v": 1, 
                            "dur": 75.0, 
                            "type": "note", 
                            "channel": 9
                        }
                    ]
                ], 
                [
                    36614.0, 
                    [
                        {
                            "pitch": 50, 
                            "t0": 36614.0, 
                            "v": 2, 
                            "dur": 75.0, 
                            "type": "note", 
                            "channel": 9
                        }
                    ]
                ], 
                [
                    36675.0, 
                    [
                        {
                            "pitch": 50, 
                            "t0": 36675.0, 
                            "v": 1, 
                            "dur": 75.0, 
                            "type": "note", 
                            "channel": 9
                        }
                    ]
                ], 
                [
                    36737.0, 
                    [
                        {
                            "pitch": 50, 
                            "t0": 36737.0, 
                            "v": 1, 
                            "dur": 75.0, 
                            "type": "note", 
                            "channel": 9
                        }
                    ]
                ], 
                [
                    36798.0, 
                    [
                        {
                            "pitch": 50, 
                            "t0": 36798.0, 
                            "v": 1, 
                            "dur": 75.0, 
                            "type": "note", 
                            "channel": 9
                        }
                    ]
                ], 
                [
                    36859.0, 
                    [
                        {
                            "pitch": 50, 
                            "t0": 36859.0, 
                            "v": 1, 
                            "dur": 75.0, 
                            "type": "note", 
                            "channel": 9
                        }
                    ]
                ], 
                [
                    36919.0, 
                    [
                        {
                            "pitch": 50, 
                            "t0": 36919.0, 
                            "v": 1, 
                            "dur": 75.0, 
                            "type": "note", 
                            "channel": 9
                        }
                    ]
                ], 
                [
                    36980.0, 
                    [
                        {
                            "pitch": 50, 
                            "t0": 36980.0, 
                            "v": 1, 
                            "dur": 75.0, 
                            "type": "note", 
                            "channel": 9
                        }
                    ]
                ], 
                [
                    37040.0, 
                    [
                        {
                            "pitch": 50, 
                            "t0": 37040.0, 
                            "v": 1, 
                            "dur": 75.0, 
                            "type": "note", 
                            "channel": 9
                        }
                    ]
                ], 
                [
                    37100.0, 
                    [
                        {
                            "pitch": 50, 
                            "t0": 37100.0, 
                            "v": 1, 
                            "dur": 75.0, 
                            "type": "note", 
                            "channel": 9
                        }
                    ]
                ], 
                [
                    37159.0, 
                    [
                        {
                            "pitch": 50, 
                            "t0": 37159.0, 
                            "v": 1, 
                            "dur": 75.0, 
                            "type": "note", 
                            "channel": 9
                        }
                    ]
                ], 
                [
                    37219.0, 
                    [
                        {
                            "pitch": 50, 
                            "t0": 37219.0, 
                            "v": 1, 
                            "dur": 75.0, 
                            "type": "note", 
                            "channel": 9
                        }
                    ]
                ], 
                [
                    37278.0, 
                    [
                        {
                            "pitch": 50, 
                            "t0": 37278.0, 
                            "v": 1, 
                            "dur": 75.0, 
                            "type": "note", 
                            "channel": 9
                        }
                    ]
                ], 
                [
                    37336.0, 
                    [
                        {
                            "pitch": 50, 
                            "t0": 37336.0, 
                            "v": 1, 
                            "dur": 75.0, 
                            "type": "note", 
                            "channel": 9
                        }
                    ]
                ], 
                [
                    37395.0, 
                    [
                        {
                            "pitch": 50, 
                            "t0": 37395.0, 
                            "v": 1, 
                            "dur": 75.0, 
                            "type": "note", 
                            "channel": 9
                        }
                    ]
                ], 
                [
                    37453.0, 
                    [
                        {
                            "pitch": 50, 
                            "t0": 37453.0, 
                            "v": 0, 
                            "dur": 75.0, 
                            "type": "note", 
                            "channel": 9
                        }
                    ]
                ], 
                [
                    37511.0, 
                    [
                        {
                            "pitch": 50, 
                            "t0": 37511.0, 
                            "v": 0, 
                            "dur": 75.0, 
                            "type": "note", 
                            "channel": 9
                        }
                    ]
                ], 
                [
                    37569.0, 
                    [
                        {
                            "pitch": 50, 
                            "t0": 37569.0, 
                            "v": 1, 
                            "dur": 75.0, 
                            "type": "note", 
                            "channel": 9
                        }
                    ]
                ], 
                [
                    37627.0, 
                    [
                        {
                            "pitch": 50, 
                            "t0": 37627.0, 
                            "v": 0, 
                            "dur": 75.0, 
                            "type": "note", 
                            "channel": 9
                        }
                    ]
                ], 
                [
                    37684.0, 
                    [
                        {
                            "pitch": 50, 
                            "t0": 37684.0, 
                            "v": 0, 
                            "dur": 75.0, 
                            "type": "note", 
                            "channel": 9
                        }
                    ]
                ], 
                [
                    37741.0, 
                    [
                        {
                            "pitch": 50, 
                            "t0": 37741.0, 
                            "v": 0, 
                            "dur": 75.0, 
                            "type": "note", 
                            "channel": 9
                        }
                    ]
                ], 
                [
                    37798.0, 
                    [
                        {
                            "pitch": 50, 
                            "t0": 37798.0, 
                            "v": 0, 
                            "dur": 75.0, 
                            "type": "note", 
                            "channel": 9
                        }
                    ]
                ], 
                [
                    37855.0, 
                    [
                        {
                            "pitch": 50, 
                            "t0": 37855.0, 
                            "v": 0, 
                            "dur": 75.0, 
                            "type": "note", 
                            "channel": 9
                        }
                    ]
                ], 
                [
                    37911.0, 
                    [
                        {
                            "pitch": 50, 
                            "t0": 37911.0, 
                            "v": 0, 
                            "dur": 75.0, 
                            "type": "note", 
                            "channel": 9
                        }
                    ]
                ], 
                [
                    37967.0, 
                    [
                        {
                            "pitch": 50, 
                            "t0": 37967.0, 
                            "v": 0, 
                            "dur": 75.0, 
                            "type": "note", 
                            "channel": 9
                        }
                    ]
                ], 
                [
                    38023.0, 
                    [
                        {
                            "pitch": 50, 
                            "t0": 38023.0, 
                            "v": 0, 
                            "dur": 75.0, 
                            "type": "note", 
                            "channel": 9
                        }
                    ]
                ], 
                [
                    38079.0, 
                    [
                        {
                            "pitch": 50, 
                            "t0": 38079.0, 
                            "v": 0, 
                            "dur": 75.0, 
                            "type": "note", 
                            "channel": 9
                        }
                    ]
                ], 
                [
                    38135.0, 
                    [
                        {
                            "pitch": 50, 
                            "t0": 38135.0, 
                            "v": 0, 
                            "dur": 75.0, 
                            "type": "note", 
                            "channel": 9
                        }
                    ]
                ], 
                [
                    38190.0, 
                    [
                        {
                            "pitch": 50, 
                            "t0": 38190.0, 
                            "v": 0, 
                            "dur": 75.0, 
                            "type": "note", 
                            "channel": 9
                        }
                    ]
                ], 
                [
                    38245.0, 
                    [
                        {
                            "pitch": 50, 
                            "t0": 38245.0, 
                            "v": 0, 
                            "dur": 75.0, 
                            "type": "note", 
                            "channel": 9
                        }
                    ]
                ], 
                [
                    38300.0, 
                    [
                        {
                            "pitch": 50, 
                            "t0": 38300.0, 
                            "v": 0, 
                            "dur": 75.0, 
                            "type": "note", 
                            "channel": 9
                        }
                    ]
                ], 
                [
                    38354.0, 
                    [
                        {
                            "pitch": 50, 
                            "t0": 38354.0, 
                            "v": 0, 
                            "dur": 75.0, 
                            "type": "note", 
                            "channel": 9
                        }
                    ]
                ], 
                [
                    38409.0, 
                    [
                        {
                            "pitch": 50, 
                            "t0": 38409.0, 
                            "v": 0, 
                            "dur": 75.0, 
                            "type": "note", 
                            "channel": 9
                        }
                    ]
                ]
            ], 
            "instruments": [], 
            "tMax": 38484.0, 
            "channels": [], 
            "numNotes": 512, 
            "type": "TrackObj"
        }
    ], 
    "type": "MidiObj", 
    "loop": true
}