{
    "format": 0, 
    "instruments": [], 
    "resolution": 384, 
    "channels": [
        0
    ], 
    "tracks": [
        {
            "seq": [
                [
                    0, 
                    [
                        {
                            "bpm": 117.000117000117, 
                            "type": "tempo", 
                            "mpqn": 512820, 
                            "t0": 0
                        }
                    ]
                ], 
                [
                    9, 
                    [
                        {
                            "pitch": 67, 
                            "t0": 9, 
                            "v": 115, 
                            "dur": 65, 
                            "type": "note", 
                            "channel": 0
                        }
                    ]
                ], 
                [
                    12, 
                    [
                        {
                            "pitch": 31, 
                            "t0": 12, 
                            "v": 113, 
                            "dur": 49, 
                            "type": "note", 
                            "channel": 0
                        }, 
                        {
                            "pitch": 43, 
                            "t0": 12, 
                            "v": 110, 
                            "dur": 59, 
                            "type": "note", 
                            "channel": 0
                        }, 
                        {
                            "pitch": 55, 
                            "t0": 12, 
                            "v": 111, 
                            "dur": 69, 
                            "type": "note", 
                            "channel": 0
                        }
                    ]
                ], 
                [
                    125, 
                    [
                        {
                            "pitch": 55, 
                            "t0": 125, 
                            "v": 115, 
                            "dur": 70, 
                            "type": "note", 
                            "channel": 0
                        }, 
                        {
                            "pitch": 67, 
                            "t0": 125, 
                            "v": 110, 
                            "dur": 75, 
                            "type": "note", 
                            "channel": 0
                        }
                    ]
                ], 
                [
                    130, 
                    [
                        {
                            "pitch": 31, 
                            "t0": 130, 
                            "v": 103, 
                            "dur": 65, 
                            "type": "note", 
                            "channel": 0
                        }, 
                        {
                            "pitch": 43, 
                            "t0": 130, 
                            "v": 107, 
                            "dur": 70, 
                            "type": "note", 
                            "channel": 0
                        }
                    ]
                ], 
                [
                    248, 
                    [
                        {
                            "pitch": 67, 
                            "t0": 248, 
                            "v": 112, 
                            "dur": 49, 
                            "type": "note", 
                            "channel": 0
                        }, 
                        {
                            "pitch": 55, 
                            "t0": 248, 
                            "v": 111, 
                            "dur": 77, 
                            "type": "note", 
                            "channel": 0
                        }
                    ]
                ], 
                [
                    251, 
                    [
                        {
                            "pitch": 43, 
                            "t0": 251, 
                            "v": 105, 
                            "dur": 63, 
                            "type": "note", 
                            "channel": 0
                        }, 
                        {
                            "pitch": 31, 
                            "t0": 251, 
                            "v": 107, 
                            "dur": 68, 
                            "type": "note", 
                            "channel": 0
                        }
                    ]
                ], 
                [
                    404, 
                    [
                        {
                            "pitch": 39, 
                            "t0": 404, 
                            "v": 121, 
                            "dur": 1783, 
                            "type": "note", 
                            "channel": 0
                        }, 
                        {
                            "pitch": 63, 
                            "t0": 404, 
                            "v": 116, 
                            "dur": 1805, 
                            "type": "note", 
                            "channel": 0
                        }
                    ]
                ], 
                [
                    407, 
                    [
                        {
                            "pitch": 51, 
                            "t0": 407, 
                            "v": 119, 
                            "dur": 1776, 
                            "type": "note", 
                            "channel": 0
                        }, 
                        {
                            "pitch": 27, 
                            "t0": 407, 
                            "v": 120, 
                            "dur": 1784, 
                            "type": "note", 
                            "channel": 0
                        }
                    ]
                ], 
                [
                    2590, 
                    [
                        {
                            "pitch": 65, 
                            "t0": 2590, 
                            "v": 121, 
                            "dur": 67, 
                            "type": "note", 
                            "channel": 0
                        }, 
                        {
                            "pitch": 53, 
                            "t0": 2590, 
                            "v": 120, 
                            "dur": 78, 
                            "type": "note", 
                            "channel": 0
                        }, 
                        {
                            "pitch": 29, 
                            "t0": 2590, 
                            "v": 117, 
                            "dur": 78, 
                            "type": "note", 
                            "channel": 0
                        }, 
                        {
                            "pitch": 41, 
                            "t0": 2590, 
                            "v": 114, 
                            "dur": 84, 
                            "type": "note", 
                            "channel": 0
                        }
                    ]
                ], 
                [
                    2718, 
                    [
                        {
                            "pitch": 65, 
                            "t0": 2718, 
                            "v": 111, 
                            "dur": 70, 
                            "type": "note", 
                            "channel": 0
                        }, 
                        {
                            "pitch": 53, 
                            "t0": 2718, 
                            "v": 113, 
                            "dur": 76, 
                            "type": "note", 
                            "channel": 0
                        }
                    ]
                ], 
                [
                    2726, 
                    [
                        {
                            "pitch": 41, 
                            "t0": 2726, 
                            "v": 109, 
                            "dur": 73, 
                            "type": "note", 
                            "channel": 0
                        }, 
                        {
                            "pitch": 29, 
                            "t0": 2726, 
                            "v": 108, 
                            "dur": 73, 
                            "type": "note", 
                            "channel": 0
                        }
                    ]
                ], 
                [
                    2847, 
                    [
                        {
                            "pitch": 65, 
                            "t0": 2847, 
                            "v": 103, 
                            "dur": 67, 
                            "type": "note", 
                            "channel": 0
                        }, 
                        {
                            "pitch": 53, 
                            "t0": 2847, 
                            "v": 111, 
                            "dur": 88, 
                            "type": "note", 
                            "channel": 0
                        }
                    ]
                ], 
                [
                    2854, 
                    [
                        {
                            "pitch": 29, 
                            "t0": 2854, 
                            "v": 108, 
                            "dur": 73, 
                            "type": "note", 
                            "channel": 0
                        }, 
                        {
                            "pitch": 41, 
                            "t0": 2854, 
                            "v": 106, 
                            "dur": 73, 
                            "type": "note", 
                            "channel": 0
                        }
                    ]
                ], 
                [
                    3008, 
                    [
                        {
                            "pitch": 50, 
                            "t0": 3008, 
                            "v": 123, 
                            "dur": 1688, 
                            "type": "note", 
                            "channel": 0
                        }, 
                        {
                            "pitch": 62, 
                            "t0": 3008, 
                            "v": 119, 
                            "dur": 1869, 
                            "type": "note", 
                            "channel": 0
                        }
                    ]
                ], 
                [
                    3016, 
                    [
                        {
                            "pitch": 38, 
                            "t0": 3016, 
                            "v": 124, 
                            "dur": 1614, 
                            "type": "note", 
                            "channel": 0
                        }, 
                        {
                            "pitch": 26, 
                            "t0": 3016, 
                            "v": 124, 
                            "dur": 1680, 
                            "type": "note", 
                            "channel": 0
                        }
                    ]
                ], 
                [
                    5382, 
                    [
                        {
                            "pitch": 67, 
                            "t0": 5382, 
                            "v": 52, 
                            "dur": 64, 
                            "type": "note", 
                            "channel": 0
                        }
                    ]
                ], 
                [
                    5513, 
                    [
                        {
                            "pitch": 67, 
                            "t0": 5513, 
                            "v": 85, 
                            "dur": 74, 
                            "type": "note", 
                            "channel": 0
                        }
                    ]
                ], 
                [
                    5646, 
                    [
                        {
                            "pitch": 67, 
                            "t0": 5646, 
                            "v": 93, 
                            "dur": 83, 
                            "type": "note", 
                            "channel": 0
                        }
                    ]
                ], 
                [
                    5775, 
                    [
                        {
                            "pitch": 63, 
                            "t0": 5775, 
                            "v": 62, 
                            "dur": 2159, 
                            "type": "note", 
                            "channel": 0
                        }
                    ]
                ], 
                [
                    5791, 
                    [
                        {
                            "pitch": 60, 
                            "t0": 5791, 
                            "v": 54, 
                            "dur": 2140, 
                            "type": "note", 
                            "channel": 0
                        }
                    ]
                ], 
                [
                    5914, 
                    [
                        {
                            "pitch": 68, 
                            "t0": 5914, 
                            "v": 83, 
                            "dur": 69, 
                            "type": "note", 
                            "channel": 0
                        }
                    ]
                ], 
                [
                    6048, 
                    [
                        {
                            "pitch": 68, 
                            "t0": 6048, 
                            "v": 74, 
                            "dur": 86, 
                            "type": "note", 
                            "channel": 0
                        }
                    ]
                ], 
                [
                    6183, 
                    [
                        {
                            "pitch": 68, 
                            "t0": 6183, 
                            "v": 81, 
                            "dur": 53, 
                            "type": "note", 
                            "channel": 0
                        }
                    ]
                ], 
                [
                    6337, 
                    [
                        {
                            "pitch": 67, 
                            "t0": 6337, 
                            "v": 87, 
                            "dur": 906, 
                            "type": "note", 
                            "channel": 0
                        }
                    ]
                ], 
                [
                    6481, 
                    [
                        {
                            "pitch": 75, 
                            "t0": 6481, 
                            "v": 67, 
                            "dur": 35, 
                            "type": "note", 
                            "channel": 0
                        }
                    ]
                ], 
                [
                    6608, 
                    [
                        {
                            "pitch": 75, 
                            "t0": 6608, 
                            "v": 73, 
                            "dur": 38, 
                            "type": "note", 
                            "channel": 0
                        }
                    ]
                ], 
                [
                    6743, 
                    [
                        {
                            "pitch": 75, 
                            "t0": 6743, 
                            "v": 70, 
                            "dur": 35, 
                            "type": "note", 
                            "channel": 0
                        }
                    ]
                ], 
                [
                    6900, 
                    [
                        {
                            "pitch": 72, 
                            "t0": 6900, 
                            "v": 68, 
                            "dur": 591, 
                            "type": "note", 
                            "channel": 0
                        }
                    ]
                ], 
                [
                    7661, 
                    [
                        {
                            "pitch": 67, 
                            "t0": 7661, 
                            "v": 50, 
                            "dur": 43, 
                            "type": "note", 
                            "channel": 0
                        }
                    ]
                ], 
                [
                    7785, 
                    [
                        {
                            "pitch": 67, 
                            "t0": 7785, 
                            "v": 57, 
                            "dur": 57, 
                            "type": "note", 
                            "channel": 0
                        }
                    ]
                ], 
                [
                    7910, 
                    [
                        {
                            "pitch": 67, 
                            "t0": 7910, 
                            "v": 78, 
                            "dur": 81, 
                            "type": "note", 
                            "channel": 0
                        }
                    ]
                ], 
                [
                    8048, 
                    [
                        {
                            "pitch": 59, 
                            "t0": 8048, 
                            "v": 56, 
                            "dur": 2136, 
                            "type": "note", 
                            "channel": 0
                        }
                    ]
                ], 
                [
                    8053, 
                    [
                        {
                            "pitch": 62, 
                            "t0": 8053, 
                            "v": 69, 
                            "dur": 2122, 
                            "type": "note", 
                            "channel": 0
                        }
                    ]
                ], 
                [
                    8195, 
                    [
                        {
                            "pitch": 68, 
                            "t0": 8195, 
                            "v": 84, 
                            "dur": 61, 
                            "type": "note", 
                            "channel": 0
                        }
                    ]
                ], 
                [
                    8332, 
                    [
                        {
                            "pitch": 68, 
                            "t0": 8332, 
                            "v": 79, 
                            "dur": 81, 
                            "type": "note", 
                            "channel": 0
                        }
                    ]
                ], 
                [
                    8460, 
                    [
                        {
                            "pitch": 68, 
                            "t0": 8460, 
                            "v": 87, 
                            "dur": 81, 
                            "type": "note", 
                            "channel": 0
                        }
                    ]
                ], 
                [
                    8605, 
                    [
                        {
                            "pitch": 67, 
                            "t0": 8605, 
                            "v": 81, 
                            "dur": 1932, 
                            "type": "note", 
                            "channel": 0
                        }
                    ]
                ], 
                [
                    8747, 
                    [
                        {
                            "pitch": 77, 
                            "t0": 8747, 
                            "v": 85, 
                            "dur": 36, 
                            "type": "note", 
                            "channel": 0
                        }
                    ]
                ], 
                [
                    8869, 
                    [
                        {
                            "pitch": 77, 
                            "t0": 8869, 
                            "v": 85, 
                            "dur": 54, 
                            "type": "note", 
                            "channel": 0
                        }
                    ]
                ], 
                [
                    9003, 
                    [
                        {
                            "pitch": 77, 
                            "t0": 9003, 
                            "v": 76, 
                            "dur": 42, 
                            "type": "note", 
                            "channel": 0
                        }
                    ]
                ], 
                [
                    9178, 
                    [
                        {
                            "pitch": 74, 
                            "t0": 9178, 
                            "v": 77, 
                            "dur": 745, 
                            "type": "note", 
                            "channel": 0
                        }
                    ]
                ], 
                [
                    9900, 
                    [
                        {
                            "pitch": 79, 
                            "t0": 9900, 
                            "v": 73, 
                            "dur": 39, 
                            "type": "note", 
                            "channel": 0
                        }
                    ]
                ], 
                [
                    10037, 
                    [
                        {
                            "pitch": 79, 
                            "t0": 10037, 
                            "v": 66, 
                            "dur": 47, 
                            "type": "note", 
                            "channel": 0
                        }
                    ]
                ], 
                [
                    10175, 
                    [
                        {
                            "pitch": 77, 
                            "t0": 10175, 
                            "v": 77, 
                            "dur": 35, 
                            "type": "note", 
                            "channel": 0
                        }
                    ]
                ], 
                [
                    10315, 
                    [
                        {
                            "pitch": 63, 
                            "t0": 10315, 
                            "v": 61, 
                            "dur": 36, 
                            "type": "note", 
                            "channel": 0
                        }
                    ]
                ], 
                [
                    10323, 
                    [
                        {
                            "pitch": 60, 
                            "t0": 10323, 
                            "v": 57, 
                            "dur": 441, 
                            "type": "note", 
                            "channel": 0
                        }, 
                        {
                            "pitch": 75, 
                            "t0": 10323, 
                            "v": 66, 
                            "dur": 574, 
                            "type": "note", 
                            "channel": 0
                        }
                    ]
                ], 
                [
                    10459, 
                    [
                        {
                            "pitch": 63, 
                            "t0": 10459, 
                            "v": 62, 
                            "dur": 46, 
                            "type": "note", 
                            "channel": 0
                        }
                    ]
                ], 
                [
                    10580, 
                    [
                        {
                            "pitch": 63, 
                            "t0": 10580, 
                            "v": 68, 
                            "dur": 102, 
                            "type": "note", 
                            "channel": 0
                        }
                    ]
                ], 
                [
                    10719, 
                    [
                        {
                            "pitch": 65, 
                            "t0": 10719, 
                            "v": 88, 
                            "dur": 161, 
                            "type": "note", 
                            "channel": 0
                        }
                    ]
                ], 
                [
                    10877, 
                    [
                        {
                            "pitch": 74, 
                            "t0": 10877, 
                            "v": 86, 
                            "dur": 82, 
                            "type": "note", 
                            "channel": 0
                        }, 
                        {
                            "pitch": 59, 
                            "t0": 10877, 
                            "v": 58, 
                            "dur": 422, 
                            "type": "note", 
                            "channel": 0
                        }
                    ]
                ], 
                [
                    10880, 
                    [
                        {
                            "pitch": 67, 
                            "t0": 10880, 
                            "v": 78, 
                            "dur": 655, 
                            "type": "note", 
                            "channel": 0
                        }
                    ]
                ], 
                [
                    11019, 
                    [
                        {
                            "pitch": 79, 
                            "t0": 11019, 
                            "v": 98, 
                            "dur": 57, 
                            "type": "note", 
                            "channel": 0
                        }
                    ]
                ], 
                [
                    11139, 
                    [
                        {
                            "pitch": 79, 
                            "t0": 11139, 
                            "v": 102, 
                            "dur": 78, 
                            "type": "note", 
                            "channel": 0
                        }
                    ]
                ], 
                [
                    11270, 
                    [
                        {
                            "pitch": 77, 
                            "t0": 11270, 
                            "v": 104, 
                            "dur": 75, 
                            "type": "note", 
                            "channel": 0
                        }
                    ]
                ], 
                [
                    11395, 
                    [
                        {
                            "pitch": 60, 
                            "t0": 11395, 
                            "v": 78, 
                            "dur": 408, 
                            "type": "note", 
                            "channel": 0
                        }
                    ]
                ], 
                [
                    11401, 
                    [
                        {
                            "pitch": 75, 
                            "t0": 11401, 
                            "v": 94, 
                            "dur": 547, 
                            "type": "note", 
                            "channel": 0
                        }
                    ]
                ], 
                [
                    11519, 
                    [
                        {
                            "pitch": 63, 
                            "t0": 11519, 
                            "v": 84, 
                            "dur": 69, 
                            "type": "note", 
                            "channel": 0
                        }
                    ]
                ], 
                [
                    11669, 
                    [
                        {
                            "pitch": 63, 
                            "t0": 11669, 
                            "v": 68, 
                            "dur": 123, 
                            "type": "note", 
                            "channel": 0
                        }
                    ]
                ], 
                [
                    11795, 
                    [
                        {
                            "pitch": 65, 
                            "t0": 11795, 
                            "v": 92, 
                            "dur": 52, 
                            "type": "note", 
                            "channel": 0
                        }
                    ]
                ], 
                [
                    11933, 
                    [
                        {
                            "pitch": 67, 
                            "t0": 11933, 
                            "v": 76, 
                            "dur": 31, 
                            "type": "note", 
                            "channel": 0
                        }
                    ]
                ], 
                [
                    11944, 
                    [
                        {
                            "pitch": 59, 
                            "t0": 11944, 
                            "v": 55, 
                            "dur": 31, 
                            "type": "note", 
                            "channel": 0
                        }, 
                        {
                            "pitch": 74, 
                            "t0": 11944, 
                            "v": 95, 
                            "dur": 48, 
                            "type": "note", 
                            "channel": 0
                        }
                    ]
                ], 
                [
                    12075, 
                    [
                        {
                            "pitch": 79, 
                            "t0": 12075, 
                            "v": 111, 
                            "dur": 64, 
                            "type": "note", 
                            "channel": 0
                        }, 
                        {
                            "pitch": 67, 
                            "t0": 12075, 
                            "v": 113, 
                            "dur": 68, 
                            "type": "note", 
                            "channel": 0
                        }, 
                        {
                            "pitch": 74, 
                            "t0": 12075, 
                            "v": 103, 
                            "dur": 75, 
                            "type": "note", 
                            "channel": 0
                        }
                    ]
                ], 
                [
                    12081, 
                    [
                        {
                            "pitch": 59, 
                            "t0": 12081, 
                            "v": 82, 
                            "dur": 25, 
                            "type": "note", 
                            "channel": 0
                        }, 
                        {
                            "pitch": 55, 
                            "t0": 12081, 
                            "v": 98, 
                            "dur": 33, 
                            "type": "note", 
                            "channel": 0
                        }
                    ]
                ], 
                [
                    12086, 
                    [
                        {
                            "pitch": 47, 
                            "t0": 12086, 
                            "v": 86, 
                            "dur": 25, 
                            "type": "note", 
                            "channel": 0
                        }
                    ]
                ], 
                [
                    12195, 
                    [
                        {
                            "pitch": 79, 
                            "t0": 12195, 
                            "v": 103, 
                            "dur": 93, 
                            "type": "note", 
                            "channel": 0
                        }
                    ]
                ], 
                [
                    12199, 
                    [
                        {
                            "pitch": 67, 
                            "t0": 12199, 
                            "v": 106, 
                            "dur": 63, 
                            "type": "note", 
                            "channel": 0
                        }, 
                        {
                            "pitch": 74, 
                            "t0": 12199, 
                            "v": 108, 
                            "dur": 66, 
                            "type": "note", 
                            "channel": 0
                        }
                    ]
                ], 
                [
                    12206, 
                    [
                        {
                            "pitch": 47, 
                            "t0": 12206, 
                            "v": 81, 
                            "dur": 42, 
                            "type": "note", 
                            "channel": 0
                        }, 
                        {
                            "pitch": 59, 
                            "t0": 12206, 
                            "v": 90, 
                            "dur": 42, 
                            "type": "note", 
                            "channel": 0
                        }, 
                        {
                            "pitch": 55, 
                            "t0": 12206, 
                            "v": 89, 
                            "dur": 56, 
                            "type": "note", 
                            "channel": 0
                        }
                    ]
                ], 
                [
                    12329, 
                    [
                        {
                            "pitch": 59, 
                            "t0": 12329, 
                            "v": 85, 
                            "dur": 70, 
                            "type": "note", 
                            "channel": 0
                        }, 
                        {
                            "pitch": 55, 
                            "t0": 12329, 
                            "v": 85, 
                            "dur": 79, 
                            "type": "note", 
                            "channel": 0
                        }
                    ]
                ], 
                [
                    12334, 
                    [
                        {
                            "pitch": 47, 
                            "t0": 12334, 
                            "v": 81, 
                            "dur": 71, 
                            "type": "note", 
                            "channel": 0
                        }, 
                        {
                            "pitch": 74, 
                            "t0": 12334, 
                            "v": 97, 
                            "dur": 71, 
                            "type": "note", 
                            "channel": 0
                        }
                    ]
                ], 
                [
                    12337, 
                    [
                        {
                            "pitch": 67, 
                            "t0": 12337, 
                            "v": 99, 
                            "dur": 71, 
                            "type": "note", 
                            "channel": 0
                        }, 
                        {
                            "pitch": 77, 
                            "t0": 12337, 
                            "v": 113, 
                            "dur": 96, 
                            "type": "note", 
                            "channel": 0
                        }
                    ]
                ], 
                [
                    12482, 
                    [
                        {
                            "pitch": 67, 
                            "t0": 12482, 
                            "v": 105, 
                            "dur": 99, 
                            "type": "note", 
                            "channel": 0
                        }, 
                        {
                            "pitch": 72, 
                            "t0": 12482, 
                            "v": 115, 
                            "dur": 99, 
                            "type": "note", 
                            "channel": 0
                        }, 
                        {
                            "pitch": 75, 
                            "t0": 12482, 
                            "v": 115, 
                            "dur": 132, 
                            "type": "note", 
                            "channel": 0
                        }
                    ]
                ], 
                [
                    12485, 
                    [
                        {
                            "pitch": 60, 
                            "t0": 12485, 
                            "v": 117, 
                            "dur": 84, 
                            "type": "note", 
                            "channel": 0
                        }, 
                        {
                            "pitch": 55, 
                            "t0": 12485, 
                            "v": 91, 
                            "dur": 108, 
                            "type": "note", 
                            "channel": 0
                        }
                    ]
                ], 
                [
                    12488, 
                    [
                        {
                            "pitch": 48, 
                            "t0": 12488, 
                            "v": 112, 
                            "dur": 93, 
                            "type": "note", 
                            "channel": 0
                        }
                    ]
                ], 
                [
                    13047, 
                    [
                        {
                            "pitch": 56, 
                            "t0": 13047, 
                            "v": 103, 
                            "dur": 79, 
                            "type": "note", 
                            "channel": 0
                        }, 
                        {
                            "pitch": 72, 
                            "t0": 13047, 
                            "v": 120, 
                            "dur": 117, 
                            "type": "note", 
                            "channel": 0
                        }
                    ]
                ], 
                [
                    13050, 
                    [
                        {
                            "pitch": 60, 
                            "t0": 13050, 
                            "v": 114, 
                            "dur": 70, 
                            "type": "note", 
                            "channel": 0
                        }
                    ]
                ], 
                [
                    13053, 
                    [
                        {
                            "pitch": 44, 
                            "t0": 13053, 
                            "v": 92, 
                            "dur": 67, 
                            "type": "note", 
                            "channel": 0
                        }, 
                        {
                            "pitch": 66, 
                            "t0": 13053, 
                            "v": 103, 
                            "dur": 73, 
                            "type": "note", 
                            "channel": 0
                        }
                    ]
                ], 
                [
                    13062, 
                    [
                        {
                            "pitch": 48, 
                            "t0": 13062, 
                            "v": 99, 
                            "dur": 42, 
                            "type": "note", 
                            "channel": 0
                        }
                    ]
                ], 
                [
                    13742, 
                    [
                        {
                            "pitch": 79, 
                            "t0": 13742, 
                            "v": 121, 
                            "dur": 1333, 
                            "type": "note", 
                            "channel": 0
                        }
                    ]
                ], 
                [
                    13747, 
                    [
                        {
                            "pitch": 67, 
                            "t0": 13747, 
                            "v": 119, 
                            "dur": 200, 
                            "type": "note", 
                            "channel": 0
                        }, 
                        {
                            "pitch": 55, 
                            "t0": 13747, 
                            "v": 107, 
                            "dur": 214, 
                            "type": "note", 
                            "channel": 0
                        }, 
                        {
                            "pitch": 71, 
                            "t0": 13747, 
                            "v": 106, 
                            "dur": 253, 
                            "type": "note", 
                            "channel": 0
                        }
                    ]
                ], 
                [
                    13750, 
                    [
                        {
                            "pitch": 50, 
                            "t0": 13750, 
                            "v": 103, 
                            "dur": 228, 
                            "type": "note", 
                            "channel": 0
                        }, 
                        {
                            "pitch": 43, 
                            "t0": 13750, 
                            "v": 103, 
                            "dur": 236, 
                            "type": "note", 
                            "channel": 0
                        }
                    ]
                ], 
                [
                    15922, 
                    [
                        {
                            "pitch": 56, 
                            "t0": 15922, 
                            "v": 114, 
                            "dur": 62, 
                            "type": "note", 
                            "channel": 0
                        }
                    ]
                ], 
                [
                    15925, 
                    [
                        {
                            "pitch": 44, 
                            "t0": 15925, 
                            "v": 111, 
                            "dur": 59, 
                            "type": "note", 
                            "channel": 0
                        }, 
                        {
                            "pitch": 68, 
                            "t0": 15925, 
                            "v": 114, 
                            "dur": 59, 
                            "type": "note", 
                            "channel": 0
                        }
                    ]
                ], 
                [
                    15928, 
                    [
                        {
                            "pitch": 32, 
                            "t0": 15928, 
                            "v": 110, 
                            "dur": 62, 
                            "type": "note", 
                            "channel": 0
                        }
                    ]
                ], 
                [
                    16048, 
                    [
                        {
                            "pitch": 56, 
                            "t0": 16048, 
                            "v": 103, 
                            "dur": 75, 
                            "type": "note", 
                            "channel": 0
                        }, 
                        {
                            "pitch": 68, 
                            "t0": 16048, 
                            "v": 106, 
                            "dur": 80, 
                            "type": "note", 
                            "channel": 0
                        }
                    ]
                ], 
                [
                    16056, 
                    [
                        {
                            "pitch": 44, 
                            "t0": 16056, 
                            "v": 96, 
                            "dur": 67, 
                            "type": "note", 
                            "channel": 0
                        }
                    ]
                ], 
                [
                    16059, 
                    [
                        {
                            "pitch": 32, 
                            "t0": 16059, 
                            "v": 92, 
                            "dur": 58, 
                            "type": "note", 
                            "channel": 0
                        }
                    ]
                ], 
                [
                    16168, 
                    [
                        {
                            "pitch": 68, 
                            "t0": 16168, 
                            "v": 111, 
                            "dur": 81, 
                            "type": "note", 
                            "channel": 0
                        }, 
                        {
                            "pitch": 56, 
                            "t0": 16168, 
                            "v": 112, 
                            "dur": 89, 
                            "type": "note", 
                            "channel": 0
                        }
                    ]
                ], 
                [
                    16176, 
                    [
                        {
                            "pitch": 44, 
                            "t0": 16176, 
                            "v": 105, 
                            "dur": 73, 
                            "type": "note", 
                            "channel": 0
                        }, 
                        {
                            "pitch": 32, 
                            "t0": 16176, 
                            "v": 97, 
                            "dur": 73, 
                            "type": "note", 
                            "channel": 0
                        }
                    ]
                ], 
                [
                    16324, 
                    [
                        {
                            "pitch": 41, 
                            "t0": 16324, 
                            "v": 118, 
                            "dur": 1683, 
                            "type": "note", 
                            "channel": 0
                        }, 
                        {
                            "pitch": 29, 
                            "t0": 16324, 
                            "v": 120, 
                            "dur": 1803, 
                            "type": "note", 
                            "channel": 0
                        }
                    ]
                ], 
                [
                    16329, 
                    [
                        {
                            "pitch": 53, 
                            "t0": 16329, 
                            "v": 121, 
                            "dur": 1643, 
                            "type": "note", 
                            "channel": 0
                        }, 
                        {
                            "pitch": 65, 
                            "t0": 16329, 
                            "v": 121, 
                            "dur": 2062, 
                            "type": "note", 
                            "channel": 0
                        }
                    ]
                ], 
                [
                    18748, 
                    [
                        {
                            "pitch": 68, 
                            "t0": 18748, 
                            "v": 64, 
                            "dur": 44, 
                            "type": "note", 
                            "channel": 0
                        }
                    ]
                ], 
                [
                    18886, 
                    [
                        {
                            "pitch": 68, 
                            "t0": 18886, 
                            "v": 67, 
                            "dur": 43, 
                            "type": "note", 
                            "channel": 0
                        }
                    ]
                ], 
                [
                    19015, 
                    [
                        {
                            "pitch": 68, 
                            "t0": 19015, 
                            "v": 62, 
                            "dur": 44, 
                            "type": "note", 
                            "channel": 0
                        }
                    ]
                ], 
                [
                    19160, 
                    [
                        {
                            "pitch": 65, 
                            "t0": 19160, 
                            "v": 76, 
                            "dur": 1669, 
                            "type": "note", 
                            "channel": 0
                        }
                    ]
                ], 
                [
                    19299, 
                    [
                        {
                            "pitch": 62, 
                            "t0": 19299, 
                            "v": 67, 
                            "dur": 44, 
                            "type": "note", 
                            "channel": 0
                        }
                    ]
                ], 
                [
                    19433, 
                    [
                        {
                            "pitch": 62, 
                            "t0": 19433, 
                            "v": 67, 
                            "dur": 55, 
                            "type": "note", 
                            "channel": 0
                        }
                    ]
                ], 
                [
                    19558, 
                    [
                        {
                            "pitch": 62, 
                            "t0": 19558, 
                            "v": 75, 
                            "dur": 61, 
                            "type": "note", 
                            "channel": 0
                        }
                    ]
                ], 
                [
                    19706, 
                    [
                        {
                            "pitch": 59, 
                            "t0": 19706, 
                            "v": 70, 
                            "dur": 891, 
                            "type": "note", 
                            "channel": 0
                        }
                    ]
                ], 
                [
                    19825, 
                    [
                        {
                            "pitch": 56, 
                            "t0": 19825, 
                            "v": 73, 
                            "dur": 47, 
                            "type": "note", 
                            "channel": 0
                        }
                    ]
                ], 
                [
                    19957, 
                    [
                        {
                            "pitch": 56, 
                            "t0": 19957, 
                            "v": 66, 
                            "dur": 61, 
                            "type": "note", 
                            "channel": 0
                        }
                    ]
                ], 
                [
                    20107, 
                    [
                        {
                            "pitch": 56, 
                            "t0": 20107, 
                            "v": 49, 
                            "dur": 39, 
                            "type": "note", 
                            "channel": 0
                        }
                    ]
                ], 
                [
                    20240, 
                    [
                        {
                            "pitch": 55, 
                            "t0": 20240, 
                            "v": 67, 
                            "dur": 586, 
                            "type": "note", 
                            "channel": 0
                        }
                    ]
                ], 
                [
                    20377, 
                    [
                        {
                            "pitch": 43, 
                            "t0": 20377, 
                            "v": 70, 
                            "dur": 36, 
                            "type": "note", 
                            "channel": 0
                        }
                    ]
                ], 
                [
                    20380, 
                    [
                        {
                            "pitch": 31, 
                            "t0": 20380, 
                            "v": 52, 
                            "dur": 39, 
                            "type": "note", 
                            "channel": 0
                        }
                    ]
                ], 
                [
                    20505, 
                    [
                        {
                            "pitch": 31, 
                            "t0": 20505, 
                            "v": 63, 
                            "dur": 36, 
                            "type": "note", 
                            "channel": 0
                        }
                    ]
                ], 
                [
                    20516, 
                    [
                        {
                            "pitch": 43, 
                            "t0": 20516, 
                            "v": 56, 
                            "dur": 44, 
                            "type": "note", 
                            "channel": 0
                        }
                    ]
                ], 
                [
                    20650, 
                    [
                        {
                            "pitch": 43, 
                            "t0": 20650, 
                            "v": 63, 
                            "dur": 36, 
                            "type": "note", 
                            "channel": 0
                        }
                    ]
                ], 
                [
                    20664, 
                    [
                        {
                            "pitch": 31, 
                            "t0": 20664, 
                            "v": 48, 
                            "dur": 41, 
                            "type": "note", 
                            "channel": 0
                        }
                    ]
                ], 
                [
                    20808, 
                    [
                        {
                            "pitch": 63, 
                            "t0": 20808, 
                            "v": 62, 
                            "dur": 67, 
                            "type": "note", 
                            "channel": 0
                        }
                    ]
                ], 
                [
                    20815, 
                    [
                        {
                            "pitch": 48, 
                            "t0": 20815, 
                            "v": 54, 
                            "dur": 191, 
                            "type": "note", 
                            "channel": 0
                        }
                    ]
                ], 
                [
                    20818, 
                    [
                        {
                            "pitch": 36, 
                            "t0": 20818, 
                            "v": 55, 
                            "dur": 185, 
                            "type": "note", 
                            "channel": 0
                        }
                    ]
                ], 
                [
                    20837, 
                    [
                        {
                            "pitch": 60, 
                            "t0": 20837, 
                            "v": 35, 
                            "dur": 52, 
                            "type": "note", 
                            "channel": 0
                        }
                    ]
                ], 
                [
                    20968, 
                    [
                        {
                            "pitch": 68, 
                            "t0": 20968, 
                            "v": 78, 
                            "dur": 44, 
                            "type": "note", 
                            "channel": 0
                        }
                    ]
                ], 
                [
                    21095, 
                    [
                        {
                            "pitch": 68, 
                            "t0": 21095, 
                            "v": 87, 
                            "dur": 74, 
                            "type": "note", 
                            "channel": 0
                        }
                    ]
                ], 
                [
                    21219, 
                    [
                        {
                            "pitch": 68, 
                            "t0": 21219, 
                            "v": 92, 
                            "dur": 58, 
                            "type": "note", 
                            "channel": 0
                        }
                    ]
                ], 
                [
                    21368, 
                    [
                        {
                            "pitch": 65, 
                            "t0": 21368, 
                            "v": 96, 
                            "dur": 1667, 
                            "type": "note", 
                            "channel": 0
                        }
                    ]
                ], 
                [
                    21506, 
                    [
                        {
                            "pitch": 62, 
                            "t0": 21506, 
                            "v": 78, 
                            "dur": 36, 
                            "type": "note", 
                            "channel": 0
                        }
                    ]
                ], 
                [
                    21647, 
                    [
                        {
                            "pitch": 62, 
                            "t0": 21647, 
                            "v": 79, 
                            "dur": 37, 
                            "type": "note", 
                            "channel": 0
                        }
                    ]
                ], 
                [
                    21789, 
                    [
                        {
                            "pitch": 62, 
                            "t0": 21789, 
                            "v": 75, 
                            "dur": 40, 
                            "type": "note", 
                            "channel": 0
                        }
                    ]
                ], 
                [
                    21926, 
                    [
                        {
                            "pitch": 59, 
                            "t0": 21926, 
                            "v": 68, 
                            "dur": 906, 
                            "type": "note", 
                            "channel": 0
                        }
                    ]
                ], 
                [
                    22056, 
                    [
                        {
                            "pitch": 56, 
                            "t0": 22056, 
                            "v": 70, 
                            "dur": 48, 
                            "type": "note", 
                            "channel": 0
                        }
                    ]
                ], 
                [
                    22199, 
                    [
                        {
                            "pitch": 56, 
                            "t0": 22199, 
                            "v": 53, 
                            "dur": 47, 
                            "type": "note", 
                            "channel": 0
                        }
                    ]
                ], 
                [
                    22341, 
                    [
                        {
                            "pitch": 56, 
                            "t0": 22341, 
                            "v": 47, 
                            "dur": 62, 
                            "type": "note", 
                            "channel": 0
                        }
                    ]
                ], 
                [
                    22491, 
                    [
                        {
                            "pitch": 55, 
                            "t0": 22491, 
                            "v": 62, 
                            "dur": 526, 
                            "type": "note", 
                            "channel": 0
                        }
                    ]
                ], 
                [
                    22612, 
                    [
                        {
                            "pitch": 31, 
                            "t0": 22612, 
                            "v": 69, 
                            "dur": 36, 
                            "type": "note", 
                            "channel": 0
                        }, 
                        {
                            "pitch": 43, 
                            "t0": 22612, 
                            "v": 66, 
                            "dur": 36, 
                            "type": "note", 
                            "channel": 0
                        }
                    ]
                ], 
                [
                    22754, 
                    [
                        {
                            "pitch": 43, 
                            "t0": 22754, 
                            "v": 54, 
                            "dur": 39, 
                            "type": "note", 
                            "channel": 0
                        }
                    ]
                ], 
                [
                    22757, 
                    [
                        {
                            "pitch": 31, 
                            "t0": 22757, 
                            "v": 44, 
                            "dur": 39, 
                            "type": "note", 
                            "channel": 0
                        }
                    ]
                ], 
                [
                    22868, 
                    [
                        {
                            "pitch": 31, 
                            "t0": 22868, 
                            "v": 63, 
                            "dur": 32, 
                            "type": "note", 
                            "channel": 0
                        }
                    ]
                ], 
                [
                    22876, 
                    [
                        {
                            "pitch": 43, 
                            "t0": 22876, 
                            "v": 54, 
                            "dur": 39, 
                            "type": "note", 
                            "channel": 0
                        }
                    ]
                ], 
                [
                    23040, 
                    [
                        {
                            "pitch": 63, 
                            "t0": 23040, 
                            "v": 58, 
                            "dur": 37, 
                            "type": "note", 
                            "channel": 0
                        }
                    ]
                ], 
                [
                    23045, 
                    [
                        {
                            "pitch": 36, 
                            "t0": 23045, 
                            "v": 49, 
                            "dur": 335, 
                            "type": "note", 
                            "channel": 0
                        }
                    ]
                ], 
                [
                    23048, 
                    [
                        {
                            "pitch": 48, 
                            "t0": 23048, 
                            "v": 33, 
                            "dur": 307, 
                            "type": "note", 
                            "channel": 0
                        }
                    ]
                ], 
                [
                    23057, 
                    [
                        {
                            "pitch": 60, 
                            "t0": 23057, 
                            "v": 22, 
                            "dur": 39, 
                            "type": "note", 
                            "channel": 0
                        }
                    ]
                ], 
                [
                    23187, 
                    [
                        {
                            "pitch": 63, 
                            "t0": 23187, 
                            "v": 57, 
                            "dur": 45, 
                            "type": "note", 
                            "channel": 0
                        }
                    ]
                ], 
                [
                    23201, 
                    [
                        {
                            "pitch": 67, 
                            "t0": 23201, 
                            "v": 65, 
                            "dur": 39, 
                            "type": "note", 
                            "channel": 0
                        }
                    ]
                ], 
                [
                    23318, 
                    [
                        {
                            "pitch": 63, 
                            "t0": 23318, 
                            "v": 65, 
                            "dur": 42, 
                            "type": "note", 
                            "channel": 0
                        }, 
                        {
                            "pitch": 67, 
                            "t0": 23318, 
                            "v": 66, 
                            "dur": 57, 
                            "type": "note", 
                            "channel": 0
                        }
                    ]
                ], 
                [
                    23322, 
                    [
                        {
                            "pitch": 72, 
                            "t0": 23322, 
                            "v": 87, 
                            "dur": 47, 
                            "type": "note", 
                            "channel": 0
                        }
                    ]
                ], 
                [
                    23449, 
                    [
                        {
                            "pitch": 67, 
                            "t0": 23449, 
                            "v": 75, 
                            "dur": 42, 
                            "type": "note", 
                            "channel": 0
                        }, 
                        {
                            "pitch": 63, 
                            "t0": 23449, 
                            "v": 65, 
                            "dur": 50, 
                            "type": "note", 
                            "channel": 0
                        }, 
                        {
                            "pitch": 72, 
                            "t0": 23449, 
                            "v": 81, 
                            "dur": 67, 
                            "type": "note", 
                            "channel": 0
                        }
                    ]
                ], 
                [
                    23608, 
                    [
                        {
                            "pitch": 72, 
                            "t0": 23608, 
                            "v": 91, 
                            "dur": 593, 
                            "type": "note", 
                            "channel": 0
                        }
                    ]
                ], 
                [
                    23612, 
                    [
                        {
                            "pitch": 62, 
                            "t0": 23612, 
                            "v": 74, 
                            "dur": 595, 
                            "type": "note", 
                            "channel": 0
                        }, 
                        {
                            "pitch": 68, 
                            "t0": 23612, 
                            "v": 64, 
                            "dur": 634, 
                            "type": "note", 
                            "channel": 0
                        }
                    ]
                ], 
                [
                    23619, 
                    [
                        {
                            "pitch": 65, 
                            "t0": 23619, 
                            "v": 67, 
                            "dur": 588, 
                            "type": "note", 
                            "channel": 0
                        }
                    ]
                ], 
                [
                    23745, 
                    [
                        {
                            "pitch": 36, 
                            "t0": 23745, 
                            "v": 79, 
                            "dur": 34, 
                            "type": "note", 
                            "channel": 0
                        }, 
                        {
                            "pitch": 48, 
                            "t0": 23745, 
                            "v": 82, 
                            "dur": 40, 
                            "type": "note", 
                            "channel": 0
                        }
                    ]
                ], 
                [
                    23882, 
                    [
                        {
                            "pitch": 48, 
                            "t0": 23882, 
                            "v": 71, 
                            "dur": 52, 
                            "type": "note", 
                            "channel": 0
                        }
                    ]
                ], 
                [
                    23885, 
                    [
                        {
                            "pitch": 36, 
                            "t0": 23885, 
                            "v": 67, 
                            "dur": 49, 
                            "type": "note", 
                            "channel": 0
                        }
                    ]
                ], 
                [
                    24027, 
                    [
                        {
                            "pitch": 48, 
                            "t0": 24027, 
                            "v": 69, 
                            "dur": 57, 
                            "type": "note", 
                            "channel": 0
                        }
                    ]
                ], 
                [
                    24034, 
                    [
                        {
                            "pitch": 36, 
                            "t0": 24034, 
                            "v": 66, 
                            "dur": 40, 
                            "type": "note", 
                            "channel": 0
                        }
                    ]
                ], 
                [
                    24182, 
                    [
                        {
                            "pitch": 48, 
                            "t0": 24182, 
                            "v": 63, 
                            "dur": 340, 
                            "type": "note", 
                            "channel": 0
                        }
                    ]
                ], 
                [
                    24188, 
                    [
                        {
                            "pitch": 71, 
                            "t0": 24188, 
                            "v": 59, 
                            "dur": 66, 
                            "type": "note", 
                            "channel": 0
                        }
                    ]
                ], 
                [
                    24194, 
                    [
                        {
                            "pitch": 36, 
                            "t0": 24194, 
                            "v": 61, 
                            "dur": 319, 
                            "type": "note", 
                            "channel": 0
                        }
                    ]
                ], 
                [
                    24314, 
                    [
                        {
                            "pitch": 71, 
                            "t0": 24314, 
                            "v": 83, 
                            "dur": 83, 
                            "type": "note", 
                            "channel": 0
                        }
                    ]
                ], 
                [
                    24319, 
                    [
                        {
                            "pitch": 68, 
                            "t0": 24319, 
                            "v": 66, 
                            "dur": 72, 
                            "type": "note", 
                            "channel": 0
                        }
                    ]
                ], 
                [
                    24330, 
                    [
                        {
                            "pitch": 65, 
                            "t0": 24330, 
                            "v": 93, 
                            "dur": 34, 
                            "type": "note", 
                            "channel": 0
                        }
                    ]
                ], 
                [
                    24449, 
                    [
                        {
                            "pitch": 68, 
                            "t0": 24449, 
                            "v": 78, 
                            "dur": 64, 
                            "type": "note", 
                            "channel": 0
                        }, 
                        {
                            "pitch": 71, 
                            "t0": 24449, 
                            "v": 90, 
                            "dur": 67, 
                            "type": "note", 
                            "channel": 0
                        }
                    ]
                ], 
                [
                    24453, 
                    [
                        {
                            "pitch": 65, 
                            "t0": 24453, 
                            "v": 80, 
                            "dur": 50, 
                            "type": "note", 
                            "channel": 0
                        }
                    ]
                ], 
                [
                    24584, 
                    [
                        {
                            "pitch": 74, 
                            "t0": 24584, 
                            "v": 104, 
                            "dur": 44, 
                            "type": "note", 
                            "channel": 0
                        }
                    ]
                ], 
                [
                    24587, 
                    [
                        {
                            "pitch": 65, 
                            "t0": 24587, 
                            "v": 83, 
                            "dur": 41, 
                            "type": "note", 
                            "channel": 0
                        }, 
                        {
                            "pitch": 68, 
                            "t0": 24587, 
                            "v": 79, 
                            "dur": 69, 
                            "type": "note", 
                            "channel": 0
                        }
                    ]
                ], 
                [
                    24731, 
                    [
                        {
                            "pitch": 74, 
                            "t0": 24731, 
                            "v": 103, 
                            "dur": 555, 
                            "type": "note", 
                            "channel": 0
                        }, 
                        {
                            "pitch": 63, 
                            "t0": 24731, 
                            "v": 90, 
                            "dur": 580, 
                            "type": "note", 
                            "channel": 0
                        }
                    ]
                ], 
                [
                    24739, 
                    [
                        {
                            "pitch": 67, 
                            "t0": 24739, 
                            "v": 87, 
                            "dur": 586, 
                            "type": "note", 
                            "channel": 0
                        }
                    ]
                ], 
                [
                    24859, 
                    [
                        {
                            "pitch": 48, 
                            "t0": 24859, 
                            "v": 88, 
                            "dur": 44, 
                            "type": "note", 
                            "channel": 0
                        }
                    ]
                ], 
                [
                    24862, 
                    [
                        {
                            "pitch": 36, 
                            "t0": 24862, 
                            "v": 85, 
                            "dur": 36, 
                            "type": "note", 
                            "channel": 0
                        }
                    ]
                ], 
                [
                    25004, 
                    [
                        {
                            "pitch": 48, 
                            "t0": 25004, 
                            "v": 74, 
                            "dur": 41, 
                            "type": "note", 
                            "channel": 0
                        }
                    ]
                ], 
                [
                    25015, 
                    [
                        {
                            "pitch": 36, 
                            "t0": 25015, 
                            "v": 65, 
                            "dur": 33, 
                            "type": "note", 
                            "channel": 0
                        }
                    ]
                ], 
                [
                    25147, 
                    [
                        {
                            "pitch": 48, 
                            "t0": 25147, 
                            "v": 68, 
                            "dur": 39, 
                            "type": "note", 
                            "channel": 0
                        }
                    ]
                ], 
                [
                    25152, 
                    [
                        {
                            "pitch": 36, 
                            "t0": 25152, 
                            "v": 55, 
                            "dur": 44, 
                            "type": "note", 
                            "channel": 0
                        }
                    ]
                ], 
                [
                    25280, 
                    [
                        {
                            "pitch": 72, 
                            "t0": 25280, 
                            "v": 75, 
                            "dur": 38, 
                            "type": "note", 
                            "channel": 0
                        }
                    ]
                ], 
                [
                    25311, 
                    [
                        {
                            "pitch": 48, 
                            "t0": 25311, 
                            "v": 53, 
                            "dur": 39, 
                            "type": "note", 
                            "channel": 0
                        }, 
                        {
                            "pitch": 36, 
                            "t0": 25311, 
                            "v": 36, 
                            "dur": 50, 
                            "type": "note", 
                            "channel": 0
                        }
                    ]
                ], 
                [
                    25411, 
                    [
                        {
                            "pitch": 63, 
                            "t0": 25411, 
                            "v": 62, 
                            "dur": 49, 
                            "type": "note", 
                            "channel": 0
                        }
                    ]
                ], 
                [
                    25419, 
                    [
                        {
                            "pitch": 72, 
                            "t0": 25419, 
                            "v": 68, 
                            "dur": 41, 
                            "type": "note", 
                            "channel": 0
                        }, 
                        {
                            "pitch": 67, 
                            "t0": 25419, 
                            "v": 50, 
                            "dur": 47, 
                            "type": "note", 
                            "channel": 0
                        }
                    ]
                ], 
                [
                    25550, 
                    [
                        {
                            "pitch": 63, 
                            "t0": 25550, 
                            "v": 62, 
                            "dur": 80, 
                            "type": "note", 
                            "channel": 0
                        }, 
                        {
                            "pitch": 72, 
                            "t0": 25550, 
                            "v": 78, 
                            "dur": 103, 
                            "type": "note", 
                            "channel": 0
                        }
                    ]
                ], 
                [
                    25555, 
                    [
                        {
                            "pitch": 67, 
                            "t0": 25555, 
                            "v": 55, 
                            "dur": 53, 
                            "type": "note", 
                            "channel": 0
                        }
                    ]
                ], 
                [
                    25559, 
                    [
                        {
                            "pitch": 60, 
                            "t0": 25559, 
                            "v": 69, 
                            "dur": 49, 
                            "type": "note", 
                            "channel": 0
                        }
                    ]
                ], 
                [
                    25567, 
                    [
                        {
                            "pitch": 51, 
                            "t0": 25567, 
                            "v": 70, 
                            "dur": 119, 
                            "type": "note", 
                            "channel": 0
                        }
                    ]
                ], 
                [
                    25586, 
                    [
                        {
                            "pitch": 55, 
                            "t0": 25586, 
                            "v": 58, 
                            "dur": 47, 
                            "type": "note", 
                            "channel": 0
                        }
                    ]
                ], 
                [
                    25686, 
                    [
                        {
                            "pitch": 48, 
                            "t0": 25686, 
                            "v": 81, 
                            "dur": 31, 
                            "type": "note", 
                            "channel": 0
                        }, 
                        {
                            "pitch": 75, 
                            "t0": 25686, 
                            "v": 88, 
                            "dur": 59, 
                            "type": "note", 
                            "channel": 0
                        }
                    ]
                ], 
                [
                    25826, 
                    [
                        {
                            "pitch": 75, 
                            "t0": 25826, 
                            "v": 98, 
                            "dur": 144, 
                            "type": "note", 
                            "channel": 0
                        }
                    ]
                ], 
                [
                    25834, 
                    [
                        {
                            "pitch": 65, 
                            "t0": 25834, 
                            "v": 95, 
                            "dur": 104, 
                            "type": "note", 
                            "channel": 0
                        }, 
                        {
                            "pitch": 68, 
                            "t0": 25834, 
                            "v": 84, 
                            "dur": 154, 
                            "type": "note", 
                            "channel": 0
                        }
                    ]
                ], 
                [
                    25840, 
                    [
                        {
                            "pitch": 48, 
                            "t0": 25840, 
                            "v": 100, 
                            "dur": 28, 
                            "type": "note", 
                            "channel": 0
                        }
                    ]
                ], 
                [
                    25845, 
                    [
                        {
                            "pitch": 36, 
                            "t0": 25845, 
                            "v": 88, 
                            "dur": 23, 
                            "type": "note", 
                            "channel": 0
                        }
                    ]
                ], 
                [
                    25979, 
                    [
                        {
                            "pitch": 74, 
                            "t0": 25979, 
                            "v": 88, 
                            "dur": 33, 
                            "type": "note", 
                            "channel": 0
                        }
                    ]
                ], 
                [
                    26112, 
                    [
                        {
                            "pitch": 68, 
                            "t0": 26112, 
                            "v": 70, 
                            "dur": 51, 
                            "type": "note", 
                            "channel": 0
                        }, 
                        {
                            "pitch": 74, 
                            "t0": 26112, 
                            "v": 88, 
                            "dur": 88, 
                            "type": "note", 
                            "channel": 0
                        }
                    ]
                ], 
                [
                    26116, 
                    [
                        {
                            "pitch": 65, 
                            "t0": 26116, 
                            "v": 77, 
                            "dur": 61, 
                            "type": "note", 
                            "channel": 0
                        }
                    ]
                ], 
                [
                    26124, 
                    [
                        {
                            "pitch": 59, 
                            "t0": 26124, 
                            "v": 63, 
                            "dur": 39, 
                            "type": "note", 
                            "channel": 0
                        }
                    ]
                ], 
                [
                    26132, 
                    [
                        {
                            "pitch": 56, 
                            "t0": 26132, 
                            "v": 64, 
                            "dur": 54, 
                            "type": "note", 
                            "channel": 0
                        }
                    ]
                ], 
                [
                    26149, 
                    [
                        {
                            "pitch": 53, 
                            "t0": 26149, 
                            "v": 50, 
                            "dur": 47, 
                            "type": "note", 
                            "channel": 0
                        }
                    ]
                ], 
                [
                    26244, 
                    [
                        {
                            "pitch": 48, 
                            "t0": 26244, 
                            "v": 70, 
                            "dur": 33, 
                            "type": "note", 
                            "channel": 0
                        }, 
                        {
                            "pitch": 77, 
                            "t0": 26244, 
                            "v": 97, 
                            "dur": 33, 
                            "type": "note", 
                            "channel": 0
                        }
                    ]
                ], 
                [
                    26381, 
                    [
                        {
                            "pitch": 67, 
                            "t0": 26381, 
                            "v": 101, 
                            "dur": 146, 
                            "type": "note", 
                            "channel": 0
                        }, 
                        {
                            "pitch": 77, 
                            "t0": 26381, 
                            "v": 114, 
                            "dur": 155, 
                            "type": "note", 
                            "channel": 0
                        }, 
                        {
                            "pitch": 70, 
                            "t0": 26381, 
                            "v": 103, 
                            "dur": 180, 
                            "type": "note", 
                            "channel": 0
                        }
                    ]
                ], 
                [
                    26386, 
                    [
                        {
                            "pitch": 36, 
                            "t0": 26386, 
                            "v": 106, 
                            "dur": 19, 
                            "type": "note", 
                            "channel": 0
                        }
                    ]
                ], 
                [
                    26391, 
                    [
                        {
                            "pitch": 48, 
                            "t0": 26391, 
                            "v": 100, 
                            "dur": 28, 
                            "type": "note", 
                            "channel": 0
                        }
                    ]
                ], 
                [
                    26527, 
                    [
                        {
                            "pitch": 76, 
                            "t0": 26527, 
                            "v": 96, 
                            "dur": 51, 
                            "type": "note", 
                            "channel": 0
                        }
                    ]
                ], 
                [
                    26656, 
                    [
                        {
                            "pitch": 58, 
                            "t0": 26656, 
                            "v": 95, 
                            "dur": 64, 
                            "type": "note", 
                            "channel": 0
                        }, 
                        {
                            "pitch": 76, 
                            "t0": 26656, 
                            "v": 95, 
                            "dur": 100, 
                            "type": "note", 
                            "channel": 0
                        }
                    ]
                ], 
                [
                    26668, 
                    [
                        {
                            "pitch": 70, 
                            "t0": 26668, 
                            "v": 79, 
                            "dur": 52, 
                            "type": "note", 
                            "channel": 0
                        }, 
                        {
                            "pitch": 67, 
                            "t0": 26668, 
                            "v": 68, 
                            "dur": 60, 
                            "type": "note", 
                            "channel": 0
                        }, 
                        {
                            "pitch": 55, 
                            "t0": 26668, 
                            "v": 75, 
                            "dur": 60, 
                            "type": "note", 
                            "channel": 0
                        }
                    ]
                ], 
                [
                    26787, 
                    [
                        {
                            "pitch": 48, 
                            "t0": 26787, 
                            "v": 92, 
                            "dur": 27, 
                            "type": "note", 
                            "channel": 0
                        }, 
                        {
                            "pitch": 79, 
                            "t0": 26787, 
                            "v": 101, 
                            "dur": 50, 
                            "type": "note", 
                            "channel": 0
                        }
                    ]
                ], 
                [
                    26924, 
                    [
                        {
                            "pitch": 79, 
                            "t0": 26924, 
                            "v": 105, 
                            "dur": 153, 
                            "type": "note", 
                            "channel": 0
                        }, 
                        {
                            "pitch": 68, 
                            "t0": 26924, 
                            "v": 98, 
                            "dur": 166, 
                            "type": "note", 
                            "channel": 0
                        }
                    ]
                ], 
                [
                    26934, 
                    [
                        {
                            "pitch": 72, 
                            "t0": 26934, 
                            "v": 99, 
                            "dur": 182, 
                            "type": "note", 
                            "channel": 0
                        }
                    ]
                ], 
                [
                    26938, 
                    [
                        {
                            "pitch": 48, 
                            "t0": 26938, 
                            "v": 103, 
                            "dur": 28, 
                            "type": "note", 
                            "channel": 0
                        }
                    ]
                ], 
                [
                    26941, 
                    [
                        {
                            "pitch": 36, 
                            "t0": 26941, 
                            "v": 102, 
                            "dur": 21, 
                            "type": "note", 
                            "channel": 0
                        }
                    ]
                ], 
                [
                    27066, 
                    [
                        {
                            "pitch": 77, 
                            "t0": 27066, 
                            "v": 100, 
                            "dur": 86, 
                            "type": "note", 
                            "channel": 0
                        }
                    ]
                ], 
                [
                    27197, 
                    [
                        {
                            "pitch": 68, 
                            "t0": 27197, 
                            "v": 86, 
                            "dur": 83, 
                            "type": "note", 
                            "channel": 0
                        }, 
                        {
                            "pitch": 56, 
                            "t0": 27197, 
                            "v": 78, 
                            "dur": 91, 
                            "type": "note", 
                            "channel": 0
                        }
                    ]
                ], 
                [
                    27202, 
                    [
                        {
                            "pitch": 53, 
                            "t0": 27202, 
                            "v": 73, 
                            "dur": 62, 
                            "type": "note", 
                            "channel": 0
                        }
                    ]
                ], 
                [
                    27208, 
                    [
                        {
                            "pitch": 72, 
                            "t0": 27208, 
                            "v": 65, 
                            "dur": 56, 
                            "type": "note", 
                            "channel": 0
                        }, 
                        {
                            "pitch": 77, 
                            "t0": 27208, 
                            "v": 105, 
                            "dur": 95, 
                            "type": "note", 
                            "channel": 0
                        }
                    ]
                ], 
                [
                    27333, 
                    [
                        {
                            "pitch": 48, 
                            "t0": 27333, 
                            "v": 80, 
                            "dur": 28, 
                            "type": "note", 
                            "channel": 0
                        }, 
                        {
                            "pitch": 80, 
                            "t0": 27333, 
                            "v": 100, 
                            "dur": 69, 
                            "type": "note", 
                            "channel": 0
                        }
                    ]
                ], 
                [
                    27472, 
                    [
                        {
                            "pitch": 70, 
                            "t0": 27472, 
                            "v": 112, 
                            "dur": 109, 
                            "type": "note", 
                            "channel": 0
                        }, 
                        {
                            "pitch": 80, 
                            "t0": 27472, 
                            "v": 96, 
                            "dur": 168, 
                            "type": "note", 
                            "channel": 0
                        }
                    ]
                ], 
                [
                    27478, 
                    [
                        {
                            "pitch": 36, 
                            "t0": 27478, 
                            "v": 105, 
                            "dur": 25, 
                            "type": "note", 
                            "channel": 0
                        }, 
                        {
                            "pitch": 48, 
                            "t0": 27478, 
                            "v": 110, 
                            "dur": 59, 
                            "type": "note", 
                            "channel": 0
                        }, 
                        {
                            "pitch": 76, 
                            "t0": 27478, 
                            "v": 104, 
                            "dur": 165, 
                            "type": "note", 
                            "channel": 0
                        }
                    ]
                ], 
                [
                    27617, 
                    [
                        {
                            "pitch": 79, 
                            "t0": 27617, 
                            "v": 100, 
                            "dur": 45, 
                            "type": "note", 
                            "channel": 0
                        }
                    ]
                ], 
                [
                    27743, 
                    [
                        {
                            "pitch": 79, 
                            "t0": 27743, 
                            "v": 96, 
                            "dur": 102, 
                            "type": "note", 
                            "channel": 0
                        }
                    ]
                ], 
                [
                    27750, 
                    [
                        {
                            "pitch": 70, 
                            "t0": 27750, 
                            "v": 88, 
                            "dur": 40, 
                            "type": "note", 
                            "channel": 0
                        }
                    ]
                ], 
                [
                    27753, 
                    [
                        {
                            "pitch": 55, 
                            "t0": 27753, 
                            "v": 82, 
                            "dur": 37, 
                            "type": "note", 
                            "channel": 0
                        }
                    ]
                ], 
                [
                    27760, 
                    [
                        {
                            "pitch": 76, 
                            "t0": 27760, 
                            "v": 71, 
                            "dur": 33, 
                            "type": "note", 
                            "channel": 0
                        }
                    ]
                ], 
                [
                    27768, 
                    [
                        {
                            "pitch": 52, 
                            "t0": 27768, 
                            "v": 75, 
                            "dur": 50, 
                            "type": "note", 
                            "channel": 0
                        }
                    ]
                ], 
                [
                    27868, 
                    [
                        {
                            "pitch": 82, 
                            "t0": 27868, 
                            "v": 106, 
                            "dur": 67, 
                            "type": "note", 
                            "channel": 0
                        }
                    ]
                ], 
                [
                    27881, 
                    [
                        {
                            "pitch": 48, 
                            "t0": 27881, 
                            "v": 88, 
                            "dur": 25, 
                            "type": "note", 
                            "channel": 0
                        }
                    ]
                ], 
                [
                    28007, 
                    [
                        {
                            "pitch": 82, 
                            "t0": 28007, 
                            "v": 112, 
                            "dur": 184, 
                            "type": "note", 
                            "channel": 0
                        }
                    ]
                ], 
                [
                    28011, 
                    [
                        {
                            "pitch": 72, 
                            "t0": 28011, 
                            "v": 109, 
                            "dur": 158, 
                            "type": "note", 
                            "channel": 0
                        }, 
                        {
                            "pitch": 77, 
                            "t0": 28011, 
                            "v": 111, 
                            "dur": 183, 
                            "type": "note", 
                            "channel": 0
                        }
                    ]
                ], 
                [
                    28018, 
                    [
                        {
                            "pitch": 36, 
                            "t0": 28018, 
                            "v": 110, 
                            "dur": 23, 
                            "type": "note", 
                            "channel": 0
                        }, 
                        {
                            "pitch": 48, 
                            "t0": 28018, 
                            "v": 103, 
                            "dur": 45, 
                            "type": "note", 
                            "channel": 0
                        }
                    ]
                ], 
                [
                    28046, 
                    [
                        {
                            "pitch": 47, 
                            "t0": 28046, 
                            "v": 40, 
                            "dur": 37, 
                            "type": "note", 
                            "channel": 0
                        }
                    ]
                ], 
                [
                    28158, 
                    [
                        {
                            "pitch": 80, 
                            "t0": 28158, 
                            "v": 99, 
                            "dur": 84, 
                            "type": "note", 
                            "channel": 0
                        }
                    ]
                ], 
                [
                    28282, 
                    [
                        {
                            "pitch": 56, 
                            "t0": 28282, 
                            "v": 84, 
                            "dur": 76, 
                            "type": "note", 
                            "channel": 0
                        }, 
                        {
                            "pitch": 72, 
                            "t0": 28282, 
                            "v": 101, 
                            "dur": 93, 
                            "type": "note", 
                            "channel": 0
                        }, 
                        {
                            "pitch": 80, 
                            "t0": 28282, 
                            "v": 111, 
                            "dur": 145, 
                            "type": "note", 
                            "channel": 0
                        }
                    ]
                ], 
                [
                    28285, 
                    [
                        {
                            "pitch": 77, 
                            "t0": 28285, 
                            "v": 92, 
                            "dur": 90, 
                            "type": "note", 
                            "channel": 0
                        }
                    ]
                ], 
                [
                    28300, 
                    [
                        {
                            "pitch": 53, 
                            "t0": 28300, 
                            "v": 76, 
                            "dur": 58, 
                            "type": "note", 
                            "channel": 0
                        }
                    ]
                ], 
                [
                    28406, 
                    [
                        {
                            "pitch": 48, 
                            "t0": 28406, 
                            "v": 95, 
                            "dur": 25, 
                            "type": "note", 
                            "channel": 0
                        }
                    ]
                ], 
                [
                    28409, 
                    [
                        {
                            "pitch": 84, 
                            "t0": 28409, 
                            "v": 105, 
                            "dur": 68, 
                            "type": "note", 
                            "channel": 0
                        }
                    ]
                ], 
                [
                    28537, 
                    [
                        {
                            "pitch": 84, 
                            "t0": 28537, 
                            "v": 110, 
                            "dur": 153, 
                            "type": "note", 
                            "channel": 0
                        }, 
                        {
                            "pitch": 80, 
                            "t0": 28537, 
                            "v": 104, 
                            "dur": 195, 
                            "type": "note", 
                            "channel": 0
                        }
                    ]
                ], 
                [
                    28542, 
                    [
                        {
                            "pitch": 74, 
                            "t0": 28542, 
                            "v": 109, 
                            "dur": 158, 
                            "type": "note", 
                            "channel": 0
                        }, 
                        {
                            "pitch": 77, 
                            "t0": 28542, 
                            "v": 105, 
                            "dur": 176, 
                            "type": "note", 
                            "channel": 0
                        }
                    ]
                ], 
                [
                    28547, 
                    [
                        {
                            "pitch": 36, 
                            "t0": 28547, 
                            "v": 111, 
                            "dur": 17, 
                            "type": "note", 
                            "channel": 0
                        }, 
                        {
                            "pitch": 48, 
                            "t0": 28547, 
                            "v": 114, 
                            "dur": 23, 
                            "type": "note", 
                            "channel": 0
                        }
                    ]
                ], 
                [
                    28678, 
                    [
                        {
                            "pitch": 83, 
                            "t0": 28678, 
                            "v": 91, 
                            "dur": 68, 
                            "type": "note", 
                            "channel": 0
                        }
                    ]
                ], 
                [
                    28801, 
                    [
                        {
                            "pitch": 83, 
                            "t0": 28801, 
                            "v": 92, 
                            "dur": 106, 
                            "type": "note", 
                            "channel": 0
                        }, 
                        {
                            "pitch": 80, 
                            "t0": 28801, 
                            "v": 91, 
                            "dur": 122, 
                            "type": "note", 
                            "channel": 0
                        }
                    ]
                ], 
                [
                    28807, 
                    [
                        {
                            "pitch": 77, 
                            "t0": 28807, 
                            "v": 95, 
                            "dur": 52, 
                            "type": "note", 
                            "channel": 0
                        }, 
                        {
                            "pitch": 74, 
                            "t0": 28807, 
                            "v": 105, 
                            "dur": 130, 
                            "type": "note", 
                            "channel": 0
                        }
                    ]
                ], 
                [
                    28817, 
                    [
                        {
                            "pitch": 59, 
                            "t0": 28817, 
                            "v": 82, 
                            "dur": 70, 
                            "type": "note", 
                            "channel": 0
                        }
                    ]
                ], 
                [
                    28823, 
                    [
                        {
                            "pitch": 53, 
                            "t0": 28823, 
                            "v": 76, 
                            "dur": 68, 
                            "type": "note", 
                            "channel": 0
                        }
                    ]
                ], 
                [
                    28826, 
                    [
                        {
                            "pitch": 56, 
                            "t0": 28826, 
                            "v": 73, 
                            "dur": 97, 
                            "type": "note", 
                            "channel": 0
                        }
                    ]
                ], 
                [
                    28927, 
                    [
                        {
                            "pitch": 48, 
                            "t0": 28927, 
                            "v": 67, 
                            "dur": 35, 
                            "type": "note", 
                            "channel": 0
                        }
                    ]
                ], 
                [
                    28949, 
                    [
                        {
                            "pitch": 86, 
                            "t0": 28949, 
                            "v": 95, 
                            "dur": 30, 
                            "type": "note", 
                            "channel": 0
                        }
                    ]
                ], 
                [
                    29085, 
                    [
                        {
                            "pitch": 75, 
                            "t0": 29085, 
                            "v": 97, 
                            "dur": 37, 
                            "type": "note", 
                            "channel": 0
                        }, 
                        {
                            "pitch": 72, 
                            "t0": 29085, 
                            "v": 103, 
                            "dur": 37, 
                            "type": "note", 
                            "channel": 0
                        }, 
                        {
                            "pitch": 84, 
                            "t0": 29085, 
                            "v": 110, 
                            "dur": 56, 
                            "type": "note", 
                            "channel": 0
                        }
                    ]
                ], 
                [
                    29089, 
                    [
                        {
                            "pitch": 48, 
                            "t0": 29089, 
                            "v": 115, 
                            "dur": 71, 
                            "type": "note", 
                            "channel": 0
                        }
                    ]
                ], 
                [
                    29093, 
                    [
                        {
                            "pitch": 36, 
                            "t0": 29093, 
                            "v": 110, 
                            "dur": 25, 
                            "type": "note", 
                            "channel": 0
                        }, 
                        {
                            "pitch": 43, 
                            "t0": 29093, 
                            "v": 100, 
                            "dur": 32, 
                            "type": "note", 
                            "channel": 0
                        }
                    ]
                ], 
                [
                    29225, 
                    [
                        {
                            "pitch": 75, 
                            "t0": 29225, 
                            "v": 113, 
                            "dur": 61, 
                            "type": "note", 
                            "channel": 0
                        }
                    ]
                ], 
                [
                    29228, 
                    [
                        {
                            "pitch": 87, 
                            "t0": 29228, 
                            "v": 113, 
                            "dur": 80, 
                            "type": "note", 
                            "channel": 0
                        }
                    ]
                ], 
                [
                    29369, 
                    [
                        {
                            "pitch": 75, 
                            "t0": 29369, 
                            "v": 95, 
                            "dur": 37, 
                            "type": "note", 
                            "channel": 0
                        }, 
                        {
                            "pitch": 87, 
                            "t0": 29369, 
                            "v": 100, 
                            "dur": 64, 
                            "type": "note", 
                            "channel": 0
                        }
                    ]
                ], 
                [
                    29495, 
                    [
                        {
                            "pitch": 87, 
                            "t0": 29495, 
                            "v": 99, 
                            "dur": 31, 
                            "type": "note", 
                            "channel": 0
                        }
                    ]
                ], 
                [
                    29498, 
                    [
                        {
                            "pitch": 75, 
                            "t0": 29498, 
                            "v": 106, 
                            "dur": 71, 
                            "type": "note", 
                            "channel": 0
                        }
                    ]
                ], 
                [
                    29632, 
                    [
                        {
                            "pitch": 72, 
                            "t0": 29632, 
                            "v": 122, 
                            "dur": 52, 
                            "type": "note", 
                            "channel": 0
                        }
                    ]
                ], 
                [
                    29640, 
                    [
                        {
                            "pitch": 60, 
                            "t0": 29640, 
                            "v": 99, 
                            "dur": 30, 
                            "type": "note", 
                            "channel": 0
                        }
                    ]
                ], 
                [
                    29643, 
                    [
                        {
                            "pitch": 63, 
                            "t0": 29643, 
                            "v": 98, 
                            "dur": 75, 
                            "type": "note", 
                            "channel": 0
                        }
                    ]
                ], 
                [
                    29647, 
                    [
                        {
                            "pitch": 67, 
                            "t0": 29647, 
                            "v": 103, 
                            "dur": 28, 
                            "type": "note", 
                            "channel": 0
                        }
                    ]
                ], 
                [
                    29764, 
                    [
                        {
                            "pitch": 79, 
                            "t0": 29764, 
                            "v": 108, 
                            "dur": 74, 
                            "type": "note", 
                            "channel": 0
                        }
                    ]
                ], 
                [
                    29771, 
                    [
                        {
                            "pitch": 67, 
                            "t0": 29771, 
                            "v": 101, 
                            "dur": 38, 
                            "type": "note", 
                            "channel": 0
                        }
                    ]
                ], 
                [
                    29899, 
                    [
                        {
                            "pitch": 79, 
                            "t0": 29899, 
                            "v": 103, 
                            "dur": 72, 
                            "type": "note", 
                            "channel": 0
                        }
                    ]
                ], 
                [
                    29902, 
                    [
                        {
                            "pitch": 67, 
                            "t0": 29902, 
                            "v": 95, 
                            "dur": 55, 
                            "type": "note", 
                            "channel": 0
                        }
                    ]
                ], 
                [
                    30035, 
                    [
                        {
                            "pitch": 67, 
                            "t0": 30035, 
                            "v": 98, 
                            "dur": 65, 
                            "type": "note", 
                            "channel": 0
                        }
                    ]
                ], 
                [
                    30040, 
                    [
                        {
                            "pitch": 79, 
                            "t0": 30040, 
                            "v": 88, 
                            "dur": 25, 
                            "type": "note", 
                            "channel": 0
                        }
                    ]
                ], 
                [
                    30175, 
                    [
                        {
                            "pitch": 63, 
                            "t0": 30175, 
                            "v": 112, 
                            "dur": 60, 
                            "type": "note", 
                            "channel": 0
                        }
                    ]
                ], 
                [
                    30183, 
                    [
                        {
                            "pitch": 60, 
                            "t0": 30183, 
                            "v": 105, 
                            "dur": 30, 
                            "type": "note", 
                            "channel": 0
                        }, 
                        {
                            "pitch": 55, 
                            "t0": 30183, 
                            "v": 103, 
                            "dur": 44, 
                            "type": "note", 
                            "channel": 0
                        }
                    ]
                ], 
                [
                    30292, 
                    [
                        {
                            "pitch": 72, 
                            "t0": 30292, 
                            "v": 110, 
                            "dur": 27, 
                            "type": "note", 
                            "channel": 0
                        }, 
                        {
                            "pitch": 60, 
                            "t0": 30292, 
                            "v": 89, 
                            "dur": 72, 
                            "type": "note", 
                            "channel": 0
                        }
                    ]
                ], 
                [
                    30430, 
                    [
                        {
                            "pitch": 67, 
                            "t0": 30430, 
                            "v": 103, 
                            "dur": 32, 
                            "type": "note", 
                            "channel": 0
                        }, 
                        {
                            "pitch": 55, 
                            "t0": 30430, 
                            "v": 93, 
                            "dur": 53, 
                            "type": "note", 
                            "channel": 0
                        }
                    ]
                ], 
                [
                    30559, 
                    [
                        {
                            "pitch": 55, 
                            "t0": 30559, 
                            "v": 97, 
                            "dur": 75, 
                            "type": "note", 
                            "channel": 0
                        }
                    ]
                ], 
                [
                    30570, 
                    [
                        {
                            "pitch": 67, 
                            "t0": 30570, 
                            "v": 98, 
                            "dur": 23, 
                            "type": "note", 
                            "channel": 0
                        }
                    ]
                ], 
                [
                    30689, 
                    [
                        {
                            "pitch": 51, 
                            "t0": 30689, 
                            "v": 106, 
                            "dur": 68, 
                            "type": "note", 
                            "channel": 0
                        }
                    ]
                ], 
                [
                    30698, 
                    [
                        {
                            "pitch": 48, 
                            "t0": 30698, 
                            "v": 105, 
                            "dur": 27, 
                            "type": "note", 
                            "channel": 0
                        }
                    ]
                ], 
                [
                    30812, 
                    [
                        {
                            "pitch": 51, 
                            "t0": 30812, 
                            "v": 95, 
                            "dur": 62, 
                            "type": "note", 
                            "channel": 0
                        }
                    ]
                ], 
                [
                    30818, 
                    [
                        {
                            "pitch": 55, 
                            "t0": 30818, 
                            "v": 91, 
                            "dur": 78, 
                            "type": "note", 
                            "channel": 0
                        }, 
                        {
                            "pitch": 60, 
                            "t0": 30818, 
                            "v": 98, 
                            "dur": 83, 
                            "type": "note", 
                            "channel": 0
                        }
                    ]
                ], 
                [
                    30831, 
                    [
                        {
                            "pitch": 36, 
                            "t0": 30831, 
                            "v": 101, 
                            "dur": 25, 
                            "type": "note", 
                            "channel": 0
                        }
                    ]
                ], 
                [
                    30837, 
                    [
                        {
                            "pitch": 48, 
                            "t0": 30837, 
                            "v": 92, 
                            "dur": 28, 
                            "type": "note", 
                            "channel": 0
                        }
                    ]
                ], 
                [
                    30944, 
                    [
                        {
                            "pitch": 48, 
                            "t0": 30944, 
                            "v": 101, 
                            "dur": 57, 
                            "type": "note", 
                            "channel": 0
                        }, 
                        {
                            "pitch": 51, 
                            "t0": 30944, 
                            "v": 97, 
                            "dur": 66, 
                            "type": "note", 
                            "channel": 0
                        }
                    ]
                ], 
                [
                    30947, 
                    [
                        {
                            "pitch": 60, 
                            "t0": 30947, 
                            "v": 107, 
                            "dur": 89, 
                            "type": "note", 
                            "channel": 0
                        }, 
                        {
                            "pitch": 55, 
                            "t0": 30947, 
                            "v": 101, 
                            "dur": 89, 
                            "type": "note", 
                            "channel": 0
                        }
                    ]
                ], 
                [
                    30952, 
                    [
                        {
                            "pitch": 36, 
                            "t0": 30952, 
                            "v": 101, 
                            "dur": 53, 
                            "type": "note", 
                            "channel": 0
                        }
                    ]
                ], 
                [
                    31076, 
                    [
                        {
                            "pitch": 48, 
                            "t0": 31076, 
                            "v": 94, 
                            "dur": 26, 
                            "type": "note", 
                            "channel": 0
                        }
                    ]
                ], 
                [
                    31079, 
                    [
                        {
                            "pitch": 60, 
                            "t0": 31079, 
                            "v": 106, 
                            "dur": 82, 
                            "type": "note", 
                            "channel": 0
                        }, 
                        {
                            "pitch": 51, 
                            "t0": 31079, 
                            "v": 97, 
                            "dur": 106, 
                            "type": "note", 
                            "channel": 0
                        }
                    ]
                ], 
                [
                    31083, 
                    [
                        {
                            "pitch": 36, 
                            "t0": 31083, 
                            "v": 84, 
                            "dur": 33, 
                            "type": "note", 
                            "channel": 0
                        }
                    ]
                ], 
                [
                    31090, 
                    [
                        {
                            "pitch": 55, 
                            "t0": 31090, 
                            "v": 101, 
                            "dur": 110, 
                            "type": "note", 
                            "channel": 0
                        }
                    ]
                ], 
                [
                    31253, 
                    [
                        {
                            "pitch": 50, 
                            "t0": 31253, 
                            "v": 110, 
                            "dur": 19, 
                            "type": "note", 
                            "channel": 0
                        }
                    ]
                ], 
                [
                    31260, 
                    [
                        {
                            "pitch": 59, 
                            "t0": 31260, 
                            "v": 97, 
                            "dur": 46, 
                            "type": "note", 
                            "channel": 0
                        }
                    ]
                ], 
                [
                    31264, 
                    [
                        {
                            "pitch": 55, 
                            "t0": 31264, 
                            "v": 88, 
                            "dur": 25, 
                            "type": "note", 
                            "channel": 0
                        }, 
                        {
                            "pitch": 31, 
                            "t0": 31264, 
                            "v": 123, 
                            "dur": 141, 
                            "type": "note", 
                            "channel": 0
                        }
                    ]
                ], 
                [
                    31267, 
                    [
                        {
                            "pitch": 43, 
                            "t0": 31267, 
                            "v": 121, 
                            "dur": 160, 
                            "type": "note", 
                            "channel": 0
                        }
                    ]
                ], 
                [
                    31275, 
                    [
                        {
                            "pitch": 53, 
                            "t0": 31275, 
                            "v": 63, 
                            "dur": 39, 
                            "type": "note", 
                            "channel": 0
                        }
                    ]
                ], 
                [
                    31492, 
                    [
                        {
                            "pitch": 89, 
                            "t0": 31492, 
                            "v": 111, 
                            "dur": 42, 
                            "type": "note", 
                            "channel": 0
                        }, 
                        {
                            "pitch": 77, 
                            "t0": 31492, 
                            "v": 107, 
                            "dur": 55, 
                            "type": "note", 
                            "channel": 0
                        }
                    ]
                ], 
                [
                    31618, 
                    [
                        {
                            "pitch": 74, 
                            "t0": 31618, 
                            "v": 115, 
                            "dur": 74, 
                            "type": "note", 
                            "channel": 0
                        }
                    ]
                ], 
                [
                    31622, 
                    [
                        {
                            "pitch": 86, 
                            "t0": 31622, 
                            "v": 111, 
                            "dur": 59, 
                            "type": "note", 
                            "channel": 0
                        }
                    ]
                ], 
                [
                    31753, 
                    [
                        {
                            "pitch": 74, 
                            "t0": 31753, 
                            "v": 109, 
                            "dur": 68, 
                            "type": "note", 
                            "channel": 0
                        }
                    ]
                ], 
                [
                    31756, 
                    [
                        {
                            "pitch": 86, 
                            "t0": 31756, 
                            "v": 102, 
                            "dur": 60, 
                            "type": "note", 
                            "channel": 0
                        }
                    ]
                ], 
                [
                    31893, 
                    [
                        {
                            "pitch": 71, 
                            "t0": 31893, 
                            "v": 108, 
                            "dur": 56, 
                            "type": "note", 
                            "channel": 0
                        }
                    ]
                ], 
                [
                    31898, 
                    [
                        {
                            "pitch": 62, 
                            "t0": 31898, 
                            "v": 105, 
                            "dur": 96, 
                            "type": "note", 
                            "channel": 0
                        }
                    ]
                ], 
                [
                    31902, 
                    [
                        {
                            "pitch": 65, 
                            "t0": 31902, 
                            "v": 108, 
                            "dur": 86, 
                            "type": "note", 
                            "channel": 0
                        }
                    ]
                ], 
                [
                    32018, 
                    [
                        {
                            "pitch": 79, 
                            "t0": 32018, 
                            "v": 111, 
                            "dur": 67, 
                            "type": "note", 
                            "channel": 0
                        }, 
                        {
                            "pitch": 67, 
                            "t0": 32018, 
                            "v": 107, 
                            "dur": 70, 
                            "type": "note", 
                            "channel": 0
                        }
                    ]
                ], 
                [
                    32160, 
                    [
                        {
                            "pitch": 77, 
                            "t0": 32160, 
                            "v": 109, 
                            "dur": 42, 
                            "type": "note", 
                            "channel": 0
                        }, 
                        {
                            "pitch": 65, 
                            "t0": 32160, 
                            "v": 110, 
                            "dur": 62, 
                            "type": "note", 
                            "channel": 0
                        }
                    ]
                ], 
                [
                    32291, 
                    [
                        {
                            "pitch": 65, 
                            "t0": 32291, 
                            "v": 108, 
                            "dur": 61, 
                            "type": "note", 
                            "channel": 0
                        }
                    ]
                ], 
                [
                    32300, 
                    [
                        {
                            "pitch": 77, 
                            "t0": 32300, 
                            "v": 102, 
                            "dur": 22, 
                            "type": "note", 
                            "channel": 0
                        }
                    ]
                ], 
                [
                    32433, 
                    [
                        {
                            "pitch": 62, 
                            "t0": 32433, 
                            "v": 113, 
                            "dur": 47, 
                            "type": "note", 
                            "channel": 0
                        }
                    ]
                ], 
                [
                    32439, 
                    [
                        {
                            "pitch": 53, 
                            "t0": 32439, 
                            "v": 104, 
                            "dur": 109, 
                            "type": "note", 
                            "channel": 0
                        }
                    ]
                ], 
                [
                    32444, 
                    [
                        {
                            "pitch": 59, 
                            "t0": 32444, 
                            "v": 95, 
                            "dur": 87, 
                            "type": "note", 
                            "channel": 0
                        }, 
                        {
                            "pitch": 55, 
                            "t0": 32444, 
                            "v": 101, 
                            "dur": 107, 
                            "type": "note", 
                            "channel": 0
                        }
                    ]
                ], 
                [
                    32568, 
                    [
                        {
                            "pitch": 71, 
                            "t0": 32568, 
                            "v": 97, 
                            "dur": 27, 
                            "type": "note", 
                            "channel": 0
                        }
                    ]
                ], 
                [
                    32573, 
                    [
                        {
                            "pitch": 59, 
                            "t0": 32573, 
                            "v": 84, 
                            "dur": 55, 
                            "type": "note", 
                            "channel": 0
                        }
                    ]
                ], 
                [
                    32704, 
                    [
                        {
                            "pitch": 67, 
                            "t0": 32704, 
                            "v": 105, 
                            "dur": 92, 
                            "type": "note", 
                            "channel": 0
                        }
                    ]
                ], 
                [
                    32710, 
                    [
                        {
                            "pitch": 55, 
                            "t0": 32710, 
                            "v": 91, 
                            "dur": 36, 
                            "type": "note", 
                            "channel": 0
                        }
                    ]
                ], 
                [
                    32743, 
                    [
                        {
                            "pitch": 57, 
                            "t0": 32743, 
                            "v": 19, 
                            "dur": 34, 
                            "type": "note", 
                            "channel": 0
                        }
                    ]
                ], 
                [
                    32841, 
                    [
                        {
                            "pitch": 65, 
                            "t0": 32841, 
                            "v": 98, 
                            "dur": 27, 
                            "type": "note", 
                            "channel": 0
                        }
                    ]
                ], 
                [
                    32845, 
                    [
                        {
                            "pitch": 62, 
                            "t0": 32845, 
                            "v": 95, 
                            "dur": 29, 
                            "type": "note", 
                            "channel": 0
                        }
                    ]
                ], 
                [
                    32968, 
                    [
                        {
                            "pitch": 43, 
                            "t0": 32968, 
                            "v": 114, 
                            "dur": 84, 
                            "type": "note", 
                            "channel": 0
                        }
                    ]
                ], 
                [
                    32971, 
                    [
                        {
                            "pitch": 31, 
                            "t0": 32971, 
                            "v": 116, 
                            "dur": 73, 
                            "type": "note", 
                            "channel": 0
                        }
                    ]
                ], 
                [
                    33097, 
                    [
                        {
                            "pitch": 50, 
                            "t0": 33097, 
                            "v": 101, 
                            "dur": 36, 
                            "type": "note", 
                            "channel": 0
                        }, 
                        {
                            "pitch": 59, 
                            "t0": 33097, 
                            "v": 90, 
                            "dur": 52, 
                            "type": "note", 
                            "channel": 0
                        }
                    ]
                ], 
                [
                    33108, 
                    [
                        {
                            "pitch": 53, 
                            "t0": 33108, 
                            "v": 91, 
                            "dur": 41, 
                            "type": "note", 
                            "channel": 0
                        }
                    ]
                ], 
                [
                    33224, 
                    [
                        {
                            "pitch": 51, 
                            "t0": 33224, 
                            "v": 102, 
                            "dur": 70, 
                            "type": "note", 
                            "channel": 0
                        }, 
                        {
                            "pitch": 60, 
                            "t0": 33224, 
                            "v": 105, 
                            "dur": 82, 
                            "type": "note", 
                            "channel": 0
                        }, 
                        {
                            "pitch": 55, 
                            "t0": 33224, 
                            "v": 101, 
                            "dur": 93, 
                            "type": "note", 
                            "channel": 0
                        }
                    ]
                ], 
                [
                    33231, 
                    [
                        {
                            "pitch": 48, 
                            "t0": 33231, 
                            "v": 105, 
                            "dur": 63, 
                            "type": "note", 
                            "channel": 0
                        }
                    ]
                ], 
                [
                    33235, 
                    [
                        {
                            "pitch": 36, 
                            "t0": 33235, 
                            "v": 100, 
                            "dur": 43, 
                            "type": "note", 
                            "channel": 0
                        }
                    ]
                ], 
                [
                    33348, 
                    [
                        {
                            "pitch": 48, 
                            "t0": 33348, 
                            "v": 108, 
                            "dur": 36, 
                            "type": "note", 
                            "channel": 0
                        }
                    ]
                ], 
                [
                    33353, 
                    [
                        {
                            "pitch": 51, 
                            "t0": 33353, 
                            "v": 93, 
                            "dur": 69, 
                            "type": "note", 
                            "channel": 0
                        }, 
                        {
                            "pitch": 60, 
                            "t0": 33353, 
                            "v": 103, 
                            "dur": 91, 
                            "type": "note", 
                            "channel": 0
                        }
                    ]
                ], 
                [
                    33359, 
                    [
                        {
                            "pitch": 36, 
                            "t0": 33359, 
                            "v": 83, 
                            "dur": 25, 
                            "type": "note", 
                            "channel": 0
                        }
                    ]
                ], 
                [
                    33367, 
                    [
                        {
                            "pitch": 55, 
                            "t0": 33367, 
                            "v": 95, 
                            "dur": 141, 
                            "type": "note", 
                            "channel": 0
                        }
                    ]
                ], 
                [
                    33534, 
                    [
                        {
                            "pitch": 51, 
                            "t0": 33534, 
                            "v": 110, 
                            "dur": 75, 
                            "type": "note", 
                            "channel": 0
                        }
                    ]
                ], 
                [
                    33540, 
                    [
                        {
                            "pitch": 54, 
                            "t0": 33540, 
                            "v": 88, 
                            "dur": 33, 
                            "type": "note", 
                            "channel": 0
                        }, 
                        {
                            "pitch": 60, 
                            "t0": 33540, 
                            "v": 103, 
                            "dur": 72, 
                            "type": "note", 
                            "channel": 0
                        }, 
                        {
                            "pitch": 42, 
                            "t0": 33540, 
                            "v": 104, 
                            "dur": 159, 
                            "type": "note", 
                            "channel": 0
                        }
                    ]
                ], 
                [
                    33543, 
                    [
                        {
                            "pitch": 57, 
                            "t0": 33543, 
                            "v": 102, 
                            "dur": 49, 
                            "type": "note", 
                            "channel": 0
                        }, 
                        {
                            "pitch": 33, 
                            "t0": 33543, 
                            "v": 116, 
                            "dur": 121, 
                            "type": "note", 
                            "channel": 0
                        }, 
                        {
                            "pitch": 36, 
                            "t0": 33543, 
                            "v": 83, 
                            "dur": 127, 
                            "type": "note", 
                            "channel": 0
                        }, 
                        {
                            "pitch": 45, 
                            "t0": 33543, 
                            "v": 121, 
                            "dur": 153, 
                            "type": "note", 
                            "channel": 0
                        }
                    ]
                ], 
                [
                    33547, 
                    [
                        {
                            "pitch": 39, 
                            "t0": 33547, 
                            "v": 98, 
                            "dur": 141, 
                            "type": "note", 
                            "channel": 0
                        }
                    ]
                ], 
                [
                    33748, 
                    [
                        {
                            "pitch": 75, 
                            "t0": 33748, 
                            "v": 92, 
                            "dur": 26, 
                            "type": "note", 
                            "channel": 0
                        }
                    ]
                ], 
                [
                    33756, 
                    [
                        {
                            "pitch": 87, 
                            "t0": 33756, 
                            "v": 92, 
                            "dur": 25, 
                            "type": "note", 
                            "channel": 0
                        }
                    ]
                ], 
                [
                    33880, 
                    [
                        {
                            "pitch": 75, 
                            "t0": 33880, 
                            "v": 105, 
                            "dur": 47, 
                            "type": "note", 
                            "channel": 0
                        }, 
                        {
                            "pitch": 87, 
                            "t0": 33880, 
                            "v": 100, 
                            "dur": 78, 
                            "type": "note", 
                            "channel": 0
                        }
                    ]
                ], 
                [
                    34008, 
                    [
                        {
                            "pitch": 87, 
                            "t0": 34008, 
                            "v": 104, 
                            "dur": 64, 
                            "type": "note", 
                            "channel": 0
                        }, 
                        {
                            "pitch": 75, 
                            "t0": 34008, 
                            "v": 106, 
                            "dur": 81, 
                            "type": "note", 
                            "channel": 0
                        }
                    ]
                ], 
                [
                    34141, 
                    [
                        {
                            "pitch": 72, 
                            "t0": 34141, 
                            "v": 123, 
                            "dur": 53, 
                            "type": "note", 
                            "channel": 0
                        }
                    ]
                ], 
                [
                    34149, 
                    [
                        {
                            "pitch": 66, 
                            "t0": 34149, 
                            "v": 102, 
                            "dur": 90, 
                            "type": "note", 
                            "channel": 0
                        }, 
                        {
                            "pitch": 63, 
                            "t0": 34149, 
                            "v": 103, 
                            "dur": 109, 
                            "type": "note", 
                            "channel": 0
                        }
                    ]
                ], 
                [
                    34171, 
                    [
                        {
                            "pitch": 82, 
                            "t0": 34171, 
                            "v": 44, 
                            "dur": 48, 
                            "type": "note", 
                            "channel": 0
                        }
                    ]
                ], 
                [
                    34281, 
                    [
                        {
                            "pitch": 81, 
                            "t0": 34281, 
                            "v": 106, 
                            "dur": 71, 
                            "type": "note", 
                            "channel": 0
                        }, 
                        {
                            "pitch": 69, 
                            "t0": 34281, 
                            "v": 108, 
                            "dur": 71, 
                            "type": "note", 
                            "channel": 0
                        }
                    ]
                ], 
                [
                    34409, 
                    [
                        {
                            "pitch": 69, 
                            "t0": 34409, 
                            "v": 103, 
                            "dur": 56, 
                            "type": "note", 
                            "channel": 0
                        }, 
                        {
                            "pitch": 81, 
                            "t0": 34409, 
                            "v": 103, 
                            "dur": 56, 
                            "type": "note", 
                            "channel": 0
                        }
                    ]
                ], 
                [
                    34543, 
                    [
                        {
                            "pitch": 81, 
                            "t0": 34543, 
                            "v": 98, 
                            "dur": 30, 
                            "type": "note", 
                            "channel": 0
                        }, 
                        {
                            "pitch": 69, 
                            "t0": 34543, 
                            "v": 107, 
                            "dur": 58, 
                            "type": "note", 
                            "channel": 0
                        }
                    ]
                ], 
                [
                    34665, 
                    [
                        {
                            "pitch": 66, 
                            "t0": 34665, 
                            "v": 112, 
                            "dur": 53, 
                            "type": "note", 
                            "channel": 0
                        }
                    ]
                ], 
                [
                    34673, 
                    [
                        {
                            "pitch": 60, 
                            "t0": 34673, 
                            "v": 103, 
                            "dur": 84, 
                            "type": "note", 
                            "channel": 0
                        }, 
                        {
                            "pitch": 57, 
                            "t0": 34673, 
                            "v": 102, 
                            "dur": 106, 
                            "type": "note", 
                            "channel": 0
                        }
                    ]
                ], 
                [
                    34795, 
                    [
                        {
                            "pitch": 63, 
                            "t0": 34795, 
                            "v": 107, 
                            "dur": 59, 
                            "type": "note", 
                            "channel": 0
                        }, 
                        {
                            "pitch": 75, 
                            "t0": 34795, 
                            "v": 100, 
                            "dur": 81, 
                            "type": "note", 
                            "channel": 0
                        }
                    ]
                ], 
                [
                    34921, 
                    [
                        {
                            "pitch": 63, 
                            "t0": 34921, 
                            "v": 88, 
                            "dur": 67, 
                            "type": "note", 
                            "channel": 0
                        }, 
                        {
                            "pitch": 75, 
                            "t0": 34921, 
                            "v": 99, 
                            "dur": 67, 
                            "type": "note", 
                            "channel": 0
                        }
                    ]
                ], 
                [
                    35047, 
                    [
                        {
                            "pitch": 75, 
                            "t0": 35047, 
                            "v": 96, 
                            "dur": 60, 
                            "type": "note", 
                            "channel": 0
                        }, 
                        {
                            "pitch": 63, 
                            "t0": 35047, 
                            "v": 101, 
                            "dur": 97, 
                            "type": "note", 
                            "channel": 0
                        }
                    ]
                ], 
                [
                    35174, 
                    [
                        {
                            "pitch": 60, 
                            "t0": 35174, 
                            "v": 108, 
                            "dur": 20, 
                            "type": "note", 
                            "channel": 0
                        }, 
                        {
                            "pitch": 54, 
                            "t0": 35174, 
                            "v": 100, 
                            "dur": 29, 
                            "type": "note", 
                            "channel": 0
                        }
                    ]
                ], 
                [
                    35178, 
                    [
                        {
                            "pitch": 51, 
                            "t0": 35178, 
                            "v": 103, 
                            "dur": 42, 
                            "type": "note", 
                            "channel": 0
                        }
                    ]
                ], 
                [
                    35305, 
                    [
                        {
                            "pitch": 63, 
                            "t0": 35305, 
                            "v": 90, 
                            "dur": 68, 
                            "type": "note", 
                            "channel": 0
                        }, 
                        {
                            "pitch": 57, 
                            "t0": 35305, 
                            "v": 111, 
                            "dur": 71, 
                            "type": "note", 
                            "channel": 0
                        }
                    ]
                ], 
                [
                    35309, 
                    [
                        {
                            "pitch": 66, 
                            "t0": 35309, 
                            "v": 90, 
                            "dur": 71, 
                            "type": "note", 
                            "channel": 0
                        }
                    ]
                ], 
                [
                    35312, 
                    [
                        {
                            "pitch": 69, 
                            "t0": 35312, 
                            "v": 95, 
                            "dur": 29, 
                            "type": "note", 
                            "channel": 0
                        }
                    ]
                ], 
                [
                    35317, 
                    [
                        {
                            "pitch": 48, 
                            "t0": 35317, 
                            "v": 112, 
                            "dur": 24, 
                            "type": "note", 
                            "channel": 0
                        }, 
                        {
                            "pitch": 36, 
                            "t0": 35317, 
                            "v": 108, 
                            "dur": 24, 
                            "type": "note", 
                            "channel": 0
                        }
                    ]
                ], 
                [
                    35426, 
                    [
                        {
                            "pitch": 57, 
                            "t0": 35426, 
                            "v": 105, 
                            "dur": 66, 
                            "type": "note", 
                            "channel": 0
                        }
                    ]
                ], 
                [
                    35431, 
                    [
                        {
                            "pitch": 66, 
                            "t0": 35431, 
                            "v": 88, 
                            "dur": 75, 
                            "type": "note", 
                            "channel": 0
                        }, 
                        {
                            "pitch": 63, 
                            "t0": 35431, 
                            "v": 85, 
                            "dur": 75, 
                            "type": "note", 
                            "channel": 0
                        }
                    ]
                ], 
                [
                    35436, 
                    [
                        {
                            "pitch": 69, 
                            "t0": 35436, 
                            "v": 92, 
                            "dur": 42, 
                            "type": "note", 
                            "channel": 0
                        }
                    ]
                ], 
                [
                    35447, 
                    [
                        {
                            "pitch": 48, 
                            "t0": 35447, 
                            "v": 105, 
                            "dur": 26, 
                            "type": "note", 
                            "channel": 0
                        }, 
                        {
                            "pitch": 36, 
                            "t0": 35447, 
                            "v": 101, 
                            "dur": 26, 
                            "type": "note", 
                            "channel": 0
                        }
                    ]
                ], 
                [
                    35565, 
                    [
                        {
                            "pitch": 57, 
                            "t0": 35565, 
                            "v": 96, 
                            "dur": 77, 
                            "type": "note", 
                            "channel": 0
                        }, 
                        {
                            "pitch": 63, 
                            "t0": 35565, 
                            "v": 83, 
                            "dur": 100, 
                            "type": "note", 
                            "channel": 0
                        }
                    ]
                ], 
                [
                    35568, 
                    [
                        {
                            "pitch": 66, 
                            "t0": 35568, 
                            "v": 83, 
                            "dur": 100, 
                            "type": "note", 
                            "channel": 0
                        }
                    ]
                ], 
                [
                    35573, 
                    [
                        {
                            "pitch": 36, 
                            "t0": 35573, 
                            "v": 97, 
                            "dur": 34, 
                            "type": "note", 
                            "channel": 0
                        }, 
                        {
                            "pitch": 48, 
                            "t0": 35573, 
                            "v": 98, 
                            "dur": 56, 
                            "type": "note", 
                            "channel": 0
                        }, 
                        {
                            "pitch": 69, 
                            "t0": 35573, 
                            "v": 93, 
                            "dur": 72, 
                            "type": "note", 
                            "channel": 0
                        }
                    ]
                ], 
                [
                    35746, 
                    [
                        {
                            "pitch": 57, 
                            "t0": 35746, 
                            "v": 119, 
                            "dur": 198, 
                            "type": "note", 
                            "channel": 0
                        }, 
                        {
                            "pitch": 69, 
                            "t0": 35746, 
                            "v": 117, 
                            "dur": 220, 
                            "type": "note", 
                            "channel": 0
                        }, 
                        {
                            "pitch": 63, 
                            "t0": 35746, 
                            "v": 98, 
                            "dur": 220, 
                            "type": "note", 
                            "channel": 0
                        }, 
                        {
                            "pitch": 66, 
                            "t0": 35746, 
                            "v": 97, 
                            "dur": 242, 
                            "type": "note", 
                            "channel": 0
                        }
                    ]
                ], 
                [
                    35751, 
                    [
                        {
                            "pitch": 48, 
                            "t0": 35751, 
                            "v": 119, 
                            "dur": 148, 
                            "type": "note", 
                            "channel": 0
                        }, 
                        {
                            "pitch": 36, 
                            "t0": 35751, 
                            "v": 116, 
                            "dur": 160, 
                            "type": "note", 
                            "channel": 0
                        }
                    ]
                ], 
                [
                    36954, 
                    [
                        {
                            "pitch": 58, 
                            "t0": 36954, 
                            "v": 123, 
                            "dur": 176, 
                            "type": "note", 
                            "channel": 0
                        }, 
                        {
                            "pitch": 70, 
                            "t0": 36954, 
                            "v": 119, 
                            "dur": 254, 
                            "type": "note", 
                            "channel": 0
                        }
                    ]
                ], 
                [
                    36960, 
                    [
                        {
                            "pitch": 50, 
                            "t0": 36960, 
                            "v": 115, 
                            "dur": 134, 
                            "type": "note", 
                            "channel": 0
                        }, 
                        {
                            "pitch": 38, 
                            "t0": 36960, 
                            "v": 107, 
                            "dur": 175, 
                            "type": "note", 
                            "channel": 0
                        }, 
                        {
                            "pitch": 46, 
                            "t0": 36960, 
                            "v": 115, 
                            "dur": 178, 
                            "type": "note", 
                            "channel": 0
                        }, 
                        {
                            "pitch": 65, 
                            "t0": 36960, 
                            "v": 111, 
                            "dur": 248, 
                            "type": "note", 
                            "channel": 0
                        }
                    ]
                ], 
                [
                    36969, 
                    [
                        {
                            "pitch": 41, 
                            "t0": 36969, 
                            "v": 103, 
                            "dur": 191, 
                            "type": "note", 
                            "channel": 0
                        }
                    ]
                ], 
                [
                    37996, 
                    [
                        {
                            "pitch": 70, 
                            "t0": 37996, 
                            "v": 124, 
                            "dur": 92, 
                            "type": "note", 
                            "channel": 0
                        }
                    ]
                ], 
                [
                    38164, 
                    [
                        {
                            "pitch": 70, 
                            "t0": 38164, 
                            "v": 115, 
                            "dur": 87, 
                            "type": "note", 
                            "channel": 0
                        }
                    ]
                ], 
                [
                    38315, 
                    [
                        {
                            "pitch": 70, 
                            "t0": 38315, 
                            "v": 116, 
                            "dur": 289, 
                            "type": "note", 
                            "channel": 0
                        }
                    ]
                ], 
                [
                    38514, 
                    [
                        {
                            "pitch": 63, 
                            "t0": 38514, 
                            "v": 117, 
                            "dur": 717, 
                            "type": "note", 
                            "channel": 0
                        }
                    ]
                ], 
                [
                    39149, 
                    [
                        {
                            "pitch": 65, 
                            "t0": 39149, 
                            "v": 114, 
                            "dur": 957, 
                            "type": "note", 
                            "channel": 0
                        }
                    ]
                ], 
                [
                    39811, 
                    [
                        {
                            "pitch": 58, 
                            "t0": 39811, 
                            "v": 115, 
                            "dur": 1988, 
                            "type": "note", 
                            "channel": 0
                        }
                    ]
                ], 
                [
                    40624, 
                    [
                        {
                            "pitch": 70, 
                            "t0": 40624, 
                            "v": 67, 
                            "dur": 378, 
                            "type": "note", 
                            "channel": 0
                        }
                    ]
                ], 
                [
                    40641, 
                    [
                        {
                            "pitch": 67, 
                            "t0": 40641, 
                            "v": 41, 
                            "dur": 579, 
                            "type": "note", 
                            "channel": 0
                        }
                    ]
                ], 
                [
                    40657, 
                    [
                        {
                            "pitch": 63, 
                            "t0": 40657, 
                            "v": 32, 
                            "dur": 607, 
                            "type": "note", 
                            "channel": 0
                        }
                    ]
                ], 
                [
                    40944, 
                    [
                        {
                            "pitch": 75, 
                            "t0": 40944, 
                            "v": 68, 
                            "dur": 307, 
                            "type": "note", 
                            "channel": 0
                        }
                    ]
                ], 
                [
                    41251, 
                    [
                        {
                            "pitch": 74, 
                            "t0": 41251, 
                            "v": 52, 
                            "dur": 348, 
                            "type": "note", 
                            "channel": 0
                        }, 
                        {
                            "pitch": 68, 
                            "t0": 41251, 
                            "v": 38, 
                            "dur": 379, 
                            "type": "note", 
                            "channel": 0
                        }
                    ]
                ], 
                [
                    41279, 
                    [
                        {
                            "pitch": 65, 
                            "t0": 41279, 
                            "v": 28, 
                            "dur": 376, 
                            "type": "note", 
                            "channel": 0
                        }
                    ]
                ], 
                [
                    41545, 
                    [
                        {
                            "pitch": 75, 
                            "t0": 41545, 
                            "v": 60, 
                            "dur": 310, 
                            "type": "note", 
                            "channel": 0
                        }
                    ]
                ], 
                [
                    41818, 
                    [
                        {
                            "pitch": 62, 
                            "t0": 41818, 
                            "v": 35, 
                            "dur": 48, 
                            "type": "note", 
                            "channel": 0
                        }
                    ]
                ], 
                [
                    41824, 
                    [
                        {
                            "pitch": 77, 
                            "t0": 41824, 
                            "v": 73, 
                            "dur": 278, 
                            "type": "note", 
                            "channel": 0
                        }
                    ]
                ], 
                [
                    41829, 
                    [
                        {
                            "pitch": 68, 
                            "t0": 41829, 
                            "v": 49, 
                            "dur": 360, 
                            "type": "note", 
                            "channel": 0
                        }
                    ]
                ], 
                [
                    41957, 
                    [
                        {
                            "pitch": 34, 
                            "t0": 41957, 
                            "v": 77, 
                            "dur": 38, 
                            "type": "note", 
                            "channel": 0
                        }, 
                        {
                            "pitch": 46, 
                            "t0": 41957, 
                            "v": 71, 
                            "dur": 43, 
                            "type": "note", 
                            "channel": 0
                        }
                    ]
                ], 
                [
                    42075, 
                    [
                        {
                            "pitch": 46, 
                            "t0": 42075, 
                            "v": 44, 
                            "dur": 45, 
                            "type": "note", 
                            "channel": 0
                        }
                    ]
                ], 
                [
                    42086, 
                    [
                        {
                            "pitch": 72, 
                            "t0": 42086, 
                            "v": 79, 
                            "dur": 67, 
                            "type": "note", 
                            "channel": 0
                        }
                    ]
                ], 
                [
                    42091, 
                    [
                        {
                            "pitch": 34, 
                            "t0": 42091, 
                            "v": 45, 
                            "dur": 46, 
                            "type": "note", 
                            "channel": 0
                        }
                    ]
                ], 
                [
                    42206, 
                    [
                        {
                            "pitch": 34, 
                            "t0": 42206, 
                            "v": 67, 
                            "dur": 34, 
                            "type": "note", 
                            "channel": 0
                        }, 
                        {
                            "pitch": 46, 
                            "t0": 42206, 
                            "v": 44, 
                            "dur": 45, 
                            "type": "note", 
                            "channel": 0
                        }
                    ]
                ], 
                [
                    42375, 
                    [
                        {
                            "pitch": 39, 
                            "t0": 42375, 
                            "v": 34, 
                            "dur": 252, 
                            "type": "note", 
                            "channel": 0
                        }, 
                        {
                            "pitch": 63, 
                            "t0": 42375, 
                            "v": 44, 
                            "dur": 355, 
                            "type": "note", 
                            "channel": 0
                        }
                    ]
                ], 
                [
                    42385, 
                    [
                        {
                            "pitch": 72, 
                            "t0": 42385, 
                            "v": 65, 
                            "dur": 291, 
                            "type": "note", 
                            "channel": 0
                        }
                    ]
                ], 
                [
                    42390, 
                    [
                        {
                            "pitch": 67, 
                            "t0": 42390, 
                            "v": 34, 
                            "dur": 320, 
                            "type": "note", 
                            "channel": 0
                        }
                    ]
                ], 
                [
                    42393, 
                    [
                        {
                            "pitch": 51, 
                            "t0": 42393, 
                            "v": 10, 
                            "dur": 258, 
                            "type": "note", 
                            "channel": 0
                        }
                    ]
                ], 
                [
                    42651, 
                    [
                        {
                            "pitch": 70, 
                            "t0": 42651, 
                            "v": 68, 
                            "dur": 109, 
                            "type": "note", 
                            "channel": 0
                        }
                    ]
                ], 
                [
                    42924, 
                    [
                        {
                            "pitch": 70, 
                            "t0": 42924, 
                            "v": 79, 
                            "dur": 391, 
                            "type": "note", 
                            "channel": 0
                        }, 
                        {
                            "pitch": 63, 
                            "t0": 42924, 
                            "v": 41, 
                            "dur": 396, 
                            "type": "note", 
                            "channel": 0
                        }
                    ]
                ], 
                [
                    42930, 
                    [
                        {
                            "pitch": 67, 
                            "t0": 42930, 
                            "v": 50, 
                            "dur": 324, 
                            "type": "note", 
                            "channel": 0
                        }
                    ]
                ], 
                [
                    42933, 
                    [
                        {
                            "pitch": 58, 
                            "t0": 42933, 
                            "v": 42, 
                            "dur": 409, 
                            "type": "note", 
                            "channel": 0
                        }
                    ]
                ], 
                [
                    42938, 
                    [
                        {
                            "pitch": 55, 
                            "t0": 42938, 
                            "v": 39, 
                            "dur": 277, 
                            "type": "note", 
                            "channel": 0
                        }
                    ]
                ], 
                [
                    43209, 
                    [
                        {
                            "pitch": 75, 
                            "t0": 43209, 
                            "v": 70, 
                            "dur": 297, 
                            "type": "note", 
                            "channel": 0
                        }
                    ]
                ], 
                [
                    43509, 
                    [
                        {
                            "pitch": 68, 
                            "t0": 43509, 
                            "v": 48, 
                            "dur": 352, 
                            "type": "note", 
                            "channel": 0
                        }, 
                        {
                            "pitch": 65, 
                            "t0": 43509, 
                            "v": 37, 
                            "dur": 415, 
                            "type": "note", 
                            "channel": 0
                        }
                    ]
                ], 
                [
                    43515, 
                    [
                        {
                            "pitch": 74, 
                            "t0": 43515, 
                            "v": 67, 
                            "dur": 346, 
                            "type": "note", 
                            "channel": 0
                        }, 
                        {
                            "pitch": 58, 
                            "t0": 43515, 
                            "v": 59, 
                            "dur": 563, 
                            "type": "note", 
                            "channel": 0
                        }
                    ]
                ], 
                [
                    43518, 
                    [
                        {
                            "pitch": 56, 
                            "t0": 43518, 
                            "v": 44, 
                            "dur": 560, 
                            "type": "note", 
                            "channel": 0
                        }
                    ]
                ], 
                [
                    43531, 
                    [
                        {
                            "pitch": 53, 
                            "t0": 43531, 
                            "v": 23, 
                            "dur": 500, 
                            "type": "note", 
                            "channel": 0
                        }
                    ]
                ], 
                [
                    43786, 
                    [
                        {
                            "pitch": 75, 
                            "t0": 43786, 
                            "v": 62, 
                            "dur": 295, 
                            "type": "note", 
                            "channel": 0
                        }
                    ]
                ], 
                [
                    44022, 
                    [
                        {
                            "pitch": 62, 
                            "t0": 44022, 
                            "v": 59, 
                            "dur": 36, 
                            "type": "note", 
                            "channel": 0
                        }
                    ]
                ], 
                [
                    44058, 
                    [
                        {
                            "pitch": 77, 
                            "t0": 44058, 
                            "v": 75, 
                            "dur": 256, 
                            "type": "note", 
                            "channel": 0
                        }
                    ]
                ], 
                [
                    44061, 
                    [
                        {
                            "pitch": 68, 
                            "t0": 44061, 
                            "v": 47, 
                            "dur": 338, 
                            "type": "note", 
                            "channel": 0
                        }
                    ]
                ], 
                [
                    44198, 
                    [
                        {
                            "pitch": 34, 
                            "t0": 44198, 
                            "v": 79, 
                            "dur": 36, 
                            "type": "note", 
                            "channel": 0
                        }
                    ]
                ], 
                [
                    44211, 
                    [
                        {
                            "pitch": 46, 
                            "t0": 44211, 
                            "v": 33, 
                            "dur": 42, 
                            "type": "note", 
                            "channel": 0
                        }
                    ]
                ], 
                [
                    44293, 
                    [
                        {
                            "pitch": 34, 
                            "t0": 44293, 
                            "v": 57, 
                            "dur": 53, 
                            "type": "note", 
                            "channel": 0
                        }
                    ]
                ], 
                [
                    44328, 
                    [
                        {
                            "pitch": 72, 
                            "t0": 44328, 
                            "v": 66, 
                            "dur": 46, 
                            "type": "note", 
                            "channel": 0
                        }
                    ]
                ], 
                [
                    44337, 
                    [
                        {
                            "pitch": 46, 
                            "t0": 44337, 
                            "v": 36, 
                            "dur": 45, 
                            "type": "note", 
                            "channel": 0
                        }
                    ]
                ], 
                [
                    44454, 
                    [
                        {
                            "pitch": 46, 
                            "t0": 44454, 
                            "v": 52, 
                            "dur": 55, 
                            "type": "note", 
                            "channel": 0
                        }
                    ]
                ], 
                [
                    44459, 
                    [
                        {
                            "pitch": 34, 
                            "t0": 44459, 
                            "v": 62, 
                            "dur": 43, 
                            "type": "note", 
                            "channel": 0
                        }
                    ]
                ], 
                [
                    44601, 
                    [
                        {
                            "pitch": 63, 
                            "t0": 44601, 
                            "v": 42, 
                            "dur": 259, 
                            "type": "note", 
                            "channel": 0
                        }, 
                        {
                            "pitch": 72, 
                            "t0": 44601, 
                            "v": 70, 
                            "dur": 274, 
                            "type": "note", 
                            "channel": 0
                        }
                    ]
                ], 
                [
                    44604, 
                    [
                        {
                            "pitch": 39, 
                            "t0": 44604, 
                            "v": 26, 
                            "dur": 182, 
                            "type": "note", 
                            "channel": 0
                        }
                    ]
                ], 
                [
                    44607, 
                    [
                        {
                            "pitch": 51, 
                            "t0": 44607, 
                            "v": 20, 
                            "dur": 193, 
                            "type": "note", 
                            "channel": 0
                        }, 
                        {
                            "pitch": 67, 
                            "t0": 44607, 
                            "v": 41, 
                            "dur": 218, 
                            "type": "note", 
                            "channel": 0
                        }
                    ]
                ], 
                [
                    44883, 
                    [
                        {
                            "pitch": 70, 
                            "t0": 44883, 
                            "v": 81, 
                            "dur": 36, 
                            "type": "note", 
                            "channel": 0
                        }
                    ]
                ], 
                [
                    45165, 
                    [
                        {
                            "pitch": 67, 
                            "t0": 45165, 
                            "v": 41, 
                            "dur": 223, 
                            "type": "note", 
                            "channel": 0
                        }, 
                        {
                            "pitch": 82, 
                            "t0": 45165, 
                            "v": 97, 
                            "dur": 231, 
                            "type": "note", 
                            "channel": 0
                        }
                    ]
                ], 
                [
                    45172, 
                    [
                        {
                            "pitch": 70, 
                            "t0": 45172, 
                            "v": 67, 
                            "dur": 120, 
                            "type": "note", 
                            "channel": 0
                        }
                    ]
                ], 
                [
                    45176, 
                    [
                        {
                            "pitch": 55, 
                            "t0": 45176, 
                            "v": 36, 
                            "dur": 202, 
                            "type": "note", 
                            "channel": 0
                        }
                    ]
                ], 
                [
                    45181, 
                    [
                        {
                            "pitch": 63, 
                            "t0": 45181, 
                            "v": 40, 
                            "dur": 176, 
                            "type": "note", 
                            "channel": 0
                        }, 
                        {
                            "pitch": 58, 
                            "t0": 45181, 
                            "v": 47, 
                            "dur": 228, 
                            "type": "note", 
                            "channel": 0
                        }
                    ]
                ], 
                [
                    45454, 
                    [
                        {
                            "pitch": 87, 
                            "t0": 45454, 
                            "v": 89, 
                            "dur": 198, 
                            "type": "note", 
                            "channel": 0
                        }
                    ]
                ], 
                [
                    45457, 
                    [
                        {
                            "pitch": 75, 
                            "t0": 45457, 
                            "v": 66, 
                            "dur": 178, 
                            "type": "note", 
                            "channel": 0
                        }
                    ]
                ], 
                [
                    45730, 
                    [
                        {
                            "pitch": 86, 
                            "t0": 45730, 
                            "v": 89, 
                            "dur": 343, 
                            "type": "note", 
                            "channel": 0
                        }
                    ]
                ], 
                [
                    45735, 
                    [
                        {
                            "pitch": 68, 
                            "t0": 45735, 
                            "v": 47, 
                            "dur": 262, 
                            "type": "note", 
                            "channel": 0
                        }
                    ]
                ], 
                [
                    45750, 
                    [
                        {
                            "pitch": 74, 
                            "t0": 45750, 
                            "v": 58, 
                            "dur": 145, 
                            "type": "note", 
                            "channel": 0
                        }
                    ]
                ], 
                [
                    45758, 
                    [
                        {
                            "pitch": 53, 
                            "t0": 45758, 
                            "v": 17, 
                            "dur": 286, 
                            "type": "note", 
                            "channel": 0
                        }, 
                        {
                            "pitch": 58, 
                            "t0": 45758, 
                            "v": 50, 
                            "dur": 295, 
                            "type": "note", 
                            "channel": 0
                        }
                    ]
                ], 
                [
                    46028, 
                    [
                        {
                            "pitch": 87, 
                            "t0": 46028, 
                            "v": 72, 
                            "dur": 298, 
                            "type": "note", 
                            "channel": 0
                        }
                    ]
                ], 
                [
                    46034, 
                    [
                        {
                            "pitch": 75, 
                            "t0": 46034, 
                            "v": 47, 
                            "dur": 72, 
                            "type": "note", 
                            "channel": 0
                        }
                    ]
                ], 
                [
                    46271, 
                    [
                        {
                            "pitch": 62, 
                            "t0": 46271, 
                            "v": 48, 
                            "dur": 43, 
                            "type": "note", 
                            "channel": 0
                        }
                    ]
                ], 
                [
                    46320, 
                    [
                        {
                            "pitch": 89, 
                            "t0": 46320, 
                            "v": 63, 
                            "dur": 34, 
                            "type": "note", 
                            "channel": 0
                        }
                    ]
                ], 
                [
                    46326, 
                    [
                        {
                            "pitch": 77, 
                            "t0": 46326, 
                            "v": 67, 
                            "dur": 70, 
                            "type": "note", 
                            "channel": 0
                        }
                    ]
                ], 
                [
                    46445, 
                    [
                        {
                            "pitch": 46, 
                            "t0": 46445, 
                            "v": 59, 
                            "dur": 56, 
                            "type": "note", 
                            "channel": 0
                        }
                    ]
                ], 
                [
                    46579, 
                    [
                        {
                            "pitch": 46, 
                            "t0": 46579, 
                            "v": 68, 
                            "dur": 40, 
                            "type": "note", 
                            "channel": 0
                        }
                    ]
                ], 
                [
                    46587, 
                    [
                        {
                            "pitch": 72, 
                            "t0": 46587, 
                            "v": 65, 
                            "dur": 82, 
                            "type": "note", 
                            "channel": 0
                        }, 
                        {
                            "pitch": 84, 
                            "t0": 46587, 
                            "v": 61, 
                            "dur": 85, 
                            "type": "note", 
                            "channel": 0
                        }
                    ]
                ], 
                [
                    46688, 
                    [
                        {
                            "pitch": 46, 
                            "t0": 46688, 
                            "v": 75, 
                            "dur": 37, 
                            "type": "note", 
                            "channel": 0
                        }
                    ]
                ], 
                [
                    46894, 
                    [
                        {
                            "pitch": 84, 
                            "t0": 46894, 
                            "v": 66, 
                            "dur": 196, 
                            "type": "note", 
                            "channel": 0
                        }
                    ]
                ], 
                [
                    46905, 
                    [
                        {
                            "pitch": 72, 
                            "t0": 46905, 
                            "v": 52, 
                            "dur": 140, 
                            "type": "note", 
                            "channel": 0
                        }
                    ]
                ], 
                [
                    46925, 
                    [
                        {
                            "pitch": 63, 
                            "t0": 46925, 
                            "v": 69, 
                            "dur": 384, 
                            "type": "note", 
                            "channel": 0
                        }, 
                        {
                            "pitch": 51, 
                            "t0": 46925, 
                            "v": 61, 
                            "dur": 518, 
                            "type": "note", 
                            "channel": 0
                        }
                    ]
                ], 
                [
                    47187, 
                    [
                        {
                            "pitch": 70, 
                            "t0": 47187, 
                            "v": 81, 
                            "dur": 94, 
                            "type": "note", 
                            "channel": 0
                        }
                    ]
                ], 
                [
                    47193, 
                    [
                        {
                            "pitch": 82, 
                            "t0": 47193, 
                            "v": 83, 
                            "dur": 38, 
                            "type": "note", 
                            "channel": 0
                        }
                    ]
                ], 
                [
                    47476, 
                    [
                        {
                            "pitch": 70, 
                            "t0": 47476, 
                            "v": 76, 
                            "dur": 362, 
                            "type": "note", 
                            "channel": 0
                        }
                    ]
                ], 
                [
                    47480, 
                    [
                        {
                            "pitch": 63, 
                            "t0": 47480, 
                            "v": 36, 
                            "dur": 537, 
                            "type": "note", 
                            "channel": 0
                        }
                    ]
                ], 
                [
                    47510, 
                    [
                        {
                            "pitch": 67, 
                            "t0": 47510, 
                            "v": 36, 
                            "dur": 342, 
                            "type": "note", 
                            "channel": 0
                        }
                    ]
                ], 
                [
                    47771, 
                    [
                        {
                            "pitch": 72, 
                            "t0": 47771, 
                            "v": 78, 
                            "dur": 294, 
                            "type": "note", 
                            "channel": 0
                        }
                    ]
                ], 
                [
                    48051, 
                    [
                        {
                            "pitch": 73, 
                            "t0": 48051, 
                            "v": 65, 
                            "dur": 284, 
                            "type": "note", 
                            "channel": 0
                        }
                    ]
                ], 
                [
                    48086, 
                    [
                        {
                            "pitch": 64, 
                            "t0": 48086, 
                            "v": 43, 
                            "dur": 404, 
                            "type": "note", 
                            "channel": 0
                        }
                    ]
                ], 
                [
                    48115, 
                    [
                        {
                            "pitch": 67, 
                            "t0": 48115, 
                            "v": 32, 
                            "dur": 364, 
                            "type": "note", 
                            "channel": 0
                        }
                    ]
                ], 
                [
                    48352, 
                    [
                        {
                            "pitch": 72, 
                            "t0": 48352, 
                            "v": 64, 
                            "dur": 300, 
                            "type": "note", 
                            "channel": 0
                        }
                    ]
                ], 
                [
                    48618, 
                    [
                        {
                            "pitch": 70, 
                            "t0": 48618, 
                            "v": 70, 
                            "dur": 293, 
                            "type": "note", 
                            "channel": 0
                        }
                    ]
                ], 
                [
                    48644, 
                    [
                        {
                            "pitch": 64, 
                            "t0": 48644, 
                            "v": 33, 
                            "dur": 384, 
                            "type": "note", 
                            "channel": 0
                        }
                    ]
                ], 
                [
                    48652, 
                    [
                        {
                            "pitch": 67, 
                            "t0": 48652, 
                            "v": 24, 
                            "dur": 276, 
                            "type": "note", 
                            "channel": 0
                        }
                    ]
                ], 
                [
                    48755, 
                    [
                        {
                            "pitch": 36, 
                            "t0": 48755, 
                            "v": 75, 
                            "dur": 30, 
                            "type": "note", 
                            "channel": 0
                        }, 
                        {
                            "pitch": 48, 
                            "t0": 48755, 
                            "v": 73, 
                            "dur": 36, 
                            "type": "note", 
                            "channel": 0
                        }
                    ]
                ], 
                [
                    48884, 
                    [
                        {
                            "pitch": 36, 
                            "t0": 48884, 
                            "v": 47, 
                            "dur": 38, 
                            "type": "note", 
                            "channel": 0
                        }, 
                        {
                            "pitch": 72, 
                            "t0": 48884, 
                            "v": 79, 
                            "dur": 425, 
                            "type": "note", 
                            "channel": 0
                        }
                    ]
                ], 
                [
                    48889, 
                    [
                        {
                            "pitch": 48, 
                            "t0": 48889, 
                            "v": 43, 
                            "dur": 42, 
                            "type": "note", 
                            "channel": 0
                        }
                    ]
                ], 
                [
                    49012, 
                    [
                        {
                            "pitch": 36, 
                            "t0": 49012, 
                            "v": 56, 
                            "dur": 32, 
                            "type": "note", 
                            "channel": 0
                        }
                    ]
                ], 
                [
                    49020, 
                    [
                        {
                            "pitch": 48, 
                            "t0": 49020, 
                            "v": 48, 
                            "dur": 44, 
                            "type": "note", 
                            "channel": 0
                        }
                    ]
                ], 
                [
                    49162, 
                    [
                        {
                            "pitch": 70, 
                            "t0": 49162, 
                            "v": 74, 
                            "dur": 326, 
                            "type": "note", 
                            "channel": 0
                        }
                    ]
                ], 
                [
                    49189, 
                    [
                        {
                            "pitch": 60, 
                            "t0": 49189, 
                            "v": 32, 
                            "dur": 369, 
                            "type": "note", 
                            "channel": 0
                        }, 
                        {
                            "pitch": 65, 
                            "t0": 49189, 
                            "v": 44, 
                            "dur": 404, 
                            "type": "note", 
                            "channel": 0
                        }
                    ]
                ], 
                [
                    49198, 
                    [
                        {
                            "pitch": 53, 
                            "t0": 49198, 
                            "v": 18, 
                            "dur": 315, 
                            "type": "note", 
                            "channel": 0
                        }
                    ]
                ], 
                [
                    49203, 
                    [
                        {
                            "pitch": 41, 
                            "t0": 49203, 
                            "v": 36, 
                            "dur": 310, 
                            "type": "note", 
                            "channel": 0
                        }
                    ]
                ], 
                [
                    49459, 
                    [
                        {
                            "pitch": 68, 
                            "t0": 49459, 
                            "v": 71, 
                            "dur": 160, 
                            "type": "note", 
                            "channel": 0
                        }
                    ]
                ], 
                [
                    49744, 
                    [
                        {
                            "pitch": 73, 
                            "t0": 49744, 
                            "v": 65, 
                            "dur": 310, 
                            "type": "note", 
                            "channel": 0
                        }, 
                        {
                            "pitch": 65, 
                            "t0": 49744, 
                            "v": 40, 
                            "dur": 441, 
                            "type": "note", 
                            "channel": 0
                        }
                    ]
                ], 
                [
                    49756, 
                    [
                        {
                            "pitch": 68, 
                            "t0": 49756, 
                            "v": 45, 
                            "dur": 447, 
                            "type": "note", 
                            "channel": 0
                        }
                    ]
                ], 
                [
                    50028, 
                    [
                        {
                            "pitch": 75, 
                            "t0": 50028, 
                            "v": 73, 
                            "dur": 192, 
                            "type": "note", 
                            "channel": 0
                        }
                    ]
                ], 
                [
                    50307, 
                    [
                        {
                            "pitch": 77, 
                            "t0": 50307, 
                            "v": 70, 
                            "dur": 350, 
                            "type": "note", 
                            "channel": 0
                        }
                    ]
                ], 
                [
                    50313, 
                    [
                        {
                            "pitch": 70, 
                            "t0": 50313, 
                            "v": 52, 
                            "dur": 422, 
                            "type": "note", 
                            "channel": 0
                        }
                    ]
                ], 
                [
                    50331, 
                    [
                        {
                            "pitch": 67, 
                            "t0": 50331, 
                            "v": 44, 
                            "dur": 390, 
                            "type": "note", 
                            "channel": 0
                        }
                    ]
                ], 
                [
                    50610, 
                    [
                        {
                            "pitch": 75, 
                            "t0": 50610, 
                            "v": 58, 
                            "dur": 276, 
                            "type": "note", 
                            "channel": 0
                        }
                    ]
                ], 
                [
                    50883, 
                    [
                        {
                            "pitch": 73, 
                            "t0": 50883, 
                            "v": 62, 
                            "dur": 281, 
                            "type": "note", 
                            "channel": 0
                        }
                    ]
                ], 
                [
                    50892, 
                    [
                        {
                            "pitch": 70, 
                            "t0": 50892, 
                            "v": 49, 
                            "dur": 69, 
                            "type": "note", 
                            "channel": 0
                        }
                    ]
                ], 
                [
                    50931, 
                    [
                        {
                            "pitch": 67, 
                            "t0": 50931, 
                            "v": 31, 
                            "dur": 303, 
                            "type": "note", 
                            "channel": 0
                        }
                    ]
                ], 
                [
                    51029, 
                    [
                        {
                            "pitch": 39, 
                            "t0": 51029, 
                            "v": 66, 
                            "dur": 36, 
                            "type": "note", 
                            "channel": 0
                        }, 
                        {
                            "pitch": 51, 
                            "t0": 51029, 
                            "v": 75, 
                            "dur": 41, 
                            "type": "note", 
                            "channel": 0
                        }
                    ]
                ], 
                [
                    51039, 
                    [
                        {
                            "pitch": 70, 
                            "t0": 51039, 
                            "v": 7, 
                            "dur": 256, 
                            "type": "note", 
                            "channel": 0
                        }
                    ]
                ], 
                [
                    51134, 
                    [
                        {
                            "pitch": 51, 
                            "t0": 51134, 
                            "v": 65, 
                            "dur": 50, 
                            "type": "note", 
                            "channel": 0
                        }
                    ]
                ], 
                [
                    51138, 
                    [
                        {
                            "pitch": 39, 
                            "t0": 51138, 
                            "v": 59, 
                            "dur": 46, 
                            "type": "note", 
                            "channel": 0
                        }
                    ]
                ], 
                [
                    51151, 
                    [
                        {
                            "pitch": 75, 
                            "t0": 51151, 
                            "v": 61, 
                            "dur": 342, 
                            "type": "note", 
                            "channel": 0
                        }
                    ]
                ], 
                [
                    51270, 
                    [
                        {
                            "pitch": 39, 
                            "t0": 51270, 
                            "v": 59, 
                            "dur": 46, 
                            "type": "note", 
                            "channel": 0
                        }
                    ]
                ], 
                [
                    51274, 
                    [
                        {
                            "pitch": 51, 
                            "t0": 51274, 
                            "v": 73, 
                            "dur": 33, 
                            "type": "note", 
                            "channel": 0
                        }
                    ]
                ], 
                [
                    51419, 
                    [
                        {
                            "pitch": 63, 
                            "t0": 51419, 
                            "v": 35, 
                            "dur": 311, 
                            "type": "note", 
                            "channel": 0
                        }, 
                        {
                            "pitch": 73, 
                            "t0": 51419, 
                            "v": 62, 
                            "dur": 339, 
                            "type": "note", 
                            "channel": 0
                        }
                    ]
                ], 
                [
                    51429, 
                    [
                        {
                            "pitch": 68, 
                            "t0": 51429, 
                            "v": 54, 
                            "dur": 329, 
                            "type": "note", 
                            "channel": 0
                        }
                    ]
                ], 
                [
                    51441, 
                    [
                        {
                            "pitch": 56, 
                            "t0": 51441, 
                            "v": 14, 
                            "dur": 241, 
                            "type": "note", 
                            "channel": 0
                        }
                    ]
                ], 
                [
                    51454, 
                    [
                        {
                            "pitch": 44, 
                            "t0": 51454, 
                            "v": 30, 
                            "dur": 179, 
                            "type": "note", 
                            "channel": 0
                        }
                    ]
                ], 
                [
                    51714, 
                    [
                        {
                            "pitch": 72, 
                            "t0": 51714, 
                            "v": 65, 
                            "dur": 49, 
                            "type": "note", 
                            "channel": 0
                        }
                    ]
                ], 
                [
                    51994, 
                    [
                        {
                            "pitch": 75, 
                            "t0": 51994, 
                            "v": 62, 
                            "dur": 238, 
                            "type": "note", 
                            "channel": 0
                        }
                    ]
                ], 
                [
                    52003, 
                    [
                        {
                            "pitch": 63, 
                            "t0": 52003, 
                            "v": 38, 
                            "dur": 234, 
                            "type": "note", 
                            "channel": 0
                        }, 
                        {
                            "pitch": 72, 
                            "t0": 52003, 
                            "v": 51, 
                            "dur": 299, 
                            "type": "note", 
                            "channel": 0
                        }
                    ]
                ], 
                [
                    52019, 
                    [
                        {
                            "pitch": 56, 
                            "t0": 52019, 
                            "v": 26, 
                            "dur": 227, 
                            "type": "note", 
                            "channel": 0
                        }
                    ]
                ], 
                [
                    52054, 
                    [
                        {
                            "pitch": 60, 
                            "t0": 52054, 
                            "v": 25, 
                            "dur": 170, 
                            "type": "note", 
                            "channel": 0
                        }
                    ]
                ], 
                [
                    52257, 
                    [
                        {
                            "pitch": 77, 
                            "t0": 52257, 
                            "v": 78, 
                            "dur": 33, 
                            "type": "note", 
                            "channel": 0
                        }
                    ]
                ], 
                [
                    52277, 
                    [
                        {
                            "pitch": 65, 
                            "t0": 52277, 
                            "v": 51, 
                            "dur": 49, 
                            "type": "note", 
                            "channel": 0
                        }
                    ]
                ], 
                [
                    52510, 
                    [
                        {
                            "pitch": 66, 
                            "t0": 52510, 
                            "v": 62, 
                            "dur": 31, 
                            "type": "note", 
                            "channel": 0
                        }, 
                        {
                            "pitch": 63, 
                            "t0": 52510, 
                            "v": 62, 
                            "dur": 34, 
                            "type": "note", 
                            "channel": 0
                        }
                    ]
                ], 
                [
                    52518, 
                    [
                        {
                            "pitch": 57, 
                            "t0": 52518, 
                            "v": 46, 
                            "dur": 39, 
                            "type": "note", 
                            "channel": 0
                        }
                    ]
                ], 
                [
                    52527, 
                    [
                        {
                            "pitch": 84, 
                            "t0": 52527, 
                            "v": 80, 
                            "dur": 30, 
                            "type": "note", 
                            "channel": 0
                        }, 
                        {
                            "pitch": 78, 
                            "t0": 52527, 
                            "v": 64, 
                            "dur": 59, 
                            "type": "note", 
                            "channel": 0
                        }
                    ]
                ], 
                [
                    52530, 
                    [
                        {
                            "pitch": 72, 
                            "t0": 52530, 
                            "v": 72, 
                            "dur": 91, 
                            "type": "note", 
                            "channel": 0
                        }
                    ]
                ], 
                [
                    52681, 
                    [
                        {
                            "pitch": 45, 
                            "t0": 52681, 
                            "v": 48, 
                            "dur": 44, 
                            "type": "note", 
                            "channel": 0
                        }
                    ]
                ], 
                [
                    52795, 
                    [
                        {
                            "pitch": 77, 
                            "t0": 52795, 
                            "v": 83, 
                            "dur": 38, 
                            "type": "note", 
                            "channel": 0
                        }, 
                        {
                            "pitch": 45, 
                            "t0": 52795, 
                            "v": 61, 
                            "dur": 38, 
                            "type": "note", 
                            "channel": 0
                        }
                    ]
                ], 
                [
                    52798, 
                    [
                        {
                            "pitch": 57, 
                            "t0": 52798, 
                            "v": 45, 
                            "dur": 44, 
                            "type": "note", 
                            "channel": 0
                        }, 
                        {
                            "pitch": 65, 
                            "t0": 52798, 
                            "v": 66, 
                            "dur": 47, 
                            "type": "note", 
                            "channel": 0
                        }
                    ]
                ], 
                [
                    52922, 
                    [
                        {
                            "pitch": 57, 
                            "t0": 52922, 
                            "v": 50, 
                            "dur": 43, 
                            "type": "note", 
                            "channel": 0
                        }
                    ]
                ], 
                [
                    53054, 
                    [
                        {
                            "pitch": 63, 
                            "t0": 53054, 
                            "v": 81, 
                            "dur": 53, 
                            "type": "note", 
                            "channel": 0
                        }
                    ]
                ], 
                [
                    53061, 
                    [
                        {
                            "pitch": 75, 
                            "t0": 53061, 
                            "v": 75, 
                            "dur": 81, 
                            "type": "note", 
                            "channel": 0
                        }
                    ]
                ], 
                [
                    53081, 
                    [
                        {
                            "pitch": 45, 
                            "t0": 53081, 
                            "v": 47, 
                            "dur": 37, 
                            "type": "note", 
                            "channel": 0
                        }, 
                        {
                            "pitch": 57, 
                            "t0": 53081, 
                            "v": 47, 
                            "dur": 42, 
                            "type": "note", 
                            "channel": 0
                        }
                    ]
                ], 
                [
                    53338, 
                    [
                        {
                            "pitch": 77, 
                            "t0": 53338, 
                            "v": 99, 
                            "dur": 47, 
                            "type": "note", 
                            "channel": 0
                        }
                    ]
                ], 
                [
                    53341, 
                    [
                        {
                            "pitch": 65, 
                            "t0": 53341, 
                            "v": 85, 
                            "dur": 28, 
                            "type": "note", 
                            "channel": 0
                        }
                    ]
                ], 
                [
                    53591, 
                    [
                        {
                            "pitch": 82, 
                            "t0": 53591, 
                            "v": 108, 
                            "dur": 148, 
                            "type": "note", 
                            "channel": 0
                        }, 
                        {
                            "pitch": 70, 
                            "t0": 53591, 
                            "v": 99, 
                            "dur": 193, 
                            "type": "note", 
                            "channel": 0
                        }, 
                        {
                            "pitch": 78, 
                            "t0": 53591, 
                            "v": 93, 
                            "dur": 212, 
                            "type": "note", 
                            "channel": 0
                        }
                    ]
                ], 
                [
                    53595, 
                    [
                        {
                            "pitch": 66, 
                            "t0": 53595, 
                            "v": 83, 
                            "dur": 55, 
                            "type": "note", 
                            "channel": 0
                        }, 
                        {
                            "pitch": 63, 
                            "t0": 53595, 
                            "v": 79, 
                            "dur": 66, 
                            "type": "note", 
                            "channel": 0
                        }
                    ]
                ], 
                [
                    53607, 
                    [
                        {
                            "pitch": 75, 
                            "t0": 53607, 
                            "v": 68, 
                            "dur": 201, 
                            "type": "note", 
                            "channel": 0
                        }
                    ]
                ], 
                [
                    53611, 
                    [
                        {
                            "pitch": 58, 
                            "t0": 53611, 
                            "v": 76, 
                            "dur": 50, 
                            "type": "note", 
                            "channel": 0
                        }
                    ]
                ], 
                [
                    53763, 
                    [
                        {
                            "pitch": 46, 
                            "t0": 53763, 
                            "v": 94, 
                            "dur": 32, 
                            "type": "note", 
                            "channel": 0
                        }
                    ]
                ], 
                [
                    53872, 
                    [
                        {
                            "pitch": 77, 
                            "t0": 53872, 
                            "v": 102, 
                            "dur": 70, 
                            "type": "note", 
                            "channel": 0
                        }
                    ]
                ], 
                [
                    53883, 
                    [
                        {
                            "pitch": 65, 
                            "t0": 53883, 
                            "v": 64, 
                            "dur": 78, 
                            "type": "note", 
                            "channel": 0
                        }
                    ]
                ], 
                [
                    53886, 
                    [
                        {
                            "pitch": 58, 
                            "t0": 53886, 
                            "v": 74, 
                            "dur": 37, 
                            "type": "note", 
                            "channel": 0
                        }
                    ]
                ], 
                [
                    53895, 
                    [
                        {
                            "pitch": 46, 
                            "t0": 53895, 
                            "v": 58, 
                            "dur": 47, 
                            "type": "note", 
                            "channel": 0
                        }
                    ]
                ], 
                [
                    53993, 
                    [
                        {
                            "pitch": 58, 
                            "t0": 53993, 
                            "v": 62, 
                            "dur": 55, 
                            "type": "note", 
                            "channel": 0
                        }
                    ]
                ], 
                [
                    53997, 
                    [
                        {
                            "pitch": 46, 
                            "t0": 53997, 
                            "v": 85, 
                            "dur": 62, 
                            "type": "note", 
                            "channel": 0
                        }
                    ]
                ], 
                [
                    54132, 
                    [
                        {
                            "pitch": 63, 
                            "t0": 54132, 
                            "v": 93, 
                            "dur": 39, 
                            "type": "note", 
                            "channel": 0
                        }
                    ]
                ], 
                [
                    54135, 
                    [
                        {
                            "pitch": 75, 
                            "t0": 54135, 
                            "v": 94, 
                            "dur": 83, 
                            "type": "note", 
                            "channel": 0
                        }
                    ]
                ], 
                [
                    54146, 
                    [
                        {
                            "pitch": 58, 
                            "t0": 54146, 
                            "v": 103, 
                            "dur": 32, 
                            "type": "note", 
                            "channel": 0
                        }
                    ]
                ], 
                [
                    54149, 
                    [
                        {
                            "pitch": 46, 
                            "t0": 54149, 
                            "v": 98, 
                            "dur": 32, 
                            "type": "note", 
                            "channel": 0
                        }
                    ]
                ], 
                [
                    54393, 
                    [
                        {
                            "pitch": 77, 
                            "t0": 54393, 
                            "v": 111, 
                            "dur": 73, 
                            "type": "note", 
                            "channel": 0
                        }
                    ]
                ], 
                [
                    54396, 
                    [
                        {
                            "pitch": 65, 
                            "t0": 54396, 
                            "v": 102, 
                            "dur": 34, 
                            "type": "note", 
                            "channel": 0
                        }
                    ]
                ], 
                [
                    54641, 
                    [
                        {
                            "pitch": 66, 
                            "t0": 54641, 
                            "v": 98, 
                            "dur": 42, 
                            "type": "note", 
                            "channel": 0
                        }, 
                        {
                            "pitch": 59, 
                            "t0": 54641, 
                            "v": 89, 
                            "dur": 61, 
                            "type": "note", 
                            "channel": 0
                        }
                    ]
                ], 
                [
                    54644, 
                    [
                        {
                            "pitch": 81, 
                            "t0": 54644, 
                            "v": 111, 
                            "dur": 123, 
                            "type": "note", 
                            "channel": 0
                        }, 
                        {
                            "pitch": 78, 
                            "t0": 54644, 
                            "v": 96, 
                            "dur": 147, 
                            "type": "note", 
                            "channel": 0
                        }, 
                        {
                            "pitch": 69, 
                            "t0": 54644, 
                            "v": 108, 
                            "dur": 156, 
                            "type": "note", 
                            "channel": 0
                        }
                    ]
                ], 
                [
                    54647, 
                    [
                        {
                            "pitch": 75, 
                            "t0": 54647, 
                            "v": 92, 
                            "dur": 134, 
                            "type": "note", 
                            "channel": 0
                        }
                    ]
                ], 
                [
                    54658, 
                    [
                        {
                            "pitch": 63, 
                            "t0": 54658, 
                            "v": 84, 
                            "dur": 25, 
                            "type": "note", 
                            "channel": 0
                        }
                    ]
                ], 
                [
                    54791, 
                    [
                        {
                            "pitch": 59, 
                            "t0": 54791, 
                            "v": 76, 
                            "dur": 31, 
                            "type": "note", 
                            "channel": 0
                        }
                    ]
                ], 
                [
                    54803, 
                    [
                        {
                            "pitch": 47, 
                            "t0": 54803, 
                            "v": 81, 
                            "dur": 24, 
                            "type": "note", 
                            "channel": 0
                        }
                    ]
                ], 
                [
                    54922, 
                    [
                        {
                            "pitch": 65, 
                            "t0": 54922, 
                            "v": 105, 
                            "dur": 78, 
                            "type": "note", 
                            "channel": 0
                        }, 
                        {
                            "pitch": 77, 
                            "t0": 54922, 
                            "v": 110, 
                            "dur": 78, 
                            "type": "note", 
                            "channel": 0
                        }
                    ]
                ], 
                [
                    54929, 
                    [
                        {
                            "pitch": 47, 
                            "t0": 54929, 
                            "v": 52, 
                            "dur": 30, 
                            "type": "note", 
                            "channel": 0
                        }, 
                        {
                            "pitch": 59, 
                            "t0": 54929, 
                            "v": 57, 
                            "dur": 30, 
                            "type": "note", 
                            "channel": 0
                        }
                    ]
                ], 
                [
                    55043, 
                    [
                        {
                            "pitch": 59, 
                            "t0": 55043, 
                            "v": 54, 
                            "dur": 61, 
                            "type": "note", 
                            "channel": 0
                        }
                    ]
                ], 
                [
                    55048, 
                    [
                        {
                            "pitch": 47, 
                            "t0": 55048, 
                            "v": 55, 
                            "dur": 45, 
                            "type": "note", 
                            "channel": 0
                        }
                    ]
                ], 
                [
                    55185, 
                    [
                        {
                            "pitch": 63, 
                            "t0": 55185, 
                            "v": 101, 
                            "dur": 89, 
                            "type": "note", 
                            "channel": 0
                        }
                    ]
                ], 
                [
                    55188, 
                    [
                        {
                            "pitch": 75, 
                            "t0": 55188, 
                            "v": 97, 
                            "dur": 100, 
                            "type": "note", 
                            "channel": 0
                        }
                    ]
                ], 
                [
                    55202, 
                    [
                        {
                            "pitch": 59, 
                            "t0": 55202, 
                            "v": 83, 
                            "dur": 46, 
                            "type": "note", 
                            "channel": 0
                        }
                    ]
                ], 
                [
                    55213, 
                    [
                        {
                            "pitch": 47, 
                            "t0": 55213, 
                            "v": 84, 
                            "dur": 28, 
                            "type": "note", 
                            "channel": 0
                        }
                    ]
                ], 
                [
                    55449, 
                    [
                        {
                            "pitch": 77, 
                            "t0": 55449, 
                            "v": 111, 
                            "dur": 101, 
                            "type": "note", 
                            "channel": 0
                        }
                    ]
                ], 
                [
                    55453, 
                    [
                        {
                            "pitch": 65, 
                            "t0": 55453, 
                            "v": 103, 
                            "dur": 68, 
                            "type": "note", 
                            "channel": 0
                        }
                    ]
                ], 
                [
                    55738, 
                    [
                        {
                            "pitch": 78, 
                            "t0": 55738, 
                            "v": 107, 
                            "dur": 232, 
                            "type": "note", 
                            "channel": 0
                        }
                    ]
                ], 
                [
                    55741, 
                    [
                        {
                            "pitch": 66, 
                            "t0": 55741, 
                            "v": 103, 
                            "dur": 223, 
                            "type": "note", 
                            "channel": 0
                        }
                    ]
                ], 
                [
                    55856, 
                    [
                        {
                            "pitch": 60, 
                            "t0": 55856, 
                            "v": 99, 
                            "dur": 39, 
                            "type": "note", 
                            "channel": 0
                        }
                    ]
                ], 
                [
                    55862, 
                    [
                        {
                            "pitch": 48, 
                            "t0": 55862, 
                            "v": 95, 
                            "dur": 33, 
                            "type": "note", 
                            "channel": 0
                        }
                    ]
                ], 
                [
                    55976, 
                    [
                        {
                            "pitch": 60, 
                            "t0": 55976, 
                            "v": 92, 
                            "dur": 66, 
                            "type": "note", 
                            "channel": 0
                        }, 
                        {
                            "pitch": 77, 
                            "t0": 55976, 
                            "v": 105, 
                            "dur": 139, 
                            "type": "note", 
                            "channel": 0
                        }
                    ]
                ], 
                [
                    55979, 
                    [
                        {
                            "pitch": 48, 
                            "t0": 55979, 
                            "v": 93, 
                            "dur": 71, 
                            "type": "note", 
                            "channel": 0
                        }, 
                        {
                            "pitch": 65, 
                            "t0": 55979, 
                            "v": 92, 
                            "dur": 144, 
                            "type": "note", 
                            "channel": 0
                        }
                    ]
                ], 
                [
                    56096, 
                    [
                        {
                            "pitch": 60, 
                            "t0": 56096, 
                            "v": 88, 
                            "dur": 67, 
                            "type": "note", 
                            "channel": 0
                        }
                    ]
                ], 
                [
                    56101, 
                    [
                        {
                            "pitch": 48, 
                            "t0": 56101, 
                            "v": 98, 
                            "dur": 75, 
                            "type": "note", 
                            "channel": 0
                        }
                    ]
                ], 
                [
                    56241, 
                    [
                        {
                            "pitch": 63, 
                            "t0": 56241, 
                            "v": 100, 
                            "dur": 78, 
                            "type": "note", 
                            "channel": 0
                        }
                    ]
                ], 
                [
                    56245, 
                    [
                        {
                            "pitch": 75, 
                            "t0": 56245, 
                            "v": 102, 
                            "dur": 120, 
                            "type": "note", 
                            "channel": 0
                        }
                    ]
                ], 
                [
                    56253, 
                    [
                        {
                            "pitch": 60, 
                            "t0": 56253, 
                            "v": 94, 
                            "dur": 69, 
                            "type": "note", 
                            "channel": 0
                        }
                    ]
                ], 
                [
                    56263, 
                    [
                        {
                            "pitch": 48, 
                            "t0": 56263, 
                            "v": 88, 
                            "dur": 39, 
                            "type": "note", 
                            "channel": 0
                        }
                    ]
                ], 
                [
                    56508, 
                    [
                        {
                            "pitch": 77, 
                            "t0": 56508, 
                            "v": 113, 
                            "dur": 139, 
                            "type": "note", 
                            "channel": 0
                        }
                    ]
                ], 
                [
                    56511, 
                    [
                        {
                            "pitch": 65, 
                            "t0": 56511, 
                            "v": 108, 
                            "dur": 97, 
                            "type": "note", 
                            "channel": 0
                        }
                    ]
                ], 
                [
                    56791, 
                    [
                        {
                            "pitch": 66, 
                            "t0": 56791, 
                            "v": 112, 
                            "dur": 138, 
                            "type": "note", 
                            "channel": 0
                        }, 
                        {
                            "pitch": 78, 
                            "t0": 56791, 
                            "v": 113, 
                            "dur": 151, 
                            "type": "note", 
                            "channel": 0
                        }
                    ]
                ], 
                [
                    56926, 
                    [
                        {
                            "pitch": 48, 
                            "t0": 56926, 
                            "v": 105, 
                            "dur": 30, 
                            "type": "note", 
                            "channel": 0
                        }
                    ]
                ], 
                [
                    56929, 
                    [
                        {
                            "pitch": 36, 
                            "t0": 56929, 
                            "v": 98, 
                            "dur": 24, 
                            "type": "note", 
                            "channel": 0
                        }
                    ]
                ], 
                [
                    57026, 
                    [
                        {
                            "pitch": 65, 
                            "t0": 57026, 
                            "v": 110, 
                            "dur": 84, 
                            "type": "note", 
                            "channel": 0
                        }, 
                        {
                            "pitch": 77, 
                            "t0": 57026, 
                            "v": 113, 
                            "dur": 84, 
                            "type": "note", 
                            "channel": 0
                        }, 
                        {
                            "pitch": 69, 
                            "t0": 57026, 
                            "v": 98, 
                            "dur": 97, 
                            "type": "note", 
                            "channel": 0
                        }, 
                        {
                            "pitch": 75, 
                            "t0": 57026, 
                            "v": 91, 
                            "dur": 123, 
                            "type": "note", 
                            "channel": 0
                        }
                    ]
                ], 
                [
                    57043, 
                    [
                        {
                            "pitch": 48, 
                            "t0": 57043, 
                            "v": 106, 
                            "dur": 58, 
                            "type": "note", 
                            "channel": 0
                        }, 
                        {
                            "pitch": 36, 
                            "t0": 57043, 
                            "v": 92, 
                            "dur": 64, 
                            "type": "note", 
                            "channel": 0
                        }
                    ]
                ], 
                [
                    57154, 
                    [
                        {
                            "pitch": 48, 
                            "t0": 57154, 
                            "v": 102, 
                            "dur": 62, 
                            "type": "note", 
                            "channel": 0
                        }
                    ]
                ], 
                [
                    57157, 
                    [
                        {
                            "pitch": 36, 
                            "t0": 57157, 
                            "v": 108, 
                            "dur": 59, 
                            "type": "note", 
                            "channel": 0
                        }
                    ]
                ], 
                [
                    57290, 
                    [
                        {
                            "pitch": 66, 
                            "t0": 57290, 
                            "v": 112, 
                            "dur": 90, 
                            "type": "note", 
                            "channel": 0
                        }, 
                        {
                            "pitch": 78, 
                            "t0": 57290, 
                            "v": 109, 
                            "dur": 117, 
                            "type": "note", 
                            "channel": 0
                        }
                    ]
                ], 
                [
                    57299, 
                    [
                        {
                            "pitch": 36, 
                            "t0": 57299, 
                            "v": 102, 
                            "dur": 34, 
                            "type": "note", 
                            "channel": 0
                        }, 
                        {
                            "pitch": 48, 
                            "t0": 57299, 
                            "v": 105, 
                            "dur": 52, 
                            "type": "note", 
                            "channel": 0
                        }, 
                        {
                            "pitch": 69, 
                            "t0": 57299, 
                            "v": 101, 
                            "dur": 61, 
                            "type": "note", 
                            "channel": 0
                        }, 
                        {
                            "pitch": 75, 
                            "t0": 57299, 
                            "v": 96, 
                            "dur": 89, 
                            "type": "note", 
                            "channel": 0
                        }
                    ]
                ], 
                [
                    57578, 
                    [
                        {
                            "pitch": 69, 
                            "t0": 57578, 
                            "v": 119, 
                            "dur": 114, 
                            "type": "note", 
                            "channel": 0
                        }, 
                        {
                            "pitch": 81, 
                            "t0": 57578, 
                            "v": 118, 
                            "dur": 117, 
                            "type": "note", 
                            "channel": 0
                        }, 
                        {
                            "pitch": 78, 
                            "t0": 57578, 
                            "v": 105, 
                            "dur": 181, 
                            "type": "note", 
                            "channel": 0
                        }
                    ]
                ], 
                [
                    57581, 
                    [
                        {
                            "pitch": 75, 
                            "t0": 57581, 
                            "v": 105, 
                            "dur": 167, 
                            "type": "note", 
                            "channel": 0
                        }
                    ]
                ], 
                [
                    57586, 
                    [
                        {
                            "pitch": 60, 
                            "t0": 57586, 
                            "v": 115, 
                            "dur": 137, 
                            "type": "note", 
                            "channel": 0
                        }, 
                        {
                            "pitch": 54, 
                            "t0": 57586, 
                            "v": 90, 
                            "dur": 155, 
                            "type": "note", 
                            "channel": 0
                        }
                    ]
                ], 
                [
                    57591, 
                    [
                        {
                            "pitch": 57, 
                            "t0": 57591, 
                            "v": 104, 
                            "dur": 128, 
                            "type": "note", 
                            "channel": 0
                        }
                    ]
                ], 
                [
                    57600, 
                    [
                        {
                            "pitch": 51, 
                            "t0": 57600, 
                            "v": 95, 
                            "dur": 105, 
                            "type": "note", 
                            "channel": 0
                        }
                    ]
                ], 
                [
                    57614, 
                    [
                        {
                            "pitch": 48, 
                            "t0": 57614, 
                            "v": 70, 
                            "dur": 81, 
                            "type": "note", 
                            "channel": 0
                        }
                    ]
                ], 
                [
                    57981, 
                    [
                        {
                            "pitch": 70, 
                            "t0": 57981, 
                            "v": 124, 
                            "dur": 613, 
                            "type": "note", 
                            "channel": 0
                        }, 
                        {
                            "pitch": 82, 
                            "t0": 57981, 
                            "v": 122, 
                            "dur": 630, 
                            "type": "note", 
                            "channel": 0
                        }
                    ]
                ], 
                [
                    57984, 
                    [
                        {
                            "pitch": 62, 
                            "t0": 57984, 
                            "v": 117, 
                            "dur": 599, 
                            "type": "note", 
                            "channel": 0
                        }, 
                        {
                            "pitch": 58, 
                            "t0": 57984, 
                            "v": 117, 
                            "dur": 636, 
                            "type": "note", 
                            "channel": 0
                        }, 
                        {
                            "pitch": 80, 
                            "t0": 57984, 
                            "v": 109, 
                            "dur": 760, 
                            "type": "note", 
                            "channel": 0
                        }
                    ]
                ], 
                [
                    57987, 
                    [
                        {
                            "pitch": 53, 
                            "t0": 57987, 
                            "v": 103, 
                            "dur": 627, 
                            "type": "note", 
                            "channel": 0
                        }, 
                        {
                            "pitch": 50, 
                            "t0": 57987, 
                            "v": 113, 
                            "dur": 647, 
                            "type": "note", 
                            "channel": 0
                        }, 
                        {
                            "pitch": 77, 
                            "t0": 57987, 
                            "v": 117, 
                            "dur": 721, 
                            "type": "note", 
                            "channel": 0
                        }
                    ]
                ], 
                [
                    58726, 
                    [
                        {
                            "pitch": 84, 
                            "t0": 58726, 
                            "v": 112, 
                            "dur": 61, 
                            "type": "note", 
                            "channel": 0
                        }
                    ]
                ], 
                [
                    58731, 
                    [
                        {
                            "pitch": 72, 
                            "t0": 58731, 
                            "v": 108, 
                            "dur": 67, 
                            "type": "note", 
                            "channel": 0
                        }
                    ]
                ], 
                [
                    58884, 
                    [
                        {
                            "pitch": 70, 
                            "t0": 58884, 
                            "v": 121, 
                            "dur": 61, 
                            "type": "note", 
                            "channel": 0
                        }
                    ]
                ], 
                [
                    58889, 
                    [
                        {
                            "pitch": 82, 
                            "t0": 58889, 
                            "v": 119, 
                            "dur": 62, 
                            "type": "note", 
                            "channel": 0
                        }, 
                        {
                            "pitch": 50, 
                            "t0": 58889, 
                            "v": 113, 
                            "dur": 96, 
                            "type": "note", 
                            "channel": 0
                        }
                    ]
                ], 
                [
                    58893, 
                    [
                        {
                            "pitch": 38, 
                            "t0": 58893, 
                            "v": 105, 
                            "dur": 58, 
                            "type": "note", 
                            "channel": 0
                        }, 
                        {
                            "pitch": 41, 
                            "t0": 58893, 
                            "v": 95, 
                            "dur": 71, 
                            "type": "note", 
                            "channel": 0
                        }, 
                        {
                            "pitch": 46, 
                            "t0": 58893, 
                            "v": 110, 
                            "dur": 92, 
                            "type": "note", 
                            "channel": 0
                        }
                    ]
                ], 
                [
                    59023, 
                    [
                        {
                            "pitch": 68, 
                            "t0": 59023, 
                            "v": 107, 
                            "dur": 64, 
                            "type": "note", 
                            "channel": 0
                        }, 
                        {
                            "pitch": 80, 
                            "t0": 59023, 
                            "v": 107, 
                            "dur": 69, 
                            "type": "note", 
                            "channel": 0
                        }
                    ]
                ], 
                [
                    59174, 
                    [
                        {
                            "pitch": 51, 
                            "t0": 59174, 
                            "v": 119, 
                            "dur": 89, 
                            "type": "note", 
                            "channel": 0
                        }, 
                        {
                            "pitch": 68, 
                            "t0": 59174, 
                            "v": 112, 
                            "dur": 103, 
                            "type": "note", 
                            "channel": 0
                        }, 
                        {
                            "pitch": 80, 
                            "t0": 59174, 
                            "v": 106, 
                            "dur": 108, 
                            "type": "note", 
                            "channel": 0
                        }
                    ]
                ], 
                [
                    59182, 
                    [
                        {
                            "pitch": 39, 
                            "t0": 59182, 
                            "v": 111, 
                            "dur": 75, 
                            "type": "note", 
                            "channel": 0
                        }
                    ]
                ], 
                [
                    59185, 
                    [
                        {
                            "pitch": 46, 
                            "t0": 59185, 
                            "v": 114, 
                            "dur": 83, 
                            "type": "note", 
                            "channel": 0
                        }
                    ]
                ], 
                [
                    59324, 
                    [
                        {
                            "pitch": 79, 
                            "t0": 59324, 
                            "v": 110, 
                            "dur": 55, 
                            "type": "note", 
                            "channel": 0
                        }, 
                        {
                            "pitch": 67, 
                            "t0": 59324, 
                            "v": 106, 
                            "dur": 67, 
                            "type": "note", 
                            "channel": 0
                        }
                    ]
                ], 
                [
                    59463, 
                    [
                        {
                            "pitch": 77, 
                            "t0": 59463, 
                            "v": 111, 
                            "dur": 36, 
                            "type": "note", 
                            "channel": 0
                        }, 
                        {
                            "pitch": 65, 
                            "t0": 59463, 
                            "v": 110, 
                            "dur": 67, 
                            "type": "note", 
                            "channel": 0
                        }
                    ]
                ], 
                [
                    59592, 
                    [
                        {
                            "pitch": 63, 
                            "t0": 59592, 
                            "v": 107, 
                            "dur": 61, 
                            "type": "note", 
                            "channel": 0
                        }
                    ]
                ], 
                [
                    59595, 
                    [
                        {
                            "pitch": 75, 
                            "t0": 59595, 
                            "v": 101, 
                            "dur": 75, 
                            "type": "note", 
                            "channel": 0
                        }
                    ]
                ], 
                [
                    59726, 
                    [
                        {
                            "pitch": 53, 
                            "t0": 59726, 
                            "v": 109, 
                            "dur": 89, 
                            "type": "note", 
                            "channel": 0
                        }, 
                        {
                            "pitch": 41, 
                            "t0": 59726, 
                            "v": 106, 
                            "dur": 96, 
                            "type": "note", 
                            "channel": 0
                        }
                    ]
                ], 
                [
                    59731, 
                    [
                        {
                            "pitch": 63, 
                            "t0": 59731, 
                            "v": 105, 
                            "dur": 94, 
                            "type": "note", 
                            "channel": 0
                        }, 
                        {
                            "pitch": 75, 
                            "t0": 59731, 
                            "v": 97, 
                            "dur": 105, 
                            "type": "note", 
                            "channel": 0
                        }, 
                        {
                            "pitch": 50, 
                            "t0": 59731, 
                            "v": 101, 
                            "dur": 105, 
                            "type": "note", 
                            "channel": 0
                        }
                    ]
                ], 
                [
                    59734, 
                    [
                        {
                            "pitch": 46, 
                            "t0": 59734, 
                            "v": 108, 
                            "dur": 108, 
                            "type": "note", 
                            "channel": 0
                        }
                    ]
                ], 
                [
                    59876, 
                    [
                        {
                            "pitch": 62, 
                            "t0": 59876, 
                            "v": 95, 
                            "dur": 66, 
                            "type": "note", 
                            "channel": 0
                        }, 
                        {
                            "pitch": 74, 
                            "t0": 59876, 
                            "v": 106, 
                            "dur": 72, 
                            "type": "note", 
                            "channel": 0
                        }
                    ]
                ], 
                [
                    60001, 
                    [
                        {
                            "pitch": 60, 
                            "t0": 60001, 
                            "v": 105, 
                            "dur": 76, 
                            "type": "note", 
                            "channel": 0
                        }
                    ]
                ], 
                [
                    60006, 
                    [
                        {
                            "pitch": 72, 
                            "t0": 60006, 
                            "v": 111, 
                            "dur": 59, 
                            "type": "note", 
                            "channel": 0
                        }
                    ]
                ], 
                [
                    60140, 
                    [
                        {
                            "pitch": 62, 
                            "t0": 60140, 
                            "v": 76, 
                            "dur": 53, 
                            "type": "note", 
                            "channel": 0
                        }, 
                        {
                            "pitch": 74, 
                            "t0": 60140, 
                            "v": 113, 
                            "dur": 61, 
                            "type": "note", 
                            "channel": 0
                        }
                    ]
                ], 
                [
                    60283, 
                    [
                        {
                            "pitch": 65, 
                            "t0": 60283, 
                            "v": 115, 
                            "dur": 64, 
                            "type": "note", 
                            "channel": 0
                        }, 
                        {
                            "pitch": 55, 
                            "t0": 60283, 
                            "v": 120, 
                            "dur": 127, 
                            "type": "note", 
                            "channel": 0
                        }
                    ]
                ], 
                [
                    60286, 
                    [
                        {
                            "pitch": 77, 
                            "t0": 60286, 
                            "v": 119, 
                            "dur": 68, 
                            "type": "note", 
                            "channel": 0
                        }, 
                        {
                            "pitch": 51, 
                            "t0": 60286, 
                            "v": 106, 
                            "dur": 124, 
                            "type": "note", 
                            "channel": 0
                        }
                    ]
                ], 
                [
                    60290, 
                    [
                        {
                            "pitch": 43, 
                            "t0": 60290, 
                            "v": 105, 
                            "dur": 110, 
                            "type": "note", 
                            "channel": 0
                        }, 
                        {
                            "pitch": 46, 
                            "t0": 60290, 
                            "v": 108, 
                            "dur": 137, 
                            "type": "note", 
                            "channel": 0
                        }
                    ]
                ], 
                [
                    60418, 
                    [
                        {
                            "pitch": 63, 
                            "t0": 60418, 
                            "v": 105, 
                            "dur": 73, 
                            "type": "note", 
                            "channel": 0
                        }
                    ]
                ], 
                [
                    60421, 
                    [
                        {
                            "pitch": 75, 
                            "t0": 60421, 
                            "v": 102, 
                            "dur": 92, 
                            "type": "note", 
                            "channel": 0
                        }
                    ]
                ], 
                [
                    60552, 
                    [
                        {
                            "pitch": 70, 
                            "t0": 60552, 
                            "v": 111, 
                            "dur": 73, 
                            "type": "note", 
                            "channel": 0
                        }
                    ]
                ], 
                [
                    60683, 
                    [
                        {
                            "pitch": 67, 
                            "t0": 60683, 
                            "v": 110, 
                            "dur": 65, 
                            "type": "note", 
                            "channel": 0
                        }
                    ]
                ], 
                [
                    60817, 
                    [
                        {
                            "pitch": 74, 
                            "t0": 60817, 
                            "v": 117, 
                            "dur": 53, 
                            "type": "note", 
                            "channel": 0
                        }, 
                        {
                            "pitch": 56, 
                            "t0": 60817, 
                            "v": 109, 
                            "dur": 115, 
                            "type": "note", 
                            "channel": 0
                        }
                    ]
                ], 
                [
                    60820, 
                    [
                        {
                            "pitch": 62, 
                            "t0": 60820, 
                            "v": 110, 
                            "dur": 61, 
                            "type": "note", 
                            "channel": 0
                        }, 
                        {
                            "pitch": 44, 
                            "t0": 60820, 
                            "v": 99, 
                            "dur": 119, 
                            "type": "note", 
                            "channel": 0
                        }
                    ]
                ], 
                [
                    60826, 
                    [
                        {
                            "pitch": 53, 
                            "t0": 60826, 
                            "v": 97, 
                            "dur": 134, 
                            "type": "note", 
                            "channel": 0
                        }, 
                        {
                            "pitch": 51, 
                            "t0": 60826, 
                            "v": 90, 
                            "dur": 152, 
                            "type": "note", 
                            "channel": 0
                        }
                    ]
                ], 
                [
                    60960, 
                    [
                        {
                            "pitch": 72, 
                            "t0": 60960, 
                            "v": 110, 
                            "dur": 71, 
                            "type": "note", 
                            "channel": 0
                        }, 
                        {
                            "pitch": 60, 
                            "t0": 60960, 
                            "v": 107, 
                            "dur": 75, 
                            "type": "note", 
                            "channel": 0
                        }
                    ]
                ], 
                [
                    61098, 
                    [
                        {
                            "pitch": 68, 
                            "t0": 61098, 
                            "v": 99, 
                            "dur": 70, 
                            "type": "note", 
                            "channel": 0
                        }
                    ]
                ], 
                [
                    61226, 
                    [
                        {
                            "pitch": 65, 
                            "t0": 61226, 
                            "v": 109, 
                            "dur": 67, 
                            "type": "note", 
                            "channel": 0
                        }
                    ]
                ], 
                [
                    61366, 
                    [
                        {
                            "pitch": 72, 
                            "t0": 61366, 
                            "v": 117, 
                            "dur": 62, 
                            "type": "note", 
                            "channel": 0
                        }, 
                        {
                            "pitch": 60, 
                            "t0": 61366, 
                            "v": 104, 
                            "dur": 62, 
                            "type": "note", 
                            "channel": 0
                        }, 
                        {
                            "pitch": 46, 
                            "t0": 61366, 
                            "v": 111, 
                            "dur": 117, 
                            "type": "note", 
                            "channel": 0
                        }, 
                        {
                            "pitch": 55, 
                            "t0": 61366, 
                            "v": 110, 
                            "dur": 125, 
                            "type": "note", 
                            "channel": 0
                        }
                    ]
                ], 
                [
                    61371, 
                    [
                        {
                            "pitch": 51, 
                            "t0": 61371, 
                            "v": 96, 
                            "dur": 140, 
                            "type": "note", 
                            "channel": 0
                        }
                    ]
                ], 
                [
                    61389, 
                    [
                        {
                            "pitch": 62, 
                            "t0": 61389, 
                            "v": 72, 
                            "dur": 36, 
                            "type": "note", 
                            "channel": 0
                        }
                    ]
                ], 
                [
                    61502, 
                    [
                        {
                            "pitch": 58, 
                            "t0": 61502, 
                            "v": 115, 
                            "dur": 78, 
                            "type": "note", 
                            "channel": 0
                        }, 
                        {
                            "pitch": 70, 
                            "t0": 61502, 
                            "v": 110, 
                            "dur": 96, 
                            "type": "note", 
                            "channel": 0
                        }
                    ]
                ], 
                [
                    61641, 
                    [
                        {
                            "pitch": 67, 
                            "t0": 61641, 
                            "v": 96, 
                            "dur": 54, 
                            "type": "note", 
                            "channel": 0
                        }
                    ]
                ], 
                [
                    61761, 
                    [
                        {
                            "pitch": 63, 
                            "t0": 61761, 
                            "v": 103, 
                            "dur": 40, 
                            "type": "note", 
                            "channel": 0
                        }
                    ]
                ], 
                [
                    61896, 
                    [
                        {
                            "pitch": 58, 
                            "t0": 61896, 
                            "v": 121, 
                            "dur": 188, 
                            "type": "note", 
                            "channel": 0
                        }
                    ]
                ], 
                [
                    61903, 
                    [
                        {
                            "pitch": 46, 
                            "t0": 61903, 
                            "v": 107, 
                            "dur": 156, 
                            "type": "note", 
                            "channel": 0
                        }, 
                        {
                            "pitch": 50, 
                            "t0": 61903, 
                            "v": 97, 
                            "dur": 178, 
                            "type": "note", 
                            "channel": 0
                        }
                    ]
                ], 
                [
                    61907, 
                    [
                        {
                            "pitch": 53, 
                            "t0": 61907, 
                            "v": 97, 
                            "dur": 159, 
                            "type": "note", 
                            "channel": 0
                        }
                    ]
                ], 
                [
                    62049, 
                    [
                        {
                            "pitch": 81, 
                            "t0": 62049, 
                            "v": 115, 
                            "dur": 32, 
                            "type": "note", 
                            "channel": 0
                        }, 
                        {
                            "pitch": 69, 
                            "t0": 62049, 
                            "v": 113, 
                            "dur": 35, 
                            "type": "note", 
                            "channel": 0
                        }
                    ]
                ], 
                [
                    62183, 
                    [
                        {
                            "pitch": 70, 
                            "t0": 62183, 
                            "v": 117, 
                            "dur": 63, 
                            "type": "note", 
                            "channel": 0
                        }
                    ]
                ], 
                [
                    62186, 
                    [
                        {
                            "pitch": 82, 
                            "t0": 62186, 
                            "v": 118, 
                            "dur": 74, 
                            "type": "note", 
                            "channel": 0
                        }
                    ]
                ], 
                [
                    62321, 
                    [
                        {
                            "pitch": 69, 
                            "t0": 62321, 
                            "v": 114, 
                            "dur": 61, 
                            "type": "note", 
                            "channel": 0
                        }, 
                        {
                            "pitch": 81, 
                            "t0": 62321, 
                            "v": 115, 
                            "dur": 65, 
                            "type": "note", 
                            "channel": 0
                        }
                    ]
                ], 
                [
                    62475, 
                    [
                        {
                            "pitch": 50, 
                            "t0": 62475, 
                            "v": 123, 
                            "dur": 109, 
                            "type": "note", 
                            "channel": 0
                        }, 
                        {
                            "pitch": 82, 
                            "t0": 62475, 
                            "v": 117, 
                            "dur": 120, 
                            "type": "note", 
                            "channel": 0
                        }, 
                        {
                            "pitch": 46, 
                            "t0": 62475, 
                            "v": 125, 
                            "dur": 127, 
                            "type": "note", 
                            "channel": 0
                        }
                    ]
                ], 
                [
                    62478, 
                    [
                        {
                            "pitch": 38, 
                            "t0": 62478, 
                            "v": 118, 
                            "dur": 91, 
                            "type": "note", 
                            "channel": 0
                        }, 
                        {
                            "pitch": 70, 
                            "t0": 62478, 
                            "v": 119, 
                            "dur": 134, 
                            "type": "note", 
                            "channel": 0
                        }, 
                        {
                            "pitch": 80, 
                            "t0": 62478, 
                            "v": 103, 
                            "dur": 557, 
                            "type": "note", 
                            "channel": 0
                        }
                    ]
                ], 
                [
                    62481, 
                    [
                        {
                            "pitch": 77, 
                            "t0": 62481, 
                            "v": 106, 
                            "dur": 635, 
                            "type": "note", 
                            "channel": 0
                        }
                    ]
                ], 
                [
                    62633, 
                    [
                        {
                            "pitch": 81, 
                            "t0": 62633, 
                            "v": 109, 
                            "dur": 71, 
                            "type": "note", 
                            "channel": 0
                        }
                    ]
                ], 
                [
                    62641, 
                    [
                        {
                            "pitch": 69, 
                            "t0": 62641, 
                            "v": 96, 
                            "dur": 68, 
                            "type": "note", 
                            "channel": 0
                        }
                    ]
                ], 
                [
                    62783, 
                    [
                        {
                            "pitch": 53, 
                            "t0": 62783, 
                            "v": 121, 
                            "dur": 143, 
                            "type": "note", 
                            "channel": 0
                        }, 
                        {
                            "pitch": 46, 
                            "t0": 62783, 
                            "v": 121, 
                            "dur": 193, 
                            "type": "note", 
                            "channel": 0
                        }
                    ]
                ], 
                [
                    62786, 
                    [
                        {
                            "pitch": 82, 
                            "t0": 62786, 
                            "v": 115, 
                            "dur": 93, 
                            "type": "note", 
                            "channel": 0
                        }, 
                        {
                            "pitch": 41, 
                            "t0": 62786, 
                            "v": 110, 
                            "dur": 185, 
                            "type": "note", 
                            "channel": 0
                        }
                    ]
                ], 
                [
                    62789, 
                    [
                        {
                            "pitch": 70, 
                            "t0": 62789, 
                            "v": 115, 
                            "dur": 90, 
                            "type": "note", 
                            "channel": 0
                        }
                    ]
                ], 
                [
                    62931, 
                    [
                        {
                            "pitch": 69, 
                            "t0": 62931, 
                            "v": 101, 
                            "dur": 51, 
                            "type": "note", 
                            "channel": 0
                        }, 
                        {
                            "pitch": 81, 
                            "t0": 62931, 
                            "v": 102, 
                            "dur": 73, 
                            "type": "note", 
                            "channel": 0
                        }
                    ]
                ], 
                [
                    63060, 
                    [
                        {
                            "pitch": 50, 
                            "t0": 63060, 
                            "v": 115, 
                            "dur": 195, 
                            "type": "note", 
                            "channel": 0
                        }, 
                        {
                            "pitch": 46, 
                            "t0": 63060, 
                            "v": 114, 
                            "dur": 205, 
                            "type": "note", 
                            "channel": 0
                        }
                    ]
                ], 
                [
                    63066, 
                    [
                        {
                            "pitch": 70, 
                            "t0": 63066, 
                            "v": 120, 
                            "dur": 69, 
                            "type": "note", 
                            "channel": 0
                        }, 
                        {
                            "pitch": 82, 
                            "t0": 63066, 
                            "v": 118, 
                            "dur": 83, 
                            "type": "note", 
                            "channel": 0
                        }, 
                        {
                            "pitch": 38, 
                            "t0": 63066, 
                            "v": 113, 
                            "dur": 156, 
                            "type": "note", 
                            "channel": 0
                        }
                    ]
                ], 
                [
                    63204, 
                    [
                        {
                            "pitch": 84, 
                            "t0": 63204, 
                            "v": 112, 
                            "dur": 46, 
                            "type": "note", 
                            "channel": 0
                        }, 
                        {
                            "pitch": 72, 
                            "t0": 63204, 
                            "v": 112, 
                            "dur": 61, 
                            "type": "note", 
                            "channel": 0
                        }
                    ]
                ], 
                [
                    63338, 
                    [
                        {
                            "pitch": 70, 
                            "t0": 63338, 
                            "v": 120, 
                            "dur": 62, 
                            "type": "note", 
                            "channel": 0
                        }
                    ]
                ], 
                [
                    63341, 
                    [
                        {
                            "pitch": 82, 
                            "t0": 63341, 
                            "v": 115, 
                            "dur": 81, 
                            "type": "note", 
                            "channel": 0
                        }
                    ]
                ], 
                [
                    63346, 
                    [
                        {
                            "pitch": 53, 
                            "t0": 63346, 
                            "v": 117, 
                            "dur": 114, 
                            "type": "note", 
                            "channel": 0
                        }
                    ]
                ], 
                [
                    63349, 
                    [
                        {
                            "pitch": 41, 
                            "t0": 63349, 
                            "v": 108, 
                            "dur": 103, 
                            "type": "note", 
                            "channel": 0
                        }, 
                        {
                            "pitch": 46, 
                            "t0": 63349, 
                            "v": 106, 
                            "dur": 167, 
                            "type": "note", 
                            "channel": 0
                        }
                    ]
                ], 
                [
                    63470, 
                    [
                        {
                            "pitch": 68, 
                            "t0": 63470, 
                            "v": 108, 
                            "dur": 60, 
                            "type": "note", 
                            "channel": 0
                        }
                    ]
                ], 
                [
                    63475, 
                    [
                        {
                            "pitch": 80, 
                            "t0": 63475, 
                            "v": 103, 
                            "dur": 73, 
                            "type": "note", 
                            "channel": 0
                        }
                    ]
                ], 
                [
                    63612, 
                    [
                        {
                            "pitch": 80, 
                            "t0": 63612, 
                            "v": 107, 
                            "dur": 116, 
                            "type": "note", 
                            "channel": 0
                        }, 
                        {
                            "pitch": 51, 
                            "t0": 63612, 
                            "v": 120, 
                            "dur": 192, 
                            "type": "note", 
                            "channel": 0
                        }
                    ]
                ], 
                [
                    63615, 
                    [
                        {
                            "pitch": 68, 
                            "t0": 63615, 
                            "v": 111, 
                            "dur": 113, 
                            "type": "note", 
                            "channel": 0
                        }
                    ]
                ], 
                [
                    63619, 
                    [
                        {
                            "pitch": 39, 
                            "t0": 63619, 
                            "v": 112, 
                            "dur": 145, 
                            "type": "note", 
                            "channel": 0
                        }
                    ]
                ], 
                [
                    63623, 
                    [
                        {
                            "pitch": 46, 
                            "t0": 63623, 
                            "v": 115, 
                            "dur": 144, 
                            "type": "note", 
                            "channel": 0
                        }
                    ]
                ], 
                [
                    63764, 
                    [
                        {
                            "pitch": 79, 
                            "t0": 63764, 
                            "v": 109, 
                            "dur": 54, 
                            "type": "note", 
                            "channel": 0
                        }
                    ]
                ], 
                [
                    63767, 
                    [
                        {
                            "pitch": 67, 
                            "t0": 63767, 
                            "v": 106, 
                            "dur": 64, 
                            "type": "note", 
                            "channel": 0
                        }
                    ]
                ], 
                [
                    63901, 
                    [
                        {
                            "pitch": 77, 
                            "t0": 63901, 
                            "v": 110, 
                            "dur": 31, 
                            "type": "note", 
                            "channel": 0
                        }, 
                        {
                            "pitch": 65, 
                            "t0": 63901, 
                            "v": 112, 
                            "dur": 73, 
                            "type": "note", 
                            "channel": 0
                        }
                    ]
                ], 
                [
                    63918, 
                    [
                        {
                            "pitch": 55, 
                            "t0": 63918, 
                            "v": 114, 
                            "dur": 134, 
                            "type": "note", 
                            "channel": 0
                        }
                    ]
                ], 
                [
                    63923, 
                    [
                        {
                            "pitch": 46, 
                            "t0": 63923, 
                            "v": 96, 
                            "dur": 140, 
                            "type": "note", 
                            "channel": 0
                        }, 
                        {
                            "pitch": 43, 
                            "t0": 63923, 
                            "v": 95, 
                            "dur": 154, 
                            "type": "note", 
                            "channel": 0
                        }
                    ]
                ], 
                [
                    64030, 
                    [
                        {
                            "pitch": 63, 
                            "t0": 64030, 
                            "v": 110, 
                            "dur": 60, 
                            "type": "note", 
                            "channel": 0
                        }
                    ]
                ], 
                [
                    64037, 
                    [
                        {
                            "pitch": 75, 
                            "t0": 64037, 
                            "v": 100, 
                            "dur": 68, 
                            "type": "note", 
                            "channel": 0
                        }
                    ]
                ], 
                [
                    64171, 
                    [
                        {
                            "pitch": 63, 
                            "t0": 64171, 
                            "v": 103, 
                            "dur": 114, 
                            "type": "note", 
                            "channel": 0
                        }, 
                        {
                            "pitch": 46, 
                            "t0": 64171, 
                            "v": 113, 
                            "dur": 143, 
                            "type": "note", 
                            "channel": 0
                        }, 
                        {
                            "pitch": 53, 
                            "t0": 64171, 
                            "v": 120, 
                            "dur": 159, 
                            "type": "note", 
                            "channel": 0
                        }
                    ]
                ], 
                [
                    64176, 
                    [
                        {
                            "pitch": 75, 
                            "t0": 64176, 
                            "v": 100, 
                            "dur": 99, 
                            "type": "note", 
                            "channel": 0
                        }, 
                        {
                            "pitch": 41, 
                            "t0": 64176, 
                            "v": 111, 
                            "dur": 123, 
                            "type": "note", 
                            "channel": 0
                        }
                    ]
                ], 
                [
                    64319, 
                    [
                        {
                            "pitch": 74, 
                            "t0": 64319, 
                            "v": 109, 
                            "dur": 58, 
                            "type": "note", 
                            "channel": 0
                        }, 
                        {
                            "pitch": 62, 
                            "t0": 64319, 
                            "v": 104, 
                            "dur": 70, 
                            "type": "note", 
                            "channel": 0
                        }
                    ]
                ], 
                [
                    64452, 
                    [
                        {
                            "pitch": 72, 
                            "t0": 64452, 
                            "v": 111, 
                            "dur": 56, 
                            "type": "note", 
                            "channel": 0
                        }, 
                        {
                            "pitch": 60, 
                            "t0": 64452, 
                            "v": 106, 
                            "dur": 64, 
                            "type": "note", 
                            "channel": 0
                        }
                    ]
                ], 
                [
                    64458, 
                    [
                        {
                            "pitch": 56, 
                            "t0": 64458, 
                            "v": 111, 
                            "dur": 103, 
                            "type": "note", 
                            "channel": 0
                        }
                    ]
                ], 
                [
                    64463, 
                    [
                        {
                            "pitch": 44, 
                            "t0": 64463, 
                            "v": 90, 
                            "dur": 98, 
                            "type": "note", 
                            "channel": 0
                        }, 
                        {
                            "pitch": 46, 
                            "t0": 64463, 
                            "v": 100, 
                            "dur": 102, 
                            "type": "note", 
                            "channel": 0
                        }
                    ]
                ], 
                [
                    64591, 
                    [
                        {
                            "pitch": 74, 
                            "t0": 64591, 
                            "v": 113, 
                            "dur": 49, 
                            "type": "note", 
                            "channel": 0
                        }
                    ]
                ], 
                [
                    64595, 
                    [
                        {
                            "pitch": 62, 
                            "t0": 64595, 
                            "v": 98, 
                            "dur": 28, 
                            "type": "note", 
                            "channel": 0
                        }
                    ]
                ], 
                [
                    64726, 
                    [
                        {
                            "pitch": 55, 
                            "t0": 64726, 
                            "v": 119, 
                            "dur": 161, 
                            "type": "note", 
                            "channel": 0
                        }
                    ]
                ], 
                [
                    64729, 
                    [
                        {
                            "pitch": 77, 
                            "t0": 64729, 
                            "v": 118, 
                            "dur": 46, 
                            "type": "note", 
                            "channel": 0
                        }, 
                        {
                            "pitch": 65, 
                            "t0": 64729, 
                            "v": 113, 
                            "dur": 67, 
                            "type": "note", 
                            "channel": 0
                        }, 
                        {
                            "pitch": 43, 
                            "t0": 64729, 
                            "v": 106, 
                            "dur": 120, 
                            "type": "note", 
                            "channel": 0
                        }, 
                        {
                            "pitch": 46, 
                            "t0": 64729, 
                            "v": 108, 
                            "dur": 142, 
                            "type": "note", 
                            "channel": 0
                        }
                    ]
                ], 
                [
                    64860, 
                    [
                        {
                            "pitch": 75, 
                            "t0": 64860, 
                            "v": 102, 
                            "dur": 72, 
                            "type": "note", 
                            "channel": 0
                        }, 
                        {
                            "pitch": 63, 
                            "t0": 64860, 
                            "v": 103, 
                            "dur": 78, 
                            "type": "note", 
                            "channel": 0
                        }
                    ]
                ], 
                [
                    64998, 
                    [
                        {
                            "pitch": 63, 
                            "t0": 64998, 
                            "v": 85, 
                            "dur": 61, 
                            "type": "note", 
                            "channel": 0
                        }
                    ]
                ], 
                [
                    65006, 
                    [
                        {
                            "pitch": 70, 
                            "t0": 65006, 
                            "v": 103, 
                            "dur": 95, 
                            "type": "note", 
                            "channel": 0
                        }
                    ]
                ], 
                [
                    65024, 
                    [
                        {
                            "pitch": 55, 
                            "t0": 65024, 
                            "v": 94, 
                            "dur": 66, 
                            "type": "note", 
                            "channel": 0
                        }
                    ]
                ], 
                [
                    65133, 
                    [
                        {
                            "pitch": 63, 
                            "t0": 65133, 
                            "v": 70, 
                            "dur": 83, 
                            "type": "note", 
                            "channel": 0
                        }
                    ]
                ], 
                [
                    65140, 
                    [
                        {
                            "pitch": 58, 
                            "t0": 65140, 
                            "v": 110, 
                            "dur": 48, 
                            "type": "note", 
                            "channel": 0
                        }, 
                        {
                            "pitch": 67, 
                            "t0": 65140, 
                            "v": 98, 
                            "dur": 101, 
                            "type": "note", 
                            "channel": 0
                        }
                    ]
                ], 
                [
                    65285, 
                    [
                        {
                            "pitch": 74, 
                            "t0": 65285, 
                            "v": 117, 
                            "dur": 72, 
                            "type": "note", 
                            "channel": 0
                        }
                    ]
                ], 
                [
                    65288, 
                    [
                        {
                            "pitch": 62, 
                            "t0": 65288, 
                            "v": 110, 
                            "dur": 93, 
                            "type": "note", 
                            "channel": 0
                        }
                    ]
                ], 
                [
                    65293, 
                    [
                        {
                            "pitch": 51, 
                            "t0": 65293, 
                            "v": 111, 
                            "dur": 123, 
                            "type": "note", 
                            "channel": 0
                        }, 
                        {
                            "pitch": 44, 
                            "t0": 65293, 
                            "v": 100, 
                            "dur": 170, 
                            "type": "note", 
                            "channel": 0
                        }
                    ]
                ], 
                [
                    65425, 
                    [
                        {
                            "pitch": 72, 
                            "t0": 65425, 
                            "v": 106, 
                            "dur": 80, 
                            "type": "note", 
                            "channel": 0
                        }
                    ]
                ], 
                [
                    65551, 
                    [
                        {
                            "pitch": 60, 
                            "t0": 65551, 
                            "v": 100, 
                            "dur": 58, 
                            "type": "note", 
                            "channel": 0
                        }, 
                        {
                            "pitch": 68, 
                            "t0": 65551, 
                            "v": 98, 
                            "dur": 85, 
                            "type": "note", 
                            "channel": 0
                        }
                    ]
                ], 
                [
                    65555, 
                    [
                        {
                            "pitch": 51, 
                            "t0": 65555, 
                            "v": 95, 
                            "dur": 67, 
                            "type": "note", 
                            "channel": 0
                        }
                    ]
                ], 
                [
                    65561, 
                    [
                        {
                            "pitch": 48, 
                            "t0": 65561, 
                            "v": 89, 
                            "dur": 42, 
                            "type": "note", 
                            "channel": 0
                        }
                    ]
                ], 
                [
                    65678, 
                    [
                        {
                            "pitch": 56, 
                            "t0": 65678, 
                            "v": 98, 
                            "dur": 75, 
                            "type": "note", 
                            "channel": 0
                        }
                    ]
                ], 
                [
                    65684, 
                    [
                        {
                            "pitch": 65, 
                            "t0": 65684, 
                            "v": 96, 
                            "dur": 72, 
                            "type": "note", 
                            "channel": 0
                        }
                    ]
                ], 
                [
                    65814, 
                    [
                        {
                            "pitch": 72, 
                            "t0": 65814, 
                            "v": 115, 
                            "dur": 43, 
                            "type": "note", 
                            "channel": 0
                        }, 
                        {
                            "pitch": 51, 
                            "t0": 65814, 
                            "v": 100, 
                            "dur": 78, 
                            "type": "note", 
                            "channel": 0
                        }
                    ]
                ], 
                [
                    65818, 
                    [
                        {
                            "pitch": 60, 
                            "t0": 65818, 
                            "v": 102, 
                            "dur": 50, 
                            "type": "note", 
                            "channel": 0
                        }, 
                        {
                            "pitch": 46, 
                            "t0": 65818, 
                            "v": 104, 
                            "dur": 103, 
                            "type": "note", 
                            "channel": 0
                        }
                    ]
                ], 
                [
                    65943, 
                    [
                        {
                            "pitch": 70, 
                            "t0": 65943, 
                            "v": 107, 
                            "dur": 116, 
                            "type": "note", 
                            "channel": 0
                        }
                    ]
                ], 
                [
                    65949, 
                    [
                        {
                            "pitch": 55, 
                            "t0": 65949, 
                            "v": 98, 
                            "dur": 80, 
                            "type": "note", 
                            "channel": 0
                        }
                    ]
                ], 
                [
                    65971, 
                    [
                        {
                            "pitch": 58, 
                            "t0": 65971, 
                            "v": 72, 
                            "dur": 42, 
                            "type": "note", 
                            "channel": 0
                        }
                    ]
                ], 
                [
                    66069, 
                    [
                        {
                            "pitch": 51, 
                            "t0": 66069, 
                            "v": 101, 
                            "dur": 102, 
                            "type": "note", 
                            "channel": 0
                        }
                    ]
                ], 
                [
                    66072, 
                    [
                        {
                            "pitch": 58, 
                            "t0": 66072, 
                            "v": 100, 
                            "dur": 111, 
                            "type": "note", 
                            "channel": 0
                        }, 
                        {
                            "pitch": 46, 
                            "t0": 66072, 
                            "v": 102, 
                            "dur": 150, 
                            "type": "note", 
                            "channel": 0
                        }
                    ]
                ], 
                [
                    66083, 
                    [
                        {
                            "pitch": 67, 
                            "t0": 66083, 
                            "v": 105, 
                            "dur": 113, 
                            "type": "note", 
                            "channel": 0
                        }
                    ]
                ], 
                [
                    66196, 
                    [
                        {
                            "pitch": 55, 
                            "t0": 66196, 
                            "v": 97, 
                            "dur": 73, 
                            "type": "note", 
                            "channel": 0
                        }
                    ]
                ], 
                [
                    66207, 
                    [
                        {
                            "pitch": 63, 
                            "t0": 66207, 
                            "v": 101, 
                            "dur": 73, 
                            "type": "note", 
                            "channel": 0
                        }
                    ]
                ], 
                [
                    66341, 
                    [
                        {
                            "pitch": 53, 
                            "t0": 66341, 
                            "v": 111, 
                            "dur": 137, 
                            "type": "note", 
                            "channel": 0
                        }, 
                        {
                            "pitch": 50, 
                            "t0": 66341, 
                            "v": 104, 
                            "dur": 142, 
                            "type": "note", 
                            "channel": 0
                        }
                    ]
                ], 
                [
                    66344, 
                    [
                        {
                            "pitch": 46, 
                            "t0": 66344, 
                            "v": 106, 
                            "dur": 120, 
                            "type": "note", 
                            "channel": 0
                        }
                    ]
                ], 
                [
                    66475, 
                    [
                        {
                            "pitch": 82, 
                            "t0": 66475, 
                            "v": 119, 
                            "dur": 72, 
                            "type": "note", 
                            "channel": 0
                        }, 
                        {
                            "pitch": 70, 
                            "t0": 66475, 
                            "v": 111, 
                            "dur": 72, 
                            "type": "note", 
                            "channel": 0
                        }
                    ]
                ], 
                [
                    66478, 
                    [
                        {
                            "pitch": 74, 
                            "t0": 66478, 
                            "v": 108, 
                            "dur": 78, 
                            "type": "note", 
                            "channel": 0
                        }
                    ]
                ], 
                [
                    66619, 
                    [
                        {
                            "pitch": 70, 
                            "t0": 66619, 
                            "v": 110, 
                            "dur": 63, 
                            "type": "note", 
                            "channel": 0
                        }, 
                        {
                            "pitch": 82, 
                            "t0": 66619, 
                            "v": 113, 
                            "dur": 70, 
                            "type": "note", 
                            "channel": 0
                        }, 
                        {
                            "pitch": 56, 
                            "t0": 66619, 
                            "v": 105, 
                            "dur": 70, 
                            "type": "note", 
                            "channel": 0
                        }, 
                        {
                            "pitch": 74, 
                            "t0": 66619, 
                            "v": 104, 
                            "dur": 90, 
                            "type": "note", 
                            "channel": 0
                        }
                    ]
                ], 
                [
                    66625, 
                    [
                        {
                            "pitch": 46, 
                            "t0": 66625, 
                            "v": 108, 
                            "dur": 81, 
                            "type": "note", 
                            "channel": 0
                        }, 
                        {
                            "pitch": 53, 
                            "t0": 66625, 
                            "v": 101, 
                            "dur": 81, 
                            "type": "note", 
                            "channel": 0
                        }
                    ]
                ], 
                [
                    66745, 
                    [
                        {
                            "pitch": 82, 
                            "t0": 66745, 
                            "v": 106, 
                            "dur": 26, 
                            "type": "note", 
                            "channel": 0
                        }
                    ]
                ], 
                [
                    66750, 
                    [
                        {
                            "pitch": 70, 
                            "t0": 66750, 
                            "v": 106, 
                            "dur": 78, 
                            "type": "note", 
                            "channel": 0
                        }
                    ]
                ], 
                [
                    66756, 
                    [
                        {
                            "pitch": 74, 
                            "t0": 66756, 
                            "v": 105, 
                            "dur": 22, 
                            "type": "note", 
                            "channel": 0
                        }
                    ]
                ], 
                [
                    66941, 
                    [
                        {
                            "pitch": 39, 
                            "t0": 66941, 
                            "v": 107, 
                            "dur": 30, 
                            "type": "note", 
                            "channel": 0
                        }, 
                        {
                            "pitch": 63, 
                            "t0": 66941, 
                            "v": 113, 
                            "dur": 50, 
                            "type": "note", 
                            "channel": 0
                        }, 
                        {
                            "pitch": 51, 
                            "t0": 66941, 
                            "v": 117, 
                            "dur": 71, 
                            "type": "note", 
                            "channel": 0
                        }
                    ]
                ], 
                [
                    66945, 
                    [
                        {
                            "pitch": 46, 
                            "t0": 66945, 
                            "v": 114, 
                            "dur": 67, 
                            "type": "note", 
                            "channel": 0
                        }, 
                        {
                            "pitch": 75, 
                            "t0": 66945, 
                            "v": 110, 
                            "dur": 90, 
                            "type": "note", 
                            "channel": 0
                        }
                    ]
                ], 
                [
                    66949, 
                    [
                        {
                            "pitch": 43, 
                            "t0": 66949, 
                            "v": 94, 
                            "dur": 22, 
                            "type": "note", 
                            "channel": 0
                        }, 
                        {
                            "pitch": 67, 
                            "t0": 66949, 
                            "v": 102, 
                            "dur": 42, 
                            "type": "note", 
                            "channel": 0
                        }, 
                        {
                            "pitch": 70, 
                            "t0": 66949, 
                            "v": 101, 
                            "dur": 91, 
                            "type": "note", 
                            "channel": 0
                        }
                    ]
                ], 
                [
                    67185, 
                    [
                        {
                            "pitch": 79, 
                            "t0": 67185, 
                            "v": 113, 
                            "dur": 28, 
                            "type": "note", 
                            "channel": 0
                        }, 
                        {
                            "pitch": 91, 
                            "t0": 67185, 
                            "v": 111, 
                            "dur": 37, 
                            "type": "note", 
                            "channel": 0
                        }
                    ]
                ], 
                [
                    67189, 
                    [
                        {
                            "pitch": 67, 
                            "t0": 67189, 
                            "v": 106, 
                            "dur": 58, 
                            "type": "note", 
                            "channel": 0
                        }
                    ]
                ], 
                [
                    67324, 
                    [
                        {
                            "pitch": 91, 
                            "t0": 67324, 
                            "v": 101, 
                            "dur": 42, 
                            "type": "note", 
                            "channel": 0
                        }, 
                        {
                            "pitch": 67, 
                            "t0": 67324, 
                            "v": 100, 
                            "dur": 68, 
                            "type": "note", 
                            "channel": 0
                        }, 
                        {
                            "pitch": 79, 
                            "t0": 67324, 
                            "v": 105, 
                            "dur": 68, 
                            "type": "note", 
                            "channel": 0
                        }
                    ]
                ], 
                [
                    67458, 
                    [
                        {
                            "pitch": 79, 
                            "t0": 67458, 
                            "v": 110, 
                            "dur": 62, 
                            "type": "note", 
                            "channel": 0
                        }
                    ]
                ], 
                [
                    67461, 
                    [
                        {
                            "pitch": 67, 
                            "t0": 67461, 
                            "v": 98, 
                            "dur": 69, 
                            "type": "note", 
                            "channel": 0
                        }
                    ]
                ], 
                [
                    67464, 
                    [
                        {
                            "pitch": 91, 
                            "t0": 67464, 
                            "v": 106, 
                            "dur": 23, 
                            "type": "note", 
                            "channel": 0
                        }
                    ]
                ], 
                [
                    67598, 
                    [
                        {
                            "pitch": 63, 
                            "t0": 67598, 
                            "v": 115, 
                            "dur": 52, 
                            "type": "note", 
                            "channel": 0
                        }, 
                        {
                            "pitch": 75, 
                            "t0": 67598, 
                            "v": 119, 
                            "dur": 52, 
                            "type": "note", 
                            "channel": 0
                        }
                    ]
                ], 
                [
                    67602, 
                    [
                        {
                            "pitch": 87, 
                            "t0": 67602, 
                            "v": 112, 
                            "dur": 35, 
                            "type": "note", 
                            "channel": 0
                        }
                    ]
                ], 
                [
                    67743, 
                    [
                        {
                            "pitch": 70, 
                            "t0": 67743, 
                            "v": 115, 
                            "dur": 53, 
                            "type": "note", 
                            "channel": 0
                        }
                    ]
                ], 
                [
                    67746, 
                    [
                        {
                            "pitch": 82, 
                            "t0": 67746, 
                            "v": 111, 
                            "dur": 46, 
                            "type": "note", 
                            "channel": 0
                        }, 
                        {
                            "pitch": 58, 
                            "t0": 67746, 
                            "v": 115, 
                            "dur": 61, 
                            "type": "note", 
                            "channel": 0
                        }
                    ]
                ], 
                [
                    67873, 
                    [
                        {
                            "pitch": 70, 
                            "t0": 67873, 
                            "v": 108, 
                            "dur": 68, 
                            "type": "note", 
                            "channel": 0
                        }
                    ]
                ], 
                [
                    67877, 
                    [
                        {
                            "pitch": 82, 
                            "t0": 67877, 
                            "v": 108, 
                            "dur": 75, 
                            "type": "note", 
                            "channel": 0
                        }
                    ]
                ], 
                [
                    67884, 
                    [
                        {
                            "pitch": 58, 
                            "t0": 67884, 
                            "v": 100, 
                            "dur": 60, 
                            "type": "note", 
                            "channel": 0
                        }
                    ]
                ], 
                [
                    68007, 
                    [
                        {
                            "pitch": 70, 
                            "t0": 68007, 
                            "v": 104, 
                            "dur": 67, 
                            "type": "note", 
                            "channel": 0
                        }, 
                        {
                            "pitch": 58, 
                            "t0": 68007, 
                            "v": 103, 
                            "dur": 76, 
                            "type": "note", 
                            "channel": 0
                        }
                    ]
                ], 
                [
                    68010, 
                    [
                        {
                            "pitch": 82, 
                            "t0": 68010, 
                            "v": 107, 
                            "dur": 64, 
                            "type": "note", 
                            "channel": 0
                        }
                    ]
                ], 
                [
                    68146, 
                    [
                        {
                            "pitch": 79, 
                            "t0": 68146, 
                            "v": 111, 
                            "dur": 22, 
                            "type": "note", 
                            "channel": 0
                        }, 
                        {
                            "pitch": 67, 
                            "t0": 68146, 
                            "v": 115, 
                            "dur": 36, 
                            "type": "note", 
                            "channel": 0
                        }, 
                        {
                            "pitch": 55, 
                            "t0": 68146, 
                            "v": 114, 
                            "dur": 59, 
                            "type": "note", 
                            "channel": 0
                        }
                    ]
                ], 
                [
                    68272, 
                    [
                        {
                            "pitch": 75, 
                            "t0": 68272, 
                            "v": 100, 
                            "dur": 61, 
                            "type": "note", 
                            "channel": 0
                        }
                    ]
                ], 
                [
                    68277, 
                    [
                        {
                            "pitch": 63, 
                            "t0": 68277, 
                            "v": 98, 
                            "dur": 42, 
                            "type": "note", 
                            "channel": 0
                        }
                    ]
                ], 
                [
                    68285, 
                    [
                        {
                            "pitch": 51, 
                            "t0": 68285, 
                            "v": 102, 
                            "dur": 53, 
                            "type": "note", 
                            "channel": 0
                        }
                    ]
                ], 
                [
                    68419, 
                    [
                        {
                            "pitch": 63, 
                            "t0": 68419, 
                            "v": 98, 
                            "dur": 36, 
                            "type": "note", 
                            "channel": 0
                        }, 
                        {
                            "pitch": 51, 
                            "t0": 68419, 
                            "v": 90, 
                            "dur": 45, 
                            "type": "note", 
                            "channel": 0
                        }, 
                        {
                            "pitch": 75, 
                            "t0": 68419, 
                            "v": 99, 
                            "dur": 53, 
                            "type": "note", 
                            "channel": 0
                        }
                    ]
                ], 
                [
                    68547, 
                    [
                        {
                            "pitch": 63, 
                            "t0": 68547, 
                            "v": 101, 
                            "dur": 64, 
                            "type": "note", 
                            "channel": 0
                        }, 
                        {
                            "pitch": 75, 
                            "t0": 68547, 
                            "v": 100, 
                            "dur": 106, 
                            "type": "note", 
                            "channel": 0
                        }
                    ]
                ], 
                [
                    68553, 
                    [
                        {
                            "pitch": 51, 
                            "t0": 68553, 
                            "v": 103, 
                            "dur": 58, 
                            "type": "note", 
                            "channel": 0
                        }
                    ]
                ], 
                [
                    68690, 
                    [
                        {
                            "pitch": 58, 
                            "t0": 68690, 
                            "v": 124, 
                            "dur": 80, 
                            "type": "note", 
                            "channel": 0
                        }
                    ]
                ], 
                [
                    68695, 
                    [
                        {
                            "pitch": 46, 
                            "t0": 68695, 
                            "v": 122, 
                            "dur": 40, 
                            "type": "note", 
                            "channel": 0
                        }, 
                        {
                            "pitch": 70, 
                            "t0": 68695, 
                            "v": 122, 
                            "dur": 103, 
                            "type": "note", 
                            "channel": 0
                        }
                    ]
                ], 
                [
                    68832, 
                    [
                        {
                            "pitch": 65, 
                            "t0": 68832, 
                            "v": 111, 
                            "dur": 59, 
                            "type": "note", 
                            "channel": 0
                        }
                    ]
                ], 
                [
                    68835, 
                    [
                        {
                            "pitch": 46, 
                            "t0": 68835, 
                            "v": 120, 
                            "dur": 66, 
                            "type": "note", 
                            "channel": 0
                        }, 
                        {
                            "pitch": 34, 
                            "t0": 68835, 
                            "v": 120, 
                            "dur": 72, 
                            "type": "note", 
                            "channel": 0
                        }
                    ]
                ], 
                [
                    68838, 
                    [
                        {
                            "pitch": 70, 
                            "t0": 68838, 
                            "v": 111, 
                            "dur": 63, 
                            "type": "note", 
                            "channel": 0
                        }, 
                        {
                            "pitch": 77, 
                            "t0": 68838, 
                            "v": 110, 
                            "dur": 69, 
                            "type": "note", 
                            "channel": 0
                        }
                    ]
                ], 
                [
                    68841, 
                    [
                        {
                            "pitch": 74, 
                            "t0": 68841, 
                            "v": 97, 
                            "dur": 38, 
                            "type": "note", 
                            "channel": 0
                        }
                    ]
                ], 
                [
                    68960, 
                    [
                        {
                            "pitch": 65, 
                            "t0": 68960, 
                            "v": 104, 
                            "dur": 61, 
                            "type": "note", 
                            "channel": 0
                        }, 
                        {
                            "pitch": 46, 
                            "t0": 68960, 
                            "v": 108, 
                            "dur": 61, 
                            "type": "note", 
                            "channel": 0
                        }, 
                        {
                            "pitch": 77, 
                            "t0": 68960, 
                            "v": 106, 
                            "dur": 66, 
                            "type": "note", 
                            "channel": 0
                        }, 
                        {
                            "pitch": 70, 
                            "t0": 68960, 
                            "v": 98, 
                            "dur": 94, 
                            "type": "note", 
                            "channel": 0
                        }
                    ]
                ], 
                [
                    68965, 
                    [
                        {
                            "pitch": 74, 
                            "t0": 68965, 
                            "v": 101, 
                            "dur": 75, 
                            "type": "note", 
                            "channel": 0
                        }
                    ]
                ], 
                [
                    68971, 
                    [
                        {
                            "pitch": 34, 
                            "t0": 68971, 
                            "v": 107, 
                            "dur": 50, 
                            "type": "note", 
                            "channel": 0
                        }
                    ]
                ], 
                [
                    69097, 
                    [
                        {
                            "pitch": 70, 
                            "t0": 69097, 
                            "v": 103, 
                            "dur": 114, 
                            "type": "note", 
                            "channel": 0
                        }
                    ]
                ], 
                [
                    69101, 
                    [
                        {
                            "pitch": 46, 
                            "t0": 69101, 
                            "v": 111, 
                            "dur": 71, 
                            "type": "note", 
                            "channel": 0
                        }, 
                        {
                            "pitch": 77, 
                            "t0": 69101, 
                            "v": 99, 
                            "dur": 92, 
                            "type": "note", 
                            "channel": 0
                        }
                    ]
                ], 
                [
                    69104, 
                    [
                        {
                            "pitch": 65, 
                            "t0": 69104, 
                            "v": 108, 
                            "dur": 68, 
                            "type": "note", 
                            "channel": 0
                        }, 
                        {
                            "pitch": 74, 
                            "t0": 69104, 
                            "v": 91, 
                            "dur": 74, 
                            "type": "note", 
                            "channel": 0
                        }
                    ]
                ], 
                [
                    69108, 
                    [
                        {
                            "pitch": 34, 
                            "t0": 69108, 
                            "v": 100, 
                            "dur": 24, 
                            "type": "note", 
                            "channel": 0
                        }
                    ]
                ], 
                [
                    69278, 
                    [
                        {
                            "pitch": 39, 
                            "t0": 69278, 
                            "v": 106, 
                            "dur": 71, 
                            "type": "note", 
                            "channel": 0
                        }
                    ]
                ], 
                [
                    69294, 
                    [
                        {
                            "pitch": 43, 
                            "t0": 69294, 
                            "v": 92, 
                            "dur": 67, 
                            "type": "note", 
                            "channel": 0
                        }, 
                        {
                            "pitch": 79, 
                            "t0": 69294, 
                            "v": 122, 
                            "dur": 87, 
                            "type": "note", 
                            "channel": 0
                        }
                    ]
                ], 
                [
                    69299, 
                    [
                        {
                            "pitch": 70, 
                            "t0": 69299, 
                            "v": 119, 
                            "dur": 50, 
                            "type": "note", 
                            "channel": 0
                        }, 
                        {
                            "pitch": 67, 
                            "t0": 69299, 
                            "v": 123, 
                            "dur": 65, 
                            "type": "note", 
                            "channel": 0
                        }, 
                        {
                            "pitch": 75, 
                            "t0": 69299, 
                            "v": 108, 
                            "dur": 71, 
                            "type": "note", 
                            "channel": 0
                        }
                    ]
                ], 
                [
                    69303, 
                    [
                        {
                            "pitch": 46, 
                            "t0": 69303, 
                            "v": 113, 
                            "dur": 61, 
                            "type": "note", 
                            "channel": 0
                        }, 
                        {
                            "pitch": 51, 
                            "t0": 69303, 
                            "v": 120, 
                            "dur": 78, 
                            "type": "note", 
                            "channel": 0
                        }
                    ]
                ], 
                [
                    69473, 
                    [
                        {
                            "pitch": 87, 
                            "t0": 69473, 
                            "v": 40, 
                            "dur": 50, 
                            "type": "note", 
                            "channel": 0
                        }
                    ]
                ], 
                [
                    69558, 
                    [
                        {
                            "pitch": 79, 
                            "t0": 69558, 
                            "v": 110, 
                            "dur": 57, 
                            "type": "note", 
                            "channel": 0
                        }
                    ]
                ], 
                [
                    69561, 
                    [
                        {
                            "pitch": 91, 
                            "t0": 69561, 
                            "v": 110, 
                            "dur": 62, 
                            "type": "note", 
                            "channel": 0
                        }
                    ]
                ], 
                [
                    69575, 
                    [
                        {
                            "pitch": 67, 
                            "t0": 69575, 
                            "v": 112, 
                            "dur": 48, 
                            "type": "note", 
                            "channel": 0
                        }
                    ]
                ], 
                [
                    69693, 
                    [
                        {
                            "pitch": 91, 
                            "t0": 69693, 
                            "v": 92, 
                            "dur": 56, 
                            "type": "note", 
                            "channel": 0
                        }, 
                        {
                            "pitch": 79, 
                            "t0": 69693, 
                            "v": 101, 
                            "dur": 56, 
                            "type": "note", 
                            "channel": 0
                        }, 
                        {
                            "pitch": 67, 
                            "t0": 69693, 
                            "v": 101, 
                            "dur": 64, 
                            "type": "note", 
                            "channel": 0
                        }
                    ]
                ], 
                [
                    69834, 
                    [
                        {
                            "pitch": 79, 
                            "t0": 69834, 
                            "v": 105, 
                            "dur": 61, 
                            "type": "note", 
                            "channel": 0
                        }
                    ]
                ], 
                [
                    69838, 
                    [
                        {
                            "pitch": 91, 
                            "t0": 69838, 
                            "v": 90, 
                            "dur": 24, 
                            "type": "note", 
                            "channel": 0
                        }
                    ]
                ], 
                [
                    69841, 
                    [
                        {
                            "pitch": 67, 
                            "t0": 69841, 
                            "v": 96, 
                            "dur": 69, 
                            "type": "note", 
                            "channel": 0
                        }
                    ]
                ], 
                [
                    69982, 
                    [
                        {
                            "pitch": 75, 
                            "t0": 69982, 
                            "v": 103, 
                            "dur": 59, 
                            "type": "note", 
                            "channel": 0
                        }, 
                        {
                            "pitch": 63, 
                            "t0": 69982, 
                            "v": 112, 
                            "dur": 65, 
                            "type": "note", 
                            "channel": 0
                        }
                    ]
                ], 
                [
                    69996, 
                    [
                        {
                            "pitch": 87, 
                            "t0": 69996, 
                            "v": 77, 
                            "dur": 34, 
                            "type": "note", 
                            "channel": 0
                        }
                    ]
                ], 
                [
                    70132, 
                    [
                        {
                            "pitch": 70, 
                            "t0": 70132, 
                            "v": 114, 
                            "dur": 36, 
                            "type": "note", 
                            "channel": 0
                        }
                    ]
                ], 
                [
                    70138, 
                    [
                        {
                            "pitch": 82, 
                            "t0": 70138, 
                            "v": 105, 
                            "dur": 30, 
                            "type": "note", 
                            "channel": 0
                        }, 
                        {
                            "pitch": 58, 
                            "t0": 70138, 
                            "v": 108, 
                            "dur": 34, 
                            "type": "note", 
                            "channel": 0
                        }
                    ]
                ], 
                [
                    70250, 
                    [
                        {
                            "pitch": 70, 
                            "t0": 70250, 
                            "v": 111, 
                            "dur": 64, 
                            "type": "note", 
                            "channel": 0
                        }
                    ]
                ], 
                [
                    70255, 
                    [
                        {
                            "pitch": 82, 
                            "t0": 70255, 
                            "v": 99, 
                            "dur": 54, 
                            "type": "note", 
                            "channel": 0
                        }
                    ]
                ], 
                [
                    70258, 
                    [
                        {
                            "pitch": 58, 
                            "t0": 70258, 
                            "v": 103, 
                            "dur": 66, 
                            "type": "note", 
                            "channel": 0
                        }
                    ]
                ], 
                [
                    70380, 
                    [
                        {
                            "pitch": 70, 
                            "t0": 70380, 
                            "v": 100, 
                            "dur": 78, 
                            "type": "note", 
                            "channel": 0
                        }
                    ]
                ], 
                [
                    70383, 
                    [
                        {
                            "pitch": 58, 
                            "t0": 70383, 
                            "v": 104, 
                            "dur": 70, 
                            "type": "note", 
                            "channel": 0
                        }
                    ]
                ], 
                [
                    70386, 
                    [
                        {
                            "pitch": 82, 
                            "t0": 70386, 
                            "v": 102, 
                            "dur": 76, 
                            "type": "note", 
                            "channel": 0
                        }
                    ]
                ], 
                [
                    70528, 
                    [
                        {
                            "pitch": 79, 
                            "t0": 70528, 
                            "v": 111, 
                            "dur": 28, 
                            "type": "note", 
                            "channel": 0
                        }, 
                        {
                            "pitch": 55, 
                            "t0": 70528, 
                            "v": 110, 
                            "dur": 84, 
                            "type": "note", 
                            "channel": 0
                        }
                    ]
                ], 
                [
                    70531, 
                    [
                        {
                            "pitch": 67, 
                            "t0": 70531, 
                            "v": 110, 
                            "dur": 45, 
                            "type": "note", 
                            "channel": 0
                        }
                    ]
                ], 
                [
                    70660, 
                    [
                        {
                            "pitch": 63, 
                            "t0": 70660, 
                            "v": 107, 
                            "dur": 68, 
                            "type": "note", 
                            "channel": 0
                        }, 
                        {
                            "pitch": 75, 
                            "t0": 70660, 
                            "v": 102, 
                            "dur": 82, 
                            "type": "note", 
                            "channel": 0
                        }
                    ]
                ], 
                [
                    70668, 
                    [
                        {
                            "pitch": 51, 
                            "t0": 70668, 
                            "v": 99, 
                            "dur": 74, 
                            "type": "note", 
                            "channel": 0
                        }
                    ]
                ], 
                [
                    70787, 
                    [
                        {
                            "pitch": 51, 
                            "t0": 70787, 
                            "v": 95, 
                            "dur": 59, 
                            "type": "note", 
                            "channel": 0
                        }, 
                        {
                            "pitch": 63, 
                            "t0": 70787, 
                            "v": 93, 
                            "dur": 67, 
                            "type": "note", 
                            "channel": 0
                        }, 
                        {
                            "pitch": 75, 
                            "t0": 70787, 
                            "v": 100, 
                            "dur": 84, 
                            "type": "note", 
                            "channel": 0
                        }
                    ]
                ], 
                [
                    70913, 
                    [
                        {
                            "pitch": 63, 
                            "t0": 70913, 
                            "v": 90, 
                            "dur": 70, 
                            "type": "note", 
                            "channel": 0
                        }
                    ]
                ], 
                [
                    70916, 
                    [
                        {
                            "pitch": 75, 
                            "t0": 70916, 
                            "v": 97, 
                            "dur": 105, 
                            "type": "note", 
                            "channel": 0
                        }
                    ]
                ], 
                [
                    70919, 
                    [
                        {
                            "pitch": 51, 
                            "t0": 70919, 
                            "v": 97, 
                            "dur": 75, 
                            "type": "note", 
                            "channel": 0
                        }
                    ]
                ], 
                [
                    71050, 
                    [
                        {
                            "pitch": 58, 
                            "t0": 71050, 
                            "v": 123, 
                            "dur": 33, 
                            "type": "note", 
                            "channel": 0
                        }
                    ]
                ], 
                [
                    71055, 
                    [
                        {
                            "pitch": 46, 
                            "t0": 71055, 
                            "v": 121, 
                            "dur": 36, 
                            "type": "note", 
                            "channel": 0
                        }, 
                        {
                            "pitch": 70, 
                            "t0": 71055, 
                            "v": 111, 
                            "dur": 52, 
                            "type": "note", 
                            "channel": 0
                        }
                    ]
                ], 
                [
                    71188, 
                    [
                        {
                            "pitch": 82, 
                            "t0": 71188, 
                            "v": 113, 
                            "dur": 67, 
                            "type": "note", 
                            "channel": 0
                        }, 
                        {
                            "pitch": 70, 
                            "t0": 71188, 
                            "v": 112, 
                            "dur": 81, 
                            "type": "note", 
                            "channel": 0
                        }
                    ]
                ], 
                [
                    71191, 
                    [
                        {
                            "pitch": 34, 
                            "t0": 71191, 
                            "v": 117, 
                            "dur": 50, 
                            "type": "note", 
                            "channel": 0
                        }, 
                        {
                            "pitch": 46, 
                            "t0": 71191, 
                            "v": 119, 
                            "dur": 59, 
                            "type": "note", 
                            "channel": 0
                        }
                    ]
                ], 
                [
                    71199, 
                    [
                        {
                            "pitch": 77, 
                            "t0": 71199, 
                            "v": 94, 
                            "dur": 32, 
                            "type": "note", 
                            "channel": 0
                        }, 
                        {
                            "pitch": 74, 
                            "t0": 71199, 
                            "v": 100, 
                            "dur": 36, 
                            "type": "note", 
                            "channel": 0
                        }
                    ]
                ], 
                [
                    71311, 
                    [
                        {
                            "pitch": 46, 
                            "t0": 71311, 
                            "v": 109, 
                            "dur": 59, 
                            "type": "note", 
                            "channel": 0
                        }
                    ]
                ], 
                [
                    71316, 
                    [
                        {
                            "pitch": 34, 
                            "t0": 71316, 
                            "v": 108, 
                            "dur": 54, 
                            "type": "note", 
                            "channel": 0
                        }, 
                        {
                            "pitch": 70, 
                            "t0": 71316, 
                            "v": 108, 
                            "dur": 70, 
                            "type": "note", 
                            "channel": 0
                        }, 
                        {
                            "pitch": 82, 
                            "t0": 71316, 
                            "v": 95, 
                            "dur": 79, 
                            "type": "note", 
                            "channel": 0
                        }
                    ]
                ], 
                [
                    71324, 
                    [
                        {
                            "pitch": 74, 
                            "t0": 71324, 
                            "v": 97, 
                            "dur": 81, 
                            "type": "note", 
                            "channel": 0
                        }
                    ]
                ], 
                [
                    71330, 
                    [
                        {
                            "pitch": 77, 
                            "t0": 71330, 
                            "v": 95, 
                            "dur": 43, 
                            "type": "note", 
                            "channel": 0
                        }
                    ]
                ], 
                [
                    71444, 
                    [
                        {
                            "pitch": 46, 
                            "t0": 71444, 
                            "v": 95, 
                            "dur": 65, 
                            "type": "note", 
                            "channel": 0
                        }
                    ]
                ], 
                [
                    71448, 
                    [
                        {
                            "pitch": 34, 
                            "t0": 71448, 
                            "v": 104, 
                            "dur": 33, 
                            "type": "note", 
                            "channel": 0
                        }, 
                        {
                            "pitch": 82, 
                            "t0": 71448, 
                            "v": 101, 
                            "dur": 78, 
                            "type": "note", 
                            "channel": 0
                        }
                    ]
                ], 
                [
                    71451, 
                    [
                        {
                            "pitch": 70, 
                            "t0": 71451, 
                            "v": 101, 
                            "dur": 86, 
                            "type": "note", 
                            "channel": 0
                        }
                    ]
                ], 
                [
                    71454, 
                    [
                        {
                            "pitch": 74, 
                            "t0": 71454, 
                            "v": 102, 
                            "dur": 79, 
                            "type": "note", 
                            "channel": 0
                        }
                    ]
                ], 
                [
                    71459, 
                    [
                        {
                            "pitch": 77, 
                            "t0": 71459, 
                            "v": 94, 
                            "dur": 147, 
                            "type": "note", 
                            "channel": 0
                        }
                    ]
                ], 
                [
                    71620, 
                    [
                        {
                            "pitch": 39, 
                            "t0": 71620, 
                            "v": 105, 
                            "dur": 368, 
                            "type": "note", 
                            "channel": 0
                        }
                    ]
                ], 
                [
                    71625, 
                    [
                        {
                            "pitch": 82, 
                            "t0": 71625, 
                            "v": 121, 
                            "dur": 344, 
                            "type": "note", 
                            "channel": 0
                        }, 
                        {
                            "pitch": 79, 
                            "t0": 71625, 
                            "v": 110, 
                            "dur": 347, 
                            "type": "note", 
                            "channel": 0
                        }
                    ]
                ], 
                [
                    71628, 
                    [
                        {
                            "pitch": 51, 
                            "t0": 71628, 
                            "v": 118, 
                            "dur": 315, 
                            "type": "note", 
                            "channel": 0
                        }, 
                        {
                            "pitch": 70, 
                            "t0": 71628, 
                            "v": 123, 
                            "dur": 341, 
                            "type": "note", 
                            "channel": 0
                        }, 
                        {
                            "pitch": 75, 
                            "t0": 71628, 
                            "v": 105, 
                            "dur": 371, 
                            "type": "note", 
                            "channel": 0
                        }
                    ]
                ], 
                [
                    71641, 
                    [
                        {
                            "pitch": 46, 
                            "t0": 71641, 
                            "v": 106, 
                            "dur": 331, 
                            "type": "note", 
                            "channel": 0
                        }, 
                        {
                            "pitch": 43, 
                            "t0": 71641, 
                            "v": 95, 
                            "dur": 335, 
                            "type": "note", 
                            "channel": 0
                        }
                    ]
                ], 
                [
                    72342, 
                    [
                        {
                            "pitch": 70, 
                            "t0": 72342, 
                            "v": 117, 
                            "dur": 64, 
                            "type": "note", 
                            "channel": 0
                        }, 
                        {
                            "pitch": 82, 
                            "t0": 72342, 
                            "v": 115, 
                            "dur": 70, 
                            "type": "note", 
                            "channel": 0
                        }
                    ]
                ], 
                [
                    72347, 
                    [
                        {
                            "pitch": 46, 
                            "t0": 72347, 
                            "v": 121, 
                            "dur": 59, 
                            "type": "note", 
                            "channel": 0
                        }, 
                        {
                            "pitch": 77, 
                            "t0": 72347, 
                            "v": 103, 
                            "dur": 78, 
                            "type": "note", 
                            "channel": 0
                        }
                    ]
                ], 
                [
                    72350, 
                    [
                        {
                            "pitch": 34, 
                            "t0": 72350, 
                            "v": 115, 
                            "dur": 37, 
                            "type": "note", 
                            "channel": 0
                        }, 
                        {
                            "pitch": 74, 
                            "t0": 72350, 
                            "v": 101, 
                            "dur": 78, 
                            "type": "note", 
                            "channel": 0
                        }
                    ]
                ], 
                [
                    72467, 
                    [
                        {
                            "pitch": 82, 
                            "t0": 72467, 
                            "v": 103, 
                            "dur": 69, 
                            "type": "note", 
                            "channel": 0
                        }, 
                        {
                            "pitch": 46, 
                            "t0": 72467, 
                            "v": 94, 
                            "dur": 80, 
                            "type": "note", 
                            "channel": 0
                        }
                    ]
                ], 
                [
                    72472, 
                    [
                        {
                            "pitch": 70, 
                            "t0": 72472, 
                            "v": 108, 
                            "dur": 64, 
                            "type": "note", 
                            "channel": 0
                        }
                    ]
                ], 
                [
                    72475, 
                    [
                        {
                            "pitch": 77, 
                            "t0": 72475, 
                            "v": 101, 
                            "dur": 75, 
                            "type": "note", 
                            "channel": 0
                        }, 
                        {
                            "pitch": 74, 
                            "t0": 72475, 
                            "v": 108, 
                            "dur": 78, 
                            "type": "note", 
                            "channel": 0
                        }
                    ]
                ], 
                [
                    72484, 
                    [
                        {
                            "pitch": 34, 
                            "t0": 72484, 
                            "v": 107, 
                            "dur": 28, 
                            "type": "note", 
                            "channel": 0
                        }
                    ]
                ], 
                [
                    72589, 
                    [
                        {
                            "pitch": 34, 
                            "t0": 72589, 
                            "v": 98, 
                            "dur": 47, 
                            "type": "note", 
                            "channel": 0
                        }, 
                        {
                            "pitch": 46, 
                            "t0": 72589, 
                            "v": 110, 
                            "dur": 68, 
                            "type": "note", 
                            "channel": 0
                        }
                    ]
                ], 
                [
                    72601, 
                    [
                        {
                            "pitch": 82, 
                            "t0": 72601, 
                            "v": 100, 
                            "dur": 98, 
                            "type": "note", 
                            "channel": 0
                        }, 
                        {
                            "pitch": 70, 
                            "t0": 72601, 
                            "v": 108, 
                            "dur": 114, 
                            "type": "note", 
                            "channel": 0
                        }
                    ]
                ], 
                [
                    72606, 
                    [
                        {
                            "pitch": 74, 
                            "t0": 72606, 
                            "v": 103, 
                            "dur": 100, 
                            "type": "note", 
                            "channel": 0
                        }
                    ]
                ], 
                [
                    72614, 
                    [
                        {
                            "pitch": 77, 
                            "t0": 72614, 
                            "v": 98, 
                            "dur": 226, 
                            "type": "note", 
                            "channel": 0
                        }
                    ]
                ], 
                [
                    72749, 
                    [
                        {
                            "pitch": 39, 
                            "t0": 72749, 
                            "v": 101, 
                            "dur": 289, 
                            "type": "note", 
                            "channel": 0
                        }
                    ]
                ], 
                [
                    72768, 
                    [
                        {
                            "pitch": 70, 
                            "t0": 72768, 
                            "v": 117, 
                            "dur": 293, 
                            "type": "note", 
                            "channel": 0
                        }, 
                        {
                            "pitch": 82, 
                            "t0": 72768, 
                            "v": 107, 
                            "dur": 335, 
                            "type": "note", 
                            "channel": 0
                        }
                    ]
                ], 
                [
                    72771, 
                    [
                        {
                            "pitch": 43, 
                            "t0": 72771, 
                            "v": 92, 
                            "dur": 270, 
                            "type": "note", 
                            "channel": 0
                        }, 
                        {
                            "pitch": 79, 
                            "t0": 72771, 
                            "v": 110, 
                            "dur": 311, 
                            "type": "note", 
                            "channel": 0
                        }, 
                        {
                            "pitch": 75, 
                            "t0": 72771, 
                            "v": 108, 
                            "dur": 337, 
                            "type": "note", 
                            "channel": 0
                        }
                    ]
                ], 
                [
                    72779, 
                    [
                        {
                            "pitch": 51, 
                            "t0": 72779, 
                            "v": 115, 
                            "dur": 265, 
                            "type": "note", 
                            "channel": 0
                        }
                    ]
                ], 
                [
                    72784, 
                    [
                        {
                            "pitch": 46, 
                            "t0": 72784, 
                            "v": 108, 
                            "dur": 293, 
                            "type": "note", 
                            "channel": 0
                        }
                    ]
                ], 
                [
                    73576, 
                    [
                        {
                            "pitch": 86, 
                            "t0": 73576, 
                            "v": 119, 
                            "dur": 55, 
                            "type": "note", 
                            "channel": 0
                        }, 
                        {
                            "pitch": 58, 
                            "t0": 73576, 
                            "v": 124, 
                            "dur": 70, 
                            "type": "note", 
                            "channel": 0
                        }, 
                        {
                            "pitch": 82, 
                            "t0": 73576, 
                            "v": 117, 
                            "dur": 97, 
                            "type": "note", 
                            "channel": 0
                        }
                    ]
                ], 
                [
                    73579, 
                    [
                        {
                            "pitch": 46, 
                            "t0": 73579, 
                            "v": 115, 
                            "dur": 42, 
                            "type": "note", 
                            "channel": 0
                        }, 
                        {
                            "pitch": 74, 
                            "t0": 73579, 
                            "v": 120, 
                            "dur": 64, 
                            "type": "note", 
                            "channel": 0
                        }, 
                        {
                            "pitch": 77, 
                            "t0": 73579, 
                            "v": 119, 
                            "dur": 75, 
                            "type": "note", 
                            "channel": 0
                        }
                    ]
                ], 
                [
                    73584, 
                    [
                        {
                            "pitch": 53, 
                            "t0": 73584, 
                            "v": 101, 
                            "dur": 59, 
                            "type": "note", 
                            "channel": 0
                        }
                    ]
                ], 
                [
                    73587, 
                    [
                        {
                            "pitch": 50, 
                            "t0": 73587, 
                            "v": 98, 
                            "dur": 59, 
                            "type": "note", 
                            "channel": 0
                        }
                    ]
                ], 
                [
                    73706, 
                    [
                        {
                            "pitch": 58, 
                            "t0": 73706, 
                            "v": 104, 
                            "dur": 68, 
                            "type": "note", 
                            "channel": 0
                        }
                    ]
                ], 
                [
                    73710, 
                    [
                        {
                            "pitch": 53, 
                            "t0": 73710, 
                            "v": 91, 
                            "dur": 50, 
                            "type": "note", 
                            "channel": 0
                        }, 
                        {
                            "pitch": 82, 
                            "t0": 73710, 
                            "v": 115, 
                            "dur": 67, 
                            "type": "note", 
                            "channel": 0
                        }
                    ]
                ], 
                [
                    73713, 
                    [
                        {
                            "pitch": 86, 
                            "t0": 73713, 
                            "v": 95, 
                            "dur": 58, 
                            "type": "note", 
                            "channel": 0
                        }, 
                        {
                            "pitch": 50, 
                            "t0": 73713, 
                            "v": 95, 
                            "dur": 61, 
                            "type": "note", 
                            "channel": 0
                        }, 
                        {
                            "pitch": 74, 
                            "t0": 73713, 
                            "v": 107, 
                            "dur": 69, 
                            "type": "note", 
                            "channel": 0
                        }
                    ]
                ], 
                [
                    73716, 
                    [
                        {
                            "pitch": 46, 
                            "t0": 73716, 
                            "v": 104, 
                            "dur": 35, 
                            "type": "note", 
                            "channel": 0
                        }, 
                        {
                            "pitch": 77, 
                            "t0": 73716, 
                            "v": 106, 
                            "dur": 66, 
                            "type": "note", 
                            "channel": 0
                        }
                    ]
                ], 
                [
                    73830, 
                    [
                        {
                            "pitch": 58, 
                            "t0": 73830, 
                            "v": 101, 
                            "dur": 76, 
                            "type": "note", 
                            "channel": 0
                        }
                    ]
                ], 
                [
                    73834, 
                    [
                        {
                            "pitch": 82, 
                            "t0": 73834, 
                            "v": 103, 
                            "dur": 109, 
                            "type": "note", 
                            "channel": 0
                        }
                    ]
                ], 
                [
                    73837, 
                    [
                        {
                            "pitch": 46, 
                            "t0": 73837, 
                            "v": 93, 
                            "dur": 34, 
                            "type": "note", 
                            "channel": 0
                        }, 
                        {
                            "pitch": 53, 
                            "t0": 73837, 
                            "v": 81, 
                            "dur": 39, 
                            "type": "note", 
                            "channel": 0
                        }, 
                        {
                            "pitch": 50, 
                            "t0": 73837, 
                            "v": 85, 
                            "dur": 43, 
                            "type": "note", 
                            "channel": 0
                        }, 
                        {
                            "pitch": 86, 
                            "t0": 73837, 
                            "v": 95, 
                            "dur": 56, 
                            "type": "note", 
                            "channel": 0
                        }, 
                        {
                            "pitch": 74, 
                            "t0": 73837, 
                            "v": 110, 
                            "dur": 56, 
                            "type": "note", 
                            "channel": 0
                        }
                    ]
                ], 
                [
                    73841, 
                    [
                        {
                            "pitch": 77, 
                            "t0": 73841, 
                            "v": 101, 
                            "dur": 65, 
                            "type": "note", 
                            "channel": 0
                        }
                    ]
                ], 
                [
                    74000, 
                    [
                        {
                            "pitch": 82, 
                            "t0": 74000, 
                            "v": 108, 
                            "dur": 311, 
                            "type": "note", 
                            "channel": 0
                        }
                    ]
                ], 
                [
                    74004, 
                    [
                        {
                            "pitch": 75, 
                            "t0": 74004, 
                            "v": 121, 
                            "dur": 290, 
                            "type": "note", 
                            "channel": 0
                        }, 
                        {
                            "pitch": 87, 
                            "t0": 74004, 
                            "v": 118, 
                            "dur": 310, 
                            "type": "note", 
                            "channel": 0
                        }
                    ]
                ], 
                [
                    74008, 
                    [
                        {
                            "pitch": 63, 
                            "t0": 74008, 
                            "v": 117, 
                            "dur": 275, 
                            "type": "note", 
                            "channel": 0
                        }, 
                        {
                            "pitch": 79, 
                            "t0": 74008, 
                            "v": 110, 
                            "dur": 295, 
                            "type": "note", 
                            "channel": 0
                        }
                    ]
                ], 
                [
                    74011, 
                    [
                        {
                            "pitch": 51, 
                            "t0": 74011, 
                            "v": 105, 
                            "dur": 275, 
                            "type": "note", 
                            "channel": 0
                        }
                    ]
                ], 
                [
                    74019, 
                    [
                        {
                            "pitch": 55, 
                            "t0": 74019, 
                            "v": 95, 
                            "dur": 253, 
                            "type": "note", 
                            "channel": 0
                        }, 
                        {
                            "pitch": 58, 
                            "t0": 74019, 
                            "v": 103, 
                            "dur": 275, 
                            "type": "note", 
                            "channel": 0
                        }
                    ]
                ], 
                [
                    76657, 
                    [
                        {
                            "pitch": 58, 
                            "t0": 76657, 
                            "v": 111, 
                            "dur": 73, 
                            "type": "note", 
                            "channel": 0
                        }, 
                        {
                            "pitch": 70, 
                            "t0": 76657, 
                            "v": 112, 
                            "dur": 83, 
                            "type": "note", 
                            "channel": 0
                        }
                    ]
                ], 
                [
                    76777, 
                    [
                        {
                            "pitch": 58, 
                            "t0": 76777, 
                            "v": 111, 
                            "dur": 56, 
                            "type": "note", 
                            "channel": 0
                        }
                    ]
                ], 
                [
                    76780, 
                    [
                        {
                            "pitch": 70, 
                            "t0": 76780, 
                            "v": 113, 
                            "dur": 64, 
                            "type": "note", 
                            "channel": 0
                        }
                    ]
                ], 
                [
                    76900, 
                    [
                        {
                            "pitch": 58, 
                            "t0": 76900, 
                            "v": 101, 
                            "dur": 80, 
                            "type": "note", 
                            "channel": 0
                        }, 
                        {
                            "pitch": 70, 
                            "t0": 76900, 
                            "v": 103, 
                            "dur": 80, 
                            "type": "note", 
                            "channel": 0
                        }
                    ]
                ], 
                [
                    77058, 
                    [
                        {
                            "pitch": 55, 
                            "t0": 77058, 
                            "v": 119, 
                            "dur": 1991, 
                            "type": "note", 
                            "channel": 0
                        }, 
                        {
                            "pitch": 67, 
                            "t0": 77058, 
                            "v": 119, 
                            "dur": 2115, 
                            "type": "note", 
                            "channel": 0
                        }
                    ]
                ], 
                [
                    77178, 
                    [
                        {
                            "pitch": 49, 
                            "t0": 77178, 
                            "v": 113, 
                            "dur": 42, 
                            "type": "note", 
                            "channel": 0
                        }
                    ]
                ], 
                [
                    77181, 
                    [
                        {
                            "pitch": 37, 
                            "t0": 77181, 
                            "v": 105, 
                            "dur": 30, 
                            "type": "note", 
                            "channel": 0
                        }
                    ]
                ], 
                [
                    77195, 
                    [
                        {
                            "pitch": 61, 
                            "t0": 77195, 
                            "v": 103, 
                            "dur": 71, 
                            "type": "note", 
                            "channel": 0
                        }
                    ]
                ], 
                [
                    77309, 
                    [
                        {
                            "pitch": 61, 
                            "t0": 77309, 
                            "v": 102, 
                            "dur": 99, 
                            "type": "note", 
                            "channel": 0
                        }
                    ]
                ], 
                [
                    77320, 
                    [
                        {
                            "pitch": 37, 
                            "t0": 77320, 
                            "v": 109, 
                            "dur": 58, 
                            "type": "note", 
                            "channel": 0
                        }, 
                        {
                            "pitch": 49, 
                            "t0": 77320, 
                            "v": 115, 
                            "dur": 69, 
                            "type": "note", 
                            "channel": 0
                        }
                    ]
                ], 
                [
                    77443, 
                    [
                        {
                            "pitch": 49, 
                            "t0": 77443, 
                            "v": 102, 
                            "dur": 122, 
                            "type": "note", 
                            "channel": 0
                        }, 
                        {
                            "pitch": 61, 
                            "t0": 77443, 
                            "v": 114, 
                            "dur": 138, 
                            "type": "note", 
                            "channel": 0
                        }
                    ]
                ], 
                [
                    77451, 
                    [
                        {
                            "pitch": 37, 
                            "t0": 77451, 
                            "v": 100, 
                            "dur": 100, 
                            "type": "note", 
                            "channel": 0
                        }
                    ]
                ], 
                [
                    77598, 
                    [
                        {
                            "pitch": 48, 
                            "t0": 77598, 
                            "v": 117, 
                            "dur": 1438, 
                            "type": "note", 
                            "channel": 0
                        }, 
                        {
                            "pitch": 60, 
                            "t0": 77598, 
                            "v": 115, 
                            "dur": 1544, 
                            "type": "note", 
                            "channel": 0
                        }
                    ]
                ], 
                [
                    77601, 
                    [
                        {
                            "pitch": 36, 
                            "t0": 77601, 
                            "v": 113, 
                            "dur": 1473, 
                            "type": "note", 
                            "channel": 0
                        }
                    ]
                ], 
                [
                    79719, 
                    [
                        {
                            "pitch": 72, 
                            "t0": 79719, 
                            "v": 60, 
                            "dur": 41, 
                            "type": "note", 
                            "channel": 0
                        }
                    ]
                ], 
                [
                    79855, 
                    [
                        {
                            "pitch": 72, 
                            "t0": 79855, 
                            "v": 68, 
                            "dur": 52, 
                            "type": "note", 
                            "channel": 0
                        }
                    ]
                ], 
                [
                    79992, 
                    [
                        {
                            "pitch": 72, 
                            "t0": 79992, 
                            "v": 80, 
                            "dur": 44, 
                            "type": "note", 
                            "channel": 0
                        }
                    ]
                ], 
                [
                    80134, 
                    [
                        {
                            "pitch": 68, 
                            "t0": 80134, 
                            "v": 72, 
                            "dur": 2197, 
                            "type": "note", 
                            "channel": 0
                        }
                    ]
                ], 
                [
                    80142, 
                    [
                        {
                            "pitch": 60, 
                            "t0": 80142, 
                            "v": 42, 
                            "dur": 1229, 
                            "type": "note", 
                            "channel": 0
                        }
                    ]
                ], 
                [
                    80153, 
                    [
                        {
                            "pitch": 53, 
                            "t0": 80153, 
                            "v": 37, 
                            "dur": 2276, 
                            "type": "note", 
                            "channel": 0
                        }
                    ]
                ], 
                [
                    80278, 
                    [
                        {
                            "pitch": 73, 
                            "t0": 80278, 
                            "v": 81, 
                            "dur": 37, 
                            "type": "note", 
                            "channel": 0
                        }
                    ]
                ], 
                [
                    80420, 
                    [
                        {
                            "pitch": 73, 
                            "t0": 80420, 
                            "v": 81, 
                            "dur": 30, 
                            "type": "note", 
                            "channel": 0
                        }
                    ]
                ], 
                [
                    80554, 
                    [
                        {
                            "pitch": 73, 
                            "t0": 80554, 
                            "v": 69, 
                            "dur": 36, 
                            "type": "note", 
                            "channel": 0
                        }
                    ]
                ], 
                [
                    80704, 
                    [
                        {
                            "pitch": 72, 
                            "t0": 80704, 
                            "v": 79, 
                            "dur": 1107, 
                            "type": "note", 
                            "channel": 0
                        }
                    ]
                ], 
                [
                    80827, 
                    [
                        {
                            "pitch": 80, 
                            "t0": 80827, 
                            "v": 79, 
                            "dur": 86, 
                            "type": "note", 
                            "channel": 0
                        }
                    ]
                ], 
                [
                    80961, 
                    [
                        {
                            "pitch": 80, 
                            "t0": 80961, 
                            "v": 91, 
                            "dur": 86, 
                            "type": "note", 
                            "channel": 0
                        }
                    ]
                ], 
                [
                    81098, 
                    [
                        {
                            "pitch": 80, 
                            "t0": 81098, 
                            "v": 89, 
                            "dur": 91, 
                            "type": "note", 
                            "channel": 0
                        }
                    ]
                ], 
                [
                    81278, 
                    [
                        {
                            "pitch": 77, 
                            "t0": 81278, 
                            "v": 79, 
                            "dur": 694, 
                            "type": "note", 
                            "channel": 0
                        }
                    ]
                ], 
                [
                    81389, 
                    [
                        {
                            "pitch": 61, 
                            "t0": 81389, 
                            "v": 68, 
                            "dur": 35, 
                            "type": "note", 
                            "channel": 0
                        }
                    ]
                ], 
                [
                    81537, 
                    [
                        {
                            "pitch": 61, 
                            "t0": 81537, 
                            "v": 61, 
                            "dur": 45, 
                            "type": "note", 
                            "channel": 0
                        }
                    ]
                ], 
                [
                    81665, 
                    [
                        {
                            "pitch": 61, 
                            "t0": 81665, 
                            "v": 56, 
                            "dur": 86, 
                            "type": "note", 
                            "channel": 0
                        }
                    ]
                ], 
                [
                    81844, 
                    [
                        {
                            "pitch": 60, 
                            "t0": 81844, 
                            "v": 51, 
                            "dur": 395, 
                            "type": "note", 
                            "channel": 0
                        }
                    ]
                ], 
                [
                    82024, 
                    [
                        {
                            "pitch": 72, 
                            "t0": 82024, 
                            "v": 57, 
                            "dur": 37, 
                            "type": "note", 
                            "channel": 0
                        }
                    ]
                ], 
                [
                    82136, 
                    [
                        {
                            "pitch": 72, 
                            "t0": 82136, 
                            "v": 55, 
                            "dur": 67, 
                            "type": "note", 
                            "channel": 0
                        }
                    ]
                ], 
                [
                    82279, 
                    [
                        {
                            "pitch": 72, 
                            "t0": 82279, 
                            "v": 81, 
                            "dur": 38, 
                            "type": "note", 
                            "channel": 0
                        }
                    ]
                ], 
                [
                    82437, 
                    [
                        {
                            "pitch": 67, 
                            "t0": 82437, 
                            "v": 81, 
                            "dur": 413, 
                            "type": "note", 
                            "channel": 0
                        }
                    ]
                ], 
                [
                    82443, 
                    [
                        {
                            "pitch": 60, 
                            "t0": 82443, 
                            "v": 43, 
                            "dur": 1159, 
                            "type": "note", 
                            "channel": 0
                        }
                    ]
                ], 
                [
                    82471, 
                    [
                        {
                            "pitch": 52, 
                            "t0": 82471, 
                            "v": 39, 
                            "dur": 2049, 
                            "type": "note", 
                            "channel": 0
                        }
                    ]
                ], 
                [
                    82574, 
                    [
                        {
                            "pitch": 73, 
                            "t0": 82574, 
                            "v": 77, 
                            "dur": 45, 
                            "type": "note", 
                            "channel": 0
                        }
                    ]
                ], 
                [
                    82715, 
                    [
                        {
                            "pitch": 73, 
                            "t0": 82715, 
                            "v": 81, 
                            "dur": 40, 
                            "type": "note", 
                            "channel": 0
                        }
                    ]
                ], 
                [
                    82855, 
                    [
                        {
                            "pitch": 73, 
                            "t0": 82855, 
                            "v": 83, 
                            "dur": 56, 
                            "type": "note", 
                            "channel": 0
                        }
                    ]
                ], 
                [
                    83002, 
                    [
                        {
                            "pitch": 72, 
                            "t0": 83002, 
                            "v": 92, 
                            "dur": 1556, 
                            "type": "note", 
                            "channel": 0
                        }
                    ]
                ], 
                [
                    83066, 
                    [
                        {
                            "pitch": 67, 
                            "t0": 83066, 
                            "v": 2, 
                            "dur": 1472, 
                            "type": "note", 
                            "channel": 0
                        }
                    ]
                ], 
                [
                    83142, 
                    [
                        {
                            "pitch": 82, 
                            "t0": 83142, 
                            "v": 98, 
                            "dur": 34, 
                            "type": "note", 
                            "channel": 0
                        }
                    ]
                ], 
                [
                    83282, 
                    [
                        {
                            "pitch": 82, 
                            "t0": 83282, 
                            "v": 101, 
                            "dur": 36, 
                            "type": "note", 
                            "channel": 0
                        }
                    ]
                ], 
                [
                    83431, 
                    [
                        {
                            "pitch": 82, 
                            "t0": 83431, 
                            "v": 94, 
                            "dur": 40, 
                            "type": "note", 
                            "channel": 0
                        }
                    ]
                ], 
                [
                    83593, 
                    [
                        {
                            "pitch": 79, 
                            "t0": 83593, 
                            "v": 69, 
                            "dur": 744, 
                            "type": "note", 
                            "channel": 0
                        }
                    ]
                ], 
                [
                    83726, 
                    [
                        {
                            "pitch": 61, 
                            "t0": 83726, 
                            "v": 61, 
                            "dur": 35, 
                            "type": "note", 
                            "channel": 0
                        }
                    ]
                ], 
                [
                    83847, 
                    [
                        {
                            "pitch": 61, 
                            "t0": 83847, 
                            "v": 41, 
                            "dur": 49, 
                            "type": "note", 
                            "channel": 0
                        }
                    ]
                ], 
                [
                    83975, 
                    [
                        {
                            "pitch": 61, 
                            "t0": 83975, 
                            "v": 48, 
                            "dur": 240, 
                            "type": "note", 
                            "channel": 0
                        }
                    ]
                ], 
                [
                    84204, 
                    [
                        {
                            "pitch": 60, 
                            "t0": 84204, 
                            "v": 55, 
                            "dur": 351, 
                            "type": "note", 
                            "channel": 0
                        }
                    ]
                ], 
                [
                    84337, 
                    [
                        {
                            "pitch": 84, 
                            "t0": 84337, 
                            "v": 59, 
                            "dur": 44, 
                            "type": "note", 
                            "channel": 0
                        }
                    ]
                ], 
                [
                    84488, 
                    [
                        {
                            "pitch": 84, 
                            "t0": 84488, 
                            "v": 74, 
                            "dur": 92, 
                            "type": "note", 
                            "channel": 0
                        }
                    ]
                ], 
                [
                    84640, 
                    [
                        {
                            "pitch": 82, 
                            "t0": 84640, 
                            "v": 72, 
                            "dur": 40, 
                            "type": "note", 
                            "channel": 0
                        }
                    ]
                ], 
                [
                    84780, 
                    [
                        {
                            "pitch": 80, 
                            "t0": 84780, 
                            "v": 90, 
                            "dur": 395, 
                            "type": "note", 
                            "channel": 0
                        }
                    ]
                ], 
                [
                    84807, 
                    [
                        {
                            "pitch": 53, 
                            "t0": 84807, 
                            "v": 42, 
                            "dur": 179, 
                            "type": "note", 
                            "channel": 0
                        }
                    ]
                ], 
                [
                    84813, 
                    [
                        {
                            "pitch": 68, 
                            "t0": 84813, 
                            "v": 26, 
                            "dur": 53, 
                            "type": "note", 
                            "channel": 0
                        }
                    ]
                ], 
                [
                    84816, 
                    [
                        {
                            "pitch": 60, 
                            "t0": 84816, 
                            "v": 47, 
                            "dur": 164, 
                            "type": "note", 
                            "channel": 0
                        }
                    ]
                ], 
                [
                    84920, 
                    [
                        {
                            "pitch": 68, 
                            "t0": 84920, 
                            "v": 86, 
                            "dur": 72, 
                            "type": "note", 
                            "channel": 0
                        }
                    ]
                ], 
                [
                    85073, 
                    [
                        {
                            "pitch": 68, 
                            "t0": 85073, 
                            "v": 74, 
                            "dur": 60, 
                            "type": "note", 
                            "channel": 0
                        }
                    ]
                ], 
                [
                    85214, 
                    [
                        {
                            "pitch": 70, 
                            "t0": 85214, 
                            "v": 100, 
                            "dur": 31, 
                            "type": "note", 
                            "channel": 0
                        }
                    ]
                ], 
                [
                    85379, 
                    [
                        {
                            "pitch": 79, 
                            "t0": 85379, 
                            "v": 89, 
                            "dur": 187, 
                            "type": "note", 
                            "channel": 0
                        }, 
                        {
                            "pitch": 72, 
                            "t0": 85379, 
                            "v": 88, 
                            "dur": 412, 
                            "type": "note", 
                            "channel": 0
                        }
                    ]
                ], 
                [
                    85390, 
                    [
                        {
                            "pitch": 60, 
                            "t0": 85390, 
                            "v": 43, 
                            "dur": 310, 
                            "type": "note", 
                            "channel": 0
                        }, 
                        {
                            "pitch": 52, 
                            "t0": 85390, 
                            "v": 54, 
                            "dur": 326, 
                            "type": "note", 
                            "channel": 0
                        }
                    ]
                ], 
                [
                    85401, 
                    [
                        {
                            "pitch": 67, 
                            "t0": 85401, 
                            "v": 51, 
                            "dur": 337, 
                            "type": "note", 
                            "channel": 0
                        }
                    ]
                ], 
                [
                    85538, 
                    [
                        {
                            "pitch": 84, 
                            "t0": 85538, 
                            "v": 98, 
                            "dur": 74, 
                            "type": "note", 
                            "channel": 0
                        }
                    ]
                ], 
                [
                    85674, 
                    [
                        {
                            "pitch": 84, 
                            "t0": 85674, 
                            "v": 98, 
                            "dur": 90, 
                            "type": "note", 
                            "channel": 0
                        }
                    ]
                ], 
                [
                    85813, 
                    [
                        {
                            "pitch": 82, 
                            "t0": 85813, 
                            "v": 100, 
                            "dur": 31, 
                            "type": "note", 
                            "channel": 0
                        }
                    ]
                ], 
                [
                    85955, 
                    [
                        {
                            "pitch": 80, 
                            "t0": 85955, 
                            "v": 97, 
                            "dur": 402, 
                            "type": "note", 
                            "channel": 0
                        }
                    ]
                ], 
                [
                    85959, 
                    [
                        {
                            "pitch": 68, 
                            "t0": 85959, 
                            "v": 81, 
                            "dur": 39, 
                            "type": "note", 
                            "channel": 0
                        }
                    ]
                ], 
                [
                    85995, 
                    [
                        {
                            "pitch": 53, 
                            "t0": 85995, 
                            "v": 44, 
                            "dur": 226, 
                            "type": "note", 
                            "channel": 0
                        }
                    ]
                ], 
                [
                    85998, 
                    [
                        {
                            "pitch": 60, 
                            "t0": 85998, 
                            "v": 45, 
                            "dur": 223, 
                            "type": "note", 
                            "channel": 0
                        }
                    ]
                ], 
                [
                    86109, 
                    [
                        {
                            "pitch": 68, 
                            "t0": 86109, 
                            "v": 79, 
                            "dur": 72, 
                            "type": "note", 
                            "channel": 0
                        }
                    ]
                ], 
                [
                    86237, 
                    [
                        {
                            "pitch": 68, 
                            "t0": 86237, 
                            "v": 79, 
                            "dur": 72, 
                            "type": "note", 
                            "channel": 0
                        }
                    ]
                ], 
                [
                    86374, 
                    [
                        {
                            "pitch": 70, 
                            "t0": 86374, 
                            "v": 80, 
                            "dur": 38, 
                            "type": "note", 
                            "channel": 0
                        }
                    ]
                ], 
                [
                    86412, 
                    [
                        {
                            "pitch": 52, 
                            "t0": 86412, 
                            "v": 44, 
                            "dur": 388, 
                            "type": "note", 
                            "channel": 0
                        }
                    ]
                ], 
                [
                    86460, 
                    [
                        {
                            "pitch": 60, 
                            "t0": 86460, 
                            "v": 42, 
                            "dur": 392, 
                            "type": "note", 
                            "channel": 0
                        }
                    ]
                ], 
                [
                    86548, 
                    [
                        {
                            "pitch": 79, 
                            "t0": 86548, 
                            "v": 79, 
                            "dur": 165, 
                            "type": "note", 
                            "channel": 0
                        }, 
                        {
                            "pitch": 72, 
                            "t0": 86548, 
                            "v": 89, 
                            "dur": 876, 
                            "type": "note", 
                            "channel": 0
                        }
                    ]
                ], 
                [
                    86557, 
                    [
                        {
                            "pitch": 67, 
                            "t0": 86557, 
                            "v": 74, 
                            "dur": 273, 
                            "type": "note", 
                            "channel": 0
                        }
                    ]
                ], 
                [
                    86680, 
                    [
                        {
                            "pitch": 84, 
                            "t0": 86680, 
                            "v": 88, 
                            "dur": 38, 
                            "type": "note", 
                            "channel": 0
                        }
                    ]
                ], 
                [
                    86824, 
                    [
                        {
                            "pitch": 84, 
                            "t0": 86824, 
                            "v": 96, 
                            "dur": 126, 
                            "type": "note", 
                            "channel": 0
                        }
                    ]
                ], 
                [
                    86956, 
                    [
                        {
                            "pitch": 82, 
                            "t0": 86956, 
                            "v": 97, 
                            "dur": 77, 
                            "type": "note", 
                            "channel": 0
                        }
                    ]
                ], 
                [
                    87098, 
                    [
                        {
                            "pitch": 68, 
                            "t0": 87098, 
                            "v": 41, 
                            "dur": 623, 
                            "type": "note", 
                            "channel": 0
                        }
                    ]
                ], 
                [
                    87103, 
                    [
                        {
                            "pitch": 80, 
                            "t0": 87103, 
                            "v": 86, 
                            "dur": 59, 
                            "type": "note", 
                            "channel": 0
                        }
                    ]
                ], 
                [
                    87111, 
                    [
                        {
                            "pitch": 53, 
                            "t0": 87111, 
                            "v": 28, 
                            "dur": 784, 
                            "type": "note", 
                            "channel": 0
                        }
                    ]
                ], 
                [
                    87129, 
                    [
                        {
                            "pitch": 60, 
                            "t0": 87129, 
                            "v": 51, 
                            "dur": 291, 
                            "type": "note", 
                            "channel": 0
                        }
                    ]
                ], 
                [
                    87237, 
                    [
                        {
                            "pitch": 80, 
                            "t0": 87237, 
                            "v": 84, 
                            "dur": 78, 
                            "type": "note", 
                            "channel": 0
                        }
                    ]
                ], 
                [
                    87374, 
                    [
                        {
                            "pitch": 80, 
                            "t0": 87374, 
                            "v": 81, 
                            "dur": 91, 
                            "type": "note", 
                            "channel": 0
                        }
                    ]
                ], 
                [
                    87526, 
                    [
                        {
                            "pitch": 79, 
                            "t0": 87526, 
                            "v": 76, 
                            "dur": 42, 
                            "type": "note", 
                            "channel": 0
                        }
                    ]
                ], 
                [
                    87680, 
                    [
                        {
                            "pitch": 77, 
                            "t0": 87680, 
                            "v": 74, 
                            "dur": 41, 
                            "type": "note", 
                            "channel": 0
                        }
                    ]
                ], 
                [
                    87702, 
                    [
                        {
                            "pitch": 62, 
                            "t0": 87702, 
                            "v": 49, 
                            "dur": 321, 
                            "type": "note", 
                            "channel": 0
                        }
                    ]
                ], 
                [
                    87824, 
                    [
                        {
                            "pitch": 77, 
                            "t0": 87824, 
                            "v": 71, 
                            "dur": 42, 
                            "type": "note", 
                            "channel": 0
                        }
                    ]
                ], 
                [
                    87969, 
                    [
                        {
                            "pitch": 77, 
                            "t0": 87969, 
                            "v": 64, 
                            "dur": 51, 
                            "type": "note", 
                            "channel": 0
                        }
                    ]
                ], 
                [
                    87983, 
                    [
                        {
                            "pitch": 63, 
                            "t0": 87983, 
                            "v": 59, 
                            "dur": 251, 
                            "type": "note", 
                            "channel": 0
                        }
                    ]
                ], 
                [
                    88106, 
                    [
                        {
                            "pitch": 75, 
                            "t0": 88106, 
                            "v": 73, 
                            "dur": 50, 
                            "type": "note", 
                            "channel": 0
                        }
                    ]
                ], 
                [
                    88245, 
                    [
                        {
                            "pitch": 65, 
                            "t0": 88245, 
                            "v": 89, 
                            "dur": 370, 
                            "type": "note", 
                            "channel": 0
                        }
                    ]
                ], 
                [
                    88249, 
                    [
                        {
                            "pitch": 74, 
                            "t0": 88249, 
                            "v": 79, 
                            "dur": 33, 
                            "type": "note", 
                            "channel": 0
                        }
                    ]
                ], 
                [
                    88390, 
                    [
                        {
                            "pitch": 74, 
                            "t0": 88390, 
                            "v": 79, 
                            "dur": 37, 
                            "type": "note", 
                            "channel": 0
                        }
                    ]
                ], 
                [
                    88524, 
                    [
                        {
                            "pitch": 74, 
                            "t0": 88524, 
                            "v": 70, 
                            "dur": 69, 
                            "type": "note", 
                            "channel": 0
                        }
                    ]
                ], 
                [
                    88535, 
                    [
                        {
                            "pitch": 66, 
                            "t0": 88535, 
                            "v": 86, 
                            "dur": 253, 
                            "type": "note", 
                            "channel": 0
                        }
                    ]
                ], 
                [
                    88675, 
                    [
                        {
                            "pitch": 72, 
                            "t0": 88675, 
                            "v": 75, 
                            "dur": 49, 
                            "type": "note", 
                            "channel": 0
                        }
                    ]
                ], 
                [
                    88833, 
                    [
                        {
                            "pitch": 71, 
                            "t0": 88833, 
                            "v": 63, 
                            "dur": 585, 
                            "type": "note", 
                            "channel": 0
                        }
                    ]
                ], 
                [
                    88842, 
                    [
                        {
                            "pitch": 67, 
                            "t0": 88842, 
                            "v": 68, 
                            "dur": 41, 
                            "type": "note", 
                            "channel": 0
                        }
                    ]
                ], 
                [
                    88978, 
                    [
                        {
                            "pitch": 67, 
                            "t0": 88978, 
                            "v": 77, 
                            "dur": 42, 
                            "type": "note", 
                            "channel": 0
                        }
                    ]
                ], 
                [
                    88987, 
                    [
                        {
                            "pitch": 55, 
                            "t0": 88987, 
                            "v": 85, 
                            "dur": 33, 
                            "type": "note", 
                            "channel": 0
                        }
                    ]
                ], 
                [
                    89118, 
                    [
                        {
                            "pitch": 67, 
                            "t0": 89118, 
                            "v": 89, 
                            "dur": 71, 
                            "type": "note", 
                            "channel": 0
                        }
                    ]
                ], 
                [
                    89132, 
                    [
                        {
                            "pitch": 55, 
                            "t0": 89132, 
                            "v": 54, 
                            "dur": 39, 
                            "type": "note", 
                            "channel": 0
                        }
                    ]
                ], 
                [
                    89259, 
                    [
                        {
                            "pitch": 62, 
                            "t0": 89259, 
                            "v": 72, 
                            "dur": 43, 
                            "type": "note", 
                            "channel": 0
                        }
                    ]
                ], 
                [
                    89262, 
                    [
                        {
                            "pitch": 65, 
                            "t0": 89262, 
                            "v": 69, 
                            "dur": 43, 
                            "type": "note", 
                            "channel": 0
                        }
                    ]
                ], 
                [
                    89423, 
                    [
                        {
                            "pitch": 63, 
                            "t0": 89423, 
                            "v": 71, 
                            "dur": 544, 
                            "type": "note", 
                            "channel": 0
                        }
                    ]
                ], 
                [
                    89443, 
                    [
                        {
                            "pitch": 60, 
                            "t0": 89443, 
                            "v": 34, 
                            "dur": 494, 
                            "type": "note", 
                            "channel": 0
                        }
                    ]
                ], 
                [
                    89568, 
                    [
                        {
                            "pitch": 75, 
                            "t0": 89568, 
                            "v": 68, 
                            "dur": 39, 
                            "type": "note", 
                            "channel": 0
                        }
                    ]
                ], 
                [
                    89572, 
                    [
                        {
                            "pitch": 72, 
                            "t0": 89572, 
                            "v": 67, 
                            "dur": 61, 
                            "type": "note", 
                            "channel": 0
                        }
                    ]
                ], 
                [
                    89711, 
                    [
                        {
                            "pitch": 75, 
                            "t0": 89711, 
                            "v": 66, 
                            "dur": 133, 
                            "type": "note", 
                            "channel": 0
                        }
                    ]
                ], 
                [
                    89719, 
                    [
                        {
                            "pitch": 72, 
                            "t0": 89719, 
                            "v": 36, 
                            "dur": 50, 
                            "type": "note", 
                            "channel": 0
                        }
                    ]
                ], 
                [
                    89881, 
                    [
                        {
                            "pitch": 77, 
                            "t0": 89881, 
                            "v": 55, 
                            "dur": 70, 
                            "type": "note", 
                            "channel": 0
                        }
                    ]
                ], 
                [
                    90009, 
                    [
                        {
                            "pitch": 62, 
                            "t0": 90009, 
                            "v": 56, 
                            "dur": 45, 
                            "type": "note", 
                            "channel": 0
                        }
                    ]
                ], 
                [
                    90014, 
                    [
                        {
                            "pitch": 79, 
                            "t0": 90014, 
                            "v": 57, 
                            "dur": 613, 
                            "type": "note", 
                            "channel": 0
                        }
                    ]
                ], 
                [
                    90029, 
                    [
                        {
                            "pitch": 67, 
                            "t0": 90029, 
                            "v": 19, 
                            "dur": 41, 
                            "type": "note", 
                            "channel": 0
                        }
                    ]
                ], 
                [
                    90036, 
                    [
                        {
                            "pitch": 55, 
                            "t0": 90036, 
                            "v": 45, 
                            "dur": 39, 
                            "type": "note", 
                            "channel": 0
                        }
                    ]
                ], 
                [
                    90039, 
                    [
                        {
                            "pitch": 71, 
                            "t0": 90039, 
                            "v": 43, 
                            "dur": 432, 
                            "type": "note", 
                            "channel": 0
                        }
                    ]
                ], 
                [
                    90153, 
                    [
                        {
                            "pitch": 67, 
                            "t0": 90153, 
                            "v": 78, 
                            "dur": 40, 
                            "type": "note", 
                            "channel": 0
                        }
                    ]
                ], 
                [
                    90162, 
                    [
                        {
                            "pitch": 55, 
                            "t0": 90162, 
                            "v": 52, 
                            "dur": 39, 
                            "type": "note", 
                            "channel": 0
                        }
                    ]
                ], 
                [
                    90299, 
                    [
                        {
                            "pitch": 67, 
                            "t0": 90299, 
                            "v": 88, 
                            "dur": 30, 
                            "type": "note", 
                            "channel": 0
                        }
                    ]
                ], 
                [
                    90306, 
                    [
                        {
                            "pitch": 55, 
                            "t0": 90306, 
                            "v": 63, 
                            "dur": 37, 
                            "type": "note", 
                            "channel": 0
                        }
                    ]
                ], 
                [
                    90433, 
                    [
                        {
                            "pitch": 65, 
                            "t0": 90433, 
                            "v": 82, 
                            "dur": 71, 
                            "type": "note", 
                            "channel": 0
                        }
                    ]
                ], 
                [
                    90446, 
                    [
                        {
                            "pitch": 62, 
                            "t0": 90446, 
                            "v": 70, 
                            "dur": 41, 
                            "type": "note", 
                            "channel": 0
                        }
                    ]
                ], 
                [
                    90585, 
                    [
                        {
                            "pitch": 63, 
                            "t0": 90585, 
                            "v": 78, 
                            "dur": 401, 
                            "type": "note", 
                            "channel": 0
                        }
                    ]
                ], 
                [
                    90604, 
                    [
                        {
                            "pitch": 60, 
                            "t0": 90604, 
                            "v": 70, 
                            "dur": 354, 
                            "type": "note", 
                            "channel": 0
                        }
                    ]
                ], 
                [
                    90741, 
                    [
                        {
                            "pitch": 75, 
                            "t0": 90741, 
                            "v": 72, 
                            "dur": 51, 
                            "type": "note", 
                            "channel": 0
                        }
                    ]
                ], 
                [
                    90752, 
                    [
                        {
                            "pitch": 72, 
                            "t0": 90752, 
                            "v": 64, 
                            "dur": 45, 
                            "type": "note", 
                            "channel": 0
                        }
                    ]
                ], 
                [
                    90877, 
                    [
                        {
                            "pitch": 75, 
                            "t0": 90877, 
                            "v": 73, 
                            "dur": 104, 
                            "type": "note", 
                            "channel": 0
                        }
                    ]
                ], 
                [
                    90884, 
                    [
                        {
                            "pitch": 72, 
                            "t0": 90884, 
                            "v": 64, 
                            "dur": 44, 
                            "type": "note", 
                            "channel": 0
                        }
                    ]
                ], 
                [
                    91025, 
                    [
                        {
                            "pitch": 77, 
                            "t0": 91025, 
                            "v": 87, 
                            "dur": 78, 
                            "type": "note", 
                            "channel": 0
                        }
                    ]
                ], 
                [
                    91157, 
                    [
                        {
                            "pitch": 55, 
                            "t0": 91157, 
                            "v": 59, 
                            "dur": 49, 
                            "type": "note", 
                            "channel": 0
                        }
                    ]
                ], 
                [
                    91160, 
                    [
                        {
                            "pitch": 62, 
                            "t0": 91160, 
                            "v": 52, 
                            "dur": 46, 
                            "type": "note", 
                            "channel": 0
                        }
                    ]
                ], 
                [
                    91173, 
                    [
                        {
                            "pitch": 79, 
                            "t0": 91173, 
                            "v": 99, 
                            "dur": 1072, 
                            "type": "note", 
                            "channel": 0
                        }
                    ]
                ], 
                [
                    91179, 
                    [
                        {
                            "pitch": 67, 
                            "t0": 91179, 
                            "v": 48, 
                            "dur": 45, 
                            "type": "note", 
                            "channel": 0
                        }
                    ]
                ], 
                [
                    91192, 
                    [
                        {
                            "pitch": 71, 
                            "t0": 91192, 
                            "v": 54, 
                            "dur": 358, 
                            "type": "note", 
                            "channel": 0
                        }
                    ]
                ], 
                [
                    91206, 
                    [
                        {
                            "pitch": 74, 
                            "t0": 91206, 
                            "v": 72, 
                            "dur": 527, 
                            "type": "note", 
                            "channel": 0
                        }
                    ]
                ], 
                [
                    91312, 
                    [
                        {
                            "pitch": 67, 
                            "t0": 91312, 
                            "v": 67, 
                            "dur": 47, 
                            "type": "note", 
                            "channel": 0
                        }
                    ]
                ], 
                [
                    91455, 
                    [
                        {
                            "pitch": 67, 
                            "t0": 91455, 
                            "v": 73, 
                            "dur": 56, 
                            "type": "note", 
                            "channel": 0
                        }
                    ]
                ], 
                [
                    91603, 
                    [
                        {
                            "pitch": 65, 
                            "t0": 91603, 
                            "v": 80, 
                            "dur": 39, 
                            "type": "note", 
                            "channel": 0
                        }
                    ]
                ], 
                [
                    91749, 
                    [
                        {
                            "pitch": 63, 
                            "t0": 91749, 
                            "v": 76, 
                            "dur": 74, 
                            "type": "note", 
                            "channel": 0
                        }, 
                        {
                            "pitch": 75, 
                            "t0": 91749, 
                            "v": 75, 
                            "dur": 416, 
                            "type": "note", 
                            "channel": 0
                        }
                    ]
                ], 
                [
                    91753, 
                    [
                        {
                            "pitch": 67, 
                            "t0": 91753, 
                            "v": 60, 
                            "dur": 406, 
                            "type": "note", 
                            "channel": 0
                        }
                    ]
                ], 
                [
                    91759, 
                    [
                        {
                            "pitch": 60, 
                            "t0": 91759, 
                            "v": 73, 
                            "dur": 47, 
                            "type": "note", 
                            "channel": 0
                        }
                    ]
                ], 
                [
                    91767, 
                    [
                        {
                            "pitch": 72, 
                            "t0": 91767, 
                            "v": 57, 
                            "dur": 325, 
                            "type": "note", 
                            "channel": 0
                        }
                    ]
                ], 
                [
                    91886, 
                    [
                        {
                            "pitch": 63, 
                            "t0": 91886, 
                            "v": 81, 
                            "dur": 65, 
                            "type": "note", 
                            "channel": 0
                        }
                    ]
                ], 
                [
                    92036, 
                    [
                        {
                            "pitch": 63, 
                            "t0": 92036, 
                            "v": 69, 
                            "dur": 56, 
                            "type": "note", 
                            "channel": 0
                        }
                    ]
                ], 
                [
                    92193, 
                    [
                        {
                            "pitch": 62, 
                            "t0": 92193, 
                            "v": 63, 
                            "dur": 39, 
                            "type": "note", 
                            "channel": 0
                        }
                    ]
                ], 
                [
                    92338, 
                    [
                        {
                            "pitch": 81, 
                            "t0": 92338, 
                            "v": 90, 
                            "dur": 331, 
                            "type": "note", 
                            "channel": 0
                        }
                    ]
                ], 
                [
                    92343, 
                    [
                        {
                            "pitch": 69, 
                            "t0": 92343, 
                            "v": 73, 
                            "dur": 92, 
                            "type": "note", 
                            "channel": 0
                        }
                    ]
                ], 
                [
                    92355, 
                    [
                        {
                            "pitch": 60, 
                            "t0": 92355, 
                            "v": 59, 
                            "dur": 43, 
                            "type": "note", 
                            "channel": 0
                        }
                    ]
                ], 
                [
                    92488, 
                    [
                        {
                            "pitch": 63, 
                            "t0": 92488, 
                            "v": 75, 
                            "dur": 36, 
                            "type": "note", 
                            "channel": 0
                        }
                    ]
                ], 
                [
                    92524, 
                    [
                        {
                            "pitch": 60, 
                            "t0": 92524, 
                            "v": 26, 
                            "dur": 54, 
                            "type": "note", 
                            "channel": 0
                        }
                    ]
                ], 
                [
                    92641, 
                    [
                        {
                            "pitch": 70, 
                            "t0": 92641, 
                            "v": 85, 
                            "dur": 117, 
                            "type": "note", 
                            "channel": 0
                        }, 
                        {
                            "pitch": 82, 
                            "t0": 92641, 
                            "v": 98, 
                            "dur": 328, 
                            "type": "note", 
                            "channel": 0
                        }
                    ]
                ], 
                [
                    92647, 
                    [
                        {
                            "pitch": 60, 
                            "t0": 92647, 
                            "v": 41, 
                            "dur": 63, 
                            "type": "note", 
                            "channel": 0
                        }
                    ]
                ], 
                [
                    92655, 
                    [
                        {
                            "pitch": 63, 
                            "t0": 92655, 
                            "v": 64, 
                            "dur": 42, 
                            "type": "note", 
                            "channel": 0
                        }
                    ]
                ], 
                [
                    92786, 
                    [
                        {
                            "pitch": 62, 
                            "t0": 92786, 
                            "v": 82, 
                            "dur": 28, 
                            "type": "note", 
                            "channel": 0
                        }
                    ]
                ], 
                [
                    92791, 
                    [
                        {
                            "pitch": 58, 
                            "t0": 92791, 
                            "v": 87, 
                            "dur": 39, 
                            "type": "note", 
                            "channel": 0
                        }
                    ]
                ], 
                [
                    92933, 
                    [
                        {
                            "pitch": 60, 
                            "t0": 92933, 
                            "v": 93, 
                            "dur": 76, 
                            "type": "note", 
                            "channel": 0
                        }, 
                        {
                            "pitch": 84, 
                            "t0": 92933, 
                            "v": 100, 
                            "dur": 326, 
                            "type": "note", 
                            "channel": 0
                        }
                    ]
                ], 
                [
                    92937, 
                    [
                        {
                            "pitch": 72, 
                            "t0": 92937, 
                            "v": 92, 
                            "dur": 166, 
                            "type": "note", 
                            "channel": 0
                        }
                    ]
                ], 
                [
                    92948, 
                    [
                        {
                            "pitch": 57, 
                            "t0": 92948, 
                            "v": 76, 
                            "dur": 33, 
                            "type": "note", 
                            "channel": 0
                        }
                    ]
                ], 
                [
                    93065, 
                    [
                        {
                            "pitch": 60, 
                            "t0": 93065, 
                            "v": 88, 
                            "dur": 75, 
                            "type": "note", 
                            "channel": 0
                        }
                    ]
                ], 
                [
                    93076, 
                    [
                        {
                            "pitch": 57, 
                            "t0": 93076, 
                            "v": 49, 
                            "dur": 64, 
                            "type": "note", 
                            "channel": 0
                        }
                    ]
                ], 
                [
                    93204, 
                    [
                        {
                            "pitch": 60, 
                            "t0": 93204, 
                            "v": 75, 
                            "dur": 84, 
                            "type": "note", 
                            "channel": 0
                        }
                    ]
                ], 
                [
                    93215, 
                    [
                        {
                            "pitch": 85, 
                            "t0": 93215, 
                            "v": 95, 
                            "dur": 310, 
                            "type": "note", 
                            "channel": 0
                        }
                    ]
                ], 
                [
                    93218, 
                    [
                        {
                            "pitch": 57, 
                            "t0": 93218, 
                            "v": 66, 
                            "dur": 44, 
                            "type": "note", 
                            "channel": 0
                        }, 
                        {
                            "pitch": 73, 
                            "t0": 93218, 
                            "v": 81, 
                            "dur": 179, 
                            "type": "note", 
                            "channel": 0
                        }
                    ]
                ], 
                [
                    93355, 
                    [
                        {
                            "pitch": 58, 
                            "t0": 93355, 
                            "v": 95, 
                            "dur": 33, 
                            "type": "note", 
                            "channel": 0
                        }
                    ]
                ], 
                [
                    93368, 
                    [
                        {
                            "pitch": 55, 
                            "t0": 93368, 
                            "v": 68, 
                            "dur": 33, 
                            "type": "note", 
                            "channel": 0
                        }
                    ]
                ], 
                [
                    93507, 
                    [
                        {
                            "pitch": 86, 
                            "t0": 93507, 
                            "v": 86, 
                            "dur": 79, 
                            "type": "note", 
                            "channel": 0
                        }
                    ]
                ], 
                [
                    93514, 
                    [
                        {
                            "pitch": 57, 
                            "t0": 93514, 
                            "v": 71, 
                            "dur": 327, 
                            "type": "note", 
                            "channel": 0
                        }
                    ]
                ], 
                [
                    93518, 
                    [
                        {
                            "pitch": 74, 
                            "t0": 93518, 
                            "v": 72, 
                            "dur": 62, 
                            "type": "note", 
                            "channel": 0
                        }
                    ]
                ], 
                [
                    93535, 
                    [
                        {
                            "pitch": 54, 
                            "t0": 93535, 
                            "v": 39, 
                            "dur": 318, 
                            "type": "note", 
                            "channel": 0
                        }
                    ]
                ], 
                [
                    93544, 
                    [
                        {
                            "pitch": 50, 
                            "t0": 93544, 
                            "v": 34, 
                            "dur": 297, 
                            "type": "note", 
                            "channel": 0
                        }
                    ]
                ], 
                [
                    93650, 
                    [
                        {
                            "pitch": 86, 
                            "t0": 93650, 
                            "v": 88, 
                            "dur": 77, 
                            "type": "note", 
                            "channel": 0
                        }
                    ]
                ], 
                [
                    93661, 
                    [
                        {
                            "pitch": 78, 
                            "t0": 93661, 
                            "v": 76, 
                            "dur": 44, 
                            "type": "note", 
                            "channel": 0
                        }
                    ]
                ], 
                [
                    93664, 
                    [
                        {
                            "pitch": 74, 
                            "t0": 93664, 
                            "v": 73, 
                            "dur": 58, 
                            "type": "note", 
                            "channel": 0
                        }
                    ]
                ], 
                [
                    93792, 
                    [
                        {
                            "pitch": 86, 
                            "t0": 93792, 
                            "v": 84, 
                            "dur": 911, 
                            "type": "note", 
                            "channel": 0
                        }
                    ]
                ], 
                [
                    93808, 
                    [
                        {
                            "pitch": 74, 
                            "t0": 93808, 
                            "v": 76, 
                            "dur": 895, 
                            "type": "note", 
                            "channel": 0
                        }
                    ]
                ], 
                [
                    93817, 
                    [
                        {
                            "pitch": 78, 
                            "t0": 93817, 
                            "v": 73, 
                            "dur": 36, 
                            "type": "note", 
                            "channel": 0
                        }
                    ]
                ], 
                [
                    93956, 
                    [
                        {
                            "pitch": 84, 
                            "t0": 93956, 
                            "v": 83, 
                            "dur": 104, 
                            "type": "note", 
                            "channel": 0
                        }
                    ]
                ], 
                [
                    93967, 
                    [
                        {
                            "pitch": 81, 
                            "t0": 93967, 
                            "v": 44, 
                            "dur": 39, 
                            "type": "note", 
                            "channel": 0
                        }
                    ]
                ], 
                [
                    94070, 
                    [
                        {
                            "pitch": 43, 
                            "t0": 94070, 
                            "v": 65, 
                            "dur": 31, 
                            "type": "note", 
                            "channel": 0
                        }
                    ]
                ], 
                [
                    94123, 
                    [
                        {
                            "pitch": 82, 
                            "t0": 94123, 
                            "v": 85, 
                            "dur": 398, 
                            "type": "note", 
                            "channel": 0
                        }
                    ]
                ], 
                [
                    94128, 
                    [
                        {
                            "pitch": 79, 
                            "t0": 94128, 
                            "v": 62, 
                            "dur": 393, 
                            "type": "note", 
                            "channel": 0
                        }
                    ]
                ], 
                [
                    94252, 
                    [
                        {
                            "pitch": 58, 
                            "t0": 94252, 
                            "v": 60, 
                            "dur": 44, 
                            "type": "note", 
                            "channel": 0
                        }
                    ]
                ], 
                [
                    94268, 
                    [
                        {
                            "pitch": 55, 
                            "t0": 94268, 
                            "v": 29, 
                            "dur": 47, 
                            "type": "note", 
                            "channel": 0
                        }
                    ]
                ], 
                [
                    94379, 
                    [
                        {
                            "pitch": 55, 
                            "t0": 94379, 
                            "v": 67, 
                            "dur": 54, 
                            "type": "note", 
                            "channel": 0
                        }, 
                        {
                            "pitch": 58, 
                            "t0": 94379, 
                            "v": 62, 
                            "dur": 64, 
                            "type": "note", 
                            "channel": 0
                        }
                    ]
                ], 
                [
                    94521, 
                    [
                        {
                            "pitch": 60, 
                            "t0": 94521, 
                            "v": 87, 
                            "dur": 32, 
                            "type": "note", 
                            "channel": 0
                        }
                    ]
                ], 
                [
                    94535, 
                    [
                        {
                            "pitch": 57, 
                            "t0": 94535, 
                            "v": 68, 
                            "dur": 31, 
                            "type": "note", 
                            "channel": 0
                        }
                    ]
                ], 
                [
                    94688, 
                    [
                        {
                            "pitch": 78, 
                            "t0": 94688, 
                            "v": 45, 
                            "dur": 43, 
                            "type": "note", 
                            "channel": 0
                        }
                    ]
                ], 
                [
                    94692, 
                    [
                        {
                            "pitch": 81, 
                            "t0": 94692, 
                            "v": 56, 
                            "dur": 69, 
                            "type": "note", 
                            "channel": 0
                        }, 
                        {
                            "pitch": 62, 
                            "t0": 94692, 
                            "v": 87, 
                            "dur": 319, 
                            "type": "note", 
                            "channel": 0
                        }
                    ]
                ], 
                [
                    94713, 
                    [
                        {
                            "pitch": 54, 
                            "t0": 94713, 
                            "v": 51, 
                            "dur": 310, 
                            "type": "note", 
                            "channel": 0
                        }
                    ]
                ], 
                [
                    94716, 
                    [
                        {
                            "pitch": 50, 
                            "t0": 94716, 
                            "v": 41, 
                            "dur": 321, 
                            "type": "note", 
                            "channel": 0
                        }
                    ]
                ], 
                [
                    94830, 
                    [
                        {
                            "pitch": 86, 
                            "t0": 94830, 
                            "v": 85, 
                            "dur": 42, 
                            "type": "note", 
                            "channel": 0
                        }, 
                        {
                            "pitch": 78, 
                            "t0": 94830, 
                            "v": 55, 
                            "dur": 42, 
                            "type": "note", 
                            "channel": 0
                        }, 
                        {
                            "pitch": 74, 
                            "t0": 94830, 
                            "v": 76, 
                            "dur": 51, 
                            "type": "note", 
                            "channel": 0
                        }
                    ]
                ], 
                [
                    94959, 
                    [
                        {
                            "pitch": 86, 
                            "t0": 94959, 
                            "v": 84, 
                            "dur": 652, 
                            "type": "note", 
                            "channel": 0
                        }
                    ]
                ], 
                [
                    94964, 
                    [
                        {
                            "pitch": 74, 
                            "t0": 94964, 
                            "v": 79, 
                            "dur": 671, 
                            "type": "note", 
                            "channel": 0
                        }
                    ]
                ], 
                [
                    94970, 
                    [
                        {
                            "pitch": 78, 
                            "t0": 94970, 
                            "v": 67, 
                            "dur": 53, 
                            "type": "note", 
                            "channel": 0
                        }
                    ]
                ], 
                [
                    95113, 
                    [
                        {
                            "pitch": 81, 
                            "t0": 95113, 
                            "v": 68, 
                            "dur": 38, 
                            "type": "note", 
                            "channel": 0
                        }
                    ]
                ], 
                [
                    95117, 
                    [
                        {
                            "pitch": 84, 
                            "t0": 95117, 
                            "v": 88, 
                            "dur": 95, 
                            "type": "note", 
                            "channel": 0
                        }
                    ]
                ], 
                [
                    95238, 
                    [
                        {
                            "pitch": 43, 
                            "t0": 95238, 
                            "v": 78, 
                            "dur": 27, 
                            "type": "note", 
                            "channel": 0
                        }
                    ]
                ], 
                [
                    95265, 
                    [
                        {
                            "pitch": 82, 
                            "t0": 95265, 
                            "v": 96, 
                            "dur": 370, 
                            "type": "note", 
                            "channel": 0
                        }
                    ]
                ], 
                [
                    95271, 
                    [
                        {
                            "pitch": 79, 
                            "t0": 95271, 
                            "v": 69, 
                            "dur": 349, 
                            "type": "note", 
                            "channel": 0
                        }
                    ]
                ], 
                [
                    95383, 
                    [
                        {
                            "pitch": 55, 
                            "t0": 95383, 
                            "v": 44, 
                            "dur": 39, 
                            "type": "note", 
                            "channel": 0
                        }, 
                        {
                            "pitch": 58, 
                            "t0": 95383, 
                            "v": 92, 
                            "dur": 52, 
                            "type": "note", 
                            "channel": 0
                        }
                    ]
                ], 
                [
                    95514, 
                    [
                        {
                            "pitch": 58, 
                            "t0": 95514, 
                            "v": 83, 
                            "dur": 50, 
                            "type": "note", 
                            "channel": 0
                        }
                    ]
                ], 
                [
                    95522, 
                    [
                        {
                            "pitch": 55, 
                            "t0": 95522, 
                            "v": 61, 
                            "dur": 89, 
                            "type": "note", 
                            "channel": 0
                        }
                    ]
                ], 
                [
                    95672, 
                    [
                        {
                            "pitch": 60, 
                            "t0": 95672, 
                            "v": 88, 
                            "dur": 36, 
                            "type": "note", 
                            "channel": 0
                        }
                    ]
                ], 
                [
                    95677, 
                    [
                        {
                            "pitch": 57, 
                            "t0": 95677, 
                            "v": 76, 
                            "dur": 36, 
                            "type": "note", 
                            "channel": 0
                        }
                    ]
                ], 
                [
                    95820, 
                    [
                        {
                            "pitch": 62, 
                            "t0": 95820, 
                            "v": 87, 
                            "dur": 67, 
                            "type": "note", 
                            "channel": 0
                        }
                    ]
                ], 
                [
                    95823, 
                    [
                        {
                            "pitch": 86, 
                            "t0": 95823, 
                            "v": 91, 
                            "dur": 646, 
                            "type": "note", 
                            "channel": 0
                        }
                    ]
                ], 
                [
                    95826, 
                    [
                        {
                            "pitch": 78, 
                            "t0": 95826, 
                            "v": 70, 
                            "dur": 462, 
                            "type": "note", 
                            "channel": 0
                        }, 
                        {
                            "pitch": 74, 
                            "t0": 95826, 
                            "v": 81, 
                            "dur": 656, 
                            "type": "note", 
                            "channel": 0
                        }
                    ]
                ], 
                [
                    95831, 
                    [
                        {
                            "pitch": 54, 
                            "t0": 95831, 
                            "v": 66, 
                            "dur": 52, 
                            "type": "note", 
                            "channel": 0
                        }, 
                        {
                            "pitch": 81, 
                            "t0": 95831, 
                            "v": 81, 
                            "dur": 557, 
                            "type": "note", 
                            "channel": 0
                        }
                    ]
                ], 
                [
                    95836, 
                    [
                        {
                            "pitch": 50, 
                            "t0": 95836, 
                            "v": 68, 
                            "dur": 407, 
                            "type": "note", 
                            "channel": 0
                        }
                    ]
                ], 
                [
                    95962, 
                    [
                        {
                            "pitch": 62, 
                            "t0": 95962, 
                            "v": 75, 
                            "dur": 78, 
                            "type": "note", 
                            "channel": 0
                        }
                    ]
                ], 
                [
                    95982, 
                    [
                        {
                            "pitch": 54, 
                            "t0": 95982, 
                            "v": 59, 
                            "dur": 46, 
                            "type": "note", 
                            "channel": 0
                        }
                    ]
                ], 
                [
                    96103, 
                    [
                        {
                            "pitch": 62, 
                            "t0": 96103, 
                            "v": 73, 
                            "dur": 70, 
                            "type": "note", 
                            "channel": 0
                        }
                    ]
                ], 
                [
                    96145, 
                    [
                        {
                            "pitch": 54, 
                            "t0": 96145, 
                            "v": 13, 
                            "dur": 45, 
                            "type": "note", 
                            "channel": 0
                        }
                    ]
                ], 
                [
                    96249, 
                    [
                        {
                            "pitch": 60, 
                            "t0": 96249, 
                            "v": 77, 
                            "dur": 34, 
                            "type": "note", 
                            "channel": 0
                        }
                    ]
                ], 
                [
                    96374, 
                    [
                        {
                            "pitch": 43, 
                            "t0": 96374, 
                            "v": 77, 
                            "dur": 739, 
                            "type": "note", 
                            "channel": 0
                        }
                    ]
                ], 
                [
                    96460, 
                    [
                        {
                            "pitch": 82, 
                            "t0": 96460, 
                            "v": 80, 
                            "dur": 37, 
                            "type": "note", 
                            "channel": 0
                        }
                    ]
                ], 
                [
                    96464, 
                    [
                        {
                            "pitch": 79, 
                            "t0": 96464, 
                            "v": 46, 
                            "dur": 43, 
                            "type": "note", 
                            "channel": 0
                        }, 
                        {
                            "pitch": 58, 
                            "t0": 96464, 
                            "v": 76, 
                            "dur": 60, 
                            "type": "note", 
                            "channel": 0
                        }
                    ]
                ], 
                [
                    96636, 
                    [
                        {
                            "pitch": 67, 
                            "t0": 96636, 
                            "v": 67, 
                            "dur": 37, 
                            "type": "note", 
                            "channel": 0
                        }
                    ]
                ], 
                [
                    96642, 
                    [
                        {
                            "pitch": 58, 
                            "t0": 96642, 
                            "v": 48, 
                            "dur": 52, 
                            "type": "note", 
                            "channel": 0
                        }
                    ]
                ], 
                [
                    96762, 
                    [
                        {
                            "pitch": 67, 
                            "t0": 96762, 
                            "v": 57, 
                            "dur": 69, 
                            "type": "note", 
                            "channel": 0
                        }
                    ]
                ], 
                [
                    96769, 
                    [
                        {
                            "pitch": 58, 
                            "t0": 96769, 
                            "v": 66, 
                            "dur": 73, 
                            "type": "note", 
                            "channel": 0
                        }
                    ]
                ], 
                [
                    96920, 
                    [
                        {
                            "pitch": 69, 
                            "t0": 96920, 
                            "v": 73, 
                            "dur": 31, 
                            "type": "note", 
                            "channel": 0
                        }
                    ]
                ], 
                [
                    96925, 
                    [
                        {
                            "pitch": 57, 
                            "t0": 96925, 
                            "v": 59, 
                            "dur": 39, 
                            "type": "note", 
                            "channel": 0
                        }
                    ]
                ], 
                [
                    97054, 
                    [
                        {
                            "pitch": 70, 
                            "t0": 97054, 
                            "v": 94, 
                            "dur": 429, 
                            "type": "note", 
                            "channel": 0
                        }
                    ]
                ], 
                [
                    97073, 
                    [
                        {
                            "pitch": 55, 
                            "t0": 97073, 
                            "v": 66, 
                            "dur": 44, 
                            "type": "note", 
                            "channel": 0
                        }
                    ]
                ], 
                [
                    97209, 
                    [
                        {
                            "pitch": 79, 
                            "t0": 97209, 
                            "v": 88, 
                            "dur": 127, 
                            "type": "note", 
                            "channel": 0
                        }
                    ]
                ], 
                [
                    97212, 
                    [
                        {
                            "pitch": 55, 
                            "t0": 97212, 
                            "v": 62, 
                            "dur": 36, 
                            "type": "note", 
                            "channel": 0
                        }
                    ]
                ], 
                [
                    97344, 
                    [
                        {
                            "pitch": 43, 
                            "t0": 97344, 
                            "v": 72, 
                            "dur": 42, 
                            "type": "note", 
                            "channel": 0
                        }, 
                        {
                            "pitch": 55, 
                            "t0": 97344, 
                            "v": 58, 
                            "dur": 42, 
                            "type": "note", 
                            "channel": 0
                        }
                    ]
                ], 
                [
                    97351, 
                    [
                        {
                            "pitch": 81, 
                            "t0": 97351, 
                            "v": 89, 
                            "dur": 85, 
                            "type": "note", 
                            "channel": 0
                        }
                    ]
                ], 
                [
                    97477, 
                    [
                        {
                            "pitch": 82, 
                            "t0": 97477, 
                            "v": 100, 
                            "dur": 95, 
                            "type": "note", 
                            "channel": 0
                        }
                    ]
                ], 
                [
                    97491, 
                    [
                        {
                            "pitch": 53, 
                            "t0": 97491, 
                            "v": 74, 
                            "dur": 31, 
                            "type": "note", 
                            "channel": 0
                        }
                    ]
                ], 
                [
                    97500, 
                    [
                        {
                            "pitch": 43, 
                            "t0": 97500, 
                            "v": 38, 
                            "dur": 43, 
                            "type": "note", 
                            "channel": 0
                        }
                    ]
                ], 
                [
                    97631, 
                    [
                        {
                            "pitch": 84, 
                            "t0": 97631, 
                            "v": 103, 
                            "dur": 30, 
                            "type": "note", 
                            "channel": 0
                        }
                    ]
                ], 
                [
                    97638, 
                    [
                        {
                            "pitch": 72, 
                            "t0": 97638, 
                            "v": 85, 
                            "dur": 39, 
                            "type": "note", 
                            "channel": 0
                        }
                    ]
                ], 
                [
                    97645, 
                    [
                        {
                            "pitch": 51, 
                            "t0": 97645, 
                            "v": 66, 
                            "dur": 39, 
                            "type": "note", 
                            "channel": 0
                        }
                    ]
                ], 
                [
                    97649, 
                    [
                        {
                            "pitch": 45, 
                            "t0": 97649, 
                            "v": 68, 
                            "dur": 35, 
                            "type": "note", 
                            "channel": 0
                        }
                    ]
                ], 
                [
                    97653, 
                    [
                        {
                            "pitch": 78, 
                            "t0": 97653, 
                            "v": 55, 
                            "dur": 38, 
                            "type": "note", 
                            "channel": 0
                        }
                    ]
                ], 
                [
                    97809, 
                    [
                        {
                            "pitch": 51, 
                            "t0": 97809, 
                            "v": 66, 
                            "dur": 41, 
                            "type": "note", 
                            "channel": 0
                        }, 
                        {
                            "pitch": 66, 
                            "t0": 97809, 
                            "v": 71, 
                            "dur": 69, 
                            "type": "note", 
                            "channel": 0
                        }
                    ]
                ], 
                [
                    97957, 
                    [
                        {
                            "pitch": 51, 
                            "t0": 97957, 
                            "v": 41, 
                            "dur": 55, 
                            "type": "note", 
                            "channel": 0
                        }
                    ]
                ], 
                [
                    97960, 
                    [
                        {
                            "pitch": 69, 
                            "t0": 97960, 
                            "v": 73, 
                            "dur": 52, 
                            "type": "note", 
                            "channel": 0
                        }
                    ]
                ], 
                [
                    98087, 
                    [
                        {
                            "pitch": 70, 
                            "t0": 98087, 
                            "v": 91, 
                            "dur": 31, 
                            "type": "note", 
                            "channel": 0
                        }
                    ]
                ], 
                [
                    98118, 
                    [
                        {
                            "pitch": 50, 
                            "t0": 98118, 
                            "v": 52, 
                            "dur": 37, 
                            "type": "note", 
                            "channel": 0
                        }
                    ]
                ], 
                [
                    98232, 
                    [
                        {
                            "pitch": 48, 
                            "t0": 98232, 
                            "v": 78, 
                            "dur": 31, 
                            "type": "note", 
                            "channel": 0
                        }, 
                        {
                            "pitch": 72, 
                            "t0": 98232, 
                            "v": 94, 
                            "dur": 328, 
                            "type": "note", 
                            "channel": 0
                        }
                    ]
                ], 
                [
                    98369, 
                    [
                        {
                            "pitch": 60, 
                            "t0": 98369, 
                            "v": 98, 
                            "dur": 74, 
                            "type": "note", 
                            "channel": 0
                        }, 
                        {
                            "pitch": 78, 
                            "t0": 98369, 
                            "v": 78, 
                            "dur": 92, 
                            "type": "note", 
                            "channel": 0
                        }
                    ]
                ], 
                [
                    98499, 
                    [
                        {
                            "pitch": 60, 
                            "t0": 98499, 
                            "v": 94, 
                            "dur": 81, 
                            "type": "note", 
                            "channel": 0
                        }
                    ]
                ], 
                [
                    98519, 
                    [
                        {
                            "pitch": 81, 
                            "t0": 98519, 
                            "v": 67, 
                            "dur": 125, 
                            "type": "note", 
                            "channel": 0
                        }
                    ]
                ], 
                [
                    98644, 
                    [
                        {
                            "pitch": 58, 
                            "t0": 98644, 
                            "v": 97, 
                            "dur": 28, 
                            "type": "note", 
                            "channel": 0
                        }, 
                        {
                            "pitch": 82, 
                            "t0": 98644, 
                            "v": 96, 
                            "dur": 118, 
                            "type": "note", 
                            "channel": 0
                        }
                    ]
                ], 
                [
                    98795, 
                    [
                        {
                            "pitch": 72, 
                            "t0": 98795, 
                            "v": 91, 
                            "dur": 47, 
                            "type": "note", 
                            "channel": 0
                        }
                    ]
                ], 
                [
                    98800, 
                    [
                        {
                            "pitch": 84, 
                            "t0": 98800, 
                            "v": 104, 
                            "dur": 28, 
                            "type": "note", 
                            "channel": 0
                        }
                    ]
                ], 
                [
                    98809, 
                    [
                        {
                            "pitch": 57, 
                            "t0": 98809, 
                            "v": 91, 
                            "dur": 51, 
                            "type": "note", 
                            "channel": 0
                        }
                    ]
                ], 
                [
                    98819, 
                    [
                        {
                            "pitch": 78, 
                            "t0": 98819, 
                            "v": 54, 
                            "dur": 38, 
                            "type": "note", 
                            "channel": 0
                        }
                    ]
                ], 
                [
                    98822, 
                    [
                        {
                            "pitch": 45, 
                            "t0": 98822, 
                            "v": 79, 
                            "dur": 48, 
                            "type": "note", 
                            "channel": 0
                        }
                    ]
                ], 
                [
                    98959, 
                    [
                        {
                            "pitch": 66, 
                            "t0": 98959, 
                            "v": 84, 
                            "dur": 97, 
                            "type": "note", 
                            "channel": 0
                        }
                    ]
                ], 
                [
                    98998, 
                    [
                        {
                            "pitch": 57, 
                            "t0": 98998, 
                            "v": 74, 
                            "dur": 31, 
                            "type": "note", 
                            "channel": 0
                        }
                    ]
                ], 
                [
                    99124, 
                    [
                        {
                            "pitch": 57, 
                            "t0": 99124, 
                            "v": 44, 
                            "dur": 72, 
                            "type": "note", 
                            "channel": 0
                        }
                    ]
                ], 
                [
                    99127, 
                    [
                        {
                            "pitch": 69, 
                            "t0": 99127, 
                            "v": 85, 
                            "dur": 94, 
                            "type": "note", 
                            "channel": 0
                        }
                    ]
                ], 
                [
                    99262, 
                    [
                        {
                            "pitch": 70, 
                            "t0": 99262, 
                            "v": 95, 
                            "dur": 29, 
                            "type": "note", 
                            "channel": 0
                        }
                    ]
                ], 
                [
                    99277, 
                    [
                        {
                            "pitch": 55, 
                            "t0": 99277, 
                            "v": 80, 
                            "dur": 30, 
                            "type": "note", 
                            "channel": 0
                        }
                    ]
                ], 
                [
                    99399, 
                    [
                        {
                            "pitch": 72, 
                            "t0": 99399, 
                            "v": 100, 
                            "dur": 196, 
                            "type": "note", 
                            "channel": 0
                        }
                    ]
                ], 
                [
                    99405, 
                    [
                        {
                            "pitch": 54, 
                            "t0": 99405, 
                            "v": 85, 
                            "dur": 69, 
                            "type": "note", 
                            "channel": 0
                        }
                    ]
                ], 
                [
                    99528, 
                    [
                        {
                            "pitch": 54, 
                            "t0": 99528, 
                            "v": 71, 
                            "dur": 56, 
                            "type": "note", 
                            "channel": 0
                        }
                    ]
                ], 
                [
                    99550, 
                    [
                        {
                            "pitch": 81, 
                            "t0": 99550, 
                            "v": 95, 
                            "dur": 89, 
                            "type": "note", 
                            "channel": 0
                        }
                    ]
                ], 
                [
                    99575, 
                    [
                        {
                            "pitch": 45, 
                            "t0": 99575, 
                            "v": 59, 
                            "dur": 36, 
                            "type": "note", 
                            "channel": 0
                        }
                    ]
                ], 
                [
                    99600, 
                    [
                        {
                            "pitch": 51, 
                            "t0": 99600, 
                            "v": 34, 
                            "dur": 48, 
                            "type": "note", 
                            "channel": 0
                        }
                    ]
                ], 
                [
                    99670, 
                    [
                        {
                            "pitch": 54, 
                            "t0": 99670, 
                            "v": 78, 
                            "dur": 74, 
                            "type": "note", 
                            "channel": 0
                        }
                    ]
                ], 
                [
                    99678, 
                    [
                        {
                            "pitch": 45, 
                            "t0": 99678, 
                            "v": 61, 
                            "dur": 58, 
                            "type": "note", 
                            "channel": 0
                        }
                    ]
                ], 
                [
                    99689, 
                    [
                        {
                            "pitch": 82, 
                            "t0": 99689, 
                            "v": 103, 
                            "dur": 89, 
                            "type": "note", 
                            "channel": 0
                        }
                    ]
                ], 
                [
                    99694, 
                    [
                        {
                            "pitch": 72, 
                            "t0": 99694, 
                            "v": 9, 
                            "dur": 54, 
                            "type": "note", 
                            "channel": 0
                        }
                    ]
                ], 
                [
                    99808, 
                    [
                        {
                            "pitch": 45, 
                            "t0": 99808, 
                            "v": 80, 
                            "dur": 32, 
                            "type": "note", 
                            "channel": 0
                        }
                    ]
                ], 
                [
                    99811, 
                    [
                        {
                            "pitch": 51, 
                            "t0": 99811, 
                            "v": 92, 
                            "dur": 50, 
                            "type": "note", 
                            "channel": 0
                        }
                    ]
                ], 
                [
                    99825, 
                    [
                        {
                            "pitch": 84, 
                            "t0": 99825, 
                            "v": 92, 
                            "dur": 40, 
                            "type": "note", 
                            "channel": 0
                        }
                    ]
                ], 
                [
                    99953, 
                    [
                        {
                            "pitch": 86, 
                            "t0": 99953, 
                            "v": 111, 
                            "dur": 29, 
                            "type": "note", 
                            "channel": 0
                        }, 
                        {
                            "pitch": 50, 
                            "t0": 99953, 
                            "v": 101, 
                            "dur": 76, 
                            "type": "note", 
                            "channel": 0
                        }
                    ]
                ], 
                [
                    99957, 
                    [
                        {
                            "pitch": 74, 
                            "t0": 99957, 
                            "v": 98, 
                            "dur": 58, 
                            "type": "note", 
                            "channel": 0
                        }
                    ]
                ], 
                [
                    99962, 
                    [
                        {
                            "pitch": 46, 
                            "t0": 99962, 
                            "v": 94, 
                            "dur": 123, 
                            "type": "note", 
                            "channel": 0
                        }
                    ]
                ], 
                [
                    100106, 
                    [
                        {
                            "pitch": 67, 
                            "t0": 100106, 
                            "v": 91, 
                            "dur": 98, 
                            "type": "note", 
                            "channel": 0
                        }
                    ]
                ], 
                [
                    100115, 
                    [
                        {
                            "pitch": 50, 
                            "t0": 100115, 
                            "v": 68, 
                            "dur": 51, 
                            "type": "note", 
                            "channel": 0
                        }
                    ]
                ], 
                [
                    100235, 
                    [
                        {
                            "pitch": 50, 
                            "t0": 100235, 
                            "v": 72, 
                            "dur": 89, 
                            "type": "note", 
                            "channel": 0
                        }
                    ]
                ], 
                [
                    100241, 
                    [
                        {
                            "pitch": 70, 
                            "t0": 100241, 
                            "v": 95, 
                            "dur": 103, 
                            "type": "note", 
                            "channel": 0
                        }
                    ]
                ], 
                [
                    100380, 
                    [
                        {
                            "pitch": 72, 
                            "t0": 100380, 
                            "v": 98, 
                            "dur": 27, 
                            "type": "note", 
                            "channel": 0
                        }, 
                        {
                            "pitch": 48, 
                            "t0": 100380, 
                            "v": 86, 
                            "dur": 64, 
                            "type": "note", 
                            "channel": 0
                        }
                    ]
                ], 
                [
                    100514, 
                    [
                        {
                            "pitch": 46, 
                            "t0": 100514, 
                            "v": 107, 
                            "dur": 28, 
                            "type": "note", 
                            "channel": 0
                        }
                    ]
                ], 
                [
                    100517, 
                    [
                        {
                            "pitch": 74, 
                            "t0": 100517, 
                            "v": 91, 
                            "dur": 219, 
                            "type": "note", 
                            "channel": 0
                        }
                    ]
                ], 
                [
                    100653, 
                    [
                        {
                            "pitch": 62, 
                            "t0": 100653, 
                            "v": 97, 
                            "dur": 61, 
                            "type": "note", 
                            "channel": 0
                        }, 
                        {
                            "pitch": 79, 
                            "t0": 100653, 
                            "v": 92, 
                            "dur": 115, 
                            "type": "note", 
                            "channel": 0
                        }
                    ]
                ], 
                [
                    100783, 
                    [
                        {
                            "pitch": 62, 
                            "t0": 100783, 
                            "v": 91, 
                            "dur": 70, 
                            "type": "note", 
                            "channel": 0
                        }
                    ]
                ], 
                [
                    100786, 
                    [
                        {
                            "pitch": 82, 
                            "t0": 100786, 
                            "v": 108, 
                            "dur": 131, 
                            "type": "note", 
                            "channel": 0
                        }
                    ]
                ], 
                [
                    100912, 
                    [
                        {
                            "pitch": 60, 
                            "t0": 100912, 
                            "v": 101, 
                            "dur": 27, 
                            "type": "note", 
                            "channel": 0
                        }
                    ]
                ], 
                [
                    100917, 
                    [
                        {
                            "pitch": 84, 
                            "t0": 100917, 
                            "v": 109, 
                            "dur": 106, 
                            "type": "note", 
                            "channel": 0
                        }
                    ]
                ], 
                [
                    101057, 
                    [
                        {
                            "pitch": 58, 
                            "t0": 101057, 
                            "v": 114, 
                            "dur": 50, 
                            "type": "note", 
                            "channel": 0
                        }, 
                        {
                            "pitch": 86, 
                            "t0": 101057, 
                            "v": 117, 
                            "dur": 61, 
                            "type": "note", 
                            "channel": 0
                        }
                    ]
                ], 
                [
                    101065, 
                    [
                        {
                            "pitch": 46, 
                            "t0": 101065, 
                            "v": 108, 
                            "dur": 28, 
                            "type": "note", 
                            "channel": 0
                        }, 
                        {
                            "pitch": 74, 
                            "t0": 101065, 
                            "v": 103, 
                            "dur": 53, 
                            "type": "note", 
                            "channel": 0
                        }
                    ]
                ], 
                [
                    101068, 
                    [
                        {
                            "pitch": 79, 
                            "t0": 101068, 
                            "v": 97, 
                            "dur": 25, 
                            "type": "note", 
                            "channel": 0
                        }
                    ]
                ], 
                [
                    101208, 
                    [
                        {
                            "pitch": 67, 
                            "t0": 101208, 
                            "v": 104, 
                            "dur": 78, 
                            "type": "note", 
                            "channel": 0
                        }
                    ]
                ], 
                [
                    101221, 
                    [
                        {
                            "pitch": 58, 
                            "t0": 101221, 
                            "v": 104, 
                            "dur": 51, 
                            "type": "note", 
                            "channel": 0
                        }
                    ]
                ], 
                [
                    101346, 
                    [
                        {
                            "pitch": 70, 
                            "t0": 101346, 
                            "v": 106, 
                            "dur": 118, 
                            "type": "note", 
                            "channel": 0
                        }
                    ]
                ], 
                [
                    101357, 
                    [
                        {
                            "pitch": 58, 
                            "t0": 101357, 
                            "v": 95, 
                            "dur": 90, 
                            "type": "note", 
                            "channel": 0
                        }
                    ]
                ], 
                [
                    101491, 
                    [
                        {
                            "pitch": 57, 
                            "t0": 101491, 
                            "v": 95, 
                            "dur": 84, 
                            "type": "note", 
                            "channel": 0
                        }, 
                        {
                            "pitch": 72, 
                            "t0": 101491, 
                            "v": 103, 
                            "dur": 84, 
                            "type": "note", 
                            "channel": 0
                        }
                    ]
                ], 
                [
                    101614, 
                    [
                        {
                            "pitch": 74, 
                            "t0": 101614, 
                            "v": 107, 
                            "dur": 22, 
                            "type": "note", 
                            "channel": 0
                        }
                    ]
                ], 
                [
                    101619, 
                    [
                        {
                            "pitch": 55, 
                            "t0": 101619, 
                            "v": 92, 
                            "dur": 25, 
                            "type": "note", 
                            "channel": 0
                        }
                    ]
                ], 
                [
                    101744, 
                    [
                        {
                            "pitch": 70, 
                            "t0": 101744, 
                            "v": 115, 
                            "dur": 40, 
                            "type": "note", 
                            "channel": 0
                        }, 
                        {
                            "pitch": 53, 
                            "t0": 101744, 
                            "v": 97, 
                            "dur": 40, 
                            "type": "note", 
                            "channel": 0
                        }, 
                        {
                            "pitch": 82, 
                            "t0": 101744, 
                            "v": 120, 
                            "dur": 70, 
                            "type": "note", 
                            "channel": 0
                        }
                    ]
                ], 
                [
                    101754, 
                    [
                        {
                            "pitch": 46, 
                            "t0": 101754, 
                            "v": 105, 
                            "dur": 30, 
                            "type": "note", 
                            "channel": 0
                        }
                    ]
                ], 
                [
                    101876, 
                    [
                        {
                            "pitch": 51, 
                            "t0": 101876, 
                            "v": 102, 
                            "dur": 67, 
                            "type": "note", 
                            "channel": 0
                        }
                    ]
                ], 
                [
                    101882, 
                    [
                        {
                            "pitch": 46, 
                            "t0": 101882, 
                            "v": 97, 
                            "dur": 49, 
                            "type": "note", 
                            "channel": 0
                        }, 
                        {
                            "pitch": 84, 
                            "t0": 101882, 
                            "v": 111, 
                            "dur": 64, 
                            "type": "note", 
                            "channel": 0
                        }
                    ]
                ], 
                [
                    101885, 
                    [
                        {
                            "pitch": 72, 
                            "t0": 101885, 
                            "v": 111, 
                            "dur": 27, 
                            "type": "note", 
                            "channel": 0
                        }
                    ]
                ], 
                [
                    102013, 
                    [
                        {
                            "pitch": 86, 
                            "t0": 102013, 
                            "v": 117, 
                            "dur": 58, 
                            "type": "note", 
                            "channel": 0
                        }
                    ]
                ], 
                [
                    102016, 
                    [
                        {
                            "pitch": 74, 
                            "t0": 102016, 
                            "v": 114, 
                            "dur": 68, 
                            "type": "note", 
                            "channel": 0
                        }, 
                        {
                            "pitch": 50, 
                            "t0": 102016, 
                            "v": 101, 
                            "dur": 75, 
                            "type": "note", 
                            "channel": 0
                        }
                    ]
                ], 
                [
                    102021, 
                    [
                        {
                            "pitch": 46, 
                            "t0": 102021, 
                            "v": 107, 
                            "dur": 81, 
                            "type": "note", 
                            "channel": 0
                        }, 
                        {
                            "pitch": 82, 
                            "t0": 102021, 
                            "v": 107, 
                            "dur": 116, 
                            "type": "note", 
                            "channel": 0
                        }
                    ]
                ], 
                [
                    102157, 
                    [
                        {
                            "pitch": 87, 
                            "t0": 102157, 
                            "v": 114, 
                            "dur": 106, 
                            "type": "note", 
                            "channel": 0
                        }, 
                        {
                            "pitch": 75, 
                            "t0": 102157, 
                            "v": 108, 
                            "dur": 109, 
                            "type": "note", 
                            "channel": 0
                        }
                    ]
                ], 
                [
                    102162, 
                    [
                        {
                            "pitch": 48, 
                            "t0": 102162, 
                            "v": 121, 
                            "dur": 64, 
                            "type": "note", 
                            "channel": 0
                        }, 
                        {
                            "pitch": 78, 
                            "t0": 102162, 
                            "v": 102, 
                            "dur": 117, 
                            "type": "note", 
                            "channel": 0
                        }, 
                        {
                            "pitch": 81, 
                            "t0": 102162, 
                            "v": 103, 
                            "dur": 117, 
                            "type": "note", 
                            "channel": 0
                        }
                    ]
                ], 
                [
                    102308, 
                    [
                        {
                            "pitch": 48, 
                            "t0": 102308, 
                            "v": 88, 
                            "dur": 31, 
                            "type": "note", 
                            "channel": 0
                        }
                    ]
                ], 
                [
                    102313, 
                    [
                        {
                            "pitch": 36, 
                            "t0": 102313, 
                            "v": 101, 
                            "dur": 26, 
                            "type": "note", 
                            "channel": 0
                        }, 
                        {
                            "pitch": 75, 
                            "t0": 102313, 
                            "v": 82, 
                            "dur": 78, 
                            "type": "note", 
                            "channel": 0
                        }, 
                        {
                            "pitch": 87, 
                            "t0": 102313, 
                            "v": 84, 
                            "dur": 84, 
                            "type": "note", 
                            "channel": 0
                        }
                    ]
                ], 
                [
                    102318, 
                    [
                        {
                            "pitch": 42, 
                            "t0": 102318, 
                            "v": 86, 
                            "dur": 29, 
                            "type": "note", 
                            "channel": 0
                        }
                    ]
                ], 
                [
                    102333, 
                    [
                        {
                            "pitch": 78, 
                            "t0": 102333, 
                            "v": 84, 
                            "dur": 36, 
                            "type": "note", 
                            "channel": 0
                        }
                    ]
                ], 
                [
                    102339, 
                    [
                        {
                            "pitch": 81, 
                            "t0": 102339, 
                            "v": 87, 
                            "dur": 30, 
                            "type": "note", 
                            "channel": 0
                        }
                    ]
                ], 
                [
                    102453, 
                    [
                        {
                            "pitch": 87, 
                            "t0": 102453, 
                            "v": 78, 
                            "dur": 70, 
                            "type": "note", 
                            "channel": 0
                        }
                    ]
                ], 
                [
                    102461, 
                    [
                        {
                            "pitch": 78, 
                            "t0": 102461, 
                            "v": 65, 
                            "dur": 48, 
                            "type": "note", 
                            "channel": 0
                        }, 
                        {
                            "pitch": 75, 
                            "t0": 102461, 
                            "v": 55, 
                            "dur": 52, 
                            "type": "note", 
                            "channel": 0
                        }
                    ]
                ], 
                [
                    102466, 
                    [
                        {
                            "pitch": 36, 
                            "t0": 102466, 
                            "v": 79, 
                            "dur": 31, 
                            "type": "note", 
                            "channel": 0
                        }, 
                        {
                            "pitch": 48, 
                            "t0": 102466, 
                            "v": 80, 
                            "dur": 40, 
                            "type": "note", 
                            "channel": 0
                        }
                    ]
                ], 
                [
                    102469, 
                    [
                        {
                            "pitch": 81, 
                            "t0": 102469, 
                            "v": 58, 
                            "dur": 40, 
                            "type": "note", 
                            "channel": 0
                        }
                    ]
                ], 
                [
                    102472, 
                    [
                        {
                            "pitch": 42, 
                            "t0": 102472, 
                            "v": 60, 
                            "dur": 41, 
                            "type": "note", 
                            "channel": 0
                        }
                    ]
                ], 
                [
                    102592, 
                    [
                        {
                            "pitch": 87, 
                            "t0": 102592, 
                            "v": 72, 
                            "dur": 52, 
                            "type": "note", 
                            "channel": 0
                        }
                    ]
                ], 
                [
                    102598, 
                    [
                        {
                            "pitch": 75, 
                            "t0": 102598, 
                            "v": 64, 
                            "dur": 46, 
                            "type": "note", 
                            "channel": 0
                        }, 
                        {
                            "pitch": 81, 
                            "t0": 102598, 
                            "v": 60, 
                            "dur": 66, 
                            "type": "note", 
                            "channel": 0
                        }
                    ]
                ], 
                [
                    102603, 
                    [
                        {
                            "pitch": 78, 
                            "t0": 102603, 
                            "v": 55, 
                            "dur": 45, 
                            "type": "note", 
                            "channel": 0
                        }, 
                        {
                            "pitch": 48, 
                            "t0": 102603, 
                            "v": 59, 
                            "dur": 45, 
                            "type": "note", 
                            "channel": 0
                        }
                    ]
                ], 
                [
                    102606, 
                    [
                        {
                            "pitch": 42, 
                            "t0": 102606, 
                            "v": 57, 
                            "dur": 47, 
                            "type": "note", 
                            "channel": 0
                        }
                    ]
                ], 
                [
                    102622, 
                    [
                        {
                            "pitch": 36, 
                            "t0": 102622, 
                            "v": 39, 
                            "dur": 42, 
                            "type": "note", 
                            "channel": 0
                        }
                    ]
                ], 
                [
                    102737, 
                    [
                        {
                            "pitch": 87, 
                            "t0": 102737, 
                            "v": 89, 
                            "dur": 77, 
                            "type": "note", 
                            "channel": 0
                        }, 
                        {
                            "pitch": 81, 
                            "t0": 102737, 
                            "v": 76, 
                            "dur": 80, 
                            "type": "note", 
                            "channel": 0
                        }
                    ]
                ], 
                [
                    102743, 
                    [
                        {
                            "pitch": 75, 
                            "t0": 102743, 
                            "v": 80, 
                            "dur": 52, 
                            "type": "note", 
                            "channel": 0
                        }, 
                        {
                            "pitch": 36, 
                            "t0": 102743, 
                            "v": 68, 
                            "dur": 74, 
                            "type": "note", 
                            "channel": 0
                        }
                    ]
                ], 
                [
                    102747, 
                    [
                        {
                            "pitch": 78, 
                            "t0": 102747, 
                            "v": 73, 
                            "dur": 60, 
                            "type": "note", 
                            "channel": 0
                        }
                    ]
                ], 
                [
                    102750, 
                    [
                        {
                            "pitch": 48, 
                            "t0": 102750, 
                            "v": 80, 
                            "dur": 57, 
                            "type": "note", 
                            "channel": 0
                        }
                    ]
                ], 
                [
                    102759, 
                    [
                        {
                            "pitch": 42, 
                            "t0": 102759, 
                            "v": 67, 
                            "dur": 39, 
                            "type": "note", 
                            "channel": 0
                        }
                    ]
                ], 
                [
                    102870, 
                    [
                        {
                            "pitch": 48, 
                            "t0": 102870, 
                            "v": 89, 
                            "dur": 65, 
                            "type": "note", 
                            "channel": 0
                        }, 
                        {
                            "pitch": 87, 
                            "t0": 102870, 
                            "v": 94, 
                            "dur": 70, 
                            "type": "note", 
                            "channel": 0
                        }, 
                        {
                            "pitch": 36, 
                            "t0": 102870, 
                            "v": 92, 
                            "dur": 76, 
                            "type": "note", 
                            "channel": 0
                        }, 
                        {
                            "pitch": 75, 
                            "t0": 102870, 
                            "v": 88, 
                            "dur": 79, 
                            "type": "note", 
                            "channel": 0
                        }, 
                        {
                            "pitch": 78, 
                            "t0": 102870, 
                            "v": 83, 
                            "dur": 86, 
                            "type": "note", 
                            "channel": 0
                        }, 
                        {
                            "pitch": 81, 
                            "t0": 102870, 
                            "v": 95, 
                            "dur": 97, 
                            "type": "note", 
                            "channel": 0
                        }
                    ]
                ], 
                [
                    102875, 
                    [
                        {
                            "pitch": 42, 
                            "t0": 102875, 
                            "v": 74, 
                            "dur": 81, 
                            "type": "note", 
                            "channel": 0
                        }
                    ]
                ], 
                [
                    102998, 
                    [
                        {
                            "pitch": 48, 
                            "t0": 102998, 
                            "v": 91, 
                            "dur": 78, 
                            "type": "note", 
                            "channel": 0
                        }, 
                        {
                            "pitch": 87, 
                            "t0": 102998, 
                            "v": 95, 
                            "dur": 86, 
                            "type": "note", 
                            "channel": 0
                        }
                    ]
                ], 
                [
                    103006, 
                    [
                        {
                            "pitch": 75, 
                            "t0": 103006, 
                            "v": 93, 
                            "dur": 70, 
                            "type": "note", 
                            "channel": 0
                        }, 
                        {
                            "pitch": 36, 
                            "t0": 103006, 
                            "v": 91, 
                            "dur": 74, 
                            "type": "note", 
                            "channel": 0
                        }, 
                        {
                            "pitch": 78, 
                            "t0": 103006, 
                            "v": 84, 
                            "dur": 84, 
                            "type": "note", 
                            "channel": 0
                        }
                    ]
                ], 
                [
                    103015, 
                    [
                        {
                            "pitch": 39, 
                            "t0": 103015, 
                            "v": 86, 
                            "dur": 42, 
                            "type": "note", 
                            "channel": 0
                        }, 
                        {
                            "pitch": 81, 
                            "t0": 103015, 
                            "v": 108, 
                            "dur": 75, 
                            "type": "note", 
                            "channel": 0
                        }
                    ]
                ], 
                [
                    103138, 
                    [
                        {
                            "pitch": 87, 
                            "t0": 103138, 
                            "v": 100, 
                            "dur": 66, 
                            "type": "note", 
                            "channel": 0
                        }, 
                        {
                            "pitch": 75, 
                            "t0": 103138, 
                            "v": 97, 
                            "dur": 73, 
                            "type": "note", 
                            "channel": 0
                        }
                    ]
                ], 
                [
                    103143, 
                    [
                        {
                            "pitch": 48, 
                            "t0": 103143, 
                            "v": 95, 
                            "dur": 68, 
                            "type": "note", 
                            "channel": 0
                        }, 
                        {
                            "pitch": 36, 
                            "t0": 103143, 
                            "v": 89, 
                            "dur": 73, 
                            "type": "note", 
                            "channel": 0
                        }, 
                        {
                            "pitch": 78, 
                            "t0": 103143, 
                            "v": 87, 
                            "dur": 78, 
                            "type": "note", 
                            "channel": 0
                        }, 
                        {
                            "pitch": 81, 
                            "t0": 103143, 
                            "v": 100, 
                            "dur": 78, 
                            "type": "note", 
                            "channel": 0
                        }
                    ]
                ], 
                [
                    103158, 
                    [
                        {
                            "pitch": 42, 
                            "t0": 103158, 
                            "v": 88, 
                            "dur": 33, 
                            "type": "note", 
                            "channel": 0
                        }
                    ]
                ], 
                [
                    103271, 
                    [
                        {
                            "pitch": 87, 
                            "t0": 103271, 
                            "v": 101, 
                            "dur": 67, 
                            "type": "note", 
                            "channel": 0
                        }, 
                        {
                            "pitch": 48, 
                            "t0": 103271, 
                            "v": 99, 
                            "dur": 71, 
                            "type": "note", 
                            "channel": 0
                        }, 
                        {
                            "pitch": 75, 
                            "t0": 103271, 
                            "v": 100, 
                            "dur": 79, 
                            "type": "note", 
                            "channel": 0
                        }, 
                        {
                            "pitch": 81, 
                            "t0": 103271, 
                            "v": 108, 
                            "dur": 96, 
                            "type": "note", 
                            "channel": 0
                        }, 
                        {
                            "pitch": 78, 
                            "t0": 103271, 
                            "v": 92, 
                            "dur": 99, 
                            "type": "note", 
                            "channel": 0
                        }
                    ]
                ], 
                [
                    103276, 
                    [
                        {
                            "pitch": 36, 
                            "t0": 103276, 
                            "v": 97, 
                            "dur": 66, 
                            "type": "note", 
                            "channel": 0
                        }
                    ]
                ], 
                [
                    103282, 
                    [
                        {
                            "pitch": 42, 
                            "t0": 103282, 
                            "v": 91, 
                            "dur": 85, 
                            "type": "note", 
                            "channel": 0
                        }
                    ]
                ], 
                [
                    103400, 
                    [
                        {
                            "pitch": 87, 
                            "t0": 103400, 
                            "v": 103, 
                            "dur": 61, 
                            "type": "note", 
                            "channel": 0
                        }, 
                        {
                            "pitch": 75, 
                            "t0": 103400, 
                            "v": 103, 
                            "dur": 77, 
                            "type": "note", 
                            "channel": 0
                        }
                    ]
                ], 
                [
                    103410, 
                    [
                        {
                            "pitch": 48, 
                            "t0": 103410, 
                            "v": 100, 
                            "dur": 60, 
                            "type": "note", 
                            "channel": 0
                        }, 
                        {
                            "pitch": 42, 
                            "t0": 103410, 
                            "v": 97, 
                            "dur": 63, 
                            "type": "note", 
                            "channel": 0
                        }, 
                        {
                            "pitch": 36, 
                            "t0": 103410, 
                            "v": 91, 
                            "dur": 74, 
                            "type": "note", 
                            "channel": 0
                        }
                    ]
                ], 
                [
                    103413, 
                    [
                        {
                            "pitch": 78, 
                            "t0": 103413, 
                            "v": 102, 
                            "dur": 71, 
                            "type": "note", 
                            "channel": 0
                        }
                    ]
                ], 
                [
                    103416, 
                    [
                        {
                            "pitch": 81, 
                            "t0": 103416, 
                            "v": 113, 
                            "dur": 64, 
                            "type": "note", 
                            "channel": 0
                        }
                    ]
                ], 
                [
                    103533, 
                    [
                        {
                            "pitch": 87, 
                            "t0": 103533, 
                            "v": 103, 
                            "dur": 65, 
                            "type": "note", 
                            "channel": 0
                        }, 
                        {
                            "pitch": 75, 
                            "t0": 103533, 
                            "v": 108, 
                            "dur": 76, 
                            "type": "note", 
                            "channel": 0
                        }
                    ]
                ], 
                [
                    103537, 
                    [
                        {
                            "pitch": 78, 
                            "t0": 103537, 
                            "v": 94, 
                            "dur": 85, 
                            "type": "note", 
                            "channel": 0
                        }, 
                        {
                            "pitch": 81, 
                            "t0": 103537, 
                            "v": 98, 
                            "dur": 85, 
                            "type": "note", 
                            "channel": 0
                        }
                    ]
                ], 
                [
                    103544, 
                    [
                        {
                            "pitch": 48, 
                            "t0": 103544, 
                            "v": 98, 
                            "dur": 59, 
                            "type": "note", 
                            "channel": 0
                        }, 
                        {
                            "pitch": 42, 
                            "t0": 103544, 
                            "v": 84, 
                            "dur": 65, 
                            "type": "note", 
                            "channel": 0
                        }
                    ]
                ], 
                [
                    103547, 
                    [
                        {
                            "pitch": 36, 
                            "t0": 103547, 
                            "v": 98, 
                            "dur": 62, 
                            "type": "note", 
                            "channel": 0
                        }
                    ]
                ], 
                [
                    103668, 
                    [
                        {
                            "pitch": 48, 
                            "t0": 103668, 
                            "v": 97, 
                            "dur": 65, 
                            "type": "note", 
                            "channel": 0
                        }, 
                        {
                            "pitch": 87, 
                            "t0": 103668, 
                            "v": 94, 
                            "dur": 69, 
                            "type": "note", 
                            "channel": 0
                        }, 
                        {
                            "pitch": 75, 
                            "t0": 103668, 
                            "v": 101, 
                            "dur": 74, 
                            "type": "note", 
                            "channel": 0
                        }, 
                        {
                            "pitch": 78, 
                            "t0": 103668, 
                            "v": 95, 
                            "dur": 83, 
                            "type": "note", 
                            "channel": 0
                        }, 
                        {
                            "pitch": 81, 
                            "t0": 103668, 
                            "v": 109, 
                            "dur": 93, 
                            "type": "note", 
                            "channel": 0
                        }
                    ]
                ], 
                [
                    103673, 
                    [
                        {
                            "pitch": 42, 
                            "t0": 103673, 
                            "v": 83, 
                            "dur": 64, 
                            "type": "note", 
                            "channel": 0
                        }
                    ]
                ], 
                [
                    103676, 
                    [
                        {
                            "pitch": 36, 
                            "t0": 103676, 
                            "v": 97, 
                            "dur": 71, 
                            "type": "note", 
                            "channel": 0
                        }
                    ]
                ], 
                [
                    103790, 
                    [
                        {
                            "pitch": 87, 
                            "t0": 103790, 
                            "v": 102, 
                            "dur": 83, 
                            "type": "note", 
                            "channel": 0
                        }
                    ]
                ], 
                [
                    103793, 
                    [
                        {
                            "pitch": 48, 
                            "t0": 103793, 
                            "v": 105, 
                            "dur": 86, 
                            "type": "note", 
                            "channel": 0
                        }, 
                        {
                            "pitch": 75, 
                            "t0": 103793, 
                            "v": 100, 
                            "dur": 92, 
                            "type": "note", 
                            "channel": 0
                        }, 
                        {
                            "pitch": 78, 
                            "t0": 103793, 
                            "v": 99, 
                            "dur": 105, 
                            "type": "note", 
                            "channel": 0
                        }
                    ]
                ], 
                [
                    103797, 
                    [
                        {
                            "pitch": 36, 
                            "t0": 103797, 
                            "v": 106, 
                            "dur": 68, 
                            "type": "note", 
                            "channel": 0
                        }, 
                        {
                            "pitch": 42, 
                            "t0": 103797, 
                            "v": 88, 
                            "dur": 85, 
                            "type": "note", 
                            "channel": 0
                        }
                    ]
                ], 
                [
                    103801, 
                    [
                        {
                            "pitch": 81, 
                            "t0": 103801, 
                            "v": 111, 
                            "dur": 97, 
                            "type": "note", 
                            "channel": 0
                        }
                    ]
                ], 
                [
                    103927, 
                    [
                        {
                            "pitch": 87, 
                            "t0": 103927, 
                            "v": 96, 
                            "dur": 64, 
                            "type": "note", 
                            "channel": 0
                        }, 
                        {
                            "pitch": 48, 
                            "t0": 103927, 
                            "v": 106, 
                            "dur": 71, 
                            "type": "note", 
                            "channel": 0
                        }
                    ]
                ], 
                [
                    103931, 
                    [
                        {
                            "pitch": 75, 
                            "t0": 103931, 
                            "v": 100, 
                            "dur": 74, 
                            "type": "note", 
                            "channel": 0
                        }, 
                        {
                            "pitch": 36, 
                            "t0": 103931, 
                            "v": 88, 
                            "dur": 74, 
                            "type": "note", 
                            "channel": 0
                        }, 
                        {
                            "pitch": 42, 
                            "t0": 103931, 
                            "v": 90, 
                            "dur": 89, 
                            "type": "note", 
                            "channel": 0
                        }
                    ]
                ], 
                [
                    103946, 
                    [
                        {
                            "pitch": 81, 
                            "t0": 103946, 
                            "v": 107, 
                            "dur": 74, 
                            "type": "note", 
                            "channel": 0
                        }, 
                        {
                            "pitch": 78, 
                            "t0": 103946, 
                            "v": 97, 
                            "dur": 84, 
                            "type": "note", 
                            "channel": 0
                        }
                    ]
                ], 
                [
                    104060, 
                    [
                        {
                            "pitch": 87, 
                            "t0": 104060, 
                            "v": 92, 
                            "dur": 61, 
                            "type": "note", 
                            "channel": 0
                        }, 
                        {
                            "pitch": 75, 
                            "t0": 104060, 
                            "v": 96, 
                            "dur": 69, 
                            "type": "note", 
                            "channel": 0
                        }
                    ]
                ], 
                [
                    104065, 
                    [
                        {
                            "pitch": 48, 
                            "t0": 104065, 
                            "v": 95, 
                            "dur": 67, 
                            "type": "note", 
                            "channel": 0
                        }
                    ]
                ], 
                [
                    104068, 
                    [
                        {
                            "pitch": 36, 
                            "t0": 104068, 
                            "v": 87, 
                            "dur": 67, 
                            "type": "note", 
                            "channel": 0
                        }, 
                        {
                            "pitch": 42, 
                            "t0": 104068, 
                            "v": 89, 
                            "dur": 70, 
                            "type": "note", 
                            "channel": 0
                        }, 
                        {
                            "pitch": 81, 
                            "t0": 104068, 
                            "v": 105, 
                            "dur": 78, 
                            "type": "note", 
                            "channel": 0
                        }
                    ]
                ], 
                [
                    104079, 
                    [
                        {
                            "pitch": 78, 
                            "t0": 104079, 
                            "v": 95, 
                            "dur": 90, 
                            "type": "note", 
                            "channel": 0
                        }
                    ]
                ], 
                [
                    104196, 
                    [
                        {
                            "pitch": 87, 
                            "t0": 104196, 
                            "v": 96, 
                            "dur": 72, 
                            "type": "note", 
                            "channel": 0
                        }, 
                        {
                            "pitch": 75, 
                            "t0": 104196, 
                            "v": 97, 
                            "dur": 76, 
                            "type": "note", 
                            "channel": 0
                        }
                    ]
                ], 
                [
                    104201, 
                    [
                        {
                            "pitch": 81, 
                            "t0": 104201, 
                            "v": 101, 
                            "dur": 110, 
                            "type": "note", 
                            "channel": 0
                        }
                    ]
                ], 
                [
                    104204, 
                    [
                        {
                            "pitch": 48, 
                            "t0": 104204, 
                            "v": 95, 
                            "dur": 68, 
                            "type": "note", 
                            "channel": 0
                        }
                    ]
                ], 
                [
                    104207, 
                    [
                        {
                            "pitch": 42, 
                            "t0": 104207, 
                            "v": 81, 
                            "dur": 73, 
                            "type": "note", 
                            "channel": 0
                        }
                    ]
                ], 
                [
                    104210, 
                    [
                        {
                            "pitch": 36, 
                            "t0": 104210, 
                            "v": 89, 
                            "dur": 70, 
                            "type": "note", 
                            "channel": 0
                        }, 
                        {
                            "pitch": 78, 
                            "t0": 104210, 
                            "v": 90, 
                            "dur": 90, 
                            "type": "note", 
                            "channel": 0
                        }
                    ]
                ], 
                [
                    104356, 
                    [
                        {
                            "pitch": 75, 
                            "t0": 104356, 
                            "v": 108, 
                            "dur": 105, 
                            "type": "note", 
                            "channel": 0
                        }, 
                        {
                            "pitch": 78, 
                            "t0": 104356, 
                            "v": 90, 
                            "dur": 141, 
                            "type": "note", 
                            "channel": 0
                        }
                    ]
                ], 
                [
                    104359, 
                    [
                        {
                            "pitch": 87, 
                            "t0": 104359, 
                            "v": 105, 
                            "dur": 85, 
                            "type": "note", 
                            "channel": 0
                        }, 
                        {
                            "pitch": 42, 
                            "t0": 104359, 
                            "v": 92, 
                            "dur": 99, 
                            "type": "note", 
                            "channel": 0
                        }, 
                        {
                            "pitch": 36, 
                            "t0": 104359, 
                            "v": 100, 
                            "dur": 105, 
                            "type": "note", 
                            "channel": 0
                        }, 
                        {
                            "pitch": 81, 
                            "t0": 104359, 
                            "v": 111, 
                            "dur": 130, 
                            "type": "note", 
                            "channel": 0
                        }
                    ]
                ], 
                [
                    104363, 
                    [
                        {
                            "pitch": 48, 
                            "t0": 104363, 
                            "v": 107, 
                            "dur": 98, 
                            "type": "note", 
                            "channel": 0
                        }
                    ]
                ], 
                [
                    105283, 
                    [
                        {
                            "pitch": 88, 
                            "t0": 105283, 
                            "v": 111, 
                            "dur": 64, 
                            "type": "note", 
                            "channel": 0
                        }, 
                        {
                            "pitch": 49, 
                            "t0": 105283, 
                            "v": 103, 
                            "dur": 67, 
                            "type": "note", 
                            "channel": 0
                        }, 
                        {
                            "pitch": 37, 
                            "t0": 105283, 
                            "v": 94, 
                            "dur": 81, 
                            "type": "note", 
                            "channel": 0
                        }, 
                        {
                            "pitch": 82, 
                            "t0": 105283, 
                            "v": 113, 
                            "dur": 89, 
                            "type": "note", 
                            "channel": 0
                        }
                    ]
                ], 
                [
                    105289, 
                    [
                        {
                            "pitch": 79, 
                            "t0": 105289, 
                            "v": 103, 
                            "dur": 75, 
                            "type": "note", 
                            "channel": 0
                        }
                    ]
                ], 
                [
                    105292, 
                    [
                        {
                            "pitch": 76, 
                            "t0": 105292, 
                            "v": 108, 
                            "dur": 72, 
                            "type": "note", 
                            "channel": 0
                        }
                    ]
                ], 
                [
                    105296, 
                    [
                        {
                            "pitch": 43, 
                            "t0": 105296, 
                            "v": 95, 
                            "dur": 68, 
                            "type": "note", 
                            "channel": 0
                        }
                    ]
                ], 
                [
                    105417, 
                    [
                        {
                            "pitch": 82, 
                            "t0": 105417, 
                            "v": 110, 
                            "dur": 89, 
                            "type": "note", 
                            "channel": 0
                        }
                    ]
                ], 
                [
                    105420, 
                    [
                        {
                            "pitch": 49, 
                            "t0": 105420, 
                            "v": 86, 
                            "dur": 72, 
                            "type": "note", 
                            "channel": 0
                        }
                    ]
                ], 
                [
                    105424, 
                    [
                        {
                            "pitch": 37, 
                            "t0": 105424, 
                            "v": 84, 
                            "dur": 51, 
                            "type": "note", 
                            "channel": 0
                        }, 
                        {
                            "pitch": 88, 
                            "t0": 105424, 
                            "v": 100, 
                            "dur": 56, 
                            "type": "note", 
                            "channel": 0
                        }, 
                        {
                            "pitch": 76, 
                            "t0": 105424, 
                            "v": 107, 
                            "dur": 68, 
                            "type": "note", 
                            "channel": 0
                        }
                    ]
                ], 
                [
                    105427, 
                    [
                        {
                            "pitch": 43, 
                            "t0": 105427, 
                            "v": 88, 
                            "dur": 73, 
                            "type": "note", 
                            "channel": 0
                        }, 
                        {
                            "pitch": 79, 
                            "t0": 105427, 
                            "v": 103, 
                            "dur": 85, 
                            "type": "note", 
                            "channel": 0
                        }
                    ]
                ], 
                [
                    105550, 
                    [
                        {
                            "pitch": 49, 
                            "t0": 105550, 
                            "v": 95, 
                            "dur": 69, 
                            "type": "note", 
                            "channel": 0
                        }
                    ]
                ], 
                [
                    105553, 
                    [
                        {
                            "pitch": 82, 
                            "t0": 105553, 
                            "v": 108, 
                            "dur": 87, 
                            "type": "note", 
                            "channel": 0
                        }
                    ]
                ], 
                [
                    105556, 
                    [
                        {
                            "pitch": 88, 
                            "t0": 105556, 
                            "v": 96, 
                            "dur": 72, 
                            "type": "note", 
                            "channel": 0
                        }, 
                        {
                            "pitch": 37, 
                            "t0": 105556, 
                            "v": 90, 
                            "dur": 77, 
                            "type": "note", 
                            "channel": 0
                        }, 
                        {
                            "pitch": 79, 
                            "t0": 105556, 
                            "v": 111, 
                            "dur": 91, 
                            "type": "note", 
                            "channel": 0
                        }
                    ]
                ], 
                [
                    105559, 
                    [
                        {
                            "pitch": 76, 
                            "t0": 105559, 
                            "v": 108, 
                            "dur": 69, 
                            "type": "note", 
                            "channel": 0
                        }, 
                        {
                            "pitch": 43, 
                            "t0": 105559, 
                            "v": 91, 
                            "dur": 74, 
                            "type": "note", 
                            "channel": 0
                        }
                    ]
                ], 
                [
                    105686, 
                    [
                        {
                            "pitch": 88, 
                            "t0": 105686, 
                            "v": 109, 
                            "dur": 74, 
                            "type": "note", 
                            "channel": 0
                        }, 
                        {
                            "pitch": 49, 
                            "t0": 105686, 
                            "v": 96, 
                            "dur": 81, 
                            "type": "note", 
                            "channel": 0
                        }, 
                        {
                            "pitch": 82, 
                            "t0": 105686, 
                            "v": 112, 
                            "dur": 99, 
                            "type": "note", 
                            "channel": 0
                        }
                    ]
                ], 
                [
                    105690, 
                    [
                        {
                            "pitch": 76, 
                            "t0": 105690, 
                            "v": 114, 
                            "dur": 77, 
                            "type": "note", 
                            "channel": 0
                        }, 
                        {
                            "pitch": 37, 
                            "t0": 105690, 
                            "v": 95, 
                            "dur": 80, 
                            "type": "note", 
                            "channel": 0
                        }, 
                        {
                            "pitch": 79, 
                            "t0": 105690, 
                            "v": 112, 
                            "dur": 88, 
                            "type": "note", 
                            "channel": 0
                        }
                    ]
                ], 
                [
                    105693, 
                    [
                        {
                            "pitch": 43, 
                            "t0": 105693, 
                            "v": 90, 
                            "dur": 80, 
                            "type": "note", 
                            "channel": 0
                        }
                    ]
                ], 
                [
                    105823, 
                    [
                        {
                            "pitch": 88, 
                            "t0": 105823, 
                            "v": 104, 
                            "dur": 76, 
                            "type": "note", 
                            "channel": 0
                        }, 
                        {
                            "pitch": 49, 
                            "t0": 105823, 
                            "v": 95, 
                            "dur": 76, 
                            "type": "note", 
                            "channel": 0
                        }, 
                        {
                            "pitch": 82, 
                            "t0": 105823, 
                            "v": 115, 
                            "dur": 89, 
                            "type": "note", 
                            "channel": 0
                        }
                    ]
                ], 
                [
                    105826, 
                    [
                        {
                            "pitch": 76, 
                            "t0": 105826, 
                            "v": 110, 
                            "dur": 73, 
                            "type": "note", 
                            "channel": 0
                        }, 
                        {
                            "pitch": 79, 
                            "t0": 105826, 
                            "v": 106, 
                            "dur": 73, 
                            "type": "note", 
                            "channel": 0
                        }, 
                        {
                            "pitch": 43, 
                            "t0": 105826, 
                            "v": 98, 
                            "dur": 83, 
                            "type": "note", 
                            "channel": 0
                        }
                    ]
                ], 
                [
                    105830, 
                    [
                        {
                            "pitch": 37, 
                            "t0": 105830, 
                            "v": 92, 
                            "dur": 62, 
                            "type": "note", 
                            "channel": 0
                        }
                    ]
                ], 
                [
                    105957, 
                    [
                        {
                            "pitch": 49, 
                            "t0": 105957, 
                            "v": 92, 
                            "dur": 72, 
                            "type": "note", 
                            "channel": 0
                        }, 
                        {
                            "pitch": 76, 
                            "t0": 105957, 
                            "v": 110, 
                            "dur": 72, 
                            "type": "note", 
                            "channel": 0
                        }, 
                        {
                            "pitch": 82, 
                            "t0": 105957, 
                            "v": 112, 
                            "dur": 81, 
                            "type": "note", 
                            "channel": 0
                        }
                    ]
                ], 
                [
                    105962, 
                    [
                        {
                            "pitch": 88, 
                            "t0": 105962, 
                            "v": 97, 
                            "dur": 67, 
                            "type": "note", 
                            "channel": 0
                        }, 
                        {
                            "pitch": 79, 
                            "t0": 105962, 
                            "v": 94, 
                            "dur": 81, 
                            "type": "note", 
                            "channel": 0
                        }
                    ]
                ], 
                [
                    105965, 
                    [
                        {
                            "pitch": 43, 
                            "t0": 105965, 
                            "v": 97, 
                            "dur": 68, 
                            "type": "note", 
                            "channel": 0
                        }, 
                        {
                            "pitch": 37, 
                            "t0": 105965, 
                            "v": 83, 
                            "dur": 73, 
                            "type": "note", 
                            "channel": 0
                        }
                    ]
                ], 
                [
                    106090, 
                    [
                        {
                            "pitch": 49, 
                            "t0": 106090, 
                            "v": 95, 
                            "dur": 73, 
                            "type": "note", 
                            "channel": 0
                        }, 
                        {
                            "pitch": 82, 
                            "t0": 106090, 
                            "v": 104, 
                            "dur": 94, 
                            "type": "note", 
                            "channel": 0
                        }
                    ]
                ], 
                [
                    106093, 
                    [
                        {
                            "pitch": 88, 
                            "t0": 106093, 
                            "v": 93, 
                            "dur": 59, 
                            "type": "note", 
                            "channel": 0
                        }, 
                        {
                            "pitch": 37, 
                            "t0": 106093, 
                            "v": 93, 
                            "dur": 67, 
                            "type": "note", 
                            "channel": 0
                        }, 
                        {
                            "pitch": 76, 
                            "t0": 106093, 
                            "v": 107, 
                            "dur": 70, 
                            "type": "note", 
                            "channel": 0
                        }
                    ]
                ], 
                [
                    106096, 
                    [
                        {
                            "pitch": 43, 
                            "t0": 106096, 
                            "v": 85, 
                            "dur": 75, 
                            "type": "note", 
                            "channel": 0
                        }, 
                        {
                            "pitch": 79, 
                            "t0": 106096, 
                            "v": 100, 
                            "dur": 85, 
                            "type": "note", 
                            "channel": 0
                        }
                    ]
                ], 
                [
                    106228, 
                    [
                        {
                            "pitch": 76, 
                            "t0": 106228, 
                            "v": 117, 
                            "dur": 80, 
                            "type": "note", 
                            "channel": 0
                        }, 
                        {
                            "pitch": 82, 
                            "t0": 106228, 
                            "v": 114, 
                            "dur": 102, 
                            "type": "note", 
                            "channel": 0
                        }
                    ]
                ], 
                [
                    106232, 
                    [
                        {
                            "pitch": 88, 
                            "t0": 106232, 
                            "v": 107, 
                            "dur": 73, 
                            "type": "note", 
                            "channel": 0
                        }, 
                        {
                            "pitch": 49, 
                            "t0": 106232, 
                            "v": 103, 
                            "dur": 82, 
                            "type": "note", 
                            "channel": 0
                        }, 
                        {
                            "pitch": 79, 
                            "t0": 106232, 
                            "v": 106, 
                            "dur": 92, 
                            "type": "note", 
                            "channel": 0
                        }
                    ]
                ], 
                [
                    106236, 
                    [
                        {
                            "pitch": 43, 
                            "t0": 106236, 
                            "v": 93, 
                            "dur": 83, 
                            "type": "note", 
                            "channel": 0
                        }, 
                        {
                            "pitch": 37, 
                            "t0": 106236, 
                            "v": 95, 
                            "dur": 83, 
                            "type": "note", 
                            "channel": 0
                        }
                    ]
                ], 
                [
                    106361, 
                    [
                        {
                            "pitch": 49, 
                            "t0": 106361, 
                            "v": 100, 
                            "dur": 80, 
                            "type": "note", 
                            "channel": 0
                        }
                    ]
                ], 
                [
                    106367, 
                    [
                        {
                            "pitch": 37, 
                            "t0": 106367, 
                            "v": 95, 
                            "dur": 64, 
                            "type": "note", 
                            "channel": 0
                        }, 
                        {
                            "pitch": 76, 
                            "t0": 106367, 
                            "v": 108, 
                            "dur": 80, 
                            "type": "note", 
                            "channel": 0
                        }, 
                        {
                            "pitch": 43, 
                            "t0": 106367, 
                            "v": 101, 
                            "dur": 80, 
                            "type": "note", 
                            "channel": 0
                        }, 
                        {
                            "pitch": 82, 
                            "t0": 106367, 
                            "v": 115, 
                            "dur": 91, 
                            "type": "note", 
                            "channel": 0
                        }
                    ]
                ], 
                [
                    106370, 
                    [
                        {
                            "pitch": 88, 
                            "t0": 106370, 
                            "v": 96, 
                            "dur": 71, 
                            "type": "note", 
                            "channel": 0
                        }, 
                        {
                            "pitch": 79, 
                            "t0": 106370, 
                            "v": 109, 
                            "dur": 88, 
                            "type": "note", 
                            "channel": 0
                        }
                    ]
                ], 
                [
                    106500, 
                    [
                        {
                            "pitch": 49, 
                            "t0": 106500, 
                            "v": 95, 
                            "dur": 79, 
                            "type": "note", 
                            "channel": 0
                        }
                    ]
                ], 
                [
                    106503, 
                    [
                        {
                            "pitch": 88, 
                            "t0": 106503, 
                            "v": 101, 
                            "dur": 62, 
                            "type": "note", 
                            "channel": 0
                        }, 
                        {
                            "pitch": 82, 
                            "t0": 106503, 
                            "v": 110, 
                            "dur": 91, 
                            "type": "note", 
                            "channel": 0
                        }
                    ]
                ], 
                [
                    106506, 
                    [
                        {
                            "pitch": 37, 
                            "t0": 106506, 
                            "v": 85, 
                            "dur": 66, 
                            "type": "note", 
                            "channel": 0
                        }, 
                        {
                            "pitch": 76, 
                            "t0": 106506, 
                            "v": 108, 
                            "dur": 70, 
                            "type": "note", 
                            "channel": 0
                        }, 
                        {
                            "pitch": 79, 
                            "t0": 106506, 
                            "v": 105, 
                            "dur": 88, 
                            "type": "note", 
                            "channel": 0
                        }
                    ]
                ], 
                [
                    106509, 
                    [
                        {
                            "pitch": 43, 
                            "t0": 106509, 
                            "v": 92, 
                            "dur": 67, 
                            "type": "note", 
                            "channel": 0
                        }
                    ]
                ], 
                [
                    106636, 
                    [
                        {
                            "pitch": 49, 
                            "t0": 106636, 
                            "v": 94, 
                            "dur": 79, 
                            "type": "note", 
                            "channel": 0
                        }, 
                        {
                            "pitch": 37, 
                            "t0": 106636, 
                            "v": 85, 
                            "dur": 84, 
                            "type": "note", 
                            "channel": 0
                        }, 
                        {
                            "pitch": 82, 
                            "t0": 106636, 
                            "v": 112, 
                            "dur": 110, 
                            "type": "note", 
                            "channel": 0
                        }
                    ]
                ], 
                [
                    106640, 
                    [
                        {
                            "pitch": 43, 
                            "t0": 106640, 
                            "v": 84, 
                            "dur": 28, 
                            "type": "note", 
                            "channel": 0
                        }, 
                        {
                            "pitch": 79, 
                            "t0": 106640, 
                            "v": 105, 
                            "dur": 106, 
                            "type": "note", 
                            "channel": 0
                        }
                    ]
                ], 
                [
                    106643, 
                    [
                        {
                            "pitch": 88, 
                            "t0": 106643, 
                            "v": 92, 
                            "dur": 72, 
                            "type": "note", 
                            "channel": 0
                        }, 
                        {
                            "pitch": 76, 
                            "t0": 106643, 
                            "v": 105, 
                            "dur": 96, 
                            "type": "note", 
                            "channel": 0
                        }
                    ]
                ], 
                [
                    106846, 
                    [
                        {
                            "pitch": 76, 
                            "t0": 106846, 
                            "v": 125, 
                            "dur": 123, 
                            "type": "note", 
                            "channel": 0
                        }, 
                        {
                            "pitch": 88, 
                            "t0": 106846, 
                            "v": 123, 
                            "dur": 123, 
                            "type": "note", 
                            "channel": 0
                        }
                    ]
                ], 
                [
                    106849, 
                    [
                        {
                            "pitch": 49, 
                            "t0": 106849, 
                            "v": 114, 
                            "dur": 125, 
                            "type": "note", 
                            "channel": 0
                        }, 
                        {
                            "pitch": 79, 
                            "t0": 106849, 
                            "v": 115, 
                            "dur": 167, 
                            "type": "note", 
                            "channel": 0
                        }, 
                        {
                            "pitch": 82, 
                            "t0": 106849, 
                            "v": 121, 
                            "dur": 192, 
                            "type": "note", 
                            "channel": 0
                        }
                    ]
                ], 
                [
                    106854, 
                    [
                        {
                            "pitch": 37, 
                            "t0": 106854, 
                            "v": 103, 
                            "dur": 100, 
                            "type": "note", 
                            "channel": 0
                        }, 
                        {
                            "pitch": 46, 
                            "t0": 106854, 
                            "v": 113, 
                            "dur": 169, 
                            "type": "note", 
                            "channel": 0
                        }, 
                        {
                            "pitch": 43, 
                            "t0": 106854, 
                            "v": 96, 
                            "dur": 178, 
                            "type": "note", 
                            "channel": 0
                        }
                    ]
                ], 
                [
                    106865, 
                    [
                        {
                            "pitch": 40, 
                            "t0": 106865, 
                            "v": 100, 
                            "dur": 148, 
                            "type": "note", 
                            "channel": 0
                        }
                    ]
                ], 
                [
                    107709, 
                    [
                        {
                            "pitch": 86, 
                            "t0": 107709, 
                            "v": 105, 
                            "dur": 28, 
                            "type": "note", 
                            "channel": 0
                        }, 
                        {
                            "pitch": 82, 
                            "t0": 107709, 
                            "v": 107, 
                            "dur": 78, 
                            "type": "note", 
                            "channel": 0
                        }
                    ]
                ], 
                [
                    107712, 
                    [
                        {
                            "pitch": 74, 
                            "t0": 107712, 
                            "v": 106, 
                            "dur": 34, 
                            "type": "note", 
                            "channel": 0
                        }, 
                        {
                            "pitch": 50, 
                            "t0": 107712, 
                            "v": 95, 
                            "dur": 75, 
                            "type": "note", 
                            "channel": 0
                        }, 
                        {
                            "pitch": 38, 
                            "t0": 107712, 
                            "v": 94, 
                            "dur": 75, 
                            "type": "note", 
                            "channel": 0
                        }
                    ]
                ], 
                [
                    107718, 
                    [
                        {
                            "pitch": 79, 
                            "t0": 107718, 
                            "v": 93, 
                            "dur": 44, 
                            "type": "note", 
                            "channel": 0
                        }, 
                        {
                            "pitch": 46, 
                            "t0": 107718, 
                            "v": 95, 
                            "dur": 60, 
                            "type": "note", 
                            "channel": 0
                        }
                    ]
                ], 
                [
                    107721, 
                    [
                        {
                            "pitch": 43, 
                            "t0": 107721, 
                            "v": 85, 
                            "dur": 46, 
                            "type": "note", 
                            "channel": 0
                        }
                    ]
                ], 
                [
                    107831, 
                    [
                        {
                            "pitch": 74, 
                            "t0": 107831, 
                            "v": 114, 
                            "dur": 60, 
                            "type": "note", 
                            "channel": 0
                        }, 
                        {
                            "pitch": 82, 
                            "t0": 107831, 
                            "v": 113, 
                            "dur": 78, 
                            "type": "note", 
                            "channel": 0
                        }
                    ]
                ], 
                [
                    107835, 
                    [
                        {
                            "pitch": 86, 
                            "t0": 107835, 
                            "v": 108, 
                            "dur": 69, 
                            "type": "note", 
                            "channel": 0
                        }, 
                        {
                            "pitch": 50, 
                            "t0": 107835, 
                            "v": 106, 
                            "dur": 69, 
                            "type": "note", 
                            "channel": 0
                        }, 
                        {
                            "pitch": 79, 
                            "t0": 107835, 
                            "v": 97, 
                            "dur": 81, 
                            "type": "note", 
                            "channel": 0
                        }
                    ]
                ], 
                [
                    107840, 
                    [
                        {
                            "pitch": 46, 
                            "t0": 107840, 
                            "v": 100, 
                            "dur": 76, 
                            "type": "note", 
                            "channel": 0
                        }, 
                        {
                            "pitch": 38, 
                            "t0": 107840, 
                            "v": 103, 
                            "dur": 83, 
                            "type": "note", 
                            "channel": 0
                        }
                    ]
                ], 
                [
                    107845, 
                    [
                        {
                            "pitch": 43, 
                            "t0": 107845, 
                            "v": 83, 
                            "dur": 78, 
                            "type": "note", 
                            "channel": 0
                        }
                    ]
                ], 
                [
                    107960, 
                    [
                        {
                            "pitch": 86, 
                            "t0": 107960, 
                            "v": 103, 
                            "dur": 83, 
                            "type": "note", 
                            "channel": 0
                        }
                    ]
                ], 
                [
                    107963, 
                    [
                        {
                            "pitch": 50, 
                            "t0": 107963, 
                            "v": 98, 
                            "dur": 72, 
                            "type": "note", 
                            "channel": 0
                        }, 
                        {
                            "pitch": 74, 
                            "t0": 107963, 
                            "v": 110, 
                            "dur": 77, 
                            "type": "note", 
                            "channel": 0
                        }, 
                        {
                            "pitch": 82, 
                            "t0": 107963, 
                            "v": 104, 
                            "dur": 100, 
                            "type": "note", 
                            "channel": 0
                        }, 
                        {
                            "pitch": 46, 
                            "t0": 107963, 
                            "v": 101, 
                            "dur": 103, 
                            "type": "note", 
                            "channel": 0
                        }, 
                        {
                            "pitch": 79, 
                            "t0": 107963, 
                            "v": 108, 
                            "dur": 103, 
                            "type": "note", 
                            "channel": 0
                        }
                    ]
                ], 
                [
                    107969, 
                    [
                        {
                            "pitch": 38, 
                            "t0": 107969, 
                            "v": 106, 
                            "dur": 80, 
                            "type": "note", 
                            "channel": 0
                        }, 
                        {
                            "pitch": 43, 
                            "t0": 107969, 
                            "v": 96, 
                            "dur": 83, 
                            "type": "note", 
                            "channel": 0
                        }
                    ]
                ], 
                [
                    108113, 
                    [
                        {
                            "pitch": 86, 
                            "t0": 108113, 
                            "v": 111, 
                            "dur": 136, 
                            "type": "note", 
                            "channel": 0
                        }, 
                        {
                            "pitch": 79, 
                            "t0": 108113, 
                            "v": 117, 
                            "dur": 142, 
                            "type": "note", 
                            "channel": 0
                        }
                    ]
                ], 
                [
                    108116, 
                    [
                        {
                            "pitch": 74, 
                            "t0": 108116, 
                            "v": 121, 
                            "dur": 100, 
                            "type": "note", 
                            "channel": 0
                        }, 
                        {
                            "pitch": 46, 
                            "t0": 108116, 
                            "v": 108, 
                            "dur": 133, 
                            "type": "note", 
                            "channel": 0
                        }, 
                        {
                            "pitch": 82, 
                            "t0": 108116, 
                            "v": 109, 
                            "dur": 170, 
                            "type": "note", 
                            "channel": 0
                        }
                    ]
                ], 
                [
                    108119, 
                    [
                        {
                            "pitch": 50, 
                            "t0": 108119, 
                            "v": 113, 
                            "dur": 100, 
                            "type": "note", 
                            "channel": 0
                        }, 
                        {
                            "pitch": 38, 
                            "t0": 108119, 
                            "v": 100, 
                            "dur": 106, 
                            "type": "note", 
                            "channel": 0
                        }, 
                        {
                            "pitch": 43, 
                            "t0": 108119, 
                            "v": 89, 
                            "dur": 130, 
                            "type": "note", 
                            "channel": 0
                        }
                    ]
                ], 
                [
                    108965, 
                    [
                        {
                            "pitch": 73, 
                            "t0": 108965, 
                            "v": 113, 
                            "dur": 79, 
                            "type": "note", 
                            "channel": 0
                        }, 
                        {
                            "pitch": 82, 
                            "t0": 108965, 
                            "v": 116, 
                            "dur": 87, 
                            "type": "note", 
                            "channel": 0
                        }
                    ]
                ], 
                [
                    108968, 
                    [
                        {
                            "pitch": 85, 
                            "t0": 108968, 
                            "v": 108, 
                            "dur": 62, 
                            "type": "note", 
                            "channel": 0
                        }, 
                        {
                            "pitch": 40, 
                            "t0": 108968, 
                            "v": 106, 
                            "dur": 65, 
                            "type": "note", 
                            "channel": 0
                        }, 
                        {
                            "pitch": 52, 
                            "t0": 108968, 
                            "v": 110, 
                            "dur": 76, 
                            "type": "note", 
                            "channel": 0
                        }, 
                        {
                            "pitch": 49, 
                            "t0": 108968, 
                            "v": 99, 
                            "dur": 93, 
                            "type": "note", 
                            "channel": 0
                        }
                    ]
                ], 
                [
                    108972, 
                    [
                        {
                            "pitch": 79, 
                            "t0": 108972, 
                            "v": 109, 
                            "dur": 77, 
                            "type": "note", 
                            "channel": 0
                        }, 
                        {
                            "pitch": 46, 
                            "t0": 108972, 
                            "v": 105, 
                            "dur": 80, 
                            "type": "note", 
                            "channel": 0
                        }
                    ]
                ], 
                [
                    108975, 
                    [
                        {
                            "pitch": 43, 
                            "t0": 108975, 
                            "v": 90, 
                            "dur": 82, 
                            "type": "note", 
                            "channel": 0
                        }
                    ]
                ], 
                [
                    109099, 
                    [
                        {
                            "pitch": 52, 
                            "t0": 109099, 
                            "v": 107, 
                            "dur": 81, 
                            "type": "note", 
                            "channel": 0
                        }, 
                        {
                            "pitch": 46, 
                            "t0": 109099, 
                            "v": 103, 
                            "dur": 100, 
                            "type": "note", 
                            "channel": 0
                        }, 
                        {
                            "pitch": 82, 
                            "t0": 109099, 
                            "v": 113, 
                            "dur": 103, 
                            "type": "note", 
                            "channel": 0
                        }
                    ]
                ], 
                [
                    109102, 
                    [
                        {
                            "pitch": 73, 
                            "t0": 109102, 
                            "v": 113, 
                            "dur": 78, 
                            "type": "note", 
                            "channel": 0
                        }, 
                        {
                            "pitch": 85, 
                            "t0": 109102, 
                            "v": 100, 
                            "dur": 83, 
                            "type": "note", 
                            "channel": 0
                        }, 
                        {
                            "pitch": 49, 
                            "t0": 109102, 
                            "v": 102, 
                            "dur": 92, 
                            "type": "note", 
                            "channel": 0
                        }
                    ]
                ], 
                [
                    109105, 
                    [
                        {
                            "pitch": 40, 
                            "t0": 109105, 
                            "v": 92, 
                            "dur": 80, 
                            "type": "note", 
                            "channel": 0
                        }, 
                        {
                            "pitch": 79, 
                            "t0": 109105, 
                            "v": 109, 
                            "dur": 97, 
                            "type": "note", 
                            "channel": 0
                        }
                    ]
                ], 
                [
                    109108, 
                    [
                        {
                            "pitch": 43, 
                            "t0": 109108, 
                            "v": 98, 
                            "dur": 77, 
                            "type": "note", 
                            "channel": 0
                        }
                    ]
                ], 
                [
                    109246, 
                    [
                        {
                            "pitch": 85, 
                            "t0": 109246, 
                            "v": 108, 
                            "dur": 141, 
                            "type": "note", 
                            "channel": 0
                        }
                    ]
                ], 
                [
                    109249, 
                    [
                        {
                            "pitch": 73, 
                            "t0": 109249, 
                            "v": 113, 
                            "dur": 128, 
                            "type": "note", 
                            "channel": 0
                        }, 
                        {
                            "pitch": 79, 
                            "t0": 109249, 
                            "v": 113, 
                            "dur": 156, 
                            "type": "note", 
                            "channel": 0
                        }, 
                        {
                            "pitch": 82, 
                            "t0": 109249, 
                            "v": 115, 
                            "dur": 165, 
                            "type": "note", 
                            "channel": 0
                        }
                    ]
                ], 
                [
                    109252, 
                    [
                        {
                            "pitch": 40, 
                            "t0": 109252, 
                            "v": 100, 
                            "dur": 90, 
                            "type": "note", 
                            "channel": 0
                        }, 
                        {
                            "pitch": 43, 
                            "t0": 109252, 
                            "v": 91, 
                            "dur": 98, 
                            "type": "note", 
                            "channel": 0
                        }, 
                        {
                            "pitch": 52, 
                            "t0": 109252, 
                            "v": 109, 
                            "dur": 131, 
                            "type": "note", 
                            "channel": 0
                        }, 
                        {
                            "pitch": 46, 
                            "t0": 109252, 
                            "v": 101, 
                            "dur": 131, 
                            "type": "note", 
                            "channel": 0
                        }
                    ]
                ], 
                [
                    109255, 
                    [
                        {
                            "pitch": 49, 
                            "t0": 109255, 
                            "v": 95, 
                            "dur": 145, 
                            "type": "note", 
                            "channel": 0
                        }
                    ]
                ], 
                [
                    109547, 
                    [
                        {
                            "pitch": 86, 
                            "t0": 109547, 
                            "v": 120, 
                            "dur": 78, 
                            "type": "note", 
                            "channel": 0
                        }
                    ]
                ], 
                [
                    109550, 
                    [
                        {
                            "pitch": 74, 
                            "t0": 109550, 
                            "v": 122, 
                            "dur": 87, 
                            "type": "note", 
                            "channel": 0
                        }, 
                        {
                            "pitch": 81, 
                            "t0": 109550, 
                            "v": 115, 
                            "dur": 96, 
                            "type": "note", 
                            "channel": 0
                        }
                    ]
                ], 
                [
                    109553, 
                    [
                        {
                            "pitch": 54, 
                            "t0": 109553, 
                            "v": 106, 
                            "dur": 64, 
                            "type": "note", 
                            "channel": 0
                        }, 
                        {
                            "pitch": 42, 
                            "t0": 109553, 
                            "v": 95, 
                            "dur": 79, 
                            "type": "note", 
                            "channel": 0
                        }
                    ]
                ], 
                [
                    109562, 
                    [
                        {
                            "pitch": 45, 
                            "t0": 109562, 
                            "v": 98, 
                            "dur": 70, 
                            "type": "note", 
                            "channel": 0
                        }, 
                        {
                            "pitch": 50, 
                            "t0": 109562, 
                            "v": 98, 
                            "dur": 75, 
                            "type": "note", 
                            "channel": 0
                        }
                    ]
                ], 
                [
                    109685, 
                    [
                        {
                            "pitch": 86, 
                            "t0": 109685, 
                            "v": 103, 
                            "dur": 83, 
                            "type": "note", 
                            "channel": 0
                        }, 
                        {
                            "pitch": 54, 
                            "t0": 109685, 
                            "v": 90, 
                            "dur": 83, 
                            "type": "note", 
                            "channel": 0
                        }
                    ]
                ], 
                [
                    109689, 
                    [
                        {
                            "pitch": 74, 
                            "t0": 109689, 
                            "v": 117, 
                            "dur": 87, 
                            "type": "note", 
                            "channel": 0
                        }, 
                        {
                            "pitch": 81, 
                            "t0": 109689, 
                            "v": 116, 
                            "dur": 87, 
                            "type": "note", 
                            "channel": 0
                        }
                    ]
                ], 
                [
                    109692, 
                    [
                        {
                            "pitch": 45, 
                            "t0": 109692, 
                            "v": 95, 
                            "dur": 84, 
                            "type": "note", 
                            "channel": 0
                        }, 
                        {
                            "pitch": 42, 
                            "t0": 109692, 
                            "v": 86, 
                            "dur": 84, 
                            "type": "note", 
                            "channel": 0
                        }, 
                        {
                            "pitch": 50, 
                            "t0": 109692, 
                            "v": 99, 
                            "dur": 92, 
                            "type": "note", 
                            "channel": 0
                        }
                    ]
                ], 
                [
                    109838, 
                    [
                        {
                            "pitch": 54, 
                            "t0": 109838, 
                            "v": 99, 
                            "dur": 89, 
                            "type": "note", 
                            "channel": 0
                        }, 
                        {
                            "pitch": 81, 
                            "t0": 109838, 
                            "v": 103, 
                            "dur": 96, 
                            "type": "note", 
                            "channel": 0
                        }
                    ]
                ], 
                [
                    109843, 
                    [
                        {
                            "pitch": 42, 
                            "t0": 109843, 
                            "v": 84, 
                            "dur": 33, 
                            "type": "note", 
                            "channel": 0
                        }, 
                        {
                            "pitch": 45, 
                            "t0": 109843, 
                            "v": 77, 
                            "dur": 36, 
                            "type": "note", 
                            "channel": 0
                        }, 
                        {
                            "pitch": 50, 
                            "t0": 109843, 
                            "v": 92, 
                            "dur": 55, 
                            "type": "note", 
                            "channel": 0
                        }, 
                        {
                            "pitch": 86, 
                            "t0": 109843, 
                            "v": 102, 
                            "dur": 84, 
                            "type": "note", 
                            "channel": 0
                        }, 
                        {
                            "pitch": 74, 
                            "t0": 109843, 
                            "v": 116, 
                            "dur": 91, 
                            "type": "note", 
                            "channel": 0
                        }
                    ]
                ], 
                [
                    110054, 
                    [
                        {
                            "pitch": 86, 
                            "t0": 110054, 
                            "v": 119, 
                            "dur": 101, 
                            "type": "note", 
                            "channel": 0
                        }, 
                        {
                            "pitch": 74, 
                            "t0": 110054, 
                            "v": 125, 
                            "dur": 110, 
                            "type": "note", 
                            "channel": 0
                        }
                    ]
                ], 
                [
                    110068, 
                    [
                        {
                            "pitch": 62, 
                            "t0": 110068, 
                            "v": 113, 
                            "dur": 75, 
                            "type": "note", 
                            "channel": 0
                        }
                    ]
                ], 
                [
                    110214, 
                    [
                        {
                            "pitch": 86, 
                            "t0": 110214, 
                            "v": 104, 
                            "dur": 71, 
                            "type": "note", 
                            "channel": 0
                        }, 
                        {
                            "pitch": 74, 
                            "t0": 110214, 
                            "v": 115, 
                            "dur": 71, 
                            "type": "note", 
                            "channel": 0
                        }
                    ]
                ], 
                [
                    110217, 
                    [
                        {
                            "pitch": 62, 
                            "t0": 110217, 
                            "v": 113, 
                            "dur": 75, 
                            "type": "note", 
                            "channel": 0
                        }
                    ]
                ], 
                [
                    110359, 
                    [
                        {
                            "pitch": 62, 
                            "t0": 110359, 
                            "v": 103, 
                            "dur": 66, 
                            "type": "note", 
                            "channel": 0
                        }
                    ]
                ], 
                [
                    110364, 
                    [
                        {
                            "pitch": 86, 
                            "t0": 110364, 
                            "v": 101, 
                            "dur": 44, 
                            "type": "note", 
                            "channel": 0
                        }
                    ]
                ], 
                [
                    110367, 
                    [
                        {
                            "pitch": 74, 
                            "t0": 110367, 
                            "v": 107, 
                            "dur": 67, 
                            "type": "note", 
                            "channel": 0
                        }
                    ]
                ], 
                [
                    110570, 
                    [
                        {
                            "pitch": 67, 
                            "t0": 110570, 
                            "v": 118, 
                            "dur": 543, 
                            "type": "note", 
                            "channel": 0
                        }, 
                        {
                            "pitch": 79, 
                            "t0": 110570, 
                            "v": 119, 
                            "dur": 579, 
                            "type": "note", 
                            "channel": 0
                        }, 
                        {
                            "pitch": 55, 
                            "t0": 110570, 
                            "v": 123, 
                            "dur": 682, 
                            "type": "note", 
                            "channel": 0
                        }
                    ]
                ], 
                [
                    111197, 
                    [
                        {
                            "pitch": 81, 
                            "t0": 111197, 
                            "v": 123, 
                            "dur": 381, 
                            "type": "note", 
                            "channel": 0
                        }, 
                        {
                            "pitch": 69, 
                            "t0": 111197, 
                            "v": 119, 
                            "dur": 465, 
                            "type": "note", 
                            "channel": 0
                        }
                    ]
                ], 
                [
                    111203, 
                    [
                        {
                            "pitch": 57, 
                            "t0": 111203, 
                            "v": 114, 
                            "dur": 626, 
                            "type": "note", 
                            "channel": 0
                        }
                    ]
                ], 
                [
                    111840, 
                    [
                        {
                            "pitch": 62, 
                            "t0": 111840, 
                            "v": 114, 
                            "dur": 168, 
                            "type": "note", 
                            "channel": 0
                        }, 
                        {
                            "pitch": 74, 
                            "t0": 111840, 
                            "v": 121, 
                            "dur": 476, 
                            "type": "note", 
                            "channel": 0
                        }
                    ]
                ], 
                [
                    111848, 
                    [
                        {
                            "pitch": 50, 
                            "t0": 111848, 
                            "v": 117, 
                            "dur": 151, 
                            "type": "note", 
                            "channel": 0
                        }
                    ]
                ], 
                [
                    112100, 
                    [
                        {
                            "pitch": 48, 
                            "t0": 112100, 
                            "v": 111, 
                            "dur": 390, 
                            "type": "note", 
                            "channel": 0
                        }
                    ]
                ], 
                [
                    112122, 
                    [
                        {
                            "pitch": 54, 
                            "t0": 112122, 
                            "v": 83, 
                            "dur": 348, 
                            "type": "note", 
                            "channel": 0
                        }
                    ]
                ], 
                [
                    112141, 
                    [
                        {
                            "pitch": 57, 
                            "t0": 112141, 
                            "v": 105, 
                            "dur": 302, 
                            "type": "note", 
                            "channel": 0
                        }
                    ]
                ], 
                [
                    112147, 
                    [
                        {
                            "pitch": 62, 
                            "t0": 112147, 
                            "v": 106, 
                            "dur": 48, 
                            "type": "note", 
                            "channel": 0
                        }
                    ]
                ], 
                [
                    112152, 
                    [
                        {
                            "pitch": 66, 
                            "t0": 112152, 
                            "v": 91, 
                            "dur": 48, 
                            "type": "note", 
                            "channel": 0
                        }, 
                        {
                            "pitch": 60, 
                            "t0": 112152, 
                            "v": 118, 
                            "dur": 302, 
                            "type": "note", 
                            "channel": 0
                        }
                    ]
                ], 
                [
                    112281, 
                    [
                        {
                            "pitch": 62, 
                            "t0": 112281, 
                            "v": 84, 
                            "dur": 58, 
                            "type": "note", 
                            "channel": 0
                        }, 
                        {
                            "pitch": 66, 
                            "t0": 112281, 
                            "v": 87, 
                            "dur": 81, 
                            "type": "note", 
                            "channel": 0
                        }
                    ]
                ], 
                [
                    112436, 
                    [
                        {
                            "pitch": 74, 
                            "t0": 112436, 
                            "v": 121, 
                            "dur": 786, 
                            "type": "note", 
                            "channel": 0
                        }
                    ]
                ], 
                [
                    112440, 
                    [
                        {
                            "pitch": 66, 
                            "t0": 112440, 
                            "v": 90, 
                            "dur": 89, 
                            "type": "note", 
                            "channel": 0
                        }, 
                        {
                            "pitch": 62, 
                            "t0": 112440, 
                            "v": 117, 
                            "dur": 124, 
                            "type": "note", 
                            "channel": 0
                        }
                    ]
                ], 
                [
                    112715, 
                    [
                        {
                            "pitch": 62, 
                            "t0": 112715, 
                            "v": 106, 
                            "dur": 75, 
                            "type": "note", 
                            "channel": 0
                        }, 
                        {
                            "pitch": 66, 
                            "t0": 112715, 
                            "v": 93, 
                            "dur": 75, 
                            "type": "note", 
                            "channel": 0
                        }
                    ]
                ], 
                [
                    112719, 
                    [
                        {
                            "pitch": 57, 
                            "t0": 112719, 
                            "v": 114, 
                            "dur": 63, 
                            "type": "note", 
                            "channel": 0
                        }, 
                        {
                            "pitch": 69, 
                            "t0": 112719, 
                            "v": 99, 
                            "dur": 71, 
                            "type": "note", 
                            "channel": 0
                        }, 
                        {
                            "pitch": 50, 
                            "t0": 112719, 
                            "v": 99, 
                            "dur": 82, 
                            "type": "note", 
                            "channel": 0
                        }, 
                        {
                            "pitch": 45, 
                            "t0": 112719, 
                            "v": 110, 
                            "dur": 86, 
                            "type": "note", 
                            "channel": 0
                        }
                    ]
                ], 
                [
                    112724, 
                    [
                        {
                            "pitch": 54, 
                            "t0": 112724, 
                            "v": 95, 
                            "dur": 77, 
                            "type": "note", 
                            "channel": 0
                        }
                    ]
                ], 
                [
                    112851, 
                    [
                        {
                            "pitch": 62, 
                            "t0": 112851, 
                            "v": 85, 
                            "dur": 76, 
                            "type": "note", 
                            "channel": 0
                        }, 
                        {
                            "pitch": 66, 
                            "t0": 112851, 
                            "v": 78, 
                            "dur": 90, 
                            "type": "note", 
                            "channel": 0
                        }, 
                        {
                            "pitch": 69, 
                            "t0": 112851, 
                            "v": 93, 
                            "dur": 98, 
                            "type": "note", 
                            "channel": 0
                        }
                    ]
                ], 
                [
                    112991, 
                    [
                        {
                            "pitch": 42, 
                            "t0": 112991, 
                            "v": 95, 
                            "dur": 116, 
                            "type": "note", 
                            "channel": 0
                        }
                    ]
                ], 
                [
                    112996, 
                    [
                        {
                            "pitch": 45, 
                            "t0": 112996, 
                            "v": 101, 
                            "dur": 93, 
                            "type": "note", 
                            "channel": 0
                        }
                    ]
                ], 
                [
                    112999, 
                    [
                        {
                            "pitch": 62, 
                            "t0": 112999, 
                            "v": 98, 
                            "dur": 118, 
                            "type": "note", 
                            "channel": 0
                        }, 
                        {
                            "pitch": 69, 
                            "t0": 112999, 
                            "v": 106, 
                            "dur": 143, 
                            "type": "note", 
                            "channel": 0
                        }
                    ]
                ], 
                [
                    113002, 
                    [
                        {
                            "pitch": 66, 
                            "t0": 113002, 
                            "v": 87, 
                            "dur": 140, 
                            "type": "note", 
                            "channel": 0
                        }
                    ]
                ], 
                [
                    113007, 
                    [
                        {
                            "pitch": 50, 
                            "t0": 113007, 
                            "v": 100, 
                            "dur": 82, 
                            "type": "note", 
                            "channel": 0
                        }, 
                        {
                            "pitch": 54, 
                            "t0": 113007, 
                            "v": 111, 
                            "dur": 100, 
                            "type": "note", 
                            "channel": 0
                        }
                    ]
                ], 
                [
                    113273, 
                    [
                        {
                            "pitch": 72, 
                            "t0": 113273, 
                            "v": 108, 
                            "dur": 89, 
                            "type": "note", 
                            "channel": 0
                        }
                    ]
                ], 
                [
                    113278, 
                    [
                        {
                            "pitch": 62, 
                            "t0": 113278, 
                            "v": 102, 
                            "dur": 69, 
                            "type": "note", 
                            "channel": 0
                        }, 
                        {
                            "pitch": 69, 
                            "t0": 113278, 
                            "v": 95, 
                            "dur": 91, 
                            "type": "note", 
                            "channel": 0
                        }
                    ]
                ], 
                [
                    113283, 
                    [
                        {
                            "pitch": 50, 
                            "t0": 113283, 
                            "v": 114, 
                            "dur": 95, 
                            "type": "note", 
                            "channel": 0
                        }, 
                        {
                            "pitch": 45, 
                            "t0": 113283, 
                            "v": 102, 
                            "dur": 101, 
                            "type": "note", 
                            "channel": 0
                        }, 
                        {
                            "pitch": 38, 
                            "t0": 113283, 
                            "v": 108, 
                            "dur": 112, 
                            "type": "note", 
                            "channel": 0
                        }
                    ]
                ], 
                [
                    113287, 
                    [
                        {
                            "pitch": 66, 
                            "t0": 113287, 
                            "v": 89, 
                            "dur": 66, 
                            "type": "note", 
                            "channel": 0
                        }
                    ]
                ], 
                [
                    113291, 
                    [
                        {
                            "pitch": 42, 
                            "t0": 113291, 
                            "v": 90, 
                            "dur": 101, 
                            "type": "note", 
                            "channel": 0
                        }
                    ]
                ], 
                [
                    113411, 
                    [
                        {
                            "pitch": 62, 
                            "t0": 113411, 
                            "v": 84, 
                            "dur": 67, 
                            "type": "note", 
                            "channel": 0
                        }, 
                        {
                            "pitch": 72, 
                            "t0": 113411, 
                            "v": 103, 
                            "dur": 92, 
                            "type": "note", 
                            "channel": 0
                        }
                    ]
                ], 
                [
                    113415, 
                    [
                        {
                            "pitch": 66, 
                            "t0": 113415, 
                            "v": 74, 
                            "dur": 82, 
                            "type": "note", 
                            "channel": 0
                        }
                    ]
                ], 
                [
                    113423, 
                    [
                        {
                            "pitch": 69, 
                            "t0": 113423, 
                            "v": 98, 
                            "dur": 86, 
                            "type": "note", 
                            "channel": 0
                        }
                    ]
                ], 
                [
                    113553, 
                    [
                        {
                            "pitch": 72, 
                            "t0": 113553, 
                            "v": 103, 
                            "dur": 101, 
                            "type": "note", 
                            "channel": 0
                        }
                    ]
                ], 
                [
                    113559, 
                    [
                        {
                            "pitch": 62, 
                            "t0": 113559, 
                            "v": 109, 
                            "dur": 73, 
                            "type": "note", 
                            "channel": 0
                        }, 
                        {
                            "pitch": 69, 
                            "t0": 113559, 
                            "v": 105, 
                            "dur": 76, 
                            "type": "note", 
                            "channel": 0
                        }, 
                        {
                            "pitch": 36, 
                            "t0": 113559, 
                            "v": 112, 
                            "dur": 79, 
                            "type": "note", 
                            "channel": 0
                        }, 
                        {
                            "pitch": 45, 
                            "t0": 113559, 
                            "v": 115, 
                            "dur": 84, 
                            "type": "note", 
                            "channel": 0
                        }
                    ]
                ], 
                [
                    113562, 
                    [
                        {
                            "pitch": 48, 
                            "t0": 113562, 
                            "v": 119, 
                            "dur": 81, 
                            "type": "note", 
                            "channel": 0
                        }, 
                        {
                            "pitch": 42, 
                            "t0": 113562, 
                            "v": 98, 
                            "dur": 86, 
                            "type": "note", 
                            "channel": 0
                        }, 
                        {
                            "pitch": 74, 
                            "t0": 113562, 
                            "v": 112, 
                            "dur": 98, 
                            "type": "note", 
                            "channel": 0
                        }
                    ]
                ], 
                [
                    113568, 
                    [
                        {
                            "pitch": 66, 
                            "t0": 113568, 
                            "v": 76, 
                            "dur": 70, 
                            "type": "note", 
                            "channel": 0
                        }
                    ]
                ], 
                [
                    113587, 
                    [
                        {
                            "pitch": 47, 
                            "t0": 113587, 
                            "v": 58, 
                            "dur": 28, 
                            "type": "note", 
                            "channel": 0
                        }
                    ]
                ], 
                [
                    113607, 
                    [
                        {
                            "pitch": 39, 
                            "t0": 113607, 
                            "v": 23, 
                            "dur": 44, 
                            "type": "note", 
                            "channel": 0
                        }
                    ]
                ], 
                [
                    113840, 
                    [
                        {
                            "pitch": 66, 
                            "t0": 113840, 
                            "v": 106, 
                            "dur": 65, 
                            "type": "note", 
                            "channel": 0
                        }, 
                        {
                            "pitch": 45, 
                            "t0": 113840, 
                            "v": 113, 
                            "dur": 65, 
                            "type": "note", 
                            "channel": 0
                        }
                    ]
                ], 
                [
                    113843, 
                    [
                        {
                            "pitch": 33, 
                            "t0": 113843, 
                            "v": 106, 
                            "dur": 65, 
                            "type": "note", 
                            "channel": 0
                        }, 
                        {
                            "pitch": 78, 
                            "t0": 113843, 
                            "v": 106, 
                            "dur": 69, 
                            "type": "note", 
                            "channel": 0
                        }
                    ]
                ], 
                [
                    113849, 
                    [
                        {
                            "pitch": 42, 
                            "t0": 113849, 
                            "v": 90, 
                            "dur": 47, 
                            "type": "note", 
                            "channel": 0
                        }, 
                        {
                            "pitch": 38, 
                            "t0": 113849, 
                            "v": 95, 
                            "dur": 72, 
                            "type": "note", 
                            "channel": 0
                        }
                    ]
                ], 
                [
                    113969, 
                    [
                        {
                            "pitch": 66, 
                            "t0": 113969, 
                            "v": 96, 
                            "dur": 66, 
                            "type": "note", 
                            "channel": 0
                        }
                    ]
                ], 
                [
                    113972, 
                    [
                        {
                            "pitch": 78, 
                            "t0": 113972, 
                            "v": 95, 
                            "dur": 78, 
                            "type": "note", 
                            "channel": 0
                        }
                    ]
                ], 
                [
                    114106, 
                    [
                        {
                            "pitch": 30, 
                            "t0": 114106, 
                            "v": 100, 
                            "dur": 39, 
                            "type": "note", 
                            "channel": 0
                        }
                    ]
                ], 
                [
                    114113, 
                    [
                        {
                            "pitch": 33, 
                            "t0": 114113, 
                            "v": 98, 
                            "dur": 28, 
                            "type": "note", 
                            "channel": 0
                        }, 
                        {
                            "pitch": 42, 
                            "t0": 114113, 
                            "v": 110, 
                            "dur": 89, 
                            "type": "note", 
                            "channel": 0
                        }
                    ]
                ], 
                [
                    114122, 
                    [
                        {
                            "pitch": 38, 
                            "t0": 114122, 
                            "v": 92, 
                            "dur": 27, 
                            "type": "note", 
                            "channel": 0
                        }, 
                        {
                            "pitch": 81, 
                            "t0": 114122, 
                            "v": 121, 
                            "dur": 84, 
                            "type": "note", 
                            "channel": 0
                        }
                    ]
                ], 
                [
                    114125, 
                    [
                        {
                            "pitch": 69, 
                            "t0": 114125, 
                            "v": 107, 
                            "dur": 56, 
                            "type": "note", 
                            "channel": 0
                        }
                    ]
                ], 
                [
                    114384, 
                    [
                        {
                            "pitch": 50, 
                            "t0": 114384, 
                            "v": 109, 
                            "dur": 75, 
                            "type": "note", 
                            "channel": 0
                        }
                    ]
                ], 
                [
                    114387, 
                    [
                        {
                            "pitch": 38, 
                            "t0": 114387, 
                            "v": 108, 
                            "dur": 44, 
                            "type": "note", 
                            "channel": 0
                        }
                    ]
                ], 
                [
                    114390, 
                    [
                        {
                            "pitch": 45, 
                            "t0": 114390, 
                            "v": 90, 
                            "dur": 52, 
                            "type": "note", 
                            "channel": 0
                        }
                    ]
                ], 
                [
                    114397, 
                    [
                        {
                            "pitch": 78, 
                            "t0": 114397, 
                            "v": 102, 
                            "dur": 50, 
                            "type": "note", 
                            "channel": 0
                        }, 
                        {
                            "pitch": 74, 
                            "t0": 114397, 
                            "v": 108, 
                            "dur": 54, 
                            "type": "note", 
                            "channel": 0
                        }, 
                        {
                            "pitch": 86, 
                            "t0": 114397, 
                            "v": 115, 
                            "dur": 81, 
                            "type": "note", 
                            "channel": 0
                        }
                    ]
                ], 
                [
                    114518, 
                    [
                        {
                            "pitch": 45, 
                            "t0": 114518, 
                            "v": 90, 
                            "dur": 53, 
                            "type": "note", 
                            "channel": 0
                        }, 
                        {
                            "pitch": 50, 
                            "t0": 114518, 
                            "v": 107, 
                            "dur": 69, 
                            "type": "note", 
                            "channel": 0
                        }
                    ]
                ], 
                [
                    114523, 
                    [
                        {
                            "pitch": 86, 
                            "t0": 114523, 
                            "v": 113, 
                            "dur": 37, 
                            "type": "note", 
                            "channel": 0
                        }, 
                        {
                            "pitch": 74, 
                            "t0": 114523, 
                            "v": 108, 
                            "dur": 59, 
                            "type": "note", 
                            "channel": 0
                        }
                    ]
                ], 
                [
                    114529, 
                    [
                        {
                            "pitch": 38, 
                            "t0": 114529, 
                            "v": 75, 
                            "dur": 27, 
                            "type": "note", 
                            "channel": 0
                        }, 
                        {
                            "pitch": 78, 
                            "t0": 114529, 
                            "v": 95, 
                            "dur": 89, 
                            "type": "note", 
                            "channel": 0
                        }
                    ]
                ], 
                [
                    114698, 
                    [
                        {
                            "pitch": 71, 
                            "t0": 114698, 
                            "v": 111, 
                            "dur": 57, 
                            "type": "note", 
                            "channel": 0
                        }
                    ]
                ], 
                [
                    114701, 
                    [
                        {
                            "pitch": 43, 
                            "t0": 114701, 
                            "v": 104, 
                            "dur": 30, 
                            "type": "note", 
                            "channel": 0
                        }, 
                        {
                            "pitch": 50, 
                            "t0": 114701, 
                            "v": 92, 
                            "dur": 37, 
                            "type": "note", 
                            "channel": 0
                        }, 
                        {
                            "pitch": 79, 
                            "t0": 114701, 
                            "v": 104, 
                            "dur": 44, 
                            "type": "note", 
                            "channel": 0
                        }, 
                        {
                            "pitch": 83, 
                            "t0": 114701, 
                            "v": 105, 
                            "dur": 75, 
                            "type": "note", 
                            "channel": 0
                        }, 
                        {
                            "pitch": 55, 
                            "t0": 114701, 
                            "v": 119, 
                            "dur": 83, 
                            "type": "note", 
                            "channel": 0
                        }
                    ]
                ], 
                [
                    114707, 
                    [
                        {
                            "pitch": 47, 
                            "t0": 114707, 
                            "v": 86, 
                            "dur": 24, 
                            "type": "note", 
                            "channel": 0
                        }
                    ]
                ], 
                [
                    114936, 
                    [
                        {
                            "pitch": 91, 
                            "t0": 114936, 
                            "v": 114, 
                            "dur": 63, 
                            "type": "note", 
                            "channel": 0
                        }, 
                        {
                            "pitch": 79, 
                            "t0": 114936, 
                            "v": 116, 
                            "dur": 71, 
                            "type": "note", 
                            "channel": 0
                        }
                    ]
                ], 
                [
                    114943, 
                    [
                        {
                            "pitch": 67, 
                            "t0": 114943, 
                            "v": 111, 
                            "dur": 56, 
                            "type": "note", 
                            "channel": 0
                        }
                    ]
                ], 
                [
                    115069, 
                    [
                        {
                            "pitch": 79, 
                            "t0": 115069, 
                            "v": 113, 
                            "dur": 59, 
                            "type": "note", 
                            "channel": 0
                        }, 
                        {
                            "pitch": 67, 
                            "t0": 115069, 
                            "v": 108, 
                            "dur": 70, 
                            "type": "note", 
                            "channel": 0
                        }
                    ]
                ], 
                [
                    115072, 
                    [
                        {
                            "pitch": 91, 
                            "t0": 115072, 
                            "v": 101, 
                            "dur": 56, 
                            "type": "note", 
                            "channel": 0
                        }
                    ]
                ], 
                [
                    115202, 
                    [
                        {
                            "pitch": 91, 
                            "t0": 115202, 
                            "v": 100, 
                            "dur": 54, 
                            "type": "note", 
                            "channel": 0
                        }, 
                        {
                            "pitch": 79, 
                            "t0": 115202, 
                            "v": 113, 
                            "dur": 68, 
                            "type": "note", 
                            "channel": 0
                        }
                    ]
                ], 
                [
                    115208, 
                    [
                        {
                            "pitch": 67, 
                            "t0": 115208, 
                            "v": 108, 
                            "dur": 62, 
                            "type": "note", 
                            "channel": 0
                        }
                    ]
                ], 
                [
                    115392, 
                    [
                        {
                            "pitch": 72, 
                            "t0": 115392, 
                            "v": 124, 
                            "dur": 504, 
                            "type": "note", 
                            "channel": 0
                        }, 
                        {
                            "pitch": 84, 
                            "t0": 115392, 
                            "v": 121, 
                            "dur": 523, 
                            "type": "note", 
                            "channel": 0
                        }
                    ]
                ], 
                [
                    115397, 
                    [
                        {
                            "pitch": 60, 
                            "t0": 115397, 
                            "v": 125, 
                            "dur": 641, 
                            "type": "note", 
                            "channel": 0
                        }
                    ]
                ], 
                [
                    115978, 
                    [
                        {
                            "pitch": 86, 
                            "t0": 115978, 
                            "v": 122, 
                            "dur": 364, 
                            "type": "note", 
                            "channel": 0
                        }
                    ]
                ], 
                [
                    115982, 
                    [
                        {
                            "pitch": 74, 
                            "t0": 115982, 
                            "v": 123, 
                            "dur": 422, 
                            "type": "note", 
                            "channel": 0
                        }, 
                        {
                            "pitch": 62, 
                            "t0": 115982, 
                            "v": 117, 
                            "dur": 566, 
                            "type": "note", 
                            "channel": 0
                        }
                    ]
                ], 
                [
                    116621, 
                    [
                        {
                            "pitch": 67, 
                            "t0": 116621, 
                            "v": 121, 
                            "dur": 209, 
                            "type": "note", 
                            "channel": 0
                        }, 
                        {
                            "pitch": 79, 
                            "t0": 116621, 
                            "v": 123, 
                            "dur": 1100, 
                            "type": "note", 
                            "channel": 0
                        }
                    ]
                ], 
                [
                    116627, 
                    [
                        {
                            "pitch": 55, 
                            "t0": 116627, 
                            "v": 121, 
                            "dur": 161, 
                            "type": "note", 
                            "channel": 0
                        }
                    ]
                ], 
                [
                    116880, 
                    [
                        {
                            "pitch": 53, 
                            "t0": 116880, 
                            "v": 101, 
                            "dur": 81, 
                            "type": "note", 
                            "channel": 0
                        }
                    ]
                ], 
                [
                    116896, 
                    [
                        {
                            "pitch": 55, 
                            "t0": 116896, 
                            "v": 84, 
                            "dur": 89, 
                            "type": "note", 
                            "channel": 0
                        }
                    ]
                ], 
                [
                    116913, 
                    [
                        {
                            "pitch": 59, 
                            "t0": 116913, 
                            "v": 92, 
                            "dur": 84, 
                            "type": "note", 
                            "channel": 0
                        }
                    ]
                ], 
                [
                    116921, 
                    [
                        {
                            "pitch": 71, 
                            "t0": 116921, 
                            "v": 93, 
                            "dur": 67, 
                            "type": "note", 
                            "channel": 0
                        }, 
                        {
                            "pitch": 67, 
                            "t0": 116921, 
                            "v": 108, 
                            "dur": 73, 
                            "type": "note", 
                            "channel": 0
                        }
                    ]
                ], 
                [
                    116932, 
                    [
                        {
                            "pitch": 65, 
                            "t0": 116932, 
                            "v": 120, 
                            "dur": 71, 
                            "type": "note", 
                            "channel": 0
                        }
                    ]
                ], 
                [
                    117041, 
                    [
                        {
                            "pitch": 67, 
                            "t0": 117041, 
                            "v": 104, 
                            "dur": 68, 
                            "type": "note", 
                            "channel": 0
                        }
                    ]
                ], 
                [
                    117046, 
                    [
                        {
                            "pitch": 71, 
                            "t0": 117046, 
                            "v": 83, 
                            "dur": 85, 
                            "type": "note", 
                            "channel": 0
                        }
                    ]
                ], 
                [
                    117194, 
                    [
                        {
                            "pitch": 71, 
                            "t0": 117194, 
                            "v": 94, 
                            "dur": 140, 
                            "type": "note", 
                            "channel": 0
                        }
                    ]
                ], 
                [
                    117197, 
                    [
                        {
                            "pitch": 67, 
                            "t0": 117197, 
                            "v": 107, 
                            "dur": 129, 
                            "type": "note", 
                            "channel": 0
                        }
                    ]
                ], 
                [
                    117459, 
                    [
                        {
                            "pitch": 50, 
                            "t0": 117459, 
                            "v": 106, 
                            "dur": 65, 
                            "type": "note", 
                            "channel": 0
                        }
                    ]
                ], 
                [
                    117473, 
                    [
                        {
                            "pitch": 55, 
                            "t0": 117473, 
                            "v": 91, 
                            "dur": 84, 
                            "type": "note", 
                            "channel": 0
                        }
                    ]
                ], 
                [
                    117487, 
                    [
                        {
                            "pitch": 59, 
                            "t0": 117487, 
                            "v": 94, 
                            "dur": 58, 
                            "type": "note", 
                            "channel": 0
                        }
                    ]
                ], 
                [
                    117495, 
                    [
                        {
                            "pitch": 62, 
                            "t0": 117495, 
                            "v": 113, 
                            "dur": 67, 
                            "type": "note", 
                            "channel": 0
                        }, 
                        {
                            "pitch": 67, 
                            "t0": 117495, 
                            "v": 108, 
                            "dur": 67, 
                            "type": "note", 
                            "channel": 0
                        }, 
                        {
                            "pitch": 74, 
                            "t0": 117495, 
                            "v": 104, 
                            "dur": 67, 
                            "type": "note", 
                            "channel": 0
                        }
                    ]
                ], 
                [
                    117498, 
                    [
                        {
                            "pitch": 71, 
                            "t0": 117498, 
                            "v": 95, 
                            "dur": 64, 
                            "type": "note", 
                            "channel": 0
                        }
                    ]
                ], 
                [
                    117620, 
                    [
                        {
                            "pitch": 67, 
                            "t0": 117620, 
                            "v": 98, 
                            "dur": 67, 
                            "type": "note", 
                            "channel": 0
                        }, 
                        {
                            "pitch": 74, 
                            "t0": 117620, 
                            "v": 98, 
                            "dur": 84, 
                            "type": "note", 
                            "channel": 0
                        }
                    ]
                ], 
                [
                    117626, 
                    [
                        {
                            "pitch": 71, 
                            "t0": 117626, 
                            "v": 73, 
                            "dur": 78, 
                            "type": "note", 
                            "channel": 0
                        }
                    ]
                ], 
                [
                    117760, 
                    [
                        {
                            "pitch": 47, 
                            "t0": 117760, 
                            "v": 95, 
                            "dur": 78, 
                            "type": "note", 
                            "channel": 0
                        }, 
                        {
                            "pitch": 50, 
                            "t0": 117760, 
                            "v": 100, 
                            "dur": 78, 
                            "type": "note", 
                            "channel": 0
                        }, 
                        {
                            "pitch": 67, 
                            "t0": 117760, 
                            "v": 105, 
                            "dur": 112, 
                            "type": "note", 
                            "channel": 0
                        }, 
                        {
                            "pitch": 71, 
                            "t0": 117760, 
                            "v": 91, 
                            "dur": 122, 
                            "type": "note", 
                            "channel": 0
                        }, 
                        {
                            "pitch": 74, 
                            "t0": 117760, 
                            "v": 110, 
                            "dur": 214, 
                            "type": "note", 
                            "channel": 0
                        }
                    ]
                ], 
                [
                    117766, 
                    [
                        {
                            "pitch": 59, 
                            "t0": 117766, 
                            "v": 102, 
                            "dur": 58, 
                            "type": "note", 
                            "channel": 0
                        }, 
                        {
                            "pitch": 55, 
                            "t0": 117766, 
                            "v": 108, 
                            "dur": 63, 
                            "type": "note", 
                            "channel": 0
                        }
                    ]
                ], 
                [
                    118031, 
                    [
                        {
                            "pitch": 67, 
                            "t0": 118031, 
                            "v": 113, 
                            "dur": 63, 
                            "type": "note", 
                            "channel": 0
                        }, 
                        {
                            "pitch": 71, 
                            "t0": 118031, 
                            "v": 99, 
                            "dur": 89, 
                            "type": "note", 
                            "channel": 0
                        }, 
                        {
                            "pitch": 43, 
                            "t0": 118031, 
                            "v": 97, 
                            "dur": 99, 
                            "type": "note", 
                            "channel": 0
                        }
                    ]
                ], 
                [
                    118035, 
                    [
                        {
                            "pitch": 79, 
                            "t0": 118035, 
                            "v": 114, 
                            "dur": 59, 
                            "type": "note", 
                            "channel": 0
                        }
                    ]
                ], 
                [
                    118038, 
                    [
                        {
                            "pitch": 47, 
                            "t0": 118038, 
                            "v": 85, 
                            "dur": 76, 
                            "type": "note", 
                            "channel": 0
                        }, 
                        {
                            "pitch": 55, 
                            "t0": 118038, 
                            "v": 113, 
                            "dur": 82, 
                            "type": "note", 
                            "channel": 0
                        }, 
                        {
                            "pitch": 50, 
                            "t0": 118038, 
                            "v": 99, 
                            "dur": 92, 
                            "type": "note", 
                            "channel": 0
                        }
                    ]
                ], 
                [
                    118162, 
                    [
                        {
                            "pitch": 79, 
                            "t0": 118162, 
                            "v": 97, 
                            "dur": 60, 
                            "type": "note", 
                            "channel": 0
                        }, 
                        {
                            "pitch": 67, 
                            "t0": 118162, 
                            "v": 92, 
                            "dur": 68, 
                            "type": "note", 
                            "channel": 0
                        }
                    ]
                ], 
                [
                    118169, 
                    [
                        {
                            "pitch": 71, 
                            "t0": 118169, 
                            "v": 96, 
                            "dur": 79, 
                            "type": "note", 
                            "channel": 0
                        }
                    ]
                ], 
                [
                    118312, 
                    [
                        {
                            "pitch": 41, 
                            "t0": 118312, 
                            "v": 106, 
                            "dur": 70, 
                            "type": "note", 
                            "channel": 0
                        }
                    ]
                ], 
                [
                    118315, 
                    [
                        {
                            "pitch": 67, 
                            "t0": 118315, 
                            "v": 111, 
                            "dur": 53, 
                            "type": "note", 
                            "channel": 0
                        }, 
                        {
                            "pitch": 47, 
                            "t0": 118315, 
                            "v": 90, 
                            "dur": 64, 
                            "type": "note", 
                            "channel": 0
                        }, 
                        {
                            "pitch": 79, 
                            "t0": 118315, 
                            "v": 113, 
                            "dur": 97, 
                            "type": "note", 
                            "channel": 0
                        }
                    ]
                ], 
                [
                    118318, 
                    [
                        {
                            "pitch": 71, 
                            "t0": 118318, 
                            "v": 86, 
                            "dur": 61, 
                            "type": "note", 
                            "channel": 0
                        }, 
                        {
                            "pitch": 50, 
                            "t0": 118318, 
                            "v": 109, 
                            "dur": 78, 
                            "type": "note", 
                            "channel": 0
                        }
                    ]
                ], 
                [
                    118326, 
                    [
                        {
                            "pitch": 53, 
                            "t0": 118326, 
                            "v": 113, 
                            "dur": 75, 
                            "type": "note", 
                            "channel": 0
                        }
                    ]
                ], 
                [
                    118582, 
                    [
                        {
                            "pitch": 79, 
                            "t0": 118582, 
                            "v": 116, 
                            "dur": 61, 
                            "type": "note", 
                            "channel": 0
                        }, 
                        {
                            "pitch": 71, 
                            "t0": 118582, 
                            "v": 110, 
                            "dur": 61, 
                            "type": "note", 
                            "channel": 0
                        }, 
                        {
                            "pitch": 83, 
                            "t0": 118582, 
                            "v": 105, 
                            "dur": 67, 
                            "type": "note", 
                            "channel": 0
                        }
                    ]
                ], 
                [
                    118588, 
                    [
                        {
                            "pitch": 50, 
                            "t0": 118588, 
                            "v": 116, 
                            "dur": 61, 
                            "type": "note", 
                            "channel": 0
                        }, 
                        {
                            "pitch": 47, 
                            "t0": 118588, 
                            "v": 96, 
                            "dur": 69, 
                            "type": "note", 
                            "channel": 0
                        }, 
                        {
                            "pitch": 43, 
                            "t0": 118588, 
                            "v": 100, 
                            "dur": 78, 
                            "type": "note", 
                            "channel": 0
                        }
                    ]
                ], 
                [
                    118592, 
                    [
                        {
                            "pitch": 38, 
                            "t0": 118592, 
                            "v": 108, 
                            "dur": 92, 
                            "type": "note", 
                            "channel": 0
                        }
                    ]
                ], 
                [
                    118699, 
                    [
                        {
                            "pitch": 71, 
                            "t0": 118699, 
                            "v": 93, 
                            "dur": 58, 
                            "type": "note", 
                            "channel": 0
                        }
                    ]
                ], 
                [
                    118702, 
                    [
                        {
                            "pitch": 79, 
                            "t0": 118702, 
                            "v": 96, 
                            "dur": 66, 
                            "type": "note", 
                            "channel": 0
                        }
                    ]
                ], 
                [
                    118707, 
                    [
                        {
                            "pitch": 83, 
                            "t0": 118707, 
                            "v": 92, 
                            "dur": 67, 
                            "type": "note", 
                            "channel": 0
                        }
                    ]
                ], 
                [
                    118849, 
                    [
                        {
                            "pitch": 79, 
                            "t0": 118849, 
                            "v": 101, 
                            "dur": 76, 
                            "type": "note", 
                            "channel": 0
                        }
                    ]
                ], 
                [
                    118852, 
                    [
                        {
                            "pitch": 74, 
                            "t0": 118852, 
                            "v": 107, 
                            "dur": 50, 
                            "type": "note", 
                            "channel": 0
                        }, 
                        {
                            "pitch": 43, 
                            "t0": 118852, 
                            "v": 107, 
                            "dur": 62, 
                            "type": "note", 
                            "channel": 0
                        }, 
                        {
                            "pitch": 38, 
                            "t0": 118852, 
                            "v": 98, 
                            "dur": 83, 
                            "type": "note", 
                            "channel": 0
                        }
                    ]
                ], 
                [
                    118855, 
                    [
                        {
                            "pitch": 47, 
                            "t0": 118855, 
                            "v": 106, 
                            "dur": 62, 
                            "type": "note", 
                            "channel": 0
                        }, 
                        {
                            "pitch": 86, 
                            "t0": 118855, 
                            "v": 106, 
                            "dur": 91, 
                            "type": "note", 
                            "channel": 0
                        }, 
                        {
                            "pitch": 35, 
                            "t0": 118855, 
                            "v": 97, 
                            "dur": 95, 
                            "type": "note", 
                            "channel": 0
                        }
                    ]
                ], 
                [
                    119120, 
                    [
                        {
                            "pitch": 91, 
                            "t0": 119120, 
                            "v": 117, 
                            "dur": 49, 
                            "type": "note", 
                            "channel": 0
                        }, 
                        {
                            "pitch": 79, 
                            "t0": 119120, 
                            "v": 115, 
                            "dur": 57, 
                            "type": "note", 
                            "channel": 0
                        }, 
                        {
                            "pitch": 31, 
                            "t0": 119120, 
                            "v": 114, 
                            "dur": 78, 
                            "type": "note", 
                            "channel": 0
                        }
                    ]
                ], 
                [
                    119123, 
                    [
                        {
                            "pitch": 43, 
                            "t0": 119123, 
                            "v": 109, 
                            "dur": 61, 
                            "type": "note", 
                            "channel": 0
                        }, 
                        {
                            "pitch": 83, 
                            "t0": 119123, 
                            "v": 101, 
                            "dur": 69, 
                            "type": "note", 
                            "channel": 0
                        }
                    ]
                ], 
                [
                    119127, 
                    [
                        {
                            "pitch": 38, 
                            "t0": 119127, 
                            "v": 98, 
                            "dur": 90, 
                            "type": "note", 
                            "channel": 0
                        }
                    ]
                ], 
                [
                    119247, 
                    [
                        {
                            "pitch": 91, 
                            "t0": 119247, 
                            "v": 90, 
                            "dur": 59, 
                            "type": "note", 
                            "channel": 0
                        }, 
                        {
                            "pitch": 43, 
                            "t0": 119247, 
                            "v": 98, 
                            "dur": 59, 
                            "type": "note", 
                            "channel": 0
                        }, 
                        {
                            "pitch": 83, 
                            "t0": 119247, 
                            "v": 93, 
                            "dur": 59, 
                            "type": "note", 
                            "channel": 0
                        }
                    ]
                ], 
                [
                    119250, 
                    [
                        {
                            "pitch": 31, 
                            "t0": 119250, 
                            "v": 103, 
                            "dur": 28, 
                            "type": "note", 
                            "channel": 0
                        }, 
                        {
                            "pitch": 38, 
                            "t0": 119250, 
                            "v": 24, 
                            "dur": 44, 
                            "type": "note", 
                            "channel": 0
                        }, 
                        {
                            "pitch": 79, 
                            "t0": 119250, 
                            "v": 105, 
                            "dur": 75, 
                            "type": "note", 
                            "channel": 0
                        }
                    ]
                ], 
                [
                    119451, 
                    [
                        {
                            "pitch": 36, 
                            "t0": 119451, 
                            "v": 114, 
                            "dur": 61, 
                            "type": "note", 
                            "channel": 0
                        }, 
                        {
                            "pitch": 88, 
                            "t0": 119451, 
                            "v": 121, 
                            "dur": 83, 
                            "type": "note", 
                            "channel": 0
                        }, 
                        {
                            "pitch": 48, 
                            "t0": 119451, 
                            "v": 118, 
                            "dur": 97, 
                            "type": "note", 
                            "channel": 0
                        }, 
                        {
                            "pitch": 79, 
                            "t0": 119451, 
                            "v": 110, 
                            "dur": 100, 
                            "type": "note", 
                            "channel": 0
                        }, 
                        {
                            "pitch": 76, 
                            "t0": 119451, 
                            "v": 122, 
                            "dur": 131, 
                            "type": "note", 
                            "channel": 0
                        }
                    ]
                ], 
                [
                    119459, 
                    [
                        {
                            "pitch": 43, 
                            "t0": 119459, 
                            "v": 97, 
                            "dur": 69, 
                            "type": "note", 
                            "channel": 0
                        }
                    ]
                ], 
                [
                    119464, 
                    [
                        {
                            "pitch": 40, 
                            "t0": 119464, 
                            "v": 103, 
                            "dur": 48, 
                            "type": "note", 
                            "channel": 0
                        }
                    ]
                ], 
                [
                    119699, 
                    [
                        {
                            "pitch": 72, 
                            "t0": 119699, 
                            "v": 121, 
                            "dur": 69, 
                            "type": "note", 
                            "channel": 0
                        }, 
                        {
                            "pitch": 84, 
                            "t0": 119699, 
                            "v": 117, 
                            "dur": 77, 
                            "type": "note", 
                            "channel": 0
                        }
                    ]
                ], 
                [
                    119705, 
                    [
                        {
                            "pitch": 60, 
                            "t0": 119705, 
                            "v": 109, 
                            "dur": 85, 
                            "type": "note", 
                            "channel": 0
                        }
                    ]
                ], 
                [
                    119839, 
                    [
                        {
                            "pitch": 60, 
                            "t0": 119839, 
                            "v": 109, 
                            "dur": 77, 
                            "type": "note", 
                            "channel": 0
                        }
                    ]
                ], 
                [
                    119842, 
                    [
                        {
                            "pitch": 84, 
                            "t0": 119842, 
                            "v": 108, 
                            "dur": 60, 
                            "type": "note", 
                            "channel": 0
                        }, 
                        {
                            "pitch": 72, 
                            "t0": 119842, 
                            "v": 109, 
                            "dur": 60, 
                            "type": "note", 
                            "channel": 0
                        }
                    ]
                ], 
                [
                    119977, 
                    [
                        {
                            "pitch": 84, 
                            "t0": 119977, 
                            "v": 108, 
                            "dur": 51, 
                            "type": "note", 
                            "channel": 0
                        }, 
                        {
                            "pitch": 72, 
                            "t0": 119977, 
                            "v": 111, 
                            "dur": 68, 
                            "type": "note", 
                            "channel": 0
                        }, 
                        {
                            "pitch": 60, 
                            "t0": 119977, 
                            "v": 94, 
                            "dur": 82, 
                            "type": "note", 
                            "channel": 0
                        }
                    ]
                ], 
                [
                    120170, 
                    [
                        {
                            "pitch": 60, 
                            "t0": 120170, 
                            "v": 120, 
                            "dur": 487, 
                            "type": "note", 
                            "channel": 0
                        }, 
                        {
                            "pitch": 65, 
                            "t0": 120170, 
                            "v": 124, 
                            "dur": 513, 
                            "type": "note", 
                            "channel": 0
                        }, 
                        {
                            "pitch": 77, 
                            "t0": 120170, 
                            "v": 122, 
                            "dur": 517, 
                            "type": "note", 
                            "channel": 0
                        }, 
                        {
                            "pitch": 56, 
                            "t0": 120170, 
                            "v": 118, 
                            "dur": 535, 
                            "type": "note", 
                            "channel": 0
                        }
                    ]
                ], 
                [
                    120804, 
                    [
                        {
                            "pitch": 79, 
                            "t0": 120804, 
                            "v": 122, 
                            "dur": 246, 
                            "type": "note", 
                            "channel": 0
                        }, 
                        {
                            "pitch": 67, 
                            "t0": 120804, 
                            "v": 121, 
                            "dur": 302, 
                            "type": "note", 
                            "channel": 0
                        }
                    ]
                ], 
                [
                    120811, 
                    [
                        {
                            "pitch": 61, 
                            "t0": 120811, 
                            "v": 118, 
                            "dur": 266, 
                            "type": "note", 
                            "channel": 0
                        }
                    ]
                ], 
                [
                    120815, 
                    [
                        {
                            "pitch": 58, 
                            "t0": 120815, 
                            "v": 121, 
                            "dur": 287, 
                            "type": "note", 
                            "channel": 0
                        }
                    ]
                ], 
                [
                    121428, 
                    [
                        {
                            "pitch": 60, 
                            "t0": 121428, 
                            "v": 108, 
                            "dur": 425, 
                            "type": "note", 
                            "channel": 0
                        }, 
                        {
                            "pitch": 64, 
                            "t0": 121428, 
                            "v": 117, 
                            "dur": 430, 
                            "type": "note", 
                            "channel": 0
                        }, 
                        {
                            "pitch": 52, 
                            "t0": 121428, 
                            "v": 120, 
                            "dur": 433, 
                            "type": "note", 
                            "channel": 0
                        }
                    ]
                ], 
                [
                    121431, 
                    [
                        {
                            "pitch": 55, 
                            "t0": 121431, 
                            "v": 108, 
                            "dur": 357, 
                            "type": "note", 
                            "channel": 0
                        }
                    ]
                ], 
                [
                    121435, 
                    [
                        {
                            "pitch": 31, 
                            "t0": 121435, 
                            "v": 114, 
                            "dur": 337, 
                            "type": "note", 
                            "channel": 0
                        }, 
                        {
                            "pitch": 43, 
                            "t0": 121435, 
                            "v": 117, 
                            "dur": 426, 
                            "type": "note", 
                            "channel": 0
                        }
                    ]
                ], 
                [
                    121442, 
                    [
                        {
                            "pitch": 36, 
                            "t0": 121442, 
                            "v": 103, 
                            "dur": 368, 
                            "type": "note", 
                            "channel": 0
                        }, 
                        {
                            "pitch": 40, 
                            "t0": 121442, 
                            "v": 105, 
                            "dur": 383, 
                            "type": "note", 
                            "channel": 0
                        }
                    ]
                ], 
                [
                    122034, 
                    [
                        {
                            "pitch": 53, 
                            "t0": 122034, 
                            "v": 119, 
                            "dur": 291, 
                            "type": "note", 
                            "channel": 0
                        }, 
                        {
                            "pitch": 56, 
                            "t0": 122034, 
                            "v": 106, 
                            "dur": 317, 
                            "type": "note", 
                            "channel": 0
                        }, 
                        {
                            "pitch": 65, 
                            "t0": 122034, 
                            "v": 119, 
                            "dur": 372, 
                            "type": "note", 
                            "channel": 0
                        }
                    ]
                ], 
                [
                    122038, 
                    [
                        {
                            "pitch": 60, 
                            "t0": 122038, 
                            "v": 106, 
                            "dur": 335, 
                            "type": "note", 
                            "channel": 0
                        }
                    ]
                ], 
                [
                    122042, 
                    [
                        {
                            "pitch": 32, 
                            "t0": 122042, 
                            "v": 97, 
                            "dur": 262, 
                            "type": "note", 
                            "channel": 0
                        }, 
                        {
                            "pitch": 44, 
                            "t0": 122042, 
                            "v": 109, 
                            "dur": 340, 
                            "type": "note", 
                            "channel": 0
                        }
                    ]
                ], 
                [
                    122048, 
                    [
                        {
                            "pitch": 41, 
                            "t0": 122048, 
                            "v": 99, 
                            "dur": 298, 
                            "type": "note", 
                            "channel": 0
                        }
                    ]
                ], 
                [
                    122053, 
                    [
                        {
                            "pitch": 36, 
                            "t0": 122053, 
                            "v": 94, 
                            "dur": 259, 
                            "type": "note", 
                            "channel": 0
                        }
                    ]
                ], 
                [
                    122662, 
                    [
                        {
                            "pitch": 68, 
                            "t0": 122662, 
                            "v": 110, 
                            "dur": 577, 
                            "type": "note", 
                            "channel": 0
                        }, 
                        {
                            "pitch": 56, 
                            "t0": 122662, 
                            "v": 103, 
                            "dur": 589, 
                            "type": "note", 
                            "channel": 0
                        }, 
                        {
                            "pitch": 77, 
                            "t0": 122662, 
                            "v": 117, 
                            "dur": 611, 
                            "type": "note", 
                            "channel": 0
                        }
                    ]
                ], 
                [
                    122665, 
                    [
                        {
                            "pitch": 65, 
                            "t0": 122665, 
                            "v": 114, 
                            "dur": 558, 
                            "type": "note", 
                            "channel": 0
                        }
                    ]
                ], 
                [
                    122668, 
                    [
                        {
                            "pitch": 72, 
                            "t0": 122668, 
                            "v": 113, 
                            "dur": 472, 
                            "type": "note", 
                            "channel": 0
                        }
                    ]
                ], 
                [
                    122672, 
                    [
                        {
                            "pitch": 60, 
                            "t0": 122672, 
                            "v": 105, 
                            "dur": 584, 
                            "type": "note", 
                            "channel": 0
                        }
                    ]
                ], 
                [
                    123296, 
                    [
                        {
                            "pitch": 79, 
                            "t0": 123296, 
                            "v": 117, 
                            "dur": 292, 
                            "type": "note", 
                            "channel": 0
                        }, 
                        {
                            "pitch": 61, 
                            "t0": 123296, 
                            "v": 101, 
                            "dur": 347, 
                            "type": "note", 
                            "channel": 0
                        }, 
                        {
                            "pitch": 67, 
                            "t0": 123296, 
                            "v": 117, 
                            "dur": 350, 
                            "type": "note", 
                            "channel": 0
                        }
                    ]
                ], 
                [
                    123299, 
                    [
                        {
                            "pitch": 73, 
                            "t0": 123299, 
                            "v": 104, 
                            "dur": 328, 
                            "type": "note", 
                            "channel": 0
                        }, 
                        {
                            "pitch": 58, 
                            "t0": 123299, 
                            "v": 108, 
                            "dur": 331, 
                            "type": "note", 
                            "channel": 0
                        }
                    ]
                ], 
                [
                    123953, 
                    [
                        {
                            "pitch": 52, 
                            "t0": 123953, 
                            "v": 111, 
                            "dur": 459, 
                            "type": "note", 
                            "channel": 0
                        }, 
                        {
                            "pitch": 64, 
                            "t0": 123953, 
                            "v": 111, 
                            "dur": 478, 
                            "type": "note", 
                            "channel": 0
                        }
                    ]
                ], 
                [
                    123956, 
                    [
                        {
                            "pitch": 55, 
                            "t0": 123956, 
                            "v": 103, 
                            "dur": 401, 
                            "type": "note", 
                            "channel": 0
                        }, 
                        {
                            "pitch": 60, 
                            "t0": 123956, 
                            "v": 102, 
                            "dur": 428, 
                            "type": "note", 
                            "channel": 0
                        }
                    ]
                ], 
                [
                    123966, 
                    [
                        {
                            "pitch": 36, 
                            "t0": 123966, 
                            "v": 84, 
                            "dur": 320, 
                            "type": "note", 
                            "channel": 0
                        }, 
                        {
                            "pitch": 43, 
                            "t0": 123966, 
                            "v": 108, 
                            "dur": 460, 
                            "type": "note", 
                            "channel": 0
                        }
                    ]
                ], 
                [
                    123970, 
                    [
                        {
                            "pitch": 40, 
                            "t0": 123970, 
                            "v": 101, 
                            "dur": 392, 
                            "type": "note", 
                            "channel": 0
                        }, 
                        {
                            "pitch": 31, 
                            "t0": 123970, 
                            "v": 106, 
                            "dur": 398, 
                            "type": "note", 
                            "channel": 0
                        }
                    ]
                ], 
                [
                    124574, 
                    [
                        {
                            "pitch": 53, 
                            "t0": 124574, 
                            "v": 111, 
                            "dur": 267, 
                            "type": "note", 
                            "channel": 0
                        }, 
                        {
                            "pitch": 56, 
                            "t0": 124574, 
                            "v": 102, 
                            "dur": 295, 
                            "type": "note", 
                            "channel": 0
                        }, 
                        {
                            "pitch": 65, 
                            "t0": 124574, 
                            "v": 115, 
                            "dur": 357, 
                            "type": "note", 
                            "channel": 0
                        }
                    ]
                ], 
                [
                    124579, 
                    [
                        {
                            "pitch": 32, 
                            "t0": 124579, 
                            "v": 97, 
                            "dur": 246, 
                            "type": "note", 
                            "channel": 0
                        }, 
                        {
                            "pitch": 60, 
                            "t0": 124579, 
                            "v": 106, 
                            "dur": 316, 
                            "type": "note", 
                            "channel": 0
                        }, 
                        {
                            "pitch": 44, 
                            "t0": 124579, 
                            "v": 105, 
                            "dur": 338, 
                            "type": "note", 
                            "channel": 0
                        }
                    ]
                ], 
                [
                    124590, 
                    [
                        {
                            "pitch": 41, 
                            "t0": 124590, 
                            "v": 94, 
                            "dur": 291, 
                            "type": "note", 
                            "channel": 0
                        }
                    ]
                ], 
                [
                    124599, 
                    [
                        {
                            "pitch": 36, 
                            "t0": 124599, 
                            "v": 83, 
                            "dur": 239, 
                            "type": "note", 
                            "channel": 0
                        }
                    ]
                ], 
                [
                    125170, 
                    [
                        {
                            "pitch": 77, 
                            "t0": 125170, 
                            "v": 119, 
                            "dur": 581, 
                            "type": "note", 
                            "channel": 0
                        }
                    ]
                ], 
                [
                    125173, 
                    [
                        {
                            "pitch": 72, 
                            "t0": 125173, 
                            "v": 114, 
                            "dur": 516, 
                            "type": "note", 
                            "channel": 0
                        }, 
                        {
                            "pitch": 68, 
                            "t0": 125173, 
                            "v": 111, 
                            "dur": 578, 
                            "type": "note", 
                            "channel": 0
                        }
                    ]
                ], 
                [
                    125176, 
                    [
                        {
                            "pitch": 56, 
                            "t0": 125176, 
                            "v": 99, 
                            "dur": 616, 
                            "type": "note", 
                            "channel": 0
                        }, 
                        {
                            "pitch": 65, 
                            "t0": 125176, 
                            "v": 111, 
                            "dur": 619, 
                            "type": "note", 
                            "channel": 0
                        }
                    ]
                ], 
                [
                    125181, 
                    [
                        {
                            "pitch": 60, 
                            "t0": 125181, 
                            "v": 100, 
                            "dur": 624, 
                            "type": "note", 
                            "channel": 0
                        }
                    ]
                ], 
                [
                    125833, 
                    [
                        {
                            "pitch": 78, 
                            "t0": 125833, 
                            "v": 116, 
                            "dur": 317, 
                            "type": "note", 
                            "channel": 0
                        }, 
                        {
                            "pitch": 66, 
                            "t0": 125833, 
                            "v": 115, 
                            "dur": 356, 
                            "type": "note", 
                            "channel": 0
                        }
                    ]
                ], 
                [
                    125838, 
                    [
                        {
                            "pitch": 61, 
                            "t0": 125838, 
                            "v": 105, 
                            "dur": 329, 
                            "type": "note", 
                            "channel": 0
                        }, 
                        {
                            "pitch": 73, 
                            "t0": 125838, 
                            "v": 110, 
                            "dur": 329, 
                            "type": "note", 
                            "channel": 0
                        }
                    ]
                ], 
                [
                    125844, 
                    [
                        {
                            "pitch": 58, 
                            "t0": 125844, 
                            "v": 111, 
                            "dur": 345, 
                            "type": "note", 
                            "channel": 0
                        }
                    ]
                ], 
                [
                    126443, 
                    [
                        {
                            "pitch": 54, 
                            "t0": 126443, 
                            "v": 106, 
                            "dur": 388, 
                            "type": "note", 
                            "channel": 0
                        }, 
                        {
                            "pitch": 66, 
                            "t0": 126443, 
                            "v": 106, 
                            "dur": 462, 
                            "type": "note", 
                            "channel": 0
                        }
                    ]
                ], 
                [
                    126446, 
                    [
                        {
                            "pitch": 58, 
                            "t0": 126446, 
                            "v": 113, 
                            "dur": 421, 
                            "type": "note", 
                            "channel": 0
                        }, 
                        {
                            "pitch": 61, 
                            "t0": 126446, 
                            "v": 103, 
                            "dur": 434, 
                            "type": "note", 
                            "channel": 0
                        }
                    ]
                ], 
                [
                    126451, 
                    [
                        {
                            "pitch": 34, 
                            "t0": 126451, 
                            "v": 108, 
                            "dur": 408, 
                            "type": "note", 
                            "channel": 0
                        }, 
                        {
                            "pitch": 46, 
                            "t0": 126451, 
                            "v": 116, 
                            "dur": 412, 
                            "type": "note", 
                            "channel": 0
                        }
                    ]
                ], 
                [
                    126459, 
                    [
                        {
                            "pitch": 37, 
                            "t0": 126459, 
                            "v": 92, 
                            "dur": 408, 
                            "type": "note", 
                            "channel": 0
                        }
                    ]
                ], 
                [
                    126462, 
                    [
                        {
                            "pitch": 42, 
                            "t0": 126462, 
                            "v": 90, 
                            "dur": 393, 
                            "type": "note", 
                            "channel": 0
                        }
                    ]
                ], 
                [
                    127078, 
                    [
                        {
                            "pitch": 57, 
                            "t0": 127078, 
                            "v": 114, 
                            "dur": 274, 
                            "type": "note", 
                            "channel": 0
                        }, 
                        {
                            "pitch": 69, 
                            "t0": 127078, 
                            "v": 115, 
                            "dur": 337, 
                            "type": "note", 
                            "channel": 0
                        }
                    ]
                ], 
                [
                    127081, 
                    [
                        {
                            "pitch": 63, 
                            "t0": 127081, 
                            "v": 100, 
                            "dur": 312, 
                            "type": "note", 
                            "channel": 0
                        }
                    ]
                ], 
                [
                    127084, 
                    [
                        {
                            "pitch": 60, 
                            "t0": 127084, 
                            "v": 107, 
                            "dur": 276, 
                            "type": "note", 
                            "channel": 0
                        }
                    ]
                ], 
                [
                    127087, 
                    [
                        {
                            "pitch": 41, 
                            "t0": 127087, 
                            "v": 85, 
                            "dur": 225, 
                            "type": "note", 
                            "channel": 0
                        }, 
                        {
                            "pitch": 36, 
                            "t0": 127087, 
                            "v": 95, 
                            "dur": 259, 
                            "type": "note", 
                            "channel": 0
                        }, 
                        {
                            "pitch": 48, 
                            "t0": 127087, 
                            "v": 108, 
                            "dur": 322, 
                            "type": "note", 
                            "channel": 0
                        }
                    ]
                ], 
                [
                    127090, 
                    [
                        {
                            "pitch": 45, 
                            "t0": 127090, 
                            "v": 103, 
                            "dur": 280, 
                            "type": "note", 
                            "channel": 0
                        }
                    ]
                ], 
                [
                    127714, 
                    [
                        {
                            "pitch": 69, 
                            "t0": 127714, 
                            "v": 118, 
                            "dur": 506, 
                            "type": "note", 
                            "channel": 0
                        }, 
                        {
                            "pitch": 81, 
                            "t0": 127714, 
                            "v": 120, 
                            "dur": 509, 
                            "type": "note", 
                            "channel": 0
                        }, 
                        {
                            "pitch": 75, 
                            "t0": 127714, 
                            "v": 107, 
                            "dur": 551, 
                            "type": "note", 
                            "channel": 0
                        }
                    ]
                ], 
                [
                    127717, 
                    [
                        {
                            "pitch": 65, 
                            "t0": 127717, 
                            "v": 110, 
                            "dur": 478, 
                            "type": "note", 
                            "channel": 0
                        }
                    ]
                ], 
                [
                    127721, 
                    [
                        {
                            "pitch": 60, 
                            "t0": 127721, 
                            "v": 108, 
                            "dur": 647, 
                            "type": "note", 
                            "channel": 0
                        }, 
                        {
                            "pitch": 63, 
                            "t0": 127721, 
                            "v": 100, 
                            "dur": 664, 
                            "type": "note", 
                            "channel": 0
                        }
                    ]
                ], 
                [
                    128346, 
                    [
                        {
                            "pitch": 82, 
                            "t0": 128346, 
                            "v": 121, 
                            "dur": 284, 
                            "type": "note", 
                            "channel": 0
                        }
                    ]
                ], 
                [
                    128351, 
                    [
                        {
                            "pitch": 65, 
                            "t0": 128351, 
                            "v": 111, 
                            "dur": 256, 
                            "type": "note", 
                            "channel": 0
                        }, 
                        {
                            "pitch": 61, 
                            "t0": 128351, 
                            "v": 100, 
                            "dur": 304, 
                            "type": "note", 
                            "channel": 0
                        }, 
                        {
                            "pitch": 70, 
                            "t0": 128351, 
                            "v": 117, 
                            "dur": 332, 
                            "type": "note", 
                            "channel": 0
                        }
                    ]
                ], 
                [
                    128354, 
                    [
                        {
                            "pitch": 73, 
                            "t0": 128354, 
                            "v": 103, 
                            "dur": 301, 
                            "type": "note", 
                            "channel": 0
                        }
                    ]
                ], 
                [
                    128984, 
                    [
                        {
                            "pitch": 58, 
                            "t0": 128984, 
                            "v": 113, 
                            "dur": 318, 
                            "type": "note", 
                            "channel": 0
                        }, 
                        {
                            "pitch": 61, 
                            "t0": 128984, 
                            "v": 100, 
                            "dur": 361, 
                            "type": "note", 
                            "channel": 0
                        }, 
                        {
                            "pitch": 70, 
                            "t0": 128984, 
                            "v": 113, 
                            "dur": 428, 
                            "type": "note", 
                            "channel": 0
                        }
                    ]
                ], 
                [
                    128987, 
                    [
                        {
                            "pitch": 37, 
                            "t0": 128987, 
                            "v": 88, 
                            "dur": 342, 
                            "type": "note", 
                            "channel": 0
                        }
                    ]
                ], 
                [
                    128990, 
                    [
                        {
                            "pitch": 65, 
                            "t0": 128990, 
                            "v": 103, 
                            "dur": 381, 
                            "type": "note", 
                            "channel": 0
                        }, 
                        {
                            "pitch": 49, 
                            "t0": 128990, 
                            "v": 95, 
                            "dur": 412, 
                            "type": "note", 
                            "channel": 0
                        }
                    ]
                ], 
                [
                    128998, 
                    [
                        {
                            "pitch": 46, 
                            "t0": 128998, 
                            "v": 98, 
                            "dur": 401, 
                            "type": "note", 
                            "channel": 0
                        }
                    ]
                ], 
                [
                    129003, 
                    [
                        {
                            "pitch": 41, 
                            "t0": 129003, 
                            "v": 79, 
                            "dur": 374, 
                            "type": "note", 
                            "channel": 0
                        }
                    ]
                ], 
                [
                    129667, 
                    [
                        {
                            "pitch": 83, 
                            "t0": 129667, 
                            "v": 102, 
                            "dur": 337, 
                            "type": "note", 
                            "channel": 0
                        }, 
                        {
                            "pitch": 71, 
                            "t0": 129667, 
                            "v": 96, 
                            "dur": 406, 
                            "type": "note", 
                            "channel": 0
                        }
                    ]
                ], 
                [
                    129671, 
                    [
                        {
                            "pitch": 78, 
                            "t0": 129671, 
                            "v": 93, 
                            "dur": 376, 
                            "type": "note", 
                            "channel": 0
                        }, 
                        {
                            "pitch": 75, 
                            "t0": 129671, 
                            "v": 93, 
                            "dur": 379, 
                            "type": "note", 
                            "channel": 0
                        }
                    ]
                ], 
                [
                    129674, 
                    [
                        {
                            "pitch": 66, 
                            "t0": 129674, 
                            "v": 102, 
                            "dur": 334, 
                            "type": "note", 
                            "channel": 0
                        }
                    ]
                ], 
                [
                    129680, 
                    [
                        {
                            "pitch": 63, 
                            "t0": 129680, 
                            "v": 91, 
                            "dur": 367, 
                            "type": "note", 
                            "channel": 0
                        }
                    ]
                ], 
                [
                    130313, 
                    [
                        {
                            "pitch": 59, 
                            "t0": 130313, 
                            "v": 90, 
                            "dur": 270, 
                            "type": "note", 
                            "channel": 0
                        }, 
                        {
                            "pitch": 63, 
                            "t0": 130313, 
                            "v": 87, 
                            "dur": 297, 
                            "type": "note", 
                            "channel": 0
                        }, 
                        {
                            "pitch": 66, 
                            "t0": 130313, 
                            "v": 84, 
                            "dur": 311, 
                            "type": "note", 
                            "channel": 0
                        }, 
                        {
                            "pitch": 71, 
                            "t0": 130313, 
                            "v": 96, 
                            "dur": 326, 
                            "type": "note", 
                            "channel": 0
                        }, 
                        {
                            "pitch": 51, 
                            "t0": 130313, 
                            "v": 86, 
                            "dur": 326, 
                            "type": "note", 
                            "channel": 0
                        }
                    ]
                ], 
                [
                    130321, 
                    [
                        {
                            "pitch": 39, 
                            "t0": 130321, 
                            "v": 79, 
                            "dur": 262, 
                            "type": "note", 
                            "channel": 0
                        }
                    ]
                ], 
                [
                    130329, 
                    [
                        {
                            "pitch": 47, 
                            "t0": 130329, 
                            "v": 70, 
                            "dur": 273, 
                            "type": "note", 
                            "channel": 0
                        }
                    ]
                ], 
                [
                    130332, 
                    [
                        {
                            "pitch": 42, 
                            "t0": 130332, 
                            "v": 67, 
                            "dur": 278, 
                            "type": "note", 
                            "channel": 0
                        }
                    ]
                ], 
                [
                    130965, 
                    [
                        {
                            "pitch": 85, 
                            "t0": 130965, 
                            "v": 104, 
                            "dur": 292, 
                            "type": "note", 
                            "channel": 0
                        }, 
                        {
                            "pitch": 73, 
                            "t0": 130965, 
                            "v": 99, 
                            "dur": 347, 
                            "type": "note", 
                            "channel": 0
                        }
                    ]
                ], 
                [
                    130970, 
                    [
                        {
                            "pitch": 80, 
                            "t0": 130970, 
                            "v": 92, 
                            "dur": 317, 
                            "type": "note", 
                            "channel": 0
                        }
                    ]
                ], 
                [
                    130976, 
                    [
                        {
                            "pitch": 65, 
                            "t0": 130976, 
                            "v": 87, 
                            "dur": 247, 
                            "type": "note", 
                            "channel": 0
                        }, 
                        {
                            "pitch": 77, 
                            "t0": 130976, 
                            "v": 101, 
                            "dur": 297, 
                            "type": "note", 
                            "channel": 0
                        }
                    ]
                ], 
                [
                    130979, 
                    [
                        {
                            "pitch": 61, 
                            "t0": 130979, 
                            "v": 70, 
                            "dur": 281, 
                            "type": "note", 
                            "channel": 0
                        }
                    ]
                ], 
                [
                    131616, 
                    [
                        {
                            "pitch": 61, 
                            "t0": 131616, 
                            "v": 84, 
                            "dur": 226, 
                            "type": "note", 
                            "channel": 0
                        }, 
                        {
                            "pitch": 68, 
                            "t0": 131616, 
                            "v": 81, 
                            "dur": 284, 
                            "type": "note", 
                            "channel": 0
                        }, 
                        {
                            "pitch": 73, 
                            "t0": 131616, 
                            "v": 92, 
                            "dur": 314, 
                            "type": "note", 
                            "channel": 0
                        }
                    ]
                ], 
                [
                    131624, 
                    [
                        {
                            "pitch": 49, 
                            "t0": 131624, 
                            "v": 57, 
                            "dur": 262, 
                            "type": "note", 
                            "channel": 0
                        }
                    ]
                ], 
                [
                    131627, 
                    [
                        {
                            "pitch": 65, 
                            "t0": 131627, 
                            "v": 89, 
                            "dur": 243, 
                            "type": "note", 
                            "channel": 0
                        }, 
                        {
                            "pitch": 53, 
                            "t0": 131627, 
                            "v": 59, 
                            "dur": 273, 
                            "type": "note", 
                            "channel": 0
                        }
                    ]
                ], 
                [
                    131635, 
                    [
                        {
                            "pitch": 41, 
                            "t0": 131635, 
                            "v": 51, 
                            "dur": 202, 
                            "type": "note", 
                            "channel": 0
                        }, 
                        {
                            "pitch": 44, 
                            "t0": 131635, 
                            "v": 44, 
                            "dur": 238, 
                            "type": "note", 
                            "channel": 0
                        }
                    ]
                ], 
                [
                    132246, 
                    [
                        {
                            "pitch": 85, 
                            "t0": 132246, 
                            "v": 93, 
                            "dur": 301, 
                            "type": "note", 
                            "channel": 0
                        }, 
                        {
                            "pitch": 73, 
                            "t0": 132246, 
                            "v": 83, 
                            "dur": 359, 
                            "type": "note", 
                            "channel": 0
                        }
                    ]
                ], 
                [
                    132251, 
                    [
                        {
                            "pitch": 69, 
                            "t0": 132251, 
                            "v": 74, 
                            "dur": 260, 
                            "type": "note", 
                            "channel": 0
                        }
                    ]
                ], 
                [
                    132256, 
                    [
                        {
                            "pitch": 81, 
                            "t0": 132256, 
                            "v": 87, 
                            "dur": 299, 
                            "type": "note", 
                            "channel": 0
                        }
                    ]
                ], 
                [
                    132259, 
                    [
                        {
                            "pitch": 66, 
                            "t0": 132259, 
                            "v": 58, 
                            "dur": 291, 
                            "type": "note", 
                            "channel": 0
                        }
                    ]
                ], 
                [
                    132934, 
                    [
                        {
                            "pitch": 61, 
                            "t0": 132934, 
                            "v": 62, 
                            "dur": 233, 
                            "type": "note", 
                            "channel": 0
                        }
                    ]
                ], 
                [
                    132942, 
                    [
                        {
                            "pitch": 42, 
                            "t0": 132942, 
                            "v": 28, 
                            "dur": 175, 
                            "type": "note", 
                            "channel": 0
                        }, 
                        {
                            "pitch": 49, 
                            "t0": 132942, 
                            "v": 12, 
                            "dur": 211, 
                            "type": "note", 
                            "channel": 0
                        }, 
                        {
                            "pitch": 54, 
                            "t0": 132942, 
                            "v": 37, 
                            "dur": 260, 
                            "type": "note", 
                            "channel": 0
                        }
                    ]
                ], 
                [
                    132953, 
                    [
                        {
                            "pitch": 57, 
                            "t0": 132953, 
                            "v": 56, 
                            "dur": 184, 
                            "type": "note", 
                            "channel": 0
                        }
                    ]
                ], 
                [
                    133599, 
                    [
                        {
                            "pitch": 85, 
                            "t0": 133599, 
                            "v": 76, 
                            "dur": 246, 
                            "type": "note", 
                            "channel": 0
                        }
                    ]
                ], 
                [
                    133603, 
                    [
                        {
                            "pitch": 73, 
                            "t0": 133603, 
                            "v": 61, 
                            "dur": 292, 
                            "type": "note", 
                            "channel": 0
                        }
                    ]
                ], 
                [
                    133613, 
                    [
                        {
                            "pitch": 69, 
                            "t0": 133613, 
                            "v": 51, 
                            "dur": 170, 
                            "type": "note", 
                            "channel": 0
                        }, 
                        {
                            "pitch": 78, 
                            "t0": 133613, 
                            "v": 52, 
                            "dur": 252, 
                            "type": "note", 
                            "channel": 0
                        }
                    ]
                ], 
                [
                    133624, 
                    [
                        {
                            "pitch": 66, 
                            "t0": 133624, 
                            "v": 40, 
                            "dur": 201, 
                            "type": "note", 
                            "channel": 0
                        }
                    ]
                ], 
                [
                    134245, 
                    [
                        {
                            "pitch": 42, 
                            "t0": 134245, 
                            "v": 30, 
                            "dur": 188, 
                            "type": "note", 
                            "channel": 0
                        }, 
                        {
                            "pitch": 54, 
                            "t0": 134245, 
                            "v": 32, 
                            "dur": 224, 
                            "type": "note", 
                            "channel": 0
                        }
                    ]
                ], 
                [
                    134248, 
                    [
                        {
                            "pitch": 49, 
                            "t0": 134248, 
                            "v": 27, 
                            "dur": 195, 
                            "type": "note", 
                            "channel": 0
                        }, 
                        {
                            "pitch": 57, 
                            "t0": 134248, 
                            "v": 41, 
                            "dur": 216, 
                            "type": "note", 
                            "channel": 0
                        }, 
                        {
                            "pitch": 61, 
                            "t0": 134248, 
                            "v": 42, 
                            "dur": 245, 
                            "type": "note", 
                            "channel": 0
                        }
                    ]
                ], 
                [
                    134917, 
                    [
                        {
                            "pitch": 73, 
                            "t0": 134917, 
                            "v": 55, 
                            "dur": 276, 
                            "type": "note", 
                            "channel": 0
                        }
                    ]
                ], 
                [
                    134920, 
                    [
                        {
                            "pitch": 69, 
                            "t0": 134920, 
                            "v": 41, 
                            "dur": 172, 
                            "type": "note", 
                            "channel": 0
                        }, 
                        {
                            "pitch": 81, 
                            "t0": 134920, 
                            "v": 50, 
                            "dur": 212, 
                            "type": "note", 
                            "channel": 0
                        }, 
                        {
                            "pitch": 66, 
                            "t0": 134920, 
                            "v": 34, 
                            "dur": 215, 
                            "type": "note", 
                            "channel": 0
                        }
                    ]
                ], 
                [
                    134923, 
                    [
                        {
                            "pitch": 85, 
                            "t0": 134923, 
                            "v": 65, 
                            "dur": 225, 
                            "type": "note", 
                            "channel": 0
                        }
                    ]
                ], 
                [
                    135580, 
                    [
                        {
                            "pitch": 61, 
                            "t0": 135580, 
                            "v": 38, 
                            "dur": 215, 
                            "type": "note", 
                            "channel": 0
                        }
                    ]
                ], 
                [
                    135592, 
                    [
                        {
                            "pitch": 57, 
                            "t0": 135592, 
                            "v": 37, 
                            "dur": 164, 
                            "type": "note", 
                            "channel": 0
                        }, 
                        {
                            "pitch": 42, 
                            "t0": 135592, 
                            "v": 24, 
                            "dur": 170, 
                            "type": "note", 
                            "channel": 0
                        }, 
                        {
                            "pitch": 54, 
                            "t0": 135592, 
                            "v": 18, 
                            "dur": 181, 
                            "type": "note", 
                            "channel": 0
                        }
                    ]
                ], 
                [
                    135603, 
                    [
                        {
                            "pitch": 49, 
                            "t0": 135603, 
                            "v": 22, 
                            "dur": 170, 
                            "type": "note", 
                            "channel": 0
                        }
                    ]
                ], 
                [
                    136274, 
                    [
                        {
                            "pitch": 69, 
                            "t0": 136274, 
                            "v": 38, 
                            "dur": 184, 
                            "type": "note", 
                            "channel": 0
                        }, 
                        {
                            "pitch": 66, 
                            "t0": 136274, 
                            "v": 36, 
                            "dur": 217, 
                            "type": "note", 
                            "channel": 0
                        }, 
                        {
                            "pitch": 81, 
                            "t0": 136274, 
                            "v": 56, 
                            "dur": 247, 
                            "type": "note", 
                            "channel": 0
                        }, 
                        {
                            "pitch": 74, 
                            "t0": 136274, 
                            "v": 45, 
                            "dur": 273, 
                            "type": "note", 
                            "channel": 0
                        }
                    ]
                ], 
                [
                    136278, 
                    [
                        {
                            "pitch": 86, 
                            "t0": 136278, 
                            "v": 48, 
                            "dur": 231, 
                            "type": "note", 
                            "channel": 0
                        }
                    ]
                ], 
                [
                    136900, 
                    [
                        {
                            "pitch": 62, 
                            "t0": 136900, 
                            "v": 37, 
                            "dur": 190, 
                            "type": "note", 
                            "channel": 0
                        }
                    ]
                ], 
                [
                    136912, 
                    [
                        {
                            "pitch": 50, 
                            "t0": 136912, 
                            "v": 27, 
                            "dur": 119, 
                            "type": "note", 
                            "channel": 0
                        }, 
                        {
                            "pitch": 57, 
                            "t0": 136912, 
                            "v": 35, 
                            "dur": 141, 
                            "type": "note", 
                            "channel": 0
                        }
                    ]
                ], 
                [
                    136917, 
                    [
                        {
                            "pitch": 42, 
                            "t0": 136917, 
                            "v": 19, 
                            "dur": 165, 
                            "type": "note", 
                            "channel": 0
                        }, 
                        {
                            "pitch": 54, 
                            "t0": 136917, 
                            "v": 25, 
                            "dur": 196, 
                            "type": "note", 
                            "channel": 0
                        }
                    ]
                ], 
                [
                    137511, 
                    [
                        {
                            "pitch": 86, 
                            "t0": 137511, 
                            "v": 46, 
                            "dur": 184, 
                            "type": "note", 
                            "channel": 0
                        }
                    ]
                ], 
                [
                    137521, 
                    [
                        {
                            "pitch": 66, 
                            "t0": 137521, 
                            "v": 23, 
                            "dur": 140, 
                            "type": "note", 
                            "channel": 0
                        }, 
                        {
                            "pitch": 81, 
                            "t0": 137521, 
                            "v": 30, 
                            "dur": 177, 
                            "type": "note", 
                            "channel": 0
                        }
                    ]
                ], 
                [
                    137524, 
                    [
                        {
                            "pitch": 74, 
                            "t0": 137524, 
                            "v": 41, 
                            "dur": 96, 
                            "type": "note", 
                            "channel": 0
                        }
                    ]
                ], 
                [
                    137530, 
                    [
                        {
                            "pitch": 69, 
                            "t0": 137530, 
                            "v": 29, 
                            "dur": 95, 
                            "type": "note", 
                            "channel": 0
                        }
                    ]
                ], 
                [
                    138155, 
                    [
                        {
                            "pitch": 57, 
                            "t0": 138155, 
                            "v": 27, 
                            "dur": 147, 
                            "type": "note", 
                            "channel": 0
                        }, 
                        {
                            "pitch": 42, 
                            "t0": 138155, 
                            "v": 18, 
                            "dur": 161, 
                            "type": "note", 
                            "channel": 0
                        }, 
                        {
                            "pitch": 62, 
                            "t0": 138155, 
                            "v": 29, 
                            "dur": 185, 
                            "type": "note", 
                            "channel": 0
                        }
                    ]
                ], 
                [
                    138158, 
                    [
                        {
                            "pitch": 50, 
                            "t0": 138158, 
                            "v": 24, 
                            "dur": 140, 
                            "type": "note", 
                            "channel": 0
                        }, 
                        {
                            "pitch": 54, 
                            "t0": 138158, 
                            "v": 24, 
                            "dur": 189, 
                            "type": "note", 
                            "channel": 0
                        }
                    ]
                ], 
                [
                    138823, 
                    [
                        {
                            "pitch": 74, 
                            "t0": 138823, 
                            "v": 39, 
                            "dur": 139, 
                            "type": "note", 
                            "channel": 0
                        }
                    ]
                ], 
                [
                    138828, 
                    [
                        {
                            "pitch": 69, 
                            "t0": 138828, 
                            "v": 31, 
                            "dur": 107, 
                            "type": "note", 
                            "channel": 0
                        }, 
                        {
                            "pitch": 66, 
                            "t0": 138828, 
                            "v": 28, 
                            "dur": 115, 
                            "type": "note", 
                            "channel": 0
                        }, 
                        {
                            "pitch": 81, 
                            "t0": 138828, 
                            "v": 33, 
                            "dur": 150, 
                            "type": "note", 
                            "channel": 0
                        }, 
                        {
                            "pitch": 86, 
                            "t0": 138828, 
                            "v": 52, 
                            "dur": 192, 
                            "type": "note", 
                            "channel": 0
                        }
                    ]
                ], 
                [
                    139491, 
                    [
                        {
                            "pitch": 57, 
                            "t0": 139491, 
                            "v": 30, 
                            "dur": 109, 
                            "type": "note", 
                            "channel": 0
                        }, 
                        {
                            "pitch": 54, 
                            "t0": 139491, 
                            "v": 15, 
                            "dur": 140, 
                            "type": "note", 
                            "channel": 0
                        }
                    ]
                ], 
                [
                    139494, 
                    [
                        {
                            "pitch": 50, 
                            "t0": 139494, 
                            "v": 16, 
                            "dur": 106, 
                            "type": "note", 
                            "channel": 0
                        }, 
                        {
                            "pitch": 42, 
                            "t0": 139494, 
                            "v": 16, 
                            "dur": 134, 
                            "type": "note", 
                            "channel": 0
                        }, 
                        {
                            "pitch": 62, 
                            "t0": 139494, 
                            "v": 31, 
                            "dur": 176, 
                            "type": "note", 
                            "channel": 0
                        }
                    ]
                ], 
                [
                    140140, 
                    [
                        {
                            "pitch": 69, 
                            "t0": 140140, 
                            "v": 29, 
                            "dur": 82, 
                            "type": "note", 
                            "channel": 0
                        }, 
                        {
                            "pitch": 66, 
                            "t0": 140140, 
                            "v": 24, 
                            "dur": 92, 
                            "type": "note", 
                            "channel": 0
                        }, 
                        {
                            "pitch": 74, 
                            "t0": 140140, 
                            "v": 28, 
                            "dur": 111, 
                            "type": "note", 
                            "channel": 0
                        }, 
                        {
                            "pitch": 81, 
                            "t0": 140140, 
                            "v": 33, 
                            "dur": 126, 
                            "type": "note", 
                            "channel": 0
                        }, 
                        {
                            "pitch": 86, 
                            "t0": 140140, 
                            "v": 34, 
                            "dur": 167, 
                            "type": "note", 
                            "channel": 0
                        }
                    ]
                ], 
                [
                    140840, 
                    [
                        {
                            "pitch": 62, 
                            "t0": 140840, 
                            "v": 22, 
                            "dur": 47, 
                            "type": "note", 
                            "channel": 0
                        }, 
                        {
                            "pitch": 42, 
                            "t0": 140840, 
                            "v": 13, 
                            "dur": 80, 
                            "type": "note", 
                            "channel": 0
                        }
                    ]
                ], 
                [
                    140846, 
                    [
                        {
                            "pitch": 54, 
                            "t0": 140846, 
                            "v": 17, 
                            "dur": 58, 
                            "type": "note", 
                            "channel": 0
                        }
                    ]
                ], 
                [
                    141138, 
                    [
                        {
                            "pitch": 86, 
                            "t0": 141138, 
                            "v": 124, 
                            "dur": 67, 
                            "type": "note", 
                            "channel": 0
                        }, 
                        {
                            "pitch": 74, 
                            "t0": 141138, 
                            "v": 127, 
                            "dur": 78, 
                            "type": "note", 
                            "channel": 0
                        }
                    ]
                ], 
                [
                    141141, 
                    [
                        {
                            "pitch": 50, 
                            "t0": 141141, 
                            "v": 123, 
                            "dur": 69, 
                            "type": "note", 
                            "channel": 0
                        }
                    ]
                ], 
                [
                    141144, 
                    [
                        {
                            "pitch": 38, 
                            "t0": 141144, 
                            "v": 119, 
                            "dur": 46, 
                            "type": "note", 
                            "channel": 0
                        }
                    ]
                ], 
                [
                    141280, 
                    [
                        {
                            "pitch": 50, 
                            "t0": 141280, 
                            "v": 110, 
                            "dur": 70, 
                            "type": "note", 
                            "channel": 0
                        }, 
                        {
                            "pitch": 74, 
                            "t0": 141280, 
                            "v": 120, 
                            "dur": 70, 
                            "type": "note", 
                            "channel": 0
                        }
                    ]
                ], 
                [
                    141285, 
                    [
                        {
                            "pitch": 38, 
                            "t0": 141285, 
                            "v": 106, 
                            "dur": 50, 
                            "type": "note", 
                            "channel": 0
                        }, 
                        {
                            "pitch": 86, 
                            "t0": 141285, 
                            "v": 113, 
                            "dur": 68, 
                            "type": "note", 
                            "channel": 0
                        }
                    ]
                ], 
                [
                    141421, 
                    [
                        {
                            "pitch": 50, 
                            "t0": 141421, 
                            "v": 110, 
                            "dur": 70, 
                            "type": "note", 
                            "channel": 0
                        }, 
                        {
                            "pitch": 74, 
                            "t0": 141421, 
                            "v": 117, 
                            "dur": 79, 
                            "type": "note", 
                            "channel": 0
                        }, 
                        {
                            "pitch": 86, 
                            "t0": 141421, 
                            "v": 107, 
                            "dur": 85, 
                            "type": "note", 
                            "channel": 0
                        }
                    ]
                ], 
                [
                    141427, 
                    [
                        {
                            "pitch": 38, 
                            "t0": 141427, 
                            "v": 107, 
                            "dur": 53, 
                            "type": "note", 
                            "channel": 0
                        }
                    ]
                ], 
                [
                    141591, 
                    [
                        {
                            "pitch": 35, 
                            "t0": 141591, 
                            "v": 116, 
                            "dur": 516, 
                            "type": "note", 
                            "channel": 0
                        }, 
                        {
                            "pitch": 47, 
                            "t0": 141591, 
                            "v": 121, 
                            "dur": 524, 
                            "type": "note", 
                            "channel": 0
                        }, 
                        {
                            "pitch": 74, 
                            "t0": 141591, 
                            "v": 127, 
                            "dur": 527, 
                            "type": "note", 
                            "channel": 0
                        }, 
                        {
                            "pitch": 86, 
                            "t0": 141591, 
                            "v": 121, 
                            "dur": 536, 
                            "type": "note", 
                            "channel": 0
                        }
                    ]
                ], 
                [
                    141594, 
                    [
                        {
                            "pitch": 38, 
                            "t0": 141594, 
                            "v": 121, 
                            "dur": 550, 
                            "type": "note", 
                            "channel": 0
                        }, 
                        {
                            "pitch": 83, 
                            "t0": 141594, 
                            "v": 119, 
                            "dur": 555, 
                            "type": "note", 
                            "channel": 0
                        }
                    ]
                ], 
                [
                    142266, 
                    [
                        {
                            "pitch": 48, 
                            "t0": 142266, 
                            "v": 127, 
                            "dur": 590, 
                            "type": "note", 
                            "channel": 0
                        }, 
                        {
                            "pitch": 86, 
                            "t0": 142266, 
                            "v": 125, 
                            "dur": 602, 
                            "type": "note", 
                            "channel": 0
                        }, 
                        {
                            "pitch": 36, 
                            "t0": 142266, 
                            "v": 123, 
                            "dur": 607, 
                            "type": "note", 
                            "channel": 0
                        }, 
                        {
                            "pitch": 74, 
                            "t0": 142266, 
                            "v": 127, 
                            "dur": 615, 
                            "type": "note", 
                            "channel": 0
                        }, 
                        {
                            "pitch": 84, 
                            "t0": 142266, 
                            "v": 125, 
                            "dur": 632, 
                            "type": "note", 
                            "channel": 0
                        }
                    ]
                ], 
                [
                    142271, 
                    [
                        {
                            "pitch": 38, 
                            "t0": 142271, 
                            "v": 116, 
                            "dur": 610, 
                            "type": "note", 
                            "channel": 0
                        }
                    ]
                ], 
                [
                    143045, 
                    [
                        {
                            "pitch": 33, 
                            "t0": 143045, 
                            "v": 121, 
                            "dur": 1442, 
                            "type": "note", 
                            "channel": 0
                        }, 
                        {
                            "pitch": 38, 
                            "t0": 143045, 
                            "v": 120, 
                            "dur": 1481, 
                            "type": "note", 
                            "channel": 0
                        }, 
                        {
                            "pitch": 45, 
                            "t0": 143045, 
                            "v": 125, 
                            "dur": 1500, 
                            "type": "note", 
                            "channel": 0
                        }, 
                        {
                            "pitch": 74, 
                            "t0": 143045, 
                            "v": 127, 
                            "dur": 1631, 
                            "type": "note", 
                            "channel": 0
                        }, 
                        {
                            "pitch": 86, 
                            "t0": 143045, 
                            "v": 125, 
                            "dur": 1656, 
                            "type": "note", 
                            "channel": 0
                        }, 
                        {
                            "pitch": 81, 
                            "t0": 143045, 
                            "v": 124, 
                            "dur": 1666, 
                            "type": "note", 
                            "channel": 0
                        }
                    ]
                ], 
                [
                    145294, 
                    [
                        {
                            "pitch": 74, 
                            "t0": 145294, 
                            "v": 38, 
                            "dur": 292, 
                            "type": "note", 
                            "channel": 0
                        }
                    ]
                ], 
                [
                    145302, 
                    [
                        {
                            "pitch": 86, 
                            "t0": 145302, 
                            "v": 45, 
                            "dur": 287, 
                            "type": "note", 
                            "channel": 0
                        }, 
                        {
                            "pitch": 80, 
                            "t0": 145302, 
                            "v": 41, 
                            "dur": 320, 
                            "type": "note", 
                            "channel": 0
                        }
                    ]
                ], 
                [
                    145305, 
                    [
                        {
                            "pitch": 65, 
                            "t0": 145305, 
                            "v": 35, 
                            "dur": 254, 
                            "type": "note", 
                            "channel": 0
                        }, 
                        {
                            "pitch": 68, 
                            "t0": 145305, 
                            "v": 29, 
                            "dur": 296, 
                            "type": "note", 
                            "channel": 0
                        }
                    ]
                ], 
                [
                    145311, 
                    [
                        {
                            "pitch": 59, 
                            "t0": 145311, 
                            "v": 30, 
                            "dur": 283, 
                            "type": "note", 
                            "channel": 0
                        }
                    ]
                ], 
                [
                    146023, 
                    [
                        {
                            "pitch": 56, 
                            "t0": 146023, 
                            "v": 27, 
                            "dur": 191, 
                            "type": "note", 
                            "channel": 0
                        }, 
                        {
                            "pitch": 62, 
                            "t0": 146023, 
                            "v": 32, 
                            "dur": 224, 
                            "type": "note", 
                            "channel": 0
                        }
                    ]
                ], 
                [
                    146026, 
                    [
                        {
                            "pitch": 53, 
                            "t0": 146026, 
                            "v": 25, 
                            "dur": 148, 
                            "type": "note", 
                            "channel": 0
                        }
                    ]
                ], 
                [
                    146030, 
                    [
                        {
                            "pitch": 47, 
                            "t0": 146030, 
                            "v": 25, 
                            "dur": 155, 
                            "type": "note", 
                            "channel": 0
                        }
                    ]
                ], 
                [
                    146700, 
                    [
                        {
                            "pitch": 74, 
                            "t0": 146700, 
                            "v": 42, 
                            "dur": 157, 
                            "type": "note", 
                            "channel": 0
                        }, 
                        {
                            "pitch": 86, 
                            "t0": 146700, 
                            "v": 35, 
                            "dur": 233, 
                            "type": "note", 
                            "channel": 0
                        }, 
                        {
                            "pitch": 80, 
                            "t0": 146700, 
                            "v": 26, 
                            "dur": 237, 
                            "type": "note", 
                            "channel": 0
                        }
                    ]
                ], 
                [
                    146707, 
                    [
                        {
                            "pitch": 59, 
                            "t0": 146707, 
                            "v": 22, 
                            "dur": 173, 
                            "type": "note", 
                            "channel": 0
                        }
                    ]
                ], 
                [
                    146711, 
                    [
                        {
                            "pitch": 65, 
                            "t0": 146711, 
                            "v": 28, 
                            "dur": 117, 
                            "type": "note", 
                            "channel": 0
                        }
                    ]
                ], 
                [
                    146715, 
                    [
                        {
                            "pitch": 68, 
                            "t0": 146715, 
                            "v": 20, 
                            "dur": 191, 
                            "type": "note", 
                            "channel": 0
                        }
                    ]
                ], 
                [
                    147394, 
                    [
                        {
                            "pitch": 56, 
                            "t0": 147394, 
                            "v": 32, 
                            "dur": 167, 
                            "type": "note", 
                            "channel": 0
                        }, 
                        {
                            "pitch": 62, 
                            "t0": 147394, 
                            "v": 30, 
                            "dur": 199, 
                            "type": "note", 
                            "channel": 0
                        }
                    ]
                ], 
                [
                    147398, 
                    [
                        {
                            "pitch": 53, 
                            "t0": 147398, 
                            "v": 29, 
                            "dur": 136, 
                            "type": "note", 
                            "channel": 0
                        }, 
                        {
                            "pitch": 47, 
                            "t0": 147398, 
                            "v": 14, 
                            "dur": 177, 
                            "type": "note", 
                            "channel": 0
                        }
                    ]
                ], 
                [
                    148040, 
                    [
                        {
                            "pitch": 68, 
                            "t0": 148040, 
                            "v": 27, 
                            "dur": 115, 
                            "type": "note", 
                            "channel": 0
                        }, 
                        {
                            "pitch": 80, 
                            "t0": 148040, 
                            "v": 36, 
                            "dur": 167, 
                            "type": "note", 
                            "channel": 0
                        }, 
                        {
                            "pitch": 86, 
                            "t0": 148040, 
                            "v": 36, 
                            "dur": 185, 
                            "type": "note", 
                            "channel": 0
                        }
                    ]
                ], 
                [
                    148047, 
                    [
                        {
                            "pitch": 74, 
                            "t0": 148047, 
                            "v": 34, 
                            "dur": 116, 
                            "type": "note", 
                            "channel": 0
                        }
                    ]
                ], 
                [
                    148053, 
                    [
                        {
                            "pitch": 59, 
                            "t0": 148053, 
                            "v": 23, 
                            "dur": 110, 
                            "type": "note", 
                            "channel": 0
                        }
                    ]
                ], 
                [
                    148724, 
                    [
                        {
                            "pitch": 56, 
                            "t0": 148724, 
                            "v": 32, 
                            "dur": 85, 
                            "type": "note", 
                            "channel": 0
                        }
                    ]
                ], 
                [
                    148731, 
                    [
                        {
                            "pitch": 62, 
                            "t0": 148731, 
                            "v": 33, 
                            "dur": 137, 
                            "type": "note", 
                            "channel": 0
                        }
                    ]
                ], 
                [
                    148737, 
                    [
                        {
                            "pitch": 47, 
                            "t0": 148737, 
                            "v": 20, 
                            "dur": 109, 
                            "type": "note", 
                            "channel": 0
                        }, 
                        {
                            "pitch": 53, 
                            "t0": 148737, 
                            "v": 22, 
                            "dur": 109, 
                            "type": "note", 
                            "channel": 0
                        }
                    ]
                ], 
                [
                    149420, 
                    [
                        {
                            "pitch": 86, 
                            "t0": 149420, 
                            "v": 36, 
                            "dur": 116, 
                            "type": "note", 
                            "channel": 0
                        }
                    ]
                ], 
                [
                    149423, 
                    [
                        {
                            "pitch": 74, 
                            "t0": 149423, 
                            "v": 31, 
                            "dur": 66, 
                            "type": "note", 
                            "channel": 0
                        }
                    ]
                ], 
                [
                    149428, 
                    [
                        {
                            "pitch": 80, 
                            "t0": 149428, 
                            "v": 27, 
                            "dur": 117, 
                            "type": "note", 
                            "channel": 0
                        }
                    ]
                ], 
                [
                    149440, 
                    [
                        {
                            "pitch": 68, 
                            "t0": 149440, 
                            "v": 21, 
                            "dur": 88, 
                            "type": "note", 
                            "channel": 0
                        }
                    ]
                ], 
                [
                    149444, 
                    [
                        {
                            "pitch": 59, 
                            "t0": 149444, 
                            "v": 13, 
                            "dur": 101, 
                            "type": "note", 
                            "channel": 0
                        }
                    ]
                ], 
                [
                    149450, 
                    [
                        {
                            "pitch": 65, 
                            "t0": 149450, 
                            "v": 20, 
                            "dur": 61, 
                            "type": "note", 
                            "channel": 0
                        }
                    ]
                ], 
                [
                    150033, 
                    [
                        {
                            "pitch": 56, 
                            "t0": 150033, 
                            "v": 30, 
                            "dur": 52, 
                            "type": "note", 
                            "channel": 0
                        }, 
                        {
                            "pitch": 62, 
                            "t0": 150033, 
                            "v": 42, 
                            "dur": 52, 
                            "type": "note", 
                            "channel": 0
                        }
                    ]
                ], 
                [
                    150054, 
                    [
                        {
                            "pitch": 47, 
                            "t0": 150054, 
                            "v": 31, 
                            "dur": 37, 
                            "type": "note", 
                            "channel": 0
                        }
                    ]
                ], 
                [
                    150196, 
                    [
                        {
                            "pitch": 56, 
                            "t0": 150196, 
                            "v": 120, 
                            "dur": 49, 
                            "type": "note", 
                            "channel": 0
                        }, 
                        {
                            "pitch": 44, 
                            "t0": 150196, 
                            "v": 110, 
                            "dur": 49, 
                            "type": "note", 
                            "channel": 0
                        }
                    ]
                ], 
                [
                    150330, 
                    [
                        {
                            "pitch": 56, 
                            "t0": 150330, 
                            "v": 105, 
                            "dur": 62, 
                            "type": "note", 
                            "channel": 0
                        }
                    ]
                ], 
                [
                    150334, 
                    [
                        {
                            "pitch": 44, 
                            "t0": 150334, 
                            "v": 103, 
                            "dur": 74, 
                            "type": "note", 
                            "channel": 0
                        }
                    ]
                ], 
                [
                    150472, 
                    [
                        {
                            "pitch": 56, 
                            "t0": 150472, 
                            "v": 111, 
                            "dur": 71, 
                            "type": "note", 
                            "channel": 0
                        }, 
                        {
                            "pitch": 44, 
                            "t0": 150472, 
                            "v": 102, 
                            "dur": 74, 
                            "type": "note", 
                            "channel": 0
                        }
                    ]
                ], 
                [
                    150612, 
                    [
                        {
                            "pitch": 41, 
                            "t0": 150612, 
                            "v": 122, 
                            "dur": 580, 
                            "type": "note", 
                            "channel": 0
                        }, 
                        {
                            "pitch": 53, 
                            "t0": 150612, 
                            "v": 124, 
                            "dur": 596, 
                            "type": "note", 
                            "channel": 0
                        }
                    ]
                ], 
                [
                    150748, 
                    [
                        {
                            "pitch": 68, 
                            "t0": 150748, 
                            "v": 115, 
                            "dur": 57, 
                            "type": "note", 
                            "channel": 0
                        }
                    ]
                ], 
                [
                    150752, 
                    [
                        {
                            "pitch": 80, 
                            "t0": 150752, 
                            "v": 113, 
                            "dur": 60, 
                            "type": "note", 
                            "channel": 0
                        }
                    ]
                ], 
                [
                    150898, 
                    [
                        {
                            "pitch": 68, 
                            "t0": 150898, 
                            "v": 107, 
                            "dur": 57, 
                            "type": "note", 
                            "channel": 0
                        }, 
                        {
                            "pitch": 80, 
                            "t0": 150898, 
                            "v": 103, 
                            "dur": 60, 
                            "type": "note", 
                            "channel": 0
                        }
                    ]
                ], 
                [
                    151036, 
                    [
                        {
                            "pitch": 68, 
                            "t0": 151036, 
                            "v": 102, 
                            "dur": 75, 
                            "type": "note", 
                            "channel": 0
                        }
                    ]
                ], 
                [
                    151039, 
                    [
                        {
                            "pitch": 80, 
                            "t0": 151039, 
                            "v": 102, 
                            "dur": 63, 
                            "type": "note", 
                            "channel": 0
                        }
                    ]
                ], 
                [
                    151183, 
                    [
                        {
                            "pitch": 65, 
                            "t0": 151183, 
                            "v": 125, 
                            "dur": 351, 
                            "type": "note", 
                            "channel": 0
                        }, 
                        {
                            "pitch": 77, 
                            "t0": 151183, 
                            "v": 126, 
                            "dur": 409, 
                            "type": "note", 
                            "channel": 0
                        }
                    ]
                ], 
                [
                    151330, 
                    [
                        {
                            "pitch": 56, 
                            "t0": 151330, 
                            "v": 116, 
                            "dur": 59, 
                            "type": "note", 
                            "channel": 0
                        }
                    ]
                ], 
                [
                    151333, 
                    [
                        {
                            "pitch": 44, 
                            "t0": 151333, 
                            "v": 107, 
                            "dur": 28, 
                            "type": "note", 
                            "channel": 0
                        }
                    ]
                ], 
                [
                    151459, 
                    [
                        {
                            "pitch": 56, 
                            "t0": 151459, 
                            "v": 100, 
                            "dur": 70, 
                            "type": "note", 
                            "channel": 0
                        }
                    ]
                ], 
                [
                    151465, 
                    [
                        {
                            "pitch": 44, 
                            "t0": 151465, 
                            "v": 114, 
                            "dur": 58, 
                            "type": "note", 
                            "channel": 0
                        }
                    ]
                ], 
                [
                    151592, 
                    [
                        {
                            "pitch": 56, 
                            "t0": 151592, 
                            "v": 103, 
                            "dur": 98, 
                            "type": "note", 
                            "channel": 0
                        }
                    ]
                ], 
                [
                    151600, 
                    [
                        {
                            "pitch": 44, 
                            "t0": 151600, 
                            "v": 96, 
                            "dur": 98, 
                            "type": "note", 
                            "channel": 0
                        }
                    ]
                ], 
                [
                    151751, 
                    [
                        {
                            "pitch": 41, 
                            "t0": 151751, 
                            "v": 123, 
                            "dur": 577, 
                            "type": "note", 
                            "channel": 0
                        }, 
                        {
                            "pitch": 53, 
                            "t0": 151751, 
                            "v": 126, 
                            "dur": 586, 
                            "type": "note", 
                            "channel": 0
                        }
                    ]
                ], 
                [
                    151894, 
                    [
                        {
                            "pitch": 80, 
                            "t0": 151894, 
                            "v": 120, 
                            "dur": 50, 
                            "type": "note", 
                            "channel": 0
                        }
                    ]
                ], 
                [
                    151897, 
                    [
                        {
                            "pitch": 92, 
                            "t0": 151897, 
                            "v": 116, 
                            "dur": 60, 
                            "type": "note", 
                            "channel": 0
                        }
                    ]
                ], 
                [
                    152036, 
                    [
                        {
                            "pitch": 80, 
                            "t0": 152036, 
                            "v": 109, 
                            "dur": 53, 
                            "type": "note", 
                            "channel": 0
                        }, 
                        {
                            "pitch": 92, 
                            "t0": 152036, 
                            "v": 106, 
                            "dur": 63, 
                            "type": "note", 
                            "channel": 0
                        }
                    ]
                ], 
                [
                    152169, 
                    [
                        {
                            "pitch": 80, 
                            "t0": 152169, 
                            "v": 106, 
                            "dur": 97, 
                            "type": "note", 
                            "channel": 0
                        }
                    ]
                ], 
                [
                    152172, 
                    [
                        {
                            "pitch": 92, 
                            "t0": 152172, 
                            "v": 100, 
                            "dur": 73, 
                            "type": "note", 
                            "channel": 0
                        }
                    ]
                ], 
                [
                    152314, 
                    [
                        {
                            "pitch": 89, 
                            "t0": 152314, 
                            "v": 120, 
                            "dur": 401, 
                            "type": "note", 
                            "channel": 0
                        }, 
                        {
                            "pitch": 77, 
                            "t0": 152314, 
                            "v": 127, 
                            "dur": 457, 
                            "type": "note", 
                            "channel": 0
                        }
                    ]
                ], 
                [
                    152445, 
                    [
                        {
                            "pitch": 56, 
                            "t0": 152445, 
                            "v": 115, 
                            "dur": 55, 
                            "type": "note", 
                            "channel": 0
                        }, 
                        {
                            "pitch": 44, 
                            "t0": 152445, 
                            "v": 108, 
                            "dur": 67, 
                            "type": "note", 
                            "channel": 0
                        }
                    ]
                ], 
                [
                    152584, 
                    [
                        {
                            "pitch": 56, 
                            "t0": 152584, 
                            "v": 103, 
                            "dur": 78, 
                            "type": "note", 
                            "channel": 0
                        }
                    ]
                ], 
                [
                    152589, 
                    [
                        {
                            "pitch": 44, 
                            "t0": 152589, 
                            "v": 101, 
                            "dur": 57, 
                            "type": "note", 
                            "channel": 0
                        }
                    ]
                ], 
                [
                    152715, 
                    [
                        {
                            "pitch": 56, 
                            "t0": 152715, 
                            "v": 101, 
                            "dur": 97, 
                            "type": "note", 
                            "channel": 0
                        }
                    ]
                ], 
                [
                    152723, 
                    [
                        {
                            "pitch": 44, 
                            "t0": 152723, 
                            "v": 93, 
                            "dur": 70, 
                            "type": "note", 
                            "channel": 0
                        }
                    ]
                ], 
                [
                    152863, 
                    [
                        {
                            "pitch": 53, 
                            "t0": 152863, 
                            "v": 107, 
                            "dur": 27, 
                            "type": "note", 
                            "channel": 0
                        }, 
                        {
                            "pitch": 41, 
                            "t0": 152863, 
                            "v": 111, 
                            "dur": 66, 
                            "type": "note", 
                            "channel": 0
                        }
                    ]
                ], 
                [
                    152999, 
                    [
                        {
                            "pitch": 32, 
                            "t0": 152999, 
                            "v": 113, 
                            "dur": 22, 
                            "type": "note", 
                            "channel": 0
                        }, 
                        {
                            "pitch": 44, 
                            "t0": 152999, 
                            "v": 107, 
                            "dur": 40, 
                            "type": "note", 
                            "channel": 0
                        }, 
                        {
                            "pitch": 68, 
                            "t0": 152999, 
                            "v": 117, 
                            "dur": 65, 
                            "type": "note", 
                            "channel": 0
                        }, 
                        {
                            "pitch": 80, 
                            "t0": 152999, 
                            "v": 116, 
                            "dur": 73, 
                            "type": "note", 
                            "channel": 0
                        }
                    ]
                ], 
                [
                    153136, 
                    [
                        {
                            "pitch": 68, 
                            "t0": 153136, 
                            "v": 106, 
                            "dur": 77, 
                            "type": "note", 
                            "channel": 0
                        }
                    ]
                ], 
                [
                    153139, 
                    [
                        {
                            "pitch": 44, 
                            "t0": 153139, 
                            "v": 109, 
                            "dur": 60, 
                            "type": "note", 
                            "channel": 0
                        }, 
                        {
                            "pitch": 80, 
                            "t0": 153139, 
                            "v": 106, 
                            "dur": 67, 
                            "type": "note", 
                            "channel": 0
                        }
                    ]
                ], 
                [
                    153142, 
                    [
                        {
                            "pitch": 32, 
                            "t0": 153142, 
                            "v": 107, 
                            "dur": 33, 
                            "type": "note", 
                            "channel": 0
                        }
                    ]
                ], 
                [
                    153267, 
                    [
                        {
                            "pitch": 44, 
                            "t0": 153267, 
                            "v": 96, 
                            "dur": 58, 
                            "type": "note", 
                            "channel": 0
                        }
                    ]
                ], 
                [
                    153270, 
                    [
                        {
                            "pitch": 68, 
                            "t0": 153270, 
                            "v": 105, 
                            "dur": 80, 
                            "type": "note", 
                            "channel": 0
                        }
                    ]
                ], 
                [
                    153275, 
                    [
                        {
                            "pitch": 32, 
                            "t0": 153275, 
                            "v": 110, 
                            "dur": 81, 
                            "type": "note", 
                            "channel": 0
                        }, 
                        {
                            "pitch": 80, 
                            "t0": 153275, 
                            "v": 103, 
                            "dur": 81, 
                            "type": "note", 
                            "channel": 0
                        }
                    ]
                ], 
                [
                    153412, 
                    [
                        {
                            "pitch": 29, 
                            "t0": 153412, 
                            "v": 119, 
                            "dur": 42, 
                            "type": "note", 
                            "channel": 0
                        }, 
                        {
                            "pitch": 41, 
                            "t0": 153412, 
                            "v": 122, 
                            "dur": 52, 
                            "type": "note", 
                            "channel": 0
                        }, 
                        {
                            "pitch": 65, 
                            "t0": 153412, 
                            "v": 124, 
                            "dur": 63, 
                            "type": "note", 
                            "channel": 0
                        }
                    ]
                ], 
                [
                    153417, 
                    [
                        {
                            "pitch": 77, 
                            "t0": 153417, 
                            "v": 119, 
                            "dur": 64, 
                            "type": "note", 
                            "channel": 0
                        }
                    ]
                ], 
                [
                    153643, 
                    [
                        {
                            "pitch": 56, 
                            "t0": 153643, 
                            "v": 111, 
                            "dur": 75, 
                            "type": "note", 
                            "channel": 0
                        }
                    ]
                ], 
                [
                    153648, 
                    [
                        {
                            "pitch": 44, 
                            "t0": 153648, 
                            "v": 98, 
                            "dur": 56, 
                            "type": "note", 
                            "channel": 0
                        }
                    ]
                ], 
                [
                    153654, 
                    [
                        {
                            "pitch": 80, 
                            "t0": 153654, 
                            "v": 111, 
                            "dur": 64, 
                            "type": "note", 
                            "channel": 0
                        }, 
                        {
                            "pitch": 92, 
                            "t0": 153654, 
                            "v": 107, 
                            "dur": 70, 
                            "type": "note", 
                            "channel": 0
                        }
                    ]
                ], 
                [
                    153779, 
                    [
                        {
                            "pitch": 56, 
                            "t0": 153779, 
                            "v": 99, 
                            "dur": 73, 
                            "type": "note", 
                            "channel": 0
                        }
                    ]
                ], 
                [
                    153784, 
                    [
                        {
                            "pitch": 80, 
                            "t0": 153784, 
                            "v": 107, 
                            "dur": 54, 
                            "type": "note", 
                            "channel": 0
                        }, 
                        {
                            "pitch": 44, 
                            "t0": 153784, 
                            "v": 96, 
                            "dur": 65, 
                            "type": "note", 
                            "channel": 0
                        }, 
                        {
                            "pitch": 92, 
                            "t0": 153784, 
                            "v": 104, 
                            "dur": 74, 
                            "type": "note", 
                            "channel": 0
                        }
                    ]
                ], 
                [
                    153918, 
                    [
                        {
                            "pitch": 56, 
                            "t0": 153918, 
                            "v": 96, 
                            "dur": 70, 
                            "type": "note", 
                            "channel": 0
                        }, 
                        {
                            "pitch": 92, 
                            "t0": 153918, 
                            "v": 102, 
                            "dur": 76, 
                            "type": "note", 
                            "channel": 0
                        }, 
                        {
                            "pitch": 80, 
                            "t0": 153918, 
                            "v": 105, 
                            "dur": 85, 
                            "type": "note", 
                            "channel": 0
                        }
                    ]
                ], 
                [
                    153924, 
                    [
                        {
                            "pitch": 44, 
                            "t0": 153924, 
                            "v": 90, 
                            "dur": 64, 
                            "type": "note", 
                            "channel": 0
                        }
                    ]
                ], 
                [
                    154060, 
                    [
                        {
                            "pitch": 89, 
                            "t0": 154060, 
                            "v": 115, 
                            "dur": 20, 
                            "type": "note", 
                            "channel": 0
                        }, 
                        {
                            "pitch": 53, 
                            "t0": 154060, 
                            "v": 108, 
                            "dur": 28, 
                            "type": "note", 
                            "channel": 0
                        }, 
                        {
                            "pitch": 41, 
                            "t0": 154060, 
                            "v": 117, 
                            "dur": 28, 
                            "type": "note", 
                            "channel": 0
                        }
                    ]
                ], 
                [
                    154063, 
                    [
                        {
                            "pitch": 77, 
                            "t0": 154063, 
                            "v": 121, 
                            "dur": 29, 
                            "type": "note", 
                            "channel": 0
                        }
                    ]
                ], 
                [
                    154191, 
                    [
                        {
                            "pitch": 44, 
                            "t0": 154191, 
                            "v": 104, 
                            "dur": 39, 
                            "type": "note", 
                            "channel": 0
                        }, 
                        {
                            "pitch": 80, 
                            "t0": 154191, 
                            "v": 110, 
                            "dur": 57, 
                            "type": "note", 
                            "channel": 0
                        }
                    ]
                ], 
                [
                    154195, 
                    [
                        {
                            "pitch": 32, 
                            "t0": 154195, 
                            "v": 110, 
                            "dur": 22, 
                            "type": "note", 
                            "channel": 0
                        }, 
                        {
                            "pitch": 68, 
                            "t0": 154195, 
                            "v": 111, 
                            "dur": 61, 
                            "type": "note", 
                            "channel": 0
                        }
                    ]
                ], 
                [
                    154322, 
                    [
                        {
                            "pitch": 68, 
                            "t0": 154322, 
                            "v": 101, 
                            "dur": 57, 
                            "type": "note", 
                            "channel": 0
                        }
                    ]
                ], 
                [
                    154326, 
                    [
                        {
                            "pitch": 80, 
                            "t0": 154326, 
                            "v": 100, 
                            "dur": 71, 
                            "type": "note", 
                            "channel": 0
                        }, 
                        {
                            "pitch": 44, 
                            "t0": 154326, 
                            "v": 104, 
                            "dur": 71, 
                            "type": "note", 
                            "channel": 0
                        }
                    ]
                ], 
                [
                    154329, 
                    [
                        {
                            "pitch": 32, 
                            "t0": 154329, 
                            "v": 105, 
                            "dur": 44, 
                            "type": "note", 
                            "channel": 0
                        }
                    ]
                ], 
                [
                    154461, 
                    [
                        {
                            "pitch": 80, 
                            "t0": 154461, 
                            "v": 106, 
                            "dur": 71, 
                            "type": "note", 
                            "channel": 0
                        }, 
                        {
                            "pitch": 68, 
                            "t0": 154461, 
                            "v": 110, 
                            "dur": 84, 
                            "type": "note", 
                            "channel": 0
                        }
                    ]
                ], 
                [
                    154464, 
                    [
                        {
                            "pitch": 44, 
                            "t0": 154464, 
                            "v": 84, 
                            "dur": 56, 
                            "type": "note", 
                            "channel": 0
                        }
                    ]
                ], 
                [
                    154468, 
                    [
                        {
                            "pitch": 32, 
                            "t0": 154468, 
                            "v": 112, 
                            "dur": 92, 
                            "type": "note", 
                            "channel": 0
                        }
                    ]
                ], 
                [
                    154620, 
                    [
                        {
                            "pitch": 29, 
                            "t0": 154620, 
                            "v": 120, 
                            "dur": 45, 
                            "type": "note", 
                            "channel": 0
                        }, 
                        {
                            "pitch": 41, 
                            "t0": 154620, 
                            "v": 119, 
                            "dur": 61, 
                            "type": "note", 
                            "channel": 0
                        }, 
                        {
                            "pitch": 65, 
                            "t0": 154620, 
                            "v": 124, 
                            "dur": 71, 
                            "type": "note", 
                            "channel": 0
                        }
                    ]
                ], 
                [
                    154623, 
                    [
                        {
                            "pitch": 77, 
                            "t0": 154623, 
                            "v": 122, 
                            "dur": 87, 
                            "type": "note", 
                            "channel": 0
                        }
                    ]
                ], 
                [
                    154794, 
                    [
                        {
                            "pitch": 79, 
                            "t0": 154794, 
                            "v": 125, 
                            "dur": 103, 
                            "type": "note", 
                            "channel": 0
                        }, 
                        {
                            "pitch": 67, 
                            "t0": 154794, 
                            "v": 127, 
                            "dur": 103, 
                            "type": "note", 
                            "channel": 0
                        }
                    ]
                ], 
                [
                    154797, 
                    [
                        {
                            "pitch": 31, 
                            "t0": 154797, 
                            "v": 125, 
                            "dur": 91, 
                            "type": "note", 
                            "channel": 0
                        }, 
                        {
                            "pitch": 43, 
                            "t0": 154797, 
                            "v": 125, 
                            "dur": 91, 
                            "type": "note", 
                            "channel": 0
                        }
                    ]
                ], 
                [
                    154955, 
                    [
                        {
                            "pitch": 79, 
                            "t0": 154955, 
                            "v": 113, 
                            "dur": 84, 
                            "type": "note", 
                            "channel": 0
                        }
                    ]
                ], 
                [
                    154958, 
                    [
                        {
                            "pitch": 67, 
                            "t0": 154958, 
                            "v": 111, 
                            "dur": 67, 
                            "type": "note", 
                            "channel": 0
                        }, 
                        {
                            "pitch": 43, 
                            "t0": 154958, 
                            "v": 112, 
                            "dur": 72, 
                            "type": "note", 
                            "channel": 0
                        }
                    ]
                ], 
                [
                    154961, 
                    [
                        {
                            "pitch": 31, 
                            "t0": 154961, 
                            "v": 111, 
                            "dur": 64, 
                            "type": "note", 
                            "channel": 0
                        }
                    ]
                ], 
                [
                    155144, 
                    [
                        {
                            "pitch": 31, 
                            "t0": 155144, 
                            "v": 125, 
                            "dur": 47, 
                            "type": "note", 
                            "channel": 0
                        }, 
                        {
                            "pitch": 79, 
                            "t0": 155144, 
                            "v": 125, 
                            "dur": 47, 
                            "type": "note", 
                            "channel": 0
                        }, 
                        {
                            "pitch": 43, 
                            "t0": 155144, 
                            "v": 124, 
                            "dur": 51, 
                            "type": "note", 
                            "channel": 0
                        }, 
                        {
                            "pitch": 67, 
                            "t0": 155144, 
                            "v": 126, 
                            "dur": 73, 
                            "type": "note", 
                            "channel": 0
                        }
                    ]
                ], 
                [
                    155445, 
                    [
                        {
                            "pitch": 39, 
                            "t0": 155445, 
                            "v": 125, 
                            "dur": 140, 
                            "type": "note", 
                            "channel": 0
                        }, 
                        {
                            "pitch": 55, 
                            "t0": 155445, 
                            "v": 124, 
                            "dur": 1669, 
                            "type": "note", 
                            "channel": 0
                        }, 
                        {
                            "pitch": 63, 
                            "t0": 155445, 
                            "v": 101, 
                            "dur": 1722, 
                            "type": "note", 
                            "channel": 0
                        }
                    ]
                ], 
                [
                    155450, 
                    [
                        {
                            "pitch": 27, 
                            "t0": 155450, 
                            "v": 122, 
                            "dur": 107, 
                            "type": "note", 
                            "channel": 0
                        }, 
                        {
                            "pitch": 31, 
                            "t0": 155450, 
                            "v": 109, 
                            "dur": 110, 
                            "type": "note", 
                            "channel": 0
                        }, 
                        {
                            "pitch": 67, 
                            "t0": 155450, 
                            "v": 121, 
                            "dur": 1753, 
                            "type": "note", 
                            "channel": 0
                        }
                    ]
                ], 
                [
                    155596, 
                    [
                        {
                            "pitch": 27, 
                            "t0": 155596, 
                            "v": 105, 
                            "dur": 81, 
                            "type": "note", 
                            "channel": 0
                        }
                    ]
                ], 
                [
                    155606, 
                    [
                        {
                            "pitch": 31, 
                            "t0": 155606, 
                            "v": 107, 
                            "dur": 89, 
                            "type": "note", 
                            "channel": 0
                        }
                    ]
                ], 
                [
                    155659, 
                    [
                        {
                            "pitch": 39, 
                            "t0": 155659, 
                            "v": 103, 
                            "dur": 79, 
                            "type": "note", 
                            "channel": 0
                        }
                    ]
                ], 
                [
                    155723, 
                    [
                        {
                            "pitch": 27, 
                            "t0": 155723, 
                            "v": 101, 
                            "dur": 84, 
                            "type": "note", 
                            "channel": 0
                        }
                    ]
                ], 
                [
                    155738, 
                    [
                        {
                            "pitch": 31, 
                            "t0": 155738, 
                            "v": 92, 
                            "dur": 72, 
                            "type": "note", 
                            "channel": 0
                        }
                    ]
                ], 
                [
                    155777, 
                    [
                        {
                            "pitch": 39, 
                            "t0": 155777, 
                            "v": 106, 
                            "dur": 74, 
                            "type": "note", 
                            "channel": 0
                        }
                    ]
                ], 
                [
                    155846, 
                    [
                        {
                            "pitch": 27, 
                            "t0": 155846, 
                            "v": 110, 
                            "dur": 59, 
                            "type": "note", 
                            "channel": 0
                        }
                    ]
                ], 
                [
                    155851, 
                    [
                        {
                            "pitch": 31, 
                            "t0": 155851, 
                            "v": 93, 
                            "dur": 74, 
                            "type": "note", 
                            "channel": 0
                        }
                    ]
                ], 
                [
                    155891, 
                    [
                        {
                            "pitch": 39, 
                            "t0": 155891, 
                            "v": 105, 
                            "dur": 89, 
                            "type": "note", 
                            "channel": 0
                        }
                    ]
                ], 
                [
                    155952, 
                    [
                        {
                            "pitch": 27, 
                            "t0": 155952, 
                            "v": 103, 
                            "dur": 67, 
                            "type": "note", 
                            "channel": 0
                        }
                    ]
                ], 
                [
                    155963, 
                    [
                        {
                            "pitch": 31, 
                            "t0": 155963, 
                            "v": 105, 
                            "dur": 76, 
                            "type": "note", 
                            "channel": 0
                        }
                    ]
                ], 
                [
                    156005, 
                    [
                        {
                            "pitch": 39, 
                            "t0": 156005, 
                            "v": 87, 
                            "dur": 76, 
                            "type": "note", 
                            "channel": 0
                        }
                    ]
                ], 
                [
                    156066, 
                    [
                        {
                            "pitch": 27, 
                            "t0": 156066, 
                            "v": 106, 
                            "dur": 70, 
                            "type": "note", 
                            "channel": 0
                        }
                    ]
                ], 
                [
                    156081, 
                    [
                        {
                            "pitch": 31, 
                            "t0": 156081, 
                            "v": 107, 
                            "dur": 85, 
                            "type": "note", 
                            "channel": 0
                        }
                    ]
                ], 
                [
                    156124, 
                    [
                        {
                            "pitch": 39, 
                            "t0": 156124, 
                            "v": 105, 
                            "dur": 85, 
                            "type": "note", 
                            "channel": 0
                        }
                    ]
                ], 
                [
                    156191, 
                    [
                        {
                            "pitch": 27, 
                            "t0": 156191, 
                            "v": 98, 
                            "dur": 62, 
                            "type": "note", 
                            "channel": 0
                        }
                    ]
                ], 
                [
                    156197, 
                    [
                        {
                            "pitch": 31, 
                            "t0": 156197, 
                            "v": 87, 
                            "dur": 84, 
                            "type": "note", 
                            "channel": 0
                        }
                    ]
                ], 
                [
                    156245, 
                    [
                        {
                            "pitch": 39, 
                            "t0": 156245, 
                            "v": 109, 
                            "dur": 75, 
                            "type": "note", 
                            "channel": 0
                        }
                    ]
                ], 
                [
                    156314, 
                    [
                        {
                            "pitch": 27, 
                            "t0": 156314, 
                            "v": 92, 
                            "dur": 57, 
                            "type": "note", 
                            "channel": 0
                        }
                    ]
                ], 
                [
                    156320, 
                    [
                        {
                            "pitch": 31, 
                            "t0": 156320, 
                            "v": 87, 
                            "dur": 78, 
                            "type": "note", 
                            "channel": 0
                        }
                    ]
                ], 
                [
                    156368, 
                    [
                        {
                            "pitch": 39, 
                            "t0": 156368, 
                            "v": 100, 
                            "dur": 75, 
                            "type": "note", 
                            "channel": 0
                        }
                    ]
                ], 
                [
                    156434, 
                    [
                        {
                            "pitch": 31, 
                            "t0": 156434, 
                            "v": 89, 
                            "dur": 92, 
                            "type": "note", 
                            "channel": 0
                        }
                    ]
                ], 
                [
                    156443, 
                    [
                        {
                            "pitch": 27, 
                            "t0": 156443, 
                            "v": 81, 
                            "dur": 39, 
                            "type": "note", 
                            "channel": 0
                        }
                    ]
                ], 
                [
                    156487, 
                    [
                        {
                            "pitch": 39, 
                            "t0": 156487, 
                            "v": 99, 
                            "dur": 81, 
                            "type": "note", 
                            "channel": 0
                        }
                    ]
                ], 
                [
                    156559, 
                    [
                        {
                            "pitch": 27, 
                            "t0": 156559, 
                            "v": 84, 
                            "dur": 62, 
                            "type": "note", 
                            "channel": 0
                        }, 
                        {
                            "pitch": 31, 
                            "t0": 156559, 
                            "v": 83, 
                            "dur": 206, 
                            "type": "note", 
                            "channel": 0
                        }
                    ]
                ], 
                [
                    156613, 
                    [
                        {
                            "pitch": 39, 
                            "t0": 156613, 
                            "v": 91, 
                            "dur": 77, 
                            "type": "note", 
                            "channel": 0
                        }
                    ]
                ], 
                [
                    156668, 
                    [
                        {
                            "pitch": 27, 
                            "t0": 156668, 
                            "v": 96, 
                            "dur": 73, 
                            "type": "note", 
                            "channel": 0
                        }
                    ]
                ], 
                [
                    156737, 
                    [
                        {
                            "pitch": 39, 
                            "t0": 156737, 
                            "v": 88, 
                            "dur": 81, 
                            "type": "note", 
                            "channel": 0
                        }
                    ]
                ], 
                [
                    156788, 
                    [
                        {
                            "pitch": 27, 
                            "t0": 156788, 
                            "v": 95, 
                            "dur": 87, 
                            "type": "note", 
                            "channel": 0
                        }
                    ]
                ], 
                [
                    156805, 
                    [
                        {
                            "pitch": 31, 
                            "t0": 156805, 
                            "v": 89, 
                            "dur": 97, 
                            "type": "note", 
                            "channel": 0
                        }
                    ]
                ], 
                [
                    156871, 
                    [
                        {
                            "pitch": 39, 
                            "t0": 156871, 
                            "v": 92, 
                            "dur": 118, 
                            "type": "note", 
                            "channel": 0
                        }
                    ]
                ], 
                [
                    156943, 
                    [
                        {
                            "pitch": 31, 
                            "t0": 156943, 
                            "v": 116, 
                            "dur": 84, 
                            "type": "note", 
                            "channel": 0
                        }
                    ]
                ], 
                [
                    156946, 
                    [
                        {
                            "pitch": 27, 
                            "t0": 156946, 
                            "v": 99, 
                            "dur": 81, 
                            "type": "note", 
                            "channel": 0
                        }
                    ]
                ], 
                [
                    158131, 
                    [
                        {
                            "pitch": 29, 
                            "t0": 158131, 
                            "v": 119, 
                            "dur": 80, 
                            "type": "note", 
                            "channel": 0
                        }, 
                        {
                            "pitch": 41, 
                            "t0": 158131, 
                            "v": 123, 
                            "dur": 88, 
                            "type": "note", 
                            "channel": 0
                        }, 
                        {
                            "pitch": 43, 
                            "t0": 158131, 
                            "v": 121, 
                            "dur": 88, 
                            "type": "note", 
                            "channel": 0
                        }, 
                        {
                            "pitch": 31, 
                            "t0": 158131, 
                            "v": 119, 
                            "dur": 92, 
                            "type": "note", 
                            "channel": 0
                        }, 
                        {
                            "pitch": 67, 
                            "t0": 158131, 
                            "v": 125, 
                            "dur": 97, 
                            "type": "note", 
                            "channel": 0
                        }, 
                        {
                            "pitch": 77, 
                            "t0": 158131, 
                            "v": 124, 
                            "dur": 103, 
                            "type": "note", 
                            "channel": 0
                        }
                    ]
                ], 
                [
                    158134, 
                    [
                        {
                            "pitch": 65, 
                            "t0": 158134, 
                            "v": 123, 
                            "dur": 73, 
                            "type": "note", 
                            "channel": 0
                        }, 
                        {
                            "pitch": 79, 
                            "t0": 158134, 
                            "v": 121, 
                            "dur": 89, 
                            "type": "note", 
                            "channel": 0
                        }
                    ]
                ], 
                [
                    158286, 
                    [
                        {
                            "pitch": 67, 
                            "t0": 158286, 
                            "v": 114, 
                            "dur": 67, 
                            "type": "note", 
                            "channel": 0
                        }, 
                        {
                            "pitch": 79, 
                            "t0": 158286, 
                            "v": 111, 
                            "dur": 75, 
                            "type": "note", 
                            "channel": 0
                        }, 
                        {
                            "pitch": 41, 
                            "t0": 158286, 
                            "v": 110, 
                            "dur": 79, 
                            "type": "note", 
                            "channel": 0
                        }
                    ]
                ], 
                [
                    158289, 
                    [
                        {
                            "pitch": 65, 
                            "t0": 158289, 
                            "v": 115, 
                            "dur": 64, 
                            "type": "note", 
                            "channel": 0
                        }, 
                        {
                            "pitch": 29, 
                            "t0": 158289, 
                            "v": 106, 
                            "dur": 68, 
                            "type": "note", 
                            "channel": 0
                        }, 
                        {
                            "pitch": 31, 
                            "t0": 158289, 
                            "v": 103, 
                            "dur": 76, 
                            "type": "note", 
                            "channel": 0
                        }, 
                        {
                            "pitch": 77, 
                            "t0": 158289, 
                            "v": 115, 
                            "dur": 79, 
                            "type": "note", 
                            "channel": 0
                        }
                    ]
                ], 
                [
                    158297, 
                    [
                        {
                            "pitch": 43, 
                            "t0": 158297, 
                            "v": 98, 
                            "dur": 68, 
                            "type": "note", 
                            "channel": 0
                        }
                    ]
                ], 
                [
                    158428, 
                    [
                        {
                            "pitch": 79, 
                            "t0": 158428, 
                            "v": 110, 
                            "dur": 45, 
                            "type": "note", 
                            "channel": 0
                        }, 
                        {
                            "pitch": 67, 
                            "t0": 158428, 
                            "v": 115, 
                            "dur": 65, 
                            "type": "note", 
                            "channel": 0
                        }, 
                        {
                            "pitch": 77, 
                            "t0": 158428, 
                            "v": 113, 
                            "dur": 68, 
                            "type": "note", 
                            "channel": 0
                        }
                    ]
                ], 
                [
                    158431, 
                    [
                        {
                            "pitch": 41, 
                            "t0": 158431, 
                            "v": 115, 
                            "dur": 62, 
                            "type": "note", 
                            "channel": 0
                        }, 
                        {
                            "pitch": 65, 
                            "t0": 158431, 
                            "v": 115, 
                            "dur": 78, 
                            "type": "note", 
                            "channel": 0
                        }, 
                        {
                            "pitch": 31, 
                            "t0": 158431, 
                            "v": 114, 
                            "dur": 84, 
                            "type": "note", 
                            "channel": 0
                        }
                    ]
                ], 
                [
                    158437, 
                    [
                        {
                            "pitch": 43, 
                            "t0": 158437, 
                            "v": 108, 
                            "dur": 87, 
                            "type": "note", 
                            "channel": 0
                        }
                    ]
                ], 
                [
                    158446, 
                    [
                        {
                            "pitch": 29, 
                            "t0": 158446, 
                            "v": 55, 
                            "dur": 43, 
                            "type": "note", 
                            "channel": 0
                        }
                    ]
                ], 
                [
                    158687, 
                    [
                        {
                            "pitch": 26, 
                            "t0": 158687, 
                            "v": 125, 
                            "dur": 128, 
                            "type": "note", 
                            "channel": 0
                        }, 
                        {
                            "pitch": 31, 
                            "t0": 158687, 
                            "v": 127, 
                            "dur": 149, 
                            "type": "note", 
                            "channel": 0
                        }, 
                        {
                            "pitch": 55, 
                            "t0": 158687, 
                            "v": 120, 
                            "dur": 1895, 
                            "type": "note", 
                            "channel": 0
                        }, 
                        {
                            "pitch": 67, 
                            "t0": 158687, 
                            "v": 123, 
                            "dur": 2060, 
                            "type": "note", 
                            "channel": 0
                        }
                    ]
                ], 
                [
                    158691, 
                    [
                        {
                            "pitch": 62, 
                            "t0": 158691, 
                            "v": 114, 
                            "dur": 1992, 
                            "type": "note", 
                            "channel": 0
                        }
                    ]
                ], 
                [
                    158804, 
                    [
                        {
                            "pitch": 38, 
                            "t0": 158804, 
                            "v": 108, 
                            "dur": 76, 
                            "type": "note", 
                            "channel": 0
                        }
                    ]
                ], 
                [
                    158889, 
                    [
                        {
                            "pitch": 31, 
                            "t0": 158889, 
                            "v": 108, 
                            "dur": 94, 
                            "type": "note", 
                            "channel": 0
                        }
                    ]
                ], 
                [
                    158897, 
                    [
                        {
                            "pitch": 26, 
                            "t0": 158897, 
                            "v": 100, 
                            "dur": 61, 
                            "type": "note", 
                            "channel": 0
                        }
                    ]
                ], 
                [
                    158958, 
                    [
                        {
                            "pitch": 38, 
                            "t0": 158958, 
                            "v": 94, 
                            "dur": 64, 
                            "type": "note", 
                            "channel": 0
                        }
                    ]
                ], 
                [
                    159031, 
                    [
                        {
                            "pitch": 31, 
                            "t0": 159031, 
                            "v": 109, 
                            "dur": 92, 
                            "type": "note", 
                            "channel": 0
                        }
                    ]
                ], 
                [
                    159042, 
                    [
                        {
                            "pitch": 26, 
                            "t0": 159042, 
                            "v": 94, 
                            "dur": 56, 
                            "type": "note", 
                            "channel": 0
                        }
                    ]
                ], 
                [
                    159094, 
                    [
                        {
                            "pitch": 38, 
                            "t0": 159094, 
                            "v": 91, 
                            "dur": 76, 
                            "type": "note", 
                            "channel": 0
                        }
                    ]
                ], 
                [
                    159162, 
                    [
                        {
                            "pitch": 26, 
                            "t0": 159162, 
                            "v": 97, 
                            "dur": 66, 
                            "type": "note", 
                            "channel": 0
                        }
                    ]
                ], 
                [
                    159166, 
                    [
                        {
                            "pitch": 31, 
                            "t0": 159166, 
                            "v": 116, 
                            "dur": 88, 
                            "type": "note", 
                            "channel": 0
                        }
                    ]
                ], 
                [
                    159220, 
                    [
                        {
                            "pitch": 38, 
                            "t0": 159220, 
                            "v": 101, 
                            "dur": 83, 
                            "type": "note", 
                            "channel": 0
                        }
                    ]
                ], 
                [
                    159283, 
                    [
                        {
                            "pitch": 26, 
                            "t0": 159283, 
                            "v": 101, 
                            "dur": 85, 
                            "type": "note", 
                            "channel": 0
                        }
                    ]
                ], 
                [
                    159287, 
                    [
                        {
                            "pitch": 31, 
                            "t0": 159287, 
                            "v": 105, 
                            "dur": 89, 
                            "type": "note", 
                            "channel": 0
                        }
                    ]
                ], 
                [
                    159350, 
                    [
                        {
                            "pitch": 38, 
                            "t0": 159350, 
                            "v": 109, 
                            "dur": 73, 
                            "type": "note", 
                            "channel": 0
                        }
                    ]
                ], 
                [
                    159410, 
                    [
                        {
                            "pitch": 26, 
                            "t0": 159410, 
                            "v": 114, 
                            "dur": 83, 
                            "type": "note", 
                            "channel": 0
                        }
                    ]
                ], 
                [
                    159417, 
                    [
                        {
                            "pitch": 31, 
                            "t0": 159417, 
                            "v": 117, 
                            "dur": 96, 
                            "type": "note", 
                            "channel": 0
                        }
                    ]
                ], 
                [
                    159471, 
                    [
                        {
                            "pitch": 38, 
                            "t0": 159471, 
                            "v": 103, 
                            "dur": 77, 
                            "type": "note", 
                            "channel": 0
                        }
                    ]
                ], 
                [
                    159537, 
                    [
                        {
                            "pitch": 26, 
                            "t0": 159537, 
                            "v": 110, 
                            "dur": 64, 
                            "type": "note", 
                            "channel": 0
                        }
                    ]
                ], 
                [
                    159540, 
                    [
                        {
                            "pitch": 31, 
                            "t0": 159540, 
                            "v": 93, 
                            "dur": 97, 
                            "type": "note", 
                            "channel": 0
                        }
                    ]
                ], 
                [
                    159596, 
                    [
                        {
                            "pitch": 38, 
                            "t0": 159596, 
                            "v": 87, 
                            "dur": 70, 
                            "type": "note", 
                            "channel": 0
                        }
                    ]
                ], 
                [
                    159659, 
                    [
                        {
                            "pitch": 26, 
                            "t0": 159659, 
                            "v": 97, 
                            "dur": 65, 
                            "type": "note", 
                            "channel": 0
                        }, 
                        {
                            "pitch": 31, 
                            "t0": 159659, 
                            "v": 83, 
                            "dur": 102, 
                            "type": "note", 
                            "channel": 0
                        }
                    ]
                ], 
                [
                    159718, 
                    [
                        {
                            "pitch": 38, 
                            "t0": 159718, 
                            "v": 100, 
                            "dur": 64, 
                            "type": "note", 
                            "channel": 0
                        }
                    ]
                ], 
                [
                    159782, 
                    [
                        {
                            "pitch": 26, 
                            "t0": 159782, 
                            "v": 100, 
                            "dur": 64, 
                            "type": "note", 
                            "channel": 0
                        }
                    ]
                ], 
                [
                    159796, 
                    [
                        {
                            "pitch": 31, 
                            "t0": 159796, 
                            "v": 82, 
                            "dur": 81, 
                            "type": "note", 
                            "channel": 0
                        }
                    ]
                ], 
                [
                    159838, 
                    [
                        {
                            "pitch": 38, 
                            "t0": 159838, 
                            "v": 98, 
                            "dur": 79, 
                            "type": "note", 
                            "channel": 0
                        }
                    ]
                ], 
                [
                    159899, 
                    [
                        {
                            "pitch": 26, 
                            "t0": 159899, 
                            "v": 94, 
                            "dur": 62, 
                            "type": "note", 
                            "channel": 0
                        }, 
                        {
                            "pitch": 31, 
                            "t0": 159899, 
                            "v": 73, 
                            "dur": 340, 
                            "type": "note", 
                            "channel": 0
                        }
                    ]
                ], 
                [
                    159953, 
                    [
                        {
                            "pitch": 38, 
                            "t0": 159953, 
                            "v": 78, 
                            "dur": 71, 
                            "type": "note", 
                            "channel": 0
                        }
                    ]
                ], 
                [
                    160014, 
                    [
                        {
                            "pitch": 26, 
                            "t0": 160014, 
                            "v": 98, 
                            "dur": 75, 
                            "type": "note", 
                            "channel": 0
                        }
                    ]
                ], 
                [
                    160075, 
                    [
                        {
                            "pitch": 38, 
                            "t0": 160075, 
                            "v": 92, 
                            "dur": 86, 
                            "type": "note", 
                            "channel": 0
                        }
                    ]
                ], 
                [
                    160137, 
                    [
                        {
                            "pitch": 26, 
                            "t0": 160137, 
                            "v": 103, 
                            "dur": 69, 
                            "type": "note", 
                            "channel": 0
                        }
                    ]
                ], 
                [
                    160194, 
                    [
                        {
                            "pitch": 38, 
                            "t0": 160194, 
                            "v": 77, 
                            "dur": 229, 
                            "type": "note", 
                            "channel": 0
                        }
                    ]
                ], 
                [
                    160259, 
                    [
                        {
                            "pitch": 26, 
                            "t0": 160259, 
                            "v": 103, 
                            "dur": 126, 
                            "type": "note", 
                            "channel": 0
                        }
                    ]
                ], 
                [
                    160265, 
                    [
                        {
                            "pitch": 31, 
                            "t0": 160265, 
                            "v": 70, 
                            "dur": 136, 
                            "type": "note", 
                            "channel": 0
                        }
                    ]
                ], 
                [
                    161493, 
                    [
                        {
                            "pitch": 67, 
                            "t0": 161493, 
                            "v": 58, 
                            "dur": 70, 
                            "type": "note", 
                            "channel": 0
                        }
                    ]
                ], 
                [
                    161633, 
                    [
                        {
                            "pitch": 67, 
                            "t0": 161633, 
                            "v": 70, 
                            "dur": 68, 
                            "type": "note", 
                            "channel": 0
                        }
                    ]
                ], 
                [
                    161780, 
                    [
                        {
                            "pitch": 67, 
                            "t0": 161780, 
                            "v": 77, 
                            "dur": 42, 
                            "type": "note", 
                            "channel": 0
                        }
                    ]
                ], 
                [
                    161938, 
                    [
                        {
                            "pitch": 60, 
                            "t0": 161938, 
                            "v": 28, 
                            "dur": 1288, 
                            "type": "note", 
                            "channel": 0
                        }, 
                        {
                            "pitch": 63, 
                            "t0": 161938, 
                            "v": 59, 
                            "dur": 1541, 
                            "type": "note", 
                            "channel": 0
                        }
                    ]
                ], 
                [
                    161942, 
                    [
                        {
                            "pitch": 48, 
                            "t0": 161942, 
                            "v": 42, 
                            "dur": 1290, 
                            "type": "note", 
                            "channel": 0
                        }
                    ]
                ], 
                [
                    162076, 
                    [
                        {
                            "pitch": 68, 
                            "t0": 162076, 
                            "v": 69, 
                            "dur": 35, 
                            "type": "note", 
                            "channel": 0
                        }
                    ]
                ], 
                [
                    162218, 
                    [
                        {
                            "pitch": 68, 
                            "t0": 162218, 
                            "v": 67, 
                            "dur": 35, 
                            "type": "note", 
                            "channel": 0
                        }
                    ]
                ], 
                [
                    162351, 
                    [
                        {
                            "pitch": 68, 
                            "t0": 162351, 
                            "v": 60, 
                            "dur": 37, 
                            "type": "note", 
                            "channel": 0
                        }
                    ]
                ], 
                [
                    162502, 
                    [
                        {
                            "pitch": 67, 
                            "t0": 162502, 
                            "v": 57, 
                            "dur": 977, 
                            "type": "note", 
                            "channel": 0
                        }
                    ]
                ], 
                [
                    162629, 
                    [
                        {
                            "pitch": 75, 
                            "t0": 162629, 
                            "v": 67, 
                            "dur": 42, 
                            "type": "note", 
                            "channel": 0
                        }
                    ]
                ], 
                [
                    162772, 
                    [
                        {
                            "pitch": 75, 
                            "t0": 162772, 
                            "v": 69, 
                            "dur": 44, 
                            "type": "note", 
                            "channel": 0
                        }
                    ]
                ], 
                [
                    162917, 
                    [
                        {
                            "pitch": 75, 
                            "t0": 162917, 
                            "v": 71, 
                            "dur": 44, 
                            "type": "note", 
                            "channel": 0
                        }
                    ]
                ], 
                [
                    163120, 
                    [
                        {
                            "pitch": 72, 
                            "t0": 163120, 
                            "v": 52, 
                            "dur": 456, 
                            "type": "note", 
                            "channel": 0
                        }
                    ]
                ], 
                [
                    163462, 
                    [
                        {
                            "pitch": 60, 
                            "t0": 163462, 
                            "v": 39, 
                            "dur": 146, 
                            "type": "note", 
                            "channel": 0
                        }
                    ]
                ], 
                [
                    163479, 
                    [
                        {
                            "pitch": 48, 
                            "t0": 163479, 
                            "v": 44, 
                            "dur": 129, 
                            "type": "note", 
                            "channel": 0
                        }
                    ]
                ], 
                [
                    163757, 
                    [
                        {
                            "pitch": 63, 
                            "t0": 163757, 
                            "v": 61, 
                            "dur": 202, 
                            "type": "note", 
                            "channel": 0
                        }
                    ]
                ], 
                [
                    163771, 
                    [
                        {
                            "pitch": 51, 
                            "t0": 163771, 
                            "v": 53, 
                            "dur": 310, 
                            "type": "note", 
                            "channel": 0
                        }
                    ]
                ], 
                [
                    163917, 
                    [
                        {
                            "pitch": 67, 
                            "t0": 163917, 
                            "v": 62, 
                            "dur": 46, 
                            "type": "note", 
                            "channel": 0
                        }
                    ]
                ], 
                [
                    164069, 
                    [
                        {
                            "pitch": 67, 
                            "t0": 164069, 
                            "v": 62, 
                            "dur": 42, 
                            "type": "note", 
                            "channel": 0
                        }, 
                        {
                            "pitch": 60, 
                            "t0": 164069, 
                            "v": 43, 
                            "dur": 148, 
                            "type": "note", 
                            "channel": 0
                        }
                    ]
                ], 
                [
                    164097, 
                    [
                        {
                            "pitch": 48, 
                            "t0": 164097, 
                            "v": 40, 
                            "dur": 129, 
                            "type": "note", 
                            "channel": 0
                        }
                    ]
                ], 
                [
                    164212, 
                    [
                        {
                            "pitch": 67, 
                            "t0": 164212, 
                            "v": 63, 
                            "dur": 42, 
                            "type": "note", 
                            "channel": 0
                        }
                    ]
                ], 
                [
                    164368, 
                    [
                        {
                            "pitch": 62, 
                            "t0": 164368, 
                            "v": 63, 
                            "dur": 627, 
                            "type": "note", 
                            "channel": 0
                        }, 
                        {
                            "pitch": 59, 
                            "t0": 164368, 
                            "v": 45, 
                            "dur": 1189, 
                            "type": "note", 
                            "channel": 0
                        }
                    ]
                ], 
                [
                    164377, 
                    [
                        {
                            "pitch": 47, 
                            "t0": 164377, 
                            "v": 36, 
                            "dur": 1194, 
                            "type": "note", 
                            "channel": 0
                        }
                    ]
                ], 
                [
                    164512, 
                    [
                        {
                            "pitch": 68, 
                            "t0": 164512, 
                            "v": 69, 
                            "dur": 43, 
                            "type": "note", 
                            "channel": 0
                        }
                    ]
                ], 
                [
                    164655, 
                    [
                        {
                            "pitch": 68, 
                            "t0": 164655, 
                            "v": 77, 
                            "dur": 39, 
                            "type": "note", 
                            "channel": 0
                        }
                    ]
                ], 
                [
                    164788, 
                    [
                        {
                            "pitch": 68, 
                            "t0": 164788, 
                            "v": 70, 
                            "dur": 36, 
                            "type": "note", 
                            "channel": 0
                        }
                    ]
                ], 
                [
                    164948, 
                    [
                        {
                            "pitch": 67, 
                            "t0": 164948, 
                            "v": 73, 
                            "dur": 50, 
                            "type": "note", 
                            "channel": 0
                        }
                    ]
                ], 
                [
                    165106, 
                    [
                        {
                            "pitch": 77, 
                            "t0": 165106, 
                            "v": 78, 
                            "dur": 34, 
                            "type": "note", 
                            "channel": 0
                        }
                    ]
                ], 
                [
                    165260, 
                    [
                        {
                            "pitch": 77, 
                            "t0": 165260, 
                            "v": 66, 
                            "dur": 36, 
                            "type": "note", 
                            "channel": 0
                        }
                    ]
                ], 
                [
                    165404, 
                    [
                        {
                            "pitch": 77, 
                            "t0": 165404, 
                            "v": 46, 
                            "dur": 42, 
                            "type": "note", 
                            "channel": 0
                        }
                    ]
                ], 
                [
                    165585, 
                    [
                        {
                            "pitch": 74, 
                            "t0": 165585, 
                            "v": 67, 
                            "dur": 505, 
                            "type": "note", 
                            "channel": 0
                        }
                    ]
                ], 
                [
                    165884, 
                    [
                        {
                            "pitch": 55, 
                            "t0": 165884, 
                            "v": 37, 
                            "dur": 97, 
                            "type": "note", 
                            "channel": 0
                        }
                    ]
                ], 
                [
                    165895, 
                    [
                        {
                            "pitch": 43, 
                            "t0": 165895, 
                            "v": 45, 
                            "dur": 60, 
                            "type": "note", 
                            "channel": 0
                        }
                    ]
                ], 
                [
                    166184, 
                    [
                        {
                            "pitch": 59, 
                            "t0": 166184, 
                            "v": 48, 
                            "dur": 59, 
                            "type": "note", 
                            "channel": 0
                        }
                    ]
                ], 
                [
                    166188, 
                    [
                        {
                            "pitch": 47, 
                            "t0": 166188, 
                            "v": 51, 
                            "dur": 55, 
                            "type": "note", 
                            "channel": 0
                        }
                    ]
                ], 
                [
                    166331, 
                    [
                        {
                            "pitch": 79, 
                            "t0": 166331, 
                            "v": 80, 
                            "dur": 35, 
                            "type": "note", 
                            "channel": 0
                        }
                    ]
                ], 
                [
                    166479, 
                    [
                        {
                            "pitch": 79, 
                            "t0": 166479, 
                            "v": 77, 
                            "dur": 40, 
                            "type": "note", 
                            "channel": 0
                        }, 
                        {
                            "pitch": 55, 
                            "t0": 166479, 
                            "v": 63, 
                            "dur": 40, 
                            "type": "note", 
                            "channel": 0
                        }, 
                        {
                            "pitch": 43, 
                            "t0": 166479, 
                            "v": 50, 
                            "dur": 40, 
                            "type": "note", 
                            "channel": 0
                        }
                    ]
                ], 
                [
                    166622, 
                    [
                        {
                            "pitch": 77, 
                            "t0": 166622, 
                            "v": 90, 
                            "dur": 42, 
                            "type": "note", 
                            "channel": 0
                        }
                    ]
                ], 
                [
                    166772, 
                    [
                        {
                            "pitch": 75, 
                            "t0": 166772, 
                            "v": 86, 
                            "dur": 509, 
                            "type": "note", 
                            "channel": 0
                        }
                    ]
                ], 
                [
                    166783, 
                    [
                        {
                            "pitch": 60, 
                            "t0": 166783, 
                            "v": 42, 
                            "dur": 393, 
                            "type": "note", 
                            "channel": 0
                        }, 
                        {
                            "pitch": 48, 
                            "t0": 166783, 
                            "v": 42, 
                            "dur": 410, 
                            "type": "note", 
                            "channel": 0
                        }
                    ]
                ], 
                [
                    166791, 
                    [
                        {
                            "pitch": 55, 
                            "t0": 166791, 
                            "v": 43, 
                            "dur": 343, 
                            "type": "note", 
                            "channel": 0
                        }
                    ]
                ], 
                [
                    166923, 
                    [
                        {
                            "pitch": 63, 
                            "t0": 166923, 
                            "v": 87, 
                            "dur": 69, 
                            "type": "note", 
                            "channel": 0
                        }
                    ]
                ], 
                [
                    167050, 
                    [
                        {
                            "pitch": 63, 
                            "t0": 167050, 
                            "v": 84, 
                            "dur": 76, 
                            "type": "note", 
                            "channel": 0
                        }
                    ]
                ], 
                [
                    167200, 
                    [
                        {
                            "pitch": 65, 
                            "t0": 167200, 
                            "v": 98, 
                            "dur": 32, 
                            "type": "note", 
                            "channel": 0
                        }
                    ]
                ], 
                [
                    167351, 
                    [
                        {
                            "pitch": 74, 
                            "t0": 167351, 
                            "v": 101, 
                            "dur": 246, 
                            "type": "note", 
                            "channel": 0
                        }
                    ]
                ], 
                [
                    167357, 
                    [
                        {
                            "pitch": 67, 
                            "t0": 167357, 
                            "v": 89, 
                            "dur": 362, 
                            "type": "note", 
                            "channel": 0
                        }, 
                        {
                            "pitch": 59, 
                            "t0": 167357, 
                            "v": 39, 
                            "dur": 378, 
                            "type": "note", 
                            "channel": 0
                        }
                    ]
                ], 
                [
                    167360, 
                    [
                        {
                            "pitch": 47, 
                            "t0": 167360, 
                            "v": 35, 
                            "dur": 336, 
                            "type": "note", 
                            "channel": 0
                        }, 
                        {
                            "pitch": 55, 
                            "t0": 167360, 
                            "v": 46, 
                            "dur": 359, 
                            "type": "note", 
                            "channel": 0
                        }
                    ]
                ], 
                [
                    167502, 
                    [
                        {
                            "pitch": 79, 
                            "t0": 167502, 
                            "v": 100, 
                            "dur": 73, 
                            "type": "note", 
                            "channel": 0
                        }
                    ]
                ], 
                [
                    167630, 
                    [
                        {
                            "pitch": 79, 
                            "t0": 167630, 
                            "v": 102, 
                            "dur": 108, 
                            "type": "note", 
                            "channel": 0
                        }
                    ]
                ], 
                [
                    167774, 
                    [
                        {
                            "pitch": 77, 
                            "t0": 167774, 
                            "v": 103, 
                            "dur": 43, 
                            "type": "note", 
                            "channel": 0
                        }
                    ]
                ], 
                [
                    167912, 
                    [
                        {
                            "pitch": 75, 
                            "t0": 167912, 
                            "v": 100, 
                            "dur": 492, 
                            "type": "note", 
                            "channel": 0
                        }
                    ]
                ], 
                [
                    167917, 
                    [
                        {
                            "pitch": 55, 
                            "t0": 167917, 
                            "v": 60, 
                            "dur": 204, 
                            "type": "note", 
                            "channel": 0
                        }, 
                        {
                            "pitch": 48, 
                            "t0": 167917, 
                            "v": 60, 
                            "dur": 357, 
                            "type": "note", 
                            "channel": 0
                        }, 
                        {
                            "pitch": 60, 
                            "t0": 167917, 
                            "v": 67, 
                            "dur": 381, 
                            "type": "note", 
                            "channel": 0
                        }
                    ]
                ], 
                [
                    168039, 
                    [
                        {
                            "pitch": 63, 
                            "t0": 168039, 
                            "v": 91, 
                            "dur": 82, 
                            "type": "note", 
                            "channel": 0
                        }
                    ]
                ], 
                [
                    168062, 
                    [
                        {
                            "pitch": 51, 
                            "t0": 168062, 
                            "v": 75, 
                            "dur": 44, 
                            "type": "note", 
                            "channel": 0
                        }
                    ]
                ], 
                [
                    168168, 
                    [
                        {
                            "pitch": 63, 
                            "t0": 168168, 
                            "v": 95, 
                            "dur": 83, 
                            "type": "note", 
                            "channel": 0
                        }
                    ]
                ], 
                [
                    168175, 
                    [
                        {
                            "pitch": 51, 
                            "t0": 168175, 
                            "v": 76, 
                            "dur": 173, 
                            "type": "note", 
                            "channel": 0
                        }
                    ]
                ], 
                [
                    168309, 
                    [
                        {
                            "pitch": 65, 
                            "t0": 168309, 
                            "v": 106, 
                            "dur": 65, 
                            "type": "note", 
                            "channel": 0
                        }
                    ]
                ], 
                [
                    168313, 
                    [
                        {
                            "pitch": 53, 
                            "t0": 168313, 
                            "v": 100, 
                            "dur": 35, 
                            "type": "note", 
                            "channel": 0
                        }
                    ]
                ], 
                [
                    168451, 
                    [
                        {
                            "pitch": 74, 
                            "t0": 168451, 
                            "v": 106, 
                            "dur": 224, 
                            "type": "note", 
                            "channel": 0
                        }
                    ]
                ], 
                [
                    168454, 
                    [
                        {
                            "pitch": 67, 
                            "t0": 168454, 
                            "v": 98, 
                            "dur": 43, 
                            "type": "note", 
                            "channel": 0
                        }
                    ]
                ], 
                [
                    168458, 
                    [
                        {
                            "pitch": 59, 
                            "t0": 168458, 
                            "v": 98, 
                            "dur": 68, 
                            "type": "note", 
                            "channel": 0
                        }
                    ]
                ], 
                [
                    168462, 
                    [
                        {
                            "pitch": 55, 
                            "t0": 168462, 
                            "v": 97, 
                            "dur": 76, 
                            "type": "note", 
                            "channel": 0
                        }
                    ]
                ], 
                [
                    168586, 
                    [
                        {
                            "pitch": 79, 
                            "t0": 168586, 
                            "v": 107, 
                            "dur": 64, 
                            "type": "note", 
                            "channel": 0
                        }
                    ]
                ], 
                [
                    168589, 
                    [
                        {
                            "pitch": 71, 
                            "t0": 168589, 
                            "v": 96, 
                            "dur": 72, 
                            "type": "note", 
                            "channel": 0
                        }
                    ]
                ], 
                [
                    168605, 
                    [
                        {
                            "pitch": 60, 
                            "t0": 168605, 
                            "v": 101, 
                            "dur": 61, 
                            "type": "note", 
                            "channel": 0
                        }
                    ]
                ], 
                [
                    168613, 
                    [
                        {
                            "pitch": 57, 
                            "t0": 168613, 
                            "v": 98, 
                            "dur": 37, 
                            "type": "note", 
                            "channel": 0
                        }
                    ]
                ], 
                [
                    168713, 
                    [
                        {
                            "pitch": 79, 
                            "t0": 168713, 
                            "v": 100, 
                            "dur": 104, 
                            "type": "note", 
                            "channel": 0
                        }, 
                        {
                            "pitch": 57, 
                            "t0": 168713, 
                            "v": 88, 
                            "dur": 115, 
                            "type": "note", 
                            "channel": 0
                        }
                    ]
                ], 
                [
                    168722, 
                    [
                        {
                            "pitch": 60, 
                            "t0": 168722, 
                            "v": 96, 
                            "dur": 70, 
                            "type": "note", 
                            "channel": 0
                        }, 
                        {
                            "pitch": 72, 
                            "t0": 168722, 
                            "v": 108, 
                            "dur": 111, 
                            "type": "note", 
                            "channel": 0
                        }
                    ]
                ], 
                [
                    168842, 
                    [
                        {
                            "pitch": 59, 
                            "t0": 168842, 
                            "v": 93, 
                            "dur": 106, 
                            "type": "note", 
                            "channel": 0
                        }
                    ]
                ], 
                [
                    168847, 
                    [
                        {
                            "pitch": 62, 
                            "t0": 168847, 
                            "v": 105, 
                            "dur": 73, 
                            "type": "note", 
                            "channel": 0
                        }, 
                        {
                            "pitch": 77, 
                            "t0": 168847, 
                            "v": 111, 
                            "dur": 81, 
                            "type": "note", 
                            "channel": 0
                        }, 
                        {
                            "pitch": 74, 
                            "t0": 168847, 
                            "v": 105, 
                            "dur": 121, 
                            "type": "note", 
                            "channel": 0
                        }
                    ]
                ], 
                [
                    169004, 
                    [
                        {
                            "pitch": 63, 
                            "t0": 169004, 
                            "v": 113, 
                            "dur": 86, 
                            "type": "note", 
                            "channel": 0
                        }, 
                        {
                            "pitch": 75, 
                            "t0": 169004, 
                            "v": 112, 
                            "dur": 133, 
                            "type": "note", 
                            "channel": 0
                        }
                    ]
                ], 
                [
                    169007, 
                    [
                        {
                            "pitch": 67, 
                            "t0": 169007, 
                            "v": 116, 
                            "dur": 91, 
                            "type": "note", 
                            "channel": 0
                        }
                    ]
                ], 
                [
                    169011, 
                    [
                        {
                            "pitch": 60, 
                            "t0": 169011, 
                            "v": 111, 
                            "dur": 79, 
                            "type": "note", 
                            "channel": 0
                        }
                    ]
                ], 
                [
                    169579, 
                    [
                        {
                            "pitch": 72, 
                            "t0": 169579, 
                            "v": 120, 
                            "dur": 154, 
                            "type": "note", 
                            "channel": 0
                        }
                    ]
                ], 
                [
                    169582, 
                    [
                        {
                            "pitch": 60, 
                            "t0": 169582, 
                            "v": 116, 
                            "dur": 114, 
                            "type": "note", 
                            "channel": 0
                        }, 
                        {
                            "pitch": 66, 
                            "t0": 169582, 
                            "v": 106, 
                            "dur": 184, 
                            "type": "note", 
                            "channel": 0
                        }
                    ]
                ], 
                [
                    169585, 
                    [
                        {
                            "pitch": 56, 
                            "t0": 169585, 
                            "v": 104, 
                            "dur": 115, 
                            "type": "note", 
                            "channel": 0
                        }
                    ]
                ], 
                [
                    169591, 
                    [
                        {
                            "pitch": 44, 
                            "t0": 169591, 
                            "v": 86, 
                            "dur": 109, 
                            "type": "note", 
                            "channel": 0
                        }
                    ]
                ], 
                [
                    169594, 
                    [
                        {
                            "pitch": 48, 
                            "t0": 169594, 
                            "v": 101, 
                            "dur": 123, 
                            "type": "note", 
                            "channel": 0
                        }
                    ]
                ], 
                [
                    170273, 
                    [
                        {
                            "pitch": 71, 
                            "t0": 170273, 
                            "v": 104, 
                            "dur": 291, 
                            "type": "note", 
                            "channel": 0
                        }, 
                        {
                            "pitch": 79, 
                            "t0": 170273, 
                            "v": 122, 
                            "dur": 2499, 
                            "type": "note", 
                            "channel": 0
                        }
                    ]
                ], 
                [
                    170277, 
                    [
                        {
                            "pitch": 55, 
                            "t0": 170277, 
                            "v": 101, 
                            "dur": 166, 
                            "type": "note", 
                            "channel": 0
                        }, 
                        {
                            "pitch": 67, 
                            "t0": 170277, 
                            "v": 115, 
                            "dur": 214, 
                            "type": "note", 
                            "channel": 0
                        }
                    ]
                ], 
                [
                    170284, 
                    [
                        {
                            "pitch": 50, 
                            "t0": 170284, 
                            "v": 95, 
                            "dur": 173, 
                            "type": "note", 
                            "channel": 0
                        }, 
                        {
                            "pitch": 43, 
                            "t0": 170284, 
                            "v": 95, 
                            "dur": 187, 
                            "type": "note", 
                            "channel": 0
                        }
                    ]
                ], 
                [
                    172529, 
                    [
                        {
                            "pitch": 77, 
                            "t0": 172529, 
                            "v": 104, 
                            "dur": 694, 
                            "type": "note", 
                            "channel": 0
                        }
                    ]
                ], 
                [
                    173056, 
                    [
                        {
                            "pitch": 75, 
                            "t0": 173056, 
                            "v": 91, 
                            "dur": 841, 
                            "type": "note", 
                            "channel": 0
                        }
                    ]
                ], 
                [
                    173680, 
                    [
                        {
                            "pitch": 74, 
                            "t0": 173680, 
                            "v": 83, 
                            "dur": 880, 
                            "type": "note", 
                            "channel": 0
                        }
                    ]
                ], 
                [
                    174530, 
                    [
                        {
                            "pitch": 75, 
                            "t0": 174530, 
                            "v": 52, 
                            "dur": 182, 
                            "type": "note", 
                            "channel": 0
                        }
                    ]
                ], 
                [
                    174678, 
                    [
                        {
                            "pitch": 74, 
                            "t0": 174678, 
                            "v": 67, 
                            "dur": 117, 
                            "type": "note", 
                            "channel": 0
                        }
                    ]
                ], 
                [
                    174790, 
                    [
                        {
                            "pitch": 72, 
                            "t0": 174790, 
                            "v": 83, 
                            "dur": 169, 
                            "type": "note", 
                            "channel": 0
                        }
                    ]
                ], 
                [
                    174897, 
                    [
                        {
                            "pitch": 74, 
                            "t0": 174897, 
                            "v": 78, 
                            "dur": 202, 
                            "type": "note", 
                            "channel": 0
                        }
                    ]
                ], 
                [
                    175015, 
                    [
                        {
                            "pitch": 77, 
                            "t0": 175015, 
                            "v": 81, 
                            "dur": 866, 
                            "type": "note", 
                            "channel": 0
                        }
                    ]
                ], 
                [
                    175717, 
                    [
                        {
                            "pitch": 75, 
                            "t0": 175717, 
                            "v": 51, 
                            "dur": 1231, 
                            "type": "note", 
                            "channel": 0
                        }
                    ]
                ], 
                [
                    176767, 
                    [
                        {
                            "pitch": 74, 
                            "t0": 176767, 
                            "v": 40, 
                            "dur": 1268, 
                            "type": "note", 
                            "channel": 0
                        }
                    ]
                ], 
                [
                    179179, 
                    [
                        {
                            "pitch": 68, 
                            "t0": 179179, 
                            "v": 52, 
                            "dur": 43, 
                            "type": "note", 
                            "channel": 0
                        }
                    ]
                ], 
                [
                    179290, 
                    [
                        {
                            "pitch": 68, 
                            "t0": 179290, 
                            "v": 55, 
                            "dur": 56, 
                            "type": "note", 
                            "channel": 0
                        }
                    ]
                ], 
                [
                    179419, 
                    [
                        {
                            "pitch": 68, 
                            "t0": 179419, 
                            "v": 61, 
                            "dur": 78, 
                            "type": "note", 
                            "channel": 0
                        }
                    ]
                ], 
                [
                    179572, 
                    [
                        {
                            "pitch": 65, 
                            "t0": 179572, 
                            "v": 62, 
                            "dur": 1629, 
                            "type": "note", 
                            "channel": 0
                        }
                    ]
                ], 
                [
                    179714, 
                    [
                        {
                            "pitch": 62, 
                            "t0": 179714, 
                            "v": 62, 
                            "dur": 42, 
                            "type": "note", 
                            "channel": 0
                        }
                    ]
                ], 
                [
                    179846, 
                    [
                        {
                            "pitch": 62, 
                            "t0": 179846, 
                            "v": 58, 
                            "dur": 43, 
                            "type": "note", 
                            "channel": 0
                        }
                    ]
                ], 
                [
                    179985, 
                    [
                        {
                            "pitch": 62, 
                            "t0": 179985, 
                            "v": 40, 
                            "dur": 52, 
                            "type": "note", 
                            "channel": 0
                        }
                    ]
                ], 
                [
                    180141, 
                    [
                        {
                            "pitch": 59, 
                            "t0": 180141, 
                            "v": 50, 
                            "dur": 943, 
                            "type": "note", 
                            "channel": 0
                        }
                    ]
                ], 
                [
                    180269, 
                    [
                        {
                            "pitch": 56, 
                            "t0": 180269, 
                            "v": 60, 
                            "dur": 38, 
                            "type": "note", 
                            "channel": 0
                        }
                    ]
                ], 
                [
                    180391, 
                    [
                        {
                            "pitch": 56, 
                            "t0": 180391, 
                            "v": 41, 
                            "dur": 51, 
                            "type": "note", 
                            "channel": 0
                        }
                    ]
                ], 
                [
                    180530, 
                    [
                        {
                            "pitch": 56, 
                            "t0": 180530, 
                            "v": 55, 
                            "dur": 34, 
                            "type": "note", 
                            "channel": 0
                        }
                    ]
                ], 
                [
                    180678, 
                    [
                        {
                            "pitch": 55, 
                            "t0": 180678, 
                            "v": 69, 
                            "dur": 605, 
                            "type": "note", 
                            "channel": 0
                        }
                    ]
                ], 
                [
                    180815, 
                    [
                        {
                            "pitch": 31, 
                            "t0": 180815, 
                            "v": 65, 
                            "dur": 33, 
                            "type": "note", 
                            "channel": 0
                        }
                    ]
                ], 
                [
                    180826, 
                    [
                        {
                            "pitch": 43, 
                            "t0": 180826, 
                            "v": 43, 
                            "dur": 41, 
                            "type": "note", 
                            "channel": 0
                        }
                    ]
                ], 
                [
                    180949, 
                    [
                        {
                            "pitch": 43, 
                            "t0": 180949, 
                            "v": 43, 
                            "dur": 40, 
                            "type": "note", 
                            "channel": 0
                        }, 
                        {
                            "pitch": 31, 
                            "t0": 180949, 
                            "v": 35, 
                            "dur": 50, 
                            "type": "note", 
                            "channel": 0
                        }
                    ]
                ], 
                [
                    181084, 
                    [
                        {
                            "pitch": 31, 
                            "t0": 181084, 
                            "v": 87, 
                            "dur": 29, 
                            "type": "note", 
                            "channel": 0
                        }
                    ]
                ], 
                [
                    181088, 
                    [
                        {
                            "pitch": 43, 
                            "t0": 181088, 
                            "v": 68, 
                            "dur": 47, 
                            "type": "note", 
                            "channel": 0
                        }
                    ]
                ], 
                [
                    181244, 
                    [
                        {
                            "pitch": 63, 
                            "t0": 181244, 
                            "v": 78, 
                            "dur": 133, 
                            "type": "note", 
                            "channel": 0
                        }
                    ]
                ], 
                [
                    181249, 
                    [
                        {
                            "pitch": 48, 
                            "t0": 181249, 
                            "v": 93, 
                            "dur": 28, 
                            "type": "note", 
                            "channel": 0
                        }, 
                        {
                            "pitch": 36, 
                            "t0": 181249, 
                            "v": 92, 
                            "dur": 28, 
                            "type": "note", 
                            "channel": 0
                        }
                    ]
                ], 
                [
                    181258, 
                    [
                        {
                            "pitch": 60, 
                            "t0": 181258, 
                            "v": 77, 
                            "dur": 49, 
                            "type": "note", 
                            "channel": 0
                        }
                    ]
                ], 
                [
                    181416, 
                    [
                        {
                            "pitch": 56, 
                            "t0": 181416, 
                            "v": 80, 
                            "dur": 31, 
                            "type": "note", 
                            "channel": 0
                        }, 
                        {
                            "pitch": 68, 
                            "t0": 181416, 
                            "v": 90, 
                            "dur": 51, 
                            "type": "note", 
                            "channel": 0
                        }
                    ]
                ], 
                [
                    181422, 
                    [
                        {
                            "pitch": 44, 
                            "t0": 181422, 
                            "v": 70, 
                            "dur": 31, 
                            "type": "note", 
                            "channel": 0
                        }
                    ]
                ], 
                [
                    181536, 
                    [
                        {
                            "pitch": 68, 
                            "t0": 181536, 
                            "v": 90, 
                            "dur": 86, 
                            "type": "note", 
                            "channel": 0
                        }
                    ]
                ], 
                [
                    181552, 
                    [
                        {
                            "pitch": 56, 
                            "t0": 181552, 
                            "v": 78, 
                            "dur": 37, 
                            "type": "note", 
                            "channel": 0
                        }
                    ]
                ], 
                [
                    181556, 
                    [
                        {
                            "pitch": 44, 
                            "t0": 181556, 
                            "v": 68, 
                            "dur": 30, 
                            "type": "note", 
                            "channel": 0
                        }
                    ]
                ], 
                [
                    181664, 
                    [
                        {
                            "pitch": 56, 
                            "t0": 181664, 
                            "v": 70, 
                            "dur": 40, 
                            "type": "note", 
                            "channel": 0
                        }, 
                        {
                            "pitch": 68, 
                            "t0": 181664, 
                            "v": 97, 
                            "dur": 59, 
                            "type": "note", 
                            "channel": 0
                        }
                    ]
                ], 
                [
                    181673, 
                    [
                        {
                            "pitch": 44, 
                            "t0": 181673, 
                            "v": 62, 
                            "dur": 34, 
                            "type": "note", 
                            "channel": 0
                        }
                    ]
                ], 
                [
                    181803, 
                    [
                        {
                            "pitch": 65, 
                            "t0": 181803, 
                            "v": 108, 
                            "dur": 1050, 
                            "type": "note", 
                            "channel": 0
                        }
                    ]
                ], 
                [
                    181814, 
                    [
                        {
                            "pitch": 53, 
                            "t0": 181814, 
                            "v": 93, 
                            "dur": 28, 
                            "type": "note", 
                            "channel": 0
                        }
                    ]
                ], 
                [
                    181818, 
                    [
                        {
                            "pitch": 41, 
                            "t0": 181818, 
                            "v": 87, 
                            "dur": 30, 
                            "type": "note", 
                            "channel": 0
                        }
                    ]
                ], 
                [
                    181935, 
                    [
                        {
                            "pitch": 62, 
                            "t0": 181935, 
                            "v": 88, 
                            "dur": 44, 
                            "type": "note", 
                            "channel": 0
                        }
                    ]
                ], 
                [
                    181943, 
                    [
                        {
                            "pitch": 38, 
                            "t0": 181943, 
                            "v": 87, 
                            "dur": 25, 
                            "type": "note", 
                            "channel": 0
                        }
                    ]
                ], 
                [
                    181963, 
                    [
                        {
                            "pitch": 50, 
                            "t0": 181963, 
                            "v": 31, 
                            "dur": 46, 
                            "type": "note", 
                            "channel": 0
                        }
                    ]
                ], 
                [
                    182066, 
                    [
                        {
                            "pitch": 50, 
                            "t0": 182066, 
                            "v": 82, 
                            "dur": 47, 
                            "type": "note", 
                            "channel": 0
                        }
                    ]
                ], 
                [
                    182074, 
                    [
                        {
                            "pitch": 62, 
                            "t0": 182074, 
                            "v": 82, 
                            "dur": 44, 
                            "type": "note", 
                            "channel": 0
                        }
                    ]
                ], 
                [
                    182077, 
                    [
                        {
                            "pitch": 38, 
                            "t0": 182077, 
                            "v": 69, 
                            "dur": 36, 
                            "type": "note", 
                            "channel": 0
                        }
                    ]
                ], 
                [
                    182193, 
                    [
                        {
                            "pitch": 62, 
                            "t0": 182193, 
                            "v": 86, 
                            "dur": 650, 
                            "type": "note", 
                            "channel": 0
                        }
                    ]
                ], 
                [
                    182204, 
                    [
                        {
                            "pitch": 50, 
                            "t0": 182204, 
                            "v": 84, 
                            "dur": 34, 
                            "type": "note", 
                            "channel": 0
                        }
                    ]
                ], 
                [
                    182208, 
                    [
                        {
                            "pitch": 38, 
                            "t0": 182208, 
                            "v": 88, 
                            "dur": 42, 
                            "type": "note", 
                            "channel": 0
                        }
                    ]
                ], 
                [
                    182342, 
                    [
                        {
                            "pitch": 59, 
                            "t0": 182342, 
                            "v": 94, 
                            "dur": 370, 
                            "type": "note", 
                            "channel": 0
                        }
                    ]
                ], 
                [
                    182350, 
                    [
                        {
                            "pitch": 35, 
                            "t0": 182350, 
                            "v": 94, 
                            "dur": 30, 
                            "type": "note", 
                            "channel": 0
                        }, 
                        {
                            "pitch": 47, 
                            "t0": 182350, 
                            "v": 90, 
                            "dur": 30, 
                            "type": "note", 
                            "channel": 0
                        }
                    ]
                ], 
                [
                    182483, 
                    [
                        {
                            "pitch": 44, 
                            "t0": 182483, 
                            "v": 91, 
                            "dur": 36, 
                            "type": "note", 
                            "channel": 0
                        }, 
                        {
                            "pitch": 56, 
                            "t0": 182483, 
                            "v": 100, 
                            "dur": 67, 
                            "type": "note", 
                            "channel": 0
                        }
                    ]
                ], 
                [
                    182488, 
                    [
                        {
                            "pitch": 32, 
                            "t0": 182488, 
                            "v": 94, 
                            "dur": 26, 
                            "type": "note", 
                            "channel": 0
                        }
                    ]
                ], 
                [
                    182606, 
                    [
                        {
                            "pitch": 44, 
                            "t0": 182606, 
                            "v": 87, 
                            "dur": 72, 
                            "type": "note", 
                            "channel": 0
                        }, 
                        {
                            "pitch": 56, 
                            "t0": 182606, 
                            "v": 89, 
                            "dur": 75, 
                            "type": "note", 
                            "channel": 0
                        }
                    ]
                ], 
                [
                    182614, 
                    [
                        {
                            "pitch": 32, 
                            "t0": 182614, 
                            "v": 92, 
                            "dur": 37, 
                            "type": "note", 
                            "channel": 0
                        }
                    ]
                ], 
                [
                    182722, 
                    [
                        {
                            "pitch": 32, 
                            "t0": 182722, 
                            "v": 85, 
                            "dur": 77, 
                            "type": "note", 
                            "channel": 0
                        }
                    ]
                ], 
                [
                    182726, 
                    [
                        {
                            "pitch": 44, 
                            "t0": 182726, 
                            "v": 92, 
                            "dur": 70, 
                            "type": "note", 
                            "channel": 0
                        }
                    ]
                ], 
                [
                    182729, 
                    [
                        {
                            "pitch": 56, 
                            "t0": 182729, 
                            "v": 92, 
                            "dur": 124, 
                            "type": "note", 
                            "channel": 0
                        }
                    ]
                ], 
                [
                    182876, 
                    [
                        {
                            "pitch": 31, 
                            "t0": 182876, 
                            "v": 115, 
                            "dur": 20, 
                            "type": "note", 
                            "channel": 0
                        }
                    ]
                ], 
                [
                    182879, 
                    [
                        {
                            "pitch": 43, 
                            "t0": 182879, 
                            "v": 110, 
                            "dur": 64, 
                            "type": "note", 
                            "channel": 0
                        }, 
                        {
                            "pitch": 55, 
                            "t0": 182879, 
                            "v": 109, 
                            "dur": 67, 
                            "type": "note", 
                            "channel": 0
                        }
                    ]
                ], 
                [
                    183023, 
                    [
                        {
                            "pitch": 62, 
                            "t0": 183023, 
                            "v": 105, 
                            "dur": 39, 
                            "type": "note", 
                            "channel": 0
                        }
                    ]
                ], 
                [
                    183027, 
                    [
                        {
                            "pitch": 71, 
                            "t0": 183027, 
                            "v": 100, 
                            "dur": 27, 
                            "type": "note", 
                            "channel": 0
                        }, 
                        {
                            "pitch": 43, 
                            "t0": 183027, 
                            "v": 88, 
                            "dur": 27, 
                            "type": "note", 
                            "channel": 0
                        }
                    ]
                ], 
                [
                    183031, 
                    [
                        {
                            "pitch": 65, 
                            "t0": 183031, 
                            "v": 102, 
                            "dur": 23, 
                            "type": "note", 
                            "channel": 0
                        }
                    ]
                ], 
                [
                    183038, 
                    [
                        {
                            "pitch": 55, 
                            "t0": 183038, 
                            "v": 75, 
                            "dur": 30, 
                            "type": "note", 
                            "channel": 0
                        }
                    ]
                ], 
                [
                    183147, 
                    [
                        {
                            "pitch": 71, 
                            "t0": 183147, 
                            "v": 92, 
                            "dur": 63, 
                            "type": "note", 
                            "channel": 0
                        }, 
                        {
                            "pitch": 62, 
                            "t0": 183147, 
                            "v": 89, 
                            "dur": 78, 
                            "type": "note", 
                            "channel": 0
                        }
                    ]
                ], 
                [
                    183151, 
                    [
                        {
                            "pitch": 55, 
                            "t0": 183151, 
                            "v": 87, 
                            "dur": 65, 
                            "type": "note", 
                            "channel": 0
                        }, 
                        {
                            "pitch": 65, 
                            "t0": 183151, 
                            "v": 89, 
                            "dur": 65, 
                            "type": "note", 
                            "channel": 0
                        }
                    ]
                ], 
                [
                    183157, 
                    [
                        {
                            "pitch": 43, 
                            "t0": 183157, 
                            "v": 92, 
                            "dur": 48, 
                            "type": "note", 
                            "channel": 0
                        }
                    ]
                ], 
                [
                    183271, 
                    [
                        {
                            "pitch": 55, 
                            "t0": 183271, 
                            "v": 97, 
                            "dur": 50, 
                            "type": "note", 
                            "channel": 0
                        }, 
                        {
                            "pitch": 71, 
                            "t0": 183271, 
                            "v": 86, 
                            "dur": 76, 
                            "type": "note", 
                            "channel": 0
                        }
                    ]
                ], 
                [
                    183275, 
                    [
                        {
                            "pitch": 43, 
                            "t0": 183275, 
                            "v": 96, 
                            "dur": 58, 
                            "type": "note", 
                            "channel": 0
                        }, 
                        {
                            "pitch": 65, 
                            "t0": 183275, 
                            "v": 97, 
                            "dur": 81, 
                            "type": "note", 
                            "channel": 0
                        }
                    ]
                ], 
                [
                    183278, 
                    [
                        {
                            "pitch": 62, 
                            "t0": 183278, 
                            "v": 95, 
                            "dur": 74, 
                            "type": "note", 
                            "channel": 0
                        }
                    ]
                ], 
                [
                    183427, 
                    [
                        {
                            "pitch": 60, 
                            "t0": 183427, 
                            "v": 115, 
                            "dur": 81, 
                            "type": "note", 
                            "channel": 0
                        }, 
                        {
                            "pitch": 72, 
                            "t0": 183427, 
                            "v": 115, 
                            "dur": 85, 
                            "type": "note", 
                            "channel": 0
                        }, 
                        {
                            "pitch": 63, 
                            "t0": 183427, 
                            "v": 103, 
                            "dur": 121, 
                            "type": "note", 
                            "channel": 0
                        }
                    ]
                ], 
                [
                    183431, 
                    [
                        {
                            "pitch": 48, 
                            "t0": 183431, 
                            "v": 112, 
                            "dur": 314, 
                            "type": "note", 
                            "channel": 0
                        }, 
                        {
                            "pitch": 36, 
                            "t0": 183431, 
                            "v": 115, 
                            "dur": 348, 
                            "type": "note", 
                            "channel": 0
                        }
                    ]
                ], 
                [
                    183578, 
                    [
                        {
                            "pitch": 63, 
                            "t0": 183578, 
                            "v": 95, 
                            "dur": 84, 
                            "type": "note", 
                            "channel": 0
                        }
                    ]
                ], 
                [
                    183581, 
                    [
                        {
                            "pitch": 67, 
                            "t0": 183581, 
                            "v": 100, 
                            "dur": 103, 
                            "type": "note", 
                            "channel": 0
                        }
                    ]
                ], 
                [
                    183706, 
                    [
                        {
                            "pitch": 63, 
                            "t0": 183706, 
                            "v": 100, 
                            "dur": 73, 
                            "type": "note", 
                            "channel": 0
                        }, 
                        {
                            "pitch": 67, 
                            "t0": 183706, 
                            "v": 53, 
                            "dur": 84, 
                            "type": "note", 
                            "channel": 0
                        }
                    ]
                ], 
                [
                    183714, 
                    [
                        {
                            "pitch": 72, 
                            "t0": 183714, 
                            "v": 102, 
                            "dur": 57, 
                            "type": "note", 
                            "channel": 0
                        }
                    ]
                ], 
                [
                    183842, 
                    [
                        {
                            "pitch": 67, 
                            "t0": 183842, 
                            "v": 104, 
                            "dur": 84, 
                            "type": "note", 
                            "channel": 0
                        }, 
                        {
                            "pitch": 72, 
                            "t0": 183842, 
                            "v": 99, 
                            "dur": 84, 
                            "type": "note", 
                            "channel": 0
                        }
                    ]
                ], 
                [
                    183846, 
                    [
                        {
                            "pitch": 63, 
                            "t0": 183846, 
                            "v": 84, 
                            "dur": 103, 
                            "type": "note", 
                            "channel": 0
                        }
                    ]
                ], 
                [
                    184004, 
                    [
                        {
                            "pitch": 65, 
                            "t0": 184004, 
                            "v": 110, 
                            "dur": 565, 
                            "type": "note", 
                            "channel": 0
                        }, 
                        {
                            "pitch": 62, 
                            "t0": 184004, 
                            "v": 111, 
                            "dur": 577, 
                            "type": "note", 
                            "channel": 0
                        }, 
                        {
                            "pitch": 72, 
                            "t0": 184004, 
                            "v": 112, 
                            "dur": 591, 
                            "type": "note", 
                            "channel": 0
                        }, 
                        {
                            "pitch": 68, 
                            "t0": 184004, 
                            "v": 103, 
                            "dur": 621, 
                            "type": "note", 
                            "channel": 0
                        }
                    ]
                ], 
                [
                    184138, 
                    [
                        {
                            "pitch": 36, 
                            "t0": 184138, 
                            "v": 100, 
                            "dur": 47, 
                            "type": "note", 
                            "channel": 0
                        }, 
                        {
                            "pitch": 48, 
                            "t0": 184138, 
                            "v": 98, 
                            "dur": 67, 
                            "type": "note", 
                            "channel": 0
                        }
                    ]
                ], 
                [
                    184271, 
                    [
                        {
                            "pitch": 48, 
                            "t0": 184271, 
                            "v": 95, 
                            "dur": 73, 
                            "type": "note", 
                            "channel": 0
                        }
                    ]
                ], 
                [
                    184277, 
                    [
                        {
                            "pitch": 36, 
                            "t0": 184277, 
                            "v": 94, 
                            "dur": 78, 
                            "type": "note", 
                            "channel": 0
                        }
                    ]
                ], 
                [
                    184408, 
                    [
                        {
                            "pitch": 48, 
                            "t0": 184408, 
                            "v": 98, 
                            "dur": 59, 
                            "type": "note", 
                            "channel": 0
                        }, 
                        {
                            "pitch": 36, 
                            "t0": 184408, 
                            "v": 101, 
                            "dur": 59, 
                            "type": "note", 
                            "channel": 0
                        }
                    ]
                ], 
                [
                    184547, 
                    [
                        {
                            "pitch": 48, 
                            "t0": 184547, 
                            "v": 96, 
                            "dur": 360, 
                            "type": "note", 
                            "channel": 0
                        }, 
                        {
                            "pitch": 36, 
                            "t0": 184547, 
                            "v": 88, 
                            "dur": 398, 
                            "type": "note", 
                            "channel": 0
                        }
                    ]
                ], 
                [
                    184558, 
                    [
                        {
                            "pitch": 71, 
                            "t0": 184558, 
                            "v": 83, 
                            "dur": 70, 
                            "type": "note", 
                            "channel": 0
                        }
                    ]
                ], 
                [
                    184681, 
                    [
                        {
                            "pitch": 71, 
                            "t0": 184681, 
                            "v": 92, 
                            "dur": 70, 
                            "type": "note", 
                            "channel": 0
                        }, 
                        {
                            "pitch": 68, 
                            "t0": 184681, 
                            "v": 84, 
                            "dur": 87, 
                            "type": "note", 
                            "channel": 0
                        }
                    ]
                ], 
                [
                    184686, 
                    [
                        {
                            "pitch": 65, 
                            "t0": 184686, 
                            "v": 101, 
                            "dur": 74, 
                            "type": "note", 
                            "channel": 0
                        }
                    ]
                ], 
                [
                    184812, 
                    [
                        {
                            "pitch": 65, 
                            "t0": 184812, 
                            "v": 102, 
                            "dur": 69, 
                            "type": "note", 
                            "channel": 0
                        }, 
                        {
                            "pitch": 71, 
                            "t0": 184812, 
                            "v": 92, 
                            "dur": 81, 
                            "type": "note", 
                            "channel": 0
                        }
                    ]
                ], 
                [
                    184815, 
                    [
                        {
                            "pitch": 68, 
                            "t0": 184815, 
                            "v": 93, 
                            "dur": 75, 
                            "type": "note", 
                            "channel": 0
                        }
                    ]
                ], 
                [
                    184945, 
                    [
                        {
                            "pitch": 65, 
                            "t0": 184945, 
                            "v": 100, 
                            "dur": 71, 
                            "type": "note", 
                            "channel": 0
                        }
                    ]
                ], 
                [
                    184949, 
                    [
                        {
                            "pitch": 74, 
                            "t0": 184949, 
                            "v": 113, 
                            "dur": 59, 
                            "type": "note", 
                            "channel": 0
                        }, 
                        {
                            "pitch": 68, 
                            "t0": 184949, 
                            "v": 91, 
                            "dur": 94, 
                            "type": "note", 
                            "channel": 0
                        }
                    ]
                ], 
                [
                    185094, 
                    [
                        {
                            "pitch": 63, 
                            "t0": 185094, 
                            "v": 112, 
                            "dur": 593, 
                            "type": "note", 
                            "channel": 0
                        }
                    ]
                ], 
                [
                    185097, 
                    [
                        {
                            "pitch": 74, 
                            "t0": 185097, 
                            "v": 117, 
                            "dur": 587, 
                            "type": "note", 
                            "channel": 0
                        }, 
                        {
                            "pitch": 67, 
                            "t0": 185097, 
                            "v": 106, 
                            "dur": 606, 
                            "type": "note", 
                            "channel": 0
                        }
                    ]
                ], 
                [
                    185233, 
                    [
                        {
                            "pitch": 36, 
                            "t0": 185233, 
                            "v": 108, 
                            "dur": 31, 
                            "type": "note", 
                            "channel": 0
                        }, 
                        {
                            "pitch": 48, 
                            "t0": 185233, 
                            "v": 107, 
                            "dur": 61, 
                            "type": "note", 
                            "channel": 0
                        }
                    ]
                ], 
                [
                    185369, 
                    [
                        {
                            "pitch": 48, 
                            "t0": 185369, 
                            "v": 98, 
                            "dur": 53, 
                            "type": "note", 
                            "channel": 0
                        }
                    ]
                ], 
                [
                    185380, 
                    [
                        {
                            "pitch": 36, 
                            "t0": 185380, 
                            "v": 100, 
                            "dur": 25, 
                            "type": "note", 
                            "channel": 0
                        }
                    ]
                ], 
                [
                    185500, 
                    [
                        {
                            "pitch": 48, 
                            "t0": 185500, 
                            "v": 96, 
                            "dur": 70, 
                            "type": "note", 
                            "channel": 0
                        }
                    ]
                ], 
                [
                    185506, 
                    [
                        {
                            "pitch": 36, 
                            "t0": 185506, 
                            "v": 96, 
                            "dur": 39, 
                            "type": "note", 
                            "channel": 0
                        }
                    ]
                ], 
                [
                    185636, 
                    [
                        {
                            "pitch": 48, 
                            "t0": 185636, 
                            "v": 101, 
                            "dur": 79, 
                            "type": "note", 
                            "channel": 0
                        }
                    ]
                ], 
                [
                    185642, 
                    [
                        {
                            "pitch": 36, 
                            "t0": 185642, 
                            "v": 101, 
                            "dur": 29, 
                            "type": "note", 
                            "channel": 0
                        }, 
                        {
                            "pitch": 72, 
                            "t0": 185642, 
                            "v": 103, 
                            "dur": 81, 
                            "type": "note", 
                            "channel": 0
                        }
                    ]
                ], 
                [
                    185757, 
                    [
                        {
                            "pitch": 63, 
                            "t0": 185757, 
                            "v": 81, 
                            "dur": 80, 
                            "type": "note", 
                            "channel": 0
                        }
                    ]
                ], 
                [
                    185765, 
                    [
                        {
                            "pitch": 67, 
                            "t0": 185765, 
                            "v": 85, 
                            "dur": 87, 
                            "type": "note", 
                            "channel": 0
                        }
                    ]
                ], 
                [
                    185768, 
                    [
                        {
                            "pitch": 72, 
                            "t0": 185768, 
                            "v": 107, 
                            "dur": 75, 
                            "type": "note", 
                            "channel": 0
                        }
                    ]
                ], 
                [
                    185899, 
                    [
                        {
                            "pitch": 63, 
                            "t0": 185899, 
                            "v": 78, 
                            "dur": 91, 
                            "type": "note", 
                            "channel": 0
                        }
                    ]
                ], 
                [
                    185902, 
                    [
                        {
                            "pitch": 72, 
                            "t0": 185902, 
                            "v": 100, 
                            "dur": 122, 
                            "type": "note", 
                            "channel": 0
                        }
                    ]
                ], 
                [
                    185905, 
                    [
                        {
                            "pitch": 60, 
                            "t0": 185905, 
                            "v": 102, 
                            "dur": 82, 
                            "type": "note", 
                            "channel": 0
                        }
                    ]
                ], 
                [
                    185913, 
                    [
                        {
                            "pitch": 55, 
                            "t0": 185913, 
                            "v": 95, 
                            "dur": 119, 
                            "type": "note", 
                            "channel": 0
                        }, 
                        {
                            "pitch": 51, 
                            "t0": 185913, 
                            "v": 91, 
                            "dur": 125, 
                            "type": "note", 
                            "channel": 0
                        }
                    ]
                ], 
                [
                    185918, 
                    [
                        {
                            "pitch": 67, 
                            "t0": 185918, 
                            "v": 89, 
                            "dur": 48, 
                            "type": "note", 
                            "channel": 0
                        }
                    ]
                ], 
                [
                    186024, 
                    [
                        {
                            "pitch": 48, 
                            "t0": 186024, 
                            "v": 100, 
                            "dur": 27, 
                            "type": "note", 
                            "channel": 0
                        }
                    ]
                ], 
                [
                    186029, 
                    [
                        {
                            "pitch": 75, 
                            "t0": 186029, 
                            "v": 92, 
                            "dur": 75, 
                            "type": "note", 
                            "channel": 0
                        }
                    ]
                ], 
                [
                    186175, 
                    [
                        {
                            "pitch": 75, 
                            "t0": 186175, 
                            "v": 100, 
                            "dur": 183, 
                            "type": "note", 
                            "channel": 0
                        }
                    ]
                ], 
                [
                    186180, 
                    [
                        {
                            "pitch": 65, 
                            "t0": 186180, 
                            "v": 108, 
                            "dur": 184, 
                            "type": "note", 
                            "channel": 0
                        }, 
                        {
                            "pitch": 68, 
                            "t0": 186180, 
                            "v": 93, 
                            "dur": 209, 
                            "type": "note", 
                            "channel": 0
                        }
                    ]
                ], 
                [
                    186186, 
                    [
                        {
                            "pitch": 36, 
                            "t0": 186186, 
                            "v": 107, 
                            "dur": 32, 
                            "type": "note", 
                            "channel": 0
                        }, 
                        {
                            "pitch": 48, 
                            "t0": 186186, 
                            "v": 110, 
                            "dur": 74, 
                            "type": "note", 
                            "channel": 0
                        }
                    ]
                ], 
                [
                    186339, 
                    [
                        {
                            "pitch": 74, 
                            "t0": 186339, 
                            "v": 99, 
                            "dur": 86, 
                            "type": "note", 
                            "channel": 0
                        }
                    ]
                ], 
                [
                    186472, 
                    [
                        {
                            "pitch": 68, 
                            "t0": 186472, 
                            "v": 67, 
                            "dur": 84, 
                            "type": "note", 
                            "channel": 0
                        }
                    ]
                ], 
                [
                    186478, 
                    [
                        {
                            "pitch": 74, 
                            "t0": 186478, 
                            "v": 104, 
                            "dur": 105, 
                            "type": "note", 
                            "channel": 0
                        }
                    ]
                ], 
                [
                    186483, 
                    [
                        {
                            "pitch": 59, 
                            "t0": 186483, 
                            "v": 77, 
                            "dur": 45, 
                            "type": "note", 
                            "channel": 0
                        }, 
                        {
                            "pitch": 65, 
                            "t0": 186483, 
                            "v": 91, 
                            "dur": 64, 
                            "type": "note", 
                            "channel": 0
                        }
                    ]
                ], 
                [
                    186494, 
                    [
                        {
                            "pitch": 53, 
                            "t0": 186494, 
                            "v": 72, 
                            "dur": 57, 
                            "type": "note", 
                            "channel": 0
                        }, 
                        {
                            "pitch": 56, 
                            "t0": 186494, 
                            "v": 72, 
                            "dur": 89, 
                            "type": "note", 
                            "channel": 0
                        }
                    ]
                ], 
                [
                    186597, 
                    [
                        {
                            "pitch": 48, 
                            "t0": 186597, 
                            "v": 78, 
                            "dur": 28, 
                            "type": "note", 
                            "channel": 0
                        }
                    ]
                ], 
                [
                    186603, 
                    [
                        {
                            "pitch": 77, 
                            "t0": 186603, 
                            "v": 105, 
                            "dur": 73, 
                            "type": "note", 
                            "channel": 0
                        }
                    ]
                ], 
                [
                    186746, 
                    [
                        {
                            "pitch": 70, 
                            "t0": 186746, 
                            "v": 113, 
                            "dur": 175, 
                            "type": "note", 
                            "channel": 0
                        }, 
                        {
                            "pitch": 77, 
                            "t0": 186746, 
                            "v": 111, 
                            "dur": 175, 
                            "type": "note", 
                            "channel": 0
                        }
                    ]
                ], 
                [
                    186749, 
                    [
                        {
                            "pitch": 67, 
                            "t0": 186749, 
                            "v": 111, 
                            "dur": 166, 
                            "type": "note", 
                            "channel": 0
                        }
                    ]
                ], 
                [
                    186756, 
                    [
                        {
                            "pitch": 48, 
                            "t0": 186756, 
                            "v": 113, 
                            "dur": 73, 
                            "type": "note", 
                            "channel": 0
                        }
                    ]
                ], 
                [
                    186760, 
                    [
                        {
                            "pitch": 36, 
                            "t0": 186760, 
                            "v": 95, 
                            "dur": 25, 
                            "type": "note", 
                            "channel": 0
                        }
                    ]
                ], 
                [
                    186888, 
                    [
                        {
                            "pitch": 76, 
                            "t0": 186888, 
                            "v": 103, 
                            "dur": 88, 
                            "type": "note", 
                            "channel": 0
                        }
                    ]
                ], 
                [
                    187013, 
                    [
                        {
                            "pitch": 58, 
                            "t0": 187013, 
                            "v": 106, 
                            "dur": 92, 
                            "type": "note", 
                            "channel": 0
                        }
                    ]
                ], 
                [
                    187021, 
                    [
                        {
                            "pitch": 70, 
                            "t0": 187021, 
                            "v": 96, 
                            "dur": 72, 
                            "type": "note", 
                            "channel": 0
                        }, 
                        {
                            "pitch": 67, 
                            "t0": 187021, 
                            "v": 95, 
                            "dur": 76, 
                            "type": "note", 
                            "channel": 0
                        }, 
                        {
                            "pitch": 76, 
                            "t0": 187021, 
                            "v": 114, 
                            "dur": 95, 
                            "type": "note", 
                            "channel": 0
                        }
                    ]
                ], 
                [
                    187033, 
                    [
                        {
                            "pitch": 55, 
                            "t0": 187033, 
                            "v": 85, 
                            "dur": 96, 
                            "type": "note", 
                            "channel": 0
                        }
                    ]
                ], 
                [
                    187136, 
                    [
                        {
                            "pitch": 48, 
                            "t0": 187136, 
                            "v": 84, 
                            "dur": 30, 
                            "type": "note", 
                            "channel": 0
                        }
                    ]
                ], 
                [
                    187144, 
                    [
                        {
                            "pitch": 79, 
                            "t0": 187144, 
                            "v": 102, 
                            "dur": 70, 
                            "type": "note", 
                            "channel": 0
                        }
                    ]
                ], 
                [
                    187289, 
                    [
                        {
                            "pitch": 68, 
                            "t0": 187289, 
                            "v": 107, 
                            "dur": 184, 
                            "type": "note", 
                            "channel": 0
                        }
                    ]
                ], 
                [
                    187294, 
                    [
                        {
                            "pitch": 79, 
                            "t0": 187294, 
                            "v": 111, 
                            "dur": 150, 
                            "type": "note", 
                            "channel": 0
                        }, 
                        {
                            "pitch": 72, 
                            "t0": 187294, 
                            "v": 109, 
                            "dur": 187, 
                            "type": "note", 
                            "channel": 0
                        }
                    ]
                ], 
                [
                    187300, 
                    [
                        {
                            "pitch": 48, 
                            "t0": 187300, 
                            "v": 105, 
                            "dur": 84, 
                            "type": "note", 
                            "channel": 0
                        }
                    ]
                ], 
                [
                    187305, 
                    [
                        {
                            "pitch": 36, 
                            "t0": 187305, 
                            "v": 102, 
                            "dur": 67, 
                            "type": "note", 
                            "channel": 0
                        }
                    ]
                ], 
                [
                    187434, 
                    [
                        {
                            "pitch": 77, 
                            "t0": 187434, 
                            "v": 103, 
                            "dur": 91, 
                            "type": "note", 
                            "channel": 0
                        }
                    ]
                ], 
                [
                    187558, 
                    [
                        {
                            "pitch": 72, 
                            "t0": 187558, 
                            "v": 88, 
                            "dur": 101, 
                            "type": "note", 
                            "channel": 0
                        }, 
                        {
                            "pitch": 68, 
                            "t0": 187558, 
                            "v": 92, 
                            "dur": 113, 
                            "type": "note", 
                            "channel": 0
                        }
                    ]
                ], 
                [
                    187565, 
                    [
                        {
                            "pitch": 56, 
                            "t0": 187565, 
                            "v": 84, 
                            "dur": 89, 
                            "type": "note", 
                            "channel": 0
                        }
                    ]
                ], 
                [
                    187572, 
                    [
                        {
                            "pitch": 77, 
                            "t0": 187572, 
                            "v": 102, 
                            "dur": 140, 
                            "type": "note", 
                            "channel": 0
                        }
                    ]
                ], 
                [
                    187579, 
                    [
                        {
                            "pitch": 53, 
                            "t0": 187579, 
                            "v": 83, 
                            "dur": 110, 
                            "type": "note", 
                            "channel": 0
                        }
                    ]
                ], 
                [
                    187689, 
                    [
                        {
                            "pitch": 48, 
                            "t0": 187689, 
                            "v": 81, 
                            "dur": 28, 
                            "type": "note", 
                            "channel": 0
                        }
                    ]
                ], 
                [
                    187693, 
                    [
                        {
                            "pitch": 80, 
                            "t0": 187693, 
                            "v": 104, 
                            "dur": 80, 
                            "type": "note", 
                            "channel": 0
                        }
                    ]
                ], 
                [
                    187843, 
                    [
                        {
                            "pitch": 70, 
                            "t0": 187843, 
                            "v": 124, 
                            "dur": 165, 
                            "type": "note", 
                            "channel": 0
                        }, 
                        {
                            "pitch": 80, 
                            "t0": 187843, 
                            "v": 107, 
                            "dur": 179, 
                            "type": "note", 
                            "channel": 0
                        }
                    ]
                ], 
                [
                    187849, 
                    [
                        {
                            "pitch": 76, 
                            "t0": 187849, 
                            "v": 112, 
                            "dur": 201, 
                            "type": "note", 
                            "channel": 0
                        }
                    ]
                ], 
                [
                    187854, 
                    [
                        {
                            "pitch": 36, 
                            "t0": 187854, 
                            "v": 109, 
                            "dur": 59, 
                            "type": "note", 
                            "channel": 0
                        }, 
                        {
                            "pitch": 48, 
                            "t0": 187854, 
                            "v": 108, 
                            "dur": 94, 
                            "type": "note", 
                            "channel": 0
                        }
                    ]
                ], 
                [
                    187993, 
                    [
                        {
                            "pitch": 79, 
                            "t0": 187993, 
                            "v": 105, 
                            "dur": 54, 
                            "type": "note", 
                            "channel": 0
                        }
                    ]
                ], 
                [
                    188113, 
                    [
                        {
                            "pitch": 70, 
                            "t0": 188113, 
                            "v": 108, 
                            "dur": 95, 
                            "type": "note", 
                            "channel": 0
                        }
                    ]
                ], 
                [
                    188118, 
                    [
                        {
                            "pitch": 76, 
                            "t0": 188118, 
                            "v": 84, 
                            "dur": 79, 
                            "type": "note", 
                            "channel": 0
                        }, 
                        {
                            "pitch": 79, 
                            "t0": 188118, 
                            "v": 98, 
                            "dur": 115, 
                            "type": "note", 
                            "channel": 0
                        }
                    ]
                ], 
                [
                    188121, 
                    [
                        {
                            "pitch": 55, 
                            "t0": 188121, 
                            "v": 97, 
                            "dur": 68, 
                            "type": "note", 
                            "channel": 0
                        }
                    ]
                ], 
                [
                    188139, 
                    [
                        {
                            "pitch": 52, 
                            "t0": 188139, 
                            "v": 83, 
                            "dur": 97, 
                            "type": "note", 
                            "channel": 0
                        }
                    ]
                ], 
                [
                    188241, 
                    [
                        {
                            "pitch": 48, 
                            "t0": 188241, 
                            "v": 86, 
                            "dur": 28, 
                            "type": "note", 
                            "channel": 0
                        }
                    ]
                ], 
                [
                    188245, 
                    [
                        {
                            "pitch": 82, 
                            "t0": 188245, 
                            "v": 113, 
                            "dur": 93, 
                            "type": "note", 
                            "channel": 0
                        }
                    ]
                ], 
                [
                    188391, 
                    [
                        {
                            "pitch": 82, 
                            "t0": 188391, 
                            "v": 117, 
                            "dur": 190, 
                            "type": "note", 
                            "channel": 0
                        }
                    ]
                ], 
                [
                    188394, 
                    [
                        {
                            "pitch": 77, 
                            "t0": 188394, 
                            "v": 117, 
                            "dur": 131, 
                            "type": "note", 
                            "channel": 0
                        }, 
                        {
                            "pitch": 72, 
                            "t0": 188394, 
                            "v": 118, 
                            "dur": 178, 
                            "type": "note", 
                            "channel": 0
                        }
                    ]
                ], 
                [
                    188405, 
                    [
                        {
                            "pitch": 36, 
                            "t0": 188405, 
                            "v": 112, 
                            "dur": 73, 
                            "type": "note", 
                            "channel": 0
                        }, 
                        {
                            "pitch": 48, 
                            "t0": 188405, 
                            "v": 109, 
                            "dur": 103, 
                            "type": "note", 
                            "channel": 0
                        }
                    ]
                ], 
                [
                    188545, 
                    [
                        {
                            "pitch": 80, 
                            "t0": 188545, 
                            "v": 103, 
                            "dur": 69, 
                            "type": "note", 
                            "channel": 0
                        }
                    ]
                ], 
                [
                    188660, 
                    [
                        {
                            "pitch": 80, 
                            "t0": 188660, 
                            "v": 105, 
                            "dur": 130, 
                            "type": "note", 
                            "channel": 0
                        }
                    ]
                ], 
                [
                    188664, 
                    [
                        {
                            "pitch": 77, 
                            "t0": 188664, 
                            "v": 105, 
                            "dur": 92, 
                            "type": "note", 
                            "channel": 0
                        }, 
                        {
                            "pitch": 72, 
                            "t0": 188664, 
                            "v": 108, 
                            "dur": 132, 
                            "type": "note", 
                            "channel": 0
                        }
                    ]
                ], 
                [
                    188671, 
                    [
                        {
                            "pitch": 56, 
                            "t0": 188671, 
                            "v": 84, 
                            "dur": 89, 
                            "type": "note", 
                            "channel": 0
                        }
                    ]
                ], 
                [
                    188687, 
                    [
                        {
                            "pitch": 53, 
                            "t0": 188687, 
                            "v": 78, 
                            "dur": 109, 
                            "type": "note", 
                            "channel": 0
                        }
                    ]
                ], 
                [
                    188790, 
                    [
                        {
                            "pitch": 48, 
                            "t0": 188790, 
                            "v": 92, 
                            "dur": 25, 
                            "type": "note", 
                            "channel": 0
                        }
                    ]
                ], 
                [
                    188799, 
                    [
                        {
                            "pitch": 84, 
                            "t0": 188799, 
                            "v": 110, 
                            "dur": 86, 
                            "type": "note", 
                            "channel": 0
                        }
                    ]
                ], 
                [
                    188949, 
                    [
                        {
                            "pitch": 84, 
                            "t0": 188949, 
                            "v": 117, 
                            "dur": 158, 
                            "type": "note", 
                            "channel": 0
                        }
                    ]
                ], 
                [
                    188952, 
                    [
                        {
                            "pitch": 74, 
                            "t0": 188952, 
                            "v": 123, 
                            "dur": 178, 
                            "type": "note", 
                            "channel": 0
                        }, 
                        {
                            "pitch": 77, 
                            "t0": 188952, 
                            "v": 115, 
                            "dur": 186, 
                            "type": "note", 
                            "channel": 0
                        }, 
                        {
                            "pitch": 80, 
                            "t0": 188952, 
                            "v": 111, 
                            "dur": 197, 
                            "type": "note", 
                            "channel": 0
                        }
                    ]
                ], 
                [
                    188960, 
                    [
                        {
                            "pitch": 36, 
                            "t0": 188960, 
                            "v": 111, 
                            "dur": 70, 
                            "type": "note", 
                            "channel": 0
                        }, 
                        {
                            "pitch": 48, 
                            "t0": 188960, 
                            "v": 94, 
                            "dur": 75, 
                            "type": "note", 
                            "channel": 0
                        }
                    ]
                ], 
                [
                    189094, 
                    [
                        {
                            "pitch": 83, 
                            "t0": 189094, 
                            "v": 88, 
                            "dur": 67, 
                            "type": "note", 
                            "channel": 0
                        }
                    ]
                ], 
                [
                    189211, 
                    [
                        {
                            "pitch": 77, 
                            "t0": 189211, 
                            "v": 94, 
                            "dur": 73, 
                            "type": "note", 
                            "channel": 0
                        }, 
                        {
                            "pitch": 83, 
                            "t0": 189211, 
                            "v": 100, 
                            "dur": 87, 
                            "type": "note", 
                            "channel": 0
                        }
                    ]
                ], 
                [
                    189214, 
                    [
                        {
                            "pitch": 74, 
                            "t0": 189214, 
                            "v": 106, 
                            "dur": 102, 
                            "type": "note", 
                            "channel": 0
                        }, 
                        {
                            "pitch": 80, 
                            "t0": 189214, 
                            "v": 82, 
                            "dur": 119, 
                            "type": "note", 
                            "channel": 0
                        }
                    ]
                ], 
                [
                    189219, 
                    [
                        {
                            "pitch": 59, 
                            "t0": 189219, 
                            "v": 89, 
                            "dur": 89, 
                            "type": "note", 
                            "channel": 0
                        }
                    ]
                ], 
                [
                    189230, 
                    [
                        {
                            "pitch": 53, 
                            "t0": 189230, 
                            "v": 85, 
                            "dur": 86, 
                            "type": "note", 
                            "channel": 0
                        }, 
                        {
                            "pitch": 56, 
                            "t0": 189230, 
                            "v": 83, 
                            "dur": 93, 
                            "type": "note", 
                            "channel": 0
                        }
                    ]
                ], 
                [
                    189344, 
                    [
                        {
                            "pitch": 86, 
                            "t0": 189344, 
                            "v": 113, 
                            "dur": 61, 
                            "type": "note", 
                            "channel": 0
                        }
                    ]
                ], 
                [
                    189495, 
                    [
                        {
                            "pitch": 72, 
                            "t0": 189495, 
                            "v": 121, 
                            "dur": 69, 
                            "type": "note", 
                            "channel": 0
                        }
                    ]
                ], 
                [
                    189500, 
                    [
                        {
                            "pitch": 84, 
                            "t0": 189500, 
                            "v": 119, 
                            "dur": 75, 
                            "type": "note", 
                            "channel": 0
                        }, 
                        {
                            "pitch": 36, 
                            "t0": 189500, 
                            "v": 112, 
                            "dur": 93, 
                            "type": "note", 
                            "channel": 0
                        }, 
                        {
                            "pitch": 43, 
                            "t0": 189500, 
                            "v": 111, 
                            "dur": 125, 
                            "type": "note", 
                            "channel": 0
                        }
                    ]
                ], 
                [
                    189503, 
                    [
                        {
                            "pitch": 48, 
                            "t0": 189503, 
                            "v": 119, 
                            "dur": 128, 
                            "type": "note", 
                            "channel": 0
                        }
                    ]
                ], 
                [
                    189506, 
                    [
                        {
                            "pitch": 75, 
                            "t0": 189506, 
                            "v": 95, 
                            "dur": 30, 
                            "type": "note", 
                            "channel": 0
                        }
                    ]
                ], 
                [
                    189514, 
                    [
                        {
                            "pitch": 39, 
                            "t0": 189514, 
                            "v": 103, 
                            "dur": 117, 
                            "type": "note", 
                            "channel": 0
                        }
                    ]
                ], 
                [
                    189657, 
                    [
                        {
                            "pitch": 75, 
                            "t0": 189657, 
                            "v": 114, 
                            "dur": 64, 
                            "type": "note", 
                            "channel": 0
                        }, 
                        {
                            "pitch": 87, 
                            "t0": 189657, 
                            "v": 115, 
                            "dur": 72, 
                            "type": "note", 
                            "channel": 0
                        }
                    ]
                ], 
                [
                    189799, 
                    [
                        {
                            "pitch": 87, 
                            "t0": 189799, 
                            "v": 105, 
                            "dur": 58, 
                            "type": "note", 
                            "channel": 0
                        }, 
                        {
                            "pitch": 75, 
                            "t0": 189799, 
                            "v": 110, 
                            "dur": 58, 
                            "type": "note", 
                            "channel": 0
                        }
                    ]
                ], 
                [
                    189924, 
                    [
                        {
                            "pitch": 87, 
                            "t0": 189924, 
                            "v": 96, 
                            "dur": 55, 
                            "type": "note", 
                            "channel": 0
                        }, 
                        {
                            "pitch": 75, 
                            "t0": 189924, 
                            "v": 105, 
                            "dur": 83, 
                            "type": "note", 
                            "channel": 0
                        }
                    ]
                ], 
                [
                    190057, 
                    [
                        {
                            "pitch": 72, 
                            "t0": 190057, 
                            "v": 127, 
                            "dur": 89, 
                            "type": "note", 
                            "channel": 0
                        }
                    ]
                ], 
                [
                    190061, 
                    [
                        {
                            "pitch": 67, 
                            "t0": 190061, 
                            "v": 110, 
                            "dur": 120, 
                            "type": "note", 
                            "channel": 0
                        }, 
                        {
                            "pitch": 60, 
                            "t0": 190061, 
                            "v": 111, 
                            "dur": 142, 
                            "type": "note", 
                            "channel": 0
                        }
                    ]
                ], 
                [
                    190064, 
                    [
                        {
                            "pitch": 63, 
                            "t0": 190064, 
                            "v": 103, 
                            "dur": 122, 
                            "type": "note", 
                            "channel": 0
                        }
                    ]
                ], 
                [
                    190197, 
                    [
                        {
                            "pitch": 79, 
                            "t0": 190197, 
                            "v": 109, 
                            "dur": 56, 
                            "type": "note", 
                            "channel": 0
                        }
                    ]
                ], 
                [
                    190203, 
                    [
                        {
                            "pitch": 67, 
                            "t0": 190203, 
                            "v": 95, 
                            "dur": 60, 
                            "type": "note", 
                            "channel": 0
                        }
                    ]
                ], 
                [
                    190330, 
                    [
                        {
                            "pitch": 67, 
                            "t0": 190330, 
                            "v": 103, 
                            "dur": 57, 
                            "type": "note", 
                            "channel": 0
                        }, 
                        {
                            "pitch": 79, 
                            "t0": 190330, 
                            "v": 101, 
                            "dur": 71, 
                            "type": "note", 
                            "channel": 0
                        }
                    ]
                ], 
                [
                    190470, 
                    [
                        {
                            "pitch": 67, 
                            "t0": 190470, 
                            "v": 111, 
                            "dur": 73, 
                            "type": "note", 
                            "channel": 0
                        }
                    ]
                ], 
                [
                    190476, 
                    [
                        {
                            "pitch": 79, 
                            "t0": 190476, 
                            "v": 101, 
                            "dur": 21, 
                            "type": "note", 
                            "channel": 0
                        }
                    ]
                ], 
                [
                    190612, 
                    [
                        {
                            "pitch": 63, 
                            "t0": 190612, 
                            "v": 115, 
                            "dur": 81, 
                            "type": "note", 
                            "channel": 0
                        }
                    ]
                ], 
                [
                    190618, 
                    [
                        {
                            "pitch": 60, 
                            "t0": 190618, 
                            "v": 101, 
                            "dur": 75, 
                            "type": "note", 
                            "channel": 0
                        }
                    ]
                ], 
                [
                    190621, 
                    [
                        {
                            "pitch": 55, 
                            "t0": 190621, 
                            "v": 103, 
                            "dur": 89, 
                            "type": "note", 
                            "channel": 0
                        }
                    ]
                ], 
                [
                    190734, 
                    [
                        {
                            "pitch": 72, 
                            "t0": 190734, 
                            "v": 113, 
                            "dur": 23, 
                            "type": "note", 
                            "channel": 0
                        }, 
                        {
                            "pitch": 60, 
                            "t0": 190734, 
                            "v": 107, 
                            "dur": 65, 
                            "type": "note", 
                            "channel": 0
                        }
                    ]
                ], 
                [
                    190879, 
                    [
                        {
                            "pitch": 55, 
                            "t0": 190879, 
                            "v": 105, 
                            "dur": 65, 
                            "type": "note", 
                            "channel": 0
                        }
                    ]
                ], 
                [
                    190888, 
                    [
                        {
                            "pitch": 67, 
                            "t0": 190888, 
                            "v": 75, 
                            "dur": 34, 
                            "type": "note", 
                            "channel": 0
                        }
                    ]
                ], 
                [
                    191004, 
                    [
                        {
                            "pitch": 55, 
                            "t0": 191004, 
                            "v": 103, 
                            "dur": 76, 
                            "type": "note", 
                            "channel": 0
                        }
                    ]
                ], 
                [
                    191008, 
                    [
                        {
                            "pitch": 67, 
                            "t0": 191008, 
                            "v": 97, 
                            "dur": 28, 
                            "type": "note", 
                            "channel": 0
                        }
                    ]
                ], 
                [
                    191138, 
                    [
                        {
                            "pitch": 51, 
                            "t0": 191138, 
                            "v": 109, 
                            "dur": 56, 
                            "type": "note", 
                            "channel": 0
                        }
                    ]
                ], 
                [
                    191142, 
                    [
                        {
                            "pitch": 48, 
                            "t0": 191142, 
                            "v": 110, 
                            "dur": 75, 
                            "type": "note", 
                            "channel": 0
                        }
                    ]
                ], 
                [
                    191266, 
                    [
                        {
                            "pitch": 51, 
                            "t0": 191266, 
                            "v": 86, 
                            "dur": 63, 
                            "type": "note", 
                            "channel": 0
                        }, 
                        {
                            "pitch": 48, 
                            "t0": 191266, 
                            "v": 107, 
                            "dur": 68, 
                            "type": "note", 
                            "channel": 0
                        }, 
                        {
                            "pitch": 60, 
                            "t0": 191266, 
                            "v": 95, 
                            "dur": 96, 
                            "type": "note", 
                            "channel": 0
                        }
                    ]
                ], 
                [
                    191275, 
                    [
                        {
                            "pitch": 36, 
                            "t0": 191275, 
                            "v": 110, 
                            "dur": 27, 
                            "type": "note", 
                            "channel": 0
                        }, 
                        {
                            "pitch": 55, 
                            "t0": 191275, 
                            "v": 87, 
                            "dur": 51, 
                            "type": "note", 
                            "channel": 0
                        }
                    ]
                ], 
                [
                    191401, 
                    [
                        {
                            "pitch": 48, 
                            "t0": 191401, 
                            "v": 97, 
                            "dur": 61, 
                            "type": "note", 
                            "channel": 0
                        }, 
                        {
                            "pitch": 51, 
                            "t0": 191401, 
                            "v": 90, 
                            "dur": 71, 
                            "type": "note", 
                            "channel": 0
                        }
                    ]
                ], 
                [
                    191406, 
                    [
                        {
                            "pitch": 60, 
                            "t0": 191406, 
                            "v": 100, 
                            "dur": 84, 
                            "type": "note", 
                            "channel": 0
                        }, 
                        {
                            "pitch": 55, 
                            "t0": 191406, 
                            "v": 87, 
                            "dur": 94, 
                            "type": "note", 
                            "channel": 0
                        }
                    ]
                ], 
                [
                    191415, 
                    [
                        {
                            "pitch": 36, 
                            "t0": 191415, 
                            "v": 99, 
                            "dur": 24, 
                            "type": "note", 
                            "channel": 0
                        }
                    ]
                ], 
                [
                    191532, 
                    [
                        {
                            "pitch": 48, 
                            "t0": 191532, 
                            "v": 92, 
                            "dur": 30, 
                            "type": "note", 
                            "channel": 0
                        }, 
                        {
                            "pitch": 51, 
                            "t0": 191532, 
                            "v": 87, 
                            "dur": 105, 
                            "type": "note", 
                            "channel": 0
                        }
                    ]
                ], 
                [
                    191537, 
                    [
                        {
                            "pitch": 60, 
                            "t0": 191537, 
                            "v": 103, 
                            "dur": 81, 
                            "type": "note", 
                            "channel": 0
                        }
                    ]
                ], 
                [
                    191542, 
                    [
                        {
                            "pitch": 55, 
                            "t0": 191542, 
                            "v": 76, 
                            "dur": 26, 
                            "type": "note", 
                            "channel": 0
                        }
                    ]
                ], 
                [
                    191545, 
                    [
                        {
                            "pitch": 36, 
                            "t0": 191545, 
                            "v": 92, 
                            "dur": 23, 
                            "type": "note", 
                            "channel": 0
                        }
                    ]
                ], 
                [
                    191721, 
                    [
                        {
                            "pitch": 59, 
                            "t0": 191721, 
                            "v": 96, 
                            "dur": 50, 
                            "type": "note", 
                            "channel": 0
                        }
                    ]
                ], 
                [
                    191726, 
                    [
                        {
                            "pitch": 55, 
                            "t0": 191726, 
                            "v": 91, 
                            "dur": 25, 
                            "type": "note", 
                            "channel": 0
                        }
                    ]
                ], 
                [
                    191729, 
                    [
                        {
                            "pitch": 31, 
                            "t0": 191729, 
                            "v": 123, 
                            "dur": 181, 
                            "type": "note", 
                            "channel": 0
                        }, 
                        {
                            "pitch": 43, 
                            "t0": 191729, 
                            "v": 121, 
                            "dur": 215, 
                            "type": "note", 
                            "channel": 0
                        }
                    ]
                ], 
                [
                    191732, 
                    [
                        {
                            "pitch": 50, 
                            "t0": 191732, 
                            "v": 107, 
                            "dur": 19, 
                            "type": "note", 
                            "channel": 0
                        }, 
                        {
                            "pitch": 53, 
                            "t0": 191732, 
                            "v": 33, 
                            "dur": 45, 
                            "type": "note", 
                            "channel": 0
                        }
                    ]
                ], 
                [
                    191968, 
                    [
                        {
                            "pitch": 89, 
                            "t0": 191968, 
                            "v": 89, 
                            "dur": 23, 
                            "type": "note", 
                            "channel": 0
                        }, 
                        {
                            "pitch": 77, 
                            "t0": 191968, 
                            "v": 92, 
                            "dur": 34, 
                            "type": "note", 
                            "channel": 0
                        }
                    ]
                ], 
                [
                    192086, 
                    [
                        {
                            "pitch": 86, 
                            "t0": 192086, 
                            "v": 111, 
                            "dur": 44, 
                            "type": "note", 
                            "channel": 0
                        }
                    ]
                ], 
                [
                    192089, 
                    [
                        {
                            "pitch": 74, 
                            "t0": 192089, 
                            "v": 103, 
                            "dur": 36, 
                            "type": "note", 
                            "channel": 0
                        }
                    ]
                ], 
                [
                    192220, 
                    [
                        {
                            "pitch": 86, 
                            "t0": 192220, 
                            "v": 106, 
                            "dur": 46, 
                            "type": "note", 
                            "channel": 0
                        }, 
                        {
                            "pitch": 74, 
                            "t0": 192220, 
                            "v": 114, 
                            "dur": 63, 
                            "type": "note", 
                            "channel": 0
                        }
                    ]
                ], 
                [
                    192362, 
                    [
                        {
                            "pitch": 71, 
                            "t0": 192362, 
                            "v": 114, 
                            "dur": 86, 
                            "type": "note", 
                            "channel": 0
                        }
                    ]
                ], 
                [
                    192367, 
                    [
                        {
                            "pitch": 65, 
                            "t0": 192367, 
                            "v": 113, 
                            "dur": 114, 
                            "type": "note", 
                            "channel": 0
                        }, 
                        {
                            "pitch": 62, 
                            "t0": 192367, 
                            "v": 109, 
                            "dur": 156, 
                            "type": "note", 
                            "channel": 0
                        }
                    ]
                ], 
                [
                    192389, 
                    [
                        {
                            "pitch": 75, 
                            "t0": 192389, 
                            "v": 35, 
                            "dur": 54, 
                            "type": "note", 
                            "channel": 0
                        }
                    ]
                ], 
                [
                    192495, 
                    [
                        {
                            "pitch": 67, 
                            "t0": 192495, 
                            "v": 106, 
                            "dur": 53, 
                            "type": "note", 
                            "channel": 0
                        }, 
                        {
                            "pitch": 79, 
                            "t0": 192495, 
                            "v": 113, 
                            "dur": 58, 
                            "type": "note", 
                            "channel": 0
                        }
                    ]
                ], 
                [
                    192634, 
                    [
                        {
                            "pitch": 65, 
                            "t0": 192634, 
                            "v": 113, 
                            "dur": 56, 
                            "type": "note", 
                            "channel": 0
                        }
                    ]
                ], 
                [
                    192642, 
                    [
                        {
                            "pitch": 77, 
                            "t0": 192642, 
                            "v": 110, 
                            "dur": 25, 
                            "type": "note", 
                            "channel": 0
                        }
                    ]
                ], 
                [
                    192765, 
                    [
                        {
                            "pitch": 65, 
                            "t0": 192765, 
                            "v": 108, 
                            "dur": 62, 
                            "type": "note", 
                            "channel": 0
                        }
                    ]
                ], 
                [
                    192777, 
                    [
                        {
                            "pitch": 77, 
                            "t0": 192777, 
                            "v": 102, 
                            "dur": 24, 
                            "type": "note", 
                            "channel": 0
                        }
                    ]
                ], 
                [
                    192902, 
                    [
                        {
                            "pitch": 62, 
                            "t0": 192902, 
                            "v": 117, 
                            "dur": 58, 
                            "type": "note", 
                            "channel": 0
                        }
                    ]
                ], 
                [
                    192910, 
                    [
                        {
                            "pitch": 53, 
                            "t0": 192910, 
                            "v": 97, 
                            "dur": 84, 
                            "type": "note", 
                            "channel": 0
                        }, 
                        {
                            "pitch": 59, 
                            "t0": 192910, 
                            "v": 100, 
                            "dur": 94, 
                            "type": "note", 
                            "channel": 0
                        }, 
                        {
                            "pitch": 55, 
                            "t0": 192910, 
                            "v": 103, 
                            "dur": 109, 
                            "type": "note", 
                            "channel": 0
                        }
                    ]
                ], 
                [
                    193036, 
                    [
                        {
                            "pitch": 71, 
                            "t0": 193036, 
                            "v": 100, 
                            "dur": 33, 
                            "type": "note", 
                            "channel": 0
                        }
                    ]
                ], 
                [
                    193042, 
                    [
                        {
                            "pitch": 59, 
                            "t0": 193042, 
                            "v": 90, 
                            "dur": 66, 
                            "type": "note", 
                            "channel": 0
                        }
                    ]
                ], 
                [
                    193175, 
                    [
                        {
                            "pitch": 55, 
                            "t0": 193175, 
                            "v": 111, 
                            "dur": 81, 
                            "type": "note", 
                            "channel": 0
                        }, 
                        {
                            "pitch": 67, 
                            "t0": 193175, 
                            "v": 106, 
                            "dur": 86, 
                            "type": "note", 
                            "channel": 0
                        }
                    ]
                ], 
                [
                    193305, 
                    [
                        {
                            "pitch": 65, 
                            "t0": 193305, 
                            "v": 103, 
                            "dur": 28, 
                            "type": "note", 
                            "channel": 0
                        }
                    ]
                ], 
                [
                    193309, 
                    [
                        {
                            "pitch": 62, 
                            "t0": 193309, 
                            "v": 90, 
                            "dur": 30, 
                            "type": "note", 
                            "channel": 0
                        }
                    ]
                ], 
                [
                    193450, 
                    [
                        {
                            "pitch": 43, 
                            "t0": 193450, 
                            "v": 112, 
                            "dur": 109, 
                            "type": "note", 
                            "channel": 0
                        }
                    ]
                ], 
                [
                    193459, 
                    [
                        {
                            "pitch": 31, 
                            "t0": 193459, 
                            "v": 115, 
                            "dur": 89, 
                            "type": "note", 
                            "channel": 0
                        }
                    ]
                ], 
                [
                    193570, 
                    [
                        {
                            "pitch": 50, 
                            "t0": 193570, 
                            "v": 97, 
                            "dur": 34, 
                            "type": "note", 
                            "channel": 0
                        }, 
                        {
                            "pitch": 59, 
                            "t0": 193570, 
                            "v": 86, 
                            "dur": 61, 
                            "type": "note", 
                            "channel": 0
                        }
                    ]
                ], 
                [
                    193581, 
                    [
                        {
                            "pitch": 53, 
                            "t0": 193581, 
                            "v": 90, 
                            "dur": 84, 
                            "type": "note", 
                            "channel": 0
                        }
                    ]
                ], 
                [
                    193709, 
                    [
                        {
                            "pitch": 51, 
                            "t0": 193709, 
                            "v": 104, 
                            "dur": 76, 
                            "type": "note", 
                            "channel": 0
                        }, 
                        {
                            "pitch": 60, 
                            "t0": 193709, 
                            "v": 103, 
                            "dur": 76, 
                            "type": "note", 
                            "channel": 0
                        }
                    ]
                ], 
                [
                    193712, 
                    [
                        {
                            "pitch": 48, 
                            "t0": 193712, 
                            "v": 109, 
                            "dur": 68, 
                            "type": "note", 
                            "channel": 0
                        }, 
                        {
                            "pitch": 55, 
                            "t0": 193712, 
                            "v": 103, 
                            "dur": 78, 
                            "type": "note", 
                            "channel": 0
                        }
                    ]
                ], 
                [
                    193715, 
                    [
                        {
                            "pitch": 36, 
                            "t0": 193715, 
                            "v": 103, 
                            "dur": 28, 
                            "type": "note", 
                            "channel": 0
                        }
                    ]
                ], 
                [
                    193829, 
                    [
                        {
                            "pitch": 51, 
                            "t0": 193829, 
                            "v": 100, 
                            "dur": 101, 
                            "type": "note", 
                            "channel": 0
                        }
                    ]
                ], 
                [
                    193833, 
                    [
                        {
                            "pitch": 60, 
                            "t0": 193833, 
                            "v": 100, 
                            "dur": 116, 
                            "type": "note", 
                            "channel": 0
                        }
                    ]
                ], 
                [
                    193838, 
                    [
                        {
                            "pitch": 48, 
                            "t0": 193838, 
                            "v": 105, 
                            "dur": 41, 
                            "type": "note", 
                            "channel": 0
                        }, 
                        {
                            "pitch": 55, 
                            "t0": 193838, 
                            "v": 105, 
                            "dur": 151, 
                            "type": "note", 
                            "channel": 0
                        }
                    ]
                ], 
                [
                    193851, 
                    [
                        {
                            "pitch": 36, 
                            "t0": 193851, 
                            "v": 73, 
                            "dur": 31, 
                            "type": "note", 
                            "channel": 0
                        }
                    ]
                ], 
                [
                    193879, 
                    [
                        {
                            "pitch": 38, 
                            "t0": 193879, 
                            "v": 36, 
                            "dur": 46, 
                            "type": "note", 
                            "channel": 0
                        }
                    ]
                ], 
                [
                    194027, 
                    [
                        {
                            "pitch": 51, 
                            "t0": 194027, 
                            "v": 116, 
                            "dur": 73, 
                            "type": "note", 
                            "channel": 0
                        }, 
                        {
                            "pitch": 60, 
                            "t0": 194027, 
                            "v": 101, 
                            "dur": 106, 
                            "type": "note", 
                            "channel": 0
                        }
                    ]
                ], 
                [
                    194030, 
                    [
                        {
                            "pitch": 54, 
                            "t0": 194030, 
                            "v": 95, 
                            "dur": 86, 
                            "type": "note", 
                            "channel": 0
                        }, 
                        {
                            "pitch": 57, 
                            "t0": 194030, 
                            "v": 103, 
                            "dur": 90, 
                            "type": "note", 
                            "channel": 0
                        }
                    ]
                ], 
                [
                    194033, 
                    [
                        {
                            "pitch": 33, 
                            "t0": 194033, 
                            "v": 117, 
                            "dur": 78, 
                            "type": "note", 
                            "channel": 0
                        }, 
                        {
                            "pitch": 39, 
                            "t0": 194033, 
                            "v": 98, 
                            "dur": 87, 
                            "type": "note", 
                            "channel": 0
                        }, 
                        {
                            "pitch": 42, 
                            "t0": 194033, 
                            "v": 101, 
                            "dur": 94, 
                            "type": "note", 
                            "channel": 0
                        }, 
                        {
                            "pitch": 45, 
                            "t0": 194033, 
                            "v": 121, 
                            "dur": 103, 
                            "type": "note", 
                            "channel": 0
                        }
                    ]
                ], 
                [
                    194041, 
                    [
                        {
                            "pitch": 36, 
                            "t0": 194041, 
                            "v": 65, 
                            "dur": 30, 
                            "type": "note", 
                            "channel": 0
                        }
                    ]
                ], 
                [
                    194295, 
                    [
                        {
                            "pitch": 75, 
                            "t0": 194295, 
                            "v": 110, 
                            "dur": 33, 
                            "type": "note", 
                            "channel": 0
                        }, 
                        {
                            "pitch": 87, 
                            "t0": 194295, 
                            "v": 110, 
                            "dur": 36, 
                            "type": "note", 
                            "channel": 0
                        }
                    ]
                ], 
                [
                    194305, 
                    [
                        {
                            "pitch": 63, 
                            "t0": 194305, 
                            "v": 91, 
                            "dur": 45, 
                            "type": "note", 
                            "channel": 0
                        }
                    ]
                ], 
                [
                    194315, 
                    [
                        {
                            "pitch": 51, 
                            "t0": 194315, 
                            "v": 69, 
                            "dur": 39, 
                            "type": "note", 
                            "channel": 0
                        }
                    ]
                ], 
                [
                    194440, 
                    [
                        {
                            "pitch": 75, 
                            "t0": 194440, 
                            "v": 109, 
                            "dur": 69, 
                            "type": "note", 
                            "channel": 0
                        }
                    ]
                ], 
                [
                    194443, 
                    [
                        {
                            "pitch": 87, 
                            "t0": 194443, 
                            "v": 106, 
                            "dur": 39, 
                            "type": "note", 
                            "channel": 0
                        }, 
                        {
                            "pitch": 63, 
                            "t0": 194443, 
                            "v": 95, 
                            "dur": 53, 
                            "type": "note", 
                            "channel": 0
                        }
                    ]
                ], 
                [
                    194451, 
                    [
                        {
                            "pitch": 51, 
                            "t0": 194451, 
                            "v": 83, 
                            "dur": 36, 
                            "type": "note", 
                            "channel": 0
                        }
                    ]
                ], 
                [
                    194578, 
                    [
                        {
                            "pitch": 63, 
                            "t0": 194578, 
                            "v": 97, 
                            "dur": 64, 
                            "type": "note", 
                            "channel": 0
                        }, 
                        {
                            "pitch": 75, 
                            "t0": 194578, 
                            "v": 104, 
                            "dur": 70, 
                            "type": "note", 
                            "channel": 0
                        }
                    ]
                ], 
                [
                    194583, 
                    [
                        {
                            "pitch": 87, 
                            "t0": 194583, 
                            "v": 106, 
                            "dur": 32, 
                            "type": "note", 
                            "channel": 0
                        }
                    ]
                ], 
                [
                    194592, 
                    [
                        {
                            "pitch": 51, 
                            "t0": 194592, 
                            "v": 96, 
                            "dur": 31, 
                            "type": "note", 
                            "channel": 0
                        }
                    ]
                ], 
                [
                    194716, 
                    [
                        {
                            "pitch": 72, 
                            "t0": 194716, 
                            "v": 121, 
                            "dur": 53, 
                            "type": "note", 
                            "channel": 0
                        }
                    ]
                ], 
                [
                    194719, 
                    [
                        {
                            "pitch": 84, 
                            "t0": 194719, 
                            "v": 115, 
                            "dur": 44, 
                            "type": "note", 
                            "channel": 0
                        }, 
                        {
                            "pitch": 60, 
                            "t0": 194719, 
                            "v": 113, 
                            "dur": 71, 
                            "type": "note", 
                            "channel": 0
                        }
                    ]
                ], 
                [
                    194724, 
                    [
                        {
                            "pitch": 48, 
                            "t0": 194724, 
                            "v": 115, 
                            "dur": 49, 
                            "type": "note", 
                            "channel": 0
                        }
                    ]
                ], 
                [
                    194852, 
                    [
                        {
                            "pitch": 81, 
                            "t0": 194852, 
                            "v": 110, 
                            "dur": 61, 
                            "type": "note", 
                            "channel": 0
                        }, 
                        {
                            "pitch": 69, 
                            "t0": 194852, 
                            "v": 111, 
                            "dur": 67, 
                            "type": "note", 
                            "channel": 0
                        }
                    ]
                ], 
                [
                    194857, 
                    [
                        {
                            "pitch": 45, 
                            "t0": 194857, 
                            "v": 111, 
                            "dur": 23, 
                            "type": "note", 
                            "channel": 0
                        }, 
                        {
                            "pitch": 57, 
                            "t0": 194857, 
                            "v": 103, 
                            "dur": 36, 
                            "type": "note", 
                            "channel": 0
                        }
                    ]
                ], 
                [
                    194983, 
                    [
                        {
                            "pitch": 81, 
                            "t0": 194983, 
                            "v": 103, 
                            "dur": 55, 
                            "type": "note", 
                            "channel": 0
                        }, 
                        {
                            "pitch": 69, 
                            "t0": 194983, 
                            "v": 101, 
                            "dur": 59, 
                            "type": "note", 
                            "channel": 0
                        }
                    ]
                ], 
                [
                    194988, 
                    [
                        {
                            "pitch": 57, 
                            "t0": 194988, 
                            "v": 85, 
                            "dur": 75, 
                            "type": "note", 
                            "channel": 0
                        }
                    ]
                ], 
                [
                    194994, 
                    [
                        {
                            "pitch": 45, 
                            "t0": 194994, 
                            "v": 106, 
                            "dur": 31, 
                            "type": "note", 
                            "channel": 0
                        }
                    ]
                ], 
                [
                    195116, 
                    [
                        {
                            "pitch": 69, 
                            "t0": 195116, 
                            "v": 105, 
                            "dur": 51, 
                            "type": "note", 
                            "channel": 0
                        }, 
                        {
                            "pitch": 57, 
                            "t0": 195116, 
                            "v": 99, 
                            "dur": 54, 
                            "type": "note", 
                            "channel": 0
                        }, 
                        {
                            "pitch": 81, 
                            "t0": 195116, 
                            "v": 103, 
                            "dur": 61, 
                            "type": "note", 
                            "channel": 0
                        }
                    ]
                ], 
                [
                    195124, 
                    [
                        {
                            "pitch": 45, 
                            "t0": 195124, 
                            "v": 103, 
                            "dur": 37, 
                            "type": "note", 
                            "channel": 0
                        }
                    ]
                ], 
                [
                    195261, 
                    [
                        {
                            "pitch": 66, 
                            "t0": 195261, 
                            "v": 116, 
                            "dur": 58, 
                            "type": "note", 
                            "channel": 0
                        }
                    ]
                ], 
                [
                    195265, 
                    [
                        {
                            "pitch": 54, 
                            "t0": 195265, 
                            "v": 105, 
                            "dur": 54, 
                            "type": "note", 
                            "channel": 0
                        }
                    ]
                ], 
                [
                    195269, 
                    [
                        {
                            "pitch": 42, 
                            "t0": 195269, 
                            "v": 100, 
                            "dur": 26, 
                            "type": "note", 
                            "channel": 0
                        }
                    ]
                ], 
                [
                    195273, 
                    [
                        {
                            "pitch": 78, 
                            "t0": 195273, 
                            "v": 104, 
                            "dur": 22, 
                            "type": "note", 
                            "channel": 0
                        }
                    ]
                ], 
                [
                    195398, 
                    [
                        {
                            "pitch": 51, 
                            "t0": 195398, 
                            "v": 102, 
                            "dur": 45, 
                            "type": "note", 
                            "channel": 0
                        }, 
                        {
                            "pitch": 63, 
                            "t0": 195398, 
                            "v": 111, 
                            "dur": 59, 
                            "type": "note", 
                            "channel": 0
                        }, 
                        {
                            "pitch": 75, 
                            "t0": 195398, 
                            "v": 96, 
                            "dur": 73, 
                            "type": "note", 
                            "channel": 0
                        }
                    ]
                ], 
                [
                    195404, 
                    [
                        {
                            "pitch": 39, 
                            "t0": 195404, 
                            "v": 95, 
                            "dur": 27, 
                            "type": "note", 
                            "channel": 0
                        }
                    ]
                ], 
                [
                    195521, 
                    [
                        {
                            "pitch": 63, 
                            "t0": 195521, 
                            "v": 92, 
                            "dur": 66, 
                            "type": "note", 
                            "channel": 0
                        }
                    ]
                ], 
                [
                    195524, 
                    [
                        {
                            "pitch": 75, 
                            "t0": 195524, 
                            "v": 100, 
                            "dur": 75, 
                            "type": "note", 
                            "channel": 0
                        }
                    ]
                ], 
                [
                    195529, 
                    [
                        {
                            "pitch": 51, 
                            "t0": 195529, 
                            "v": 98, 
                            "dur": 47, 
                            "type": "note", 
                            "channel": 0
                        }
                    ]
                ], 
                [
                    195540, 
                    [
                        {
                            "pitch": 39, 
                            "t0": 195540, 
                            "v": 86, 
                            "dur": 28, 
                            "type": "note", 
                            "channel": 0
                        }
                    ]
                ], 
                [
                    195654, 
                    [
                        {
                            "pitch": 63, 
                            "t0": 195654, 
                            "v": 93, 
                            "dur": 75, 
                            "type": "note", 
                            "channel": 0
                        }
                    ]
                ], 
                [
                    195657, 
                    [
                        {
                            "pitch": 51, 
                            "t0": 195657, 
                            "v": 93, 
                            "dur": 50, 
                            "type": "note", 
                            "channel": 0
                        }
                    ]
                ], 
                [
                    195663, 
                    [
                        {
                            "pitch": 39, 
                            "t0": 195663, 
                            "v": 86, 
                            "dur": 50, 
                            "type": "note", 
                            "channel": 0
                        }
                    ]
                ], 
                [
                    195687, 
                    [
                        {
                            "pitch": 75, 
                            "t0": 195687, 
                            "v": 78, 
                            "dur": 29, 
                            "type": "note", 
                            "channel": 0
                        }
                    ]
                ], 
                [
                    195796, 
                    [
                        {
                            "pitch": 60, 
                            "t0": 195796, 
                            "v": 116, 
                            "dur": 72, 
                            "type": "note", 
                            "channel": 0
                        }
                    ]
                ], 
                [
                    195799, 
                    [
                        {
                            "pitch": 48, 
                            "t0": 195799, 
                            "v": 109, 
                            "dur": 34, 
                            "type": "note", 
                            "channel": 0
                        }, 
                        {
                            "pitch": 36, 
                            "t0": 195799, 
                            "v": 113, 
                            "dur": 37, 
                            "type": "note", 
                            "channel": 0
                        }, 
                        {
                            "pitch": 72, 
                            "t0": 195799, 
                            "v": 106, 
                            "dur": 37, 
                            "type": "note", 
                            "channel": 0
                        }
                    ]
                ], 
                [
                    195930, 
                    [
                        {
                            "pitch": 57, 
                            "t0": 195930, 
                            "v": 110, 
                            "dur": 53, 
                            "type": "note", 
                            "channel": 0
                        }, 
                        {
                            "pitch": 69, 
                            "t0": 195930, 
                            "v": 108, 
                            "dur": 59, 
                            "type": "note", 
                            "channel": 0
                        }
                    ]
                ], 
                [
                    195933, 
                    [
                        {
                            "pitch": 33, 
                            "t0": 195933, 
                            "v": 111, 
                            "dur": 27, 
                            "type": "note", 
                            "channel": 0
                        }, 
                        {
                            "pitch": 45, 
                            "t0": 195933, 
                            "v": 103, 
                            "dur": 39, 
                            "type": "note", 
                            "channel": 0
                        }
                    ]
                ], 
                [
                    196055, 
                    [
                        {
                            "pitch": 45, 
                            "t0": 196055, 
                            "v": 91, 
                            "dur": 67, 
                            "type": "note", 
                            "channel": 0
                        }
                    ]
                ], 
                [
                    196060, 
                    [
                        {
                            "pitch": 69, 
                            "t0": 196060, 
                            "v": 102, 
                            "dur": 62, 
                            "type": "note", 
                            "channel": 0
                        }, 
                        {
                            "pitch": 57, 
                            "t0": 196060, 
                            "v": 87, 
                            "dur": 65, 
                            "type": "note", 
                            "channel": 0
                        }
                    ]
                ], 
                [
                    196063, 
                    [
                        {
                            "pitch": 33, 
                            "t0": 196063, 
                            "v": 96, 
                            "dur": 29, 
                            "type": "note", 
                            "channel": 0
                        }
                    ]
                ], 
                [
                    196201, 
                    [
                        {
                            "pitch": 69, 
                            "t0": 196201, 
                            "v": 89, 
                            "dur": 25, 
                            "type": "note", 
                            "channel": 0
                        }
                    ]
                ], 
                [
                    196204, 
                    [
                        {
                            "pitch": 45, 
                            "t0": 196204, 
                            "v": 91, 
                            "dur": 43, 
                            "type": "note", 
                            "channel": 0
                        }, 
                        {
                            "pitch": 57, 
                            "t0": 196204, 
                            "v": 83, 
                            "dur": 77, 
                            "type": "note", 
                            "channel": 0
                        }
                    ]
                ], 
                [
                    196217, 
                    [
                        {
                            "pitch": 33, 
                            "t0": 196217, 
                            "v": 98, 
                            "dur": 20, 
                            "type": "note", 
                            "channel": 0
                        }
                    ]
                ], 
                [
                    196395, 
                    [
                        {
                            "pitch": 60, 
                            "t0": 196395, 
                            "v": 107, 
                            "dur": 368, 
                            "type": "note", 
                            "channel": 0
                        }, 
                        {
                            "pitch": 66, 
                            "t0": 196395, 
                            "v": 115, 
                            "dur": 379, 
                            "type": "note", 
                            "channel": 0
                        }, 
                        {
                            "pitch": 63, 
                            "t0": 196395, 
                            "v": 103, 
                            "dur": 388, 
                            "type": "note", 
                            "channel": 0
                        }
                    ]
                ], 
                [
                    196400, 
                    [
                        {
                            "pitch": 48, 
                            "t0": 196400, 
                            "v": 119, 
                            "dur": 348, 
                            "type": "note", 
                            "channel": 0
                        }, 
                        {
                            "pitch": 57, 
                            "t0": 196400, 
                            "v": 117, 
                            "dur": 360, 
                            "type": "note", 
                            "channel": 0
                        }
                    ]
                ], 
                [
                    196406, 
                    [
                        {
                            "pitch": 36, 
                            "t0": 196406, 
                            "v": 110, 
                            "dur": 315, 
                            "type": "note", 
                            "channel": 0
                        }, 
                        {
                            "pitch": 45, 
                            "t0": 196406, 
                            "v": 105, 
                            "dur": 329, 
                            "type": "note", 
                            "channel": 0
                        }, 
                        {
                            "pitch": 42, 
                            "t0": 196406, 
                            "v": 91, 
                            "dur": 363, 
                            "type": "note", 
                            "channel": 0
                        }
                    ]
                ], 
                [
                    196414, 
                    [
                        {
                            "pitch": 39, 
                            "t0": 196414, 
                            "v": 93, 
                            "dur": 355, 
                            "type": "note", 
                            "channel": 0
                        }
                    ]
                ], 
                [
                    197442, 
                    [
                        {
                            "pitch": 67, 
                            "t0": 197442, 
                            "v": 118, 
                            "dur": 302, 
                            "type": "note", 
                            "channel": 0
                        }
                    ]
                ], 
                [
                    197445, 
                    [
                        {
                            "pitch": 55, 
                            "t0": 197445, 
                            "v": 119, 
                            "dur": 223, 
                            "type": "note", 
                            "channel": 0
                        }, 
                        {
                            "pitch": 59, 
                            "t0": 197445, 
                            "v": 107, 
                            "dur": 273, 
                            "type": "note", 
                            "channel": 0
                        }, 
                        {
                            "pitch": 62, 
                            "t0": 197445, 
                            "v": 110, 
                            "dur": 299, 
                            "type": "note", 
                            "channel": 0
                        }
                    ]
                ], 
                [
                    197448, 
                    [
                        {
                            "pitch": 35, 
                            "t0": 197448, 
                            "v": 103, 
                            "dur": 198, 
                            "type": "note", 
                            "channel": 0
                        }, 
                        {
                            "pitch": 47, 
                            "t0": 197448, 
                            "v": 111, 
                            "dur": 225, 
                            "type": "note", 
                            "channel": 0
                        }
                    ]
                ], 
                [
                    197454, 
                    [
                        {
                            "pitch": 43, 
                            "t0": 197454, 
                            "v": 106, 
                            "dur": 214, 
                            "type": "note", 
                            "channel": 0
                        }, 
                        {
                            "pitch": 38, 
                            "t0": 197454, 
                            "v": 105, 
                            "dur": 219, 
                            "type": "note", 
                            "channel": 0
                        }
                    ]
                ], 
                [
                    198364, 
                    [
                        {
                            "pitch": 67, 
                            "t0": 198364, 
                            "v": 118, 
                            "dur": 124, 
                            "type": "note", 
                            "channel": 0
                        }
                    ]
                ], 
                [
                    198545, 
                    [
                        {
                            "pitch": 67, 
                            "t0": 198545, 
                            "v": 113, 
                            "dur": 101, 
                            "type": "note", 
                            "channel": 0
                        }
                    ]
                ], 
                [
                    198697, 
                    [
                        {
                            "pitch": 67, 
                            "t0": 198697, 
                            "v": 117, 
                            "dur": 211, 
                            "type": "note", 
                            "channel": 0
                        }
                    ]
                ], 
                [
                    198882, 
                    [
                        {
                            "pitch": 60, 
                            "t0": 198882, 
                            "v": 124, 
                            "dur": 675, 
                            "type": "note", 
                            "channel": 0
                        }
                    ]
                ], 
                [
                    199515, 
                    [
                        {
                            "pitch": 62, 
                            "t0": 199515, 
                            "v": 114, 
                            "dur": 858, 
                            "type": "note", 
                            "channel": 0
                        }
                    ]
                ], 
                [
                    200250, 
                    [
                        {
                            "pitch": 55, 
                            "t0": 200250, 
                            "v": 103, 
                            "dur": 2138, 
                            "type": "note", 
                            "channel": 0
                        }
                    ]
                ], 
                [
                    201229, 
                    [
                        {
                            "pitch": 64, 
                            "t0": 201229, 
                            "v": 50, 
                            "dur": 448, 
                            "type": "note", 
                            "channel": 0
                        }, 
                        {
                            "pitch": 60, 
                            "t0": 201229, 
                            "v": 39, 
                            "dur": 587, 
                            "type": "note", 
                            "channel": 0
                        }
                    ]
                ], 
                [
                    201234, 
                    [
                        {
                            "pitch": 67, 
                            "t0": 201234, 
                            "v": 46, 
                            "dur": 457, 
                            "type": "note", 
                            "channel": 0
                        }
                    ]
                ], 
                [
                    201548, 
                    [
                        {
                            "pitch": 72, 
                            "t0": 201548, 
                            "v": 61, 
                            "dur": 305, 
                            "type": "note", 
                            "channel": 0
                        }
                    ]
                ], 
                [
                    201849, 
                    [
                        {
                            "pitch": 71, 
                            "t0": 201849, 
                            "v": 43, 
                            "dur": 351, 
                            "type": "note", 
                            "channel": 0
                        }
                    ]
                ], 
                [
                    201866, 
                    [
                        {
                            "pitch": 62, 
                            "t0": 201866, 
                            "v": 27, 
                            "dur": 443, 
                            "type": "note", 
                            "channel": 0
                        }, 
                        {
                            "pitch": 65, 
                            "t0": 201866, 
                            "v": 31, 
                            "dur": 911, 
                            "type": "note", 
                            "channel": 0
                        }
                    ]
                ], 
                [
                    202126, 
                    [
                        {
                            "pitch": 72, 
                            "t0": 202126, 
                            "v": 65, 
                            "dur": 311, 
                            "type": "note", 
                            "channel": 0
                        }
                    ]
                ], 
                [
                    202404, 
                    [
                        {
                            "pitch": 59, 
                            "t0": 202404, 
                            "v": 28, 
                            "dur": 45, 
                            "type": "note", 
                            "channel": 0
                        }
                    ]
                ], 
                [
                    202420, 
                    [
                        {
                            "pitch": 74, 
                            "t0": 202420, 
                            "v": 61, 
                            "dur": 307, 
                            "type": "note", 
                            "channel": 0
                        }
                    ]
                ], 
                [
                    202547, 
                    [
                        {
                            "pitch": 43, 
                            "t0": 202547, 
                            "v": 48, 
                            "dur": 36, 
                            "type": "note", 
                            "channel": 0
                        }
                    ]
                ], 
                [
                    202551, 
                    [
                        {
                            "pitch": 31, 
                            "t0": 202551, 
                            "v": 60, 
                            "dur": 36, 
                            "type": "note", 
                            "channel": 0
                        }
                    ]
                ], 
                [
                    202672, 
                    [
                        {
                            "pitch": 31, 
                            "t0": 202672, 
                            "v": 63, 
                            "dur": 45, 
                            "type": "note", 
                            "channel": 0
                        }
                    ]
                ], 
                [
                    202682, 
                    [
                        {
                            "pitch": 43, 
                            "t0": 202682, 
                            "v": 30, 
                            "dur": 50, 
                            "type": "note", 
                            "channel": 0
                        }
                    ]
                ], 
                [
                    202700, 
                    [
                        {
                            "pitch": 69, 
                            "t0": 202700, 
                            "v": 59, 
                            "dur": 60, 
                            "type": "note", 
                            "channel": 0
                        }
                    ]
                ], 
                [
                    202813, 
                    [
                        {
                            "pitch": 43, 
                            "t0": 202813, 
                            "v": 48, 
                            "dur": 36, 
                            "type": "note", 
                            "channel": 0
                        }
                    ]
                ], 
                [
                    202825, 
                    [
                        {
                            "pitch": 31, 
                            "t0": 202825, 
                            "v": 45, 
                            "dur": 45, 
                            "type": "note", 
                            "channel": 0
                        }
                    ]
                ], 
                [
                    202970, 
                    [
                        {
                            "pitch": 36, 
                            "t0": 202970, 
                            "v": 34, 
                            "dur": 200, 
                            "type": "note", 
                            "channel": 0
                        }, 
                        {
                            "pitch": 69, 
                            "t0": 202970, 
                            "v": 65, 
                            "dur": 312, 
                            "type": "note", 
                            "channel": 0
                        }
                    ]
                ], 
                [
                    202975, 
                    [
                        {
                            "pitch": 48, 
                            "t0": 202975, 
                            "v": 25, 
                            "dur": 240, 
                            "type": "note", 
                            "channel": 0
                        }
                    ]
                ], 
                [
                    202995, 
                    [
                        {
                            "pitch": 64, 
                            "t0": 202995, 
                            "v": 46, 
                            "dur": 275, 
                            "type": "note", 
                            "channel": 0
                        }
                    ]
                ], 
                [
                    203011, 
                    [
                        {
                            "pitch": 60, 
                            "t0": 203011, 
                            "v": 14, 
                            "dur": 215, 
                            "type": "note", 
                            "channel": 0
                        }
                    ]
                ], 
                [
                    203270, 
                    [
                        {
                            "pitch": 67, 
                            "t0": 203270, 
                            "v": 70, 
                            "dur": 31, 
                            "type": "note", 
                            "channel": 0
                        }
                    ]
                ], 
                [
                    203549, 
                    [
                        {
                            "pitch": 79, 
                            "t0": 203549, 
                            "v": 81, 
                            "dur": 359, 
                            "type": "note", 
                            "channel": 0
                        }, 
                        {
                            "pitch": 72, 
                            "t0": 203549, 
                            "v": 64, 
                            "dur": 362, 
                            "type": "note", 
                            "channel": 0
                        }, 
                        {
                            "pitch": 67, 
                            "t0": 203549, 
                            "v": 47, 
                            "dur": 407, 
                            "type": "note", 
                            "channel": 0
                        }
                    ]
                ], 
                [
                    203557, 
                    [
                        {
                            "pitch": 64, 
                            "t0": 203557, 
                            "v": 54, 
                            "dur": 307, 
                            "type": "note", 
                            "channel": 0
                        }
                    ]
                ], 
                [
                    203560, 
                    [
                        {
                            "pitch": 55, 
                            "t0": 203560, 
                            "v": 40, 
                            "dur": 844, 
                            "type": "note", 
                            "channel": 0
                        }
                    ]
                ], 
                [
                    203566, 
                    [
                        {
                            "pitch": 76, 
                            "t0": 203566, 
                            "v": 57, 
                            "dur": 298, 
                            "type": "note", 
                            "channel": 0
                        }
                    ]
                ], 
                [
                    203841, 
                    [
                        {
                            "pitch": 84, 
                            "t0": 203841, 
                            "v": 84, 
                            "dur": 293, 
                            "type": "note", 
                            "channel": 0
                        }
                    ]
                ], 
                [
                    204122, 
                    [
                        {
                            "pitch": 74, 
                            "t0": 204122, 
                            "v": 44, 
                            "dur": 397, 
                            "type": "note", 
                            "channel": 0
                        }, 
                        {
                            "pitch": 83, 
                            "t0": 204122, 
                            "v": 61, 
                            "dur": 592, 
                            "type": "note", 
                            "channel": 0
                        }
                    ]
                ], 
                [
                    204139, 
                    [
                        {
                            "pitch": 77, 
                            "t0": 204139, 
                            "v": 26, 
                            "dur": 262, 
                            "type": "note", 
                            "channel": 0
                        }, 
                        {
                            "pitch": 62, 
                            "t0": 204139, 
                            "v": 47, 
                            "dur": 331, 
                            "type": "note", 
                            "channel": 0
                        }
                    ]
                ], 
                [
                    204147, 
                    [
                        {
                            "pitch": 65, 
                            "t0": 204147, 
                            "v": 34, 
                            "dur": 346, 
                            "type": "note", 
                            "channel": 0
                        }
                    ]
                ], 
                [
                    204396, 
                    [
                        {
                            "pitch": 84, 
                            "t0": 204396, 
                            "v": 78, 
                            "dur": 100, 
                            "type": "note", 
                            "channel": 0
                        }
                    ]
                ], 
                [
                    204671, 
                    [
                        {
                            "pitch": 71, 
                            "t0": 204671, 
                            "v": 11, 
                            "dur": 33, 
                            "type": "note", 
                            "channel": 0
                        }, 
                        {
                            "pitch": 86, 
                            "t0": 204671, 
                            "v": 72, 
                            "dur": 299, 
                            "type": "note", 
                            "channel": 0
                        }
                    ]
                ], 
                [
                    204691, 
                    [
                        {
                            "pitch": 77, 
                            "t0": 204691, 
                            "v": 40, 
                            "dur": 353, 
                            "type": "note", 
                            "channel": 0
                        }
                    ]
                ], 
                [
                    204821, 
                    [
                        {
                            "pitch": 43, 
                            "t0": 204821, 
                            "v": 62, 
                            "dur": 37, 
                            "type": "note", 
                            "channel": 0
                        }
                    ]
                ], 
                [
                    204945, 
                    [
                        {
                            "pitch": 81, 
                            "t0": 204945, 
                            "v": 80, 
                            "dur": 78, 
                            "type": "note", 
                            "channel": 0
                        }
                    ]
                ], 
                [
                    204959, 
                    [
                        {
                            "pitch": 43, 
                            "t0": 204959, 
                            "v": 36, 
                            "dur": 41, 
                            "type": "note", 
                            "channel": 0
                        }
                    ]
                ], 
                [
                    205093, 
                    [
                        {
                            "pitch": 43, 
                            "t0": 205093, 
                            "v": 23, 
                            "dur": 64, 
                            "type": "note", 
                            "channel": 0
                        }
                    ]
                ], 
                [
                    205235, 
                    [
                        {
                            "pitch": 81, 
                            "t0": 205235, 
                            "v": 46, 
                            "dur": 286, 
                            "type": "note", 
                            "channel": 0
                        }
                    ]
                ], 
                [
                    205240, 
                    [
                        {
                            "pitch": 76, 
                            "t0": 205240, 
                            "v": 47, 
                            "dur": 268, 
                            "type": "note", 
                            "channel": 0
                        }
                    ]
                ], 
                [
                    205243, 
                    [
                        {
                            "pitch": 72, 
                            "t0": 205243, 
                            "v": 44, 
                            "dur": 265, 
                            "type": "note", 
                            "channel": 0
                        }
                    ]
                ], 
                [
                    205267, 
                    [
                        {
                            "pitch": 48, 
                            "t0": 205267, 
                            "v": 31, 
                            "dur": 215, 
                            "type": "note", 
                            "channel": 0
                        }
                    ]
                ], 
                [
                    205521, 
                    [
                        {
                            "pitch": 79, 
                            "t0": 205521, 
                            "v": 72, 
                            "dur": 31, 
                            "type": "note", 
                            "channel": 0
                        }
                    ]
                ], 
                [
                    205825, 
                    [
                        {
                            "pitch": 60, 
                            "t0": 205825, 
                            "v": 48, 
                            "dur": 290, 
                            "type": "note", 
                            "channel": 0
                        }, 
                        {
                            "pitch": 67, 
                            "t0": 205825, 
                            "v": 55, 
                            "dur": 354, 
                            "type": "note", 
                            "channel": 0
                        }
                    ]
                ], 
                [
                    205831, 
                    [
                        {
                            "pitch": 64, 
                            "t0": 205831, 
                            "v": 29, 
                            "dur": 287, 
                            "type": "note", 
                            "channel": 0
                        }, 
                        {
                            "pitch": 52, 
                            "t0": 205831, 
                            "v": 31, 
                            "dur": 328, 
                            "type": "note", 
                            "channel": 0
                        }
                    ]
                ], 
                [
                    205834, 
                    [
                        {
                            "pitch": 55, 
                            "t0": 205834, 
                            "v": 14, 
                            "dur": 302, 
                            "type": "note", 
                            "channel": 0
                        }
                    ]
                ], 
                [
                    206115, 
                    [
                        {
                            "pitch": 72, 
                            "t0": 206115, 
                            "v": 58, 
                            "dur": 295, 
                            "type": "note", 
                            "channel": 0
                        }
                    ]
                ], 
                [
                    206395, 
                    [
                        {
                            "pitch": 62, 
                            "t0": 206395, 
                            "v": 44, 
                            "dur": 358, 
                            "type": "note", 
                            "channel": 0
                        }, 
                        {
                            "pitch": 71, 
                            "t0": 206395, 
                            "v": 53, 
                            "dur": 386, 
                            "type": "note", 
                            "channel": 0
                        }
                    ]
                ], 
                [
                    206398, 
                    [
                        {
                            "pitch": 50, 
                            "t0": 206398, 
                            "v": 20, 
                            "dur": 270, 
                            "type": "note", 
                            "channel": 0
                        }, 
                        {
                            "pitch": 53, 
                            "t0": 206398, 
                            "v": 30, 
                            "dur": 279, 
                            "type": "note", 
                            "channel": 0
                        }, 
                        {
                            "pitch": 65, 
                            "t0": 206398, 
                            "v": 21, 
                            "dur": 291, 
                            "type": "note", 
                            "channel": 0
                        }
                    ]
                ], 
                [
                    206404, 
                    [
                        {
                            "pitch": 55, 
                            "t0": 206404, 
                            "v": 28, 
                            "dur": 270, 
                            "type": "note", 
                            "channel": 0
                        }
                    ]
                ], 
                [
                    206700, 
                    [
                        {
                            "pitch": 72, 
                            "t0": 206700, 
                            "v": 67, 
                            "dur": 70, 
                            "type": "note", 
                            "channel": 0
                        }
                    ]
                ], 
                [
                    206958, 
                    [
                        {
                            "pitch": 59, 
                            "t0": 206958, 
                            "v": 39, 
                            "dur": 37, 
                            "type": "note", 
                            "channel": 0
                        }
                    ]
                ], 
                [
                    206962, 
                    [
                        {
                            "pitch": 74, 
                            "t0": 206962, 
                            "v": 70, 
                            "dur": 281, 
                            "type": "note", 
                            "channel": 0
                        }
                    ]
                ], 
                [
                    206973, 
                    [
                        {
                            "pitch": 65, 
                            "t0": 206973, 
                            "v": 65, 
                            "dur": 354, 
                            "type": "note", 
                            "channel": 0
                        }
                    ]
                ], 
                [
                    207143, 
                    [
                        {
                            "pitch": 31, 
                            "t0": 207143, 
                            "v": 85, 
                            "dur": 32, 
                            "type": "note", 
                            "channel": 0
                        }, 
                        {
                            "pitch": 43, 
                            "t0": 207143, 
                            "v": 13, 
                            "dur": 47, 
                            "type": "note", 
                            "channel": 0
                        }
                    ]
                ], 
                [
                    207231, 
                    [
                        {
                            "pitch": 69, 
                            "t0": 207231, 
                            "v": 76, 
                            "dur": 84, 
                            "type": "note", 
                            "channel": 0
                        }
                    ]
                ], 
                [
                    207265, 
                    [
                        {
                            "pitch": 31, 
                            "t0": 207265, 
                            "v": 27, 
                            "dur": 41, 
                            "type": "note", 
                            "channel": 0
                        }, 
                        {
                            "pitch": 43, 
                            "t0": 207265, 
                            "v": 46, 
                            "dur": 41, 
                            "type": "note", 
                            "channel": 0
                        }
                    ]
                ], 
                [
                    207370, 
                    [
                        {
                            "pitch": 43, 
                            "t0": 207370, 
                            "v": 54, 
                            "dur": 40, 
                            "type": "note", 
                            "channel": 0
                        }, 
                        {
                            "pitch": 31, 
                            "t0": 207370, 
                            "v": 51, 
                            "dur": 45, 
                            "type": "note", 
                            "channel": 0
                        }
                    ]
                ], 
                [
                    207529, 
                    [
                        {
                            "pitch": 69, 
                            "t0": 207529, 
                            "v": 62, 
                            "dur": 321, 
                            "type": "note", 
                            "channel": 0
                        }
                    ]
                ], 
                [
                    207543, 
                    [
                        {
                            "pitch": 60, 
                            "t0": 207543, 
                            "v": 34, 
                            "dur": 271, 
                            "type": "note", 
                            "channel": 0
                        }
                    ]
                ], 
                [
                    207549, 
                    [
                        {
                            "pitch": 36, 
                            "t0": 207549, 
                            "v": 37, 
                            "dur": 209, 
                            "type": "note", 
                            "channel": 0
                        }, 
                        {
                            "pitch": 64, 
                            "t0": 207549, 
                            "v": 49, 
                            "dur": 301, 
                            "type": "note", 
                            "channel": 0
                        }
                    ]
                ], 
                [
                    207558, 
                    [
                        {
                            "pitch": 48, 
                            "t0": 207558, 
                            "v": 24, 
                            "dur": 237, 
                            "type": "note", 
                            "channel": 0
                        }
                    ]
                ], 
                [
                    207833, 
                    [
                        {
                            "pitch": 67, 
                            "t0": 207833, 
                            "v": 71, 
                            "dur": 31, 
                            "type": "note", 
                            "channel": 0
                        }
                    ]
                ], 
                [
                    208118, 
                    [
                        {
                            "pitch": 64, 
                            "t0": 208118, 
                            "v": 49, 
                            "dur": 281, 
                            "type": "note", 
                            "channel": 0
                        }, 
                        {
                            "pitch": 67, 
                            "t0": 208118, 
                            "v": 45, 
                            "dur": 348, 
                            "type": "note", 
                            "channel": 0
                        }
                    ]
                ], 
                [
                    208125, 
                    [
                        {
                            "pitch": 72, 
                            "t0": 208125, 
                            "v": 25, 
                            "dur": 294, 
                            "type": "note", 
                            "channel": 0
                        }, 
                        {
                            "pitch": 79, 
                            "t0": 208125, 
                            "v": 77, 
                            "dur": 332, 
                            "type": "note", 
                            "channel": 0
                        }, 
                        {
                            "pitch": 55, 
                            "t0": 208125, 
                            "v": 22, 
                            "dur": 808, 
                            "type": "note", 
                            "channel": 0
                        }
                    ]
                ], 
                [
                    208129, 
                    [
                        {
                            "pitch": 76, 
                            "t0": 208129, 
                            "v": 42, 
                            "dur": 236, 
                            "type": "note", 
                            "channel": 0
                        }
                    ]
                ], 
                [
                    208424, 
                    [
                        {
                            "pitch": 84, 
                            "t0": 208424, 
                            "v": 71, 
                            "dur": 293, 
                            "type": "note", 
                            "channel": 0
                        }
                    ]
                ], 
                [
                    208692, 
                    [
                        {
                            "pitch": 77, 
                            "t0": 208692, 
                            "v": 19, 
                            "dur": 172, 
                            "type": "note", 
                            "channel": 0
                        }, 
                        {
                            "pitch": 74, 
                            "t0": 208692, 
                            "v": 44, 
                            "dur": 379, 
                            "type": "note", 
                            "channel": 0
                        }, 
                        {
                            "pitch": 83, 
                            "t0": 208692, 
                            "v": 60, 
                            "dur": 564, 
                            "type": "note", 
                            "channel": 0
                        }
                    ]
                ], 
                [
                    208696, 
                    [
                        {
                            "pitch": 62, 
                            "t0": 208696, 
                            "v": 38, 
                            "dur": 297, 
                            "type": "note", 
                            "channel": 0
                        }, 
                        {
                            "pitch": 65, 
                            "t0": 208696, 
                            "v": 40, 
                            "dur": 324, 
                            "type": "note", 
                            "channel": 0
                        }
                    ]
                ], 
                [
                    208959, 
                    [
                        {
                            "pitch": 84, 
                            "t0": 208959, 
                            "v": 77, 
                            "dur": 100, 
                            "type": "note", 
                            "channel": 0
                        }
                    ]
                ], 
                [
                    209203, 
                    [
                        {
                            "pitch": 71, 
                            "t0": 209203, 
                            "v": 51, 
                            "dur": 29, 
                            "type": "note", 
                            "channel": 0
                        }
                    ]
                ], 
                [
                    209235, 
                    [
                        {
                            "pitch": 86, 
                            "t0": 209235, 
                            "v": 75, 
                            "dur": 300, 
                            "type": "note", 
                            "channel": 0
                        }
                    ]
                ], 
                [
                    209248, 
                    [
                        {
                            "pitch": 77, 
                            "t0": 209248, 
                            "v": 52, 
                            "dur": 349, 
                            "type": "note", 
                            "channel": 0
                        }
                    ]
                ], 
                [
                    209396, 
                    [
                        {
                            "pitch": 43, 
                            "t0": 209396, 
                            "v": 40, 
                            "dur": 44, 
                            "type": "note", 
                            "channel": 0
                        }
                    ]
                ], 
                [
                    209507, 
                    [
                        {
                            "pitch": 81, 
                            "t0": 209507, 
                            "v": 72, 
                            "dur": 67, 
                            "type": "note", 
                            "channel": 0
                        }
                    ]
                ], 
                [
                    209510, 
                    [
                        {
                            "pitch": 43, 
                            "t0": 209510, 
                            "v": 54, 
                            "dur": 39, 
                            "type": "note", 
                            "channel": 0
                        }
                    ]
                ], 
                [
                    209638, 
                    [
                        {
                            "pitch": 43, 
                            "t0": 209638, 
                            "v": 32, 
                            "dur": 51, 
                            "type": "note", 
                            "channel": 0
                        }
                    ]
                ], 
                [
                    209777, 
                    [
                        {
                            "pitch": 48, 
                            "t0": 209777, 
                            "v": 38, 
                            "dur": 182, 
                            "type": "note", 
                            "channel": 0
                        }
                    ]
                ], 
                [
                    209781, 
                    [
                        {
                            "pitch": 76, 
                            "t0": 209781, 
                            "v": 38, 
                            "dur": 237, 
                            "type": "note", 
                            "channel": 0
                        }, 
                        {
                            "pitch": 72, 
                            "t0": 209781, 
                            "v": 31, 
                            "dur": 248, 
                            "type": "note", 
                            "channel": 0
                        }, 
                        {
                            "pitch": 81, 
                            "t0": 209781, 
                            "v": 59, 
                            "dur": 269, 
                            "type": "note", 
                            "channel": 0
                        }
                    ]
                ], 
                [
                    210092, 
                    [
                        {
                            "pitch": 79, 
                            "t0": 210092, 
                            "v": 44, 
                            "dur": 47, 
                            "type": "note", 
                            "channel": 0
                        }
                    ]
                ], 
                [
                    210385, 
                    [
                        {
                            "pitch": 70, 
                            "t0": 210385, 
                            "v": 79, 
                            "dur": 774, 
                            "type": "note", 
                            "channel": 0
                        }
                    ]
                ], 
                [
                    210407, 
                    [
                        {
                            "pitch": 67, 
                            "t0": 210407, 
                            "v": 16, 
                            "dur": 794, 
                            "type": "note", 
                            "channel": 0
                        }
                    ]
                ], 
                [
                    210674, 
                    [
                        {
                            "pitch": 72, 
                            "t0": 210674, 
                            "v": 80, 
                            "dur": 269, 
                            "type": "note", 
                            "channel": 0
                        }
                    ]
                ], 
                [
                    210959, 
                    [
                        {
                            "pitch": 73, 
                            "t0": 210959, 
                            "v": 67, 
                            "dur": 283, 
                            "type": "note", 
                            "channel": 0
                        }
                    ]
                ], 
                [
                    211053, 
                    [
                        {
                            "pitch": 64, 
                            "t0": 211053, 
                            "v": 38, 
                            "dur": 226, 
                            "type": "note", 
                            "channel": 0
                        }
                    ]
                ], 
                [
                    211257, 
                    [
                        {
                            "pitch": 72, 
                            "t0": 211257, 
                            "v": 71, 
                            "dur": 130, 
                            "type": "note", 
                            "channel": 0
                        }
                    ]
                ], 
                [
                    211553, 
                    [
                        {
                            "pitch": 70, 
                            "t0": 211553, 
                            "v": 71, 
                            "dur": 259, 
                            "type": "note", 
                            "channel": 0
                        }
                    ]
                ], 
                [
                    211558, 
                    [
                        {
                            "pitch": 64, 
                            "t0": 211558, 
                            "v": 48, 
                            "dur": 376, 
                            "type": "note", 
                            "channel": 0
                        }
                    ]
                ], 
                [
                    211575, 
                    [
                        {
                            "pitch": 67, 
                            "t0": 211575, 
                            "v": 32, 
                            "dur": 303, 
                            "type": "note", 
                            "channel": 0
                        }
                    ]
                ], 
                [
                    211678, 
                    [
                        {
                            "pitch": 36, 
                            "t0": 211678, 
                            "v": 65, 
                            "dur": 33, 
                            "type": "note", 
                            "channel": 0
                        }
                    ]
                ], 
                [
                    211683, 
                    [
                        {
                            "pitch": 48, 
                            "t0": 211683, 
                            "v": 59, 
                            "dur": 51, 
                            "type": "note", 
                            "channel": 0
                        }
                    ]
                ], 
                [
                    211812, 
                    [
                        {
                            "pitch": 72, 
                            "t0": 211812, 
                            "v": 71, 
                            "dur": 369, 
                            "type": "note", 
                            "channel": 0
                        }
                    ]
                ], 
                [
                    211822, 
                    [
                        {
                            "pitch": 48, 
                            "t0": 211822, 
                            "v": 54, 
                            "dur": 42, 
                            "type": "note", 
                            "channel": 0
                        }
                    ]
                ], 
                [
                    211834, 
                    [
                        {
                            "pitch": 36, 
                            "t0": 211834, 
                            "v": 31, 
                            "dur": 50, 
                            "type": "note", 
                            "channel": 0
                        }
                    ]
                ], 
                [
                    211947, 
                    [
                        {
                            "pitch": 36, 
                            "t0": 211947, 
                            "v": 71, 
                            "dur": 29, 
                            "type": "note", 
                            "channel": 0
                        }
                    ]
                ], 
                [
                    211964, 
                    [
                        {
                            "pitch": 48, 
                            "t0": 211964, 
                            "v": 43, 
                            "dur": 42, 
                            "type": "note", 
                            "channel": 0
                        }
                    ]
                ], 
                [
                    212124, 
                    [
                        {
                            "pitch": 70, 
                            "t0": 212124, 
                            "v": 67, 
                            "dur": 266, 
                            "type": "note", 
                            "channel": 0
                        }
                    ]
                ], 
                [
                    212128, 
                    [
                        {
                            "pitch": 60, 
                            "t0": 212128, 
                            "v": 35, 
                            "dur": 435, 
                            "type": "note", 
                            "channel": 0
                        }
                    ]
                ], 
                [
                    212134, 
                    [
                        {
                            "pitch": 65, 
                            "t0": 212134, 
                            "v": 25, 
                            "dur": 321, 
                            "type": "note", 
                            "channel": 0
                        }
                    ]
                ], 
                [
                    212142, 
                    [
                        {
                            "pitch": 41, 
                            "t0": 212142, 
                            "v": 34, 
                            "dur": 134, 
                            "type": "note", 
                            "channel": 0
                        }
                    ]
                ], 
                [
                    212232, 
                    [
                        {
                            "pitch": 53, 
                            "t0": 212232, 
                            "v": 2, 
                            "dur": 61, 
                            "type": "note", 
                            "channel": 0
                        }
                    ]
                ], 
                [
                    212416, 
                    [
                        {
                            "pitch": 69, 
                            "t0": 212416, 
                            "v": 55, 
                            "dur": 105, 
                            "type": "note", 
                            "channel": 0
                        }
                    ]
                ], 
                [
                    212694, 
                    [
                        {
                            "pitch": 72, 
                            "t0": 212694, 
                            "v": 86, 
                            "dur": 287, 
                            "type": "note", 
                            "channel": 0
                        }
                    ]
                ], 
                [
                    212700, 
                    [
                        {
                            "pitch": 69, 
                            "t0": 212700, 
                            "v": 50, 
                            "dur": 367, 
                            "type": "note", 
                            "channel": 0
                        }
                    ]
                ], 
                [
                    212703, 
                    [
                        {
                            "pitch": 65, 
                            "t0": 212703, 
                            "v": 35, 
                            "dur": 308, 
                            "type": "note", 
                            "channel": 0
                        }
                    ]
                ], 
                [
                    212976, 
                    [
                        {
                            "pitch": 74, 
                            "t0": 212976, 
                            "v": 92, 
                            "dur": 269, 
                            "type": "note", 
                            "channel": 0
                        }
                    ]
                ], 
                [
                    213249, 
                    [
                        {
                            "pitch": 75, 
                            "t0": 213249, 
                            "v": 73, 
                            "dur": 265, 
                            "type": "note", 
                            "channel": 0
                        }
                    ]
                ], 
                [
                    213260, 
                    [
                        {
                            "pitch": 69, 
                            "t0": 213260, 
                            "v": 50, 
                            "dur": 250, 
                            "type": "note", 
                            "channel": 0
                        }
                    ]
                ], 
                [
                    213266, 
                    [
                        {
                            "pitch": 66, 
                            "t0": 213266, 
                            "v": 40, 
                            "dur": 244, 
                            "type": "note", 
                            "channel": 0
                        }
                    ]
                ], 
                [
                    213560, 
                    [
                        {
                            "pitch": 74, 
                            "t0": 213560, 
                            "v": 72, 
                            "dur": 28, 
                            "type": "note", 
                            "channel": 0
                        }
                    ]
                ], 
                [
                    213839, 
                    [
                        {
                            "pitch": 72, 
                            "t0": 213839, 
                            "v": 67, 
                            "dur": 302, 
                            "type": "note", 
                            "channel": 0
                        }, 
                        {
                            "pitch": 66, 
                            "t0": 213839, 
                            "v": 44, 
                            "dur": 373, 
                            "type": "note", 
                            "channel": 0
                        }
                    ]
                ], 
                [
                    213842, 
                    [
                        {
                            "pitch": 69, 
                            "t0": 213842, 
                            "v": 31, 
                            "dur": 326, 
                            "type": "note", 
                            "channel": 0
                        }
                    ]
                ], 
                [
                    213981, 
                    [
                        {
                            "pitch": 38, 
                            "t0": 213981, 
                            "v": 68, 
                            "dur": 33, 
                            "type": "note", 
                            "channel": 0
                        }
                    ]
                ], 
                [
                    213987, 
                    [
                        {
                            "pitch": 50, 
                            "t0": 213987, 
                            "v": 49, 
                            "dur": 44, 
                            "type": "note", 
                            "channel": 0
                        }
                    ]
                ], 
                [
                    214101, 
                    [
                        {
                            "pitch": 50, 
                            "t0": 214101, 
                            "v": 63, 
                            "dur": 44, 
                            "type": "note", 
                            "channel": 0
                        }
                    ]
                ], 
                [
                    214110, 
                    [
                        {
                            "pitch": 38, 
                            "t0": 214110, 
                            "v": 32, 
                            "dur": 41, 
                            "type": "note", 
                            "channel": 0
                        }
                    ]
                ], 
                [
                    214118, 
                    [
                        {
                            "pitch": 74, 
                            "t0": 214118, 
                            "v": 79, 
                            "dur": 307, 
                            "type": "note", 
                            "channel": 0
                        }
                    ]
                ], 
                [
                    214232, 
                    [
                        {
                            "pitch": 38, 
                            "t0": 214232, 
                            "v": 69, 
                            "dur": 26, 
                            "type": "note", 
                            "channel": 0
                        }
                    ]
                ], 
                [
                    214240, 
                    [
                        {
                            "pitch": 50, 
                            "t0": 214240, 
                            "v": 70, 
                            "dur": 34, 
                            "type": "note", 
                            "channel": 0
                        }
                    ]
                ], 
                [
                    214391, 
                    [
                        {
                            "pitch": 43, 
                            "t0": 214391, 
                            "v": 64, 
                            "dur": 173, 
                            "type": "note", 
                            "channel": 0
                        }
                    ]
                ], 
                [
                    214399, 
                    [
                        {
                            "pitch": 55, 
                            "t0": 214399, 
                            "v": 39, 
                            "dur": 168, 
                            "type": "note", 
                            "channel": 0
                        }, 
                        {
                            "pitch": 62, 
                            "t0": 214399, 
                            "v": 49, 
                            "dur": 299, 
                            "type": "note", 
                            "channel": 0
                        }
                    ]
                ], 
                [
                    214402, 
                    [
                        {
                            "pitch": 72, 
                            "t0": 214402, 
                            "v": 72, 
                            "dur": 304, 
                            "type": "note", 
                            "channel": 0
                        }
                    ]
                ], 
                [
                    214413, 
                    [
                        {
                            "pitch": 67, 
                            "t0": 214413, 
                            "v": 49, 
                            "dur": 303, 
                            "type": "note", 
                            "channel": 0
                        }
                    ]
                ], 
                [
                    214692, 
                    [
                        {
                            "pitch": 71, 
                            "t0": 214692, 
                            "v": 59, 
                            "dur": 45, 
                            "type": "note", 
                            "channel": 0
                        }
                    ]
                ], 
                [
                    214968, 
                    [
                        {
                            "pitch": 77, 
                            "t0": 214968, 
                            "v": 68, 
                            "dur": 197, 
                            "type": "note", 
                            "channel": 0
                        }
                    ]
                ], 
                [
                    214976, 
                    [
                        {
                            "pitch": 56, 
                            "t0": 214976, 
                            "v": 39, 
                            "dur": 267, 
                            "type": "note", 
                            "channel": 0
                        }
                    ]
                ], 
                [
                    214979, 
                    [
                        {
                            "pitch": 65, 
                            "t0": 214979, 
                            "v": 50, 
                            "dur": 167, 
                            "type": "note", 
                            "channel": 0
                        }
                    ]
                ], 
                [
                    214984, 
                    [
                        {
                            "pitch": 44, 
                            "t0": 214984, 
                            "v": 31, 
                            "dur": 345, 
                            "type": "note", 
                            "channel": 0
                        }
                    ]
                ], 
                [
                    215266, 
                    [
                        {
                            "pitch": 79, 
                            "t0": 215266, 
                            "v": 75, 
                            "dur": 155, 
                            "type": "note", 
                            "channel": 0
                        }
                    ]
                ], 
                [
                    215276, 
                    [
                        {
                            "pitch": 67, 
                            "t0": 215276, 
                            "v": 55, 
                            "dur": 118, 
                            "type": "note", 
                            "channel": 0
                        }
                    ]
                ], 
                [
                    215566, 
                    [
                        {
                            "pitch": 68, 
                            "t0": 215566, 
                            "v": 45, 
                            "dur": 195, 
                            "type": "note", 
                            "channel": 0
                        }, 
                        {
                            "pitch": 80, 
                            "t0": 215566, 
                            "v": 61, 
                            "dur": 217, 
                            "type": "note", 
                            "channel": 0
                        }
                    ]
                ], 
                [
                    215700, 
                    [
                        {
                            "pitch": 32, 
                            "t0": 215700, 
                            "v": 47, 
                            "dur": 44, 
                            "type": "note", 
                            "channel": 0
                        }
                    ]
                ], 
                [
                    215705, 
                    [
                        {
                            "pitch": 44, 
                            "t0": 215705, 
                            "v": 41, 
                            "dur": 43, 
                            "type": "note", 
                            "channel": 0
                        }
                    ]
                ], 
                [
                    215833, 
                    [
                        {
                            "pitch": 79, 
                            "t0": 215833, 
                            "v": 75, 
                            "dur": 112, 
                            "type": "note", 
                            "channel": 0
                        }
                    ]
                ], 
                [
                    215837, 
                    [
                        {
                            "pitch": 44, 
                            "t0": 215837, 
                            "v": 39, 
                            "dur": 47, 
                            "type": "note", 
                            "channel": 0
                        }, 
                        {
                            "pitch": 67, 
                            "t0": 215837, 
                            "v": 61, 
                            "dur": 84, 
                            "type": "note", 
                            "channel": 0
                        }
                    ]
                ], 
                [
                    215843, 
                    [
                        {
                            "pitch": 32, 
                            "t0": 215843, 
                            "v": 44, 
                            "dur": 41, 
                            "type": "note", 
                            "channel": 0
                        }
                    ]
                ], 
                [
                    215960, 
                    [
                        {
                            "pitch": 44, 
                            "t0": 215960, 
                            "v": 53, 
                            "dur": 52, 
                            "type": "note", 
                            "channel": 0
                        }, 
                        {
                            "pitch": 32, 
                            "t0": 215960, 
                            "v": 55, 
                            "dur": 52, 
                            "type": "note", 
                            "channel": 0
                        }
                    ]
                ], 
                [
                    216098, 
                    [
                        {
                            "pitch": 77, 
                            "t0": 216098, 
                            "v": 81, 
                            "dur": 171, 
                            "type": "note", 
                            "channel": 0
                        }
                    ]
                ], 
                [
                    216102, 
                    [
                        {
                            "pitch": 65, 
                            "t0": 216102, 
                            "v": 64, 
                            "dur": 119, 
                            "type": "note", 
                            "channel": 0
                        }
                    ]
                ], 
                [
                    216120, 
                    [
                        {
                            "pitch": 44, 
                            "t0": 216120, 
                            "v": 48, 
                            "dur": 39, 
                            "type": "note", 
                            "channel": 0
                        }
                    ]
                ], 
                [
                    216124, 
                    [
                        {
                            "pitch": 32, 
                            "t0": 216124, 
                            "v": 48, 
                            "dur": 46, 
                            "type": "note", 
                            "channel": 0
                        }
                    ]
                ], 
                [
                    216375, 
                    [
                        {
                            "pitch": 79, 
                            "t0": 216375, 
                            "v": 82, 
                            "dur": 170, 
                            "type": "note", 
                            "channel": 0
                        }
                    ]
                ], 
                [
                    216389, 
                    [
                        {
                            "pitch": 67, 
                            "t0": 216389, 
                            "v": 53, 
                            "dur": 133, 
                            "type": "note", 
                            "channel": 0
                        }
                    ]
                ], 
                [
                    216655, 
                    [
                        {
                            "pitch": 59, 
                            "t0": 216655, 
                            "v": 84, 
                            "dur": 28, 
                            "type": "note", 
                            "channel": 0
                        }, 
                        {
                            "pitch": 68, 
                            "t0": 216655, 
                            "v": 73, 
                            "dur": 249, 
                            "type": "note", 
                            "channel": 0
                        }, 
                        {
                            "pitch": 80, 
                            "t0": 216655, 
                            "v": 80, 
                            "dur": 249, 
                            "type": "note", 
                            "channel": 0
                        }
                    ]
                ], 
                [
                    216659, 
                    [
                        {
                            "pitch": 47, 
                            "t0": 216659, 
                            "v": 80, 
                            "dur": 50, 
                            "type": "note", 
                            "channel": 0
                        }
                    ]
                ], 
                [
                    216822, 
                    [
                        {
                            "pitch": 35, 
                            "t0": 216822, 
                            "v": 72, 
                            "dur": 26, 
                            "type": "note", 
                            "channel": 0
                        }
                    ]
                ], 
                [
                    216834, 
                    [
                        {
                            "pitch": 47, 
                            "t0": 216834, 
                            "v": 42, 
                            "dur": 36, 
                            "type": "note", 
                            "channel": 0
                        }
                    ]
                ], 
                [
                    216948, 
                    [
                        {
                            "pitch": 79, 
                            "t0": 216948, 
                            "v": 87, 
                            "dur": 106, 
                            "type": "note", 
                            "channel": 0
                        }
                    ]
                ], 
                [
                    216951, 
                    [
                        {
                            "pitch": 47, 
                            "t0": 216951, 
                            "v": 42, 
                            "dur": 45, 
                            "type": "note", 
                            "channel": 0
                        }
                    ]
                ], 
                [
                    216954, 
                    [
                        {
                            "pitch": 67, 
                            "t0": 216954, 
                            "v": 69, 
                            "dur": 137, 
                            "type": "note", 
                            "channel": 0
                        }
                    ]
                ], 
                [
                    216974, 
                    [
                        {
                            "pitch": 35, 
                            "t0": 216974, 
                            "v": 44, 
                            "dur": 33, 
                            "type": "note", 
                            "channel": 0
                        }
                    ]
                ], 
                [
                    217088, 
                    [
                        {
                            "pitch": 47, 
                            "t0": 217088, 
                            "v": 54, 
                            "dur": 49, 
                            "type": "note", 
                            "channel": 0
                        }
                    ]
                ], 
                [
                    217096, 
                    [
                        {
                            "pitch": 35, 
                            "t0": 217096, 
                            "v": 44, 
                            "dur": 38, 
                            "type": "note", 
                            "channel": 0
                        }
                    ]
                ], 
                [
                    217241, 
                    [
                        {
                            "pitch": 65, 
                            "t0": 217241, 
                            "v": 85, 
                            "dur": 162, 
                            "type": "note", 
                            "channel": 0
                        }, 
                        {
                            "pitch": 77, 
                            "t0": 217241, 
                            "v": 89, 
                            "dur": 197, 
                            "type": "note", 
                            "channel": 0
                        }
                    ]
                ], 
                [
                    217254, 
                    [
                        {
                            "pitch": 47, 
                            "t0": 217254, 
                            "v": 78, 
                            "dur": 132, 
                            "type": "note", 
                            "channel": 0
                        }
                    ]
                ], 
                [
                    217260, 
                    [
                        {
                            "pitch": 35, 
                            "t0": 217260, 
                            "v": 80, 
                            "dur": 73, 
                            "type": "note", 
                            "channel": 0
                        }
                    ]
                ], 
                [
                    217505, 
                    [
                        {
                            "pitch": 67, 
                            "t0": 217505, 
                            "v": 93, 
                            "dur": 137, 
                            "type": "note", 
                            "channel": 0
                        }, 
                        {
                            "pitch": 79, 
                            "t0": 217505, 
                            "v": 101, 
                            "dur": 161, 
                            "type": "note", 
                            "channel": 0
                        }
                    ]
                ], 
                [
                    217758, 
                    [
                        {
                            "pitch": 62, 
                            "t0": 217758, 
                            "v": 111, 
                            "dur": 56, 
                            "type": "note", 
                            "channel": 0
                        }
                    ]
                ], 
                [
                    217765, 
                    [
                        {
                            "pitch": 50, 
                            "t0": 217765, 
                            "v": 108, 
                            "dur": 86, 
                            "type": "note", 
                            "channel": 0
                        }
                    ]
                ], 
                [
                    217781, 
                    [
                        {
                            "pitch": 68, 
                            "t0": 217781, 
                            "v": 102, 
                            "dur": 179, 
                            "type": "note", 
                            "channel": 0
                        }, 
                        {
                            "pitch": 80, 
                            "t0": 217781, 
                            "v": 105, 
                            "dur": 201, 
                            "type": "note", 
                            "channel": 0
                        }
                    ]
                ], 
                [
                    217915, 
                    [
                        {
                            "pitch": 38, 
                            "t0": 217915, 
                            "v": 103, 
                            "dur": 24, 
                            "type": "note", 
                            "channel": 0
                        }, 
                        {
                            "pitch": 50, 
                            "t0": 217915, 
                            "v": 71, 
                            "dur": 39, 
                            "type": "note", 
                            "channel": 0
                        }
                    ]
                ], 
                [
                    218034, 
                    [
                        {
                            "pitch": 79, 
                            "t0": 218034, 
                            "v": 106, 
                            "dur": 129, 
                            "type": "note", 
                            "channel": 0
                        }
                    ]
                ], 
                [
                    218038, 
                    [
                        {
                            "pitch": 67, 
                            "t0": 218038, 
                            "v": 101, 
                            "dur": 141, 
                            "type": "note", 
                            "channel": 0
                        }
                    ]
                ], 
                [
                    218043, 
                    [
                        {
                            "pitch": 50, 
                            "t0": 218043, 
                            "v": 78, 
                            "dur": 47, 
                            "type": "note", 
                            "channel": 0
                        }
                    ]
                ], 
                [
                    218051, 
                    [
                        {
                            "pitch": 38, 
                            "t0": 218051, 
                            "v": 88, 
                            "dur": 26, 
                            "type": "note", 
                            "channel": 0
                        }
                    ]
                ], 
                [
                    218163, 
                    [
                        {
                            "pitch": 50, 
                            "t0": 218163, 
                            "v": 83, 
                            "dur": 75, 
                            "type": "note", 
                            "channel": 0
                        }
                    ]
                ], 
                [
                    218174, 
                    [
                        {
                            "pitch": 38, 
                            "t0": 218174, 
                            "v": 78, 
                            "dur": 44, 
                            "type": "note", 
                            "channel": 0
                        }
                    ]
                ], 
                [
                    218311, 
                    [
                        {
                            "pitch": 65, 
                            "t0": 218311, 
                            "v": 107, 
                            "dur": 147, 
                            "type": "note", 
                            "channel": 0
                        }, 
                        {
                            "pitch": 77, 
                            "t0": 218311, 
                            "v": 110, 
                            "dur": 195, 
                            "type": "note", 
                            "channel": 0
                        }
                    ]
                ], 
                [
                    218330, 
                    [
                        {
                            "pitch": 50, 
                            "t0": 218330, 
                            "v": 92, 
                            "dur": 73, 
                            "type": "note", 
                            "channel": 0
                        }
                    ]
                ], 
                [
                    218336, 
                    [
                        {
                            "pitch": 38, 
                            "t0": 218336, 
                            "v": 105, 
                            "dur": 35, 
                            "type": "note", 
                            "channel": 0
                        }
                    ]
                ], 
                [
                    218577, 
                    [
                        {
                            "pitch": 79, 
                            "t0": 218577, 
                            "v": 111, 
                            "dur": 179, 
                            "type": "note", 
                            "channel": 0
                        }
                    ]
                ], 
                [
                    218580, 
                    [
                        {
                            "pitch": 67, 
                            "t0": 218580, 
                            "v": 105, 
                            "dur": 135, 
                            "type": "note", 
                            "channel": 0
                        }
                    ]
                ], 
                [
                    218865, 
                    [
                        {
                            "pitch": 80, 
                            "t0": 218865, 
                            "v": 111, 
                            "dur": 219, 
                            "type": "note", 
                            "channel": 0
                        }
                    ]
                ], 
                [
                    218868, 
                    [
                        {
                            "pitch": 68, 
                            "t0": 218868, 
                            "v": 106, 
                            "dur": 216, 
                            "type": "note", 
                            "channel": 0
                        }
                    ]
                ], 
                [
                    218992, 
                    [
                        {
                            "pitch": 50, 
                            "t0": 218992, 
                            "v": 97, 
                            "dur": 29, 
                            "type": "note", 
                            "channel": 0
                        }
                    ]
                ], 
                [
                    218996, 
                    [
                        {
                            "pitch": 38, 
                            "t0": 218996, 
                            "v": 93, 
                            "dur": 25, 
                            "type": "note", 
                            "channel": 0
                        }
                    ]
                ], 
                [
                    219119, 
                    [
                        {
                            "pitch": 50, 
                            "t0": 219119, 
                            "v": 85, 
                            "dur": 44, 
                            "type": "note", 
                            "channel": 0
                        }, 
                        {
                            "pitch": 79, 
                            "t0": 219119, 
                            "v": 110, 
                            "dur": 150, 
                            "type": "note", 
                            "channel": 0
                        }
                    ]
                ], 
                [
                    219122, 
                    [
                        {
                            "pitch": 38, 
                            "t0": 219122, 
                            "v": 87, 
                            "dur": 33, 
                            "type": "note", 
                            "channel": 0
                        }, 
                        {
                            "pitch": 67, 
                            "t0": 219122, 
                            "v": 101, 
                            "dur": 147, 
                            "type": "note", 
                            "channel": 0
                        }
                    ]
                ], 
                [
                    219255, 
                    [
                        {
                            "pitch": 50, 
                            "t0": 219255, 
                            "v": 93, 
                            "dur": 70, 
                            "type": "note", 
                            "channel": 0
                        }
                    ]
                ], 
                [
                    219261, 
                    [
                        {
                            "pitch": 38, 
                            "t0": 219261, 
                            "v": 97, 
                            "dur": 35, 
                            "type": "note", 
                            "channel": 0
                        }
                    ]
                ], 
                [
                    219391, 
                    [
                        {
                            "pitch": 66, 
                            "t0": 219391, 
                            "v": 108, 
                            "dur": 150, 
                            "type": "note", 
                            "channel": 0
                        }, 
                        {
                            "pitch": 78, 
                            "t0": 219391, 
                            "v": 106, 
                            "dur": 196, 
                            "type": "note", 
                            "channel": 0
                        }
                    ]
                ], 
                [
                    219403, 
                    [
                        {
                            "pitch": 50, 
                            "t0": 219403, 
                            "v": 91, 
                            "dur": 71, 
                            "type": "note", 
                            "channel": 0
                        }
                    ]
                ], 
                [
                    219413, 
                    [
                        {
                            "pitch": 38, 
                            "t0": 219413, 
                            "v": 106, 
                            "dur": 25, 
                            "type": "note", 
                            "channel": 0
                        }
                    ]
                ], 
                [
                    219658, 
                    [
                        {
                            "pitch": 79, 
                            "t0": 219658, 
                            "v": 117, 
                            "dur": 193, 
                            "type": "note", 
                            "channel": 0
                        }
                    ]
                ], 
                [
                    219662, 
                    [
                        {
                            "pitch": 67, 
                            "t0": 219662, 
                            "v": 117, 
                            "dur": 158, 
                            "type": "note", 
                            "channel": 0
                        }
                    ]
                ], 
                [
                    219934, 
                    [
                        {
                            "pitch": 81, 
                            "t0": 219934, 
                            "v": 123, 
                            "dur": 179, 
                            "type": "note", 
                            "channel": 0
                        }, 
                        {
                            "pitch": 69, 
                            "t0": 219934, 
                            "v": 120, 
                            "dur": 195, 
                            "type": "note", 
                            "channel": 0
                        }
                    ]
                ], 
                [
                    220063, 
                    [
                        {
                            "pitch": 62, 
                            "t0": 220063, 
                            "v": 111, 
                            "dur": 80, 
                            "type": "note", 
                            "channel": 0
                        }
                    ]
                ], 
                [
                    220068, 
                    [
                        {
                            "pitch": 50, 
                            "t0": 220068, 
                            "v": 110, 
                            "dur": 37, 
                            "type": "note", 
                            "channel": 0
                        }
                    ]
                ], 
                [
                    220182, 
                    [
                        {
                            "pitch": 79, 
                            "t0": 220182, 
                            "v": 113, 
                            "dur": 162, 
                            "type": "note", 
                            "channel": 0
                        }, 
                        {
                            "pitch": 67, 
                            "t0": 220182, 
                            "v": 116, 
                            "dur": 179, 
                            "type": "note", 
                            "channel": 0
                        }
                    ]
                ], 
                [
                    220186, 
                    [
                        {
                            "pitch": 62, 
                            "t0": 220186, 
                            "v": 106, 
                            "dur": 61, 
                            "type": "note", 
                            "channel": 0
                        }
                    ]
                ], 
                [
                    220197, 
                    [
                        {
                            "pitch": 50, 
                            "t0": 220197, 
                            "v": 97, 
                            "dur": 39, 
                            "type": "note", 
                            "channel": 0
                        }
                    ]
                ], 
                [
                    220321, 
                    [
                        {
                            "pitch": 62, 
                            "t0": 220321, 
                            "v": 94, 
                            "dur": 61, 
                            "type": "note", 
                            "channel": 0
                        }
                    ]
                ], 
                [
                    220328, 
                    [
                        {
                            "pitch": 50, 
                            "t0": 220328, 
                            "v": 103, 
                            "dur": 72, 
                            "type": "note", 
                            "channel": 0
                        }
                    ]
                ], 
                [
                    220452, 
                    [
                        {
                            "pitch": 66, 
                            "t0": 220452, 
                            "v": 118, 
                            "dur": 171, 
                            "type": "note", 
                            "channel": 0
                        }, 
                        {
                            "pitch": 78, 
                            "t0": 220452, 
                            "v": 113, 
                            "dur": 184, 
                            "type": "note", 
                            "channel": 0
                        }
                    ]
                ], 
                [
                    220461, 
                    [
                        {
                            "pitch": 62, 
                            "t0": 220461, 
                            "v": 101, 
                            "dur": 175, 
                            "type": "note", 
                            "channel": 0
                        }
                    ]
                ], 
                [
                    220464, 
                    [
                        {
                            "pitch": 50, 
                            "t0": 220464, 
                            "v": 103, 
                            "dur": 130, 
                            "type": "note", 
                            "channel": 0
                        }
                    ]
                ], 
                [
                    220711, 
                    [
                        {
                            "pitch": 67, 
                            "t0": 220711, 
                            "v": 110, 
                            "dur": 25, 
                            "type": "note", 
                            "channel": 0
                        }, 
                        {
                            "pitch": 79, 
                            "t0": 220711, 
                            "v": 113, 
                            "dur": 70, 
                            "type": "note", 
                            "channel": 0
                        }
                    ]
                ], 
                [
                    221001, 
                    [
                        {
                            "pitch": 93, 
                            "t0": 221001, 
                            "v": 119, 
                            "dur": 156, 
                            "type": "note", 
                            "channel": 0
                        }, 
                        {
                            "pitch": 81, 
                            "t0": 221001, 
                            "v": 118, 
                            "dur": 170, 
                            "type": "note", 
                            "channel": 0
                        }
                    ]
                ], 
                [
                    221013, 
                    [
                        {
                            "pitch": 69, 
                            "t0": 221013, 
                            "v": 121, 
                            "dur": 197, 
                            "type": "note", 
                            "channel": 0
                        }
                    ]
                ], 
                [
                    221288, 
                    [
                        {
                            "pitch": 91, 
                            "t0": 221288, 
                            "v": 118, 
                            "dur": 198, 
                            "type": "note", 
                            "channel": 0
                        }, 
                        {
                            "pitch": 79, 
                            "t0": 221288, 
                            "v": 121, 
                            "dur": 204, 
                            "type": "note", 
                            "channel": 0
                        }, 
                        {
                            "pitch": 67, 
                            "t0": 221288, 
                            "v": 121, 
                            "dur": 251, 
                            "type": "note", 
                            "channel": 0
                        }
                    ]
                ], 
                [
                    221294, 
                    [
                        {
                            "pitch": 62, 
                            "t0": 221294, 
                            "v": 114, 
                            "dur": 284, 
                            "type": "note", 
                            "channel": 0
                        }
                    ]
                ], 
                [
                    221578, 
                    [
                        {
                            "pitch": 78, 
                            "t0": 221578, 
                            "v": 119, 
                            "dur": 121, 
                            "type": "note", 
                            "channel": 0
                        }, 
                        {
                            "pitch": 90, 
                            "t0": 221578, 
                            "v": 113, 
                            "dur": 193, 
                            "type": "note", 
                            "channel": 0
                        }
                    ]
                ], 
                [
                    221589, 
                    [
                        {
                            "pitch": 66, 
                            "t0": 221589, 
                            "v": 110, 
                            "dur": 69, 
                            "type": "note", 
                            "channel": 0
                        }
                    ]
                ], 
                [
                    221845, 
                    [
                        {
                            "pitch": 91, 
                            "t0": 221845, 
                            "v": 119, 
                            "dur": 164, 
                            "type": "note", 
                            "channel": 0
                        }
                    ]
                ], 
                [
                    221848, 
                    [
                        {
                            "pitch": 79, 
                            "t0": 221848, 
                            "v": 122, 
                            "dur": 137, 
                            "type": "note", 
                            "channel": 0
                        }
                    ]
                ], 
                [
                    221854, 
                    [
                        {
                            "pitch": 67, 
                            "t0": 221854, 
                            "v": 115, 
                            "dur": 87, 
                            "type": "note", 
                            "channel": 0
                        }
                    ]
                ], 
                [
                    221859, 
                    [
                        {
                            "pitch": 62, 
                            "t0": 221859, 
                            "v": 108, 
                            "dur": 95, 
                            "type": "note", 
                            "channel": 0
                        }
                    ]
                ], 
                [
                    222126, 
                    [
                        {
                            "pitch": 78, 
                            "t0": 222126, 
                            "v": 119, 
                            "dur": 99, 
                            "type": "note", 
                            "channel": 0
                        }, 
                        {
                            "pitch": 90, 
                            "t0": 222126, 
                            "v": 111, 
                            "dur": 187, 
                            "type": "note", 
                            "channel": 0
                        }
                    ]
                ], 
                [
                    222129, 
                    [
                        {
                            "pitch": 54, 
                            "t0": 222129, 
                            "v": 106, 
                            "dur": 135, 
                            "type": "note", 
                            "channel": 0
                        }
                    ]
                ], 
                [
                    222397, 
                    [
                        {
                            "pitch": 91, 
                            "t0": 222397, 
                            "v": 120, 
                            "dur": 187, 
                            "type": "note", 
                            "channel": 0
                        }, 
                        {
                            "pitch": 79, 
                            "t0": 222397, 
                            "v": 124, 
                            "dur": 193, 
                            "type": "note", 
                            "channel": 0
                        }, 
                        {
                            "pitch": 55, 
                            "t0": 222397, 
                            "v": 122, 
                            "dur": 232, 
                            "type": "note", 
                            "channel": 0
                        }
                    ]
                ], 
                [
                    222405, 
                    [
                        {
                            "pitch": 50, 
                            "t0": 222405, 
                            "v": 117, 
                            "dur": 242, 
                            "type": "note", 
                            "channel": 0
                        }
                    ]
                ], 
                [
                    222672, 
                    [
                        {
                            "pitch": 78, 
                            "t0": 222672, 
                            "v": 120, 
                            "dur": 106, 
                            "type": "note", 
                            "channel": 0
                        }, 
                        {
                            "pitch": 90, 
                            "t0": 222672, 
                            "v": 116, 
                            "dur": 181, 
                            "type": "note", 
                            "channel": 0
                        }
                    ]
                ], 
                [
                    222678, 
                    [
                        {
                            "pitch": 54, 
                            "t0": 222678, 
                            "v": 106, 
                            "dur": 148, 
                            "type": "note", 
                            "channel": 0
                        }
                    ]
                ], 
                [
                    222962, 
                    [
                        {
                            "pitch": 79, 
                            "t0": 222962, 
                            "v": 124, 
                            "dur": 151, 
                            "type": "note", 
                            "channel": 0
                        }, 
                        {
                            "pitch": 91, 
                            "t0": 222962, 
                            "v": 119, 
                            "dur": 162, 
                            "type": "note", 
                            "channel": 0
                        }
                    ]
                ], 
                [
                    222965, 
                    [
                        {
                            "pitch": 55, 
                            "t0": 222965, 
                            "v": 119, 
                            "dur": 48, 
                            "type": "note", 
                            "channel": 0
                        }
                    ]
                ], 
                [
                    222971, 
                    [
                        {
                            "pitch": 50, 
                            "t0": 222971, 
                            "v": 117, 
                            "dur": 73, 
                            "type": "note", 
                            "channel": 0
                        }
                    ]
                ], 
                [
                    223330, 
                    [
                        {
                            "pitch": 89, 
                            "t0": 223330, 
                            "v": 117, 
                            "dur": 697, 
                            "type": "note", 
                            "channel": 0
                        }
                    ]
                ], 
                [
                    223333, 
                    [
                        {
                            "pitch": 83, 
                            "t0": 223333, 
                            "v": 108, 
                            "dur": 671, 
                            "type": "note", 
                            "channel": 0
                        }, 
                        {
                            "pitch": 79, 
                            "t0": 223333, 
                            "v": 123, 
                            "dur": 676, 
                            "type": "note", 
                            "channel": 0
                        }, 
                        {
                            "pitch": 91, 
                            "t0": 223333, 
                            "v": 121, 
                            "dur": 700, 
                            "type": "note", 
                            "channel": 0
                        }
                    ]
                ], 
                [
                    223338, 
                    [
                        {
                            "pitch": 43, 
                            "t0": 223338, 
                            "v": 121, 
                            "dur": 140, 
                            "type": "note", 
                            "channel": 0
                        }
                    ]
                ], 
                [
                    223341, 
                    [
                        {
                            "pitch": 38, 
                            "t0": 223341, 
                            "v": 118, 
                            "dur": 115, 
                            "type": "note", 
                            "channel": 0
                        }
                    ]
                ], 
                [
                    223456, 
                    [
                        {
                            "pitch": 50, 
                            "t0": 223456, 
                            "v": 103, 
                            "dur": 69, 
                            "type": "note", 
                            "channel": 0
                        }
                    ]
                ], 
                [
                    223525, 
                    [
                        {
                            "pitch": 43, 
                            "t0": 223525, 
                            "v": 101, 
                            "dur": 100, 
                            "type": "note", 
                            "channel": 0
                        }
                    ]
                ], 
                [
                    223530, 
                    [
                        {
                            "pitch": 38, 
                            "t0": 223530, 
                            "v": 92, 
                            "dur": 59, 
                            "type": "note", 
                            "channel": 0
                        }
                    ]
                ], 
                [
                    223597, 
                    [
                        {
                            "pitch": 50, 
                            "t0": 223597, 
                            "v": 95, 
                            "dur": 62, 
                            "type": "note", 
                            "channel": 0
                        }
                    ]
                ], 
                [
                    223664, 
                    [
                        {
                            "pitch": 38, 
                            "t0": 223664, 
                            "v": 91, 
                            "dur": 76, 
                            "type": "note", 
                            "channel": 0
                        }
                    ]
                ], 
                [
                    223668, 
                    [
                        {
                            "pitch": 43, 
                            "t0": 223668, 
                            "v": 108, 
                            "dur": 82, 
                            "type": "note", 
                            "channel": 0
                        }
                    ]
                ], 
                [
                    223723, 
                    [
                        {
                            "pitch": 50, 
                            "t0": 223723, 
                            "v": 98, 
                            "dur": 69, 
                            "type": "note", 
                            "channel": 0
                        }
                    ]
                ], 
                [
                    223799, 
                    [
                        {
                            "pitch": 43, 
                            "t0": 223799, 
                            "v": 108, 
                            "dur": 100, 
                            "type": "note", 
                            "channel": 0
                        }
                    ]
                ], 
                [
                    223803, 
                    [
                        {
                            "pitch": 38, 
                            "t0": 223803, 
                            "v": 102, 
                            "dur": 76, 
                            "type": "note", 
                            "channel": 0
                        }
                    ]
                ], 
                [
                    223867, 
                    [
                        {
                            "pitch": 50, 
                            "t0": 223867, 
                            "v": 91, 
                            "dur": 113, 
                            "type": "note", 
                            "channel": 0
                        }
                    ]
                ], 
                [
                    223938, 
                    [
                        {
                            "pitch": 43, 
                            "t0": 223938, 
                            "v": 121, 
                            "dur": 71, 
                            "type": "note", 
                            "channel": 0
                        }
                    ]
                ], 
                [
                    223946, 
                    [
                        {
                            "pitch": 38, 
                            "t0": 223946, 
                            "v": 103, 
                            "dur": 75, 
                            "type": "note", 
                            "channel": 0
                        }
                    ]
                ], 
                [
                    224102, 
                    [
                        {
                            "pitch": 93, 
                            "t0": 224102, 
                            "v": 118, 
                            "dur": 97, 
                            "type": "note", 
                            "channel": 0
                        }, 
                        {
                            "pitch": 81, 
                            "t0": 224102, 
                            "v": 119, 
                            "dur": 97, 
                            "type": "note", 
                            "channel": 0
                        }
                    ]
                ], 
                [
                    224271, 
                    [
                        {
                            "pitch": 38, 
                            "t0": 224271, 
                            "v": 114, 
                            "dur": 96, 
                            "type": "note", 
                            "channel": 0
                        }, 
                        {
                            "pitch": 43, 
                            "t0": 224271, 
                            "v": 111, 
                            "dur": 117, 
                            "type": "note", 
                            "channel": 0
                        }
                    ]
                ], 
                [
                    224274, 
                    [
                        {
                            "pitch": 91, 
                            "t0": 224274, 
                            "v": 119, 
                            "dur": 79, 
                            "type": "note", 
                            "channel": 0
                        }, 
                        {
                            "pitch": 47, 
                            "t0": 224274, 
                            "v": 116, 
                            "dur": 93, 
                            "type": "note", 
                            "channel": 0
                        }, 
                        {
                            "pitch": 79, 
                            "t0": 224274, 
                            "v": 125, 
                            "dur": 98, 
                            "type": "note", 
                            "channel": 0
                        }
                    ]
                ], 
                [
                    224280, 
                    [
                        {
                            "pitch": 35, 
                            "t0": 224280, 
                            "v": 100, 
                            "dur": 53, 
                            "type": "note", 
                            "channel": 0
                        }
                    ]
                ], 
                [
                    224430, 
                    [
                        {
                            "pitch": 77, 
                            "t0": 224430, 
                            "v": 119, 
                            "dur": 70, 
                            "type": "note", 
                            "channel": 0
                        }, 
                        {
                            "pitch": 89, 
                            "t0": 224430, 
                            "v": 115, 
                            "dur": 84, 
                            "type": "note", 
                            "channel": 0
                        }
                    ]
                ], 
                [
                    224598, 
                    [
                        {
                            "pitch": 89, 
                            "t0": 224598, 
                            "v": 117, 
                            "dur": 97, 
                            "type": "note", 
                            "channel": 0
                        }, 
                        {
                            "pitch": 48, 
                            "t0": 224598, 
                            "v": 127, 
                            "dur": 102, 
                            "type": "note", 
                            "channel": 0
                        }, 
                        {
                            "pitch": 77, 
                            "t0": 224598, 
                            "v": 127, 
                            "dur": 102, 
                            "type": "note", 
                            "channel": 0
                        }, 
                        {
                            "pitch": 43, 
                            "t0": 224598, 
                            "v": 117, 
                            "dur": 128, 
                            "type": "note", 
                            "channel": 0
                        }
                    ]
                ], 
                [
                    224601, 
                    [
                        {
                            "pitch": 36, 
                            "t0": 224601, 
                            "v": 122, 
                            "dur": 94, 
                            "type": "note", 
                            "channel": 0
                        }
                    ]
                ], 
                [
                    224764, 
                    [
                        {
                            "pitch": 76, 
                            "t0": 224764, 
                            "v": 119, 
                            "dur": 56, 
                            "type": "note", 
                            "channel": 0
                        }, 
                        {
                            "pitch": 88, 
                            "t0": 224764, 
                            "v": 110, 
                            "dur": 56, 
                            "type": "note", 
                            "channel": 0
                        }
                    ]
                ], 
                [
                    224904, 
                    [
                        {
                            "pitch": 74, 
                            "t0": 224904, 
                            "v": 117, 
                            "dur": 56, 
                            "type": "note", 
                            "channel": 0
                        }
                    ]
                ], 
                [
                    224907, 
                    [
                        {
                            "pitch": 86, 
                            "t0": 224907, 
                            "v": 113, 
                            "dur": 50, 
                            "type": "note", 
                            "channel": 0
                        }
                    ]
                ], 
                [
                    225041, 
                    [
                        {
                            "pitch": 72, 
                            "t0": 225041, 
                            "v": 115, 
                            "dur": 70, 
                            "type": "note", 
                            "channel": 0
                        }
                    ]
                ], 
                [
                    225044, 
                    [
                        {
                            "pitch": 84, 
                            "t0": 225044, 
                            "v": 113, 
                            "dur": 74, 
                            "type": "note", 
                            "channel": 0
                        }
                    ]
                ], 
                [
                    225191, 
                    [
                        {
                            "pitch": 84, 
                            "t0": 225191, 
                            "v": 114, 
                            "dur": 98, 
                            "type": "note", 
                            "channel": 0
                        }, 
                        {
                            "pitch": 50, 
                            "t0": 225191, 
                            "v": 124, 
                            "dur": 111, 
                            "type": "note", 
                            "channel": 0
                        }
                    ]
                ], 
                [
                    225194, 
                    [
                        {
                            "pitch": 38, 
                            "t0": 225194, 
                            "v": 119, 
                            "dur": 100, 
                            "type": "note", 
                            "channel": 0
                        }, 
                        {
                            "pitch": 43, 
                            "t0": 225194, 
                            "v": 114, 
                            "dur": 131, 
                            "type": "note", 
                            "channel": 0
                        }, 
                        {
                            "pitch": 79, 
                            "t0": 225194, 
                            "v": 108, 
                            "dur": 178, 
                            "type": "note", 
                            "channel": 0
                        }
                    ]
                ], 
                [
                    225197, 
                    [
                        {
                            "pitch": 72, 
                            "t0": 225197, 
                            "v": 117, 
                            "dur": 88, 
                            "type": "note", 
                            "channel": 0
                        }
                    ]
                ], 
                [
                    225200, 
                    [
                        {
                            "pitch": 77, 
                            "t0": 225200, 
                            "v": 105, 
                            "dur": 130, 
                            "type": "note", 
                            "channel": 0
                        }
                    ]
                ], 
                [
                    225359, 
                    [
                        {
                            "pitch": 83, 
                            "t0": 225359, 
                            "v": 96, 
                            "dur": 61, 
                            "type": "note", 
                            "channel": 0
                        }, 
                        {
                            "pitch": 71, 
                            "t0": 225359, 
                            "v": 103, 
                            "dur": 64, 
                            "type": "note", 
                            "channel": 0
                        }
                    ]
                ], 
                [
                    225505, 
                    [
                        {
                            "pitch": 81, 
                            "t0": 225505, 
                            "v": 110, 
                            "dur": 54, 
                            "type": "note", 
                            "channel": 0
                        }, 
                        {
                            "pitch": 69, 
                            "t0": 225505, 
                            "v": 110, 
                            "dur": 60, 
                            "type": "note", 
                            "channel": 0
                        }
                    ]
                ], 
                [
                    225639, 
                    [
                        {
                            "pitch": 83, 
                            "t0": 225639, 
                            "v": 105, 
                            "dur": 82, 
                            "type": "note", 
                            "channel": 0
                        }
                    ]
                ], 
                [
                    225643, 
                    [
                        {
                            "pitch": 71, 
                            "t0": 225643, 
                            "v": 96, 
                            "dur": 58, 
                            "type": "note", 
                            "channel": 0
                        }
                    ]
                ], 
                [
                    225778, 
                    [
                        {
                            "pitch": 40, 
                            "t0": 225778, 
                            "v": 111, 
                            "dur": 42, 
                            "type": "note", 
                            "channel": 0
                        }, 
                        {
                            "pitch": 48, 
                            "t0": 225778, 
                            "v": 109, 
                            "dur": 67, 
                            "type": "note", 
                            "channel": 0
                        }, 
                        {
                            "pitch": 43, 
                            "t0": 225778, 
                            "v": 106, 
                            "dur": 73, 
                            "type": "note", 
                            "channel": 0
                        }, 
                        {
                            "pitch": 52, 
                            "t0": 225778, 
                            "v": 119, 
                            "dur": 92, 
                            "type": "note", 
                            "channel": 0
                        }
                    ]
                ], 
                [
                    225784, 
                    [
                        {
                            "pitch": 86, 
                            "t0": 225784, 
                            "v": 120, 
                            "dur": 48, 
                            "type": "note", 
                            "channel": 0
                        }, 
                        {
                            "pitch": 74, 
                            "t0": 225784, 
                            "v": 120, 
                            "dur": 67, 
                            "type": "note", 
                            "channel": 0
                        }
                    ]
                ], 
                [
                    225932, 
                    [
                        {
                            "pitch": 72, 
                            "t0": 225932, 
                            "v": 113, 
                            "dur": 78, 
                            "type": "note", 
                            "channel": 0
                        }
                    ]
                ], 
                [
                    225937, 
                    [
                        {
                            "pitch": 84, 
                            "t0": 225937, 
                            "v": 110, 
                            "dur": 73, 
                            "type": "note", 
                            "channel": 0
                        }
                    ]
                ], 
                [
                    226075, 
                    [
                        {
                            "pitch": 67, 
                            "t0": 226075, 
                            "v": 113, 
                            "dur": 57, 
                            "type": "note", 
                            "channel": 0
                        }
                    ]
                ], 
                [
                    226080, 
                    [
                        {
                            "pitch": 79, 
                            "t0": 226080, 
                            "v": 107, 
                            "dur": 84, 
                            "type": "note", 
                            "channel": 0
                        }
                    ]
                ], 
                [
                    226085, 
                    [
                        {
                            "pitch": 64, 
                            "t0": 226085, 
                            "v": 108, 
                            "dur": 42, 
                            "type": "note", 
                            "channel": 0
                        }, 
                        {
                            "pitch": 60, 
                            "t0": 226085, 
                            "v": 103, 
                            "dur": 65, 
                            "type": "note", 
                            "channel": 0
                        }
                    ]
                ], 
                [
                    226221, 
                    [
                        {
                            "pitch": 76, 
                            "t0": 226221, 
                            "v": 110, 
                            "dur": 79, 
                            "type": "note", 
                            "channel": 0
                        }
                    ]
                ], 
                [
                    226361, 
                    [
                        {
                            "pitch": 71, 
                            "t0": 226361, 
                            "v": 109, 
                            "dur": 65, 
                            "type": "note", 
                            "channel": 0
                        }, 
                        {
                            "pitch": 83, 
                            "t0": 226361, 
                            "v": 115, 
                            "dur": 76, 
                            "type": "note", 
                            "channel": 0
                        }
                    ]
                ], 
                [
                    226364, 
                    [
                        {
                            "pitch": 41, 
                            "t0": 226364, 
                            "v": 117, 
                            "dur": 50, 
                            "type": "note", 
                            "channel": 0
                        }, 
                        {
                            "pitch": 53, 
                            "t0": 226364, 
                            "v": 120, 
                            "dur": 100, 
                            "type": "note", 
                            "channel": 0
                        }
                    ]
                ], 
                [
                    226504, 
                    [
                        {
                            "pitch": 81, 
                            "t0": 226504, 
                            "v": 111, 
                            "dur": 96, 
                            "type": "note", 
                            "channel": 0
                        }
                    ]
                ], 
                [
                    226507, 
                    [
                        {
                            "pitch": 69, 
                            "t0": 226507, 
                            "v": 108, 
                            "dur": 83, 
                            "type": "note", 
                            "channel": 0
                        }
                    ]
                ], 
                [
                    226640, 
                    [
                        {
                            "pitch": 65, 
                            "t0": 226640, 
                            "v": 115, 
                            "dur": 61, 
                            "type": "note", 
                            "channel": 0
                        }
                    ]
                ], 
                [
                    226648, 
                    [
                        {
                            "pitch": 60, 
                            "t0": 226648, 
                            "v": 103, 
                            "dur": 72, 
                            "type": "note", 
                            "channel": 0
                        }, 
                        {
                            "pitch": 62, 
                            "t0": 226648, 
                            "v": 99, 
                            "dur": 76, 
                            "type": "note", 
                            "channel": 0
                        }, 
                        {
                            "pitch": 77, 
                            "t0": 226648, 
                            "v": 110, 
                            "dur": 83, 
                            "type": "note", 
                            "channel": 0
                        }, 
                        {
                            "pitch": 57, 
                            "t0": 226648, 
                            "v": 101, 
                            "dur": 87, 
                            "type": "note", 
                            "channel": 0
                        }
                    ]
                ], 
                [
                    226788, 
                    [
                        {
                            "pitch": 74, 
                            "t0": 226788, 
                            "v": 112, 
                            "dur": 61, 
                            "type": "note", 
                            "channel": 0
                        }
                    ]
                ], 
                [
                    226926, 
                    [
                        {
                            "pitch": 69, 
                            "t0": 226926, 
                            "v": 115, 
                            "dur": 57, 
                            "type": "note", 
                            "channel": 0
                        }, 
                        {
                            "pitch": 81, 
                            "t0": 226926, 
                            "v": 121, 
                            "dur": 57, 
                            "type": "note", 
                            "channel": 0
                        }
                    ]
                ], 
                [
                    226934, 
                    [
                        {
                            "pitch": 43, 
                            "t0": 226934, 
                            "v": 114, 
                            "dur": 76, 
                            "type": "note", 
                            "channel": 0
                        }, 
                        {
                            "pitch": 55, 
                            "t0": 226934, 
                            "v": 118, 
                            "dur": 107, 
                            "type": "note", 
                            "channel": 0
                        }
                    ]
                ], 
                [
                    227072, 
                    [
                        {
                            "pitch": 79, 
                            "t0": 227072, 
                            "v": 115, 
                            "dur": 94, 
                            "type": "note", 
                            "channel": 0
                        }
                    ]
                ], 
                [
                    227075, 
                    [
                        {
                            "pitch": 67, 
                            "t0": 227075, 
                            "v": 109, 
                            "dur": 63, 
                            "type": "note", 
                            "channel": 0
                        }
                    ]
                ], 
                [
                    227210, 
                    [
                        {
                            "pitch": 64, 
                            "t0": 227210, 
                            "v": 106, 
                            "dur": 70, 
                            "type": "note", 
                            "channel": 0
                        }, 
                        {
                            "pitch": 76, 
                            "t0": 227210, 
                            "v": 106, 
                            "dur": 115, 
                            "type": "note", 
                            "channel": 0
                        }
                    ]
                ], 
                [
                    227216, 
                    [
                        {
                            "pitch": 55, 
                            "t0": 227216, 
                            "v": 96, 
                            "dur": 70, 
                            "type": "note", 
                            "channel": 0
                        }
                    ]
                ], 
                [
                    227221, 
                    [
                        {
                            "pitch": 60, 
                            "t0": 227221, 
                            "v": 95, 
                            "dur": 117, 
                            "type": "note", 
                            "channel": 0
                        }
                    ]
                ], 
                [
                    227342, 
                    [
                        {
                            "pitch": 72, 
                            "t0": 227342, 
                            "v": 107, 
                            "dur": 125, 
                            "type": "note", 
                            "channel": 0
                        }
                    ]
                ], 
                [
                    227479, 
                    [
                        {
                            "pitch": 62, 
                            "t0": 227479, 
                            "v": 104, 
                            "dur": 80, 
                            "type": "note", 
                            "channel": 0
                        }
                    ]
                ], 
                [
                    227487, 
                    [
                        {
                            "pitch": 67, 
                            "t0": 227487, 
                            "v": 106, 
                            "dur": 72, 
                            "type": "note", 
                            "channel": 0
                        }, 
                        {
                            "pitch": 59, 
                            "t0": 227487, 
                            "v": 90, 
                            "dur": 109, 
                            "type": "note", 
                            "channel": 0
                        }
                    ]
                ], 
                [
                    227490, 
                    [
                        {
                            "pitch": 55, 
                            "t0": 227490, 
                            "v": 97, 
                            "dur": 106, 
                            "type": "note", 
                            "channel": 0
                        }
                    ]
                ], 
                [
                    227625, 
                    [
                        {
                            "pitch": 66, 
                            "t0": 227625, 
                            "v": 110, 
                            "dur": 64, 
                            "type": "note", 
                            "channel": 0
                        }
                    ]
                ], 
                [
                    227629, 
                    [
                        {
                            "pitch": 78, 
                            "t0": 227629, 
                            "v": 105, 
                            "dur": 84, 
                            "type": "note", 
                            "channel": 0
                        }
                    ]
                ], 
                [
                    227768, 
                    [
                        {
                            "pitch": 67, 
                            "t0": 227768, 
                            "v": 113, 
                            "dur": 61, 
                            "type": "note", 
                            "channel": 0
                        }, 
                        {
                            "pitch": 79, 
                            "t0": 227768, 
                            "v": 119, 
                            "dur": 70, 
                            "type": "note", 
                            "channel": 0
                        }
                    ]
                ], 
                [
                    227899, 
                    [
                        {
                            "pitch": 66, 
                            "t0": 227899, 
                            "v": 104, 
                            "dur": 77, 
                            "type": "note", 
                            "channel": 0
                        }
                    ]
                ], 
                [
                    227905, 
                    [
                        {
                            "pitch": 78, 
                            "t0": 227905, 
                            "v": 107, 
                            "dur": 99, 
                            "type": "note", 
                            "channel": 0
                        }
                    ]
                ], 
                [
                    228055, 
                    [
                        {
                            "pitch": 77, 
                            "t0": 228055, 
                            "v": 117, 
                            "dur": 671, 
                            "type": "note", 
                            "channel": 0
                        }
                    ]
                ], 
                [
                    228058, 
                    [
                        {
                            "pitch": 79, 
                            "t0": 228058, 
                            "v": 119, 
                            "dur": 83, 
                            "type": "note", 
                            "channel": 0
                        }, 
                        {
                            "pitch": 67, 
                            "t0": 228058, 
                            "v": 124, 
                            "dur": 94, 
                            "type": "note", 
                            "channel": 0
                        }, 
                        {
                            "pitch": 43, 
                            "t0": 228058, 
                            "v": 105, 
                            "dur": 192, 
                            "type": "note", 
                            "channel": 0
                        }
                    ]
                ], 
                [
                    228062, 
                    [
                        {
                            "pitch": 35, 
                            "t0": 228062, 
                            "v": 103, 
                            "dur": 102, 
                            "type": "note", 
                            "channel": 0
                        }, 
                        {
                            "pitch": 47, 
                            "t0": 228062, 
                            "v": 108, 
                            "dur": 143, 
                            "type": "note", 
                            "channel": 0
                        }, 
                        {
                            "pitch": 74, 
                            "t0": 228062, 
                            "v": 114, 
                            "dur": 646, 
                            "type": "note", 
                            "channel": 0
                        }
                    ]
                ], 
                [
                    228219, 
                    [
                        {
                            "pitch": 66, 
                            "t0": 228219, 
                            "v": 104, 
                            "dur": 86, 
                            "type": "note", 
                            "channel": 0
                        }
                    ]
                ], 
                [
                    228224, 
                    [
                        {
                            "pitch": 78, 
                            "t0": 228224, 
                            "v": 99, 
                            "dur": 81, 
                            "type": "note", 
                            "channel": 0
                        }
                    ]
                ], 
                [
                    228353, 
                    [
                        {
                            "pitch": 79, 
                            "t0": 228353, 
                            "v": 113, 
                            "dur": 64, 
                            "type": "note", 
                            "channel": 0
                        }
                    ]
                ], 
                [
                    228358, 
                    [
                        {
                            "pitch": 67, 
                            "t0": 228358, 
                            "v": 110, 
                            "dur": 62, 
                            "type": "note", 
                            "channel": 0
                        }, 
                        {
                            "pitch": 50, 
                            "t0": 228358, 
                            "v": 123, 
                            "dur": 98, 
                            "type": "note", 
                            "channel": 0
                        }
                    ]
                ], 
                [
                    228361, 
                    [
                        {
                            "pitch": 38, 
                            "t0": 228361, 
                            "v": 113, 
                            "dur": 117, 
                            "type": "note", 
                            "channel": 0
                        }
                    ]
                ], 
                [
                    228500, 
                    [
                        {
                            "pitch": 66, 
                            "t0": 228500, 
                            "v": 101, 
                            "dur": 75, 
                            "type": "note", 
                            "channel": 0
                        }
                    ]
                ], 
                [
                    228503, 
                    [
                        {
                            "pitch": 78, 
                            "t0": 228503, 
                            "v": 97, 
                            "dur": 79, 
                            "type": "note", 
                            "channel": 0
                        }
                    ]
                ], 
                [
                    228634, 
                    [
                        {
                            "pitch": 79, 
                            "t0": 228634, 
                            "v": 113, 
                            "dur": 83, 
                            "type": "note", 
                            "channel": 0
                        }, 
                        {
                            "pitch": 47, 
                            "t0": 228634, 
                            "v": 113, 
                            "dur": 97, 
                            "type": "note", 
                            "channel": 0
                        }
                    ]
                ], 
                [
                    228637, 
                    [
                        {
                            "pitch": 67, 
                            "t0": 228637, 
                            "v": 113, 
                            "dur": 58, 
                            "type": "note", 
                            "channel": 0
                        }, 
                        {
                            "pitch": 43, 
                            "t0": 228637, 
                            "v": 109, 
                            "dur": 115, 
                            "type": "note", 
                            "channel": 0
                        }
                    ]
                ], 
                [
                    228640, 
                    [
                        {
                            "pitch": 35, 
                            "t0": 228640, 
                            "v": 102, 
                            "dur": 80, 
                            "type": "note", 
                            "channel": 0
                        }
                    ]
                ], 
                [
                    228777, 
                    [
                        {
                            "pitch": 81, 
                            "t0": 228777, 
                            "v": 111, 
                            "dur": 63, 
                            "type": "note", 
                            "channel": 0
                        }, 
                        {
                            "pitch": 69, 
                            "t0": 228777, 
                            "v": 108, 
                            "dur": 71, 
                            "type": "note", 
                            "channel": 0
                        }
                    ]
                ], 
                [
                    228912, 
                    [
                        {
                            "pitch": 67, 
                            "t0": 228912, 
                            "v": 111, 
                            "dur": 54, 
                            "type": "note", 
                            "channel": 0
                        }, 
                        {
                            "pitch": 79, 
                            "t0": 228912, 
                            "v": 113, 
                            "dur": 59, 
                            "type": "note", 
                            "channel": 0
                        }, 
                        {
                            "pitch": 50, 
                            "t0": 228912, 
                            "v": 121, 
                            "dur": 96, 
                            "type": "note", 
                            "channel": 0
                        }
                    ]
                ], 
                [
                    228916, 
                    [
                        {
                            "pitch": 38, 
                            "t0": 228916, 
                            "v": 107, 
                            "dur": 78, 
                            "type": "note", 
                            "channel": 0
                        }
                    ]
                ], 
                [
                    229046, 
                    [
                        {
                            "pitch": 77, 
                            "t0": 229046, 
                            "v": 110, 
                            "dur": 57, 
                            "type": "note", 
                            "channel": 0
                        }, 
                        {
                            "pitch": 65, 
                            "t0": 229046, 
                            "v": 108, 
                            "dur": 70, 
                            "type": "note", 
                            "channel": 0
                        }
                    ]
                ], 
                [
                    229183, 
                    [
                        {
                            "pitch": 48, 
                            "t0": 229183, 
                            "v": 121, 
                            "dur": 100, 
                            "type": "note", 
                            "channel": 0
                        }
                    ]
                ], 
                [
                    229186, 
                    [
                        {
                            "pitch": 77, 
                            "t0": 229186, 
                            "v": 112, 
                            "dur": 63, 
                            "type": "note", 
                            "channel": 0
                        }, 
                        {
                            "pitch": 65, 
                            "t0": 229186, 
                            "v": 109, 
                            "dur": 72, 
                            "type": "note", 
                            "channel": 0
                        }, 
                        {
                            "pitch": 43, 
                            "t0": 229186, 
                            "v": 111, 
                            "dur": 88, 
                            "type": "note", 
                            "channel": 0
                        }
                    ]
                ], 
                [
                    229189, 
                    [
                        {
                            "pitch": 36, 
                            "t0": 229189, 
                            "v": 113, 
                            "dur": 64, 
                            "type": "note", 
                            "channel": 0
                        }
                    ]
                ], 
                [
                    229322, 
                    [
                        {
                            "pitch": 64, 
                            "t0": 229322, 
                            "v": 108, 
                            "dur": 54, 
                            "type": "note", 
                            "channel": 0
                        }, 
                        {
                            "pitch": 76, 
                            "t0": 229322, 
                            "v": 114, 
                            "dur": 58, 
                            "type": "note", 
                            "channel": 0
                        }
                    ]
                ], 
                [
                    229458, 
                    [
                        {
                            "pitch": 62, 
                            "t0": 229458, 
                            "v": 105, 
                            "dur": 59, 
                            "type": "note", 
                            "channel": 0
                        }, 
                        {
                            "pitch": 74, 
                            "t0": 229458, 
                            "v": 111, 
                            "dur": 64, 
                            "type": "note", 
                            "channel": 0
                        }
                    ]
                ], 
                [
                    229464, 
                    [
                        {
                            "pitch": 52, 
                            "t0": 229464, 
                            "v": 117, 
                            "dur": 58, 
                            "type": "note", 
                            "channel": 0
                        }
                    ]
                ], 
                [
                    229468, 
                    [
                        {
                            "pitch": 43, 
                            "t0": 229468, 
                            "v": 105, 
                            "dur": 82, 
                            "type": "note", 
                            "channel": 0
                        }, 
                        {
                            "pitch": 40, 
                            "t0": 229468, 
                            "v": 106, 
                            "dur": 93, 
                            "type": "note", 
                            "channel": 0
                        }
                    ]
                ], 
                [
                    229598, 
                    [
                        {
                            "pitch": 60, 
                            "t0": 229598, 
                            "v": 105, 
                            "dur": 73, 
                            "type": "note", 
                            "channel": 0
                        }, 
                        {
                            "pitch": 72, 
                            "t0": 229598, 
                            "v": 112, 
                            "dur": 80, 
                            "type": "note", 
                            "channel": 0
                        }
                    ]
                ], 
                [
                    229734, 
                    [
                        {
                            "pitch": 72, 
                            "t0": 229734, 
                            "v": 111, 
                            "dur": 54, 
                            "type": "note", 
                            "channel": 0
                        }, 
                        {
                            "pitch": 50, 
                            "t0": 229734, 
                            "v": 120, 
                            "dur": 81, 
                            "type": "note", 
                            "channel": 0
                        }
                    ]
                ], 
                [
                    229737, 
                    [
                        {
                            "pitch": 38, 
                            "t0": 229737, 
                            "v": 110, 
                            "dur": 62, 
                            "type": "note", 
                            "channel": 0
                        }, 
                        {
                            "pitch": 41, 
                            "t0": 229737, 
                            "v": 108, 
                            "dur": 70, 
                            "type": "note", 
                            "channel": 0
                        }, 
                        {
                            "pitch": 60, 
                            "t0": 229737, 
                            "v": 105, 
                            "dur": 78, 
                            "type": "note", 
                            "channel": 0
                        }
                    ]
                ], 
                [
                    229874, 
                    [
                        {
                            "pitch": 71, 
                            "t0": 229874, 
                            "v": 95, 
                            "dur": 58, 
                            "type": "note", 
                            "channel": 0
                        }, 
                        {
                            "pitch": 59, 
                            "t0": 229874, 
                            "v": 94, 
                            "dur": 61, 
                            "type": "note", 
                            "channel": 0
                        }
                    ]
                ], 
                [
                    230007, 
                    [
                        {
                            "pitch": 53, 
                            "t0": 230007, 
                            "v": 110, 
                            "dur": 67, 
                            "type": "note", 
                            "channel": 0
                        }, 
                        {
                            "pitch": 41, 
                            "t0": 230007, 
                            "v": 109, 
                            "dur": 95, 
                            "type": "note", 
                            "channel": 0
                        }
                    ]
                ], 
                [
                    230011, 
                    [
                        {
                            "pitch": 69, 
                            "t0": 230011, 
                            "v": 106, 
                            "dur": 66, 
                            "type": "note", 
                            "channel": 0
                        }
                    ]
                ], 
                [
                    230014, 
                    [
                        {
                            "pitch": 57, 
                            "t0": 230014, 
                            "v": 105, 
                            "dur": 52, 
                            "type": "note", 
                            "channel": 0
                        }
                    ]
                ], 
                [
                    230019, 
                    [
                        {
                            "pitch": 43, 
                            "t0": 230019, 
                            "v": 101, 
                            "dur": 91, 
                            "type": "note", 
                            "channel": 0
                        }
                    ]
                ], 
                [
                    230142, 
                    [
                        {
                            "pitch": 59, 
                            "t0": 230142, 
                            "v": 93, 
                            "dur": 53, 
                            "type": "note", 
                            "channel": 0
                        }, 
                        {
                            "pitch": 71, 
                            "t0": 230142, 
                            "v": 98, 
                            "dur": 68, 
                            "type": "note", 
                            "channel": 0
                        }
                    ]
                ], 
                [
                    230278, 
                    [
                        {
                            "pitch": 43, 
                            "t0": 230278, 
                            "v": 100, 
                            "dur": 130, 
                            "type": "note", 
                            "channel": 0
                        }, 
                        {
                            "pitch": 52, 
                            "t0": 230278, 
                            "v": 119, 
                            "dur": 139, 
                            "type": "note", 
                            "channel": 0
                        }
                    ]
                ], 
                [
                    230284, 
                    [
                        {
                            "pitch": 62, 
                            "t0": 230284, 
                            "v": 109, 
                            "dur": 61, 
                            "type": "note", 
                            "channel": 0
                        }, 
                        {
                            "pitch": 74, 
                            "t0": 230284, 
                            "v": 119, 
                            "dur": 72, 
                            "type": "note", 
                            "channel": 0
                        }
                    ]
                ], 
                [
                    230289, 
                    [
                        {
                            "pitch": 40, 
                            "t0": 230289, 
                            "v": 104, 
                            "dur": 101, 
                            "type": "note", 
                            "channel": 0
                        }
                    ]
                ], 
                [
                    230417, 
                    [
                        {
                            "pitch": 60, 
                            "t0": 230417, 
                            "v": 98, 
                            "dur": 86, 
                            "type": "note", 
                            "channel": 0
                        }, 
                        {
                            "pitch": 72, 
                            "t0": 230417, 
                            "v": 110, 
                            "dur": 117, 
                            "type": "note", 
                            "channel": 0
                        }
                    ]
                ], 
                [
                    230559, 
                    [
                        {
                            "pitch": 43, 
                            "t0": 230559, 
                            "v": 98, 
                            "dur": 42, 
                            "type": "note", 
                            "channel": 0
                        }, 
                        {
                            "pitch": 52, 
                            "t0": 230559, 
                            "v": 88, 
                            "dur": 89, 
                            "type": "note", 
                            "channel": 0
                        }
                    ]
                ], 
                [
                    230564, 
                    [
                        {
                            "pitch": 67, 
                            "t0": 230564, 
                            "v": 97, 
                            "dur": 84, 
                            "type": "note", 
                            "channel": 0
                        }
                    ]
                ], 
                [
                    230687, 
                    [
                        {
                            "pitch": 55, 
                            "t0": 230687, 
                            "v": 101, 
                            "dur": 68, 
                            "type": "note", 
                            "channel": 0
                        }
                    ]
                ], 
                [
                    230693, 
                    [
                        {
                            "pitch": 64, 
                            "t0": 230693, 
                            "v": 100, 
                            "dur": 72, 
                            "type": "note", 
                            "channel": 0
                        }
                    ]
                ], 
                [
                    230827, 
                    [
                        {
                            "pitch": 71, 
                            "t0": 230827, 
                            "v": 107, 
                            "dur": 55, 
                            "type": "note", 
                            "channel": 0
                        }, 
                        {
                            "pitch": 59, 
                            "t0": 230827, 
                            "v": 102, 
                            "dur": 61, 
                            "type": "note", 
                            "channel": 0
                        }
                    ]
                ], 
                [
                    230835, 
                    [
                        {
                            "pitch": 50, 
                            "t0": 230835, 
                            "v": 110, 
                            "dur": 117, 
                            "type": "note", 
                            "channel": 0
                        }, 
                        {
                            "pitch": 41, 
                            "t0": 230835, 
                            "v": 105, 
                            "dur": 183, 
                            "type": "note", 
                            "channel": 0
                        }
                    ]
                ], 
                [
                    230957, 
                    [
                        {
                            "pitch": 53, 
                            "t0": 230957, 
                            "v": 90, 
                            "dur": 75, 
                            "type": "note", 
                            "channel": 0
                        }, 
                        {
                            "pitch": 57, 
                            "t0": 230957, 
                            "v": 99, 
                            "dur": 75, 
                            "type": "note", 
                            "channel": 0
                        }
                    ]
                ], 
                [
                    230960, 
                    [
                        {
                            "pitch": 69, 
                            "t0": 230960, 
                            "v": 101, 
                            "dur": 104, 
                            "type": "note", 
                            "channel": 0
                        }
                    ]
                ], 
                [
                    231096, 
                    [
                        {
                            "pitch": 50, 
                            "t0": 231096, 
                            "v": 94, 
                            "dur": 68, 
                            "type": "note", 
                            "channel": 0
                        }
                    ]
                ], 
                [
                    231100, 
                    [
                        {
                            "pitch": 65, 
                            "t0": 231100, 
                            "v": 97, 
                            "dur": 81, 
                            "type": "note", 
                            "channel": 0
                        }, 
                        {
                            "pitch": 45, 
                            "t0": 231100, 
                            "v": 99, 
                            "dur": 113, 
                            "type": "note", 
                            "channel": 0
                        }
                    ]
                ], 
                [
                    231219, 
                    [
                        {
                            "pitch": 53, 
                            "t0": 231219, 
                            "v": 96, 
                            "dur": 31, 
                            "type": "note", 
                            "channel": 0
                        }
                    ]
                ], 
                [
                    231225, 
                    [
                        {
                            "pitch": 62, 
                            "t0": 231225, 
                            "v": 98, 
                            "dur": 72, 
                            "type": "note", 
                            "channel": 0
                        }
                    ]
                ], 
                [
                    231365, 
                    [
                        {
                            "pitch": 69, 
                            "t0": 231365, 
                            "v": 117, 
                            "dur": 50, 
                            "type": "note", 
                            "channel": 0
                        }, 
                        {
                            "pitch": 43, 
                            "t0": 231365, 
                            "v": 108, 
                            "dur": 185, 
                            "type": "note", 
                            "channel": 0
                        }
                    ]
                ], 
                [
                    231368, 
                    [
                        {
                            "pitch": 57, 
                            "t0": 231368, 
                            "v": 113, 
                            "dur": 57, 
                            "type": "note", 
                            "channel": 0
                        }, 
                        {
                            "pitch": 48, 
                            "t0": 231368, 
                            "v": 115, 
                            "dur": 114, 
                            "type": "note", 
                            "channel": 0
                        }
                    ]
                ], 
                [
                    231492, 
                    [
                        {
                            "pitch": 52, 
                            "t0": 231492, 
                            "v": 96, 
                            "dur": 79, 
                            "type": "note", 
                            "channel": 0
                        }
                    ]
                ], 
                [
                    231500, 
                    [
                        {
                            "pitch": 55, 
                            "t0": 231500, 
                            "v": 102, 
                            "dur": 71, 
                            "type": "note", 
                            "channel": 0
                        }, 
                        {
                            "pitch": 67, 
                            "t0": 231500, 
                            "v": 107, 
                            "dur": 101, 
                            "type": "note", 
                            "channel": 0
                        }
                    ]
                ], 
                [
                    231631, 
                    [
                        {
                            "pitch": 48, 
                            "t0": 231631, 
                            "v": 110, 
                            "dur": 68, 
                            "type": "note", 
                            "channel": 0
                        }
                    ]
                ], 
                [
                    231638, 
                    [
                        {
                            "pitch": 43, 
                            "t0": 231638, 
                            "v": 75, 
                            "dur": 133, 
                            "type": "note", 
                            "channel": 0
                        }
                    ]
                ], 
                [
                    231642, 
                    [
                        {
                            "pitch": 64, 
                            "t0": 231642, 
                            "v": 93, 
                            "dur": 93, 
                            "type": "note", 
                            "channel": 0
                        }
                    ]
                ], 
                [
                    231743, 
                    [
                        {
                            "pitch": 52, 
                            "t0": 231743, 
                            "v": 98, 
                            "dur": 67, 
                            "type": "note", 
                            "channel": 0
                        }
                    ]
                ], 
                [
                    231755, 
                    [
                        {
                            "pitch": 60, 
                            "t0": 231755, 
                            "v": 104, 
                            "dur": 36, 
                            "type": "note", 
                            "channel": 0
                        }
                    ]
                ], 
                [
                    231907, 
                    [
                        {
                            "pitch": 55, 
                            "t0": 231907, 
                            "v": 121, 
                            "dur": 150, 
                            "type": "note", 
                            "channel": 0
                        }, 
                        {
                            "pitch": 43, 
                            "t0": 231907, 
                            "v": 107, 
                            "dur": 162, 
                            "type": "note", 
                            "channel": 0
                        }, 
                        {
                            "pitch": 50, 
                            "t0": 231907, 
                            "v": 113, 
                            "dur": 173, 
                            "type": "note", 
                            "channel": 0
                        }
                    ]
                ], 
                [
                    231950, 
                    [
                        {
                            "pitch": 47, 
                            "t0": 231950, 
                            "v": 19, 
                            "dur": 53, 
                            "type": "note", 
                            "channel": 0
                        }
                    ]
                ], 
                [
                    232042, 
                    [
                        {
                            "pitch": 67, 
                            "t0": 232042, 
                            "v": 109, 
                            "dur": 68, 
                            "type": "note", 
                            "channel": 0
                        }, 
                        {
                            "pitch": 71, 
                            "t0": 232042, 
                            "v": 93, 
                            "dur": 71, 
                            "type": "note", 
                            "channel": 0
                        }
                    ]
                ], 
                [
                    232046, 
                    [
                        {
                            "pitch": 79, 
                            "t0": 232046, 
                            "v": 111, 
                            "dur": 57, 
                            "type": "note", 
                            "channel": 0
                        }
                    ]
                ], 
                [
                    232172, 
                    [
                        {
                            "pitch": 71, 
                            "t0": 232172, 
                            "v": 91, 
                            "dur": 89, 
                            "type": "note", 
                            "channel": 0
                        }
                    ]
                ], 
                [
                    232177, 
                    [
                        {
                            "pitch": 67, 
                            "t0": 232177, 
                            "v": 108, 
                            "dur": 60, 
                            "type": "note", 
                            "channel": 0
                        }, 
                        {
                            "pitch": 50, 
                            "t0": 232177, 
                            "v": 103, 
                            "dur": 68, 
                            "type": "note", 
                            "channel": 0
                        }, 
                        {
                            "pitch": 79, 
                            "t0": 232177, 
                            "v": 111, 
                            "dur": 73, 
                            "type": "note", 
                            "channel": 0
                        }, 
                        {
                            "pitch": 53, 
                            "t0": 232177, 
                            "v": 113, 
                            "dur": 81, 
                            "type": "note", 
                            "channel": 0
                        }
                    ]
                ], 
                [
                    232186, 
                    [
                        {
                            "pitch": 43, 
                            "t0": 232186, 
                            "v": 105, 
                            "dur": 80, 
                            "type": "note", 
                            "channel": 0
                        }
                    ]
                ], 
                [
                    232300, 
                    [
                        {
                            "pitch": 79, 
                            "t0": 232300, 
                            "v": 102, 
                            "dur": 20, 
                            "type": "note", 
                            "channel": 0
                        }
                    ]
                ], 
                [
                    232303, 
                    [
                        {
                            "pitch": 67, 
                            "t0": 232303, 
                            "v": 92, 
                            "dur": 64, 
                            "type": "note", 
                            "channel": 0
                        }
                    ]
                ], 
                [
                    232311, 
                    [
                        {
                            "pitch": 71, 
                            "t0": 232311, 
                            "v": 97, 
                            "dur": 22, 
                            "type": "note", 
                            "channel": 0
                        }
                    ]
                ], 
                [
                    232492, 
                    [
                        {
                            "pitch": 36, 
                            "t0": 232492, 
                            "v": 116, 
                            "dur": 28, 
                            "type": "note", 
                            "channel": 0
                        }, 
                        {
                            "pitch": 60, 
                            "t0": 232492, 
                            "v": 119, 
                            "dur": 53, 
                            "type": "note", 
                            "channel": 0
                        }, 
                        {
                            "pitch": 64, 
                            "t0": 232492, 
                            "v": 111, 
                            "dur": 68, 
                            "type": "note", 
                            "channel": 0
                        }, 
                        {
                            "pitch": 43, 
                            "t0": 232492, 
                            "v": 110, 
                            "dur": 73, 
                            "type": "note", 
                            "channel": 0
                        }, 
                        {
                            "pitch": 48, 
                            "t0": 232492, 
                            "v": 123, 
                            "dur": 86, 
                            "type": "note", 
                            "channel": 0
                        }, 
                        {
                            "pitch": 72, 
                            "t0": 232492, 
                            "v": 121, 
                            "dur": 93, 
                            "type": "note", 
                            "channel": 0
                        }
                    ]
                ], 
                [
                    232497, 
                    [
                        {
                            "pitch": 40, 
                            "t0": 232497, 
                            "v": 112, 
                            "dur": 34, 
                            "type": "note", 
                            "channel": 0
                        }
                    ]
                ], 
                [
                    232504, 
                    [
                        {
                            "pitch": 67, 
                            "t0": 232504, 
                            "v": 102, 
                            "dur": 64, 
                            "type": "note", 
                            "channel": 0
                        }
                    ]
                ], 
                [
                    232749, 
                    [
                        {
                            "pitch": 64, 
                            "t0": 232749, 
                            "v": 97, 
                            "dur": 41, 
                            "type": "note", 
                            "channel": 0
                        }
                    ]
                ], 
                [
                    232759, 
                    [
                        {
                            "pitch": 76, 
                            "t0": 232759, 
                            "v": 99, 
                            "dur": 31, 
                            "type": "note", 
                            "channel": 0
                        }
                    ]
                ], 
                [
                    232762, 
                    [
                        {
                            "pitch": 88, 
                            "t0": 232762, 
                            "v": 89, 
                            "dur": 48, 
                            "type": "note", 
                            "channel": 0
                        }
                    ]
                ], 
                [
                    232877, 
                    [
                        {
                            "pitch": 88, 
                            "t0": 232877, 
                            "v": 96, 
                            "dur": 75, 
                            "type": "note", 
                            "channel": 0
                        }
                    ]
                ], 
                [
                    232885, 
                    [
                        {
                            "pitch": 76, 
                            "t0": 232885, 
                            "v": 103, 
                            "dur": 54, 
                            "type": "note", 
                            "channel": 0
                        }, 
                        {
                            "pitch": 64, 
                            "t0": 232885, 
                            "v": 96, 
                            "dur": 64, 
                            "type": "note", 
                            "channel": 0
                        }
                    ]
                ], 
                [
                    233016, 
                    [
                        {
                            "pitch": 76, 
                            "t0": 233016, 
                            "v": 105, 
                            "dur": 59, 
                            "type": "note", 
                            "channel": 0
                        }, 
                        {
                            "pitch": 88, 
                            "t0": 233016, 
                            "v": 101, 
                            "dur": 69, 
                            "type": "note", 
                            "channel": 0
                        }
                    ]
                ], 
                [
                    233021, 
                    [
                        {
                            "pitch": 64, 
                            "t0": 233021, 
                            "v": 88, 
                            "dur": 68, 
                            "type": "note", 
                            "channel": 0
                        }
                    ]
                ], 
                [
                    233159, 
                    [
                        {
                            "pitch": 84, 
                            "t0": 233159, 
                            "v": 117, 
                            "dur": 33, 
                            "type": "note", 
                            "channel": 0
                        }, 
                        {
                            "pitch": 60, 
                            "t0": 233159, 
                            "v": 116, 
                            "dur": 47, 
                            "type": "note", 
                            "channel": 0
                        }, 
                        {
                            "pitch": 72, 
                            "t0": 233159, 
                            "v": 121, 
                            "dur": 69, 
                            "type": "note", 
                            "channel": 0
                        }
                    ]
                ], 
                [
                    233297, 
                    [
                        {
                            "pitch": 79, 
                            "t0": 233297, 
                            "v": 103, 
                            "dur": 32, 
                            "type": "note", 
                            "channel": 0
                        }
                    ]
                ], 
                [
                    233301, 
                    [
                        {
                            "pitch": 67, 
                            "t0": 233301, 
                            "v": 97, 
                            "dur": 28, 
                            "type": "note", 
                            "channel": 0
                        }
                    ]
                ], 
                [
                    233314, 
                    [
                        {
                            "pitch": 55, 
                            "t0": 233314, 
                            "v": 92, 
                            "dur": 30, 
                            "type": "note", 
                            "channel": 0
                        }
                    ]
                ], 
                [
                    233429, 
                    [
                        {
                            "pitch": 67, 
                            "t0": 233429, 
                            "v": 100, 
                            "dur": 46, 
                            "type": "note", 
                            "channel": 0
                        }, 
                        {
                            "pitch": 79, 
                            "t0": 233429, 
                            "v": 106, 
                            "dur": 61, 
                            "type": "note", 
                            "channel": 0
                        }
                    ]
                ], 
                [
                    233446, 
                    [
                        {
                            "pitch": 55, 
                            "t0": 233446, 
                            "v": 95, 
                            "dur": 44, 
                            "type": "note", 
                            "channel": 0
                        }
                    ]
                ], 
                [
                    233562, 
                    [
                        {
                            "pitch": 67, 
                            "t0": 233562, 
                            "v": 104, 
                            "dur": 61, 
                            "type": "note", 
                            "channel": 0
                        }, 
                        {
                            "pitch": 79, 
                            "t0": 233562, 
                            "v": 108, 
                            "dur": 67, 
                            "type": "note", 
                            "channel": 0
                        }, 
                        {
                            "pitch": 55, 
                            "t0": 233562, 
                            "v": 92, 
                            "dur": 67, 
                            "type": "note", 
                            "channel": 0
                        }
                    ]
                ], 
                [
                    233701, 
                    [
                        {
                            "pitch": 76, 
                            "t0": 233701, 
                            "v": 119, 
                            "dur": 48, 
                            "type": "note", 
                            "channel": 0
                        }, 
                        {
                            "pitch": 64, 
                            "t0": 233701, 
                            "v": 117, 
                            "dur": 54, 
                            "type": "note", 
                            "channel": 0
                        }, 
                        {
                            "pitch": 52, 
                            "t0": 233701, 
                            "v": 119, 
                            "dur": 70, 
                            "type": "note", 
                            "channel": 0
                        }
                    ]
                ], 
                [
                    233840, 
                    [
                        {
                            "pitch": 60, 
                            "t0": 233840, 
                            "v": 109, 
                            "dur": 54, 
                            "type": "note", 
                            "channel": 0
                        }
                    ]
                ], 
                [
                    233844, 
                    [
                        {
                            "pitch": 72, 
                            "t0": 233844, 
                            "v": 107, 
                            "dur": 38, 
                            "type": "note", 
                            "channel": 0
                        }, 
                        {
                            "pitch": 48, 
                            "t0": 233844, 
                            "v": 108, 
                            "dur": 50, 
                            "type": "note", 
                            "channel": 0
                        }
                    ]
                ], 
                [
                    233968, 
                    [
                        {
                            "pitch": 60, 
                            "t0": 233968, 
                            "v": 94, 
                            "dur": 57, 
                            "type": "note", 
                            "channel": 0
                        }, 
                        {
                            "pitch": 48, 
                            "t0": 233968, 
                            "v": 106, 
                            "dur": 65, 
                            "type": "note", 
                            "channel": 0
                        }
                    ]
                ], 
                [
                    233971, 
                    [
                        {
                            "pitch": 72, 
                            "t0": 233971, 
                            "v": 111, 
                            "dur": 62, 
                            "type": "note", 
                            "channel": 0
                        }
                    ]
                ], 
                [
                    234099, 
                    [
                        {
                            "pitch": 60, 
                            "t0": 234099, 
                            "v": 101, 
                            "dur": 62, 
                            "type": "note", 
                            "channel": 0
                        }, 
                        {
                            "pitch": 72, 
                            "t0": 234099, 
                            "v": 110, 
                            "dur": 101, 
                            "type": "note", 
                            "channel": 0
                        }
                    ]
                ], 
                [
                    234105, 
                    [
                        {
                            "pitch": 48, 
                            "t0": 234105, 
                            "v": 107, 
                            "dur": 62, 
                            "type": "note", 
                            "channel": 0
                        }
                    ]
                ], 
                [
                    234250, 
                    [
                        {
                            "pitch": 55, 
                            "t0": 234250, 
                            "v": 124, 
                            "dur": 65, 
                            "type": "note", 
                            "channel": 0
                        }, 
                        {
                            "pitch": 43, 
                            "t0": 234250, 
                            "v": 119, 
                            "dur": 89, 
                            "type": "note", 
                            "channel": 0
                        }, 
                        {
                            "pitch": 67, 
                            "t0": 234250, 
                            "v": 122, 
                            "dur": 125, 
                            "type": "note", 
                            "channel": 0
                        }
                    ]
                ], 
                [
                    234412, 
                    [
                        {
                            "pitch": 62, 
                            "t0": 234412, 
                            "v": 109, 
                            "dur": 53, 
                            "type": "note", 
                            "channel": 0
                        }, 
                        {
                            "pitch": 71, 
                            "t0": 234412, 
                            "v": 99, 
                            "dur": 59, 
                            "type": "note", 
                            "channel": 0
                        }
                    ]
                ], 
                [
                    234418, 
                    [
                        {
                            "pitch": 31, 
                            "t0": 234418, 
                            "v": 115, 
                            "dur": 27, 
                            "type": "note", 
                            "channel": 0
                        }, 
                        {
                            "pitch": 74, 
                            "t0": 234418, 
                            "v": 105, 
                            "dur": 30, 
                            "type": "note", 
                            "channel": 0
                        }
                    ]
                ], 
                [
                    234423, 
                    [
                        {
                            "pitch": 67, 
                            "t0": 234423, 
                            "v": 97, 
                            "dur": 48, 
                            "type": "note", 
                            "channel": 0
                        }
                    ]
                ], 
                [
                    234429, 
                    [
                        {
                            "pitch": 43, 
                            "t0": 234429, 
                            "v": 88, 
                            "dur": 27, 
                            "type": "note", 
                            "channel": 0
                        }
                    ]
                ], 
                [
                    234537, 
                    [
                        {
                            "pitch": 71, 
                            "t0": 234537, 
                            "v": 84, 
                            "dur": 93, 
                            "type": "note", 
                            "channel": 0
                        }
                    ]
                ], 
                [
                    234542, 
                    [
                        {
                            "pitch": 74, 
                            "t0": 234542, 
                            "v": 106, 
                            "dur": 53, 
                            "type": "note", 
                            "channel": 0
                        }, 
                        {
                            "pitch": 62, 
                            "t0": 234542, 
                            "v": 102, 
                            "dur": 68, 
                            "type": "note", 
                            "channel": 0
                        }, 
                        {
                            "pitch": 67, 
                            "t0": 234542, 
                            "v": 97, 
                            "dur": 85, 
                            "type": "note", 
                            "channel": 0
                        }
                    ]
                ], 
                [
                    234553, 
                    [
                        {
                            "pitch": 43, 
                            "t0": 234553, 
                            "v": 73, 
                            "dur": 28, 
                            "type": "note", 
                            "channel": 0
                        }
                    ]
                ], 
                [
                    234562, 
                    [
                        {
                            "pitch": 31, 
                            "t0": 234562, 
                            "v": 97, 
                            "dur": 23, 
                            "type": "note", 
                            "channel": 0
                        }
                    ]
                ], 
                [
                    234668, 
                    [
                        {
                            "pitch": 31, 
                            "t0": 234668, 
                            "v": 69, 
                            "dur": 25, 
                            "type": "note", 
                            "channel": 0
                        }, 
                        {
                            "pitch": 62, 
                            "t0": 234668, 
                            "v": 100, 
                            "dur": 81, 
                            "type": "note", 
                            "channel": 0
                        }, 
                        {
                            "pitch": 74, 
                            "t0": 234668, 
                            "v": 101, 
                            "dur": 94, 
                            "type": "note", 
                            "channel": 0
                        }
                    ]
                ], 
                [
                    234676, 
                    [
                        {
                            "pitch": 43, 
                            "t0": 234676, 
                            "v": 94, 
                            "dur": 31, 
                            "type": "note", 
                            "channel": 0
                        }, 
                        {
                            "pitch": 67, 
                            "t0": 234676, 
                            "v": 104, 
                            "dur": 112, 
                            "type": "note", 
                            "channel": 0
                        }
                    ]
                ], 
                [
                    234679, 
                    [
                        {
                            "pitch": 71, 
                            "t0": 234679, 
                            "v": 102, 
                            "dur": 79, 
                            "type": "note", 
                            "channel": 0
                        }
                    ]
                ], 
                [
                    234871, 
                    [
                        {
                            "pitch": 64, 
                            "t0": 234871, 
                            "v": 125, 
                            "dur": 62, 
                            "type": "note", 
                            "channel": 0
                        }, 
                        {
                            "pitch": 67, 
                            "t0": 234871, 
                            "v": 111, 
                            "dur": 76, 
                            "type": "note", 
                            "channel": 0
                        }, 
                        {
                            "pitch": 72, 
                            "t0": 234871, 
                            "v": 118, 
                            "dur": 96, 
                            "type": "note", 
                            "channel": 0
                        }
                    ]
                ], 
                [
                    234874, 
                    [
                        {
                            "pitch": 43, 
                            "t0": 234874, 
                            "v": 110, 
                            "dur": 65, 
                            "type": "note", 
                            "channel": 0
                        }, 
                        {
                            "pitch": 36, 
                            "t0": 234874, 
                            "v": 115, 
                            "dur": 73, 
                            "type": "note", 
                            "channel": 0
                        }, 
                        {
                            "pitch": 48, 
                            "t0": 234874, 
                            "v": 124, 
                            "dur": 78, 
                            "type": "note", 
                            "channel": 0
                        }, 
                        {
                            "pitch": 40, 
                            "t0": 234874, 
                            "v": 113, 
                            "dur": 84, 
                            "type": "note", 
                            "channel": 0
                        }, 
                        {
                            "pitch": 76, 
                            "t0": 234874, 
                            "v": 121, 
                            "dur": 108, 
                            "type": "note", 
                            "channel": 0
                        }
                    ]
                ], 
                [
                    235211, 
                    [
                        {
                            "pitch": 88, 
                            "t0": 235211, 
                            "v": 106, 
                            "dur": 73, 
                            "type": "note", 
                            "channel": 0
                        }, 
                        {
                            "pitch": 100, 
                            "t0": 235211, 
                            "v": 110, 
                            "dur": 76, 
                            "type": "note", 
                            "channel": 0
                        }
                    ]
                ], 
                [
                    235216, 
                    [
                        {
                            "pitch": 76, 
                            "t0": 235216, 
                            "v": 123, 
                            "dur": 74, 
                            "type": "note", 
                            "channel": 0
                        }
                    ]
                ], 
                [
                    235219, 
                    [
                        {
                            "pitch": 64, 
                            "t0": 235219, 
                            "v": 115, 
                            "dur": 25, 
                            "type": "note", 
                            "channel": 0
                        }
                    ]
                ], 
                [
                    235350, 
                    [
                        {
                            "pitch": 88, 
                            "t0": 235350, 
                            "v": 106, 
                            "dur": 65, 
                            "type": "note", 
                            "channel": 0
                        }, 
                        {
                            "pitch": 100, 
                            "t0": 235350, 
                            "v": 97, 
                            "dur": 78, 
                            "type": "note", 
                            "channel": 0
                        }
                    ]
                ], 
                [
                    235358, 
                    [
                        {
                            "pitch": 76, 
                            "t0": 235358, 
                            "v": 108, 
                            "dur": 60, 
                            "type": "note", 
                            "channel": 0
                        }
                    ]
                ], 
                [
                    235364, 
                    [
                        {
                            "pitch": 64, 
                            "t0": 235364, 
                            "v": 111, 
                            "dur": 28, 
                            "type": "note", 
                            "channel": 0
                        }
                    ]
                ], 
                [
                    235484, 
                    [
                        {
                            "pitch": 100, 
                            "t0": 235484, 
                            "v": 101, 
                            "dur": 61, 
                            "type": "note", 
                            "channel": 0
                        }, 
                        {
                            "pitch": 88, 
                            "t0": 235484, 
                            "v": 108, 
                            "dur": 75, 
                            "type": "note", 
                            "channel": 0
                        }
                    ]
                ], 
                [
                    235492, 
                    [
                        {
                            "pitch": 76, 
                            "t0": 235492, 
                            "v": 103, 
                            "dur": 53, 
                            "type": "note", 
                            "channel": 0
                        }
                    ]
                ], 
                [
                    235501, 
                    [
                        {
                            "pitch": 64, 
                            "t0": 235501, 
                            "v": 109, 
                            "dur": 27, 
                            "type": "note", 
                            "channel": 0
                        }
                    ]
                ], 
                [
                    235648, 
                    [
                        {
                            "pitch": 84, 
                            "t0": 235648, 
                            "v": 123, 
                            "dur": 57, 
                            "type": "note", 
                            "channel": 0
                        }, 
                        {
                            "pitch": 96, 
                            "t0": 235648, 
                            "v": 115, 
                            "dur": 73, 
                            "type": "note", 
                            "channel": 0
                        }
                    ]
                ], 
                [
                    235652, 
                    [
                        {
                            "pitch": 72, 
                            "t0": 235652, 
                            "v": 121, 
                            "dur": 50, 
                            "type": "note", 
                            "channel": 0
                        }
                    ]
                ], 
                [
                    235655, 
                    [
                        {
                            "pitch": 60, 
                            "t0": 235655, 
                            "v": 119, 
                            "dur": 66, 
                            "type": "note", 
                            "channel": 0
                        }
                    ]
                ], 
                [
                    235807, 
                    [
                        {
                            "pitch": 91, 
                            "t0": 235807, 
                            "v": 98, 
                            "dur": 45, 
                            "type": "note", 
                            "channel": 0
                        }
                    ]
                ], 
                [
                    235819, 
                    [
                        {
                            "pitch": 55, 
                            "t0": 235819, 
                            "v": 106, 
                            "dur": 24, 
                            "type": "note", 
                            "channel": 0
                        }, 
                        {
                            "pitch": 67, 
                            "t0": 235819, 
                            "v": 106, 
                            "dur": 27, 
                            "type": "note", 
                            "channel": 0
                        }, 
                        {
                            "pitch": 79, 
                            "t0": 235819, 
                            "v": 67, 
                            "dur": 33, 
                            "type": "note", 
                            "channel": 0
                        }
                    ]
                ], 
                [
                    235925, 
                    [
                        {
                            "pitch": 91, 
                            "t0": 235925, 
                            "v": 95, 
                            "dur": 55, 
                            "type": "note", 
                            "channel": 0
                        }, 
                        {
                            "pitch": 79, 
                            "t0": 235925, 
                            "v": 95, 
                            "dur": 61, 
                            "type": "note", 
                            "channel": 0
                        }
                    ]
                ], 
                [
                    235939, 
                    [
                        {
                            "pitch": 67, 
                            "t0": 235939, 
                            "v": 99, 
                            "dur": 53, 
                            "type": "note", 
                            "channel": 0
                        }, 
                        {
                            "pitch": 55, 
                            "t0": 235939, 
                            "v": 97, 
                            "dur": 58, 
                            "type": "note", 
                            "channel": 0
                        }
                    ]
                ], 
                [
                    236056, 
                    [
                        {
                            "pitch": 91, 
                            "t0": 236056, 
                            "v": 95, 
                            "dur": 49, 
                            "type": "note", 
                            "channel": 0
                        }, 
                        {
                            "pitch": 79, 
                            "t0": 236056, 
                            "v": 106, 
                            "dur": 53, 
                            "type": "note", 
                            "channel": 0
                        }, 
                        {
                            "pitch": 67, 
                            "t0": 236056, 
                            "v": 101, 
                            "dur": 74, 
                            "type": "note", 
                            "channel": 0
                        }
                    ]
                ], 
                [
                    236061, 
                    [
                        {
                            "pitch": 55, 
                            "t0": 236061, 
                            "v": 103, 
                            "dur": 55, 
                            "type": "note", 
                            "channel": 0
                        }
                    ]
                ], 
                [
                    236201, 
                    [
                        {
                            "pitch": 76, 
                            "t0": 236201, 
                            "v": 117, 
                            "dur": 55, 
                            "type": "note", 
                            "channel": 0
                        }, 
                        {
                            "pitch": 88, 
                            "t0": 236201, 
                            "v": 116, 
                            "dur": 69, 
                            "type": "note", 
                            "channel": 0
                        }
                    ]
                ], 
                [
                    236205, 
                    [
                        {
                            "pitch": 64, 
                            "t0": 236205, 
                            "v": 113, 
                            "dur": 26, 
                            "type": "note", 
                            "channel": 0
                        }, 
                        {
                            "pitch": 52, 
                            "t0": 236205, 
                            "v": 116, 
                            "dur": 32, 
                            "type": "note", 
                            "channel": 0
                        }
                    ]
                ], 
                [
                    236336, 
                    [
                        {
                            "pitch": 72, 
                            "t0": 236336, 
                            "v": 116, 
                            "dur": 60, 
                            "type": "note", 
                            "channel": 0
                        }
                    ]
                ], 
                [
                    236340, 
                    [
                        {
                            "pitch": 84, 
                            "t0": 236340, 
                            "v": 113, 
                            "dur": 50, 
                            "type": "note", 
                            "channel": 0
                        }
                    ]
                ], 
                [
                    236345, 
                    [
                        {
                            "pitch": 48, 
                            "t0": 236345, 
                            "v": 108, 
                            "dur": 23, 
                            "type": "note", 
                            "channel": 0
                        }, 
                        {
                            "pitch": 60, 
                            "t0": 236345, 
                            "v": 102, 
                            "dur": 30, 
                            "type": "note", 
                            "channel": 0
                        }
                    ]
                ], 
                [
                    236464, 
                    [
                        {
                            "pitch": 72, 
                            "t0": 236464, 
                            "v": 107, 
                            "dur": 56, 
                            "type": "note", 
                            "channel": 0
                        }, 
                        {
                            "pitch": 84, 
                            "t0": 236464, 
                            "v": 109, 
                            "dur": 68, 
                            "type": "note", 
                            "channel": 0
                        }
                    ]
                ], 
                [
                    236473, 
                    [
                        {
                            "pitch": 60, 
                            "t0": 236473, 
                            "v": 93, 
                            "dur": 34, 
                            "type": "note", 
                            "channel": 0
                        }
                    ]
                ], 
                [
                    236482, 
                    [
                        {
                            "pitch": 48, 
                            "t0": 236482, 
                            "v": 96, 
                            "dur": 25, 
                            "type": "note", 
                            "channel": 0
                        }
                    ]
                ], 
                [
                    236595, 
                    [
                        {
                            "pitch": 60, 
                            "t0": 236595, 
                            "v": 91, 
                            "dur": 45, 
                            "type": "note", 
                            "channel": 0
                        }, 
                        {
                            "pitch": 72, 
                            "t0": 236595, 
                            "v": 108, 
                            "dur": 53, 
                            "type": "note", 
                            "channel": 0
                        }, 
                        {
                            "pitch": 84, 
                            "t0": 236595, 
                            "v": 108, 
                            "dur": 70, 
                            "type": "note", 
                            "channel": 0
                        }, 
                        {
                            "pitch": 48, 
                            "t0": 236595, 
                            "v": 99, 
                            "dur": 70, 
                            "type": "note", 
                            "channel": 0
                        }
                    ]
                ], 
                [
                    236743, 
                    [
                        {
                            "pitch": 67, 
                            "t0": 236743, 
                            "v": 122, 
                            "dur": 62, 
                            "type": "note", 
                            "channel": 0
                        }, 
                        {
                            "pitch": 79, 
                            "t0": 236743, 
                            "v": 118, 
                            "dur": 78, 
                            "type": "note", 
                            "channel": 0
                        }
                    ]
                ], 
                [
                    236746, 
                    [
                        {
                            "pitch": 43, 
                            "t0": 236746, 
                            "v": 111, 
                            "dur": 22, 
                            "type": "note", 
                            "channel": 0
                        }
                    ]
                ], 
                [
                    236751, 
                    [
                        {
                            "pitch": 55, 
                            "t0": 236751, 
                            "v": 95, 
                            "dur": 21, 
                            "type": "note", 
                            "channel": 0
                        }
                    ]
                ], 
                [
                    236879, 
                    [
                        {
                            "pitch": 79, 
                            "t0": 236879, 
                            "v": 110, 
                            "dur": 82, 
                            "type": "note", 
                            "channel": 0
                        }
                    ]
                ], 
                [
                    236883, 
                    [
                        {
                            "pitch": 74, 
                            "t0": 236883, 
                            "v": 114, 
                            "dur": 98, 
                            "type": "note", 
                            "channel": 0
                        }
                    ]
                ], 
                [
                    236886, 
                    [
                        {
                            "pitch": 67, 
                            "t0": 236886, 
                            "v": 110, 
                            "dur": 75, 
                            "type": "note", 
                            "channel": 0
                        }, 
                        {
                            "pitch": 71, 
                            "t0": 236886, 
                            "v": 98, 
                            "dur": 98, 
                            "type": "note", 
                            "channel": 0
                        }
                    ]
                ], 
                [
                    236889, 
                    [
                        {
                            "pitch": 43, 
                            "t0": 236889, 
                            "v": 100, 
                            "dur": 66, 
                            "type": "note", 
                            "channel": 0
                        }, 
                        {
                            "pitch": 31, 
                            "t0": 236889, 
                            "v": 109, 
                            "dur": 66, 
                            "type": "note", 
                            "channel": 0
                        }
                    ]
                ], 
                [
                    236893, 
                    [
                        {
                            "pitch": 35, 
                            "t0": 236893, 
                            "v": 96, 
                            "dur": 91, 
                            "type": "note", 
                            "channel": 0
                        }
                    ]
                ], 
                [
                    236896, 
                    [
                        {
                            "pitch": 38, 
                            "t0": 236896, 
                            "v": 106, 
                            "dur": 25, 
                            "type": "note", 
                            "channel": 0
                        }
                    ]
                ], 
                [
                    237014, 
                    [
                        {
                            "pitch": 79, 
                            "t0": 237014, 
                            "v": 108, 
                            "dur": 56, 
                            "type": "note", 
                            "channel": 0
                        }, 
                        {
                            "pitch": 43, 
                            "t0": 237014, 
                            "v": 100, 
                            "dur": 66, 
                            "type": "note", 
                            "channel": 0
                        }, 
                        {
                            "pitch": 31, 
                            "t0": 237014, 
                            "v": 103, 
                            "dur": 69, 
                            "type": "note", 
                            "channel": 0
                        }
                    ]
                ], 
                [
                    237019, 
                    [
                        {
                            "pitch": 67, 
                            "t0": 237019, 
                            "v": 106, 
                            "dur": 61, 
                            "type": "note", 
                            "channel": 0
                        }
                    ]
                ], 
                [
                    237022, 
                    [
                        {
                            "pitch": 38, 
                            "t0": 237022, 
                            "v": 105, 
                            "dur": 48, 
                            "type": "note", 
                            "channel": 0
                        }
                    ]
                ], 
                [
                    237028, 
                    [
                        {
                            "pitch": 35, 
                            "t0": 237028, 
                            "v": 81, 
                            "dur": 55, 
                            "type": "note", 
                            "channel": 0
                        }, 
                        {
                            "pitch": 74, 
                            "t0": 237028, 
                            "v": 113, 
                            "dur": 66, 
                            "type": "note", 
                            "channel": 0
                        }, 
                        {
                            "pitch": 71, 
                            "t0": 237028, 
                            "v": 92, 
                            "dur": 86, 
                            "type": "note", 
                            "channel": 0
                        }
                    ]
                ], 
                [
                    237144, 
                    [
                        {
                            "pitch": 31, 
                            "t0": 237144, 
                            "v": 103, 
                            "dur": 48, 
                            "type": "note", 
                            "channel": 0
                        }, 
                        {
                            "pitch": 43, 
                            "t0": 237144, 
                            "v": 101, 
                            "dur": 71, 
                            "type": "note", 
                            "channel": 0
                        }, 
                        {
                            "pitch": 35, 
                            "t0": 237144, 
                            "v": 95, 
                            "dur": 84, 
                            "type": "note", 
                            "channel": 0
                        }
                    ]
                ], 
                [
                    237147, 
                    [
                        {
                            "pitch": 38, 
                            "t0": 237147, 
                            "v": 100, 
                            "dur": 39, 
                            "type": "note", 
                            "channel": 0
                        }, 
                        {
                            "pitch": 67, 
                            "t0": 237147, 
                            "v": 108, 
                            "dur": 72, 
                            "type": "note", 
                            "channel": 0
                        }, 
                        {
                            "pitch": 79, 
                            "t0": 237147, 
                            "v": 102, 
                            "dur": 75, 
                            "type": "note", 
                            "channel": 0
                        }
                    ]
                ], 
                [
                    237150, 
                    [
                        {
                            "pitch": 74, 
                            "t0": 237150, 
                            "v": 103, 
                            "dur": 220, 
                            "type": "note", 
                            "channel": 0
                        }
                    ]
                ], 
                [
                    237162, 
                    [
                        {
                            "pitch": 71, 
                            "t0": 237162, 
                            "v": 97, 
                            "dur": 77, 
                            "type": "note", 
                            "channel": 0
                        }
                    ]
                ], 
                [
                    237314, 
                    [
                        {
                            "pitch": 48, 
                            "t0": 237314, 
                            "v": 125, 
                            "dur": 243, 
                            "type": "note", 
                            "channel": 0
                        }, 
                        {
                            "pitch": 67, 
                            "t0": 237314, 
                            "v": 123, 
                            "dur": 281, 
                            "type": "note", 
                            "channel": 0
                        }, 
                        {
                            "pitch": 72, 
                            "t0": 237314, 
                            "v": 119, 
                            "dur": 293, 
                            "type": "note", 
                            "channel": 0
                        }
                    ]
                ], 
                [
                    237317, 
                    [
                        {
                            "pitch": 79, 
                            "t0": 237317, 
                            "v": 113, 
                            "dur": 262, 
                            "type": "note", 
                            "channel": 0
                        }, 
                        {
                            "pitch": 36, 
                            "t0": 237317, 
                            "v": 120, 
                            "dur": 268, 
                            "type": "note", 
                            "channel": 0
                        }, 
                        {
                            "pitch": 76, 
                            "t0": 237317, 
                            "v": 114, 
                            "dur": 306, 
                            "type": "note", 
                            "channel": 0
                        }
                    ]
                ], 
                [
                    237321, 
                    [
                        {
                            "pitch": 43, 
                            "t0": 237321, 
                            "v": 115, 
                            "dur": 236, 
                            "type": "note", 
                            "channel": 0
                        }, 
                        {
                            "pitch": 40, 
                            "t0": 237321, 
                            "v": 113, 
                            "dur": 281, 
                            "type": "note", 
                            "channel": 0
                        }
                    ]
                ], 
                [
                    238036, 
                    [
                        {
                            "pitch": 79, 
                            "t0": 238036, 
                            "v": 119, 
                            "dur": 84, 
                            "type": "note", 
                            "channel": 0
                        }, 
                        {
                            "pitch": 74, 
                            "t0": 238036, 
                            "v": 117, 
                            "dur": 88, 
                            "type": "note", 
                            "channel": 0
                        }
                    ]
                ], 
                [
                    238039, 
                    [
                        {
                            "pitch": 67, 
                            "t0": 238039, 
                            "v": 121, 
                            "dur": 81, 
                            "type": "note", 
                            "channel": 0
                        }, 
                        {
                            "pitch": 71, 
                            "t0": 238039, 
                            "v": 106, 
                            "dur": 98, 
                            "type": "note", 
                            "channel": 0
                        }
                    ]
                ], 
                [
                    238042, 
                    [
                        {
                            "pitch": 31, 
                            "t0": 238042, 
                            "v": 120, 
                            "dur": 70, 
                            "type": "note", 
                            "channel": 0
                        }, 
                        {
                            "pitch": 43, 
                            "t0": 238042, 
                            "v": 119, 
                            "dur": 78, 
                            "type": "note", 
                            "channel": 0
                        }
                    ]
                ], 
                [
                    238173, 
                    [
                        {
                            "pitch": 79, 
                            "t0": 238173, 
                            "v": 112, 
                            "dur": 75, 
                            "type": "note", 
                            "channel": 0
                        }
                    ]
                ], 
                [
                    238176, 
                    [
                        {
                            "pitch": 31, 
                            "t0": 238176, 
                            "v": 101, 
                            "dur": 60, 
                            "type": "note", 
                            "channel": 0
                        }, 
                        {
                            "pitch": 43, 
                            "t0": 238176, 
                            "v": 99, 
                            "dur": 72, 
                            "type": "note", 
                            "channel": 0
                        }, 
                        {
                            "pitch": 67, 
                            "t0": 238176, 
                            "v": 111, 
                            "dur": 77, 
                            "type": "note", 
                            "channel": 0
                        }, 
                        {
                            "pitch": 74, 
                            "t0": 238176, 
                            "v": 111, 
                            "dur": 82, 
                            "type": "note", 
                            "channel": 0
                        }
                    ]
                ], 
                [
                    238183, 
                    [
                        {
                            "pitch": 71, 
                            "t0": 238183, 
                            "v": 105, 
                            "dur": 93, 
                            "type": "note", 
                            "channel": 0
                        }
                    ]
                ], 
                [
                    238311, 
                    [
                        {
                            "pitch": 43, 
                            "t0": 238311, 
                            "v": 97, 
                            "dur": 64, 
                            "type": "note", 
                            "channel": 0
                        }, 
                        {
                            "pitch": 79, 
                            "t0": 238311, 
                            "v": 105, 
                            "dur": 87, 
                            "type": "note", 
                            "channel": 0
                        }, 
                        {
                            "pitch": 67, 
                            "t0": 238311, 
                            "v": 109, 
                            "dur": 87, 
                            "type": "note", 
                            "channel": 0
                        }, 
                        {
                            "pitch": 74, 
                            "t0": 238311, 
                            "v": 111, 
                            "dur": 212, 
                            "type": "note", 
                            "channel": 0
                        }
                    ]
                ], 
                [
                    238318, 
                    [
                        {
                            "pitch": 31, 
                            "t0": 238318, 
                            "v": 95, 
                            "dur": 35, 
                            "type": "note", 
                            "channel": 0
                        }
                    ]
                ], 
                [
                    238321, 
                    [
                        {
                            "pitch": 71, 
                            "t0": 238321, 
                            "v": 101, 
                            "dur": 96, 
                            "type": "note", 
                            "channel": 0
                        }
                    ]
                ], 
                [
                    238470, 
                    [
                        {
                            "pitch": 79, 
                            "t0": 238470, 
                            "v": 106, 
                            "dur": 293, 
                            "type": "note", 
                            "channel": 0
                        }, 
                        {
                            "pitch": 72, 
                            "t0": 238470, 
                            "v": 118, 
                            "dur": 323, 
                            "type": "note", 
                            "channel": 0
                        }
                    ]
                ], 
                [
                    238473, 
                    [
                        {
                            "pitch": 48, 
                            "t0": 238473, 
                            "v": 127, 
                            "dur": 242, 
                            "type": "note", 
                            "channel": 0
                        }, 
                        {
                            "pitch": 67, 
                            "t0": 238473, 
                            "v": 114, 
                            "dur": 270, 
                            "type": "note", 
                            "channel": 0
                        }, 
                        {
                            "pitch": 76, 
                            "t0": 238473, 
                            "v": 115, 
                            "dur": 323, 
                            "type": "note", 
                            "channel": 0
                        }
                    ]
                ], 
                [
                    238479, 
                    [
                        {
                            "pitch": 36, 
                            "t0": 238479, 
                            "v": 119, 
                            "dur": 236, 
                            "type": "note", 
                            "channel": 0
                        }, 
                        {
                            "pitch": 43, 
                            "t0": 238479, 
                            "v": 117, 
                            "dur": 256, 
                            "type": "note", 
                            "channel": 0
                        }, 
                        {
                            "pitch": 40, 
                            "t0": 238479, 
                            "v": 114, 
                            "dur": 284, 
                            "type": "note", 
                            "channel": 0
                        }
                    ]
                ], 
                [
                    239273, 
                    [
                        {
                            "pitch": 55, 
                            "t0": 239273, 
                            "v": 122, 
                            "dur": 61, 
                            "type": "note", 
                            "channel": 0
                        }, 
                        {
                            "pitch": 71, 
                            "t0": 239273, 
                            "v": 112, 
                            "dur": 78, 
                            "type": "note", 
                            "channel": 0
                        }, 
                        {
                            "pitch": 83, 
                            "t0": 239273, 
                            "v": 104, 
                            "dur": 82, 
                            "type": "note", 
                            "channel": 0
                        }, 
                        {
                            "pitch": 79, 
                            "t0": 239273, 
                            "v": 110, 
                            "dur": 97, 
                            "type": "note", 
                            "channel": 0
                        }, 
                        {
                            "pitch": 74, 
                            "t0": 239273, 
                            "v": 111, 
                            "dur": 100, 
                            "type": "note", 
                            "channel": 0
                        }
                    ]
                ], 
                [
                    239279, 
                    [
                        {
                            "pitch": 43, 
                            "t0": 239279, 
                            "v": 111, 
                            "dur": 72, 
                            "type": "note", 
                            "channel": 0
                        }, 
                        {
                            "pitch": 50, 
                            "t0": 239279, 
                            "v": 111, 
                            "dur": 81, 
                            "type": "note", 
                            "channel": 0
                        }, 
                        {
                            "pitch": 47, 
                            "t0": 239279, 
                            "v": 99, 
                            "dur": 99, 
                            "type": "note", 
                            "channel": 0
                        }
                    ]
                ], 
                [
                    239413, 
                    [
                        {
                            "pitch": 83, 
                            "t0": 239413, 
                            "v": 93, 
                            "dur": 60, 
                            "type": "note", 
                            "channel": 0
                        }, 
                        {
                            "pitch": 50, 
                            "t0": 239413, 
                            "v": 98, 
                            "dur": 74, 
                            "type": "note", 
                            "channel": 0
                        }
                    ]
                ], 
                [
                    239417, 
                    [
                        {
                            "pitch": 71, 
                            "t0": 239417, 
                            "v": 95, 
                            "dur": 56, 
                            "type": "note", 
                            "channel": 0
                        }, 
                        {
                            "pitch": 55, 
                            "t0": 239417, 
                            "v": 100, 
                            "dur": 62, 
                            "type": "note", 
                            "channel": 0
                        }, 
                        {
                            "pitch": 79, 
                            "t0": 239417, 
                            "v": 113, 
                            "dur": 73, 
                            "type": "note", 
                            "channel": 0
                        }
                    ]
                ], 
                [
                    239420, 
                    [
                        {
                            "pitch": 43, 
                            "t0": 239420, 
                            "v": 95, 
                            "dur": 59, 
                            "type": "note", 
                            "channel": 0
                        }, 
                        {
                            "pitch": 74, 
                            "t0": 239420, 
                            "v": 117, 
                            "dur": 84, 
                            "type": "note", 
                            "channel": 0
                        }
                    ]
                ], 
                [
                    239428, 
                    [
                        {
                            "pitch": 47, 
                            "t0": 239428, 
                            "v": 99, 
                            "dur": 28, 
                            "type": "note", 
                            "channel": 0
                        }
                    ]
                ], 
                [
                    239537, 
                    [
                        {
                            "pitch": 50, 
                            "t0": 239537, 
                            "v": 105, 
                            "dur": 67, 
                            "type": "note", 
                            "channel": 0
                        }
                    ]
                ], 
                [
                    239541, 
                    [
                        {
                            "pitch": 71, 
                            "t0": 239541, 
                            "v": 95, 
                            "dur": 55, 
                            "type": "note", 
                            "channel": 0
                        }, 
                        {
                            "pitch": 79, 
                            "t0": 239541, 
                            "v": 103, 
                            "dur": 67, 
                            "type": "note", 
                            "channel": 0
                        }, 
                        {
                            "pitch": 83, 
                            "t0": 239541, 
                            "v": 89, 
                            "dur": 91, 
                            "type": "note", 
                            "channel": 0
                        }
                    ]
                ], 
                [
                    239544, 
                    [
                        {
                            "pitch": 55, 
                            "t0": 239544, 
                            "v": 98, 
                            "dur": 72, 
                            "type": "note", 
                            "channel": 0
                        }
                    ]
                ], 
                [
                    239548, 
                    [
                        {
                            "pitch": 43, 
                            "t0": 239548, 
                            "v": 92, 
                            "dur": 28, 
                            "type": "note", 
                            "channel": 0
                        }, 
                        {
                            "pitch": 47, 
                            "t0": 239548, 
                            "v": 86, 
                            "dur": 40, 
                            "type": "note", 
                            "channel": 0
                        }
                    ]
                ], 
                [
                    239554, 
                    [
                        {
                            "pitch": 74, 
                            "t0": 239554, 
                            "v": 109, 
                            "dur": 22, 
                            "type": "note", 
                            "channel": 0
                        }
                    ]
                ], 
                [
                    239779, 
                    [
                        {
                            "pitch": 72, 
                            "t0": 239779, 
                            "v": 126, 
                            "dur": 71, 
                            "type": "note", 
                            "channel": 0
                        }, 
                        {
                            "pitch": 79, 
                            "t0": 239779, 
                            "v": 116, 
                            "dur": 84, 
                            "type": "note", 
                            "channel": 0
                        }, 
                        {
                            "pitch": 76, 
                            "t0": 239779, 
                            "v": 117, 
                            "dur": 84, 
                            "type": "note", 
                            "channel": 0
                        }, 
                        {
                            "pitch": 84, 
                            "t0": 239779, 
                            "v": 123, 
                            "dur": 110, 
                            "type": "note", 
                            "channel": 0
                        }, 
                        {
                            "pitch": 60, 
                            "t0": 239779, 
                            "v": 123, 
                            "dur": 113, 
                            "type": "note", 
                            "channel": 0
                        }
                    ]
                ], 
                [
                    239784, 
                    [
                        {
                            "pitch": 48, 
                            "t0": 239784, 
                            "v": 116, 
                            "dur": 69, 
                            "type": "note", 
                            "channel": 0
                        }, 
                        {
                            "pitch": 55, 
                            "t0": 239784, 
                            "v": 109, 
                            "dur": 74, 
                            "type": "note", 
                            "channel": 0
                        }, 
                        {
                            "pitch": 52, 
                            "t0": 239784, 
                            "v": 114, 
                            "dur": 79, 
                            "type": "note", 
                            "channel": 0
                        }
                    ]
                ], 
                [
                    240073, 
                    [
                        {
                            "pitch": 96, 
                            "t0": 240073, 
                            "v": 111, 
                            "dur": 82, 
                            "type": "note", 
                            "channel": 0
                        }
                    ]
                ], 
                [
                    240078, 
                    [
                        {
                            "pitch": 84, 
                            "t0": 240078, 
                            "v": 108, 
                            "dur": 69, 
                            "type": "note", 
                            "channel": 0
                        }
                    ]
                ], 
                [
                    240083, 
                    [
                        {
                            "pitch": 72, 
                            "t0": 240083, 
                            "v": 105, 
                            "dur": 64, 
                            "type": "note", 
                            "channel": 0
                        }
                    ]
                ], 
                [
                    240086, 
                    [
                        {
                            "pitch": 60, 
                            "t0": 240086, 
                            "v": 101, 
                            "dur": 40, 
                            "type": "note", 
                            "channel": 0
                        }
                    ]
                ], 
                [
                    240225, 
                    [
                        {
                            "pitch": 96, 
                            "t0": 240225, 
                            "v": 100, 
                            "dur": 61, 
                            "type": "note", 
                            "channel": 0
                        }, 
                        {
                            "pitch": 84, 
                            "t0": 240225, 
                            "v": 106, 
                            "dur": 61, 
                            "type": "note", 
                            "channel": 0
                        }, 
                        {
                            "pitch": 72, 
                            "t0": 240225, 
                            "v": 100, 
                            "dur": 70, 
                            "type": "note", 
                            "channel": 0
                        }
                    ]
                ], 
                [
                    240239, 
                    [
                        {
                            "pitch": 60, 
                            "t0": 240239, 
                            "v": 103, 
                            "dur": 31, 
                            "type": "note", 
                            "channel": 0
                        }
                    ]
                ], 
                [
                    240376, 
                    [
                        {
                            "pitch": 96, 
                            "t0": 240376, 
                            "v": 105, 
                            "dur": 62, 
                            "type": "note", 
                            "channel": 0
                        }, 
                        {
                            "pitch": 84, 
                            "t0": 240376, 
                            "v": 103, 
                            "dur": 62, 
                            "type": "note", 
                            "channel": 0
                        }, 
                        {
                            "pitch": 72, 
                            "t0": 240376, 
                            "v": 98, 
                            "dur": 75, 
                            "type": "note", 
                            "channel": 0
                        }
                    ]
                ], 
                [
                    240382, 
                    [
                        {
                            "pitch": 60, 
                            "t0": 240382, 
                            "v": 96, 
                            "dur": 36, 
                            "type": "note", 
                            "channel": 0
                        }
                    ]
                ], 
                [
                    240516, 
                    [
                        {
                            "pitch": 72, 
                            "t0": 240516, 
                            "v": 97, 
                            "dur": 27, 
                            "type": "note", 
                            "channel": 0
                        }, 
                        {
                            "pitch": 84, 
                            "t0": 240516, 
                            "v": 111, 
                            "dur": 58, 
                            "type": "note", 
                            "channel": 0
                        }
                    ]
                ], 
                [
                    240521, 
                    [
                        {
                            "pitch": 96, 
                            "t0": 240521, 
                            "v": 90, 
                            "dur": 27, 
                            "type": "note", 
                            "channel": 0
                        }
                    ]
                ], 
                [
                    240526, 
                    [
                        {
                            "pitch": 60, 
                            "t0": 240526, 
                            "v": 103, 
                            "dur": 39, 
                            "type": "note", 
                            "channel": 0
                        }
                    ]
                ], 
                [
                    240719, 
                    [
                        {
                            "pitch": 60, 
                            "t0": 240719, 
                            "v": 113, 
                            "dur": 27, 
                            "type": "note", 
                            "channel": 0
                        }, 
                        {
                            "pitch": 84, 
                            "t0": 240719, 
                            "v": 114, 
                            "dur": 63, 
                            "type": "note", 
                            "channel": 0
                        }, 
                        {
                            "pitch": 72, 
                            "t0": 240719, 
                            "v": 106, 
                            "dur": 74, 
                            "type": "note", 
                            "channel": 0
                        }, 
                        {
                            "pitch": 76, 
                            "t0": 240719, 
                            "v": 108, 
                            "dur": 74, 
                            "type": "note", 
                            "channel": 0
                        }
                    ]
                ], 
                [
                    240722, 
                    [
                        {
                            "pitch": 48, 
                            "t0": 240722, 
                            "v": 117, 
                            "dur": 19, 
                            "type": "note", 
                            "channel": 0
                        }, 
                        {
                            "pitch": 55, 
                            "t0": 240722, 
                            "v": 108, 
                            "dur": 24, 
                            "type": "note", 
                            "channel": 0
                        }
                    ]
                ], 
                [
                    240858, 
                    [
                        {
                            "pitch": 60, 
                            "t0": 240858, 
                            "v": 110, 
                            "dur": 41, 
                            "type": "note", 
                            "channel": 0
                        }
                    ]
                ], 
                [
                    240862, 
                    [
                        {
                            "pitch": 48, 
                            "t0": 240862, 
                            "v": 108, 
                            "dur": 24, 
                            "type": "note", 
                            "channel": 0
                        }, 
                        {
                            "pitch": 72, 
                            "t0": 240862, 
                            "v": 105, 
                            "dur": 68, 
                            "type": "note", 
                            "channel": 0
                        }, 
                        {
                            "pitch": 84, 
                            "t0": 240862, 
                            "v": 99, 
                            "dur": 68, 
                            "type": "note", 
                            "channel": 0
                        }, 
                        {
                            "pitch": 76, 
                            "t0": 240862, 
                            "v": 92, 
                            "dur": 88, 
                            "type": "note", 
                            "channel": 0
                        }
                    ]
                ], 
                [
                    240869, 
                    [
                        {
                            "pitch": 55, 
                            "t0": 240869, 
                            "v": 103, 
                            "dur": 23, 
                            "type": "note", 
                            "channel": 0
                        }
                    ]
                ], 
                [
                    241002, 
                    [
                        {
                            "pitch": 60, 
                            "t0": 241002, 
                            "v": 98, 
                            "dur": 25, 
                            "type": "note", 
                            "channel": 0
                        }, 
                        {
                            "pitch": 48, 
                            "t0": 241002, 
                            "v": 102, 
                            "dur": 25, 
                            "type": "note", 
                            "channel": 0
                        }, 
                        {
                            "pitch": 55, 
                            "t0": 241002, 
                            "v": 90, 
                            "dur": 25, 
                            "type": "note", 
                            "channel": 0
                        }, 
                        {
                            "pitch": 76, 
                            "t0": 241002, 
                            "v": 104, 
                            "dur": 92, 
                            "type": "note", 
                            "channel": 0
                        }
                    ]
                ], 
                [
                    241009, 
                    [
                        {
                            "pitch": 72, 
                            "t0": 241009, 
                            "v": 108, 
                            "dur": 74, 
                            "type": "note", 
                            "channel": 0
                        }, 
                        {
                            "pitch": 84, 
                            "t0": 241009, 
                            "v": 102, 
                            "dur": 99, 
                            "type": "note", 
                            "channel": 0
                        }
                    ]
                ], 
                [
                    241203, 
                    [
                        {
                            "pitch": 53, 
                            "t0": 241203, 
                            "v": 110, 
                            "dur": 64, 
                            "type": "note", 
                            "channel": 0
                        }, 
                        {
                            "pitch": 77, 
                            "t0": 241203, 
                            "v": 115, 
                            "dur": 64, 
                            "type": "note", 
                            "channel": 0
                        }, 
                        {
                            "pitch": 72, 
                            "t0": 241203, 
                            "v": 120, 
                            "dur": 64, 
                            "type": "note", 
                            "channel": 0
                        }
                    ]
                ], 
                [
                    241208, 
                    [
                        {
                            "pitch": 84, 
                            "t0": 241208, 
                            "v": 119, 
                            "dur": 85, 
                            "type": "note", 
                            "channel": 0
                        }, 
                        {
                            "pitch": 56, 
                            "t0": 241208, 
                            "v": 120, 
                            "dur": 90, 
                            "type": "note", 
                            "channel": 0
                        }
                    ]
                ], 
                [
                    241214, 
                    [
                        {
                            "pitch": 44, 
                            "t0": 241214, 
                            "v": 103, 
                            "dur": 53, 
                            "type": "note", 
                            "channel": 0
                        }
                    ]
                ], 
                [
                    241440, 
                    [
                        {
                            "pitch": 96, 
                            "t0": 241440, 
                            "v": 110, 
                            "dur": 64, 
                            "type": "note", 
                            "channel": 0
                        }, 
                        {
                            "pitch": 72, 
                            "t0": 241440, 
                            "v": 118, 
                            "dur": 73, 
                            "type": "note", 
                            "channel": 0
                        }
                    ]
                ], 
                [
                    241446, 
                    [
                        {
                            "pitch": 60, 
                            "t0": 241446, 
                            "v": 106, 
                            "dur": 30, 
                            "type": "note", 
                            "channel": 0
                        }, 
                        {
                            "pitch": 84, 
                            "t0": 241446, 
                            "v": 106, 
                            "dur": 61, 
                            "type": "note", 
                            "channel": 0
                        }
                    ]
                ], 
                [
                    241588, 
                    [
                        {
                            "pitch": 72, 
                            "t0": 241588, 
                            "v": 106, 
                            "dur": 63, 
                            "type": "note", 
                            "channel": 0
                        }, 
                        {
                            "pitch": 84, 
                            "t0": 241588, 
                            "v": 109, 
                            "dur": 69, 
                            "type": "note", 
                            "channel": 0
                        }
                    ]
                ], 
                [
                    241591, 
                    [
                        {
                            "pitch": 60, 
                            "t0": 241591, 
                            "v": 102, 
                            "dur": 66, 
                            "type": "note", 
                            "channel": 0
                        }, 
                        {
                            "pitch": 96, 
                            "t0": 241591, 
                            "v": 106, 
                            "dur": 70, 
                            "type": "note", 
                            "channel": 0
                        }
                    ]
                ], 
                [
                    241729, 
                    [
                        {
                            "pitch": 60, 
                            "t0": 241729, 
                            "v": 91, 
                            "dur": 56, 
                            "type": "note", 
                            "channel": 0
                        }, 
                        {
                            "pitch": 72, 
                            "t0": 241729, 
                            "v": 97, 
                            "dur": 71, 
                            "type": "note", 
                            "channel": 0
                        }
                    ]
                ], 
                [
                    241736, 
                    [
                        {
                            "pitch": 96, 
                            "t0": 241736, 
                            "v": 101, 
                            "dur": 60, 
                            "type": "note", 
                            "channel": 0
                        }, 
                        {
                            "pitch": 84, 
                            "t0": 241736, 
                            "v": 110, 
                            "dur": 64, 
                            "type": "note", 
                            "channel": 0
                        }
                    ]
                ], 
                [
                    241874, 
                    [
                        {
                            "pitch": 72, 
                            "t0": 241874, 
                            "v": 93, 
                            "dur": 28, 
                            "type": "note", 
                            "channel": 0
                        }
                    ]
                ], 
                [
                    241883, 
                    [
                        {
                            "pitch": 60, 
                            "t0": 241883, 
                            "v": 102, 
                            "dur": 33, 
                            "type": "note", 
                            "channel": 0
                        }
                    ]
                ], 
                [
                    241886, 
                    [
                        {
                            "pitch": 84, 
                            "t0": 241886, 
                            "v": 110, 
                            "dur": 69, 
                            "type": "note", 
                            "channel": 0
                        }
                    ]
                ], 
                [
                    241889, 
                    [
                        {
                            "pitch": 96, 
                            "t0": 241889, 
                            "v": 104, 
                            "dur": 22, 
                            "type": "note", 
                            "channel": 0
                        }
                    ]
                ], 
                [
                    242039, 
                    [
                        {
                            "pitch": 53, 
                            "t0": 242039, 
                            "v": 104, 
                            "dur": 81, 
                            "type": "note", 
                            "channel": 0
                        }
                    ]
                ], 
                [
                    242045, 
                    [
                        {
                            "pitch": 77, 
                            "t0": 242045, 
                            "v": 115, 
                            "dur": 27, 
                            "type": "note", 
                            "channel": 0
                        }, 
                        {
                            "pitch": 44, 
                            "t0": 242045, 
                            "v": 114, 
                            "dur": 31, 
                            "type": "note", 
                            "channel": 0
                        }, 
                        {
                            "pitch": 72, 
                            "t0": 242045, 
                            "v": 120, 
                            "dur": 35, 
                            "type": "note", 
                            "channel": 0
                        }, 
                        {
                            "pitch": 84, 
                            "t0": 242045, 
                            "v": 115, 
                            "dur": 78, 
                            "type": "note", 
                            "channel": 0
                        }
                    ]
                ], 
                [
                    242050, 
                    [
                        {
                            "pitch": 56, 
                            "t0": 242050, 
                            "v": 94, 
                            "dur": 36, 
                            "type": "note", 
                            "channel": 0
                        }
                    ]
                ], 
                [
                    242181, 
                    [
                        {
                            "pitch": 56, 
                            "t0": 242181, 
                            "v": 106, 
                            "dur": 73, 
                            "type": "note", 
                            "channel": 0
                        }
                    ]
                ], 
                [
                    242189, 
                    [
                        {
                            "pitch": 72, 
                            "t0": 242189, 
                            "v": 117, 
                            "dur": 65, 
                            "type": "note", 
                            "channel": 0
                        }, 
                        {
                            "pitch": 44, 
                            "t0": 242189, 
                            "v": 99, 
                            "dur": 70, 
                            "type": "note", 
                            "channel": 0
                        }, 
                        {
                            "pitch": 84, 
                            "t0": 242189, 
                            "v": 100, 
                            "dur": 73, 
                            "type": "note", 
                            "channel": 0
                        }
                    ]
                ], 
                [
                    242192, 
                    [
                        {
                            "pitch": 77, 
                            "t0": 242192, 
                            "v": 109, 
                            "dur": 70, 
                            "type": "note", 
                            "channel": 0
                        }
                    ]
                ], 
                [
                    242223, 
                    [
                        {
                            "pitch": 53, 
                            "t0": 242223, 
                            "v": 53, 
                            "dur": 39, 
                            "type": "note", 
                            "channel": 0
                        }
                    ]
                ], 
                [
                    242317, 
                    [
                        {
                            "pitch": 56, 
                            "t0": 242317, 
                            "v": 96, 
                            "dur": 61, 
                            "type": "note", 
                            "channel": 0
                        }, 
                        {
                            "pitch": 53, 
                            "t0": 242317, 
                            "v": 82, 
                            "dur": 68, 
                            "type": "note", 
                            "channel": 0
                        }
                    ]
                ], 
                [
                    242321, 
                    [
                        {
                            "pitch": 44, 
                            "t0": 242321, 
                            "v": 93, 
                            "dur": 72, 
                            "type": "note", 
                            "channel": 0
                        }
                    ]
                ], 
                [
                    242331, 
                    [
                        {
                            "pitch": 72, 
                            "t0": 242331, 
                            "v": 113, 
                            "dur": 89, 
                            "type": "note", 
                            "channel": 0
                        }, 
                        {
                            "pitch": 77, 
                            "t0": 242331, 
                            "v": 106, 
                            "dur": 123, 
                            "type": "note", 
                            "channel": 0
                        }
                    ]
                ], 
                [
                    242334, 
                    [
                        {
                            "pitch": 84, 
                            "t0": 242334, 
                            "v": 106, 
                            "dur": 97, 
                            "type": "note", 
                            "channel": 0
                        }
                    ]
                ], 
                [
                    242535, 
                    [
                        {
                            "pitch": 40, 
                            "t0": 242535, 
                            "v": 117, 
                            "dur": 75, 
                            "type": "note", 
                            "channel": 0
                        }, 
                        {
                            "pitch": 72, 
                            "t0": 242535, 
                            "v": 125, 
                            "dur": 83, 
                            "type": "note", 
                            "channel": 0
                        }, 
                        {
                            "pitch": 52, 
                            "t0": 242535, 
                            "v": 122, 
                            "dur": 94, 
                            "type": "note", 
                            "channel": 0
                        }, 
                        {
                            "pitch": 79, 
                            "t0": 242535, 
                            "v": 116, 
                            "dur": 98, 
                            "type": "note", 
                            "channel": 0
                        }, 
                        {
                            "pitch": 84, 
                            "t0": 242535, 
                            "v": 123, 
                            "dur": 120, 
                            "type": "note", 
                            "channel": 0
                        }
                    ]
                ], 
                [
                    242539, 
                    [
                        {
                            "pitch": 48, 
                            "t0": 242539, 
                            "v": 122, 
                            "dur": 83, 
                            "type": "note", 
                            "channel": 0
                        }
                    ]
                ], 
                [
                    242750, 
                    [
                        {
                            "pitch": 94, 
                            "t0": 242750, 
                            "v": 37, 
                            "dur": 66, 
                            "type": "note", 
                            "channel": 0
                        }
                    ]
                ], 
                [
                    242810, 
                    [
                        {
                            "pitch": 72, 
                            "t0": 242810, 
                            "v": 115, 
                            "dur": 59, 
                            "type": "note", 
                            "channel": 0
                        }, 
                        {
                            "pitch": 84, 
                            "t0": 242810, 
                            "v": 108, 
                            "dur": 65, 
                            "type": "note", 
                            "channel": 0
                        }, 
                        {
                            "pitch": 96, 
                            "t0": 242810, 
                            "v": 110, 
                            "dur": 73, 
                            "type": "note", 
                            "channel": 0
                        }
                    ]
                ], 
                [
                    242819, 
                    [
                        {
                            "pitch": 60, 
                            "t0": 242819, 
                            "v": 98, 
                            "dur": 30, 
                            "type": "note", 
                            "channel": 0
                        }
                    ]
                ], 
                [
                    242970, 
                    [
                        {
                            "pitch": 60, 
                            "t0": 242970, 
                            "v": 92, 
                            "dur": 58, 
                            "type": "note", 
                            "channel": 0
                        }, 
                        {
                            "pitch": 84, 
                            "t0": 242970, 
                            "v": 113, 
                            "dur": 58, 
                            "type": "note", 
                            "channel": 0
                        }, 
                        {
                            "pitch": 96, 
                            "t0": 242970, 
                            "v": 106, 
                            "dur": 64, 
                            "type": "note", 
                            "channel": 0
                        }
                    ]
                ], 
                [
                    242973, 
                    [
                        {
                            "pitch": 72, 
                            "t0": 242973, 
                            "v": 106, 
                            "dur": 41, 
                            "type": "note", 
                            "channel": 0
                        }
                    ]
                ], 
                [
                    243117, 
                    [
                        {
                            "pitch": 60, 
                            "t0": 243117, 
                            "v": 83, 
                            "dur": 56, 
                            "type": "note", 
                            "channel": 0
                        }
                    ]
                ], 
                [
                    243120, 
                    [
                        {
                            "pitch": 72, 
                            "t0": 243120, 
                            "v": 99, 
                            "dur": 47, 
                            "type": "note", 
                            "channel": 0
                        }
                    ]
                ], 
                [
                    243125, 
                    [
                        {
                            "pitch": 84, 
                            "t0": 243125, 
                            "v": 111, 
                            "dur": 53, 
                            "type": "note", 
                            "channel": 0
                        }, 
                        {
                            "pitch": 96, 
                            "t0": 243125, 
                            "v": 106, 
                            "dur": 70, 
                            "type": "note", 
                            "channel": 0
                        }
                    ]
                ], 
                [
                    243256, 
                    [
                        {
                            "pitch": 60, 
                            "t0": 243256, 
                            "v": 81, 
                            "dur": 31, 
                            "type": "note", 
                            "channel": 0
                        }
                    ]
                ], 
                [
                    243259, 
                    [
                        {
                            "pitch": 72, 
                            "t0": 243259, 
                            "v": 55, 
                            "dur": 47, 
                            "type": "note", 
                            "channel": 0
                        }
                    ]
                ], 
                [
                    243273, 
                    [
                        {
                            "pitch": 84, 
                            "t0": 243273, 
                            "v": 115, 
                            "dur": 67, 
                            "type": "note", 
                            "channel": 0
                        }
                    ]
                ], 
                [
                    243276, 
                    [
                        {
                            "pitch": 96, 
                            "t0": 243276, 
                            "v": 100, 
                            "dur": 23, 
                            "type": "note", 
                            "channel": 0
                        }
                    ]
                ], 
                [
                    243462, 
                    [
                        {
                            "pitch": 72, 
                            "t0": 243462, 
                            "v": 125, 
                            "dur": 43, 
                            "type": "note", 
                            "channel": 0
                        }, 
                        {
                            "pitch": 84, 
                            "t0": 243462, 
                            "v": 119, 
                            "dur": 75, 
                            "type": "note", 
                            "channel": 0
                        }
                    ]
                ], 
                [
                    243466, 
                    [
                        {
                            "pitch": 79, 
                            "t0": 243466, 
                            "v": 112, 
                            "dur": 30, 
                            "type": "note", 
                            "channel": 0
                        }
                    ]
                ], 
                [
                    243469, 
                    [
                        {
                            "pitch": 52, 
                            "t0": 243469, 
                            "v": 112, 
                            "dur": 68, 
                            "type": "note", 
                            "channel": 0
                        }
                    ]
                ], 
                [
                    243473, 
                    [
                        {
                            "pitch": 40, 
                            "t0": 243473, 
                            "v": 111, 
                            "dur": 57, 
                            "type": "note", 
                            "channel": 0
                        }, 
                        {
                            "pitch": 48, 
                            "t0": 243473, 
                            "v": 105, 
                            "dur": 76, 
                            "type": "note", 
                            "channel": 0
                        }
                    ]
                ], 
                [
                    243605, 
                    [
                        {
                            "pitch": 48, 
                            "t0": 243605, 
                            "v": 100, 
                            "dur": 84, 
                            "type": "note", 
                            "channel": 0
                        }
                    ]
                ], 
                [
                    243610, 
                    [
                        {
                            "pitch": 40, 
                            "t0": 243610, 
                            "v": 89, 
                            "dur": 65, 
                            "type": "note", 
                            "channel": 0
                        }, 
                        {
                            "pitch": 52, 
                            "t0": 243610, 
                            "v": 99, 
                            "dur": 70, 
                            "type": "note", 
                            "channel": 0
                        }, 
                        {
                            "pitch": 79, 
                            "t0": 243610, 
                            "v": 111, 
                            "dur": 73, 
                            "type": "note", 
                            "channel": 0
                        }
                    ]
                ], 
                [
                    243613, 
                    [
                        {
                            "pitch": 84, 
                            "t0": 243613, 
                            "v": 101, 
                            "dur": 58, 
                            "type": "note", 
                            "channel": 0
                        }, 
                        {
                            "pitch": 72, 
                            "t0": 243613, 
                            "v": 120, 
                            "dur": 58, 
                            "type": "note", 
                            "channel": 0
                        }
                    ]
                ], 
                [
                    243746, 
                    [
                        {
                            "pitch": 72, 
                            "t0": 243746, 
                            "v": 111, 
                            "dur": 87, 
                            "type": "note", 
                            "channel": 0
                        }, 
                        {
                            "pitch": 52, 
                            "t0": 243746, 
                            "v": 97, 
                            "dur": 87, 
                            "type": "note", 
                            "channel": 0
                        }, 
                        {
                            "pitch": 79, 
                            "t0": 243746, 
                            "v": 103, 
                            "dur": 101, 
                            "type": "note", 
                            "channel": 0
                        }
                    ]
                ], 
                [
                    243750, 
                    [
                        {
                            "pitch": 84, 
                            "t0": 243750, 
                            "v": 101, 
                            "dur": 80, 
                            "type": "note", 
                            "channel": 0
                        }, 
                        {
                            "pitch": 40, 
                            "t0": 243750, 
                            "v": 90, 
                            "dur": 80, 
                            "type": "note", 
                            "channel": 0
                        }, 
                        {
                            "pitch": 48, 
                            "t0": 243750, 
                            "v": 90, 
                            "dur": 102, 
                            "type": "note", 
                            "channel": 0
                        }
                    ]
                ], 
                [
                    243911, 
                    [
                        {
                            "pitch": 48, 
                            "t0": 243911, 
                            "v": 108, 
                            "dur": 58, 
                            "type": "note", 
                            "channel": 0
                        }
                    ]
                ], 
                [
                    243916, 
                    [
                        {
                            "pitch": 41, 
                            "t0": 243916, 
                            "v": 103, 
                            "dur": 28, 
                            "type": "note", 
                            "channel": 0
                        }, 
                        {
                            "pitch": 72, 
                            "t0": 243916, 
                            "v": 124, 
                            "dur": 45, 
                            "type": "note", 
                            "channel": 0
                        }, 
                        {
                            "pitch": 53, 
                            "t0": 243916, 
                            "v": 120, 
                            "dur": 73, 
                            "type": "note", 
                            "channel": 0
                        }, 
                        {
                            "pitch": 80, 
                            "t0": 243916, 
                            "v": 113, 
                            "dur": 79, 
                            "type": "note", 
                            "channel": 0
                        }, 
                        {
                            "pitch": 84, 
                            "t0": 243916, 
                            "v": 117, 
                            "dur": 92, 
                            "type": "note", 
                            "channel": 0
                        }
                    ]
                ], 
                [
                    244103, 
                    [
                        {
                            "pitch": 96, 
                            "t0": 244103, 
                            "v": 117, 
                            "dur": 25, 
                            "type": "note", 
                            "channel": 0
                        }
                    ]
                ], 
                [
                    244107, 
                    [
                        {
                            "pitch": 84, 
                            "t0": 244107, 
                            "v": 110, 
                            "dur": 21, 
                            "type": "note", 
                            "channel": 0
                        }
                    ]
                ], 
                [
                    244112, 
                    [
                        {
                            "pitch": 72, 
                            "t0": 244112, 
                            "v": 108, 
                            "dur": 24, 
                            "type": "note", 
                            "channel": 0
                        }
                    ]
                ], 
                [
                    244122, 
                    [
                        {
                            "pitch": 60, 
                            "t0": 244122, 
                            "v": 30, 
                            "dur": 43, 
                            "type": "note", 
                            "channel": 0
                        }
                    ]
                ], 
                [
                    244234, 
                    [
                        {
                            "pitch": 60, 
                            "t0": 244234, 
                            "v": 106, 
                            "dur": 76, 
                            "type": "note", 
                            "channel": 0
                        }
                    ]
                ], 
                [
                    244237, 
                    [
                        {
                            "pitch": 84, 
                            "t0": 244237, 
                            "v": 116, 
                            "dur": 53, 
                            "type": "note", 
                            "channel": 0
                        }, 
                        {
                            "pitch": 72, 
                            "t0": 244237, 
                            "v": 109, 
                            "dur": 73, 
                            "type": "note", 
                            "channel": 0
                        }
                    ]
                ], 
                [
                    244240, 
                    [
                        {
                            "pitch": 96, 
                            "t0": 244240, 
                            "v": 114, 
                            "dur": 66, 
                            "type": "note", 
                            "channel": 0
                        }
                    ]
                ], 
                [
                    244388, 
                    [
                        {
                            "pitch": 60, 
                            "t0": 244388, 
                            "v": 100, 
                            "dur": 66, 
                            "type": "note", 
                            "channel": 0
                        }, 
                        {
                            "pitch": 72, 
                            "t0": 244388, 
                            "v": 108, 
                            "dur": 66, 
                            "type": "note", 
                            "channel": 0
                        }
                    ]
                ], 
                [
                    244393, 
                    [
                        {
                            "pitch": 96, 
                            "t0": 244393, 
                            "v": 108, 
                            "dur": 72, 
                            "type": "note", 
                            "channel": 0
                        }
                    ]
                ], 
                [
                    244398, 
                    [
                        {
                            "pitch": 84, 
                            "t0": 244398, 
                            "v": 103, 
                            "dur": 48, 
                            "type": "note", 
                            "channel": 0
                        }
                    ]
                ], 
                [
                    244544, 
                    [
                        {
                            "pitch": 72, 
                            "t0": 244544, 
                            "v": 111, 
                            "dur": 22, 
                            "type": "note", 
                            "channel": 0
                        }, 
                        {
                            "pitch": 60, 
                            "t0": 244544, 
                            "v": 111, 
                            "dur": 58, 
                            "type": "note", 
                            "channel": 0
                        }
                    ]
                ], 
                [
                    244552, 
                    [
                        {
                            "pitch": 96, 
                            "t0": 244552, 
                            "v": 103, 
                            "dur": 20, 
                            "type": "note", 
                            "channel": 0
                        }, 
                        {
                            "pitch": 84, 
                            "t0": 244552, 
                            "v": 114, 
                            "dur": 67, 
                            "type": "note", 
                            "channel": 0
                        }
                    ]
                ], 
                [
                    244756, 
                    [
                        {
                            "pitch": 53, 
                            "t0": 244756, 
                            "v": 120, 
                            "dur": 55, 
                            "type": "note", 
                            "channel": 0
                        }
                    ]
                ], 
                [
                    244761, 
                    [
                        {
                            "pitch": 41, 
                            "t0": 244761, 
                            "v": 115, 
                            "dur": 39, 
                            "type": "note", 
                            "channel": 0
                        }, 
                        {
                            "pitch": 48, 
                            "t0": 244761, 
                            "v": 117, 
                            "dur": 42, 
                            "type": "note", 
                            "channel": 0
                        }, 
                        {
                            "pitch": 84, 
                            "t0": 244761, 
                            "v": 110, 
                            "dur": 84, 
                            "type": "note", 
                            "channel": 0
                        }
                    ]
                ], 
                [
                    244764, 
                    [
                        {
                            "pitch": 72, 
                            "t0": 244764, 
                            "v": 112, 
                            "dur": 72, 
                            "type": "note", 
                            "channel": 0
                        }
                    ]
                ], 
                [
                    244772, 
                    [
                        {
                            "pitch": 80, 
                            "t0": 244772, 
                            "v": 103, 
                            "dur": 73, 
                            "type": "note", 
                            "channel": 0
                        }
                    ]
                ], 
                [
                    244909, 
                    [
                        {
                            "pitch": 72, 
                            "t0": 244909, 
                            "v": 113, 
                            "dur": 71, 
                            "type": "note", 
                            "channel": 0
                        }, 
                        {
                            "pitch": 53, 
                            "t0": 244909, 
                            "v": 100, 
                            "dur": 75, 
                            "type": "note", 
                            "channel": 0
                        }, 
                        {
                            "pitch": 41, 
                            "t0": 244909, 
                            "v": 108, 
                            "dur": 75, 
                            "type": "note", 
                            "channel": 0
                        }, 
                        {
                            "pitch": 84, 
                            "t0": 244909, 
                            "v": 108, 
                            "dur": 78, 
                            "type": "note", 
                            "channel": 0
                        }
                    ]
                ], 
                [
                    244914, 
                    [
                        {
                            "pitch": 48, 
                            "t0": 244914, 
                            "v": 107, 
                            "dur": 76, 
                            "type": "note", 
                            "channel": 0
                        }, 
                        {
                            "pitch": 80, 
                            "t0": 244914, 
                            "v": 90, 
                            "dur": 94, 
                            "type": "note", 
                            "channel": 0
                        }
                    ]
                ], 
                [
                    245059, 
                    [
                        {
                            "pitch": 53, 
                            "t0": 245059, 
                            "v": 94, 
                            "dur": 69, 
                            "type": "note", 
                            "channel": 0
                        }, 
                        {
                            "pitch": 48, 
                            "t0": 245059, 
                            "v": 95, 
                            "dur": 72, 
                            "type": "note", 
                            "channel": 0
                        }, 
                        {
                            "pitch": 72, 
                            "t0": 245059, 
                            "v": 113, 
                            "dur": 84, 
                            "type": "note", 
                            "channel": 0
                        }
                    ]
                ], 
                [
                    245062, 
                    [
                        {
                            "pitch": 84, 
                            "t0": 245062, 
                            "v": 100, 
                            "dur": 75, 
                            "type": "note", 
                            "channel": 0
                        }, 
                        {
                            "pitch": 80, 
                            "t0": 245062, 
                            "v": 95, 
                            "dur": 117, 
                            "type": "note", 
                            "channel": 0
                        }
                    ]
                ], 
                [
                    245065, 
                    [
                        {
                            "pitch": 41, 
                            "t0": 245065, 
                            "v": 95, 
                            "dur": 72, 
                            "type": "note", 
                            "channel": 0
                        }
                    ]
                ], 
                [
                    245259, 
                    [
                        {
                            "pitch": 85, 
                            "t0": 245259, 
                            "v": 117, 
                            "dur": 145, 
                            "type": "note", 
                            "channel": 0
                        }, 
                        {
                            "pitch": 73, 
                            "t0": 245259, 
                            "v": 121, 
                            "dur": 150, 
                            "type": "note", 
                            "channel": 0
                        }
                    ]
                ], 
                [
                    245263, 
                    [
                        {
                            "pitch": 80, 
                            "t0": 245263, 
                            "v": 103, 
                            "dur": 146, 
                            "type": "note", 
                            "channel": 0
                        }, 
                        {
                            "pitch": 53, 
                            "t0": 245263, 
                            "v": 115, 
                            "dur": 152, 
                            "type": "note", 
                            "channel": 0
                        }, 
                        {
                            "pitch": 41, 
                            "t0": 245263, 
                            "v": 111, 
                            "dur": 155, 
                            "type": "note", 
                            "channel": 0
                        }, 
                        {
                            "pitch": 49, 
                            "t0": 245263, 
                            "v": 113, 
                            "dur": 155, 
                            "type": "note", 
                            "channel": 0
                        }
                    ]
                ], 
                [
                    245288, 
                    [
                        {
                            "pitch": 44, 
                            "t0": 245288, 
                            "v": 60, 
                            "dur": 121, 
                            "type": "note", 
                            "channel": 0
                        }
                    ]
                ], 
                [
                    245460, 
                    [
                        {
                            "pitch": 53, 
                            "t0": 245460, 
                            "v": 103, 
                            "dur": 98, 
                            "type": "note", 
                            "channel": 0
                        }, 
                        {
                            "pitch": 73, 
                            "t0": 245460, 
                            "v": 107, 
                            "dur": 98, 
                            "type": "note", 
                            "channel": 0
                        }, 
                        {
                            "pitch": 85, 
                            "t0": 245460, 
                            "v": 100, 
                            "dur": 103, 
                            "type": "note", 
                            "channel": 0
                        }, 
                        {
                            "pitch": 80, 
                            "t0": 245460, 
                            "v": 96, 
                            "dur": 123, 
                            "type": "note", 
                            "channel": 0
                        }
                    ]
                ], 
                [
                    245465, 
                    [
                        {
                            "pitch": 41, 
                            "t0": 245465, 
                            "v": 100, 
                            "dur": 87, 
                            "type": "note", 
                            "channel": 0
                        }, 
                        {
                            "pitch": 49, 
                            "t0": 245465, 
                            "v": 97, 
                            "dur": 103, 
                            "type": "note", 
                            "channel": 0
                        }, 
                        {
                            "pitch": 44, 
                            "t0": 245465, 
                            "v": 86, 
                            "dur": 112, 
                            "type": "note", 
                            "channel": 0
                        }
                    ]
                ], 
                [
                    245469, 
                    [
                        {
                            "pitch": 77, 
                            "t0": 245469, 
                            "v": 109, 
                            "dur": 114, 
                            "type": "note", 
                            "channel": 0
                        }
                    ]
                ], 
                [
                    245627, 
                    [
                        {
                            "pitch": 73, 
                            "t0": 245627, 
                            "v": 100, 
                            "dur": 86, 
                            "type": "note", 
                            "channel": 0
                        }, 
                        {
                            "pitch": 85, 
                            "t0": 245627, 
                            "v": 94, 
                            "dur": 89, 
                            "type": "note", 
                            "channel": 0
                        }, 
                        {
                            "pitch": 53, 
                            "t0": 245627, 
                            "v": 94, 
                            "dur": 89, 
                            "type": "note", 
                            "channel": 0
                        }, 
                        {
                            "pitch": 44, 
                            "t0": 245627, 
                            "v": 88, 
                            "dur": 97, 
                            "type": "note", 
                            "channel": 0
                        }, 
                        {
                            "pitch": 80, 
                            "t0": 245627, 
                            "v": 100, 
                            "dur": 114, 
                            "type": "note", 
                            "channel": 0
                        }
                    ]
                ], 
                [
                    245633, 
                    [
                        {
                            "pitch": 41, 
                            "t0": 245633, 
                            "v": 89, 
                            "dur": 83, 
                            "type": "note", 
                            "channel": 0
                        }, 
                        {
                            "pitch": 49, 
                            "t0": 245633, 
                            "v": 83, 
                            "dur": 95, 
                            "type": "note", 
                            "channel": 0
                        }, 
                        {
                            "pitch": 77, 
                            "t0": 245633, 
                            "v": 105, 
                            "dur": 105, 
                            "type": "note", 
                            "channel": 0
                        }
                    ]
                ], 
                [
                    245780, 
                    [
                        {
                            "pitch": 85, 
                            "t0": 245780, 
                            "v": 92, 
                            "dur": 68, 
                            "type": "note", 
                            "channel": 0
                        }, 
                        {
                            "pitch": 53, 
                            "t0": 245780, 
                            "v": 97, 
                            "dur": 68, 
                            "type": "note", 
                            "channel": 0
                        }, 
                        {
                            "pitch": 73, 
                            "t0": 245780, 
                            "v": 100, 
                            "dur": 75, 
                            "type": "note", 
                            "channel": 0
                        }, 
                        {
                            "pitch": 41, 
                            "t0": 245780, 
                            "v": 94, 
                            "dur": 81, 
                            "type": "note", 
                            "channel": 0
                        }, 
                        {
                            "pitch": 49, 
                            "t0": 245780, 
                            "v": 93, 
                            "dur": 92, 
                            "type": "note", 
                            "channel": 0
                        }, 
                        {
                            "pitch": 80, 
                            "t0": 245780, 
                            "v": 100, 
                            "dur": 106, 
                            "type": "note", 
                            "channel": 0
                        }
                    ]
                ], 
                [
                    245785, 
                    [
                        {
                            "pitch": 44, 
                            "t0": 245785, 
                            "v": 83, 
                            "dur": 76, 
                            "type": "note", 
                            "channel": 0
                        }
                    ]
                ], 
                [
                    245788, 
                    [
                        {
                            "pitch": 77, 
                            "t0": 245788, 
                            "v": 104, 
                            "dur": 89, 
                            "type": "note", 
                            "channel": 0
                        }
                    ]
                ], 
                [
                    245928, 
                    [
                        {
                            "pitch": 53, 
                            "t0": 245928, 
                            "v": 95, 
                            "dur": 27, 
                            "type": "note", 
                            "channel": 0
                        }, 
                        {
                            "pitch": 73, 
                            "t0": 245928, 
                            "v": 104, 
                            "dur": 27, 
                            "type": "note", 
                            "channel": 0
                        }, 
                        {
                            "pitch": 49, 
                            "t0": 245928, 
                            "v": 95, 
                            "dur": 42, 
                            "type": "note", 
                            "channel": 0
                        }, 
                        {
                            "pitch": 80, 
                            "t0": 245928, 
                            "v": 100, 
                            "dur": 42, 
                            "type": "note", 
                            "channel": 0
                        }, 
                        {
                            "pitch": 44, 
                            "t0": 245928, 
                            "v": 83, 
                            "dur": 77, 
                            "type": "note", 
                            "channel": 0
                        }
                    ]
                ], 
                [
                    245933, 
                    [
                        {
                            "pitch": 41, 
                            "t0": 245933, 
                            "v": 83, 
                            "dur": 37, 
                            "type": "note", 
                            "channel": 0
                        }, 
                        {
                            "pitch": 85, 
                            "t0": 245933, 
                            "v": 96, 
                            "dur": 65, 
                            "type": "note", 
                            "channel": 0
                        }
                    ]
                ], 
                [
                    245937, 
                    [
                        {
                            "pitch": 77, 
                            "t0": 245937, 
                            "v": 91, 
                            "dur": 24, 
                            "type": "note", 
                            "channel": 0
                        }
                    ]
                ], 
                [
                    246140, 
                    [
                        {
                            "pitch": 29, 
                            "t0": 246140, 
                            "v": 107, 
                            "dur": 84, 
                            "type": "note", 
                            "channel": 0
                        }, 
                        {
                            "pitch": 41, 
                            "t0": 246140, 
                            "v": 100, 
                            "dur": 89, 
                            "type": "note", 
                            "channel": 0
                        }, 
                        {
                            "pitch": 85, 
                            "t0": 246140, 
                            "v": 106, 
                            "dur": 89, 
                            "type": "note", 
                            "channel": 0
                        }, 
                        {
                            "pitch": 97, 
                            "t0": 246140, 
                            "v": 106, 
                            "dur": 94, 
                            "type": "note", 
                            "channel": 0
                        }
                    ]
                ], 
                [
                    246143, 
                    [
                        {
                            "pitch": 32, 
                            "t0": 246143, 
                            "v": 30, 
                            "dur": 47, 
                            "type": "note", 
                            "channel": 0
                        }, 
                        {
                            "pitch": 37, 
                            "t0": 246143, 
                            "v": 97, 
                            "dur": 91, 
                            "type": "note", 
                            "channel": 0
                        }
                    ]
                ], 
                [
                    246150, 
                    [
                        {
                            "pitch": 92, 
                            "t0": 246150, 
                            "v": 91, 
                            "dur": 93, 
                            "type": "note", 
                            "channel": 0
                        }, 
                        {
                            "pitch": 89, 
                            "t0": 246150, 
                            "v": 91, 
                            "dur": 93, 
                            "type": "note", 
                            "channel": 0
                        }
                    ]
                ], 
                [
                    246293, 
                    [
                        {
                            "pitch": 29, 
                            "t0": 246293, 
                            "v": 96, 
                            "dur": 69, 
                            "type": "note", 
                            "channel": 0
                        }, 
                        {
                            "pitch": 97, 
                            "t0": 246293, 
                            "v": 96, 
                            "dur": 83, 
                            "type": "note", 
                            "channel": 0
                        }
                    ]
                ], 
                [
                    246297, 
                    [
                        {
                            "pitch": 41, 
                            "t0": 246297, 
                            "v": 94, 
                            "dur": 74, 
                            "type": "note", 
                            "channel": 0
                        }, 
                        {
                            "pitch": 85, 
                            "t0": 246297, 
                            "v": 97, 
                            "dur": 87, 
                            "type": "note", 
                            "channel": 0
                        }, 
                        {
                            "pitch": 89, 
                            "t0": 246297, 
                            "v": 99, 
                            "dur": 102, 
                            "type": "note", 
                            "channel": 0
                        }
                    ]
                ], 
                [
                    246300, 
                    [
                        {
                            "pitch": 37, 
                            "t0": 246300, 
                            "v": 80, 
                            "dur": 79, 
                            "type": "note", 
                            "channel": 0
                        }, 
                        {
                            "pitch": 92, 
                            "t0": 246300, 
                            "v": 91, 
                            "dur": 96, 
                            "type": "note", 
                            "channel": 0
                        }
                    ]
                ], 
                [
                    246312, 
                    [
                        {
                            "pitch": 32, 
                            "t0": 246312, 
                            "v": 30, 
                            "dur": 45, 
                            "type": "note", 
                            "channel": 0
                        }
                    ]
                ], 
                [
                    246440, 
                    [
                        {
                            "pitch": 37, 
                            "t0": 246440, 
                            "v": 92, 
                            "dur": 68, 
                            "type": "note", 
                            "channel": 0
                        }, 
                        {
                            "pitch": 97, 
                            "t0": 246440, 
                            "v": 100, 
                            "dur": 68, 
                            "type": "note", 
                            "channel": 0
                        }, 
                        {
                            "pitch": 85, 
                            "t0": 246440, 
                            "v": 104, 
                            "dur": 76, 
                            "type": "note", 
                            "channel": 0
                        }, 
                        {
                            "pitch": 92, 
                            "t0": 246440, 
                            "v": 100, 
                            "dur": 93, 
                            "type": "note", 
                            "channel": 0
                        }
                    ]
                ], 
                [
                    246444, 
                    [
                        {
                            "pitch": 41, 
                            "t0": 246444, 
                            "v": 97, 
                            "dur": 68, 
                            "type": "note", 
                            "channel": 0
                        }, 
                        {
                            "pitch": 29, 
                            "t0": 246444, 
                            "v": 103, 
                            "dur": 72, 
                            "type": "note", 
                            "channel": 0
                        }, 
                        {
                            "pitch": 89, 
                            "t0": 246444, 
                            "v": 110, 
                            "dur": 75, 
                            "type": "note", 
                            "channel": 0
                        }
                    ]
                ], 
                [
                    246451, 
                    [
                        {
                            "pitch": 32, 
                            "t0": 246451, 
                            "v": 76, 
                            "dur": 65, 
                            "type": "note", 
                            "channel": 0
                        }
                    ]
                ], 
                [
                    246580, 
                    [
                        {
                            "pitch": 97, 
                            "t0": 246580, 
                            "v": 104, 
                            "dur": 80, 
                            "type": "note", 
                            "channel": 0
                        }, 
                        {
                            "pitch": 85, 
                            "t0": 246580, 
                            "v": 110, 
                            "dur": 80, 
                            "type": "note", 
                            "channel": 0
                        }, 
                        {
                            "pitch": 92, 
                            "t0": 246580, 
                            "v": 102, 
                            "dur": 100, 
                            "type": "note", 
                            "channel": 0
                        }
                    ]
                ], 
                [
                    246583, 
                    [
                        {
                            "pitch": 37, 
                            "t0": 246583, 
                            "v": 96, 
                            "dur": 86, 
                            "type": "note", 
                            "channel": 0
                        }, 
                        {
                            "pitch": 89, 
                            "t0": 246583, 
                            "v": 101, 
                            "dur": 91, 
                            "type": "note", 
                            "channel": 0
                        }
                    ]
                ], 
                [
                    246586, 
                    [
                        {
                            "pitch": 29, 
                            "t0": 246586, 
                            "v": 101, 
                            "dur": 60, 
                            "type": "note", 
                            "channel": 0
                        }, 
                        {
                            "pitch": 41, 
                            "t0": 246586, 
                            "v": 104, 
                            "dur": 67, 
                            "type": "note", 
                            "channel": 0
                        }, 
                        {
                            "pitch": 32, 
                            "t0": 246586, 
                            "v": 98, 
                            "dur": 88, 
                            "type": "note", 
                            "channel": 0
                        }
                    ]
                ], 
                [
                    246716, 
                    [
                        {
                            "pitch": 97, 
                            "t0": 246716, 
                            "v": 105, 
                            "dur": 78, 
                            "type": "note", 
                            "channel": 0
                        }, 
                        {
                            "pitch": 85, 
                            "t0": 246716, 
                            "v": 110, 
                            "dur": 89, 
                            "type": "note", 
                            "channel": 0
                        }, 
                        {
                            "pitch": 92, 
                            "t0": 246716, 
                            "v": 108, 
                            "dur": 100, 
                            "type": "note", 
                            "channel": 0
                        }
                    ]
                ], 
                [
                    246721, 
                    [
                        {
                            "pitch": 29, 
                            "t0": 246721, 
                            "v": 102, 
                            "dur": 67, 
                            "type": "note", 
                            "channel": 0
                        }, 
                        {
                            "pitch": 37, 
                            "t0": 246721, 
                            "v": 99, 
                            "dur": 84, 
                            "type": "note", 
                            "channel": 0
                        }, 
                        {
                            "pitch": 32, 
                            "t0": 246721, 
                            "v": 97, 
                            "dur": 84, 
                            "type": "note", 
                            "channel": 0
                        }, 
                        {
                            "pitch": 89, 
                            "t0": 246721, 
                            "v": 110, 
                            "dur": 95, 
                            "type": "note", 
                            "channel": 0
                        }
                    ]
                ], 
                [
                    246724, 
                    [
                        {
                            "pitch": 41, 
                            "t0": 246724, 
                            "v": 101, 
                            "dur": 70, 
                            "type": "note", 
                            "channel": 0
                        }
                    ]
                ], 
                [
                    246856, 
                    [
                        {
                            "pitch": 97, 
                            "t0": 246856, 
                            "v": 104, 
                            "dur": 72, 
                            "type": "note", 
                            "channel": 0
                        }, 
                        {
                            "pitch": 85, 
                            "t0": 246856, 
                            "v": 111, 
                            "dur": 83, 
                            "type": "note", 
                            "channel": 0
                        }
                    ]
                ], 
                [
                    246860, 
                    [
                        {
                            "pitch": 92, 
                            "t0": 246860, 
                            "v": 108, 
                            "dur": 95, 
                            "type": "note", 
                            "channel": 0
                        }, 
                        {
                            "pitch": 89, 
                            "t0": 246860, 
                            "v": 111, 
                            "dur": 98, 
                            "type": "note", 
                            "channel": 0
                        }
                    ]
                ], 
                [
                    246866, 
                    [
                        {
                            "pitch": 29, 
                            "t0": 246866, 
                            "v": 105, 
                            "dur": 62, 
                            "type": "note", 
                            "channel": 0
                        }, 
                        {
                            "pitch": 41, 
                            "t0": 246866, 
                            "v": 103, 
                            "dur": 73, 
                            "type": "note", 
                            "channel": 0
                        }, 
                        {
                            "pitch": 32, 
                            "t0": 246866, 
                            "v": 93, 
                            "dur": 82, 
                            "type": "note", 
                            "channel": 0
                        }, 
                        {
                            "pitch": 37, 
                            "t0": 246866, 
                            "v": 97, 
                            "dur": 82, 
                            "type": "note", 
                            "channel": 0
                        }
                    ]
                ], 
                [
                    246994, 
                    [
                        {
                            "pitch": 97, 
                            "t0": 246994, 
                            "v": 103, 
                            "dur": 73, 
                            "type": "note", 
                            "channel": 0
                        }, 
                        {
                            "pitch": 85, 
                            "t0": 246994, 
                            "v": 109, 
                            "dur": 87, 
                            "type": "note", 
                            "channel": 0
                        }
                    ]
                ], 
                [
                    246998, 
                    [
                        {
                            "pitch": 29, 
                            "t0": 246998, 
                            "v": 100, 
                            "dur": 64, 
                            "type": "note", 
                            "channel": 0
                        }, 
                        {
                            "pitch": 41, 
                            "t0": 246998, 
                            "v": 101, 
                            "dur": 72, 
                            "type": "note", 
                            "channel": 0
                        }, 
                        {
                            "pitch": 92, 
                            "t0": 246998, 
                            "v": 104, 
                            "dur": 86, 
                            "type": "note", 
                            "channel": 0
                        }, 
                        {
                            "pitch": 37, 
                            "t0": 246998, 
                            "v": 98, 
                            "dur": 86, 
                            "type": "note", 
                            "channel": 0
                        }, 
                        {
                            "pitch": 32, 
                            "t0": 246998, 
                            "v": 94, 
                            "dur": 86, 
                            "type": "note", 
                            "channel": 0
                        }
                    ]
                ], 
                [
                    247002, 
                    [
                        {
                            "pitch": 89, 
                            "t0": 247002, 
                            "v": 113, 
                            "dur": 87, 
                            "type": "note", 
                            "channel": 0
                        }
                    ]
                ], 
                [
                    247129, 
                    [
                        {
                            "pitch": 97, 
                            "t0": 247129, 
                            "v": 106, 
                            "dur": 83, 
                            "type": "note", 
                            "channel": 0
                        }, 
                        {
                            "pitch": 85, 
                            "t0": 247129, 
                            "v": 111, 
                            "dur": 89, 
                            "type": "note", 
                            "channel": 0
                        }, 
                        {
                            "pitch": 92, 
                            "t0": 247129, 
                            "v": 105, 
                            "dur": 99, 
                            "type": "note", 
                            "channel": 0
                        }
                    ]
                ], 
                [
                    247132, 
                    [
                        {
                            "pitch": 41, 
                            "t0": 247132, 
                            "v": 106, 
                            "dur": 80, 
                            "type": "note", 
                            "channel": 0
                        }, 
                        {
                            "pitch": 32, 
                            "t0": 247132, 
                            "v": 95, 
                            "dur": 86, 
                            "type": "note", 
                            "channel": 0
                        }, 
                        {
                            "pitch": 37, 
                            "t0": 247132, 
                            "v": 98, 
                            "dur": 86, 
                            "type": "note", 
                            "channel": 0
                        }, 
                        {
                            "pitch": 89, 
                            "t0": 247132, 
                            "v": 114, 
                            "dur": 96, 
                            "type": "note", 
                            "channel": 0
                        }
                    ]
                ], 
                [
                    247135, 
                    [
                        {
                            "pitch": 29, 
                            "t0": 247135, 
                            "v": 102, 
                            "dur": 71, 
                            "type": "note", 
                            "channel": 0
                        }
                    ]
                ], 
                [
                    247267, 
                    [
                        {
                            "pitch": 97, 
                            "t0": 247267, 
                            "v": 103, 
                            "dur": 82, 
                            "type": "note", 
                            "channel": 0
                        }, 
                        {
                            "pitch": 85, 
                            "t0": 247267, 
                            "v": 109, 
                            "dur": 85, 
                            "type": "note", 
                            "channel": 0
                        }
                    ]
                ], 
                [
                    247270, 
                    [
                        {
                            "pitch": 92, 
                            "t0": 247270, 
                            "v": 106, 
                            "dur": 87, 
                            "type": "note", 
                            "channel": 0
                        }, 
                        {
                            "pitch": 37, 
                            "t0": 247270, 
                            "v": 97, 
                            "dur": 87, 
                            "type": "note", 
                            "channel": 0
                        }
                    ]
                ], 
                [
                    247273, 
                    [
                        {
                            "pitch": 29, 
                            "t0": 247273, 
                            "v": 101, 
                            "dur": 59, 
                            "type": "note", 
                            "channel": 0
                        }, 
                        {
                            "pitch": 41, 
                            "t0": 247273, 
                            "v": 103, 
                            "dur": 64, 
                            "type": "note", 
                            "channel": 0
                        }, 
                        {
                            "pitch": 32, 
                            "t0": 247273, 
                            "v": 87, 
                            "dur": 79, 
                            "type": "note", 
                            "channel": 0
                        }, 
                        {
                            "pitch": 89, 
                            "t0": 247273, 
                            "v": 101, 
                            "dur": 92, 
                            "type": "note", 
                            "channel": 0
                        }
                    ]
                ], 
                [
                    247401, 
                    [
                        {
                            "pitch": 97, 
                            "t0": 247401, 
                            "v": 103, 
                            "dur": 64, 
                            "type": "note", 
                            "channel": 0
                        }, 
                        {
                            "pitch": 41, 
                            "t0": 247401, 
                            "v": 91, 
                            "dur": 75, 
                            "type": "note", 
                            "channel": 0
                        }, 
                        {
                            "pitch": 37, 
                            "t0": 247401, 
                            "v": 95, 
                            "dur": 89, 
                            "type": "note", 
                            "channel": 0
                        }
                    ]
                ], 
                [
                    247404, 
                    [
                        {
                            "pitch": 29, 
                            "t0": 247404, 
                            "v": 88, 
                            "dur": 65, 
                            "type": "note", 
                            "channel": 0
                        }, 
                        {
                            "pitch": 85, 
                            "t0": 247404, 
                            "v": 101, 
                            "dur": 75, 
                            "type": "note", 
                            "channel": 0
                        }, 
                        {
                            "pitch": 32, 
                            "t0": 247404, 
                            "v": 88, 
                            "dur": 86, 
                            "type": "note", 
                            "channel": 0
                        }, 
                        {
                            "pitch": 92, 
                            "t0": 247404, 
                            "v": 98, 
                            "dur": 93, 
                            "type": "note", 
                            "channel": 0
                        }
                    ]
                ], 
                [
                    247412, 
                    [
                        {
                            "pitch": 89, 
                            "t0": 247412, 
                            "v": 111, 
                            "dur": 81, 
                            "type": "note", 
                            "channel": 0
                        }
                    ]
                ], 
                [
                    247546, 
                    [
                        {
                            "pitch": 97, 
                            "t0": 247546, 
                            "v": 101, 
                            "dur": 79, 
                            "type": "note", 
                            "channel": 0
                        }, 
                        {
                            "pitch": 41, 
                            "t0": 247546, 
                            "v": 95, 
                            "dur": 90, 
                            "type": "note", 
                            "channel": 0
                        }, 
                        {
                            "pitch": 85, 
                            "t0": 247546, 
                            "v": 102, 
                            "dur": 101, 
                            "type": "note", 
                            "channel": 0
                        }, 
                        {
                            "pitch": 37, 
                            "t0": 247546, 
                            "v": 90, 
                            "dur": 104, 
                            "type": "note", 
                            "channel": 0
                        }, 
                        {
                            "pitch": 92, 
                            "t0": 247546, 
                            "v": 96, 
                            "dur": 134, 
                            "type": "note", 
                            "channel": 0
                        }
                    ]
                ], 
                [
                    247550, 
                    [
                        {
                            "pitch": 29, 
                            "t0": 247550, 
                            "v": 94, 
                            "dur": 75, 
                            "type": "note", 
                            "channel": 0
                        }, 
                        {
                            "pitch": 32, 
                            "t0": 247550, 
                            "v": 85, 
                            "dur": 97, 
                            "type": "note", 
                            "channel": 0
                        }, 
                        {
                            "pitch": 89, 
                            "t0": 247550, 
                            "v": 101, 
                            "dur": 114, 
                            "type": "note", 
                            "channel": 0
                        }
                    ]
                ], 
                [
                    247739, 
                    [
                        {
                            "pitch": 97, 
                            "t0": 247739, 
                            "v": 120, 
                            "dur": 191, 
                            "type": "note", 
                            "channel": 0
                        }, 
                        {
                            "pitch": 89, 
                            "t0": 247739, 
                            "v": 103, 
                            "dur": 207, 
                            "type": "note", 
                            "channel": 0
                        }, 
                        {
                            "pitch": 85, 
                            "t0": 247739, 
                            "v": 118, 
                            "dur": 223, 
                            "type": "note", 
                            "channel": 0
                        }
                    ]
                ], 
                [
                    247742, 
                    [
                        {
                            "pitch": 29, 
                            "t0": 247742, 
                            "v": 121, 
                            "dur": 200, 
                            "type": "note", 
                            "channel": 0
                        }, 
                        {
                            "pitch": 41, 
                            "t0": 247742, 
                            "v": 123, 
                            "dur": 214, 
                            "type": "note", 
                            "channel": 0
                        }, 
                        {
                            "pitch": 92, 
                            "t0": 247742, 
                            "v": 101, 
                            "dur": 223, 
                            "type": "note", 
                            "channel": 0
                        }
                    ]
                ], 
                [
                    247745, 
                    [
                        {
                            "pitch": 37, 
                            "t0": 247745, 
                            "v": 112, 
                            "dur": 185, 
                            "type": "note", 
                            "channel": 0
                        }
                    ]
                ], 
                [
                    247749, 
                    [
                        {
                            "pitch": 32, 
                            "t0": 247749, 
                            "v": 106, 
                            "dur": 193, 
                            "type": "note", 
                            "channel": 0
                        }
                    ]
                ], 
                [
                    248909, 
                    [
                        {
                            "pitch": 65, 
                            "t0": 248909, 
                            "v": 63, 
                            "dur": 63, 
                            "type": "note", 
                            "channel": 0
                        }, 
                        {
                            "pitch": 53, 
                            "t0": 248909, 
                            "v": 56, 
                            "dur": 70, 
                            "type": "note", 
                            "channel": 0
                        }
                    ]
                ], 
                [
                    249047, 
                    [
                        {
                            "pitch": 65, 
                            "t0": 249047, 
                            "v": 78, 
                            "dur": 88, 
                            "type": "note", 
                            "channel": 0
                        }
                    ]
                ], 
                [
                    249054, 
                    [
                        {
                            "pitch": 53, 
                            "t0": 249054, 
                            "v": 64, 
                            "dur": 78, 
                            "type": "note", 
                            "channel": 0
                        }
                    ]
                ], 
                [
                    249190, 
                    [
                        {
                            "pitch": 65, 
                            "t0": 249190, 
                            "v": 92, 
                            "dur": 97, 
                            "type": "note", 
                            "channel": 0
                        }
                    ]
                ], 
                [
                    249196, 
                    [
                        {
                            "pitch": 53, 
                            "t0": 249196, 
                            "v": 59, 
                            "dur": 102, 
                            "type": "note", 
                            "channel": 0
                        }
                    ]
                ], 
                [
                    249393, 
                    [
                        {
                            "pitch": 56, 
                            "t0": 249393, 
                            "v": 48, 
                            "dur": 263, 
                            "type": "note", 
                            "channel": 0
                        }
                    ]
                ], 
                [
                    249398, 
                    [
                        {
                            "pitch": 68, 
                            "t0": 249398, 
                            "v": 60, 
                            "dur": 385, 
                            "type": "note", 
                            "channel": 0
                        }
                    ]
                ], 
                [
                    250828, 
                    [
                        {
                            "pitch": 87, 
                            "t0": 250828, 
                            "v": 122, 
                            "dur": 98, 
                            "type": "note", 
                            "channel": 0
                        }, 
                        {
                            "pitch": 75, 
                            "t0": 250828, 
                            "v": 121, 
                            "dur": 101, 
                            "type": "note", 
                            "channel": 0
                        }, 
                        {
                            "pitch": 54, 
                            "t0": 250828, 
                            "v": 120, 
                            "dur": 106, 
                            "type": "note", 
                            "channel": 0
                        }, 
                        {
                            "pitch": 81, 
                            "t0": 250828, 
                            "v": 117, 
                            "dur": 109, 
                            "type": "note", 
                            "channel": 0
                        }
                    ]
                ], 
                [
                    250833, 
                    [
                        {
                            "pitch": 48, 
                            "t0": 250833, 
                            "v": 115, 
                            "dur": 26, 
                            "type": "note", 
                            "channel": 0
                        }, 
                        {
                            "pitch": 42, 
                            "t0": 250833, 
                            "v": 113, 
                            "dur": 81, 
                            "type": "note", 
                            "channel": 0
                        }
                    ]
                ], 
                [
                    250890, 
                    [
                        {
                            "pitch": 48, 
                            "t0": 250890, 
                            "v": 36, 
                            "dur": 36, 
                            "type": "note", 
                            "channel": 0
                        }
                    ]
                ], 
                [
                    250973, 
                    [
                        {
                            "pitch": 87, 
                            "t0": 250973, 
                            "v": 111, 
                            "dur": 95, 
                            "type": "note", 
                            "channel": 0
                        }, 
                        {
                            "pitch": 75, 
                            "t0": 250973, 
                            "v": 114, 
                            "dur": 98, 
                            "type": "note", 
                            "channel": 0
                        }
                    ]
                ], 
                [
                    250980, 
                    [
                        {
                            "pitch": 54, 
                            "t0": 250980, 
                            "v": 106, 
                            "dur": 91, 
                            "type": "note", 
                            "channel": 0
                        }, 
                        {
                            "pitch": 81, 
                            "t0": 250980, 
                            "v": 119, 
                            "dur": 104, 
                            "type": "note", 
                            "channel": 0
                        }
                    ]
                ], 
                [
                    250986, 
                    [
                        {
                            "pitch": 42, 
                            "t0": 250986, 
                            "v": 100, 
                            "dur": 82, 
                            "type": "note", 
                            "channel": 0
                        }, 
                        {
                            "pitch": 48, 
                            "t0": 250986, 
                            "v": 97, 
                            "dur": 85, 
                            "type": "note", 
                            "channel": 0
                        }
                    ]
                ], 
                [
                    251117, 
                    [
                        {
                            "pitch": 87, 
                            "t0": 251117, 
                            "v": 111, 
                            "dur": 84, 
                            "type": "note", 
                            "channel": 0
                        }, 
                        {
                            "pitch": 75, 
                            "t0": 251117, 
                            "v": 114, 
                            "dur": 90, 
                            "type": "note", 
                            "channel": 0
                        }
                    ]
                ], 
                [
                    251121, 
                    [
                        {
                            "pitch": 54, 
                            "t0": 251121, 
                            "v": 104, 
                            "dur": 80, 
                            "type": "note", 
                            "channel": 0
                        }
                    ]
                ], 
                [
                    251126, 
                    [
                        {
                            "pitch": 81, 
                            "t0": 251126, 
                            "v": 117, 
                            "dur": 94, 
                            "type": "note", 
                            "channel": 0
                        }
                    ]
                ], 
                [
                    251129, 
                    [
                        {
                            "pitch": 42, 
                            "t0": 251129, 
                            "v": 97, 
                            "dur": 59, 
                            "type": "note", 
                            "channel": 0
                        }
                    ]
                ], 
                [
                    251132, 
                    [
                        {
                            "pitch": 48, 
                            "t0": 251132, 
                            "v": 102, 
                            "dur": 91, 
                            "type": "note", 
                            "channel": 0
                        }
                    ]
                ], 
                [
                    251252, 
                    [
                        {
                            "pitch": 54, 
                            "t0": 251252, 
                            "v": 100, 
                            "dur": 75, 
                            "type": "note", 
                            "channel": 0
                        }
                    ]
                ], 
                [
                    251255, 
                    [
                        {
                            "pitch": 75, 
                            "t0": 251255, 
                            "v": 112, 
                            "dur": 61, 
                            "type": "note", 
                            "channel": 0
                        }, 
                        {
                            "pitch": 87, 
                            "t0": 251255, 
                            "v": 108, 
                            "dur": 86, 
                            "type": "note", 
                            "channel": 0
                        }
                    ]
                ], 
                [
                    251262, 
                    [
                        {
                            "pitch": 81, 
                            "t0": 251262, 
                            "v": 115, 
                            "dur": 25, 
                            "type": "note", 
                            "channel": 0
                        }, 
                        {
                            "pitch": 42, 
                            "t0": 251262, 
                            "v": 93, 
                            "dur": 68, 
                            "type": "note", 
                            "channel": 0
                        }
                    ]
                ], 
                [
                    251268, 
                    [
                        {
                            "pitch": 48, 
                            "t0": 251268, 
                            "v": 110, 
                            "dur": 19, 
                            "type": "note", 
                            "channel": 0
                        }
                    ]
                ], 
                [
                    251474, 
                    [
                        {
                            "pitch": 30, 
                            "t0": 251474, 
                            "v": 95, 
                            "dur": 39, 
                            "type": "note", 
                            "channel": 0
                        }, 
                        {
                            "pitch": 42, 
                            "t0": 251474, 
                            "v": 90, 
                            "dur": 78, 
                            "type": "note", 
                            "channel": 0
                        }
                    ]
                ], 
                [
                    251477, 
                    [
                        {
                            "pitch": 87, 
                            "t0": 251477, 
                            "v": 95, 
                            "dur": 61, 
                            "type": "note", 
                            "channel": 0
                        }, 
                        {
                            "pitch": 99, 
                            "t0": 251477, 
                            "v": 97, 
                            "dur": 78, 
                            "type": "note", 
                            "channel": 0
                        }
                    ]
                ], 
                [
                    251489, 
                    [
                        {
                            "pitch": 93, 
                            "t0": 251489, 
                            "v": 79, 
                            "dur": 36, 
                            "type": "note", 
                            "channel": 0
                        }
                    ]
                ], 
                [
                    251496, 
                    [
                        {
                            "pitch": 36, 
                            "t0": 251496, 
                            "v": 63, 
                            "dur": 34, 
                            "type": "note", 
                            "channel": 0
                        }
                    ]
                ], 
                [
                    251627, 
                    [
                        {
                            "pitch": 87, 
                            "t0": 251627, 
                            "v": 97, 
                            "dur": 48, 
                            "type": "note", 
                            "channel": 0
                        }, 
                        {
                            "pitch": 42, 
                            "t0": 251627, 
                            "v": 78, 
                            "dur": 61, 
                            "type": "note", 
                            "channel": 0
                        }, 
                        {
                            "pitch": 99, 
                            "t0": 251627, 
                            "v": 91, 
                            "dur": 75, 
                            "type": "note", 
                            "channel": 0
                        }
                    ]
                ], 
                [
                    251635, 
                    [
                        {
                            "pitch": 30, 
                            "t0": 251635, 
                            "v": 86, 
                            "dur": 31, 
                            "type": "note", 
                            "channel": 0
                        }, 
                        {
                            "pitch": 36, 
                            "t0": 251635, 
                            "v": 80, 
                            "dur": 37, 
                            "type": "note", 
                            "channel": 0
                        }, 
                        {
                            "pitch": 93, 
                            "t0": 251635, 
                            "v": 83, 
                            "dur": 45, 
                            "type": "note", 
                            "channel": 0
                        }
                    ]
                ], 
                [
                    251758, 
                    [
                        {
                            "pitch": 42, 
                            "t0": 251758, 
                            "v": 101, 
                            "dur": 82, 
                            "type": "note", 
                            "channel": 0
                        }, 
                        {
                            "pitch": 99, 
                            "t0": 251758, 
                            "v": 106, 
                            "dur": 82, 
                            "type": "note", 
                            "channel": 0
                        }, 
                        {
                            "pitch": 87, 
                            "t0": 251758, 
                            "v": 117, 
                            "dur": 82, 
                            "type": "note", 
                            "channel": 0
                        }
                    ]
                ], 
                [
                    251762, 
                    [
                        {
                            "pitch": 30, 
                            "t0": 251762, 
                            "v": 106, 
                            "dur": 81, 
                            "type": "note", 
                            "channel": 0
                        }, 
                        {
                            "pitch": 93, 
                            "t0": 251762, 
                            "v": 97, 
                            "dur": 81, 
                            "type": "note", 
                            "channel": 0
                        }
                    ]
                ], 
                [
                    251767, 
                    [
                        {
                            "pitch": 36, 
                            "t0": 251767, 
                            "v": 98, 
                            "dur": 81, 
                            "type": "note", 
                            "channel": 0
                        }
                    ]
                ], 
                [
                    251900, 
                    [
                        {
                            "pitch": 87, 
                            "t0": 251900, 
                            "v": 121, 
                            "dur": 86, 
                            "type": "note", 
                            "channel": 0
                        }, 
                        {
                            "pitch": 99, 
                            "t0": 251900, 
                            "v": 112, 
                            "dur": 86, 
                            "type": "note", 
                            "channel": 0
                        }, 
                        {
                            "pitch": 93, 
                            "t0": 251900, 
                            "v": 110, 
                            "dur": 89, 
                            "type": "note", 
                            "channel": 0
                        }
                    ]
                ], 
                [
                    251904, 
                    [
                        {
                            "pitch": 42, 
                            "t0": 251904, 
                            "v": 109, 
                            "dur": 82, 
                            "type": "note", 
                            "channel": 0
                        }
                    ]
                ], 
                [
                    251908, 
                    [
                        {
                            "pitch": 30, 
                            "t0": 251908, 
                            "v": 111, 
                            "dur": 57, 
                            "type": "note", 
                            "channel": 0
                        }
                    ]
                ], 
                [
                    251911, 
                    [
                        {
                            "pitch": 36, 
                            "t0": 251911, 
                            "v": 101, 
                            "dur": 70, 
                            "type": "note", 
                            "channel": 0
                        }
                    ]
                ], 
                [
                    252039, 
                    [
                        {
                            "pitch": 99, 
                            "t0": 252039, 
                            "v": 110, 
                            "dur": 88, 
                            "type": "note", 
                            "channel": 0
                        }, 
                        {
                            "pitch": 87, 
                            "t0": 252039, 
                            "v": 117, 
                            "dur": 88, 
                            "type": "note", 
                            "channel": 0
                        }
                    ]
                ], 
                [
                    252042, 
                    [
                        {
                            "pitch": 93, 
                            "t0": 252042, 
                            "v": 113, 
                            "dur": 85, 
                            "type": "note", 
                            "channel": 0
                        }, 
                        {
                            "pitch": 42, 
                            "t0": 252042, 
                            "v": 107, 
                            "dur": 85, 
                            "type": "note", 
                            "channel": 0
                        }
                    ]
                ], 
                [
                    252046, 
                    [
                        {
                            "pitch": 30, 
                            "t0": 252046, 
                            "v": 108, 
                            "dur": 60, 
                            "type": "note", 
                            "channel": 0
                        }, 
                        {
                            "pitch": 36, 
                            "t0": 252046, 
                            "v": 97, 
                            "dur": 72, 
                            "type": "note", 
                            "channel": 0
                        }
                    ]
                ], 
                [
                    252168, 
                    [
                        {
                            "pitch": 30, 
                            "t0": 252168, 
                            "v": 97, 
                            "dur": 78, 
                            "type": "note", 
                            "channel": 0
                        }, 
                        {
                            "pitch": 42, 
                            "t0": 252168, 
                            "v": 106, 
                            "dur": 86, 
                            "type": "note", 
                            "channel": 0
                        }
                    ]
                ], 
                [
                    252173, 
                    [
                        {
                            "pitch": 36, 
                            "t0": 252173, 
                            "v": 102, 
                            "dur": 73, 
                            "type": "note", 
                            "channel": 0
                        }, 
                        {
                            "pitch": 87, 
                            "t0": 252173, 
                            "v": 116, 
                            "dur": 89, 
                            "type": "note", 
                            "channel": 0
                        }
                    ]
                ], 
                [
                    252176, 
                    [
                        {
                            "pitch": 99, 
                            "t0": 252176, 
                            "v": 110, 
                            "dur": 86, 
                            "type": "note", 
                            "channel": 0
                        }, 
                        {
                            "pitch": 93, 
                            "t0": 252176, 
                            "v": 113, 
                            "dur": 89, 
                            "type": "note", 
                            "channel": 0
                        }
                    ]
                ], 
                [
                    252298, 
                    [
                        {
                            "pitch": 30, 
                            "t0": 252298, 
                            "v": 103, 
                            "dur": 59, 
                            "type": "note", 
                            "channel": 0
                        }, 
                        {
                            "pitch": 42, 
                            "t0": 252298, 
                            "v": 104, 
                            "dur": 85, 
                            "type": "note", 
                            "channel": 0
                        }
                    ]
                ], 
                [
                    252302, 
                    [
                        {
                            "pitch": 36, 
                            "t0": 252302, 
                            "v": 103, 
                            "dur": 67, 
                            "type": "note", 
                            "channel": 0
                        }, 
                        {
                            "pitch": 87, 
                            "t0": 252302, 
                            "v": 114, 
                            "dur": 78, 
                            "type": "note", 
                            "channel": 0
                        }
                    ]
                ], 
                [
                    252305, 
                    [
                        {
                            "pitch": 99, 
                            "t0": 252305, 
                            "v": 110, 
                            "dur": 78, 
                            "type": "note", 
                            "channel": 0
                        }
                    ]
                ], 
                [
                    252308, 
                    [
                        {
                            "pitch": 93, 
                            "t0": 252308, 
                            "v": 114, 
                            "dur": 86, 
                            "type": "note", 
                            "channel": 0
                        }
                    ]
                ], 
                [
                    252436, 
                    [
                        {
                            "pitch": 87, 
                            "t0": 252436, 
                            "v": 116, 
                            "dur": 78, 
                            "type": "note", 
                            "channel": 0
                        }, 
                        {
                            "pitch": 42, 
                            "t0": 252436, 
                            "v": 106, 
                            "dur": 85, 
                            "type": "note", 
                            "channel": 0
                        }
                    ]
                ], 
                [
                    252440, 
                    [
                        {
                            "pitch": 36, 
                            "t0": 252440, 
                            "v": 97, 
                            "dur": 71, 
                            "type": "note", 
                            "channel": 0
                        }, 
                        {
                            "pitch": 99, 
                            "t0": 252440, 
                            "v": 109, 
                            "dur": 74, 
                            "type": "note", 
                            "channel": 0
                        }, 
                        {
                            "pitch": 93, 
                            "t0": 252440, 
                            "v": 116, 
                            "dur": 81, 
                            "type": "note", 
                            "channel": 0
                        }
                    ]
                ], 
                [
                    252443, 
                    [
                        {
                            "pitch": 30, 
                            "t0": 252443, 
                            "v": 109, 
                            "dur": 60, 
                            "type": "note", 
                            "channel": 0
                        }
                    ]
                ], 
                [
                    252569, 
                    [
                        {
                            "pitch": 42, 
                            "t0": 252569, 
                            "v": 106, 
                            "dur": 84, 
                            "type": "note", 
                            "channel": 0
                        }
                    ]
                ], 
                [
                    252574, 
                    [
                        {
                            "pitch": 36, 
                            "t0": 252574, 
                            "v": 97, 
                            "dur": 70, 
                            "type": "note", 
                            "channel": 0
                        }, 
                        {
                            "pitch": 99, 
                            "t0": 252574, 
                            "v": 105, 
                            "dur": 76, 
                            "type": "note", 
                            "channel": 0
                        }, 
                        {
                            "pitch": 87, 
                            "t0": 252574, 
                            "v": 110, 
                            "dur": 79, 
                            "type": "note", 
                            "channel": 0
                        }, 
                        {
                            "pitch": 93, 
                            "t0": 252574, 
                            "v": 108, 
                            "dur": 84, 
                            "type": "note", 
                            "channel": 0
                        }
                    ]
                ], 
                [
                    252577, 
                    [
                        {
                            "pitch": 30, 
                            "t0": 252577, 
                            "v": 98, 
                            "dur": 67, 
                            "type": "note", 
                            "channel": 0
                        }
                    ]
                ], 
                [
                    252698, 
                    [
                        {
                            "pitch": 42, 
                            "t0": 252698, 
                            "v": 106, 
                            "dur": 86, 
                            "type": "note", 
                            "channel": 0
                        }
                    ]
                ], 
                [
                    252701, 
                    [
                        {
                            "pitch": 30, 
                            "t0": 252701, 
                            "v": 97, 
                            "dur": 61, 
                            "type": "note", 
                            "channel": 0
                        }, 
                        {
                            "pitch": 36, 
                            "t0": 252701, 
                            "v": 97, 
                            "dur": 71, 
                            "type": "note", 
                            "channel": 0
                        }, 
                        {
                            "pitch": 87, 
                            "t0": 252701, 
                            "v": 113, 
                            "dur": 83, 
                            "type": "note", 
                            "channel": 0
                        }, 
                        {
                            "pitch": 99, 
                            "t0": 252701, 
                            "v": 106, 
                            "dur": 83, 
                            "type": "note", 
                            "channel": 0
                        }, 
                        {
                            "pitch": 93, 
                            "t0": 252701, 
                            "v": 113, 
                            "dur": 90, 
                            "type": "note", 
                            "channel": 0
                        }
                    ]
                ], 
                [
                    252836, 
                    [
                        {
                            "pitch": 87, 
                            "t0": 252836, 
                            "v": 115, 
                            "dur": 87, 
                            "type": "note", 
                            "channel": 0
                        }, 
                        {
                            "pitch": 42, 
                            "t0": 252836, 
                            "v": 106, 
                            "dur": 87, 
                            "type": "note", 
                            "channel": 0
                        }, 
                        {
                            "pitch": 99, 
                            "t0": 252836, 
                            "v": 107, 
                            "dur": 87, 
                            "type": "note", 
                            "channel": 0
                        }
                    ]
                ], 
                [
                    252839, 
                    [
                        {
                            "pitch": 93, 
                            "t0": 252839, 
                            "v": 114, 
                            "dur": 89, 
                            "type": "note", 
                            "channel": 0
                        }
                    ]
                ], 
                [
                    252842, 
                    [
                        {
                            "pitch": 30, 
                            "t0": 252842, 
                            "v": 100, 
                            "dur": 70, 
                            "type": "note", 
                            "channel": 0
                        }, 
                        {
                            "pitch": 36, 
                            "t0": 252842, 
                            "v": 94, 
                            "dur": 81, 
                            "type": "note", 
                            "channel": 0
                        }
                    ]
                ], 
                [
                    252971, 
                    [
                        {
                            "pitch": 42, 
                            "t0": 252971, 
                            "v": 108, 
                            "dur": 86, 
                            "type": "note", 
                            "channel": 0
                        }
                    ]
                ], 
                [
                    252975, 
                    [
                        {
                            "pitch": 30, 
                            "t0": 252975, 
                            "v": 100, 
                            "dur": 71, 
                            "type": "note", 
                            "channel": 0
                        }, 
                        {
                            "pitch": 87, 
                            "t0": 252975, 
                            "v": 118, 
                            "dur": 79, 
                            "type": "note", 
                            "channel": 0
                        }, 
                        {
                            "pitch": 99, 
                            "t0": 252975, 
                            "v": 108, 
                            "dur": 79, 
                            "type": "note", 
                            "channel": 0
                        }
                    ]
                ], 
                [
                    252978, 
                    [
                        {
                            "pitch": 36, 
                            "t0": 252978, 
                            "v": 101, 
                            "dur": 68, 
                            "type": "note", 
                            "channel": 0
                        }, 
                        {
                            "pitch": 93, 
                            "t0": 252978, 
                            "v": 111, 
                            "dur": 85, 
                            "type": "note", 
                            "channel": 0
                        }
                    ]
                ], 
                [
                    253099, 
                    [
                        {
                            "pitch": 30, 
                            "t0": 253099, 
                            "v": 98, 
                            "dur": 74, 
                            "type": "note", 
                            "channel": 0
                        }, 
                        {
                            "pitch": 42, 
                            "t0": 253099, 
                            "v": 103, 
                            "dur": 85, 
                            "type": "note", 
                            "channel": 0
                        }
                    ]
                ], 
                [
                    253102, 
                    [
                        {
                            "pitch": 36, 
                            "t0": 253102, 
                            "v": 97, 
                            "dur": 71, 
                            "type": "note", 
                            "channel": 0
                        }, 
                        {
                            "pitch": 99, 
                            "t0": 253102, 
                            "v": 105, 
                            "dur": 78, 
                            "type": "note", 
                            "channel": 0
                        }
                    ]
                ], 
                [
                    253106, 
                    [
                        {
                            "pitch": 87, 
                            "t0": 253106, 
                            "v": 111, 
                            "dur": 74, 
                            "type": "note", 
                            "channel": 0
                        }
                    ]
                ], 
                [
                    253109, 
                    [
                        {
                            "pitch": 93, 
                            "t0": 253109, 
                            "v": 111, 
                            "dur": 87, 
                            "type": "note", 
                            "channel": 0
                        }
                    ]
                ], 
                [
                    253234, 
                    [
                        {
                            "pitch": 42, 
                            "t0": 253234, 
                            "v": 100, 
                            "dur": 74, 
                            "type": "note", 
                            "channel": 0
                        }
                    ]
                ], 
                [
                    253237, 
                    [
                        {
                            "pitch": 30, 
                            "t0": 253237, 
                            "v": 99, 
                            "dur": 59, 
                            "type": "note", 
                            "channel": 0
                        }, 
                        {
                            "pitch": 99, 
                            "t0": 253237, 
                            "v": 106, 
                            "dur": 75, 
                            "type": "note", 
                            "channel": 0
                        }, 
                        {
                            "pitch": 87, 
                            "t0": 253237, 
                            "v": 109, 
                            "dur": 82, 
                            "type": "note", 
                            "channel": 0
                        }
                    ]
                ], 
                [
                    253240, 
                    [
                        {
                            "pitch": 36, 
                            "t0": 253240, 
                            "v": 88, 
                            "dur": 76, 
                            "type": "note", 
                            "channel": 0
                        }, 
                        {
                            "pitch": 93, 
                            "t0": 253240, 
                            "v": 117, 
                            "dur": 87, 
                            "type": "note", 
                            "channel": 0
                        }
                    ]
                ], 
                [
                    253368, 
                    [
                        {
                            "pitch": 42, 
                            "t0": 253368, 
                            "v": 94, 
                            "dur": 93, 
                            "type": "note", 
                            "channel": 0
                        }
                    ]
                ], 
                [
                    253372, 
                    [
                        {
                            "pitch": 30, 
                            "t0": 253372, 
                            "v": 95, 
                            "dur": 83, 
                            "type": "note", 
                            "channel": 0
                        }, 
                        {
                            "pitch": 36, 
                            "t0": 253372, 
                            "v": 94, 
                            "dur": 89, 
                            "type": "note", 
                            "channel": 0
                        }
                    ]
                ], 
                [
                    253376, 
                    [
                        {
                            "pitch": 87, 
                            "t0": 253376, 
                            "v": 108, 
                            "dur": 88, 
                            "type": "note", 
                            "channel": 0
                        }, 
                        {
                            "pitch": 99, 
                            "t0": 253376, 
                            "v": 101, 
                            "dur": 88, 
                            "type": "note", 
                            "channel": 0
                        }, 
                        {
                            "pitch": 93, 
                            "t0": 253376, 
                            "v": 110, 
                            "dur": 107, 
                            "type": "note", 
                            "channel": 0
                        }
                    ]
                ], 
                [
                    253556, 
                    [
                        {
                            "pitch": 87, 
                            "t0": 253556, 
                            "v": 126, 
                            "dur": 166, 
                            "type": "note", 
                            "channel": 0
                        }, 
                        {
                            "pitch": 42, 
                            "t0": 253556, 
                            "v": 120, 
                            "dur": 197, 
                            "type": "note", 
                            "channel": 0
                        }
                    ]
                ], 
                [
                    253560, 
                    [
                        {
                            "pitch": 30, 
                            "t0": 253560, 
                            "v": 117, 
                            "dur": 112, 
                            "type": "note", 
                            "channel": 0
                        }, 
                        {
                            "pitch": 99, 
                            "t0": 253560, 
                            "v": 124, 
                            "dur": 162, 
                            "type": "note", 
                            "channel": 0
                        }, 
                        {
                            "pitch": 93, 
                            "t0": 253560, 
                            "v": 107, 
                            "dur": 196, 
                            "type": "note", 
                            "channel": 0
                        }
                    ]
                ], 
                [
                    253566, 
                    [
                        {
                            "pitch": 36, 
                            "t0": 253566, 
                            "v": 109, 
                            "dur": 161, 
                            "type": "note", 
                            "channel": 0
                        }
                    ]
                ], 
                [
                    254569, 
                    [
                        {
                            "pitch": 84, 
                            "t0": 254569, 
                            "v": 121, 
                            "dur": 59, 
                            "type": "note", 
                            "channel": 0
                        }, 
                        {
                            "pitch": 72, 
                            "t0": 254569, 
                            "v": 122, 
                            "dur": 62, 
                            "type": "note", 
                            "channel": 0
                        }
                    ]
                ], 
                [
                    254580, 
                    [
                        {
                            "pitch": 60, 
                            "t0": 254580, 
                            "v": 117, 
                            "dur": 84, 
                            "type": "note", 
                            "channel": 0
                        }
                    ]
                ], 
                [
                    254723, 
                    [
                        {
                            "pitch": 72, 
                            "t0": 254723, 
                            "v": 118, 
                            "dur": 75, 
                            "type": "note", 
                            "channel": 0
                        }, 
                        {
                            "pitch": 84, 
                            "t0": 254723, 
                            "v": 115, 
                            "dur": 75, 
                            "type": "note", 
                            "channel": 0
                        }
                    ]
                ], 
                [
                    254726, 
                    [
                        {
                            "pitch": 60, 
                            "t0": 254726, 
                            "v": 99, 
                            "dur": 75, 
                            "type": "note", 
                            "channel": 0
                        }
                    ]
                ], 
                [
                    254870, 
                    [
                        {
                            "pitch": 60, 
                            "t0": 254870, 
                            "v": 109, 
                            "dur": 69, 
                            "type": "note", 
                            "channel": 0
                        }, 
                        {
                            "pitch": 72, 
                            "t0": 254870, 
                            "v": 117, 
                            "dur": 84, 
                            "type": "note", 
                            "channel": 0
                        }
                    ]
                ], 
                [
                    254875, 
                    [
                        {
                            "pitch": 84, 
                            "t0": 254875, 
                            "v": 113, 
                            "dur": 96, 
                            "type": "note", 
                            "channel": 0
                        }
                    ]
                ], 
                [
                    255085, 
                    [
                        {
                            "pitch": 75, 
                            "t0": 255085, 
                            "v": 121, 
                            "dur": 233, 
                            "type": "note", 
                            "channel": 0
                        }, 
                        {
                            "pitch": 87, 
                            "t0": 255085, 
                            "v": 121, 
                            "dur": 314, 
                            "type": "note", 
                            "channel": 0
                        }
                    ]
                ], 
                [
                    255091, 
                    [
                        {
                            "pitch": 63, 
                            "t0": 255091, 
                            "v": 122, 
                            "dur": 61, 
                            "type": "note", 
                            "channel": 0
                        }
                    ]
                ], 
                [
                    256296, 
                    [
                        {
                            "pitch": 67, 
                            "t0": 256296, 
                            "v": 123, 
                            "dur": 120, 
                            "type": "note", 
                            "channel": 0
                        }
                    ]
                ], 
                [
                    256301, 
                    [
                        {
                            "pitch": 55, 
                            "t0": 256301, 
                            "v": 116, 
                            "dur": 102, 
                            "type": "note", 
                            "channel": 0
                        }
                    ]
                ], 
                [
                    256489, 
                    [
                        {
                            "pitch": 55, 
                            "t0": 256489, 
                            "v": 115, 
                            "dur": 89, 
                            "type": "note", 
                            "channel": 0
                        }, 
                        {
                            "pitch": 67, 
                            "t0": 256489, 
                            "v": 117, 
                            "dur": 97, 
                            "type": "note", 
                            "channel": 0
                        }
                    ]
                ], 
                [
                    256628, 
                    [
                        {
                            "pitch": 67, 
                            "t0": 256628, 
                            "v": 120, 
                            "dur": 84, 
                            "type": "note", 
                            "channel": 0
                        }, 
                        {
                            "pitch": 55, 
                            "t0": 256628, 
                            "v": 113, 
                            "dur": 87, 
                            "type": "note", 
                            "channel": 0
                        }
                    ]
                ], 
                [
                    256859, 
                    [
                        {
                            "pitch": 63, 
                            "t0": 256859, 
                            "v": 124, 
                            "dur": 401, 
                            "type": "note", 
                            "channel": 0
                        }
                    ]
                ], 
                [
                    256862, 
                    [
                        {
                            "pitch": 55, 
                            "t0": 256862, 
                            "v": 113, 
                            "dur": 153, 
                            "type": "note", 
                            "channel": 0
                        }, 
                        {
                            "pitch": 51, 
                            "t0": 256862, 
                            "v": 118, 
                            "dur": 381, 
                            "type": "note", 
                            "channel": 0
                        }
                    ]
                ], 
                [
                    257536, 
                    [
                        {
                            "pitch": 65, 
                            "t0": 257536, 
                            "v": 123, 
                            "dur": 156, 
                            "type": "note", 
                            "channel": 0
                        }
                    ]
                ], 
                [
                    257539, 
                    [
                        {
                            "pitch": 53, 
                            "t0": 257539, 
                            "v": 112, 
                            "dur": 239, 
                            "type": "note", 
                            "channel": 0
                        }
                    ]
                ], 
                [
                    257542, 
                    [
                        {
                            "pitch": 59, 
                            "t0": 257542, 
                            "v": 107, 
                            "dur": 72, 
                            "type": "note", 
                            "channel": 0
                        }, 
                        {
                            "pitch": 71, 
                            "t0": 257542, 
                            "v": 104, 
                            "dur": 80, 
                            "type": "note", 
                            "channel": 0
                        }
                    ]
                ], 
                [
                    257547, 
                    [
                        {
                            "pitch": 55, 
                            "t0": 257547, 
                            "v": 109, 
                            "dur": 179, 
                            "type": "note", 
                            "channel": 0
                        }
                    ]
                ], 
                [
                    257700, 
                    [
                        {
                            "pitch": 72, 
                            "t0": 257700, 
                            "v": 111, 
                            "dur": 68, 
                            "type": "note", 
                            "channel": 0
                        }
                    ]
                ], 
                [
                    257711, 
                    [
                        {
                            "pitch": 60, 
                            "t0": 257711, 
                            "v": 93, 
                            "dur": 31, 
                            "type": "note", 
                            "channel": 0
                        }
                    ]
                ], 
                [
                    257840, 
                    [
                        {
                            "pitch": 62, 
                            "t0": 257840, 
                            "v": 103, 
                            "dur": 61, 
                            "type": "note", 
                            "channel": 0
                        }, 
                        {
                            "pitch": 74, 
                            "t0": 257840, 
                            "v": 106, 
                            "dur": 67, 
                            "type": "note", 
                            "channel": 0
                        }
                    ]
                ], 
                [
                    257973, 
                    [
                        {
                            "pitch": 75, 
                            "t0": 257973, 
                            "v": 108, 
                            "dur": 67, 
                            "type": "note", 
                            "channel": 0
                        }, 
                        {
                            "pitch": 63, 
                            "t0": 257973, 
                            "v": 106, 
                            "dur": 67, 
                            "type": "note", 
                            "channel": 0
                        }
                    ]
                ], 
                [
                    258124, 
                    [
                        {
                            "pitch": 53, 
                            "t0": 258124, 
                            "v": 105, 
                            "dur": 496, 
                            "type": "note", 
                            "channel": 0
                        }, 
                        {
                            "pitch": 62, 
                            "t0": 258124, 
                            "v": 125, 
                            "dur": 535, 
                            "type": "note", 
                            "channel": 0
                        }
                    ]
                ], 
                [
                    258127, 
                    [
                        {
                            "pitch": 77, 
                            "t0": 258127, 
                            "v": 119, 
                            "dur": 55, 
                            "type": "note", 
                            "channel": 0
                        }, 
                        {
                            "pitch": 65, 
                            "t0": 258127, 
                            "v": 113, 
                            "dur": 69, 
                            "type": "note", 
                            "channel": 0
                        }, 
                        {
                            "pitch": 59, 
                            "t0": 258127, 
                            "v": 103, 
                            "dur": 510, 
                            "type": "note", 
                            "channel": 0
                        }
                    ]
                ], 
                [
                    258130, 
                    [
                        {
                            "pitch": 50, 
                            "t0": 258130, 
                            "v": 110, 
                            "dur": 484, 
                            "type": "note", 
                            "channel": 0
                        }, 
                        {
                            "pitch": 56, 
                            "t0": 258130, 
                            "v": 97, 
                            "dur": 504, 
                            "type": "note", 
                            "channel": 0
                        }
                    ]
                ], 
                [
                    258269, 
                    [
                        {
                            "pitch": 67, 
                            "t0": 258269, 
                            "v": 105, 
                            "dur": 59, 
                            "type": "note", 
                            "channel": 0
                        }
                    ]
                ], 
                [
                    258272, 
                    [
                        {
                            "pitch": 79, 
                            "t0": 258272, 
                            "v": 113, 
                            "dur": 49, 
                            "type": "note", 
                            "channel": 0
                        }
                    ]
                ], 
                [
                    258403, 
                    [
                        {
                            "pitch": 80, 
                            "t0": 258403, 
                            "v": 110, 
                            "dur": 72, 
                            "type": "note", 
                            "channel": 0
                        }, 
                        {
                            "pitch": 68, 
                            "t0": 258403, 
                            "v": 111, 
                            "dur": 75, 
                            "type": "note", 
                            "channel": 0
                        }
                    ]
                ], 
                [
                    258539, 
                    [
                        {
                            "pitch": 79, 
                            "t0": 258539, 
                            "v": 114, 
                            "dur": 53, 
                            "type": "note", 
                            "channel": 0
                        }, 
                        {
                            "pitch": 67, 
                            "t0": 258539, 
                            "v": 112, 
                            "dur": 59, 
                            "type": "note", 
                            "channel": 0
                        }
                    ]
                ], 
                [
                    258672, 
                    [
                        {
                            "pitch": 68, 
                            "t0": 258672, 
                            "v": 111, 
                            "dur": 65, 
                            "type": "note", 
                            "channel": 0
                        }
                    ]
                ], 
                [
                    258675, 
                    [
                        {
                            "pitch": 80, 
                            "t0": 258675, 
                            "v": 111, 
                            "dur": 93, 
                            "type": "note", 
                            "channel": 0
                        }
                    ]
                ], 
                [
                    258815, 
                    [
                        {
                            "pitch": 79, 
                            "t0": 258815, 
                            "v": 113, 
                            "dur": 91, 
                            "type": "note", 
                            "channel": 0
                        }
                    ]
                ], 
                [
                    258823, 
                    [
                        {
                            "pitch": 67, 
                            "t0": 258823, 
                            "v": 122, 
                            "dur": 72, 
                            "type": "note", 
                            "channel": 0
                        }
                    ]
                ], 
                [
                    258828, 
                    [
                        {
                            "pitch": 55, 
                            "t0": 258828, 
                            "v": 113, 
                            "dur": 67, 
                            "type": "note", 
                            "channel": 0
                        }
                    ]
                ], 
                [
                    258957, 
                    [
                        {
                            "pitch": 80, 
                            "t0": 258957, 
                            "v": 109, 
                            "dur": 91, 
                            "type": "note", 
                            "channel": 0
                        }
                    ]
                ], 
                [
                    258960, 
                    [
                        {
                            "pitch": 67, 
                            "t0": 258960, 
                            "v": 112, 
                            "dur": 66, 
                            "type": "note", 
                            "channel": 0
                        }
                    ]
                ], 
                [
                    258963, 
                    [
                        {
                            "pitch": 55, 
                            "t0": 258963, 
                            "v": 107, 
                            "dur": 60, 
                            "type": "note", 
                            "channel": 0
                        }
                    ]
                ], 
                [
                    259090, 
                    [
                        {
                            "pitch": 79, 
                            "t0": 259090, 
                            "v": 108, 
                            "dur": 309, 
                            "type": "note", 
                            "channel": 0
                        }
                    ]
                ], 
                [
                    259101, 
                    [
                        {
                            "pitch": 55, 
                            "t0": 259101, 
                            "v": 100, 
                            "dur": 32, 
                            "type": "note", 
                            "channel": 0
                        }
                    ]
                ], 
                [
                    259107, 
                    [
                        {
                            "pitch": 67, 
                            "t0": 259107, 
                            "v": 95, 
                            "dur": 31, 
                            "type": "note", 
                            "channel": 0
                        }
                    ]
                ], 
                [
                    259279, 
                    [
                        {
                            "pitch": 51, 
                            "t0": 259279, 
                            "v": 120, 
                            "dur": 482, 
                            "type": "note", 
                            "channel": 0
                        }, 
                        {
                            "pitch": 63, 
                            "t0": 259279, 
                            "v": 126, 
                            "dur": 524, 
                            "type": "note", 
                            "channel": 0
                        }
                    ]
                ], 
                [
                    259288, 
                    [
                        {
                            "pitch": 55, 
                            "t0": 259288, 
                            "v": 111, 
                            "dur": 452, 
                            "type": "note", 
                            "channel": 0
                        }
                    ]
                ], 
                [
                    259909, 
                    [
                        {
                            "pitch": 83, 
                            "t0": 259909, 
                            "v": 105, 
                            "dur": 56, 
                            "type": "note", 
                            "channel": 0
                        }, 
                        {
                            "pitch": 71, 
                            "t0": 259909, 
                            "v": 98, 
                            "dur": 56, 
                            "type": "note", 
                            "channel": 0
                        }
                    ]
                ], 
                [
                    259934, 
                    [
                        {
                            "pitch": 65, 
                            "t0": 259934, 
                            "v": 127, 
                            "dur": 291, 
                            "type": "note", 
                            "channel": 0
                        }, 
                        {
                            "pitch": 53, 
                            "t0": 259934, 
                            "v": 122, 
                            "dur": 309, 
                            "type": "note", 
                            "channel": 0
                        }
                    ]
                ], 
                [
                    260074, 
                    [
                        {
                            "pitch": 84, 
                            "t0": 260074, 
                            "v": 112, 
                            "dur": 48, 
                            "type": "note", 
                            "channel": 0
                        }
                    ]
                ], 
                [
                    260077, 
                    [
                        {
                            "pitch": 72, 
                            "t0": 260077, 
                            "v": 101, 
                            "dur": 33, 
                            "type": "note", 
                            "channel": 0
                        }
                    ]
                ], 
                [
                    260218, 
                    [
                        {
                            "pitch": 74, 
                            "t0": 260218, 
                            "v": 110, 
                            "dur": 46, 
                            "type": "note", 
                            "channel": 0
                        }, 
                        {
                            "pitch": 86, 
                            "t0": 260218, 
                            "v": 113, 
                            "dur": 54, 
                            "type": "note", 
                            "channel": 0
                        }
                    ]
                ], 
                [
                    260335, 
                    [
                        {
                            "pitch": 75, 
                            "t0": 260335, 
                            "v": 108, 
                            "dur": 71, 
                            "type": "note", 
                            "channel": 0
                        }
                    ]
                ], 
                [
                    260338, 
                    [
                        {
                            "pitch": 87, 
                            "t0": 260338, 
                            "v": 109, 
                            "dur": 59, 
                            "type": "note", 
                            "channel": 0
                        }
                    ]
                ], 
                [
                    260483, 
                    [
                        {
                            "pitch": 89, 
                            "t0": 260483, 
                            "v": 118, 
                            "dur": 78, 
                            "type": "note", 
                            "channel": 0
                        }, 
                        {
                            "pitch": 50, 
                            "t0": 260483, 
                            "v": 113, 
                            "dur": 444, 
                            "type": "note", 
                            "channel": 0
                        }, 
                        {
                            "pitch": 56, 
                            "t0": 260483, 
                            "v": 104, 
                            "dur": 449, 
                            "type": "note", 
                            "channel": 0
                        }, 
                        {
                            "pitch": 53, 
                            "t0": 260483, 
                            "v": 105, 
                            "dur": 449, 
                            "type": "note", 
                            "channel": 0
                        }, 
                        {
                            "pitch": 59, 
                            "t0": 260483, 
                            "v": 106, 
                            "dur": 460, 
                            "type": "note", 
                            "channel": 0
                        }, 
                        {
                            "pitch": 62, 
                            "t0": 260483, 
                            "v": 125, 
                            "dur": 502, 
                            "type": "note", 
                            "channel": 0
                        }
                    ]
                ], 
                [
                    260488, 
                    [
                        {
                            "pitch": 77, 
                            "t0": 260488, 
                            "v": 117, 
                            "dur": 73, 
                            "type": "note", 
                            "channel": 0
                        }
                    ]
                ], 
                [
                    260630, 
                    [
                        {
                            "pitch": 79, 
                            "t0": 260630, 
                            "v": 114, 
                            "dur": 53, 
                            "type": "note", 
                            "channel": 0
                        }, 
                        {
                            "pitch": 91, 
                            "t0": 260630, 
                            "v": 112, 
                            "dur": 68, 
                            "type": "note", 
                            "channel": 0
                        }
                    ]
                ], 
                [
                    260756, 
                    [
                        {
                            "pitch": 80, 
                            "t0": 260756, 
                            "v": 111, 
                            "dur": 100, 
                            "type": "note", 
                            "channel": 0
                        }, 
                        {
                            "pitch": 92, 
                            "t0": 260756, 
                            "v": 111, 
                            "dur": 100, 
                            "type": "note", 
                            "channel": 0
                        }
                    ]
                ], 
                [
                    260906, 
                    [
                        {
                            "pitch": 79, 
                            "t0": 260906, 
                            "v": 114, 
                            "dur": 60, 
                            "type": "note", 
                            "channel": 0
                        }, 
                        {
                            "pitch": 91, 
                            "t0": 260906, 
                            "v": 113, 
                            "dur": 75, 
                            "type": "note", 
                            "channel": 0
                        }
                    ]
                ], 
                [
                    261054, 
                    [
                        {
                            "pitch": 80, 
                            "t0": 261054, 
                            "v": 108, 
                            "dur": 59, 
                            "type": "note", 
                            "channel": 0
                        }, 
                        {
                            "pitch": 92, 
                            "t0": 261054, 
                            "v": 110, 
                            "dur": 70, 
                            "type": "note", 
                            "channel": 0
                        }
                    ]
                ], 
                [
                    261202, 
                    [
                        {
                            "pitch": 67, 
                            "t0": 261202, 
                            "v": 119, 
                            "dur": 56, 
                            "type": "note", 
                            "channel": 0
                        }, 
                        {
                            "pitch": 79, 
                            "t0": 261202, 
                            "v": 115, 
                            "dur": 67, 
                            "type": "note", 
                            "channel": 0
                        }
                    ]
                ], 
                [
                    261205, 
                    [
                        {
                            "pitch": 55, 
                            "t0": 261205, 
                            "v": 111, 
                            "dur": 31, 
                            "type": "note", 
                            "channel": 0
                        }, 
                        {
                            "pitch": 91, 
                            "t0": 261205, 
                            "v": 113, 
                            "dur": 61, 
                            "type": "note", 
                            "channel": 0
                        }
                    ]
                ], 
                [
                    261336, 
                    [
                        {
                            "pitch": 80, 
                            "t0": 261336, 
                            "v": 106, 
                            "dur": 64, 
                            "type": "note", 
                            "channel": 0
                        }, 
                        {
                            "pitch": 92, 
                            "t0": 261336, 
                            "v": 106, 
                            "dur": 64, 
                            "type": "note", 
                            "channel": 0
                        }
                    ]
                ], 
                [
                    261350, 
                    [
                        {
                            "pitch": 55, 
                            "t0": 261350, 
                            "v": 109, 
                            "dur": 32, 
                            "type": "note", 
                            "channel": 0
                        }, 
                        {
                            "pitch": 67, 
                            "t0": 261350, 
                            "v": 94, 
                            "dur": 42, 
                            "type": "note", 
                            "channel": 0
                        }
                    ]
                ], 
                [
                    261473, 
                    [
                        {
                            "pitch": 91, 
                            "t0": 261473, 
                            "v": 108, 
                            "dur": 57, 
                            "type": "note", 
                            "channel": 0
                        }, 
                        {
                            "pitch": 79, 
                            "t0": 261473, 
                            "v": 109, 
                            "dur": 64, 
                            "type": "note", 
                            "channel": 0
                        }
                    ]
                ], 
                [
                    261477, 
                    [
                        {
                            "pitch": 67, 
                            "t0": 261477, 
                            "v": 98, 
                            "dur": 31, 
                            "type": "note", 
                            "channel": 0
                        }
                    ]
                ], 
                [
                    261480, 
                    [
                        {
                            "pitch": 55, 
                            "t0": 261480, 
                            "v": 104, 
                            "dur": 42, 
                            "type": "note", 
                            "channel": 0
                        }
                    ]
                ], 
                [
                    261629, 
                    [
                        {
                            "pitch": 80, 
                            "t0": 261629, 
                            "v": 108, 
                            "dur": 66, 
                            "type": "note", 
                            "channel": 0
                        }, 
                        {
                            "pitch": 92, 
                            "t0": 261629, 
                            "v": 111, 
                            "dur": 72, 
                            "type": "note", 
                            "channel": 0
                        }
                    ]
                ], 
                [
                    261640, 
                    [
                        {
                            "pitch": 63, 
                            "t0": 261640, 
                            "v": 121, 
                            "dur": 61, 
                            "type": "note", 
                            "channel": 0
                        }
                    ]
                ], 
                [
                    261643, 
                    [
                        {
                            "pitch": 51, 
                            "t0": 261643, 
                            "v": 118, 
                            "dur": 62, 
                            "type": "note", 
                            "channel": 0
                        }
                    ]
                ], 
                [
                    261773, 
                    [
                        {
                            "pitch": 79, 
                            "t0": 261773, 
                            "v": 107, 
                            "dur": 42, 
                            "type": "note", 
                            "channel": 0
                        }, 
                        {
                            "pitch": 91, 
                            "t0": 261773, 
                            "v": 107, 
                            "dur": 59, 
                            "type": "note", 
                            "channel": 0
                        }
                    ]
                ], 
                [
                    261906, 
                    [
                        {
                            "pitch": 82, 
                            "t0": 261906, 
                            "v": 122, 
                            "dur": 53, 
                            "type": "note", 
                            "channel": 0
                        }, 
                        {
                            "pitch": 94, 
                            "t0": 261906, 
                            "v": 119, 
                            "dur": 59, 
                            "type": "note", 
                            "channel": 0
                        }
                    ]
                ], 
                [
                    261912, 
                    [
                        {
                            "pitch": 65, 
                            "t0": 261912, 
                            "v": 122, 
                            "dur": 107, 
                            "type": "note", 
                            "channel": 0
                        }, 
                        {
                            "pitch": 53, 
                            "t0": 261912, 
                            "v": 118, 
                            "dur": 131, 
                            "type": "note", 
                            "channel": 0
                        }
                    ]
                ], 
                [
                    262043, 
                    [
                        {
                            "pitch": 80, 
                            "t0": 262043, 
                            "v": 108, 
                            "dur": 72, 
                            "type": "note", 
                            "channel": 0
                        }
                    ]
                ], 
                [
                    262049, 
                    [
                        {
                            "pitch": 92, 
                            "t0": 262049, 
                            "v": 105, 
                            "dur": 69, 
                            "type": "note", 
                            "channel": 0
                        }
                    ]
                ], 
                [
                    262188, 
                    [
                        {
                            "pitch": 62, 
                            "t0": 262188, 
                            "v": 118, 
                            "dur": 115, 
                            "type": "note", 
                            "channel": 0
                        }
                    ]
                ], 
                [
                    262191, 
                    [
                        {
                            "pitch": 91, 
                            "t0": 262191, 
                            "v": 115, 
                            "dur": 49, 
                            "type": "note", 
                            "channel": 0
                        }, 
                        {
                            "pitch": 79, 
                            "t0": 262191, 
                            "v": 117, 
                            "dur": 59, 
                            "type": "note", 
                            "channel": 0
                        }
                    ]
                ], 
                [
                    262194, 
                    [
                        {
                            "pitch": 50, 
                            "t0": 262194, 
                            "v": 108, 
                            "dur": 106, 
                            "type": "note", 
                            "channel": 0
                        }
                    ]
                ], 
                [
                    262322, 
                    [
                        {
                            "pitch": 77, 
                            "t0": 262322, 
                            "v": 114, 
                            "dur": 63, 
                            "type": "note", 
                            "channel": 0
                        }
                    ]
                ], 
                [
                    262325, 
                    [
                        {
                            "pitch": 89, 
                            "t0": 262325, 
                            "v": 113, 
                            "dur": 55, 
                            "type": "note", 
                            "channel": 0
                        }
                    ]
                ], 
                [
                    262461, 
                    [
                        {
                            "pitch": 80, 
                            "t0": 262461, 
                            "v": 113, 
                            "dur": 59, 
                            "type": "note", 
                            "channel": 0
                        }
                    ]
                ], 
                [
                    262464, 
                    [
                        {
                            "pitch": 92, 
                            "t0": 262464, 
                            "v": 111, 
                            "dur": 72, 
                            "type": "note", 
                            "channel": 0
                        }
                    ]
                ], 
                [
                    262472, 
                    [
                        {
                            "pitch": 63, 
                            "t0": 262472, 
                            "v": 117, 
                            "dur": 101, 
                            "type": "note", 
                            "channel": 0
                        }
                    ]
                ], 
                [
                    262477, 
                    [
                        {
                            "pitch": 51, 
                            "t0": 262477, 
                            "v": 112, 
                            "dur": 113, 
                            "type": "note", 
                            "channel": 0
                        }
                    ]
                ], 
                [
                    262600, 
                    [
                        {
                            "pitch": 91, 
                            "t0": 262600, 
                            "v": 113, 
                            "dur": 51, 
                            "type": "note", 
                            "channel": 0
                        }, 
                        {
                            "pitch": 79, 
                            "t0": 262600, 
                            "v": 110, 
                            "dur": 64, 
                            "type": "note", 
                            "channel": 0
                        }
                    ]
                ], 
                [
                    262740, 
                    [
                        {
                            "pitch": 89, 
                            "t0": 262740, 
                            "v": 113, 
                            "dur": 52, 
                            "type": "note", 
                            "channel": 0
                        }, 
                        {
                            "pitch": 77, 
                            "t0": 262740, 
                            "v": 114, 
                            "dur": 52, 
                            "type": "note", 
                            "channel": 0
                        }
                    ]
                ], 
                [
                    262745, 
                    [
                        {
                            "pitch": 48, 
                            "t0": 262745, 
                            "v": 117, 
                            "dur": 118, 
                            "type": "note", 
                            "channel": 0
                        }, 
                        {
                            "pitch": 60, 
                            "t0": 262745, 
                            "v": 119, 
                            "dur": 129, 
                            "type": "note", 
                            "channel": 0
                        }
                    ]
                ], 
                [
                    262877, 
                    [
                        {
                            "pitch": 75, 
                            "t0": 262877, 
                            "v": 108, 
                            "dur": 77, 
                            "type": "note", 
                            "channel": 0
                        }, 
                        {
                            "pitch": 87, 
                            "t0": 262877, 
                            "v": 106, 
                            "dur": 89, 
                            "type": "note", 
                            "channel": 0
                        }
                    ]
                ], 
                [
                    263018, 
                    [
                        {
                            "pitch": 91, 
                            "t0": 263018, 
                            "v": 108, 
                            "dur": 58, 
                            "type": "note", 
                            "channel": 0
                        }, 
                        {
                            "pitch": 79, 
                            "t0": 263018, 
                            "v": 111, 
                            "dur": 76, 
                            "type": "note", 
                            "channel": 0
                        }
                    ]
                ], 
                [
                    263024, 
                    [
                        {
                            "pitch": 62, 
                            "t0": 263024, 
                            "v": 113, 
                            "dur": 106, 
                            "type": "note", 
                            "channel": 0
                        }
                    ]
                ], 
                [
                    263027, 
                    [
                        {
                            "pitch": 50, 
                            "t0": 263027, 
                            "v": 110, 
                            "dur": 119, 
                            "type": "note", 
                            "channel": 0
                        }
                    ]
                ], 
                [
                    263154, 
                    [
                        {
                            "pitch": 77, 
                            "t0": 263154, 
                            "v": 115, 
                            "dur": 56, 
                            "type": "note", 
                            "channel": 0
                        }
                    ]
                ], 
                [
                    263158, 
                    [
                        {
                            "pitch": 89, 
                            "t0": 263158, 
                            "v": 103, 
                            "dur": 63, 
                            "type": "note", 
                            "channel": 0
                        }
                    ]
                ], 
                [
                    263294, 
                    [
                        {
                            "pitch": 87, 
                            "t0": 263294, 
                            "v": 108, 
                            "dur": 65, 
                            "type": "note", 
                            "channel": 0
                        }, 
                        {
                            "pitch": 75, 
                            "t0": 263294, 
                            "v": 111, 
                            "dur": 70, 
                            "type": "note", 
                            "channel": 0
                        }
                    ]
                ], 
                [
                    263297, 
                    [
                        {
                            "pitch": 58, 
                            "t0": 263297, 
                            "v": 123, 
                            "dur": 72, 
                            "type": "note", 
                            "channel": 0
                        }
                    ]
                ], 
                [
                    263302, 
                    [
                        {
                            "pitch": 46, 
                            "t0": 263302, 
                            "v": 119, 
                            "dur": 92, 
                            "type": "note", 
                            "channel": 0
                        }
                    ]
                ], 
                [
                    263433, 
                    [
                        {
                            "pitch": 74, 
                            "t0": 263433, 
                            "v": 110, 
                            "dur": 29, 
                            "type": "note", 
                            "channel": 0
                        }, 
                        {
                            "pitch": 86, 
                            "t0": 263433, 
                            "v": 112, 
                            "dur": 51, 
                            "type": "note", 
                            "channel": 0
                        }
                    ]
                ], 
                [
                    263570, 
                    [
                        {
                            "pitch": 89, 
                            "t0": 263570, 
                            "v": 117, 
                            "dur": 53, 
                            "type": "note", 
                            "channel": 0
                        }, 
                        {
                            "pitch": 77, 
                            "t0": 263570, 
                            "v": 117, 
                            "dur": 58, 
                            "type": "note", 
                            "channel": 0
                        }
                    ]
                ], 
                [
                    263578, 
                    [
                        {
                            "pitch": 60, 
                            "t0": 263578, 
                            "v": 119, 
                            "dur": 90, 
                            "type": "note", 
                            "channel": 0
                        }
                    ]
                ], 
                [
                    263583, 
                    [
                        {
                            "pitch": 48, 
                            "t0": 263583, 
                            "v": 117, 
                            "dur": 93, 
                            "type": "note", 
                            "channel": 0
                        }
                    ]
                ], 
                [
                    263707, 
                    [
                        {
                            "pitch": 75, 
                            "t0": 263707, 
                            "v": 106, 
                            "dur": 74, 
                            "type": "note", 
                            "channel": 0
                        }
                    ]
                ], 
                [
                    263712, 
                    [
                        {
                            "pitch": 87, 
                            "t0": 263712, 
                            "v": 103, 
                            "dur": 81, 
                            "type": "note", 
                            "channel": 0
                        }
                    ]
                ], 
                [
                    263849, 
                    [
                        {
                            "pitch": 86, 
                            "t0": 263849, 
                            "v": 117, 
                            "dur": 50, 
                            "type": "note", 
                            "channel": 0
                        }, 
                        {
                            "pitch": 74, 
                            "t0": 263849, 
                            "v": 117, 
                            "dur": 60, 
                            "type": "note", 
                            "channel": 0
                        }
                    ]
                ], 
                [
                    263852, 
                    [
                        {
                            "pitch": 56, 
                            "t0": 263852, 
                            "v": 117, 
                            "dur": 135, 
                            "type": "note", 
                            "channel": 0
                        }
                    ]
                ], 
                [
                    263857, 
                    [
                        {
                            "pitch": 44, 
                            "t0": 263857, 
                            "v": 104, 
                            "dur": 126, 
                            "type": "note", 
                            "channel": 0
                        }
                    ]
                ], 
                [
                    263860, 
                    [
                        {
                            "pitch": 48, 
                            "t0": 263860, 
                            "v": 105, 
                            "dur": 75, 
                            "type": "note", 
                            "channel": 0
                        }
                    ]
                ], 
                [
                    263987, 
                    [
                        {
                            "pitch": 72, 
                            "t0": 263987, 
                            "v": 113, 
                            "dur": 54, 
                            "type": "note", 
                            "channel": 0
                        }, 
                        {
                            "pitch": 84, 
                            "t0": 263987, 
                            "v": 113, 
                            "dur": 68, 
                            "type": "note", 
                            "channel": 0
                        }
                    ]
                ], 
                [
                    264132, 
                    [
                        {
                            "pitch": 75, 
                            "t0": 264132, 
                            "v": 107, 
                            "dur": 70, 
                            "type": "note", 
                            "channel": 0
                        }, 
                        {
                            "pitch": 87, 
                            "t0": 264132, 
                            "v": 111, 
                            "dur": 70, 
                            "type": "note", 
                            "channel": 0
                        }
                    ]
                ], 
                [
                    264143, 
                    [
                        {
                            "pitch": 58, 
                            "t0": 264143, 
                            "v": 124, 
                            "dur": 118, 
                            "type": "note", 
                            "channel": 0
                        }
                    ]
                ], 
                [
                    264147, 
                    [
                        {
                            "pitch": 46, 
                            "t0": 264147, 
                            "v": 117, 
                            "dur": 117, 
                            "type": "note", 
                            "channel": 0
                        }
                    ]
                ], 
                [
                    264150, 
                    [
                        {
                            "pitch": 50, 
                            "t0": 264150, 
                            "v": 101, 
                            "dur": 74, 
                            "type": "note", 
                            "channel": 0
                        }
                    ]
                ], 
                [
                    264278, 
                    [
                        {
                            "pitch": 86, 
                            "t0": 264278, 
                            "v": 111, 
                            "dur": 53, 
                            "type": "note", 
                            "channel": 0
                        }
                    ]
                ], 
                [
                    264281, 
                    [
                        {
                            "pitch": 74, 
                            "t0": 264281, 
                            "v": 107, 
                            "dur": 69, 
                            "type": "note", 
                            "channel": 0
                        }
                    ]
                ], 
                [
                    264420, 
                    [
                        {
                            "pitch": 72, 
                            "t0": 264420, 
                            "v": 115, 
                            "dur": 63, 
                            "type": "note", 
                            "channel": 0
                        }
                    ]
                ], 
                [
                    264425, 
                    [
                        {
                            "pitch": 84, 
                            "t0": 264425, 
                            "v": 115, 
                            "dur": 58, 
                            "type": "note", 
                            "channel": 0
                        }, 
                        {
                            "pitch": 55, 
                            "t0": 264425, 
                            "v": 121, 
                            "dur": 136, 
                            "type": "note", 
                            "channel": 0
                        }
                    ]
                ], 
                [
                    264430, 
                    [
                        {
                            "pitch": 46, 
                            "t0": 264430, 
                            "v": 117, 
                            "dur": 109, 
                            "type": "note", 
                            "channel": 0
                        }
                    ]
                ], 
                [
                    264433, 
                    [
                        {
                            "pitch": 43, 
                            "t0": 264433, 
                            "v": 111, 
                            "dur": 117, 
                            "type": "note", 
                            "channel": 0
                        }
                    ]
                ], 
                [
                    264561, 
                    [
                        {
                            "pitch": 82, 
                            "t0": 264561, 
                            "v": 114, 
                            "dur": 70, 
                            "type": "note", 
                            "channel": 0
                        }, 
                        {
                            "pitch": 70, 
                            "t0": 264561, 
                            "v": 117, 
                            "dur": 81, 
                            "type": "note", 
                            "channel": 0
                        }
                    ]
                ], 
                [
                    264704, 
                    [
                        {
                            "pitch": 86, 
                            "t0": 264704, 
                            "v": 114, 
                            "dur": 52, 
                            "type": "note", 
                            "channel": 0
                        }
                    ]
                ], 
                [
                    264707, 
                    [
                        {
                            "pitch": 74, 
                            "t0": 264707, 
                            "v": 113, 
                            "dur": 64, 
                            "type": "note", 
                            "channel": 0
                        }, 
                        {
                            "pitch": 56, 
                            "t0": 264707, 
                            "v": 117, 
                            "dur": 124, 
                            "type": "note", 
                            "channel": 0
                        }
                    ]
                ], 
                [
                    264714, 
                    [
                        {
                            "pitch": 48, 
                            "t0": 264714, 
                            "v": 106, 
                            "dur": 96, 
                            "type": "note", 
                            "channel": 0
                        }, 
                        {
                            "pitch": 44, 
                            "t0": 264714, 
                            "v": 103, 
                            "dur": 120, 
                            "type": "note", 
                            "channel": 0
                        }
                    ]
                ], 
                [
                    264849, 
                    [
                        {
                            "pitch": 72, 
                            "t0": 264849, 
                            "v": 112, 
                            "dur": 66, 
                            "type": "note", 
                            "channel": 0
                        }
                    ]
                ], 
                [
                    264852, 
                    [
                        {
                            "pitch": 84, 
                            "t0": 264852, 
                            "v": 102, 
                            "dur": 36, 
                            "type": "note", 
                            "channel": 0
                        }
                    ]
                ], 
                [
                    264990, 
                    [
                        {
                            "pitch": 70, 
                            "t0": 264990, 
                            "v": 117, 
                            "dur": 81, 
                            "type": "note", 
                            "channel": 0
                        }, 
                        {
                            "pitch": 44, 
                            "t0": 264990, 
                            "v": 110, 
                            "dur": 115, 
                            "type": "note", 
                            "channel": 0
                        }, 
                        {
                            "pitch": 53, 
                            "t0": 264990, 
                            "v": 120, 
                            "dur": 142, 
                            "type": "note", 
                            "channel": 0
                        }
                    ]
                ], 
                [
                    264996, 
                    [
                        {
                            "pitch": 82, 
                            "t0": 264996, 
                            "v": 115, 
                            "dur": 69, 
                            "type": "note", 
                            "channel": 0
                        }, 
                        {
                            "pitch": 41, 
                            "t0": 264996, 
                            "v": 111, 
                            "dur": 109, 
                            "type": "note", 
                            "channel": 0
                        }
                    ]
                ], 
                [
                    265136, 
                    [
                        {
                            "pitch": 80, 
                            "t0": 265136, 
                            "v": 104, 
                            "dur": 61, 
                            "type": "note", 
                            "channel": 0
                        }, 
                        {
                            "pitch": 68, 
                            "t0": 265136, 
                            "v": 106, 
                            "dur": 66, 
                            "type": "note", 
                            "channel": 0
                        }
                    ]
                ], 
                [
                    265277, 
                    [
                        {
                            "pitch": 84, 
                            "t0": 265277, 
                            "v": 114, 
                            "dur": 33, 
                            "type": "note", 
                            "channel": 0
                        }, 
                        {
                            "pitch": 55, 
                            "t0": 265277, 
                            "v": 121, 
                            "dur": 107, 
                            "type": "note", 
                            "channel": 0
                        }, 
                        {
                            "pitch": 46, 
                            "t0": 265277, 
                            "v": 119, 
                            "dur": 129, 
                            "type": "note", 
                            "channel": 0
                        }
                    ]
                ], 
                [
                    265281, 
                    [
                        {
                            "pitch": 72, 
                            "t0": 265281, 
                            "v": 110, 
                            "dur": 57, 
                            "type": "note", 
                            "channel": 0
                        }, 
                        {
                            "pitch": 43, 
                            "t0": 265281, 
                            "v": 111, 
                            "dur": 106, 
                            "type": "note", 
                            "channel": 0
                        }
                    ]
                ], 
                [
                    265414, 
                    [
                        {
                            "pitch": 82, 
                            "t0": 265414, 
                            "v": 115, 
                            "dur": 51, 
                            "type": "note", 
                            "channel": 0
                        }, 
                        {
                            "pitch": 70, 
                            "t0": 265414, 
                            "v": 116, 
                            "dur": 62, 
                            "type": "note", 
                            "channel": 0
                        }
                    ]
                ], 
                [
                    265553, 
                    [
                        {
                            "pitch": 51, 
                            "t0": 265553, 
                            "v": 115, 
                            "dur": 120, 
                            "type": "note", 
                            "channel": 0
                        }
                    ]
                ], 
                [
                    265559, 
                    [
                        {
                            "pitch": 80, 
                            "t0": 265559, 
                            "v": 104, 
                            "dur": 73, 
                            "type": "note", 
                            "channel": 0
                        }, 
                        {
                            "pitch": 68, 
                            "t0": 265559, 
                            "v": 106, 
                            "dur": 78, 
                            "type": "note", 
                            "channel": 0
                        }, 
                        {
                            "pitch": 43, 
                            "t0": 265559, 
                            "v": 103, 
                            "dur": 91, 
                            "type": "note", 
                            "channel": 0
                        }, 
                        {
                            "pitch": 39, 
                            "t0": 265559, 
                            "v": 100, 
                            "dur": 114, 
                            "type": "note", 
                            "channel": 0
                        }
                    ]
                ], 
                [
                    265704, 
                    [
                        {
                            "pitch": 67, 
                            "t0": 265704, 
                            "v": 105, 
                            "dur": 27, 
                            "type": "note", 
                            "channel": 0
                        }, 
                        {
                            "pitch": 79, 
                            "t0": 265704, 
                            "v": 109, 
                            "dur": 52, 
                            "type": "note", 
                            "channel": 0
                        }
                    ]
                ], 
                [
                    265837, 
                    [
                        {
                            "pitch": 82, 
                            "t0": 265837, 
                            "v": 118, 
                            "dur": 48, 
                            "type": "note", 
                            "channel": 0
                        }, 
                        {
                            "pitch": 70, 
                            "t0": 265837, 
                            "v": 116, 
                            "dur": 48, 
                            "type": "note", 
                            "channel": 0
                        }, 
                        {
                            "pitch": 53, 
                            "t0": 265837, 
                            "v": 115, 
                            "dur": 58, 
                            "type": "note", 
                            "channel": 0
                        }
                    ]
                ], 
                [
                    265841, 
                    [
                        {
                            "pitch": 44, 
                            "t0": 265841, 
                            "v": 100, 
                            "dur": 77, 
                            "type": "note", 
                            "channel": 0
                        }, 
                        {
                            "pitch": 41, 
                            "t0": 265841, 
                            "v": 106, 
                            "dur": 94, 
                            "type": "note", 
                            "channel": 0
                        }
                    ]
                ], 
                [
                    265974, 
                    [
                        {
                            "pitch": 68, 
                            "t0": 265974, 
                            "v": 107, 
                            "dur": 81, 
                            "type": "note", 
                            "channel": 0
                        }
                    ]
                ], 
                [
                    265980, 
                    [
                        {
                            "pitch": 80, 
                            "t0": 265980, 
                            "v": 99, 
                            "dur": 55, 
                            "type": "note", 
                            "channel": 0
                        }
                    ]
                ], 
                [
                    266139, 
                    [
                        {
                            "pitch": 65, 
                            "t0": 266139, 
                            "v": 119, 
                            "dur": 82, 
                            "type": "note", 
                            "channel": 0
                        }
                    ]
                ], 
                [
                    266143, 
                    [
                        {
                            "pitch": 50, 
                            "t0": 266143, 
                            "v": 117, 
                            "dur": 109, 
                            "type": "note", 
                            "channel": 0
                        }
                    ]
                ], 
                [
                    266149, 
                    [
                        {
                            "pitch": 41, 
                            "t0": 266149, 
                            "v": 103, 
                            "dur": 98, 
                            "type": "note", 
                            "channel": 0
                        }, 
                        {
                            "pitch": 38, 
                            "t0": 266149, 
                            "v": 100, 
                            "dur": 128, 
                            "type": "note", 
                            "channel": 0
                        }
                    ]
                ], 
                [
                    266289, 
                    [
                        {
                            "pitch": 79, 
                            "t0": 266289, 
                            "v": 100, 
                            "dur": 25, 
                            "type": "note", 
                            "channel": 0
                        }
                    ]
                ], 
                [
                    266422, 
                    [
                        {
                            "pitch": 63, 
                            "t0": 266422, 
                            "v": 110, 
                            "dur": 81, 
                            "type": "note", 
                            "channel": 0
                        }, 
                        {
                            "pitch": 48, 
                            "t0": 266422, 
                            "v": 117, 
                            "dur": 120, 
                            "type": "note", 
                            "channel": 0
                        }
                    ]
                ], 
                [
                    266426, 
                    [
                        {
                            "pitch": 39, 
                            "t0": 266426, 
                            "v": 103, 
                            "dur": 185, 
                            "type": "note", 
                            "channel": 0
                        }
                    ]
                ], 
                [
                    266431, 
                    [
                        {
                            "pitch": 36, 
                            "t0": 266431, 
                            "v": 97, 
                            "dur": 100, 
                            "type": "note", 
                            "channel": 0
                        }
                    ]
                ], 
                [
                    266551, 
                    [
                        {
                            "pitch": 79, 
                            "t0": 266551, 
                            "v": 113, 
                            "dur": 27, 
                            "type": "note", 
                            "channel": 0
                        }
                    ]
                ], 
                [
                    266682, 
                    [
                        {
                            "pitch": 62, 
                            "t0": 266682, 
                            "v": 115, 
                            "dur": 80, 
                            "type": "note", 
                            "channel": 0
                        }, 
                        {
                            "pitch": 38, 
                            "t0": 266682, 
                            "v": 107, 
                            "dur": 178, 
                            "type": "note", 
                            "channel": 0
                        }, 
                        {
                            "pitch": 47, 
                            "t0": 266682, 
                            "v": 108, 
                            "dur": 187, 
                            "type": "note", 
                            "channel": 0
                        }
                    ]
                ], 
                [
                    266695, 
                    [
                        {
                            "pitch": 35, 
                            "t0": 266695, 
                            "v": 90, 
                            "dur": 151, 
                            "type": "note", 
                            "channel": 0
                        }
                    ]
                ], 
                [
                    266829, 
                    [
                        {
                            "pitch": 79, 
                            "t0": 266829, 
                            "v": 104, 
                            "dur": 22, 
                            "type": "note", 
                            "channel": 0
                        }
                    ]
                ], 
                [
                    266954, 
                    [
                        {
                            "pitch": 63, 
                            "t0": 266954, 
                            "v": 112, 
                            "dur": 90, 
                            "type": "note", 
                            "channel": 0
                        }, 
                        {
                            "pitch": 48, 
                            "t0": 266954, 
                            "v": 118, 
                            "dur": 137, 
                            "type": "note", 
                            "channel": 0
                        }
                    ]
                ], 
                [
                    266957, 
                    [
                        {
                            "pitch": 39, 
                            "t0": 266957, 
                            "v": 106, 
                            "dur": 101, 
                            "type": "note", 
                            "channel": 0
                        }
                    ]
                ], 
                [
                    266965, 
                    [
                        {
                            "pitch": 36, 
                            "t0": 266965, 
                            "v": 101, 
                            "dur": 112, 
                            "type": "note", 
                            "channel": 0
                        }
                    ]
                ], 
                [
                    267091, 
                    [
                        {
                            "pitch": 79, 
                            "t0": 267091, 
                            "v": 111, 
                            "dur": 83, 
                            "type": "note", 
                            "channel": 0
                        }
                    ]
                ], 
                [
                    267228, 
                    [
                        {
                            "pitch": 50, 
                            "t0": 267228, 
                            "v": 115, 
                            "dur": 152, 
                            "type": "note", 
                            "channel": 0
                        }
                    ]
                ], 
                [
                    267235, 
                    [
                        {
                            "pitch": 65, 
                            "t0": 267235, 
                            "v": 119, 
                            "dur": 90, 
                            "type": "note", 
                            "channel": 0
                        }, 
                        {
                            "pitch": 38, 
                            "t0": 267235, 
                            "v": 99, 
                            "dur": 176, 
                            "type": "note", 
                            "channel": 0
                        }, 
                        {
                            "pitch": 41, 
                            "t0": 267235, 
                            "v": 99, 
                            "dur": 212, 
                            "type": "note", 
                            "channel": 0
                        }
                    ]
                ], 
                [
                    267380, 
                    [
                        {
                            "pitch": 79, 
                            "t0": 267380, 
                            "v": 107, 
                            "dur": 26, 
                            "type": "note", 
                            "channel": 0
                        }
                    ]
                ], 
                [
                    267509, 
                    [
                        {
                            "pitch": 63, 
                            "t0": 267509, 
                            "v": 111, 
                            "dur": 91, 
                            "type": "note", 
                            "channel": 0
                        }, 
                        {
                            "pitch": 48, 
                            "t0": 267509, 
                            "v": 117, 
                            "dur": 147, 
                            "type": "note", 
                            "channel": 0
                        }, 
                        {
                            "pitch": 39, 
                            "t0": 267509, 
                            "v": 100, 
                            "dur": 167, 
                            "type": "note", 
                            "channel": 0
                        }
                    ]
                ], 
                [
                    267522, 
                    [
                        {
                            "pitch": 36, 
                            "t0": 267522, 
                            "v": 97, 
                            "dur": 112, 
                            "type": "note", 
                            "channel": 0
                        }
                    ]
                ], 
                [
                    267648, 
                    [
                        {
                            "pitch": 79, 
                            "t0": 267648, 
                            "v": 112, 
                            "dur": 72, 
                            "type": "note", 
                            "channel": 0
                        }
                    ]
                ], 
                [
                    267784, 
                    [
                        {
                            "pitch": 41, 
                            "t0": 267784, 
                            "v": 106, 
                            "dur": 76, 
                            "type": "note", 
                            "channel": 0
                        }, 
                        {
                            "pitch": 65, 
                            "t0": 267784, 
                            "v": 115, 
                            "dur": 98, 
                            "type": "note", 
                            "channel": 0
                        }
                    ]
                ], 
                [
                    267789, 
                    [
                        {
                            "pitch": 50, 
                            "t0": 267789, 
                            "v": 111, 
                            "dur": 123, 
                            "type": "note", 
                            "channel": 0
                        }
                    ]
                ], 
                [
                    267798, 
                    [
                        {
                            "pitch": 38, 
                            "t0": 267798, 
                            "v": 98, 
                            "dur": 93, 
                            "type": "note", 
                            "channel": 0
                        }
                    ]
                ], 
                [
                    267922, 
                    [
                        {
                            "pitch": 79, 
                            "t0": 267922, 
                            "v": 101, 
                            "dur": 80, 
                            "type": "note", 
                            "channel": 0
                        }
                    ]
                ], 
                [
                    268054, 
                    [
                        {
                            "pitch": 67, 
                            "t0": 268054, 
                            "v": 111, 
                            "dur": 141, 
                            "type": "note", 
                            "channel": 0
                        }, 
                        {
                            "pitch": 52, 
                            "t0": 268054, 
                            "v": 111, 
                            "dur": 176, 
                            "type": "note", 
                            "channel": 0
                        }, 
                        {
                            "pitch": 72, 
                            "t0": 268054, 
                            "v": 110, 
                            "dur": 176, 
                            "type": "note", 
                            "channel": 0
                        }
                    ]
                ], 
                [
                    268059, 
                    [
                        {
                            "pitch": 48, 
                            "t0": 268059, 
                            "v": 103, 
                            "dur": 136, 
                            "type": "note", 
                            "channel": 0
                        }, 
                        {
                            "pitch": 43, 
                            "t0": 268059, 
                            "v": 91, 
                            "dur": 168, 
                            "type": "note", 
                            "channel": 0
                        }
                    ]
                ], 
                [
                    268074, 
                    [
                        {
                            "pitch": 40, 
                            "t0": 268074, 
                            "v": 80, 
                            "dur": 145, 
                            "type": "note", 
                            "channel": 0
                        }
                    ]
                ], 
                [
                    268192, 
                    [
                        {
                            "pitch": 79, 
                            "t0": 268192, 
                            "v": 104, 
                            "dur": 66, 
                            "type": "note", 
                            "channel": 0
                        }
                    ]
                ], 
                [
                    268333, 
                    [
                        {
                            "pitch": 68, 
                            "t0": 268333, 
                            "v": 110, 
                            "dur": 143, 
                            "type": "note", 
                            "channel": 0
                        }
                    ]
                ], 
                [
                    268339, 
                    [
                        {
                            "pitch": 72, 
                            "t0": 268339, 
                            "v": 114, 
                            "dur": 133, 
                            "type": "note", 
                            "channel": 0
                        }, 
                        {
                            "pitch": 53, 
                            "t0": 268339, 
                            "v": 115, 
                            "dur": 137, 
                            "type": "note", 
                            "channel": 0
                        }, 
                        {
                            "pitch": 44, 
                            "t0": 268339, 
                            "v": 100, 
                            "dur": 168, 
                            "type": "note", 
                            "channel": 0
                        }
                    ]
                ], 
                [
                    268342, 
                    [
                        {
                            "pitch": 48, 
                            "t0": 268342, 
                            "v": 101, 
                            "dur": 134, 
                            "type": "note", 
                            "channel": 0
                        }
                    ]
                ], 
                [
                    268348, 
                    [
                        {
                            "pitch": 41, 
                            "t0": 268348, 
                            "v": 97, 
                            "dur": 150, 
                            "type": "note", 
                            "channel": 0
                        }
                    ]
                ], 
                [
                    268498, 
                    [
                        {
                            "pitch": 80, 
                            "t0": 268498, 
                            "v": 98, 
                            "dur": 34, 
                            "type": "note", 
                            "channel": 0
                        }
                    ]
                ], 
                [
                    268643, 
                    [
                        {
                            "pitch": 48, 
                            "t0": 268643, 
                            "v": 106, 
                            "dur": 175, 
                            "type": "note", 
                            "channel": 0
                        }, 
                        {
                            "pitch": 52, 
                            "t0": 268643, 
                            "v": 121, 
                            "dur": 211, 
                            "type": "note", 
                            "channel": 0
                        }
                    ]
                ], 
                [
                    268649, 
                    [
                        {
                            "pitch": 43, 
                            "t0": 268649, 
                            "v": 97, 
                            "dur": 164, 
                            "type": "note", 
                            "channel": 0
                        }
                    ]
                ], 
                [
                    268653, 
                    [
                        {
                            "pitch": 40, 
                            "t0": 268653, 
                            "v": 104, 
                            "dur": 173, 
                            "type": "note", 
                            "channel": 0
                        }
                    ]
                ], 
                [
                    268658, 
                    [
                        {
                            "pitch": 79, 
                            "t0": 268658, 
                            "v": 106, 
                            "dur": 171, 
                            "type": "note", 
                            "channel": 0
                        }
                    ]
                ], 
                [
                    268662, 
                    [
                        {
                            "pitch": 72, 
                            "t0": 268662, 
                            "v": 112, 
                            "dur": 126, 
                            "type": "note", 
                            "channel": 0
                        }
                    ]
                ], 
                [
                    268804, 
                    [
                        {
                            "pitch": 84, 
                            "t0": 268804, 
                            "v": 106, 
                            "dur": 93, 
                            "type": "note", 
                            "channel": 0
                        }
                    ]
                ], 
                [
                    268813, 
                    [
                        {
                            "pitch": 82, 
                            "t0": 268813, 
                            "v": 41, 
                            "dur": 49, 
                            "type": "note", 
                            "channel": 0
                        }
                    ]
                ], 
                [
                    268933, 
                    [
                        {
                            "pitch": 53, 
                            "t0": 268933, 
                            "v": 116, 
                            "dur": 189, 
                            "type": "note", 
                            "channel": 0
                        }, 
                        {
                            "pitch": 80, 
                            "t0": 268933, 
                            "v": 106, 
                            "dur": 350, 
                            "type": "note", 
                            "channel": 0
                        }
                    ]
                ], 
                [
                    268937, 
                    [
                        {
                            "pitch": 72, 
                            "t0": 268937, 
                            "v": 113, 
                            "dur": 148, 
                            "type": "note", 
                            "channel": 0
                        }, 
                        {
                            "pitch": 41, 
                            "t0": 268937, 
                            "v": 101, 
                            "dur": 159, 
                            "type": "note", 
                            "channel": 0
                        }
                    ]
                ], 
                [
                    268940, 
                    [
                        {
                            "pitch": 48, 
                            "t0": 268940, 
                            "v": 103, 
                            "dur": 140, 
                            "type": "note", 
                            "channel": 0
                        }, 
                        {
                            "pitch": 44, 
                            "t0": 268940, 
                            "v": 94, 
                            "dur": 182, 
                            "type": "note", 
                            "channel": 0
                        }
                    ]
                ], 
                [
                    269075, 
                    [
                        {
                            "pitch": 84, 
                            "t0": 269075, 
                            "v": 109, 
                            "dur": 83, 
                            "type": "note", 
                            "channel": 0
                        }
                    ]
                ], 
                [
                    269117, 
                    [
                        {
                            "pitch": 82, 
                            "t0": 269117, 
                            "v": 35, 
                            "dur": 61, 
                            "type": "note", 
                            "channel": 0
                        }
                    ]
                ], 
                [
                    269209, 
                    [
                        {
                            "pitch": 55, 
                            "t0": 269209, 
                            "v": 114, 
                            "dur": 160, 
                            "type": "note", 
                            "channel": 0
                        }
                    ]
                ], 
                [
                    269213, 
                    [
                        {
                            "pitch": 43, 
                            "t0": 269213, 
                            "v": 103, 
                            "dur": 114, 
                            "type": "note", 
                            "channel": 0
                        }, 
                        {
                            "pitch": 71, 
                            "t0": 269213, 
                            "v": 104, 
                            "dur": 156, 
                            "type": "note", 
                            "channel": 0
                        }
                    ]
                ], 
                [
                    269216, 
                    [
                        {
                            "pitch": 47, 
                            "t0": 269216, 
                            "v": 92, 
                            "dur": 121, 
                            "type": "note", 
                            "channel": 0
                        }, 
                        {
                            "pitch": 77, 
                            "t0": 269216, 
                            "v": 112, 
                            "dur": 164, 
                            "type": "note", 
                            "channel": 0
                        }
                    ]
                ], 
                [
                    269356, 
                    [
                        {
                            "pitch": 83, 
                            "t0": 269356, 
                            "v": 92, 
                            "dur": 192, 
                            "type": "note", 
                            "channel": 0
                        }
                    ]
                ], 
                [
                    269490, 
                    [
                        {
                            "pitch": 56, 
                            "t0": 269490, 
                            "v": 115, 
                            "dur": 138, 
                            "type": "note", 
                            "channel": 0
                        }, 
                        {
                            "pitch": 72, 
                            "t0": 269490, 
                            "v": 115, 
                            "dur": 145, 
                            "type": "note", 
                            "channel": 0
                        }, 
                        {
                            "pitch": 77, 
                            "t0": 269490, 
                            "v": 115, 
                            "dur": 158, 
                            "type": "note", 
                            "channel": 0
                        }
                    ]
                ], 
                [
                    269498, 
                    [
                        {
                            "pitch": 48, 
                            "t0": 269498, 
                            "v": 103, 
                            "dur": 111, 
                            "type": "note", 
                            "channel": 0
                        }, 
                        {
                            "pitch": 44, 
                            "t0": 269498, 
                            "v": 97, 
                            "dur": 161, 
                            "type": "note", 
                            "channel": 0
                        }
                    ]
                ], 
                [
                    269632, 
                    [
                        {
                            "pitch": 84, 
                            "t0": 269632, 
                            "v": 104, 
                            "dur": 70, 
                            "type": "note", 
                            "channel": 0
                        }
                    ]
                ], 
                [
                    269756, 
                    [
                        {
                            "pitch": 55, 
                            "t0": 269756, 
                            "v": 119, 
                            "dur": 145, 
                            "type": "note", 
                            "channel": 0
                        }, 
                        {
                            "pitch": 47, 
                            "t0": 269756, 
                            "v": 95, 
                            "dur": 154, 
                            "type": "note", 
                            "channel": 0
                        }, 
                        {
                            "pitch": 71, 
                            "t0": 269756, 
                            "v": 106, 
                            "dur": 166, 
                            "type": "note", 
                            "channel": 0
                        }
                    ]
                ], 
                [
                    269760, 
                    [
                        {
                            "pitch": 43, 
                            "t0": 269760, 
                            "v": 104, 
                            "dur": 114, 
                            "type": "note", 
                            "channel": 0
                        }, 
                        {
                            "pitch": 77, 
                            "t0": 269760, 
                            "v": 113, 
                            "dur": 181, 
                            "type": "note", 
                            "channel": 0
                        }
                    ]
                ], 
                [
                    269901, 
                    [
                        {
                            "pitch": 83, 
                            "t0": 269901, 
                            "v": 92, 
                            "dur": 181, 
                            "type": "note", 
                            "channel": 0
                        }
                    ]
                ], 
                [
                    270028, 
                    [
                        {
                            "pitch": 77, 
                            "t0": 270028, 
                            "v": 108, 
                            "dur": 178, 
                            "type": "note", 
                            "channel": 0
                        }
                    ]
                ], 
                [
                    270035, 
                    [
                        {
                            "pitch": 48, 
                            "t0": 270035, 
                            "v": 100, 
                            "dur": 82, 
                            "type": "note", 
                            "channel": 0
                        }, 
                        {
                            "pitch": 56, 
                            "t0": 270035, 
                            "v": 114, 
                            "dur": 134, 
                            "type": "note", 
                            "channel": 0
                        }, 
                        {
                            "pitch": 72, 
                            "t0": 270035, 
                            "v": 112, 
                            "dur": 149, 
                            "type": "note", 
                            "channel": 0
                        }
                    ]
                ], 
                [
                    270044, 
                    [
                        {
                            "pitch": 44, 
                            "t0": 270044, 
                            "v": 91, 
                            "dur": 103, 
                            "type": "note", 
                            "channel": 0
                        }
                    ]
                ], 
                [
                    270180, 
                    [
                        {
                            "pitch": 84, 
                            "t0": 270180, 
                            "v": 100, 
                            "dur": 73, 
                            "type": "note", 
                            "channel": 0
                        }
                    ]
                ], 
                [
                    270305, 
                    [
                        {
                            "pitch": 74, 
                            "t0": 270305, 
                            "v": 108, 
                            "dur": 106, 
                            "type": "note", 
                            "channel": 0
                        }, 
                        {
                            "pitch": 59, 
                            "t0": 270305, 
                            "v": 111, 
                            "dur": 171, 
                            "type": "note", 
                            "channel": 0
                        }
                    ]
                ], 
                [
                    270309, 
                    [
                        {
                            "pitch": 47, 
                            "t0": 270309, 
                            "v": 99, 
                            "dur": 141, 
                            "type": "note", 
                            "channel": 0
                        }, 
                        {
                            "pitch": 50, 
                            "t0": 270309, 
                            "v": 106, 
                            "dur": 147, 
                            "type": "note", 
                            "channel": 0
                        }
                    ]
                ], 
                [
                    270312, 
                    [
                        {
                            "pitch": 79, 
                            "t0": 270312, 
                            "v": 110, 
                            "dur": 121, 
                            "type": "note", 
                            "channel": 0
                        }
                    ]
                ], 
                [
                    270316, 
                    [
                        {
                            "pitch": 77, 
                            "t0": 270316, 
                            "v": 106, 
                            "dur": 88, 
                            "type": "note", 
                            "channel": 0
                        }
                    ]
                ], 
                [
                    270439, 
                    [
                        {
                            "pitch": 86, 
                            "t0": 270439, 
                            "v": 74, 
                            "dur": 31, 
                            "type": "note", 
                            "channel": 0
                        }
                    ]
                ], 
                [
                    270634, 
                    [
                        {
                            "pitch": 60, 
                            "t0": 270634, 
                            "v": 122, 
                            "dur": 53, 
                            "type": "note", 
                            "channel": 0
                        }
                    ]
                ], 
                [
                    270638, 
                    [
                        {
                            "pitch": 55, 
                            "t0": 270638, 
                            "v": 107, 
                            "dur": 71, 
                            "type": "note", 
                            "channel": 0
                        }, 
                        {
                            "pitch": 51, 
                            "t0": 270638, 
                            "v": 106, 
                            "dur": 88, 
                            "type": "note", 
                            "channel": 0
                        }, 
                        {
                            "pitch": 48, 
                            "t0": 270638, 
                            "v": 115, 
                            "dur": 96, 
                            "type": "note", 
                            "channel": 0
                        }
                    ]
                ], 
                [
                    270641, 
                    [
                        {
                            "pitch": 63, 
                            "t0": 270641, 
                            "v": 114, 
                            "dur": 197, 
                            "type": "note", 
                            "channel": 0
                        }
                    ]
                ], 
                [
                    270648, 
                    [
                        {
                            "pitch": 75, 
                            "t0": 270648, 
                            "v": 111, 
                            "dur": 121, 
                            "type": "note", 
                            "channel": 0
                        }
                    ]
                ], 
                [
                    270847, 
                    [
                        {
                            "pitch": 48, 
                            "t0": 270847, 
                            "v": 113, 
                            "dur": 68, 
                            "type": "note", 
                            "channel": 0
                        }, 
                        {
                            "pitch": 36, 
                            "t0": 270847, 
                            "v": 114, 
                            "dur": 75, 
                            "type": "note", 
                            "channel": 0
                        }
                    ]
                ], 
                [
                    270991, 
                    [
                        {
                            "pitch": 48, 
                            "t0": 270991, 
                            "v": 101, 
                            "dur": 62, 
                            "type": "note", 
                            "channel": 0
                        }, 
                        {
                            "pitch": 72, 
                            "t0": 270991, 
                            "v": 113, 
                            "dur": 189, 
                            "type": "note", 
                            "channel": 0
                        }
                    ]
                ], 
                [
                    270994, 
                    [
                        {
                            "pitch": 36, 
                            "t0": 270994, 
                            "v": 94, 
                            "dur": 56, 
                            "type": "note", 
                            "channel": 0
                        }, 
                        {
                            "pitch": 60, 
                            "t0": 270994, 
                            "v": 108, 
                            "dur": 142, 
                            "type": "note", 
                            "channel": 0
                        }
                    ]
                ], 
                [
                    271130, 
                    [
                        {
                            "pitch": 36, 
                            "t0": 271130, 
                            "v": 92, 
                            "dur": 73, 
                            "type": "note", 
                            "channel": 0
                        }, 
                        {
                            "pitch": 48, 
                            "t0": 271130, 
                            "v": 100, 
                            "dur": 73, 
                            "type": "note", 
                            "channel": 0
                        }
                    ]
                ], 
                [
                    271267, 
                    [
                        {
                            "pitch": 62, 
                            "t0": 271267, 
                            "v": 113, 
                            "dur": 97, 
                            "type": "note", 
                            "channel": 0
                        }, 
                        {
                            "pitch": 74, 
                            "t0": 271267, 
                            "v": 119, 
                            "dur": 108, 
                            "type": "note", 
                            "channel": 0
                        }
                    ]
                ], 
                [
                    271280, 
                    [
                        {
                            "pitch": 36, 
                            "t0": 271280, 
                            "v": 100, 
                            "dur": 54, 
                            "type": "note", 
                            "channel": 0
                        }, 
                        {
                            "pitch": 48, 
                            "t0": 271280, 
                            "v": 107, 
                            "dur": 81, 
                            "type": "note", 
                            "channel": 0
                        }
                    ]
                ], 
                [
                    271542, 
                    [
                        {
                            "pitch": 63, 
                            "t0": 271542, 
                            "v": 114, 
                            "dur": 64, 
                            "type": "note", 
                            "channel": 0
                        }, 
                        {
                            "pitch": 75, 
                            "t0": 271542, 
                            "v": 111, 
                            "dur": 118, 
                            "type": "note", 
                            "channel": 0
                        }
                    ]
                ], 
                [
                    271804, 
                    [
                        {
                            "pitch": 60, 
                            "t0": 271804, 
                            "v": 120, 
                            "dur": 61, 
                            "type": "note", 
                            "channel": 0
                        }, 
                        {
                            "pitch": 48, 
                            "t0": 271804, 
                            "v": 110, 
                            "dur": 84, 
                            "type": "note", 
                            "channel": 0
                        }
                    ]
                ], 
                [
                    271810, 
                    [
                        {
                            "pitch": 53, 
                            "t0": 271810, 
                            "v": 93, 
                            "dur": 36, 
                            "type": "note", 
                            "channel": 0
                        }, 
                        {
                            "pitch": 56, 
                            "t0": 271810, 
                            "v": 103, 
                            "dur": 87, 
                            "type": "note", 
                            "channel": 0
                        }, 
                        {
                            "pitch": 77, 
                            "t0": 271810, 
                            "v": 119, 
                            "dur": 133, 
                            "type": "note", 
                            "channel": 0
                        }, 
                        {
                            "pitch": 65, 
                            "t0": 271810, 
                            "v": 119, 
                            "dur": 169, 
                            "type": "note", 
                            "channel": 0
                        }, 
                        {
                            "pitch": 68, 
                            "t0": 271810, 
                            "v": 110, 
                            "dur": 318, 
                            "type": "note", 
                            "channel": 0
                        }
                    ]
                ], 
                [
                    271979, 
                    [
                        {
                            "pitch": 44, 
                            "t0": 271979, 
                            "v": 101, 
                            "dur": 35, 
                            "type": "note", 
                            "channel": 0
                        }
                    ]
                ], 
                [
                    271983, 
                    [
                        {
                            "pitch": 48, 
                            "t0": 271983, 
                            "v": 101, 
                            "dur": 31, 
                            "type": "note", 
                            "channel": 0
                        }
                    ]
                ], 
                [
                    272085, 
                    [
                        {
                            "pitch": 62, 
                            "t0": 272085, 
                            "v": 108, 
                            "dur": 67, 
                            "type": "note", 
                            "channel": 0
                        }, 
                        {
                            "pitch": 74, 
                            "t0": 272085, 
                            "v": 110, 
                            "dur": 67, 
                            "type": "note", 
                            "channel": 0
                        }
                    ]
                ], 
                [
                    272096, 
                    [
                        {
                            "pitch": 48, 
                            "t0": 272096, 
                            "v": 92, 
                            "dur": 65, 
                            "type": "note", 
                            "channel": 0
                        }
                    ]
                ], 
                [
                    272105, 
                    [
                        {
                            "pitch": 44, 
                            "t0": 272105, 
                            "v": 84, 
                            "dur": 36, 
                            "type": "note", 
                            "channel": 0
                        }
                    ]
                ], 
                [
                    272222, 
                    [
                        {
                            "pitch": 48, 
                            "t0": 272222, 
                            "v": 99, 
                            "dur": 81, 
                            "type": "note", 
                            "channel": 0
                        }
                    ]
                ], 
                [
                    272225, 
                    [
                        {
                            "pitch": 44, 
                            "t0": 272225, 
                            "v": 92, 
                            "dur": 72, 
                            "type": "note", 
                            "channel": 0
                        }
                    ]
                ], 
                [
                    272362, 
                    [
                        {
                            "pitch": 63, 
                            "t0": 272362, 
                            "v": 112, 
                            "dur": 114, 
                            "type": "note", 
                            "channel": 0
                        }, 
                        {
                            "pitch": 72, 
                            "t0": 272362, 
                            "v": 111, 
                            "dur": 142, 
                            "type": "note", 
                            "channel": 0
                        }, 
                        {
                            "pitch": 75, 
                            "t0": 272362, 
                            "v": 107, 
                            "dur": 183, 
                            "type": "note", 
                            "channel": 0
                        }
                    ]
                ], 
                [
                    272365, 
                    [
                        {
                            "pitch": 48, 
                            "t0": 272365, 
                            "v": 104, 
                            "dur": 67, 
                            "type": "note", 
                            "channel": 0
                        }
                    ]
                ], 
                [
                    272368, 
                    [
                        {
                            "pitch": 44, 
                            "t0": 272368, 
                            "v": 92, 
                            "dur": 72, 
                            "type": "note", 
                            "channel": 0
                        }
                    ]
                ], 
                [
                    272626, 
                    [
                        {
                            "pitch": 65, 
                            "t0": 272626, 
                            "v": 117, 
                            "dur": 157, 
                            "type": "note", 
                            "channel": 0
                        }, 
                        {
                            "pitch": 77, 
                            "t0": 272626, 
                            "v": 117, 
                            "dur": 200, 
                            "type": "note", 
                            "channel": 0
                        }
                    ]
                ], 
                [
                    272899, 
                    [
                        {
                            "pitch": 60, 
                            "t0": 272899, 
                            "v": 120, 
                            "dur": 51, 
                            "type": "note", 
                            "channel": 0
                        }, 
                        {
                            "pitch": 67, 
                            "t0": 272899, 
                            "v": 115, 
                            "dur": 107, 
                            "type": "note", 
                            "channel": 0
                        }, 
                        {
                            "pitch": 79, 
                            "t0": 272899, 
                            "v": 120, 
                            "dur": 115, 
                            "type": "note", 
                            "channel": 0
                        }
                    ]
                ], 
                [
                    272902, 
                    [
                        {
                            "pitch": 51, 
                            "t0": 272902, 
                            "v": 117, 
                            "dur": 69, 
                            "type": "note", 
                            "channel": 0
                        }, 
                        {
                            "pitch": 72, 
                            "t0": 272902, 
                            "v": 112, 
                            "dur": 200, 
                            "type": "note", 
                            "channel": 0
                        }
                    ]
                ], 
                [
                    273083, 
                    [
                        {
                            "pitch": 39, 
                            "t0": 273083, 
                            "v": 106, 
                            "dur": 26, 
                            "type": "note", 
                            "channel": 0
                        }
                    ]
                ], 
                [
                    273099, 
                    [
                        {
                            "pitch": 48, 
                            "t0": 273099, 
                            "v": 91, 
                            "dur": 25, 
                            "type": "note", 
                            "channel": 0
                        }
                    ]
                ], 
                [
                    273189, 
                    [
                        {
                            "pitch": 63, 
                            "t0": 273189, 
                            "v": 109, 
                            "dur": 83, 
                            "type": "note", 
                            "channel": 0
                        }, 
                        {
                            "pitch": 75, 
                            "t0": 273189, 
                            "v": 107, 
                            "dur": 97, 
                            "type": "note", 
                            "channel": 0
                        }
                    ]
                ], 
                [
                    273195, 
                    [
                        {
                            "pitch": 48, 
                            "t0": 273195, 
                            "v": 75, 
                            "dur": 66, 
                            "type": "note", 
                            "channel": 0
                        }
                    ]
                ], 
                [
                    273200, 
                    [
                        {
                            "pitch": 39, 
                            "t0": 273200, 
                            "v": 105, 
                            "dur": 86, 
                            "type": "note", 
                            "channel": 0
                        }
                    ]
                ], 
                [
                    273322, 
                    [
                        {
                            "pitch": 48, 
                            "t0": 273322, 
                            "v": 102, 
                            "dur": 78, 
                            "type": "note", 
                            "channel": 0
                        }
                    ]
                ], 
                [
                    273326, 
                    [
                        {
                            "pitch": 39, 
                            "t0": 273326, 
                            "v": 106, 
                            "dur": 74, 
                            "type": "note", 
                            "channel": 0
                        }
                    ]
                ], 
                [
                    273464, 
                    [
                        {
                            "pitch": 65, 
                            "t0": 273464, 
                            "v": 119, 
                            "dur": 115, 
                            "type": "note", 
                            "channel": 0
                        }, 
                        {
                            "pitch": 77, 
                            "t0": 273464, 
                            "v": 119, 
                            "dur": 159, 
                            "type": "note", 
                            "channel": 0
                        }
                    ]
                ], 
                [
                    273467, 
                    [
                        {
                            "pitch": 72, 
                            "t0": 273467, 
                            "v": 113, 
                            "dur": 156, 
                            "type": "note", 
                            "channel": 0
                        }
                    ]
                ], 
                [
                    273471, 
                    [
                        {
                            "pitch": 48, 
                            "t0": 273471, 
                            "v": 99, 
                            "dur": 71, 
                            "type": "note", 
                            "channel": 0
                        }
                    ]
                ], 
                [
                    273476, 
                    [
                        {
                            "pitch": 39, 
                            "t0": 273476, 
                            "v": 97, 
                            "dur": 70, 
                            "type": "note", 
                            "channel": 0
                        }
                    ]
                ], 
                [
                    273710, 
                    [
                        {
                            "pitch": 79, 
                            "t0": 273710, 
                            "v": 116, 
                            "dur": 128, 
                            "type": "note", 
                            "channel": 0
                        }
                    ]
                ], 
                [
                    273713, 
                    [
                        {
                            "pitch": 67, 
                            "t0": 273713, 
                            "v": 117, 
                            "dur": 109, 
                            "type": "note", 
                            "channel": 0
                        }
                    ]
                ], 
                [
                    273982, 
                    [
                        {
                            "pitch": 80, 
                            "t0": 273982, 
                            "v": 113, 
                            "dur": 171, 
                            "type": "note", 
                            "channel": 0
                        }
                    ]
                ], 
                [
                    273985, 
                    [
                        {
                            "pitch": 53, 
                            "t0": 273985, 
                            "v": 121, 
                            "dur": 82, 
                            "type": "note", 
                            "channel": 0
                        }, 
                        {
                            "pitch": 68, 
                            "t0": 273985, 
                            "v": 114, 
                            "dur": 160, 
                            "type": "note", 
                            "channel": 0
                        }, 
                        {
                            "pitch": 72, 
                            "t0": 273985, 
                            "v": 108, 
                            "dur": 232, 
                            "type": "note", 
                            "channel": 0
                        }
                    ]
                ], 
                [
                    273991, 
                    [
                        {
                            "pitch": 41, 
                            "t0": 273991, 
                            "v": 117, 
                            "dur": 65, 
                            "type": "note", 
                            "channel": 0
                        }
                    ]
                ], 
                [
                    274113, 
                    [
                        {
                            "pitch": 53, 
                            "t0": 274113, 
                            "v": 64, 
                            "dur": 71, 
                            "type": "note", 
                            "channel": 0
                        }
                    ]
                ], 
                [
                    274131, 
                    [
                        {
                            "pitch": 44, 
                            "t0": 274131, 
                            "v": 85, 
                            "dur": 30, 
                            "type": "note", 
                            "channel": 0
                        }
                    ]
                ], 
                [
                    274236, 
                    [
                        {
                            "pitch": 48, 
                            "t0": 274236, 
                            "v": 105, 
                            "dur": 78, 
                            "type": "note", 
                            "channel": 0
                        }, 
                        {
                            "pitch": 65, 
                            "t0": 274236, 
                            "v": 115, 
                            "dur": 103, 
                            "type": "note", 
                            "channel": 0
                        }, 
                        {
                            "pitch": 77, 
                            "t0": 274236, 
                            "v": 112, 
                            "dur": 178, 
                            "type": "note", 
                            "channel": 0
                        }
                    ]
                ], 
                [
                    274242, 
                    [
                        {
                            "pitch": 44, 
                            "t0": 274242, 
                            "v": 79, 
                            "dur": 72, 
                            "type": "note", 
                            "channel": 0
                        }
                    ]
                ], 
                [
                    274362, 
                    [
                        {
                            "pitch": 44, 
                            "t0": 274362, 
                            "v": 98, 
                            "dur": 69, 
                            "type": "note", 
                            "channel": 0
                        }
                    ]
                ], 
                [
                    274365, 
                    [
                        {
                            "pitch": 48, 
                            "t0": 274365, 
                            "v": 99, 
                            "dur": 31, 
                            "type": "note", 
                            "channel": 0
                        }
                    ]
                ], 
                [
                    274528, 
                    [
                        {
                            "pitch": 67, 
                            "t0": 274528, 
                            "v": 117, 
                            "dur": 174, 
                            "type": "note", 
                            "channel": 0
                        }, 
                        {
                            "pitch": 79, 
                            "t0": 274528, 
                            "v": 119, 
                            "dur": 205, 
                            "type": "note", 
                            "channel": 0
                        }
                    ]
                ], 
                [
                    274531, 
                    [
                        {
                            "pitch": 72, 
                            "t0": 274531, 
                            "v": 112, 
                            "dur": 181, 
                            "type": "note", 
                            "channel": 0
                        }
                    ]
                ], 
                [
                    274537, 
                    [
                        {
                            "pitch": 39, 
                            "t0": 274537, 
                            "v": 105, 
                            "dur": 298, 
                            "type": "note", 
                            "channel": 0
                        }
                    ]
                ], 
                [
                    274543, 
                    [
                        {
                            "pitch": 43, 
                            "t0": 274543, 
                            "v": 108, 
                            "dur": 214, 
                            "type": "note", 
                            "channel": 0
                        }, 
                        {
                            "pitch": 51, 
                            "t0": 274543, 
                            "v": 118, 
                            "dur": 244, 
                            "type": "note", 
                            "channel": 0
                        }
                    ]
                ], 
                [
                    274808, 
                    [
                        {
                            "pitch": 81, 
                            "t0": 274808, 
                            "v": 117, 
                            "dur": 209, 
                            "type": "note", 
                            "channel": 0
                        }
                    ]
                ], 
                [
                    274811, 
                    [
                        {
                            "pitch": 69, 
                            "t0": 274811, 
                            "v": 114, 
                            "dur": 163, 
                            "type": "note", 
                            "channel": 0
                        }
                    ]
                ], 
                [
                    275089, 
                    [
                        {
                            "pitch": 50, 
                            "t0": 275089, 
                            "v": 123, 
                            "dur": 95, 
                            "type": "note", 
                            "channel": 0
                        }, 
                        {
                            "pitch": 83, 
                            "t0": 275089, 
                            "v": 112, 
                            "dur": 126, 
                            "type": "note", 
                            "channel": 0
                        }, 
                        {
                            "pitch": 77, 
                            "t0": 275089, 
                            "v": 114, 
                            "dur": 186, 
                            "type": "note", 
                            "channel": 0
                        }
                    ]
                ], 
                [
                    275092, 
                    [
                        {
                            "pitch": 38, 
                            "t0": 275092, 
                            "v": 115, 
                            "dur": 89, 
                            "type": "note", 
                            "channel": 0
                        }, 
                        {
                            "pitch": 71, 
                            "t0": 275092, 
                            "v": 109, 
                            "dur": 123, 
                            "type": "note", 
                            "channel": 0
                        }
                    ]
                ], 
                [
                    275116, 
                    [
                        {
                            "pitch": 42, 
                            "t0": 275116, 
                            "v": 54, 
                            "dur": 39, 
                            "type": "note", 
                            "channel": 0
                        }
                    ]
                ], 
                [
                    275231, 
                    [
                        {
                            "pitch": 43, 
                            "t0": 275231, 
                            "v": 96, 
                            "dur": 80, 
                            "type": "note", 
                            "channel": 0
                        }, 
                        {
                            "pitch": 47, 
                            "t0": 275231, 
                            "v": 88, 
                            "dur": 84, 
                            "type": "note", 
                            "channel": 0
                        }
                    ]
                ], 
                [
                    275347, 
                    [
                        {
                            "pitch": 67, 
                            "t0": 275347, 
                            "v": 119, 
                            "dur": 60, 
                            "type": "note", 
                            "channel": 0
                        }, 
                        {
                            "pitch": 79, 
                            "t0": 275347, 
                            "v": 117, 
                            "dur": 115, 
                            "type": "note", 
                            "channel": 0
                        }
                    ]
                ], 
                [
                    275359, 
                    [
                        {
                            "pitch": 43, 
                            "t0": 275359, 
                            "v": 95, 
                            "dur": 36, 
                            "type": "note", 
                            "channel": 0
                        }, 
                        {
                            "pitch": 47, 
                            "t0": 275359, 
                            "v": 90, 
                            "dur": 70, 
                            "type": "note", 
                            "channel": 0
                        }
                    ]
                ], 
                [
                    275479, 
                    [
                        {
                            "pitch": 43, 
                            "t0": 275479, 
                            "v": 81, 
                            "dur": 50, 
                            "type": "note", 
                            "channel": 0
                        }, 
                        {
                            "pitch": 47, 
                            "t0": 275479, 
                            "v": 91, 
                            "dur": 64, 
                            "type": "note", 
                            "channel": 0
                        }
                    ]
                ], 
                [
                    275626, 
                    [
                        {
                            "pitch": 81, 
                            "t0": 275626, 
                            "v": 121, 
                            "dur": 182, 
                            "type": "note", 
                            "channel": 0
                        }
                    ]
                ], 
                [
                    275629, 
                    [
                        {
                            "pitch": 69, 
                            "t0": 275629, 
                            "v": 121, 
                            "dur": 147, 
                            "type": "note", 
                            "channel": 0
                        }, 
                        {
                            "pitch": 53, 
                            "t0": 275629, 
                            "v": 123, 
                            "dur": 220, 
                            "type": "note", 
                            "channel": 0
                        }
                    ]
                ], 
                [
                    275635, 
                    [
                        {
                            "pitch": 41, 
                            "t0": 275635, 
                            "v": 111, 
                            "dur": 272, 
                            "type": "note", 
                            "channel": 0
                        }, 
                        {
                            "pitch": 43, 
                            "t0": 275635, 
                            "v": 113, 
                            "dur": 286, 
                            "type": "note", 
                            "channel": 0
                        }
                    ]
                ], 
                [
                    275885, 
                    [
                        {
                            "pitch": 71, 
                            "t0": 275885, 
                            "v": 111, 
                            "dur": 120, 
                            "type": "note", 
                            "channel": 0
                        }, 
                        {
                            "pitch": 83, 
                            "t0": 275885, 
                            "v": 109, 
                            "dur": 131, 
                            "type": "note", 
                            "channel": 0
                        }
                    ]
                ], 
                [
                    276150, 
                    [
                        {
                            "pitch": 84, 
                            "t0": 276150, 
                            "v": 123, 
                            "dur": 81, 
                            "type": "note", 
                            "channel": 0
                        }, 
                        {
                            "pitch": 75, 
                            "t0": 276150, 
                            "v": 111, 
                            "dur": 127, 
                            "type": "note", 
                            "channel": 0
                        }, 
                        {
                            "pitch": 51, 
                            "t0": 276150, 
                            "v": 120, 
                            "dur": 133, 
                            "type": "note", 
                            "channel": 0
                        }
                    ]
                ], 
                [
                    276153, 
                    [
                        {
                            "pitch": 72, 
                            "t0": 276153, 
                            "v": 119, 
                            "dur": 97, 
                            "type": "note", 
                            "channel": 0
                        }
                    ]
                ], 
                [
                    276156, 
                    [
                        {
                            "pitch": 48, 
                            "t0": 276156, 
                            "v": 108, 
                            "dur": 141, 
                            "type": "note", 
                            "channel": 0
                        }, 
                        {
                            "pitch": 43, 
                            "t0": 276156, 
                            "v": 101, 
                            "dur": 158, 
                            "type": "note", 
                            "channel": 0
                        }
                    ]
                ], 
                [
                    276159, 
                    [
                        {
                            "pitch": 39, 
                            "t0": 276159, 
                            "v": 101, 
                            "dur": 147, 
                            "type": "note", 
                            "channel": 0
                        }
                    ]
                ], 
                [
                    276429, 
                    [
                        {
                            "pitch": 79, 
                            "t0": 276429, 
                            "v": 115, 
                            "dur": 200, 
                            "type": "note", 
                            "channel": 0
                        }
                    ]
                ], 
                [
                    276435, 
                    [
                        {
                            "pitch": 67, 
                            "t0": 276435, 
                            "v": 115, 
                            "dur": 181, 
                            "type": "note", 
                            "channel": 0
                        }
                    ]
                ], 
                [
                    276694, 
                    [
                        {
                            "pitch": 80, 
                            "t0": 276694, 
                            "v": 115, 
                            "dur": 142, 
                            "type": "note", 
                            "channel": 0
                        }
                    ]
                ], 
                [
                    276699, 
                    [
                        {
                            "pitch": 36, 
                            "t0": 276699, 
                            "v": 113, 
                            "dur": 45, 
                            "type": "note", 
                            "channel": 0
                        }, 
                        {
                            "pitch": 48, 
                            "t0": 276699, 
                            "v": 123, 
                            "dur": 86, 
                            "type": "note", 
                            "channel": 0
                        }, 
                        {
                            "pitch": 44, 
                            "t0": 276699, 
                            "v": 111, 
                            "dur": 86, 
                            "type": "note", 
                            "channel": 0
                        }, 
                        {
                            "pitch": 39, 
                            "t0": 276699, 
                            "v": 109, 
                            "dur": 105, 
                            "type": "note", 
                            "channel": 0
                        }, 
                        {
                            "pitch": 68, 
                            "t0": 276699, 
                            "v": 116, 
                            "dur": 173, 
                            "type": "note", 
                            "channel": 0
                        }, 
                        {
                            "pitch": 75, 
                            "t0": 276699, 
                            "v": 103, 
                            "dur": 200, 
                            "type": "note", 
                            "channel": 0
                        }
                    ]
                ], 
                [
                    276705, 
                    [
                        {
                            "pitch": 72, 
                            "t0": 276705, 
                            "v": 108, 
                            "dur": 163, 
                            "type": "note", 
                            "channel": 0
                        }
                    ]
                ], 
                [
                    277003, 
                    [
                        {
                            "pitch": 63, 
                            "t0": 277003, 
                            "v": 112, 
                            "dur": 133, 
                            "type": "note", 
                            "channel": 0
                        }
                    ]
                ], 
                [
                    277006, 
                    [
                        {
                            "pitch": 75, 
                            "t0": 277006, 
                            "v": 110, 
                            "dur": 138, 
                            "type": "note", 
                            "channel": 0
                        }
                    ]
                ], 
                [
                    277270, 
                    [
                        {
                            "pitch": 77, 
                            "t0": 277270, 
                            "v": 121, 
                            "dur": 48, 
                            "type": "note", 
                            "channel": 0
                        }, 
                        {
                            "pitch": 65, 
                            "t0": 277270, 
                            "v": 118, 
                            "dur": 83, 
                            "type": "note", 
                            "channel": 0
                        }
                    ]
                ], 
                [
                    277273, 
                    [
                        {
                            "pitch": 53, 
                            "t0": 277273, 
                            "v": 118, 
                            "dur": 80, 
                            "type": "note", 
                            "channel": 0
                        }, 
                        {
                            "pitch": 68, 
                            "t0": 277273, 
                            "v": 106, 
                            "dur": 108, 
                            "type": "note", 
                            "channel": 0
                        }
                    ]
                ], 
                [
                    277277, 
                    [
                        {
                            "pitch": 72, 
                            "t0": 277277, 
                            "v": 106, 
                            "dur": 88, 
                            "type": "note", 
                            "channel": 0
                        }, 
                        {
                            "pitch": 41, 
                            "t0": 277277, 
                            "v": 108, 
                            "dur": 91, 
                            "type": "note", 
                            "channel": 0
                        }, 
                        {
                            "pitch": 48, 
                            "t0": 277277, 
                            "v": 111, 
                            "dur": 96, 
                            "type": "note", 
                            "channel": 0
                        }
                    ]
                ], 
                [
                    277284, 
                    [
                        {
                            "pitch": 44, 
                            "t0": 277284, 
                            "v": 96, 
                            "dur": 101, 
                            "type": "note", 
                            "channel": 0
                        }
                    ]
                ], 
                [
                    277555, 
                    [
                        {
                            "pitch": 74, 
                            "t0": 277555, 
                            "v": 115, 
                            "dur": 66, 
                            "type": "note", 
                            "channel": 0
                        }, 
                        {
                            "pitch": 62, 
                            "t0": 277555, 
                            "v": 111, 
                            "dur": 71, 
                            "type": "note", 
                            "channel": 0
                        }
                    ]
                ], 
                [
                    277821, 
                    [
                        {
                            "pitch": 48, 
                            "t0": 277821, 
                            "v": 116, 
                            "dur": 70, 
                            "type": "note", 
                            "channel": 0
                        }, 
                        {
                            "pitch": 50, 
                            "t0": 277821, 
                            "v": 113, 
                            "dur": 92, 
                            "type": "note", 
                            "channel": 0
                        }, 
                        {
                            "pitch": 63, 
                            "t0": 277821, 
                            "v": 115, 
                            "dur": 101, 
                            "type": "note", 
                            "channel": 0
                        }
                    ]
                ], 
                [
                    277824, 
                    [
                        {
                            "pitch": 38, 
                            "t0": 277824, 
                            "v": 114, 
                            "dur": 45, 
                            "type": "note", 
                            "channel": 0
                        }, 
                        {
                            "pitch": 44, 
                            "t0": 277824, 
                            "v": 101, 
                            "dur": 102, 
                            "type": "note", 
                            "channel": 0
                        }, 
                        {
                            "pitch": 75, 
                            "t0": 277824, 
                            "v": 108, 
                            "dur": 132, 
                            "type": "note", 
                            "channel": 0
                        }
                    ]
                ], 
                [
                    277827, 
                    [
                        {
                            "pitch": 72, 
                            "t0": 277827, 
                            "v": 111, 
                            "dur": 95, 
                            "type": "note", 
                            "channel": 0
                        }, 
                        {
                            "pitch": 68, 
                            "t0": 277827, 
                            "v": 100, 
                            "dur": 111, 
                            "type": "note", 
                            "channel": 0
                        }
                    ]
                ], 
                [
                    278097, 
                    [
                        {
                            "pitch": 65, 
                            "t0": 278097, 
                            "v": 115, 
                            "dur": 121, 
                            "type": "note", 
                            "channel": 0
                        }, 
                        {
                            "pitch": 77, 
                            "t0": 278097, 
                            "v": 117, 
                            "dur": 178, 
                            "type": "note", 
                            "channel": 0
                        }
                    ]
                ], 
                [
                    278378, 
                    [
                        {
                            "pitch": 79, 
                            "t0": 278378, 
                            "v": 120, 
                            "dur": 90, 
                            "type": "note", 
                            "channel": 0
                        }, 
                        {
                            "pitch": 67, 
                            "t0": 278378, 
                            "v": 117, 
                            "dur": 101, 
                            "type": "note", 
                            "channel": 0
                        }
                    ]
                ], 
                [
                    278384, 
                    [
                        {
                            "pitch": 55, 
                            "t0": 278384, 
                            "v": 120, 
                            "dur": 95, 
                            "type": "note", 
                            "channel": 0
                        }, 
                        {
                            "pitch": 74, 
                            "t0": 278384, 
                            "v": 109, 
                            "dur": 142, 
                            "type": "note", 
                            "channel": 0
                        }, 
                        {
                            "pitch": 72, 
                            "t0": 278384, 
                            "v": 108, 
                            "dur": 142, 
                            "type": "note", 
                            "channel": 0
                        }
                    ]
                ], 
                [
                    278387, 
                    [
                        {
                            "pitch": 43, 
                            "t0": 278387, 
                            "v": 106, 
                            "dur": 86, 
                            "type": "note", 
                            "channel": 0
                        }
                    ]
                ], 
                [
                    278390, 
                    [
                        {
                            "pitch": 50, 
                            "t0": 278390, 
                            "v": 108, 
                            "dur": 112, 
                            "type": "note", 
                            "channel": 0
                        }, 
                        {
                            "pitch": 48, 
                            "t0": 278390, 
                            "v": 106, 
                            "dur": 112, 
                            "type": "note", 
                            "channel": 0
                        }
                    ]
                ], 
                [
                    278671, 
                    [
                        {
                            "pitch": 66, 
                            "t0": 278671, 
                            "v": 114, 
                            "dur": 115, 
                            "type": "note", 
                            "channel": 0
                        }, 
                        {
                            "pitch": 78, 
                            "t0": 278671, 
                            "v": 108, 
                            "dur": 173, 
                            "type": "note", 
                            "channel": 0
                        }
                    ]
                ], 
                [
                    278939, 
                    [
                        {
                            "pitch": 38, 
                            "t0": 278939, 
                            "v": 109, 
                            "dur": 44, 
                            "type": "note", 
                            "channel": 0
                        }, 
                        {
                            "pitch": 67, 
                            "t0": 278939, 
                            "v": 123, 
                            "dur": 105, 
                            "type": "note", 
                            "channel": 0
                        }, 
                        {
                            "pitch": 79, 
                            "t0": 278939, 
                            "v": 121, 
                            "dur": 169, 
                            "type": "note", 
                            "channel": 0
                        }
                    ]
                ], 
                [
                    278942, 
                    [
                        {
                            "pitch": 31, 
                            "t0": 278942, 
                            "v": 112, 
                            "dur": 19, 
                            "type": "note", 
                            "channel": 0
                        }, 
                        {
                            "pitch": 43, 
                            "t0": 278942, 
                            "v": 113, 
                            "dur": 58, 
                            "type": "note", 
                            "channel": 0
                        }
                    ]
                ], 
                [
                    278945, 
                    [
                        {
                            "pitch": 71, 
                            "t0": 278945, 
                            "v": 97, 
                            "dur": 133, 
                            "type": "note", 
                            "channel": 0
                        }, 
                        {
                            "pitch": 74, 
                            "t0": 278945, 
                            "v": 110, 
                            "dur": 139, 
                            "type": "note", 
                            "channel": 0
                        }
                    ]
                ], 
                [
                    279215, 
                    [
                        {
                            "pitch": 67, 
                            "t0": 279215, 
                            "v": 117, 
                            "dur": 69, 
                            "type": "note", 
                            "channel": 0
                        }
                    ]
                ], 
                [
                    279226, 
                    [
                        {
                            "pitch": 55, 
                            "t0": 279226, 
                            "v": 115, 
                            "dur": 94, 
                            "type": "note", 
                            "channel": 0
                        }
                    ]
                ], 
                [
                    279515, 
                    [
                        {
                            "pitch": 72, 
                            "t0": 279515, 
                            "v": 125, 
                            "dur": 493, 
                            "type": "note", 
                            "channel": 0
                        }, 
                        {
                            "pitch": 84, 
                            "t0": 279515, 
                            "v": 122, 
                            "dur": 512, 
                            "type": "note", 
                            "channel": 0
                        }
                    ]
                ], 
                [
                    279521, 
                    [
                        {
                            "pitch": 48, 
                            "t0": 279521, 
                            "v": 115, 
                            "dur": 481, 
                            "type": "note", 
                            "channel": 0
                        }, 
                        {
                            "pitch": 60, 
                            "t0": 279521, 
                            "v": 121, 
                            "dur": 490, 
                            "type": "note", 
                            "channel": 0
                        }
                    ]
                ], 
                [
                    280106, 
                    [
                        {
                            "pitch": 86, 
                            "t0": 280106, 
                            "v": 114, 
                            "dur": 83, 
                            "type": "note", 
                            "channel": 0
                        }
                    ]
                ], 
                [
                    280112, 
                    [
                        {
                            "pitch": 62, 
                            "t0": 280112, 
                            "v": 109, 
                            "dur": 61, 
                            "type": "note", 
                            "channel": 0
                        }, 
                        {
                            "pitch": 74, 
                            "t0": 280112, 
                            "v": 120, 
                            "dur": 66, 
                            "type": "note", 
                            "channel": 0
                        }, 
                        {
                            "pitch": 84, 
                            "t0": 280112, 
                            "v": 101, 
                            "dur": 138, 
                            "type": "note", 
                            "channel": 0
                        }
                    ]
                ], 
                [
                    280115, 
                    [
                        {
                            "pitch": 60, 
                            "t0": 280115, 
                            "v": 114, 
                            "dur": 54, 
                            "type": "note", 
                            "channel": 0
                        }
                    ]
                ], 
                [
                    280119, 
                    [
                        {
                            "pitch": 50, 
                            "t0": 280119, 
                            "v": 111, 
                            "dur": 31, 
                            "type": "note", 
                            "channel": 0
                        }
                    ]
                ], 
                [
                    280368, 
                    [
                        {
                            "pitch": 60, 
                            "t0": 280368, 
                            "v": 96, 
                            "dur": 97, 
                            "type": "note", 
                            "channel": 0
                        }, 
                        {
                            "pitch": 63, 
                            "t0": 280368, 
                            "v": 114, 
                            "dur": 102, 
                            "type": "note", 
                            "channel": 0
                        }, 
                        {
                            "pitch": 75, 
                            "t0": 280368, 
                            "v": 116, 
                            "dur": 102, 
                            "type": "note", 
                            "channel": 0
                        }
                    ]
                ], 
                [
                    280371, 
                    [
                        {
                            "pitch": 51, 
                            "t0": 280371, 
                            "v": 105, 
                            "dur": 90, 
                            "type": "note", 
                            "channel": 0
                        }, 
                        {
                            "pitch": 87, 
                            "t0": 280371, 
                            "v": 111, 
                            "dur": 134, 
                            "type": "note", 
                            "channel": 0
                        }
                    ]
                ], 
                [
                    280376, 
                    [
                        {
                            "pitch": 84, 
                            "t0": 280376, 
                            "v": 107, 
                            "dur": 94, 
                            "type": "note", 
                            "channel": 0
                        }
                    ]
                ], 
                [
                    280643, 
                    [
                        {
                            "pitch": 89, 
                            "t0": 280643, 
                            "v": 119, 
                            "dur": 82, 
                            "type": "note", 
                            "channel": 0
                        }, 
                        {
                            "pitch": 77, 
                            "t0": 280643, 
                            "v": 120, 
                            "dur": 126, 
                            "type": "note", 
                            "channel": 0
                        }
                    ]
                ], 
                [
                    280647, 
                    [
                        {
                            "pitch": 65, 
                            "t0": 280647, 
                            "v": 121, 
                            "dur": 85, 
                            "type": "note", 
                            "channel": 0
                        }, 
                        {
                            "pitch": 84, 
                            "t0": 280647, 
                            "v": 110, 
                            "dur": 92, 
                            "type": "note", 
                            "channel": 0
                        }
                    ]
                ], 
                [
                    280651, 
                    [
                        {
                            "pitch": 53, 
                            "t0": 280651, 
                            "v": 108, 
                            "dur": 92, 
                            "type": "note", 
                            "channel": 0
                        }
                    ]
                ], 
                [
                    280655, 
                    [
                        {
                            "pitch": 60, 
                            "t0": 280655, 
                            "v": 103, 
                            "dur": 114, 
                            "type": "note", 
                            "channel": 0
                        }
                    ]
                ], 
                [
                    280920, 
                    [
                        {
                            "pitch": 86, 
                            "t0": 280920, 
                            "v": 98, 
                            "dur": 22, 
                            "type": "note", 
                            "channel": 0
                        }, 
                        {
                            "pitch": 74, 
                            "t0": 280920, 
                            "v": 112, 
                            "dur": 66, 
                            "type": "note", 
                            "channel": 0
                        }
                    ]
                ], 
                [
                    280938, 
                    [
                        {
                            "pitch": 62, 
                            "t0": 280938, 
                            "v": 67, 
                            "dur": 35, 
                            "type": "note", 
                            "channel": 0
                        }
                    ]
                ], 
                [
                    280953, 
                    [
                        {
                            "pitch": 50, 
                            "t0": 280953, 
                            "v": 65, 
                            "dur": 33, 
                            "type": "note", 
                            "channel": 0
                        }
                    ]
                ], 
                [
                    281178, 
                    [
                        {
                            "pitch": 63, 
                            "t0": 281178, 
                            "v": 106, 
                            "dur": 111, 
                            "type": "note", 
                            "channel": 0
                        }
                    ]
                ], 
                [
                    281182, 
                    [
                        {
                            "pitch": 60, 
                            "t0": 281182, 
                            "v": 108, 
                            "dur": 63, 
                            "type": "note", 
                            "channel": 0
                        }, 
                        {
                            "pitch": 51, 
                            "t0": 281182, 
                            "v": 107, 
                            "dur": 107, 
                            "type": "note", 
                            "channel": 0
                        }
                    ]
                ], 
                [
                    281186, 
                    [
                        {
                            "pitch": 39, 
                            "t0": 281186, 
                            "v": 101, 
                            "dur": 81, 
                            "type": "note", 
                            "channel": 0
                        }
                    ]
                ], 
                [
                    281189, 
                    [
                        {
                            "pitch": 48, 
                            "t0": 281189, 
                            "v": 103, 
                            "dur": 118, 
                            "type": "note", 
                            "channel": 0
                        }
                    ]
                ], 
                [
                    281449, 
                    [
                        {
                            "pitch": 65, 
                            "t0": 281449, 
                            "v": 115, 
                            "dur": 117, 
                            "type": "note", 
                            "channel": 0
                        }, 
                        {
                            "pitch": 53, 
                            "t0": 281449, 
                            "v": 112, 
                            "dur": 125, 
                            "type": "note", 
                            "channel": 0
                        }
                    ]
                ], 
                [
                    281452, 
                    [
                        {
                            "pitch": 60, 
                            "t0": 281452, 
                            "v": 106, 
                            "dur": 77, 
                            "type": "note", 
                            "channel": 0
                        }, 
                        {
                            "pitch": 41, 
                            "t0": 281452, 
                            "v": 105, 
                            "dur": 94, 
                            "type": "note", 
                            "channel": 0
                        }, 
                        {
                            "pitch": 48, 
                            "t0": 281452, 
                            "v": 106, 
                            "dur": 122, 
                            "type": "note", 
                            "channel": 0
                        }
                    ]
                ], 
                [
                    281744, 
                    [
                        {
                            "pitch": 60, 
                            "t0": 281744, 
                            "v": 113, 
                            "dur": 278, 
                            "type": "note", 
                            "channel": 0
                        }, 
                        {
                            "pitch": 67, 
                            "t0": 281744, 
                            "v": 116, 
                            "dur": 332, 
                            "type": "note", 
                            "channel": 0
                        }
                    ]
                ], 
                [
                    281752, 
                    [
                        {
                            "pitch": 55, 
                            "t0": 281752, 
                            "v": 119, 
                            "dur": 147, 
                            "type": "note", 
                            "channel": 0
                        }
                    ]
                ], 
                [
                    281755, 
                    [
                        {
                            "pitch": 43, 
                            "t0": 281755, 
                            "v": 103, 
                            "dur": 154, 
                            "type": "note", 
                            "channel": 0
                        }
                    ]
                ], 
                [
                    281758, 
                    [
                        {
                            "pitch": 48, 
                            "t0": 281758, 
                            "v": 100, 
                            "dur": 240, 
                            "type": "note", 
                            "channel": 0
                        }
                    ]
                ], 
                [
                    282041, 
                    [
                        {
                            "pitch": 63, 
                            "t0": 282041, 
                            "v": 105, 
                            "dur": 49, 
                            "type": "note", 
                            "channel": 0
                        }, 
                        {
                            "pitch": 51, 
                            "t0": 282041, 
                            "v": 117, 
                            "dur": 49, 
                            "type": "note", 
                            "channel": 0
                        }
                    ]
                ], 
                [
                    282044, 
                    [
                        {
                            "pitch": 39, 
                            "t0": 282044, 
                            "v": 102, 
                            "dur": 25, 
                            "type": "note", 
                            "channel": 0
                        }
                    ]
                ], 
                [
                    282313, 
                    [
                        {
                            "pitch": 77, 
                            "t0": 282313, 
                            "v": 116, 
                            "dur": 86, 
                            "type": "note", 
                            "channel": 0
                        }, 
                        {
                            "pitch": 89, 
                            "t0": 282313, 
                            "v": 115, 
                            "dur": 102, 
                            "type": "note", 
                            "channel": 0
                        }, 
                        {
                            "pitch": 84, 
                            "t0": 282313, 
                            "v": 111, 
                            "dur": 102, 
                            "type": "note", 
                            "channel": 0
                        }, 
                        {
                            "pitch": 65, 
                            "t0": 282313, 
                            "v": 115, 
                            "dur": 117, 
                            "type": "note", 
                            "channel": 0
                        }
                    ]
                ], 
                [
                    282321, 
                    [
                        {
                            "pitch": 60, 
                            "t0": 282321, 
                            "v": 103, 
                            "dur": 78, 
                            "type": "note", 
                            "channel": 0
                        }, 
                        {
                            "pitch": 53, 
                            "t0": 282321, 
                            "v": 103, 
                            "dur": 86, 
                            "type": "note", 
                            "channel": 0
                        }
                    ]
                ], 
                [
                    282574, 
                    [
                        {
                            "pitch": 79, 
                            "t0": 282574, 
                            "v": 121, 
                            "dur": 98, 
                            "type": "note", 
                            "channel": 0
                        }, 
                        {
                            "pitch": 91, 
                            "t0": 282574, 
                            "v": 118, 
                            "dur": 115, 
                            "type": "note", 
                            "channel": 0
                        }
                    ]
                ], 
                [
                    282577, 
                    [
                        {
                            "pitch": 60, 
                            "t0": 282577, 
                            "v": 101, 
                            "dur": 106, 
                            "type": "note", 
                            "channel": 0
                        }, 
                        {
                            "pitch": 67, 
                            "t0": 282577, 
                            "v": 119, 
                            "dur": 128, 
                            "type": "note", 
                            "channel": 0
                        }
                    ]
                ], 
                [
                    282580, 
                    [
                        {
                            "pitch": 84, 
                            "t0": 282580, 
                            "v": 113, 
                            "dur": 125, 
                            "type": "note", 
                            "channel": 0
                        }
                    ]
                ], 
                [
                    282585, 
                    [
                        {
                            "pitch": 55, 
                            "t0": 282585, 
                            "v": 105, 
                            "dur": 87, 
                            "type": "note", 
                            "channel": 0
                        }
                    ]
                ], 
                [
                    282847, 
                    [
                        {
                            "pitch": 92, 
                            "t0": 282847, 
                            "v": 115, 
                            "dur": 131, 
                            "type": "note", 
                            "channel": 0
                        }, 
                        {
                            "pitch": 80, 
                            "t0": 282847, 
                            "v": 118, 
                            "dur": 175, 
                            "type": "note", 
                            "channel": 0
                        }, 
                        {
                            "pitch": 84, 
                            "t0": 282847, 
                            "v": 114, 
                            "dur": 314, 
                            "type": "note", 
                            "channel": 0
                        }
                    ]
                ], 
                [
                    282852, 
                    [
                        {
                            "pitch": 68, 
                            "t0": 282852, 
                            "v": 120, 
                            "dur": 134, 
                            "type": "note", 
                            "channel": 0
                        }
                    ]
                ], 
                [
                    282856, 
                    [
                        {
                            "pitch": 56, 
                            "t0": 282856, 
                            "v": 104, 
                            "dur": 102, 
                            "type": "note", 
                            "channel": 0
                        }, 
                        {
                            "pitch": 60, 
                            "t0": 282856, 
                            "v": 98, 
                            "dur": 269, 
                            "type": "note", 
                            "channel": 0
                        }
                    ]
                ], 
                [
                    283125, 
                    [
                        {
                            "pitch": 65, 
                            "t0": 283125, 
                            "v": 109, 
                            "dur": 26, 
                            "type": "note", 
                            "channel": 0
                        }
                    ]
                ], 
                [
                    283129, 
                    [
                        {
                            "pitch": 89, 
                            "t0": 283129, 
                            "v": 96, 
                            "dur": 25, 
                            "type": "note", 
                            "channel": 0
                        }, 
                        {
                            "pitch": 53, 
                            "t0": 283129, 
                            "v": 100, 
                            "dur": 53, 
                            "type": "note", 
                            "channel": 0
                        }
                    ]
                ], 
                [
                    283132, 
                    [
                        {
                            "pitch": 77, 
                            "t0": 283132, 
                            "v": 102, 
                            "dur": 32, 
                            "type": "note", 
                            "channel": 0
                        }
                    ]
                ], 
                [
                    283395, 
                    [
                        {
                            "pitch": 59, 
                            "t0": 283395, 
                            "v": 106, 
                            "dur": 81, 
                            "type": "note", 
                            "channel": 0
                        }
                    ]
                ], 
                [
                    283399, 
                    [
                        {
                            "pitch": 71, 
                            "t0": 283399, 
                            "v": 99, 
                            "dur": 127, 
                            "type": "note", 
                            "channel": 0
                        }
                    ]
                ], 
                [
                    283405, 
                    [
                        {
                            "pitch": 43, 
                            "t0": 283405, 
                            "v": 109, 
                            "dur": 83, 
                            "type": "note", 
                            "channel": 0
                        }, 
                        {
                            "pitch": 67, 
                            "t0": 283405, 
                            "v": 101, 
                            "dur": 91, 
                            "type": "note", 
                            "channel": 0
                        }, 
                        {
                            "pitch": 55, 
                            "t0": 283405, 
                            "v": 115, 
                            "dur": 100, 
                            "type": "note", 
                            "channel": 0
                        }
                    ]
                ], 
                [
                    283658, 
                    [
                        {
                            "pitch": 60, 
                            "t0": 283658, 
                            "v": 114, 
                            "dur": 89, 
                            "type": "note", 
                            "channel": 0
                        }, 
                        {
                            "pitch": 72, 
                            "t0": 283658, 
                            "v": 113, 
                            "dur": 131, 
                            "type": "note", 
                            "channel": 0
                        }
                    ]
                ], 
                [
                    283663, 
                    [
                        {
                            "pitch": 67, 
                            "t0": 283663, 
                            "v": 106, 
                            "dur": 90, 
                            "type": "note", 
                            "channel": 0
                        }
                    ]
                ], 
                [
                    283668, 
                    [
                        {
                            "pitch": 57, 
                            "t0": 283668, 
                            "v": 113, 
                            "dur": 70, 
                            "type": "note", 
                            "channel": 0
                        }, 
                        {
                            "pitch": 55, 
                            "t0": 283668, 
                            "v": 111, 
                            "dur": 76, 
                            "type": "note", 
                            "channel": 0
                        }
                    ]
                ], 
                [
                    283671, 
                    [
                        {
                            "pitch": 45, 
                            "t0": 283671, 
                            "v": 114, 
                            "dur": 29, 
                            "type": "note", 
                            "channel": 0
                        }
                    ]
                ], 
                [
                    283930, 
                    [
                        {
                            "pitch": 74, 
                            "t0": 283930, 
                            "v": 120, 
                            "dur": 96, 
                            "type": "note", 
                            "channel": 0
                        }
                    ]
                ], 
                [
                    283934, 
                    [
                        {
                            "pitch": 62, 
                            "t0": 283934, 
                            "v": 116, 
                            "dur": 128, 
                            "type": "note", 
                            "channel": 0
                        }
                    ]
                ], 
                [
                    283937, 
                    [
                        {
                            "pitch": 59, 
                            "t0": 283937, 
                            "v": 111, 
                            "dur": 89, 
                            "type": "note", 
                            "channel": 0
                        }, 
                        {
                            "pitch": 67, 
                            "t0": 283937, 
                            "v": 109, 
                            "dur": 99, 
                            "type": "note", 
                            "channel": 0
                        }
                    ]
                ], 
                [
                    283941, 
                    [
                        {
                            "pitch": 55, 
                            "t0": 283941, 
                            "v": 110, 
                            "dur": 89, 
                            "type": "note", 
                            "channel": 0
                        }, 
                        {
                            "pitch": 47, 
                            "t0": 283941, 
                            "v": 102, 
                            "dur": 112, 
                            "type": "note", 
                            "channel": 0
                        }
                    ]
                ], 
                [
                    284204, 
                    [
                        {
                            "pitch": 59, 
                            "t0": 284204, 
                            "v": 100, 
                            "dur": 24, 
                            "type": "note", 
                            "channel": 0
                        }, 
                        {
                            "pitch": 71, 
                            "t0": 284204, 
                            "v": 101, 
                            "dur": 70, 
                            "type": "note", 
                            "channel": 0
                        }
                    ]
                ], 
                [
                    284212, 
                    [
                        {
                            "pitch": 55, 
                            "t0": 284212, 
                            "v": 113, 
                            "dur": 83, 
                            "type": "note", 
                            "channel": 0
                        }
                    ]
                ], 
                [
                    284217, 
                    [
                        {
                            "pitch": 43, 
                            "t0": 284217, 
                            "v": 98, 
                            "dur": 23, 
                            "type": "note", 
                            "channel": 0
                        }
                    ]
                ], 
                [
                    284476, 
                    [
                        {
                            "pitch": 84, 
                            "t0": 284476, 
                            "v": 115, 
                            "dur": 117, 
                            "type": "note", 
                            "channel": 0
                        }
                    ]
                ], 
                [
                    284479, 
                    [
                        {
                            "pitch": 72, 
                            "t0": 284479, 
                            "v": 110, 
                            "dur": 84, 
                            "type": "note", 
                            "channel": 0
                        }, 
                        {
                            "pitch": 67, 
                            "t0": 284479, 
                            "v": 113, 
                            "dur": 96, 
                            "type": "note", 
                            "channel": 0
                        }
                    ]
                ], 
                [
                    284482, 
                    [
                        {
                            "pitch": 81, 
                            "t0": 284482, 
                            "v": 106, 
                            "dur": 153, 
                            "type": "note", 
                            "channel": 0
                        }
                    ]
                ], 
                [
                    284491, 
                    [
                        {
                            "pitch": 60, 
                            "t0": 284491, 
                            "v": 92, 
                            "dur": 80, 
                            "type": "note", 
                            "channel": 0
                        }, 
                        {
                            "pitch": 55, 
                            "t0": 284491, 
                            "v": 94, 
                            "dur": 125, 
                            "type": "note", 
                            "channel": 0
                        }, 
                        {
                            "pitch": 57, 
                            "t0": 284491, 
                            "v": 89, 
                            "dur": 136, 
                            "type": "note", 
                            "channel": 0
                        }
                    ]
                ], 
                [
                    284739, 
                    [
                        {
                            "pitch": 74, 
                            "t0": 284739, 
                            "v": 122, 
                            "dur": 100, 
                            "type": "note", 
                            "channel": 0
                        }, 
                        {
                            "pitch": 86, 
                            "t0": 284739, 
                            "v": 115, 
                            "dur": 108, 
                            "type": "note", 
                            "channel": 0
                        }
                    ]
                ], 
                [
                    284742, 
                    [
                        {
                            "pitch": 83, 
                            "t0": 284742, 
                            "v": 104, 
                            "dur": 130, 
                            "type": "note", 
                            "channel": 0
                        }
                    ]
                ], 
                [
                    284746, 
                    [
                        {
                            "pitch": 67, 
                            "t0": 284746, 
                            "v": 114, 
                            "dur": 101, 
                            "type": "note", 
                            "channel": 0
                        }, 
                        {
                            "pitch": 59, 
                            "t0": 284746, 
                            "v": 87, 
                            "dur": 106, 
                            "type": "note", 
                            "channel": 0
                        }, 
                        {
                            "pitch": 55, 
                            "t0": 284746, 
                            "v": 100, 
                            "dur": 151, 
                            "type": "note", 
                            "channel": 0
                        }
                    ]
                ], 
                [
                    284749, 
                    [
                        {
                            "pitch": 62, 
                            "t0": 284749, 
                            "v": 101, 
                            "dur": 98, 
                            "type": "note", 
                            "channel": 0
                        }
                    ]
                ], 
                [
                    285017, 
                    [
                        {
                            "pitch": 75, 
                            "t0": 285017, 
                            "v": 113, 
                            "dur": 175, 
                            "type": "note", 
                            "channel": 0
                        }, 
                        {
                            "pitch": 87, 
                            "t0": 285017, 
                            "v": 112, 
                            "dur": 215, 
                            "type": "note", 
                            "channel": 0
                        }
                    ]
                ], 
                [
                    285020, 
                    [
                        {
                            "pitch": 60, 
                            "t0": 285020, 
                            "v": 103, 
                            "dur": 117, 
                            "type": "note", 
                            "channel": 0
                        }, 
                        {
                            "pitch": 67, 
                            "t0": 285020, 
                            "v": 119, 
                            "dur": 142, 
                            "type": "note", 
                            "channel": 0
                        }, 
                        {
                            "pitch": 63, 
                            "t0": 285020, 
                            "v": 105, 
                            "dur": 142, 
                            "type": "note", 
                            "channel": 0
                        }
                    ]
                ], 
                [
                    285023, 
                    [
                        {
                            "pitch": 79, 
                            "t0": 285023, 
                            "v": 106, 
                            "dur": 123, 
                            "type": "note", 
                            "channel": 0
                        }, 
                        {
                            "pitch": 84, 
                            "t0": 285023, 
                            "v": 108, 
                            "dur": 148, 
                            "type": "note", 
                            "channel": 0
                        }
                    ]
                ], 
                [
                    285026, 
                    [
                        {
                            "pitch": 55, 
                            "t0": 285026, 
                            "v": 101, 
                            "dur": 195, 
                            "type": "note", 
                            "channel": 0
                        }
                    ]
                ], 
                [
                    285054, 
                    [
                        {
                            "pitch": 65, 
                            "t0": 285054, 
                            "v": 48, 
                            "dur": 53, 
                            "type": "note", 
                            "channel": 0
                        }
                    ]
                ], 
                [
                    285320, 
                    [
                        {
                            "pitch": 84, 
                            "t0": 285320, 
                            "v": 110, 
                            "dur": 23, 
                            "type": "note", 
                            "channel": 0
                        }, 
                        {
                            "pitch": 63, 
                            "t0": 285320, 
                            "v": 94, 
                            "dur": 38, 
                            "type": "note", 
                            "channel": 0
                        }, 
                        {
                            "pitch": 55, 
                            "t0": 285320, 
                            "v": 67, 
                            "dur": 64, 
                            "type": "note", 
                            "channel": 0
                        }
                    ]
                ], 
                [
                    285326, 
                    [
                        {
                            "pitch": 79, 
                            "t0": 285326, 
                            "v": 103, 
                            "dur": 29, 
                            "type": "note", 
                            "channel": 0
                        }
                    ]
                ], 
                [
                    285331, 
                    [
                        {
                            "pitch": 60, 
                            "t0": 285331, 
                            "v": 93, 
                            "dur": 24, 
                            "type": "note", 
                            "channel": 0
                        }
                    ]
                ], 
                [
                    285586, 
                    [
                        {
                            "pitch": 59, 
                            "t0": 285586, 
                            "v": 100, 
                            "dur": 86, 
                            "type": "note", 
                            "channel": 0
                        }, 
                        {
                            "pitch": 71, 
                            "t0": 285586, 
                            "v": 98, 
                            "dur": 131, 
                            "type": "note", 
                            "channel": 0
                        }
                    ]
                ], 
                [
                    285590, 
                    [
                        {
                            "pitch": 55, 
                            "t0": 285590, 
                            "v": 115, 
                            "dur": 96, 
                            "type": "note", 
                            "channel": 0
                        }
                    ]
                ], 
                [
                    285594, 
                    [
                        {
                            "pitch": 43, 
                            "t0": 285594, 
                            "v": 106, 
                            "dur": 83, 
                            "type": "note", 
                            "channel": 0
                        }
                    ]
                ], 
                [
                    285599, 
                    [
                        {
                            "pitch": 67, 
                            "t0": 285599, 
                            "v": 99, 
                            "dur": 78, 
                            "type": "note", 
                            "channel": 0
                        }
                    ]
                ], 
                [
                    285847, 
                    [
                        {
                            "pitch": 60, 
                            "t0": 285847, 
                            "v": 113, 
                            "dur": 101, 
                            "type": "note", 
                            "channel": 0
                        }, 
                        {
                            "pitch": 67, 
                            "t0": 285847, 
                            "v": 110, 
                            "dur": 101, 
                            "type": "note", 
                            "channel": 0
                        }, 
                        {
                            "pitch": 72, 
                            "t0": 285847, 
                            "v": 111, 
                            "dur": 137, 
                            "type": "note", 
                            "channel": 0
                        }
                    ]
                ], 
                [
                    285853, 
                    [
                        {
                            "pitch": 55, 
                            "t0": 285853, 
                            "v": 111, 
                            "dur": 58, 
                            "type": "note", 
                            "channel": 0
                        }, 
                        {
                            "pitch": 57, 
                            "t0": 285853, 
                            "v": 114, 
                            "dur": 75, 
                            "type": "note", 
                            "channel": 0
                        }
                    ]
                ], 
                [
                    285861, 
                    [
                        {
                            "pitch": 45, 
                            "t0": 285861, 
                            "v": 97, 
                            "dur": 31, 
                            "type": "note", 
                            "channel": 0
                        }
                    ]
                ], 
                [
                    286107, 
                    [
                        {
                            "pitch": 74, 
                            "t0": 286107, 
                            "v": 116, 
                            "dur": 91, 
                            "type": "note", 
                            "channel": 0
                        }, 
                        {
                            "pitch": 62, 
                            "t0": 286107, 
                            "v": 112, 
                            "dur": 121, 
                            "type": "note", 
                            "channel": 0
                        }
                    ]
                ], 
                [
                    286112, 
                    [
                        {
                            "pitch": 67, 
                            "t0": 286112, 
                            "v": 110, 
                            "dur": 97, 
                            "type": "note", 
                            "channel": 0
                        }, 
                        {
                            "pitch": 59, 
                            "t0": 286112, 
                            "v": 111, 
                            "dur": 119, 
                            "type": "note", 
                            "channel": 0
                        }
                    ]
                ], 
                [
                    286117, 
                    [
                        {
                            "pitch": 55, 
                            "t0": 286117, 
                            "v": 110, 
                            "dur": 128, 
                            "type": "note", 
                            "channel": 0
                        }, 
                        {
                            "pitch": 47, 
                            "t0": 286117, 
                            "v": 101, 
                            "dur": 165, 
                            "type": "note", 
                            "channel": 0
                        }
                    ]
                ], 
                [
                    286370, 
                    [
                        {
                            "pitch": 59, 
                            "t0": 286370, 
                            "v": 98, 
                            "dur": 24, 
                            "type": "note", 
                            "channel": 0
                        }, 
                        {
                            "pitch": 71, 
                            "t0": 286370, 
                            "v": 101, 
                            "dur": 73, 
                            "type": "note", 
                            "channel": 0
                        }
                    ]
                ], 
                [
                    286379, 
                    [
                        {
                            "pitch": 55, 
                            "t0": 286379, 
                            "v": 107, 
                            "dur": 64, 
                            "type": "note", 
                            "channel": 0
                        }
                    ]
                ], 
                [
                    286385, 
                    [
                        {
                            "pitch": 43, 
                            "t0": 286385, 
                            "v": 102, 
                            "dur": 20, 
                            "type": "note", 
                            "channel": 0
                        }
                    ]
                ], 
                [
                    286635, 
                    [
                        {
                            "pitch": 72, 
                            "t0": 286635, 
                            "v": 118, 
                            "dur": 110, 
                            "type": "note", 
                            "channel": 0
                        }, 
                        {
                            "pitch": 84, 
                            "t0": 286635, 
                            "v": 113, 
                            "dur": 149, 
                            "type": "note", 
                            "channel": 0
                        }
                    ]
                ], 
                [
                    286638, 
                    [
                        {
                            "pitch": 67, 
                            "t0": 286638, 
                            "v": 116, 
                            "dur": 120, 
                            "type": "note", 
                            "channel": 0
                        }
                    ]
                ], 
                [
                    286644, 
                    [
                        {
                            "pitch": 60, 
                            "t0": 286644, 
                            "v": 98, 
                            "dur": 97, 
                            "type": "note", 
                            "channel": 0
                        }, 
                        {
                            "pitch": 79, 
                            "t0": 286644, 
                            "v": 95, 
                            "dur": 97, 
                            "type": "note", 
                            "channel": 0
                        }
                    ]
                ], 
                [
                    286647, 
                    [
                        {
                            "pitch": 81, 
                            "t0": 286647, 
                            "v": 99, 
                            "dur": 111, 
                            "type": "note", 
                            "channel": 0
                        }, 
                        {
                            "pitch": 57, 
                            "t0": 286647, 
                            "v": 93, 
                            "dur": 131, 
                            "type": "note", 
                            "channel": 0
                        }, 
                        {
                            "pitch": 55, 
                            "t0": 286647, 
                            "v": 92, 
                            "dur": 156, 
                            "type": "note", 
                            "channel": 0
                        }
                    ]
                ], 
                [
                    286914, 
                    [
                        {
                            "pitch": 74, 
                            "t0": 286914, 
                            "v": 117, 
                            "dur": 109, 
                            "type": "note", 
                            "channel": 0
                        }, 
                        {
                            "pitch": 86, 
                            "t0": 286914, 
                            "v": 115, 
                            "dur": 125, 
                            "type": "note", 
                            "channel": 0
                        }
                    ]
                ], 
                [
                    286919, 
                    [
                        {
                            "pitch": 62, 
                            "t0": 286919, 
                            "v": 101, 
                            "dur": 115, 
                            "type": "note", 
                            "channel": 0
                        }, 
                        {
                            "pitch": 67, 
                            "t0": 286919, 
                            "v": 115, 
                            "dur": 115, 
                            "type": "note", 
                            "channel": 0
                        }, 
                        {
                            "pitch": 83, 
                            "t0": 286919, 
                            "v": 103, 
                            "dur": 148, 
                            "type": "note", 
                            "channel": 0
                        }, 
                        {
                            "pitch": 79, 
                            "t0": 286919, 
                            "v": 105, 
                            "dur": 154, 
                            "type": "note", 
                            "channel": 0
                        }
                    ]
                ], 
                [
                    286925, 
                    [
                        {
                            "pitch": 59, 
                            "t0": 286925, 
                            "v": 81, 
                            "dur": 93, 
                            "type": "note", 
                            "channel": 0
                        }, 
                        {
                            "pitch": 55, 
                            "t0": 286925, 
                            "v": 97, 
                            "dur": 156, 
                            "type": "note", 
                            "channel": 0
                        }
                    ]
                ], 
                [
                    287217, 
                    [
                        {
                            "pitch": 87, 
                            "t0": 287217, 
                            "v": 112, 
                            "dur": 234, 
                            "type": "note", 
                            "channel": 0
                        }, 
                        {
                            "pitch": 75, 
                            "t0": 287217, 
                            "v": 112, 
                            "dur": 248, 
                            "type": "note", 
                            "channel": 0
                        }
                    ]
                ], 
                [
                    287220, 
                    [
                        {
                            "pitch": 84, 
                            "t0": 287220, 
                            "v": 111, 
                            "dur": 259, 
                            "type": "note", 
                            "channel": 0
                        }, 
                        {
                            "pitch": 79, 
                            "t0": 287220, 
                            "v": 105, 
                            "dur": 284, 
                            "type": "note", 
                            "channel": 0
                        }
                    ]
                ], 
                [
                    287224, 
                    [
                        {
                            "pitch": 67, 
                            "t0": 287224, 
                            "v": 110, 
                            "dur": 209, 
                            "type": "note", 
                            "channel": 0
                        }, 
                        {
                            "pitch": 63, 
                            "t0": 287224, 
                            "v": 103, 
                            "dur": 266, 
                            "type": "note", 
                            "channel": 0
                        }
                    ]
                ], 
                [
                    287229, 
                    [
                        {
                            "pitch": 60, 
                            "t0": 287229, 
                            "v": 100, 
                            "dur": 257, 
                            "type": "note", 
                            "channel": 0
                        }
                    ]
                ], 
                [
                    287518, 
                    [
                        {
                            "pitch": 86, 
                            "t0": 287518, 
                            "v": 114, 
                            "dur": 106, 
                            "type": "note", 
                            "channel": 0
                        }, 
                        {
                            "pitch": 74, 
                            "t0": 287518, 
                            "v": 111, 
                            "dur": 134, 
                            "type": "note", 
                            "channel": 0
                        }
                    ]
                ], 
                [
                    287522, 
                    [
                        {
                            "pitch": 62, 
                            "t0": 287522, 
                            "v": 110, 
                            "dur": 130, 
                            "type": "note", 
                            "channel": 0
                        }
                    ]
                ], 
                [
                    287525, 
                    [
                        {
                            "pitch": 55, 
                            "t0": 287525, 
                            "v": 101, 
                            "dur": 77, 
                            "type": "note", 
                            "channel": 0
                        }, 
                        {
                            "pitch": 82, 
                            "t0": 287525, 
                            "v": 103, 
                            "dur": 86, 
                            "type": "note", 
                            "channel": 0
                        }
                    ]
                ], 
                [
                    287788, 
                    [
                        {
                            "pitch": 84, 
                            "t0": 287788, 
                            "v": 110, 
                            "dur": 95, 
                            "type": "note", 
                            "channel": 0
                        }, 
                        {
                            "pitch": 63, 
                            "t0": 287788, 
                            "v": 109, 
                            "dur": 109, 
                            "type": "note", 
                            "channel": 0
                        }, 
                        {
                            "pitch": 72, 
                            "t0": 287788, 
                            "v": 112, 
                            "dur": 143, 
                            "type": "note", 
                            "channel": 0
                        }
                    ]
                ], 
                [
                    287797, 
                    [
                        {
                            "pitch": 60, 
                            "t0": 287797, 
                            "v": 97, 
                            "dur": 76, 
                            "type": "note", 
                            "channel": 0
                        }, 
                        {
                            "pitch": 56, 
                            "t0": 287797, 
                            "v": 92, 
                            "dur": 100, 
                            "type": "note", 
                            "channel": 0
                        }, 
                        {
                            "pitch": 80, 
                            "t0": 287797, 
                            "v": 95, 
                            "dur": 114, 
                            "type": "note", 
                            "channel": 0
                        }
                    ]
                ], 
                [
                    288054, 
                    [
                        {
                            "pitch": 82, 
                            "t0": 288054, 
                            "v": 115, 
                            "dur": 156, 
                            "type": "note", 
                            "channel": 0
                        }, 
                        {
                            "pitch": 70, 
                            "t0": 288054, 
                            "v": 122, 
                            "dur": 163, 
                            "type": "note", 
                            "channel": 0
                        }
                    ]
                ], 
                [
                    288061, 
                    [
                        {
                            "pitch": 63, 
                            "t0": 288061, 
                            "v": 100, 
                            "dur": 107, 
                            "type": "note", 
                            "channel": 0
                        }, 
                        {
                            "pitch": 79, 
                            "t0": 288061, 
                            "v": 105, 
                            "dur": 195, 
                            "type": "note", 
                            "channel": 0
                        }
                    ]
                ], 
                [
                    288064, 
                    [
                        {
                            "pitch": 58, 
                            "t0": 288064, 
                            "v": 108, 
                            "dur": 117, 
                            "type": "note", 
                            "channel": 0
                        }, 
                        {
                            "pitch": 51, 
                            "t0": 288064, 
                            "v": 93, 
                            "dur": 192, 
                            "type": "note", 
                            "channel": 0
                        }
                    ]
                ], 
                [
                    288326, 
                    [
                        {
                            "pitch": 68, 
                            "t0": 288326, 
                            "v": 110, 
                            "dur": 171, 
                            "type": "note", 
                            "channel": 0
                        }, 
                        {
                            "pitch": 80, 
                            "t0": 288326, 
                            "v": 106, 
                            "dur": 187, 
                            "type": "note", 
                            "channel": 0
                        }
                    ]
                ], 
                [
                    288329, 
                    [
                        {
                            "pitch": 60, 
                            "t0": 288329, 
                            "v": 101, 
                            "dur": 79, 
                            "type": "note", 
                            "channel": 0
                        }, 
                        {
                            "pitch": 77, 
                            "t0": 288329, 
                            "v": 103, 
                            "dur": 98, 
                            "type": "note", 
                            "channel": 0
                        }, 
                        {
                            "pitch": 56, 
                            "t0": 288329, 
                            "v": 97, 
                            "dur": 120, 
                            "type": "note", 
                            "channel": 0
                        }
                    ]
                ], 
                [
                    288335, 
                    [
                        {
                            "pitch": 53, 
                            "t0": 288335, 
                            "v": 94, 
                            "dur": 77, 
                            "type": "note", 
                            "channel": 0
                        }
                    ]
                ], 
                [
                    288578, 
                    [
                        {
                            "pitch": 79, 
                            "t0": 288578, 
                            "v": 110, 
                            "dur": 21, 
                            "type": "note", 
                            "channel": 0
                        }
                    ]
                ], 
                [
                    288583, 
                    [
                        {
                            "pitch": 75, 
                            "t0": 288583, 
                            "v": 95, 
                            "dur": 28, 
                            "type": "note", 
                            "channel": 0
                        }, 
                        {
                            "pitch": 67, 
                            "t0": 288583, 
                            "v": 108, 
                            "dur": 52, 
                            "type": "note", 
                            "channel": 0
                        }
                    ]
                ], 
                [
                    288588, 
                    [
                        {
                            "pitch": 55, 
                            "t0": 288588, 
                            "v": 98, 
                            "dur": 23, 
                            "type": "note", 
                            "channel": 0
                        }, 
                        {
                            "pitch": 60, 
                            "t0": 288588, 
                            "v": 90, 
                            "dur": 28, 
                            "type": "note", 
                            "channel": 0
                        }
                    ]
                ], 
                [
                    288591, 
                    [
                        {
                            "pitch": 48, 
                            "t0": 288591, 
                            "v": 98, 
                            "dur": 70, 
                            "type": "note", 
                            "channel": 0
                        }
                    ]
                ], 
                [
                    288856, 
                    [
                        {
                            "pitch": 56, 
                            "t0": 288856, 
                            "v": 110, 
                            "dur": 200, 
                            "type": "note", 
                            "channel": 0
                        }, 
                        {
                            "pitch": 68, 
                            "t0": 288856, 
                            "v": 103, 
                            "dur": 208, 
                            "type": "note", 
                            "channel": 0
                        }, 
                        {
                            "pitch": 65, 
                            "t0": 288856, 
                            "v": 106, 
                            "dur": 234, 
                            "type": "note", 
                            "channel": 0
                        }
                    ]
                ], 
                [
                    288865, 
                    [
                        {
                            "pitch": 60, 
                            "t0": 288865, 
                            "v": 102, 
                            "dur": 164, 
                            "type": "note", 
                            "channel": 0
                        }
                    ]
                ], 
                [
                    288868, 
                    [
                        {
                            "pitch": 48, 
                            "t0": 288868, 
                            "v": 111, 
                            "dur": 127, 
                            "type": "note", 
                            "channel": 0
                        }, 
                        {
                            "pitch": 44, 
                            "t0": 288868, 
                            "v": 101, 
                            "dur": 174, 
                            "type": "note", 
                            "channel": 0
                        }, 
                        {
                            "pitch": 41, 
                            "t0": 288868, 
                            "v": 110, 
                            "dur": 191, 
                            "type": "note", 
                            "channel": 0
                        }
                    ]
                ], 
                [
                    289132, 
                    [
                        {
                            "pitch": 55, 
                            "t0": 289132, 
                            "v": 105, 
                            "dur": 35, 
                            "type": "note", 
                            "channel": 0
                        }, 
                        {
                            "pitch": 39, 
                            "t0": 289132, 
                            "v": 98, 
                            "dur": 69, 
                            "type": "note", 
                            "channel": 0
                        }, 
                        {
                            "pitch": 48, 
                            "t0": 289132, 
                            "v": 114, 
                            "dur": 74, 
                            "type": "note", 
                            "channel": 0
                        }
                    ]
                ], 
                [
                    289135, 
                    [
                        {
                            "pitch": 36, 
                            "t0": 289135, 
                            "v": 103, 
                            "dur": 32, 
                            "type": "note", 
                            "channel": 0
                        }, 
                        {
                            "pitch": 63, 
                            "t0": 289135, 
                            "v": 93, 
                            "dur": 71, 
                            "type": "note", 
                            "channel": 0
                        }, 
                        {
                            "pitch": 67, 
                            "t0": 289135, 
                            "v": 110, 
                            "dur": 89, 
                            "type": "note", 
                            "channel": 0
                        }
                    ]
                ], 
                [
                    289138, 
                    [
                        {
                            "pitch": 43, 
                            "t0": 289138, 
                            "v": 100, 
                            "dur": 54, 
                            "type": "note", 
                            "channel": 0
                        }
                    ]
                ], 
                [
                    289142, 
                    [
                        {
                            "pitch": 60, 
                            "t0": 289142, 
                            "v": 90, 
                            "dur": 29, 
                            "type": "note", 
                            "channel": 0
                        }
                    ]
                ], 
                [
                    289408, 
                    [
                        {
                            "pitch": 80, 
                            "t0": 289408, 
                            "v": 111, 
                            "dur": 198, 
                            "type": "note", 
                            "channel": 0
                        }
                    ]
                ], 
                [
                    289412, 
                    [
                        {
                            "pitch": 68, 
                            "t0": 289412, 
                            "v": 118, 
                            "dur": 179, 
                            "type": "note", 
                            "channel": 0
                        }, 
                        {
                            "pitch": 77, 
                            "t0": 289412, 
                            "v": 113, 
                            "dur": 227, 
                            "type": "note", 
                            "channel": 0
                        }
                    ]
                ], 
                [
                    289416, 
                    [
                        {
                            "pitch": 72, 
                            "t0": 289416, 
                            "v": 109, 
                            "dur": 147, 
                            "type": "note", 
                            "channel": 0
                        }, 
                        {
                            "pitch": 60, 
                            "t0": 289416, 
                            "v": 115, 
                            "dur": 155, 
                            "type": "note", 
                            "channel": 0
                        }, 
                        {
                            "pitch": 53, 
                            "t0": 289416, 
                            "v": 105, 
                            "dur": 215, 
                            "type": "note", 
                            "channel": 0
                        }
                    ]
                ], 
                [
                    289422, 
                    [
                        {
                            "pitch": 56, 
                            "t0": 289422, 
                            "v": 103, 
                            "dur": 169, 
                            "type": "note", 
                            "channel": 0
                        }
                    ]
                ], 
                [
                    289678, 
                    [
                        {
                            "pitch": 67, 
                            "t0": 289678, 
                            "v": 117, 
                            "dur": 61, 
                            "type": "note", 
                            "channel": 0
                        }
                    ]
                ], 
                [
                    289683, 
                    [
                        {
                            "pitch": 55, 
                            "t0": 289683, 
                            "v": 106, 
                            "dur": 64, 
                            "type": "note", 
                            "channel": 0
                        }, 
                        {
                            "pitch": 60, 
                            "t0": 289683, 
                            "v": 113, 
                            "dur": 64, 
                            "type": "note", 
                            "channel": 0
                        }, 
                        {
                            "pitch": 51, 
                            "t0": 289683, 
                            "v": 103, 
                            "dur": 69, 
                            "type": "note", 
                            "channel": 0
                        }, 
                        {
                            "pitch": 75, 
                            "t0": 289683, 
                            "v": 98, 
                            "dur": 69, 
                            "type": "note", 
                            "channel": 0
                        }, 
                        {
                            "pitch": 79, 
                            "t0": 289683, 
                            "v": 111, 
                            "dur": 87, 
                            "type": "note", 
                            "channel": 0
                        }
                    ]
                ], 
                [
                    289688, 
                    [
                        {
                            "pitch": 72, 
                            "t0": 289688, 
                            "v": 100, 
                            "dur": 28, 
                            "type": "note", 
                            "channel": 0
                        }
                    ]
                ], 
                [
                    289694, 
                    [
                        {
                            "pitch": 48, 
                            "t0": 289694, 
                            "v": 102, 
                            "dur": 22, 
                            "type": "note", 
                            "channel": 0
                        }
                    ]
                ], 
                [
                    289968, 
                    [
                        {
                            "pitch": 92, 
                            "t0": 289968, 
                            "v": 112, 
                            "dur": 205, 
                            "type": "note", 
                            "channel": 0
                        }, 
                        {
                            "pitch": 80, 
                            "t0": 289968, 
                            "v": 119, 
                            "dur": 225, 
                            "type": "note", 
                            "channel": 0
                        }
                    ]
                ], 
                [
                    289973, 
                    [
                        {
                            "pitch": 68, 
                            "t0": 289973, 
                            "v": 118, 
                            "dur": 228, 
                            "type": "note", 
                            "channel": 0
                        }, 
                        {
                            "pitch": 89, 
                            "t0": 289973, 
                            "v": 111, 
                            "dur": 236, 
                            "type": "note", 
                            "channel": 0
                        }
                    ]
                ], 
                [
                    289976, 
                    [
                        {
                            "pitch": 84, 
                            "t0": 289976, 
                            "v": 113, 
                            "dur": 162, 
                            "type": "note", 
                            "channel": 0
                        }, 
                        {
                            "pitch": 65, 
                            "t0": 289976, 
                            "v": 113, 
                            "dur": 209, 
                            "type": "note", 
                            "channel": 0
                        }
                    ]
                ], 
                [
                    290243, 
                    [
                        {
                            "pitch": 67, 
                            "t0": 290243, 
                            "v": 115, 
                            "dur": 33, 
                            "type": "note", 
                            "channel": 0
                        }, 
                        {
                            "pitch": 63, 
                            "t0": 290243, 
                            "v": 105, 
                            "dur": 61, 
                            "type": "note", 
                            "channel": 0
                        }, 
                        {
                            "pitch": 79, 
                            "t0": 290243, 
                            "v": 117, 
                            "dur": 147, 
                            "type": "note", 
                            "channel": 0
                        }, 
                        {
                            "pitch": 87, 
                            "t0": 290243, 
                            "v": 103, 
                            "dur": 182, 
                            "type": "note", 
                            "channel": 0
                        }, 
                        {
                            "pitch": 91, 
                            "t0": 290243, 
                            "v": 112, 
                            "dur": 212, 
                            "type": "note", 
                            "channel": 0
                        }
                    ]
                ], 
                [
                    290251, 
                    [
                        {
                            "pitch": 60, 
                            "t0": 290251, 
                            "v": 101, 
                            "dur": 32, 
                            "type": "note", 
                            "channel": 0
                        }
                    ]
                ], 
                [
                    290255, 
                    [
                        {
                            "pitch": 84, 
                            "t0": 290255, 
                            "v": 110, 
                            "dur": 149, 
                            "type": "note", 
                            "channel": 0
                        }
                    ]
                ], 
                [
                    290527, 
                    [
                        {
                            "pitch": 55, 
                            "t0": 290527, 
                            "v": 124, 
                            "dur": 348, 
                            "type": "note", 
                            "channel": 0
                        }, 
                        {
                            "pitch": 48, 
                            "t0": 290527, 
                            "v": 121, 
                            "dur": 370, 
                            "type": "note", 
                            "channel": 0
                        }
                    ]
                ], 
                [
                    290530, 
                    [
                        {
                            "pitch": 43, 
                            "t0": 290530, 
                            "v": 116, 
                            "dur": 275, 
                            "type": "note", 
                            "channel": 0
                        }, 
                        {
                            "pitch": 51, 
                            "t0": 290530, 
                            "v": 110, 
                            "dur": 378, 
                            "type": "note", 
                            "channel": 0
                        }
                    ]
                ], 
                [
                    290811, 
                    [
                        {
                            "pitch": 91, 
                            "t0": 290811, 
                            "v": 117, 
                            "dur": 159, 
                            "type": "note", 
                            "channel": 0
                        }, 
                        {
                            "pitch": 87, 
                            "t0": 290811, 
                            "v": 111, 
                            "dur": 203, 
                            "type": "note", 
                            "channel": 0
                        }
                    ]
                ], 
                [
                    290814, 
                    [
                        {
                            "pitch": 79, 
                            "t0": 290814, 
                            "v": 121, 
                            "dur": 101, 
                            "type": "note", 
                            "channel": 0
                        }, 
                        {
                            "pitch": 84, 
                            "t0": 290814, 
                            "v": 116, 
                            "dur": 156, 
                            "type": "note", 
                            "channel": 0
                        }
                    ]
                ], 
                [
                    291099, 
                    [
                        {
                            "pitch": 55, 
                            "t0": 291099, 
                            "v": 125, 
                            "dur": 177, 
                            "type": "note", 
                            "channel": 0
                        }, 
                        {
                            "pitch": 50, 
                            "t0": 291099, 
                            "v": 119, 
                            "dur": 188, 
                            "type": "note", 
                            "channel": 0
                        }, 
                        {
                            "pitch": 43, 
                            "t0": 291099, 
                            "v": 117, 
                            "dur": 202, 
                            "type": "note", 
                            "channel": 0
                        }
                    ]
                ], 
                [
                    291103, 
                    [
                        {
                            "pitch": 47, 
                            "t0": 291103, 
                            "v": 104, 
                            "dur": 227, 
                            "type": "note", 
                            "channel": 0
                        }
                    ]
                ], 
                [
                    291390, 
                    [
                        {
                            "pitch": 91, 
                            "t0": 291390, 
                            "v": 114, 
                            "dur": 35, 
                            "type": "note", 
                            "channel": 0
                        }, 
                        {
                            "pitch": 79, 
                            "t0": 291390, 
                            "v": 124, 
                            "dur": 73, 
                            "type": "note", 
                            "channel": 0
                        }
                    ]
                ], 
                [
                    291394, 
                    [
                        {
                            "pitch": 86, 
                            "t0": 291394, 
                            "v": 108, 
                            "dur": 45, 
                            "type": "note", 
                            "channel": 0
                        }
                    ]
                ], 
                [
                    291397, 
                    [
                        {
                            "pitch": 83, 
                            "t0": 291397, 
                            "v": 96, 
                            "dur": 28, 
                            "type": "note", 
                            "channel": 0
                        }
                    ]
                ], 
                [
                    291758, 
                    [
                        {
                            "pitch": 63, 
                            "t0": 291758, 
                            "v": 109, 
                            "dur": 298, 
                            "type": "note", 
                            "channel": 0
                        }, 
                        {
                            "pitch": 60, 
                            "t0": 291758, 
                            "v": 108, 
                            "dur": 330, 
                            "type": "note", 
                            "channel": 0
                        }, 
                        {
                            "pitch": 75, 
                            "t0": 291758, 
                            "v": 107, 
                            "dur": 391, 
                            "type": "note", 
                            "channel": 0
                        }
                    ]
                ], 
                [
                    291772, 
                    [
                        {
                            "pitch": 48, 
                            "t0": 291772, 
                            "v": 86, 
                            "dur": 296, 
                            "type": "note", 
                            "channel": 0
                        }
                    ]
                ], 
                [
                    292082, 
                    [
                        {
                            "pitch": 70, 
                            "t0": 292082, 
                            "v": 103, 
                            "dur": 117, 
                            "type": "note", 
                            "channel": 0
                        }, 
                        {
                            "pitch": 58, 
                            "t0": 292082, 
                            "v": 98, 
                            "dur": 131, 
                            "type": "note", 
                            "channel": 0
                        }
                    ]
                ], 
                [
                    292085, 
                    [
                        {
                            "pitch": 74, 
                            "t0": 292085, 
                            "v": 110, 
                            "dur": 97, 
                            "type": "note", 
                            "channel": 0
                        }
                    ]
                ], 
                [
                    292088, 
                    [
                        {
                            "pitch": 55, 
                            "t0": 292088, 
                            "v": 90, 
                            "dur": 122, 
                            "type": "note", 
                            "channel": 0
                        }
                    ]
                ], 
                [
                    292347, 
                    [
                        {
                            "pitch": 60, 
                            "t0": 292347, 
                            "v": 98, 
                            "dur": 195, 
                            "type": "note", 
                            "channel": 0
                        }, 
                        {
                            "pitch": 56, 
                            "t0": 292347, 
                            "v": 98, 
                            "dur": 213, 
                            "type": "note", 
                            "channel": 0
                        }, 
                        {
                            "pitch": 72, 
                            "t0": 292347, 
                            "v": 110, 
                            "dur": 238, 
                            "type": "note", 
                            "channel": 0
                        }
                    ]
                ], 
                [
                    292358, 
                    [
                        {
                            "pitch": 44, 
                            "t0": 292358, 
                            "v": 88, 
                            "dur": 227, 
                            "type": "note", 
                            "channel": 0
                        }
                    ]
                ], 
                [
                    292624, 
                    [
                        {
                            "pitch": 55, 
                            "t0": 292624, 
                            "v": 100, 
                            "dur": 107, 
                            "type": "note", 
                            "channel": 0
                        }
                    ]
                ], 
                [
                    292627, 
                    [
                        {
                            "pitch": 70, 
                            "t0": 292627, 
                            "v": 108, 
                            "dur": 87, 
                            "type": "note", 
                            "channel": 0
                        }
                    ]
                ], 
                [
                    292634, 
                    [
                        {
                            "pitch": 67, 
                            "t0": 292634, 
                            "v": 97, 
                            "dur": 66, 
                            "type": "note", 
                            "channel": 0
                        }
                    ]
                ], 
                [
                    292642, 
                    [
                        {
                            "pitch": 48, 
                            "t0": 292642, 
                            "v": 76, 
                            "dur": 31, 
                            "type": "note", 
                            "channel": 0
                        }, 
                        {
                            "pitch": 51, 
                            "t0": 292642, 
                            "v": 95, 
                            "dur": 109, 
                            "type": "note", 
                            "channel": 0
                        }
                    ]
                ], 
                [
                    292839, 
                    [
                        {
                            "pitch": 63, 
                            "t0": 292839, 
                            "v": 13, 
                            "dur": 56, 
                            "type": "note", 
                            "channel": 0
                        }
                    ]
                ], 
                [
                    292889, 
                    [
                        {
                            "pitch": 53, 
                            "t0": 292889, 
                            "v": 103, 
                            "dur": 134, 
                            "type": "note", 
                            "channel": 0
                        }, 
                        {
                            "pitch": 56, 
                            "t0": 292889, 
                            "v": 101, 
                            "dur": 137, 
                            "type": "note", 
                            "channel": 0
                        }, 
                        {
                            "pitch": 68, 
                            "t0": 292889, 
                            "v": 103, 
                            "dur": 217, 
                            "type": "note", 
                            "channel": 0
                        }
                    ]
                ], 
                [
                    292895, 
                    [
                        {
                            "pitch": 41, 
                            "t0": 292895, 
                            "v": 98, 
                            "dur": 172, 
                            "type": "note", 
                            "channel": 0
                        }
                    ]
                ], 
                [
                    293149, 
                    [
                        {
                            "pitch": 63, 
                            "t0": 293149, 
                            "v": 99, 
                            "dur": 31, 
                            "type": "note", 
                            "channel": 0
                        }
                    ]
                ], 
                [
                    293154, 
                    [
                        {
                            "pitch": 48, 
                            "t0": 293154, 
                            "v": 80, 
                            "dur": 30, 
                            "type": "note", 
                            "channel": 0
                        }, 
                        {
                            "pitch": 51, 
                            "t0": 293154, 
                            "v": 107, 
                            "dur": 44, 
                            "type": "note", 
                            "channel": 0
                        }, 
                        {
                            "pitch": 67, 
                            "t0": 293154, 
                            "v": 105, 
                            "dur": 62, 
                            "type": "note", 
                            "channel": 0
                        }
                    ]
                ], 
                [
                    293421, 
                    [
                        {
                            "pitch": 80, 
                            "t0": 293421, 
                            "v": 111, 
                            "dur": 247, 
                            "type": "note", 
                            "channel": 0
                        }, 
                        {
                            "pitch": 68, 
                            "t0": 293421, 
                            "v": 114, 
                            "dur": 259, 
                            "type": "note", 
                            "channel": 0
                        }, 
                        {
                            "pitch": 72, 
                            "t0": 293421, 
                            "v": 117, 
                            "dur": 309, 
                            "type": "note", 
                            "channel": 0
                        }
                    ]
                ], 
                [
                    293424, 
                    [
                        {
                            "pitch": 77, 
                            "t0": 293424, 
                            "v": 106, 
                            "dur": 217, 
                            "type": "note", 
                            "channel": 0
                        }, 
                        {
                            "pitch": 65, 
                            "t0": 293424, 
                            "v": 91, 
                            "dur": 226, 
                            "type": "note", 
                            "channel": 0
                        }
                    ]
                ], 
                [
                    293700, 
                    [
                        {
                            "pitch": 75, 
                            "t0": 293700, 
                            "v": 100, 
                            "dur": 34, 
                            "type": "note", 
                            "channel": 0
                        }, 
                        {
                            "pitch": 67, 
                            "t0": 293700, 
                            "v": 104, 
                            "dur": 34, 
                            "type": "note", 
                            "channel": 0
                        }
                    ]
                ], 
                [
                    293706, 
                    [
                        {
                            "pitch": 79, 
                            "t0": 293706, 
                            "v": 104, 
                            "dur": 24, 
                            "type": "note", 
                            "channel": 0
                        }
                    ]
                ], 
                [
                    293712, 
                    [
                        {
                            "pitch": 60, 
                            "t0": 293712, 
                            "v": 95, 
                            "dur": 29, 
                            "type": "note", 
                            "channel": 0
                        }
                    ]
                ], 
                [
                    293970, 
                    [
                        {
                            "pitch": 60, 
                            "t0": 293970, 
                            "v": 117, 
                            "dur": 229, 
                            "type": "note", 
                            "channel": 0
                        }, 
                        {
                            "pitch": 68, 
                            "t0": 293970, 
                            "v": 110, 
                            "dur": 232, 
                            "type": "note", 
                            "channel": 0
                        }
                    ]
                ], 
                [
                    293975, 
                    [
                        {
                            "pitch": 56, 
                            "t0": 293975, 
                            "v": 112, 
                            "dur": 196, 
                            "type": "note", 
                            "channel": 0
                        }, 
                        {
                            "pitch": 65, 
                            "t0": 293975, 
                            "v": 113, 
                            "dur": 215, 
                            "type": "note", 
                            "channel": 0
                        }
                    ]
                ], 
                [
                    293982, 
                    [
                        {
                            "pitch": 53, 
                            "t0": 293982, 
                            "v": 106, 
                            "dur": 217, 
                            "type": "note", 
                            "channel": 0
                        }
                    ]
                ], 
                [
                    294233, 
                    [
                        {
                            "pitch": 63, 
                            "t0": 294233, 
                            "v": 97, 
                            "dur": 24, 
                            "type": "note", 
                            "channel": 0
                        }
                    ]
                ], 
                [
                    294240, 
                    [
                        {
                            "pitch": 48, 
                            "t0": 294240, 
                            "v": 107, 
                            "dur": 51, 
                            "type": "note", 
                            "channel": 0
                        }, 
                        {
                            "pitch": 55, 
                            "t0": 294240, 
                            "v": 110, 
                            "dur": 59, 
                            "type": "note", 
                            "channel": 0
                        }
                    ]
                ], 
                [
                    294243, 
                    [
                        {
                            "pitch": 67, 
                            "t0": 294243, 
                            "v": 96, 
                            "dur": 29, 
                            "type": "note", 
                            "channel": 0
                        }
                    ]
                ], 
                [
                    294520, 
                    [
                        {
                            "pitch": 53, 
                            "t0": 294520, 
                            "v": 116, 
                            "dur": 139, 
                            "type": "note", 
                            "channel": 0
                        }
                    ]
                ], 
                [
                    294527, 
                    [
                        {
                            "pitch": 41, 
                            "t0": 294527, 
                            "v": 115, 
                            "dur": 184, 
                            "type": "note", 
                            "channel": 0
                        }
                    ]
                ], 
                [
                    294530, 
                    [
                        {
                            "pitch": 92, 
                            "t0": 294530, 
                            "v": 111, 
                            "dur": 217, 
                            "type": "note", 
                            "channel": 0
                        }
                    ]
                ], 
                [
                    294533, 
                    [
                        {
                            "pitch": 89, 
                            "t0": 294533, 
                            "v": 110, 
                            "dur": 122, 
                            "type": "note", 
                            "channel": 0
                        }, 
                        {
                            "pitch": 80, 
                            "t0": 294533, 
                            "v": 119, 
                            "dur": 175, 
                            "type": "note", 
                            "channel": 0
                        }
                    ]
                ], 
                [
                    294798, 
                    [
                        {
                            "pitch": 48, 
                            "t0": 294798, 
                            "v": 119, 
                            "dur": 61, 
                            "type": "note", 
                            "channel": 0
                        }, 
                        {
                            "pitch": 79, 
                            "t0": 294798, 
                            "v": 117, 
                            "dur": 122, 
                            "type": "note", 
                            "channel": 0
                        }, 
                        {
                            "pitch": 91, 
                            "t0": 294798, 
                            "v": 111, 
                            "dur": 142, 
                            "type": "note", 
                            "channel": 0
                        }
                    ]
                ], 
                [
                    294801, 
                    [
                        {
                            "pitch": 36, 
                            "t0": 294801, 
                            "v": 118, 
                            "dur": 22, 
                            "type": "note", 
                            "channel": 0
                        }, 
                        {
                            "pitch": 87, 
                            "t0": 294801, 
                            "v": 108, 
                            "dur": 180, 
                            "type": "note", 
                            "channel": 0
                        }
                    ]
                ], 
                [
                    295063, 
                    [
                        {
                            "pitch": 43, 
                            "t0": 295063, 
                            "v": 111, 
                            "dur": 125, 
                            "type": "note", 
                            "channel": 0
                        }, 
                        {
                            "pitch": 55, 
                            "t0": 295063, 
                            "v": 121, 
                            "dur": 128, 
                            "type": "note", 
                            "channel": 0
                        }, 
                        {
                            "pitch": 48, 
                            "t0": 295063, 
                            "v": 113, 
                            "dur": 169, 
                            "type": "note", 
                            "channel": 0
                        }
                    ]
                ], 
                [
                    295066, 
                    [
                        {
                            "pitch": 51, 
                            "t0": 295066, 
                            "v": 111, 
                            "dur": 188, 
                            "type": "note", 
                            "channel": 0
                        }
                    ]
                ], 
                [
                    295327, 
                    [
                        {
                            "pitch": 79, 
                            "t0": 295327, 
                            "v": 119, 
                            "dur": 108, 
                            "type": "note", 
                            "channel": 0
                        }, 
                        {
                            "pitch": 91, 
                            "t0": 295327, 
                            "v": 116, 
                            "dur": 117, 
                            "type": "note", 
                            "channel": 0
                        }, 
                        {
                            "pitch": 87, 
                            "t0": 295327, 
                            "v": 115, 
                            "dur": 231, 
                            "type": "note", 
                            "channel": 0
                        }
                    ]
                ], 
                [
                    295335, 
                    [
                        {
                            "pitch": 84, 
                            "t0": 295335, 
                            "v": 108, 
                            "dur": 146, 
                            "type": "note", 
                            "channel": 0
                        }
                    ]
                ], 
                [
                    295617, 
                    [
                        {
                            "pitch": 50, 
                            "t0": 295617, 
                            "v": 117, 
                            "dur": 201, 
                            "type": "note", 
                            "channel": 0
                        }
                    ]
                ], 
                [
                    295620, 
                    [
                        {
                            "pitch": 55, 
                            "t0": 295620, 
                            "v": 118, 
                            "dur": 163, 
                            "type": "note", 
                            "channel": 0
                        }, 
                        {
                            "pitch": 47, 
                            "t0": 295620, 
                            "v": 103, 
                            "dur": 208, 
                            "type": "note", 
                            "channel": 0
                        }, 
                        {
                            "pitch": 43, 
                            "t0": 295620, 
                            "v": 111, 
                            "dur": 241, 
                            "type": "note", 
                            "channel": 0
                        }
                    ]
                ], 
                [
                    295871, 
                    [
                        {
                            "pitch": 86, 
                            "t0": 295871, 
                            "v": 111, 
                            "dur": 66, 
                            "type": "note", 
                            "channel": 0
                        }, 
                        {
                            "pitch": 91, 
                            "t0": 295871, 
                            "v": 117, 
                            "dur": 71, 
                            "type": "note", 
                            "channel": 0
                        }, 
                        {
                            "pitch": 79, 
                            "t0": 295871, 
                            "v": 122, 
                            "dur": 97, 
                            "type": "note", 
                            "channel": 0
                        }
                    ]
                ], 
                [
                    295874, 
                    [
                        {
                            "pitch": 83, 
                            "t0": 295874, 
                            "v": 102, 
                            "dur": 63, 
                            "type": "note", 
                            "channel": 0
                        }
                    ]
                ], 
                [
                    296162, 
                    [
                        {
                            "pitch": 72, 
                            "t0": 296162, 
                            "v": 125, 
                            "dur": 87, 
                            "type": "note", 
                            "channel": 0
                        }, 
                        {
                            "pitch": 75, 
                            "t0": 296162, 
                            "v": 113, 
                            "dur": 132, 
                            "type": "note", 
                            "channel": 0
                        }
                    ]
                ], 
                [
                    296165, 
                    [
                        {
                            "pitch": 84, 
                            "t0": 296165, 
                            "v": 121, 
                            "dur": 54, 
                            "type": "note", 
                            "channel": 0
                        }, 
                        {
                            "pitch": 36, 
                            "t0": 296165, 
                            "v": 113, 
                            "dur": 54, 
                            "type": "note", 
                            "channel": 0
                        }, 
                        {
                            "pitch": 43, 
                            "t0": 296165, 
                            "v": 108, 
                            "dur": 87, 
                            "type": "note", 
                            "channel": 0
                        }, 
                        {
                            "pitch": 48, 
                            "t0": 296165, 
                            "v": 124, 
                            "dur": 91, 
                            "type": "note", 
                            "channel": 0
                        }
                    ]
                ], 
                [
                    296169, 
                    [
                        {
                            "pitch": 39, 
                            "t0": 296169, 
                            "v": 107, 
                            "dur": 64, 
                            "type": "note", 
                            "channel": 0
                        }
                    ]
                ], 
                [
                    296377, 
                    [
                        {
                            "pitch": 67, 
                            "t0": 296377, 
                            "v": 121, 
                            "dur": 73, 
                            "type": "note", 
                            "channel": 0
                        }, 
                        {
                            "pitch": 79, 
                            "t0": 296377, 
                            "v": 116, 
                            "dur": 73, 
                            "type": "note", 
                            "channel": 0
                        }
                    ]
                ], 
                [
                    296382, 
                    [
                        {
                            "pitch": 55, 
                            "t0": 296382, 
                            "v": 120, 
                            "dur": 53, 
                            "type": "note", 
                            "channel": 0
                        }
                    ]
                ], 
                [
                    296386, 
                    [
                        {
                            "pitch": 43, 
                            "t0": 296386, 
                            "v": 112, 
                            "dur": 41, 
                            "type": "note", 
                            "channel": 0
                        }
                    ]
                ], 
                [
                    296527, 
                    [
                        {
                            "pitch": 67, 
                            "t0": 296527, 
                            "v": 110, 
                            "dur": 64, 
                            "type": "note", 
                            "channel": 0
                        }, 
                        {
                            "pitch": 79, 
                            "t0": 296527, 
                            "v": 108, 
                            "dur": 75, 
                            "type": "note", 
                            "channel": 0
                        }
                    ]
                ], 
                [
                    296530, 
                    [
                        {
                            "pitch": 55, 
                            "t0": 296530, 
                            "v": 108, 
                            "dur": 56, 
                            "type": "note", 
                            "channel": 0
                        }
                    ]
                ], 
                [
                    296536, 
                    [
                        {
                            "pitch": 43, 
                            "t0": 296536, 
                            "v": 115, 
                            "dur": 50, 
                            "type": "note", 
                            "channel": 0
                        }
                    ]
                ], 
                [
                    296670, 
                    [
                        {
                            "pitch": 55, 
                            "t0": 296670, 
                            "v": 100, 
                            "dur": 58, 
                            "type": "note", 
                            "channel": 0
                        }
                    ]
                ], 
                [
                    296673, 
                    [
                        {
                            "pitch": 67, 
                            "t0": 296673, 
                            "v": 113, 
                            "dur": 55, 
                            "type": "note", 
                            "channel": 0
                        }, 
                        {
                            "pitch": 79, 
                            "t0": 296673, 
                            "v": 110, 
                            "dur": 63, 
                            "type": "note", 
                            "channel": 0
                        }
                    ]
                ], 
                [
                    296676, 
                    [
                        {
                            "pitch": 43, 
                            "t0": 296676, 
                            "v": 102, 
                            "dur": 60, 
                            "type": "note", 
                            "channel": 0
                        }
                    ]
                ], 
                [
                    296809, 
                    [
                        {
                            "pitch": 43, 
                            "t0": 296809, 
                            "v": 102, 
                            "dur": 33, 
                            "type": "note", 
                            "channel": 0
                        }, 
                        {
                            "pitch": 67, 
                            "t0": 296809, 
                            "v": 106, 
                            "dur": 45, 
                            "type": "note", 
                            "channel": 0
                        }, 
                        {
                            "pitch": 79, 
                            "t0": 296809, 
                            "v": 111, 
                            "dur": 67, 
                            "type": "note", 
                            "channel": 0
                        }
                    ]
                ], 
                [
                    296814, 
                    [
                        {
                            "pitch": 55, 
                            "t0": 296814, 
                            "v": 115, 
                            "dur": 48, 
                            "type": "note", 
                            "channel": 0
                        }
                    ]
                ], 
                [
                    297017, 
                    [
                        {
                            "pitch": 65, 
                            "t0": 297017, 
                            "v": 109, 
                            "dur": 67, 
                            "type": "note", 
                            "channel": 0
                        }, 
                        {
                            "pitch": 55, 
                            "t0": 297017, 
                            "v": 100, 
                            "dur": 67, 
                            "type": "note", 
                            "channel": 0
                        }, 
                        {
                            "pitch": 67, 
                            "t0": 297017, 
                            "v": 102, 
                            "dur": 74, 
                            "type": "note", 
                            "channel": 0
                        }
                    ]
                ], 
                [
                    297023, 
                    [
                        {
                            "pitch": 91, 
                            "t0": 297023, 
                            "v": 110, 
                            "dur": 61, 
                            "type": "note", 
                            "channel": 0
                        }, 
                        {
                            "pitch": 83, 
                            "t0": 297023, 
                            "v": 73, 
                            "dur": 71, 
                            "type": "note", 
                            "channel": 0
                        }, 
                        {
                            "pitch": 79, 
                            "t0": 297023, 
                            "v": 111, 
                            "dur": 76, 
                            "type": "note", 
                            "channel": 0
                        }
                    ]
                ], 
                [
                    297026, 
                    [
                        {
                            "pitch": 86, 
                            "t0": 297026, 
                            "v": 87, 
                            "dur": 65, 
                            "type": "note", 
                            "channel": 0
                        }
                    ]
                ], 
                [
                    297029, 
                    [
                        {
                            "pitch": 62, 
                            "t0": 297029, 
                            "v": 89, 
                            "dur": 55, 
                            "type": "note", 
                            "channel": 0
                        }
                    ]
                ], 
                [
                    297152, 
                    [
                        {
                            "pitch": 65, 
                            "t0": 297152, 
                            "v": 94, 
                            "dur": 66, 
                            "type": "note", 
                            "channel": 0
                        }, 
                        {
                            "pitch": 67, 
                            "t0": 297152, 
                            "v": 91, 
                            "dur": 69, 
                            "type": "note", 
                            "channel": 0
                        }
                    ]
                ], 
                [
                    297157, 
                    [
                        {
                            "pitch": 91, 
                            "t0": 297157, 
                            "v": 94, 
                            "dur": 56, 
                            "type": "note", 
                            "channel": 0
                        }, 
                        {
                            "pitch": 62, 
                            "t0": 297157, 
                            "v": 81, 
                            "dur": 56, 
                            "type": "note", 
                            "channel": 0
                        }, 
                        {
                            "pitch": 55, 
                            "t0": 297157, 
                            "v": 95, 
                            "dur": 61, 
                            "type": "note", 
                            "channel": 0
                        }, 
                        {
                            "pitch": 79, 
                            "t0": 297157, 
                            "v": 106, 
                            "dur": 61, 
                            "type": "note", 
                            "channel": 0
                        }
                    ]
                ], 
                [
                    297166, 
                    [
                        {
                            "pitch": 86, 
                            "t0": 297166, 
                            "v": 87, 
                            "dur": 67, 
                            "type": "note", 
                            "channel": 0
                        }, 
                        {
                            "pitch": 83, 
                            "t0": 297166, 
                            "v": 73, 
                            "dur": 70, 
                            "type": "note", 
                            "channel": 0
                        }
                    ]
                ], 
                [
                    297285, 
                    [
                        {
                            "pitch": 65, 
                            "t0": 297285, 
                            "v": 95, 
                            "dur": 67, 
                            "type": "note", 
                            "channel": 0
                        }, 
                        {
                            "pitch": 55, 
                            "t0": 297285, 
                            "v": 98, 
                            "dur": 79, 
                            "type": "note", 
                            "channel": 0
                        }, 
                        {
                            "pitch": 62, 
                            "t0": 297285, 
                            "v": 87, 
                            "dur": 83, 
                            "type": "note", 
                            "channel": 0
                        }, 
                        {
                            "pitch": 91, 
                            "t0": 297285, 
                            "v": 88, 
                            "dur": 107, 
                            "type": "note", 
                            "channel": 0
                        }, 
                        {
                            "pitch": 86, 
                            "t0": 297285, 
                            "v": 107, 
                            "dur": 137, 
                            "type": "note", 
                            "channel": 0
                        }
                    ]
                ], 
                [
                    297290, 
                    [
                        {
                            "pitch": 67, 
                            "t0": 297290, 
                            "v": 93, 
                            "dur": 78, 
                            "type": "note", 
                            "channel": 0
                        }, 
                        {
                            "pitch": 79, 
                            "t0": 297290, 
                            "v": 103, 
                            "dur": 110, 
                            "type": "note", 
                            "channel": 0
                        }
                    ]
                ], 
                [
                    297294, 
                    [
                        {
                            "pitch": 83, 
                            "t0": 297294, 
                            "v": 81, 
                            "dur": 83, 
                            "type": "note", 
                            "channel": 0
                        }
                    ]
                ], 
                [
                    297542, 
                    [
                        {
                            "pitch": 91, 
                            "t0": 297542, 
                            "v": 115, 
                            "dur": 2267, 
                            "type": "note", 
                            "channel": 0
                        }, 
                        {
                            "pitch": 79, 
                            "t0": 297542, 
                            "v": 122, 
                            "dur": 2315, 
                            "type": "note", 
                            "channel": 0
                        }
                    ]
                ], 
                [
                    297545, 
                    [
                        {
                            "pitch": 83, 
                            "t0": 297545, 
                            "v": 105, 
                            "dur": 612, 
                            "type": "note", 
                            "channel": 0
                        }, 
                        {
                            "pitch": 86, 
                            "t0": 297545, 
                            "v": 110, 
                            "dur": 684, 
                            "type": "note", 
                            "channel": 0
                        }, 
                        {
                            "pitch": 67, 
                            "t0": 297545, 
                            "v": 119, 
                            "dur": 1378, 
                            "type": "note", 
                            "channel": 0
                        }, 
                        {
                            "pitch": 65, 
                            "t0": 297545, 
                            "v": 120, 
                            "dur": 1386, 
                            "type": "note", 
                            "channel": 0
                        }
                    ]
                ], 
                [
                    297549, 
                    [
                        {
                            "pitch": 55, 
                            "t0": 297549, 
                            "v": 110, 
                            "dur": 1797, 
                            "type": "note", 
                            "channel": 0
                        }
                    ]
                ], 
                [
                    297552, 
                    [
                        {
                            "pitch": 59, 
                            "t0": 297552, 
                            "v": 84, 
                            "dur": 567, 
                            "type": "note", 
                            "channel": 0
                        }, 
                        {
                            "pitch": 62, 
                            "t0": 297552, 
                            "v": 97, 
                            "dur": 592, 
                            "type": "note", 
                            "channel": 0
                        }
                    ]
                ], 
                [
                    298421, 
                    [
                        {
                            "pitch": 63, 
                            "t0": 298421, 
                            "v": 102, 
                            "dur": 143, 
                            "type": "note", 
                            "channel": 0
                        }, 
                        {
                            "pitch": 87, 
                            "t0": 298421, 
                            "v": 104, 
                            "dur": 160, 
                            "type": "note", 
                            "channel": 0
                        }
                    ]
                ], 
                [
                    298428, 
                    [
                        {
                            "pitch": 60, 
                            "t0": 298428, 
                            "v": 96, 
                            "dur": 121, 
                            "type": "note", 
                            "channel": 0
                        }, 
                        {
                            "pitch": 84, 
                            "t0": 298428, 
                            "v": 103, 
                            "dur": 187, 
                            "type": "note", 
                            "channel": 0
                        }
                    ]
                ], 
                [
                    298737, 
                    [
                        {
                            "pitch": 86, 
                            "t0": 298737, 
                            "v": 105, 
                            "dur": 176, 
                            "type": "note", 
                            "channel": 0
                        }, 
                        {
                            "pitch": 89, 
                            "t0": 298737, 
                            "v": 111, 
                            "dur": 269, 
                            "type": "note", 
                            "channel": 0
                        }
                    ]
                ], 
                [
                    298742, 
                    [
                        {
                            "pitch": 62, 
                            "t0": 298742, 
                            "v": 99, 
                            "dur": 151, 
                            "type": "note", 
                            "channel": 0
                        }
                    ]
                ], 
                [
                    298751, 
                    [
                        {
                            "pitch": 59, 
                            "t0": 298751, 
                            "v": 81, 
                            "dur": 247, 
                            "type": "note", 
                            "channel": 0
                        }
                    ]
                ], 
                [
                    299027, 
                    [
                        {
                            "pitch": 86, 
                            "t0": 299027, 
                            "v": 107, 
                            "dur": 227, 
                            "type": "note", 
                            "channel": 0
                        }, 
                        {
                            "pitch": 65, 
                            "t0": 299027, 
                            "v": 108, 
                            "dur": 276, 
                            "type": "note", 
                            "channel": 0
                        }
                    ]
                ], 
                [
                    299030, 
                    [
                        {
                            "pitch": 62, 
                            "t0": 299030, 
                            "v": 97, 
                            "dur": 131, 
                            "type": "note", 
                            "channel": 0
                        }, 
                        {
                            "pitch": 83, 
                            "t0": 299030, 
                            "v": 93, 
                            "dur": 131, 
                            "type": "note", 
                            "channel": 0
                        }
                    ]
                ], 
                [
                    299303, 
                    [
                        {
                            "pitch": 63, 
                            "t0": 299303, 
                            "v": 103, 
                            "dur": 114, 
                            "type": "note", 
                            "channel": 0
                        }, 
                        {
                            "pitch": 87, 
                            "t0": 299303, 
                            "v": 104, 
                            "dur": 139, 
                            "type": "note", 
                            "channel": 0
                        }
                    ]
                ], 
                [
                    299308, 
                    [
                        {
                            "pitch": 84, 
                            "t0": 299308, 
                            "v": 106, 
                            "dur": 198, 
                            "type": "note", 
                            "channel": 0
                        }
                    ]
                ], 
                [
                    299311, 
                    [
                        {
                            "pitch": 60, 
                            "t0": 299311, 
                            "v": 100, 
                            "dur": 74, 
                            "type": "note", 
                            "channel": 0
                        }
                    ]
                ], 
                [
                    299417, 
                    [
                        {
                            "pitch": 55, 
                            "t0": 299417, 
                            "v": 97, 
                            "dur": 78, 
                            "type": "note", 
                            "channel": 0
                        }
                    ]
                ], 
                [
                    299551, 
                    [
                        {
                            "pitch": 55, 
                            "t0": 299551, 
                            "v": 106, 
                            "dur": 69, 
                            "type": "note", 
                            "channel": 0
                        }, 
                        {
                            "pitch": 62, 
                            "t0": 299551, 
                            "v": 112, 
                            "dur": 69, 
                            "type": "note", 
                            "channel": 0
                        }
                    ]
                ], 
                [
                    299554, 
                    [
                        {
                            "pitch": 59, 
                            "t0": 299554, 
                            "v": 101, 
                            "dur": 88, 
                            "type": "note", 
                            "channel": 0
                        }, 
                        {
                            "pitch": 86, 
                            "t0": 299554, 
                            "v": 103, 
                            "dur": 125, 
                            "type": "note", 
                            "channel": 0
                        }, 
                        {
                            "pitch": 89, 
                            "t0": 299554, 
                            "v": 107, 
                            "dur": 216, 
                            "type": "note", 
                            "channel": 0
                        }
                    ]
                ], 
                [
                    299683, 
                    [
                        {
                            "pitch": 55, 
                            "t0": 299683, 
                            "v": 84, 
                            "dur": 87, 
                            "type": "note", 
                            "channel": 0
                        }
                    ]
                ], 
                [
                    299687, 
                    [
                        {
                            "pitch": 62, 
                            "t0": 299687, 
                            "v": 64, 
                            "dur": 98, 
                            "type": "note", 
                            "channel": 0
                        }
                    ]
                ], 
                [
                    299697, 
                    [
                        {
                            "pitch": 59, 
                            "t0": 299697, 
                            "v": 81, 
                            "dur": 26, 
                            "type": "note", 
                            "channel": 0
                        }
                    ]
                ], 
                [
                    299832, 
                    [
                        {
                            "pitch": 63, 
                            "t0": 299832, 
                            "v": 116, 
                            "dur": 55, 
                            "type": "note", 
                            "channel": 0
                        }, 
                        {
                            "pitch": 60, 
                            "t0": 299832, 
                            "v": 106, 
                            "dur": 63, 
                            "type": "note", 
                            "channel": 0
                        }
                    ]
                ], 
                [
                    299835, 
                    [
                        {
                            "pitch": 55, 
                            "t0": 299835, 
                            "v": 96, 
                            "dur": 52, 
                            "type": "note", 
                            "channel": 0
                        }, 
                        {
                            "pitch": 87, 
                            "t0": 299835, 
                            "v": 109, 
                            "dur": 52, 
                            "type": "note", 
                            "channel": 0
                        }
                    ]
                ], 
                [
                    299839, 
                    [
                        {
                            "pitch": 84, 
                            "t0": 299839, 
                            "v": 112, 
                            "dur": 56, 
                            "type": "note", 
                            "channel": 0
                        }
                    ]
                ], 
                [
                    300010, 
                    [
                        {
                            "pitch": 55, 
                            "t0": 300010, 
                            "v": 103, 
                            "dur": 41, 
                            "type": "note", 
                            "channel": 0
                        }, 
                        {
                            "pitch": 67, 
                            "t0": 300010, 
                            "v": 110, 
                            "dur": 70, 
                            "type": "note", 
                            "channel": 0
                        }
                    ]
                ], 
                [
                    300016, 
                    [
                        {
                            "pitch": 43, 
                            "t0": 300016, 
                            "v": 106, 
                            "dur": 28, 
                            "type": "note", 
                            "channel": 0
                        }
                    ]
                ], 
                [
                    300135, 
                    [
                        {
                            "pitch": 67, 
                            "t0": 300135, 
                            "v": 104, 
                            "dur": 70, 
                            "type": "note", 
                            "channel": 0
                        }
                    ]
                ], 
                [
                    300144, 
                    [
                        {
                            "pitch": 55, 
                            "t0": 300144, 
                            "v": 95, 
                            "dur": 72, 
                            "type": "note", 
                            "channel": 0
                        }
                    ]
                ], 
                [
                    300151, 
                    [
                        {
                            "pitch": 43, 
                            "t0": 300151, 
                            "v": 98, 
                            "dur": 32, 
                            "type": "note", 
                            "channel": 0
                        }
                    ]
                ], 
                [
                    300266, 
                    [
                        {
                            "pitch": 67, 
                            "t0": 300266, 
                            "v": 103, 
                            "dur": 76, 
                            "type": "note", 
                            "channel": 0
                        }
                    ]
                ], 
                [
                    300275, 
                    [
                        {
                            "pitch": 55, 
                            "t0": 300275, 
                            "v": 97, 
                            "dur": 77, 
                            "type": "note", 
                            "channel": 0
                        }
                    ]
                ], 
                [
                    300285, 
                    [
                        {
                            "pitch": 43, 
                            "t0": 300285, 
                            "v": 94, 
                            "dur": 32, 
                            "type": "note", 
                            "channel": 0
                        }
                    ]
                ], 
                [
                    300416, 
                    [
                        {
                            "pitch": 67, 
                            "t0": 300416, 
                            "v": 97, 
                            "dur": 76, 
                            "type": "note", 
                            "channel": 0
                        }, 
                        {
                            "pitch": 55, 
                            "t0": 300416, 
                            "v": 96, 
                            "dur": 84, 
                            "type": "note", 
                            "channel": 0
                        }
                    ]
                ], 
                [
                    300433, 
                    [
                        {
                            "pitch": 43, 
                            "t0": 300433, 
                            "v": 103, 
                            "dur": 28, 
                            "type": "note", 
                            "channel": 0
                        }
                    ]
                ], 
                [
                    300551, 
                    [
                        {
                            "pitch": 67, 
                            "t0": 300551, 
                            "v": 106, 
                            "dur": 63, 
                            "type": "note", 
                            "channel": 0
                        }
                    ]
                ], 
                [
                    300558, 
                    [
                        {
                            "pitch": 79, 
                            "t0": 300558, 
                            "v": 113, 
                            "dur": 71, 
                            "type": "note", 
                            "channel": 0
                        }
                    ]
                ], 
                [
                    300561, 
                    [
                        {
                            "pitch": 55, 
                            "t0": 300561, 
                            "v": 99, 
                            "dur": 76, 
                            "type": "note", 
                            "channel": 0
                        }
                    ]
                ], 
                [
                    300573, 
                    [
                        {
                            "pitch": 43, 
                            "t0": 300573, 
                            "v": 101, 
                            "dur": 27, 
                            "type": "note", 
                            "channel": 0
                        }
                    ]
                ], 
                [
                    300689, 
                    [
                        {
                            "pitch": 79, 
                            "t0": 300689, 
                            "v": 108, 
                            "dur": 62, 
                            "type": "note", 
                            "channel": 0
                        }, 
                        {
                            "pitch": 55, 
                            "t0": 300689, 
                            "v": 102, 
                            "dur": 62, 
                            "type": "note", 
                            "channel": 0
                        }, 
                        {
                            "pitch": 67, 
                            "t0": 300689, 
                            "v": 101, 
                            "dur": 72, 
                            "type": "note", 
                            "channel": 0
                        }
                    ]
                ], 
                [
                    300695, 
                    [
                        {
                            "pitch": 43, 
                            "t0": 300695, 
                            "v": 94, 
                            "dur": 70, 
                            "type": "note", 
                            "channel": 0
                        }
                    ]
                ], 
                [
                    300838, 
                    [
                        {
                            "pitch": 67, 
                            "t0": 300838, 
                            "v": 108, 
                            "dur": 72, 
                            "type": "note", 
                            "channel": 0
                        }
                    ]
                ], 
                [
                    300842, 
                    [
                        {
                            "pitch": 79, 
                            "t0": 300842, 
                            "v": 108, 
                            "dur": 73, 
                            "type": "note", 
                            "channel": 0
                        }
                    ]
                ], 
                [
                    300853, 
                    [
                        {
                            "pitch": 43, 
                            "t0": 300853, 
                            "v": 89, 
                            "dur": 28, 
                            "type": "note", 
                            "channel": 0
                        }, 
                        {
                            "pitch": 55, 
                            "t0": 300853, 
                            "v": 100, 
                            "dur": 35, 
                            "type": "note", 
                            "channel": 0
                        }
                    ]
                ], 
                [
                    300971, 
                    [
                        {
                            "pitch": 67, 
                            "t0": 300971, 
                            "v": 90, 
                            "dur": 64, 
                            "type": "note", 
                            "channel": 0
                        }, 
                        {
                            "pitch": 79, 
                            "t0": 300971, 
                            "v": 104, 
                            "dur": 77, 
                            "type": "note", 
                            "channel": 0
                        }
                    ]
                ], 
                [
                    300976, 
                    [
                        {
                            "pitch": 55, 
                            "t0": 300976, 
                            "v": 102, 
                            "dur": 37, 
                            "type": "note", 
                            "channel": 0
                        }
                    ]
                ], 
                [
                    300982, 
                    [
                        {
                            "pitch": 43, 
                            "t0": 300982, 
                            "v": 98, 
                            "dur": 73, 
                            "type": "note", 
                            "channel": 0
                        }
                    ]
                ], 
                [
                    301180, 
                    [
                        {
                            "pitch": 79, 
                            "t0": 301180, 
                            "v": 108, 
                            "dur": 67, 
                            "type": "note", 
                            "channel": 0
                        }, 
                        {
                            "pitch": 91, 
                            "t0": 301180, 
                            "v": 110, 
                            "dur": 78, 
                            "type": "note", 
                            "channel": 0
                        }, 
                        {
                            "pitch": 43, 
                            "t0": 301180, 
                            "v": 103, 
                            "dur": 83, 
                            "type": "note", 
                            "channel": 0
                        }
                    ]
                ], 
                [
                    301185, 
                    [
                        {
                            "pitch": 31, 
                            "t0": 301185, 
                            "v": 108, 
                            "dur": 47, 
                            "type": "note", 
                            "channel": 0
                        }
                    ]
                ], 
                [
                    301331, 
                    [
                        {
                            "pitch": 91, 
                            "t0": 301331, 
                            "v": 95, 
                            "dur": 72, 
                            "type": "note", 
                            "channel": 0
                        }
                    ]
                ], 
                [
                    301335, 
                    [
                        {
                            "pitch": 43, 
                            "t0": 301335, 
                            "v": 87, 
                            "dur": 71, 
                            "type": "note", 
                            "channel": 0
                        }
                    ]
                ], 
                [
                    301338, 
                    [
                        {
                            "pitch": 31, 
                            "t0": 301338, 
                            "v": 104, 
                            "dur": 34, 
                            "type": "note", 
                            "channel": 0
                        }, 
                        {
                            "pitch": 79, 
                            "t0": 301338, 
                            "v": 114, 
                            "dur": 59, 
                            "type": "note", 
                            "channel": 0
                        }
                    ]
                ], 
                [
                    301466, 
                    [
                        {
                            "pitch": 79, 
                            "t0": 301466, 
                            "v": 112, 
                            "dur": 78, 
                            "type": "note", 
                            "channel": 0
                        }, 
                        {
                            "pitch": 91, 
                            "t0": 301466, 
                            "v": 103, 
                            "dur": 78, 
                            "type": "note", 
                            "channel": 0
                        }, 
                        {
                            "pitch": 43, 
                            "t0": 301466, 
                            "v": 99, 
                            "dur": 81, 
                            "type": "note", 
                            "channel": 0
                        }
                    ]
                ], 
                [
                    301472, 
                    [
                        {
                            "pitch": 31, 
                            "t0": 301472, 
                            "v": 108, 
                            "dur": 61, 
                            "type": "note", 
                            "channel": 0
                        }
                    ]
                ], 
                [
                    301617, 
                    [
                        {
                            "pitch": 79, 
                            "t0": 301617, 
                            "v": 120, 
                            "dur": 75, 
                            "type": "note", 
                            "channel": 0
                        }, 
                        {
                            "pitch": 91, 
                            "t0": 301617, 
                            "v": 108, 
                            "dur": 83, 
                            "type": "note", 
                            "channel": 0
                        }
                    ]
                ], 
                [
                    301628, 
                    [
                        {
                            "pitch": 31, 
                            "t0": 301628, 
                            "v": 108, 
                            "dur": 53, 
                            "type": "note", 
                            "channel": 0
                        }, 
                        {
                            "pitch": 43, 
                            "t0": 301628, 
                            "v": 104, 
                            "dur": 64, 
                            "type": "note", 
                            "channel": 0
                        }
                    ]
                ], 
                [
                    301776, 
                    [
                        {
                            "pitch": 79, 
                            "t0": 301776, 
                            "v": 121, 
                            "dur": 76, 
                            "type": "note", 
                            "channel": 0
                        }, 
                        {
                            "pitch": 91, 
                            "t0": 301776, 
                            "v": 107, 
                            "dur": 83, 
                            "type": "note", 
                            "channel": 0
                        }
                    ]
                ], 
                [
                    301781, 
                    [
                        {
                            "pitch": 43, 
                            "t0": 301781, 
                            "v": 114, 
                            "dur": 78, 
                            "type": "note", 
                            "channel": 0
                        }
                    ]
                ], 
                [
                    301784, 
                    [
                        {
                            "pitch": 31, 
                            "t0": 301784, 
                            "v": 116, 
                            "dur": 65, 
                            "type": "note", 
                            "channel": 0
                        }
                    ]
                ], 
                [
                    301951, 
                    [
                        {
                            "pitch": 91, 
                            "t0": 301951, 
                            "v": 111, 
                            "dur": 78, 
                            "type": "note", 
                            "channel": 0
                        }, 
                        {
                            "pitch": 79, 
                            "t0": 301951, 
                            "v": 127, 
                            "dur": 86, 
                            "type": "note", 
                            "channel": 0
                        }
                    ]
                ], 
                [
                    301955, 
                    [
                        {
                            "pitch": 31, 
                            "t0": 301955, 
                            "v": 123, 
                            "dur": 58, 
                            "type": "note", 
                            "channel": 0
                        }, 
                        {
                            "pitch": 43, 
                            "t0": 301955, 
                            "v": 120, 
                            "dur": 74, 
                            "type": "note", 
                            "channel": 0
                        }
                    ]
                ], 
                [
                    302147, 
                    [
                        {
                            "pitch": 79, 
                            "t0": 302147, 
                            "v": 127, 
                            "dur": 58, 
                            "type": "note", 
                            "channel": 0
                        }, 
                        {
                            "pitch": 91, 
                            "t0": 302147, 
                            "v": 123, 
                            "dur": 58, 
                            "type": "note", 
                            "channel": 0
                        }
                    ]
                ], 
                [
                    302152, 
                    [
                        {
                            "pitch": 43, 
                            "t0": 302152, 
                            "v": 124, 
                            "dur": 69, 
                            "type": "note", 
                            "channel": 0
                        }
                    ]
                ], 
                [
                    302155, 
                    [
                        {
                            "pitch": 31, 
                            "t0": 302155, 
                            "v": 122, 
                            "dur": 42, 
                            "type": "note", 
                            "channel": 0
                        }
                    ]
                ], 
                [
                    302484, 
                    [
                        {
                            "pitch": 55, 
                            "t0": 302484, 
                            "v": 123, 
                            "dur": 1843, 
                            "type": "note", 
                            "channel": 0
                        }, 
                        {
                            "pitch": 67, 
                            "t0": 302484, 
                            "v": 120, 
                            "dur": 1913, 
                            "type": "note", 
                            "channel": 0
                        }
                    ]
                ], 
                [
                    302487, 
                    [
                        {
                            "pitch": 63, 
                            "t0": 302487, 
                            "v": 109, 
                            "dur": 1877, 
                            "type": "note", 
                            "channel": 0
                        }
                    ]
                ], 
                [
                    302491, 
                    [
                        {
                            "pitch": 39, 
                            "t0": 302491, 
                            "v": 127, 
                            "dur": 146, 
                            "type": "note", 
                            "channel": 0
                        }
                    ]
                ], 
                [
                    302494, 
                    [
                        {
                            "pitch": 27, 
                            "t0": 302494, 
                            "v": 120, 
                            "dur": 104, 
                            "type": "note", 
                            "channel": 0
                        }, 
                        {
                            "pitch": 31, 
                            "t0": 302494, 
                            "v": 116, 
                            "dur": 107, 
                            "type": "note", 
                            "channel": 0
                        }
                    ]
                ], 
                [
                    302651, 
                    [
                        {
                            "pitch": 27, 
                            "t0": 302651, 
                            "v": 88, 
                            "dur": 95, 
                            "type": "note", 
                            "channel": 0
                        }
                    ]
                ], 
                [
                    302654, 
                    [
                        {
                            "pitch": 31, 
                            "t0": 302654, 
                            "v": 100, 
                            "dur": 86, 
                            "type": "note", 
                            "channel": 0
                        }
                    ]
                ], 
                [
                    302710, 
                    [
                        {
                            "pitch": 39, 
                            "t0": 302710, 
                            "v": 102, 
                            "dur": 80, 
                            "type": "note", 
                            "channel": 0
                        }
                    ]
                ], 
                [
                    302785, 
                    [
                        {
                            "pitch": 30, 
                            "t0": 302785, 
                            "v": 102, 
                            "dur": 82, 
                            "type": "note", 
                            "channel": 0
                        }
                    ]
                ], 
                [
                    302790, 
                    [
                        {
                            "pitch": 27, 
                            "t0": 302790, 
                            "v": 97, 
                            "dur": 72, 
                            "type": "note", 
                            "channel": 0
                        }
                    ]
                ], 
                [
                    302852, 
                    [
                        {
                            "pitch": 39, 
                            "t0": 302852, 
                            "v": 102, 
                            "dur": 91, 
                            "type": "note", 
                            "channel": 0
                        }
                    ]
                ], 
                [
                    302871, 
                    [
                        {
                            "pitch": 31, 
                            "t0": 302871, 
                            "v": 53, 
                            "dur": 147, 
                            "type": "note", 
                            "channel": 0
                        }
                    ]
                ], 
                [
                    302926, 
                    [
                        {
                            "pitch": 27, 
                            "t0": 302926, 
                            "v": 92, 
                            "dur": 70, 
                            "type": "note", 
                            "channel": 0
                        }
                    ]
                ], 
                [
                    302977, 
                    [
                        {
                            "pitch": 39, 
                            "t0": 302977, 
                            "v": 99, 
                            "dur": 80, 
                            "type": "note", 
                            "channel": 0
                        }
                    ]
                ], 
                [
                    303041, 
                    [
                        {
                            "pitch": 27, 
                            "t0": 303041, 
                            "v": 103, 
                            "dur": 81, 
                            "type": "note", 
                            "channel": 0
                        }
                    ]
                ], 
                [
                    303057, 
                    [
                        {
                            "pitch": 31, 
                            "t0": 303057, 
                            "v": 110, 
                            "dur": 84, 
                            "type": "note", 
                            "channel": 0
                        }
                    ]
                ], 
                [
                    303099, 
                    [
                        {
                            "pitch": 39, 
                            "t0": 303099, 
                            "v": 99, 
                            "dur": 79, 
                            "type": "note", 
                            "channel": 0
                        }
                    ]
                ], 
                [
                    303161, 
                    [
                        {
                            "pitch": 27, 
                            "t0": 303161, 
                            "v": 107, 
                            "dur": 92, 
                            "type": "note", 
                            "channel": 0
                        }
                    ]
                ], 
                [
                    303178, 
                    [
                        {
                            "pitch": 31, 
                            "t0": 303178, 
                            "v": 97, 
                            "dur": 88, 
                            "type": "note", 
                            "channel": 0
                        }
                    ]
                ], 
                [
                    303225, 
                    [
                        {
                            "pitch": 39, 
                            "t0": 303225, 
                            "v": 97, 
                            "dur": 88, 
                            "type": "note", 
                            "channel": 0
                        }
                    ]
                ], 
                [
                    303291, 
                    [
                        {
                            "pitch": 27, 
                            "t0": 303291, 
                            "v": 108, 
                            "dur": 59, 
                            "type": "note", 
                            "channel": 0
                        }
                    ]
                ], 
                [
                    303308, 
                    [
                        {
                            "pitch": 31, 
                            "t0": 303308, 
                            "v": 96, 
                            "dur": 76, 
                            "type": "note", 
                            "channel": 0
                        }
                    ]
                ], 
                [
                    303355, 
                    [
                        {
                            "pitch": 39, 
                            "t0": 303355, 
                            "v": 103, 
                            "dur": 72, 
                            "type": "note", 
                            "channel": 0
                        }
                    ]
                ], 
                [
                    303412, 
                    [
                        {
                            "pitch": 27, 
                            "t0": 303412, 
                            "v": 90, 
                            "dur": 75, 
                            "type": "note", 
                            "channel": 0
                        }
                    ]
                ], 
                [
                    303427, 
                    [
                        {
                            "pitch": 31, 
                            "t0": 303427, 
                            "v": 87, 
                            "dur": 586, 
                            "type": "note", 
                            "channel": 0
                        }
                    ]
                ], 
                [
                    303473, 
                    [
                        {
                            "pitch": 39, 
                            "t0": 303473, 
                            "v": 98, 
                            "dur": 85, 
                            "type": "note", 
                            "channel": 0
                        }
                    ]
                ], 
                [
                    303528, 
                    [
                        {
                            "pitch": 27, 
                            "t0": 303528, 
                            "v": 100, 
                            "dur": 89, 
                            "type": "note", 
                            "channel": 0
                        }
                    ]
                ], 
                [
                    303600, 
                    [
                        {
                            "pitch": 39, 
                            "t0": 303600, 
                            "v": 97, 
                            "dur": 81, 
                            "type": "note", 
                            "channel": 0
                        }
                    ]
                ], 
                [
                    303661, 
                    [
                        {
                            "pitch": 27, 
                            "t0": 303661, 
                            "v": 100, 
                            "dur": 84, 
                            "type": "note", 
                            "channel": 0
                        }
                    ]
                ], 
                [
                    303723, 
                    [
                        {
                            "pitch": 39, 
                            "t0": 303723, 
                            "v": 100, 
                            "dur": 81, 
                            "type": "note", 
                            "channel": 0
                        }
                    ]
                ], 
                [
                    303773, 
                    [
                        {
                            "pitch": 27, 
                            "t0": 303773, 
                            "v": 73, 
                            "dur": 78, 
                            "type": "note", 
                            "channel": 0
                        }
                    ]
                ], 
                [
                    303841, 
                    [
                        {
                            "pitch": 39, 
                            "t0": 303841, 
                            "v": 96, 
                            "dur": 79, 
                            "type": "note", 
                            "channel": 0
                        }
                    ]
                ], 
                [
                    303891, 
                    [
                        {
                            "pitch": 27, 
                            "t0": 303891, 
                            "v": 104, 
                            "dur": 89, 
                            "type": "note", 
                            "channel": 0
                        }
                    ]
                ], 
                [
                    303968, 
                    [
                        {
                            "pitch": 39, 
                            "t0": 303968, 
                            "v": 89, 
                            "dur": 93, 
                            "type": "note", 
                            "channel": 0
                        }
                    ]
                ], 
                [
                    304027, 
                    [
                        {
                            "pitch": 27, 
                            "t0": 304027, 
                            "v": 88, 
                            "dur": 89, 
                            "type": "note", 
                            "channel": 0
                        }
                    ]
                ], 
                [
                    304043, 
                    [
                        {
                            "pitch": 31, 
                            "t0": 304043, 
                            "v": 67, 
                            "dur": 284, 
                            "type": "note", 
                            "channel": 0
                        }
                    ]
                ], 
                [
                    304108, 
                    [
                        {
                            "pitch": 39, 
                            "t0": 304108, 
                            "v": 103, 
                            "dur": 256, 
                            "type": "note", 
                            "channel": 0
                        }
                    ]
                ], 
                [
                    304141, 
                    [
                        {
                            "pitch": 27, 
                            "t0": 304141, 
                            "v": 73, 
                            "dur": 236, 
                            "type": "note", 
                            "channel": 0
                        }
                    ]
                ], 
                [
                    305462, 
                    [
                        {
                            "pitch": 41, 
                            "t0": 305462, 
                            "v": 123, 
                            "dur": 142, 
                            "type": "note", 
                            "channel": 0
                        }, 
                        {
                            "pitch": 29, 
                            "t0": 305462, 
                            "v": 120, 
                            "dur": 145, 
                            "type": "note", 
                            "channel": 0
                        }, 
                        {
                            "pitch": 91, 
                            "t0": 305462, 
                            "v": 119, 
                            "dur": 145, 
                            "type": "note", 
                            "channel": 0
                        }
                    ]
                ], 
                [
                    305465, 
                    [
                        {
                            "pitch": 79, 
                            "t0": 305465, 
                            "v": 126, 
                            "dur": 142, 
                            "type": "note", 
                            "channel": 0
                        }, 
                        {
                            "pitch": 89, 
                            "t0": 305465, 
                            "v": 117, 
                            "dur": 153, 
                            "type": "note", 
                            "channel": 0
                        }
                    ]
                ], 
                [
                    305657, 
                    [
                        {
                            "pitch": 79, 
                            "t0": 305657, 
                            "v": 122, 
                            "dur": 108, 
                            "type": "note", 
                            "channel": 0
                        }, 
                        {
                            "pitch": 91, 
                            "t0": 305657, 
                            "v": 111, 
                            "dur": 114, 
                            "type": "note", 
                            "channel": 0
                        }
                    ]
                ], 
                [
                    305660, 
                    [
                        {
                            "pitch": 89, 
                            "t0": 305660, 
                            "v": 120, 
                            "dur": 114, 
                            "type": "note", 
                            "channel": 0
                        }
                    ]
                ], 
                [
                    305664, 
                    [
                        {
                            "pitch": 29, 
                            "t0": 305664, 
                            "v": 108, 
                            "dur": 107, 
                            "type": "note", 
                            "channel": 0
                        }, 
                        {
                            "pitch": 41, 
                            "t0": 305664, 
                            "v": 111, 
                            "dur": 113, 
                            "type": "note", 
                            "channel": 0
                        }
                    ]
                ], 
                [
                    305845, 
                    [
                        {
                            "pitch": 91, 
                            "t0": 305845, 
                            "v": 101, 
                            "dur": 49, 
                            "type": "note", 
                            "channel": 0
                        }, 
                        {
                            "pitch": 89, 
                            "t0": 305845, 
                            "v": 103, 
                            "dur": 62, 
                            "type": "note", 
                            "channel": 0
                        }
                    ]
                ], 
                [
                    305849, 
                    [
                        {
                            "pitch": 79, 
                            "t0": 305849, 
                            "v": 124, 
                            "dur": 77, 
                            "type": "note", 
                            "channel": 0
                        }
                    ]
                ], 
                [
                    305852, 
                    [
                        {
                            "pitch": 41, 
                            "t0": 305852, 
                            "v": 113, 
                            "dur": 74, 
                            "type": "note", 
                            "channel": 0
                        }, 
                        {
                            "pitch": 29, 
                            "t0": 305852, 
                            "v": 109, 
                            "dur": 74, 
                            "type": "note", 
                            "channel": 0
                        }
                    ]
                ], 
                [
                    306210, 
                    [
                        {
                            "pitch": 38, 
                            "t0": 306210, 
                            "v": 126, 
                            "dur": 118, 
                            "type": "note", 
                            "channel": 0
                        }, 
                        {
                            "pitch": 55, 
                            "t0": 306210, 
                            "v": 123, 
                            "dur": 2418, 
                            "type": "note", 
                            "channel": 0
                        }, 
                        {
                            "pitch": 67, 
                            "t0": 306210, 
                            "v": 121, 
                            "dur": 2586, 
                            "type": "note", 
                            "channel": 0
                        }
                    ]
                ], 
                [
                    306214, 
                    [
                        {
                            "pitch": 26, 
                            "t0": 306214, 
                            "v": 122, 
                            "dur": 103, 
                            "type": "note", 
                            "channel": 0
                        }, 
                        {
                            "pitch": 31, 
                            "t0": 306214, 
                            "v": 121, 
                            "dur": 119, 
                            "type": "note", 
                            "channel": 0
                        }, 
                        {
                            "pitch": 62, 
                            "t0": 306214, 
                            "v": 114, 
                            "dur": 2460, 
                            "type": "note", 
                            "channel": 0
                        }
                    ]
                ], 
                [
                    306372, 
                    [
                        {
                            "pitch": 26, 
                            "t0": 306372, 
                            "v": 78, 
                            "dur": 86, 
                            "type": "note", 
                            "channel": 0
                        }
                    ]
                ], 
                [
                    306399, 
                    [
                        {
                            "pitch": 31, 
                            "t0": 306399, 
                            "v": 87, 
                            "dur": 65, 
                            "type": "note", 
                            "channel": 0
                        }
                    ]
                ], 
                [
                    306430, 
                    [
                        {
                            "pitch": 38, 
                            "t0": 306430, 
                            "v": 104, 
                            "dur": 73, 
                            "type": "note", 
                            "channel": 0
                        }
                    ]
                ], 
                [
                    306503, 
                    [
                        {
                            "pitch": 31, 
                            "t0": 306503, 
                            "v": 120, 
                            "dur": 106, 
                            "type": "note", 
                            "channel": 0
                        }
                    ]
                ], 
                [
                    306508, 
                    [
                        {
                            "pitch": 26, 
                            "t0": 306508, 
                            "v": 106, 
                            "dur": 62, 
                            "type": "note", 
                            "channel": 0
                        }
                    ]
                ], 
                [
                    306570, 
                    [
                        {
                            "pitch": 38, 
                            "t0": 306570, 
                            "v": 94, 
                            "dur": 83, 
                            "type": "note", 
                            "channel": 0
                        }
                    ]
                ], 
                [
                    306639, 
                    [
                        {
                            "pitch": 26, 
                            "t0": 306639, 
                            "v": 94, 
                            "dur": 67, 
                            "type": "note", 
                            "channel": 0
                        }
                    ]
                ], 
                [
                    306648, 
                    [
                        {
                            "pitch": 31, 
                            "t0": 306648, 
                            "v": 104, 
                            "dur": 90, 
                            "type": "note", 
                            "channel": 0
                        }
                    ]
                ], 
                [
                    306699, 
                    [
                        {
                            "pitch": 38, 
                            "t0": 306699, 
                            "v": 108, 
                            "dur": 88, 
                            "type": "note", 
                            "channel": 0
                        }
                    ]
                ], 
                [
                    306763, 
                    [
                        {
                            "pitch": 26, 
                            "t0": 306763, 
                            "v": 100, 
                            "dur": 77, 
                            "type": "note", 
                            "channel": 0
                        }
                    ]
                ], 
                [
                    306773, 
                    [
                        {
                            "pitch": 31, 
                            "t0": 306773, 
                            "v": 103, 
                            "dur": 90, 
                            "type": "note", 
                            "channel": 0
                        }
                    ]
                ], 
                [
                    306835, 
                    [
                        {
                            "pitch": 38, 
                            "t0": 306835, 
                            "v": 103, 
                            "dur": 77, 
                            "type": "note", 
                            "channel": 0
                        }
                    ]
                ], 
                [
                    306894, 
                    [
                        {
                            "pitch": 26, 
                            "t0": 306894, 
                            "v": 97, 
                            "dur": 72, 
                            "type": "note", 
                            "channel": 0
                        }
                    ]
                ], 
                [
                    306897, 
                    [
                        {
                            "pitch": 31, 
                            "t0": 306897, 
                            "v": 91, 
                            "dur": 103, 
                            "type": "note", 
                            "channel": 0
                        }
                    ]
                ], 
                [
                    306957, 
                    [
                        {
                            "pitch": 38, 
                            "t0": 306957, 
                            "v": 108, 
                            "dur": 81, 
                            "type": "note", 
                            "channel": 0
                        }
                    ]
                ], 
                [
                    307013, 
                    [
                        {
                            "pitch": 26, 
                            "t0": 307013, 
                            "v": 111, 
                            "dur": 86, 
                            "type": "note", 
                            "channel": 0
                        }
                    ]
                ], 
                [
                    307019, 
                    [
                        {
                            "pitch": 31, 
                            "t0": 307019, 
                            "v": 54, 
                            "dur": 106, 
                            "type": "note", 
                            "channel": 0
                        }
                    ]
                ], 
                [
                    307077, 
                    [
                        {
                            "pitch": 38, 
                            "t0": 307077, 
                            "v": 105, 
                            "dur": 87, 
                            "type": "note", 
                            "channel": 0
                        }
                    ]
                ], 
                [
                    307141, 
                    [
                        {
                            "pitch": 26, 
                            "t0": 307141, 
                            "v": 111, 
                            "dur": 76, 
                            "type": "note", 
                            "channel": 0
                        }
                    ]
                ], 
                [
                    307146, 
                    [
                        {
                            "pitch": 31, 
                            "t0": 307146, 
                            "v": 55, 
                            "dur": 234, 
                            "type": "note", 
                            "channel": 0
                        }
                    ]
                ], 
                [
                    307200, 
                    [
                        {
                            "pitch": 38, 
                            "t0": 307200, 
                            "v": 97, 
                            "dur": 92, 
                            "type": "note", 
                            "channel": 0
                        }
                    ]
                ], 
                [
                    307267, 
                    [
                        {
                            "pitch": 26, 
                            "t0": 307267, 
                            "v": 100, 
                            "dur": 81, 
                            "type": "note", 
                            "channel": 0
                        }
                    ]
                ], 
                [
                    307328, 
                    [
                        {
                            "pitch": 38, 
                            "t0": 307328, 
                            "v": 88, 
                            "dur": 94, 
                            "type": "note", 
                            "channel": 0
                        }
                    ]
                ], 
                [
                    307397, 
                    [
                        {
                            "pitch": 26, 
                            "t0": 307397, 
                            "v": 101, 
                            "dur": 75, 
                            "type": "note", 
                            "channel": 0
                        }
                    ]
                ], 
                [
                    307405, 
                    [
                        {
                            "pitch": 31, 
                            "t0": 307405, 
                            "v": 68, 
                            "dur": 1035, 
                            "type": "note", 
                            "channel": 0
                        }
                    ]
                ], 
                [
                    307456, 
                    [
                        {
                            "pitch": 38, 
                            "t0": 307456, 
                            "v": 79, 
                            "dur": 91, 
                            "type": "note", 
                            "channel": 0
                        }
                    ]
                ], 
                [
                    307522, 
                    [
                        {
                            "pitch": 26, 
                            "t0": 307522, 
                            "v": 99, 
                            "dur": 74, 
                            "type": "note", 
                            "channel": 0
                        }
                    ]
                ], 
                [
                    307589, 
                    [
                        {
                            "pitch": 38, 
                            "t0": 307589, 
                            "v": 85, 
                            "dur": 84, 
                            "type": "note", 
                            "channel": 0
                        }
                    ]
                ], 
                [
                    307646, 
                    [
                        {
                            "pitch": 26, 
                            "t0": 307646, 
                            "v": 99, 
                            "dur": 60, 
                            "type": "note", 
                            "channel": 0
                        }
                    ]
                ], 
                [
                    307724, 
                    [
                        {
                            "pitch": 38, 
                            "t0": 307724, 
                            "v": 94, 
                            "dur": 75, 
                            "type": "note", 
                            "channel": 0
                        }
                    ]
                ], 
                [
                    307779, 
                    [
                        {
                            "pitch": 26, 
                            "t0": 307779, 
                            "v": 70, 
                            "dur": 72, 
                            "type": "note", 
                            "channel": 0
                        }
                    ]
                ], 
                [
                    307855, 
                    [
                        {
                            "pitch": 38, 
                            "t0": 307855, 
                            "v": 88, 
                            "dur": 97, 
                            "type": "note", 
                            "channel": 0
                        }
                    ]
                ], 
                [
                    307916, 
                    [
                        {
                            "pitch": 26, 
                            "t0": 307916, 
                            "v": 69, 
                            "dur": 81, 
                            "type": "note", 
                            "channel": 0
                        }
                    ]
                ], 
                [
                    307990, 
                    [
                        {
                            "pitch": 38, 
                            "t0": 307990, 
                            "v": 15, 
                            "dur": 372, 
                            "type": "note", 
                            "channel": 0
                        }
                    ]
                ], 
                [
                    308092, 
                    [
                        {
                            "pitch": 26, 
                            "t0": 308092, 
                            "v": 2, 
                            "dur": 356, 
                            "type": "note", 
                            "channel": 0
                        }
                    ]
                ], 
                [
                    309462, 
                    [
                        {
                            "pitch": 67, 
                            "t0": 309462, 
                            "v": 50, 
                            "dur": 69, 
                            "type": "note", 
                            "channel": 0
                        }
                    ]
                ], 
                [
                    309610, 
                    [
                        {
                            "pitch": 67, 
                            "t0": 309610, 
                            "v": 72, 
                            "dur": 88, 
                            "type": "note", 
                            "channel": 0
                        }
                    ]
                ], 
                [
                    309763, 
                    [
                        {
                            "pitch": 67, 
                            "t0": 309763, 
                            "v": 78, 
                            "dur": 52, 
                            "type": "note", 
                            "channel": 0
                        }
                    ]
                ], 
                [
                    309922, 
                    [
                        {
                            "pitch": 63, 
                            "t0": 309922, 
                            "v": 70, 
                            "dur": 1383, 
                            "type": "note", 
                            "channel": 0
                        }
                    ]
                ], 
                [
                    309944, 
                    [
                        {
                            "pitch": 36, 
                            "t0": 309944, 
                            "v": 44, 
                            "dur": 1234, 
                            "type": "note", 
                            "channel": 0
                        }
                    ]
                ], 
                [
                    309948, 
                    [
                        {
                            "pitch": 43, 
                            "t0": 309948, 
                            "v": 34, 
                            "dur": 1254, 
                            "type": "note", 
                            "channel": 0
                        }
                    ]
                ], 
                [
                    310066, 
                    [
                        {
                            "pitch": 68, 
                            "t0": 310066, 
                            "v": 70, 
                            "dur": 37, 
                            "type": "note", 
                            "channel": 0
                        }
                    ]
                ], 
                [
                    310203, 
                    [
                        {
                            "pitch": 68, 
                            "t0": 310203, 
                            "v": 72, 
                            "dur": 38, 
                            "type": "note", 
                            "channel": 0
                        }
                    ]
                ], 
                [
                    310347, 
                    [
                        {
                            "pitch": 68, 
                            "t0": 310347, 
                            "v": 68, 
                            "dur": 40, 
                            "type": "note", 
                            "channel": 0
                        }
                    ]
                ], 
                [
                    310506, 
                    [
                        {
                            "pitch": 67, 
                            "t0": 310506, 
                            "v": 55, 
                            "dur": 934, 
                            "type": "note", 
                            "channel": 0
                        }
                    ]
                ], 
                [
                    310640, 
                    [
                        {
                            "pitch": 75, 
                            "t0": 310640, 
                            "v": 56, 
                            "dur": 47, 
                            "type": "note", 
                            "channel": 0
                        }
                    ]
                ], 
                [
                    310782, 
                    [
                        {
                            "pitch": 75, 
                            "t0": 310782, 
                            "v": 55, 
                            "dur": 56, 
                            "type": "note", 
                            "channel": 0
                        }
                    ]
                ], 
                [
                    310933, 
                    [
                        {
                            "pitch": 75, 
                            "t0": 310933, 
                            "v": 59, 
                            "dur": 136, 
                            "type": "note", 
                            "channel": 0
                        }
                    ]
                ], 
                [
                    311155, 
                    [
                        {
                            "pitch": 72, 
                            "t0": 311155, 
                            "v": 61, 
                            "dur": 310, 
                            "type": "note", 
                            "channel": 0
                        }
                    ]
                ], 
                [
                    311523, 
                    [
                        {
                            "pitch": 80, 
                            "t0": 311523, 
                            "v": 72, 
                            "dur": 281, 
                            "type": "note", 
                            "channel": 0
                        }
                    ]
                ], 
                [
                    311891, 
                    [
                        {
                            "pitch": 79, 
                            "t0": 311891, 
                            "v": 44, 
                            "dur": 78, 
                            "type": "note", 
                            "channel": 0
                        }
                    ]
                ], 
                [
                    312041, 
                    [
                        {
                            "pitch": 67, 
                            "t0": 312041, 
                            "v": 53, 
                            "dur": 42, 
                            "type": "note", 
                            "channel": 0
                        }
                    ]
                ], 
                [
                    312181, 
                    [
                        {
                            "pitch": 67, 
                            "t0": 312181, 
                            "v": 56, 
                            "dur": 52, 
                            "type": "note", 
                            "channel": 0
                        }
                    ]
                ], 
                [
                    312336, 
                    [
                        {
                            "pitch": 67, 
                            "t0": 312336, 
                            "v": 53, 
                            "dur": 39, 
                            "type": "note", 
                            "channel": 0
                        }
                    ]
                ], 
                [
                    312485, 
                    [
                        {
                            "pitch": 63, 
                            "t0": 312485, 
                            "v": 56, 
                            "dur": 936, 
                            "type": "note", 
                            "channel": 0
                        }
                    ]
                ], 
                [
                    312531, 
                    [
                        {
                            "pitch": 36, 
                            "t0": 312531, 
                            "v": 8, 
                            "dur": 816, 
                            "type": "note", 
                            "channel": 0
                        }
                    ]
                ], 
                [
                    312631, 
                    [
                        {
                            "pitch": 68, 
                            "t0": 312631, 
                            "v": 62, 
                            "dur": 35, 
                            "type": "note", 
                            "channel": 0
                        }
                    ]
                ], 
                [
                    312801, 
                    [
                        {
                            "pitch": 68, 
                            "t0": 312801, 
                            "v": 33, 
                            "dur": 48, 
                            "type": "note", 
                            "channel": 0
                        }
                    ]
                ], 
                [
                    312808, 
                    [
                        {
                            "pitch": 43, 
                            "t0": 312808, 
                            "v": 6, 
                            "dur": 607, 
                            "type": "note", 
                            "channel": 0
                        }
                    ]
                ], 
                [
                    312908, 
                    [
                        {
                            "pitch": 68, 
                            "t0": 312908, 
                            "v": 64, 
                            "dur": 69, 
                            "type": "note", 
                            "channel": 0
                        }
                    ]
                ], 
                [
                    313088, 
                    [
                        {
                            "pitch": 67, 
                            "t0": 313088, 
                            "v": 57, 
                            "dur": 369, 
                            "type": "note", 
                            "channel": 0
                        }
                    ]
                ], 
                [
                    313223, 
                    [
                        {
                            "pitch": 75, 
                            "t0": 313223, 
                            "v": 65, 
                            "dur": 46, 
                            "type": "note", 
                            "channel": 0
                        }
                    ]
                ], 
                [
                    313368, 
                    [
                        {
                            "pitch": 75, 
                            "t0": 313368, 
                            "v": 58, 
                            "dur": 50, 
                            "type": "note", 
                            "channel": 0
                        }
                    ]
                ], 
                [
                    313532, 
                    [
                        {
                            "pitch": 75, 
                            "t0": 313532, 
                            "v": 55, 
                            "dur": 47, 
                            "type": "note", 
                            "channel": 0
                        }
                    ]
                ], 
                [
                    313732, 
                    [
                        {
                            "pitch": 72, 
                            "t0": 313732, 
                            "v": 60, 
                            "dur": 546, 
                            "type": "note", 
                            "channel": 0
                        }
                    ]
                ], 
                [
                    314088, 
                    [
                        {
                            "pitch": 80, 
                            "t0": 314088, 
                            "v": 54, 
                            "dur": 369, 
                            "type": "note", 
                            "channel": 0
                        }
                    ]
                ], 
                [
                    314473, 
                    [
                        {
                            "pitch": 79, 
                            "t0": 314473, 
                            "v": 75, 
                            "dur": 28, 
                            "type": "note", 
                            "channel": 0
                        }
                    ]
                ], 
                [
                    314827, 
                    [
                        {
                            "pitch": 43, 
                            "t0": 314827, 
                            "v": 105, 
                            "dur": 69, 
                            "type": "note", 
                            "channel": 0
                        }, 
                        {
                            "pitch": 55, 
                            "t0": 314827, 
                            "v": 111, 
                            "dur": 80, 
                            "type": "note", 
                            "channel": 0
                        }, 
                        {
                            "pitch": 86, 
                            "t0": 314827, 
                            "v": 116, 
                            "dur": 86, 
                            "type": "note", 
                            "channel": 0
                        }, 
                        {
                            "pitch": 74, 
                            "t0": 314827, 
                            "v": 119, 
                            "dur": 86, 
                            "type": "note", 
                            "channel": 0
                        }, 
                        {
                            "pitch": 83, 
                            "t0": 314827, 
                            "v": 103, 
                            "dur": 86, 
                            "type": "note", 
                            "channel": 0
                        }
                    ]
                ], 
                [
                    314832, 
                    [
                        {
                            "pitch": 79, 
                            "t0": 314832, 
                            "v": 108, 
                            "dur": 90, 
                            "type": "note", 
                            "channel": 0
                        }
                    ]
                ], 
                [
                    314835, 
                    [
                        {
                            "pitch": 47, 
                            "t0": 314835, 
                            "v": 95, 
                            "dur": 72, 
                            "type": "note", 
                            "channel": 0
                        }, 
                        {
                            "pitch": 50, 
                            "t0": 314835, 
                            "v": 106, 
                            "dur": 75, 
                            "type": "note", 
                            "channel": 0
                        }
                    ]
                ], 
                [
                    314958, 
                    [
                        {
                            "pitch": 43, 
                            "t0": 314958, 
                            "v": 99, 
                            "dur": 69, 
                            "type": "note", 
                            "channel": 0
                        }, 
                        {
                            "pitch": 47, 
                            "t0": 314958, 
                            "v": 97, 
                            "dur": 84, 
                            "type": "note", 
                            "channel": 0
                        }, 
                        {
                            "pitch": 55, 
                            "t0": 314958, 
                            "v": 114, 
                            "dur": 84, 
                            "type": "note", 
                            "channel": 0
                        }
                    ]
                ], 
                [
                    314961, 
                    [
                        {
                            "pitch": 86, 
                            "t0": 314961, 
                            "v": 110, 
                            "dur": 78, 
                            "type": "note", 
                            "channel": 0
                        }, 
                        {
                            "pitch": 50, 
                            "t0": 314961, 
                            "v": 103, 
                            "dur": 81, 
                            "type": "note", 
                            "channel": 0
                        }, 
                        {
                            "pitch": 74, 
                            "t0": 314961, 
                            "v": 121, 
                            "dur": 81, 
                            "type": "note", 
                            "channel": 0
                        }
                    ]
                ], 
                [
                    314965, 
                    [
                        {
                            "pitch": 83, 
                            "t0": 314965, 
                            "v": 103, 
                            "dur": 93, 
                            "type": "note", 
                            "channel": 0
                        }, 
                        {
                            "pitch": 79, 
                            "t0": 314965, 
                            "v": 115, 
                            "dur": 98, 
                            "type": "note", 
                            "channel": 0
                        }
                    ]
                ], 
                [
                    315091, 
                    [
                        {
                            "pitch": 55, 
                            "t0": 315091, 
                            "v": 115, 
                            "dur": 59, 
                            "type": "note", 
                            "channel": 0
                        }, 
                        {
                            "pitch": 43, 
                            "t0": 315091, 
                            "v": 93, 
                            "dur": 62, 
                            "type": "note", 
                            "channel": 0
                        }, 
                        {
                            "pitch": 50, 
                            "t0": 315091, 
                            "v": 106, 
                            "dur": 67, 
                            "type": "note", 
                            "channel": 0
                        }, 
                        {
                            "pitch": 47, 
                            "t0": 315091, 
                            "v": 99, 
                            "dur": 71, 
                            "type": "note", 
                            "channel": 0
                        }
                    ]
                ], 
                [
                    315094, 
                    [
                        {
                            "pitch": 86, 
                            "t0": 315094, 
                            "v": 105, 
                            "dur": 82, 
                            "type": "note", 
                            "channel": 0
                        }, 
                        {
                            "pitch": 74, 
                            "t0": 315094, 
                            "v": 117, 
                            "dur": 90, 
                            "type": "note", 
                            "channel": 0
                        }
                    ]
                ], 
                [
                    315103, 
                    [
                        {
                            "pitch": 83, 
                            "t0": 315103, 
                            "v": 110, 
                            "dur": 111, 
                            "type": "note", 
                            "channel": 0
                        }, 
                        {
                            "pitch": 79, 
                            "t0": 315103, 
                            "v": 110, 
                            "dur": 117, 
                            "type": "note", 
                            "channel": 0
                        }
                    ]
                ], 
                [
                    315254, 
                    [
                        {
                            "pitch": 60, 
                            "t0": 315254, 
                            "v": 127, 
                            "dur": 264, 
                            "type": "note", 
                            "channel": 0
                        }, 
                        {
                            "pitch": 87, 
                            "t0": 315254, 
                            "v": 119, 
                            "dur": 333, 
                            "type": "note", 
                            "channel": 0
                        }
                    ]
                ], 
                [
                    315257, 
                    [
                        {
                            "pitch": 75, 
                            "t0": 315257, 
                            "v": 121, 
                            "dur": 305, 
                            "type": "note", 
                            "channel": 0
                        }, 
                        {
                            "pitch": 84, 
                            "t0": 315257, 
                            "v": 117, 
                            "dur": 316, 
                            "type": "note", 
                            "channel": 0
                        }, 
                        {
                            "pitch": 48, 
                            "t0": 315257, 
                            "v": 123, 
                            "dur": 323, 
                            "type": "note", 
                            "channel": 0
                        }
                    ]
                ], 
                [
                    315260, 
                    [
                        {
                            "pitch": 51, 
                            "t0": 315260, 
                            "v": 115, 
                            "dur": 267, 
                            "type": "note", 
                            "channel": 0
                        }, 
                        {
                            "pitch": 55, 
                            "t0": 315260, 
                            "v": 120, 
                            "dur": 283, 
                            "type": "note", 
                            "channel": 0
                        }, 
                        {
                            "pitch": 79, 
                            "t0": 315260, 
                            "v": 121, 
                            "dur": 313, 
                            "type": "note", 
                            "channel": 0
                        }
                    ]
                ], 
                [
                    316031, 
                    [
                        {
                            "pitch": 74, 
                            "t0": 316031, 
                            "v": 124, 
                            "dur": 91, 
                            "type": "note", 
                            "channel": 0
                        }, 
                        {
                            "pitch": 86, 
                            "t0": 316031, 
                            "v": 118, 
                            "dur": 91, 
                            "type": "note", 
                            "channel": 0
                        }, 
                        {
                            "pitch": 83, 
                            "t0": 316031, 
                            "v": 109, 
                            "dur": 102, 
                            "type": "note", 
                            "channel": 0
                        }
                    ]
                ], 
                [
                    316034, 
                    [
                        {
                            "pitch": 79, 
                            "t0": 316034, 
                            "v": 117, 
                            "dur": 99, 
                            "type": "note", 
                            "channel": 0
                        }, 
                        {
                            "pitch": 55, 
                            "t0": 316034, 
                            "v": 122, 
                            "dur": 102, 
                            "type": "note", 
                            "channel": 0
                        }
                    ]
                ], 
                [
                    316041, 
                    [
                        {
                            "pitch": 50, 
                            "t0": 316041, 
                            "v": 108, 
                            "dur": 31, 
                            "type": "note", 
                            "channel": 0
                        }, 
                        {
                            "pitch": 43, 
                            "t0": 316041, 
                            "v": 114, 
                            "dur": 68, 
                            "type": "note", 
                            "channel": 0
                        }, 
                        {
                            "pitch": 47, 
                            "t0": 316041, 
                            "v": 103, 
                            "dur": 92, 
                            "type": "note", 
                            "channel": 0
                        }
                    ]
                ], 
                [
                    316173, 
                    [
                        {
                            "pitch": 43, 
                            "t0": 316173, 
                            "v": 95, 
                            "dur": 64, 
                            "type": "note", 
                            "channel": 0
                        }, 
                        {
                            "pitch": 50, 
                            "t0": 316173, 
                            "v": 103, 
                            "dur": 67, 
                            "type": "note", 
                            "channel": 0
                        }
                    ]
                ], 
                [
                    316176, 
                    [
                        {
                            "pitch": 86, 
                            "t0": 316176, 
                            "v": 110, 
                            "dur": 64, 
                            "type": "note", 
                            "channel": 0
                        }, 
                        {
                            "pitch": 74, 
                            "t0": 316176, 
                            "v": 120, 
                            "dur": 83, 
                            "type": "note", 
                            "channel": 0
                        }, 
                        {
                            "pitch": 79, 
                            "t0": 316176, 
                            "v": 117, 
                            "dur": 88, 
                            "type": "note", 
                            "channel": 0
                        }
                    ]
                ], 
                [
                    316179, 
                    [
                        {
                            "pitch": 55, 
                            "t0": 316179, 
                            "v": 115, 
                            "dur": 58, 
                            "type": "note", 
                            "channel": 0
                        }, 
                        {
                            "pitch": 47, 
                            "t0": 316179, 
                            "v": 106, 
                            "dur": 69, 
                            "type": "note", 
                            "channel": 0
                        }, 
                        {
                            "pitch": 83, 
                            "t0": 316179, 
                            "v": 111, 
                            "dur": 75, 
                            "type": "note", 
                            "channel": 0
                        }
                    ]
                ], 
                [
                    316297, 
                    [
                        {
                            "pitch": 47, 
                            "t0": 316297, 
                            "v": 97, 
                            "dur": 82, 
                            "type": "note", 
                            "channel": 0
                        }
                    ]
                ], 
                [
                    316300, 
                    [
                        {
                            "pitch": 50, 
                            "t0": 316300, 
                            "v": 101, 
                            "dur": 54, 
                            "type": "note", 
                            "channel": 0
                        }, 
                        {
                            "pitch": 43, 
                            "t0": 316300, 
                            "v": 97, 
                            "dur": 65, 
                            "type": "note", 
                            "channel": 0
                        }, 
                        {
                            "pitch": 55, 
                            "t0": 316300, 
                            "v": 111, 
                            "dur": 68, 
                            "type": "note", 
                            "channel": 0
                        }, 
                        {
                            "pitch": 83, 
                            "t0": 316300, 
                            "v": 105, 
                            "dur": 120, 
                            "type": "note", 
                            "channel": 0
                        }
                    ]
                ], 
                [
                    316304, 
                    [
                        {
                            "pitch": 74, 
                            "t0": 316304, 
                            "v": 119, 
                            "dur": 80, 
                            "type": "note", 
                            "channel": 0
                        }, 
                        {
                            "pitch": 86, 
                            "t0": 316304, 
                            "v": 103, 
                            "dur": 80, 
                            "type": "note", 
                            "channel": 0
                        }
                    ]
                ], 
                [
                    316307, 
                    [
                        {
                            "pitch": 79, 
                            "t0": 316307, 
                            "v": 115, 
                            "dur": 113, 
                            "type": "note", 
                            "channel": 0
                        }
                    ]
                ], 
                [
                    316451, 
                    [
                        {
                            "pitch": 48, 
                            "t0": 316451, 
                            "v": 123, 
                            "dur": 253, 
                            "type": "note", 
                            "channel": 0
                        }, 
                        {
                            "pitch": 60, 
                            "t0": 316451, 
                            "v": 127, 
                            "dur": 253, 
                            "type": "note", 
                            "channel": 0
                        }, 
                        {
                            "pitch": 55, 
                            "t0": 316451, 
                            "v": 108, 
                            "dur": 264, 
                            "type": "note", 
                            "channel": 0
                        }, 
                        {
                            "pitch": 84, 
                            "t0": 316451, 
                            "v": 117, 
                            "dur": 284, 
                            "type": "note", 
                            "channel": 0
                        }, 
                        {
                            "pitch": 87, 
                            "t0": 316451, 
                            "v": 119, 
                            "dur": 312, 
                            "type": "note", 
                            "channel": 0
                        }
                    ]
                ], 
                [
                    316456, 
                    [
                        {
                            "pitch": 51, 
                            "t0": 316456, 
                            "v": 114, 
                            "dur": 241, 
                            "type": "note", 
                            "channel": 0
                        }, 
                        {
                            "pitch": 75, 
                            "t0": 316456, 
                            "v": 122, 
                            "dur": 279, 
                            "type": "note", 
                            "channel": 0
                        }
                    ]
                ], 
                [
                    316460, 
                    [
                        {
                            "pitch": 79, 
                            "t0": 316460, 
                            "v": 121, 
                            "dur": 300, 
                            "type": "note", 
                            "channel": 0
                        }
                    ]
                ], 
                [
                    317284, 
                    [
                        {
                            "pitch": 74, 
                            "t0": 317284, 
                            "v": 123, 
                            "dur": 58, 
                            "type": "note", 
                            "channel": 0
                        }, 
                        {
                            "pitch": 83, 
                            "t0": 317284, 
                            "v": 108, 
                            "dur": 76, 
                            "type": "note", 
                            "channel": 0
                        }, 
                        {
                            "pitch": 86, 
                            "t0": 317284, 
                            "v": 115, 
                            "dur": 87, 
                            "type": "note", 
                            "channel": 0
                        }
                    ]
                ], 
                [
                    317287, 
                    [
                        {
                            "pitch": 55, 
                            "t0": 317287, 
                            "v": 123, 
                            "dur": 59, 
                            "type": "note", 
                            "channel": 0
                        }, 
                        {
                            "pitch": 79, 
                            "t0": 317287, 
                            "v": 115, 
                            "dur": 80, 
                            "type": "note", 
                            "channel": 0
                        }
                    ]
                ], 
                [
                    317292, 
                    [
                        {
                            "pitch": 50, 
                            "t0": 317292, 
                            "v": 111, 
                            "dur": 23, 
                            "type": "note", 
                            "channel": 0
                        }, 
                        {
                            "pitch": 47, 
                            "t0": 317292, 
                            "v": 103, 
                            "dur": 23, 
                            "type": "note", 
                            "channel": 0
                        }, 
                        {
                            "pitch": 43, 
                            "t0": 317292, 
                            "v": 115, 
                            "dur": 37, 
                            "type": "note", 
                            "channel": 0
                        }
                    ]
                ], 
                [
                    317413, 
                    [
                        {
                            "pitch": 74, 
                            "t0": 317413, 
                            "v": 121, 
                            "dur": 61, 
                            "type": "note", 
                            "channel": 0
                        }, 
                        {
                            "pitch": 86, 
                            "t0": 317413, 
                            "v": 117, 
                            "dur": 71, 
                            "type": "note", 
                            "channel": 0
                        }, 
                        {
                            "pitch": 55, 
                            "t0": 317413, 
                            "v": 93, 
                            "dur": 74, 
                            "type": "note", 
                            "channel": 0
                        }, 
                        {
                            "pitch": 83, 
                            "t0": 317413, 
                            "v": 106, 
                            "dur": 82, 
                            "type": "note", 
                            "channel": 0
                        }, 
                        {
                            "pitch": 79, 
                            "t0": 317413, 
                            "v": 115, 
                            "dur": 94, 
                            "type": "note", 
                            "channel": 0
                        }
                    ]
                ], 
                [
                    317417, 
                    [
                        {
                            "pitch": 43, 
                            "t0": 317417, 
                            "v": 109, 
                            "dur": 67, 
                            "type": "note", 
                            "channel": 0
                        }, 
                        {
                            "pitch": 47, 
                            "t0": 317417, 
                            "v": 97, 
                            "dur": 67, 
                            "type": "note", 
                            "channel": 0
                        }
                    ]
                ], 
                [
                    317421, 
                    [
                        {
                            "pitch": 50, 
                            "t0": 317421, 
                            "v": 112, 
                            "dur": 74, 
                            "type": "note", 
                            "channel": 0
                        }
                    ]
                ], 
                [
                    317532, 
                    [
                        {
                            "pitch": 47, 
                            "t0": 317532, 
                            "v": 100, 
                            "dur": 58, 
                            "type": "note", 
                            "channel": 0
                        }, 
                        {
                            "pitch": 55, 
                            "t0": 317532, 
                            "v": 111, 
                            "dur": 78, 
                            "type": "note", 
                            "channel": 0
                        }
                    ]
                ], 
                [
                    317535, 
                    [
                        {
                            "pitch": 43, 
                            "t0": 317535, 
                            "v": 88, 
                            "dur": 36, 
                            "type": "note", 
                            "channel": 0
                        }, 
                        {
                            "pitch": 86, 
                            "t0": 317535, 
                            "v": 106, 
                            "dur": 55, 
                            "type": "note", 
                            "channel": 0
                        }, 
                        {
                            "pitch": 74, 
                            "t0": 317535, 
                            "v": 106, 
                            "dur": 61, 
                            "type": "note", 
                            "channel": 0
                        }
                    ]
                ], 
                [
                    317543, 
                    [
                        {
                            "pitch": 50, 
                            "t0": 317543, 
                            "v": 105, 
                            "dur": 23, 
                            "type": "note", 
                            "channel": 0
                        }
                    ]
                ], 
                [
                    317546, 
                    [
                        {
                            "pitch": 79, 
                            "t0": 317546, 
                            "v": 93, 
                            "dur": 101, 
                            "type": "note", 
                            "channel": 0
                        }, 
                        {
                            "pitch": 83, 
                            "t0": 317546, 
                            "v": 103, 
                            "dur": 101, 
                            "type": "note", 
                            "channel": 0
                        }
                    ]
                ], 
                [
                    317686, 
                    [
                        {
                            "pitch": 60, 
                            "t0": 317686, 
                            "v": 125, 
                            "dur": 102, 
                            "type": "note", 
                            "channel": 0
                        }, 
                        {
                            "pitch": 75, 
                            "t0": 317686, 
                            "v": 123, 
                            "dur": 102, 
                            "type": "note", 
                            "channel": 0
                        }, 
                        {
                            "pitch": 84, 
                            "t0": 317686, 
                            "v": 116, 
                            "dur": 108, 
                            "type": "note", 
                            "channel": 0
                        }, 
                        {
                            "pitch": 48, 
                            "t0": 317686, 
                            "v": 119, 
                            "dur": 119, 
                            "type": "note", 
                            "channel": 0
                        }, 
                        {
                            "pitch": 51, 
                            "t0": 317686, 
                            "v": 113, 
                            "dur": 124, 
                            "type": "note", 
                            "channel": 0
                        }, 
                        {
                            "pitch": 87, 
                            "t0": 317686, 
                            "v": 115, 
                            "dur": 133, 
                            "type": "note", 
                            "channel": 0
                        }
                    ]
                ], 
                [
                    317690, 
                    [
                        {
                            "pitch": 55, 
                            "t0": 317690, 
                            "v": 100, 
                            "dur": 76, 
                            "type": "note", 
                            "channel": 0
                        }, 
                        {
                            "pitch": 79, 
                            "t0": 317690, 
                            "v": 117, 
                            "dur": 84, 
                            "type": "note", 
                            "channel": 0
                        }
                    ]
                ], 
                [
                    317966, 
                    [
                        {
                            "pitch": 86, 
                            "t0": 317966, 
                            "v": 117, 
                            "dur": 126, 
                            "type": "note", 
                            "channel": 0
                        }, 
                        {
                            "pitch": 83, 
                            "t0": 317966, 
                            "v": 107, 
                            "dur": 126, 
                            "type": "note", 
                            "channel": 0
                        }, 
                        {
                            "pitch": 91, 
                            "t0": 317966, 
                            "v": 120, 
                            "dur": 139, 
                            "type": "note", 
                            "channel": 0
                        }
                    ]
                ], 
                [
                    317969, 
                    [
                        {
                            "pitch": 79, 
                            "t0": 317969, 
                            "v": 123, 
                            "dur": 109, 
                            "type": "note", 
                            "channel": 0
                        }, 
                        {
                            "pitch": 55, 
                            "t0": 317969, 
                            "v": 123, 
                            "dur": 109, 
                            "type": "note", 
                            "channel": 0
                        }
                    ]
                ], 
                [
                    317972, 
                    [
                        {
                            "pitch": 43, 
                            "t0": 317972, 
                            "v": 113, 
                            "dur": 89, 
                            "type": "note", 
                            "channel": 0
                        }, 
                        {
                            "pitch": 47, 
                            "t0": 317972, 
                            "v": 104, 
                            "dur": 112, 
                            "type": "note", 
                            "channel": 0
                        }
                    ]
                ], 
                [
                    317975, 
                    [
                        {
                            "pitch": 50, 
                            "t0": 317975, 
                            "v": 114, 
                            "dur": 83, 
                            "type": "note", 
                            "channel": 0
                        }
                    ]
                ], 
                [
                    318256, 
                    [
                        {
                            "pitch": 79, 
                            "t0": 318256, 
                            "v": 124, 
                            "dur": 115, 
                            "type": "note", 
                            "channel": 0
                        }, 
                        {
                            "pitch": 91, 
                            "t0": 318256, 
                            "v": 119, 
                            "dur": 125, 
                            "type": "note", 
                            "channel": 0
                        }, 
                        {
                            "pitch": 84, 
                            "t0": 318256, 
                            "v": 118, 
                            "dur": 139, 
                            "type": "note", 
                            "channel": 0
                        }, 
                        {
                            "pitch": 87, 
                            "t0": 318256, 
                            "v": 115, 
                            "dur": 156, 
                            "type": "note", 
                            "channel": 0
                        }
                    ]
                ], 
                [
                    318260, 
                    [
                        {
                            "pitch": 60, 
                            "t0": 318260, 
                            "v": 125, 
                            "dur": 111, 
                            "type": "note", 
                            "channel": 0
                        }, 
                        {
                            "pitch": 51, 
                            "t0": 318260, 
                            "v": 116, 
                            "dur": 143, 
                            "type": "note", 
                            "channel": 0
                        }
                    ]
                ], 
                [
                    318264, 
                    [
                        {
                            "pitch": 55, 
                            "t0": 318264, 
                            "v": 118, 
                            "dur": 87, 
                            "type": "note", 
                            "channel": 0
                        }, 
                        {
                            "pitch": 48, 
                            "t0": 318264, 
                            "v": 121, 
                            "dur": 135, 
                            "type": "note", 
                            "channel": 0
                        }
                    ]
                ], 
                [
                    318546, 
                    [
                        {
                            "pitch": 55, 
                            "t0": 318546, 
                            "v": 124, 
                            "dur": 119, 
                            "type": "note", 
                            "channel": 0
                        }, 
                        {
                            "pitch": 79, 
                            "t0": 318546, 
                            "v": 124, 
                            "dur": 119, 
                            "type": "note", 
                            "channel": 0
                        }, 
                        {
                            "pitch": 91, 
                            "t0": 318546, 
                            "v": 120, 
                            "dur": 137, 
                            "type": "note", 
                            "channel": 0
                        }, 
                        {
                            "pitch": 86, 
                            "t0": 318546, 
                            "v": 117, 
                            "dur": 137, 
                            "type": "note", 
                            "channel": 0
                        }
                    ]
                ], 
                [
                    318549, 
                    [
                        {
                            "pitch": 50, 
                            "t0": 318549, 
                            "v": 114, 
                            "dur": 78, 
                            "type": "note", 
                            "channel": 0
                        }, 
                        {
                            "pitch": 47, 
                            "t0": 318549, 
                            "v": 106, 
                            "dur": 100, 
                            "type": "note", 
                            "channel": 0
                        }, 
                        {
                            "pitch": 83, 
                            "t0": 318549, 
                            "v": 105, 
                            "dur": 134, 
                            "type": "note", 
                            "channel": 0
                        }
                    ]
                ], 
                [
                    318552, 
                    [
                        {
                            "pitch": 43, 
                            "t0": 318552, 
                            "v": 114, 
                            "dur": 75, 
                            "type": "note", 
                            "channel": 0
                        }
                    ]
                ], 
                [
                    318833, 
                    [
                        {
                            "pitch": 79, 
                            "t0": 318833, 
                            "v": 123, 
                            "dur": 101, 
                            "type": "note", 
                            "channel": 0
                        }, 
                        {
                            "pitch": 84, 
                            "t0": 318833, 
                            "v": 121, 
                            "dur": 122, 
                            "type": "note", 
                            "channel": 0
                        }, 
                        {
                            "pitch": 87, 
                            "t0": 318833, 
                            "v": 114, 
                            "dur": 151, 
                            "type": "note", 
                            "channel": 0
                        }
                    ]
                ], 
                [
                    318836, 
                    [
                        {
                            "pitch": 60, 
                            "t0": 318836, 
                            "v": 120, 
                            "dur": 86, 
                            "type": "note", 
                            "channel": 0
                        }, 
                        {
                            "pitch": 91, 
                            "t0": 318836, 
                            "v": 116, 
                            "dur": 123, 
                            "type": "note", 
                            "channel": 0
                        }
                    ]
                ], 
                [
                    318842, 
                    [
                        {
                            "pitch": 55, 
                            "t0": 318842, 
                            "v": 111, 
                            "dur": 80, 
                            "type": "note", 
                            "channel": 0
                        }, 
                        {
                            "pitch": 51, 
                            "t0": 318842, 
                            "v": 106, 
                            "dur": 103, 
                            "type": "note", 
                            "channel": 0
                        }, 
                        {
                            "pitch": 48, 
                            "t0": 318842, 
                            "v": 114, 
                            "dur": 110, 
                            "type": "note", 
                            "channel": 0
                        }
                    ]
                ], 
                [
                    319114, 
                    [
                        {
                            "pitch": 55, 
                            "t0": 319114, 
                            "v": 117, 
                            "dur": 65, 
                            "type": "note", 
                            "channel": 0
                        }, 
                        {
                            "pitch": 50, 
                            "t0": 319114, 
                            "v": 111, 
                            "dur": 79, 
                            "type": "note", 
                            "channel": 0
                        }, 
                        {
                            "pitch": 83, 
                            "t0": 319114, 
                            "v": 107, 
                            "dur": 104, 
                            "type": "note", 
                            "channel": 0
                        }, 
                        {
                            "pitch": 86, 
                            "t0": 319114, 
                            "v": 118, 
                            "dur": 112, 
                            "type": "note", 
                            "channel": 0
                        }
                    ]
                ], 
                [
                    319117, 
                    [
                        {
                            "pitch": 79, 
                            "t0": 319117, 
                            "v": 124, 
                            "dur": 76, 
                            "type": "note", 
                            "channel": 0
                        }, 
                        {
                            "pitch": 47, 
                            "t0": 319117, 
                            "v": 100, 
                            "dur": 90, 
                            "type": "note", 
                            "channel": 0
                        }, 
                        {
                            "pitch": 43, 
                            "t0": 319117, 
                            "v": 108, 
                            "dur": 95, 
                            "type": "note", 
                            "channel": 0
                        }
                    ]
                ], 
                [
                    319120, 
                    [
                        {
                            "pitch": 91, 
                            "t0": 319120, 
                            "v": 115, 
                            "dur": 98, 
                            "type": "note", 
                            "channel": 0
                        }
                    ]
                ], 
                [
                    319393, 
                    [
                        {
                            "pitch": 79, 
                            "t0": 319393, 
                            "v": 123, 
                            "dur": 86, 
                            "type": "note", 
                            "channel": 0
                        }, 
                        {
                            "pitch": 48, 
                            "t0": 319393, 
                            "v": 121, 
                            "dur": 89, 
                            "type": "note", 
                            "channel": 0
                        }, 
                        {
                            "pitch": 84, 
                            "t0": 319393, 
                            "v": 119, 
                            "dur": 109, 
                            "type": "note", 
                            "channel": 0
                        }, 
                        {
                            "pitch": 87, 
                            "t0": 319393, 
                            "v": 114, 
                            "dur": 139, 
                            "type": "note", 
                            "channel": 0
                        }
                    ]
                ], 
                [
                    319396, 
                    [
                        {
                            "pitch": 36, 
                            "t0": 319396, 
                            "v": 119, 
                            "dur": 61, 
                            "type": "note", 
                            "channel": 0
                        }, 
                        {
                            "pitch": 91, 
                            "t0": 319396, 
                            "v": 115, 
                            "dur": 70, 
                            "type": "note", 
                            "channel": 0
                        }, 
                        {
                            "pitch": 43, 
                            "t0": 319396, 
                            "v": 111, 
                            "dur": 70, 
                            "type": "note", 
                            "channel": 0
                        }
                    ]
                ], 
                [
                    319677, 
                    [
                        {
                            "pitch": 91, 
                            "t0": 319677, 
                            "v": 117, 
                            "dur": 86, 
                            "type": "note", 
                            "channel": 0
                        }, 
                        {
                            "pitch": 79, 
                            "t0": 319677, 
                            "v": 121, 
                            "dur": 90, 
                            "type": "note", 
                            "channel": 0
                        }, 
                        {
                            "pitch": 83, 
                            "t0": 319677, 
                            "v": 106, 
                            "dur": 115, 
                            "type": "note", 
                            "channel": 0
                        }, 
                        {
                            "pitch": 86, 
                            "t0": 319677, 
                            "v": 116, 
                            "dur": 130, 
                            "type": "note", 
                            "channel": 0
                        }
                    ]
                ], 
                [
                    319681, 
                    [
                        {
                            "pitch": 31, 
                            "t0": 319681, 
                            "v": 120, 
                            "dur": 35, 
                            "type": "note", 
                            "channel": 0
                        }, 
                        {
                            "pitch": 38, 
                            "t0": 319681, 
                            "v": 115, 
                            "dur": 82, 
                            "type": "note", 
                            "channel": 0
                        }, 
                        {
                            "pitch": 43, 
                            "t0": 319681, 
                            "v": 118, 
                            "dur": 86, 
                            "type": "note", 
                            "channel": 0
                        }
                    ]
                ], 
                [
                    319983, 
                    [
                        {
                            "pitch": 91, 
                            "t0": 319983, 
                            "v": 119, 
                            "dur": 51, 
                            "type": "note", 
                            "channel": 0
                        }, 
                        {
                            "pitch": 36, 
                            "t0": 319983, 
                            "v": 115, 
                            "dur": 62, 
                            "type": "note", 
                            "channel": 0
                        }, 
                        {
                            "pitch": 43, 
                            "t0": 319983, 
                            "v": 110, 
                            "dur": 95, 
                            "type": "note", 
                            "channel": 0
                        }, 
                        {
                            "pitch": 84, 
                            "t0": 319983, 
                            "v": 122, 
                            "dur": 103, 
                            "type": "note", 
                            "channel": 0
                        }, 
                        {
                            "pitch": 87, 
                            "t0": 319983, 
                            "v": 116, 
                            "dur": 107, 
                            "type": "note", 
                            "channel": 0
                        }
                    ]
                ], 
                [
                    319986, 
                    [
                        {
                            "pitch": 79, 
                            "t0": 319986, 
                            "v": 123, 
                            "dur": 72, 
                            "type": "note", 
                            "channel": 0
                        }, 
                        {
                            "pitch": 48, 
                            "t0": 319986, 
                            "v": 121, 
                            "dur": 80, 
                            "type": "note", 
                            "channel": 0
                        }
                    ]
                ], 
                [
                    319989, 
                    [
                        {
                            "pitch": 39, 
                            "t0": 319989, 
                            "v": 105, 
                            "dur": 81, 
                            "type": "note", 
                            "channel": 0
                        }
                    ]
                ], 
                [
                    320601, 
                    [
                        {
                            "pitch": 59, 
                            "t0": 320601, 
                            "v": 118, 
                            "dur": 112, 
                            "type": "note", 
                            "channel": 0
                        }, 
                        {
                            "pitch": 55, 
                            "t0": 320601, 
                            "v": 120, 
                            "dur": 123, 
                            "type": "note", 
                            "channel": 0
                        }, 
                        {
                            "pitch": 71, 
                            "t0": 320601, 
                            "v": 110, 
                            "dur": 127, 
                            "type": "note", 
                            "channel": 0
                        }
                    ]
                ], 
                [
                    320604, 
                    [
                        {
                            "pitch": 43, 
                            "t0": 320604, 
                            "v": 113, 
                            "dur": 120, 
                            "type": "note", 
                            "channel": 0
                        }, 
                        {
                            "pitch": 62, 
                            "t0": 320604, 
                            "v": 115, 
                            "dur": 154, 
                            "type": "note", 
                            "channel": 0
                        }, 
                        {
                            "pitch": 67, 
                            "t0": 320604, 
                            "v": 113, 
                            "dur": 170, 
                            "type": "note", 
                            "channel": 0
                        }
                    ]
                ], 
                [
                    320610, 
                    [
                        {
                            "pitch": 50, 
                            "t0": 320610, 
                            "v": 111, 
                            "dur": 137, 
                            "type": "note", 
                            "channel": 0
                        }, 
                        {
                            "pitch": 47, 
                            "t0": 320610, 
                            "v": 101, 
                            "dur": 148, 
                            "type": "note", 
                            "channel": 0
                        }
                    ]
                ], 
                [
                    321376, 
                    [
                        {
                            "pitch": 60, 
                            "t0": 321376, 
                            "v": 124, 
                            "dur": 126, 
                            "type": "note", 
                            "channel": 0
                        }, 
                        {
                            "pitch": 72, 
                            "t0": 321376, 
                            "v": 123, 
                            "dur": 156, 
                            "type": "note", 
                            "channel": 0
                        }, 
                        {
                            "pitch": 63, 
                            "t0": 321376, 
                            "v": 113, 
                            "dur": 168, 
                            "type": "note", 
                            "channel": 0
                        }
                    ]
                ], 
                [
                    321381, 
                    [
                        {
                            "pitch": 67, 
                            "t0": 321381, 
                            "v": 115, 
                            "dur": 171, 
                            "type": "note", 
                            "channel": 0
                        }
                    ]
                ], 
                [
                    321384, 
                    [
                        {
                            "pitch": 48, 
                            "t0": 321384, 
                            "v": 126, 
                            "dur": 126, 
                            "type": "note", 
                            "channel": 0
                        }, 
                        {
                            "pitch": 36, 
                            "t0": 321384, 
                            "v": 121, 
                            "dur": 132, 
                            "type": "note", 
                            "channel": 0
                        }, 
                        {
                            "pitch": 43, 
                            "t0": 321384, 
                            "v": 113, 
                            "dur": 143, 
                            "type": "note", 
                            "channel": 0
                        }, 
                        {
                            "pitch": 39, 
                            "t0": 321384, 
                            "v": 110, 
                            "dur": 154, 
                            "type": "note", 
                            "channel": 0
                        }
                    ]
                ]
            ], 
            "instruments": [], 
            "tMax": 321538, 
            "channels": [
                0
            ], 
            "numNotes": 5233, 
            "type": "TrackObj"
        }
    ], 
    "type": "MidiObj"
}